<?xml version="1.0" standalone="no"?> 
<!DOCTYPE svg PUBLIC "-//W3C//DTD SVG 1.1//EN" "http://www.w3.org/Graphics/SVG/1.1/DTD/svg11.dtd" >
<svg xmlns="http://www.w3.org/2000/svg">
<defs>
  <font id="neo-iconfont" horiz-adv-x="40">
    <font-face font-family="neo-iconfont"
      units-per-em="40" ascent="40"
      descent="0" />
    <missing-glyph horiz-adv-x="0" />
    <glyph glyph-name="accounts"
      unicode="&#xF101;"
      horiz-adv-x="40" d=" M30.31425 7.706L24.777375 10.642C26.0645 11.57375 27.411375 13.380375 28.045375 15.374125C28.332 16.273125 28.498 17.467 28.574875 18.91725C28.636 20.05825 28.638375 21.168875 28.607125 22.574875C28.607125 22.579125 28.59325 23.188625 28.59075 23.31275C28.56525 24.81725 27.520125 26.777875 26.208875 27.9702875C24.27375 29.730775 22.478625 30.737525 20.017375 30.737525C17.547875 30.737525 15.75025 29.73125 13.81475 27.9698C12.5035 26.777875 11.458275 24.81725 11.4332625 23.31175C11.4308625 23.188625 11.416425 22.579125 11.416425 22.574875C11.3851625 21.168875 11.3875625 20.05825 11.4486625 18.91725C11.5261 17.467 11.69205 16.273125 11.97825 15.373625C12.61275 13.379875 13.9595 11.57375 15.24625 10.642L9.8093875 7.600625C6.229725 10.54825 3.943025 15.012 3.943025 20C3.943025 28.8539 11.1461 36.056975 20.0005 36.056975C28.854375 36.056975 36.057 28.8539 36.057 20C36.057 15.070125 33.82225 10.654 30.31425 7.706zM11.1461 6.613625L16.44975 9.3375L16.54825 9.396625C16.63875 9.460125 16.742125 9.551125 16.843625 9.6785C17.3795 10.349125 17.23275 11.2485 16.293875 11.873375C15.25625 12.5655 14.039875 14.153375 13.487125 15.89075C13.2495 16.634875 13.0995 17.718625 13.02775 19.05525C12.969125 20.15825 12.96675 21.24675 12.9975 22.630625C12.9975 22.630125 13.011875 23.2535 13.014375 23.385375C13.031125 24.39875 13.86625 25.965 14.8725 26.880375C16.54875 28.4051125 18.04525 29.2435125 20.017375 29.2435125C21.98025 29.2435125 23.47525 28.4046375 25.151125 26.880375C26.157875 25.965 26.992375 24.39875 27.00975 23.38625C27.012125 23.2535 27.0265 22.630125 27.0265 22.630625C27.057375 21.24675 27.054875 20.15825 26.99575 19.05525C26.924125 17.718625 26.774 16.634875 26.536875 15.89125C25.98425 14.153375 24.76775 12.5655 23.72975 11.873375C22.79125 11.2485 22.644125 10.349125 23.18 9.6785C23.281875 9.551125 23.384875 9.460125 23.522875 9.3635C23.522875 9.3635 26.384375 7.894 28.8645 6.62025C26.322375 4.93 23.27475 3.943 20.0005 3.943C16.729625 3.943 13.68625 4.928125 11.1461 6.613625zM20.0005 37.5C10.3505125 37.5 2.5 29.6499625 2.5 20C2.5 10.3505 10.3505125 2.5 20.0005 2.5C29.6495 2.5 37.5 10.3505 37.5 20C37.5 29.6499625 29.6495 37.5 20.0005 37.5z" />
    <glyph glyph-name="add"
      unicode="&#xF102;"
      horiz-adv-x="40" d=" M32.194625 13.777875C32.552 13.777875 32.841625 13.47 32.841625 13.09025V8.689125H36.853C37.188 8.689125 37.4635 8.4185 37.496625 8.07175L37.5 8.001375C37.5 7.621625 37.210375 7.31375 36.853 7.31375H32.841625V3.187625C32.841625 2.831625 32.587 2.53875 32.26075 2.5035L32.194625 2.5C31.83725 2.5 31.547625 2.807875 31.547625 3.187625V7.31375H27.53625C27.20125 7.31375 26.92575 7.584375 26.892625 7.931125L26.88925 8.001375C26.88925 8.38125 27.178875 8.689125 27.53625 8.689125H31.547625V13.09025C31.547625 13.44625 31.80225 13.739125 32.1285 13.774375L32.194625 13.777875zM18.969 37.5C21.523875 37.5 23.38925 36.3905625 25.41825 34.4360625C26.77575 33.127425 27.861125 30.967225 27.887 29.3299625C27.889375 29.1902375 27.90425 28.5117875 27.9045 28.5027375C27.93725 26.92575 27.934625 25.679125 27.870375 24.40125C27.789 22.783875 27.615125 21.454625 27.317125 20.46175C26.626375 18.159125 25.125875 16.083 23.68025 15.06025L26.391625 13.582625C26.740125 13.39275 26.87775 12.9385 26.699125 12.568125C26.520375 12.19775 26.093 12.051375 25.744625 12.241375L22.776625 13.85875L22.69425 13.911375C22.611625 13.97275 22.5155 14.06275 22.4205 14.188625C21.923 14.848125 22.057 15.72375 22.954625 16.358875C24.07575 17.151125 25.374375 18.947875 25.965875 20.91975C26.219375 21.764375 26.378625 22.981875 26.454125 24.48175C26.516125 25.71325 26.51875 26.92725 26.486625 28.469375C26.4865 28.4741875 26.471375 29.1585 26.469 29.303875C26.45025 30.48525 25.553 32.27105 24.465625 33.319325C22.6755 35.043725 21.080125 35.9926125 18.969 35.9926125C16.84875 35.9926125 15.248875 35.0421875 13.46275 33.319225C12.3753 32.2720875 11.47795 30.486175 11.4581375 29.303125C11.4557125 29.1584875 11.440675 28.4741875 11.440575 28.469375C11.40845 26.92725 11.4110625 25.71325 11.4730125 24.48175C11.548475 22.981875 11.707725 21.764375 11.9612625 20.919625C12.552375 18.948875 13.85125 17.15225 14.9725 16.358875C15.870875 15.724125 16.0055 14.84825 15.507875 14.1885C15.413 14.062625 15.316875 13.97275 15.23425 13.911375L15.15175 13.85875L5.789 8.75875C5.7327 8.730375 5.6234 8.670625 5.4794875 8.58375C5.23775 8.43775 4.996225 8.272875 4.774025 8.09475C4.2251375 7.65475 3.918225 7.22625 3.918225 6.939V4.93925C3.918225 4.58225 4.3795 4.234625 4.7636875 4.230375C4.9885375 4.22725 7.0593875 4.200625 10.3858875 4.157875C11.6202625 4.142125 12.502 4.13075 14.265375 4.108125C15.676 4.090125 15.676 4.090125 16.02025 4.085625L21.936875 4.086C21.964125 4.086375 22.007875 4.087 22.1395 4.088625C22.406875 4.092125 22.406875 4.092125 22.79975 4.097125C23.500625 4.10625 24.253375 4.116 25.028625 4.126125C25.42025 4.13125 25.741625 3.798 25.746375 3.38175C25.75125 2.9655 25.43775 2.624 25.046125 2.618875C24.27075 2.60875 23.517875 2.598875 22.817 2.589875C22.424 2.584875 22.424 2.584875 22.156625 2.581375C22.003125 2.579375 21.969 2.579 21.9375 2.578625L16.011625 2.57825C15.659 2.582875 15.659 2.582875 14.24825 2.600875C12.48485 2.6235 11.60315 2.63475 10.3533 2.650875C7.040275 2.693375 4.970875 2.72 4.7472125 2.723125C3.67235 2.734875 2.5 3.618625 2.5 4.93925V6.939C2.5 7.835 3.0465 8.597875 3.92 9.298125C4.195625 9.519125 4.4874875 9.7185 4.7791375 9.8945C4.95525 10.00075 5.094875 10.077125 5.161475 10.110375C5.161475 10.110375 14.2095 15.087875 14.186875 15.103875C12.801 16.084625 11.3004625 18.160125 10.6101 20.461625C10.31205 21.454625 10.1381875 22.783875 10.056825 24.40125C9.9925375 25.679125 9.98985 26.92575 10.0227 28.5027375C10.0228875 28.5117875 10.0378 29.1902375 10.0401375 29.3299625C10.0676 30.9688875 11.15305 33.129175 12.510125 34.4359C14.534375 36.3885375 16.405375 37.5 18.969 37.5z" />
    <glyph glyph-name="addressbook"
      unicode="&#xF103;"
      horiz-adv-x="40" d=" M33.69775 32.5H6.3023C4.20275 32.5 2.5 30.7875125 2.5 28.6759625V12.356375C2.5 12.34675 2.5 12.336 2.5 12.324C2.5 10.2125 4.20275 8.5 6.3023 8.5H33.69775C35.79725 8.5 37.5 10.2125 37.5 12.324C37.5 12.334875 37.5 12.34675 37.5 12.357625V12.356375V28.6759625C37.5 30.7875125 35.79725 32.5 33.69775 32.5zM7.2722375 11.700875C7.2662875 11.815875 7.2639 11.951375 7.2639 12.088C7.2639 15.97425 9.8591375 19.251875 13.401625 20.262125L13.46125 20.2765C11.6608 20.866125 10.3786625 22.530625 10.3596 24.498375V24.50075C10.3596 27.036625 12.4043375 29.093 14.92575 29.093C17.447 29.093 19.49175 27.036625 19.49175 24.50075C19.459625 22.5115 18.144125 20.8385 16.34125 20.284875L16.31025 20.2765C19.929125 19.262625 22.538625 15.97675 22.538625 12.078375C22.538625 11.945375 22.535125 11.8135 22.529125 11.68175L22.53025 11.700875H7.2722375zM27.954375 13.603875C26.55425 13.603875 26.443375 13.603875 26.443375 14.33975V16.17925C26.46125 16.93425 27.07375 17.539375 27.826875 17.539375C27.8995 17.539375 27.97225 17.533375 28.041375 17.522625L28.033 17.523875C29.002875 17.523875 29.62375 18.131375 29.719 20.4515C29.814375 22.7715 29.130375 23.379125 28.12825 23.379125C28.080625 23.373125 28.025875 23.3695 27.968625 23.3695C27.231 23.3695 26.631625 23.971125 26.631625 24.714125C26.631625 24.71775 26.631625 24.72125 26.631625 24.72375V26.547625C26.631625 27.2835 26.759125 27.2835 28.222375 27.2835C29.685625 27.2835 31.849625 24.499625 31.76975 20.467C31.689875 16.4345 29.352 13.650625 27.952 13.650625L27.954375 13.603875z" />
    <glyph glyph-name="analytics"
      unicode="&#xF104;"
      horiz-adv-x="40" d=" M33.253875 28.3978875C34.323875 28.3978875 35.194625 27.535525 35.194625 26.4755V3.701375H36.778C37.17675 3.701375 37.5 3.38125 37.5 2.98625C37.5 2.59125 37.17675 2.271125 36.778 2.271125H3.22195C2.8232125 2.271125 2.5 2.59125 2.5 2.98625C2.5 3.38125 2.8232125 3.701375 3.22195 3.701375H4.8908125V10.152125C4.8908125 11.212 5.7614125 12.0745 6.8315625 12.0745H10.3709125C11.4409875 12.0745 12.3116625 11.212125 12.3116625 10.152125V3.701375H16.332375V16.157C16.332375 17.217 17.203 18.0795 18.273125 18.0795H21.812375C22.8825 18.0795 23.753125 17.217125 23.753125 16.157V3.701375H27.773875V26.4755C27.773875 27.53545 28.644375 28.3978875 29.7145 28.3978875H33.253875zM10.370775 10.64425H6.8314875C6.5575 10.64425 6.3346375 10.4235 6.3346375 10.152125V3.701375H10.867625V10.152125C10.867625 10.4235 10.64475 10.64425 10.370775 10.64425zM21.81225 16.64925H18.273C17.999 16.64925 17.776125 16.428375 17.776125 16.157V3.701375H22.309125V16.157C22.309125 16.428375 22.08625 16.64925 21.81225 16.64925zM33.253875 26.967625H29.7145C29.440625 26.967625 29.21775 26.746875 29.21775 26.4755V3.701375H33.75075V26.4755C33.75075 26.746875 33.527875 26.967625 33.253875 26.967625zM7.1831 18.04575C7.591475 18.04575 7.9225375 17.71475 7.9225375 17.306375C7.9225375 16.898 7.591475 16.566875 7.1831 16.566875C6.774725 16.566875 6.4436625 16.898 6.4436625 17.306375C6.4436625 17.71475 6.774725 18.04575 7.1831 18.04575zM34.237625 38.75C34.2495 38.75 34.261 38.7488 34.27275 38.7483C34.470625 38.75828625 34.67175 38.690225 34.822875 38.542625C34.974 38.3950375 35.043625 38.1985 35.0335 38.005225L35.03525 37.97095V33.9373875C35.03525 33.5462375 34.710625 33.2291625 34.310125 33.2291625C33.909625 33.2291625 33.585 33.5462375 33.585 33.9373875V36.3319L25.90425 28.8298625C25.621 28.5533 25.161875 28.5533 24.87875 28.8298625L22.1755 31.4701375L9.6532875 19.239125C9.51175 19.100875 9.326125 19.03175 9.140575 19.03175C8.955025 19.03175 8.7694625 19.100875 8.62785 19.239C8.3447 19.515625 8.3447 19.964125 8.62785 20.240625L21.662875 32.972425C21.79875 33.105225 21.98325 33.1798625 22.1755 33.1798625C22.367875 33.1798625 22.552375 33.105225 22.68825 32.972425L25.391375 30.3321625L32.5595 37.33355H29.85075C29.45025 37.33355 29.125625 37.650625 29.125625 38.041775C29.125625 38.432925 29.45025 38.75 29.85075 38.75H34.237625z" />
    <glyph glyph-name="api"
      unicode="&#xF105;"
      horiz-adv-x="40" d=" M36.739125 12.916625C37.159875 12.916625 37.5 12.553375 37.5 12.105625V9.6725C37.5 8.331 36.475875 7.23925 35.217375 7.23925H23.3585L20.537875 4.23275C20.389625 4.074625 20.19475 3.995125 20 3.995125C19.80525 3.995125 19.6105 4.074625 19.462125 4.23275L16.6415 7.23925H4.7826125C3.524125 7.23925 2.5 8.331 2.5 9.6725V12.105625C2.5 12.553375 2.8401125 12.916625 3.260875 12.916625C3.681625 12.916625 4.0217375 12.553375 4.0217375 12.105625V9.6725C4.0217375 9.225625 4.3626125 8.861375 4.7826125 8.861375H16.9565C17.158875 8.861375 17.352125 8.77625 17.4945 8.62375L20 5.953L22.5055 8.62375C22.647875 8.77625 22.841125 8.861375 23.0435 8.861375H35.217375C35.637375 8.861375 35.97825 9.225625 35.97825 9.6725V12.105625C35.97825 12.553375 36.318375 12.916625 36.739125 12.916625zM11.2156875 25.269625C12.4643 25.269625 13.480375 24.213875 13.480375 22.916625V15.0735C13.480375 14.640625 13.143 14.28925 12.7255 14.28925C12.308025 14.28925 11.9705875 14.640625 11.9705875 15.0735V17.4265H7.441175V15.0735C7.441175 14.640625 7.1037375 14.28925 6.686275 14.28925C6.2688125 14.28925 5.931375 14.640625 5.931375 15.0735V22.916625C5.931375 24.213875 6.947475 25.269625 8.196075 25.269625H11.2156875zM20.68625 25.269625C22.7675 25.269625 24.46075 23.510375 24.46075 21.348C24.46075 19.185625 22.7675 17.4265 20.68625 17.4265H18.421625V15.0735C18.421625 14.640625 18.084125 14.28925 17.666625 14.28925C17.24925 14.28925 16.91175 14.640625 16.91175 15.0735V24.48525C16.91175 24.91825 17.24925 25.269625 17.666625 25.269625H20.68625zM34 25.269625C34.4175 25.269625 34.754875 24.91825 34.754875 24.48525C34.754875 24.052375 34.4175 23.701 34 23.701H31.73525V15.857875H34C34.4175 15.857875 34.754875 15.5065 34.754875 15.0735C34.754875 14.640625 34.4175 14.28925 34 14.28925H27.96075C27.543375 14.28925 27.205875 14.640625 27.205875 15.0735C27.205875 15.5065 27.543375 15.857875 27.96075 15.857875H30.2255V23.701H27.96075C27.543375 23.701 27.205875 24.052375 27.205875 24.48525C27.205875 24.91825 27.543375 25.269625 27.96075 25.269625H34zM11.2156875 23.701H8.196075C7.779375 23.701 7.441175 23.348875 7.441175 22.916625V18.995125H11.9705875V22.916625C11.9705875 23.348875 11.6323875 23.701 11.2156875 23.701zM20.68625 23.701H18.421625V18.995125H20.68625C21.934875 18.995125 22.951 20.05075 22.951 21.348C22.951 22.64525 21.934875 23.701 20.68625 23.701zM19.462125 36.0121625C19.759625 36.329275 20.240375 36.329275 20.537875 36.0121625L23.3585 33.0056625H35.217375C36.475875 33.0056625 37.5 31.9140125 37.5 30.5725625V28.1394625C37.5 27.691775 37.159875 27.328375 36.739125 27.328375C36.318375 27.328375 35.97825 27.691775 35.97825 28.1394625V30.5725625C35.97825 31.01945 35.637375 31.3836 35.217375 31.3836H23.0435C22.841125 31.3836 22.647875 31.4687625 22.5055 31.6212375L20 34.2919625L17.4945 31.6212375C17.352125 31.4687625 17.158875 31.3836 16.9565 31.3836H4.7826125C4.3626125 31.3836 4.0217375 31.01945 4.0217375 30.5725625V28.1394625C4.0217375 27.691775 3.681625 27.328375 3.260875 27.328375C2.8401125 27.328375 2.5 27.691775 2.5 28.1394625V30.5725625C2.5 31.9140125 3.524125 33.0056625 4.7826125 33.0056625H16.6415L19.462125 36.0121625z" />
    <glyph glyph-name="appgrid"
      unicode="&#xF106;"
      horiz-adv-x="40" d=" M9.0625 9.0625V2.5H2.5V9.0625H9.0625zM23.28125 9.0625V2.5H16.71875V9.0625H23.28125zM37.5 9.0625V2.5H30.9375V9.0625H37.5zM9.0625 23.28125V16.71875H2.5V23.28125H9.0625zM23.28125 23.28125V16.71875H16.71875V23.28125H23.28125zM37.5 23.28125V16.71875H30.9375V23.28125H37.5zM9.0625 37.5V30.9375H2.5V37.5H9.0625zM23.28125 37.5V30.9375H16.71875V37.5H23.28125zM37.5 37.5V30.9375H30.9375V37.5H37.5z" />
    <glyph glyph-name="archive"
      unicode="&#xF107;"
      horiz-adv-x="40" d=" M14.622375 29.275L16.3065 25.6H22.808125L25.645375 22.975H14.590125L12.906 26.65H5.1632125L5.1631125 26.6265C5.1596875 25.8635 5.074875 6.78625 5.1632125 6.4375C5.3238125 5.803625 5.6690375 5.125 6.6709125 5.125H7.041625L14.24725 20.35H37.5L36.710875 18.522875C36.699625 18.49675 36.699625 18.49675 36.646125 18.373C36.572875 18.2035 36.572875 18.2035 36.463125 17.94925C36.266 17.493 36.0465 16.984375 35.81 16.43675C35.134375 14.872 34.45875 13.306875 33.828125 11.8455C32.46625 8.6895 31.507875 6.46625 31.12625 5.576125C30.423875 3.93775 27.85925 2.5 24.8475 2.5H6.6709125C4.4143 2.5 3.129925 3.615125 2.6809375 5.3875C2.4966875 6.114875 2.49235 7.72525 2.5036125 7.788625L2.5031875 29.275H14.622375zM33.474875 17.725H15.94075L9.977425 5.125H24.8475C25.984875 5.125 26.958 5.380375 27.724625 5.810125C28.024 5.978 28.275 6.164375 28.46275 6.348C28.591375 6.47375 28.6665 6.575625 28.6765 6.598875C29.059375 7.491875 30.017875 9.715625 31.377 12.865125C32.0115 14.3355 32.687125 15.90075 33.362875 17.46575C33.400625 17.55325 33.438 17.639625 33.474875 17.725zM29.990125 37.5L29.989875 27.9282625L34.73675 32.4902125L36.592625 30.6097875L28.860625 23.177625L20.751875 30.5869375L22.559125 32.5130625L27.329875 28.153475L27.330125 37.5H29.990125z" />
    <glyph glyph-name="atmention"
      unicode="&#xF108;"
      horiz-adv-x="40" d=" M35.382625 20.2415C35.232625 17.244375 34.483125 14.87875 33.134 13.144875C31.784875 11.411 29.97975 10.544 27.718625 10.544C25.382625 10.544 23.8835 11.584375 23.2215 13.665125C22.546875 12.612375 21.7755 11.829 20.90725 11.315C20.039 10.801 19.14275 10.544 18.218375 10.544C16.444375 10.544 15.1015 11.262375 14.189625 12.699C13.277625 14.13575 12.940375 16.1235 13.17775 18.662375C13.365125 20.706 13.83675 22.529625 14.5925 24.1335C15.34825 25.737375 16.322625 26.9975 17.515625 27.9140125C18.708625 28.8305125 19.961 29.28875 21.272625 29.28875C22.2845 29.28875 23.19025 29.1556125 23.98975 28.8893375C24.78925 28.62305 25.688625 28.0997875 26.688 27.3195L25.713625 17.027625C25.47625 14.166625 26.27575 12.73625 28.112125 12.73625C29.52375 12.73625 30.66675 13.42975 31.54125 14.816875C32.41575 16.204 32.890375 18.01225 32.965375 20.2415C33.20275 25.05925 32.300125 28.7314125 30.257625 31.2579625C28.215125 33.7845125 25.10775 35.047775 20.935375 35.047775C18.424375 35.047775 16.194625 34.431625 14.245875 33.1993125C12.297025 31.967 10.7605 30.186675 9.6362 27.858275C8.5119 25.529875 7.88105 22.842375 7.7436375 19.795625C7.593725 16.724125 7.9684875 14.05825 8.867925 11.798C9.767375 9.53775 11.138375 7.810125 12.981 6.614875C14.823625 5.41975 17.05025 4.822125 19.661125 4.822125C20.7855 4.822125 21.912875 4.958375 23.043375 5.230875C24.174 5.503375 25.114 5.856375 25.8635 6.28975L26.556875 4.153375C25.782375 3.670375 24.754875 3.274125 23.474375 2.9645C22.194 2.65475 20.897875 2.5 19.58625 2.5C16.463125 2.5 13.777375 3.196625 11.5287625 4.59C9.2801625 5.98325 7.59685 7.989625 6.4788 10.609125C5.36075 13.2285 4.876675 16.290625 5.0265875 19.795625C5.1764875 23.2015 5.94475 26.26375 7.3313875 28.982225C8.718025 31.7007375 10.5980875 33.799975 12.971625 35.2799875C15.345125 36.76 18.024625 37.5 21.010375 37.5C24.120875 37.5 26.788 36.80645 29.011625 35.419325C31.235125 34.0321875 32.890375 32.0320375 33.97725 29.4187875C35.064 26.8055 35.5325 23.7465 35.382625 20.2415zM16.540375 18.313625C16.37175 16.54725 16.531375 15.191375 17.0195 14.246C17.507625 13.300625 18.282 12.827875 19.3425 12.827875C20.065625 12.827875 20.76175 13.145125 21.430625 13.7795C22.0995 14.413875 22.650875 15.322 23.08475 16.50375L23.102875 16.671625L23.934375 26.05725C23.2595 26.418 22.536375 26.598375 21.765 26.598375C20.354875 26.598375 19.188875 25.85825 18.266875 24.377875C17.344875 22.897625 16.769375 20.87625 16.540375 18.313625z" />
    <glyph glyph-name="attach"
      unicode="&#xF109;"
      horiz-adv-x="40" d=" M23.821125 6.299875L32.14175 22.97475C34.895375 28.1802625 33.67725 34.3876625 29.30125 36.659C24.9285 38.9297825 19.15825 36.4317625 16.39925 31.214475L7.305625 13.255875C5.309675 9.37875 6.206875 4.795 9.4664875 3.1235C12.74325 1.44325 16.979625 3.284625 18.962375 7.138375L27.96825 25.091375C29.25675 27.5577375 28.67725 30.4740625 26.578125 31.5723625C24.393625 32.6605375 21.698375 31.49305 20.3995 29.0076625L12.071525 12.318625C11.860675 11.896 12.0322875 11.382625 12.4548375 11.17175C12.877375 10.960875 13.390875 11.1325 13.601625 11.555L21.922375 28.2298625C22.81225 29.9322 24.536375 30.6790375 25.8005 30.0494C26.966875 29.4389125 27.337125 27.576275 26.446125 25.870625L17.437875 7.913C15.86 4.8465 12.6095 3.433625 10.2467625 4.64525C7.9183 5.839125 7.227575 9.368125 8.8286625 12.47825L17.917875 30.4285C20.26375 34.864125 25.053875 36.9378125 28.513375 35.1412875C31.963875 33.350225 32.97375 28.2046625 30.620875 23.75625L22.291 7.0635C22.080125 6.640875 22.25175 6.1275 22.67425 5.916625C23.09675 5.70575 23.61025 5.877375 23.821125 6.299875z" />
    <glyph glyph-name="audit"
      unicode="&#xF10A;"
      horiz-adv-x="40" d=" M20.762125 31.86595C24.583125 28.0434125 24.903 22.026875 21.722875 17.836125L21.477875 17.525375L24.48075 14.520875C25.41075 14.90225 26.504875 14.757625 27.307 14.08325L27.48675 13.91825L30.79475 10.61175C31.875 9.531375 31.875 7.779875 30.79475 6.6995C29.774375 5.680625 28.155375 5.624 27.069875 6.52975L26.884 6.6995L23.576 10.0075C22.82025 10.762 22.59425 11.843625 22.89475 12.796125L22.973375 13.0135L19.968875 16.016375C18.006125 14.40925 15.601375 13.60425 13.19525 13.60425C10.4541625 13.60425 7.7146 14.647375 5.6283125 16.73225C1.457225 20.90475 1.457225 27.6933875 5.6283125 31.86595C9.802375 36.03555 16.591 36.03555 20.762125 31.86595zM36.433 17.5255C37.022375 17.5255 37.5 17.04775 37.5 16.4585C37.5 15.86925 37.022375 15.391625 36.433 15.391625H30.428625C29.839375 15.391625 29.363125 15.86925 29.363125 16.4585C29.363125 17.04775 29.839375 17.5255 30.428625 17.5255H36.433zM13.19525 32.861475C11.001775 32.861475 8.8083375 32.0266625 7.137225 30.3570375C3.7964875 27.01625 3.7964875 21.581875 7.137225 18.241125C10.4779625 14.900375 15.912375 14.900375 19.253125 18.241125C22.593875 21.581875 22.593875 27.01625 19.253125 30.3570375C17.5835 32.0266625 15.388625 32.861475 13.19525 32.861475zM16.305375 27.675375C16.7415 28.1113875 17.44825 28.1113875 17.88425 27.675375C18.32025 27.239375 18.32025 26.5325 17.88425 26.0965L11.2176875 19.431375L7.893325 22.75575C7.4573125 23.19175 7.4573125 23.898625 7.893325 24.334625C8.329325 24.770625 9.034675 24.770625 9.4706875 24.334625L11.2176875 22.587625L16.305375 27.675375zM36.433 23.350625C37.022375 23.350625 37.5 22.872875 37.5 22.283625C37.5 21.694375 37.022375 21.216625 36.433 21.216625H28.0135C27.42425 21.216625 26.9465 21.694375 26.9465 22.283625C26.9465 22.872875 27.42425 23.350625 28.0135 23.350625H36.433zM36.433 29.1750625C37.022375 29.1750625 37.5 28.6973875 37.5 28.1081125C37.5 27.518825 37.022375 27.041125 36.433 27.041125H27.66225C27.073 27.041125 26.595375 27.518825 26.595375 28.1081125C26.595375 28.6973875 27.073 29.1750625 27.66225 29.1750625H36.433zM36.432625 35C37.021875 35 37.4995 34.522325 37.4995 33.93305C37.4995 33.3437625 37.021875 32.8661 36.432625 32.8661H24.42525C23.836 32.8661 23.358375 33.3437625 23.358375 33.93305C23.358375 34.522325 23.836 35 24.42525 35H36.432625z" />
    <glyph glyph-name="autoanswer"
      unicode="&#xF10B;"
      horiz-adv-x="40" d=" M16.997 17.2035H21.34575L13.89075 37.5H9.955L2.5 17.2035H6.84875L8.29775 21.34575H15.54625L16.99525 17.2035H16.997zM9.33375 24.865L11.81875 32.52825L14.30375 24.865H9.33375zM33.56425 30.04325L20.51625 10.57625L13.06125 17.82475L9.955 14.512L21.34575 3.32775L37.5 27.35175L33.56425 30.04325z" />
    <glyph glyph-name="away"
      unicode="&#xF10C;"
      horiz-adv-x="40" d=" M7.5959875 7.596C10.88375 4.30825 15.35075 2.47325 20.00025 2.50025C29.665125 2.50025 37.5 10.3355 37.5 20.00025C37.5 29.6651125 29.665125 37.5 20.00025 37.5C10.335475 37.5 2.5003 29.6651125 2.5003 20.00025C2.473275 15.35075 4.3082125 10.88375 7.5959875 7.596zM20.679875 20.679875H28.66525C29.75175 20.719 30.728375 20.021375 31.04375 18.980875C31.057875 18.345875 30.81175 17.732625 30.362625 17.2835C29.9135 16.834375 29.30025 16.58825 28.66525 16.60225H18.47125C17.899125 16.543625 17.3295 16.7335 16.907 17.1235C16.4845 17.5135 16.24975 18.06625 16.2625 18.641125V28.8351C16.203875 29.407125 16.39375 29.976775 16.78375 30.3993C17.17375 30.821825 17.726375 31.0565375 18.30125 31.0438C18.936375 31.0578625 19.549625 30.8117875 19.99875 30.362625C20.447875 29.9134625 20.694 29.30025 20.679875 28.6652V20.679875z" />
    <glyph glyph-name="backgroundnoise"
      unicode="&#xF10D;"
      horiz-adv-x="40" d=" M21.85 30C22.291875 30 22.65 29.641825 22.65 29.2V10C22.65 9.558125 22.291875 9.2 21.85 9.2C21.408125 9.2 21.05 9.558125 21.05 10V29.2C21.05 29.641825 21.408125 30 21.85 30zM17.05 26.4C17.491875 26.4 17.85 26.041875 17.85 25.6V14.4C17.85 13.958125 17.491875 13.6 17.05 13.6C16.608125 13.6 16.25 13.958125 16.25 14.4V25.6C16.25 26.041875 16.608125 26.4 17.05 26.4zM26.65 26.4C27.091875 26.4 27.45 26.041875 27.45 25.6V17.2C27.45 16.758125 27.091875 16.4 26.65 16.4C26.208125 16.4 25.85 16.758125 25.85 17.2V25.6C25.85 26.041875 26.208125 26.4 26.65 26.4zM7.05 25.2C7.491825 25.2 7.85 24.841875 7.85 24.4V19.6C7.85 19.158125 7.491825 18.8 7.05 18.8C6.608175 18.8 6.25 19.158125 6.25 19.6V24.4C6.25 24.841875 6.608175 25.2 7.05 25.2zM11.85 28.8C12.291825 28.8 12.65 28.441825 12.65 28V19.6C12.65 19.158125 12.291825 18.8 11.85 18.8C11.408175 18.8 11.05 19.158125 11.05 19.6V28C11.05 28.441825 11.408175 28.8 11.85 28.8zM31.85 26.4C32.291875 26.4 32.65 26.041875 32.65 25.6V20.8C32.65 20.358125 32.291875 20 31.85 20C31.408125 20 31.05 20.358125 31.05 20.8V25.6C31.05 26.041875 31.408125 26.4 31.85 26.4z" />
    <glyph glyph-name="belldefault"
      unicode="&#xF10E;"
      horiz-adv-x="40" d=" M19.46625 37.5C20.9255 37.5 22.1155 36.28 22.1155 34.7783875V33.50695L22.428625 33.409C26.67375 32.0813125 29.64125 28.0464125 29.644875 23.432375C29.5975 22.169875 29.71375 19.88025 30.14875 17.5495C30.8785 13.639 32.31225 10.653 34.677875 9.155375C35.081375 8.90025 35.27125 8.3995 35.141625 7.928C35.01225 7.460625 34.59725 7.13925 34.125 7.13925H24.787125L24.708625 6.788875C24.150625 4.298375 21.981625 2.5 19.46625 2.5C16.950875 2.5 14.782 4.298375 14.225 6.78875L14.146625 7.13925H4.8066C4.3355875 7.13925 3.92105 7.4605 3.790575 7.929375C3.660625 8.39975 3.8502375 8.90025 4.253475 9.155125C7.8678125 11.44225 9.47185 17.869 9.289475 23.3855C9.2887875 28.027725 12.2524125 32.0782875 16.504125 33.4090375L16.817125 33.507025V34.7783875C16.817125 36.279625 18.00775 37.5 19.46625 37.5zM19.452875 31.9477875C14.84075 31.9477875 11.0921125 28.1313625 11.0921125 23.442C11.1327 22.286375 11.0626625 20.44025 10.75795 18.33825C10.26465 14.935375 9.2839 11.922875 7.7011875 9.648375L7.1942 8.91975H31.710625L31.203625 9.648375C29.619875 11.92425 28.639125 14.939625 28.146625 18.348375C27.841625 20.459375 27.773125 22.29275 27.8135 23.481125C27.812625 28.1404 24.055125 31.9477875 19.452875 31.9477875z" />
    <glyph glyph-name="belloff"
      unicode="&#xF10F;"
      horiz-adv-x="40" d=" M3.6393375 2.69075L2.5 3.83675L6.7088625 8.020625C6.3066625 8.080625 5.969125 8.364625 5.8537875 8.758375C5.7240125 9.2045 5.913375 9.679375 6.3160625 9.92125C9.9254375 12.091 11.527275 18.188125 11.3451625 23.4215C11.344475 27.8256125 14.304 31.668375 18.549875 32.93085L18.8625 33.0238125V34.22995C18.8625 35.654175 20.0515 36.81195 21.508 36.81195C22.96525 36.81195 24.1535 35.6545375 24.1535 34.22995V33.0237375L24.46625 32.930825C26.233375 32.405775 27.778875 31.4344625 28.980625 30.1631125L36.360625 37.5L37.5 36.353975L29.99775 28.895425C31.060375 27.324375 31.671 25.451625 31.672625 23.466C31.625375 22.26825 31.7415 20.096125 32.175875 17.885C32.904625 14.175125 34.3365 11.34225 36.69875 9.921375C37.10175 9.6795 37.291375 9.204375 37.161875 8.757C37.03275 8.313625 36.61825 8.00875 36.146625 8.00875H26.821625L26.74325 7.676375C26.186 5.313625 24.02 3.6075 21.508 3.6075C18.996 3.6075 16.830125 5.313625 16.274 7.67625L16.195625 8.00875L8.9884625 8.00925L3.6393375 2.69075zM28.682375 27.5881125L10.6866625 9.697875L33.735625 9.697875L33.22925 10.389125C31.64775 12.54825 30.66825 15.408875 30.1765 18.642875C29.871875 20.6455 29.8035 22.384875 29.84375 23.51225C29.8435 24.997625 29.419625 26.391625 28.682375 27.5881125zM21.494625 31.5445625C16.888875 31.5445625 13.145375 27.9239375 13.145375 23.475125C13.185875 22.378875 13.115875 20.627375 12.811625 18.63325C12.4404625 16.200875 11.7929625 13.97875 10.820225 12.108L27.69225 28.882225C26.161875 30.5148625 23.9485 31.5445625 21.494625 31.5445625z" />
    <glyph glyph-name="bellonfilled"
      unicode="&#xF110;"
      horiz-adv-x="40" d=" M20.50475 37.5C22.040625 37.5 23.29325 36.28 23.29325 34.7783875V33.50695L23.622875 33.409C28.0915 32.0813125 31.215125 28.0464 31.219 23.432375C31.169125 22.169875 31.2915 19.88025 31.749375 17.5495C32.5175 13.639 34.02675 10.653 36.516875 9.155375C36.941625 8.90025 37.1415 8.3995 37.005125 7.928C36.868875 7.460625 36.432 7.13925 35.934875 7.13925H26.105625L26.023 6.788875C25.435625 4.298375 23.1525 2.5 20.50475 2.5C17.856875 2.5 15.573875 4.298375 14.9875 6.78875L14.905 7.13925H5.073425C4.577625 7.13925 4.141275 7.4605 4.003925 7.929375C3.8671375 8.39975 4.0667375 8.90025 4.4912 9.155125C8.29575 11.44225 9.9842125 17.869 9.79225 23.3855C9.791525 28.027725 12.911125 32.0782875 17.386625 33.409025L17.716125 33.507025V34.7783875C17.716125 36.279625 18.969375 37.5 20.50475 37.5zM29.497625 34.0527875C29.7485 34.2344375 30.099125 34.1783375 30.28075 33.9274875L36.169 25.796125C36.350625 25.54525 36.2945 25.194625 36.04375 25.013C35.792875 24.831375 35.44225 24.8875 35.260625 25.13825L29.372375 33.269675C29.19075 33.520525 29.24675 33.8711375 29.497625 34.0527875zM10.3056625 33.9274875C10.4873125 34.1783375 10.837925 34.2344375 11.088775 34.0527875C11.339625 33.8711375 11.3957125 33.520525 11.2140625 33.269675L5.325825 25.13825C5.144175 24.8875 4.7935625 24.831375 4.5427125 25.013C4.2918625 25.194625 4.2357625 25.54525 4.4174125 25.796125L10.3056625 33.9274875zM33.993625 34.05965C34.24825 34.23595 34.597625 34.172425 34.773875 33.9177875L37.2975 30.2726875C37.47375 30.0180375 37.41025 29.6687 37.155625 29.4924C36.900875 29.3161125 36.551625 29.379625 36.37525 29.634275L33.85175 33.279375C33.6755 33.534025 33.739 33.8833625 33.993625 34.05965zM6.3733 33.9177875C6.5495875 34.172425 6.898925 34.23595 7.153575 34.05965C7.4082125 33.8833625 7.4717375 33.534025 7.2954375 33.279375L4.7719125 29.634275C4.5956125 29.379625 4.246275 29.3161125 3.9916375 29.4924C3.7369875 29.6687 3.673475 30.0180375 3.8497625 30.2726875L6.3733 33.9177875z" />
    <glyph glyph-name="bellonol"
      unicode="&#xF111;"
      horiz-adv-x="40" d=" M20.50475 37.5C22.040625 37.5 23.29325 36.28 23.29325 34.7783875V33.50695L23.622875 33.409C28.0915 32.0813125 31.215125 28.0464 31.219 23.432375C31.169125 22.169875 31.2915 19.88025 31.749375 17.5495C32.5175 13.639 34.02675 10.653 36.516875 9.155375C36.941625 8.90025 37.1415 8.3995 37.005125 7.928C36.868875 7.460625 36.432 7.13925 35.934875 7.13925H26.105625L26.023 6.788875C25.435625 4.298375 23.1525 2.5 20.50475 2.5C17.856875 2.5 15.573875 4.298375 14.9875 6.78875L14.905 7.13925H5.073425C4.577625 7.13925 4.141275 7.4605 4.003925 7.929375C3.8671375 8.39975 4.0667375 8.90025 4.4912 9.155125C8.29575 11.44225 9.9842125 17.869 9.79225 23.3855C9.791525 28.027725 12.911125 32.0782875 17.386625 33.409025L17.716125 33.507025V34.7783875C17.716125 36.279625 18.969375 37.5 20.50475 37.5zM20.490625 31.9477875C15.63575 31.9477875 11.6897625 28.1313625 11.6897625 23.442C11.732475 22.286375 11.6587625 20.44025 11.3380125 18.33825C10.81875 14.935375 9.7863875 11.922875 8.1203625 9.648375L7.5867 8.91975H33.3935L32.85975 9.648375C31.192625 11.92425 30.16025 14.939625 29.641875 18.348375C29.320875 20.459375 29.24875 22.29275 29.291125 23.481125C29.29025 28.1403875 25.335 31.9477875 20.490625 31.9477875zM29.497625 34.0527875C29.7485 34.2344375 30.099125 34.1783375 30.28075 33.9274875L36.169 25.796125C36.350625 25.54525 36.2945 25.194625 36.04375 25.013C35.792875 24.831375 35.44225 24.8875 35.260625 25.13825L29.372375 33.269675C29.19075 33.520525 29.24675 33.8711375 29.497625 34.0527875zM10.3056625 33.9274875C10.4873125 34.1783375 10.837925 34.2344375 11.088775 34.0527875C11.339625 33.8711375 11.3957125 33.520525 11.2140625 33.269675L5.325825 25.13825C5.144175 24.8875 4.7935625 24.831375 4.5427125 25.013C4.2918625 25.194625 4.2357625 25.54525 4.4174125 25.796125L10.3056625 33.9274875zM33.993625 34.05965C34.24825 34.23595 34.597625 34.172425 34.773875 33.9177875L37.2975 30.2726875C37.47375 30.0180375 37.41025 29.6687 37.155625 29.4924C36.900875 29.3161125 36.551625 29.379625 36.37525 29.634275L33.85175 33.279375C33.6755 33.534025 33.739 33.8833625 33.993625 34.05965zM6.3733 33.9177875C6.5495875 34.172425 6.898925 34.23595 7.153575 34.05965C7.4082125 33.8833625 7.4717375 33.534025 7.2954375 33.279375L4.7719125 29.634275C4.5956125 29.379625 4.246275 29.3161125 3.9916375 29.4924C3.7369875 29.6687 3.673475 30.0180375 3.8497625 30.2726875L6.3733 33.9177875z" />
    <glyph glyph-name="bold"
      unicode="&#xF112;"
      horiz-adv-x="40" d=" M5 37.49125H18.986125C19.2435 37.4965 19.546375 37.5 19.84925 37.5C21.726 37.5 23.573 37.372275 25.381375 37.125575C26.559625 36.9261125 27.797375 36.4187125 28.8705 35.6873625C29.943625 34.9367625 30.84525 33.9569625 31.50525 32.8179375C32.2055 31.633425 32.60475 30.2582 32.60475 28.7902375C32.60475 28.757 32.60475 28.722 32.60475 28.6887625C32.60475 28.6800125 32.60475 28.6660125 32.60475 28.650275C32.60475 25.305 30.62125 22.42325 27.765875 21.11625C29.703875 20.566875 31.37925 19.445375 32.59075 17.937125C33.674375 16.52175 34.318625 14.74925 34.318625 12.824625C34.318625 12.76 34.318625 12.69525 34.316875 12.6305C34.315125 10.94725 33.909 9.349875 33.189375 7.937875C32.504875 6.53475 31.4755 5.327375 30.21325 4.424625C28.84425 3.49725 27.226625 2.897125 25.4795 2.74675C24.280875 2.614875 21.42375 2.532625 16.908125 2.5H5V37.49125zM12.0657375 31.6754125V23.58675H16.6875C19.442 23.58675 21.1535 23.58675 21.82225 23.58675C22.90425 23.732 23.849625 24.227125 24.560375 24.955C25.271125 25.630375 25.7105 26.578625 25.7105 27.631975C25.7105 27.6617125 25.7105 27.6914625 25.70875 27.7212C25.7105 27.76495 25.71225 27.8209375 25.71225 27.878675C25.71225 28.8252375 25.369125 29.6930625 24.800125 30.361425C24.113875 31.0525375 23.17025 31.50045 22.125125 31.5529375C21.417875 31.5529375 19.401625 31.5529375 16.0765 31.5529375L12.0657375 31.6754125zM12.0657375 17.771V8.412125H18.6185C18.921375 8.401625 19.275 8.396375 19.632125 8.396375C20.99775 8.396375 22.344 8.482 23.66575 8.64825C24.4885 8.825 25.328875 9.323625 25.950375 10.02C26.610375 10.775875 27.01125 11.764375 27.01125 12.847375C27.01125 12.920875 27.0095 12.992625 27.006 13.064375C27.00775 13.095875 27.00775 13.144875 27.00775 13.195625C27.00775 14.135125 26.724125 15.00825 26.2375 15.734375C25.70875 16.45875 24.95425 17.015125 24.077125 17.2985C22.5225 17.652 20.770125 17.849625 18.972125 17.849625C18.5555 17.849625 18.140625 17.839125 17.72925 17.818125L12.0657375 17.771z" />
    <glyph glyph-name="business"
      unicode="&#xF113;"
      horiz-adv-x="40" d=" M34.714625 36.25H19.593V28.8930875H4.9418625V5.1875H2.5V3.552625H37.5V5.1875H34.714625V36.25zM34.023875 5.1875H31.716625V15.06575H22.763125V5.1875H20.283875V35.5592125H34.023875V5.1875zM19.37275 5.1875V28.2023125H5.63265V5.1875H19.37275zM23.454 5.1875V14.375H31.025875V5.1875H23.454zM22.848875 32.162825H31.802375V25.623375H22.848875V32.162825zM31.1115 26.314125H23.539625V31.4720375H31.1115V26.314125zM31.716625 23.9885H22.763125V17.449H31.716625V23.9885zM23.454 18.13975H31.025875V23.29775H23.454V18.13975zM16.97975 25.197375H8.026325V18.657875H16.97975V25.197375zM8.7171125 19.348625H12.061275V24.506625H8.7171125V19.348625zM12.752125 19.348625H16.289V24.506625H12.752125V19.348625zM16.97975 16.447375H8.026325V9.907875H16.97975V16.447375zM8.7171125 10.598625H12.061275V15.756625H8.7171125V10.598625zM12.752125 10.598625H16.289V15.756625H12.752125V10.598625z" />
    <glyph glyph-name="calendar"
      unicode="&#xF114;"
      horiz-adv-x="40" d=" M10.222225 35.9999875L10.222 33.4155875H28.474L28.474125 35.9999875H29.77775L29.777625 33.4155875L37.6 33.415375V2.4H2.4V33.415375L8.9184 33.4155875L8.918525 35.9999875H10.222225zM36.296 24.369625H3.7036L3.7037 3.69225H36.29625L36.296 24.369625zM18.0445 10.153875V7.56925H15.437V10.153875H18.0445zM11.525925 10.153875V7.56925H8.918525V10.153875H11.525925zM24.563 10.153875V7.56925H21.9555V10.153875H24.563zM18.0445 15.323V12.7385H15.437V15.323H18.0445zM11.525925 15.323V12.7385H8.918525V15.323H11.525925zM24.563 15.323V12.7385H21.9555V15.323H24.563zM31.0815 15.323V12.7385H28.474125V15.323H31.0815zM18.0445 20.49225V17.907625H15.437V20.49225H18.0445zM24.563 20.49225V17.907625H21.9555V20.49225H24.563zM31.0815 20.49225V17.907625H28.474125V20.49225H31.0815zM8.9184 32.1231875L3.7037 32.1230625L3.7036 25.661625H36.296L36.29625 32.1230625L29.777625 32.1231875L29.77775 29.53845H28.474125L28.474 32.1231875H10.222L10.222225 29.53845H8.918525L8.9184 32.1231875z" />
    <glyph glyph-name="charts"
      unicode="&#xF115;"
      horiz-adv-x="40" d=" M20.4695 20L32.96975 32.50025C29.37525 35.62575 25.00025 37.34425 20.4695 37.5V20zM32.65825 29.2190125L21.25175 17.8125L32.65825 6.406C38.28275 12.9685 38.28275 22.6565 32.65825 29.2190125zM18.282 33.7514875V17.032L29.37525 6.0945C26.563 3.907 23.126 2.5 19.37575 2.5C10.7815 2.5 3.75 9.5315 3.75 18.12575C3.75 26.4085 10.15675 33.1267375 18.282 33.7514875z" />
    <glyph glyph-name="chatfilled"
      unicode="&#xF116;"
      horiz-adv-x="40" d=" M13.590625 11.700875C14.413375 11.932375 15.185625 12.217875 15.899875 12.561375C16.045375 12.631375 16.2105 12.648875 16.367375 12.611125C17.653 12.301 19.000375 12.140875 20.377125 12.140875C27.5835 12.140875 33.359875 16.480875 33.359875 21.718125C33.359875 26.960125 27.585 31.3 20.377125 31.3C13.16825 31.3 7.389575 26.959375 7.389575 21.718125C7.389575 19.201625 8.727475 16.822625 11.0993375 15.032875C11.332275 14.857 11.431725 14.55525 11.348925 14.275375C10.9388 12.8895 10.0923125 11.970375 8.3890375 10.94925C10.1747875 11.0005 11.8708625 11.217 13.590625 11.700875z" />
    <glyph glyph-name="chatoutlined"
      unicode="&#xF117;"
      horiz-adv-x="40" d=" M5.9895625 21.718125C5.9895625 27.8337875 12.4679875 32.7 20.377125 32.7C28.28525 32.7 34.759875 27.8343625 34.759875 21.718125C34.759875 15.6065 28.28375 10.740875 20.377125 10.740875C18.975625 10.740875 17.600375 10.89475 16.28075 11.193625C15.555 10.860625 14.782875 10.581875 13.96975 10.353125C11.44455 9.64275 9.0064875 9.473125 6.3146 9.556125C6.2493125 9.558125 5.8817625 9.570375 5.8087 9.57225C5.750875 9.57375 5.7103875 9.574125 5.6857 9.573875C4.9570375 9.398875 4.5362875 10.529125 5.294025 10.897375C8.0197 12.222 9.30505 13.0765 9.84365 14.239375C7.393775 16.245125 5.9895625 18.889125 5.9895625 21.718125zM13.590625 11.700875C14.413375 11.932375 15.185625 12.217875 15.899875 12.561375C16.045375 12.631375 16.2105 12.648875 16.367375 12.611125C17.653 12.301 19.000375 12.140875 20.377125 12.140875C27.5835 12.140875 33.359875 16.480875 33.359875 21.718125C33.359875 26.960125 27.584875 31.3 20.377125 31.3C13.16825 31.3 7.3895625 26.959375 7.3895625 21.718125C7.3895625 19.201625 8.727475 16.822625 11.0993375 15.032875C11.3322625 14.857 11.431725 14.55525 11.3489125 14.275375C10.9387875 12.8895 10.0923125 11.970375 8.389025 10.94925C10.1747875 11.0005 11.87085 11.217 13.590625 11.700875z" />
    <glyph glyph-name="check"
      unicode="&#xF118;"
      horiz-adv-x="40" d=" M14.573625 11.438125L4.5596875 20.71375C4.0697 21.170625 3.29695 21.14925 2.8337125 20.666C2.3704875 20.18275 2.392175 19.42075 2.882175 18.964L13.615125 8.957875C14.085625 8.519125 14.821625 8.519 15.292375 8.957625L37.1175 29.292025C37.60775 29.7486875 37.629625 30.510725 37.1665 30.994075C36.7035 31.477425 35.93075 31.4990625 35.440625 31.0424L14.573625 11.438125z" />
    <glyph glyph-name="close"
      unicode="&#xF119;"
      horiz-adv-x="40" d=" M34.576375 36.923C35.269 37.608925 36.3645 37.5804125 37.02325 36.8593125C37.682125 36.138225 37.654625 34.9976125 36.962125 34.3117L22.5215 20.01125L36.192 6.49C36.852125 5.837125 36.909 4.7715 36.34425 4.04825L36.25475 3.942375C35.5965 3.220875 34.501 3.191625 33.807875 3.877125L20.01075 17.5245L5.4236375 3.077C4.7640375 2.42375 3.73895 2.4185 3.073725 3.042375L2.976725 3.14075C2.317925 3.86175 2.3453125 5.002375 3.0379 5.68825L17.49775 20.009625L3.0387125 34.3109C2.3787 34.9637125 2.3217875 36.02935 2.8865875 36.75265L2.9759625 36.858475C3.634325 37.5800125 4.729825 37.6092625 5.4228375 36.9238L20.00925 22.496375L34.576375 36.923z" />
    <glyph glyph-name="closecircle"
      unicode="&#xF11A;"
      horiz-adv-x="40" d=" M2.5 20C2.5 10.3350168779611 10.3350168779611 2.5 20 2.5C29.6649831220389 2.5 37.5 10.3350168779611 37.5 20C37.5 29.6649831220389 29.6649831220389 37.5 20 37.5C10.3350168779611 37.5 2.5 29.6649831220389 2.5 20z M27.288125 28.4615C27.6345 28.8044625 28.18225 28.7902 28.511625 28.4296625C28.841 28.0691125 28.827375 27.49875 28.481 27.155875L21.26075 20.005625L28.096 13.245C28.426 12.918625 28.4545 12.38575 28.172125 12.024125L28.127375 11.97125C27.79825 11.6105 27.2505 11.595875 26.904 11.9385L20.005375 18.76225L12.711875 11.5385C12.3820125 11.211875 11.869475 11.20925 11.5368625 11.52125L11.4883625 11.570375C11.1589625 11.930875 11.1726625 12.50125 11.51895 12.844125L18.748875 20.00475L11.51935 27.1555C11.18935 27.481875 11.1609 28.014675 11.4432875 28.376325L11.4879875 28.4292375C11.8171625 28.79 12.3649125 28.804625 12.711375 28.4619L20.004625 21.24825L27.288125 28.4615z" />
    <glyph glyph-name="closedrawer"
      unicode="&#xF11B;"
      horiz-adv-x="40" d=" M3.62 2.556C4.2385625 2.556 4.74 3.0575 4.74 3.676L4.74 36.38C4.74 36.99855 4.2385625 37.5 3.62 37.5C3.0014375 37.5 2.5 36.99855 2.5 36.38L2.5 3.676C2.5 3.0575 3.0014375 2.556 3.62 2.556zM20.28 5.916C20.877125 5.916 21.361875 6.49625 21.361875 7.214125C21.361875 7.5725 21.240625 7.897 21.044875 8.132L12.073325 18.897875L36.418125 18.897875C37.015375 18.897875 37.5 19.478125 37.5 20.196C37.5 20.913875 37.015375 21.494125 36.418125 21.494125L12.073325 21.494125L21.044875 32.26C21.240625 32.496275 21.361875 32.819525 21.361875 33.1778125C21.361875 33.8957125 20.877125 34.476 20.28 34.476C19.981375 34.476 19.711 34.3319 19.515125 34.0956375L8.696975 21.113875C8.5011625 20.878875 8.38 20.55425 8.38 20.196C8.38 19.83775 8.5011625 19.5145 8.696975 19.278125L19.515125 6.296375C19.711 6.061375 19.981375 5.916 20.28 5.916z" />
    <glyph glyph-name="cobrowse"
      unicode="&#xF11C;"
      horiz-adv-x="40" d=" M11.103725 29.9002625V36.25H37.5V18.647H30.635V20.367375H35.779625V34.5295875H12.824125V29.9002625H11.103725zM14.837125 10.059875H2.5V27.646275H28.912875V10.059875H16.5575V4.72575H23.63025V3.005375H7.7642875V4.72575H14.837125V10.059875z" />
    <glyph glyph-name="code"
      unicode="&#xF11D;"
      horiz-adv-x="40" d=" M24.40225 34.9807625C24.904625 34.78 25.206 34.278075 25.1055 33.6757625L16.766125 6.27075C16.565125 5.76875 16.06275 5.467625 15.459875 5.568C14.9575 5.76875 14.656125 6.27075 14.756625 6.873L23.096 34.278075C23.297 34.78 23.799375 35.08115 24.40225 34.9807625zM26.56 25.58875C26.761 26.09075 27.363875 26.2915 27.86625 25.990375L37.0095 20.971125C37.612375 20.5695 37.71275 19.666125 37.0095 19.2645L28.469125 14.245375C27.96675 14.0445 27.363875 14.144875 27.062375 14.646875C26.8615 15.14875 26.961875 15.751125 27.46425 16.05225L34.497625 20.067625L26.961875 24.28375C26.4595 24.484625 26.258625 25.086875 26.56 25.58875zM11.5309375 26.034875C12.0333125 26.235625 12.636125 26.13525 12.937625 25.633375C13.1385 25.131375 13.038125 24.529125 12.53575 24.228L5.502425 20.212625L13.038125 15.996375C13.5405 15.795625 13.741375 15.193375 13.44 14.691375C13.239 14.1895 12.636125 13.98875 12.1337875 14.289875L2.9905375 19.309125C2.3876875 19.710625 2.2872125 20.614125 2.9905375 21.015625L11.5309375 26.034875z" />
    <glyph glyph-name="completeol"
      unicode="&#xF11E;"
      horiz-adv-x="40" d=" M20.217875 37.5C29.667125 37.5 37.345125 29.8229875 37.497625 20.2895L37.5 20C37.5 10.335 29.764875 2.5 20.217875 2.5H19.782125C10.2374625 2.5 2.5 10.332875 2.5 20C2.5 29.6649875 10.235075 37.5 19.782125 37.5H20.217875zM20.24725 35.702575H19.75275C11.209875 35.702575 4.2800625 28.670875 4.2800625 20C4.2800625 11.326375 11.2066875 4.297375 19.75275 4.297375H20.24725C28.790125 4.297375 35.719875 11.329125 35.719875 20C35.719875 28.6735875 28.793375 35.702575 20.24725 35.702575zM31.61825 27.11925C31.83175 27.11925 32.017125 27.039375 32.174375 26.87975C32.331625 26.720125 32.404625 26.532 32.393375 26.315375C32.382125 26.09875 32.297875 25.910625 32.140625 25.751L18.255875 12.444875C18.098625 12.308 17.918875 12.239625 17.716625 12.239625C17.5145 12.239625 17.346 12.308 17.211125 12.444875L10.3698875 18.978125C10.2126125 19.137875 10.1339875 19.326 10.1339875 19.542625C10.1339875 19.75925 10.2013875 19.947375 10.3361875 20.107C10.4934625 20.266625 10.6788125 20.346375 10.89225 20.346375C11.1056875 20.346375 11.2910375 20.278 11.4483125 20.14125L17.81775 14.0525L31.06225 26.914C31.2195 27.05075 31.404875 27.11925 31.61825 27.11925z" />
    <glyph glyph-name="configure"
      unicode="&#xF11F;"
      horiz-adv-x="40" d=" M14.773125 30.666475L9.1273875 36.320475C13.411375 38.465575 18.667125 37.6842625 22.36475 33.9812125C25.59225 30.7489875 26.4935 25.998875 25.068375 21.919L36.186125 10.785125C37.938 8.8365 37.938 5.715875 36.186125 3.9615C34.24025 2.012875 31.12425 2.012875 29.372375 3.9615L18.346 15.003875C14.209375 13.43025 9.31745 14.29775 6.013675 17.606375C2.316 21.31175 1.535825 26.575125 3.6778125 30.862975L9.3236 25.209C10.8792875 23.64875 13.215125 23.64875 14.773125 25.209C16.33125 26.766875 16.33125 29.1061875 14.773125 30.666475z" />
    <glyph glyph-name="copy"
      unicode="&#xF120;"
      horiz-adv-x="40" d=" M25.2875 31.3787625H9.0167375C7.4900125 31.3787625 6.25 30.13875 6.25 28.612025V5.26675C6.25 3.74 7.4900125 2.5 9.0167375 2.5H25.2875C26.81425 2.5 28.05425 3.74 28.05425 5.26675V28.612025C28.047 30.13875 26.807 31.3787625 25.2875 31.3787625zM25.28025 29.443475C25.739 29.443475 26.11175 29.07075 26.11175 28.612025V5.273875C26.11175 4.815125 25.739 4.4425 25.28025 4.4425H9.009575C8.5508375 4.4425 8.1781125 4.815125 8.1781125 5.273875V28.612025C8.1781125 29.07075 8.5508375 29.443475 9.009575 29.443475H25.28025zM31.509125 37.5C33.03575 37.5 34.27575 36.2599875 34.27575 34.7332625V11.388C34.27575 9.86125 33.03575 8.62125 31.509125 8.62125C30.9715 8.62125 30.541375 9.05125 30.541375 9.588875C30.541375 10.1265 30.9715 10.5565 31.509125 10.5565C31.96775 10.5565 32.3405 10.92925 32.3405 11.388V34.7332625C32.3405 35.1919875 31.96775 35.5647125 31.509125 35.5647125H15.238375C14.779625 35.5647125 14.406875 35.1919875 14.406875 34.7332625C14.406875 34.195675 13.97675 33.7656125 13.43925 33.7656125C12.901625 33.7656125 12.4715875 34.195675 12.4715875 34.7332625C12.4715875 36.2599875 13.711625 37.5 15.238375 37.5H31.509125z" />
    <glyph glyph-name="creditcard"
      unicode="&#xF121;"
      horiz-adv-x="40" d=" M6.01475 32.5C4.078325 32.5 2.5 30.9253375 2.5 28.9889V25.611875V21.25225V10.44225C2.5 8.505875 4.078325 6.9275 6.01475 6.9275H33.984C35.9205 6.9275 37.5 8.505875 37.5 10.44225V21.25225V25.611875V28.9889C37.5 30.9253375 35.9205 32.5 33.984 32.5H6.01475zM6.01475 31.2516125H33.984C35.2505 31.2516125 36.251625 30.255325 36.251625 28.9889V26.2385H3.7483875V28.9889C3.7483875 30.255325 4.7483375 31.2516125 6.01475 31.2516125zM3.7483875 24.989H36.251625V21.879H3.7483875V24.989zM3.7483875 20.6305H36.251625V10.44225C36.251625 9.175875 35.2505 8.175875 33.984 8.175875H6.01475C4.7483375 8.175875 3.7483875 9.175875 3.7483875 10.44225V20.6305zM7.567925 16.511125C7.4847875 16.513 7.4021125 16.498125 7.324775 16.467625C7.247425 16.437125 7.1769625 16.391375 7.1175125 16.33325C7.0580625 16.275125 7.010825 16.20575 6.978575 16.129C6.946325 16.052375 6.9297125 15.970125 6.9297125 15.886875C6.9297125 15.80375 6.946325 15.7215 6.978575 15.64475C7.010825 15.568125 7.0580625 15.49875 7.1175125 15.4405C7.1769625 15.382375 7.247425 15.33675 7.324775 15.30625C7.4021125 15.275625 7.4847875 15.260875 7.567925 15.26275H15.424C15.587125 15.266375 15.742375 15.33375 15.8565 15.450375C15.970625 15.567 16.0345 15.72375 16.0345 15.886875C16.0345 16.050125 15.970625 16.20675 15.8565 16.3235C15.742375 16.440125 15.587125 16.5075 15.424 16.511125H7.567925zM7.567925 13.13775C7.4847875 13.139625 7.402125 13.124875 7.324775 13.09425C7.2474375 13.06375 7.176975 13.018125 7.117525 12.959875C7.058075 12.90175 7.0108375 12.832375 6.9786 12.75575C6.94635 12.679 6.9297375 12.59675 6.9297375 12.513625C6.9297375 12.430375 6.94635 12.348125 6.9786 12.2715C7.0108375 12.194875 7.058075 12.125375 7.117525 12.06725C7.176975 12.009125 7.2474375 11.963375 7.324775 11.932875C7.402125 11.902375 7.4847875 11.8875 7.567925 11.889375H10.9229625C11.0061 11.8875 11.0887625 11.902375 11.1661125 11.932875C11.24345 11.963375 11.3139125 12.009125 11.3733625 12.06725C11.4328125 12.125375 11.48005 12.194875 11.5123 12.2715C11.5445375 12.348125 11.56115 12.430375 11.56115 12.513625C11.56115 12.59675 11.5445375 12.679 11.5123 12.75575C11.48005 12.832375 11.4328125 12.90175 11.3733625 12.959875C11.3139125 13.018125 11.24345 13.06375 11.1661125 13.09425C11.0887625 13.124875 11.0061 13.139625 10.9229625 13.13775H7.567925z" />
    <glyph glyph-name="customerjourney"
      unicode="&#xF122;"
      horiz-adv-x="40" d=" M23.083625 30.9471C23.083625 34.5594 26.01625 37.4893875 29.638875 37.5C33.26875 37.4982625 36.210375 34.5653875 36.210375 30.9471C36.210375 27.3295 31.528375 21.944 30.124125 20.329875L29.656625 19.82375L29.189125 20.329875C27.765625 21.905625 23.083625 27.33125 23.083625 30.9471zM29.638875 37.5C29.638875 37.5 29.639 37.5 29.639125 37.5H29.635625C29.636625 37.5 29.63775 37.5 29.638875 37.5zM26.28425 30.9471C26.28425 29.1007625 27.786625 27.6034625 29.639125 27.6034625C31.491625 27.6034625 32.993875 29.1007625 32.993875 30.9471C32.993875 32.793425 31.491625 34.2907375 29.639125 34.2907375C27.786625 34.2907375 26.28425 32.793425 26.28425 30.9471zM5 23.888125V2.5L15.72975 7.281625L25.13225 3.21725L35.784875 9.595625V21.26175H33.834375V10.5485L26.303625 6.037375V19.6475H24.353V5.395125L17.018375 8.662V26.045125L21.8755 24.101L22.558375 25.832125L15.7105 28.55455L5 23.888125z" />
    <glyph glyph-name="dashboard"
      unicode="&#xF123;"
      horiz-adv-x="40" d=" M26.763125 4.4445C27.3235 4.4445 27.77775 4.009125 27.77775 3.47225C27.77775 2.93525 27.3235 2.5 26.76325 2.5H13.722875C13.162625 2.5 12.708375 2.93525 12.708375 3.47225C12.708375 4.009125 13.162625 4.4445 13.722875 4.4445H26.763125zM20 37.5C24.6745 37.5 29.069125 35.693475 32.374375 32.413325C35.6185 29.1938375 37.432125 24.932875 37.498125 20.39025L37.5 20.132875V20.13275L37.497875 19.8555C37.440375 16.164875 36.233875 12.663125 34.000375 9.712C33.82425 9.479375 33.557375 9.33375 33.267875 9.30925L33.1805 9.3055H6.819625C6.497175 9.3055 6.1934625 9.456125 5.9998 9.712C3.766075 12.663 2.559675 16.16475 2.5021625 19.8555L2.5 20.132625V20.13275L2.501875 20.39025C2.566675 24.847125 4.3136625 29.03275 7.4433625 32.2298375L7.62545 32.4131875C10.9309625 35.6935375 15.325625 37.5 20 37.5zM21.025375 35.4301875V34.3024C21.025375 33.7404125 20.56625 33.2848 20 33.2848C19.458375 33.2848 19.01475 33.7016625 18.977125 34.2297375L18.974625 34.3024V35.4301875C15.574625 35.20795 12.47185 33.88985 10.0223375 31.828625L9.8303125 31.6643625L10.62895 30.87185C11.0294 30.4744375 11.029475 29.8301625 10.629025 29.43275C10.4288 29.2340375 10.1663625 29.13465 9.9039375 29.13465C9.6706625 29.13465 9.43745 29.213125 9.247875 29.370125L9.1789125 29.432675L8.3802 30.2252625C6.26405 27.8287 4.8874125 24.7745 4.6056125 21.416125L4.58565 21.150375L5.7219125 21.1505C6.2882 21.1505 6.747375 20.694875 6.747375 20.132875C6.7474375 19.595375 6.3273875 19.155 5.795275 19.11775L5.72205 19.11525L4.584625 19.115125C4.761975 16.402 5.648325 13.8245 7.1811 11.5725L7.3419625 11.34075H32.658125C34.235375 13.570125 35.16825 16.131375 35.3945 18.835L35.415375 19.115125L34.277875 19.11525C33.711625 19.11525 33.2525 19.570875 33.2525 20.132875C33.252625 20.6705 33.672625 21.110625 34.20475 21.147875L34.278 21.1505L35.414375 21.150375C35.190375 24.5245 33.86225 27.603775 31.78525 30.0347L31.61975 30.2252625L30.821 29.432675C30.62075 29.233975 30.358375 29.13465 30.096 29.13465C29.833625 29.13465 29.571125 29.2340375 29.370875 29.43275C28.9905 29.8102875 28.971625 30.4106875 29.314 30.81045L29.371 30.87185L30.16975 31.6642875C27.69125 33.819725 24.51475 35.2021125 21.025375 35.4301875zM26.501625 26.501625C26.886625 26.116625 26.905875 25.5045 26.559375 25.09675L26.501625 25.034125L23.733 22.2655C24.13625 21.60375 24.368875 20.827 24.368875 19.996875C24.368875 17.58625 22.40775 15.625 19.997 15.625C17.58625 15.625 15.625 17.58625 15.625 19.996875C15.625 22.407625 17.58625 24.368875 19.997 24.368875C20.771625 24.368875 21.5 24.16625 22.131625 23.81125L22.2655 23.733L25.03425 26.501625C25.4395 26.906875 26.0965 26.906875 26.501625 26.501625zM19.997 22.293625C18.730625 22.293625 17.700375 21.26325 17.700375 19.996875C17.700375 18.730625 18.730625 17.70025 19.997 17.70025C21.263375 17.70025 22.293625 18.7305 22.293625 19.996875C22.293625 21.263375 21.263375 22.293625 19.997 22.293625z" />
    <glyph glyph-name="dashboardspaces"
      unicode="&#xF124;"
      horiz-adv-x="40" d=" M22.785125 15.574375L17.047875 30.982225L16.22825 30.6544L19.506625 15.90225L22.785125 15.574375z M20 37.5C29.66475 37.5 37.5 29.665225 37.5 20C37.5 10.334875 29.66475 2.5 20 2.5C10.3352375 2.5 2.5 10.334875 2.5 20C2.5 29.665225 10.3352375 37.5 20 37.5zM20 35.61055C11.377275 35.61055 4.387575 28.62125 4.387575 20C4.387575 11.37875 11.377275 4.3895 20 4.3895C28.62275 4.3895 35.612375 11.37875 35.612375 20C35.612375 28.62125 28.62275 35.61055 20 35.61055zM20.818 18.852625C22.266625 18.852625 23.440875 17.6785 23.440875 16.23C23.440875 14.781625 22.266625 13.607375 20.818 13.607375C19.3695 13.607375 18.19525 14.781625 18.19525 16.23C18.19525 17.6785 19.3695 18.852625 20.818 18.852625z" />
    <glyph glyph-name="delete"
      unicode="&#xF125;"
      horiz-adv-x="40" d=" M23.324375 37.5C23.687125 37.5 24.00175 37.248925 24.082125 36.895125L24.688 34.228175L34.036125 34.228075C34.44 34.228075 34.772 33.919875 34.809625 33.5258L34.81325 33.45095C34.81325 33.0217625 34.46525 32.6738375 34.036125 32.6738375L32.904 32.6739375L30.457125 3.214625C30.426625 2.83625 30.128375 2.53925 29.757625 2.503625L29.6825 2.5H10.1419375C9.7371125 2.5 9.4000875 2.81075 9.3673625 3.21425L6.9199125 32.6739375L5.777125 32.6738375C5.373175 32.6738375 5.0412125 32.9820375 5.0035625 33.3761125L5 33.45095C5 33.88015 5.347925 34.228075 5.777125 34.228075L15.47725 34.228175L16.095625 36.8981125C16.171375 37.2253125 16.447375 37.463825 16.776 37.4962375L16.85275 37.5H23.324375zM10.85695 4.054375L10.1419375 4.05425L10.9165125 3.34L10.85695 4.054375zM29.6825 4.05425L28.967 4.054375L28.907875 3.339625L29.6825 4.05425zM31.343625 32.6739375H8.478675L10.85695 4.054375H28.967L31.343625 32.6739375zM19.906625 28.0954625C20.33575 28.0954625 20.68375 27.747525 20.68375 27.318375V8.5915C20.68375 8.16225 20.33575 7.814375 19.906625 7.814375C19.477375 7.814375 19.1295 8.16225 19.1295 8.5915V27.318375C19.1295 27.747525 19.477375 28.0954625 19.906625 28.0954625zM13.802875 26.575625C14.23125 26.60225 14.600125 26.2765 14.62675 25.848125L15.636 9.60825C15.662625 9.179875 15.336875 8.811125 14.908625 8.7845C14.48025 8.757875 14.111375 9.0835 14.08475 9.511875L13.0755 25.75175C13.048875 26.180125 13.3745 26.549 13.802875 26.575625zM25.935375 26.576625L26.01025 26.575625C26.438625 26.549 26.764375 26.180125 26.73775 25.75175L25.7285 9.511875C25.701875 9.0835 25.333 8.757875 24.904625 8.7845C24.47625 8.811125 24.150625 9.179875 24.17725 9.60825L25.1865 25.848125C25.213125 26.2765 25.581875 26.60225 26.01025 26.575625L25.935375 26.576625zM22.703625 35.9457625H17.470125L17.07225 34.228175H23.09425L22.703625 35.9457625zM22.5665 36.5506375L22.703625 35.9457625H23.324375L22.5665 36.5506375zM17.609875 36.54765L16.85275 35.9457625H17.470125L17.609875 36.54765z" />
    <glyph glyph-name="directmessagefilled"
      unicode="&#xF126;"
      horiz-adv-x="40" d=" M23.842125 25.073625C25.499125 25.073625 26.847875 23.720625 26.847875 22.0575V12.81825C26.847875 11.155375 25.499125 9.802375 23.842125 9.802375H13.152125C12.996125 9.802375 12.843875 9.754375 12.716 9.6645L6.30435 5.16025V9.038875C6.30435 9.4605 5.9261375 9.802375 5.505575 9.802375C3.8486125 9.802375 2.5 11.155375 2.5 12.81825V22.0575C2.5 23.720625 3.8486125 25.073625 5.505575 25.073625H23.842125zM34.494375 35C36.151375 35 37.5 33.6469875 37.5 31.983775V22.7445C37.5 21.08175 36.151375 19.72875 34.4565 19.72875C34.036 19.72875 33.695625 19.386875 33.695625 18.96525V15.086625L28.369625 18.828125V22.0575C28.369625 24.562625 26.33875 26.60075 23.842125 26.60075H13.152125V31.983775C13.152125 33.6469875 14.500875 35 16.157875 35H34.494375z" />
    <glyph glyph-name="directmessageol"
      unicode="&#xF127;"
      horiz-adv-x="40" d=" M33.334875 35H16.465125C14.16825 35 12.3 33.124775 12.3 30.8201125V25.86775H6.6651375C4.3682625 25.86775 2.5 23.9925 2.5 21.687875V13.18775C2.5 11.119125 4.005275 9.3965 6 9.0655V4.793375C6 4.531375 6.144925 4.29125 6.3766625 4.170125C6.4785125 4.117375 6.5892625 4.090875 6.7 4.090875C6.840825 4.090875 6.9816375 4.13375 7.101275 4.217875L13.92075 9.00825H23.534875C25.83175 9.00825 27.7 10.883125 27.7 13.18775V17.001875L32.89875 13.35C33.018375 13.266 33.159125 13.223125 33.3 13.223125C33.41075 13.223125 33.5215 13.2495 33.623375 13.302375C33.855125 13.4235 34 13.6635 34 13.925625V18.193625C35.98175 18.514375 37.5 20.2425 37.5 22.32V30.8201125C37.5 33.124775 35.63175 35 33.334875 35zM26.3 13.18775C26.3 11.658 25.05925 10.41325 23.534875 10.41325H13.7C13.5565 10.41325 13.41625 10.369 13.29875 10.28625L7.4 6.142375V9.71075C7.4 10.098625 7.05205 10.41325 6.6651375 10.41325C5.140725 10.41325 3.9 11.658 3.9 13.18775V21.687875C3.9 23.218 5.140725 24.46275 6.6651375 24.46275H23.534875C25.05925 24.46275 26.3 23.218 26.3 21.687875V13.18775zM36.1 22.32C36.1 20.79025 34.85925 19.5455 33.3 19.5455C32.913125 19.5455 32.6 19.230875 32.6 18.843V15.274625L27.7 18.716875V21.687875C27.7 23.9925 25.83175 25.86775 23.534875 25.86775H13.7V30.8201125C13.7 32.3502625 14.94075 33.5950375 16.465125 33.5950375H33.334875C34.85925 33.5950375 36.1 32.3502625 36.1 30.8201125V22.32z" />
    <glyph glyph-name="doc"
      unicode="&#xF128;"
      horiz-adv-x="40" d=" M26.600875 37.5L36.163625 27.444125V2.5H10.3221625L10.3219875 14.37075L7.134825 14.37075C5.2654375 14.37075 3.75 15.8835 3.75 17.75625V23.52625C3.75 25.396125 5.2643125 26.911875 7.134825 26.911875L10.5615625 26.912V37.5H26.600875zM25.47225 36.0907125H11.97085V26.912L22.651625 26.911875C24.521 26.911875 26.036375 25.399125 26.036375 23.52625V17.75625C26.036375 15.8865 24.522125 14.37075 22.651625 14.37075L11.731275 14.37075L11.73145 3.90925H34.754375V26.881L34.718625 26.918625L25.47275 26.918125L25.47225 36.0907125zM22.651625 25.784375H7.134825C5.887475 25.784375 4.877425 24.773875 4.877425 23.52625V17.75625C4.877425 16.50725 5.8869625 15.498125 7.134825 15.498125H22.651625C23.899 15.498125 24.909 16.508625 24.909 17.75625V23.52625C24.909 24.77525 23.8995 25.784375 22.651625 25.784375zM15.36975 23.818625C16.2355 23.818625 16.89775 23.569375 17.35625 23.071C17.814875 22.572625 18.044125 21.855875 18.044125 20.92075C18.044125 19.98825 17.812875 19.2715 17.3505 18.7705C16.888 18.2695 16.22525 18.019 15.362 18.019C14.498875 18.019 13.836125 18.2695 13.373625 18.7705C12.91125 19.2715 12.68 19.99075 12.68 20.9285C12.68 21.866125 12.911875 22.58225 13.375625 23.07675C13.83925 23.571375 14.504 23.818625 15.36975 23.818625zM21.480125 23.810875C22.027375 23.810875 22.577125 23.678625 23.1295 23.414L22.744125 22.442875C22.5335 22.543125 22.3215 22.6305 22.10825 22.705C21.895 22.7795 21.685625 22.81675 21.480125 22.81675C21.030625 22.81675 20.6825 22.64775 20.435875 22.31C20.18925 21.972125 20.065875 21.501375 20.065875 20.897625C20.065875 19.641375 20.537375 19.01325 21.480125 19.01325C21.87575 19.01325 22.354875 19.112125 22.9175 19.31V18.308125C22.455125 18.115375 21.93875 18.019 21.368375 18.019C20.548875 18.019 19.922 18.267625 19.487875 18.76475C19.05375 19.261875 18.836625 19.975375 18.836625 20.905375C18.836625 21.491125 18.94325 22.00425 19.1565 22.444875C19.36975 22.885375 19.676125 23.22325 20.0755 23.45825C20.475 23.693375 20.94325 23.810875 21.480125 23.810875zM8.981925 23.73C9.9016375 23.73 10.6158125 23.48725 11.1244875 23.001625C11.63315 22.516125 11.8874875 21.837875 11.8874875 20.967C11.8874875 20.039625 11.623525 19.32925 11.0955875 18.836C10.56765 18.34275 9.8053 18.096125 8.8085125 18.096125H7.2131625V23.73H8.981925zM15.36975 22.824375C14.8945 22.824375 14.536125 22.6645 14.294625 22.344625C14.053125 22.02475 13.932375 21.550125 13.932375 20.92075C13.932375 20.291375 14.051875 19.817375 14.29075 19.49875C14.52975 19.18025 14.88675 19.021 15.362 19.021C16.315125 19.021 16.79175 19.65425 16.79175 20.92075C16.79175 22.189875 16.31775 22.824375 15.36975 22.824375zM9.0435875 22.751125H8.40775V19.082625H8.920275C10.0712 19.082625 10.64665 19.7005 10.64665 20.936125C10.64665 22.146125 10.1123 22.751125 9.0435875 22.751125zM26.59975 35.4560625L26.600125 28.0456L33.646625 28.046025L26.59975 35.4560625z" />
    <glyph glyph-name="downlaod"
      unicode="&#xF129;"
      horiz-adv-x="40" d=" M3.5027625 22.82725C4.05985 22.82725 4.5055125 22.381625 4.5055125 21.8245V12.5545C4.5055125 10.081125 6.5184625 8.06075 8.9993625 8.06075H31.000625C33.474125 8.06075 35.4945 10.073625 35.4945 12.5545V21.675875C35.4945 22.233 35.940125 22.67875 36.49725 22.67875C37.054375 22.67875 37.5 22.225625 37.5 21.675875V12.5545C37.5 8.974375 34.58825 6.055125 31.000625 6.055125H8.9993625C5.4191375 6.055125 2.5 8.966875 2.5 12.5545V21.8245C2.5 22.381625 2.945675 22.82725 3.5027625 22.82725zM19.98325 35C20.540375 35 20.986 34.554325 20.986 33.9972375V17.152375L25.64325 21.817125C26.037 22.21075 26.668375 22.21075 27.062 21.817125C27.45575 21.423375 27.45575 20.792 27.062 20.398375L20.688875 14.02525C20.49575 13.82475 20.235875 13.728125 19.98325 13.728125C19.73075 13.728125 19.47075 13.832125 19.277625 14.02525L12.897125 20.398375C12.5035 20.792 12.5035 21.423375 12.897125 21.817125C13.29075 22.21075 13.922125 22.21075 14.315875 21.817125L18.9805 17.152375V33.9972375C18.9805 34.554325 19.42625 35 19.98325 35z" />
    <glyph glyph-name="edit"
      unicode="&#xF12A;"
      horiz-adv-x="40" d=" M36.218875 33.1250125L33.12575 36.218675C32.27125 37.0726125 31.15075 37.5 30.0315 37.5C28.912375 37.5 27.792625 37.0726125 26.938125 36.218675L8.1557625 17.436625C7.3023625 16.582125 4.6885875 13.277375 4.6874875 12.157875L2.5 2.500125L12.155875 4.687625C12.155875 4.687625 16.58225 7.3025 17.43675 8.157L36.219125 26.9385C37.927 28.6474875 37.927 31.41795 36.218875 33.1250125zM5.3998 5.399125L6.8203 11.67525C6.8405375 11.765 6.855575 11.856875 6.86405 11.9465C6.868425 11.959375 6.8801875 11.9785 6.885375 11.991375L11.83185 7.04375C11.6664125 6.9435 11.499625 6.843125 11.3361125 6.744625L5.3998 5.399125zM15.894 9.707625C15.64625 9.47275 14.789625 8.893625 13.742875 8.22725L8.07565 13.89475C8.6567 14.6915 9.303925 15.49275 9.702325 15.89L23.845 30.031625L30.0315 23.845125L15.894 9.707625zM34.67225 28.4850625L31.578125 25.391625L25.391625 31.5781875L28.48575 34.671575C28.898125 35.085825 29.44725 35.3125125 30.0315 35.3125125C30.615875 35.3125125 31.16575 35.0839125 31.579125 34.671575L34.6725 31.5781875C35.086 31.1658375 35.312375 30.616775 35.312375 30.031625C35.312125 29.4483875 35.084625 28.8974125 34.67225 28.4850625z" />
    <glyph glyph-name="ellipsehorizontal"
      unicode="&#xF12B;"
      horiz-adv-x="40" d=" M10.5102 20.186375C10.5102 21.63075 9.3246 22.80725 7.8496375 22.855625L7.7551 22.857125C6.2335 22.857125 5 21.661625 5 20.186375V20.17075C5 18.7265 6.1856125 17.55 7.660575 17.5015L7.7551 17.5C9.2767 17.5 10.5102 18.695625 10.5102 20.17075V20.186375zM22.755125 20.186375C22.755125 21.63075 21.5695 22.80725 20.0945 22.855625L20 22.857125C18.478375 22.857125 17.244875 21.661625 17.244875 20.186375V20.17075C17.244875 18.7265 18.4305 17.55 19.9055 17.5015L20 17.5C21.521625 17.5 22.755125 18.695625 22.755125 20.17075V20.186375zM35 20.186375C35 21.63075 33.814375 22.80725 32.339375 22.855625L32.244875 22.857125C30.72325 22.857125 29.48975 21.661625 29.48975 20.186375V20.17075C29.48975 18.7265 30.675375 17.55 32.150375 17.5015L32.244875 17.5C33.7665 17.5 35 18.695625 35 20.17075V20.186375z" />
    <glyph glyph-name="ellipsevertical"
      unicode="&#xF12C;"
      horiz-adv-x="40" d=" M19.813625 10.51025C18.36925 10.51025 17.19275 9.324625 17.144375 7.849625L17.142875 7.755125C17.142875 6.2335 18.338375 5 19.813625 5H19.82925C21.2735 5 22.45 6.185625 22.4985 7.660625L22.5 7.755125C22.5 9.27675 21.304375 10.51025 19.82925 10.51025H19.813625zM19.813625 22.755125C18.36925 22.755125 17.19275 21.5695 17.144375 20.0945L17.142875 20C17.142875 18.478375 18.338375 17.244875 19.813625 17.244875H19.82925C21.2735 17.244875 22.45 18.4305 22.4985 19.9055L22.5 20C22.5 21.521625 21.304375 22.755125 19.82925 22.755125H19.813625zM19.813625 35C18.36925 35 17.19275 33.8143875 17.144375 32.339425L17.142875 32.2449C17.142875 30.7233 18.338375 29.4898 19.813625 29.4898H19.82925C21.2735 29.4898 22.45 30.6754 22.4985 32.1503625L22.5 32.2449C22.5 33.7665 21.304375 35 19.82925 35H19.813625z" />
    <glyph glyph-name="emoji"
      unicode="&#xF12D;"
      horiz-adv-x="40" d=" M28.339875 15.92125C27.2005 12.252625 23.850875 9.791625 20 9.791625C16.149125 9.791625 12.7995 12.252625 11.6601625 15.92125C11.4095 16.696 11.84245 17.4935 12.61725 17.744125C13.369125 17.99475 14.1895 17.561875 14.440125 16.787125C15.192 14.349 17.447875 12.708375 20 12.708375C22.552125 12.708375 24.808 14.349 25.559875 16.787125C25.8105 17.561875 26.630875 17.99475 27.405625 17.744125C28.1575 17.4935 28.5905 16.696 28.339875 15.92125zM17.083375 25.833375C17.083375 24.2155 15.7845 22.916625 14.166625 22.916625C12.548875 22.916625 11.25 24.2155 11.25 25.833375C11.25 27.451125 12.548875 28.75 14.166625 28.75C15.7845 28.75 17.083375 27.451125 17.083375 25.833375zM28.75 25.833375C28.75 24.2155 27.451125 22.916625 25.833375 22.916625C24.2155 22.916625 22.916625 24.2155 22.916625 25.833375C22.916625 27.451125 24.2155 28.75 25.833375 28.75C27.451125 28.75 28.75 27.451125 28.75 25.833375zM34.583375 20C34.583375 28.043625 28.043625 34.5833375 20 34.5833375C11.956375 34.5833375 5.4166625 28.043625 5.4166625 20C5.4166625 11.956375 11.956375 5.416625 20 5.416625C28.043625 5.416625 34.583375 11.956375 34.583375 20zM37.5 20C37.5 10.3385 29.6615 2.5 20 2.5C10.3385375 2.5 2.5 10.3385 2.5 20C2.5 29.6614625 10.3385375 37.5 20 37.5C29.6615 37.5 37.5 29.6614625 37.5 20z" />
    <glyph glyph-name="eyeoff"
      unicode="&#xF12E;"
      horiz-adv-x="40" d=" M11.97835 28.17725C14.437625 29.179625 17.036875 29.7015 19.729375 29.7344C19.819375 29.736875 20.180625 29.736875 20.2705 29.7344C23.536875 29.6945625 26.666 28.9349625 29.5745 27.471C32.42375 26.036875 34.968125 23.936625 36.9325 21.3975C37.689125 20.419375 37.689125 19.05325 36.9325 18.075C34.968125 15.535875 32.42375 13.435625 29.5745 12.0015C29.254625 11.8405 28.932125 11.688125 28.607125 11.544125L31.271375 8.8815C31.493125 8.65975 31.503125 8.303375 31.294 8.069625C31.09925 7.851875 30.765 7.83325 30.547375 8.028L30.5365 8.038L27.486 11.085375C25.186 10.22 22.768375 9.768625 20.2705 9.738125C20.180625 9.735625 19.819375 9.735625 19.729375 9.738125C16.463 9.778 13.334 10.5375 10.42545 12.0015C7.576175 13.435625 5.03185 15.535875 3.06755 18.075C2.3108125 19.053125 2.3108125 20.419375 3.06755 21.3975C5.031925 23.936625 7.576175 26.036875 10.42545 27.471C10.57685 27.5471875 10.7288375 27.621475 10.8814125 27.6938625L7.062225 31.5108375C6.8402625 31.7327875 6.830225 32.0894375 7.0393625 32.3235125C7.23395 32.5413 7.5682375 32.5601125 7.786025 32.365525L7.7969625 32.355475L11.97835 28.17725zM13.4215 25.152875C12.2227125 23.675875 11.502725 21.78925 11.502725 19.736375C11.502725 15.01275 15.314625 11.16975 20 11.16975C22.06125 11.16975 23.953375 11.9135 25.426375 13.14875L22.005125 16.5685C21.424875 16.199875 20.736875 15.98625 20 15.98625C17.93225 15.98625 16.25 17.6685 16.25 19.73625C16.25 20.472875 16.4635 21.1605 16.83175 21.740625L13.4215 25.152875zM11.96155 26.612125C11.6591375 26.47825 11.3591 26.3365 11.0615375 26.18675C8.400925 24.8475 6.0249 22.886125 4.1902875 20.51475C3.8357 20.056375 3.8357 19.416125 4.1902875 18.957875C6.024975 16.586375 8.401 14.625 11.0615375 13.28575C11.81725 12.9055 12.589125 12.5765 13.375 12.298C11.352875 14.13025 10.0789375 16.786 10.0789375 19.73625C10.0789375 22.1825 10.954775 24.426125 12.4066875 26.165875L11.96155 26.612125zM26.624625 27.175125C28.646875 25.34275 29.921125 22.687 29.921125 19.736375C29.921125 17.09925 28.90325 14.6975 27.243 12.90875L27.513125 12.63775C27.994125 12.834 28.4695 13.04975 28.9385 13.285875C31.599125 14.625 33.975125 16.586375 35.80975 18.957875C36.164375 19.41625 36.164375 20.056375 35.809875 20.514875C33.975125 22.886375 31.599125 24.847625 28.938625 26.186875C28.18275 26.567375 27.41075 26.896625 26.624625 27.175125zM20 28.3028625C17.75 28.3028625 15.7015 27.41675 14.179875 25.9725L17.5655 22.586375C18.221 23.14725 19.071625 23.48625 20 23.48625C22.067875 23.48625 23.75 21.804 23.75 19.73625C23.75 18.807875 23.411 17.957375 22.850125 17.30175L26.233125 13.919875C27.63775 15.448625 28.497375 17.493125 28.497375 19.73625C28.497375 24.46 24.6855 28.3028625 20 28.3028625zM17.91275 20.658125C17.78775 20.376 17.71825 20.064125 17.71825 19.73625C17.71825 18.478 18.741875 17.4545 20 17.4545C20.327875 17.4545 20.63975 17.524 20.92175 17.649L17.91275 20.658125zM20 22.018C19.476375 22.018 18.9935 21.84075 18.608 21.543125L21.80825 18.346C22.105 18.73125 22.28175 19.2135 22.28175 19.73625C22.28175 20.9945 21.258125 22.018 20 22.018z" />
    <glyph glyph-name="eyeon"
      unicode="&#xF12F;"
      horiz-adv-x="40" d=" M19.729375 29.9981375C19.819375 30.000625 20.180625 30.000625 20.2705 29.9981375C23.536875 29.9583 26.666 29.1987125 29.5745 27.734725C32.42375 26.300625 34.968125 24.200375 36.9325 21.66125C37.689125 20.683125 37.689125 19.317 36.9325 18.33875C34.968125 15.799625 32.42375 13.699375 29.5745 12.26525C26.666 10.80125 23.536875 10.04175 20.2705 10.001875C20.180625 9.999375 19.819375 9.999375 19.729375 10.001875C16.463 10.04175 13.334 10.80125 10.42545 12.26525C7.576175 13.699375 5.03185 15.799625 3.06755 18.33875C2.3108125 19.316875 2.3108125 20.683125 3.06755 21.66125C5.031925 24.200375 7.576175 26.300625 10.42545 27.734725C13.334 29.1987125 16.463125 29.9582375 19.729375 29.9981375zM20 28.5666125C15.314625 28.5666125 11.502725 24.72375 11.502725 20.000125C11.502725 15.2765 15.314625 11.4335 20 11.4335C24.6855 11.4335 28.497375 15.276375 28.497375 20C28.497375 24.72375 24.6855 28.5666125 20 28.5666125zM13.37475 27.438C12.588875 27.159625 11.817175 26.83075 11.0615375 26.4505C8.400925 25.11125 6.0249 23.149875 4.1902875 20.7785C3.8357 20.320125 3.8357 19.679875 4.1902875 19.2215C6.024975 16.850125 8.401 14.88875 11.0615375 13.5495C11.81725 13.169125 12.589125 12.840125 13.375 12.56175C11.352875 14.394 10.0789375 17.04975 10.0789375 20C10.0789375 22.95025 11.3528125 25.605625 13.37475 27.438zM26.624625 27.438875C28.646875 25.6065 29.921125 22.950625 29.921125 20.000125C29.921125 17.051125 28.64825 14.3965 26.627625 12.564125C27.412625 12.842375 28.18375 13.16975 28.9385 13.549625C31.599125 14.88875 33.975125 16.850125 35.80975 19.221625C36.164375 19.68 36.164375 20.320125 35.809875 20.778625C33.975125 23.150125 31.599125 25.111375 28.938625 26.450625C28.18275 26.831125 27.41075 27.160375 26.624625 27.438875zM20 23.75C22.067875 23.75 23.75 22.06775 23.75 20C23.75 17.93225 22.06775 16.25 20 16.25C17.93225 16.25 16.25 17.93225 16.25 20C16.25 22.06775 17.93225 23.75 20 23.75zM20 22.28175C18.74175 22.28175 17.71825 21.25825 17.71825 20C17.71825 18.74175 18.741875 17.71825 20 17.71825C21.258125 17.71825 22.28175 18.74175 22.28175 20C22.28175 21.25825 21.258125 22.28175 20 22.28175z" />
    <glyph glyph-name="filled"
      unicode="&#xF130;"
      horiz-adv-x="40" d=" M4.8562125 28.75C3.5577875 28.75 2.5 27.7117 2.5 26.43275V12.506625C2.5 11.228875 3.5577875 10.189375 4.8562125 10.189375H25.0545C26.351625 10.189375 27.40575 11.228875 27.40575 12.506625V16.356625L35.007 12.0735C35.713 11.677625 36.370125 11.5935 36.808625 11.844875C37.248375 12.095125 37.5 12.699125 37.5 13.49925V25.43425C37.5 26.2355 37.248375 26.8395 36.808625 27.090875C36.3665 27.3435 35.7105 27.26175 35.0045 26.867125L27.40575 22.586375V26.43275C27.40575 27.7117 26.351625 28.75 25.0545 28.75H4.8562125z" />
    <glyph glyph-name="filleddown"
      unicode="&#xF131;"
      horiz-adv-x="40" d=" M3.75 28.75H37.5L20.911 12.5L3.75 28.75z" />
    <glyph glyph-name="filledleft"
      unicode="&#xF132;"
      horiz-adv-x="40" d=" M27.5 36.25V2.5L11.25 19.089L27.5 36.25z" />
    <glyph glyph-name="filter"
      unicode="&#xF133;"
      horiz-adv-x="40" d=" M37.5 31.25H3.75L17.877125 16.934V3.75L23.372875 6.5345V16.9345L37.5 31.25zM8.1894125 29.383775H33.060125L21.541 17.710375V7.690875L19.709 6.7625V17.710375L8.1894125 29.383775z" />
    <glyph glyph-name="flow"
      unicode="&#xF134;"
      horiz-adv-x="40" d=" M9.57 37.5C10.158 37.5 10.634 37.024 10.634 36.436V32.348C13.03925 32.348 15.05375 30.6428 15.54525 28.3776H18.997625C20.131625 28.3776 21.05425 27.455 21.05425 26.321V13.66775L24.466 13.70275C24.522 13.981375 24.606 14.261375 24.718 14.526C24.76 14.652 24.83 14.778 24.886 14.904C24.956 15.03 25.012 15.156 25.096 15.282C25.138 15.352 25.194 15.436 25.236 15.506C25.306 15.618 25.39 15.716 25.474 15.814C26.104 16.598 26.958 17.186 27.952 17.466C28.036 17.494 28.106 17.522 28.19 17.536C28.288 17.564 28.386 17.578 28.484 17.592C28.596 17.62 28.722 17.634 28.848 17.648C29.016 17.662 29.198 17.676 29.366 17.676V21.764C29.366 22.352 29.842 22.828 30.43 22.828H36.436C37.024 22.828 37.5 22.352 37.5 21.764V3.55C37.5 2.976 37.024 2.5 36.436 2.5H30.43C29.842 2.5 29.366 2.976 29.366 3.55V7.652C29.198 7.652 29.016 7.666 28.848 7.68C28.694 7.694 28.524625 7.722 28.372 7.75C28.19 7.792 28.008 7.834 27.824625 7.89C27.7 7.932 27.588 7.974 27.462 8.016C26.846 8.282 26.286 8.646 25.824 9.122C25.712 9.234 25.6 9.346 25.502 9.472C25.404 9.598 25.306 9.724 25.208 9.864C25.012 10.158 24.844 10.466 24.718 10.788C24.662 10.928 24.62 11.054 24.578 11.194C24.536 11.332625 24.494 11.472625 24.466 11.612625H21.009375C19.875375 11.612625 18.95425 12.53375 18.95425 13.66775V26.321L15.548 26.28875C15.072 24.004 13.056 22.31 10.634 22.31V18.222C10.634 17.634 10.158 17.158 9.57 17.158H3.564C2.9746 17.158 2.5 17.634 2.5 18.222V36.436C2.5 37.024 2.9746 37.5 3.564 37.5H9.57zM29.366 15.576C27.756 15.576 26.454 14.274 26.454 12.664C26.454 11.054 27.756 9.752 29.366 9.752C30.974625 9.752 32.292 11.054 32.292 12.664C32.292 14.274 30.974625 15.576 29.366 15.576zM10.634 30.248C9.024 30.248 7.722 28.932 7.722 27.322C7.722 25.712 9.024 24.41 10.634 24.41C12.244 24.41 13.56 25.712 13.56 27.322C13.56 28.932 12.244 30.248 10.634 30.248z" />
    <glyph glyph-name="formatting"
      unicode="&#xF135;"
      horiz-adv-x="40" d=" M8.6275125 15.824875H16.7695L18.011875 12.395C18.3465 11.616625 18.564625 10.775375 18.648625 9.864125V9.83025C18.648625 9.444125 18.480625 9.096875 18.222375 8.8625C17.772375 8.552875 17.228375 8.372375 16.641625 8.372375C16.5965 8.372375 16.552625 8.373625 16.515 8.374875V7.714125H24.8225L24.8205 8.255375C25.420625 7.746375 26.197 7.439625 27.045125 7.439625C27.08775 7.439625 27.129125 7.440875 27.16425 7.442125H27.18675C27.87625 7.442125 28.530625 7.597625 29.2 7.926C30.22925 8.54775 31.21075 9.24225 32.092 9.9655C32.08025 9.854125 32.07325 9.739375 32.07325 9.624625C32.07325 9.025375 32.2475 8.467625 32.544625 8.00875C32.841625 7.659 33.2855 7.437125 33.780625 7.437125C33.81575 7.437125 33.849625 7.437125 33.879625 7.439625C34.991125 7.439625 36.198 8.28075 37.5 9.963125L37.495 10.813C37.088875 10.37925 36.647625 9.980625 36.152375 9.604625C36.017 9.526875 35.86025 9.48175 35.693625 9.48175H35.68225H35.6785C35.513125 9.48175 35.361375 9.544375 35.248625 9.646C35.093125 9.824 34.992875 10.053375 34.984 10.213875C34.916375 10.948375 34.88125 11.69175 34.88125 12.444C34.88125 12.63325 34.88375 12.82125 34.8875 12.98175L34.88625 18.1365C34.900125 18.34575 34.907625 18.558875 34.907625 18.772C34.907625 19.62575 34.791 20.450625 34.579125 21.190125C34.292125 21.880875 33.765625 22.44625 33.1275 22.7735C32.184875 23.231 31.12675 23.488 30.008625 23.488C29.917125 23.488 29.826875 23.48675 29.766625 23.483C29.64375 23.48925 29.521 23.493 29.396875 23.493C27.987875 23.493 26.685375 23.03175 25.637375 22.25825C24.788625 21.681625 24.21325 20.732625 24.146875 19.642C24.144375 19.606875 24.143125 19.57175 24.143125 19.53675C24.143125 19.12175 24.29225 18.742 24.538 18.448625C24.774875 18.181625 25.119625 18.013625 25.5045 18.013625C25.51825 18.013625 25.53075 18.014875 25.540875 18.014875C25.554625 18.013625 25.569625 18.013625 25.5835 18.013625C25.9695 18.013625 26.318 18.175375 26.5625 18.43225C26.8095 18.723125 26.958625 19.1005 26.958625 19.511625C26.958625 19.5505 26.957375 19.589375 26.954875 19.622V20.58475C26.961125 21.11 27.204375 21.57875 27.582875 21.888375C27.999125 22.24825 28.540625 22.465125 29.133625 22.465125C29.175 22.465125 29.217625 22.463875 29.245125 22.461375C29.304125 22.465125 29.36425 22.467625 29.424375 22.467625C30.195375 22.467625 30.888625 22.135375 31.35875 21.626375C31.840125 20.85925 32.118375 19.951625 32.118375 18.978875C32.118375 18.798375 32.108375 18.620375 32.092 18.466125L31.83375 17.78675C29.89575 17.10725 28.0305 16.269875 26.4095 15.36975C25.478125 14.867125 24.680875 14.14625 24.080375 13.27125C23.75825 12.72975 23.574 12.09675 23.574 11.41975C23.574 11.383375 23.574 11.347125 23.57525 11.32575C23.5715 11.260625 23.57025 11.195375 23.57025 11.13025C23.57025 10.10225 23.960125 9.165875 24.596875 8.462625C24.6245 8.434625 24.65275 8.407 24.681375 8.38C23.957875 8.423375 23.30525 8.721375 22.825625 9.164625C22.11225 10.08225 21.56325 11.13275 21.202125 12.341125L13.88625 32.5H13.346L5.9323125 12.485375C5.536175 11.25675 4.9382125 10.1185 4.2036125 9.14575C3.7297625 8.7685 3.14935 8.52025 2.5 8.45V7.789375H9.0950875L9.09885 8.45C9.072525 8.44875 9.04495 8.44875 9.018625 8.44875C8.316625 8.44875 7.6635 8.650625 7.1244625 8.991625C6.849925 9.22475 6.675675 9.57325 6.675675 9.963125L6.6781875 9.9945C6.7509 10.71525 6.937675 11.40225 7.200925 11.993875L8.6275125 15.824875zM12.774375 26.940375L16.3345 17.146125H9.1088875L12.774375 26.940375zM32.092 16.8465V11.0475L32.09325 11.033625C31.21325 10.17125 30.0675 9.577 28.75625 9.38025C28.093125 9.39025 27.501375 9.696125 27.10775 10.17375C26.6565 10.678875 26.382 11.34575 26.382 12.075375C26.382 12.1105 26.382 12.145625 26.38325 12.175625C26.3845 12.836375 26.598875 13.4455 26.962375 13.94325C27.461375 14.55625 28.086875 15.061375 28.64475 15.3485C29.687625 15.8775 30.762 16.352625 32.092 16.8465z" />
    <glyph glyph-name="gif"
      unicode="&#xF136;"
      horiz-adv-x="40" d=" M33.585 30C35.74725 30 37.5 28.254325 37.5 26.100875V13.482375C37.5 11.329 35.74725 9.583375 33.585 9.583375H6.415C4.2528 9.583375 2.5 11.329 2.5 13.482375V26.100875C2.5 28.254325 4.2528 30 6.415 30H33.585zM33.585 28.1226625H6.415C5.2938625 28.1226625 4.385 27.2175 4.385 26.100875V13.482375C4.385 12.365875 5.2938625 11.460625 6.415 11.460625H33.585C34.706125 11.460625 35.615 12.365875 35.615 13.482375V26.100875C35.615 27.2175 34.706125 28.1226625 33.585 28.1226625zM14.012875 23.884C15.03825 23.884 15.852625 23.63475 16.456125 23.13625C17.0595 22.637875 17.422375 21.91925 17.54475 20.9805H15.975C15.79775 22.072875 15.15425 22.619125 14.0445 22.619125C13.327125 22.619125 12.78175 22.36475 12.4083125 21.855875C12.0348625 21.347 11.8418125 20.600375 11.8291625 19.616V18.918125C11.8291625 17.937875 12.0390875 17.176625 12.45895 16.634625C12.878875 16.0925 13.462125 15.8215 14.209125 15.8215C15.02775 15.8215 15.61 16.00425 15.956 16.36975V18.1455H14.057125V19.34175H17.551125V15.865125C17.21775 15.43725 16.755625 15.11325 16.164875 14.893125C15.574125 14.673 14.90325 14.562875 14.152125 14.562875C13.379875 14.562875 12.69625 14.73525 12.101325 15.08C11.50635 15.42475 11.04745 15.918 10.72465 16.559875C10.4018375 17.201625 10.2341 17.95025 10.22145 18.806V19.51625C10.22145 20.887 10.5548 21.957625 11.2215125 22.728125C11.8882375 23.49875 12.818625 23.884 14.012875 23.884zM21.648875 23.759375V14.6875H20.05375V23.759375H21.648875zM30.120375 23.759375V22.48825H25.866875V19.790375H29.576V18.531875H25.866875V14.6875H24.2655V23.759375H30.120375z" />
    <glyph glyph-name="group"
      unicode="&#xF137;"
      horiz-adv-x="40" d=" M12.84325 20.584C12.3920375 21.227125 9.8880125 21.509125 8.703675 21.543125C7.708575 21.547 6.72025 21.379125 5.7823125 21.0465C4.4653625 20.5975 3.4723125 19.50175 3.1542 18.146875L2.5 14.288125C4.1594875 13.355375 5.9450625 12.6675 7.801325 12.245875 M8.376575 23.404625C6.4765875 23.404625 4.93635 24.945375 4.93635 26.846C4.93635 28.74655 6.4765875 30.2872625 8.376575 30.2872625C10.27655 30.2872625 11.8167875 28.74655 11.8167875 26.846C11.8167875 24.945375 10.27655 23.404625 8.376575 23.404625z M27.123 20.584C27.574125 21.227125 30.078125 21.509125 31.2625 21.543125C32.257625 21.547 33.245875 21.379125 34.183875 21.0465C35.513875 20.60725 36.52125 19.50975 36.84575 18.146875L37.5 14.288125C35.8405 13.355375 34.054875 12.6675 32.198625 12.245875 M31.600875 23.40475C32.99725 23.38175 34.268875 24.2055 34.819125 25.4895C35.369375 26.7735 35.08925 28.2627625 34.109875 29.2586875C33.130625 30.254625 31.646625 30.5595375 30.354125 30.0303625C29.061625 29.5011875 28.21725 28.24295 28.217 26.846C28.201875 25.9385 28.55175 25.063 29.188 24.416C29.82425 23.768875 30.693625 23.404625 31.600875 23.40475z M20.095875 6.254625C16.410375 6.252625 12.782375 7.16775 9.53835 8.917375L9.166125 9.1205L10.2263875 15.439C10.7563625 17.64875 12.37665 19.4355 14.523875 20.17775C16.06675 20.70825 17.686125 20.98275 19.317625 20.990125H20.874125C22.501875 20.981625 24.117375 20.70725 25.656625 20.17775C27.802875 19.447 29.425 17.666875 29.954125 15.4615L31.025625 9.1205L30.642125 8.917375C27.4025 7.166875 23.777875 6.25175 20.095875 6.254625z M20.095875 22.118375C17.299625 22.149375 15.05275 24.432375 15.06525 27.229625C14.9775 29.082225 15.915625 30.8329625 17.5065 31.78555C19.097375 32.73815 21.083125 32.73815 22.674 31.78555C24.264875 30.8329625 25.203 29.082225 25.11525 27.229625C25.127875 24.436625 22.88775 22.1555 20.095875 22.118375z" />
    <glyph glyph-name="hamburger"
      unicode="&#xF138;"
      horiz-adv-x="40" d=" M33.941125 8.946375C34.52875 8.946375 35 8.39275 35 7.70975L34.997375 7.620875C34.958625 6.97525 34.5005 6.473125 33.941125 6.473125H6.0589C5.471225 6.473125 5 7.02675 5 7.70975C5 8.3975 5.4740875 8.946375 6.0589 8.946375H33.941125zM33.941125 20.72325C34.5005 20.72325 34.958625 20.221 34.997375 19.575375L35 19.4865C35 18.8035 34.52875 18.249875 33.941125 18.249875H6.0589C5.4740875 18.249875 5 18.79875 5 19.4865C5 20.1695 5.471225 20.72325 6.0589 20.72325H33.941125zM33.941125 32.5C34.5005 32.5 34.958625 31.9977875 34.997375 31.352225L35 31.2633375C35 30.58035 34.52875 30.0266875 33.941125 30.0266875H6.0589C5.4740875 30.0266875 5 30.5755875 5 31.2633375C5 31.946325 5.471225 32.5 6.0589 32.5H33.941125z" />
    <glyph glyph-name="hangup"
      unicode="&#xF139;"
      horiz-adv-x="40" d=" M35.629 12.8905C37.5 12.876 37.48675 13.139125 37.5 16.6625C37.4945 20.204875 30.313625 26.04875 20.011625 26.24425C9.6995625 26.45275 2.510125 20.8925 2.5 17.366C2.5070125 13.825875 2.510125 13.55 4.3795375 13.519625L9.0694125 13.415C10.9458375 13.383125 12.4974375 14.722625 12.502125 17.162875C12.502125 19.60225 14.063125 21.213125 20.0055 21.08725C25.93775 20.966 27.501 19.307375 27.501 16.86875C27.501 14.4195 29.05575 13.0315 30.932125 12.999625L35.629 12.8905z" />
    <glyph glyph-name="help"
      unicode="&#xF13A;"
      horiz-adv-x="40" d=" M20 37.5C10.33475 37.5 2.5 29.66525 2.5 20C2.5 10.33475 10.33475 2.5 20 2.5C29.66525 2.5 37.5 10.33475 37.5 20C37.5 29.66525 29.66525 37.5 20 37.5zM19.49425 8.702C18.52825 8.702 17.74425 9.486 17.74425 10.452C17.74425 11.418 18.52825 12.202 19.49425 12.202C20.46025 12.202 21.24425 11.418 21.24425 10.452C21.24425 9.486 20.46025 8.702 19.49425 8.702zM23.38275 20.4865C21.88475 19.65 20.602 18.79425 20.777 15.08075V14.65375H18.1905V15.08075C17.9385 20.40775 20.3675 21.76925 22.079 22.85775C23.32325 23.55775 23.88675 23.8885 23.88675 25.34625C23.87275 26.28425 23.45625 27.1225 22.80175 27.6965L22.79825 27.7C22.0685 28.309 21.12175 28.68 20.0875 28.68C19.9195 28.68 19.75325 28.6695 19.58875 28.65025L19.608 28.652C17.31375 28.4385 15.99075 27.6405 16.108 24.2385V23.8885H13.483V24.18075C13.483 28.498 15.42725 30.86925 19.31575 31.27875C19.4995 31.29625 19.713 31.30675 19.93 31.30675C21.70625 31.30675 23.325 30.64 24.5535 29.54275L24.5465 29.548C25.7295 28.48575 26.475 26.95625 26.49075 25.2535V25.25C26.4925 25.1905 26.49425 25.11875 26.49425 25.04875C26.49425 22.9855 25.229 21.218 23.43175 20.47775L23.3985 20.4655L23.38275 20.4865z" />
    <glyph glyph-name="history"
      unicode="&#xF13B;"
      horiz-adv-x="40" d=" M20 37.5C12.63775 37.5 6.1388625 32.9113125 3.602775 26.127C2.8765125 24.18425 2.5 22.1175 2.5 20C2.5 10.333875 10.3361625 2.5 20 2.5C29.663875 2.5 37.5 10.333875 37.5 20C37.5 29.6661125 29.663875 37.5 20 37.5zM20 36.0813125C28.888 36.0813125 36.091125 28.8803 36.091125 20C36.091125 11.11975 28.888 3.91875 20 3.91875C11.1120375 3.91875 3.908925 11.11975 3.908925 20C3.908925 21.946125 4.2546 23.8435 4.921375 25.62725C7.252 31.8618875 13.228 36.0813125 20 36.0813125zM20 33.3673375C19.611 33.3673375 19.2955 33.04975 19.2955 32.6579875V19.90175H6.6802375C6.291175 19.90175 5.975775 19.584125 5.975775 19.192375C5.975775 18.800625 6.291175 18.483 6.6802375 18.483H20C20.389125 18.483 20.7045 18.800625 20.7045 19.192375V32.6579875C20.7045 33.04975 20.389125 33.3673375 20 33.3673375z" />
    <glyph glyph-name="home"
      unicode="&#xF13C;"
      horiz-adv-x="40" d=" M31.578875 3.819625H23.9365V14.385125H15.87325V3.819625H8.4227125V16.505375H2.5L20 35L37.5 16.505375H31.57725L31.578875 3.819625z" />
    <glyph glyph-name="idea"
      unicode="&#xF13D;"
      horiz-adv-x="40" d=" M20.00025 29.4197C15.127625 29.4197 11.1634375 25.47575 11.1634375 20.627875C11.1634375 19.955 11.2424875 19.277125 11.4084125 18.58L11.6406375 17.781625L11.641875 17.782375C11.647225 17.7625 11.6534 17.742625 11.6591625 17.724625C11.7794 17.384125 11.922275 17.04625 12.0684375 16.7565C12.446825 15.887375 13.00725 14.650125 13.533875 13.68C13.895375 13.012625 14.18275 11.93675 14.34325 10.6515C14.4005 10.190875 14.42025 9.875625 14.4215 9.844875L14.43675 9.541C14.457375 9.1575 14.79175 8.856 15.196875 8.856H24.801125C25.206625 8.856 25.541 9.157875 25.562 9.54175L25.5785 9.845625C25.5945 10.0995 25.755125 12.370875 26.467 13.678375C26.99275 14.64975 27.553125 15.889 27.914625 16.7225C28.07775 17.047875 28.22225 17.385625 28.326 17.688375C28.339625 17.71875 28.3515 17.750375 28.360125 17.78275V17.782L28.601 18.61475C28.75875 19.28025 28.837375 19.95625 28.837375 20.62825C28.83775 25.475375 24.874375 29.4197 20.00025 29.4197zM27.12575 18.962375L26.903 18.197C26.89975 18.1915 26.8985 18.18525 26.896875 18.181C26.79725 17.8955 26.677 17.6135 26.523875 17.30525C26.1565 16.46275 25.61425 15.264125 25.113625 14.33925C24.413625 13.054375 24.166625 11.165625 24.08675 10.29775H15.912C15.898875 10.44125 15.879875 10.618 15.85525 10.819625C15.72675 11.848625 15.455375 13.293875 14.88725 14.33925C14.384875 15.264125 13.842625 16.462 13.4605 17.33925C13.332125 17.594 13.21925 17.858375 13.10475 18.16975L12.88325 18.928375C12.751125 19.4885 12.684 20.059625 12.684 20.627125C12.684 24.680375 15.965125 27.977225 19.999 27.977225C24.03275 27.977225 27.315625 24.680375 27.315625 20.627125C27.316 20.061875 27.248875 19.48925 27.12575 18.962375zM24.166625 7.119H15.83425C15.41425 7.119 15.073375 7.44125 15.073375 7.839875C15.073375 8.2385 15.41425 8.56075 15.83425 8.56075H24.166625C24.587 8.56075 24.927875 8.2385 24.927875 7.839875C24.927875 7.44125 24.586125 7.119 24.166625 7.119zM24.166625 5.405H15.83425C15.41425 5.405 15.073375 5.72725 15.073375 6.125875C15.073375 6.525 15.41425 6.847125 15.83425 6.847125H24.166625C24.587 6.847125 24.927875 6.525375 24.927875 6.125875C24.927875 5.72725 24.586125 5.405 24.166625 5.405zM23.56625 3.6915H16.43375C16.01375 3.6915 15.67275 4.013625 15.67275 4.412375C15.67275 4.811375 16.014125 5.1335 16.43375 5.1335H23.56625C23.986625 5.1335 24.327625 4.81175 24.327625 4.412375C24.327625 4.013625 23.987125 3.6915 23.56625 3.6915zM16.66675 15.47625C16.415625 15.47625 16.169375 15.5945 16.0245 15.80975C12.140075 21.576125 15.949875 24.98775 16.75325 25.612625C17.077625 25.86575 17.55775 25.820875 17.824125 25.513125C18.0905 25.205375 18.044 24.751375 17.719125 24.499C17.09 24.008625 14.1135 21.32575 17.307 16.58525C17.533 16.249 17.42975 15.803875 17.07525 15.589C16.948375 15.512875 16.807125 15.47625 16.66675 15.47625zM36.739125 19.999875H32.386625C31.96625 19.999875 31.62525 20.322875 31.62525 20.72075C31.62525 21.119 31.96575 21.441625 32.386625 21.441625H36.739125C37.1595 21.441625 37.5 21.119 37.5 20.72075C37.5 20.322875 37.159875 19.999875 36.739125 19.999875zM7.6138125 19.999875H3.2609C2.840925 19.999875 2.5 20.322875 2.5 20.72075C2.5 21.119 2.840925 21.441625 3.2609 21.441625H7.6138125C8.0337875 21.441625 8.3747125 21.119 8.3747125 20.72075C8.3747125 20.322875 8.0337875 19.999875 7.6138125 19.999875zM19.999375 31.934875C19.579375 31.934875 19.2385 32.2574625 19.2385 32.655725V36.77915C19.2385 37.1774125 19.579375 37.5 19.999375 37.5C20.41975 37.5 20.76025 37.177025 20.76025 36.77915V32.655725C20.76025 32.2574625 20.420125 31.934875 19.999375 31.934875zM28.83325 27.978C28.6385 27.978 28.44375 28.0486 28.295125 28.189425C27.997875 28.4714375 27.997875 28.92665 28.295125 29.208675L31.372875 32.12445C31.670125 32.4064625 32.151875 32.4064625 32.44875 32.12445C32.746 31.8428125 32.746 31.3872125 32.44875 31.1055875L29.371 28.189425C29.222375 28.047825 29.028 27.978 28.83325 27.978zM11.1671375 28.1196C10.9723875 28.1196 10.777625 28.1898125 10.6289875 28.3310125L7.5512375 31.2467875C7.2535375 31.5288125 7.2535375 31.9844125 7.5512375 32.2660375C7.848925 32.547675 8.329425 32.5480625 8.6271125 32.2660375L11.704875 29.350275C12.0025625 29.06825 12.0025625 28.6130375 11.704875 28.3310125C11.555825 28.1898125 11.3610625 28.1196 11.1671375 28.1196zM8.08855 8.189C7.8933875 8.189 7.6986375 8.25925 7.5504125 8.4C7.252725 8.681625 7.252725 9.138 7.5504125 9.41925L10.6281625 12.335C10.9258625 12.616625 11.4063625 12.616625 11.70405 12.335C12.001325 12.053375 12.001325 11.597375 11.70405 11.31575L8.6262875 8.4C8.4780625 8.25925 8.2833125 8.189 8.08855 8.189zM31.911 8.047375C31.71625 8.047375 31.522 8.11875 31.372875 8.25875L28.295125 11.175375C27.997875 11.457 27.997875 11.913 28.295125 12.194625C28.592375 12.47625 29.0725 12.47625 29.371 12.194625L32.44875 9.278C32.746 8.99525 32.746 8.540875 32.44875 8.25875C32.300125 8.11875 32.105375 8.047375 31.911 8.047375z" />
    <glyph glyph-name="image"
      unicode="&#xF13E;"
      horiz-adv-x="40" d=" M35.75 20.18725V35.75H4.25V4.555625L18.4285 26.27725L26.8005 11.691L35.75 20.18725zM4.25 4.25L35.7395 4.25L35.75 20.18725V4.25H4.25zM2.5 37.5H37.5V2.5H2.5V37.5z" />
    <glyph glyph-name="inbox"
      unicode="&#xF13F;"
      horiz-adv-x="40" d=" M2.5 33.75H37.5V10.416625V5.748875H2.5V33.75zM19.99225 10.416625H19.99375H19.995125H20.037125C22.526375 10.416625 24.557875 12.378125 24.67125 14.84925V15.083H34.002625V30.2498625H6.0015375V15.0845H15.32875V14.850625V14.840875C15.44075 12.378125 17.47225 10.416625 19.9615 10.416625H19.99225z" />
    <glyph glyph-name="incomplete"
      unicode="&#xF140;"
      horiz-adv-x="40" d=" M20.217875 37.5C29.667125 37.5 37.345125 29.8229875 37.497625 20.2895L37.5 20C37.5 10.335 29.764875 2.5 20.217875 2.5H19.782125C10.2374625 2.5 2.5 10.332875 2.5 20C2.5 29.6649875 10.235075 37.5 19.782125 37.5H20.217875zM20.24725 35.702575H19.75275C11.209875 35.702575 4.2800625 28.670875 4.2800625 20C4.2800625 11.326375 11.2066875 4.297375 19.75275 4.297375H20.24725C28.790125 4.297375 35.719875 11.329125 35.719875 20C35.719875 28.6735875 28.793375 35.702575 20.24725 35.702575z" />
    <glyph glyph-name="information"
      unicode="&#xF141;"
      horiz-adv-x="40" d=" M20 37.5C29.665 37.5 37.5 29.6649875 37.5 20C37.5 10.335 29.665 2.5 20 2.5C10.3350125 2.5 2.5 10.335 2.5 20C2.5 29.6649875 10.3350125 37.5 20 37.5zM20 36C11.16345 36 4 28.83655 4 20C4 11.1635 11.16345 4 20 4C28.8365 4 36 11.1635 36 20C36 28.83655 28.8365 36 20 36zM19.881375 23.778625C20.43 23.778625 20.87475 23.31975 20.87475 22.786875V10.98125C20.87475 10.48825 20.5015 10.079375 20.038625 10.0025L19.881375 9.9895C19.33275 9.9895 18.888125 10.448375 18.888125 10.98125V22.786875C18.888125 23.279875 19.26125 23.68875 19.724125 23.765625L19.881375 23.778625zM19.885125 30.227825C20.365125 30.227825 20.736 30.084425 20.997875 29.7976C21.259625 29.510775 21.390625 29.1503125 21.390625 28.7162C21.390625 28.2898375 21.259625 27.9352 20.997875 27.65225C20.736 27.36925 20.365125 27.227875 19.885125 27.227875C19.405125 27.227875 19.036 27.36925 18.777875 27.65225C18.519625 27.9352 18.390625 28.2898375 18.390625 28.7162C18.390625 29.1503125 18.519625 29.510775 18.777875 29.7976C19.036 30.084425 19.405125 30.227825 19.885125 30.227825z" />
    <glyph glyph-name="interactionlog"
      unicode="&#xF142;"
      horiz-adv-x="40" d=" M31.78225 34.0380125H24.458875C23.70375 36.0756125 21.77825 37.5 19.518125 37.5C17.258 37.5 15.332625 36.0738625 14.58975 34.0730625L14.5775 34.0362625H7.254025C5.31805 34.0362625 3.75 32.4682125 3.75 30.5322375V6.004C3.75 4.068 5.31805 2.5 7.254025 2.5H31.78225C33.71825 2.5 35.28625 4.068 35.28625 6.004V30.5322375C35.28625 32.4682125 33.71825 34.0362625 31.78225 34.0362625V34.0380125zM23.022125 10.385875H10.7580625V12.137875H23.022125V10.385875zM28.27825 17.393875H10.7580625V19.145875H28.27825V17.393875zM28.27825 24.401875H10.7580625V26.154H28.27825V24.401875z" />
    <glyph glyph-name="invoice"
      unicode="&#xF143;"
      horiz-adv-x="40" d=" M31.762375 29.5894875C31.762375 29.637425 31.762375 29.6853625 31.762375 29.7333125C31.7145 29.973025 31.570625 30.11685 31.378875 30.260675C30.947375 30.7401 29.9885 31.69895 27.975 33.7125375L24.37925 37.308225C24.331375 37.356175 24.331375 37.356175 24.283375 37.4041125C24.283375 37.4041125 24.283375 37.4041125 24.2355 37.4041125C24.1875 37.4041125 24.1875 37.4520625 24.1395 37.4520625H24.091625C24.043625 37.4520625 24.043625 37.4520625 23.99575 37.5C23.94775 37.5 23.899875 37.5 23.851875 37.5H9.4691375C9.0856 37.5 8.75 37.1644 8.75 36.7808625V3.221125C8.75 2.933375 8.893825 2.69375 9.1814875 2.549875C9.4212 2.454 9.7567875 2.502 9.9485625 2.64575L11.62655 4.179875L13.3045 2.69375C13.59225 2.454 13.97575 2.454 14.263375 2.69375L15.941375 4.179875L17.619375 2.69375C17.907 2.454 18.290625 2.454 18.57825 2.69375L20.25625 4.179875L21.93425 2.69375C22.221875 2.454 22.605375 2.454 22.893 2.69375L24.571 4.179875L26.249 2.69375C26.536625 2.454 26.92025 2.454 27.207875 2.69375L28.885875 4.179875L30.563875 2.69375C30.70775 2.597875 30.8515 2.502 31.04325 2.502C31.139125 2.502 31.235 2.502 31.331 2.549875C31.570625 2.64575 31.762375 2.933375 31.762375 3.221125V29.5894875zM29.317375 30.308625H24.571V35.054925C25.913375 33.7125375 27.975 31.6510125 29.317375 30.308625zM29.36525 5.666125C29.077625 5.905875 28.694125 5.905875 28.4065 5.666125L26.7285 4.179875L25.0505 5.666125C24.76275 5.905875 24.37925 5.905875 24.091625 5.666125L22.413625 4.179875L20.735625 5.666125C20.448 5.905875 20.0645 5.905875 19.77675 5.666125L18.09875 4.179875L16.42075 5.666125C16.133125 5.905875 15.749625 5.905875 15.462 5.666125L13.784 4.179875L12.105975 5.666125C11.96215 5.81 11.818325 5.857875 11.62655 5.857875C11.4347875 5.857875 11.29095 5.81 11.147125 5.666125L10.188275 4.80325V36.061725H23.13275V29.5894875C23.13275 29.2059375 23.468375 28.8703375 23.851875 28.8703375H30.324125V4.80325L29.36525 5.666125zM28.16675 8.97425C28.16675 8.590625 27.831125 8.255 27.447625 8.255H13.064875C12.68125 8.255 12.3456875 8.590625 12.3456875 8.97425C12.3456875 9.35775 12.68125 9.693375 13.064875 9.693375H27.447625C27.831125 9.693375 28.16675 9.35775 28.16675 8.97425zM20.25625 17.364125H13.064875C12.68125 17.364125 12.3456875 17.69975 12.3456875 18.08325C12.3456875 18.46675 12.68125 18.802375 13.064875 18.802375H20.25625C20.63975 18.802375 20.975375 18.46675 20.975375 18.08325C20.975375 17.69975 20.63975 17.364125 20.25625 17.364125zM17.859125 13.52875H13.064875C12.68125 13.52875 12.3456875 13.864375 12.3456875 14.247875C12.3456875 14.631375 12.68125 14.967 13.064875 14.967H17.859125C18.242625 14.967 18.57825 14.631375 18.57825 14.247875C18.57825 13.864375 18.242625 13.52875 17.859125 13.52875zM27.447625 17.364125H25.0505C24.666875 17.364125 24.331375 17.69975 24.331375 18.08325C24.331375 18.46675 24.666875 18.802375 25.0505 18.802375H27.447625C27.831125 18.802375 28.16675 18.46675 28.16675 18.08325C28.16675 17.69975 27.831125 17.364125 27.447625 17.364125zM27.447625 13.52875H25.0505C24.666875 13.52875 24.331375 13.864375 24.331375 14.247875C24.331375 14.631375 24.666875 14.967 25.0505 14.967H27.447625C27.831125 14.967 28.16675 14.631375 28.16675 14.247875C28.16675 13.864375 27.831125 13.52875 27.447625 13.52875zM17.859125 21.1995H13.064875C12.68125 21.1995 12.3456875 21.535125 12.3456875 21.918625C12.3456875 22.30225 12.68125 22.637875 13.064875 22.637875H17.859125C18.242625 22.637875 18.57825 22.30225 18.57825 21.918625C18.57825 21.535125 18.242625 21.1995 17.859125 21.1995zM27.447625 21.1995H25.0505C24.666875 21.1995 24.331375 21.535125 24.331375 21.918625C24.331375 22.30225 24.666875 22.637875 25.0505 22.637875H27.447625C27.831125 22.637875 28.16675 22.30225 28.16675 21.918625C28.16675 21.535125 27.831125 21.1995 27.447625 21.1995zM20.25625 25.035H13.064875C12.68125 25.035 12.3456875 25.3705 12.3456875 25.754125C12.3456875 26.137625 12.68125 26.47325 13.064875 26.47325H20.25625C20.63975 26.47325 20.975375 26.137625 20.975375 25.754125C20.975375 25.3705 20.63975 25.035 20.25625 25.035zM27.447625 25.035H25.0505C24.666875 25.035 24.331375 25.3705 24.331375 25.754125C24.331375 26.137625 24.666875 26.47325 25.0505 26.47325H27.447625C27.831125 26.47325 28.16675 26.137625 28.16675 25.754125C28.16675 25.3705 27.831125 25.035 27.447625 25.035z" />
    <glyph glyph-name="italic"
      unicode="&#xF144;"
      horiz-adv-x="40" d=" M6.25 3.21475L8.6007375 3.5695C10.02485 3.66425 11.3508625 3.9645 12.58925 4.4405C12.80475 4.58975 13.05525 4.840875 13.232125 5.141125C13.924 6.649625 14.59325 8.472375 15.131 10.349625C16.552125 14.975 17.788875 19.697625 18.841 24.5175L20.7415 32.1352375L20.93425 33.652475C20.95175 33.8070125 20.96225 33.9878875 20.96225 34.1687625C20.96225 34.3496375 20.95175 34.5305 20.9325 34.7078625C20.93775 34.7148875 20.9395 34.7465 20.9395 34.7798625C20.9395 35.1644375 20.717 35.4963375 20.393 35.652625C19.450625 35.9880375 18.3715 36.1812 17.247 36.1812C17.094625 36.1812 16.943875 36.1776875 16.79325 36.1706625H15.623125C15.41125 36.15135 15.16425 36.1408125 14.9155 36.1408125C14.66675 36.1408125 14.41975 36.15135 14.17625 36.174175C14.286625 36.6623625 14.38825 37.087325 14.516125 37.5L18.65175 37.4315125H33.4955V36.4955375C32.807 36.37085 31.95575 36.269 31.092125 36.2093C29.771375 36.160125 28.59075 35.9511625 27.475 35.5981875C27.21925 35.3944875 26.93725 35.0906875 26.73925 34.73245C26.477625 34.2934375 25.54175 31.1577 23.931375 25.32525L20.002375 10.864125C19.43475 9.159 18.89875 7.041125 18.502875 4.876C18.441625 4.516 18.434625 4.45625 18.434625 4.393C18.434625 4.329875 18.443375 4.268375 18.457375 4.210375C19.501375 3.861 20.7065 3.65025 21.959 3.634375L24.766875 3.344625V2.536875C24.68975 2.51225 24.6005 2.5 24.509375 2.5C24.41825 2.5 24.329 2.514 24.244875 2.538625L23.672125 2.536875C22.598875 2.536875 20.806375 2.536875 18.2945 2.536875H6.2832875L6.25 3.21475z" />
    </font>
</defs>
</svg>
