<svg width="32" height="32" viewBox="0 0 32 32" fill="none" xmlns="http://www.w3.org/2000/svg">
<path d="M23.509 17.2185C23.5037 16.1774 23.774 15.1534 24.2923 14.2504C24.8106 13.3475 25.5585 12.5977 26.4602 12.0771C25.8811 11.2012 25.0854 10.49 24.1503 10.0125C23.2151 9.53505 22.1724 9.30757 21.1234 9.35219C18.9023 9.35219 17.1851 10.617 16.2699 10.617C15.1902 10.617 13.5964 9.42416 11.5296 9.42416C8.38303 9.4036 5 12.2828 5 17.6607C5 23.0386 9 30 12.1979 30C13.2982 30 14.9949 28.8895 16.7018 28.8895C18.4087 28.8895 19.6221 29.9177 21.2159 29.9177C24.6812 29.9177 27.2416 22.7198 27.2416 22.7198C26.1516 22.2656 25.2178 21.5031 24.5547 20.5259C23.8917 19.5487 23.5282 18.3993 23.509 17.2185ZM21.1851 28.437C20.6132 28.3919 20.0533 28.2494 19.5296 28.0154C18.6265 27.6197 17.6563 27.3998 16.671 27.3676C15.5528 27.4221 14.453 27.6727 13.4216 28.108C13.0265 28.2703 12.6167 28.3943 12.1979 28.4781C10.2442 28.4781 6.57326 22.7506 6.57326 17.6607C6.54242 13.2494 9.11311 10.946 11.5604 10.946C12.4466 10.9944 13.3155 11.2107 14.1208 11.5835C14.8116 11.8988 15.5535 12.0869 16.3111 12.1388C17.0076 12.084 17.6877 11.8991 18.3162 11.5938C19.2098 11.1709 20.1773 10.9264 21.1645 10.874C22.2734 10.8438 23.3601 11.1879 24.2494 11.8509C23.5288 12.545 22.9581 13.3793 22.5726 14.3025C22.187 15.2257 21.9948 16.2181 22.0077 17.2185C21.994 18.4465 22.2867 19.6584 22.8595 20.7447C23.4322 21.831 24.2669 22.7572 25.2879 23.4396C24.2288 25.8252 22.4807 28.437 21.1851 28.437Z" fill="black"/>
<path d="M15.4267 9.71208L15.9409 9.79434C16.1014 9.81403 16.2637 9.81403 16.4242 9.79434C17.2606 9.77213 18.0813 9.56186 18.8254 9.17914C19.5695 8.79642 20.2178 8.25107 20.7224 7.58355C21.3064 6.91104 21.7472 6.12648 22.0177 5.27782C22.2882 4.42917 22.3828 3.53426 22.2956 2.64781L22.1928 2H21.5347C20.5723 2.06267 19.6354 2.33544 18.7898 2.79911C17.9442 3.26278 17.2104 3.90609 16.6401 4.6838C16.111 5.29963 15.7168 6.01951 15.4831 6.79703C15.2493 7.57455 15.181 8.39244 15.2828 9.19794L15.4267 9.71208ZM17.874 5.59897C18.587 4.63083 19.6167 3.94316 20.7841 3.65553C20.686 4.75079 20.2514 5.78886 19.5398 6.62725C18.876 7.50965 17.8952 8.09958 16.8046 8.27249C16.8876 7.29798 17.26 6.37053 17.874 5.60925V5.59897Z" fill="black"/>
</svg>
