<svg width="32" height="32" viewBox="0 0 32 32" fill="none" xmlns="http://www.w3.org/2000/svg">
<path d="M16 2C13.2311 2 10.5243 2.82109 8.22202 4.35943C5.91973 5.89777 4.12532 8.08427 3.06569 10.6424C2.00607 13.2006 1.72882 16.0155 2.26901 18.7313C2.80921 21.447 4.14258 23.9416 6.10051 25.8995C8.05845 27.8574 10.553 29.1908 13.2687 29.731C15.9845 30.2712 18.7994 29.9939 21.3576 28.9343C23.9157 27.8747 26.1022 26.0803 27.6406 23.778C29.1789 21.4757 30 18.7689 30 16C30 12.287 28.525 8.72601 25.8995 6.1005C23.274 3.475 19.713 2 16 2ZM24.19 17.5H16C15.6022 17.5 15.2207 17.342 14.9393 17.0607C14.658 16.7794 14.5 16.3978 14.5 16V7.81C14.5 7.41218 14.658 7.03064 14.9393 6.74934C15.2207 6.46804 15.6022 6.31 16 6.31C16.3978 6.31 16.7794 6.46804 17.0607 6.74934C17.342 7.03064 17.5 7.41218 17.5 7.81V14.5H24.19C24.5878 14.5 24.9694 14.658 25.2507 14.9393C25.532 15.2206 25.69 15.6022 25.69 16C25.69 16.3978 25.532 16.7794 25.2507 17.0607C24.9694 17.342 24.5878 17.5 24.19 17.5Z" fill="black"/>
</svg>
