<svg width="32" height="32" viewBox="0 0 32 32" fill="none" xmlns="http://www.w3.org/2000/svg">
<path d="M2.74953 3C2.55155 3.00259 2.3624 3.08239 2.2224 3.2224C2.08239 3.3624 2.00259 3.55155 2 3.74953V27.4948C2 27.6936 2.07897 27.8842 2.21953 28.0248C2.3601 28.1653 2.55075 28.2443 2.74953 28.2443C2.94832 28.2443 3.13897 28.1653 3.27953 28.0248C3.4201 27.8842 3.49907 27.6936 3.49907 27.4948V3.74953C3.49648 3.55155 3.41668 3.3624 3.27667 3.2224C3.13666 3.08239 2.94752 3.00259 2.74953 3Z" fill="black"/>
<path d="M7.77641 15.6222L18.4498 4.99876C18.5969 4.85828 18.6821 4.66512 18.6868 4.46177C18.6915 4.25842 18.6152 4.06154 18.4748 3.91443C18.4052 3.84159 18.322 3.78317 18.2298 3.74249C18.1377 3.70182 18.0385 3.67969 17.9378 3.67737C17.7344 3.67268 17.5375 3.74897 17.3904 3.88945L6.1774 15.0925C6.03704 15.233 5.9582 15.4235 5.9582 15.6222C5.9582 15.8208 6.03704 16.0113 6.1774 16.1518L17.3904 27.3648C17.4605 27.4331 17.5433 27.4868 17.6342 27.5228C17.7252 27.5589 17.8223 27.5765 17.9201 27.5747C18.117 27.5751 18.3066 27.5 18.4498 27.3648C18.5884 27.2214 18.6659 27.0297 18.6659 26.8302C18.6659 26.6307 18.5884 26.439 18.4498 26.2955L7.77641 15.6222Z" fill="black"/>
<path d="M19.0894 15.6222L29.7627 4.99876C29.8356 4.9292 29.894 4.84598 29.9347 4.75384C29.9753 4.6617 29.9975 4.56246 29.9998 4.46177C30.0021 4.36108 29.9846 4.26092 29.9482 4.16701C29.9118 4.0731 29.8573 3.98727 29.7877 3.91443C29.7182 3.84159 29.6349 3.78317 29.5428 3.74249C29.4507 3.70182 29.3514 3.67969 29.2507 3.67737C29.15 3.67505 29.0499 3.69258 28.956 3.72897C28.8621 3.76536 28.7762 3.81989 28.7034 3.88945L17.5004 15.0925C17.4296 15.1614 17.3734 15.2437 17.3351 15.3347C17.2967 15.4257 17.2769 15.5234 17.2769 15.6222C17.2769 15.7209 17.2967 15.8186 17.3351 15.9096C17.3734 16.0006 17.4296 16.0829 17.5004 16.1518L28.7034 27.3648C28.8464 27.5005 29.036 27.5761 29.2331 27.5761C29.4302 27.5761 29.6198 27.5005 29.7627 27.3648C29.9013 27.2214 29.9788 27.0297 29.9788 26.8302C29.9788 26.6307 29.9013 26.439 29.7627 26.2955L19.0894 15.6222Z" fill="black"/>
</svg>
