<svg width="32" height="32" viewBox="0 0 32 32" fill="none" xmlns="http://www.w3.org/2000/svg">
<path d="M17.3813 15.9975L23.4513 9.9275C23.5917 9.78687 23.6706 9.59625 23.6706 9.3975C23.6706 9.19875 23.5917 9.00812 23.4513 8.8675L16.7913 2.2175C16.6875 2.11336 16.555 2.04253 16.4107 2.01403C16.2664 1.98553 16.1169 2.00066 15.9813 2.0575C15.8445 2.11342 15.7275 2.20903 15.6456 2.33201C15.5636 2.45499 15.5203 2.5997 15.5213 2.7475V14.1775L10.2213 8.8775C10.0752 8.78398 9.9012 8.74399 9.72894 8.76435C9.55668 8.7847 9.39679 8.86414 9.27652 8.98913C9.15624 9.11412 9.08301 9.27694 9.0693 9.44986C9.05558 9.62278 9.10223 9.79511 9.20129 9.9375L15.2613 15.9975L9.20129 22.0575C9.06881 22.1997 8.99669 22.3877 9.00012 22.582C9.00355 22.7763 9.08226 22.9617 9.21967 23.0991C9.35708 23.2365 9.54247 23.3152 9.73677 23.3187C9.93107 23.3221 10.1191 23.25 10.2613 23.1175L15.5613 17.8075V29.2475C15.5616 29.395 15.6054 29.5391 15.6873 29.6619C15.7691 29.7846 15.8853 29.8805 16.0213 29.9375C16.1133 29.9756 16.2117 29.996 16.3113 29.9975C16.5101 29.9973 16.7008 29.9182 16.8413 29.7775L23.5013 23.1275C23.6417 22.9869 23.7206 22.7962 23.7206 22.5975C23.7206 22.3987 23.6417 22.2081 23.5013 22.0675L17.3813 15.9975ZM21.8613 9.3975L17.0613 14.1875L16.9813 4.5675L21.8613 9.3975ZM16.9813 27.4275V17.8075L21.7813 22.5975L16.9813 27.4275Z" fill="black"/>
</svg>
