<svg width="32" height="32" viewBox="0 0 32 32" fill="none" xmlns="http://www.w3.org/2000/svg">
<path fill-rule="evenodd" clip-rule="evenodd" d="M10.7132 5.23764C11.268 5.50662 11.6998 5.95251 11.9747 6.28236C12.0415 6.36254 12.1295 6.46776 12.2332 6.59179C12.8876 7.37415 14.1675 8.90447 14.6985 9.6125C15.2108 10.2955 15.1354 11.0353 14.8484 11.6272C14.5815 12.1776 14.1143 12.6578 13.6924 13.0269C13.2724 13.3944 13.0681 13.5942 12.9642 13.765C12.9022 13.8668 12.8705 13.9582 12.9261 14.1806C12.9945 14.454 13.2369 14.968 13.6726 15.6215C14.096 16.2566 14.6648 16.9681 15.3288 17.6322C15.9933 18.2967 16.7042 18.8646 17.3243 19.2742C17.6344 19.4789 17.9138 19.6388 18.1464 19.7504C18.3907 19.8676 18.5413 19.911 18.6046 19.92C18.6301 19.9237 18.6554 19.9286 18.6804 19.9349C18.9028 19.9905 18.9942 19.9588 19.0961 19.8969C19.2669 19.7929 19.4666 19.5886 19.8341 19.1686C20.2032 18.7467 20.6834 18.2795 21.2338 18.0126C21.8205 17.7282 22.5525 17.6516 23.2305 18.1491C24.1794 18.7851 25.9973 20.3022 26.6866 20.8931C27.0697 21.2214 27.5181 21.6839 27.7722 22.2598C28.0444 22.8768 28.0834 23.6121 27.6416 24.3484C27.5812 24.4491 27.5162 24.5671 27.4443 24.6977C26.8857 25.7122 25.9088 27.4864 23.4043 27.8051C20.5745 28.2523 16.2501 27.0764 11.0631 21.7877C5.87077 16.4936 4.71574 12.1781 5.05431 9.46948C5.36196 7.0083 7.17269 6.07279 8.19283 5.54573C8.35618 5.46134 8.49925 5.38742 8.61265 5.31938C9.37132 4.86418 10.1203 4.95015 10.7132 5.23764ZM10.0588 6.58736C9.82676 6.47485 9.62572 6.46082 9.38439 6.60562C9.18685 6.72414 8.98252 6.83399 8.77808 6.94389C7.76291 7.48961 6.74507 8.03678 6.54273 9.65553C6.2813 11.747 7.12627 15.6315 12.134 20.7373C17.1391 25.8406 21.0096 26.6692 23.18 26.3219C23.1885 26.3206 23.197 26.3194 23.2055 26.3183C24.9205 26.1039 25.5321 25.0231 26.1058 24.0093C26.1887 23.8627 26.2708 23.7176 26.3554 23.5766C26.5136 23.3129 26.5026 23.0982 26.3998 22.8652C26.2789 22.5911 26.0274 22.3036 25.7104 22.0319C25.0036 21.4261 23.2381 19.957 22.3825 19.3865C22.3709 19.3788 22.3596 19.3708 22.3485 19.3625C22.2316 19.2748 22.1213 19.2494 21.8882 19.3624C21.6136 19.4955 21.2938 19.7783 20.9629 20.1564C20.6304 20.5364 20.2802 20.9321 19.876 21.1782C19.4124 21.4603 18.915 21.5316 18.3519 21.3987C18.0765 21.3528 17.7799 21.2383 17.4975 21.1028C17.1895 20.955 16.8501 20.7586 16.4977 20.5258C15.7929 20.0604 15.0037 19.4283 14.2682 18.6928C13.5322 17.9569 12.9011 17.1684 12.4245 16.4535C11.9601 15.757 11.6026 15.071 11.4709 14.5444C11.3265 13.9668 11.3948 13.4582 11.6829 12.985C11.9289 12.5809 12.3246 12.2306 12.7046 11.8981C13.0827 11.5672 13.3655 11.2474 13.4987 10.9728C13.6117 10.7397 13.5862 10.6295 13.4985 10.5125C12.9952 9.84139 11.7549 8.35811 11.0928 7.56636C10.9856 7.43821 10.8936 7.32818 10.8224 7.24264C10.5972 6.9725 10.329 6.71839 10.0588 6.58736ZM22.7985 5.0125C23.2127 5.0125 23.5485 5.34829 23.5485 5.7625V9.3125H27.1985C27.6127 9.3125 27.9485 9.64829 27.9485 10.0625C27.9485 10.4767 27.6127 10.8125 27.1985 10.8125H23.5485V14.3625C23.5485 14.7767 23.2127 15.1125 22.7985 15.1125C22.3843 15.1125 22.0485 14.7767 22.0485 14.3625V10.8125H18.4985C18.0843 10.8125 17.7485 10.4767 17.7485 10.0625C17.7485 9.64829 18.0843 9.3125 18.4985 9.3125H22.0485V5.7625C22.0485 5.34829 22.3843 5.0125 22.7985 5.0125Z" fill="black"/>
</svg>
