<svg width="32" height="32" viewBox="0 0 32 32" fill="none" xmlns="http://www.w3.org/2000/svg">
<path d="M23.1985 2C19.4985 2 16.3985 4.99686 16.3985 8.79288C16.3985 12.489 19.3985 15.5858 23.1985 15.5858C26.8985 15.5858 29.9985 12.5889 29.9985 8.79288C29.9985 4.99686 26.9985 2 23.1985 2ZM25.6985 9.49214H20.6985C20.2985 9.49214 19.8985 9.19246 19.8985 8.69298C19.9985 8.2934 20.2985 7.99372 20.6985 7.99372H25.6985C26.0985 7.99372 26.4985 8.2934 26.4985 8.79288C26.4985 9.19246 26.1985 9.49214 25.6985 9.49214Z" fill="black"/>
<path fill-rule="evenodd" clip-rule="evenodd" d="M7.67893 7.25406C8.25067 7.49636 8.70145 7.92754 9.00882 8.35741C9.24196 8.68347 9.74836 9.31046 10.2934 9.9816C10.3379 10.0364 10.3826 10.0914 10.4274 10.1465C10.9173 10.7494 11.4135 11.3602 11.6985 11.7398C11.9314 12.0499 12.0616 12.396 12.0731 12.7635C12.0845 13.1222 11.9813 13.4457 11.84 13.7192C11.5694 14.243 11.0969 14.6972 10.6924 15.0507C10.2724 15.4179 10.0681 15.6174 9.96417 15.788C9.90219 15.8897 9.87053 15.9811 9.92612 16.2032C9.99448 16.4763 10.2369 16.9898 10.6726 17.6426C11.096 18.277 11.6648 18.9878 12.3288 19.6512C12.3349 19.6573 12.3409 19.6634 12.3468 19.6697C13.6701 21.0861 15.1462 21.8928 15.6927 22.0544C15.9062 22.1057 15.9961 22.0741 16.0961 22.0134C16.2669 21.9095 16.4666 21.7055 16.8341 21.2859C17.1883 20.8815 17.6457 20.4061 18.1881 20.1352C18.4718 19.9935 18.8009 19.8959 19.1643 19.9065C19.5327 19.9174 19.8861 20.0381 20.2145 20.2568C21.1589 20.8857 22.9935 22.415 23.6866 23.0085C24.0697 23.3365 24.5181 23.7985 24.7722 24.3738C25.0444 24.9902 25.0834 25.7247 24.6416 26.4602C24.5812 26.5608 24.5162 26.6787 24.4443 26.8092C23.8857 27.8226 22.9088 29.595 20.4043 29.9133C17.5745 30.3601 13.2501 29.1854 8.06306 23.9022C2.87077 18.6136 1.71574 14.3027 2.05431 11.5969C2.38916 8.92091 4.45034 7.91571 5.47815 7.41447C5.54433 7.38219 5.60623 7.35201 5.66311 7.3236C6.37675 6.96715 7.0826 7.00133 7.67893 7.25406ZM7.0931 8.63348C6.86443 8.53657 6.62028 8.52081 6.33393 8.66383C6.28231 8.68961 6.22968 8.71566 6.17623 8.74212C5.13213 9.25891 3.77445 9.93091 3.54273 11.7828C3.2813 13.872 4.12627 17.7524 9.13397 22.853C14.1391 27.9509 18.0096 28.7786 20.18 28.4317C20.1885 28.4304 20.197 28.4291 20.2055 28.4281C21.9205 28.2139 22.5321 27.1342 23.1058 26.1215C23.1887 25.9751 23.2708 25.8301 23.3554 25.6893C23.5136 25.4258 23.5026 25.2114 23.3998 24.9786C23.2789 24.7048 23.0274 24.4176 22.7104 24.1462C22.0036 23.541 20.2381 22.0734 19.3825 21.5036C19.261 21.4226 19.1768 21.406 19.1202 21.4043C19.0587 21.4025 18.9752 21.4173 18.8589 21.4754C18.6013 21.6041 18.3087 21.8779 17.9629 22.2726C17.6304 22.6522 17.2802 23.0476 16.876 23.2933C16.4028 23.581 15.8943 23.6493 15.3166 23.5051C15.3085 23.503 15.3005 23.5009 15.2925 23.4986C14.4309 23.2527 12.7241 22.2662 11.2591 20.7016C10.527 19.969 9.89909 19.1849 9.42448 18.4738C8.96011 17.7779 8.60255 17.0927 8.47091 16.5666C8.3265 15.9896 8.39484 15.4816 8.68287 15.0089C8.9289 14.6051 9.32464 14.2552 9.70464 13.9231C10.1001 13.5774 10.3777 13.2824 10.5071 13.032C10.5657 12.9184 10.5751 12.8486 10.5739 12.8107C10.573 12.7818 10.5657 12.7283 10.4985 12.6388C10.2319 12.2838 9.754 11.6955 9.25471 11.0809C9.21278 11.0293 9.17071 10.9775 9.1286 10.9257C8.59868 10.2732 8.05507 9.60156 7.78822 9.22835C7.59559 8.95895 7.34636 8.74081 7.0931 8.63348Z" fill="black"/>
</svg>
