<svg width="32" height="32" viewBox="0 0 32 32" fill="none" xmlns="http://www.w3.org/2000/svg">
<path fill-rule="evenodd" clip-rule="evenodd" d="M12.3145 2.42464C12.474 2.47758 12.6149 2.52439 12.7349 2.55697C13.538 2.77497 14.0332 3.30517 14.2871 3.91887C14.5277 4.50055 14.548 5.13858 14.4897 5.66084C14.4494 6.02232 14.3796 6.60189 14.3035 7.23379C14.1844 8.22246 14.05 9.33922 13.9887 9.94916C13.9477 10.3572 13.7861 10.7095 13.5213 10.9847C13.2661 11.2498 12.9507 11.4071 12.6496 11.5013C12.0636 11.6846 11.3895 11.6726 10.8557 11.6195C10.3324 11.5674 10.0587 11.562 9.88917 11.6025C9.82479 11.6179 9.80301 11.6346 9.7946 11.6417C9.78526 11.6496 9.75409 11.6785 9.71533 11.7685C9.69402 11.818 9.66741 11.8651 9.63597 11.9089C9.47888 12.1278 9.27822 12.6261 9.12071 13.3858C8.96866 14.1192 8.87273 15.0175 8.87273 15.9696C8.87273 16.9213 8.96857 17.8205 9.12118 18.5682C9.27721 19.3329 9.48079 19.8805 9.66176 20.1687C9.66701 20.1771 9.67209 20.1856 9.67701 20.1941C9.74437 20.3115 9.79456 20.362 9.82332 20.385C9.84734 20.4043 9.87779 20.422 9.93936 20.4367C10.1098 20.4775 10.3804 20.4718 10.9629 20.4191C11.5322 20.3676 12.1917 20.3526 12.7624 20.5419C13.0604 20.6408 13.356 20.8022 13.5992 21.0606C13.8454 21.3222 14.0037 21.6471 14.0782 22.0177C14.2361 22.8037 14.3938 24.4079 14.502 25.5095C14.5369 25.8644 14.5666 26.1672 14.5896 26.3736C14.6502 26.8623 14.6244 27.4935 14.3903 28.0759C14.1458 28.6844 13.66 29.2584 12.8353 29.4822C12.7253 29.5121 12.6016 29.5505 12.4652 29.5928C11.3704 29.9326 9.46379 30.5244 7.36694 28.9591C5.0918 27.2607 2.94995 23.2822 2.94995 15.9696C2.94995 8.63997 5.20103 4.68187 7.35215 2.99153C9.33336 1.43469 11.2419 2.06844 12.3145 2.42464ZM11.7498 3.82594C10.671 3.48598 9.58751 3.14454 8.2852 4.16789C6.62165 5.47512 4.45574 8.91101 4.45574 15.9696C4.45574 23.0454 6.53011 26.4609 8.27041 27.7601C9.72406 28.8452 10.8995 28.4932 11.9865 28.1676C12.139 28.122 12.2896 28.0768 12.4391 28.0363C12.7186 27.9604 12.8854 27.785 12.9922 27.5192C13.1087 27.2295 13.1337 26.864 13.0948 26.5541L13.0935 26.5439C13.0653 26.2912 13.0311 25.9433 12.9925 25.5505C12.8849 24.4571 12.7431 23.0157 12.6016 22.3116C12.5757 22.1826 12.5333 22.1203 12.5003 22.0853C12.4643 22.047 12.4022 22.0023 12.2862 21.9638C12.0286 21.8783 11.6341 21.8633 11.0992 21.9117C10.5774 21.959 10.0449 22.0033 9.58795 21.8941C9.04201 21.7637 8.66073 21.4389 8.37701 20.9505C8.05985 20.4397 7.81435 19.6939 7.64552 18.8666C7.47187 18.0157 7.36694 17.0164 7.36694 15.9696C7.36694 14.9234 7.47178 13.9232 7.64599 13.0829C7.80715 12.3056 8.0434 11.5859 8.36471 11.1042C8.4738 10.8741 8.62122 10.6672 8.81983 10.4993C9.04042 10.3128 9.28843 10.2046 9.53776 10.1451C9.99562 10.0357 10.525 10.0803 11.0056 10.1281C11.4757 10.1749 11.9058 10.1629 12.1982 10.0714C12.3363 10.0282 12.4036 9.97941 12.4339 9.94792C12.4545 9.92646 12.4812 9.89155 12.4904 9.80003C12.5524 9.18287 12.6926 8.01723 12.8137 7.01105C12.8885 6.38918 12.956 5.82822 12.9932 5.49533C13.0353 5.11832 13.0054 4.75717 12.8947 4.48953C12.7972 4.25393 12.6399 4.08469 12.3387 4.00294C12.1417 3.94945 11.9458 3.88772 11.7498 3.82594Z" fill="black"/>
<path fill-rule="evenodd" clip-rule="evenodd" d="M21.9473 9.63987C22.2439 9.34977 22.7206 9.35389 23.012 9.64908L28.734 15.4444C29.0219 15.7359 29.0219 16.2034 28.734 16.4949L23.012 22.2902C22.7206 22.5854 22.2439 22.5895 21.9473 22.2994C21.6507 22.0093 21.6466 21.5349 21.9381 21.2397L27.1414 15.9696L21.9381 10.6996C21.6466 10.4044 21.6507 9.92997 21.9473 9.63987Z" fill="black"/>
<path fill-rule="evenodd" clip-rule="evenodd" d="M15.8998 15.9696C15.8998 15.5558 16.2368 15.2203 16.6527 15.2203H28.1971C28.6129 15.2203 28.95 15.5558 28.95 15.9696C28.95 16.3835 28.6129 16.719 28.1971 16.719H16.6527C16.2368 16.719 15.8998 16.3835 15.8998 15.9696Z" fill="black"/>
</svg>
