<svg width="32" height="32" viewBox="0 0 32 32" fill="none" xmlns="http://www.w3.org/2000/svg">
<path fill-rule="evenodd" clip-rule="evenodd" d="M15.4197 2.21967C15.7118 1.92756 16.1851 1.92666 16.4783 2.21767L29.7783 15.4177C29.994 15.6317 30.0592 15.9548 29.9435 16.2357C29.8277 16.5167 29.5539 16.7 29.25 16.7H22.8V23.15C22.8 23.5642 22.4642 23.9 22.05 23.9H9.85002C9.43581 23.9 9.10002 23.5642 9.10002 23.15V16.7H2.75002C2.44668 16.7 2.1732 16.5173 2.05711 16.237C1.94103 15.9568 2.00519 15.6342 2.21969 15.4197L15.4197 2.21967ZM15.952 3.80866L4.56068 15.2H9.85002C10.2642 15.2 10.6 15.5358 10.6 15.95V22.4H21.3V15.95C21.3 15.5358 21.6358 15.2 22.05 15.2H27.4297L15.952 3.80866ZM9.10002 26.15C9.10002 25.7358 9.43581 25.4 9.85002 25.4H22.05C22.4642 25.4 22.8 25.7358 22.8 26.15V29.25C22.8 29.6642 22.4642 30 22.05 30H9.85002C9.43581 30 9.10002 29.6642 9.10002 29.25V26.15ZM10.6 26.9V28.5H21.3V26.9H10.6Z" fill="black"/>
</svg>
