<svg width="32" height="32" viewBox="0 0 32 32" fill="none" xmlns="http://www.w3.org/2000/svg">
<path d="M23.2362 3C19.5559 3 16.4725 5.98401 16.4725 9.76377C16.4725 13.444 19.4565 16.5275 23.2362 16.5275C26.9165 16.5275 30 13.5435 30 9.76377C29.9005 5.98401 26.9165 3 23.2362 3ZM25.524 10.9574C25.8224 11.2558 25.8224 11.7531 25.524 12.0515C25.325 12.151 25.2256 12.2504 25.0266 12.2504C24.8277 12.2504 24.6288 12.151 24.5293 12.0515L23.3357 10.8579L21.9432 12.0515C21.8437 12.151 21.6448 12.2504 21.4458 12.2504C21.2469 12.2504 21.048 12.151 20.9485 12.0515C20.6501 11.7531 20.6501 11.2558 20.9485 10.9574L22.1421 9.76377L20.9485 8.47069C20.6501 8.17229 20.6501 7.67496 20.9485 7.37655C21.2469 7.07815 21.7442 7.07815 22.0426 7.37655L23.2362 8.57016L24.4298 7.37655C24.7282 7.07815 25.2256 7.07815 25.524 7.37655C25.8224 7.67496 25.8224 8.17229 25.524 8.47069L24.3304 9.6643L25.524 10.9574Z" fill="black"/>
<path fill-rule="evenodd" clip-rule="evenodd" d="M3.49201 8.78289C3.58389 6.3902 5.45467 4.54174 7.81883 4.54174H15.9751C16.3871 4.54174 16.7211 4.20774 16.7211 3.79574C16.7211 3.38373 16.3871 3.04973 15.9751 3.04973H7.81883C4.61705 3.04973 2.11373 5.57122 2.00048 8.74247C2.00016 8.75134 2 8.76022 2 8.76909V16.9254C2 20.1225 4.62174 22.7442 7.81883 22.7442H8.86323V28.2647C8.86323 28.5664 9.04499 28.8384 9.32375 28.9539C9.60252 29.0693 9.92339 29.0055 10.1367 28.7922L16.1847 22.7442H24.032C27.2291 22.7442 29.8508 20.1225 29.8508 16.9254C29.8508 16.5134 29.5168 16.1794 29.1048 16.1794C28.6928 16.1794 28.3588 16.5134 28.3588 16.9254C28.3588 19.2985 26.405 21.2522 24.032 21.2522H15.8757C15.6778 21.2522 15.4881 21.3308 15.3482 21.4707L10.3552 26.4636V21.9982C10.3552 21.5862 10.0212 21.2522 9.60924 21.2522H7.81883C5.44575 21.2522 3.49201 19.2985 3.49201 16.9254V8.78289Z" fill="black"/>
</svg>
