<svg width="32" height="32" viewBox="0 0 32 32" fill="none" xmlns="http://www.w3.org/2000/svg">
<path fill-rule="evenodd" clip-rule="evenodd" d="M15.9892 3.50538C14.2974 3.50538 12.9283 4.87448 12.9283 6.56631C12.9283 6.98201 12.5913 7.319 12.1756 7.319H7.75986C7.07161 7.319 6.50538 7.88523 6.50538 8.57348V27.2401C6.50538 27.9284 7.07161 28.4946 7.75986 28.4946H24.1183C24.8065 28.4946 25.3728 27.9284 25.3728 27.2401V8.57348C25.3728 7.88523 24.8065 7.319 24.1183 7.319H19.8029C19.3872 7.319 19.0502 6.98201 19.0502 6.56631C19.0502 4.87448 17.6811 3.50538 15.9892 3.50538ZM11.4846 5.81362C11.8431 3.64896 13.7224 2 15.9892 2C18.2561 2 20.1354 3.64896 20.4939 5.81362H24.1183C25.6379 5.81362 26.8781 7.05383 26.8781 8.57348V27.2401C26.8781 28.7598 25.6379 30 24.1183 30H7.75986C6.24022 30 5 28.7598 5 27.2401V8.57348C5 7.05383 6.24022 5.81362 7.75986 5.81362H11.4846Z" fill="black"/>
<path d="M15.8889 7.56989C16.4432 7.56989 16.8925 7.12057 16.8925 6.56631C16.8925 6.01204 16.4432 5.56272 15.8889 5.56272C15.3346 5.56272 14.8853 6.01204 14.8853 6.56631C14.8853 7.12057 15.3346 7.56989 15.8889 7.56989Z" fill="black"/>
<path d="M10.4695 13.2903C11.0238 13.2903 11.4731 12.841 11.4731 12.2867C11.4731 11.7325 11.0238 11.2832 10.4695 11.2832C9.91527 11.2832 9.46595 11.7325 9.46595 12.2867C9.46595 12.841 9.91527 13.2903 10.4695 13.2903Z" fill="black"/>
<path fill-rule="evenodd" clip-rule="evenodd" d="M13.2294 12.2867C13.2294 11.871 13.5664 11.534 13.9821 11.534H21.9104C22.3261 11.534 22.6631 11.871 22.6631 12.2867C22.6631 12.7024 22.3261 13.0394 21.9104 13.0394H13.9821C13.5664 13.0394 13.2294 12.7024 13.2294 12.2867Z" fill="black"/>
<path d="M10.4695 18.9104C11.0238 18.9104 11.4731 18.4611 11.4731 17.9068C11.4731 17.3525 11.0238 16.9032 10.4695 16.9032C9.91527 16.9032 9.46595 17.3525 9.46595 17.9068C9.46595 18.4611 9.91527 18.9104 10.4695 18.9104Z" fill="black"/>
<path fill-rule="evenodd" clip-rule="evenodd" d="M13.2294 17.9068C13.2294 17.4911 13.5664 17.1541 13.9821 17.1541H21.9104C22.3261 17.1541 22.6631 17.4911 22.6631 17.9068C22.6631 18.3225 22.3261 18.6595 21.9104 18.6595H13.9821C13.5664 18.6595 13.2294 18.3225 13.2294 17.9068Z" fill="black"/>
<path d="M10.4695 24.4301C11.0238 24.4301 11.4731 23.9808 11.4731 23.4265C11.4731 22.8723 11.0238 22.4229 10.4695 22.4229C9.91527 22.4229 9.46595 22.8723 9.46595 23.4265C9.46595 23.9808 9.91527 24.4301 10.4695 24.4301Z" fill="black"/>
<path fill-rule="evenodd" clip-rule="evenodd" d="M13.2294 23.4265C13.2294 23.0108 13.5664 22.6738 13.9821 22.6738H21.9104C22.3261 22.6738 22.6631 23.0108 22.6631 23.4265C22.6631 23.8422 22.3261 24.1792 21.9104 24.1792H13.9821C13.5664 24.1792 13.2294 23.8422 13.2294 23.4265Z" fill="black"/>
</svg>
