<svg width="32" height="32" viewBox="0 0 32 32" fill="none" xmlns="http://www.w3.org/2000/svg">
<path fill-rule="evenodd" clip-rule="evenodd" d="M3.49201 8.78289C3.58389 6.3902 5.45467 4.54174 7.81883 4.54174H15.9751C16.3871 4.54174 16.7211 4.20774 16.7211 3.79574C16.7211 3.38373 16.3871 3.04973 15.9751 3.04973H7.81883C4.61705 3.04973 2.11373 5.57122 2.00048 8.74247C2.00016 8.75134 2 8.76022 2 8.76909V16.9254C2 20.1225 4.62174 22.7442 7.81883 22.7442H8.86323V28.2647C8.86323 28.5664 9.04499 28.8384 9.32375 28.9539C9.60252 29.0693 9.92338 29.0055 10.1367 28.7922L16.1847 22.7442H24.032C27.2291 22.7442 29.8508 20.1225 29.8508 16.9254C29.8508 16.5134 29.5168 16.1794 29.1048 16.1794C28.6928 16.1794 28.3588 16.5134 28.3588 16.9254C28.3588 19.2985 26.405 21.2522 24.032 21.2522H15.8757C15.6778 21.2522 15.4881 21.3308 15.3482 21.4707L10.3552 26.4636V21.9982C10.3552 21.5862 10.0212 21.2522 9.60924 21.2522H7.81883C5.44575 21.2522 3.49201 19.2985 3.49201 16.9254V8.78289Z" fill="black"/>
<path d="M23.2362 3C19.5559 3 16.4725 5.98401 16.4725 9.76377C16.4725 13.444 19.4565 16.5275 23.2362 16.5275C26.9165 16.5275 30 13.5435 30 9.76377C29.9005 5.98401 26.9165 3 23.2362 3ZM23.2362 5.58615C23.6341 5.58615 23.9325 5.98401 23.9325 6.38188V9.46536C23.9325 9.86323 23.6341 10.2611 23.1368 10.2611C22.7389 10.2611 22.341 9.9627 22.341 9.46536V6.38188C22.341 6 22.6489 5.58615 23.2362 5.58615ZM23.2362 13.2451C22.6394 13.2451 22.2416 12.7478 22.2416 12.2504C22.2416 11.7531 22.6394 11.2558 23.2362 11.2558C23.7336 11.2558 24.2309 11.7531 24.2309 12.2504C24.2309 12.7478 23.7336 13.2451 23.2362 13.2451Z" fill="black"/>
</svg>
