<svg width="32" height="32" viewBox="0 0 32 32" fill="none" xmlns="http://www.w3.org/2000/svg">
<path d="M29.18 10.26L21.73 2.81C21.21 2.29 20.51 2 19.76 2H5.81C3.71 2 2 3.71 2 5.81V26.19C2 28.29 3.71 30 5.81 30H26.19C28.29 30 30 28.29 30 26.19V12.24C30 11.49 29.71 10.79 29.18 10.26ZM28.12 11.33C28.22 11.43 28.28 11.55 28.34 11.67H21.62C20.91 11.67 20.33 11.09 20.33 10.38V3.65C20.45 3.71 20.57 3.78 20.67 3.88L28.12 11.33ZM26.19 28.5H5.81C4.54 28.5 3.5 27.46 3.5 26.19V5.81C3.5 4.54 4.54 3.5 5.81 3.5H18.84V10.37C18.84 11.91 20.09 13.16 21.63 13.16H28.5V26.19C28.5 27.46 27.46 28.5 26.19 28.5Z" fill="black"/>
<path d="M10.57 22.18C10.57 22.51 10.49 22.76 10.34 22.93C10.19 23.11 9.98 23.19 9.73 23.19C9.44 23.19 9.23 23.11 9.09 22.96C8.96 22.81 8.89 22.57 8.89 22.25H7.53C7.53 22.89 7.72 23.39 8.11 23.74C8.5 24.09 9.03 24.27 9.72 24.27C10.14 24.27 10.52 24.18 10.85 24.01C11.18 23.84 11.44 23.59 11.63 23.27C11.81 22.95 11.91 22.59 11.91 22.17V17.65H10.57V22.18Z" fill="black"/>
<path d="M16.9 17.93C16.53 17.75 16.1 17.66 15.61 17.66H13.07V24.18H14.41V21.88H15.59C16.36 21.88 16.97 21.7 17.41 21.33C17.85 20.96 18.07 20.46 18.07 19.82C18.07 19.4 17.97 19.02 17.77 18.69C17.56 18.36 17.27 18.11 16.9 17.93ZM16.42 20.55C16.23 20.72 15.96 20.8 15.61 20.8H14.41V18.75H15.64C15.97 18.76 16.23 18.86 16.42 19.05C16.61 19.24 16.7 19.51 16.7 19.83C16.7 20.14 16.61 20.38 16.42 20.55Z" fill="black"/>
<path d="M20.55 19.17C20.79 18.83 21.14 18.66 21.59 18.66C21.95 18.66 22.23 18.75 22.43 18.92C22.64 19.09 22.77 19.37 22.83 19.74H24.14C24.06 19.04 23.8 18.5 23.36 18.13C22.92 17.76 22.32 17.58 21.55 17.58C21 17.58 20.51 17.7 20.1 17.96C19.69 18.21 19.37 18.58 19.15 19.05C18.93 19.53 18.82 20.09 18.82 20.74V21.18C18.83 21.81 18.94 22.36 19.18 22.83C19.41 23.3 19.74 23.66 20.17 23.9C20.6 24.15 21.09 24.27 21.66 24.27C22.2 24.27 22.69 24.19 23.13 24.03C23.57 23.87 23.91 23.65 24.16 23.36V20.76H21.59V21.75H22.81V22.87C22.59 23.08 22.23 23.19 21.73 23.19C21.23 23.19 20.85 23.02 20.59 22.67C20.33 22.32 20.2 21.8 20.2 21.12V20.7C20.19 20.02 20.31 19.51 20.55 19.17Z" fill="black"/>
</svg>
