<svg width="32" height="32" viewBox="0 0 32 32" fill="none" xmlns="http://www.w3.org/2000/svg">
<path d="M29.18 10.26L21.73 2.81C21.21 2.29 20.51 2 19.76 2H5.81C3.71 2 2 3.71 2 5.81V26.19C2 28.29 3.71 30 5.81 30H26.19C28.29 30 30 28.29 30 26.19V12.24C30 11.49 29.71 10.79 29.18 10.26ZM28.12 11.32C28.22 11.42 28.28 11.54 28.34 11.66H21.62C20.91 11.66 20.33 11.08 20.33 10.37V3.65C20.45 3.71 20.57 3.78 20.67 3.88L28.12 11.32ZM26.19 28.5H5.81C4.54 28.5 3.5 27.46 3.5 26.19V5.81C3.5 4.54 4.54 3.5 5.81 3.5H18.84V10.37C18.84 11.91 20.09 13.16 21.63 13.16H28.5V26.19C28.5 27.46 27.46 28.5 26.19 28.5Z" fill="black"/>
<path d="M25.55 21.71L23.37 17.52H21.87V24.18H23.19V20.18L25.31 24.18H26.9V17.52H25.55V21.71Z" fill="black"/>
<path d="M7.85 22.35C7.85 22.6 7.8 22.77 7.7 22.87C7.57 23 7.34 23.04 7.19 23.04C6.95 23.02 6.55 22.89 6.55 22.25H5.05C5.05 23.98 6.47 24.54 7.16 24.54C7.16 24.54 7.16 24.54 7.17 24.54C7.47 24.54 8.21 24.48 8.76 23.93C9.03 23.66 9.36 23.16 9.36 22.34V17.65H7.86V22.35H7.85Z" fill="black"/>
<path d="M13.1 20.26C11.94 19.83 11.83 19.49 11.83 19.49C11.83 19.16 11.89 18.87 12.62 18.87C13.41 18.87 13.45 19.58 13.45 19.59H14.95C14.95 18.5 14.08 17.37 12.62 17.37C11.2 17.37 10.33 18.18 10.33 19.49C10.33 20.39 11.09 21.12 12.59 21.67C12.98 21.81 13.42 22.16 13.46 22.49C13.47 22.6 13.43 22.72 13.35 22.82C13.22 22.97 13 23.05 12.72 23.05C12.05 23.05 11.65 22.71 11.65 22.14H10.15C10.15 23.54 11.23 24.55 12.72 24.55C13.43 24.55 14.05 24.29 14.47 23.81C14.84 23.39 15.01 22.84 14.95 22.31C14.82 21.31 13.93 20.57 13.1 20.26Z" fill="black"/>
<path d="M18.28 17.42C17.01 17.42 15.52 18.34 15.52 20.92C15.52 23.74 17.33 24.49 18.28 24.49C19.23 24.49 21.04 23.74 21.04 20.92C21.04 18.34 19.55 17.42 18.28 17.42ZM18.28 22.99C18.15 22.99 17.02 22.93 17.02 20.92C17.02 19.18 17.81 18.92 18.28 18.92C18.75 18.92 19.54 19.18 19.54 20.92C19.54 22.93 18.4 22.99 18.28 22.99Z" fill="black"/>
</svg>
