<svg width="32" height="32" viewBox="0 0 32 32" fill="none" xmlns="http://www.w3.org/2000/svg">
<path d="M29.18 10.26L21.73 2.81C21.21 2.29 20.51 2 19.76 2H5.81C3.71 2 2 3.71 2 5.81V26.19C2 28.29 3.71 30 5.81 30H26.19C28.29 30 30 28.29 30 26.19V12.24C30 11.49 29.71 10.79 29.18 10.26ZM28.12 11.33C28.22 11.43 28.28 11.55 28.35 11.67H21.63C20.92 11.67 20.34 11.09 20.34 10.38V3.65C20.46 3.71 20.58 3.78 20.68 3.88L28.12 11.33ZM26.19 28.5H5.81C4.54 28.5 3.5 27.46 3.5 26.19V5.81C3.5 4.54 4.54 3.5 5.81 3.5H18.84V10.37C18.84 11.91 20.09 13.16 21.63 13.16H28.5V26.19C28.5 27.46 27.46 28.5 26.19 28.5Z" fill="black"/>
<path d="M11.46 17.93C11.09 17.75 10.66 17.66 10.17 17.66H7.63V24.18H8.97V21.88H10.15C10.92 21.88 11.53 21.7 11.97 21.33C12.41 20.96 12.63 20.46 12.63 19.82C12.63 19.4 12.53 19.02 12.33 18.69C12.12 18.36 11.84 18.11 11.46 17.93ZM10.99 20.55C10.8 20.71 10.53 20.8 10.17 20.8H8.97V18.75H10.2C10.53 18.76 10.79 18.86 10.98 19.05C11.17 19.25 11.26 19.51 11.26 19.82C11.27 20.14 11.17 20.38 10.99 20.55Z" fill="black"/>
<path d="M17.38 17.93C17.01 17.75 16.58 17.66 16.09 17.66H13.55V24.18H14.89V21.88H16.07C16.84 21.88 17.45 21.7 17.89 21.33C18.33 20.96 18.55 20.46 18.55 19.82C18.55 19.4 18.45 19.02 18.25 18.69C18.04 18.36 17.75 18.11 17.38 17.93ZM16.9 20.55C16.71 20.72 16.44 20.8 16.09 20.8H14.89V18.75H16.12C16.45 18.76 16.71 18.86 16.9 19.05C17.09 19.25 17.18 19.51 17.18 19.82C17.18 20.14 17.09 20.38 16.9 20.55Z" fill="black"/>
<path d="M19.06 18.75H21.03V24.18H22.37V18.75H24.37V17.66H19.06V18.75Z" fill="black"/>
</svg>
