<svg width="32" height="32" viewBox="0 0 32 32" fill="none" xmlns="http://www.w3.org/2000/svg">
<path d="M16.7062 15.9813C16.706 15.7824 16.6269 15.5918 16.4862 15.4513L5.27622 4.20129C5.13404 4.06881 4.946 3.99669 4.7517 4.00012C4.55739 4.00355 4.37201 4.08226 4.2346 4.21967C4.09718 4.35708 4.01847 4.54247 4.01504 4.73677C4.01161 4.93107 4.08374 5.11912 4.21622 5.26129L14.8962 15.9813L4.21622 26.6213C4.07752 26.7649 4 26.9567 4 27.1563C4 27.3559 4.07752 27.5477 4.21622 27.6913C4.35929 27.827 4.54899 27.9027 4.74622 27.9027C4.94344 27.9027 5.13315 27.827 5.27622 27.6913L16.4862 16.4713C16.6175 16.3407 16.6959 16.1662 16.7062 15.9813Z" fill="black"/>
<path d="M27.8162 15.4113L16.5962 4.20129C16.454 4.06881 16.266 3.99669 16.0717 4.00012C15.8774 4.00355 15.692 4.08226 15.5546 4.21967C15.4172 4.35708 15.3385 4.54247 15.335 4.73677C15.3316 4.93107 15.4037 5.11912 15.5362 5.26129L26.2162 15.9813L15.5362 26.6213C15.3975 26.7649 15.32 26.9567 15.32 27.1563C15.32 27.3559 15.3975 27.5477 15.5362 27.6913C15.6795 27.8265 15.8692 27.9017 16.0662 27.9013C16.1641 27.9031 16.2613 27.8854 16.3523 27.8494C16.4432 27.8133 16.5261 27.7596 16.5962 27.6913L27.8162 16.4713C27.9567 16.3307 28.0356 16.14 28.0356 15.9413C28.0356 15.7425 27.9567 15.5519 27.8162 15.4113Z" fill="black"/>
</svg>
