<svg width="32" height="32" viewBox="0 0 32 32" fill="none" xmlns="http://www.w3.org/2000/svg">
<path fill-rule="evenodd" clip-rule="evenodd" d="M15.5484 4.15054C15.816 3.94982 16.184 3.94982 16.4516 4.15054L29.6989 14.086C30.0314 14.3354 30.0988 14.8072 29.8494 15.1397C29.6 15.4723 29.1282 15.5397 28.7957 15.2903L16 5.69354L3.20434 15.2903C2.87178 15.5397 2.4 15.4723 2.15058 15.1397C1.90116 14.8072 1.96856 14.3354 2.30112 14.086L15.5484 4.15054Z" fill="black"/>
<path fill-rule="evenodd" clip-rule="evenodd" d="M6.21508 27.6343V11.6774H7.72046V26.8816H12.7384V20.1075C12.7384 19.6918 13.0754 19.3548 13.491 19.3548H18.509C18.9247 19.3548 19.2616 19.6918 19.2616 20.1075V26.8816H24.2795V11.6774H25.7849V27.6343C25.7849 28.05 25.4479 28.387 25.0322 28.387H18.509C18.0933 28.387 17.7563 28.05 17.7563 27.6343V20.8602H14.2437V27.6343C14.2437 28.05 13.9067 28.387 13.491 28.387H6.96777C6.55207 28.387 6.21508 28.05 6.21508 27.6343Z" fill="black"/>
</svg>
