<svg width="32" height="32" viewBox="0 0 32 32" fill="none" xmlns="http://www.w3.org/2000/svg">
<path fill-rule="evenodd" clip-rule="evenodd" d="M5.75 3.50538C4.46421 3.50538 3.5 4.47305 3.5 5.76344V26.2366C3.5 27.527 4.46421 28.4946 5.75 28.4946H26.15C27.4353 28.4946 28.4137 27.5217 28.5 26.3118V5.76344C28.5 4.47305 27.5358 3.50538 26.25 3.50538H5.75ZM2 5.76344C2 3.64165 3.63579 2 5.75 2H26.25C28.3642 2 30 3.64165 30 5.76344V26.3369C30 26.3526 29.9995 26.3682 29.9985 26.3839C29.8745 28.3753 28.2569 30 26.15 30H5.75C3.63579 30 2 28.3584 2 26.2366V5.76344Z" fill="black"/>
<path d="M12.05 10.0287C10.5864 10.0287 9.4 11.2194 9.4 12.6882C9.4 14.157 10.5864 15.3477 12.05 15.3477C13.5136 15.3477 14.7 14.157 14.7 12.6882C14.7 11.2194 13.5136 10.0287 12.05 10.0287Z" fill="black"/>
<path d="M12.05 15.5484C9.73579 15.5484 7.9 17.3908 7.9 19.7133V21.1183C7.9 21.534 8.23579 21.871 8.65 21.871H15.45C15.8642 21.871 16.2 21.534 16.2 21.1183V19.7133C16.2 17.3908 14.3642 15.5484 12.05 15.5484Z" fill="black"/>
<path fill-rule="evenodd" clip-rule="evenodd" d="M19.6 28.7455V3.15412H21.1V28.7455H19.6Z" fill="black"/>
<path fill-rule="evenodd" clip-rule="evenodd" d="M20.35 19.6631H28.75V21.1685H20.35V19.6631Z" fill="black"/>
<path fill-rule="evenodd" clip-rule="evenodd" d="M20.35 10.8315H28.75V12.3369H20.35V10.8315Z" fill="black"/>
</svg>
