<svg width="32" height="32" viewBox="0 0 32 32" fill="none" xmlns="http://www.w3.org/2000/svg">
<path fill-rule="evenodd" clip-rule="evenodd" d="M14.5448 12.0789C14.5448 7.64882 18.1936 4 22.6236 4C25.5067 4 28.0441 5.55028 29.477 7.75467C29.7035 8.10321 29.6046 8.56941 29.2561 8.79596C28.9075 9.02251 28.4413 8.92362 28.2148 8.57508C27.0383 6.76513 24.9593 5.50538 22.6236 5.50538C19.025 5.50538 16.0502 8.48021 16.0502 12.0789C16.0502 14.7794 17.6675 17.1157 20.0976 18.1058C20.381 18.2213 20.5663 18.4968 20.5663 18.8029V21.3863C20.7526 24.0921 22.9304 26.1792 25.7348 26.1792C26.9021 26.1792 28.0133 25.8174 28.7472 25.165C29.0579 24.8889 29.5337 24.9168 29.8099 25.2275C30.086 25.5382 30.0581 26.014 29.7474 26.2902C28.6748 27.2435 27.1767 27.6846 25.7348 27.6846C22.1243 27.6846 19.2886 24.9657 19.0625 21.4606C19.0614 21.4445 19.0609 21.4283 19.0609 21.4122V19.2915C16.3336 17.974 14.5448 15.223 14.5448 12.0789ZM6.83694 5.02332C7.13089 4.72938 7.60746 4.72938 7.9014 5.02332C10.144 7.26593 11.534 10.3654 11.534 13.7849C11.534 17.2045 10.144 20.304 7.9014 22.5466C7.60746 22.8405 7.13089 22.8405 6.83694 22.5466C6.543 22.2526 6.543 21.776 6.83694 21.4821C8.80939 19.5097 10.0287 16.7884 10.0287 13.7849C10.0287 10.7815 8.80939 8.06023 6.83694 6.08779C6.543 5.79384 6.543 5.31727 6.83694 5.02332ZM24.8317 7.37472C25.7033 7.74978 26.3984 8.46797 26.9151 9.08803C27.1813 9.40738 27.1381 9.882 26.8188 10.1481C26.4994 10.4142 26.0248 10.3711 25.7587 10.0518C25.2728 9.46864 24.7652 8.98401 24.234 8.75634L24.2247 8.75239C23.4752 8.41928 22.6354 8.33047 21.7802 8.49903C20.3622 8.83742 19.2819 9.91766 18.9435 11.3357C18.5302 13.4359 19.8744 15.3384 21.669 15.7566C22.1635 15.8461 22.582 16.1281 22.8732 16.4739C23.1691 16.8253 23.3763 17.2932 23.3763 17.7993V21.0107C23.3763 21.4264 23.0393 21.7634 22.6236 21.7634C22.208 21.7634 21.871 21.4264 21.871 21.0107V17.7993C21.871 17.7032 21.8273 17.5689 21.7217 17.4436C21.6165 17.3187 21.4925 17.2532 21.396 17.2371C21.3815 17.2347 21.3672 17.2318 21.3529 17.2286C18.744 16.6357 16.8886 13.9339 17.4698 11.028C17.4715 11.0197 17.4733 11.0115 17.4752 11.0032C17.942 9.01923 19.4637 7.49758 21.4477 7.03076C21.4559 7.02882 21.4642 7.02703 21.4725 7.02537C22.6185 6.79616 23.7796 6.90825 24.8317 7.37472ZM4.5287 7.43193C4.82264 7.13798 5.29922 7.13798 5.59316 7.43193C7.23385 9.07261 8.22222 11.269 8.22222 13.7849C8.22222 16.3009 7.23385 18.4973 5.59316 20.138C5.29922 20.4319 4.82264 20.4319 4.5287 20.138C4.23476 19.844 4.23476 19.3674 4.5287 19.0735C5.89876 17.7034 6.71684 15.8854 6.71684 13.7849C6.71684 11.6844 5.89876 9.86645 4.5287 8.49639C4.23476 8.20244 4.23476 7.72587 4.5287 7.43193ZM2.22046 9.74017C2.5144 9.44623 2.99098 9.44623 3.28492 9.74017C4.30748 10.7627 5.01075 12.1514 5.01075 13.7849C5.01075 15.4185 4.30748 16.8072 3.28492 17.8297C2.99098 18.1237 2.5144 18.1237 2.22046 17.8297C1.92651 17.5358 1.92651 17.0592 2.22046 16.7653C3.00435 15.9814 3.50538 14.9615 3.50538 13.7849C3.50538 12.6084 3.00435 11.5885 2.22046 10.8046C1.92651 10.5107 1.92651 10.0341 2.22046 9.74017Z" fill="black"/>
</svg>
