<svg width="32" height="32" viewBox="0 0 32 32" fill="none" xmlns="http://www.w3.org/2000/svg">
<path d="M29.2 2H3.8C3.3 2 3 2.3 3 2.8V23C3 23.4 3.3 23.8 3.8 23.8H15.8V28.5H13.3C12.9 28.5 12.5 28.8 12.5 29.3C12.5 29.8 12.8 30 13.2 30H19.7C20.1 30 20.5 29.7 20.5 29.2C20.5 28.7 20.2 28.4 19.7 28.4H17.2V23.7H29.2C29.6 23.7 30 23.4 30 22.9V2.8C29.9 2.3 29.6 2 29.2 2ZM28.4 22.3H4.5V3.5H28.4V22.3Z" fill="black"/>
<path d="M8 9.4H10.5C10.8 11 12.3 12.2 14 12.2C15.7 12.2 17.1 11 17.5 9.4H25C25.4 9.4 25.8 9.1 25.8 8.6C25.8 8.1 25.4 7.9 25 7.9H17.5C17.2 6.3 15.7 5.1 14 5.1C12.3 5.1 10.8 6.3 10.5 7.9H8C7.6 7.9 7.2 8.2 7.2 8.7C7.2 9.2 7.6 9.4 8 9.4ZM14 6.6C15.1 6.6 16.1 7.5 16.1 8.7C16.1 9.9 15.1 10.7 14 10.7C12.9 10.7 11.9 9.8 11.9 8.7C11.9 7.6 12.8 6.6 14 6.6Z" fill="black"/>
<path d="M8 17.9H15.5C15.8 19.5 17.3 20.7 19 20.7C20.7 20.7 22.1 19.5 22.5 17.9H25C25.4 17.9 25.8 17.6 25.8 17.1C25.8 16.6 25.5 16.3 25 16.3H22.5C22.2 14.7 20.7 13.5 19 13.5C17.3 13.5 15.9 14.7 15.5 16.3H8C7.6 16.3 7.2 16.6 7.2 17.1C7.2 17.6 7.6 17.9 8 17.9ZM19 15.1C20.1 15.1 21.1 16 21.1 17.2C21.1 18.4 20.2 19.3 19 19.3C17.8 19.3 16.9 18.4 16.9 17.2C16.9 16 17.8 15.1 19 15.1Z" fill="black"/>
</svg>
