<svg width="32" height="32" viewBox="0 0 32 32" fill="none" xmlns="http://www.w3.org/2000/svg">
<path fill-rule="evenodd" clip-rule="evenodd" d="M15.4243 3.21508C15.7161 2.92831 16.1839 2.92831 16.4757 3.21508L22.2757 8.91508C22.5711 9.20541 22.5753 9.68027 22.2849 9.9757C21.9946 10.2711 21.5197 10.2753 21.2243 9.98492L16.7 5.53863V20.95C16.7 25.0358 20.0642 28.4 24.15 28.4H29.25C29.6642 28.4 30 28.7358 30 29.15C30 29.5642 29.6642 29.9 29.25 29.9H24.15C20.5022 29.9 17.3384 27.6762 15.95 24.5201C14.5616 27.6762 11.3978 29.9 7.75 29.9H2.75C2.33579 29.9 2 29.5642 2 29.15C2 28.7358 2.33579 28.4 2.75 28.4H7.75C11.8358 28.4 15.2 25.0358 15.2 20.95V5.53863L10.6757 9.98492C10.3803 10.2753 9.90541 10.2711 9.61508 9.9757C9.32474 9.68027 9.32887 9.20541 9.6243 8.91508L15.4243 3.21508Z" fill="black"/>
</svg>
