<svg width="32" height="32" viewBox="0 0 32 32" fill="none" xmlns="http://www.w3.org/2000/svg">
<path d="M9 18.1227H15.38C15.5789 18.1227 15.7697 18.0438 15.9103 17.9033C16.051 17.7628 16.13 17.5722 16.13 17.3735C16.13 17.1748 16.051 16.9843 15.9103 16.8438C15.7697 16.7033 15.5789 16.6243 15.38 16.6243H9C8.80109 16.6243 8.61032 16.7033 8.46967 16.8438C8.32902 16.9843 8.25 17.1748 8.25 17.3735C8.25 17.5722 8.32902 17.7628 8.46967 17.9033C8.61032 18.0438 8.80109 18.1227 9 18.1227Z" fill="black"/>
<path d="M29.25 15.2358C29.0519 15.2384 28.8626 15.3182 28.7225 15.4581C28.5824 15.5981 28.5026 15.7871 28.5 15.985V18.7221C28.5 18.987 28.3946 19.2411 28.2071 19.4284C28.0196 19.6158 27.7652 19.721 27.5 19.721H26.78V17.7731C26.78 17.5744 26.701 17.3838 26.5603 17.2433C26.4197 17.1028 26.2289 17.0239 26.03 17.0239C25.8311 17.0239 25.6403 17.1028 25.4997 17.2433C25.359 17.3838 25.28 17.5744 25.28 17.7731V21.9786C25.28 22.2435 25.1746 22.4976 24.9871 22.6849C24.7996 22.8723 24.5452 22.9775 24.28 22.9775H14.28C14.0812 22.9777 13.8905 23.0567 13.75 23.1973L9.53 27.4128V23.7067C9.52233 23.5123 9.44024 23.3283 9.30068 23.1926C9.16112 23.0569 8.97474 22.9799 8.78 22.9775H4.51C4.24478 22.9775 3.99043 22.8723 3.80289 22.6849C3.61536 22.4976 3.51 22.2435 3.51 21.9786V7.73386C3.51 7.46893 3.61536 7.21484 3.80289 7.02751C3.99043 6.84017 4.24478 6.73493 4.51 6.73493H14.18C14.3789 6.73493 14.5697 6.656 14.7103 6.51549C14.851 6.37499 14.93 6.18443 14.93 5.98573C14.93 5.78703 14.851 5.59647 14.7103 5.45597C14.5697 5.31547 14.3789 5.23653 14.18 5.23653H6.74V4.49733C6.74 4.23239 6.84536 3.97831 7.03289 3.79098C7.22043 3.60364 7.47478 3.4984 7.74 3.4984H16.5C16.6989 3.4984 16.8897 3.41946 17.0303 3.27896C17.171 3.13846 17.25 2.9479 17.25 2.7492C17.25 2.5505 17.171 2.35994 17.0303 2.21944C16.8897 2.07894 16.6989 2 16.5 2H7.75C7.08604 2 6.44912 2.26279 5.97869 2.73084C5.50826 3.1989 5.24265 3.83408 5.24 4.49733V5.22655H4.51C3.84512 5.22918 3.20822 5.49418 2.73807 5.96383C2.26792 6.43347 2.00263 7.06969 2 7.73386V21.9786C2.00263 22.6428 2.26792 23.279 2.73807 23.7486C3.20822 24.2183 3.84512 24.4833 4.51 24.4859H8V29.2508C7.999 29.3984 8.04228 29.543 8.12427 29.6658C8.20625 29.7887 8.32319 29.8842 8.46 29.9401C8.55147 29.9799 8.65022 30.0003 8.75 30C8.94841 29.9977 9.13828 29.919 9.28 29.7802L14.57 24.4959H24.21C24.5443 24.5012 24.8763 24.44 25.1867 24.3159C25.497 24.1917 25.7796 24.0072 26.0178 23.7729C26.2561 23.5386 26.4453 23.2593 26.5744 22.9512C26.7036 22.6432 26.77 22.3126 26.77 21.9786V21.2494H27.49C27.8213 21.2494 28.1493 21.1839 28.4552 21.0566C28.761 20.9294 29.0386 20.7429 29.2719 20.5079C29.5053 20.273 29.6898 19.9942 29.8147 19.6877C29.9397 19.3812 30.0026 19.053 30 18.7221V15.985C29.9974 15.7871 29.9176 15.5981 29.7775 15.4581C29.6374 15.3182 29.4481 15.2384 29.25 15.2358Z" fill="black"/>
<path d="M23.25 15.4856C24.585 15.4856 25.8901 15.0901 27.0001 14.3492C28.1101 13.6083 28.9753 12.5552 29.4862 11.3231C29.9971 10.091 30.1308 8.7353 29.8703 7.42733C29.6098 6.11936 28.967 4.91791 28.023 3.97492C27.079 3.03192 25.8762 2.38973 24.5669 2.12956C23.2575 1.86939 21.9003 2.00292 20.6669 2.51327C19.4335 3.02361 18.3793 3.88785 17.6376 4.99669C16.8959 6.10554 16.5 7.40918 16.5 8.74278C16.5026 10.5303 17.2147 12.2438 18.4799 13.5077C19.7452 14.7717 21.4606 15.4829 23.25 15.4856ZM24.35 7.99358L23 6.70496C22.8596 6.56449 22.7807 6.37407 22.7807 6.17553C22.7807 5.97699 22.8596 5.78657 23 5.6461C23.1406 5.5058 23.3312 5.42699 23.53 5.42699C23.7288 5.42699 23.9194 5.5058 24.06 5.6461L26.63 8.21334C26.6978 8.28263 26.7521 8.36393 26.79 8.45309C26.8597 8.63993 26.8597 8.84562 26.79 9.03247C26.7521 9.12162 26.6978 9.20293 26.63 9.27221L24.1 11.8295C24.0311 11.9002 23.9486 11.9563 23.8576 11.9947C23.7666 12.033 23.6688 12.0528 23.57 12.0528C23.4712 12.0528 23.3734 12.033 23.2824 11.9947C23.1914 11.9563 23.1089 11.9002 23.04 11.8295C22.8996 11.689 22.8207 11.4986 22.8207 11.3C22.8207 11.1015 22.8996 10.9111 23.04 10.7706L24.33 9.49197H20.33C20.1311 9.49197 19.9403 9.41304 19.7997 9.27254C19.659 9.13204 19.58 8.94148 19.58 8.74278C19.58 8.54408 19.659 8.35352 19.7997 8.21301C19.9403 8.07251 20.1311 7.99358 20.33 7.99358H24.35Z" fill="black"/>
<path d="M15.09 13.4377C15.2889 13.4377 15.4797 13.3588 15.6203 13.2183C15.761 13.0778 15.84 12.8872 15.84 12.6885C15.84 12.4898 15.761 12.2993 15.6203 12.1588C15.4797 12.0183 15.2889 11.9394 15.09 11.9394H9C8.80109 11.9394 8.61032 12.0183 8.46967 12.1588C8.32902 12.2993 8.25 12.4898 8.25 12.6885C8.25 12.8872 8.32902 13.0778 8.46967 13.2183C8.61032 13.3588 8.80109 13.4377 9 13.4377H15.09Z" fill="black"/>
</svg>
