<svg width="32" height="32" viewBox="0 0 32 32" fill="none" xmlns="http://www.w3.org/2000/svg">
<path d="M26.75 13.64C26.5519 13.6426 26.3626 13.7224 26.2225 13.8625C26.0824 14.0026 26.0026 14.1919 26 14.39V17.11C26 17.3089 26.079 17.4997 26.2197 17.6403C26.3603 17.781 26.5511 17.86 26.75 17.86C26.9489 17.86 27.1397 17.781 27.2803 17.6403C27.421 17.4997 27.5 17.3089 27.5 17.11V14.39C27.4974 14.1919 27.4176 14.0026 27.2775 13.8625C27.1374 13.7224 26.9481 13.6426 26.75 13.64Z" fill="black"/>
<path d="M4.75 13.64C4.55189 13.6426 4.36263 13.7224 4.22253 13.8625C4.08244 14.0026 4.00259 14.1919 4 14.39V17.11C4.00259 17.3081 4.08244 17.4974 4.22253 17.6375C4.36263 17.7776 4.55189 17.8574 4.75 17.86C4.94811 17.8574 5.13737 17.7776 5.27747 17.6375C5.41756 17.4974 5.49741 17.3081 5.5 17.11V14.39C5.49741 14.1919 5.41756 14.0026 5.27747 13.8625C5.13737 13.7224 4.94811 13.6426 4.75 13.64Z" fill="black"/>
<path d="M21.25 9.08C21.0519 9.08259 20.8626 9.16244 20.7225 9.30253C20.5824 9.44263 20.5026 9.63189 20.5 9.83V21.67C20.5 21.8689 20.579 22.0597 20.7197 22.2003C20.8603 22.341 21.0511 22.42 21.25 22.42C21.4489 22.42 21.6397 22.341 21.7803 22.2003C21.921 22.0597 22 21.8689 22 21.67V9.83C21.9974 9.63189 21.9176 9.44263 21.7775 9.30253C21.6374 9.16244 21.4481 9.08259 21.25 9.08Z" fill="black"/>
<path d="M15.75 2C15.5519 2.00259 15.3626 2.08244 15.2225 2.22253C15.0824 2.36263 15.0026 2.55189 15 2.75V28.75C15 28.9489 15.079 29.1397 15.2197 29.2803C15.3603 29.421 15.5511 29.5 15.75 29.5C15.9489 29.5 16.1397 29.421 16.2803 29.2803C16.421 29.1397 16.5 28.9489 16.5 28.75V2.75C16.4974 2.55189 16.4176 2.36263 16.2775 2.22253C16.1374 2.08244 15.9481 2.00259 15.75 2Z" fill="black"/>
<path d="M10.25 4.08C10.0519 4.08259 9.86263 4.16244 9.72253 4.30253C9.58244 4.44263 9.50259 4.63189 9.5 4.83V26.67C9.5 26.8689 9.57902 27.0597 9.71967 27.2003C9.86032 27.341 10.0511 27.42 10.25 27.42C10.4489 27.42 10.6397 27.341 10.7803 27.2003C10.921 27.0597 11 26.8689 11 26.67V4.83C10.9974 4.63189 10.9176 4.44263 10.7775 4.30253C10.6374 4.16244 10.4481 4.08259 10.25 4.08Z" fill="black"/>
</svg>
