<svg width="32" height="32" viewBox="0 0 32 32" fill="none" xmlns="http://www.w3.org/2000/svg">
<path d="M10.25 13C10.0519 13.0026 9.86263 13.0824 9.72253 13.2225C9.58244 13.3626 9.50259 13.5519 9.5 13.75V18.59C9.5 18.7889 9.57902 18.9797 9.71967 19.1203C9.86032 19.261 10.0511 19.34 10.25 19.34C10.4489 19.34 10.6397 19.261 10.7803 19.1203C10.921 18.9797 11 18.7889 11 18.59V13.75C10.9974 13.5519 10.9176 13.3626 10.7775 13.2225C10.6374 13.0824 10.4481 13.0026 10.25 13Z" fill="black"/>
<path d="M4.75 9.06006C4.55189 9.06265 4.36263 9.1425 4.22253 9.28259C4.08244 9.42269 4.00259 9.61195 4 9.81006V22.5301C4.00259 22.7282 4.08244 22.9174 4.22253 23.0575C4.36263 23.1976 4.55189 23.2775 4.75 23.2801C4.94811 23.2775 5.13737 23.1976 5.27747 23.0575C5.41756 22.9174 5.49741 22.7282 5.5 22.5301V9.81006C5.49741 9.61195 5.41756 9.42269 5.27747 9.28259C5.13737 9.1425 4.94811 9.06265 4.75 9.06006Z" fill="black"/>
<path d="M15.75 10.4199C15.5519 10.4225 15.3626 10.5024 15.2225 10.6425C15.0824 10.7826 15.0026 10.9718 15 11.1699V21.1699C15 21.2684 15.0194 21.3659 15.0571 21.4569C15.0948 21.5479 15.15 21.6306 15.2197 21.7003C15.2893 21.7699 15.372 21.8251 15.463 21.8628C15.554 21.9005 15.6515 21.9199 15.75 21.9199C15.8485 21.9199 15.946 21.9005 16.037 21.8628C16.128 21.8251 16.2107 21.7699 16.2803 21.7003C16.35 21.6306 16.4052 21.5479 16.4429 21.4569C16.4806 21.3659 16.5 21.2684 16.5 21.1699V11.1699C16.4974 10.9718 16.4176 10.7826 16.2775 10.6425C16.1374 10.5024 15.9481 10.4225 15.75 10.4199Z" fill="black"/>
<path d="M26.75 11.0601C26.5519 11.0626 26.3626 11.1425 26.2225 11.2826C26.0824 11.4227 26.0026 11.612 26 11.8101V20.5301C26 20.729 26.079 20.9197 26.2197 21.0604C26.3603 21.201 26.5511 21.2801 26.75 21.2801C26.9489 21.2801 27.1397 21.201 27.2803 21.0604C27.421 20.9197 27.5 20.729 27.5 20.5301V11.8101C27.4974 11.612 27.4176 11.4227 27.2775 11.2826C27.1374 11.1425 26.9481 11.0626 26.75 11.0601Z" fill="black"/>
<path d="M21.25 6C21.0519 6.00259 20.8626 6.08244 20.7225 6.22253C20.5824 6.36263 20.5026 6.55189 20.5 6.75V25.59C20.5 25.7889 20.579 25.9797 20.7197 26.1203C20.8603 26.261 21.0511 26.34 21.25 26.34C21.4489 26.34 21.6397 26.261 21.7803 26.1203C21.921 25.9797 22 25.7889 22 25.59V6.75C21.9974 6.55189 21.9176 6.36263 21.7775 6.22253C21.6374 6.08244 21.4481 6.00259 21.25 6Z" fill="black"/>
</svg>
