<svg width="32" height="32" viewBox="0 0 32 32" fill="none" xmlns="http://www.w3.org/2000/svg">
<path d="M28.9321 25C25.9321 22.42 24.3021 17.68 24.3021 11.65C24.3021 7.36 21.4821 3 16.0921 3C10.7021 3 7.89214 7.36 7.89214 11.66C7.89214 17.66 6.24214 22.43 3.26214 25.01C3.14719 25.1109 3.06488 25.2437 3.0257 25.3915C2.98652 25.5393 2.99224 25.6954 3.04214 25.84C3.09566 25.9848 3.19257 26.1096 3.31964 26.1973C3.44671 26.285 3.59775 26.3313 3.75214 26.33H28.4421C28.598 26.3331 28.751 26.2874 28.8797 26.1995C29.0085 26.1116 29.1067 25.9857 29.1606 25.8394C29.2145 25.6931 29.2214 25.5337 29.1805 25.3832C29.1396 25.2328 29.0527 25.0988 28.9321 25Z" fill="black"/>
<path d="M16.1121 29.94C16.8627 29.9382 17.6002 29.7432 18.2535 29.3736C18.9068 29.004 19.454 28.4724 19.8421 27.83H12.3821C12.7703 28.4724 13.3174 29.004 13.9707 29.3736C14.6241 29.7432 15.3615 29.9382 16.1121 29.94Z" fill="black"/>
</svg>
