<svg width="32" height="32" viewBox="0 0 32 32" fill="none" xmlns="http://www.w3.org/2000/svg">
<path fill-rule="evenodd" clip-rule="evenodd" d="M14 9C14.9 8.1 16 7.6 17.4 7.6C19.1 7.6 20.7 8.6 21.5 10C22.2 9.7 23 9.5 23.8 9.5C27 9.5 29.5 12.1 29.5 15.2C29.5 18.4 26.9 20.9 23.8 20.9C23.4 20.9 23 20.9 22.7 20.8C21.9 22.2 20.6 23 19 23C18.3 23 17.7 22.8 17.2 22.6C16.5 24.3 14.8 25.5 12.8 25.5C10.7 25.5 9 24.2 8.3 22.4C8 22.5 7.7 22.5 7.4 22.5C5 22.5 3 20.5 3 18C3 16.3 3.9 14.9 5.2 14.1C4.9 13.5 4.8 12.8 4.8 12.1C4.8 9.3 7.1 7 9.9 7C11.6 7 13.1 7.8 14 9Z" fill="black"/>
</svg>
