<svg width="32" height="32" viewBox="0 0 32 32" fill="none" xmlns="http://www.w3.org/2000/svg">
<path d="M29.25 6H5.75C5.55189 6.00259 5.36263 6.08244 5.22253 6.22253C5.08244 6.36263 5.00259 6.55189 5 6.75V23.25C5.00259 23.4481 5.08244 23.6374 5.22253 23.7775C5.36263 23.9176 5.55189 23.9974 5.75 24H16.75V27.5H13.25C13.0511 27.5 12.8603 27.579 12.7197 27.7197C12.579 27.8603 12.5 28.0511 12.5 28.25C12.5 28.4489 12.579 28.6397 12.7197 28.7803C12.8603 28.921 13.0511 29 13.25 29H21.75C21.9489 29 22.1397 28.921 22.2803 28.7803C22.421 28.6397 22.5 28.4489 22.5 28.25C22.5 28.0511 22.421 27.8603 22.2803 27.7197C22.1397 27.579 21.9489 27.5 21.75 27.5H18.25V24H29.25C29.4481 23.9974 29.6374 23.9176 29.7775 23.7775C29.9176 23.6374 29.9974 23.4481 30 23.25V6.75C29.9974 6.55189 29.9176 6.36263 29.7775 6.22253C29.6374 6.08244 29.4481 6.00259 29.25 6ZM28.5 22.5H6.5V7.5H28.5V22.5Z" fill="black"/>
<path d="M25 3.75C24.9974 3.55189 24.9176 3.36263 24.7775 3.22253C24.6374 3.08244 24.4481 3.00259 24.25 3H2.75C2.55189 3.00259 2.36263 3.08244 2.22253 3.22253C2.08244 3.36263 2.00259 3.55189 2 3.75V18.25C2.00259 18.4481 2.08244 18.6374 2.22253 18.7775C2.36263 18.9176 2.55189 18.9974 2.75 19C2.94811 18.9974 3.13737 18.9176 3.27747 18.7775C3.41756 18.6374 3.49741 18.4481 3.5 18.25V4.5H24.25C24.4481 4.49741 24.6374 4.41756 24.7775 4.27747C24.9176 4.13737 24.9974 3.94811 25 3.75Z" fill="black"/>
<path d="M14 19.65C14.1255 19.6498 14.2491 19.6189 14.36 19.56L21.41 15.66C21.5264 15.5935 21.6231 15.4975 21.6904 15.3816C21.7577 15.2657 21.7932 15.134 21.7932 15C21.7932 14.866 21.7577 14.7343 21.6904 14.6184C21.6231 14.5025 21.5264 14.4065 21.41 14.34L14.41 10.44C14.296 10.3742 14.1667 10.3395 14.035 10.3395C13.9033 10.3395 13.774 10.3742 13.66 10.44C13.55 10.5092 13.4594 10.6051 13.3964 10.7187C13.3335 10.8324 13.3003 10.9601 13.3 11.09V18.89C13.3003 19.0199 13.3335 19.1476 13.3964 19.2613C13.4594 19.3749 13.55 19.4708 13.66 19.54C13.763 19.6032 13.8795 19.6409 14 19.65Z" fill="black"/>
</svg>
