<svg width="32" height="32" viewBox="0 0 32 32" fill="none" xmlns="http://www.w3.org/2000/svg">
<path fill-rule="evenodd" clip-rule="evenodd" d="M16 3.50538C9.09941 3.50538 3.50538 9.09941 3.50538 16C3.50538 22.9006 9.09941 28.4946 16 28.4946C22.9006 28.4946 28.4946 22.9006 28.4946 16C28.4946 9.09941 22.9006 3.50538 16 3.50538ZM2 16C2 8.26801 8.26801 2 16 2C23.732 2 30 8.26801 30 16C30 23.732 23.732 30 16 30C8.26801 30 2 23.732 2 16ZM12.086 9.12545C12.5017 9.12545 12.8387 9.46244 12.8387 9.87814V13.9928C12.8387 14.4085 12.5017 14.7455 12.086 14.7455C11.6703 14.7455 11.3333 14.4085 11.3333 13.9928V9.87814C11.3333 9.46244 11.6703 9.12545 12.086 9.12545ZM19.914 9.12545C20.3297 9.12545 20.6667 9.46244 20.6667 9.87814V13.9928C20.6667 14.4085 20.3297 14.7455 19.914 14.7455C19.4983 14.7455 19.1613 14.4085 19.1613 13.9928V9.87814C19.1613 9.46244 19.4983 9.12545 19.914 9.12545ZM23.1779 17.9005C23.5694 18.0403 23.7734 18.471 23.6336 18.8625C22.522 21.9749 19.4262 24.1792 16 24.1792C12.5578 24.1792 9.58368 21.9619 8.3747 18.8845C8.2227 18.4976 8.41313 18.0608 8.80005 17.9088C9.18696 17.7568 9.62383 17.9472 9.77583 18.3341C10.7747 20.8768 13.22 22.6738 16 22.6738C18.796 22.6738 21.3203 20.8638 22.2159 18.3562C22.3557 17.9647 22.7864 17.7607 23.1779 17.9005Z" fill="black"/>
</svg>
