<svg width="32" height="32" viewBox="0 0 32 32" fill="none" xmlns="http://www.w3.org/2000/svg">
<path d="M24.1 20.3C22.7 20.3 21.5 20.9 20.6 21.9L13.2 17.9C13.5 17.3 13.7 16.6 13.7 15.9C13.7 15.2 13.5 14.5 13.2 13.9L20.6 10C21.5 11 22.7 11.6 24.1 11.6C26.8 11.6 28.9 9.4 28.9 6.8C28.9 4.1 26.7 2 24.1 2C21.5 2 19.3 4.2 19.3 6.8C19.3 7.5 19.5 8.2 19.8 8.8L12.4 12.7C11.5 11.7 10.3 11.1 8.9 11.1C6.2 11.1 4 13.2 4 15.9C4 18.6 6.2 20.7 8.8 20.7C10.2 20.7 11.4 20.1 12.3 19.1L19.7 23C19.4 23.6 19.2 24.3 19.2 25C19.2 27.7 21.4 29.8 24 29.8C26.6 29.8 28.8 27.6 28.8 25C28.8 22.4 26.8 20.3 24.1 20.3ZM24.1 3.4C25.9 3.4 27.4 4.9 27.4 6.7C27.4 8.5 25.9 10 24.1 10C22.3 10 20.8 8.5 20.8 6.7C20.8 4.9 22.3 3.4 24.1 3.4ZM8.8 19.2C7 19.2 5.5 17.7 5.5 15.9C5.5 14.1 7 12.6 8.8 12.6C10.6 12.6 12.1 14.1 12.1 15.9C12.1 17.7 10.7 19.2 8.8 19.2ZM24.1 28.4C22.3 28.4 20.8 26.9 20.8 25.1C20.8 23.3 22.3 21.8 24.1 21.8C25.9 21.8 27.4 23.3 27.4 25.1C27.4 26.9 25.9 28.4 24.1 28.4Z" fill="black"/>
</svg>
