<svg width="32" height="32" viewBox="0 0 32 32" fill="none" xmlns="http://www.w3.org/2000/svg">
<path d="M15.9251 15.2763C16.7521 15.2763 17.4225 14.6059 17.4225 13.779C17.4225 12.952 16.7521 12.2816 15.9251 12.2816C15.0982 12.2816 14.4278 12.952 14.4278 13.779C14.4278 14.6059 15.0982 15.2763 15.9251 15.2763Z" fill="black"/>
<path d="M10.3351 15.2763C11.1621 15.2763 11.8324 14.6059 11.8324 13.779C11.8324 12.952 11.1621 12.2816 10.3351 12.2816C9.50816 12.2816 8.83779 12.952 8.83779 13.779C8.83779 14.6059 9.50816 15.2763 10.3351 15.2763Z" fill="black"/>
<path fill-rule="evenodd" clip-rule="evenodd" d="M2 13.779C2 7.1537 8.35907 2.04991 15.9251 2.04991C16.3386 2.04991 16.6738 2.3851 16.6738 2.79857C16.6738 3.21205 16.3386 3.54724 15.9251 3.54724C8.91722 3.54724 3.49733 8.22598 3.49733 13.779C3.49733 16.9756 5.32606 19.9509 8.24544 21.8344C8.53369 22.0203 8.65867 22.3784 8.54877 22.7033L7.00141 27.2781L11.8939 23.7527C12.0727 23.6238 12.2993 23.5803 12.5131 23.6338C13.633 23.9137 14.7658 24.0107 16.025 24.0107C22.0533 24.0107 26.8952 20.5728 28.1821 16.0688C28.2957 15.6713 28.7101 15.4411 29.1076 15.5547C29.5052 15.6682 29.7354 16.0826 29.6218 16.4802C28.1137 21.7587 22.5741 25.508 16.025 25.508C14.8084 25.508 13.6525 25.4229 12.4924 25.1669L5.98135 29.8587C5.71731 30.049 5.36059 30.0469 5.09882 29.8535C4.83705 29.6601 4.7302 29.3198 4.83448 29.0115L6.94771 22.7637C3.95141 20.638 2 17.3787 2 13.779Z" fill="black"/>
<path d="M23.2121 2C19.5187 2 16.4242 4.99465 16.4242 8.78788C16.4242 12.4813 19.4189 15.5758 23.2121 15.5758C26.9055 15.5758 30 12.5811 30 8.78788C29.9002 4.99465 26.9055 2 23.2121 2ZM23.2121 4.59537C23.6114 4.59537 23.9109 4.99465 23.9109 5.39394V8.48841C23.9109 8.8877 23.6114 9.28699 23.1123 9.28699C22.713 9.28699 22.3137 8.98752 22.3137 8.48841V5.39394C22.3137 5.03906 22.6227 4.59537 23.2121 4.59537ZM23.2121 12.2816C22.6132 12.2816 22.2139 11.7825 22.2139 11.2834C22.2139 10.7843 22.6132 10.2852 23.2121 10.2852C23.7112 10.2852 24.2103 10.7843 24.2103 11.2834C24.2103 11.7825 23.7112 12.2816 23.2121 12.2816Z" fill="black"/>
</svg>
