<svg width="32" height="32" viewBox="0 0 32 32" fill="none" xmlns="http://www.w3.org/2000/svg">
<path fill-rule="evenodd" clip-rule="evenodd" d="M14.209 2.15552C23.2918 0.996382 31.0016 8.70544 29.9449 17.6876C29.2034 24.0398 24.0252 29.1047 17.6886 29.8447C14.3495 30.2491 11.1918 29.488 8.59941 27.8319L2.92951 29.85H2.80001L2.79757 29.85C2.78328 29.8501 2.71994 29.8506 2.65937 29.8438C2.59954 29.8372 2.3743 29.8099 2.18218 29.6178C1.99006 29.4257 1.96281 29.2005 1.95616 29.1406C1.94943 29.0801 1.94989 29.0167 1.95 29.0024L1.95001 29V28.8603L4.06285 23.3861C2.50588 20.8984 1.65065 17.7528 2.05526 14.4114C2.79518 8.07593 7.85841 2.8984 14.209 2.15552ZM28.4551 17.5124C29.3983 9.49588 22.5105 2.60591 14.3952 3.64392L14.3869 3.64498C8.73998 4.30379 4.20557 8.9245 3.54496 14.5869L3.54456 14.5902C3.16778 17.6987 4.01537 20.6209 5.52405 22.884L5.73967 23.2074L3.92749 27.9026L8.80705 26.1658L9.12174 26.3798C11.4707 27.9771 14.3886 28.7338 17.5098 28.3554L17.5131 28.355C23.1755 27.6944 27.7963 23.1593 28.4551 17.5124ZM19.5 9.54998C18.6992 9.54998 18.05 10.1992 18.05 11C18.05 11.8008 18.6992 12.45 19.5 12.45C20.3008 12.45 20.95 11.8008 20.95 11C20.95 10.1992 20.3008 9.54998 19.5 9.54998ZM16.55 11C16.55 9.37074 17.8708 8.04998 19.5 8.04998C21.1293 8.04998 22.45 9.37074 22.45 11C22.45 12.6292 21.1293 13.95 19.5 13.95C18.6428 13.95 17.8709 13.5843 17.332 13.0005L13.0722 15.324C13.1231 15.5411 13.15 15.7674 13.15 16C13.15 16.2326 13.1231 16.4589 13.0722 16.676L17.332 18.9995C17.8709 18.4156 18.6428 18.05 19.5 18.05C21.1293 18.05 22.45 19.3707 22.45 21C22.45 22.6292 21.1293 23.95 19.5 23.95C17.8708 23.95 16.55 22.6292 16.55 21C16.55 20.7674 16.5769 20.5411 16.6278 20.324L12.3681 18.0005C11.8291 18.5843 11.0572 18.95 10.2 18.95C8.57077 18.95 7.25001 17.6292 7.25001 16C7.25001 14.3707 8.57077 13.05 10.2 13.05C11.0572 13.05 11.8291 13.4156 12.3681 13.9995L16.6278 11.676C16.5769 11.4589 16.55 11.2326 16.55 11ZM10.2 14.55C9.3992 14.55 8.75001 15.1992 8.75001 16C8.75001 16.8008 9.3992 17.45 10.2 17.45C11.0008 17.45 11.65 16.8008 11.65 16C11.65 15.1992 11.0008 14.55 10.2 14.55ZM19.5 19.55C18.6992 19.55 18.05 20.1992 18.05 21C18.05 21.8008 18.6992 22.45 19.5 22.45C20.3008 22.45 20.95 21.8008 20.95 21C20.95 20.1992 20.3008 19.55 19.5 19.55Z" fill="black"/>
</svg>
