<svg width="32" height="32" viewBox="0 0 32 32" fill="none" xmlns="http://www.w3.org/2000/svg">
<path d="M16 4.50538C9.08953 4.50538 3.50538 10.0895 3.50538 17C3.50538 19.754 4.35441 22.2852 5.81601 24.3457L4.73798 25.4237C3.00847 23.0782 2 20.1673 2 17C2 9.25814 8.25814 3 16 3C19.1458 3 22.0466 4.03328 24.3822 5.77953L23.3052 6.85646C21.252 5.37652 18.7294 4.50538 16 4.50538Z" fill="black"/>
<path d="M20.9376 9.22413C19.5183 8.33086 17.8278 7.8172 16 7.8172C10.8616 7.8172 6.8172 11.9737 6.8172 17C6.8172 18.8157 7.33952 20.502 8.24383 21.9179L9.33926 20.8224C8.69193 19.7022 8.32258 18.3978 8.32258 17C8.32258 12.7934 11.7047 9.32258 16 9.32258C17.4077 9.32258 18.7164 9.68425 19.8401 10.3216L20.9376 9.22413Z" fill="black"/>
<path d="M22.6785 13.1603L23.7761 12.0628C24.6692 13.4819 25.1828 15.1723 25.1828 17C25.1828 20.7167 22.9941 23.8914 19.8204 25.3141C19.4411 25.4841 18.9958 25.3145 18.8257 24.9351C18.6557 24.5558 18.8253 24.1104 19.2047 23.9404C21.8518 22.7538 23.6774 20.1076 23.6774 17C23.6774 15.5924 23.3158 14.2839 22.6785 13.1603Z" fill="black"/>
<path d="M16.8327 13.329C16.5648 13.2685 16.2861 13.2366 16 13.2366C13.9215 13.2366 12.2366 14.9215 12.2366 17C12.2366 17.2861 12.2685 17.5648 12.329 17.8327L13.8482 16.3135C14.0697 15.6186 14.6186 15.0697 15.3135 14.8482L16.8327 13.329Z" fill="black"/>
<path d="M18.1516 17.6873L19.6711 16.1677C19.7315 16.4355 19.7634 16.714 19.7634 17C19.7634 19.0785 18.0785 20.7634 16 20.7634C15.714 20.7634 15.4355 20.7315 15.1677 20.6711L16.6873 19.1516C17.3816 18.93 17.93 18.3816 18.1516 17.6873Z" fill="black"/>
<path d="M12.1984 23.6405L11.0994 24.7394C11.4445 24.954 11.8052 25.1462 12.1796 25.3141C12.5589 25.4841 13.0042 25.3145 13.1743 24.9351C13.3443 24.5558 13.1747 24.1104 12.7953 23.9404C12.5913 23.8489 12.3922 23.7488 12.1984 23.6405Z" fill="black"/>
<path d="M8.638 27.2008L7.5618 28.277C8.36466 28.8821 9.2372 29.4033 10.1677 29.8281C10.5459 30.0007 10.9924 29.8341 11.165 29.456C11.3376 29.0778 11.171 28.6313 10.7929 28.4587C10.0281 28.1095 9.30707 27.6874 8.638 27.2008Z" fill="black"/>
<path d="M26.1438 9.69507L27.2207 8.61813C28.9668 10.9536 30 13.8543 30 17C30 22.725 26.607 27.5999 21.838 29.8254C21.4613 30.0012 21.0134 29.8384 20.8376 29.4617C20.6618 29.085 20.8247 28.6371 21.2014 28.4613C25.4647 26.4718 28.4946 22.1137 28.4946 17C28.4946 14.2707 27.6236 11.7483 26.1438 9.69507Z" fill="black"/>
<path fill-rule="evenodd" clip-rule="evenodd" d="M28.0733 4.9266C28.3672 5.22054 28.3672 5.69712 28.0733 5.99106L4.99082 29.0735C4.69687 29.3674 4.2203 29.3674 3.92635 29.0735C3.63241 28.7796 3.63241 28.303 3.92635 28.009L27.0088 4.9266C27.3027 4.63266 27.7793 4.63266 28.0733 4.9266Z" fill="black"/>
</svg>
