<svg width="32" height="32" viewBox="0 0 32 32" fill="none" xmlns="http://www.w3.org/2000/svg">
<path d="M15.5018 21.7794C16.1071 21.7794 16.5979 21.2886 16.5979 20.6833C16.5979 20.0779 16.1071 19.5872 15.5018 19.5872C14.8964 19.5872 14.4057 20.0779 14.4057 20.6833C14.4057 21.2886 14.8964 21.7794 15.5018 21.7794Z" fill="black"/>
<path fill-rule="evenodd" clip-rule="evenodd" d="M13.9913 8.93722C13.6528 9.23636 13.4591 9.68317 13.4591 10.3203C13.4591 10.733 13.1245 11.0676 12.7117 11.0676C12.299 11.0676 11.9644 10.733 11.9644 10.3203C11.9644 9.3631 12.2689 8.46471 13.0016 7.81723C13.7204 7.18196 14.7456 6.88256 16 6.88256C17.369 6.88256 18.3273 7.43329 18.9017 8.24419C19.4496 9.01772 19.5956 9.95152 19.5348 10.6813L19.5343 10.6869C19.4131 12.0199 18.6914 13.1656 17.6401 14.221C17.521 14.3546 17.4101 14.4742 17.3063 14.5861C17.0202 14.8945 16.7878 15.145 16.5856 15.4717C16.3375 15.8724 16.1495 16.3831 16.1495 17.1957C16.1495 17.6085 15.8149 17.9431 15.4021 17.9431C14.9894 17.9431 14.6548 17.6085 14.6548 17.1957C14.6548 16.1152 14.9152 15.3304 15.3147 14.6849C15.6006 14.2233 15.9714 13.8244 16.2833 13.4889C16.3743 13.3911 16.4602 13.2987 16.5375 13.2117C16.5472 13.2007 16.5573 13.1901 16.5676 13.1797C17.4998 12.2476 17.9672 11.406 18.0455 10.5544C18.0837 10.089 17.9804 9.52948 17.682 9.10813C17.4094 8.72329 16.9228 8.37722 16 8.37722C14.9626 8.37722 14.3436 8.62587 13.9913 8.93722Z" fill="black"/>
<path fill-rule="evenodd" clip-rule="evenodd" d="M15.7011 3.49466C10.733 3.49466 6.68327 7.54441 6.68327 12.5125V13.5089C6.68327 13.9216 6.34868 14.2562 5.93594 14.2562C5.5232 14.2562 5.18861 13.9216 5.18861 13.5089V12.5125C5.18861 6.71893 9.90754 2 15.7011 2C21.4946 2 26.2135 6.71893 26.2135 12.5125V13.4093C26.2135 13.822 25.8789 14.1566 25.4662 14.1566C25.0535 14.1566 24.7189 13.822 24.7189 13.4093V12.5125C24.7189 7.54441 20.6691 3.49466 15.7011 3.49466Z" fill="black"/>
<path fill-rule="evenodd" clip-rule="evenodd" d="M25.0232 12.9768L26.1021 13.1729C28.039 13.5361 29.4021 15.1312 29.4021 17.0961V19.7865C29.4021 21.7717 27.9198 23.3461 26.111 23.7079L26.0981 23.7105L25.0231 23.9058C24.3602 24.0619 23.7525 23.8411 23.3192 23.4643C22.89 23.091 22.6045 22.5478 22.5325 21.9717C22.5286 21.941 22.5267 21.91 22.5267 21.879V15.0036C22.5267 13.7806 23.7153 12.6686 25.0232 12.9768ZM24.2507 14.5563C24.0999 14.682 24.0214 14.8542 24.0214 15.0036V21.8252C24.0567 22.0312 24.1648 22.2188 24.3 22.3364C24.4339 22.4529 24.5631 22.4803 24.6871 22.4494C24.7028 22.4454 24.7187 22.442 24.7346 22.4391L25.8239 22.2411C27.0015 22.0027 27.9075 20.9878 27.9075 19.7865V17.0961C27.9075 15.873 27.0793 14.8777 25.8286 14.6424L24.7346 14.4435C24.7187 14.4406 24.7028 14.4371 24.6871 14.4332C24.5572 14.4007 24.3981 14.4334 24.2507 14.5563Z" fill="black"/>
<path fill-rule="evenodd" clip-rule="evenodd" d="M7.15146 14.5563C7.00401 14.4334 6.8449 14.4007 6.71506 14.4332C6.69932 14.4371 6.68346 14.4406 6.66749 14.4435L5.57355 14.6424C4.32285 14.8777 3.49466 15.873 3.49466 17.0961V19.7865C3.49466 20.9878 4.40066 22.0027 5.57824 22.2411L6.66749 22.4391C6.68346 22.442 6.69932 22.4454 6.71506 22.4494C6.8449 22.4818 7.00401 22.4491 7.15146 22.3262C7.30226 22.2006 7.38078 22.0284 7.38078 21.879V15.0036C7.38078 14.8542 7.30226 14.682 7.15146 14.5563ZM6.37895 12.9768C7.68679 12.6686 8.87544 13.7806 8.87544 15.0036V21.879C8.87544 23.102 7.68679 24.214 6.37896 23.9058L5.29114 23.708C3.48233 23.3463 2 21.7717 2 19.7865V17.0961C2 15.1312 3.36314 13.5361 5.3 13.1729L5.30403 13.1722L6.37895 12.9768Z" fill="black"/>
<path fill-rule="evenodd" clip-rule="evenodd" d="M24.7189 24.1708V22.9751H26.2135V24.1708C26.2135 26.4768 24.3843 28.3061 22.0783 28.3061H18.2918V26.8114H22.0783C23.5588 26.8114 24.7189 25.6513 24.7189 24.1708Z" fill="black"/>
<path fill-rule="evenodd" clip-rule="evenodd" d="M14.1121 26.8665C13.9663 27.0123 13.8577 27.2395 13.8577 27.5587C13.8577 28.0428 14.3202 28.5053 14.8043 28.5053H16.6975C17.1816 28.5053 17.6441 28.0428 17.6441 27.5587C17.6441 27.0747 17.1816 26.6121 16.6975 26.6121H14.8043C14.4851 26.6121 14.2578 26.7208 14.1121 26.8665ZM13.0552 25.8096C13.5073 25.3575 14.127 25.1174 14.8043 25.1174H16.6975C18.007 25.1174 19.1388 26.2492 19.1388 27.5587C19.1388 28.8683 18.007 30 16.6975 30H14.8043C13.4947 30 12.363 28.8683 12.363 27.5587C12.363 26.8815 12.6031 26.2617 13.0552 25.8096Z" fill="black"/>
</svg>
