<svg width="32" height="32" viewBox="0 0 32 32" fill="none" xmlns="http://www.w3.org/2000/svg">
<path d="M21.6514 29.9939H8.99723C8.43117 29.9114 7.90053 29.6686 7.46794 29.2943C7.04028 28.9378 6.53822 28.6817 5.99862 28.5446H4.79917C4.32281 28.542 3.86671 28.3516 3.52986 28.0147C3.19302 27.6779 3.00262 27.2218 3 26.7454V17.2198C2.99998 16.9976 3.04407 16.7776 3.12971 16.5726C3.21534 16.3675 3.34083 16.1815 3.49888 16.0253C3.65693 15.8691 3.84442 15.7458 4.05046 15.6626C4.25651 15.5794 4.47702 15.538 4.69922 15.5406C5.99862 15.5406 7.69783 13.8314 9.55698 11.9223C10.3193 11.2396 10.9301 10.4049 11.3502 9.47182C11.7702 8.53875 11.9902 7.52803 11.9959 6.50477V4.00592C11.9927 3.89198 12.0167 3.77893 12.0658 3.67607C12.3696 3.13608 12.8198 2.6929 13.3644 2.39757C13.9091 2.10225 14.5261 1.96681 15.1444 2.00684C15.7472 2.05426 16.3197 2.29026 16.7808 2.68138C17.2419 3.0725 17.5681 3.59888 17.7132 4.18584C18.3216 6.33553 18.3835 8.60314 17.8931 10.7828H25.3997C25.9938 10.7545 26.5848 10.8849 27.1118 11.1607C27.6389 11.4365 28.0829 11.8477 28.3983 12.3521C28.6887 12.9311 28.8341 13.5721 28.8219 14.2198C28.8098 14.8676 28.6404 15.5026 28.3283 16.0704C28.637 16.8385 28.7403 17.6738 28.6282 18.494C28.516 19.3142 28.1922 20.0911 27.6886 20.7482C27.9585 22.1076 27.8785 24.3166 26.1893 25.436C26.2014 26.6354 25.7749 27.7978 24.9899 28.7045C24.5556 29.1425 24.0337 29.4837 23.4584 29.7059C22.8831 29.9282 22.2673 30.0263 21.6514 29.9939ZM13.5052 4.19584V6.50477C13.4977 7.72555 13.2403 8.93187 12.7486 10.0493C12.2569 11.1667 11.5415 12.1715 10.6465 13.0018C8.43749 15.2707 6.59834 16.9999 4.69922 16.9999C4.52929 16.9999 4.49931 17.1099 4.49931 17.1798V26.7055C4.49791 26.7452 4.50471 26.7848 4.51929 26.8218C4.53386 26.8589 4.5559 26.8925 4.58403 26.9206C4.61216 26.9487 4.64577 26.9708 4.68279 26.9853C4.7198 26.9999 4.75942 27.0067 4.79917 27.0053H5.99862C6.85223 27.1064 7.65797 27.4537 8.31755 28.0049C8.55171 28.1743 8.79905 28.3247 9.05721 28.4547H21.6514C22.0634 28.4825 22.4767 28.425 22.8654 28.2857C23.2541 28.1463 23.6099 27.9282 23.9104 27.645C24.4992 26.9011 24.7848 25.962 24.71 25.0162C24.7009 24.8682 24.736 24.7208 24.8107 24.5927C24.8854 24.4646 24.9965 24.3615 25.1298 24.2966C26.909 23.447 26.1993 20.8082 26.1293 20.6982C26.0903 20.5646 26.0893 20.4228 26.1264 20.2886C26.1635 20.1544 26.2372 20.0332 26.3392 19.9386C26.7698 19.4636 27.0461 18.8692 27.1318 18.2339C27.2175 17.5986 27.1084 16.9522 26.819 16.3802C26.7551 16.2675 26.7214 16.14 26.7214 16.0104C26.7214 15.8807 26.7551 15.7533 26.819 15.6406C27.0806 15.2713 27.242 14.8406 27.2875 14.3904C27.3331 13.9402 27.2612 13.4859 27.0789 13.0717C26.8929 12.7928 26.6349 12.5693 26.3322 12.4251C26.0296 12.2808 25.6935 12.221 25.3597 12.2521H16.9935C16.8846 12.2519 16.777 12.2276 16.6785 12.1809C16.58 12.1343 16.493 12.0664 16.4238 11.9822C16.3502 11.9007 16.2966 11.8032 16.2671 11.6974C16.2376 11.5916 16.2331 11.4804 16.2539 11.3725L16.3139 11.0327C16.8534 8.93107 16.8534 6.72725 16.3139 4.62564C16.252 4.32674 16.0948 4.056 15.8659 3.85412C15.637 3.65224 15.3487 3.53013 15.0444 3.50615C14.7525 3.49777 14.4624 3.55544 14.1959 3.67486C13.9293 3.79428 13.6932 3.97237 13.5052 4.19584Z" fill="black"/>
</svg>
