<svg width="32" height="32" viewBox="0 0 32 32" fill="none" xmlns="http://www.w3.org/2000/svg">
<path fill-rule="evenodd" clip-rule="evenodd" d="M12.206 14.7318C8.44689 14.7318 5.49201 17.7732 5.49201 21.4458V24.5293C5.49201 24.9413 5.15801 25.2753 4.746 25.2753C4.334 25.2753 4 24.9413 4 24.5293V21.4458C4 16.9622 7.60995 13.2398 12.206 13.2398C14.075 13.2398 15.824 13.8996 17.2364 14.986C17.5629 15.2372 17.624 15.7055 17.3728 16.0321C17.1216 16.3587 16.6532 16.4198 16.3267 16.1686C15.1529 15.2656 13.7189 14.7318 12.206 14.7318Z" fill="black"/>
<path fill-rule="evenodd" clip-rule="evenodd" d="M12.1066 3.49201C10.2663 3.49201 8.77442 4.98386 8.77442 6.82416C8.77442 8.66445 10.2663 10.1563 12.1066 10.1563C13.9469 10.1563 15.4387 8.66445 15.4387 6.82416C15.4387 4.98386 13.9469 3.49201 12.1066 3.49201ZM7.28242 6.82416C7.28242 4.15985 9.44226 2 12.1066 2C14.7709 2 16.9307 4.15985 16.9307 6.82416C16.9307 9.48846 14.7709 11.6483 12.1066 11.6483C9.44226 11.6483 7.28242 9.48846 7.28242 6.82416Z" fill="black"/>
<path d="M22.0533 16.4725C18.373 16.4725 15.2895 19.4565 15.2895 23.2362C15.2895 26.9165 18.2735 30 22.0533 30C25.7336 30 28.8171 27.016 28.8171 23.2362C28.8171 19.4565 25.833 16.4725 22.0533 16.4725ZM25.2362 25.2256C25.0373 25.4245 24.8384 25.524 24.6394 25.524C24.54 25.524 24.341 25.524 24.2416 25.4245L21.7549 23.833C21.5559 23.7336 21.4565 23.4352 21.4565 23.2362V19.8544C21.4565 19.4565 21.7549 19.0586 22.2522 19.0586C22.6501 19.0586 23.048 19.357 23.048 19.8544V22.8384L25.1368 24.2309C25.3357 24.4298 25.4352 24.8277 25.2362 25.2256Z" fill="black"/>
</svg>
