<svg width="32" height="32" viewBox="0 0 32 32" fill="none" xmlns="http://www.w3.org/2000/svg">
<path fill-rule="evenodd" clip-rule="evenodd" d="M2 14.4C2 12.8858 3.23579 11.65 4.75 11.65H15.25C15.6642 11.65 16 11.9858 16 12.4C16 12.8142 15.6642 13.15 15.25 13.15H4.75C4.06421 13.15 3.5 13.7142 3.5 14.4V24.7C3.5 25.3858 4.06421 25.95 4.75 25.95H18.05C18.7358 25.95 19.3 25.3858 19.3 24.7V21.6C19.3 21.3054 19.4725 21.0381 19.7409 20.9166C20.0094 20.7952 20.324 20.8422 20.5453 21.0368L26.3453 26.1368L26.3587 26.1489C27.1528 26.8819 28.5 26.281 28.5 25.2V19.3C28.5 18.8858 28.8358 18.55 29.25 18.55C29.6642 18.55 30 18.8858 30 19.3V25.2C30 27.5159 27.1547 28.9144 25.3484 27.2577L20.8 23.2582V24.7C20.8 26.2142 19.5642 27.45 18.05 27.45H4.75C3.23579 27.45 2 26.2142 2 24.7V14.4Z" fill="black"/>
<path d="M6.05 24.7C6.76797 24.7 7.35 24.118 7.35 23.4C7.35 22.682 6.76797 22.1 6.05 22.1C5.33203 22.1 4.75 22.682 4.75 23.4C4.75 24.118 5.33203 24.7 6.05 24.7Z" fill="black"/>
<path d="M29.75 14.4L24.95 5.9C24.55 5.3 24.05 5 23.35 5C22.75 5 22.15 5.3 21.85 5.9L17.05 14.4C16.75 14.9 16.75 15.6 17.05 16.2C17.35 16.7 17.95 17.1 18.55 17.1H28.25C28.85 17.1 29.45 16.8 29.75 16.2C30.05 15.6 30.05 15 29.75 14.4ZM22.65 8.3C22.65 7.9 22.95 7.5 23.45 7.5C23.85 7.5 24.25 7.8 24.25 8.3V11.4C24.25 11.8 23.95 12.2 23.45 12.2C23.05 12.2 22.65 11.9 22.65 11.4V8.3ZM23.35 15.2C22.75 15.2 22.35 14.7 22.35 14.2C22.35 13.7 22.75 13.2 23.35 13.2C23.95 13.2 24.35 13.7 24.35 14.2C24.35 14.7 23.95 15.2 23.35 15.2Z" fill="black"/>
</svg>
