<svg width="32" height="32" viewBox="0 0 32 32" fill="none" xmlns="http://www.w3.org/2000/svg">
<path d="M13.9573 2H2.79715C2.29893 2 2 2.29893 2 2.79715V13.9573C2 14.3559 2.29893 14.7544 2.79715 14.7544H13.9573C14.3559 14.7544 14.7544 14.4555 14.7544 13.9573V2.79715C14.6548 2.29893 14.3559 2 13.9573 2ZM13.1601 13.1601H3.49466V3.49466H13.1601V13.1601Z" fill="black"/>
<path d="M29.1032 2H17.9431C17.5445 2 17.1459 2.29893 17.1459 2.79715V13.9573C17.1459 14.3559 17.4448 14.7544 17.9431 14.7544H29.1032C29.5018 14.7544 29.9004 14.4555 29.9004 13.9573V2.79715C29.9004 2.29893 29.6014 2 29.1032 2ZM28.4057 13.1601H18.7402V3.49466H28.4057V13.1601Z" fill="black"/>
<path d="M13.9573 17.2456H2.79715C2.29893 17.2456 2 17.5445 2 17.9431V29.1032C2 29.6014 2.29893 29.9004 2.79715 29.9004H13.9573C14.3559 29.9004 14.7544 29.6014 14.7544 29.1032V17.9431C14.6548 17.5445 14.3559 17.2456 13.9573 17.2456ZM13.1601 28.4057H3.49466V18.7402H13.1601V28.4057Z" fill="black"/>
<path d="M29.1032 17.2456H17.9431C17.5445 17.2456 17.1459 17.5445 17.1459 18.0427V29.2028C17.1459 29.6014 17.4448 30 17.9431 30H29.1032C29.5018 30 29.9004 29.7011 29.9004 29.2028V17.9431C29.9004 17.5445 29.6014 17.2456 29.1032 17.2456ZM28.4057 28.4057H18.7402V18.7402H28.4057V28.4057Z" fill="black"/>
</svg>
