<svg width="32" height="32" viewBox="0 0 32 32" fill="none" xmlns="http://www.w3.org/2000/svg">
<path d="M19.3 14.5H25.8C27.2 14.5 28.3 13.4 28.3 12V5.5C28.3 4.1 27.2 3 25.8 3H19.3C17.9 3 16.8 4.1 16.8 5.5V12C16.8 13.4 17.9 14.5 19.3 14.5ZM18.2 5.5C18.2 4.9 18.7 4.4 19.3 4.4H25.8C26.4 4.4 26.9 4.9 26.9 5.5V12C26.9 12.6 26.4 13.1 25.8 13.1H19.3C18.7 13.1 18.2 12.6 18.2 12V5.5Z" fill="black"/>
<path d="M12 3H5.5C4.1 3 3 4.1 3 5.5V12C3 13.4 4.1 14.5 5.5 14.5H12C13.4 14.5 14.5 13.4 14.5 12V5.5C14.5 4.1 13.4 3 12 3ZM13.1 12C13.1 12.6 12.6 13.1 12 13.1H5.5C4.9 13.1 4.4 12.6 4.4 12V5.5C4.4 4.9 4.9 4.4 5.5 4.4H12C12.6 4.4 13.1 4.9 13.1 5.5V12Z" fill="black"/>
<path d="M12 16.8H5.5C4.1 16.8 3 17.9 3 19.3V25.8C3 27.2 4.1 28.3 5.5 28.3H12C13.4 28.3 14.5 27.2 14.5 25.8V19.3C14.5 17.9 13.4 16.8 12 16.8ZM13.1 25.8C13.1 26.4 12.6 26.9 12 26.9H5.5C4.9 26.9 4.4 26.4 4.4 25.8V19.3C4.4 18.7 4.9 18.2 5.5 18.2H12C12.6 18.2 13.1 18.7 13.1 19.3V25.8Z" fill="black"/>
<path d="M27.6 21.8H23.3V17.5C23.3 17.1 23 16.7 22.5 16.7C22 16.7 21.7 17 21.7 17.5V21.8H17.4C17 21.8 16.6 22.1 16.6 22.6C16.6 23.1 16.9 23.4 17.4 23.4H21.7V27.7C21.7 28.1 22 28.5 22.5 28.5C23 28.5 23.3 28.2 23.3 27.7V23.4H27.6C28 23.4 28.4 23.1 28.4 22.6C28.4 22.1 28.1 21.8 27.6 21.8Z" fill="black"/>
</svg>
