<svg width="32" height="32" viewBox="0 0 32 32" fill="none" xmlns="http://www.w3.org/2000/svg">
<path d="M18.3 13.5H24.8C26.2 13.5 27.3 12.4 27.3 11V4.5C27.3 3.1 26.2 2 24.8 2H18.3C16.9 2 15.8 3.1 15.8 4.5V11C15.8 12.4 16.9 13.5 18.3 13.5ZM17.2 4.5C17.2 3.9 17.7 3.4 18.3 3.4H24.8C25.4 3.4 25.9 3.9 25.9 4.5V11C25.9 11.6 25.4 12.1 24.8 12.1H18.3C17.7 12.1 17.2 11.6 17.2 11V4.5Z" fill="black"/>
<path d="M11 2H4.5C3.1 2 2 3.1 2 4.5V11C2 12.4 3.1 13.5 4.5 13.5H11C12.4 13.5 13.5 12.4 13.5 11V4.5C13.5 3.1 12.4 2 11 2ZM12.1 11C12.1 11.6 11.6 12.1 11 12.1H4.5C3.9 12.1 3.4 11.6 3.4 11V4.5C3.4 3.9 3.9 3.4 4.5 3.4H11C11.6 3.4 12.1 3.9 12.1 4.5V11Z" fill="black"/>
<path d="M11 15.8H4.5C3.1 15.8 2 16.9 2 18.3V24.8C2 26.2 3.1 27.3 4.5 27.3H11C12.4 27.3 13.5 26.2 13.5 24.8V18.3C13.5 16.9 12.4 15.8 11 15.8ZM12.1 24.8C12.1 25.4 11.6 25.9 11 25.9H4.5C3.9 25.9 3.4 25.4 3.4 24.8V18.3C3.4 17.7 3.9 17.2 4.5 17.2H11C11.6 17.2 12.1 17.7 12.1 18.3V24.8Z" fill="black"/>
<path d="M29.3 28.4L25.8 24.9C26.6 23.9 27.1 22.6 27.1 21.2C27.1 17.9 24.4 15.3 21.2 15.3C18 15.3 15.3 18 15.3 21.2C15.3 24.5 18 27.1 21.2 27.1C22.6 27.1 23.9 26.6 24.9 25.8L28.4 29.3C28.5 29.4 28.7 29.5 28.9 29.5C29.1 29.5 29.2 29.4 29.4 29.3C29.6 29.1 29.6 28.7 29.3 28.4ZM21.2 25.7C18.7 25.7 16.6 23.7 16.6 21.1C16.6 18.6 18.6 16.5 21.2 16.5C23.8 16.5 25.8 18.5 25.8 21.1C25.7 23.7 23.7 25.7 21.2 25.7Z" fill="black"/>
</svg>
