<svg width="32" height="32" viewBox="0 0 32 32" fill="none" xmlns="http://www.w3.org/2000/svg">
<path d="M26.9582 6H5.04184C3.3622 6 2 7.36999 2 9.05923V22.1149C2 22.1226 2 22.1312 2 22.1408C2 23.83 3.3622 25.2 5.04184 25.2H26.9582C28.6378 25.2 30 23.83 30 22.1408C30 22.1321 30 22.1226 30 22.1139V22.1149V9.05923C30 7.36999 28.6378 6 26.9582 6ZM5.81779 22.6393C5.81303 22.5473 5.81112 22.4389 5.81112 22.3296C5.81112 19.2206 7.88731 16.5985 10.7213 15.7903L10.769 15.7788C9.32864 15.3071 8.30293 13.9755 8.28768 12.4013V12.3994C8.28768 10.3707 9.92347 8.7256 11.9406 8.7256C13.9576 8.7256 15.5934 10.3707 15.5934 12.3994C15.5677 13.9908 14.5153 15.3292 13.073 15.7721L13.0482 15.7788C15.9433 16.5899 18.0309 19.2186 18.0309 22.3373C18.0309 22.4437 18.0281 22.5492 18.0233 22.6546L18.0242 22.6393H5.81779ZM22.3635 21.1169C21.2434 21.1169 21.1547 21.1169 21.1547 20.5282V19.0566C21.169 18.4526 21.659 17.9685 22.2615 17.9685C22.3196 17.9685 22.3778 17.9733 22.4331 17.9819L22.4264 17.9809C23.2023 17.9809 23.699 17.4949 23.7752 15.6388C23.8515 13.7828 23.3043 13.2967 22.5026 13.2967C22.4645 13.3015 22.4207 13.3044 22.3749 13.3044C21.7848 13.3044 21.3053 12.8231 21.3053 12.2287C21.3053 12.2258 21.3053 12.223 21.3053 12.221V10.7619C21.3053 10.1732 21.4073 10.1732 22.5779 10.1732C23.7485 10.1732 25.4797 12.4003 25.4158 15.6264C25.3519 18.8524 23.4816 21.0795 22.3616 21.0795L22.3635 21.1169Z" fill="black"/>
</svg>
