<svg width="32" height="32" viewBox="0 0 32 32" fill="none" xmlns="http://www.w3.org/2000/svg">
<path d="M19.0569 26.9601L25.7134 13.6202C27.9163 9.45579 26.9418 4.48987 23.441 2.6728C19.9428 0.856174 15.3266 2.85459 13.1194 7.02842L5.8445 21.3953C4.24774 24.497 4.9655 28.164 7.57319 29.5012C10.1946 30.8454 13.5837 29.3723 15.1699 26.2893L22.3746 11.9269C23.4054 9.95381 22.9418 7.62075 21.2625 6.74211C19.5149 5.87157 17.3587 6.80556 16.3196 8.79387L9.65722 22.1451C9.48854 22.4832 9.62583 22.8939 9.96387 23.0626C10.3019 23.2313 10.7127 23.094 10.8813 22.756L17.5379 9.41611C18.2498 8.05424 19.6291 7.45677 20.6404 7.96048C21.5735 8.44887 21.8697 9.93898 21.1569 11.3035L13.9503 25.6696C12.688 28.1228 10.0876 29.2531 8.19741 28.2838C6.33464 27.3287 5.78206 24.5055 7.06293 22.0174L14.3343 7.6572C16.211 4.1087 20.0431 2.44975 22.8107 3.88697C25.5711 5.31982 26.379 9.43627 24.4967 12.995L17.8328 26.3492C17.6641 26.6873 17.8014 27.098 18.1394 27.2667C18.4774 27.4354 18.8882 27.2981 19.0569 26.9601Z" fill="black"/>
</svg>
