<svg width="32" height="32" viewBox="0 0 32 32" fill="none" xmlns="http://www.w3.org/2000/svg">
<path fill-rule="evenodd" clip-rule="evenodd" d="M6.07679 25.9232C8.707 28.5534 12.2806 30.0214 16.0002 29.9998C23.7321 29.9998 30 23.7316 30 15.9998C30 8.26791 23.7321 2 16.0002 2C8.26838 2 2.00024 8.26791 2.00024 15.9998C1.97862 19.7194 3.44657 23.293 6.07679 25.9232ZM16.5439 15.4561H22.9322C23.8014 15.4248 24.5827 15.9829 24.835 16.8153C24.8463 17.3233 24.6494 17.8139 24.2901 18.1732C23.9308 18.5325 23.4402 18.7294 22.9322 18.7182H14.777C14.3193 18.7651 13.8636 18.6132 13.5256 18.3012C13.1876 17.9892 12.9998 17.547 13.01 17.0871V8.93192C12.9631 8.4743 13.115 8.01858 13.427 7.68056C13.739 7.34254 14.1811 7.15477 14.641 7.16496C15.1491 7.15371 15.6397 7.35057 15.999 7.7099C16.3583 8.06923 16.5552 8.5598 16.5439 9.06784V15.4561Z" fill="black"/>
</svg>
