<svg width="32" height="32" viewBox="0 0 32 32" fill="none" xmlns="http://www.w3.org/2000/svg">
<path fill-rule="evenodd" clip-rule="evenodd" d="M17.48 8C17.8335 8 18.12 8.28654 18.12 8.64V24C18.12 24.3535 17.8335 24.64 17.48 24.64C17.1265 24.64 16.84 24.3535 16.84 24V8.64C16.84 8.28654 17.1265 8 17.48 8ZM13.64 10.88C13.9935 10.88 14.28 11.1665 14.28 11.52V20.48C14.28 20.8335 13.9935 21.12 13.64 21.12C13.2865 21.12 13 20.8335 13 20.48V11.52C13 11.1665 13.2865 10.88 13.64 10.88ZM21.32 10.88C21.6735 10.88 21.96 11.1665 21.96 11.52V18.24C21.96 18.5935 21.6735 18.88 21.32 18.88C20.9665 18.88 20.68 18.5935 20.68 18.24V11.52C20.68 11.1665 20.9665 10.88 21.32 10.88ZM5.64 11.84C5.99346 11.84 6.28 12.1265 6.28 12.48V16.32C6.28 16.6735 5.99346 16.96 5.64 16.96C5.28654 16.96 5 16.6735 5 16.32V12.48C5 12.1265 5.28654 11.84 5.64 11.84ZM9.48 8.96C9.83346 8.96 10.12 9.24654 10.12 9.6V16.32C10.12 16.6735 9.83346 16.96 9.48 16.96C9.12654 16.96 8.84 16.6735 8.84 16.32V9.6C8.84 9.24654 9.12654 8.96 9.48 8.96ZM25.48 10.88C25.8335 10.88 26.12 11.1665 26.12 11.52V15.36C26.12 15.7135 25.8335 16 25.48 16C25.1265 16 24.84 15.7135 24.84 15.36V11.52C24.84 11.1665 25.1265 10.88 25.48 10.88Z" fill="black"/>
</svg>
