<svg width="32" height="32" viewBox="0 0 32 32" fill="none" xmlns="http://www.w3.org/2000/svg">
<path fill-rule="evenodd" clip-rule="evenodd" d="M2.91147 29.8474L2 28.9306L5.36709 25.5835C5.04533 25.5355 4.7753 25.3083 4.68303 24.9933C4.57921 24.6364 4.7307 24.2565 5.05285 24.063C7.94035 22.3272 9.22182 17.4495 9.07613 13.2628C9.07558 9.73951 11.4432 6.6653 14.8399 5.65532L15.09 5.58095V4.61604C15.09 3.47666 16.0412 2.55044 17.2064 2.55044C18.3722 2.55044 19.3228 3.47637 19.3228 4.61604V5.58101L19.573 5.65534C20.9867 6.07538 22.2231 6.85243 23.1845 7.86951L29.0885 2L30 2.91682L23.9982 8.88366C24.8483 10.1405 25.3368 11.6387 25.3381 13.2272C25.3003 14.1854 25.3932 15.9231 25.7407 17.692C26.3237 20.6599 27.4692 22.9262 29.359 24.0629C29.6814 24.2564 29.8331 24.6365 29.7295 24.9944C29.6262 25.3491 29.2946 25.593 28.9173 25.593H21.4573L21.3946 25.8589C20.9488 27.7491 19.216 29.114 17.2064 29.114C15.1968 29.114 13.4641 27.7491 13.0192 25.859L12.9565 25.593L7.19077 25.5926L2.91147 29.8474ZM22.9459 9.92951L8.54933 24.2417L26.9885 24.2417L26.5834 23.6887C25.3182 21.9614 24.5346 19.6729 24.1412 17.0857C23.8975 15.4836 23.8428 14.0921 23.875 13.1902C23.8748 12.0019 23.5357 10.8867 22.9459 9.92951ZM17.1957 6.76435C13.5111 6.76435 10.5163 9.66085 10.5163 13.2199C10.5487 14.0969 10.4927 15.4981 10.2493 17.0934C9.95237 19.0393 9.43437 20.817 8.65618 22.3136L22.1538 8.89422C20.9295 7.58811 19.1588 6.76435 17.1957 6.76435Z" fill="black"/>
</svg>
