<svg width="32" height="32" viewBox="0 0 32 32" fill="none" xmlns="http://www.w3.org/2000/svg">
<path d="M19.0737 11.9411C20.3993 11.9411 21.4783 13.0235 21.4783 14.354V21.7454C21.4783 23.0757 20.3993 24.1581 19.0737 24.1581H10.5217C10.3969 24.1581 10.2751 24.1965 10.1728 24.2684L5.04348 27.8718V24.7689C5.04348 24.4316 4.74091 24.1581 4.40446 24.1581C3.07889 24.1581 2 23.0757 2 21.7454V14.354C2 13.0235 3.07889 11.9411 4.40446 11.9411H19.0737ZM27.5955 4C28.9211 4 30 5.08241 30 6.41298V13.8044C30 15.1346 28.9211 16.217 27.5652 16.217C27.2288 16.217 26.9565 16.4905 26.9565 16.8278V19.9307L22.6957 16.9375V14.354C22.6957 12.3499 21.071 10.7194 19.0737 10.7194H10.5217V6.41298C10.5217 5.08241 11.6007 4 12.9263 4H27.5955Z" fill="black"/>
</svg>
