<svg width="32" height="32" viewBox="0 0 32 32" fill="none" xmlns="http://www.w3.org/2000/svg">
<path fill-rule="evenodd" clip-rule="evenodd" d="M9.58268 9.4582C11.5501 8.6563 13.6295 8.2388 15.7835 8.21248C15.8555 8.2105 16.1445 8.2105 16.2164 8.21248C18.8295 8.24435 21.3328 8.85203 23.6596 10.0232C25.939 11.1705 27.9745 12.8507 29.546 14.882C30.1513 15.6645 30.1513 16.7574 29.546 17.54C27.9745 19.5713 25.939 21.2515 23.6596 22.3988C23.4037 22.5276 23.1457 22.6495 22.8857 22.7647L25.0171 24.8948C25.1945 25.0722 25.2025 25.3573 25.0352 25.5443C24.8794 25.7185 24.612 25.7334 24.4379 25.5776L24.4292 25.5696L21.9888 23.1317C20.1488 23.824 18.2147 24.1851 16.2164 24.2095C16.1445 24.2115 15.8555 24.2115 15.7835 24.2095C13.1704 24.1776 10.6672 23.57 8.34036 22.3988C6.06094 21.2515 4.02548 19.5713 2.45404 17.54C1.84865 16.7575 1.84865 15.6645 2.45404 14.882C4.02554 12.8507 6.06094 11.1705 8.34036 10.0232C8.46148 9.96225 8.58307 9.90282 8.70513 9.84491L5.64978 6.79133C5.47221 6.61377 5.46418 6.32845 5.63149 6.14119C5.78716 5.96696 6.05459 5.95191 6.22882 6.10758L6.23757 6.11562L9.58268 9.4582ZM10.7372 11.8777C9.77817 13.0593 9.20218 14.5686 9.20218 16.2109C9.20218 19.9898 12.2517 23.0642 16 23.0642C17.649 23.0642 19.1627 22.4692 20.3411 21.481L17.6041 18.7452C17.1399 19.0401 16.5895 19.211 16 19.211C14.3458 19.211 13 17.8652 13 16.211C13 15.6217 13.1708 15.0716 13.4654 14.6075L10.7372 11.8777ZM9.56924 10.7103C9.32731 10.8174 9.08728 10.9308 8.84923 11.0506C6.72074 12.122 4.81992 13.6911 3.35223 15.5882C3.06856 15.9549 3.06856 16.4671 3.35223 16.8337C4.81998 18.7309 6.7208 20.3 8.84923 21.3714C9.4538 21.6756 10.0713 21.9388 10.7 22.1616C9.0823 20.6958 8.06315 18.5712 8.06315 16.211C8.06315 14.254 8.76382 12.4591 9.92535 11.0673L9.56924 10.7103ZM21.2997 10.2599C22.9175 11.7258 23.9369 13.8504 23.9369 16.2109C23.9369 18.3206 23.1226 20.242 21.7944 21.673L22.0105 21.8898C22.3953 21.7328 22.7756 21.5602 23.1508 21.3713C25.2793 20.3 27.1801 18.7309 28.6478 16.8337C28.9315 16.467 28.9315 15.9549 28.6479 15.5881C27.1801 13.6909 25.2793 12.1219 23.1509 11.0505C22.5462 10.7461 21.9286 10.4827 21.2997 10.2599ZM16 9.35771C14.2 9.35771 12.5612 10.0666 11.3439 11.222L14.0524 13.9309C14.5768 13.4822 15.2573 13.211 16 13.211C17.6543 13.211 19 14.5568 19 16.211C19 16.9537 18.7288 17.6341 18.2801 18.1586L20.9865 20.8641C22.1102 19.6411 22.7979 18.0055 22.7979 16.211C22.7979 12.432 19.7484 9.35771 16 9.35771ZM14.3302 15.4735C14.2302 15.6992 14.1746 15.9487 14.1746 16.211C14.1746 17.2176 14.9935 18.0364 16 18.0364C16.2623 18.0364 16.5118 17.9808 16.7374 17.8808L14.3302 15.4735ZM16 14.3856C15.5811 14.3856 15.1948 14.5274 14.8864 14.7655L17.4466 17.3232C17.684 17.015 17.8254 16.6292 17.8254 16.211C17.8254 15.2044 17.0065 14.3856 16 14.3856Z" fill="black"/>
</svg>
