<svg width="32" height="32" viewBox="0 0 32 32" fill="none" xmlns="http://www.w3.org/2000/svg">
<path fill-rule="evenodd" clip-rule="evenodd" d="M15.7835 8.00149C15.8555 7.9995 16.1445 7.9995 16.2164 8.00149C18.8295 8.03336 21.3328 8.64103 23.6596 9.81222C25.939 10.9595 27.9745 12.6397 29.546 14.671C30.1513 15.4535 30.1513 16.5464 29.546 17.329C27.9745 19.3603 25.939 21.0405 23.6596 22.1878C21.3328 23.359 18.8295 23.9666 16.2164 23.9985C16.1445 24.0005 15.8555 24.0005 15.7835 23.9985C13.1704 23.9666 10.6672 23.359 8.34036 22.1878C6.06094 21.0405 4.02548 19.3603 2.45404 17.329C1.84865 16.5465 1.84865 15.4535 2.45404 14.671C4.02554 12.6397 6.06094 10.9595 8.34036 9.81222C10.6672 8.64103 13.1705 8.03341 15.7835 8.00149ZM16 9.14671C12.2517 9.14671 9.20218 12.221 9.20218 15.9999C9.20218 19.7788 12.2517 22.8532 16 22.8532C19.7484 22.8532 22.7979 19.7789 22.7979 16C22.7979 12.221 19.7484 9.14671 16 9.14671ZM10.6998 10.0496C10.0711 10.2723 9.45374 10.5354 8.84923 10.8396C6.72074 11.911 4.81992 13.4801 3.35223 15.3772C3.06856 15.7439 3.06856 16.2561 3.35223 16.6228C4.81998 18.5199 6.7208 20.089 8.84923 21.1604C9.4538 21.4647 10.0713 21.7279 10.7 21.9506C9.0823 20.4848 8.06315 18.3602 8.06315 16C8.06315 13.6398 9.08225 11.5155 10.6998 10.0496ZM21.2997 10.0489C22.9175 11.5148 23.9369 13.6395 23.9369 15.9999C23.9369 18.3591 22.9186 20.4828 21.3021 21.9487C21.9301 21.7261 22.547 21.4642 23.1508 21.1603C25.2793 20.089 27.1801 18.5199 28.6478 16.6227C28.9315 16.256 28.9315 15.7439 28.6479 15.3771C27.1801 13.4799 25.2793 11.9109 23.1509 10.8395C22.5462 10.5351 21.9286 10.2717 21.2997 10.0489ZM16 13C17.6543 13 19 14.3458 19 16C19 17.6542 17.6542 19 16 19C14.3458 19 13 17.6542 13 16C13 14.3458 14.3458 13 16 13ZM16 14.1746C14.9934 14.1746 14.1746 14.9934 14.1746 16C14.1746 17.0066 14.9935 17.8254 16 17.8254C17.0065 17.8254 17.8254 17.0066 17.8254 16C17.8254 14.9934 17.0065 14.1746 16 14.1746Z" fill="black"/>
</svg>
