<svg width="32" height="32" viewBox="0 0 32 32" fill="none" xmlns="http://www.w3.org/2000/svg">
<path d="M10.2746 15.5328C9.91363 15.0183 7.91041 14.7927 6.96294 14.7655C6.16686 14.7624 5.3762 14.8967 4.62585 15.1628C3.57229 15.522 2.77785 16.3986 2.52336 17.4825L2 20.5695C3.32759 21.3157 4.75605 21.866 6.24106 22.2033" stroke="black"/>
<path fill-rule="evenodd" clip-rule="evenodd" d="M6.70126 13.2763C5.18127 13.2763 3.94908 12.0437 3.94908 10.5232C3.94908 9.00276 5.18127 7.77019 6.70126 7.77019C8.22124 7.77019 9.45343 9.00276 9.45343 10.5232C9.45343 12.0437 8.22124 13.2763 6.70126 13.2763Z" stroke="black"/>
<path d="M21.6984 15.5328C22.0593 15.0183 24.0625 14.7927 25.01 14.7655C25.8061 14.7624 26.5967 14.8967 27.3471 15.1628C28.4111 15.5142 29.217 16.3922 29.4766 17.4825L30 20.5695C28.6724 21.3157 27.2439 21.866 25.7589 22.2033" stroke="black"/>
<path fill-rule="evenodd" clip-rule="evenodd" d="M25.2807 13.2762C26.3978 13.2946 27.4151 12.6356 27.8553 11.6084C28.2955 10.5812 28.0714 9.38979 27.2879 8.59305C26.5045 7.7963 25.3173 7.55237 24.2833 7.97571C23.2493 8.39905 22.5738 9.40564 22.5736 10.5232C22.5615 11.2492 22.8414 11.9496 23.3504 12.4672C23.8594 12.9849 24.5549 13.2763 25.2807 13.2762Z" stroke="black"/>
<path fill-rule="evenodd" clip-rule="evenodd" d="M16.0767 26.9963C13.1283 26.9979 10.2259 26.2658 7.63068 24.8661L7.3329 24.7036L8.18111 19.6488C8.60509 17.881 9.90132 16.4516 11.6191 15.8578C12.8534 15.4334 14.1489 15.2138 15.4541 15.2079H16.6993C18.0015 15.2147 19.2939 15.4342 20.5253 15.8578C22.2423 16.4424 23.54 17.8665 23.9633 19.6308L24.8205 24.7036L24.5137 24.8661C21.922 26.2665 19.0223 26.9986 16.0767 26.9963Z" stroke="black"/>
<path fill-rule="evenodd" clip-rule="evenodd" d="M16.0767 14.3053C13.8397 14.2805 12.0422 12.4541 12.0522 10.2163C11.982 8.73422 12.7325 7.33363 14.0052 6.57156C15.2779 5.80948 16.8665 5.80948 18.1392 6.57156C19.4119 7.33363 20.1624 8.73422 20.0922 10.2163C20.1023 12.4507 18.3102 14.2756 16.0767 14.3053Z" stroke="black"/>
</svg>
