<svg width="32" height="32" viewBox="0 0 32 32" fill="none" xmlns="http://www.w3.org/2000/svg">
<path d="M16 2C8.2678 2 2 8.2678 2 16C2 23.7322 8.2678 30 16 30C23.7322 30 30 23.7322 30 16C30 8.2678 23.7322 2 16 2ZM15.5954 25.0384C14.8226 25.0384 14.1954 24.4112 14.1954 23.6384C14.1954 22.8656 14.8226 22.2384 15.5954 22.2384C16.3682 22.2384 16.9954 22.8656 16.9954 23.6384C16.9954 24.4112 16.3682 25.0384 15.5954 25.0384ZM18.7062 15.6108C17.5078 16.28 16.4816 16.9646 16.6216 19.9354V20.277H14.5524V19.9354C14.3508 15.6738 16.294 14.5846 17.6632 13.7138C18.6586 13.1538 19.1094 12.8892 19.1094 11.723C19.0982 10.9726 18.765 10.302 18.2414 9.8428L18.2386 9.84C17.6548 9.3528 16.8974 9.056 16.07 9.056C15.9356 9.056 15.8026 9.0644 15.671 9.0798L15.6864 9.0784C13.851 9.2492 12.7926 9.8876 12.8864 12.6092V12.8892H10.7864V12.6554C10.7864 9.2016 12.3418 7.3046 15.4526 6.977C15.5996 6.963 15.7704 6.9546 15.944 6.9546C17.365 6.9546 18.66 7.488 19.6428 8.3658L19.6372 8.3616C20.5836 9.2114 21.18 10.435 21.1926 11.7972V11.8C21.194 11.8476 21.1954 11.905 21.1954 11.961C21.1954 13.6116 20.1832 15.0256 18.7454 15.6178L18.7188 15.6276L18.7062 15.6108Z" fill="black"/>
</svg>
