<svg width="32" height="32" viewBox="0 0 32 32" fill="none" xmlns="http://www.w3.org/2000/svg">
<path fill-rule="evenodd" clip-rule="evenodd" d="M16.0002 8.46424C12.1021 8.46424 8.93075 11.6194 8.93075 15.4977C8.93075 16.036 8.99399 16.5783 9.12673 17.136L9.31251 17.7747L9.3135 17.7741C9.31778 17.79 9.32272 17.8059 9.32733 17.8203C9.42352 18.0927 9.53782 18.363 9.65475 18.5948C9.95746 19.2901 10.4058 20.2799 10.8271 21.056C11.1163 21.5899 11.3462 22.4506 11.4746 23.4788C11.5204 23.8473 11.5362 24.0995 11.5372 24.1241L11.5494 24.3672C11.5659 24.674 11.8334 24.9152 12.1575 24.9152H19.8409C20.1653 24.9152 20.4328 24.6737 20.4496 24.3666L20.4628 24.1235C20.4756 23.9204 20.6041 22.1033 21.1736 21.0573C21.5942 20.2802 22.0425 19.2888 22.3317 18.622C22.4622 18.3617 22.5778 18.0915 22.6608 17.8493C22.6717 17.825 22.6812 17.7997 22.6881 17.7738V17.7744L22.8808 17.1082C23.007 16.5758 23.0699 16.035 23.0699 15.4974C23.0702 11.6197 19.8995 8.46424 16.0002 8.46424ZM21.7006 16.8301L21.5224 17.4424C21.5198 17.4468 21.5188 17.4518 21.5175 17.4552C21.4378 17.6836 21.3416 17.9092 21.2191 18.1558C20.9252 18.8298 20.4914 19.7887 20.0909 20.5286C19.5309 21.5565 19.3333 23.0675 19.2694 23.7618H12.7296C12.7191 23.647 12.7039 23.5056 12.6842 23.3443C12.5814 22.5211 12.3643 21.3649 11.9098 20.5286C11.5079 19.7887 11.0741 18.8304 10.7684 18.1286C10.6657 17.9248 10.5754 17.7133 10.4838 17.4642L10.3066 16.8573C10.2009 16.4092 10.1472 15.9523 10.1472 15.4983C10.1472 12.2557 12.7721 9.61822 15.9992 9.61822C19.2262 9.61822 21.8525 12.2557 21.8525 15.4983C21.8528 15.9505 21.7991 16.4086 21.7006 16.8301ZM19.3333 26.3048H12.6674C12.3314 26.3048 12.0587 26.047 12.0587 25.7281C12.0587 25.4092 12.3314 25.1514 12.6674 25.1514H19.3333C19.6696 25.1514 19.9423 25.4092 19.9423 25.7281C19.9423 26.047 19.6689 26.3048 19.3333 26.3048ZM19.3333 27.676H12.6674C12.3314 27.676 12.0587 27.4182 12.0587 27.0993C12.0587 26.78 12.3314 26.5223 12.6674 26.5223H19.3333C19.6696 26.5223 19.9423 26.7797 19.9423 27.0993C19.9423 27.4182 19.6689 27.676 19.3333 27.676ZM18.853 29.0468H13.147C12.811 29.0468 12.5382 28.7891 12.5382 28.4701C12.5382 28.1509 12.8113 27.8932 13.147 27.8932H18.853C19.1893 27.8932 19.4621 28.1506 19.4621 28.4701C19.4621 28.7891 19.1897 29.0468 18.853 29.0468ZM13.3334 19.619C13.1325 19.619 12.9355 19.5244 12.8196 19.3522C9.71206 14.7391 12.7599 12.0098 13.4026 11.5099C13.6621 11.3074 14.0462 11.3433 14.2593 11.5895C14.4724 11.8357 14.4352 12.1989 14.1753 12.4008C13.672 12.7931 11.2908 14.9394 13.8456 18.7318C14.0264 19.0008 13.9438 19.3569 13.6602 19.5288C13.5587 19.5897 13.4457 19.619 13.3334 19.619ZM29.3913 16.0001H25.9093C25.573 16.0001 25.3002 15.7417 25.3002 15.4234C25.3002 15.1048 25.5726 14.8467 25.9093 14.8467H29.3913C29.7276 14.8467 30 15.1048 30 15.4234C30 15.7417 29.7279 16.0001 29.3913 16.0001ZM6.09105 16.0001H2.60872C2.27274 16.0001 2 15.7417 2 15.4234C2 15.1048 2.27274 14.8467 2.60872 14.8467H6.09105C6.42703 14.8467 6.69977 15.1048 6.69977 15.4234C6.69977 15.7417 6.42703 16.0001 6.09105 16.0001ZM15.9995 6.4521C15.6635 6.4521 15.3908 6.19403 15.3908 5.87542V2.57668C15.3908 2.25807 15.6635 2 15.9995 2C16.3358 2 16.6082 2.25838 16.6082 2.57668V5.87542C16.6082 6.19403 16.3361 6.4521 15.9995 6.4521ZM23.0666 9.6176C22.9108 9.6176 22.755 9.56112 22.6361 9.44846C22.3983 9.22285 22.3983 8.85868 22.6361 8.63306L25.0983 6.30044C25.3361 6.07483 25.7215 6.07483 25.959 6.30044C26.1968 6.52575 26.1968 6.89023 25.959 7.11553L23.4968 9.44846C23.3779 9.56174 23.2224 9.6176 23.0666 9.6176ZM8.93371 9.50432C8.77791 9.50432 8.6221 9.44815 8.50319 9.33519L6.04099 7.00257C5.80283 6.77695 5.80283 6.41247 6.04099 6.18717C6.27914 5.96186 6.66354 5.96155 6.90169 6.18717L9.3639 8.51978C9.60205 8.7454 9.60205 9.10957 9.3639 9.33519C9.24466 9.44815 9.08885 9.50432 8.93371 9.50432ZM6.47084 25.4488C6.31471 25.4488 6.15891 25.3926 6.04033 25.28C5.80218 25.0547 5.80218 24.6896 6.04033 24.4646L8.50253 22.132C8.74069 21.9067 9.12509 21.9067 9.36324 22.132C9.60106 22.3573 9.60106 22.7221 9.36324 22.9474L6.90103 25.28C6.78245 25.3926 6.62665 25.4488 6.47084 25.4488ZM25.5288 25.5621C25.373 25.5621 25.2176 25.505 25.0983 25.393L22.6361 23.0597C22.3983 22.8344 22.3983 22.4696 22.6361 22.2443C22.8739 22.019 23.258 22.019 23.4968 22.2443L25.959 24.5776C26.1968 24.8038 26.1968 25.1673 25.959 25.393C25.8401 25.505 25.6843 25.5621 25.5288 25.5621Z" fill="black"/>
</svg>
