<svg width="32" height="32" viewBox="0 0 32 32" fill="none" xmlns="http://www.w3.org/2000/svg">
<path fill-rule="evenodd" clip-rule="evenodd" d="M16 2C23.732 2 30 8.26801 30 16C30 23.732 23.732 30 16 30C8.26801 30 2 23.732 2 16C2 8.26801 8.26801 2 16 2ZM16 3.2C8.93076 3.2 3.2 8.93076 3.2 16C3.2 23.0692 8.93076 28.8 16 28.8C23.0692 28.8 28.8 23.0692 28.8 16C28.8 8.93076 23.0692 3.2 16 3.2ZM15.9051 12.9771C16.344 12.9771 16.6998 13.3442 16.6998 13.7705V23.215C16.6998 23.6094 16.4012 23.9365 16.0309 23.998L15.9051 24.0084C15.4662 24.0084 15.1105 23.6413 15.1105 23.215V13.7705C15.1105 13.3761 15.409 13.049 15.7793 12.9875L15.9051 12.9771ZM15.9081 7.81774C16.2921 7.81774 16.5888 7.93246 16.7983 8.16192C17.0077 8.39138 17.1125 8.67975 17.1125 9.02704C17.1125 9.36813 17.0077 9.65184 16.7983 9.8782C16.5888 10.1046 16.2921 10.2177 15.9081 10.2177C15.5241 10.2177 15.2288 10.1046 15.0223 9.8782C14.8157 9.65184 14.7125 9.36813 14.7125 9.02704C14.7125 8.67975 14.8157 8.39138 15.0223 8.16192C15.2288 7.93246 15.5241 7.81774 15.9081 7.81774Z" fill="black"/>
</svg>
