<svg width="32" height="32" viewBox="0 0 32 32" fill="none" xmlns="http://www.w3.org/2000/svg">
<path fill-rule="evenodd" clip-rule="evenodd" d="M15.7486 10.8C17.2146 10.8 18.4162 11.9801 18.4507 13.4495L19.1923 19.6451C19.2613 20.212 18.8589 20.7326 18.2897 20.802C17.7205 20.8715 17.2089 20.4665 17.1399 19.8938L16.3925 13.6346C16.3868 13.5941 16.3868 13.5536 16.3868 13.5131C16.3868 13.1602 16.105 12.8768 15.7544 12.8768C15.4094 12.8768 15.1335 13.1487 15.122 13.4958V16.8741L15.0645 26.5002C15.0645 26.8993 14.8345 27.258 14.4838 27.4315C14.1274 27.6051 13.7077 27.5646 13.3972 27.3216L11.4253 25.7944C11.4023 25.777 11.3908 25.7713 11.3736 25.7539C11.3391 25.725 10.8389 25.3085 10.1835 25.1234C9.69482 24.9845 9.26939 25.0134 8.8727 25.2101C9.44186 25.9274 10.3962 27.0497 11.6093 28.2067C12.0232 28.6001 12.0404 29.2595 11.6495 29.676C11.4425 29.8901 11.1723 30 10.8964 30C10.6377 30 10.3847 29.9074 10.1835 29.7165C8.01034 27.6456 6.6478 25.7192 6.59031 25.6382C6.30861 25.239 6.3431 24.7011 6.6708 24.3366C7.79762 23.0929 9.27514 22.6648 10.8274 23.1391C11.822 23.4457 12.5349 24.0184 12.7073 24.1631L13.0005 24.3945L13.0465 16.8683V13.4726C13.0465 13.4379 13.0465 13.409 13.0523 13.3743C13.127 11.9223 14.2998 10.8 15.7486 10.8ZM20.044 20.3302C20.2013 19.7876 20.7685 19.4791 21.302 19.6448C23.5539 20.3359 25.4465 21.2098 26.9234 22.2436C27.1425 22.3921 27.2941 22.6263 27.3502 22.8947C27.3727 23.0261 27.9736 26.2075 27.2267 29.2232C27.1144 29.6916 26.7044 30 26.2495 30C26.1709 30 26.0867 29.9943 26.0024 29.9714C25.4577 29.8287 25.132 29.2689 25.2668 28.7206C25.761 26.7329 25.5532 24.5796 25.4296 23.7001C24.1773 22.8947 22.5599 22.175 20.7179 21.6096C20.1844 21.4497 19.8812 20.8728 20.044 20.3302ZM10 16.4C10.6627 16.4 11.2 16.9373 11.2 17.6C11.2 18.2627 10.6627 18.8 10 18.8C9.33726 18.8 8.8 18.2627 8.8 17.6C8.8 16.9373 9.33726 16.4 10 16.4ZM10 11.6C10.6627 11.6 11.2 12.1373 11.2 12.8C11.2 13.4627 10.6627 14 10 14C9.33726 14 8.8 13.4627 8.8 12.8C8.8 12.1373 9.33726 11.6 10 11.6ZM5.2 11.6C5.86274 11.6 6.4 12.1373 6.4 12.8C6.4 13.4627 5.86274 14 5.2 14C4.53726 14 4 13.4627 4 12.8C4 12.1373 4.53726 11.6 5.2 11.6ZM10 6.8C10.6627 6.8 11.2 7.33726 11.2 8C11.2 8.66274 10.6627 9.2 10 9.2C9.33726 9.2 8.8 8.66274 8.8 8C8.8 7.33726 9.33726 6.8 10 6.8ZM15.2 6.8C15.8627 6.8 16.4 7.33726 16.4 8C16.4 8.66274 15.8627 9.2 15.2 9.2C14.5373 9.2 14 8.66274 14 8C14 7.33726 14.5373 6.8 15.2 6.8ZM5.2 6.8C5.86274 6.8 6.4 7.33726 6.4 8C6.4 8.66274 5.86274 9.2 5.2 9.2C4.53726 9.2 4 8.66274 4 8C4 7.33726 4.53726 6.8 5.2 6.8ZM10 2C10.6627 2 11.2 2.53726 11.2 3.2C11.2 3.86274 10.6627 4.4 10 4.4C9.33726 4.4 8.8 3.86274 8.8 3.2C8.8 2.53726 9.33726 2 10 2ZM15.2 2C15.8627 2 16.4 2.53726 16.4 3.2C16.4 3.86274 15.8627 4.4 15.2 4.4C14.5373 4.4 14 3.86274 14 3.2C14 2.53726 14.5373 2 15.2 2ZM5.2 2C5.86274 2 6.4 2.53726 6.4 3.2C6.4 3.86274 5.86274 4.4 5.2 4.4C4.53726 4.4 4 3.86274 4 3.2C4 2.53726 4.53726 2 5.2 2Z" fill="black"/>
</svg>
