<svg width="32" height="32" viewBox="0 0 32 32" fill="none" xmlns="http://www.w3.org/2000/svg">
<path d="M15.9091 27.905L11.0087 22.8162C10.9017 22.7051 10.754 22.6364 10.5909 22.6364C10.2641 22.6364 10 22.9113 10 23.25C10 23.4194 10.0662 23.5728 10.1731 23.6838L16.0822 29.8202C16.1898 29.9313 16.3369 30 16.5 30C16.6631 30 16.8108 29.9313 16.9178 29.8202L22.8269 23.6838C22.9344 23.5728 23 23.4194 23 23.25C23 22.9113 22.7359 22.6364 22.4091 22.6364C22.246 22.6364 22.0989 22.7051 21.9913 22.8162L17.0909 27.905L17.0909 3.61363C17.0909 3.27491 16.8268 3 16.5 3C16.1732 3 15.9091 3.27491 15.9091 3.61363L15.9091 27.905Z" fill="black"/>
</svg>
