<svg width="32" height="32" viewBox="0 0 32 32" fill="none" xmlns="http://www.w3.org/2000/svg">
<path d="M25.3536 17.6925C26.7116 16.8383 27.5991 15.3551 27.5991 13.6663C27.5991 11.0414 25.4544 8.91513 22.81 8.91513C20.1655 8.91513 18.0208 11.0428 18.0208 13.6663C18.0208 15.3551 18.9084 16.8383 20.2467 17.68L20.2663 17.6911L18.4702 18.7299C20.2271 20.4757 21.3148 22.8867 21.3148 25.549C21.3148 25.5532 21.3148 25.5574 21.3148 25.5615H29.9958V25.1157C29.9986 25.0379 30 24.9449 30 24.8532C30 21.6895 28.1185 18.9619 25.404 17.7119L25.355 17.6911L25.3536 17.6925ZM14.2774 16.9495C15.9531 15.8773 17.0464 14.0357 17.0464 11.94C17.0464 8.65959 14.3656 6 11.0589 6C7.75231 6 5.07145 8.65959 5.07145 11.94C5.07145 14.0357 6.16479 15.8773 7.81671 16.9342L7.84051 16.9481C4.36868 18.5174 2 21.9311 2 25.8921C2 25.9837 2.0014 26.0768 2.0042 26.167V26.1532V26.7476H19.9667V26.1532C19.9709 26.0546 19.9723 25.9393 19.9723 25.824C19.9723 21.9186 17.6694 18.5466 14.339 16.9717L14.2788 16.9467L14.2774 16.9495Z" fill="black"/>
</svg>
