<svg width="32" height="32" viewBox="0 0 32 32" fill="none" xmlns="http://www.w3.org/2000/svg">
<path d="M18.0084 15.4947C21.1875 14.8773 23.563 12.142 23.619 8.84112V8.83552C23.5336 5.0419 20.4372 2 16.6309 2C16.5763 2 16.5203 2 16.4658 2.0014H16.4742C16.428 2 16.372 2 16.3174 2C12.5111 2 9.41606 5.0419 9.32927 8.82852V8.83692C9.39226 12.1406 11.765 14.8731 14.8965 15.4891L14.9399 15.4961C8.66993 16.7041 4 22.1482 4 28.6813C4 28.8577 4.0028 29.0341 4.0098 29.2091L4.0084 29.1839V30H12.8037L16.4728 20.5635L13.988 17.4181C14.7145 17.1843 15.5516 17.0485 16.4196 17.0485C16.4392 17.0485 16.4574 17.0485 16.477 17.0485H16.4742C16.5022 17.0485 16.5343 17.0485 16.5679 17.0485C17.4023 17.0485 18.2044 17.1843 18.9547 17.4335L18.9015 17.4181L16.4742 20.5635L20.1432 30H28.9581V29.1839C28.9637 29.0355 28.9679 28.8605 28.9679 28.6855C28.9679 22.144 24.2868 16.6971 18.0924 15.51L18.0084 15.4961V15.4947Z" fill="black"/>
</svg>
