<svg width="32" height="32" viewBox="0 0 32 32" fill="none" xmlns="http://www.w3.org/2000/svg">
<path fill-rule="evenodd" clip-rule="evenodd" d="M21.3594 5.28125C21.3594 3.47186 19.8875 2 18.0781 2H5.28125C3.47186 2 2 3.47186 2 5.28125V18.0781C2 19.8875 3.47186 21.3594 5.28125 21.3594H10.5312V23.5469H12.7188V21.3594H18.0781C19.8875 21.3594 21.3594 19.8875 21.3594 18.0781V12.8281H23.4922V10.6406H21.3594V5.28125ZM19.1719 18.0781C19.1719 18.6812 18.6812 19.1719 18.0781 19.1719H5.28125C4.67819 19.1719 4.1875 18.6812 4.1875 18.0781V5.28125C4.1875 4.67819 4.67819 4.1875 5.28125 4.1875H18.0781C18.6812 4.1875 19.1719 4.67819 19.1719 5.28125V18.0781ZM27.8125 25.625H30V27.8125C30 29.0205 29.0205 30 27.8125 30H25.6797V27.8125H27.8125V25.625ZM16.9297 27.8125H19.1172V30H16.9297V27.8125ZM21.3047 27.8125H23.4922V30H21.3047V27.8125ZM30 12.8281V15.0156H27.8125V12.8281H25.6797V10.6406H27.8125C29.0205 10.6406 30 11.6201 30 12.8281ZM27.8125 17.0938H30V19.2812H27.8125V17.0938ZM27.8125 21.3594H30V23.5469H27.8125V21.3594ZM12.7188 27.8125H14.8516V30H12.7188C11.5107 30 10.5312 29.0205 10.5312 27.8125V25.625H12.7188V27.8125ZM14.7422 10.4219H16.9297V16.9844H10.3672V14.7969H13.1953L9.29288 10.8944L10.8397 9.34778L14.7422 13.25V10.4219Z" fill="black"/>
</svg>
