<svg width="32" height="32" viewBox="0 0 32 32" fill="none" xmlns="http://www.w3.org/2000/svg">
<path fill-rule="evenodd" clip-rule="evenodd" d="M25.7557 20.9777C26.0416 20.9777 26.2733 21.224 26.2733 21.5278V25.0487H29.4824C29.7504 25.0487 29.9708 25.2652 29.9973 25.5426L30 25.5989C30 25.9027 29.7683 26.149 29.4824 26.149H26.2733V29.4499C26.2733 29.7347 26.0696 29.969 25.8086 29.9972L25.7557 30C25.4698 30 25.2381 29.7537 25.2381 29.4499V26.149H22.029C21.761 26.149 21.5406 25.9325 21.5141 25.6551L21.5114 25.5989C21.5114 25.295 21.7431 25.0487 22.029 25.0487H25.2381V21.5278C25.2381 21.243 25.4418 21.0087 25.7028 20.9805L25.7557 20.9777ZM15.1752 2C17.2191 2 18.7114 2.88755 20.3346 4.45115C21.4206 5.49806 22.2889 7.22622 22.3096 8.53603C22.3115 8.64781 22.3234 9.19057 22.3236 9.19781C22.3498 10.4594 22.3477 11.4567 22.2963 12.479C22.2312 13.7729 22.0921 14.8363 21.8537 15.6306C21.3011 17.4727 20.1007 19.1336 18.9442 19.9518L21.1133 21.1339C21.3921 21.2858 21.5022 21.6492 21.3593 21.9455C21.2163 22.2418 20.8744 22.3589 20.5957 22.2069L18.2213 20.913L18.1554 20.8709C18.0893 20.8218 18.0124 20.7498 17.9364 20.6491C17.5384 20.1215 17.6456 19.421 18.3637 18.9129C19.2606 18.2791 20.2995 16.8417 20.7727 15.2642C20.9755 14.5885 21.1029 13.6145 21.1633 12.4146C21.2129 11.4294 21.215 10.4582 21.1893 9.2245C21.1892 9.22065 21.1771 8.6732 21.1752 8.5569C21.1602 7.6118 20.4424 6.18316 19.5725 5.34454C18.1404 3.96502 16.8641 3.20591 15.1752 3.20591C13.479 3.20591 12.1991 3.96625 10.7702 5.34462C9.90024 6.18233 9.18236 7.61106 9.16651 8.5575C9.16457 8.67321 9.15254 9.22065 9.15246 9.2245C9.12676 10.4582 9.12885 11.4294 9.17841 12.4146C9.23878 13.6145 9.36618 14.5885 9.56901 15.2643C10.0419 16.8409 11.081 18.2782 11.978 18.9129C12.6967 19.4207 12.8044 20.1214 12.4063 20.6492C12.3304 20.7499 12.2535 20.8218 12.1874 20.8709L12.1214 20.913L4.6312 24.993C4.58616 25.0157 4.49872 25.0635 4.38359 25.133C4.1902 25.2498 3.99698 25.3817 3.81922 25.5242C3.38011 25.8762 3.13458 26.219 3.13458 26.4488V28.0486C3.13458 28.3342 3.5036 28.6123 3.81095 28.6157C3.99083 28.6182 5.64751 28.6395 8.30871 28.6737C9.29621 28.6863 10.0016 28.6954 11.4123 28.7135C12.5408 28.7279 12.5408 28.7279 12.8162 28.7315L17.5495 28.7312C17.5713 28.7309 17.6063 28.7304 17.7116 28.7291C17.9255 28.7263 17.9255 28.7263 18.2398 28.7223C18.8005 28.715 19.4027 28.7072 20.0229 28.6991C20.3362 28.695 20.5933 28.9616 20.5971 29.2946C20.601 29.6276 20.3502 29.9008 20.0369 29.9049C19.4166 29.913 18.8143 29.9209 18.2536 29.9281C17.9392 29.9321 17.9392 29.9321 17.7253 29.9349C17.6025 29.9365 17.5752 29.9368 17.55 29.9371L12.8093 29.9374C12.5272 29.9337 12.5272 29.9337 11.3986 29.9193C9.98788 29.9012 9.28252 29.8922 8.28264 29.8793C5.63222 29.8453 3.9767 29.824 3.79777 29.8215C2.93788 29.8121 2 29.1051 2 28.0486V26.4488C2 25.732 2.4372 25.1217 3.136 24.5615C3.3565 24.3847 3.58999 24.2252 3.82331 24.0844C3.9642 23.9994 4.0759 23.9383 4.12918 23.9117C4.12918 23.9117 11.3676 19.9297 11.3495 19.9169C10.2408 19.1323 9.04037 17.4719 8.48808 15.6307C8.24964 14.8363 8.11055 13.7729 8.04546 12.479C7.99403 11.4567 7.99188 10.4594 8.01816 9.19781C8.01831 9.19057 8.03024 8.64781 8.03211 8.53603C8.05408 7.22489 8.92244 5.49666 10.0081 4.45128C11.6275 2.88917 13.1243 2 15.1752 2Z" fill="black"/>
</svg>
