<svg width="32" height="32" viewBox="0 0 32 32" fill="none" xmlns="http://www.w3.org/2000/svg">
<path d="M26.6679 4H13.1721C11.3346 4 9.84 5.50018 9.84 7.34391V11.3058H5.33211C3.49461 11.3058 2 12.806 2 14.6497V21.4498C2 23.1047 3.20422 24.4828 4.8 24.7476V28.1653C4.8 28.3749 4.91594 28.567 5.10133 28.6639C5.18281 28.7061 5.27141 28.7273 5.36 28.7273C5.47266 28.7273 5.58531 28.693 5.68102 28.6257L11.1366 24.7934H18.8279C20.6654 24.7934 22.16 23.2935 22.16 21.4498V18.3985L26.319 21.32C26.4147 21.3872 26.5273 21.4215 26.64 21.4215C26.7286 21.4215 26.8172 21.4004 26.8987 21.3581C27.0841 21.2612 27.2 21.0692 27.2 20.8595V17.4451C28.7854 17.1885 30 15.806 30 14.144V7.34391C30 5.50018 28.5054 4 26.6679 4ZM21.04 21.4498C21.04 22.6736 20.0474 23.6694 18.8279 23.6694H10.96C10.8452 23.6694 10.733 23.7048 10.639 23.771L5.92 27.0861V24.2314C5.92 23.9211 5.64164 23.6694 5.33211 23.6694C4.11258 23.6694 3.12 22.6736 3.12 21.4498V14.6497C3.12 13.4256 4.11258 12.4298 5.33211 12.4298H18.8279C20.0474 12.4298 21.04 13.4256 21.04 14.6497V21.4498ZM28.88 14.144C28.88 15.3678 27.8874 16.3636 26.64 16.3636C26.3305 16.3636 26.08 16.6153 26.08 16.9256V19.7803L22.16 17.0265V14.6497C22.16 12.806 20.6654 11.3058 18.8279 11.3058H10.96V7.34391C10.96 6.11979 11.9526 5.12397 13.1721 5.12397H26.6679C27.8874 5.12397 28.88 6.11979 28.88 7.34391V14.144Z" fill="black"/>
</svg>
