<svg width="32" height="32" viewBox="0 0 32 32" fill="none" xmlns="http://www.w3.org/2000/svg">
<path fill-rule="evenodd" clip-rule="evenodd" d="M16 2C10.1102 2 4.91109 5.67095 2.88222 11.0984C2.30121 12.6526 2 14.306 2 16C2 23.7329 8.26893 30 16 30C23.7311 30 30 23.7329 30 16C30 8.26711 23.7311 2 16 2ZM16 3.13495C23.1104 3.13495 28.8729 8.89576 28.8729 16C28.8729 23.1042 23.1104 28.865 16 28.865C8.88963 28.865 3.12714 23.1042 3.12714 16C3.12714 14.4431 3.40368 12.9252 3.9371 11.4982C5.8016 6.51049 10.5824 3.13495 16 3.13495ZM16 5.30613C15.6888 5.30613 15.4364 5.5602 15.4364 5.87361V16.0786H5.34419C5.03294 16.0786 4.78062 16.3327 4.78062 16.6461C4.78062 16.9595 5.03294 17.2136 5.34419 17.2136H16C16.3113 17.2136 16.5636 16.9595 16.5636 16.6461V5.87361C16.5636 5.5602 16.3113 5.30613 16 5.30613Z" fill="black"/>
</svg>
