<svg width="32" height="32" viewBox="0 0 32 32" fill="none" xmlns="http://www.w3.org/2000/svg">
<path fill-rule="evenodd" clip-rule="evenodd" d="M16.1743 2C23.7337 2 29.8761 8.14161 29.9981 15.7684L30 16C30 23.732 23.8119 30 16.1743 30H15.8257C8.18997 30 2 23.7337 2 16C2 8.26801 8.18806 2 15.8257 2H16.1743ZM16.1978 3.43794H15.8022C8.9679 3.43794 3.42405 9.0633 3.42405 16C3.42405 22.9389 8.96535 28.5621 15.8022 28.5621H16.1978C23.0321 28.5621 28.5759 22.9367 28.5759 16C28.5759 9.06113 23.0347 3.43794 16.1978 3.43794Z" fill="black"/>
</svg>
