<svg width="32" height="32" viewBox="0 0 32 32" fill="none" xmlns="http://www.w3.org/2000/svg">
<path fill-rule="evenodd" clip-rule="evenodd" d="M8.16564 8.58463C8.8998 5.27719 12.6758 2.79422 16.4014 3.01347C20.6673 3.26417 23.9935 5.95286 24.3564 9.56004C24.4448 10.4396 24.4635 11.1397 24.467 12.7088C24.467 12.7228 24.467 12.7334 24.4671 12.7422L24.4672 12.8212C24.4683 13.2616 24.4701 13.572 24.4745 13.849L25.0821 13.8486C25.589 13.8486 26 14.2603 26 14.7619V26.6923C26 27.1967 25.5914 27.6056 25.0821 27.6056H6.91792C6.41097 27.6056 6 27.1939 6 26.6923V14.7619C6 14.2575 6.40857 13.8486 6.91792 13.8486L7.8322 13.8488C7.84542 13.5013 7.85151 13.1215 7.85717 12.5033L7.85758 12.4594C7.87531 10.5189 7.92793 9.65544 8.16564 8.58463ZM24.8541 14.9945H7.14589V26.4597H24.8541V14.9945ZM16.3018 18.0028C17.7726 18.0028 18.9643 19.1984 18.9643 20.6723C18.9643 22.1462 17.7726 23.3418 16.3018 23.3418C14.8309 23.3418 13.6393 22.1462 13.6393 20.6723C13.6393 19.1984 14.8309 18.0028 16.3018 18.0028ZM16.3018 19.1487C15.4646 19.1487 14.7851 19.8304 14.7851 20.6723C14.7851 21.5142 15.4646 22.1959 16.3018 22.1959C17.1389 22.1959 17.8184 21.5142 17.8184 20.6723C17.8184 19.8304 17.1389 19.1487 16.3018 19.1487ZM16.3342 4.15738C13.1413 3.96948 9.88918 6.10792 9.2843 8.83296C9.06981 9.79913 9.02042 10.6097 9.00342 12.4699L9.00301 12.5138C8.99748 13.1177 8.99151 13.5007 8.97889 13.849L23.3284 13.8488C23.3242 13.5707 23.3224 13.2596 23.3214 12.8239C23.3212 12.7676 23.3212 12.7676 23.3211 12.7113C23.3177 11.1797 23.2997 10.5045 23.2162 9.67472C22.9143 6.67261 20.0746 4.3772 16.3342 4.15738Z" fill="black"/>
</svg>
