<svg width="32" height="32" viewBox="0 0 32 32" fill="none" xmlns="http://www.w3.org/2000/svg">
<path fill-rule="evenodd" clip-rule="evenodd" d="M5.5683 22.9043C6.21755 22.9043 6.75033 23.4189 6.75033 24.0539L6.74992 25.3637H6.77429C7.13394 25.3637 7.42762 25.6348 7.42762 25.9635V29.7802C7.42762 30.1088 7.13394 30.38 6.77429 30.38H1.65333C1.29368 30.38 1 30.1088 1 29.7802V25.9635C1 25.6348 1.29368 25.3637 1.65333 25.3637H1.82511L1.82523 24.0539C1.82523 23.4424 2.31927 22.9426 2.93562 22.9064L3.00726 22.9043H5.5683ZM22.4031 12.7596C22.6643 12.7596 22.876 12.9713 22.876 13.2325V17.4409C22.876 20.9805 20.0602 23.9211 16.5443 24.1662L16.5442 29.0527H19.8292C20.0704 29.0527 20.269 29.2352 20.2945 29.4697L20.2972 29.5207C20.2972 29.7792 20.0877 29.9887 19.8292 29.9887H12.3443C12.0858 29.9887 11.8762 29.7792 11.8762 29.5207C11.8762 29.2622 12.0858 29.0527 12.3443 29.0527H15.599L15.5993 24.1665C12.0811 23.9241 9.26317 20.9823 9.26317 17.4409V13.2321C9.26317 12.9711 9.47471 12.7596 9.73567 12.7596C9.99662 12.7596 10.2082 12.9711 10.2082 13.2321V17.4409C10.2082 20.6239 12.8558 23.2457 16.0692 23.2457C19.2834 23.2457 21.9301 20.6239 21.9301 17.4409V13.2325C21.9301 12.9713 22.1419 12.7596 22.4031 12.7596ZM5.5683 23.7041H3.00726C2.80034 23.7041 2.63312 23.8646 2.63312 24.0539L2.633 25.3637H5.94203L5.94243 24.0539C5.94243 23.8792 5.79995 23.729 5.61529 23.7069L5.5683 23.7041ZM16.1379 2C18.4534 2 20.2972 3.82554 20.2972 6.12002V17.6373C20.2972 19.9299 18.4534 21.7555 16.1379 21.7555C13.8216 21.7555 11.9787 19.9299 11.9787 17.6373V6.12002C11.9787 3.82554 13.8216 2 16.1379 2ZM16.1379 2.93608C14.3892 2.93608 12.9237 4.38773 12.9237 6.12002V17.6373C12.9237 19.3687 14.3892 20.8194 16.1379 20.8194C17.8867 20.8194 19.3513 19.3687 19.3513 17.6373V6.12002C19.3513 4.38773 17.8867 2.93608 16.1379 2.93608Z" fill="black"/>
</svg>
