<svg width="32" height="32" viewBox="0 0 32 32" fill="none" xmlns="http://www.w3.org/2000/svg">
<path fill-rule="evenodd" clip-rule="evenodd" d="M2.01166 27.3294H12.7805L12.7794 16.5594H7.57457V16.5711C7.57224 16.4941 7.57107 16.4159 7.57107 16.3378C7.57107 14.5169 8.12165 12.8244 9.04549 11.4491L9.05832 11.4339C10.219 10.0248 11.7972 8.97267 13.6671 8.45126L11.5546 4L11.4449 4.03266C9.34761 4.74888 7.45326 5.90252 5.87735 7.37577L5.87152 7.38044C4.50208 8.67405 3.45459 10.3059 2.84103 12.2225L2.88302 12.0393C2.30678 14.202 2 16.4743 2 18.8177C2 19.0988 2.0035 19.3776 2.01166 19.6156V27.3294ZM18.3259 27.3294H29.1135L29.1321 16.5594H23.9075V16.5711C23.9052 16.4918 23.904 16.4124 23.904 16.3319C23.904 14.5134 24.4546 12.822 25.3784 11.4491L25.3913 11.4339C26.5531 10.026 28.1301 8.97384 30 8.45126L27.8875 4L27.7767 4.03383C25.6899 4.75937 23.8025 5.91068 22.229 7.37577L22.222 7.38277C20.8374 8.66356 19.777 10.2896 19.1553 12.2038L19.1973 12.0207C18.6211 14.1833 18.3131 16.4556 18.3131 18.799C18.3131 19.086 18.3178 19.3718 18.3259 19.6156V27.3294Z" fill="black"/>
</svg>
