<svg width="32" height="32" viewBox="0 0 32 32" fill="none" xmlns="http://www.w3.org/2000/svg">
<path fill-rule="evenodd" clip-rule="evenodd" d="M27.1448 3C28.9892 3 30 4.03748 30 5.90578V25.669C30 27.5373 28.9892 28.5747 27.1448 28.5747H12.6138C10.7694 28.5747 9.75855 27.5373 9.75855 25.669V19.7567C9.75855 19.3432 10.0937 19.0081 10.5072 19.0081C10.9207 19.0081 11.2559 19.3432 11.2559 19.7567V25.669C11.2559 26.7189 11.6052 27.0774 12.6138 27.0774H27.1448C28.1534 27.0774 28.5027 26.7189 28.5027 25.669V5.90578C28.5027 4.85583 28.1534 4.4973 27.1448 4.4973H12.6138C11.6052 4.4973 11.2559 4.85583 11.2559 5.90578V10.9055C11.2559 11.319 10.9207 11.6542 10.5072 11.6542C10.0937 11.6542 9.75855 11.319 9.75855 10.9055V5.90578C9.75855 4.03748 10.7694 3 12.6138 3H27.1448ZM6.7392 9.87109C7.02067 9.56822 7.49437 9.55087 7.79724 9.83234C8.10011 10.1138 8.11746 10.5875 7.83599 10.8904L4.36673 14.623L19.9641 14.6231C20.3533 14.6231 20.6731 14.92 20.7094 15.2996L20.7128 15.3717C20.7128 15.7852 20.3776 16.1204 19.9641 16.1204L4.54391 16.1203L7.84038 19.7296C8.10179 20.0158 8.09927 20.4499 7.84638 20.7328L7.79247 20.7873C7.48717 21.0661 7.01364 21.0447 6.7348 20.7394L2.19586 15.7697C1.93303 15.4819 1.93495 15.0406 2.20026 14.7551L6.7392 9.87109Z" fill="black"/>
</svg>
