<svg width="32" height="32" viewBox="0 0 32 32" fill="none" xmlns="http://www.w3.org/2000/svg">
<path d="M15.6924 12.3291C16.878 12.3291 17.8369 13.2574 17.8369 14.4051C17.8369 15.2489 17.3138 15.9747 16.5816 16.2953V28.9874C16.5816 29.5444 16.1109 30 15.5355 30C14.9602 30 14.5068 29.5444 14.5068 28.9874V16.1434C13.9315 15.7722 13.5479 15.1309 13.5479 14.4051C13.5479 13.2574 14.5068 12.3291 15.6924 12.3291ZM15.7272 2C22.7534 2 28.4545 7.51902 28.4545 14.3207C28.4545 17.2405 27.391 20.0591 25.4557 22.2869C25.0722 22.7089 24.4097 22.7595 23.9738 22.4051C23.5205 22.0337 23.4681 21.3924 23.8518 20.9705C25.4732 19.114 26.3624 16.7511 26.3624 14.3207C26.3624 8.64981 21.5853 4.02535 15.7274 4.02535C9.86929 4.02535 5.09215 8.64987 5.09215 14.3207C5.09215 16.903 6.08602 19.3671 7.86431 21.2574C8.24784 21.6794 8.21301 22.3207 7.7945 22.692C7.60267 22.8777 7.34118 22.9621 7.09713 22.9621C6.81825 22.9621 6.53925 22.8439 6.33004 22.6245C4.18558 20.346 3 17.4093 3 14.3207C3 7.51902 8.70107 2 15.7272 2ZM15.4482 6.89445C19.6849 6.74261 23.2589 9.93248 23.4333 14.0169C23.5031 15.4852 23.1195 16.9198 22.3349 18.1687C22.1432 18.4894 21.7945 18.6582 21.4458 18.6582C21.254 18.6582 21.0796 18.6076 20.9053 18.5063C20.4172 18.2194 20.2602 17.5949 20.5565 17.1223C21.1318 16.2109 21.4108 15.1646 21.3585 14.1013C21.2365 11.1139 18.6213 8.80165 15.5528 8.91983C14.071 8.98737 12.6588 9.57812 11.665 10.6414C10.6711 11.7046 10.1482 13.0886 10.2004 14.5232C10.2527 15.384 10.4794 16.1773 10.8979 16.9198C11.1768 17.4093 11.0024 18.0338 10.4969 18.3038C9.99121 18.5908 9.34613 18.4051 9.06716 17.9157C8.49177 16.903 8.17806 15.789 8.12572 14.6245C8.03854 12.6497 8.75341 10.7425 10.1482 9.29111C11.5428 7.82276 13.4258 6.97888 15.4482 6.89445Z" fill="black"/>
</svg>
