<svg width="32" height="32" viewBox="0 0 32 32" fill="none" xmlns="http://www.w3.org/2000/svg">
<path d="M27.7751 4.51142L27.6732 3.95045C27.6155 3.63311 27.3671 3.38487 27.0499 3.32715L26.4889 3.22519C24.1039 2.79167 21.6353 2.9876 19.3503 3.79212C16.3773 4.83883 14.4274 6.56124 12.7095 8.69569L11.8022 8.38431C10.3304 7.87893 8.70082 8.21548 7.5494 9.26228L4.68399 11.8672C3.30088 13.1245 4.15132 15.4323 6.0203 15.4905L8.55488 15.5695C8.42432 16.3565 8.67377 17.1774 9.25913 17.7627L13.2377 21.7413C13.8033 22.3069 14.6152 22.5811 15.431 22.4457L15.51 24.9802C15.5683 26.8545 17.88 27.6951 19.1332 26.3165L21.7381 23.451C22.7849 22.2996 23.1213 20.67 22.6161 19.1982L22.3047 18.2908C24.3833 16.6179 26.1353 14.6977 27.2083 11.6501C28.0127 9.36496 28.2088 6.89643 27.7751 4.51142ZM5.72551 13.0129L8.59093 10.408C9.32422 9.74143 10.3621 9.52712 11.2995 9.84886L11.7179 9.99248C10.8142 11.2366 9.96402 12.5912 9.20179 14.0404L6.06845 13.9427C5.58673 13.9277 5.36869 13.3373 5.72551 13.0129ZM21.1515 19.7009C21.4732 20.6383 21.259 21.6761 20.5923 22.4094L17.9873 25.2748C17.6632 25.6315 17.0726 25.4139 17.0576 24.9319L16.9599 21.7986C18.3688 21.0576 19.7222 20.2165 21.0078 19.2824L21.1515 19.7009ZM22.0886 16.4574C20.0714 18.1877 17.8359 19.6598 15.4443 20.8327C15.073 21.0148 14.6262 20.9399 14.3326 20.6463C14.3375 20.6463 14.3687 20.6824 10.354 16.6677C10.0604 16.3741 9.9855 15.9273 10.1676 15.556C10.3659 15.1515 10.5736 14.7519 10.7889 14.3567L14.9887 18.5565C15.2911 18.8589 15.7812 18.8588 16.0836 18.5565C16.3859 18.2542 16.3859 17.7639 16.0836 17.4616L11.5906 12.9686C12.4944 11.4927 13.4899 10.1346 14.6065 8.83772C17.4083 5.59176 21.8141 3.95074 26.2455 4.75473C27.0276 9.06558 25.5219 13.5043 22.0886 16.4574ZM17.6879 8.59287C15.5896 10.6911 17.0886 14.2883 20.0477 14.2883C23.004 14.2883 24.5082 10.6935 22.4075 8.59287C21.1062 7.29163 18.9891 7.29163 17.6879 8.59287ZM21.3125 12.2175C20.6151 12.9149 19.4803 12.9149 18.7828 12.2175C18.0854 11.5201 18.0854 10.3852 18.7828 9.68777C19.4803 8.99033 20.6151 8.99033 21.3125 9.68777C22.01 10.3852 22.01 11.5201 21.3125 12.2175ZM5.18897 21.107C4.88659 20.8047 4.88659 20.3144 5.18897 20.0121L6.19155 19.0096C6.49389 18.7072 6.98412 18.7072 7.28645 19.0096C7.58884 19.3119 7.58884 19.8021 7.28645 20.1045L6.28388 21.1071C5.98149 21.4094 5.49131 21.4094 5.18897 21.107ZM12.0293 23.7524C12.3317 24.0548 12.3317 24.545 12.0293 24.8474L11.0268 25.8499C10.8756 26.0011 10.6775 26.0767 10.4793 26.0767C9.79582 26.0767 9.44267 25.2442 9.93184 24.7551L10.9344 23.7525C11.2368 23.4501 11.727 23.45 12.0293 23.7524ZM10.3382 21.7571L6.93394 25.1613C6.6315 25.4637 6.14137 25.4637 5.83904 25.1613C5.53665 24.859 5.53665 24.3687 5.83904 24.0664L9.24326 20.6621C9.54565 20.3598 10.0358 20.3598 10.3382 20.6621C10.6405 20.9645 10.6405 21.4547 10.3382 21.7571Z" fill="black"/>
</svg>
