<svg width="40" height="40" viewBox="0 0 40 40" fill="none" xmlns="http://www.w3.org/2000/svg">
<path d="M30 10C24.4789 4.47894 15.51 4.49002 10 10C4.49002 15.51 4.49001 24.49 10 30C15.51 35.51 24.49 35.51 30 30C35.5211 24.4789 35.5211 15.5211 30 10ZM16.7073 23.2927C14.8891 21.4745 14.8891 18.5255 16.7073 16.7073C18.5255 14.8891 21.4745 14.8891 23.2927 16.7073C25.1109 18.5255 25.1109 21.4745 23.2927 23.2927C21.4745 25.1109 18.5255 25.1108 16.7073 23.2927ZM31.8293 16.8182L25.7095 16.8182C25.4213 16.3082 25.0665 15.8204 24.6231 15.3769C24.1574 14.9113 23.6363 14.5233 23.0709 14.2239L23.0709 8.12636C25.133 8.65851 27.0621 9.72281 28.6696 11.3303C30.2439 12.9046 31.2971 14.8004 31.8293 16.8182ZM16.4856 8.2594L16.4856 14.49C16.0975 14.745 15.7206 15.0333 15.3769 15.3769C14.9335 15.8204 14.5787 16.3082 14.2905 16.8182L8.17073 16.8182C8.70292 14.8004 9.75611 12.9046 11.3304 11.3304C12.816 9.84478 14.6009 8.81373 16.4856 8.2594ZM8.21511 23.4035L14.3792 23.4035C14.4013 23.4035 14.4125 23.3924 14.4236 23.4035C14.6897 23.847 15.0112 24.2572 15.3881 24.6341C15.7318 24.9778 16.1087 25.2661 16.4967 25.5211L16.4967 31.7517C14.6009 31.1863 12.8271 30.1663 11.3415 28.6807C9.81155 27.1507 8.7694 25.3326 8.21511 23.4035ZM23.0709 31.8736V25.776C23.6363 25.4766 24.1463 25.0997 24.6231 24.623C25 24.246 25.3215 23.8359 25.5765 23.4034L31.7849 23.4034C31.2306 25.3325 30.1996 27.1618 28.6807 28.6806C27.0621 30.2771 25.133 31.3414 23.0709 31.8736Z" fill="black"/>
</svg>
