<svg width="32" height="32" viewBox="0 0 32 32" fill="none" xmlns="http://www.w3.org/2000/svg">
<path fill-rule="evenodd" clip-rule="evenodd" d="M22.4396 16.1879C25.1719 17.0288 26.7992 18.7629 27.3108 21.3328C27.666 23.1166 27.9635 24.91 28.3248 26.6928C28.4047 27.0869 28.279 27.2639 27.9101 27.4257C20.0819 30.8585 12.2593 30.8592 4.43264 27.4212C4.05891 27.257 3.94556 27.0721 4.02304 26.6836C4.39947 24.7961 4.65729 22.8866 5.10491 21.0139C5.68086 18.6044 7.31612 16.9685 9.91938 16.1824C11.9496 15.5693 14.0375 15.2966 16.1874 15.4226C18.3236 15.294 20.4138 15.5645 22.4396 16.1879ZM15.7604 2C18.9078 2.00061 21.4524 4.54369 21.4493 7.68535C21.4462 10.8005 18.8535 13.3755 15.7334 13.3623C12.6367 13.3491 10.0926 10.7931 10.087 7.6891C10.0812 4.53524 12.6101 1.9994 15.7604 2Z" fill="black"/>
</svg>
