<svg width="32" height="32" viewBox="0 0 32 32" fill="none" xmlns="http://www.w3.org/2000/svg">
<path d="M6.88012 25.6203C12.0401 30.7803 20.4401 30.8003 25.6201 25.6203C30.8001 20.4403 30.7801 12.0503 25.6201 6.88027C20.4601 1.71027 12.0601 1.70027 6.88012 6.88027C1.70012 12.0603 1.70012 20.4403 6.88012 25.6203ZM14.7801 11.3403C14.7801 10.5303 15.4301 9.88027 16.2501 9.87027C17.0601 9.87027 17.7201 10.5403 17.7201 11.3403V14.7803H21.1601C21.9701 14.7803 22.6201 15.4303 22.6301 16.2503C22.6201 17.0703 21.9601 17.7203 21.1601 17.7203H17.7201V21.1603C17.7201 21.9603 17.0501 22.6303 16.2501 22.6303C15.8301 22.6303 15.4701 22.4603 15.2101 22.2003C14.9301 21.9203 14.7701 21.5603 14.7801 21.1603V17.7203H11.3401C10.9201 17.7203 10.5601 17.5503 10.3001 17.2903C10.0401 17.0303 9.87012 16.6703 9.87012 16.2503C9.87012 15.4403 10.5401 14.7803 11.3401 14.7803H14.7801V11.3403Z" fill="black"/>
</svg>
