<svg width="32" height="32" viewBox="0 0 32 32" fill="none" xmlns="http://www.w3.org/2000/svg">
<path d="M29.7823 22.9875L28.101 22.3973C27.5405 22.1972 27.1002 21.7571 26.9 21.1969L26.3095 19.5163C26.2095 19.2262 25.7991 19.2262 25.689 19.5163L25.0986 21.1969C24.8984 21.7571 24.458 22.1972 23.8976 22.3973L22.2162 22.9875C21.926 23.0875 21.926 23.5077 22.2162 23.6077L23.8976 24.1979C24.458 24.398 24.8984 24.8382 25.0986 25.3984L25.689 27.079C25.7891 27.3691 26.1994 27.3691 26.3095 27.079L26.9 25.3984C27.1002 24.8382 27.5405 24.398 28.101 24.1979L29.7823 23.6077C30.0726 23.5077 30.0726 23.0875 29.7823 22.9875Z" fill="black"/>
<path d="M26.5297 12.6138C27.1202 12.4037 27.5005 11.8735 27.5005 11.2533C27.5005 10.6331 27.1202 10.0929 26.5297 9.89282L22.9568 8.64237C21.966 8.29225 21.2054 7.53198 20.8552 6.54162L19.6041 2.97035C19.394 2.38014 18.8636 2 18.2431 2C17.6226 2 17.0821 2.38014 16.882 2.97035L15.631 6.54162C15.2807 7.53198 14.5201 8.29225 13.5293 8.64237L9.95639 9.89282C9.36592 10.1029 8.98561 10.6331 8.98561 11.2533C8.98561 11.8735 9.36592 12.4137 9.95639 12.6138L13.5293 13.8642C14.5201 14.2144 15.2807 14.9746 15.631 15.965L16.882 19.5363C17.0921 20.1265 17.6226 20.5066 18.2431 20.5066C18.8636 20.5066 19.404 20.1265 19.6041 19.5363L20.8552 15.965C21.2054 14.9746 21.966 14.2144 22.9468 13.8742L26.5197 12.6238L26.5297 12.6138ZM19.444 15.4648L18.2431 18.886L17.0421 15.4648C16.5417 14.0443 15.4408 12.9439 14.0297 12.4537L10.6069 11.2533L14.0297 10.0529C15.4508 9.5527 16.5517 8.4523 17.0421 7.0418L18.2431 3.62058L19.444 7.0418C19.9444 8.46231 21.0453 9.5627 22.4564 10.0529L25.8792 11.2533L22.4564 12.4537C21.0353 12.9539 19.9344 14.0543 19.444 15.4648Z" fill="black"/>
<path d="M14.6602 22.0872L12.1381 21.2069C11.5076 20.9868 11.0172 20.4966 10.7971 19.8664L9.91636 17.3455C9.73622 16.8453 9.27585 16.5152 8.74542 16.5152C8.21499 16.5152 7.75462 16.8453 7.57448 17.3455L6.69377 19.8664C6.4736 20.4966 5.9832 20.9868 5.35269 21.2069L2.83067 22.0872C2.33027 22.2672 2 22.7274 2 23.2576C2 23.7878 2.33027 24.2479 2.83067 24.428L5.35269 25.3083C5.9832 25.5284 6.4736 26.0186 6.69377 26.6488L7.57448 29.1697C7.75462 29.6699 8.21499 30 8.74542 30C9.27585 30 9.73622 29.6699 9.91636 29.1697L10.7971 26.6488C11.0172 26.0186 11.5076 25.5284 12.1381 25.3083L14.6602 24.428C15.1606 24.2479 15.4908 23.7878 15.4908 23.2576C15.4908 22.7274 15.1606 22.2672 14.6602 22.0872ZM11.6377 23.8978C10.5769 24.268 9.74623 25.0982 9.37593 26.1586L8.73541 27.9793L8.0949 26.1586C7.7246 25.0982 6.89393 24.268 5.83308 23.8978L4.01162 23.2576L5.83308 22.6174C6.90394 22.2472 7.7246 21.4169 8.0949 20.3566L8.73541 18.5359L9.37593 20.3566C9.74623 21.4169 10.5769 22.2472 11.6377 22.6174L13.4592 23.2576L11.6377 23.8978Z" fill="black"/>
</svg>
