<svg width="32" height="32" viewBox="0 0 32 32" fill="none" xmlns="http://www.w3.org/2000/svg">
<path d="M27.65 15.1C28.06 15.1 28.4 14.76 28.4 14.35V9.38C28.4 8.97 28.06 8.63 27.65 8.63C27.24 8.63 26.9 8.97 26.9 9.38V14.35C26.9 14.76 27.24 15.1 27.65 15.1Z" fill="black"/>
<path d="M23.85 15.1C24.26 15.1 24.6 14.76 24.6 14.35V2.75C24.6 2.34 24.26 2 23.85 2C23.44 2 23.1 2.34 23.1 2.75V14.35C23.1 14.76 23.44 15.1 23.85 15.1Z" fill="black"/>
<path d="M27.65 17.05H18.02L8.13 26.93C10.28 28.84 13.11 30 16.2 30C22.93 30 28.4 24.53 28.4 17.8C28.4 17.39 28.06 17.05 27.65 17.05Z" fill="black"/>
<path d="M20.04 15.1C20.45 15.1 20.79 14.76 20.79 14.35V6.35C20.79 5.94 20.45 5.6 20.04 5.6C19.63 5.6 19.29 5.94 19.29 6.35V14.34C19.29 14.75 19.63 15.09 20.04 15.09V15.1Z" fill="black"/>
<path d="M16.95 6.35C16.95 5.94 16.61 5.6 16.2 5.6C9.47 5.6 4 11.08 4 17.8C4 20.9 5.16 23.72 7.07 25.87L16.95 16V6.35Z" fill="black"/>
</svg>
