<svg width="32" height="32" viewBox="0 0 32 32" fill="none" xmlns="http://www.w3.org/2000/svg">
<path d="M19.78 21.2C18.2 22.8 16.09 23.69 13.84 23.69C11.59 23.69 9.52 22.82 7.94 21.25C6.37 19.67 5.5 17.57 5.5 15.35V12.51C5.5 12.1 5.16 11.76 4.75 11.76C4.34 11.76 4 12.1 4 12.51V15.35C4 17.97 5.02 20.44 6.88 22.31C8.57 23.99 10.75 24.97 13.09 25.15V28.5H8.27C7.86 28.5 7.52 28.84 7.52 29.25C7.52 29.66 7.86 30 8.27 30H19.41C19.82 30 20.16 29.66 20.16 29.25C20.16 28.84 19.82 28.5 19.41 28.5H14.59V25.15C16.95 24.97 19.15 23.97 20.85 22.25C21.14 21.96 21.14 21.48 20.85 21.19C20.55 20.9 20.08 20.9 19.79 21.19L19.78 21.2Z" fill="black"/>
<path d="M13.5 21.6H14.18C15.54 21.6 16.82 21.16 17.88 20.32C18.21 20.06 18.26 19.59 18.01 19.27C17.75 18.94 17.28 18.89 16.96 19.14C16.16 19.77 15.2 20.1 14.18 20.1H13.5C11.02 20.1 9.01 18.09 9.01 15.62V7.98C9.01 5.51 11.02 3.5 13.5 3.5C13.91 3.5 14.25 3.16 14.25 2.75C14.25 2.34 13.91 2 13.5 2C10.2 2 7.51 4.69 7.51 7.98V15.62C7.51 18.92 10.2 21.6 13.5 21.6Z" fill="black"/>
<path d="M27.62 8.84C27.33 8.55 26.85 8.55 26.56 8.84L22.97 12.43V2.75C22.97 2.34 22.63 2 22.22 2C21.81 2 21.47 2.34 21.47 2.75V12.43L17.88 8.84C17.59 8.55 17.11 8.55 16.82 8.84C16.53 9.13 16.53 9.61 16.82 9.9L21.69 14.77C21.84 14.92 22.03 14.99 22.22 14.99C22.41 14.99 22.6 14.92 22.75 14.77L27.62 9.9C27.91 9.61 27.91 9.13 27.62 8.84Z" fill="black"/>
</svg>
