<svg width="32" height="32" viewBox="0 0 32 32" fill="none" xmlns="http://www.w3.org/2000/svg">
<path d="M29.7752 28.6762L22.0821 20.9831C23.8805 18.9848 24.9795 16.2872 24.9795 13.3898C24.9795 7.19536 19.7841 2 13.4897 2C7.19536 2 2 7.19536 2 13.4897C2 19.7841 7.19536 24.9795 13.4897 24.9795C16.3872 24.9795 18.9848 23.8805 21.083 22.0821L28.7761 29.7752C28.876 29.8751 29.0758 29.975 29.2756 29.975C29.4755 29.975 29.6753 29.8751 29.7752 29.7752C30.0749 29.4755 30.0749 28.9759 29.7752 28.6762ZM13.4897 23.4808C7.99465 23.4808 3.49866 18.9848 3.49866 13.4897C3.49866 7.99465 7.99465 3.49866 13.4897 3.49866C18.9848 3.49866 23.4808 7.99465 23.4808 13.4897C23.4808 18.9848 18.9848 23.4808 13.4897 23.4808Z" fill="black"/>
<path d="M18.785 8.59411H12.5905C12.1909 8.59411 11.7913 8.89385 11.7913 9.3934C11.7913 9.89295 12.091 10.1927 12.5905 10.1927H18.785C19.1847 10.1927 19.5843 9.89295 19.5843 9.3934C19.5843 8.89385 19.1847 8.59411 18.785 8.59411Z" fill="black"/>
<path d="M9.29349 8.59411H8.19447C7.79483 8.59411 7.39518 8.99376 7.39518 9.3934C7.39518 9.79304 7.69492 10.1927 8.19447 10.1927H9.29349C9.69313 10.0928 9.99286 9.79304 9.99286 9.3934C9.99286 8.99376 9.69313 8.59411 9.29349 8.59411Z" fill="black"/>
<path d="M18.785 12.6905H12.5905C12.1909 12.6905 11.7913 12.9902 11.7913 13.4897C11.7913 13.9893 12.091 14.289 12.5905 14.289H18.785C19.1847 14.289 19.5843 13.9893 19.5843 13.4897C19.5843 12.9902 19.1847 12.6905 18.785 12.6905Z" fill="black"/>
<path d="M9.29349 12.6905H8.19447C7.79483 12.6905 7.39518 12.9902 7.39518 13.4897C7.39518 13.9893 7.69492 14.289 8.19447 14.289H9.29349C9.69313 14.289 10.0928 13.9893 10.0928 13.4897C10.0928 12.9902 9.69313 12.6905 9.29349 12.6905Z" fill="black"/>
<path d="M18.785 16.7868H12.5905C12.1909 16.7868 11.7913 17.0865 11.7913 17.5861C11.7913 18.0856 12.091 18.3854 12.5905 18.3854H18.785C19.1847 18.3854 19.5843 18.0856 19.5843 17.5861C19.5843 17.0865 19.1847 16.7868 18.785 16.7868Z" fill="black"/>
<path d="M9.29349 16.7868H8.19447C7.79483 16.7868 7.39518 17.0865 7.39518 17.5861C7.39518 18.0856 7.69492 18.3854 8.19447 18.3854H9.29349C9.69313 18.2855 9.99286 17.9857 9.99286 17.5861C9.99286 17.1864 9.69313 16.7868 9.29349 16.7868Z" fill="black"/>
</svg>
