<svg width="32" height="32" viewBox="0 0 32 32" fill="none" xmlns="http://www.w3.org/2000/svg">
<path d="M25.08 20.55C24.91 20.41 24.65 20.2 24.35 19.96C23.56 19.31 22.49 18.43 21.91 18.03C20.94 17.35 19.86 17.67 18.7 19.01C18.04 19.77 17.96 19.75 17.7 19.69C17.17 19.56 15.83 18.79 14.52 17.49C13.22 16.19 12.45 14.85 12.32 14.31C12.26 14.05 12.24 13.97 13 13.31C14.33 12.15 14.66 11.07 13.98 10.1C13.57 9.52 12.69 8.44 12.04 7.65C11.8 7.36 11.59 7.1 11.45 6.93C10.51 5.75 9.3 5.4 8.22 5.99L7.94 6.14C6.93 6.66 5.25 7.54 4.91 9.98C4.73 11.27 4.82 14.01 7.43 17.76C7.67 18.1 8.13 18.19 8.47 17.95C8.81 17.71 8.89 17.25 8.66 16.91C6.34 13.57 6.25 11.26 6.39 10.19C6.62 8.52 7.69 7.97 8.63 7.48L8.94 7.32C9.45 7.04 9.95 7.47 10.28 7.88C10.42 8.05 10.63 8.31 10.88 8.62C11.51 9.39 12.38 10.44 12.75 10.98C12.81 11.07 13 11.34 12.02 12.19C11.31 12.81 10.57 13.45 10.87 14.68C11.11 15.68 12.18 17.28 13.47 18.57C14.76 19.86 16.36 20.93 17.36 21.17C18.59 21.47 19.23 20.73 19.85 20.02C20.7 19.04 20.97 19.22 21.06 19.29C21.59 19.66 22.64 20.53 23.41 21.16C23.71 21.41 23.98 21.63 24.15 21.77C24.56 22.1 24.99 22.6 24.71 23.11L24.55 23.42C24.06 24.36 23.51 25.43 21.84 25.66C21.38 25.72 20.87 25.72 20.33 25.66C19.92 25.6 19.54 25.9 19.49 26.31C19.44 26.72 19.73 27.1 20.14 27.15C20.49 27.2 20.83 27.22 21.15 27.22C21.46 27.22 21.76 27.2 22.04 27.16C24.48 26.82 25.35 25.14 25.88 24.13L26.03 23.85C26.62 22.77 26.27 21.56 25.09 20.62L25.08 20.55Z" fill="black"/>
<path d="M14.8 23.99H14.55C14.46 21.44 12.36 19.4 9.79 19.4C7.67 19.4 5.81 20.83 5.23 22.82C3.42 23.01 2 24.54 2 26.4C2 28.38 3.61 30 5.6 30H14.8C16.46 30 17.8 28.65 17.8 27C17.8 25.35 16.45 24 14.8 24V23.99ZM14.8 28.5H5.6C4.44 28.5 3.5 27.56 3.5 26.4C3.5 25.24 4.44 24.3 5.6 24.3H5.83C6.2 24.3 6.52 24.03 6.57 23.66C6.81 22.08 8.19 20.89 9.79 20.89C11.59 20.89 13.05 22.35 13.05 24.15C13.05 24.31 13.03 24.47 13.01 24.63C12.98 24.85 13.04 25.07 13.18 25.23C13.32 25.4 13.53 25.49 13.75 25.49H14.8C15.63 25.49 16.3 26.16 16.3 26.99C16.3 27.82 15.63 28.49 14.8 28.49V28.5Z" fill="black"/>
<path d="M23.25 2C19.52 2 16.5 5.02 16.5 8.75C16.5 12.48 19.52 15.5 23.25 15.5C26.98 15.5 30 12.48 30 8.75C30 5.02 26.98 2 23.25 2ZM24.52 11.91L24.11 12.32C23.53 12.9 22.75 13.23 21.9 13.24C21.06 13.24 20.27 12.91 19.68 12.32C19.09 11.73 18.76 10.94 18.76 10.1C18.76 9.26 19.09 8.48 19.68 7.89L20.09 7.48C20.33 7.23 20.73 7.23 20.97 7.48C21.22 7.72 21.22 8.12 20.97 8.36L20.56 8.77C20.21 9.12 20.01 9.6 20.01 10.1C20.01 10.6 20.21 11.08 20.56 11.44C20.92 11.79 21.39 11.99 21.9 11.99C22.4 11.99 22.88 11.79 23.23 11.44L23.64 11.03C23.88 10.78 24.28 10.78 24.52 11.03C24.77 11.27 24.77 11.67 24.52 11.91ZM24.65 8.24L22.74 10.15C22.61 10.27 22.45 10.33 22.29 10.33C22.13 10.33 21.97 10.27 21.85 10.15C21.61 9.9 21.61 9.51 21.85 9.26L23.76 7.35C24.01 7.11 24.4 7.11 24.65 7.35C24.89 7.6 24.89 7.99 24.65 8.24ZM26.82 9.61L26.41 10.02C26.29 10.14 26.13 10.21 25.97 10.21C25.81 10.21 25.65 10.14 25.53 10.02C25.28 9.78 25.28 9.38 25.53 9.14L25.94 8.73C26.29 8.38 26.48 7.9 26.49 7.39C26.49 6.89 26.29 6.42 25.94 6.06C25.2 5.33 24 5.33 23.27 6.06L22.86 6.47C22.62 6.72 22.22 6.72 21.98 6.47C21.73 6.23 21.73 5.83 21.98 5.59L22.38 5.18C23.61 3.96 25.6 3.96 26.82 5.18C27.41 5.77 27.74 6.56 27.74 7.4C27.73 8.25 27.4 9.03 26.82 9.61Z" fill="black"/>
</svg>
