<svg width="32" height="32" viewBox="0 0 32 32" fill="none" xmlns="http://www.w3.org/2000/svg">
<path d="M25.08 20.55C24.91 20.41 24.65 20.2 24.35 19.96C23.56 19.31 22.49 18.43 21.91 18.03C20.94 17.35 19.86 17.67 18.7 19.01C18.04 19.77 17.96 19.75 17.7 19.69C17.17 19.56 15.83 18.79 14.52 17.49C13.22 16.19 12.45 14.85 12.32 14.31C12.26 14.05 12.24 13.97 13 13.31C14.33 12.15 14.66 11.07 13.98 10.1C13.57 9.52 12.69 8.44 12.04 7.65C11.8 7.36 11.59 7.1 11.45 6.93C10.51 5.75 9.3 5.4 8.22 5.99L7.94 6.14C6.93 6.66 5.25 7.54 4.91 9.98C4.73 11.27 4.82 14.01 7.43 17.76C7.67 18.1 8.13 18.19 8.47 17.95C8.81 17.71 8.89 17.25 8.66 16.91C6.34 13.57 6.25 11.26 6.39 10.19C6.62 8.52 7.69 7.97 8.63 7.48L8.94 7.32C9.45 7.04 9.95 7.47 10.28 7.88C10.42 8.05 10.63 8.31 10.88 8.62C11.51 9.39 12.38 10.44 12.75 10.98C12.81 11.07 13 11.34 12.02 12.19C11.31 12.81 10.57 13.45 10.87 14.68C11.11 15.68 12.18 17.28 13.47 18.57C14.76 19.86 16.36 20.93 17.36 21.17C18.59 21.47 19.23 20.73 19.85 20.02C20.7 19.04 20.97 19.22 21.06 19.29C21.59 19.66 22.64 20.53 23.41 21.16C23.71 21.41 23.98 21.63 24.15 21.77C24.56 22.1 24.99 22.6 24.71 23.11L24.55 23.42C24.06 24.36 23.51 25.43 21.84 25.66C21.38 25.72 20.87 25.72 20.33 25.66C19.92 25.6 19.54 25.9 19.49 26.31C19.44 26.72 19.73 27.1 20.14 27.15C20.49 27.2 20.83 27.22 21.15 27.22C21.46 27.22 21.76 27.2 22.04 27.16C24.48 26.82 25.35 25.14 25.88 24.13L26.03 23.85C26.62 22.77 26.27 21.56 25.09 20.62L25.08 20.55Z" fill="black"/>
<path d="M23.25 2C19.53 2 16.5 5.02 16.5 8.75C16.5 12.48 19.53 15.5 23.25 15.5C26.97 15.5 30 12.47 30 8.75C30 5.03 26.97 2 23.25 2ZM26.35 9.6L23.78 12.17C23.71 12.24 23.63 12.29 23.54 12.33C23.45 12.37 23.35 12.39 23.25 12.39C23.15 12.39 23.05 12.37 22.96 12.33C22.87 12.29 22.79 12.24 22.72 12.17L20.16 9.6C19.86 9.31 19.86 8.84 20.16 8.54C20.45 8.25 20.92 8.25 21.22 8.54L22.5 9.83V5.85C22.5 5.43 22.84 5.1 23.25 5.1C23.66 5.1 24 5.43 24 5.85V9.83L25.29 8.54C25.44 8.4 25.63 8.32 25.82 8.32C26.01 8.32 26.2 8.4 26.35 8.54C26.64 8.84 26.64 9.31 26.35 9.6Z" fill="black"/>
<path d="M14.8 23.99H14.55C14.46 21.44 12.36 19.4 9.79 19.4C7.67 19.4 5.81 20.83 5.23 22.82C3.42 23.01 2 24.54 2 26.4C2 28.38 3.61 30 5.6 30H14.8C16.46 30 17.8 28.65 17.8 27C17.8 25.35 16.45 24 14.8 24V23.99ZM14.8 28.5H5.6C4.44 28.5 3.5 27.56 3.5 26.4C3.5 25.24 4.44 24.3 5.6 24.3H5.83C6.2 24.3 6.52 24.03 6.57 23.66C6.81 22.08 8.19 20.89 9.79 20.89C11.59 20.89 13.05 22.35 13.05 24.15C13.05 24.31 13.03 24.47 13.01 24.63C12.98 24.85 13.04 25.07 13.18 25.23C13.32 25.4 13.53 25.49 13.75 25.49H14.8C15.63 25.49 16.3 26.16 16.3 26.99C16.3 27.82 15.63 28.49 14.8 28.49V28.5Z" fill="black"/>
</svg>
