<svg width="32" height="32" viewBox="0 0 32 32" fill="none" xmlns="http://www.w3.org/2000/svg">
<path d="M27.08 18.8412C26.91 18.7012 26.65 18.4912 26.35 18.2512C25.56 17.6012 24.49 16.7212 23.91 16.3212C22.94 15.6412 21.86 15.9612 20.7 17.3012C20.04 18.0612 19.96 18.0412 19.7 17.9812C19.17 17.8512 17.83 17.0812 16.52 15.7812C15.22 14.4812 14.45 13.1412 14.32 12.6012C14.26 12.3412 14.24 12.2612 15 11.6012C16.33 10.4412 16.66 9.36124 15.98 8.39124C15.57 7.81124 14.69 6.73124 14.04 5.94124C13.8 5.65124 13.59 5.39124 13.45 5.22124C12.51 4.04124 11.3 3.69124 10.22 4.28124L9.94 4.43124C8.93 4.95124 7.25 5.83124 6.91 8.27124C6.73 9.56124 6.82 12.3012 9.43 16.0512C9.67 16.3912 10.13 16.4812 10.47 16.2412C10.81 16.0012 10.89 15.5412 10.66 15.2012C8.34 11.8612 8.25 9.55124 8.39 8.48124C8.62 6.81124 9.69 6.26124 10.63 5.77124L10.94 5.61124C11.45 5.33124 11.95 5.76124 12.28 6.17124C12.42 6.34124 12.63 6.60124 12.88 6.91124C13.51 7.68124 14.38 8.73124 14.75 9.27124C14.81 9.36124 15 9.63124 14.02 10.4812C13.31 11.1012 12.57 11.7412 12.87 12.9712C13.11 13.9712 14.18 15.5712 15.47 16.8612C16.76 18.1512 18.36 19.2212 19.36 19.4612C20.59 19.7612 21.23 19.0212 21.85 18.3112C22.7 17.3312 22.97 17.5112 23.06 17.5812C23.59 17.9512 24.64 18.8212 25.41 19.4512C25.71 19.7012 25.98 19.9212 26.15 20.0612C26.56 20.3912 26.99 20.8912 26.71 21.4012L26.55 21.7112C26.06 22.6512 25.51 23.7212 23.84 23.9512C23.38 24.0112 22.87 24.0112 22.33 23.9512C21.92 23.8912 21.54 24.1912 21.49 24.6012C21.44 25.0112 21.73 25.3912 22.14 25.4412C22.49 25.4912 22.83 25.5112 23.15 25.5112C23.46 25.5112 23.76 25.4912 24.04 25.4512C26.48 25.1112 27.35 23.4312 27.88 22.4212L28.03 22.1412C28.62 21.0612 28.27 19.8512 27.09 18.9112L27.08 18.8412Z" fill="black"/>
<path d="M16.8 22.2812H16.55C16.46 19.7312 14.36 17.6912 11.79 17.6912C9.67 17.6912 7.81 19.1212 7.23 21.1112C5.42 21.3012 4 22.8312 4 24.6912C4 26.6712 5.61 28.2912 7.6 28.2912H16.8C18.46 28.2912 19.8 26.9412 19.8 25.2912C19.8 23.6412 18.45 22.2912 16.8 22.2912V22.2812ZM16.8 26.7912H7.6C6.44 26.7912 5.5 25.8512 5.5 24.6912C5.5 23.5312 6.44 22.5912 7.6 22.5912H7.83C8.2 22.5912 8.52 22.3212 8.57 21.9512C8.81 20.3712 10.19 19.1812 11.79 19.1812C13.59 19.1812 15.05 20.6412 15.05 22.4412C15.05 22.6012 15.03 22.7612 15.01 22.9212C14.98 23.1412 15.04 23.3612 15.18 23.5212C15.32 23.6912 15.53 23.7812 15.75 23.7812H16.8C17.63 23.7812 18.3 24.4512 18.3 25.2812C18.3 26.1112 17.63 26.7812 16.8 26.7812V26.7912Z" fill="black"/>
</svg>
