<svg width="32" height="32" viewBox="0 0 32 32" fill="none" xmlns="http://www.w3.org/2000/svg">
<path d="M26 18.5H13.62C12.43 16.98 10.58 16 8.5 16C4.92 16 2 18.92 2 22.5C2 26.08 4.92 29 8.5 29C10.57 29 12.42 28.02 13.61 26.5H26C27.07 26.5 28.08 26.08 28.83 25.33C29.58 24.58 30 23.57 30 22.5C30 20.29 28.21 18.5 26 18.5ZM8.5 27.5C5.74 27.5 3.5 25.26 3.5 22.5C3.5 19.74 5.74 17.5 8.5 17.5C11.26 17.5 13.5 19.74 13.5 22.5C13.5 25.26 11.26 27.5 8.5 27.5ZM27.77 24.27C27.3 24.74 26.67 25 26 25H14.5C14.82 24.23 15 23.38 15 22.5C15 21.62 14.82 20.77 14.5 20H26C27.38 20 28.5 21.12 28.5 22.5C28.5 23.17 28.24 23.8 27.77 24.27Z" fill="black"/>
<path d="M6 12.5H18.39C19.58 14.02 21.43 15 23.5 15C27.08 15 30 12.08 30 8.5C30 4.92 27.08 2 23.5 2C21.42 2 19.57 2.98 18.38 4.5H6C4.93 4.5 3.92 4.92 3.17 5.67C2.42 6.42 2 7.43 2 8.5C2 10.71 3.79 12.5 6 12.5ZM23.5 3.5C26.26 3.5 28.5 5.74 28.5 8.5C28.5 11.26 26.26 13.5 23.5 13.5C20.74 13.5 18.5 11.26 18.5 8.5C18.5 5.74 20.74 3.5 23.5 3.5ZM4.23 6.73C4.7 6.26 5.33 6 6 6H17.5C17.18 6.77 17 7.61 17 8.5C17 9.39 17.18 10.23 17.5 11H6C4.62 11 3.5 9.88 3.5 8.5C3.5 7.83 3.76 7.2 4.23 6.73Z" fill="black"/>
</svg>
