<svg width="32" height="32" viewBox="0 0 32 32" fill="none" xmlns="http://www.w3.org/2000/svg">
<path d="M16 30C18.7689 30 21.4757 29.1789 23.778 27.6406C26.0803 26.1022 27.8747 23.9157 28.9343 21.3576C29.9939 18.7994 30.2712 15.9845 29.731 13.2687C29.1908 10.553 27.8574 8.05845 25.8995 6.10051C23.9416 4.14258 21.447 2.80921 18.7313 2.26901C16.0155 1.72882 13.2006 2.00607 10.6424 3.06569C8.08427 4.12532 5.89777 5.91973 4.35943 8.22202C2.82109 10.5243 2 13.2311 2 16C2 19.713 3.475 23.274 6.1005 25.8995C8.72601 28.525 12.287 30 16 30ZM5.85 14.77C6.13253 14.4915 6.5133 14.3354 6.91 14.3354C7.3067 14.3354 7.68747 14.4915 7.97 14.77L12.64 19.44L19.54 12.53H15.1C14.7022 12.53 14.3206 12.372 14.0393 12.0907C13.758 11.8094 13.6 11.4278 13.6 11.03C13.6 10.6322 13.758 10.2507 14.0393 9.96935C14.3206 9.68804 14.7022 9.53001 15.1 9.53001H23.17C23.5627 9.52993 23.9397 9.68384 24.2202 9.95869C24.5007 10.2335 24.6621 10.6074 24.67 11V19.1C24.67 19.4978 24.512 19.8794 24.2307 20.1607C23.9494 20.442 23.5678 20.6 23.17 20.6C22.7722 20.6 22.3906 20.442 22.1093 20.1607C21.828 19.8794 21.67 19.4978 21.67 19.1V14.65L13.67 22.65C13.3871 22.9287 13.007 23.0864 12.61 23.09C12.413 23.0904 12.2179 23.0517 12.0359 22.9762C11.854 22.9006 11.6888 22.7898 11.55 22.65L5.85 16.9C5.70941 16.7606 5.59782 16.5947 5.52166 16.4119C5.44551 16.2291 5.4063 16.033 5.4063 15.835C5.4063 15.637 5.44551 15.4409 5.52166 15.2581C5.59782 15.0754 5.70941 14.9095 5.85 14.77Z" fill="black"/>
</svg>
