<svg width="32" height="32" viewBox="0 0 32 32" fill="none" xmlns="http://www.w3.org/2000/svg">
<path d="M19.6487 21.4721H20.0295C20.6913 21.4586 21.3402 21.2859 21.9211 20.9684C22.502 20.6509 22.9978 20.1981 23.3665 19.6483L23.5268 19.4579C23.8652 19.0359 24.0332 18.5025 23.998 17.9628C23.9628 17.4231 23.7267 16.9161 23.3364 16.5417L22.8153 16.0106C22.2942 15.3592 21.5928 14.4774 21.2019 14.0565C20.8111 13.6356 19.809 13.1245 18.2958 14.2669C17.7146 14.7079 17.6745 14.6878 17.5342 14.6177C16.6832 14.0324 15.9687 13.2701 15.4398 12.383C14.8392 11.5217 14.4323 10.5405 14.2473 9.50695C14.2473 9.35663 14.2473 9.30653 14.8887 8.95579C16.5421 8.04388 16.5522 7.05179 16.2716 6.3904C15.991 5.72901 15.52 4.84716 15.1392 4.11562L14.7985 3.44421C14.6217 2.93258 14.258 2.50673 13.7803 2.25209C13.3027 1.99746 12.7464 1.93289 12.2231 2.07133L12.0126 2.14147C11.2952 2.25342 10.6207 2.55485 10.0587 3.01464C9.49674 3.47444 9.0677 4.07592 8.81592 4.75697C8.27478 6.26013 7.88396 9.5771 11.3813 15.0085C14.8787 20.4399 18.0253 21.3518 19.6487 21.4721ZM10.2389 5.27806C10.4066 4.8281 10.6941 4.43252 11.0703 4.13405C11.4465 3.83557 11.8971 3.64555 12.3734 3.58451L12.654 3.50434H12.7742C13.0147 3.50434 13.2452 3.70476 13.4557 4.12564L13.8064 4.8171C14.1772 5.52859 14.6782 6.51065 14.8887 6.99166C14.9588 7.14198 14.558 7.43259 14.1571 7.65305C13.4857 8.02383 12.7241 8.44472 12.7442 9.55705C12.9378 10.8538 13.4282 12.0884 14.1772 13.1646C14.8506 14.288 15.7771 15.2386 16.8829 15.9405C17.2729 16.1126 17.7077 16.1558 18.124 16.0639C18.5403 15.972 18.9164 15.7497 19.1977 15.4294C19.5585 15.1588 19.9894 14.9083 20.0996 15.0386C20.4504 15.4194 21.1017 16.2812 21.6429 16.9025L22.1339 17.5138C22.4746 17.9347 22.5448 18.2653 22.3544 18.5159L22.164 18.7363C21.9197 19.1506 21.566 19.4895 21.1417 19.7157C20.7174 19.942 20.239 20.047 19.7589 20.019C18.6967 19.9389 15.8908 19.2174 12.6339 14.1968C9.37709 9.17625 9.86813 6.27015 10.2389 5.27806Z" fill="black"/>
<path d="M25.6813 28.4968H6.75158C6.55225 28.4968 6.36108 28.576 6.22013 28.717C6.07918 28.8579 6 29.0491 6 29.2484C6 29.4478 6.07918 29.6389 6.22013 29.7799C6.36108 29.9208 6.55225 30 6.75158 30H25.6813C25.8807 30 26.0718 29.9208 26.2128 29.7799C26.3537 29.6389 26.4329 29.4478 26.4329 29.2484C26.4329 29.0491 26.3537 28.8579 26.2128 28.717C26.0718 28.576 25.8807 28.4968 25.6813 28.4968Z" fill="black"/>
<path d="M6.75158 25.8312H25.6813C25.8807 25.8312 26.0718 25.7521 26.2128 25.6111C26.3537 25.4702 26.4329 25.279 26.4329 25.0797C26.4329 24.8803 26.3537 24.6892 26.2128 24.5482C26.0718 24.4073 25.8807 24.3281 25.6813 24.3281H6.75158C6.55225 24.3281 6.36108 24.4073 6.22013 24.5482C6.07918 24.6892 6 24.8803 6 25.0797C6 25.279 6.07918 25.4702 6.22013 25.6111C6.36108 25.7521 6.55225 25.8312 6.75158 25.8312Z" fill="black"/>
</svg>
