<svg width="32" height="32" viewBox="0 0 32 32" fill="none" xmlns="http://www.w3.org/2000/svg">
<path d="M21.8939 12.2077C22.0239 12.4779 22.2939 12.6381 22.5739 12.6381C22.6839 12.6381 22.7839 12.618 22.8939 12.568L28.0039 10.1862C28.3839 10.0161 28.5439 9.56577 28.3639 9.18549C28.1839 8.80521 27.7439 8.64509 27.3639 8.82523L22.2539 11.207C21.8739 11.3871 21.7139 11.8275 21.8939 12.2077Z" fill="black"/>
<path d="M20.6239 9.62582C20.8239 9.62582 21.0239 9.54576 21.1739 9.38564L25.0239 5.26258C25.3039 4.96236 25.2939 4.482 24.9839 4.2018C24.6839 3.92159 24.2039 3.9316 23.9239 4.24183L20.0739 8.36488C19.7939 8.66511 19.8039 9.14546 20.1139 9.42567C20.2539 9.56577 20.4439 9.62582 20.6239 9.62582Z" fill="black"/>
<path d="M22.5039 13.7389C18.3639 13.7389 15.0039 17.1014 15.0039 21.2444C15.0039 25.3875 18.3639 28.75 22.5039 28.75C26.6439 28.75 30.0039 25.3875 30.0039 21.2444C30.0039 17.1014 26.6539 13.7389 22.5039 13.7389ZM26.3239 21.4746L20.3439 24.7871C20.1739 24.8771 19.9539 24.757 19.9539 24.5569V17.932C19.9539 17.7318 20.1739 17.6017 20.3439 17.7018L26.3239 21.0143C26.5039 21.1143 26.5039 21.3745 26.3239 21.4746Z" fill="black"/>
<path d="M12.9839 23.8964C11.7839 24.1966 10.5239 23.5962 10.0039 22.4653C10.0039 22.4653 10.0039 22.4653 10.0039 22.4453L12.6839 22.0751C13.0939 22.015 13.3839 21.6347 13.3239 21.2244C13.2639 20.8141 12.8839 20.5239 12.4739 20.5839L5.41387 21.5647L4.22387 19.0028L16.2739 8.1147L18.2439 12.3378C18.4139 12.7181 18.8639 12.8782 19.2439 12.6981C19.6239 12.518 19.7839 12.0776 19.6039 11.6974L17.2039 6.55354C17.1039 6.33338 16.9039 6.18327 16.6739 6.13323C16.4439 6.08319 16.1939 6.15324 16.0239 6.31336L3.55387 17.5917L3.43387 17.3215C3.26387 16.9412 2.81387 16.7811 2.43387 16.9613C2.05387 17.1414 1.89387 17.5817 2.07387 17.962L4.84387 23.8964C4.97387 24.1666 5.24387 24.3267 5.52387 24.3267C5.63387 24.3267 5.73387 24.3067 5.84387 24.2567C6.22387 24.0765 6.38387 23.6362 6.20387 23.2559L6.08387 22.9857L8.46387 22.6555C8.51387 22.8056 8.57387 22.9457 8.64387 23.0958C9.33387 24.5669 10.8039 25.4676 12.3639 25.4676C12.6939 25.4676 13.0239 25.4275 13.3439 25.3475C13.7439 25.2474 13.9939 24.8371 13.8939 24.4368C13.7939 24.0365 13.3939 23.7863 12.9839 23.8864V23.8964Z" fill="black"/>
</svg>
