<svg width="32" height="32" viewBox="0 0 32 32" fill="none" xmlns="http://www.w3.org/2000/svg">
<path d="M22.4984 13.7449C18.3575 13.7449 14.9967 17.1061 14.9967 21.2475C14.9967 25.3889 18.3575 28.75 22.4984 28.75C26.6393 28.75 30 25.3889 30 21.2475C30 17.1061 26.6493 13.7449 22.4984 13.7449ZM25.499 23.9984C25.499 24.1384 25.389 24.2485 25.249 24.2485H19.7478C19.6177 24.2485 19.4977 24.1384 19.4977 23.9984V18.4965C19.4977 18.3565 19.6177 18.2465 19.7478 18.2465H25.249C25.389 18.2465 25.499 18.3565 25.499 18.4965V23.9984Z" fill="black"/>
<path d="M21.8982 12.2144C22.0283 12.4845 22.2983 12.6446 22.5784 12.6446C22.6884 12.6446 22.7884 12.6246 22.8984 12.5745L28.0096 10.1937C28.3896 10.0137 28.5497 9.57353 28.3696 9.1934C28.1996 8.81327 27.7495 8.65322 27.3694 8.83328L22.2583 11.2141C21.8782 11.3841 21.7182 11.8343 21.8982 12.2144Z" fill="black"/>
<path d="M20.6279 9.62355C20.828 9.62355 21.028 9.54352 21.1781 9.38346L25.0289 5.26207C25.309 4.96197 25.299 4.48181 24.9889 4.20172C24.6888 3.92162 24.2087 3.93162 23.9287 4.24173L20.0778 8.36312C19.7978 8.66322 19.8078 9.14338 20.1178 9.42348C20.2679 9.56352 20.4479 9.62355 20.6279 9.62355Z" fill="black"/>
<path d="M12.9863 23.8984C11.776 24.1985 10.5257 23.5983 9.99562 22.4679C9.99562 22.4679 9.99562 22.4679 9.99562 22.4579L12.6762 22.0877C13.0863 22.0277 13.3764 21.6476 13.3163 21.2375C13.2563 20.8273 12.8863 20.5372 12.4662 20.5972L5.40461 21.5776L4.21435 19.0167L16.267 8.12304L18.2374 12.3445C18.4075 12.7246 18.8576 12.8846 19.2376 12.7046C19.6177 12.5245 19.7778 12.0844 19.5977 11.7042L17.1972 6.56251C17.0972 6.34244 16.8971 6.19239 16.6671 6.14237C16.437 6.09235 16.197 6.16238 16.0169 6.32243L3.55421 17.5962L3.43418 17.3261C3.26415 16.956 2.81405 16.786 2.43396 16.966C2.05388 17.1361 1.89385 17.5862 2.07388 17.9664L4.84449 23.8984C4.97452 24.1685 5.24458 24.3285 5.52464 24.3285C5.63466 24.3285 5.73469 24.3085 5.84471 24.2585C6.22479 24.0884 6.38483 23.6383 6.20479 23.2581L6.08476 22.9881L8.46528 22.6579C8.5253 22.808 8.58531 22.948 8.64532 23.0981C9.33547 24.5686 10.8058 25.4689 12.3661 25.4689C12.6962 25.4689 13.0263 25.4289 13.3464 25.3489C13.7464 25.2488 13.9965 24.8387 13.8965 24.4385C13.7965 24.0384 13.3864 23.7883 12.9863 23.8884V23.8984Z" fill="black"/>
</svg>
