<svg width="32" height="32" viewBox="0 0 32 32" fill="none" xmlns="http://www.w3.org/2000/svg">
<path fill-rule="evenodd" clip-rule="evenodd" d="M16 28.4946C22.9006 28.4946 28.4946 22.9006 28.4946 16C28.4946 9.09941 22.9006 3.50538 16 3.50538C9.09941 3.50537 3.50538 9.09941 3.50538 16C3.50538 22.9006 9.09941 28.4946 16 28.4946ZM30 16C30 23.732 23.732 30 16 30C8.26802 30 2 23.732 2 16C2 8.26801 8.26802 2 16 2C23.732 2 30 8.26802 30 16Z" fill="black"/>
<path fill-rule="evenodd" clip-rule="evenodd" d="M16 23.6272C15.1686 23.6272 14.4946 22.9533 14.4946 22.1219L14.4946 9.87814C14.4946 9.04674 15.1686 8.37276 16 8.37276C16.8314 8.37276 17.5054 9.04674 17.5054 9.87814L17.5054 22.1219C17.5054 22.9533 16.8314 23.6272 16 23.6272Z" fill="black"/>
</svg>
