<svg width="32" height="32" viewBox="0 0 32 32" fill="none" xmlns="http://www.w3.org/2000/svg">
<path d="M22.215 2C17.9232 2 14.4399 4.95683 14.4399 8.60292C14.4399 10.4909 15.3581 12.239 16.985 13.4877L15.967 16.5244C15.8572 16.8541 15.967 17.2037 16.2464 17.4135C16.3862 17.5134 16.5459 17.5633 16.7155 17.5633C16.8852 17.5633 17.0449 17.5134 17.1746 17.4135L20.4683 15.026C21.0472 15.1359 21.6361 15.1959 22.2249 15.1959C26.5167 15.1959 30 12.239 30 8.59294C30 4.94684 26.5067 2 22.215 2ZM22.215 13.6176C21.6261 13.6176 21.0372 13.5476 20.4683 13.4078C20.2487 13.3578 20.0092 13.4078 19.8196 13.5376L18.2426 14.6864L18.6618 13.4278C18.7816 13.0881 18.6418 12.7085 18.3424 12.5087C16.8652 11.5498 16.0169 10.1313 16.0169 8.59294C16.0169 5.8259 18.8015 3.56832 22.215 3.56832C25.6284 3.56832 28.413 5.81591 28.413 8.59294C28.413 11.37 25.6284 13.6176 22.215 13.6176Z" fill="black"/>
<path d="M22.215 7.67392C21.7059 7.67392 21.2967 8.08348 21.2967 8.59294C21.2967 9.10239 21.7059 9.51195 22.215 9.51195C22.724 9.51195 23.1332 9.10239 23.1332 8.59294C23.1332 8.08348 22.724 7.67392 22.215 7.67392Z" fill="black"/>
<path d="M25.5186 7.67392C25.0096 7.67392 24.6004 8.08348 24.6004 8.59294C24.6004 9.10239 25.0096 9.51195 25.5186 9.51195C26.0276 9.51195 26.4368 9.10239 26.4368 8.59294C26.4368 8.08348 26.0276 7.67392 25.5186 7.67392Z" fill="black"/>
<path d="M18.9113 7.67392C18.4023 7.67392 17.9931 8.08348 17.9931 8.59294C17.9931 9.10239 18.4023 9.51195 18.9113 9.51195C19.4203 9.51195 19.8295 9.10239 19.8295 8.59294C19.8295 8.08348 19.4203 7.67392 18.9113 7.67392Z" fill="black"/>
<path d="M23.6123 23.0275C23.4326 22.8776 23.1532 22.6579 22.8338 22.3981C21.9854 21.7089 20.8376 20.7599 20.2188 20.3204C19.2008 19.6011 18.0729 19.9508 16.8553 21.3593C16.1267 22.1984 16.0269 22.1784 15.7274 22.1085C15.1485 21.9686 13.7013 21.1395 12.294 19.731C10.8867 18.3225 10.0583 16.8741 9.91859 16.2947C9.84873 15.985 9.81878 15.8951 10.6672 15.1659C12.0744 13.9472 12.4238 12.8084 11.7052 11.7995C11.266 11.1802 10.3178 10.0214 9.62915 9.1823C9.36965 8.86265 9.14009 8.59294 9.00036 8.40314C8.00227 7.15448 6.73471 6.78487 5.60688 7.40421L5.30745 7.56404C4.21954 8.10346 2.423 9.04245 2.06369 11.6197C1.78422 13.6575 2.19344 17.9729 8.11206 23.8865C13.2123 28.9911 17.1148 30 19.4004 30C19.7597 30 20.089 29.97 20.3685 29.9401C22.9535 29.5804 23.8818 27.7924 24.4407 26.7135L24.6004 26.4138C25.2192 25.2851 24.8499 24.0064 23.6023 23.0175L23.6123 23.0275ZM23.2929 25.7046L23.1232 26.0342C22.6142 27.0032 21.9954 28.2119 20.1689 28.4616C18.7516 28.6614 14.8391 28.5016 9.17003 22.8377C3.5109 17.1638 3.35121 13.2479 3.55083 11.8295C3.80035 10.0114 5.00803 9.38209 5.97617 8.87264L6.30553 8.70282C6.43529 8.63289 6.56504 8.60292 6.69479 8.60292C7.13394 8.60292 7.53318 8.97253 7.81264 9.32215C7.96235 9.51195 8.19191 9.79165 8.46139 10.1113C9.14009 10.9404 10.0683 12.0692 10.4675 12.6386C10.5474 12.7585 10.767 13.0681 9.66907 14.0171C8.92051 14.6764 8.14201 15.3457 8.45141 16.6343C8.71091 17.6932 9.84873 19.4014 11.2261 20.7799C12.6034 22.1584 14.3002 23.2972 15.3681 23.5569C16.6457 23.8666 17.3244 23.0874 17.9831 22.3382C18.9413 21.2394 19.2407 21.4591 19.3604 21.5391C19.9294 21.9386 21.0672 22.8676 21.8956 23.5469C22.215 23.8166 22.4944 24.0364 22.6841 24.1862C23.1432 24.5558 23.6223 25.1152 23.3029 25.6946L23.2929 25.7046Z" fill="black"/>
</svg>
