<svg width="32" height="32" viewBox="0 0 32 32" fill="none" xmlns="http://www.w3.org/2000/svg">
<path d="M28.2538 9.84C27.9638 9.55 27.4838 9.55 27.1938 9.84L23.6038 13.43V3.75C23.6038 3.34 23.2638 3 22.8538 3C22.4438 3 22.1038 3.34 22.1038 3.75V13.43L18.5138 9.84C18.2238 9.55 17.7438 9.55 17.4538 9.84C17.1638 10.13 17.1638 10.61 17.4538 10.9L22.3238 15.77C22.4738 15.92 22.6638 15.99 22.8538 15.99C23.0438 15.99 23.2338 15.92 23.3838 15.77L28.2538 10.9C28.5438 10.61 28.5438 10.13 28.2538 9.84Z" fill="black"/>
<path d="M24.6538 21.48C24.4638 21.33 24.1938 21.11 23.8738 20.85C23.0338 20.16 21.8738 19.21 21.2538 18.77C20.2338 18.05 19.1038 18.4 17.8838 19.81C17.1538 20.66 17.0538 20.63 16.7438 20.56C16.1638 20.42 14.7138 19.59 13.3038 18.18C11.8938 16.77 11.0638 15.32 10.9238 14.74C10.8538 14.43 10.8238 14.34 11.6738 13.6C13.0838 12.38 13.4338 11.24 12.7138 10.23C12.2838 9.61 11.3338 8.46 10.6438 7.62C10.3738 7.3 10.1538 7.02 10.0038 6.83C9.00381 5.58 7.73381 5.21 6.60381 5.83L6.30381 5.99C5.22381 6.54 3.42381 7.48 3.06381 10.06C2.78381 12.1 3.19381 16.41 9.12381 22.34C14.2338 27.45 18.1438 28.46 20.4338 28.46C20.7938 28.46 21.1238 28.43 21.4038 28.4C23.9938 28.04 24.9238 26.25 25.4838 25.17L25.6438 24.87C26.2638 23.74 25.8938 22.46 24.6438 21.47L24.6538 21.48ZM24.3338 24.16L24.1638 24.49C23.6538 25.46 23.0338 26.67 21.2038 26.92C19.7838 27.12 15.8638 26.96 10.1838 21.29C4.51381 15.61 4.35381 11.69 4.55381 10.27C4.80381 8.45 6.01381 7.82 6.98381 7.31L7.31381 7.14C7.44381 7.07 7.57381 7.04 7.70381 7.04C8.14381 7.04 8.54381 7.41 8.82381 7.76C8.97381 7.95 9.21381 8.24 9.48381 8.56C10.1638 9.38 11.0838 10.51 11.4838 11.08C11.5638 11.2 11.7838 11.5 10.6838 12.46C9.93381 13.11 9.15381 13.79 9.46381 15.08C9.72381 16.14 10.8638 17.85 12.2438 19.23C13.6238 20.61 15.3238 21.75 16.3938 22.01C17.6838 22.32 18.3538 21.54 19.0138 20.79C19.9738 19.69 20.2738 19.91 20.3938 19.99C20.9638 20.39 22.1038 21.32 22.9238 22C23.2438 22.27 23.5238 22.5 23.7138 22.65C24.1738 23.02 24.6538 23.58 24.3338 24.16Z" fill="black"/>
</svg>
