<svg width="32" height="32" viewBox="0 0 32 32" fill="none" xmlns="http://www.w3.org/2000/svg">
<path d="M12.25 20.1875V15.1175C12.25 14.7075 11.91 14.3675 11.5 14.3675C11.09 14.3675 10.75 14.7075 10.75 15.1175V20.4975C10.75 20.6975 10.83 20.8875 10.97 21.0275L14.78 24.8375C14.93 24.9875 15.12 25.0575 15.31 25.0575C15.5 25.0575 15.69 24.9875 15.84 24.8375C16.13 24.5475 16.13 24.0675 15.84 23.7775L12.25 20.1875Z" fill="black"/>
<path d="M11.5 10.9975C6.26 10.9975 2 15.2575 2 20.4975C2 25.7375 6.26 29.9975 11.5 29.9975C16.74 29.9975 21 25.7375 21 20.4975C21 15.2575 16.74 10.9975 11.5 10.9975ZM11.5 28.4975C7.09 28.4975 3.5 24.9075 3.5 20.4975C3.5 16.0875 7.09 12.4975 11.5 12.4975C15.91 12.4975 19.5 16.0875 19.5 20.4975C19.5 24.9075 15.91 28.4975 11.5 28.4975Z" fill="black"/>
<path d="M24.49 5.3575H16.6L18.68 3.2775C18.97 2.9875 18.97 2.5075 18.68 2.2175C18.39 1.9275 17.91 1.9275 17.62 2.2175L14.26 5.5775C14.12 5.7175 14.04 5.9075 14.04 6.1075C14.04 6.3075 14.12 6.4975 14.26 6.6375L17.62 9.9975C17.77 10.1475 17.96 10.2175 18.15 10.2175C18.34 10.2175 18.53 10.1475 18.68 9.9975C18.97 9.7075 18.97 9.2275 18.68 8.9375L16.6 6.8575H24.49C26.7 6.8575 28.5 8.6575 28.5 10.8675C28.5 13.0775 26.7 14.8775 24.49 14.8775C24.08 14.8775 23.74 15.2175 23.74 15.6275C23.74 16.0375 24.08 16.3775 24.49 16.3775C27.53 16.3775 30 13.9075 30 10.8675C30 7.8275 27.53 5.3575 24.49 5.3575Z" fill="black"/>
</svg>
