<svg width="32" height="32" viewBox="0 0 32 32" fill="none" xmlns="http://www.w3.org/2000/svg">
<path d="M28.2538 8.0875L23.3838 3.2175C23.0938 2.9275 22.6138 2.9275 22.3238 3.2175L17.4538 8.0875C17.1638 8.3775 17.1638 8.8575 17.4538 9.1475C17.6038 9.2975 17.7938 9.3675 17.9838 9.3675C18.1738 9.3675 18.3638 9.2975 18.5138 9.1475L22.1038 5.5575V15.2375C22.1038 15.6475 22.4438 15.9875 22.8538 15.9875C23.2638 15.9875 23.6038 15.6475 23.6038 15.2375V5.5575L27.1938 9.1475C27.4838 9.4375 27.9638 9.4375 28.2538 9.1475C28.5438 8.8575 28.5438 8.3775 28.2538 8.0875Z" fill="black"/>
<path d="M24.6538 21.4775C24.4638 21.3275 24.1938 21.1075 23.8738 20.8475C23.0338 20.1575 21.8738 19.2075 21.2538 18.7675C20.2338 18.0475 19.1038 18.3975 17.8838 19.8075C17.1538 20.6475 17.0538 20.6275 16.7438 20.5575C16.1638 20.4175 14.7138 19.5875 13.3038 18.1775C11.8938 16.7675 11.0638 15.3175 10.9238 14.7375C10.8538 14.4275 10.8238 14.3375 11.6738 13.6075C13.0838 12.3875 13.4338 11.2475 12.7138 10.2375C12.2838 9.6275 11.3338 8.4775 10.6538 7.6375C10.3838 7.3075 10.1538 7.0275 10.0038 6.8375C9.00381 5.5875 7.73381 5.2175 6.60381 5.8375L6.30381 5.9975C5.22381 6.5375 3.42381 7.4775 3.06381 10.0575C2.78381 12.0975 3.19381 16.4175 9.12381 22.3375C14.2338 27.4475 18.1438 28.4575 20.4338 28.4575C20.8038 28.4575 21.1238 28.4275 21.4038 28.3975C23.9938 28.0375 24.9238 26.2475 25.4838 25.1675L25.6438 24.8675C26.2638 23.7375 25.8938 22.4575 24.6438 21.4675L24.6538 21.4775ZM24.3338 24.1575L24.1638 24.4875C23.6538 25.4575 23.0338 26.6675 21.2038 26.9175C19.7838 27.1175 15.8638 26.9575 10.1838 21.2875C4.51381 15.6075 4.35381 11.6875 4.55381 10.2675C4.80381 8.4475 6.01381 7.8175 6.98381 7.3175L7.31381 7.1375C7.44381 7.0675 7.57381 7.0375 7.70381 7.0375C8.14381 7.0375 8.54381 7.4075 8.82381 7.7575C8.97381 7.9475 9.21381 8.2375 9.48381 8.5675C10.1538 9.3875 11.0838 10.5075 11.4838 11.0775C11.5638 11.1975 11.7838 11.4975 10.6838 12.4575C9.93381 13.1075 9.15381 13.7875 9.46381 15.0775C9.72381 16.1375 10.8638 17.8475 12.2438 19.2275C13.6238 20.6075 15.3238 21.7475 16.3938 22.0075C17.6838 22.3175 18.3538 21.5375 19.0138 20.7875C19.9638 19.6875 20.2738 19.9075 20.3938 19.9875C20.9638 20.3875 22.1038 21.3175 22.9238 21.9975C23.2438 22.2675 23.5238 22.4975 23.7138 22.6475C24.1738 23.0175 24.6538 23.5775 24.3338 24.1575Z" fill="black"/>
</svg>
