<svg width="32" height="32" viewBox="0 0 32 32" fill="none" xmlns="http://www.w3.org/2000/svg">
<path d="M21.9993 13.6168C22.0034 13.3049 21.9766 12.9934 21.9193 12.6868L20.4693 14.1368C20.3512 15.1915 19.8781 16.1747 19.1277 16.9251C18.3772 17.6756 17.394 18.1487 16.3393 18.2668L14.8893 19.7168C15.1959 19.7741 15.5075 19.8009 15.8193 19.7968C17.4584 19.7968 19.0303 19.1457 20.1893 17.9867C21.3482 16.8278 21.9993 15.2558 21.9993 13.6168Z" fill="black"/>
<path d="M8.37934 20.5568C6.58134 18.6314 5.60152 16.0828 5.64659 13.4488C5.69166 10.8147 6.75808 8.30118 8.6209 6.43837C10.4837 4.57555 12.9973 3.50912 15.6313 3.46406C18.2653 3.41899 20.8139 4.39881 22.7393 6.19681L23.7993 5.13681C21.5895 3.07385 18.6649 1.9498 15.6423 2.00172C12.6196 2.05365 9.73531 3.2775 7.59767 5.41514C5.46003 7.55278 4.23618 10.4371 4.18426 13.4597C4.13233 16.4824 5.25639 19.407 7.31934 21.6168L8.37934 20.5568Z" fill="black"/>
<path d="M25.0893 9.50681C25.9341 11.384 26.1888 13.4734 25.8196 15.4986C25.4504 17.5237 24.4747 19.3888 23.0219 20.8471C21.569 22.3054 19.7075 23.288 17.6838 23.6647C15.66 24.0414 13.5696 23.7946 11.6893 22.9568L11.2193 23.4268L10.6093 24.1168L8.04934 26.8668C7.80476 27.1318 7.6454 27.4641 7.59191 27.8207C7.53842 28.1773 7.59326 28.5417 7.74934 28.8668C7.89864 29.1984 8.14237 29.4787 8.45006 29.6725C8.75776 29.8664 9.11577 29.9653 9.47934 29.9568H22.1293C22.4949 29.9623 22.8539 29.8599 23.1616 29.6625C23.4693 29.4651 23.712 29.1814 23.8593 28.8468C24.0127 28.5211 24.0661 28.1573 24.0127 27.8013C23.9593 27.4453 23.8015 27.1131 23.5593 26.8468L20.9993 24.0268C22.9292 23.0572 24.5516 21.5703 25.6853 19.732C26.819 17.8938 27.4193 15.7765 27.4193 13.6168C27.4234 11.7958 26.995 9.99987 26.1693 8.37681L25.0893 9.50681ZM22.4293 27.8568C22.4778 27.9059 22.5097 27.969 22.5204 28.0372C22.5312 28.1053 22.5203 28.1751 22.4893 28.2368C22.4578 28.3049 22.4067 28.3622 22.3427 28.4014C22.2786 28.4405 22.2044 28.4598 22.1293 28.4568H9.47934C9.40311 28.4592 9.32778 28.4398 9.26222 28.4008C9.19667 28.3618 9.14362 28.3049 9.10934 28.2368C9.08113 28.1745 9.07179 28.1054 9.08245 28.0378C9.09311 27.9703 9.12332 27.9074 9.16934 27.8568L11.9993 24.6368C14.4505 25.4903 17.1182 25.4903 19.5693 24.6368L22.4293 27.8568Z" fill="black"/>
<path d="M19.9093 9.02681C18.7849 8.00513 17.3186 7.44146 15.7993 7.44681C14.1638 7.44945 12.5959 8.10035 11.4394 9.25688C10.2829 10.4134 9.63198 11.9812 9.62934 13.6168C9.62593 15.1357 10.1893 16.6013 11.2093 17.7268L12.2693 16.6668C11.5302 15.8231 11.1248 14.7385 11.1293 13.6168C11.1346 12.3808 11.6286 11.1971 12.5036 10.324C13.3785 9.45093 14.5633 8.95944 15.7993 8.95681C16.9038 8.96434 17.9686 9.36898 18.7993 10.0968L19.9093 9.02681Z" fill="black"/>
<path d="M13.1393 13.6168C13.1383 14.2045 13.3356 14.7752 13.6993 15.2368L17.4193 11.5168C17.0272 11.2109 16.557 11.0215 16.0623 10.9703C15.5676 10.9191 15.0685 11.0081 14.622 11.2271C14.1756 11.4462 13.7997 11.7865 13.5375 12.2091C13.2753 12.6316 13.1373 13.1195 13.1393 13.6168Z" fill="black"/>
<path d="M28.3793 3.37681C28.2387 3.23636 28.0481 3.15747 27.8493 3.15747C27.6506 3.15747 27.46 3.23636 27.3193 3.37681L3.21934 27.4768C3.07889 27.6174 3 27.8081 3 28.0068C3 28.2056 3.07889 28.3962 3.21934 28.5368C3.35997 28.6773 3.55059 28.7561 3.74934 28.7561C3.94809 28.7561 4.13871 28.6773 4.27934 28.5368L28.3793 4.43681C28.4501 4.36786 28.5063 4.28544 28.5447 4.19442C28.5831 4.10339 28.6029 4.0056 28.6029 3.90681C28.6029 3.80801 28.5831 3.71022 28.5447 3.61919C28.5063 3.52817 28.4501 3.44575 28.3793 3.37681Z" fill="black"/>
</svg>
