<svg width="32" height="32" viewBox="0 0 32 32" fill="none" xmlns="http://www.w3.org/2000/svg">
<path d="M26.24 2.00001H5.75C4.75544 2.00001 3.80161 2.3951 3.09835 3.09836C2.39509 3.80162 2 4.75545 2 5.75001V26.25C2 27.2446 2.39509 28.1984 3.09835 28.9017C3.80161 29.6049 4.75544 30 5.75 30H26.24C26.7333 30.0013 27.222 29.9053 27.6781 29.7174C28.1343 29.5296 28.5488 29.2536 28.8981 28.9052C29.2474 28.5569 29.5245 28.143 29.7136 27.6874C29.9027 27.2318 30 26.7433 30 26.25V5.75001C30 5.25671 29.9027 4.76826 29.7136 4.31264C29.5245 3.85701 29.2474 3.44317 28.8981 3.09482C28.5488 2.74647 28.1343 2.47046 27.6781 2.28259C27.222 2.09472 26.7333 1.9987 26.24 2.00001ZM10.83 28.5H5.75C5.15326 28.5 4.58097 28.263 4.15901 27.841C3.73705 27.419 3.5 26.8468 3.5 26.25V21.17H10.83V28.5ZM10.83 19.67H3.5V12.33H10.83V19.67ZM10.83 10.83H3.5V5.75001C3.5 5.15328 3.73705 4.58098 4.15901 4.15902C4.58097 3.73707 5.15326 3.50001 5.75 3.50001H10.83V10.83ZM19.66 28.5H12.33V21.17H19.66V28.5ZM19.66 10.83H12.33V3.50001H19.66V10.83ZM28.49 26.25C28.49 26.8468 28.2529 27.419 27.831 27.841C27.409 28.263 26.8367 28.5 26.24 28.5H21.16V21.17H28.49V26.25ZM28.49 19.67H21.16V12.33H28.49V19.67ZM28.49 10.83H21.16V3.50001H26.24C26.8367 3.50001 27.409 3.73707 27.831 4.15902C28.2529 4.58098 28.49 5.15328 28.49 5.75001V10.83Z" fill="black"/>
</svg>
