<svg width="32" height="32" viewBox="0 0 32 32" fill="none" xmlns="http://www.w3.org/2000/svg">
<path d="M28.99 18.6775C28.63 18.4875 28.18 18.6375 27.98 18.9975C27.21 20.4075 25.75 21.2775 24.16 21.2775H15.91C15.71 21.2775 15.52 21.3575 15.38 21.4975L10.37 26.5075V22.0275C10.37 21.6175 10.03 21.2775 9.62 21.2775H7.85C5.45 21.2775 3.5 19.3275 3.5 16.9275V8.7775C3.5 6.3775 5.45 4.4275 7.85 4.4275H13.54C13.95 4.4275 14.29 4.0875 14.29 3.6775C14.29 3.2675 13.95 2.9275 13.54 2.9275H7.85C4.62 2.9275 2 5.5475 2 8.7775V16.9275C2 20.1575 4.62 22.7775 7.85 22.7775H8.87V28.3175C8.87 28.6175 9.05 28.8975 9.33 29.0075C9.42 29.0475 9.52 29.0675 9.62 29.0675C9.81 29.0675 10.01 28.9875 10.15 28.8475L16.22 22.7775H24.16C26.3 22.7775 28.26 21.6075 29.32 19.6675C29.5 19.2975 29.35 18.8675 28.99 18.6875V18.6775Z" fill="black"/>
<path d="M29.78 7.0875L24.91 2.2175C24.62 1.9275 24.14 1.9275 23.85 2.2175L18.98 7.0875C18.69 7.3775 18.69 7.8575 18.98 8.1475C19.27 8.4375 19.75 8.4375 20.04 8.1475L23.63 4.5575V14.2375C23.63 14.6475 23.97 14.9875 24.38 14.9875C24.79 14.9875 25.13 14.6475 25.13 14.2375V4.5575L28.72 8.1475C28.87 8.2975 29.06 8.3675 29.25 8.3675C29.44 8.3675 29.63 8.2975 29.78 8.1475C30.07 7.8575 30.07 7.3775 29.78 7.0875Z" fill="black"/>
</svg>
