<svg width="32" height="32" viewBox="0 0 32 32" fill="none" xmlns="http://www.w3.org/2000/svg">
<path d="M28.99 18.68C28.63 18.49 28.18 18.64 27.98 19C27.21 20.41 25.75 21.28 24.16 21.28H15.91C15.71 21.28 15.52 21.36 15.38 21.5L10.37 26.51V22.03C10.37 21.62 10.03 21.28 9.62 21.28H7.85C5.45 21.28 3.5 19.33 3.5 16.93V8.78C3.5 6.38 5.45 4.43 7.85 4.43H13.54C13.95 4.43 14.29 4.09 14.29 3.68C14.29 3.27 13.95 2.93 13.54 2.93H7.85C4.62 2.93 2 5.55 2 8.78V16.93C2 20.16 4.62 22.78 7.85 22.78H8.87V28.32C8.87 28.62 9.05 28.9 9.33 29.01C9.42 29.05 9.52 29.07 9.62 29.07C9.81 29.07 10.01 28.99 10.15 28.85L16.22 22.78H24.16C26.3 22.78 28.27 21.61 29.32 19.67C29.5 19.3 29.35 18.87 28.99 18.69V18.68Z" fill="black"/>
<path d="M29.78 8.84C29.49 8.55 29.01 8.55 28.72 8.84L25.13 12.43V2.75C25.13 2.34 24.79 2 24.38 2C23.97 2 23.63 2.34 23.63 2.75V12.43L20.04 8.84C19.75 8.55 19.27 8.55 18.98 8.84C18.69 9.13 18.69 9.61 18.98 9.9L23.85 14.77C24 14.92 24.19 14.99 24.38 14.99C24.57 14.99 24.76 14.92 24.91 14.77L29.78 9.9C30.07 9.61 30.07 9.13 29.78 8.84Z" fill="black"/>
</svg>
