<svg width="32" height="32" viewBox="0 0 32 32" fill="none" xmlns="http://www.w3.org/2000/svg">
<path d="M29.0703 3.21622C28.9267 3.07752 28.7349 3 28.5353 3C28.3357 3 28.1438 3.07752 28.0003 3.21622L2.94027 28.2762C2.79982 28.4168 2.72093 28.6075 2.72093 28.8062C2.72093 29.005 2.79982 29.1956 2.94027 29.3362C3.00951 29.4063 3.09206 29.4619 3.18308 29.4997C3.27409 29.5375 3.37173 29.5567 3.47027 29.5562C3.56889 29.5573 3.6667 29.5383 3.75779 29.5005C3.84889 29.4627 3.93137 29.4068 4.00027 29.3362L29.0703 4.27622C29.2107 4.13559 29.2896 3.94497 29.2896 3.74622C29.2896 3.54747 29.2107 3.35684 29.0703 3.21622Z" fill="black"/>
<path d="M10.6903 17.6362C11.0305 17.6288 11.3693 17.683 11.6903 17.7962L12.8403 16.6462C12.1834 16.3124 11.4571 16.1377 10.7203 16.1362C10.1038 16.1269 9.49156 16.2404 8.91929 16.4699C8.34702 16.6994 7.82611 17.0405 7.38688 17.4732C6.94764 17.9059 6.59885 18.4216 6.36081 18.9904C6.12276 19.5592 6.0002 20.1696 6.00027 20.7862C6.00173 21.5231 6.17643 22.2493 6.51027 22.9062L7.65027 21.7662C7.54742 21.443 7.49678 21.1054 7.50027 20.7662C7.50287 20.3509 7.5876 19.9401 7.74958 19.5576C7.91155 19.1751 8.14758 18.8284 8.44407 18.5375C8.74056 18.2466 9.09165 18.0172 9.47715 17.8625C9.86265 17.7078 10.2749 17.6309 10.6903 17.6362Z" fill="black"/>
<path d="M17.2903 10.5862C17.3786 10.625 17.4738 10.6454 17.5703 10.6462C17.7203 10.6457 17.8669 10.6008 17.9914 10.5172C18.116 10.4335 18.213 10.3149 18.2703 10.1762L20.3503 4.99622C20.3893 4.90309 20.4094 4.80312 20.4094 4.70214C20.4093 4.60116 20.3892 4.5012 20.3501 4.4081C20.311 4.315 20.2537 4.23063 20.1816 4.15991C20.1095 4.08919 20.0241 4.03354 19.9303 3.99622C19.8375 3.95425 19.7371 3.93188 19.6353 3.93049C19.5335 3.92911 19.4325 3.94874 19.3387 3.98816C19.2448 4.02758 19.1601 4.08594 19.0898 4.1596C19.0196 4.23325 18.9652 4.32061 18.9303 4.41622L16.8803 9.61622C16.8429 9.70676 16.8238 9.80382 16.8242 9.90178C16.8246 9.99975 16.8444 10.0967 16.8826 10.1869C16.9207 10.2771 16.9764 10.3589 17.0464 10.4274C17.1164 10.496 17.1993 10.55 17.2903 10.5862Z" fill="black"/>
<path d="M29.2503 12.1062H23.0003L21.5003 13.6062H28.5003V18.2162L18.3903 20.8362C18.2417 20.8743 18.1083 20.957 18.0081 21.0732C17.908 21.1895 17.8459 21.3336 17.8303 21.4862C17.6724 23.2686 16.851 24.9268 15.5287 26.1324C14.2064 27.338 12.4797 28.0032 10.6903 27.9962C9.68632 27.9973 8.69387 27.7825 7.78027 27.3662L6.65027 28.4662C7.86918 29.1074 9.22316 29.4492 10.6003 29.4636C11.9775 29.478 13.3383 29.1645 14.5704 28.549C15.8024 27.9334 16.8703 27.0336 17.6858 25.9237C18.5013 24.8139 19.041 23.5259 19.2603 22.1662L29.4403 19.5262C29.6014 19.484 29.744 19.3894 29.8454 19.2572C29.9468 19.125 30.0013 18.9628 30.0003 18.7962V12.8562C30.0016 12.7574 29.9831 12.6592 29.9459 12.5676C29.9087 12.476 29.8535 12.3928 29.7836 12.3229C29.7137 12.253 29.6305 12.1978 29.5389 12.1606C29.4473 12.1234 29.3491 12.1049 29.2503 12.1062Z" fill="black"/>
<path d="M11.2303 23.8862L9.77027 25.3462C10.522 25.4958 11.2989 25.4577 12.0324 25.2353C12.7658 25.0128 13.4331 24.6129 13.975 24.071C14.517 23.529 14.9169 22.8618 15.1393 22.1283C15.3618 21.3949 15.3999 20.6179 15.2503 19.8662L13.7803 21.3362C13.6715 21.9729 13.3678 22.5602 12.911 23.017C12.4543 23.4737 11.867 23.7774 11.2303 23.8862Z" fill="black"/>
<path d="M14.0603 10.1462C14.1591 10.1476 14.2573 10.1291 14.3489 10.0919C14.4405 10.0547 14.5237 9.99946 14.5936 9.92955C14.6635 9.85963 14.7187 9.77642 14.7559 9.68481C14.7931 9.59321 14.8116 9.49508 14.8103 9.39622V3.84622C14.8116 3.7482 14.7934 3.6509 14.7568 3.55996C14.7202 3.46902 14.6659 3.38626 14.5971 3.31648C14.5282 3.2467 14.4462 3.1913 14.3558 3.15349C14.2653 3.11568 14.1683 3.09621 14.0703 3.09622C13.8714 3.09622 13.6806 3.17524 13.5399 3.31589C13.3993 3.45654 13.3203 3.64731 13.3203 3.84622V9.39622C13.3228 9.59263 13.4013 9.78044 13.5392 9.92026C13.6772 10.0601 13.8639 10.1411 14.0603 10.1462Z" fill="black"/>
<path d="M4.70027 24.7562C3.9816 23.6732 3.57038 22.4155 3.51048 21.1171C3.45059 19.8187 3.74425 18.5284 4.36016 17.3839C4.97607 16.2393 5.89112 15.2834 7.0077 14.6181C8.12428 13.9528 9.40052 13.6031 10.7003 13.6062H15.8603L17.3603 12.1062H10.6903C9.09405 12.1043 7.52823 12.5426 6.16495 13.3729C4.80168 14.2032 3.69376 15.3934 2.96301 16.8125C2.23226 18.2316 1.90698 19.8248 2.02294 21.4168C2.13889 23.0088 2.69159 24.538 3.62027 25.8362L4.70027 24.7562Z" fill="black"/>
<path d="M9.86027 10.1662C9.91686 10.3034 10.0123 10.4209 10.135 10.5044C10.2576 10.588 10.4019 10.6338 10.5503 10.6362C10.643 10.6513 10.7375 10.6513 10.8303 10.6362C10.9241 10.5989 11.0095 10.5432 11.0816 10.4725C11.1537 10.4018 11.211 10.3174 11.2501 10.2243C11.2892 10.1312 11.3093 10.0313 11.3094 9.9303C11.3094 9.82932 11.2893 9.72934 11.2503 9.63622L9.18027 4.44622C9.0968 4.27757 8.95298 4.14647 8.77736 4.07891C8.60173 4.01136 8.40713 4.01229 8.23215 4.08152C8.05718 4.15076 7.91463 4.28323 7.83277 4.45267C7.75092 4.6221 7.73575 4.81612 7.79027 4.99622L9.86027 10.1662Z" fill="black"/>
</svg>
