<svg width="32" height="32" viewBox="0 0 32 32" fill="none" xmlns="http://www.w3.org/2000/svg">
<path d="M26.25 2H5.75C4.75544 2 3.80161 2.39509 3.09835 3.09835C2.39509 3.80161 2 4.75544 2 5.75V26.25C2 27.2446 2.39509 28.1984 3.09835 28.9017C3.80161 29.6049 4.75544 30 5.75 30H26.25C27.2446 30 28.1984 29.6049 28.9017 28.9017C29.6049 28.1984 30 27.2446 30 26.25V5.75C30 4.75544 29.6049 3.80161 28.9017 3.09835C28.1984 2.39509 27.2446 2 26.25 2ZM10.83 28.5H5.75C5.15326 28.5 4.58097 28.2629 4.15901 27.841C3.73705 27.419 3.5 26.8467 3.5 26.25V5.75C3.5 5.15326 3.73705 4.58097 4.15901 4.15901C4.58097 3.73705 5.15326 3.5 5.75 3.5H10.83V28.5ZM19.67 28.5H12.33V3.5H19.67V28.5ZM28.5 26.25C28.5 26.8467 28.2629 27.419 27.841 27.841C27.419 28.2629 26.8467 28.5 26.25 28.5H21.17V3.5H26.25C26.8467 3.5 27.419 3.73705 27.841 4.15901C28.2629 4.58097 28.5 5.15326 28.5 5.75V26.25Z" fill="black"/>
</svg>
