<svg width="32" height="32" viewBox="0 0 32 32" fill="none" xmlns="http://www.w3.org/2000/svg">
<path d="M29.2427 17.1208C28.8328 17.1208 28.4929 17.4609 28.4929 17.871V24.1824L21.1649 27.5631V17.861C21.1649 17.4509 20.825 17.1108 20.4151 17.1108C20.0052 17.1108 19.6653 17.4509 19.6653 17.861V27.5631L12.3372 24.1824V4.42803L15.4364 5.85835C15.8163 6.02838 16.2562 5.85835 16.4361 5.48826C16.6061 5.10818 16.4361 4.66808 16.0662 4.48804L11.8973 2.56762C11.8973 2.56762 11.8074 2.55762 11.7674 2.54762C11.7074 2.52762 11.6474 2.51761 11.5874 2.51761C11.5274 2.51761 11.4675 2.53762 11.4075 2.54762C11.3675 2.55762 11.3175 2.54762 11.2775 2.56762L2.43988 6.65852C2.16995 6.77855 2 7.04861 2 7.33867V28.7434C2 29.0034 2.12997 29.2335 2.34991 29.3735C2.46987 29.4535 2.60984 29.4935 2.7498 29.4935C2.85977 29.4935 2.95974 29.4735 3.05972 29.4235L11.5774 25.4926L20.0952 29.4235C20.0952 29.4235 20.1551 29.4535 20.1951 29.4635C20.2651 29.4835 20.3351 29.4935 20.4051 29.4935H20.4151C20.4651 29.5135 20.565 29.4835 20.635 29.4535C20.665 29.4535 20.685 29.4335 20.715 29.4235L29.5426 25.3426C29.8125 25.2226 29.9825 24.9525 29.9825 24.6625V17.871C29.9825 17.4609 29.6426 17.1208 29.2327 17.1208H29.2427ZM10.8276 24.1824L3.4996 27.5631V7.81877L10.8276 4.43803V24.1924V24.1824Z" fill="black"/>
<path d="M19.5153 8.3689C19.7053 8.3689 19.8952 8.29888 20.0452 8.14885L23.6342 4.55806V14.2402C23.6342 14.6503 23.9741 14.9903 24.384 14.9903C24.7939 14.9903 25.1338 14.6503 25.1338 14.2402V4.55806L28.7228 8.14885C29.0128 8.43891 29.4926 8.43891 29.7826 8.14885C30.0725 7.85878 30.0725 7.37868 29.7826 7.08861L24.9039 2.21755C24.6139 1.92748 24.1341 1.92748 23.8441 2.21755L18.9755 7.08861C18.6855 7.37868 18.6855 7.85878 18.9755 8.14885C19.1254 8.29888 19.3154 8.3689 19.5053 8.3689H19.5153Z" fill="black"/>
</svg>
