<svg width="32" height="32" viewBox="0 0 32 32" fill="none" xmlns="http://www.w3.org/2000/svg">
<path d="M29.25 17.1255C28.84 17.1255 28.5 17.4656 28.5 17.8758V24.1881L21.17 27.5693V17.8658C21.17 17.4556 20.83 17.1155 20.42 17.1155C20.01 17.1155 19.67 17.4556 19.67 17.8658V27.5693L12.34 24.1881V4.43088L15.44 5.8614C15.82 6.03147 16.26 5.8614 16.44 5.49127C16.61 5.11113 16.44 4.67097 16.07 4.49091L11.9 2.57021C11.9 2.57021 11.81 2.5602 11.77 2.5502C11.71 2.53019 11.65 2.52019 11.59 2.52019C11.53 2.52019 11.47 2.5402 11.41 2.5502C11.37 2.5602 11.32 2.5502 11.28 2.57021L2.44 6.6617C2.17 6.78174 2 7.05184 2 7.34194V28.7497C2 29.0098 2.13 29.2399 2.35 29.38C2.47 29.46 2.61 29.5 2.75 29.5C2.86 29.5 2.96 29.48 3.06 29.43L11.58 25.4985L20.1 29.43C20.1 29.43 20.17 29.46 20.21 29.47C20.28 29.49 20.35 29.5 20.42 29.5H20.44C20.5 29.5 20.56 29.49 20.62 29.47C20.66 29.46 20.69 29.45 20.73 29.43L29.56 25.3485C29.83 25.2284 30 24.9583 30 24.6682V17.8758C30 17.4656 29.66 17.1255 29.25 17.1255ZM10.83 24.1881L3.5 27.5693V7.82212L10.83 4.44089V24.1981V24.1881Z" fill="black"/>
<path d="M23.85 14.7746C24 14.9247 24.19 14.9947 24.38 14.9947C24.57 14.9947 24.76 14.9247 24.91 14.7746L29.78 9.90287C30.07 9.61277 30.07 9.13259 29.78 8.84249C29.49 8.55238 29.01 8.55238 28.72 8.84249L25.13 12.4338V2.75027C25.13 2.34012 24.79 2 24.38 2C23.97 2 23.63 2.34012 23.63 2.75027V12.4338L20.04 8.84249C19.75 8.55238 19.27 8.55238 18.98 8.84249C18.69 9.13259 18.69 9.61277 18.98 9.90287L23.85 14.7746Z" fill="black"/>
</svg>
