<svg width="32" height="32" viewBox="0 0 32 32" fill="none" xmlns="http://www.w3.org/2000/svg">
<path d="M29.6393 25.0598L16.8993 17.3398C16.7299 17.2452 16.5305 17.2198 16.3428 17.2691C16.1552 17.3185 15.994 17.4386 15.893 17.6042C15.792 17.7699 15.7592 17.9683 15.8014 18.1576C15.8436 18.347 15.9576 18.5127 16.1193 18.6198L28.8593 26.3398C28.9775 26.4098 29.1119 26.4477 29.2493 26.4498C29.3779 26.4497 29.5043 26.4165 29.6164 26.3535C29.7284 26.2904 29.8224 26.1996 29.8893 26.0898C29.9926 25.92 30.0243 25.7162 29.9774 25.5231C29.9305 25.33 29.8089 25.1633 29.6393 25.0598Z" fill="black"/>
<path d="M9.3893 19.2098L29.6393 6.9398C29.8011 6.83267 29.915 6.66702 29.9572 6.47764C29.9994 6.28827 29.9666 6.08992 29.8656 5.92424C29.7646 5.75856 29.6034 5.63846 29.4158 5.58915C29.2281 5.53984 29.0287 5.56516 28.8593 5.6598L13.2393 15.1198L9.3893 12.7898C9.62282 12.5512 9.82755 12.2861 9.9993 11.9998C10.5703 11.0154 10.7278 9.84481 10.4372 8.74453C10.1467 7.64424 9.43183 6.70399 8.4493 6.1298C7.88007 5.7993 7.24242 5.60422 6.5857 5.55965C5.92899 5.51508 5.27083 5.62223 4.66216 5.8728C4.05349 6.12337 3.51065 6.51063 3.07564 7.00462C2.64063 7.49861 2.32513 8.08608 2.15355 8.72155C1.98198 9.35702 1.95893 10.0234 2.08619 10.6693C2.21345 11.3151 2.48762 11.9229 2.88746 12.4458C3.2873 12.9686 3.80209 13.3925 4.39199 13.6845C4.98189 13.9765 5.63108 14.1289 6.2893 14.1298C6.66054 14.132 7.03043 14.0849 7.3893 13.9898C7.61938 13.9258 7.84354 13.8422 8.0593 13.7398L11.7993 15.9998L8.0593 18.2598C7.84354 18.1574 7.61938 18.0738 7.3893 18.0098C6.84364 17.8651 6.27479 17.8294 5.71534 17.905C5.15589 17.9805 4.61685 18.1658 4.12912 18.45C3.64139 18.7343 3.21457 19.112 2.87311 19.5616C2.53166 20.0112 2.28229 20.5237 2.1393 21.0698C1.97441 21.7053 1.95722 22.3701 2.08904 23.0132C2.22085 23.6563 2.49819 24.2607 2.89977 24.7801C3.30136 25.2995 3.81653 25.72 4.40581 26.0094C4.99508 26.2988 5.64279 26.4495 6.2993 26.4498C7.14188 26.4589 7.96824 26.2179 8.67386 25.7573C9.37947 25.2968 9.93264 24.6373 10.2634 23.8623C10.5942 23.0873 10.6877 22.2316 10.5321 21.4034C10.3765 20.5753 9.9788 19.8119 9.3893 19.2098ZM8.6993 11.2098C8.5204 11.5358 8.27768 11.8225 7.98561 12.0527C7.69354 12.283 7.35811 12.452 6.9993 12.5498C6.28195 12.7355 5.52023 12.6293 4.88106 12.2544C4.24188 11.8795 3.77737 11.2665 3.5893 10.5498C3.47346 10.1061 3.46876 9.64075 3.57561 9.19483C3.68246 8.7489 3.89757 8.33619 4.20191 7.99321C4.50625 7.65022 4.89044 7.38753 5.32048 7.22839C5.75052 7.06924 6.21315 7.01854 6.66746 7.08077C7.12176 7.14301 7.55372 7.31625 7.92512 7.58519C8.29652 7.85412 8.59591 8.21045 8.7968 8.62264C8.99769 9.03484 9.09389 9.4902 9.07688 9.94843C9.05988 10.4067 8.93019 10.8536 8.6993 11.2498V11.2098ZM8.9993 22.8698C8.85976 23.4042 8.56471 23.8852 8.15155 24.2519C7.73839 24.6185 7.22571 24.8542 6.67846 24.9291C6.13121 25.0041 5.57402 24.9149 5.07749 24.673C4.58096 24.431 4.16743 24.047 3.8893 23.5698C3.51684 22.929 3.4126 22.1671 3.5993 21.4498C3.75927 20.8552 4.11014 20.3295 4.59795 19.9537C5.08577 19.5779 5.68352 19.3728 6.2993 19.3698C6.53883 19.3695 6.77742 19.3998 7.0093 19.4598C7.72604 19.6479 8.339 20.1124 8.71388 20.7516C9.08877 21.3907 9.195 22.1524 9.0093 22.8698H8.9993Z" fill="black"/>
</svg>
