<svg width="32" height="32" viewBox="0 0 32 32" fill="none" xmlns="http://www.w3.org/2000/svg">
<path d="M10.7469 16.7517C10.5569 16.4413 10.297 16.1709 9.97715 15.9206C9.66726 15.6702 9.2674 15.47 8.79757 15.3198C9.18743 15.1495 9.52731 14.9493 9.80721 14.6989C10.0971 14.4486 10.327 14.1782 10.507 13.8879C10.6869 13.6075 10.8169 13.3171 10.9068 13.0167C10.9968 12.7163 11.0368 12.4259 11.0368 12.1455C11.0368 11.4746 10.9268 10.8738 10.7169 10.3632C10.507 9.85247 10.1971 9.41188 9.81721 9.07143C9.42735 8.72096 8.96751 8.46061 8.4277 8.29039C7.8779 8.09012 7.27811 8 6.62835 8C5.97858 8 5.33881 8.11015 4.77901 8.32043C4.2292 8.53071 3.75937 8.81108 3.36951 9.17156C2.97965 9.54206 2.66976 9.97263 2.44984 10.4633C2.23991 10.9539 2.12995 11.4746 2.12995 12.0254H3.99929C3.99929 11.6449 4.05926 11.3044 4.18922 10.994C4.31917 10.6836 4.49911 10.4232 4.72903 10.2029C4.95894 9.98264 5.22885 9.81242 5.54873 9.70227C5.87861 9.58211 6.23849 9.52203 6.62835 9.52203C7.01821 9.52203 7.39807 9.5721 7.70796 9.68224C8.02785 9.78238 8.29775 9.93258 8.50768 10.1429C8.7276 10.3531 8.89754 10.6235 9.0075 10.9539C9.11746 11.2744 9.17744 11.6549 9.17744 12.0854C9.17744 12.4559 9.11746 12.7964 8.9875 13.0968C8.85755 13.4072 8.67762 13.6676 8.4377 13.8879C8.18779 14.1081 7.8879 14.2784 7.52803 14.4085C7.17815 14.5387 6.7583 14.5988 6.29846 14.5988H4.97894V16.1008H6.29846C6.7583 16.1008 7.17815 16.1509 7.55801 16.261C7.94788 16.3712 8.27776 16.5314 8.54766 16.7517C8.81757 16.972 9.01749 17.2523 9.16744 17.5828C9.31739 17.9132 9.39736 18.3037 9.39736 18.7543C9.39736 19.2049 9.32738 19.6155 9.19743 19.9559C9.06748 20.2864 8.88754 20.5668 8.64763 20.7971C8.40771 21.0274 8.11782 21.1976 7.77794 21.3077C7.43806 21.4179 7.05819 21.468 6.63834 21.468C6.21849 21.468 5.82863 21.4079 5.48875 21.2877C5.14888 21.1676 4.85898 20.9973 4.61906 20.777C4.37915 20.5567 4.18922 20.2864 4.05926 19.976C3.92931 19.6656 3.86933 19.3151 3.86933 18.9346H2C2 19.5754 2.11996 20.1462 2.35987 20.6469C2.60978 21.1475 2.93966 21.5681 3.34952 21.9186C3.75937 22.269 4.2492 22.5294 4.809 22.7096C5.37879 22.8899 5.97858 22.98 6.62835 22.98C7.27811 22.98 7.8879 22.8899 8.45769 22.6996C9.02749 22.5093 9.51731 22.229 9.92717 21.8585C10.337 21.498 10.6669 21.0474 10.8968 20.5267C11.1267 19.996 11.2467 19.3952 11.2467 18.7143C11.2467 18.3838 11.2067 18.0434 11.1267 17.7029C11.0568 17.3625 10.9268 17.032 10.7369 16.7316L10.7469 16.7517Z" fill="black"/>
<path d="M29.6701 11.3344C29.4602 10.6135 29.1503 10.0027 28.7504 9.51202C28.3406 9.02136 27.8408 8.64085 27.261 8.39052C26.6812 8.13017 26.0114 8 25.2617 8C24.512 8 23.8522 8.13017 23.2624 8.39052C22.6826 8.64085 22.1928 9.02136 21.7929 9.51202C21.3831 10.0027 21.0732 10.6135 20.8633 11.3344C20.6533 12.0454 20.5434 12.8765 20.5434 13.7977V17.2223C20.5434 18.1535 20.6533 18.9746 20.8633 19.6956C21.0732 20.4065 21.3931 21.0174 21.7929 21.498C22.2028 21.9987 22.7026 22.3792 23.2924 22.6295C23.8822 22.8798 24.5419 23 25.2917 23C26.0414 23 26.7012 22.8698 27.291 22.6195C27.8708 22.3692 28.3606 21.9887 28.7604 21.498C29.1603 21.0073 29.4702 20.4065 29.6801 19.6956C29.89 18.9746 30 18.1435 30 17.2223V13.7977C30 12.8665 29.89 12.0454 29.6801 11.3344H29.6701ZM22.4027 16.3411V13.3872C22.4027 12.7063 22.4727 12.1055 22.6026 11.5948C22.7426 11.0741 22.9525 10.6435 23.2324 10.3231C23.4623 10.0628 23.7522 9.86248 24.0821 9.73231C24.422 9.59212 24.8119 9.52203 25.2517 9.52203C25.6915 9.52203 26.0714 9.58211 26.3913 9.71228C26.7212 9.84246 27.0111 10.0327 27.231 10.283C27.4609 10.5334 27.6508 10.8438 27.7808 11.2143C27.9207 11.5848 28.0207 12.0053 28.0707 12.486L22.3827 16.8518V16.3411H22.4027ZM28.1307 14.9793V17.6228C28.1307 18.3338 28.0607 18.9646 27.9107 19.4853C27.7708 20.016 27.5509 20.4466 27.241 20.767C27.0111 21.0073 26.7312 21.1876 26.4113 21.3178C26.0914 21.4479 25.7115 21.508 25.2917 21.508C24.8718 21.508 24.532 21.4479 24.2121 21.3378C23.8922 21.2176 23.6123 21.0474 23.3924 20.8171C23.1424 20.5768 22.9425 20.2764 22.7926 19.9059C22.6426 19.5354 22.5327 19.0948 22.4727 18.6142L28.1507 14.2684V14.9793H28.1307Z" fill="black"/>
<path d="M15.875 17.4826C14.9254 17.4826 14.2156 17.753 13.7458 18.3037C13.276 18.8545 13.0461 19.5154 13.0461 20.2764C13.0461 21.0374 13.286 21.6782 13.7458 22.219C14.2256 22.7397 14.9354 23 15.875 23C16.8147 23 17.5145 22.7397 18.0043 22.219C18.5041 21.6983 18.744 21.0474 18.744 20.2764C18.744 19.5053 18.4941 18.8344 18.0043 18.3037C17.5245 17.753 16.8147 17.4826 15.875 17.4826Z" fill="black"/>
</svg>
