<svg width="32" height="32" viewBox="0 0 32 32" fill="none" xmlns="http://www.w3.org/2000/svg">
<path d="M20.0452 10.1459L23.6342 6.55682V16.2342C23.6342 16.6441 23.9741 16.984 24.384 16.984C24.7939 16.984 25.1338 16.6441 25.1338 16.2342V6.55682L28.7228 10.1459C28.8728 10.2958 29.0627 10.3658 29.2527 10.3658C29.4426 10.3658 29.6326 10.2958 29.7826 10.1459C30.0725 9.85593 30.0725 9.37606 29.7826 9.08614L24.9039 4.21744C24.6139 3.92752 24.1341 3.92752 23.8441 4.21744L18.9755 9.08614C18.6855 9.37606 18.6855 9.85593 18.9755 10.1459C19.2654 10.4358 19.7452 10.4358 20.0352 10.1459H20.0452Z" fill="black"/>
<path d="M29.2427 20.903C28.8328 20.903 28.4929 21.2429 28.4929 21.6528V25.6717C28.4929 26.3615 27.9331 26.9214 27.2432 26.9214H4.74926C4.05945 26.9214 3.4996 26.3615 3.4996 25.6717V10.3758L12.6871 17.5639C13.377 18.1037 14.1367 18.4636 14.9265 18.6236C14.9765 18.6336 15.0265 18.6436 15.0765 18.6436C15.4264 18.6436 15.7363 18.4036 15.8063 18.0437C15.8863 17.6338 15.6263 17.244 15.2265 17.154C14.6566 17.034 14.1168 16.7741 13.6069 16.3742L4.34937 9.13612C4.47934 9.09614 4.6093 9.05615 4.74926 9.05615H13.077C13.4869 9.05615 13.8268 8.71624 13.8268 8.30635C13.8268 7.89646 13.4869 7.55655 13.077 7.55655H4.74926C3.22967 7.55655 2 8.78622 2 10.3058V25.6717C2 27.1913 3.22967 28.421 4.74926 28.421H27.2432C28.7628 28.421 29.9925 27.1913 29.9925 25.6717V21.6528C29.9925 21.2429 29.6526 20.903 29.2427 20.903Z" fill="black"/>
</svg>
