<svg width="32" height="32" viewBox="0 0 32 32" fill="none" xmlns="http://www.w3.org/2000/svg">
<path d="M23.85 16.77C24 16.92 24.19 16.99 24.38 16.99C24.57 16.99 24.76 16.92 24.91 16.77L29.78 11.9C30.07 11.61 30.07 11.13 29.78 10.84C29.49 10.55 29.01 10.55 28.72 10.84L25.13 14.43V4.75C25.13 4.34 24.79 4 24.38 4C23.97 4 23.63 4.34 23.63 4.75V14.43L20.04 10.84C19.75 10.55 19.27 10.55 18.98 10.84C18.69 11.13 18.69 11.61 18.98 11.9L23.85 16.77Z" fill="black"/>
<path d="M29.25 20.91C28.84 20.91 28.5 21.25 28.5 21.66V25.68C28.5 26.37 27.94 26.93 27.25 26.93H4.75C4.06 26.93 3.5 26.37 3.5 25.68V10.38L12.69 17.57C13.38 18.11 14.14 18.47 14.93 18.63C14.98 18.64 15.03 18.65 15.08 18.65C15.43 18.65 15.74 18.41 15.81 18.05C15.89 17.64 15.63 17.25 15.23 17.16C14.66 17.04 14.12 16.78 13.61 16.38L4.35 9.14C4.48 9.1 4.61 9.06 4.75 9.06H13.08C13.49 9.06 13.83 8.72 13.83 8.31C13.83 7.9 13.49 7.56 13.08 7.56H4.75C3.23 7.56 2 8.79 2 10.31V25.68C2 27.2 3.23 28.43 4.75 28.43H27.25C28.77 28.43 30 27.2 30 25.68V21.66C30 21.25 29.66 20.91 29.25 20.91Z" fill="black"/>
</svg>
