<svg width="32" height="32" viewBox="0 0 32 32" fill="none" xmlns="http://www.w3.org/2000/svg">
<path d="M15.25 17.06V9.34999C15.25 9.15107 15.329 8.96031 15.4697 8.81966C15.6103 8.679 15.8011 8.59999 16 8.59999C16.1989 8.59999 16.3897 8.679 16.5303 8.81966C16.671 8.96031 16.75 9.15107 16.75 9.34999V17.06C16.75 17.2589 16.671 17.4497 16.5303 17.5903C16.3897 17.731 16.1989 17.81 16 17.81C15.8011 17.81 15.6103 17.731 15.4697 17.5903C15.329 17.4497 15.25 17.2589 15.25 17.06ZM28.8 18.89L18.89 28.8C18.511 29.1804 18.0606 29.4822 17.5646 29.6881C17.0687 29.894 16.537 30 16 30C15.463 30 14.9313 29.894 14.4354 29.6881C13.9395 29.4822 13.4891 29.1804 13.11 28.8L3.20002 18.89C2.81965 18.5109 2.51785 18.0605 2.31193 17.5646C2.106 17.0687 2 16.537 2 16C2 15.463 2.106 14.9313 2.31193 14.4354C2.51785 13.9394 2.81965 13.489 3.20002 13.11L13.11 3.19999C13.4891 2.81962 13.9395 2.51782 14.4354 2.3119C14.9313 2.10597 15.463 1.99997 16 1.99997C16.537 1.99997 17.0687 2.10597 17.5646 2.3119C18.0606 2.51782 18.511 2.81962 18.89 3.19999L28.8 13.11C29.1804 13.489 29.4822 13.9394 29.6881 14.4354C29.894 14.9313 30 15.463 30 16C30 16.537 29.894 17.0687 29.6881 17.5646C29.4822 18.0605 29.1804 18.5109 28.8 18.89ZM27.74 14.17L17.83 4.25999C17.5902 4.01871 17.3051 3.82723 16.991 3.69657C16.677 3.56591 16.3402 3.49864 16 3.49864C15.6599 3.49864 15.3231 3.56591 15.009 3.69657C14.6949 3.82723 14.4098 4.01871 14.17 4.25999L4.26002 14.17C3.77516 14.6556 3.50283 15.3138 3.50283 16C3.50283 16.6862 3.77516 17.3444 4.26002 17.83L14.17 27.74C14.663 28.2107 15.3184 28.4733 16 28.4733C16.6816 28.4733 17.337 28.2107 17.83 27.74L27.74 17.83C28.2249 17.3444 28.4972 16.6862 28.4972 16C28.4972 15.3138 28.2249 14.6556 27.74 14.17ZM16 20.05C15.7429 20.05 15.4916 20.1262 15.2778 20.2691C15.064 20.4119 14.8974 20.615 14.799 20.8525C14.7006 21.09 14.6748 21.3514 14.725 21.6036C14.7752 21.8558 14.899 22.0874 15.0808 22.2692C15.2626 22.451 15.4942 22.5748 15.7464 22.625C15.9986 22.6752 16.26 22.6494 16.4975 22.551C16.735 22.4526 16.9381 22.286 17.0809 22.0722C17.2238 21.8584 17.3 21.6071 17.3 21.35C17.3 21.1793 17.2664 21.0102 17.2011 20.8525C17.1357 20.6948 17.04 20.5515 16.9193 20.4307C16.7985 20.31 16.6552 20.2143 16.4975 20.1489C16.3398 20.0836 16.1707 20.05 16 20.05Z" fill="black"/>
</svg>
