<svg width="32" height="32" viewBox="0 0 32 32" fill="none" xmlns="http://www.w3.org/2000/svg">
<path d="M5.50518 30H26.4949C27.0927 30.0012 27.6808 29.8491 28.2032 29.5584C28.7255 29.2676 29.1646 28.8479 29.4786 28.3392C29.7926 27.8305 29.971 27.2498 29.9968 26.6525C30.0225 26.0553 29.8948 25.4614 29.6258 24.9275L19.131 3.93782C18.8408 3.35568 18.3942 2.86595 17.8411 2.52365C17.288 2.18134 16.6505 2 16 2C15.3496 2 14.712 2.18134 14.159 2.52365C13.6059 2.86595 13.1592 3.35568 12.8691 3.93782L2.37422 24.9275C2.1052 25.4614 1.97748 26.0553 2.00325 26.6525C2.02902 27.2498 2.20741 27.8305 2.52141 28.3392C2.83541 28.8479 3.27453 29.2676 3.79688 29.5584C4.31923 29.8491 4.90737 30.0012 5.50518 30ZM14.4258 11.3192C14.4258 10.9017 14.5916 10.5013 14.8869 10.206C15.1821 9.91081 15.5825 9.74496 16 9.74496C16.4175 9.74496 16.8179 9.91081 17.1132 10.206C17.4084 10.5013 17.5742 10.9017 17.5742 11.3192V17.756C17.5742 18.1735 17.4084 18.5739 17.1132 18.8692C16.8179 19.1644 16.4175 19.3302 16 19.3302C15.5825 19.3302 15.1821 19.1644 14.8869 18.8692C14.5916 18.5739 14.4258 18.1735 14.4258 17.756V11.3192ZM16 21.4467C16.2906 21.4201 16.5835 21.4544 16.8601 21.5473C17.1366 21.6403 17.3908 21.7898 17.6063 21.9865C17.8218 22.1832 17.994 22.4227 18.1118 22.6896C18.2296 22.9566 18.2904 23.2451 18.2904 23.5369C18.2904 23.8287 18.2296 24.1173 18.1118 24.3842C17.994 24.6512 17.8218 24.8906 17.6063 25.0873C17.3908 25.284 17.1366 25.4336 16.8601 25.5265C16.5835 25.6195 16.2906 25.6538 16 25.6271C15.7095 25.6538 15.4165 25.6195 15.14 25.5265C14.8634 25.4336 14.6092 25.284 14.3937 25.0873C14.1782 24.8906 14.006 24.6512 13.8883 24.3842C13.7705 24.1173 13.7096 23.8287 13.7096 23.5369C13.7096 23.2451 13.7705 22.9566 13.8883 22.6896C14.006 22.4227 14.1782 22.1832 14.3937 21.9865C14.6092 21.7898 14.8634 21.6403 15.14 21.5473C15.4165 21.4544 15.7095 21.4201 16 21.4467Z" fill="black"/>
</svg>
