<svg width="32" height="32" viewBox="0 0 32 32" fill="none" xmlns="http://www.w3.org/2000/svg">
<path d="M13.11 28.8C13.4891 29.1804 13.9395 29.4822 14.4354 29.6881C14.9313 29.894 15.463 30 16 30C16.537 30 17.0687 29.894 17.5646 29.6881C18.0606 29.4822 18.511 29.1804 18.89 28.8L28.8 18.89C29.1804 18.511 29.4822 18.0606 29.6881 17.5646C29.894 17.0687 30 16.537 30 16C30 15.463 29.894 14.9313 29.6881 14.4354C29.4822 13.9395 29.1804 13.4891 28.8 13.11L18.89 3.20002C18.511 2.81965 18.0606 2.51785 17.5646 2.31193C17.0687 2.106 16.537 2 16 2C15.463 2 14.9313 2.106 14.4354 2.31193C13.9395 2.51785 13.4891 2.81965 13.11 3.20002L3.20002 13.11C2.81965 13.4891 2.51785 13.9395 2.31193 14.4354C2.106 14.9313 2 15.463 2 16C2 16.537 2.106 17.0687 2.31193 17.5646C2.51785 18.0606 2.81965 18.511 3.20002 18.89L13.11 28.8ZM14.5 9.06002C14.5 8.66219 14.6581 8.28066 14.9394 7.99936C15.2207 7.71805 15.6022 7.56002 16 7.56002C16.3978 7.56002 16.7794 7.71805 17.0607 7.99936C17.342 8.28066 17.5 8.66219 17.5 9.06002V15.33C17.5 15.7278 17.342 16.1094 17.0607 16.3907C16.7794 16.672 16.3978 16.83 16 16.83C15.6022 16.83 15.2207 16.672 14.9394 16.3907C14.6581 16.1094 14.5 15.7278 14.5 15.33V9.06002ZM16 19.3C16.4075 19.2901 16.8086 19.4018 17.1522 19.6209C17.4959 19.8401 17.7664 20.1566 17.9292 20.5303C18.0921 20.9039 18.1399 21.3175 18.0665 21.7184C17.9932 22.1193 17.802 22.4893 17.5174 22.781C17.2328 23.0727 16.8677 23.273 16.4687 23.3562C16.0697 23.4394 15.655 23.4019 15.2775 23.2483C14.9 23.0947 14.5768 22.8321 14.3493 22.494C14.1217 22.1558 14.0001 21.7576 14 21.35C13.9999 20.8149 14.209 20.3009 14.5827 19.9178C14.9564 19.5348 15.465 19.3131 16 19.3Z" fill="black"/>
</svg>
