<svg width="32" height="32" viewBox="0 0 32 32" fill="none" xmlns="http://www.w3.org/2000/svg">
<path d="M21.47 10.53L16 16L10.53 10.53C10.4611 10.4592 10.3786 10.403 10.2876 10.3646C10.1966 10.3262 10.0988 10.3064 10 10.3064C9.90121 10.3064 9.80342 10.3262 9.71239 10.3646C9.62137 10.403 9.53895 10.4592 9.47001 10.53C9.32956 10.6706 9.25067 10.8612 9.25067 11.06C9.25067 11.2588 9.32956 11.4494 9.47001 11.59L15.47 17.59C15.6106 17.7305 15.8013 17.8093 16 17.8093C16.1988 17.8093 16.3894 17.7305 16.53 17.59L22.53 11.59C22.6705 11.4494 22.7493 11.2588 22.7493 11.06C22.7493 10.8612 22.6705 10.6706 22.53 10.53C22.4611 10.4592 22.3786 10.403 22.2876 10.3646C22.1966 10.3262 22.0988 10.3064 22 10.3064C21.9012 10.3064 21.8034 10.3262 21.7124 10.3646C21.6214 10.403 21.5389 10.4592 21.47 10.53Z" fill="black"/>
<path d="M21.47 16.41L16 21.88L10.53 16.41C10.3878 16.2775 10.1998 16.2054 10.0055 16.2088C9.81118 16.2123 9.6258 16.291 9.48838 16.4284C9.35097 16.5658 9.27226 16.7512 9.26883 16.9455C9.2654 17.1398 9.33753 17.3278 9.47001 17.47L15.47 23.47C15.6106 23.6104 15.8013 23.6893 16 23.6893C16.1988 23.6893 16.3894 23.6104 16.53 23.47L22.53 17.47C22.6625 17.3278 22.7346 17.1398 22.7312 16.9455C22.7278 16.7512 22.649 16.5658 22.5116 16.4284C22.3742 16.291 22.1888 16.2123 21.9945 16.2088C21.8002 16.2054 21.6122 16.2775 21.47 16.41Z" fill="black"/>
<path d="M16 2C13.2311 2 10.5243 2.82109 8.22202 4.35943C5.91973 5.89777 4.12532 8.08427 3.06569 10.6424C2.00607 13.2006 1.72882 16.0155 2.26901 18.7313C2.80921 21.447 4.14258 23.9416 6.10051 25.8995C8.05845 27.8574 10.553 29.1908 13.2687 29.731C15.9845 30.2712 18.7994 29.9939 21.3576 28.9343C23.9157 27.8747 26.1022 26.0803 27.6406 23.778C29.1789 21.4757 30 18.7689 30 16C30 12.287 28.525 8.72601 25.8995 6.1005C23.274 3.475 19.713 2 16 2ZM16 28.5C13.5277 28.5 11.111 27.7669 9.05538 26.3934C6.99976 25.0199 5.39761 23.0676 4.45151 20.7835C3.50542 18.4995 3.25787 15.9861 3.74019 13.5614C4.22251 11.1366 5.41301 8.90932 7.16117 7.16117C8.90933 5.41301 11.1366 4.2225 13.5614 3.74018C15.9861 3.25787 18.4995 3.50541 20.7835 4.45151C23.0676 5.3976 25.0199 6.99976 26.3934 9.05537C27.7669 11.111 28.5 13.5277 28.5 16C28.4947 19.3136 27.1761 22.4899 24.833 24.833C22.4899 27.1761 19.3136 28.4947 16 28.5Z" fill="black"/>
</svg>
