<svg width="32" height="32" viewBox="0 0 32 32" fill="none" xmlns="http://www.w3.org/2000/svg">
<path d="M25.2845 6.01997C26.7441 6.01997 27.9538 6.50924 28.8036 7.41787C29.6534 8.34648 30.0933 9.70444 29.9834 11.0524C29.8234 12.9296 28.6837 14.4573 27.484 15.8352C27.324 16.015 27.164 16.1847 27.0141 16.3545C26.0343 17.4229 25.2645 18.2616 25.2645 20.2087C25.2645 20.6181 24.9246 20.9576 24.5147 20.9576C24.1048 20.9576 23.7648 20.6181 23.7648 20.2087C23.7648 17.6725 24.8546 16.4843 25.9043 15.336C26.0543 15.1762 26.2043 15.0065 26.3542 14.8367C27.5539 13.4688 28.3737 12.2806 28.4937 10.9126C28.5537 10.1837 28.3837 9.14528 27.7039 8.41638C27.144 7.80729 26.3342 7.49775 25.2945 7.49775C22.7751 7.49775 21.4954 8.52621 21.4954 10.5632C21.4954 10.9725 21.1555 11.312 20.7456 11.312C20.3356 11.312 19.9957 10.9725 19.9957 10.5632C19.9957 7.65751 21.9253 6 25.2945 6L25.2845 6.01997Z" fill="black"/>
<path d="M8.11855 24.4923C7.70865 24.4923 7.36873 24.8318 7.36873 25.2411C7.36873 25.6505 7.70865 25.99 8.11855 25.99H17.7263C18.1362 25.99 18.4761 25.6505 18.4761 25.2411C18.4761 24.8318 18.1362 24.4923 17.7263 24.4923H8.11855Z" fill="black"/>
<path d="M24.6546 23.7434C25.2745 23.7434 25.7844 24.2426 25.7844 24.8717C25.7844 25.4908 25.2845 26 24.6546 26C24.0248 26 23.5249 25.5007 23.5249 24.8717C23.5249 24.2526 24.0248 23.7434 24.6546 23.7434Z" fill="black"/>
<path d="M2.74982 13.6785H14.4171C14.827 13.6785 15.1669 13.339 15.1669 12.9296C15.1669 12.5202 14.827 12.1807 14.4171 12.1807H2.74982C2.33992 12.1807 2 12.5202 2 12.9296C2 13.339 2.33992 13.6785 2.74982 13.6785Z" fill="black"/>
<path d="M17.7163 18.3315H2.74982C2.33992 18.3315 2 18.671 2 19.0804C2 19.4898 2.33992 19.8293 2.74982 19.8293H17.7163C18.1262 19.8293 18.4661 19.4898 18.4661 19.0804C18.4661 18.671 18.1262 18.3315 17.7163 18.3315Z" fill="black"/>
<path d="M2.74982 7.51772H14.4171C14.827 7.51772 15.1669 7.17823 15.1669 6.76885C15.1669 6.35946 14.827 6.01997 14.4171 6.01997H2.74982C2.33992 6.01997 2 6.35946 2 6.76885C2 7.17823 2.33992 7.51772 2.74982 7.51772Z" fill="black"/>
</svg>
