<svg width="32" height="32" viewBox="0 0 32 32" fill="none" xmlns="http://www.w3.org/2000/svg">
<path d="M23.88 24.5H14.27C13.86 24.5 13.52 24.84 13.52 25.25C13.52 25.66 13.86 26 14.27 26H23.88C24.29 26 24.63 25.66 24.63 25.25C24.63 24.84 24.29 24.5 23.88 24.5Z" fill="black"/>
<path d="M29.25 18.33H14.28C13.87 18.33 13.53 18.67 13.53 19.08C13.53 19.49 13.87 19.83 14.28 19.83H29.25C29.66 19.83 30 19.49 30 19.08C30 18.67 29.66 18.33 29.25 18.33Z" fill="black"/>
<path d="M7.3 6C3.93 6 2 7.67 2 10.57C2 10.98 2.34 11.32 2.75 11.32C3.16 11.32 3.5 10.98 3.5 10.57C3.5 8.53 4.78 7.5 7.3 7.5C8.34 7.5 9.15 7.81 9.71 8.42C10.38 9.15 10.56 10.19 10.5 10.92C10.38 12.29 9.56 13.48 8.36 14.85C8.21 15.02 8.06 15.19 7.91 15.35C6.86 16.5 5.77 17.69 5.77 20.23C5.77 20.64 6.11 20.98 6.52 20.98C6.93 20.98 7.27 20.64 7.27 20.23C7.27 18.27 8.04 17.43 9.02 16.36C9.18 16.19 9.34 16.02 9.49 15.84C10.69 14.46 11.83 12.93 11.99 11.05C12.11 9.7 11.67 8.33 10.81 7.41C9.97 6.49 8.75 6.01 7.29 6.01L7.3 6Z" fill="black"/>
<path d="M29.25 12.17H17.58C17.17 12.17 16.83 12.51 16.83 12.92C16.83 13.33 17.17 13.67 17.58 13.67H29.25C29.66 13.67 30 13.33 30 12.92C30 12.51 29.66 12.17 29.25 12.17Z" fill="black"/>
<path d="M6.67 26C7.29408 26 7.8 25.4941 7.8 24.87C7.8 24.2459 7.29408 23.74 6.67 23.74C6.04592 23.74 5.54 24.2459 5.54 24.87C5.54 25.4941 6.04592 26 6.67 26Z" fill="black"/>
<path d="M17.58 7.5H29.25C29.66 7.5 30 7.16 30 6.75C30 6.34 29.66 6 29.25 6H17.58C17.17 6 16.83 6.34 16.83 6.75C16.83 7.16 17.17 7.5 17.58 7.5Z" fill="black"/>
</svg>
