<svg width="32" height="32" viewBox="0 0 32 32" fill="none" xmlns="http://www.w3.org/2000/svg">
<path d="M26.5131 29.97C28.4378 29.97 29.998 28.4036 29.998 26.4713C29.998 24.539 28.4378 22.9725 26.5131 22.9725C24.5884 22.9725 23.0282 24.539 23.0282 26.4713C23.0282 28.4036 24.5884 29.97 26.5131 29.97Z" fill="black"/>
<path fill-rule="evenodd" clip-rule="evenodd" d="M27.8374 3.61942C27.3594 2.61978 26.3837 2 25.2784 2H6.83807C5.7428 2 4.75706 2.61978 4.27912 3.61942C3.80119 4.61906 3.94059 5.77865 4.63758 6.63834L12.633 16.5748C12.6729 16.6248 12.7027 16.6948 12.7027 16.7647V28.1906C12.7027 28.8504 13.0413 29.4302 13.6088 29.7601C13.8876 29.92 14.1863 30 14.495 30C14.8037 30 15.1323 29.91 15.421 29.7401L18.5575 27.8508C19.0951 27.5309 19.4237 26.9411 19.4237 26.3113V16.7747C19.4237 16.7047 19.4436 16.6448 19.4934 16.5848L27.4889 6.64834C28.1859 5.78865 28.3153 4.62906 27.8374 3.62942V3.61942ZM26.3239 5.69868L18.3284 15.6351C18.0696 15.955 17.9302 16.3549 17.9302 16.7647V26.3013C17.9302 26.4013 17.8704 26.5012 17.7808 26.5612L14.6444 28.4506C14.5149 28.5305 14.3954 28.4905 14.3456 28.4506C14.2859 28.4206 14.1963 28.3406 14.1963 28.1906V16.7647C14.1963 16.3549 14.0569 15.955 13.798 15.6351L5.79259 5.69868C5.46401 5.28883 5.39431 4.74902 5.62332 4.26919C5.85233 3.78936 6.31035 3.49946 6.83807 3.49946H25.2685C25.7962 3.49946 26.2542 3.78936 26.4832 4.26919C26.7122 4.74902 26.6525 5.28883 26.314 5.69868H26.3239Z" fill="black"/>
</svg>
