<svg width="32" height="32" viewBox="0 0 32 32" fill="none" xmlns="http://www.w3.org/2000/svg">
<path d="M27.75 5H22.98C22.57 5 22.23 5.34 22.23 5.75C22.23 6.16 22.57 6.5 22.98 6.5H27.75C28.16 6.5 28.5 6.84 28.5 7.25V14.5C28.5 14.91 28.16 15.25 27.75 15.25H24.93L26.4 13.78C26.69 13.49 26.69 13.01 26.4 12.72C26.11 12.43 25.63 12.43 25.34 12.72L22.59 15.47C22.3 15.76 22.3 16.24 22.59 16.53L25.34 19.28C25.49 19.43 25.68 19.5 25.87 19.5C26.06 19.5 26.25 19.43 26.4 19.28C26.69 18.99 26.69 18.51 26.4 18.22L24.93 16.75H27.75C28.99 16.75 30 15.74 30 14.5V7.25C30 6.01 28.99 5 27.75 5Z" fill="black"/>
<path d="M18.37 2H13.64C12.68 2 11.89 2.79 11.89 3.75V7.75C11.89 8.71 12.68 9.5 13.64 9.5H18.37C19.33 9.5 20.12 8.71 20.12 7.75V3.75C20.12 2.79 19.33 2 18.37 2ZM18.62 7.75C18.62 7.89 18.51 8 18.37 8H13.64C13.5 8 13.39 7.89 13.39 7.75V3.75C13.39 3.61 13.5 3.5 13.64 3.5H18.37C18.51 3.5 18.62 3.61 18.62 3.75V7.75Z" fill="black"/>
<path d="M18.37 22.5H13.64C12.68 22.5 11.89 23.29 11.89 24.25V28.25C11.89 29.21 12.68 30 13.64 30H18.37C19.33 30 20.12 29.21 20.12 28.25V24.25C20.12 23.29 19.33 22.5 18.37 22.5ZM18.62 28.25C18.62 28.39 18.51 28.5 18.37 28.5H13.64C13.5 28.5 13.39 28.39 13.39 28.25V24.25C13.39 24.11 13.5 24 13.64 24H18.37C18.51 24 18.62 24.11 18.62 24.25V28.25Z" fill="black"/>
<path d="M18.37 12.25H13.64C12.68 12.25 11.89 13.04 11.89 14V18C11.89 18.96 12.68 19.75 13.64 19.75H18.37C19.33 19.75 20.12 18.96 20.12 18V14C20.12 13.04 19.33 12.25 18.37 12.25ZM18.62 18C18.62 18.14 18.51 18.25 18.37 18.25H13.64C13.5 18.25 13.39 18.14 13.39 18V14C13.39 13.86 13.5 13.75 13.64 13.75H18.37C18.51 13.75 18.62 13.86 18.62 14V18Z" fill="black"/>
<path d="M4.25 16.75H9.02C9.43 16.75 9.77 16.41 9.77 16C9.77 15.59 9.43 15.25 9.02 15.25H4.25C3.01 15.25 2 16.26 2 17.5V24.75C2 25.99 3.01 27 4.25 27H7.07L5.6 28.47C5.31 28.76 5.31 29.24 5.6 29.53C5.75 29.68 5.94 29.75 6.13 29.75C6.32 29.75 6.51 29.68 6.66 29.53L9.41 26.78C9.7 26.49 9.7 26.01 9.41 25.72L6.66 22.97C6.37 22.68 5.89 22.68 5.6 22.97C5.31 23.26 5.31 23.74 5.6 24.03L7.07 25.5H4.25C3.84 25.5 3.5 25.16 3.5 24.75V17.5C3.5 17.09 3.84 16.75 4.25 16.75Z" fill="black"/>
</svg>
