<svg width="32" height="32" viewBox="0 0 32 32" fill="none" xmlns="http://www.w3.org/2000/svg">
<path d="M18.3241 18.1714H11.3137V17.7914C12.9554 17.1006 14.4559 16.1142 15.7403 14.8814C15.8529 14.7316 15.9053 14.5451 15.8872 14.3587C15.8691 14.1722 15.7817 13.9993 15.6423 13.8739C15.503 13.7485 15.3216 13.6798 15.134 13.6812C14.9464 13.6825 14.7661 13.754 14.6286 13.8814L14.5585 13.9514H5.88573C5.68652 13.9514 5.49548 14.0304 5.35462 14.1711C5.21376 14.3118 5.13462 14.5025 5.13462 14.7014C5.13462 14.9003 5.21376 15.0911 5.35462 15.2318C5.49548 15.3724 5.68652 15.4514 5.88573 15.4514H12.4554C11.7305 15.8928 10.9779 16.2869 10.2021 16.6314C10.0712 16.6908 9.96005 16.7864 9.88194 16.9069C9.80383 17.0275 9.76201 17.1679 9.76145 17.3114V18.1714H2.75111C2.5519 18.1714 2.36085 18.2504 2.21999 18.3911C2.07913 18.5318 2 18.7225 2 18.9214C2 19.1203 2.07913 19.3111 2.21999 19.4518C2.36085 19.5924 2.5519 19.6714 2.75111 19.6714H9.76145V23.2214C9.77379 23.2976 9.77379 23.3753 9.76145 23.4514C9.62715 23.5012 9.48372 23.5217 9.34083 23.5114C8.7099 23.5114 6.66688 23.5114 6.66688 23.5114V25.0114H9.36086C10.9632 25.0014 11.2637 24.0014 11.2637 23.2214V19.6714H18.3241C18.5233 19.6714 18.7143 19.5924 18.8552 19.4518C18.996 19.3111 19.0752 19.1203 19.0752 18.9214C19.0752 18.7225 18.996 18.5318 18.8552 18.3911C18.7143 18.2504 18.5233 18.1714 18.3241 18.1714Z" fill="black"/>
<path d="M28.7094 22.4314L25.9854 25.1514V6.55143L28.6994 9.27143C28.7681 9.34512 28.8511 9.40422 28.9432 9.44521C29.0353 9.4862 29.1348 9.50825 29.2356 9.51002C29.3365 9.5118 29.4367 9.49327 29.5302 9.45555C29.6237 9.41783 29.7087 9.36169 29.78 9.29047C29.8513 9.21925 29.9076 9.13442 29.9453 9.04103C29.9831 8.94764 30.0017 8.84761 29.9999 8.74691C29.9981 8.64621 29.976 8.54689 29.935 8.45489C29.8939 8.36289 29.8347 8.28009 29.7609 8.21143L25.755 4.21143C25.6118 4.07568 25.4218 4 25.2242 4C25.0267 4 24.8367 4.07568 24.6935 4.21143L20.6876 8.21143C20.5469 8.35206 20.4679 8.54268 20.4679 8.74143C20.4679 8.94018 20.5469 9.13081 20.6876 9.27143C20.8306 9.4086 21.0201 9.48712 21.2183 9.49143C21.417 9.48913 21.6072 9.41031 21.7491 9.27143L24.4731 6.55143V25.1514L21.7491 22.4314C21.6067 22.299 21.4184 22.2268 21.2238 22.2303C21.0292 22.2337 20.8436 22.3124 20.706 22.4498C20.5683 22.5872 20.4895 22.7726 20.4861 22.9669C20.4827 23.1612 20.5549 23.3493 20.6876 23.4914L24.6935 27.4914C24.7637 27.5582 24.8451 27.6123 24.9338 27.6514C25.0254 27.6913 25.1243 27.7117 25.2242 27.7114C25.321 27.7118 25.4166 27.6914 25.5047 27.6514C25.5965 27.6125 25.6811 27.5584 25.755 27.4914L29.7609 23.4914C29.8936 23.3493 29.9658 23.1612 29.9624 22.9669C29.959 22.7726 29.8801 22.5872 29.7425 22.4498C29.6049 22.3124 29.4193 22.2337 29.2247 22.2303C29.0301 22.2268 28.8418 22.299 28.6994 22.4314H28.7094Z" fill="black"/>
<path d="M3.20177 14.8214C3.40098 14.8214 3.59203 14.7424 3.73289 14.6018C3.87375 14.4611 3.95288 14.2703 3.95288 14.0714V12.2214H17.0722V14.0714C17.0722 14.2703 17.1514 14.4611 17.2922 14.6018C17.4331 14.7424 17.6241 14.8214 17.8233 14.8214C18.0225 14.8214 18.2136 14.7424 18.3545 14.6018C18.4953 14.4611 18.5744 14.2703 18.5744 14.0714V11.4714C18.5718 11.2733 18.4919 11.0841 18.3516 10.944C18.2113 10.8039 18.0217 10.724 17.8233 10.7214H15.7302C16.1874 10.1103 16.6023 9.46885 16.9721 8.80143C17.0235 8.71445 17.0567 8.61801 17.0699 8.51789C17.083 8.41776 17.0758 8.31602 17.0486 8.21875C17.0214 8.12149 16.9748 8.03071 16.9117 7.95186C16.8485 7.873 16.77 7.8077 16.6809 7.75987C16.5919 7.71203 16.4941 7.68265 16.3933 7.67348C16.2926 7.66431 16.1911 7.67554 16.0948 7.7065C15.9986 7.73747 15.9096 7.78752 15.8332 7.85366C15.7567 7.91981 15.6945 8.00068 15.6501 8.09143C15.1445 9.02953 14.5402 9.91117 13.8475 10.7214H11.7043C11.7825 10.5707 11.8073 10.398 11.7744 10.2314C11.489 9.40574 11.0877 8.62463 10.5827 7.91143C10.4778 7.75154 10.3157 7.63766 10.1296 7.59305C9.94347 7.54844 9.74731 7.57648 9.58118 7.67143C9.42123 7.7762 9.30666 7.93727 9.26027 8.12257C9.21387 8.30788 9.23906 8.50383 9.33081 8.67143C9.73011 9.26107 10.0658 9.89125 10.3323 10.5514C10.3495 10.6009 10.3731 10.648 10.4024 10.6914H6.95731C7.03302 10.5055 7.03302 10.2974 6.95731 10.1114C6.56629 9.36996 6.07793 8.68391 5.50517 8.07143C5.376 7.93479 5.20018 7.85154 5.01248 7.83816C4.82479 7.82477 4.6389 7.88221 4.49159 7.99913C4.34428 8.11605 4.24629 8.28392 4.21701 8.46952C4.18772 8.65513 4.22927 8.84495 4.33344 9.00143C4.78539 9.52297 5.18771 10.0854 5.53521 10.6814H3.20177C3.00337 10.684 2.81383 10.7639 2.67353 10.904C2.53323 11.0441 2.45326 11.2333 2.45066 11.4314V14.0314C2.44664 14.1329 2.46302 14.2341 2.49884 14.3292C2.53466 14.4242 2.58919 14.5111 2.6592 14.5848C2.72922 14.6584 2.81331 14.7173 2.9065 14.7579C2.99968 14.7986 3.10009 14.8202 3.20177 14.8214Z" fill="black"/>
</svg>
