<svg width="32" height="32" viewBox="0 0 32 32" fill="none" xmlns="http://www.w3.org/2000/svg">
<path d="M10.89 16.59C10.4578 17.356 10.1942 18.2054 10.1166 19.0814C10.0389 19.9575 10.1492 20.84 10.44 21.67C11.3 24.08 13.87 25.42 17.19 25.42C18.6061 25.4084 20.0134 25.1963 21.37 24.79C21.4761 24.7774 21.5783 24.7422 21.6698 24.6868C21.7612 24.6314 21.8397 24.5572 21.9001 24.469C21.9605 24.3808 22.0013 24.2807 22.0199 24.1754C22.0384 24.0702 22.0343 23.9621 22.0077 23.8586C21.9811 23.7551 21.9326 23.6585 21.8656 23.5752C21.7986 23.4919 21.7146 23.4239 21.6192 23.3757C21.5238 23.3276 21.4192 23.3004 21.3124 23.2959C21.2056 23.2915 21.0991 23.3099 21 23.35C17.26 24.43 12.93 24.03 11.9 21.16C11.682 20.528 11.6014 19.8568 11.6635 19.1912C11.7256 18.5255 11.9289 17.8808 12.26 17.3C13.26 15.44 15.42 14.04 18.26 13.37C18.4476 13.3193 18.6082 13.1977 18.7079 13.0309C18.8077 12.8641 18.8388 12.6652 18.7947 12.4759C18.7506 12.2866 18.6348 12.1219 18.4716 12.0163C18.3085 11.9107 18.1107 11.8726 17.92 11.91C16.8162 12.1592 15.7479 12.5456 14.74 13.06C13.67 12.69 11.95 11.69 12.12 10.22C12.1636 9.89896 12.2753 9.59097 12.4478 9.31672C12.6203 9.04247 12.8495 8.80832 13.12 8.63C13.5436 8.36156 14.0194 8.18618 14.5159 8.1155C15.0124 8.04482 15.5183 8.08044 16 8.22C16.1936 8.26774 16.3983 8.23661 16.5689 8.13347C16.6534 8.0824 16.727 8.01518 16.7855 7.93566C16.8441 7.85614 16.8864 7.76586 16.91 7.67C16.9336 7.57414 16.9382 7.47455 16.9233 7.37694C16.9085 7.27933 16.8745 7.18559 16.8235 7.10109C16.7724 7.01659 16.7052 6.94298 16.6257 6.88445C16.5461 6.82593 16.4559 6.78364 16.36 6.76C15.6677 6.56393 14.9412 6.51961 14.2301 6.63006C13.5191 6.74052 12.8402 7.00314 12.24 7.4C11.798 7.69244 11.4233 8.07548 11.1405 8.52372C10.8578 8.97196 10.6735 9.47517 10.6 10C10.39 11.84 11.7 13.19 13.18 14C12.2411 14.6906 11.4603 15.5736 10.89 16.59Z" fill="black"/>
<path d="M29.25 2H2.75C2.55189 2.00259 2.36263 2.08244 2.22253 2.22253C2.08244 2.36263 2.00259 2.55189 2 2.75V29.25C2.00259 29.4481 2.08244 29.6374 2.22253 29.7775C2.36263 29.9176 2.55189 29.9974 2.75 30H29.25C29.4481 29.9974 29.6374 29.9176 29.7775 29.7775C29.9176 29.6374 29.9974 29.4481 30 29.25V2.75C29.9974 2.55189 29.9176 2.36263 29.7775 2.22253C29.6374 2.08244 29.4481 2.00259 29.25 2ZM28.5 28.5H3.5V3.5H28.5V28.5Z" fill="black"/>
</svg>
