<svg width="32" height="32" viewBox="0 0 32 32" fill="none" xmlns="http://www.w3.org/2000/svg">
<path d="M14.6016 23.6493C10.6016 24.8093 5.89157 24.3693 4.79157 21.2693C4.5497 20.5881 4.45842 19.8625 4.52402 19.1426C4.58963 18.4227 4.81055 17.7256 5.17157 17.0993C6.27157 15.0993 8.57157 13.5793 11.6616 12.8593C11.8381 12.7965 11.9851 12.6707 12.0745 12.5061C12.1639 12.3414 12.1894 12.1496 12.146 11.9673C12.1026 11.7851 11.9934 11.6253 11.8394 11.5186C11.6854 11.4119 11.4974 11.3659 11.3116 11.3893C10.1301 11.667 8.98548 12.0832 7.90157 12.6293C6.74157 12.2393 4.85157 11.1493 5.00157 9.52934C5.05246 9.17471 5.17989 8.8354 5.37502 8.53494C5.57015 8.23448 5.8283 7.98007 6.13157 7.78934C6.59625 7.49452 7.11833 7.30193 7.66315 7.22435C8.20797 7.14676 8.76306 7.18596 9.29157 7.33934C9.38743 7.36298 9.48702 7.3675 9.58463 7.35266C9.68224 7.33781 9.77598 7.30388 9.86048 7.25281C9.94498 7.20174 10.0186 7.13452 10.0771 7.055C10.1356 6.97548 10.1779 6.88521 10.2016 6.78934C10.2252 6.69348 10.2297 6.59389 10.2149 6.49628C10.2 6.39867 10.1661 6.30493 10.115 6.22043C10.064 6.13593 9.99675 6.06232 9.91723 6.00379C9.8377 5.94527 9.74743 5.90298 9.65157 5.87934C8.91671 5.67526 8.14677 5.63035 7.39317 5.74762C6.63957 5.86488 5.91967 6.14162 5.28157 6.55934C4.80957 6.87267 4.4107 7.2841 4.11215 7.76558C3.8136 8.24706 3.62239 8.78726 3.55157 9.34934C3.32157 11.3493 4.75157 12.7693 6.35157 13.5993C5.3281 14.3355 4.47539 15.2837 3.85157 16.3793C3.39012 17.1928 3.10849 18.0957 3.02569 19.0273C2.94288 19.9588 3.06083 20.8973 3.37157 21.7793C4.29157 24.3393 7.02157 25.7793 10.5616 25.7793C12.0664 25.7561 13.5607 25.5238 15.0016 25.0893C15.1818 25.026 15.331 24.8962 15.4188 24.7266C15.5066 24.5569 15.5264 24.3602 15.4741 24.1764C15.4218 23.9927 15.3013 23.8359 15.1373 23.7379C14.9733 23.64 14.7781 23.6083 14.5916 23.6493H14.6016Z" fill="black"/>
<path d="M27.7216 22.4493L25.0016 25.1593V6.56934L27.7116 9.27934C27.7808 9.34945 27.8634 9.40503 27.9544 9.44281C28.0454 9.48058 28.143 9.4998 28.2416 9.49934C28.3402 9.50037 28.438 9.48141 28.5291 9.4436C28.6202 9.40579 28.7027 9.34991 28.7716 9.27934C28.8423 9.21039 28.8986 9.12798 28.937 9.03695C28.9754 8.94593 28.9951 8.84813 28.9951 8.74934C28.9951 8.65055 28.9754 8.55275 28.937 8.46173C28.8986 8.3707 28.8423 8.28829 28.7716 8.21934L24.7716 4.21934C24.6309 4.07889 24.4403 4 24.2416 4C24.0428 4 23.8522 4.07889 23.7116 4.21934L19.7116 8.21934C19.5711 8.35997 19.4922 8.55059 19.4922 8.74934C19.4922 8.94809 19.5711 9.13871 19.7116 9.27934C19.7805 9.3501 19.8629 9.40633 19.954 9.44473C20.045 9.48313 20.1428 9.50291 20.2416 9.50291C20.3404 9.50291 20.4382 9.48313 20.5292 9.44473C20.6202 9.40633 20.7026 9.3501 20.7716 9.27934L23.4916 6.56934V25.1593L20.7716 22.4493C20.7029 22.3757 20.6201 22.3166 20.5281 22.2756C20.4361 22.2346 20.3368 22.2125 20.2361 22.2107C20.1354 22.209 20.0354 22.2275 19.942 22.2652C19.8486 22.3029 19.7638 22.3591 19.6925 22.4303C19.6213 22.5015 19.5652 22.5864 19.5274 22.6797C19.4897 22.7731 19.4712 22.8732 19.473 22.9739C19.4748 23.0746 19.4968 23.1739 19.5378 23.2659C19.5788 23.3579 19.6379 23.4407 19.7116 23.5093L23.7116 27.5093C23.7834 27.574 23.8643 27.6279 23.9516 27.6693C24.045 27.7013 24.1429 27.7182 24.2416 27.7193C24.3369 27.7173 24.4314 27.7004 24.5216 27.6693C24.6133 27.6304 24.6978 27.5763 24.7716 27.5093L28.7716 23.5093C28.8423 23.4404 28.8986 23.358 28.937 23.267C28.9754 23.1759 28.9951 23.0781 28.9951 22.9793C28.9951 22.8805 28.9754 22.7828 28.937 22.6917C28.8986 22.6007 28.8423 22.5183 28.7716 22.4493C28.6314 22.3119 28.4429 22.2349 28.2466 22.2349C28.0503 22.2349 27.8618 22.3119 27.7216 22.4493Z" fill="black"/>
</svg>
