<svg width="32" height="32" viewBox="0 0 32 32" fill="none" xmlns="http://www.w3.org/2000/svg">
<path d="M28.6926 20.6631L25.2362 24.1331L21.7697 20.6631C21.6292 20.5227 21.4388 20.4438 21.2403 20.4438C21.0417 20.4438 20.8513 20.5227 20.7108 20.6631C20.5723 20.8067 20.4948 20.9985 20.4948 21.1981C20.4948 21.3977 20.5723 21.5896 20.7108 21.7331L24.7067 25.7331C24.8471 25.8738 25.0375 25.953 25.2362 25.9531C25.4344 25.9508 25.6241 25.872 25.7656 25.7331L29.7615 21.7331C29.9001 21.5896 29.9775 21.3977 29.9775 21.1981C29.9775 20.9985 29.9001 20.8067 29.7615 20.6631C29.6918 20.5921 29.6086 20.5356 29.5169 20.4971C29.4251 20.4586 29.3266 20.4388 29.2271 20.4388C29.1276 20.4388 29.0291 20.4586 28.9373 20.4971C28.8455 20.5356 28.7624 20.5921 28.6926 20.6631Z" fill="black"/>
<path d="M3.23873 13.1031C3.33796 13.1045 3.43646 13.086 3.52852 13.0489C3.62057 13.0118 3.70435 12.9568 3.77499 12.887C3.84562 12.8173 3.9017 12.7341 3.93998 12.6425C3.97825 12.5508 3.99796 12.4525 3.99795 12.3531V10.5731H16.7149V12.3531C16.7149 12.552 16.7938 12.7428 16.9344 12.8835C17.0749 13.0241 17.2654 13.1031 17.4641 13.1031C17.6629 13.1031 17.8534 13.0241 17.9939 12.8835C18.1344 12.7428 18.2134 12.552 18.2134 12.3531V9.82313C18.2134 9.62422 18.1344 9.43345 17.9939 9.2928C17.8534 9.15215 17.6629 9.07313 17.4641 9.07313H15.4662C15.8942 8.48166 16.2846 7.86377 16.635 7.22313C16.729 7.04676 16.7493 6.84022 16.6912 6.64893C16.6331 6.45764 16.5015 6.29728 16.3253 6.20313C16.1491 6.10898 15.9428 6.08875 15.7517 6.14688C15.5606 6.20502 15.4004 6.33676 15.3064 6.51313C14.8167 7.42418 14.2342 8.28208 13.5681 9.07313H11.5702C11.6403 8.93062 11.6614 8.76888 11.6301 8.61313C11.3454 7.80301 10.9449 7.03842 10.4413 6.34313C10.3367 6.18342 10.1758 6.06902 9.99067 6.02269C9.80555 5.97637 9.6098 6.00151 9.44237 6.09313C9.28264 6.19785 9.16887 6.35966 9.12431 6.54552C9.07975 6.73138 9.10776 6.92725 9.20262 7.09313C9.58765 7.68462 9.90277 8.31887 10.1417 8.98313C10.1417 8.98313 10.1417 9.05313 10.1417 9.09313H6.86501C6.90211 9.0062 6.92123 8.91266 6.92123 8.81813C6.92123 8.7236 6.90211 8.63006 6.86501 8.54313C6.50882 7.79795 6.04796 7.10762 5.49642 6.49313C5.37578 6.3506 5.20576 6.25902 5.02047 6.23676C4.83518 6.2145 4.64834 6.26322 4.49744 6.37313C4.35505 6.49389 4.26356 6.66409 4.24133 6.84957C4.21909 7.03505 4.26776 7.22208 4.37756 7.37313C4.79799 7.89782 5.16918 8.4602 5.48643 9.05313H3.23873C3.04083 9.05572 2.85176 9.13557 2.7118 9.27567C2.57185 9.41576 2.49209 9.60502 2.4895 9.80313V12.3531C2.4895 12.552 2.56843 12.7428 2.70894 12.8835C2.84945 13.0241 3.04002 13.1031 3.23873 13.1031Z" fill="black"/>
<path d="M24.7067 19.6231C24.8471 19.7638 25.0375 19.843 25.2362 19.8431C25.434 19.8388 25.6229 19.7603 25.7656 19.6231L29.7615 15.6231C29.8351 15.5545 29.8942 15.4717 29.9351 15.3797C29.9761 15.2877 29.9981 15.1884 29.9999 15.0877C30.0017 14.987 29.9832 14.8869 29.9455 14.7935C29.9078 14.7001 29.8517 14.6153 29.7806 14.5441C29.7094 14.4729 29.6247 14.4167 29.5314 14.379C29.4381 14.3413 29.3382 14.3228 29.2376 14.3245C29.137 14.3263 29.0377 14.3484 28.9458 14.3893C28.8539 14.4303 28.7712 14.4894 28.7026 14.5631L25.2462 18.0331L21.7697 14.5631C21.7011 14.4894 21.6184 14.4303 21.5265 14.3893C21.4346 14.3484 21.3354 14.3263 21.2348 14.3245C21.1342 14.3228 21.0343 14.3413 20.941 14.379C20.8477 14.4167 20.7629 14.4729 20.6918 14.5441C20.6207 14.6153 20.5646 14.7001 20.5269 14.7935C20.4892 14.8869 20.4707 14.987 20.4725 15.0877C20.4742 15.1884 20.4963 15.2877 20.5372 15.3797C20.5782 15.4717 20.6372 15.5545 20.7108 15.6231L24.7067 19.6231Z" fill="black"/>
<path d="M17.9836 16.3431H11.1007V15.9831C12.6979 15.3091 14.1574 14.3464 15.4063 13.1431C15.5186 12.9933 15.5709 12.8068 15.5528 12.6204C15.5347 12.4339 15.4476 12.261 15.3086 12.1356C15.1695 12.0102 14.9887 11.9415 14.8015 11.9429C14.6144 11.9442 14.4346 12.0157 14.2974 12.1431L14.2375 12.2031H5.84606C5.64735 12.2031 5.45678 12.2821 5.31627 12.4228C5.17576 12.5635 5.09682 12.7542 5.09682 12.9531C5.09682 13.152 5.17576 13.3428 5.31627 13.4835C5.45678 13.6241 5.64735 13.7031 5.84606 13.7031H12.1896C11.4965 14.1249 10.7794 14.5055 10.0418 14.8431C9.91116 14.9025 9.80031 14.9981 9.7224 15.1186C9.64448 15.2392 9.60277 15.3796 9.60221 15.5231V16.3431H2.74923C2.55052 16.3431 2.35995 16.4221 2.21944 16.5628C2.07894 16.7035 2 16.8942 2 17.0931C2 17.292 2.07894 17.4828 2.21944 17.6235C2.35995 17.7641 2.55052 17.8431 2.74923 17.8431H9.60221V21.2831C9.61204 21.3528 9.61204 21.4235 9.60221 21.4931C9.60221 21.4931 9.49232 21.5431 9.20262 21.5531C8.59324 21.5531 6.60528 21.5531 6.59529 21.5531V23.0531H9.23258C10.781 23.0031 11.1007 22.0531 11.1007 21.2831V17.8431H17.9836C18.1823 17.8431 18.3729 17.7641 18.5134 17.6235C18.6539 17.4828 18.7328 17.292 18.7328 17.0931C18.7328 16.8942 18.6539 16.7035 18.5134 16.5628C18.3729 16.4221 18.1823 16.3431 17.9836 16.3431Z" fill="black"/>
</svg>
