<svg width="32" height="32" viewBox="0 0 32 32" fill="none" xmlns="http://www.w3.org/2000/svg">
<path d="M28.6833 21.0556L25.2287 24.5256L21.7641 21.0556C21.6185 20.9151 21.4231 20.8382 21.2209 20.8419C21.0186 20.8457 20.8262 20.9298 20.6858 21.0756C20.5455 21.2215 20.4687 21.4172 20.4725 21.6198C20.4762 21.8223 20.5602 22.0151 20.7058 22.1556L24.6996 26.1556C24.8417 26.2967 25.0337 26.3758 25.2337 26.3758C25.4338 26.3758 25.6258 26.2967 25.7679 26.1556L29.7617 22.1556C29.8352 22.087 29.8942 22.0042 29.9352 21.9122C29.9761 21.8202 29.9981 21.7208 29.9999 21.6201C30.0017 21.5194 29.9832 21.4194 29.9455 21.326C29.9078 21.2326 29.8518 21.1478 29.7807 21.0766C29.7096 21.0054 29.6249 20.9492 29.5316 20.9115C29.4384 20.8738 29.3385 20.8553 29.238 20.857C29.1374 20.8588 29.0383 20.8808 28.9464 20.9218C28.8545 20.9628 28.7719 21.0219 28.7033 21.0956L28.6833 21.0556Z" fill="black"/>
<path d="M13.8066 12.2256C13.8864 11.9956 13.9563 11.7656 14.0162 11.5656C14.0572 11.3791 14.0256 11.1839 13.9278 11.0199C13.83 10.8559 13.6734 10.7354 13.49 10.6831C13.3065 10.6308 13.1101 10.6506 12.9407 10.7384C12.7713 10.8262 12.6418 10.9754 12.5785 11.1556C12.5086 11.3956 12.4187 11.6956 12.2989 12.0356C10.9806 11.9916 9.66353 12.1535 8.39501 12.5156C8.39501 11.7656 8.50484 10.9856 8.5947 10.1856C10.7782 10.0826 12.9546 9.86224 15.1145 9.52562C15.2111 9.51101 15.3039 9.47736 15.3874 9.42662C15.4709 9.37588 15.5436 9.30905 15.6011 9.23C15.6587 9.15095 15.7001 9.06125 15.7228 8.96609C15.7455 8.87093 15.7492 8.77221 15.7336 8.67562C15.704 8.47958 15.5981 8.30326 15.439 8.1852C15.28 8.06714 15.0808 8.01696 14.8849 8.04562C12.8639 8.36308 10.8276 8.57337 8.78441 8.67562C8.8543 8.15562 8.93417 7.58562 8.99408 7.01562C9.03363 6.91102 9.04932 6.79888 9.04 6.68742C9.03068 6.57595 8.99659 6.46799 8.94022 6.37143C8.88385 6.27487 8.80663 6.19217 8.71421 6.12937C8.6218 6.06657 8.51653 6.02527 8.40611 6.00849C8.2957 5.99171 8.18294 5.99988 8.07608 6.03239C7.96923 6.06491 7.87099 6.12096 7.78856 6.19642C7.70613 6.27189 7.64159 6.36486 7.59968 6.46854C7.55777 6.57222 7.53955 6.68397 7.54634 6.79562C7.43651 7.45562 7.34665 8.08562 7.26678 8.70562C5.96392 8.72757 4.66082 8.68084 3.36287 8.56562C3.2616 8.54911 3.15802 8.55361 3.05855 8.57886C2.95909 8.60411 2.86587 8.64956 2.78468 8.71239C2.70349 8.77523 2.63606 8.8541 2.58657 8.94413C2.53708 9.03415 2.50659 9.1334 2.49699 9.23571C2.48739 9.33803 2.49889 9.44123 2.53077 9.53891C2.56265 9.63659 2.61423 9.72666 2.68232 9.80354C2.7504 9.88043 2.83354 9.94247 2.92656 9.98584C3.01959 10.0292 3.12052 10.053 3.22309 10.0556C4.28144 10.1556 5.41966 10.2156 6.61779 10.2156H7.08706C6.9972 11.1556 6.90734 12.1556 6.87738 13.0356C6.16426 13.3168 5.49252 13.6936 4.8805 14.1556C4.08476 14.7741 3.42046 15.5456 2.92665 16.4249C2.43285 17.3041 2.11949 18.2734 2.00499 19.2756C1.98183 19.6456 2.03951 20.0163 2.17401 20.3617C2.30851 20.7071 2.5166 21.019 2.78377 21.2756C3.94197 22.2756 5.59938 22.1556 7.71607 20.8256C7.71607 21.0056 7.79595 21.1756 7.84587 21.3456C7.89087 21.5024 7.98507 21.6406 8.11453 21.7396C8.244 21.8387 8.40185 21.8934 8.56475 21.8956H8.77442C8.86845 21.8691 8.95629 21.8243 9.03289 21.7636C9.10948 21.7029 9.1733 21.6276 9.22065 21.542C9.26801 21.4565 9.29796 21.3624 9.30876 21.2651C9.31957 21.1679 9.31103 21.0695 9.28363 20.9756C9.18378 20.6156 9.11389 20.2756 9.03402 19.9256C9.22372 19.7756 9.42341 19.6356 9.6231 19.4556C11.2919 17.8413 12.5546 15.8536 13.3073 13.6556C14.1565 13.8221 14.9152 14.2948 15.4397 14.9841C15.9641 15.6734 16.2179 16.5314 16.1529 17.3956C15.9732 18.8156 14.9947 20.6856 11.3604 21.5156C11.2651 21.5369 11.1749 21.5768 11.0952 21.6331C11.0154 21.6895 10.9475 21.7611 10.8955 21.8439C10.8435 21.9266 10.8084 22.0189 10.7923 22.1153C10.7761 22.2117 10.7791 22.3104 10.8013 22.4056C10.8393 22.5715 10.9317 22.7198 11.0639 22.8268C11.196 22.9338 11.3602 22.9932 11.5301 22.9956H11.6899C16.4125 21.9256 17.4409 19.1556 17.6805 17.6056C17.8029 16.3896 17.4763 15.1709 16.7625 14.1796C16.0488 13.1883 14.9972 12.4932 13.8066 12.2256ZM3.82215 20.2256C3.71511 20.1118 3.63453 19.9757 3.58619 19.827C3.53786 19.6783 3.52297 19.5207 3.54259 19.3656C3.76578 17.7813 4.59671 16.3464 5.85897 15.3656C6.17178 15.1167 6.50589 14.8958 6.85741 14.7056C6.88144 16.2544 7.04856 17.7977 7.35664 19.3156C6.07863 20.1556 4.59095 20.9056 3.78221 20.1556L3.82215 20.2256ZM8.7245 18.3256C8.48716 16.9385 8.37356 15.5329 8.38503 14.1256C9.48402 13.7759 10.627 13.584 11.7797 13.5556C11.1144 15.3415 10.0566 16.9546 8.68456 18.2756L8.7245 18.3256Z" fill="black"/>
<path d="M24.6896 20.0156C24.8317 20.1567 25.0237 20.2358 25.2237 20.2358C25.4238 20.2358 25.6158 20.1567 25.7579 20.0156L29.7517 16.0156C29.892 15.8737 29.9703 15.6818 29.9694 15.4821C29.9685 15.2824 29.8884 15.0912 29.7467 14.9506C29.605 14.8101 29.4134 14.7316 29.214 14.7326C29.0146 14.7335 28.8237 14.8137 28.6833 14.9556L25.2287 18.4256L21.7641 14.9556C21.6956 14.8819 21.6129 14.8228 21.5211 14.7818C21.4292 14.7408 21.33 14.7188 21.2295 14.717C21.129 14.7153 21.0291 14.7338 20.9358 14.7715C20.8426 14.8092 20.7579 14.8654 20.6868 14.9366C20.6157 15.0078 20.5596 15.0926 20.522 15.186C20.4843 15.2794 20.4658 15.3794 20.4676 15.4801C20.4694 15.5808 20.4914 15.6802 20.5323 15.7722C20.5732 15.8642 20.6322 15.947 20.7058 16.0156L24.6896 20.0156Z" fill="black"/>
</svg>
