<svg width="32" height="32" viewBox="0 0 32 32" fill="none" xmlns="http://www.w3.org/2000/svg">
<path d="M29.221 28.5379H20.9874L28.3128 20.2561C28.7929 19.709 29.0382 18.9936 28.9952 18.2659C28.9522 17.5382 28.6245 16.8569 28.0833 16.3706L24.7599 13.3663C24.2141 12.8814 23.499 12.6333 22.7713 12.6765C22.0436 12.7197 21.3627 13.0506 20.8776 13.5966L12.3247 23.2704C12.0848 23.5416 11.9007 23.8577 11.7828 24.2005C11.665 24.5433 11.6158 24.9061 11.638 25.2681C11.6603 25.63 11.7536 25.984 11.9125 26.3097C12.0715 26.6354 12.2929 26.9264 12.5643 27.1659L15.688 29.8197C15.8238 29.9374 15.9976 30.0015 16.177 30H29.2509C29.4494 30 29.6398 29.9208 29.7802 29.78C29.9206 29.6391 29.9994 29.4481 29.9994 29.2489C29.9994 29.0497 29.9206 28.8587 29.7802 28.7178C29.6398 28.577 29.4494 28.4978 29.2509 28.4978L29.221 28.5379ZM21.9854 14.6381C22.0932 14.514 22.2247 14.4128 22.3721 14.3406C22.5196 14.2683 22.6799 14.2265 22.8437 14.2175C23.0064 14.2073 23.1695 14.2295 23.3237 14.2828C23.4778 14.3361 23.62 14.4194 23.7419 14.5279L27.0653 17.5322C27.312 17.7518 27.4621 18.0604 27.4827 18.3907C27.5033 18.721 27.3927 19.046 27.1751 19.2947L23.8118 23.03L18.6321 18.4035L21.9854 14.6381ZM18.9914 28.5379H16.4166L13.5223 26.0343C13.2749 25.813 13.1246 25.5027 13.1041 25.1707C13.0835 24.8388 13.1944 24.5121 13.4126 24.2618L17.6341 19.495L22.8238 24.1216L18.9914 28.5379Z" fill="black"/>
<path d="M12.9441 19.545C13.0391 19.5194 13.1283 19.4753 13.2063 19.4152C13.2844 19.355 13.3498 19.28 13.399 19.1944C13.4481 19.1088 13.4799 19.0144 13.4926 18.9165C13.5053 18.8185 13.4987 18.719 13.473 18.6237L9.17161 2.5608C9.12797 2.40026 9.0331 2.25849 8.90152 2.15721C8.76994 2.05593 8.6089 2.0007 8.44307 2C8.27852 2.00122 8.11895 2.05682 7.98906 2.15819C7.85917 2.25956 7.76619 2.40106 7.7245 2.5608L2.02589 23.7009C2.00023 23.7963 1.99356 23.8958 2.00626 23.9937C2.01897 24.0916 2.0508 24.1861 2.09993 24.2717C2.14906 24.3572 2.21453 24.4322 2.29258 24.4924C2.37064 24.5526 2.45976 24.5967 2.55483 24.6222C2.61767 24.6319 2.68161 24.6319 2.74445 24.6222C2.90944 24.6227 3.06985 24.5678 3.20008 24.4661C3.33032 24.3645 3.42288 24.222 3.46302 24.0614L5.70853 15.7095H11.1576L12.0059 19.0243C12.0323 19.121 12.0777 19.2114 12.1395 19.2902C12.2013 19.369 12.2781 19.4346 12.3656 19.4832C12.453 19.5317 12.5492 19.5622 12.6486 19.5728C12.7479 19.5834 12.8484 19.574 12.9441 19.545ZM6.13767 14.2374L8.44307 5.64519L10.7485 14.2374H6.13767Z" fill="black"/>
</svg>
