<svg width="32" height="32" viewBox="0 0 32 32" fill="none" xmlns="http://www.w3.org/2000/svg">
<path d="M29.2496 11.0054C28.8479 10.6053 28.317 10.3615 27.752 10.3176C27.1869 10.2736 26.6247 10.4325 26.1661 10.7657L25.8368 11.0054C22.2662 13.62 19.1192 16.7695 16.5066 20.3429L15.5087 21.721C14.9666 21.6477 14.415 21.6996 13.8961 21.8727C13.3771 22.0458 12.9047 22.3355 12.515 22.7197C11.881 23.3417 11.5035 24.1792 11.4572 25.0665C11.3175 26.3548 9.77082 27.6531 9.19204 28.0625C9.07722 28.1389 8.98571 28.2455 8.9276 28.3706C8.86949 28.4957 8.84705 28.6345 8.86274 28.7716C8.87881 28.9086 8.93189 29.0386 9.01629 29.1477C9.10068 29.2568 9.21319 29.3408 9.34173 29.3907C10.3549 29.7808 11.4295 29.987 12.515 29.9999C14.2971 30.0088 16.0123 29.3208 17.2949 28.0825C17.3961 27.9978 17.4927 27.9078 17.5843 27.8128C17.9195 27.4811 18.1857 27.0861 18.3672 26.6507C18.5488 26.2152 18.6422 25.7481 18.642 25.2763C18.6525 25.11 18.6525 24.9432 18.642 24.7769L19.9892 23.7783C23.5552 21.1582 26.7015 18.0096 29.3195 14.4408L29.559 14.1112C29.8926 13.6441 30.0452 13.0715 29.9883 12.5001C29.9314 11.9287 29.6689 11.3974 29.2496 11.0054ZM16.4966 26.7243C16.4362 26.7907 16.3694 26.851 16.297 26.9041C15.6262 27.5567 14.8019 28.0296 13.9002 28.2792C12.9985 28.5288 12.0485 28.547 11.1379 28.3322C12.0881 27.5134 12.7349 26.3982 12.974 25.1664C12.9926 24.6351 13.214 24.1311 13.5927 23.7583C13.9908 23.3631 14.5288 23.1414 15.0896 23.1414C15.6503 23.1414 16.1883 23.3631 16.5864 23.7583C16.788 23.9521 16.9484 24.1847 17.058 24.4422C17.1676 24.6996 17.2241 24.9765 17.2241 25.2563C17.2241 25.5361 17.1676 25.813 17.058 26.0704C16.9484 26.3278 16.788 26.5604 16.5864 26.7543L16.4966 26.7243ZM19.0212 22.5499L18.0932 23.229L17.0255 22.1704L17.714 21.2317C17.9335 20.9321 18.183 20.6425 18.4225 20.3429L19.9593 21.8409C19.61 22.0706 19.3306 22.3202 19.0212 22.5499ZM28.2717 13.2025L28.0322 13.532C26.0269 16.2605 23.6981 18.7353 21.0969 20.9021L19.3605 19.1645C21.5201 16.5413 23.9935 14.1936 26.7249 12.1738L27.0543 11.9242C27.2238 11.807 27.4292 11.7533 27.6343 11.7724C27.8395 11.7915 28.0314 11.8822 28.1765 12.0286C28.3216 12.175 28.4106 12.3678 28.428 12.5733C28.4454 12.7787 28.3901 12.9838 28.2717 13.1525V13.2025Z" fill="black"/>
<path d="M13.2934 18.5153C13.2376 18.3243 13.1091 18.1628 12.9355 18.0657C12.7619 17.9685 12.5572 17.9435 12.3653 17.996C8.81284 18.9947 4.71152 18.6452 3.74357 15.9388C3.53736 15.3404 3.46096 14.7049 3.51946 14.0746C3.57796 13.4444 3.77003 12.8338 4.08285 12.2837C5.08074 10.5161 7.07652 9.18784 9.79078 8.5487C9.88707 8.52757 9.97817 8.48736 10.0587 8.43044C10.1392 8.37351 10.2075 8.30103 10.2596 8.21726C10.3117 8.13349 10.3465 8.04013 10.3619 7.94269C10.3774 7.84525 10.3732 7.7457 10.3496 7.64991C10.3045 7.45662 10.1846 7.28916 10.0162 7.1843C9.84778 7.07944 9.64468 7.04576 9.45149 7.09066C8.4135 7.33173 7.40836 7.69722 6.45783 8.1792C5.42002 7.82967 3.81342 6.90091 3.99304 5.52276C4.0286 5.22009 4.12903 4.92867 4.28748 4.66842C4.44592 4.40816 4.65864 4.18521 4.9111 4.01479C5.31534 3.76011 5.76916 3.59455 6.24234 3.52911C6.71551 3.46368 7.19719 3.49988 7.65529 3.6353C7.83603 3.65206 8.0167 3.60252 8.16365 3.49589C8.31061 3.38927 8.41384 3.23283 8.45412 3.05571C8.4944 2.87858 8.46898 2.69285 8.38261 2.53308C8.29623 2.37331 8.15478 2.2504 7.9846 2.18724C7.31467 1.99521 6.61121 1.95022 5.92231 2.05536C5.23341 2.1605 4.57532 2.41328 3.99304 2.79642C3.57658 3.09049 3.22701 3.46942 2.96731 3.90833C2.70761 4.34723 2.54366 4.83617 2.48623 5.343C2.27667 7.09066 3.48412 8.33898 4.92108 9.13791C4.03902 9.78498 3.30434 10.6121 2.76564 11.5647C2.35011 12.2991 2.09678 13.1141 2.02276 13.9548C1.94874 14.7955 2.05574 15.6423 2.33655 16.4381C3.16479 18.755 5.6196 19.9933 8.80287 19.9933C10.155 19.9836 11.4989 19.7819 12.7944 19.3941C12.9736 19.3385 13.1248 19.2167 13.2175 19.0535C13.3102 18.8902 13.3373 18.6978 13.2934 18.5153Z" fill="black"/>
</svg>
