<svg width="32" height="32" viewBox="0 0 32 32" fill="none" xmlns="http://www.w3.org/2000/svg">
<path d="M29.2273 10.9906C28.8308 10.5856 28.3013 10.3382 27.7367 10.2941C27.1722 10.2501 26.6108 10.4123 26.1564 10.7509L25.8274 10.9906C22.2643 13.6113 19.1208 16.7607 16.505 20.3304L15.5079 21.7189C14.9665 21.6493 14.4163 21.703 13.8984 21.876C13.3805 22.0489 12.9083 22.3367 12.5168 22.7178C11.8872 23.3457 11.5139 24.1863 11.4699 25.0753C11.3303 26.3639 9.78487 27.6625 9.20658 28.072C9.09102 28.1476 8.99893 28.2541 8.94077 28.3795C8.88261 28.5048 8.86071 28.644 8.87755 28.7812C8.89205 28.9176 8.94465 29.0471 9.02931 29.1549C9.11396 29.2627 9.22724 29.3444 9.35613 29.3906C10.3685 29.7807 11.4421 29.987 12.5268 29.9999C14.3046 30.0094 16.0154 29.3209 17.2927 28.082C17.4013 28.0063 17.5015 27.9192 17.5918 27.8223C17.9267 27.4905 18.1926 27.0953 18.3741 26.6598C18.5555 26.2243 18.6488 25.757 18.6486 25.285C18.6589 25.1154 18.6589 24.9453 18.6486 24.7756L19.9947 23.7767C23.5599 21.1586 26.7039 18.0088 29.3171 14.4369L29.5564 14.1072C29.8944 13.6384 30.0477 13.061 29.987 12.4859C29.9263 11.9107 29.6558 11.3783 29.2273 10.9906ZM16.495 26.7135L16.2956 26.8933C15.6264 27.5475 14.8025 28.0208 13.9009 28.2689C12.9993 28.517 12.0497 28.5317 11.1409 28.3117C12.0698 27.4894 12.695 26.3773 12.9156 25.1552C12.9351 24.7486 13.0718 24.3563 13.3091 24.0258C13.5463 23.6954 13.874 23.4408 14.2526 23.2929C14.6312 23.145 15.0444 23.1101 15.4423 23.1924C15.8402 23.2747 16.2059 23.4707 16.495 23.7567C16.6943 23.947 16.8522 24.1766 16.9586 24.4311C17.065 24.6855 17.1176 24.9593 17.1132 25.2351C17.1135 25.5103 17.059 25.7829 16.9529 26.0367C16.8467 26.2906 16.6911 26.5207 16.495 26.7135ZM19.0175 22.528L18.0803 23.2173L17.0234 22.1584L17.7114 21.2195C17.9308 20.9098 18.18 20.6301 18.4193 20.3304L19.9548 21.8288C19.6058 22.0586 19.3266 22.3083 19.0175 22.528ZM28.2602 13.1882L28.0209 13.5179C26.0042 16.252 23.6602 18.7278 21.0416 20.8898L19.3067 19.1517C21.4726 16.5355 23.9429 14.1881 26.6649 12.1593L27.0039 11.9196C27.1707 11.7952 27.3769 11.7357 27.5841 11.7523C27.7914 11.7688 27.9856 11.8602 28.1306 12.0095C28.2972 12.153 28.4032 12.3545 28.4272 12.5733C28.4513 12.7921 28.3916 13.0118 28.2602 13.1882Z" fill="black"/>
<path d="M11.8986 16.0951C12.0348 16.0965 12.1688 16.0601 12.2856 15.99C12.4025 15.9198 12.4976 15.8186 12.5606 15.6976C12.6236 15.5766 12.6519 15.4405 12.6424 15.3044C12.6329 15.1682 12.586 15.0374 12.5068 14.9263L10.0341 11.3402C10.8904 10.7113 11.5774 9.8791 12.0333 8.91842C12.4893 7.95774 12.7 6.89864 12.6464 5.83624V2.8395C12.6464 2.64081 12.5676 2.45025 12.4274 2.30975C12.2871 2.16925 12.0969 2.09032 11.8986 2.09032C11.7003 2.09032 11.5101 2.16925 11.3698 2.30975C11.2296 2.45025 11.1508 2.64081 11.1508 2.8395V5.83624C11.205 6.65949 11.0506 7.48311 10.702 8.23057C10.3534 8.97804 9.82182 9.62508 9.15672 10.1116L3.7926 2.32007C3.73629 2.2394 3.66468 2.17062 3.58185 2.11767C3.49902 2.06472 3.40659 2.02864 3.30984 2.01148C3.11444 1.97682 2.91331 2.02135 2.75068 2.13527C2.58805 2.24919 2.47726 2.42317 2.44266 2.61893C2.40807 2.81469 2.45252 3.0162 2.56623 3.17913L4.77968 6.37565C3.88327 6.95177 3.15478 7.75504 2.66801 8.70407C2.18125 9.65309 1.95352 10.7142 2.00788 11.7798V15.246C2.00788 15.4447 2.08666 15.6352 2.2269 15.7757C2.36714 15.9162 2.55734 15.9952 2.75566 15.9952C2.95399 15.9952 3.14419 15.9162 3.28443 15.7757C3.42467 15.6352 3.50345 15.4447 3.50345 15.246V11.7798C3.44879 10.9566 3.61731 10.134 3.99117 9.39893C4.36503 8.66388 4.93031 8.0438 5.62717 7.60431L11.2804 15.7754C11.3499 15.8749 11.4425 15.956 11.5502 16.0116C11.6579 16.0673 11.7774 16.0959 11.8986 16.0951Z" fill="black"/>
</svg>
