<svg width="32" height="32" viewBox="0 0 32 32" fill="none" xmlns="http://www.w3.org/2000/svg">
<path d="M13.1507 18.5158C13.2495 18.5171 13.3475 18.4986 13.439 18.4614C13.5305 18.4242 13.6136 18.369 13.6834 18.299C13.7532 18.2291 13.8084 18.1458 13.8455 18.0542C13.8827 17.9626 13.9012 17.8644 13.8998 17.7655V10.1929H15.9773C16.176 10.1929 16.3665 10.1138 16.507 9.97312C16.6475 9.83242 16.7264 9.64159 16.7264 9.4426C16.7264 9.24362 16.6475 9.05279 16.507 8.91209C16.3665 8.77139 16.176 8.69234 15.9773 8.69234H13.8998V2.75026C13.8998 2.55128 13.8209 2.36045 13.6804 2.21975C13.5399 2.07905 13.3494 2 13.1507 2C12.9521 2 12.7615 2.07905 12.621 2.21975C12.4806 2.36045 12.4016 2.55128 12.4016 2.75026V17.7555C12.4003 17.8549 12.4187 17.9535 12.4558 18.0457C12.4928 18.1379 12.5478 18.2218 12.6175 18.2925C12.6872 18.3632 12.7702 18.4194 12.8617 18.4577C12.9533 18.4961 13.0515 18.5158 13.1507 18.5158Z" fill="black"/>
<path d="M9.08564 3.85065H2.89312C2.69445 3.85065 2.50391 3.92969 2.36343 4.07039C2.22294 4.2111 2.14402 4.40193 2.14402 4.60091C2.14402 4.79989 2.22294 4.99072 2.36343 5.13143C2.50391 5.27213 2.69445 5.35117 2.89312 5.35117H8.30658C8.11681 7.90206 6.84834 11.1832 2.38373 13.6741C2.21382 13.7692 2.08752 13.9268 2.03159 14.1135C1.97566 14.3002 1.99449 14.5014 2.08409 14.6744C2.14959 14.7921 2.24515 14.8903 2.36098 14.9588C2.47682 15.0274 2.60876 15.0639 2.7433 15.0646C2.87013 15.0655 2.99469 15.0309 3.10286 14.9645C8.98576 11.7234 9.83474 7.08178 9.83474 4.60091C9.83474 4.40193 9.75582 4.2111 9.61533 4.07039C9.47485 3.92969 9.28431 3.85065 9.08564 3.85065Z" fill="black"/>
<path d="M29.2613 11.0031C28.863 10.5995 28.3328 10.353 27.7678 10.3089C27.2029 10.2648 26.6409 10.426 26.185 10.7631L25.8554 11.0031C22.2841 13.6214 19.1346 16.7724 16.5167 20.3464L15.5179 21.7369C15.0274 21.6589 14.5261 21.6856 14.0466 21.8152C13.5672 21.9447 13.1204 22.1743 12.7357 22.4888C12.351 22.8032 12.037 23.1956 11.8141 23.6401C11.5913 24.0846 11.4648 24.5712 11.4428 25.0681C11.303 26.3585 9.75483 27.659 9.17553 28.0691C9.05978 28.1448 8.96753 28.2515 8.90926 28.377C8.851 28.5026 8.82906 28.642 8.84593 28.7794C8.86201 28.9166 8.91515 29.0469 8.99962 29.1562C9.08409 29.2655 9.1967 29.3496 9.32535 29.3996C10.3414 29.7824 11.4161 29.9855 12.5015 29.9998C14.2832 30.0136 15.9986 29.3235 17.2758 28.0791C17.3846 28.0033 17.485 27.9161 17.5754 27.819C17.911 27.4867 18.1773 27.091 18.3591 26.6549C18.5408 26.2187 18.6343 25.7508 18.6341 25.2781C18.644 25.1082 18.644 24.9379 18.6341 24.768L19.9825 23.7676C23.5538 21.1494 26.7033 17.9984 29.3212 14.4243L29.5609 14.0842C29.892 13.6214 30.044 13.054 29.9889 12.4873C29.9338 11.9207 29.6753 11.3933 29.2613 11.0031ZM16.5067 26.7487L16.3069 26.9287C15.6366 27.5838 14.8112 28.0578 13.908 28.3063C13.0049 28.5547 12.0536 28.5695 11.1432 28.3492C12.0737 27.5257 12.7001 26.412 12.921 25.1881C12.9406 24.7809 13.0775 24.3881 13.3152 24.0571C13.5528 23.7262 13.8811 23.4713 14.2603 23.3231C14.6396 23.175 15.0535 23.1401 15.4521 23.2225C15.8508 23.3049 16.217 23.5012 16.5067 23.7876C16.7064 23.9782 16.8645 24.2081 16.9711 24.463C17.0776 24.7178 17.1304 24.9919 17.1259 25.2681C17.1263 25.5438 17.0717 25.8167 16.9654 26.0709C16.859 26.3252 16.7031 26.5556 16.5067 26.7487ZM19.0336 22.5572L18.0948 23.2474L17.036 22.1871L17.7252 21.2467C17.9449 20.9466 18.1946 20.6565 18.4344 20.3564L19.9725 21.8569C19.6229 22.087 19.3433 22.3371 19.0336 22.5572ZM28.2925 13.2039L28.0527 13.534C26.0325 16.2721 23.6845 18.7515 21.0612 20.9166L19.3233 19.176C21.4899 16.5531 23.9648 14.202 26.6944 12.1736L27.034 11.9235C27.201 11.7989 27.4076 11.7393 27.6152 11.7559C27.8228 11.7724 28.0174 11.864 28.1626 12.0135C28.3323 12.1576 28.4403 12.3613 28.4644 12.5828C28.4886 12.8043 28.427 13.0266 28.2925 13.2039Z" fill="black"/>
</svg>
