<svg width="32" height="32" viewBox="0 0 32 32" fill="none" xmlns="http://www.w3.org/2000/svg">
<path d="M16 30C18.7689 30 21.4757 29.1789 23.778 27.6406C26.0803 26.1022 27.8747 23.9157 28.9343 21.3576C29.9939 18.7994 30.2712 15.9845 29.731 13.2687C29.1908 10.553 27.8574 8.05845 25.8995 6.10051C23.9416 4.14258 21.447 2.80921 18.7313 2.26901C16.0155 1.72882 13.2006 2.00607 10.6424 3.06569C8.08427 4.12532 5.89777 5.91973 4.35943 8.22202C2.82109 10.5243 2 13.2311 2 16C2 19.713 3.475 23.274 6.1005 25.8995C8.72601 28.525 12.287 30 16 30ZM10 14.45H18.26L15.56 11.79C15.2717 11.4964 15.1102 11.1014 15.1102 10.69C15.1102 10.2786 15.2717 9.88357 15.56 9.59001C15.7027 9.44242 15.8736 9.32506 16.0626 9.24491C16.2516 9.16475 16.4547 9.12344 16.66 9.12344C16.8653 9.12344 17.0684 9.16475 17.2574 9.24491C17.4464 9.32506 17.6173 9.44242 17.76 9.59001L23.09 14.9C23.2325 15.0428 23.3447 15.2128 23.42 15.4C23.5696 15.786 23.5696 16.214 23.42 16.6C23.3471 16.7884 23.2345 16.9589 23.09 17.1L17.76 22.43C17.4664 22.7183 17.0714 22.8798 16.66 22.8798C16.2486 22.8798 15.8536 22.7183 15.56 22.43C15.2752 22.1341 15.1142 21.7406 15.11 21.33C15.1162 20.9198 15.2769 20.527 15.56 20.23L18.24 17.56H10C9.60912 17.5286 9.2444 17.3512 8.97844 17.0631C8.71248 16.7749 8.5648 16.3971 8.5648 16.005C8.5648 15.6129 8.71248 15.2351 8.97844 14.947C9.2444 14.6588 9.60912 14.4814 10 14.45Z" fill="black"/>
</svg>
