<svg width="32" height="32" viewBox="0 0 32 32" fill="none" xmlns="http://www.w3.org/2000/svg">
<path fill-rule="evenodd" clip-rule="evenodd" d="M21.0197 4.21967C20.7268 4.51256 20.7268 4.98744 21.0197 5.28033L25.4393 9.7H13.95C9.03579 9.7 5 13.7358 5 18.65C5 23.5642 9.03579 27.6 13.95 27.6C14.3642 27.6 14.7 27.2642 14.7 26.85C14.7 26.4358 14.3642 26.1 13.95 26.1C9.86421 26.1 6.5 22.7358 6.5 18.65C6.5 14.5642 9.86421 11.2 13.95 11.2H25.4614L21.0151 15.7243C20.7247 16.0197 20.7289 16.4946 21.0243 16.7849C21.3197 17.0753 21.7946 17.0711 22.0849 16.7757L27.7849 10.9757C28.0735 10.6821 28.0714 10.2108 27.7803 9.91967L22.0803 4.21967C21.7874 3.92678 21.3126 3.92678 21.0197 4.21967Z" fill="black"/>
</svg>
