<svg width="32" height="32" viewBox="0 0 32 32" fill="none" xmlns="http://www.w3.org/2000/svg">
<path d="M19.27 18.7039C18.97 18.414 18.5 18.424 18.21 18.7139C16.78 20.1734 16 22.1327 16 24.2319C16 26.3312 16.79 28.2905 18.21 29.75C18.36 29.8999 18.55 29.9799 18.75 29.9799C18.95 29.9799 19.13 29.9099 19.27 29.77C19.57 29.4801 19.57 29.0102 19.28 28.7103C18.13 27.5308 17.49 25.9413 17.49 24.2319C17.49 22.5226 18.12 20.9331 19.28 19.7535C19.57 19.4536 19.56 18.9838 19.27 18.6939V18.7039Z" fill="black"/>
<path d="M25.6698 20.7734C25.3398 20.5235 24.8698 20.5835 24.6198 20.9133L22.9898 23.0326L21.3098 20.8534C21.0598 20.5235 20.5898 20.4635 20.2598 20.7134C19.9298 20.9633 19.8698 21.4332 20.1198 21.763L22.0398 24.2522L20.1898 26.6513C19.9398 26.9812 19.9998 27.451 20.3298 27.7009C20.4698 27.8109 20.6298 27.8609 20.7898 27.8609C21.0098 27.8609 21.2398 27.7609 21.3798 27.571L22.9898 25.4817L24.5598 27.511C24.7098 27.7009 24.9298 27.8009 25.1498 27.8009C25.3098 27.8009 25.4698 27.7509 25.6098 27.6409C25.9398 27.391 25.9998 26.9212 25.7498 26.5913L23.9398 24.2522L25.8198 21.823C26.0698 21.4931 26.0098 21.0233 25.6798 20.7734H25.6698Z" fill="black"/>
<path d="M11.69 21.563H13.37C13.78 21.563 14.12 21.2231 14.12 20.8133C14.12 20.4034 13.78 20.0635 13.37 20.0635H11.45C11.29 18.814 11.2 17.5045 11.2 16.1449C11.2 14.7854 11.28 13.5959 11.42 12.4463H20.56C20.7 13.6059 20.78 14.8354 20.78 16.1449C20.78 16.5548 21.12 16.8947 21.53 16.8947C21.94 16.8947 22.28 16.5548 22.28 16.1449C22.28 14.8554 22.2 13.6159 22.07 12.4463H27.93C28.29 13.6159 28.49 14.8554 28.49 16.1449C28.49 16.5548 28.83 16.8947 29.24 16.8947C29.65 16.8947 29.99 16.5548 29.99 16.1449C29.99 14.5255 29.7 12.9661 29.2 11.5066C29.18 11.4466 29.17 11.3866 29.14 11.3367C27.2 5.9086 22.05 2 16 2C9.95 2 4.8 5.9086 2.85 11.3467C2.82 11.3966 2.8 11.4566 2.79 11.5166C2.29 12.9661 2 14.5255 2 16.1549C2 22.5327 6.28 28.1507 12.4 29.8301C12.81 29.94 13.17 30 13.48 30C14.04 30 14.43 29.8201 14.65 29.4602C14.78 29.2403 15.01 28.6605 14.31 27.9107C13.13 26.6412 12.22 24.362 11.69 21.583V21.563ZM27.39 10.9468H21.86C21.35 7.96787 20.42 5.50875 19.21 3.92931C22.86 4.90896 25.85 7.52802 27.39 10.9468ZM16 3.49946C17.69 3.49946 19.52 6.38843 20.35 10.9468H11.66C12.48 6.38843 14.32 3.49946 16.01 3.49946H16ZM12.79 3.91931C11.58 5.49875 10.65 7.96787 10.14 10.9368H4.61C6.14 7.51803 9.14 4.89896 12.79 3.91931ZM3.5 16.1449C3.5 14.8554 3.7 13.6159 4.06 12.4463H9.92C9.78 13.6258 9.71 14.8654 9.71 16.1449C9.71 17.4245 9.8 18.804 9.96 20.0635H4.13C3.73 18.824 3.5 17.5045 3.5 16.1449ZM10.18 21.563C10.69 24.392 11.59 26.8011 12.75 28.3606C9.14 27.3609 6.26 24.8119 4.72 21.563H10.18Z" fill="black"/>
<path d="M26.7304 18.704C26.4304 18.9939 26.4204 19.4637 26.7104 19.7636C27.8604 20.9532 28.4904 22.5426 28.4904 24.242C28.4904 25.9414 27.8604 27.5308 26.7104 28.7204C26.4204 29.0203 26.4304 29.4901 26.7304 29.78C26.8804 29.92 27.0604 29.9899 27.2504 29.9899C27.4404 29.9899 27.6404 29.91 27.7904 29.76C29.2104 28.2905 30.0004 26.3312 30.0004 24.242C30.0004 22.1527 29.2204 20.1934 27.7904 18.724C27.5004 18.4241 27.0304 18.4141 26.7304 18.704Z" fill="black"/>
</svg>
