<svg width="32" height="32" viewBox="0 0 32 32" fill="none" xmlns="http://www.w3.org/2000/svg">
<path d="M29.25 26.5H2.75C2.34 26.5 2 26.84 2 27.25C2 27.66 2.34 28 2.75 28H29.25C29.66 28 30 27.66 30 27.25C30 26.84 29.66 26.5 29.25 26.5Z" fill="black"/>
<path d="M25.33 17.05C24.11 15.1 22.28 13.55 20.16 12.69C19.78 12.53 19.34 12.72 19.18 13.1C19.02 13.48 19.21 13.92 19.59 14.08C21.42 14.83 23.01 16.17 24.06 17.85C24.2 18.08 24.45 18.2 24.7 18.2C24.84 18.2 24.97 18.16 25.1 18.09C25.45 17.87 25.56 17.41 25.34 17.06L25.33 17.05Z" fill="black"/>
<path d="M2.75 23.62H29.25C29.66 23.62 30 23.28 30 22.87C30 15.4 24.12 9.3 16.75 8.91V5.5H18.8C19.21 5.5 19.55 5.16 19.55 4.75C19.55 4.34 19.21 4 18.8 4H13.19C12.78 4 12.44 4.34 12.44 4.75C12.44 5.16 12.78 5.5 13.19 5.5H15.24V8.91C7.88 9.3 2 15.4 2 22.87C2 23.28 2.34 23.62 2.75 23.62ZM16 10.37C22.64 10.37 28.09 15.58 28.48 22.12H3.52C3.91 15.58 9.36 10.37 16 10.37Z" fill="black"/>
</svg>
