<svg width="32" height="32" viewBox="0 0 32 32" fill="none" xmlns="http://www.w3.org/2000/svg">
<path d="M16 17.4934C16.8284 17.4934 17.5 16.8225 17.5 15.995C17.5 15.1675 16.8284 14.4966 16 14.4966C15.1716 14.4966 14.5 15.1675 14.5 15.995C14.5 16.8225 15.1716 17.4934 16 17.4934Z" fill="black"/>
<path d="M10.54 17.4934C11.3684 17.4934 12.04 16.8225 12.04 15.995C12.04 15.1675 11.3684 14.4966 10.54 14.4966C9.71157 14.4966 9.04 15.1675 9.04 15.995C9.04 16.8225 9.71157 17.4934 10.54 17.4934Z" fill="black"/>
<path d="M29.48 15.2758C27.38 14.6065 26.27 12.4788 26.27 9.11238V5.75598C26.27 4.1477 25.91 2 22.84 2H21.97C21.56 2 21.22 2.33964 21.22 2.7492C21.22 3.15876 21.56 3.49839 21.97 3.49839H22.84C24.15 3.49839 24.77 3.83803 24.77 5.75598V9.11238C24.77 13.0781 26.19 15.026 27.58 15.985C26.19 16.944 24.77 18.9019 24.77 22.8577V26.2141C24.77 28.132 24.15 28.4716 22.84 28.4716H21.97C21.56 28.4716 21.22 28.8113 21.22 29.2208C21.22 29.6304 21.56 29.97 21.97 29.97H22.84C25.92 29.97 26.27 27.8223 26.27 26.2141V22.8577C26.27 19.4913 27.38 17.3635 29.48 16.6943C29.79 16.5944 30 16.3047 30 15.975C30 15.6454 29.79 15.3557 29.48 15.2558V15.2758Z" fill="black"/>
<path d="M21.47 17.4934C22.2984 17.4934 22.97 16.8225 22.97 15.995C22.97 15.1675 22.2984 14.4966 21.47 14.4966C20.6416 14.4966 19.97 15.1675 19.97 15.995C19.97 16.8225 20.6416 17.4934 21.47 17.4934Z" fill="black"/>
<path d="M10.04 28.4816H9.17C7.86 28.4816 7.24 28.142 7.24 26.224V22.8676C7.24 18.9019 5.82 16.954 4.43 15.995C5.82 15.036 7.24 13.0781 7.24 9.12237V5.76596C7.24 3.84802 7.86 3.50838 9.17 3.50838H10.04C10.45 3.50838 10.79 3.16875 10.79 2.75919C10.79 2.34963 10.45 2.00999 10.04 2.00999H9.17C6.09 2.00999 5.74 4.15769 5.74 5.76596V9.12237C5.74 12.4888 4.63 14.6165 2.52 15.2858C2.21 15.3857 2 15.6753 2 16.005C2 16.3346 2.21 16.6243 2.52 16.7242C4.62 17.3935 5.74 19.5212 5.74 22.8876V26.244C5.74 27.8523 6.1 30 9.17 30H10.04C10.45 30 10.79 29.6604 10.79 29.2508C10.79 28.8412 10.45 28.5016 10.04 28.5016V28.4816Z" fill="black"/>
</svg>
