<svg width="32" height="32" viewBox="0 0 32 32" fill="none" xmlns="http://www.w3.org/2000/svg">
<path d="M20.4762 17.5289C19.4789 17.5343 18.5152 17.8896 17.7532 18.5329C16.9911 19.1762 16.4791 20.0667 16.3065 21.0489H14.018C13.8359 20.0013 13.2676 19.0602 12.4252 18.4113C11.5829 17.7625 10.5278 17.4532 9.46846 17.5446C8.40913 17.636 7.4226 18.1213 6.70379 18.9048C5.98498 19.6883 5.58617 20.7129 5.58617 21.7762C5.58617 22.8394 5.98498 23.864 6.70379 24.6475C7.4226 25.431 8.40913 25.9164 9.46846 26.0077C10.5278 26.0991 11.5829 25.7898 12.4252 25.141C13.2676 24.4922 13.8359 23.551 14.018 22.5034H16.3065C16.4468 23.2979 16.8109 24.0358 17.3562 24.6304C17.9014 25.225 18.605 25.6516 19.3843 25.8601C20.1637 26.0686 20.9863 26.0503 21.7556 25.8073C22.5249 25.5644 23.2088 25.1069 23.7271 24.4886C24.2453 23.8704 24.5763 23.117 24.6811 22.3171C24.786 21.5172 24.6603 20.704 24.3189 19.9731C23.9774 19.2422 23.4345 18.6239 22.7538 18.1909C22.0731 17.7579 21.2829 17.5283 20.4762 17.5289ZM9.80951 24.5107C9.26789 24.5049 8.74022 24.3383 8.2934 24.0322C7.84657 23.726 7.50073 23.2941 7.29973 22.7911C7.09874 22.2881 7.05163 21.7368 7.1644 21.207C7.27716 20.6772 7.54471 20.1929 7.93312 19.8154C8.32154 19.4379 8.81331 19.1842 9.34608 19.0866C9.87885 18.9889 10.4286 19.0517 10.9257 19.2669C11.4227 19.4822 11.8446 19.8402 12.1379 20.2955C12.4312 20.7509 12.5827 21.2831 12.5731 21.8246C12.5604 22.5415 12.2667 23.2246 11.7553 23.727C11.2438 24.2294 10.5555 24.5108 9.8386 24.5107H9.80951ZM20.4762 24.5107C19.9333 24.5106 19.4027 24.3489 18.952 24.0463C18.5013 23.7436 18.1509 23.3136 17.9455 22.8111C17.74 22.3086 17.6888 21.7563 17.7983 21.2246C17.9078 20.6929 18.1731 20.2058 18.5604 19.8253C18.9477 19.4449 19.4394 19.1884 19.973 19.0884C20.5066 18.9884 21.0579 19.0495 21.5567 19.264C22.0554 19.4784 22.4791 19.8364 22.7736 20.2924C23.0682 20.7485 23.2203 21.2818 23.2107 21.8246C23.198 22.5415 22.9043 23.2246 22.3928 23.727C21.8814 24.2294 21.1931 24.5108 20.4762 24.5107Z" fill="black"/>
<path d="M2.75977 16.0065H28.4567C28.552 16.018 28.6487 16.0091 28.7403 15.9804C28.8319 15.9518 28.9164 15.9041 28.9882 15.8404C29.06 15.7767 29.1174 15.6985 29.1568 15.611C29.1962 15.5234 29.2165 15.4285 29.2165 15.3326C29.2165 15.2366 29.1962 15.1417 29.1568 15.0542C29.1174 14.9666 29.06 14.8885 28.9882 14.8248C28.9164 14.7611 28.8319 14.7133 28.7403 14.6847C28.6487 14.6561 28.552 14.6472 28.4567 14.6586H25.2567L23.3174 7.55075C23.2186 7.19188 23.0441 6.85832 22.8058 6.57245C22.5674 6.28659 22.2706 6.05505 21.9354 5.89338C21.6001 5.73172 21.2341 5.64368 20.862 5.63518C20.4899 5.62667 20.1203 5.6979 19.778 5.84408L16.2192 7.32772C16.0445 7.40201 15.8554 7.43622 15.6658 7.42783C15.4762 7.41944 15.2908 7.36866 15.1234 7.27923L11.7295 5.33984C11.3811 5.14077 10.9911 5.02572 10.5904 5.00384C10.1898 4.98196 9.78958 5.05384 9.42159 5.21378C9.04695 5.36866 8.71445 5.6103 8.45145 5.91882C8.18846 6.22733 8.00249 6.59389 7.90886 6.98832L5.96947 14.6586H2.75977C2.66448 14.6472 2.56785 14.6561 2.47625 14.6847C2.38464 14.7133 2.30015 14.7611 2.22835 14.8248C2.15655 14.8885 2.09908 14.9666 2.05972 15.0542C2.02035 15.1417 2 15.2366 2 15.3326C2 15.4285 2.02035 15.5234 2.05972 15.611C2.09908 15.6985 2.15655 15.7767 2.22835 15.8404C2.30015 15.9041 2.38464 15.9518 2.47625 15.9804C2.56785 16.0091 2.66448 16.018 2.75977 16.0065ZM9.21796 7.32772C9.26372 7.13839 9.3534 6.96249 9.47975 6.81425C9.60609 6.66601 9.76555 6.54958 9.94523 6.47438C10.1231 6.39777 10.3162 6.36317 10.5096 6.37326C10.703 6.38335 10.8915 6.43786 11.0604 6.53257L14.4543 8.47196C14.8017 8.66377 15.1879 8.77473 15.5842 8.79655C15.9804 8.81838 16.3764 8.75052 16.7428 8.59802L20.2628 7.08529C20.428 7.01321 20.6062 6.976 20.7864 6.976C20.9666 6.976 21.1449 7.01321 21.3101 7.08529C21.4703 7.16323 21.612 7.27449 21.7257 7.41162C21.8394 7.54876 21.9225 7.70859 21.9695 7.88044L23.8507 14.6683H7.36583L9.21796 7.32772Z" fill="black"/>
</svg>
