<svg width="32" height="32" viewBox="0 0 32 32" fill="none" xmlns="http://www.w3.org/2000/svg">
<path d="M25.25 13H25.07C24.66 13 24.32 13.34 24.32 13.75C24.32 14.16 24.66 14.5 25.07 14.5H25.25C27.04 14.5 28.5 15.96 28.5 17.75V25.25C28.5 27.04 27.04 28.5 25.25 28.5H6.75C4.96 28.5 3.5 27.04 3.5 25.25V17.75C3.5 15.96 4.96 14.5 6.75 14.5H6.92C7.33 14.5 7.67 14.16 7.67 13.75C7.67 13.34 7.33 13 6.92 13H6.75C4.13 13 2 15.13 2 17.75V25.25C2 27.87 4.13 30 6.75 30H25.25C27.87 30 30 27.87 30 25.25V17.75C30 15.13 27.87 13 25.25 13Z" fill="black"/>
<path d="M7.54 7.78L10.76 4.56V24.22C10.76 24.63 11.1 24.97 11.51 24.97C11.92 24.97 12.26 24.63 12.26 24.22V4.56L15.48 7.78C15.63 7.93 15.82 8 16.01 8C16.2 8 16.39 7.93 16.54 7.78C16.83 7.49 16.83 7.01 16.54 6.72L12.04 2.22C11.75 1.93 11.27 1.93 10.98 2.22L6.48 6.72C6.19 7.01 6.19 7.49 6.48 7.78C6.77 8.07 7.25 8.07 7.54 7.78Z" fill="black"/>
<path d="M15.45 19.19C15.16 19.48 15.16 19.96 15.45 20.25L19.95 24.75C20.1 24.9 20.29 24.97 20.48 24.97C20.67 24.97 20.86 24.9 21.01 24.75L25.51 20.25C25.8 19.96 25.8 19.48 25.51 19.19C25.22 18.9 24.74 18.9 24.45 19.19L21.23 22.41V2.75C21.23 2.34 20.89 2 20.48 2C20.07 2 19.73 2.34 19.73 2.75V22.41L16.51 19.19C16.22 18.9 15.74 18.9 15.45 19.19Z" fill="black"/>
</svg>
