<svg width="32" height="32" viewBox="0 0 32 32" fill="none" xmlns="http://www.w3.org/2000/svg">
<path d="M25.25 13H21.07C20.66 13 20.32 13.34 20.32 13.75C20.32 14.16 20.66 14.5 21.07 14.5H25.25C27.04 14.5 28.5 15.96 28.5 17.75V25.25C28.5 27.04 27.04 28.5 25.25 28.5H6.75C4.96 28.5 3.5 27.04 3.5 25.25V17.75C3.5 15.96 4.96 14.5 6.75 14.5H10.92C11.33 14.5 11.67 14.16 11.67 13.75C11.67 13.34 11.33 13 10.92 13H6.75C4.13 13 2 15.13 2 17.75V25.25C2 27.87 4.13 30 6.75 30H25.25C27.87 30 30 27.87 30 25.25V17.75C30 15.13 27.87 13 25.25 13Z" fill="black"/>
<path d="M9.6 17.82C9.31 18.11 9.31 18.59 9.6 18.88L15.47 24.75C15.62 24.9 15.81 24.97 16 24.97C16.19 24.97 16.38 24.9 16.53 24.75L22.4 18.88C22.69 18.59 22.69 18.11 22.4 17.82C22.11 17.53 21.63 17.53 21.34 17.82L16.75 22.41V2.75C16.75 2.34 16.41 2 16 2C15.59 2 15.25 2.34 15.25 2.75V22.41L10.66 17.82C10.37 17.53 9.89 17.53 9.6 17.82Z" fill="black"/>
</svg>
