<svg width="32" height="32" viewBox="0 0 32 32" fill="none" xmlns="http://www.w3.org/2000/svg">
<path d="M29.88 17.7194C29.81 17.3788 29.67 17.0481 29.49 16.7475C29.3 16.4369 29.04 16.1663 28.71 15.9158C28.39 15.6653 28 15.4649 27.52 15.3146C27.92 15.1443 28.26 14.9439 28.54 14.6934C28.83 14.4429 29.06 14.1723 29.25 13.8818C29.43 13.6012 29.57 13.3106 29.65 13.01C29.73 12.7094 29.78 12.4188 29.78 12.1383C29.78 11.4669 29.67 10.8657 29.46 10.3547C29.25 9.84369 28.94 9.40281 28.55 9.06212C28.16 8.71142 27.69 8.4509 27.15 8.28056C26.61 8.1002 26 8.01002 25.34 8.01002C24.68 8.01002 24.04 8.12024 23.48 8.33066C22.93 8.54108 22.45 8.82164 22.06 9.18236C21.66 9.55311 21.35 9.98397 21.13 10.475C20.91 10.9659 20.81 11.487 20.81 12.0381H22.69C22.69 11.6573 22.75 11.3066 22.88 11.006C23.01 10.6954 23.19 10.4349 23.42 10.2144C23.65 9.99399 23.92 9.82365 24.25 9.71343C24.58 9.59319 24.94 9.53307 25.34 9.53307C25.74 9.53307 26.11 9.58317 26.43 9.69339C26.75 9.79359 27.02 9.94389 27.24 10.1543C27.46 10.3647 27.63 10.6353 27.74 10.9659C27.85 11.2866 27.91 11.6673 27.91 12.0982C27.91 12.4689 27.85 12.8096 27.72 13.1102C27.59 13.4208 27.41 13.6814 27.17 13.9018C26.92 14.1222 26.62 14.2926 26.25 14.4228C25.89 14.5531 25.48 14.6132 25.01 14.6132H23.68V16.1162H25.01C25.47 16.1162 25.9 16.1663 26.28 16.2766C26.67 16.3868 27 16.5471 27.28 16.7675C27.55 16.988 27.76 17.2685 27.91 17.5992C28.06 17.9299 28.14 18.3206 28.14 18.7715C28.14 19.2224 28.07 19.6333 27.94 19.9739C27.81 20.3046 27.63 20.5852 27.39 20.8156C27.15 21.0461 26.86 21.2164 26.51 21.3267C26.17 21.4369 25.78 21.487 25.36 21.487C24.94 21.487 24.55 21.4269 24.2 21.3066C23.86 21.1864 23.56 21.016 23.32 20.7956C23.08 20.5752 22.89 20.3046 22.75 19.994C22.62 19.6834 22.56 19.3327 22.56 18.9519H20.69C20.69 19.5932 20.81 20.1643 21.05 20.6653C21.3 21.1663 21.63 21.5972 22.05 21.9379C22.47 22.2886 22.96 22.5491 23.52 22.7295C24.09 22.9098 24.7 23 25.35 23C26 23 26.62 22.9098 27.19 22.7194C27.76 22.5291 28.26 22.2485 28.67 21.8778C29.09 21.517 29.41 21.0661 29.65 20.5451C29.89 20.014 30 19.4128 30 18.7315C30 18.4008 29.96 18.0601 29.88 17.7194Z" fill="black"/>
<path d="M15.42 17.0281C15.79 16.6273 16.14 16.2265 16.47 15.8257C16.81 15.4148 17.1 15.004 17.36 14.5932C17.61 14.1824 17.81 13.7615 17.96 13.3407C18.11 12.9098 18.18 12.479 18.18 12.0481C18.18 11.4669 18.08 10.9259 17.87 10.4349C17.67 9.94389 17.38 9.51303 16.99 9.1523C16.61 8.79158 16.14 8.51102 15.58 8.31062C15.03 8.1002 14.41 8 13.71 8C12.96 8 12.28 8.12024 11.69 8.36072C11.1 8.6012 10.61 8.92184 10.21 9.33267C9.8 9.74349 9.49 10.2244 9.27 10.7655C9.05 11.3066 8.95 11.8878 8.95 12.499H10.83C10.83 12.0481 10.89 11.6273 11 11.2665C11.12 10.8958 11.3 10.5852 11.54 10.3246C11.78 10.0741 12.07 9.87375 12.43 9.73347C12.79 9.59319 13.22 9.52305 13.71 9.52305C14.11 9.52305 14.47 9.59319 14.79 9.73347C15.11 9.86373 15.39 10.0541 15.62 10.2846C15.84 10.515 16.01 10.7956 16.12 11.1162C16.24 11.4269 16.3 11.7675 16.3 12.1283C16.3 12.4188 16.26 12.7094 16.19 12.99C16.12 13.2605 15.99 13.5511 15.82 13.8617C15.65 14.1723 15.41 14.523 15.12 14.8838C14.83 15.2545 14.47 15.6754 14.04 16.1463L9.23 21.4669V22.7996H18.86V21.2866H11.48L15.43 17.0281H15.42Z" fill="black"/>
<path d="M2 9.82365V11.5271L4.58 10.5451V22.8096H6.46V8.18036H6.3L2 9.82365Z" fill="black"/>
</svg>
