<svg width="32" height="32" viewBox="0 0 32 32" fill="none" xmlns="http://www.w3.org/2000/svg">
<path d="M22.94 17.31C23.1991 17.31 23.4524 17.2332 23.6678 17.0892C23.8832 16.9453 24.0511 16.7407 24.1503 16.5013C24.2494 16.2619 24.2754 15.9985 24.2248 15.7444C24.1743 15.4903 24.0495 15.2569 23.8663 15.0737C23.6831 14.8905 23.4497 14.7657 23.1956 14.7152C22.9415 14.6646 22.6781 14.6906 22.4387 14.7897C22.1993 14.8889 21.9947 15.0568 21.8508 15.2722C21.7068 15.4876 21.63 15.7409 21.63 16C21.63 16.172 21.6639 16.3424 21.7297 16.5013C21.7956 16.6603 21.892 16.8047 22.0137 16.9263C22.1353 17.048 22.2797 17.1444 22.4387 17.2103C22.5976 17.2761 22.768 17.31 22.94 17.31Z" fill="black"/>
<path d="M29.82 15.51L22.82 7.26C22.7485 7.17913 22.6608 7.1142 22.5626 7.06941C22.4644 7.02462 22.3579 7.00097 22.25 7H2.75C2.55189 7.00259 2.36263 7.08244 2.22253 7.22253C2.08244 7.36263 2.00259 7.55189 2 7.75V24.25C2.00259 24.4481 2.08244 24.6374 2.22253 24.7775C2.36263 24.9176 2.55189 24.9974 2.75 25H22.25C22.3579 24.999 22.4644 24.9754 22.5626 24.9306C22.6608 24.8858 22.7485 24.8209 22.82 24.74L29.82 16.49C29.9356 16.3529 29.9991 16.1793 29.9991 16C29.9991 15.8207 29.9356 15.6471 29.82 15.51ZM21.9 23.51H3.5V8.5H21.9L28.27 16L21.9 23.51Z" fill="black"/>
</svg>
