<svg width="32" height="32" viewBox="0 0 32 32" fill="none" xmlns="http://www.w3.org/2000/svg">
<path d="M29.82 15.51L22.82 7.26C22.68 7.09 22.47 7 22.25 7H2.75C2.34 7 2 7.34 2 7.75V11.53C2 11.94 2.34 12.28 2.75 12.28C3.16 12.28 3.5 11.94 3.5 11.53V8.5H21.9L28.26 16L21.9 23.5H3.5V20.48C3.5 20.07 3.16 19.73 2.75 19.73C2.34 19.73 2 20.07 2 20.48V24.25C2 24.66 2.34 25 2.75 25H22.25C22.47 25 22.68 24.9 22.82 24.74L29.82 16.49C30.06 16.21 30.06 15.8 29.82 15.52V15.51Z" fill="black"/>
<path d="M2 16C2 16.41 2.34 16.75 2.75 16.75H14.46L11.4 19.81C11.11 20.1 11.11 20.58 11.4 20.87C11.55 21.02 11.74 21.09 11.93 21.09C12.12 21.09 12.31 21.02 12.46 20.87L16.8 16.53C17.09 16.24 17.09 15.76 16.8 15.47L12.46 11.13C12.17 10.84 11.69 10.84 11.4 11.13C11.11 11.42 11.11 11.9 11.4 12.19L14.46 15.25H2.75C2.34 15.25 2 15.59 2 16Z" fill="black"/>
<path d="M22.94 17.31C23.66 17.31 24.25 16.72 24.25 16C24.25 15.28 23.66 14.69 22.94 14.69C22.22 14.69 21.63 15.28 21.63 16C21.63 16.72 22.22 17.31 22.94 17.31Z" fill="black"/>
</svg>
