<svg width="32" height="32" viewBox="0 0 32 32" fill="none" xmlns="http://www.w3.org/2000/svg">
<path d="M10.3149 6.33161C10.3175 6.1283 10.3995 5.93406 10.5433 5.79028C10.687 5.64651 10.8813 5.56456 11.0846 5.5619H29.1984C29.4026 5.5619 29.5984 5.643 29.7427 5.78734C29.8871 5.93169 29.9682 6.12747 29.9682 6.33161C29.9682 6.53575 29.8871 6.73153 29.7427 6.87588C29.5984 7.02023 29.4026 7.10132 29.1984 7.10132H11.0846C10.8813 7.09866 10.687 7.01672 10.5433 6.87294C10.3995 6.72916 10.3175 6.53492 10.3149 6.33161ZM11.0846 16.7278H23.6668C23.8709 16.7278 24.0667 16.6467 24.2111 16.5024C24.3554 16.358 24.4365 16.1623 24.4365 15.9581C24.4365 15.754 24.3554 15.5582 24.2111 15.4139C24.0667 15.2695 23.8709 15.1884 23.6668 15.1884H11.0846C10.8805 15.1884 10.6847 15.2695 10.5403 15.4139C10.396 15.5582 10.3149 15.754 10.3149 15.9581C10.3149 16.1623 10.396 16.358 10.5403 16.5024C10.6847 16.6467 10.8805 16.7278 11.0846 16.7278ZM15.4566 24.8047H11.0846C10.8805 24.8047 10.6847 24.8857 10.5403 25.0301C10.396 25.1744 10.3149 25.3702 10.3149 25.5744C10.3149 25.7785 10.396 25.9743 10.5403 26.1186C10.6847 26.263 10.8805 26.3441 11.0846 26.3441H15.4566C15.6607 26.3441 15.8565 26.263 16.0008 26.1186C16.1452 25.9743 16.2263 25.7785 16.2263 25.5744C16.2263 25.3702 16.1452 25.1744 16.0008 25.0301C15.8565 24.8857 15.6607 24.8047 15.4566 24.8047ZM29.7116 16.9023C29.5473 16.7824 29.3428 16.7315 29.1415 16.7602C28.9402 16.789 28.7581 16.8952 28.634 17.0562L22.425 25.3588L19.1101 22.044C18.9642 21.908 18.7712 21.834 18.5718 21.8375C18.3724 21.841 18.1821 21.9218 18.0411 22.0628C17.9001 22.2038 17.8193 22.3941 17.8158 22.5935C17.8123 22.7929 17.8863 22.9859 18.0223 23.1318L21.9632 27.0727C22.0342 27.1447 22.119 27.2017 22.2124 27.2405C22.3058 27.2793 22.406 27.299 22.5071 27.2985H22.5276C22.6387 27.2923 22.7469 27.2615 22.8446 27.2082C22.9422 27.1549 23.0267 27.0806 23.0921 26.9906L29.8347 17.9799C29.9606 17.8204 30.0183 17.6176 29.9952 17.4157C29.9721 17.2139 29.8702 17.0293 29.7116 16.9023ZM5.27585 25.4512C5.55647 25.3118 5.79409 25.099 5.96346 24.8354C6.13429 24.5769 6.22366 24.273 6.22003 23.9631C6.23379 23.6981 6.19154 23.4332 6.09605 23.1856C6.00057 22.9381 5.85398 22.7134 5.66584 22.5263C5.23972 22.1513 4.68284 21.9595 4.11616 21.9926C3.75903 21.9893 3.40657 22.0739 3.08988 22.239C2.78776 22.3904 2.53238 22.6209 2.35096 22.906C2.17669 23.201 2.08786 23.5385 2.09439 23.881H3.32592C3.33861 23.6977 3.4191 23.5258 3.5517 23.3987C3.71561 23.2539 3.92838 23.1769 4.14695 23.1831C4.26026 23.1784 4.37334 23.1969 4.47924 23.2375C4.58513 23.2781 4.68161 23.3399 4.76271 23.4192C4.84202 23.5061 4.9029 23.6083 4.94171 23.7194C4.98051 23.8305 4.99642 23.9483 4.9885 24.0657C5.00177 24.3182 4.92137 24.5667 4.76271 24.7636C4.67206 24.8546 4.56265 24.9247 4.44212 24.969C4.32158 25.0133 4.19283 25.0308 4.06484 25.0202H3.40802V26.0465H4.05458C4.19415 26.0257 4.33665 26.0379 4.47064 26.0821C4.60464 26.1263 4.72641 26.2013 4.82619 26.3011C4.92597 26.4009 5.00098 26.5227 5.0452 26.6567C5.08943 26.7907 5.10164 26.9332 5.08086 27.0727C5.09317 27.3255 5.00458 27.5729 4.83455 27.7603C4.74428 27.8489 4.63643 27.9174 4.51799 27.9616C4.39954 28.0058 4.27313 28.0247 4.14695 28.0169C4.02828 28.0204 3.91009 28.0004 3.79915 27.9581C3.6882 27.9159 3.58668 27.8521 3.50039 27.7706C3.41295 27.6898 3.34387 27.5912 3.29784 27.4814C3.2518 27.3717 3.22988 27.2533 3.23356 27.1343H2.00202C1.99 27.4043 2.03704 27.6736 2.13985 27.9236C2.24265 28.1735 2.39876 28.398 2.59726 28.5814C3.01404 28.9525 3.55853 29.1475 4.11616 29.1253C4.707 29.1431 5.28145 28.9295 5.71715 28.5301C6.03428 28.2221 6.24354 27.8201 6.3138 27.3837C6.38407 26.9473 6.31159 26.4999 6.10714 26.108C5.91081 25.8027 5.61829 25.5716 5.27585 25.4512ZM3.9109 9.79017H5.1527V2.87305H5.01928L2.44332 3.89933V5.00771L3.9109 4.50483V9.79017ZM5.1527 16.697C5.4785 16.32 5.75444 15.9027 5.97372 15.4552C6.12672 15.1346 6.20731 14.7842 6.20977 14.429C6.22574 14.164 6.18656 13.8985 6.0947 13.6495C6.00284 13.4004 5.86031 13.1731 5.6761 12.9819C5.47403 12.8027 5.23856 12.6651 4.9832 12.577C4.72783 12.489 4.4576 12.4522 4.188 12.4688C3.78301 12.4497 3.38091 12.5457 3.0283 12.7459C2.70025 12.9425 2.43366 13.2268 2.25859 13.5669C2.07939 13.9229 1.99124 14.3179 2.00202 14.7163H3.26435C3.25166 14.4163 3.33823 14.1206 3.51065 13.8748C3.5865 13.7728 3.6858 13.6907 3.80014 13.6353C3.91447 13.5799 4.04048 13.5529 4.16747 13.5566C4.28071 13.551 4.39367 13.5722 4.49712 13.6186C4.60058 13.665 4.69159 13.7352 4.76271 13.8235C4.91744 14.0298 4.99383 14.2844 4.97823 14.5419C4.96861 14.7943 4.8982 15.0408 4.77298 15.2602C4.59758 15.5685 4.39494 15.8605 4.16747 16.1326L2.11491 18.5136V19.4577H6.41503V18.3494H3.73643L5.1527 16.697Z" fill="black"/>
</svg>
