<svg width="32" height="32" viewBox="0 0 32 32" fill="none" xmlns="http://www.w3.org/2000/svg">
<path d="M25.905 6.10603C23.6161 3.81456 20.6034 2.38759 17.3804 2.06824C14.1573 1.74889 10.9233 2.55693 8.22916 4.35468C5.53507 6.15243 3.54763 8.82866 2.60545 11.9274C1.66328 15.0262 1.82466 18.3558 3.0621 21.3489C4.29954 24.342 6.53648 26.8135 9.39181 28.3423C12.2471 29.8711 15.5442 30.3625 18.7213 29.733C21.8983 29.1034 24.7588 27.3918 26.8154 24.8897C28.872 22.3876 29.9974 19.2499 30 16.011C30.0014 14.172 29.6405 12.3507 28.9379 10.6511C28.2353 8.9516 27.2047 7.40716 25.905 6.10603ZM23 22.171C22.9955 22.4342 22.889 22.6853 22.7029 22.8714C22.5168 23.0575 22.2656 23.164 22.0025 23.1685H9.9275C9.67674 23.1469 9.44298 23.0328 9.27158 22.8485C9.10019 22.6641 9.0034 22.4227 9 22.171V14.261C8.99908 14.1276 9.02494 13.9954 9.07604 13.8721C9.12714 13.7489 9.20245 13.6372 9.2975 13.5435C9.48623 13.3638 9.73687 13.2635 9.9975 13.2635H11.7475V10.761C11.7475 9.60071 12.2084 8.48791 13.0289 7.66744C13.8494 6.84697 14.9622 6.38603 16.1225 6.38603C17.2828 6.38603 18.3956 6.84697 19.2161 7.66744C20.0366 8.48791 20.4975 9.60071 20.4975 10.761V13.176H22.2475C22.5081 13.176 22.7588 13.2763 22.9475 13.456C23.0118 13.5792 23.0497 13.7144 23.0588 13.853C23.0678 13.9916 23.0478 14.1306 23 14.261V22.171Z" fill="black"/>
<path d="M16 8.43353C15.6764 8.42792 15.3549 8.48695 15.0544 8.60714C14.7539 8.72734 14.4805 8.9063 14.25 9.13353C14.0235 9.36367 13.8461 9.6375 13.7288 9.93835C13.6115 10.2392 13.5566 10.5608 13.5675 10.8835V13.176H18.2925V10.761C18.3034 10.4383 18.2485 10.1167 18.1312 9.81585C18.0139 9.515 17.8365 9.24117 17.61 9.01103C17.1609 8.62997 16.5889 8.42478 16 8.43353Z" fill="black"/>
</svg>
