<svg width="32" height="32" viewBox="0 0 32 32" fill="none" xmlns="http://www.w3.org/2000/svg">
<path d="M15.5418 2C11.2915 2 7.36045 3.91 4.71648 7.16V3.56C4.71648 3.15 4.37725 2.81 3.96818 2.81C3.55911 2.81 3.21989 3.15 3.21989 3.56V9.27C3.21989 9.68 3.55911 10.02 3.96818 10.02H9.65522C10.0643 10.02 10.4035 9.68 10.4035 9.27C10.4035 8.86 10.0643 8.52 9.65522 8.52H5.57452C7.92916 5.37 11.5808 3.5 15.5418 3.5C22.4161 3.5 28.0134 9.11 28.0134 16C28.0134 22.89 22.4161 28.5 15.5418 28.5C9.87472 28.5 4.91602 24.67 3.4793 19.18C3.36955 18.78 2.96048 18.54 2.56139 18.64C2.1623 18.75 1.92284 19.16 2.02262 19.56C3.62896 25.71 9.18629 30 15.5318 30C23.2343 30 29.5 23.72 29.5 16C29.5 8.28 23.2443 2 15.5418 2Z" fill="black"/>
<path d="M19.4928 16C19.4928 13.93 17.8166 12.25 15.7513 12.25C13.686 12.25 12.0099 13.93 12.0099 16C12.0099 18.07 13.686 19.75 15.7513 19.75C17.8166 19.75 19.4928 18.07 19.4928 16ZM13.5064 16C13.5064 14.76 14.5141 13.75 15.7513 13.75C16.9885 13.75 17.9962 14.76 17.9962 16C17.9962 17.24 16.9885 18.25 15.7513 18.25C14.5141 18.25 13.5064 17.24 13.5064 16Z" fill="black"/>
</svg>
