<svg width="32" height="32" viewBox="0 0 32 32" fill="none" xmlns="http://www.w3.org/2000/svg">
<path d="M15.5418 2C11.2915 2 7.36045 3.91 4.71648 7.16V3.56C4.71648 3.15 4.37725 2.81 3.96818 2.81C3.55911 2.81 3.21989 3.15 3.21989 3.56V9.27C3.21989 9.68 3.55911 10.02 3.96818 10.02H9.6652C10.0743 10.02 10.4135 9.68 10.4135 9.27C10.4135 8.86 10.0743 8.52 9.6652 8.52H5.57452C7.92916 5.37 11.5808 3.5 15.5418 3.5C22.4161 3.5 28.0134 9.11 28.0134 16C28.0134 22.89 22.4161 28.5 15.5418 28.5C9.87472 28.5 4.91602 24.67 3.4793 19.18C3.37952 18.78 2.96048 18.54 2.56139 18.64C2.1623 18.75 1.92284 19.16 2.02262 19.56C3.62896 25.71 9.18629 30 15.5318 30C23.2343 30 29.5 23.72 29.5 16C29.5 8.28 23.2443 2 15.5418 2Z" fill="black"/>
<path d="M18.8343 16.29C17.8665 16.56 17.0683 17.19 16.5794 18.06C16.0906 18.93 15.9609 19.94 16.2302 20.91C16.4996 21.88 17.1282 22.68 17.9962 23.17C18.5749 23.5 19.2035 23.66 19.832 23.66C21.1391 23.66 22.4062 22.98 23.0946 21.76C23.5835 20.89 23.7132 19.88 23.4438 18.91C23.1744 17.94 22.5458 17.14 21.6778 16.65C20.8098 16.16 19.8021 16.03 18.8343 16.3V16.29ZM20.9395 17.94C21.4583 18.24 21.8375 18.72 21.9971 19.3C22.1567 19.88 22.0869 20.49 21.7876 21.01C21.179 22.09 19.8021 22.47 18.7246 21.86C18.2057 21.56 17.8266 21.08 17.667 20.5C17.5073 19.92 17.5772 19.31 17.8765 18.79C18.1758 18.27 18.6547 17.89 19.2334 17.73C19.4329 17.67 19.6325 17.65 19.832 17.65C20.2112 17.65 20.5903 17.75 20.9295 17.94H20.9395Z" fill="black"/>
<path d="M18.8742 7.71C18.0062 7.22 16.9985 7.09 16.0307 7.36C15.0729 7.63 14.2647 8.26 13.7758 9.13C13.2869 10 13.1572 11.01 13.4266 11.98C13.696 12.95 14.3246 13.75 15.1926 14.24C15.7613 14.56 16.3899 14.73 17.0284 14.73C17.3676 14.73 17.7069 14.68 18.0361 14.59C19.0039 14.32 19.8021 13.69 20.291 12.82C20.7799 11.95 20.9096 10.94 20.6402 9.97C20.3708 9.01 19.7422 8.2 18.8742 7.71ZM18.984 12.08C18.6846 12.6 18.2057 12.98 17.6271 13.14C17.0484 13.3 16.4398 13.23 15.9209 12.93C15.4021 12.63 15.023 12.15 14.8634 11.57C14.7037 10.99 14.7736 10.38 15.0729 9.86C15.3722 9.34 15.8511 8.96 16.4298 8.8C16.6293 8.74 16.8289 8.72 17.0284 8.72C17.4076 8.72 17.7867 8.82 18.1259 9.01C18.6447 9.31 19.0239 9.79 19.1835 10.37C19.3431 10.95 19.2733 11.56 18.974 12.08H18.984Z" fill="black"/>
<path d="M12.5387 14.35C10.7427 13.33 8.45795 13.97 7.44027 15.77C6.42259 17.57 7.06113 19.86 8.85704 20.88C9.43572 21.21 10.0643 21.37 10.6929 21.37C11.9999 21.37 13.267 20.68 13.9554 19.47C14.9731 17.67 14.3346 15.38 12.5387 14.36V14.35ZM12.6484 18.72C12.0398 19.8 10.6629 20.18 9.58538 19.57C8.50784 18.96 8.1287 17.58 8.73731 16.5C9.34593 15.42 10.7228 15.04 11.8003 15.65C12.8779 16.26 13.257 17.64 12.6484 18.72Z" fill="black"/>
</svg>
