<svg width="32" height="32" viewBox="0 0 32 32" fill="none" xmlns="http://www.w3.org/2000/svg">
<path d="M9 18.1227H15.38C15.5789 18.1227 15.7697 18.0438 15.9103 17.9033C16.051 17.7628 16.13 17.5722 16.13 17.3735C16.13 17.1748 16.051 16.9843 15.9103 16.8438C15.7697 16.7033 15.5789 16.6243 15.38 16.6243H9C8.80109 16.6243 8.61032 16.7033 8.46967 16.8438C8.32902 16.9843 8.25 17.1748 8.25 17.3735C8.25 17.5722 8.32902 17.7628 8.46967 17.9033C8.61032 18.0438 8.80109 18.1227 9 18.1227Z" fill="black"/>
<path d="M29.25 15.2358C29.0519 15.2384 28.8626 15.3182 28.7225 15.4581C28.5824 15.5981 28.5026 15.7871 28.5 15.985V18.7221C28.5 18.987 28.3946 19.2411 28.2071 19.4284C28.0196 19.6158 27.7652 19.721 27.5 19.721H26.78V17.7731C26.78 17.5744 26.701 17.3838 26.5603 17.2433C26.4197 17.1028 26.2289 17.0239 26.03 17.0239C25.8311 17.0239 25.6403 17.1028 25.4997 17.2433C25.359 17.3838 25.28 17.5744 25.28 17.7731V21.9786C25.28 22.2435 25.1746 22.4976 24.9871 22.6849C24.7996 22.8723 24.5452 22.9775 24.28 22.9775H14.28C14.0812 22.9777 13.8905 23.0567 13.75 23.1973L9.53 27.4128V23.7067C9.52233 23.5123 9.44024 23.3283 9.30068 23.1926C9.16112 23.0569 8.97474 22.9799 8.78 22.9775H4.51C4.24478 22.9775 3.99043 22.8723 3.80289 22.6849C3.61536 22.4976 3.51 22.2435 3.51 21.9786V7.73386C3.51 7.46893 3.61536 7.21484 3.80289 7.02751C3.99043 6.84017 4.24478 6.73493 4.51 6.73493H14.18C14.3789 6.73493 14.5697 6.656 14.7103 6.51549C14.851 6.37499 14.93 6.18443 14.93 5.98573C14.93 5.78703 14.851 5.59647 14.7103 5.45597C14.5697 5.31547 14.3789 5.23653 14.18 5.23653H6.74V4.49733C6.74 4.23239 6.84536 3.97831 7.03289 3.79098C7.22043 3.60364 7.47478 3.4984 7.74 3.4984H16.5C16.6989 3.4984 16.8897 3.41946 17.0303 3.27896C17.171 3.13846 17.25 2.9479 17.25 2.7492C17.25 2.5505 17.171 2.35994 17.0303 2.21944C16.8897 2.07894 16.6989 2 16.5 2H7.75C7.08604 2 6.44912 2.26279 5.97869 2.73084C5.50826 3.1989 5.24265 3.83408 5.24 4.49733V5.22655H4.51C3.84512 5.22918 3.20822 5.49418 2.73807 5.96383C2.26792 6.43347 2.00263 7.06969 2 7.73386V21.9786C2.00263 22.6428 2.26792 23.279 2.73807 23.7486C3.20822 24.2183 3.84512 24.4833 4.51 24.4859H8V29.2508C7.999 29.3984 8.04228 29.543 8.12427 29.6658C8.20625 29.7887 8.32319 29.8842 8.46 29.9401C8.55147 29.9799 8.65022 30.0003 8.75 30C8.94841 29.9977 9.13828 29.919 9.28 29.7802L14.57 24.4959H24.21C24.5443 24.5012 24.8763 24.44 25.1867 24.3159C25.497 24.1917 25.7796 24.0072 26.0178 23.7729C26.2561 23.5386 26.4453 23.2593 26.5744 22.9512C26.7036 22.6432 26.77 22.3126 26.77 21.9786V21.2494H27.49C27.8213 21.2494 28.1493 21.1839 28.4552 21.0566C28.761 20.9294 29.0386 20.7429 29.2719 20.5079C29.5053 20.273 29.6898 19.9942 29.8147 19.6877C29.9397 19.3812 30.0026 19.053 30 18.7221V15.985C29.9974 15.7871 29.9176 15.5981 29.7775 15.4581C29.6374 15.3182 29.4481 15.2384 29.25 15.2358Z" fill="black"/>
<path d="M23.25 15.4856C24.585 15.4856 25.8901 15.0901 27.0001 14.3492C28.1101 13.6083 28.9753 12.5552 29.4862 11.3231C29.9971 10.091 30.1308 8.7353 29.8703 7.42733C29.6098 6.11936 28.967 4.91791 28.023 3.97492C27.079 3.03192 25.8762 2.38973 24.5669 2.12956C23.2575 1.86939 21.9003 2.00292 20.6669 2.51327C19.4335 3.02361 18.3793 3.88785 17.6376 4.99669C16.8959 6.10554 16.5 7.40918 16.5 8.74278C16.5 10.5311 17.2112 12.2461 18.477 13.5106C19.7429 14.7752 21.4598 15.4856 23.25 15.4856ZM22 5.58616L22.4 5.1766C22.6851 4.86086 23.0315 4.60633 23.4181 4.42846C23.8047 4.25059 24.2235 4.1531 24.649 4.14192C25.0746 4.13074 25.4979 4.20609 25.8933 4.36341C26.2888 4.52072 26.6481 4.75671 26.9494 5.05704C27.2508 5.35736 27.4878 5.71575 27.6462 6.11042C27.8046 6.5051 27.8809 6.92782 27.8707 7.3529C27.8605 7.77798 27.7638 8.19654 27.5866 8.58315C27.4095 8.96976 27.1554 9.31635 26.84 9.60186L26.41 9.99144C26.3538 10.052 26.2858 10.1002 26.21 10.1333C26.1343 10.1663 26.0526 10.1833 25.97 10.1833C25.8874 10.1833 25.8057 10.1663 25.73 10.1333C25.6542 10.1002 25.5862 10.052 25.53 9.99144C25.4707 9.93457 25.4235 9.86633 25.3913 9.7908C25.3591 9.71527 25.3425 9.63401 25.3425 9.55191C25.3425 9.46981 25.3591 9.38855 25.3913 9.31302C25.4235 9.23749 25.4707 9.16925 25.53 9.11238L25.94 8.70282C26.2904 8.34488 26.4876 7.86485 26.49 7.36425C26.4875 6.99271 26.3753 6.63017 26.1674 6.32204C25.9596 6.01391 25.6653 5.77389 25.3216 5.63205C24.9778 5.4902 24.5998 5.45284 24.2348 5.52464C23.8699 5.59644 23.5343 5.77421 23.27 6.03568L22.86 6.44524C22.7407 6.52488 22.5975 6.56074 22.4547 6.54671C22.312 6.53268 22.1785 6.46962 22.077 6.36829C21.9756 6.26695 21.9125 6.13361 21.8984 5.99099C21.8844 5.84837 21.9203 5.7053 22 5.58616ZM21.87 9.25223L23.78 7.34428C23.8998 7.23524 24.057 7.17649 24.219 7.18024C24.381 7.18398 24.5353 7.24994 24.6499 7.36439C24.7644 7.47885 24.8305 7.63301 24.8342 7.79483C24.838 7.95665 24.7792 8.11369 24.67 8.23332L22.74 10.1413C22.6183 10.2561 22.4574 10.3203 22.29 10.3211C22.2084 10.3215 22.1276 10.3058 22.0521 10.275C21.9766 10.2441 21.9079 10.1987 21.85 10.1413C21.7345 10.022 21.67 9.86265 21.67 9.69675C21.67 9.53086 21.7345 9.37146 21.85 9.25223H21.87ZM19.68 7.8837L20.09 7.47414C20.1478 7.41642 20.2164 7.37063 20.2919 7.33939C20.3674 7.30816 20.4483 7.29208 20.53 7.29208C20.6117 7.29208 20.6926 7.30816 20.7681 7.33939C20.8436 7.37063 20.9122 7.41642 20.97 7.47414C21.0278 7.53186 21.0736 7.60038 21.1049 7.67579C21.1362 7.75121 21.1523 7.83204 21.1523 7.91367C21.1523 7.99529 21.1362 8.07612 21.1049 8.15154C21.0736 8.22695 21.0278 8.29548 20.97 8.35319L20.56 8.76276C20.3837 8.93645 20.2434 9.14323 20.1473 9.37123C20.0512 9.59923 20.0011 9.84395 20 10.0913C19.9973 10.3413 20.0446 10.5893 20.1392 10.8208C20.2337 11.0523 20.3736 11.2626 20.5505 11.4394C20.7275 11.6161 20.938 11.7558 21.1697 11.8503C21.4015 11.9447 21.6497 11.992 21.9 11.9893C22.3977 11.9843 22.8742 11.7875 23.23 11.4399L23.64 10.9904C23.7567 10.8738 23.915 10.8083 24.08 10.8083C24.245 10.8083 24.4033 10.8738 24.52 10.9904C24.6367 11.1069 24.7023 11.265 24.7023 11.4299C24.7023 11.5948 24.6367 11.7529 24.52 11.8694L24.11 12.279C23.6722 12.7124 23.1163 13.0075 22.5118 13.1275C21.9072 13.2475 21.2806 13.1872 20.7102 12.9539C20.1398 12.7206 19.6506 12.3248 19.3039 11.8158C18.9571 11.3067 18.7679 10.707 18.76 10.0913C18.7592 9.68081 18.8401 9.27422 18.9981 8.89523C19.156 8.51623 19.3878 8.17239 19.68 7.8837Z" fill="black"/>
<path d="M15.09 13.4377C15.2889 13.4377 15.4797 13.3588 15.6203 13.2183C15.761 13.0778 15.84 12.8872 15.84 12.6885C15.84 12.4898 15.761 12.2993 15.6203 12.1588C15.4797 12.0183 15.2889 11.9394 15.09 11.9394H9C8.80109 11.9394 8.61032 12.0183 8.46967 12.1588C8.32902 12.2993 8.25 12.4898 8.25 12.6885C8.25 12.8872 8.32902 13.0778 8.46967 13.2183C8.61032 13.3588 8.80109 13.4377 9 13.4377H15.09Z" fill="black"/>
</svg>
