<svg width="32" height="32" viewBox="0 0 32 32" fill="none" xmlns="http://www.w3.org/2000/svg">
<path d="M26.01 21.05C25.6 21.05 25.26 21.39 25.26 21.8V21.97C25.26 22.53 24.81 22.98 24.25 22.98H14.33C14.13 22.98 13.92 23.04 13.77 23.19L11.49 25.47C11.49 25.47 11.49 25.49 11.47 25.49L9.53 27.43V23.72C9.53 23.31 9.19 22.97 8.78 22.97H4.5C3.95 22.97 3.5 22.52 3.5 21.96V7.73C3.5 7.18 3.95 6.73 4.5 6.73H14.8C15.21 6.73 15.55 6.39 15.55 5.98C15.55 5.57 15.21 5.23 14.8 5.23H6.73V4.5C6.73 3.95 7.18 3.5 7.74 3.5H14.8C15.21 3.5 15.55 3.16 15.55 2.75C15.55 2.34 15.21 2 14.8 2H7.74C6.36 2 5.23 3.12 5.23 4.5V5.23H4.5C3.12 5.23 2 6.35 2 7.73V21.97C2 23.35 3.12 24.48 4.5 24.48H8.03V29.25C8.03 29.55 8.21 29.83 8.49 29.94C8.58 29.98 8.68 30 8.78 30C8.97 30 9.17 29.92 9.31 29.78L14.61 24.48H24.25C25.63 24.48 26.76 23.35 26.76 21.97V21.8C26.76 21.39 26.42 21.05 26.01 21.05Z" fill="black"/>
<path d="M29.78 8.84C29.49 8.55 29.01 8.55 28.72 8.84L25.13 12.43V2.75C25.13 2.34 24.79 2 24.38 2C23.97 2 23.63 2.34 23.63 2.75V12.43L20.04 8.84C19.75 8.55 19.27 8.55 18.98 8.84C18.69 9.13 18.69 9.61 18.98 9.9L23.85 14.77C24 14.92 24.19 14.99 24.38 14.99C24.57 14.99 24.76 14.92 24.91 14.77L29.78 9.9C30.07 9.61 30.07 9.13 29.78 8.84Z" fill="black"/>
<path d="M14.35 11.95H8.97C8.56 11.95 8.22 12.29 8.22 12.7C8.22 13.11 8.56 13.45 8.97 13.45H14.35C14.76 13.45 15.1 13.11 15.1 12.7C15.1 12.29 14.76 11.95 14.35 11.95Z" fill="black"/>
<path d="M14.35 16.64H8.97C8.56 16.64 8.22 16.98 8.22 17.39C8.22 17.8 8.56 18.14 8.97 18.14H14.35C14.76 18.14 15.1 17.8 15.1 17.39C15.1 16.98 14.76 16.64 14.35 16.64Z" fill="black"/>
</svg>
