<svg width="32" height="32" viewBox="0 0 32 32" fill="none" xmlns="http://www.w3.org/2000/svg">
<path d="M19.3126 15.7797L20.8122 14.2796V16.8297C20.8089 17.9519 20.3919 19.0335 19.6412 19.8675C18.8904 20.7014 17.8586 21.2292 16.7432 21.3498V25.8899H20.0624C20.2613 25.8899 20.452 25.9689 20.5926 26.1096C20.7332 26.2502 20.8122 26.441 20.8122 26.6399C20.8122 26.8388 20.7332 27.0296 20.5926 27.1703C20.452 27.3109 20.2613 27.3899 20.0624 27.3899H11.9243C11.7255 27.3899 11.5348 27.3109 11.3941 27.1703C11.2535 27.0296 11.1745 26.8388 11.1745 26.6399C11.1745 26.441 11.2535 26.2502 11.3941 26.1096C11.5348 25.9689 11.7255 25.8899 11.9243 25.8899H15.2435V21.3498C14.8323 21.2906 14.4317 21.1727 14.0538 20.9998L15.2336 19.8098C15.4032 19.8245 15.5738 19.8245 15.7434 19.8098H16.2433C17.0573 19.8098 17.838 19.4863 18.4136 18.9106C18.9892 18.3348 19.3126 17.5539 19.3126 16.7397V15.7797ZM29.7601 2.21935C29.6195 2.07889 29.4289 2 29.2302 2C29.0315 2 28.8409 2.07889 28.7003 2.21935L2.22668 28.7C2.08626 28.8406 2.00739 29.0312 2.00739 29.23C2.00739 29.4287 2.08626 29.6194 2.22668 29.76C2.36635 29.9045 2.55583 29.9903 2.75655 30C2.95492 29.9977 3.14474 29.9189 3.28642 29.78L29.7601 3.27937C29.9005 3.13874 29.9793 2.94811 29.9793 2.74936C29.9793 2.5506 29.9005 2.35997 29.7601 2.21935ZM25.3711 9.71952L24.2414 10.8395C24.8927 12.3118 25.0818 13.9472 24.7837 15.5293C24.4856 17.1114 23.7142 18.5657 22.5718 19.6998C22.4314 19.8404 22.3525 20.031 22.3525 20.2298C22.3525 20.4285 22.4314 20.6192 22.5718 20.7598C22.7146 20.897 22.9037 20.9755 23.1017 20.9798C23.3005 20.9796 23.491 20.9005 23.6315 20.7598C25.0474 19.3459 25.9785 17.5194 26.2911 15.5428C26.6037 13.5663 26.2816 11.5414 25.3711 9.75952V9.71952ZM27.9905 7.09946L26.8907 8.18949C28.1834 10.3922 28.709 12.9616 28.3852 15.4952C28.0613 18.0288 26.9063 20.3833 25.1012 22.1898C24.9625 22.3334 24.885 22.5252 24.885 22.7248C24.885 22.9245 24.9625 23.1163 25.1012 23.2598C25.2444 23.3951 25.4341 23.4702 25.6311 23.4698C25.8282 23.4713 26.0182 23.396 26.1609 23.2598C28.2576 21.1758 29.5815 18.439 29.9141 15.5012C30.2467 12.5633 29.5682 9.59975 27.9905 7.09946ZM6.77558 22.0998C4.65329 19.9232 3.47457 16.9974 3.49516 13.957C3.51575 10.9167 4.73398 8.00707 6.88556 5.85943C7.01801 5.71725 7.09011 5.5292 7.08668 5.3349C7.08326 5.14059 7.00456 4.9552 6.86718 4.81778C6.7298 4.68037 6.54446 4.60165 6.35021 4.59823C6.15595 4.5948 5.96795 4.66692 5.82581 4.79941C3.39343 7.22831 2.01747 10.5192 1.99688 13.957C1.97629 17.3949 3.31272 20.702 5.71584 23.1598L6.77558 22.0998ZM8.23523 20.6398L9.30498 19.5798C7.85712 18.0704 7.05784 16.0539 7.0784 13.9622C7.09895 11.8705 7.93771 9.87008 9.41495 8.38949C9.55537 8.24886 9.63424 8.05823 9.63424 7.85948C9.63424 7.66072 9.55537 7.47009 9.41495 7.32947C9.27142 7.19077 9.07965 7.11324 8.88008 7.11324C8.68051 7.11324 8.48874 7.19077 8.34521 7.32947C6.58484 9.09006 5.58675 11.4722 5.56618 13.9621C5.5456 16.452 6.50419 18.8503 8.23523 20.6398ZM12.6742 16.1997V11.2496C12.6768 10.4371 13.0013 9.65874 13.5767 9.08515C14.152 8.51156 14.9311 8.18948 15.7434 8.18949H16.2433C16.8141 8.19014 17.3734 8.34946 17.8589 8.64966C18.3444 8.94986 18.7369 9.37912 18.9926 9.88953L20.0924 8.7895C19.6785 8.14678 19.1104 7.61791 18.4399 7.25109C17.7693 6.88428 17.0176 6.6912 16.2533 6.68945H15.7534C15.1534 6.68814 14.559 6.80504 14.0042 7.0335C13.4494 7.26196 12.945 7.59748 12.5198 8.02093C12.0946 8.44438 11.757 8.94744 11.5261 9.50141C11.2953 10.0554 11.1758 10.6494 11.1745 11.2496V16.8297C11.1759 17.0983 11.2027 17.3662 11.2545 17.6297L12.6742 16.1997Z" fill="black"/>
</svg>
