<svg width="32" height="32" viewBox="0 0 32 32" fill="none" xmlns="http://www.w3.org/2000/svg">
<path d="M23.6504 7.7563C23.5098 7.61311 23.3186 7.53214 23.1189 7.53119C22.9192 7.53025 22.7273 7.60941 22.5854 7.75126C22.4435 7.89311 22.3632 8.08603 22.3623 8.28759C22.3614 8.48914 22.4398 8.68282 22.5804 8.82601C24.0765 10.3395 24.9167 12.39 24.9167 14.5278C24.9167 16.6655 24.0765 18.716 22.5804 20.2295C22.4417 20.3744 22.3642 20.5679 22.3642 20.7694C22.3642 20.9708 22.4417 21.1644 22.5804 21.3093C22.7227 21.4516 22.915 21.5315 23.1154 21.5315C23.3158 21.5315 23.508 21.4516 23.6504 21.3093C25.4304 19.5116 26.4303 17.0742 26.4303 14.5328C26.4303 11.9914 25.4304 9.55401 23.6504 7.7563Z" fill="black"/>
<path d="M26.1704 5.20314C26.0282 5.06944 25.8402 4.99666 25.6459 5.00012C25.4515 5.00358 25.2662 5.08301 25.1288 5.22168C24.9913 5.36035 24.9126 5.54744 24.9092 5.74352C24.9058 5.9396 24.9779 6.12937 25.1104 6.27284C26.1856 7.35633 27.0386 8.64311 27.6205 10.0596C28.2025 11.476 28.5021 12.9944 28.5021 14.5278C28.5021 16.0611 28.2025 17.5795 27.6205 18.9959C27.0386 20.4124 26.1856 21.6992 25.1104 22.7827C24.9699 22.9246 24.891 23.1169 24.891 23.3175C24.891 23.5181 24.9699 23.7105 25.1104 23.8524C25.1796 23.9231 25.2622 23.9792 25.3532 24.0173C25.4442 24.0555 25.5418 24.0749 25.6404 24.0744C25.739 24.0754 25.8368 24.0563 25.9279 24.0181C26.019 23.98 26.1015 23.9236 26.1704 23.8524C27.3847 22.6283 28.348 21.1748 29.0052 19.5748C29.6625 17.9748 30.0007 16.2598 30.0007 14.5278C30.0007 12.7957 29.6625 11.0807 29.0052 9.48072C28.348 7.88073 27.3847 6.42717 26.1704 5.20314Z" fill="black"/>
<path d="M16.2504 7.10035H15.7504C14.5391 7.10302 13.3783 7.58976 12.5218 8.45408C11.6653 9.31839 11.183 10.4899 11.1804 11.7122V17.3433C11.1837 18.4758 11.6008 19.5672 12.3517 20.4088C13.1026 21.2504 14.1347 21.783 15.2504 21.9047V26.4863H11.9304C11.7315 26.4863 11.5407 26.566 11.4 26.7079C11.2594 26.8499 11.1804 27.0424 11.1804 27.2431C11.1804 27.4439 11.2594 27.6364 11.4 27.7783C11.5407 27.9203 11.7315 28 11.9304 28H20.0704C20.2693 28 20.4601 27.9203 20.6007 27.7783C20.7414 27.6364 20.8204 27.4439 20.8204 27.2431C20.8204 27.0424 20.7414 26.8499 20.6007 26.7079C20.4601 26.566 20.2693 26.4863 20.0704 26.4863H16.7504V21.9047C17.8661 21.783 18.8981 21.2504 19.6491 20.4088C20.4 19.5672 20.817 18.4758 20.8204 17.3433V11.7122C20.8177 10.4899 20.3354 9.31839 19.4789 8.45408C18.6225 7.58976 17.4616 7.10302 16.2504 7.10035ZM19.3204 17.3433C19.3177 18.1642 18.9934 18.9506 18.4183 19.5311C17.8431 20.1115 17.0638 20.4388 16.2504 20.4414H15.7504C14.937 20.4388 14.1576 20.1115 13.5825 19.5311C13.0073 18.9506 12.683 18.1642 12.6804 17.3433V11.7122C12.683 10.8913 13.0073 10.1049 13.5825 9.52444C14.1576 8.94401 14.937 8.61675 15.7504 8.61409H16.2504C17.0638 8.61675 17.8431 8.94401 18.4183 9.52444C18.9934 10.1049 19.3177 10.8913 19.3204 11.7122V17.3433Z" fill="black"/>
<path d="M3.50037 14.5278C3.49576 12.9938 3.79304 11.4742 4.37498 10.0572C4.95692 8.64013 5.81192 7.3538 6.89037 6.27284C7.02285 6.12937 7.09498 5.9396 7.09155 5.74352C7.08812 5.54744 7.00941 5.36035 6.872 5.22168C6.73458 5.08301 6.5492 5.00358 6.3549 5.00012C6.1606 4.99666 5.97255 5.06944 5.83037 5.20314C4.61609 6.42717 3.65278 7.88073 2.99554 9.48072C2.33829 11.0807 2 12.7957 2 14.5278C2 16.2598 2.33829 17.9748 2.99554 19.5748C3.65278 21.1748 4.61609 22.6283 5.83037 23.8524C5.89927 23.9236 5.98176 23.98 6.07285 24.0181C6.16394 24.0563 6.26175 24.0754 6.36037 24.0744C6.45891 24.0749 6.55656 24.0555 6.64757 24.0173C6.73858 23.9792 6.82113 23.9231 6.89037 23.8524C7.03082 23.7105 7.10971 23.5181 7.10971 23.3175C7.10971 23.1169 7.03082 22.9246 6.89037 22.7827C5.81102 21.7024 4.95543 20.4162 4.37343 18.999C3.79143 17.5817 3.49465 16.0618 3.50037 14.5278Z" fill="black"/>
<path d="M9.42037 7.7563C9.35143 7.6849 9.26901 7.62815 9.17799 7.5894C9.08696 7.55065 8.98917 7.53069 8.89037 7.53069C8.79158 7.53069 8.69379 7.55065 8.60276 7.5894C8.51174 7.62815 8.42932 7.6849 8.36037 7.7563C7.47659 8.64509 6.77535 9.7012 6.29687 10.8641C5.8184 12.0269 5.5721 13.2737 5.5721 14.5328C5.5721 15.7919 5.8184 17.0387 6.29687 18.2015C6.77535 19.3644 7.47659 20.4205 8.36037 21.3093C8.50089 21.4513 8.69153 21.5311 8.89037 21.5313C9.08837 21.527 9.27753 21.4477 9.42037 21.3093C9.55907 21.1644 9.63659 20.9708 9.63659 20.7694C9.63659 20.5679 9.55907 20.3744 9.42037 20.2295C7.92427 18.716 7.08407 16.6655 7.08407 14.5278C7.08407 12.39 7.92427 10.3395 9.42037 8.82601C9.56082 8.6841 9.63971 8.49173 9.63971 8.29116C9.63971 8.09059 9.56082 7.89822 9.42037 7.7563Z" fill="black"/>
</svg>
