<svg width="32" height="32" viewBox="0 0 32 32" fill="none" xmlns="http://www.w3.org/2000/svg">
<path d="M20.52 11.48C19.93 10.91 19.01 10.91 18.44 11.48L16.01 13.91L13.58 11.48C13.01 10.91 12.07 10.91 11.5 11.48C10.93 12.07 10.93 12.99 11.5 13.56L13.93 15.99L11.5 18.42C10.93 18.99 10.93 19.93 11.5 20.5C11.79 20.79 12.17 20.93 12.54 20.93C12.91 20.93 13.29 20.79 13.58 20.5L16.01 18.07L18.44 20.5C18.71 20.79 19.09 20.93 19.48 20.93C19.87 20.93 20.23 20.79 20.52 20.5C21.09 19.93 21.09 18.99 20.52 18.42L18.09 15.99L20.52 13.56C21.09 12.99 21.09 12.07 20.52 11.48Z" fill="black"/>
<path d="M16 2C8.28 2 2 8.28 2 16C2 23.72 8.28 30 16 30C23.72 30 30 23.72 30 16C30 8.28 23.72 2 16 2ZM16 28.5C9.11 28.5 3.5 22.89 3.5 16C3.5 9.11 9.11 3.5 16 3.5C22.89 3.5 28.5 9.11 28.5 16C28.5 22.89 22.89 28.5 16 28.5Z" fill="black"/>
</svg>
