<svg width="32" height="32" viewBox="0 0 32 32" fill="none" xmlns="http://www.w3.org/2000/svg">
<path d="M29.132 24.8818C28.5417 24.292 27.7813 24.0021 27.0109 24.0021C26.4806 24.0021 25.9603 24.1521 25.4901 24.422L23.8792 22.8126C25.0098 21.503 25.8403 19.9336 26.2105 18.1642C26.2905 17.7544 26.0404 17.3645 25.6302 17.2745C25.2299 17.1946 24.8297 17.4445 24.7397 17.8543C24.0093 21.3131 21.3078 24.0121 17.846 24.7419C17.4358 24.8318 17.1756 25.2217 17.2657 25.6316C17.3357 25.9814 17.6559 26.2313 17.9961 26.2313C18.0461 26.2313 18.0961 26.2313 18.1461 26.2114C19.9171 25.8415 21.4979 25.0118 22.8086 23.8722L24.4195 25.4816C23.7391 26.6312 23.8892 28.1307 24.8798 29.1203C25.4701 29.7101 26.2305 30 27.0009 30C27.7713 30 28.5417 29.7101 29.122 29.1203C30.2927 27.9507 30.2927 26.0514 29.122 24.8818H29.132ZM28.0715 28.0607C27.7913 28.3406 27.4111 28.5005 27.0109 28.5005C26.6107 28.5005 26.2305 28.3406 25.9503 28.0607C25.37 27.4809 25.37 26.5212 25.9503 25.9415C26.2305 25.6616 26.6107 25.5016 27.0109 25.5016C27.4111 25.5016 27.7913 25.6616 28.0715 25.9415C28.6518 26.5212 28.6618 27.4809 28.0715 28.0607Z" fill="black"/>
<path d="M24.7397 14.1657C24.8097 14.5155 25.1299 14.7654 25.4701 14.7654C25.5201 14.7654 25.5701 14.7654 25.6202 14.7454C26.0304 14.6655 26.2905 14.2656 26.2005 13.8558C25.9303 12.5762 25.4401 11.3767 24.7397 10.307C24.5096 9.95716 24.0493 9.86719 23.6991 10.0871C23.3489 10.317 23.2589 10.7769 23.479 11.1267C24.0793 12.0364 24.4996 13.0561 24.7197 14.1557L24.7397 14.1657Z" fill="black"/>
<path d="M7.26032 17.8643C7.18027 17.4545 6.77005 17.2046 6.36984 17.2845C5.95962 17.3645 5.69948 17.7644 5.78953 18.1742C6.04967 19.4238 6.54994 20.6134 7.26032 21.703C7.40039 21.9229 7.64052 22.0428 7.89066 22.0428C8.03073 22.0428 8.17081 22.0029 8.30088 21.9229C8.65106 21.693 8.74111 21.2331 8.52099 20.8833C7.91067 19.9536 7.49044 18.934 7.26032 17.8643Z" fill="black"/>
<path d="M14.154 24.7419C13.0734 24.512 12.0529 24.0821 11.1324 23.4823C10.7922 23.2524 10.322 23.3524 10.0918 23.7022C9.86171 24.0521 9.96177 24.512 10.312 24.7419C11.3925 25.4516 12.5732 25.9414 13.8438 26.2114C13.8939 26.2213 13.9539 26.2313 14.0039 26.2313C14.3541 26.2313 14.6643 25.9914 14.7343 25.6416C14.8244 25.2417 14.5642 24.8418 14.154 24.7519V24.7419Z" fill="black"/>
<path d="M17.846 7.26812C18.9466 7.50803 19.9671 7.92788 20.8776 8.52767C21.0077 8.60764 21.1478 8.64763 21.2878 8.64763C21.528 8.64763 21.7681 8.52767 21.9182 8.30775C22.1483 7.95787 22.0482 7.49804 21.6981 7.26812C20.6275 6.56837 19.4368 6.06855 18.1562 5.79864C17.7559 5.70868 17.3557 5.96858 17.2657 6.37844C17.1756 6.78829 17.4358 7.17815 17.846 7.26812Z" fill="black"/>
<path d="M14.7343 6.37844C14.6543 5.96858 14.2441 5.70868 13.8438 5.79864C12.0729 6.16851 10.5021 6.99821 9.19135 8.12781L7.58049 6.51839C8.26085 5.3688 8.11077 3.86933 7.12024 2.87969C6.52993 2.2899 5.76952 2 4.99911 2C4.22869 2 3.45828 2.29989 2.87797 2.88968C1.70734 4.05926 1.70734 5.95859 2.87797 7.12817C3.46829 7.71796 4.22869 8.00785 4.99911 8.00785C5.52939 8.00785 6.04967 7.85791 6.51992 7.588L8.13078 9.19743C6.99017 10.507 6.15973 12.0964 5.79954 13.8658C5.71949 14.2756 5.97963 14.6655 6.37985 14.7554C6.42987 14.7654 6.4799 14.7754 6.52993 14.7754C6.88011 14.7754 7.19028 14.5355 7.26032 14.1757C7.9807 10.7169 10.6822 8.00785 14.154 7.27812C14.5642 7.18815 14.8244 6.79829 14.7343 6.38843V6.37844ZM6.05967 6.06855C5.77952 6.34845 5.39932 6.50839 4.99911 6.50839C4.59889 6.50839 4.21869 6.34845 3.93854 6.06855C3.35823 5.48875 3.35823 4.5291 3.93854 3.9493C4.21869 3.6694 4.59889 3.50946 4.99911 3.50946C5.39932 3.50946 5.77952 3.6694 6.05967 3.9493C6.63999 4.5291 6.64999 5.48875 6.05967 6.06855Z" fill="black"/>
<path d="M19.1467 19.8936C19.3368 19.8936 19.5269 19.8236 19.677 19.6737C19.9671 19.3838 19.9671 18.904 19.677 18.6141L17.0656 16.005L19.677 13.3959C19.9671 13.106 19.9671 12.6262 19.677 12.3363C19.3868 12.0464 18.9066 12.0464 18.6164 12.3363L16.005 14.9454L13.3936 12.3363C13.1034 12.0464 12.6232 12.0464 12.333 12.3363C12.0429 12.6262 12.0429 13.106 12.333 13.3959L14.9444 16.005L12.333 18.6141C12.0429 18.904 12.0429 19.3838 12.333 19.6737C12.4831 19.8236 12.6732 19.8936 12.8633 19.8936C13.0534 19.8936 13.2435 19.8236 13.3936 19.6737L16.005 17.0646L18.6164 19.6737C18.7665 19.8236 18.9566 19.8936 19.1467 19.8936Z" fill="black"/>
</svg>
