<svg width="32" height="32" viewBox="0 0 32 32" fill="none" xmlns="http://www.w3.org/2000/svg">
<path d="M19.5337 11.9736L14.4056 18.3358L12.5162 15.6349C12.2763 15.2947 11.8165 15.2147 11.4766 15.4548C11.1367 15.6949 11.0568 16.1651 11.2967 16.4952L13.7558 20.0064C13.8958 20.1965 14.1057 20.3165 14.3456 20.3265C14.3456 20.3265 14.3656 20.3265 14.3756 20.3265C14.6055 20.3265 14.8154 20.2265 14.9554 20.0464L20.7133 12.9139C20.9732 12.5938 20.9232 12.1236 20.6034 11.8635C20.2835 11.6034 19.8136 11.6534 19.5537 11.9736H19.5337Z" fill="black"/>
<path d="M29.1203 24.8982C28.8304 24.6081 28.4905 24.388 28.1307 24.2379C27.9507 24.1679 27.7608 24.1079 27.5709 24.0779C27.3809 24.0379 27.191 24.0179 27.0011 24.0179C26.4713 24.0179 25.9514 24.1679 25.4816 24.438L23.8722 22.8274C27.4209 18.736 27.251 12.5138 23.3724 8.63237C19.4838 4.74098 13.276 4.58092 9.18743 8.13219L7.57801 6.52162C7.85791 6.05145 7.99786 5.53126 7.99786 5.00107C7.99786 4.2308 7.70796 3.46052 7.11817 2.88031C6.52838 2.2901 5.76865 2 4.99893 2C4.61906 2 4.2292 2.07003 3.86933 2.22008C3.50946 2.37013 3.16958 2.59021 2.87969 2.88031C2.2899 3.47053 2 4.2308 2 5.00107C2 5.77135 2.2899 6.54162 2.87969 7.12183C3.16958 7.41193 3.50946 7.63201 3.86933 7.78207C4.2292 7.93212 4.61906 8.00214 4.99893 8.00214C5.47876 8.00214 5.95859 7.8721 6.39843 7.64202C6.43842 7.62201 6.4784 7.602 6.50839 7.58199L8.11782 9.19257C4.56908 13.284 4.73902 19.5063 8.61764 23.3876C10.6469 25.4184 13.316 26.4387 15.995 26.4387C18.4341 26.4387 20.8633 25.5784 22.8126 23.8878L24.422 25.4884C24.1421 25.9586 24.0021 26.4787 24.0021 27.0089C24.0021 27.7792 24.292 28.5495 24.8818 29.1297C25.1017 29.3498 25.3417 29.5098 25.6016 29.6399C26.0414 29.87 26.5212 30 27.0011 30C27.3809 30 27.7708 29.93 28.1307 29.7799C28.4905 29.6299 28.8304 29.4098 29.1203 29.1197C29.7101 28.5295 30 27.7692 30 26.9989C30 26.2287 29.7101 25.4584 29.1203 24.8782V24.8982ZM22.3127 22.3273C18.834 25.8085 13.166 25.8085 9.68725 22.3273C6.2085 18.846 6.2085 13.174 9.68725 9.69275C11.4266 7.95213 13.7158 7.08182 15.995 7.08182C18.2742 7.08182 20.5634 7.95213 22.3027 9.69275C25.7815 13.174 25.7815 18.846 22.3027 22.3273H22.3127Z" fill="black"/>
</svg>
