<svg width="32" height="32" viewBox="0 0 32 32" fill="none" xmlns="http://www.w3.org/2000/svg">
<path d="M14.25 14H10.25C9.83579 14 9.5 14.3358 9.5 14.75V29.25C9.5 29.6642 9.83579 30 10.25 30H14.25C14.6642 30 15 29.6642 15 29.25V14.75C15 14.3358 14.6642 14 14.25 14Z" fill="black"/>
<path d="M29.25 2H25.25C24.84 2 24.5 2.34 24.5 2.75V29.25C24.5 29.66 24.84 30 25.25 30H29.25C29.66 30 30 29.66 30 29.25V2.75C30 2.34 29.66 2 29.25 2ZM28.5 28.5H26V3.5H28.5V28.5Z" fill="black"/>
<path d="M21.75 8H17.75C17.34 8 17 8.34 17 8.75V29.25C17 29.66 17.34 30 17.75 30H21.75C22.16 30 22.5 29.66 22.5 29.25V8.75C22.5 8.34 22.16 8 21.75 8ZM21 28.5H18.5V9.5H21V28.5Z" fill="black"/>
<path d="M6.75 20H2.75C2.33579 20 2 20.3358 2 20.75V29.25C2 29.6642 2.33579 30 2.75 30H6.75C7.16421 30 7.5 29.6642 7.5 29.25V20.75C7.5 20.3358 7.16421 20 6.75 20Z" fill="black"/>
</svg>
