<svg width="32" height="32" viewBox="0 0 32 32" fill="none" xmlns="http://www.w3.org/2000/svg">
<path d="M30 8.75C30 5.02 26.98 2 23.25 2C19.52 2 16.5 5.02 16.5 8.75C16.5 12.48 19.52 15.5 23.25 15.5C26.98 15.5 30 12.48 30 8.75ZM25.55 9.99C25.84 10.28 25.84 10.76 25.55 11.05C25.4 11.2 25.21 11.27 25.02 11.27C24.82 11.27 24.63 11.2 24.49 11.05L23.25 9.81L22.01 11.05C21.86 11.2 21.67 11.27 21.48 11.27C21.29 11.27 21.1 11.2 20.95 11.05C20.66 10.76 20.66 10.28 20.95 9.99L22.19 8.75L20.95 7.51C20.66 7.22 20.66 6.75 20.95 6.45C21.24 6.16 21.72 6.16 22.01 6.45L23.25 7.69L24.49 6.45C24.78 6.16 25.25 6.16 25.55 6.45C25.84 6.75 25.84 7.22 25.55 7.51L24.31 8.75L25.55 9.99Z" fill="black"/>
<path d="M24.5 17.41V29.25C24.5 29.66 24.83 30 25.25 30H29.25C29.66 30 30 29.66 30 29.25V14.32C28.64 15.96 26.7 17.09 24.5 17.41Z" fill="black"/>
<path d="M14.25 14H10.25C9.83579 14 9.5 14.3358 9.5 14.75V29.25C9.5 29.6642 9.83579 30 10.25 30H14.25C14.6642 30 15 29.6642 15 29.25V14.75C15 14.3358 14.6642 14 14.25 14Z" fill="black"/>
<path d="M17 29.25C17 29.66 17.33 30 17.75 30H21.75C22.16 30 22.5 29.66 22.5 29.25V17.46C20.35 17.28 18.43 16.33 17 14.88V29.25Z" fill="black"/>
<path d="M6.75 20H2.75C2.33579 20 2 20.3358 2 20.75V29.25C2 29.6642 2.33579 30 2.75 30H6.75C7.16421 30 7.5 29.6642 7.5 29.25V20.75C7.5 20.3358 7.16421 20 6.75 20Z" fill="black"/>
</svg>
