<svg width="32" height="32" viewBox="0 0 32 32" fill="none" xmlns="http://www.w3.org/2000/svg">
<path d="M14.38 17.5275L15.44 17.8975C15.79 18.0175 16.07 18.2975 16.2 18.6575L16.57 19.7175C16.63 19.8975 16.89 19.8975 16.96 19.7175L17.33 18.6575C17.45 18.3075 17.73 18.0275 18.09 17.8975L19.15 17.5275C19.33 17.4675 19.33 17.2075 19.15 17.1375L18.09 16.7675C17.74 16.6475 17.46 16.3675 17.33 16.0075L16.96 14.9475C16.9 14.7675 16.64 14.7675 16.57 14.9475L16.2 16.0075C16.08 16.3575 15.8 16.6375 15.44 16.7675L14.38 17.1375C14.2 17.1975 14.2 17.4575 14.38 17.5275Z" fill="black"/>
<path d="M29.78 6.9875L26.01 3.2175C25.72 2.9275 25.24 2.9275 24.95 3.2175C24.66 3.5075 24.66 3.9875 24.95 4.2775L27.44 6.7675H3.75C2.79 6.7675 2 7.5575 2 8.5175V22.9575C2 23.9175 2.79 24.7075 3.75 24.7075H6.78V29.2475C6.78 29.5575 6.97 29.8275 7.25 29.9475C7.34 29.9875 7.44 29.9975 7.53 29.9975C7.73 29.9975 7.93 29.9175 8.07 29.7675L12.93 24.7075H20.71C21.67 24.7075 22.46 23.9175 22.46 22.9575V14.5675C22.46 14.1575 22.12 13.8175 21.71 13.8175C21.3 13.8175 20.96 14.1575 20.96 14.5675V22.9575C20.96 23.0975 20.85 23.2075 20.71 23.2075H12.61C12.41 23.2075 12.21 23.2875 12.07 23.4375L8.28 27.3875V23.9575C8.28 23.5475 7.94 23.2075 7.53 23.2075H3.75C3.61 23.2075 3.5 23.0975 3.5 22.9575V8.5175C3.5 8.3775 3.61 8.2675 3.75 8.2675H27.44L24.95 10.7575C24.66 11.0475 24.66 11.5275 24.95 11.8175C25.1 11.9675 25.29 12.0375 25.48 12.0375C25.67 12.0375 25.86 11.9675 26.01 11.8175L29.78 8.0475C30.07 7.7575 30.07 7.2775 29.78 6.9875Z" fill="black"/>
<path d="M11.74 14.8075L12.11 15.8675C12.17 16.0475 12.43 16.0475 12.5 15.8675L12.87 14.8075C12.99 14.4575 13.27 14.1775 13.63 14.0475L14.69 13.6775C14.87 13.6175 14.87 13.3575 14.69 13.2875L13.63 12.9175C13.28 12.7975 13 12.5175 12.87 12.1575L12.5 11.0975C12.44 10.9175 12.18 10.9175 12.11 11.0975L11.74 12.1575C11.62 12.5075 11.34 12.7875 10.98 12.9175L9.92 13.2875C9.74 13.3475 9.74 13.6075 9.92 13.6775L10.98 14.0475C11.33 14.1675 11.61 14.4475 11.74 14.8075Z" fill="black"/>
<path d="M9.17 16.7675C8.82 16.6475 8.54 16.3675 8.41 16.0075L8.04 14.9475C7.98 14.7675 7.72 14.7675 7.65 14.9475L7.28 16.0075C7.16 16.3575 6.88 16.6375 6.52 16.7675L5.46 17.1375C5.28 17.1975 5.28 17.4575 5.46 17.5275L6.52 17.8975C6.87 18.0175 7.15 18.2975 7.28 18.6575L7.65 19.7175C7.71 19.8975 7.97 19.8975 8.04 19.7175L8.41 18.6575C8.53 18.3075 8.81 18.0275 9.17 17.8975L10.23 17.5275C10.41 17.4675 10.41 17.2075 10.23 17.1375L9.17 16.7675Z" fill="black"/>
</svg>
