<svg width="32" height="32" viewBox="0 0 32 32" fill="none" xmlns="http://www.w3.org/2000/svg">
<path d="M28.25 6.7675H4.56L7.05 4.2775C7.34 3.9875 7.34 3.5075 7.05 3.2175C6.76 2.9275 6.28 2.9275 5.99 3.2175L2.22 6.9875C2.08 7.1275 2 7.3175 2 7.5175C2 7.7175 2.08 7.9075 2.22 8.0475L5.99 11.8175C6.14 11.9675 6.33 12.0375 6.52 12.0375C6.71 12.0375 6.9 11.9675 7.05 11.8175C7.34 11.5275 7.34 11.0475 7.05 10.7575L4.56 8.2675H28.25C28.39 8.2675 28.5 8.3775 28.5 8.5175V22.9575C28.5 23.0975 28.39 23.2075 28.25 23.2075H24.47C24.06 23.2075 23.72 23.5475 23.72 23.9575V27.3875L19.93 23.4375C19.79 23.2875 19.59 23.2075 19.39 23.2075H11.29C11.15 23.2075 11.04 23.0975 11.04 22.9575V14.5675C11.04 14.1575 10.7 13.8175 10.29 13.8175C9.88 13.8175 9.54 14.1575 9.54 14.5675V22.9575C9.54 23.9175 10.33 24.7075 11.29 24.7075H19.07L23.93 29.7675C24.07 29.9175 24.27 29.9975 24.47 29.9975C24.56 29.9975 24.66 29.9775 24.75 29.9475C25.03 29.8375 25.22 29.5575 25.22 29.2475V24.7075H28.25C29.21 24.7075 30 23.9175 30 22.9575V8.5175C30 7.5575 29.21 6.7675 28.25 6.7675Z" fill="black"/>
<path d="M22.08 13.2975L21.02 12.9275C20.67 12.8075 20.39 12.5275 20.26 12.1675L19.89 11.1075C19.83 10.9275 19.57 10.9275 19.5 11.1075L19.13 12.1675C19.01 12.5175 18.73 12.7975 18.37 12.9275L17.31 13.2975C17.13 13.3575 17.13 13.6175 17.31 13.6875L18.37 14.0575C18.72 14.1775 19 14.4575 19.13 14.8175L19.5 15.8775C19.56 16.0575 19.82 16.0575 19.89 15.8775L20.26 14.8175C20.38 14.4675 20.66 14.1875 21.02 14.0575L22.08 13.6875C22.26 13.6275 22.26 13.3675 22.08 13.2975Z" fill="black"/>
<path d="M15.81 16.0075L15.44 14.9475C15.38 14.7675 15.12 14.7675 15.05 14.9475L14.68 16.0075C14.56 16.3575 14.28 16.6375 13.92 16.7675L12.86 17.1375C12.68 17.1975 12.68 17.4575 12.86 17.5275L13.92 17.8975C14.27 18.0175 14.55 18.2975 14.68 18.6575L15.05 19.7175C15.11 19.8975 15.37 19.8975 15.44 19.7175L15.81 18.6575C15.93 18.3075 16.21 18.0275 16.57 17.8975L17.63 17.5275C17.81 17.4675 17.81 17.2075 17.63 17.1375L16.57 16.7675C16.22 16.6475 15.94 16.3675 15.81 16.0075Z" fill="black"/>
<path d="M21.77 17.5275L22.83 17.8975C23.18 18.0175 23.46 18.2975 23.59 18.6575L23.96 19.7175C24.02 19.8975 24.28 19.8975 24.35 19.7175L24.72 18.6575C24.84 18.3075 25.12 18.0275 25.48 17.8975L26.54 17.5275C26.72 17.4675 26.72 17.2075 26.54 17.1375L25.48 16.7675C25.13 16.6475 24.85 16.3675 24.72 16.0075L24.35 14.9475C24.29 14.7675 24.03 14.7675 23.96 14.9475L23.59 16.0075C23.47 16.3575 23.19 16.6375 22.83 16.7675L21.77 17.1375C21.59 17.1975 21.59 17.4575 21.77 17.5275Z" fill="black"/>
</svg>
