<svg width="32" height="32" viewBox="0 0 32 32" fill="none" xmlns="http://www.w3.org/2000/svg">
<path d="M29.5 5H25.5C25.2239 5 25 5.22386 25 5.5V26.5C25 26.7761 25.2239 27 25.5 27H29.5C29.7761 27 30 26.7761 30 26.5V5.5C30 5.22386 29.7761 5 29.5 5Z" fill="black"/>
<path d="M2.15 5.56C2.25 5.39 2.39 5.25 2.55 5.15C2.72 5.05 2.91 5 3.11 5C3.3 5 3.49 5.05 3.66 5.15L21.41 15.02C21.59 15.11 21.74 15.25 21.84 15.42C21.94 15.59 22 15.79 22 15.99C22 16.19 21.96 16.39 21.86 16.56C21.76 16.73 21.62 16.88 21.45 16.98L3.64 26.85C3.48 26.95 3.3 27 3.11 27C2.91 27 2.72 26.94 2.55 26.84C2.38 26.74 2.25 26.6 2.15 26.44C2.05 26.27 2 26.08 2 25.88V6.11C2 5.92 2.05 5.72 2.15 5.56Z" fill="black"/>
</svg>
