<svg width="32" height="32" viewBox="0 0 32 32" fill="none" xmlns="http://www.w3.org/2000/svg">
<path d="M15.6403 15.47L12.9022 12.73C12.6124 12.44 12.1328 12.44 11.843 12.73C11.5532 13.02 11.5532 13.5 11.843 13.79L14.0514 16L11.833 18.22C11.5432 18.51 11.5432 18.99 11.833 19.28C11.9829 19.43 12.1727 19.5 12.3626 19.5C12.5525 19.5 12.7423 19.43 12.8922 19.28L15.6403 16.53C15.7802 16.39 15.8601 16.2 15.8601 16C15.8601 15.8 15.7802 15.61 15.6403 15.47Z" fill="black"/>
<path d="M28.0014 13.99C27.152 13.99 26.4325 14.53 26.1527 15.28H24.7238L21.0364 8.84L22.995 5.94C23.1149 5.96 23.2448 5.98 23.3747 5.98C24.4739 5.98 25.3633 5.09 25.3633 3.99C25.3633 2.89 24.4739 2 23.3747 2C22.2755 2 21.3862 2.89 21.3862 3.99C21.3862 4.41 21.5161 4.79 21.7359 5.11L19.7473 8.05L12.1527 8.03L10.2041 5.14C10.434 4.81 10.5739 4.42 10.5739 3.99C10.5739 2.89 9.68451 2 8.5853 2C7.48608 2 6.59672 2.89 6.59672 3.99C6.59672 5.09 7.48608 5.98 8.5853 5.98C8.70521 5.98 8.81513 5.96 8.92505 5.95L10.8936 8.86L7.19629 15.23H5.82727C5.52748 14.51 4.81799 13.99 3.98858 13.99C2.88936 13.99 2 14.88 2 15.98C2 17.08 2.88936 17.97 3.98858 17.97C4.81799 17.97 5.52748 17.46 5.82727 16.73H7.19629L10.8837 23.17L8.92505 26.06C8.81513 26.04 8.69522 26.02 8.5853 26.02C7.48608 26.02 6.59672 26.91 6.59672 28.01C6.59672 29.11 7.48608 30 8.5853 30C9.68451 30 10.5739 29.11 10.5739 28.01C10.5739 27.58 10.434 27.18 10.2041 26.86L12.1727 23.95L19.7673 23.97L21.7359 26.88C21.5161 27.2 21.3862 27.59 21.3862 28C21.3862 29.1 22.2755 29.99 23.3747 29.99C24.4739 29.99 25.3633 29.1 25.3633 28C25.3633 26.9 24.4739 26.01 23.3747 26.01C23.2448 26.01 23.1149 26.02 22.995 26.05L21.0264 23.13L24.7238 16.76H26.1927C26.5025 17.46 27.202 17.95 28.0114 17.95C29.1106 17.95 30 17.06 30 15.96C30 14.86 29.1106 13.97 28.0114 13.97L28.0014 13.99ZM23.3747 3.5C23.6445 3.5 23.8644 3.72 23.8644 3.99C23.8644 4.26 23.6445 4.48 23.3747 4.48C23.1049 4.48 22.8851 4.26 22.8851 3.99C22.8851 3.72 23.1049 3.5 23.3747 3.5ZM8.59529 4.48C8.32548 4.48 8.10564 4.26 8.10564 3.99C8.10564 3.72 8.32548 3.5 8.59529 3.5C8.8651 3.5 9.08494 3.72 9.08494 3.99C9.08494 4.26 8.8651 4.48 8.59529 4.48ZM3.99857 16.46C3.72877 16.46 3.50892 16.24 3.50892 15.97C3.50892 15.7 3.72877 15.48 3.99857 15.48C4.26838 15.48 4.48822 15.7 4.48822 15.97C4.48822 16.24 4.26838 16.46 3.99857 16.46ZM8.59529 28.5C8.32548 28.5 8.10564 28.28 8.10564 28.01C8.10564 27.74 8.32548 27.52 8.59529 27.52C8.8651 27.52 9.08494 27.74 9.08494 28.01C9.08494 28.28 8.8651 28.5 8.59529 28.5ZM23.3747 27.52C23.6445 27.52 23.8644 27.74 23.8644 28.01C23.8644 28.28 23.6445 28.5 23.3747 28.5C23.1049 28.5 22.8851 28.28 22.8851 28.01C22.8851 27.74 23.1049 27.52 23.3747 27.52ZM19.6674 22.48L12.2127 22.46L8.50535 15.99L12.2527 9.54L19.7074 9.56L23.4147 16.03L19.6674 22.48ZM28.0014 16.46C27.7316 16.46 27.5118 16.24 27.5118 15.97C27.5118 15.7 27.7316 15.48 28.0014 15.48C28.2712 15.48 28.4911 15.7 28.4911 15.97C28.4911 16.24 28.2712 16.46 28.0014 16.46Z" fill="black"/>
<path d="M15.7802 18.74C15.7802 19.15 16.1199 19.49 16.5296 19.49H20.0471C20.4568 19.49 20.7966 19.15 20.7966 18.74C20.7966 18.33 20.4568 17.99 20.0471 17.99H16.5296C16.1199 17.99 15.7802 18.33 15.7802 18.74Z" fill="black"/>
</svg>
