<svg width="32" height="32" viewBox="0 0 32 32" fill="none" xmlns="http://www.w3.org/2000/svg">
<path d="M25.25 12.9939H21.07C20.66 12.9939 20.32 13.334 20.32 13.7442C20.32 14.1543 20.66 14.4945 21.07 14.4945H25.25C27.04 14.4945 28.5 15.955 28.5 17.7456V25.2483C28.5 27.0389 27.04 28.4995 25.25 28.4995H6.75C4.96 28.4995 3.5 27.0389 3.5 25.2483V17.7456C3.5 15.955 4.96 14.4945 6.75 14.4945H10.92C11.33 14.4945 11.67 14.1543 11.67 13.7442C11.67 13.334 11.33 12.9939 10.92 12.9939H6.75C4.13 12.9939 2 15.1247 2 17.7456V25.2483C2 27.8692 4.13 30 6.75 30H25.25C27.87 30 30 27.8692 30 25.2483V17.7456C30 15.1247 27.87 12.9939 25.25 12.9939Z" fill="black"/>
<path d="M10.66 9.14255L15.25 4.55091V24.2179C15.25 24.6281 15.59 24.9682 16 24.9682C16.41 24.9682 16.75 24.6281 16.75 24.2179V4.55091L21.34 9.14255C21.49 9.2926 21.68 9.36263 21.87 9.36263C22.06 9.36263 22.25 9.2926 22.4 9.14255C22.69 8.85245 22.69 8.37228 22.4 8.08217L16.53 2.21008C16.25 1.92997 15.75 1.92997 15.47 2.21008L9.6 8.08217C9.31 8.37228 9.31 8.85245 9.6 9.14255C9.89 9.43265 10.37 9.43265 10.66 9.14255Z" fill="black"/>
</svg>
