<svg width="32" height="32" viewBox="0 0 32 32" fill="none" xmlns="http://www.w3.org/2000/svg">
<path d="M6.5 5H2.5C2.22386 5 2 5.22386 2 5.5V26.5C2 26.7761 2.22386 27 2.5 27H6.5C6.77614 27 7 26.7761 7 26.5V5.5C7 5.22386 6.77614 5 6.5 5Z" fill="black"/>
<path d="M29.85 5.56C29.75 5.39 29.61 5.25 29.45 5.15C29.28 5.05 29.09 5 28.89 5C28.7 5 28.51 5.05 28.34 5.15L10.59 15.02C10.41 15.11 10.26 15.25 10.16 15.42C10.06 15.59 10 15.79 10 15.99C10 16.19 10.04 16.39 10.14 16.56C10.24 16.73 10.38 16.88 10.55 16.98L28.36 26.85C28.52 26.95 28.7 27 28.89 27C29.09 27 29.28 26.94 29.45 26.84C29.62 26.74 29.75 26.6 29.85 26.44C29.95 26.27 30 26.08 30 25.89V6.11C30 5.92 29.95 5.72 29.85 5.56Z" fill="black"/>
</svg>
