<svg width="32" height="32" viewBox="0 0 32 32" fill="none" xmlns="http://www.w3.org/2000/svg">
<path d="M16.56 15.65L9.99 3.41C9.73 2.92 8.93 2.92 8.67 3.41L2.09 15.65C1.97 15.87 1.97 16.14 2.09 16.36L8.67 28.59C8.8 28.83 9.05 28.99 9.33 28.99C9.61 28.99 9.86 28.84 9.99 28.59L16.57 16.36C16.69 16.14 16.69 15.87 16.57 15.65H16.56ZM9.32 26.65L3.6 16L9.33 5.35L15.06 16L9.33 26.65H9.32Z" fill="black"/>
<path d="M14.38 5.39C14.52 5.64 14.77 5.79 15.04 5.79C15.16 5.79 15.28 5.76 15.39 5.7C15.76 5.5 15.89 5.05 15.7 4.68L15.02 3.41C14.82 3.05 14.37 2.91 14 3.1C13.63 3.3 13.5 3.75 13.69 4.12L14.37 5.39H14.38Z" fill="black"/>
<path d="M20.62 16.58C20.26 16.38 19.8 16.52 19.6 16.89L13.69 27.89C13.49 28.25 13.63 28.71 14 28.91C14.11 28.97 14.23 29 14.35 29C14.62 29 14.88 28.86 15.01 28.6L20.92 17.61C21.12 17.25 20.98 16.79 20.61 16.59L20.62 16.58Z" fill="black"/>
<path d="M25.52 16.81C25.16 16.61 24.7 16.75 24.5 17.12L18.71 27.88C18.51 28.24 18.65 28.7 19.02 28.9C19.13 28.96 19.25 28.99 19.37 28.99C19.64 28.99 19.9 28.85 20.03 28.59L25.82 17.83C26.02 17.47 25.88 17.01 25.51 16.81H25.52Z" fill="black"/>
<path d="M23.25 2C19.52 2 16.5 5.02 16.5 8.75C16.5 12.48 19.52 15.5 23.25 15.5C26.98 15.5 30 12.48 30 8.75C30 5.02 26.97 2 23.25 2ZM25.55 9.99C25.84 10.28 25.84 10.76 25.55 11.05C25.4 11.2 25.21 11.27 25.02 11.27C24.82 11.27 24.63 11.2 24.49 11.05L23.25 9.81L22.01 11.05C21.86 11.2 21.67 11.27 21.48 11.27C21.29 11.27 21.1 11.2 20.95 11.05C20.66 10.76 20.66 10.28 20.95 9.99L22.19 8.75L20.95 7.51C20.66 7.22 20.66 6.75 20.95 6.45C21.24 6.16 21.72 6.16 22.01 6.45L23.25 7.69L24.49 6.45C24.78 6.16 25.25 6.16 25.55 6.45C25.84 6.75 25.84 7.22 25.55 7.51L24.31 8.75L25.55 9.99Z" fill="black"/>
</svg>
