<svg width="32" height="32" viewBox="0 0 32 32" fill="none" xmlns="http://www.w3.org/2000/svg">
<path d="M28.58 3.42C28.29 3.13 27.81 3.13 27.52 3.42L3.42 27.52C3.13 27.81 3.13 28.29 3.42 28.58C3.57 28.73 3.76 28.8 3.95 28.8C4.14 28.8 4.33 28.73 4.48 28.58L28.58 4.48C28.87 4.19 28.87 3.71 28.58 3.42Z" fill="black"/>
<path d="M16 22.5C19.59 22.5 22.5 19.59 22.5 16C22.5 14.93 22.24 13.92 21.79 13.04L13.04 21.79C13.93 22.24 14.94 22.5 16 22.5Z" fill="black"/>
<path d="M27.2 7.62L26.13 8.69C27.62 10.74 28.5 13.28 28.5 16C28.5 22.89 22.89 28.5 16 28.5C13.27 28.5 10.75 27.62 8.7 26.13L7.62 27.21C9.96 28.96 12.86 30 16 30C23.72 30 30 23.72 30 16C30 12.86 28.96 9.96 27.2 7.62Z" fill="black"/>
<path d="M9.5 16C9.5 17.07 9.76 18.08 10.21 18.96L18.96 10.21C18.07 9.76 17.06 9.5 16 9.5C12.41 9.5 9.5 12.41 9.5 16Z" fill="black"/>
<path d="M5.87 23.3C4.38 21.25 3.5 18.72 3.5 16C3.5 9.11 9.11 3.5 16 3.5C18.73 3.5 21.25 4.38 23.3 5.87L24.38 4.79C22.04 3.04 19.14 2 16 2C8.28 2 2 8.28 2 16C2 19.14 3.04 22.04 4.79 24.38L5.87 23.3Z" fill="black"/>
</svg>
