<svg width="32" height="32" viewBox="0 0 32 32" fill="none" xmlns="http://www.w3.org/2000/svg">
<path d="M19 26.9075H15.91V29.9975H19V26.9075Z" fill="black"/>
<path d="M19 20.9575H15.91V24.0475H19V20.9575Z" fill="black"/>
<path d="M13.05 20.9575H9.96V24.0475H13.05V20.9575Z" fill="black"/>
<path d="M13.05 26.9075H9.96V29.9975H13.05V26.9075Z" fill="black"/>
<path d="M19 14.9975H15.91V18.0875H19V14.9975Z" fill="black"/>
<path d="M13.05 14.9975H9.96V18.0875H13.05V14.9975Z" fill="black"/>
<path d="M7.09 14.9975H4V18.0875H7.09V14.9975Z" fill="black"/>
<path d="M23.28 5.9475H10.15L12.82 3.2775C13.11 2.9875 13.11 2.5075 12.82 2.2175C12.53 1.9275 12.05 1.9275 11.76 2.2175L7.81 6.1675C7.67 6.3075 7.59 6.4975 7.59 6.6975C7.59 6.8975 7.67 7.0875 7.81 7.2275L11.76 11.1775C11.91 11.3275 12.1 11.3975 12.29 11.3975C12.48 11.3975 12.67 11.3275 12.82 11.1775C13.11 10.8875 13.11 10.4075 12.82 10.1175L10.15 7.4475H23.28C25.61 7.4475 27.5 9.3375 27.5 11.6675C27.5 13.9975 25.61 15.8875 23.28 15.8875C22.87 15.8875 22.53 16.2275 22.53 16.6375C22.53 17.0475 22.87 17.3875 23.28 17.3875C26.43 17.3875 29 14.8175 29 11.6675C29 8.5175 26.43 5.9475 23.28 5.9475Z" fill="black"/>
<path d="M7.09 26.9075H4V29.9975H7.09V26.9075Z" fill="black"/>
<path d="M7.09 20.9575H4V24.0475H7.09V20.9575Z" fill="black"/>
</svg>
