<svg width="32" height="32" viewBox="0 0 32 32" fill="none" xmlns="http://www.w3.org/2000/svg">
<path d="M5.78135 28.4902C7.8721 28.4902 9.5727 26.7909 9.5727 24.6917C9.5727 22.8524 8.26224 21.3229 6.53162 20.9731V16.6547C6.53162 16.2549 6.85173 15.935 7.24187 15.935H24.7581C25.1483 15.935 25.4684 16.2549 25.4684 16.6547V20.9731C23.7378 21.3229 22.4273 22.8624 22.4273 24.6917C22.4273 26.7809 24.1279 28.4902 26.2186 28.4902C28.3094 28.4902 30 26.7909 30 24.6917C30 22.8524 28.6895 21.3229 26.9689 20.9731V16.6547C26.9689 15.4352 25.9786 14.4355 24.7581 14.4355H16.7453V9.5074C18.4759 9.15753 19.7764 7.61811 19.7764 5.7888C19.7764 3.69959 18.0757 1.99023 15.995 1.99023C13.9143 1.99023 12.2136 3.68959 12.2136 5.7888C12.2136 7.62811 13.5241 9.15753 15.2447 9.5074V14.4355H7.24187C6.02144 14.4355 5.03108 15.4252 5.03108 16.6547V20.9731C3.30046 21.3229 2 22.8624 2 24.6917C2 26.7809 3.70061 28.4902 5.78135 28.4902ZM28.5095 24.6917C28.5095 25.9612 27.4891 26.9908 26.2287 26.9908C24.9682 26.9908 23.9378 25.9612 23.9378 24.6917C23.9378 23.4221 24.9582 22.3925 26.2287 22.3925C27.4991 22.3925 28.5095 23.4221 28.5095 24.6917ZM13.7242 5.7988C13.7242 4.52928 14.7446 3.49966 16.005 3.49966C17.2655 3.49966 18.2858 4.52928 18.2858 5.7988C18.2858 7.06832 17.2655 8.09793 16.005 8.09793C14.7446 8.09793 13.7242 7.06832 13.7242 5.7988Z" fill="black"/>
</svg>
