<svg width="32" height="32" viewBox="0 0 32 32" fill="none" xmlns="http://www.w3.org/2000/svg">
<path d="M16 30C18.7689 30 21.4757 29.1789 23.778 27.6406C26.0803 26.1022 27.8747 23.9157 28.9343 21.3576C29.9939 18.7994 30.2712 15.9845 29.731 13.2687C29.1908 10.553 27.8574 8.05845 25.8995 6.10051C23.9416 4.14258 21.447 2.80921 18.7313 2.26901C16.0155 1.72882 13.2006 2.00607 10.6424 3.06569C8.08427 4.12532 5.89777 5.91973 4.35943 8.22202C2.82109 10.5243 2 13.2311 2 16C2 19.713 3.475 23.274 6.1005 25.8995C8.72601 28.525 12.287 30 16 30Z" fill="black"/>
</svg>
