<svg width="32" height="32" viewBox="0 0 32 32" fill="none" xmlns="http://www.w3.org/2000/svg">
<path d="M24.3181 21.3324C22.0414 23.02 19.0956 23.9486 16.02 23.9486C15.271 23.9486 14.5621 23.8987 13.903 23.7989C13.4337 23.729 12.9943 23.6491 12.5449 23.5392C12.3252 23.4893 12.0856 23.5392 11.9058 23.669L7.13267 27.1241L8.63053 22.6505C8.75036 22.311 8.61056 21.9315 8.31098 21.7318C5.30528 19.7946 3.57775 16.8787 3.57775 13.7332C3.57775 8.76034 7.92154 4.53638 13.903 3.68759C14.3324 3.62767 14.632 3.22825 14.572 2.79886C14.5121 2.36947 14.1127 2.0699 13.6833 2.12981C6.91298 3.07846 2 7.96148 2 13.7432C2 17.2482 3.79743 20.4836 6.94294 22.7204L4.84593 28.9615C4.73609 29.291 4.84593 29.6505 5.12554 29.8502C5.26534 29.9501 5.42511 30 5.59486 30C5.76462 30 5.92439 29.9501 6.05421 29.8502L12.535 25.1569C12.9144 25.2368 13.2939 25.3067 13.6733 25.3566C14.4023 25.4665 15.1912 25.5264 16.02 25.5264C19.4251 25.5264 22.7104 24.4879 25.2568 22.6106C25.6063 22.3509 25.6862 21.8616 25.4265 21.5021C25.1669 21.1526 24.6776 21.0827 24.3181 21.3324Z" fill="black"/>
<path d="M10.4679 15.2311C11.2951 15.2311 11.9658 14.5605 11.9658 13.7332C11.9658 12.906 11.2951 12.2354 10.4679 12.2354C9.64066 12.2354 8.97004 12.906 8.97004 13.7332C8.97004 14.5605 9.64066 15.2311 10.4679 15.2311Z" fill="black"/>
<path d="M16.03 15.2311C16.8572 15.2311 17.5278 14.5605 17.5278 13.7332C17.5278 12.906 16.8572 12.2354 16.03 12.2354C15.2027 12.2354 14.5321 12.906 14.5321 13.7332C14.5321 14.5605 15.2027 15.2311 16.03 15.2311Z" fill="black"/>
<path d="M29.7803 8.83024C29.4907 8.54066 29.0114 8.54066 28.7218 8.83024L25.1369 12.4151V2.74893C25.1369 2.33951 24.7974 2 24.388 2C23.9786 2 23.6391 2.33951 23.6391 2.74893V12.4151L20.0542 8.83024C19.7646 8.54066 19.2853 8.54066 18.9957 8.83024C18.7061 9.11983 18.7061 9.59914 18.9957 9.88873L23.8588 14.7518C24.0086 14.9016 24.1983 14.9715 24.388 14.9715C24.5777 14.9715 24.7675 14.9016 24.9173 14.7518L29.7803 9.88873C30.0699 9.59914 30.0699 9.11983 29.7803 8.83024Z" fill="black"/>
</svg>
