<svg width="32" height="32" viewBox="0 0 32 32" fill="none" xmlns="http://www.w3.org/2000/svg">
<path d="M24.3201 21.3316C22.0432 23.0194 19.0971 23.9481 16.0212 23.9481C15.2822 23.9481 14.5732 23.8982 13.9041 23.7983C13.4347 23.7284 12.9953 23.6485 12.5459 23.5387C12.3262 23.4887 12.0865 23.5387 11.9067 23.6685L7.13313 27.1239L8.63112 22.6498C8.75096 22.3103 8.61115 21.9308 8.31155 21.7311C5.30557 19.7937 3.57789 16.8776 3.57789 13.7318C3.57789 8.75845 7.92207 4.53411 13.9041 3.68524C14.3335 3.62532 14.6331 3.22586 14.5732 2.79643C14.5132 2.36701 14.1138 2.06741 13.6844 2.12733C6.91342 3.07606 2 7.95952 2 13.7418C2 17.2471 3.79759 20.4827 6.94338 22.7197L4.84619 28.9614C4.73634 29.2909 4.84619 29.6505 5.12581 29.8502C5.26563 29.9501 5.42541 30 5.59519 30C5.76496 30 5.92474 29.9501 6.05457 29.8502L12.5359 25.1565C12.9254 25.2364 13.2949 25.3063 13.6744 25.3562C14.4134 25.4661 15.2023 25.526 16.0212 25.526C19.4267 25.526 22.7123 24.4874 25.2589 22.6099C25.6084 22.3502 25.6883 21.8609 25.4286 21.5014C25.169 21.1519 24.6796 21.0819 24.3201 21.3316Z" fill="black"/>
<path d="M10.4687 15.2298C11.296 15.2298 11.9667 14.5591 11.9667 13.7318C11.9667 12.9045 11.296 12.2338 10.4687 12.2338C9.64134 12.2338 8.97066 12.9045 8.97066 13.7318C8.97066 14.5591 9.64134 15.2298 10.4687 15.2298Z" fill="black"/>
<path d="M16.0312 15.2298C16.8585 15.2298 17.5292 14.5591 17.5292 13.7318C17.5292 12.9045 16.8585 12.2338 16.0312 12.2338C15.2039 12.2338 14.5332 12.9045 14.5332 13.7318C14.5332 14.5591 15.2039 15.2298 16.0312 15.2298Z" fill="black"/>
<path d="M29.7828 7.0807L24.9193 2.21721C24.6297 1.9276 24.1503 1.9276 23.8607 2.21721L18.9972 7.0807C18.7076 7.37031 18.7076 7.84967 18.9972 8.13928C19.2868 8.42889 19.7662 8.42889 20.0558 8.13928L23.641 4.55408V14.2211C23.641 14.6306 23.9806 14.9701 24.39 14.9701C24.7995 14.9701 25.139 14.6306 25.139 14.2211V4.55408L28.7242 8.13928C28.874 8.28908 29.0638 8.35898 29.2535 8.35898C29.4432 8.35898 29.633 8.28908 29.7828 8.13928C30.0724 7.84967 30.0724 7.37031 29.7828 7.0807Z" fill="black"/>
</svg>
