<svg width="32" height="32" viewBox="0 0 32 32" fill="none" xmlns="http://www.w3.org/2000/svg">
<path d="M23.2596 15.5C26.9843 15.5 30 12.48 30 8.75C30 5.02 26.9843 2 23.2596 2C19.535 2 16.5193 5.02 16.5193 8.75C16.5193 12.48 19.535 15.5 23.2596 15.5ZM21.9914 5.59L22.3909 5.18C23.6191 3.96 25.6063 3.96 26.8245 5.18C27.4137 5.77 27.7432 6.56 27.7432 7.4C27.7332 8.25 27.4037 9.03 26.8245 9.61L26.4151 10.02C26.2953 10.14 26.1355 10.21 25.9757 10.21C25.816 10.21 25.6562 10.14 25.5364 10.02C25.2867 9.78 25.2867 9.38 25.5364 9.14L25.9458 8.73C26.2953 8.38 26.485 7.9 26.495 7.39C26.495 6.89 26.2953 6.42 25.9458 6.06C25.2068 5.33 24.0086 5.33 23.2796 6.06L22.8702 6.47C22.6305 6.72 22.2311 6.72 21.9914 6.47C21.7418 6.23 21.7418 5.83 21.9914 5.59ZM21.8616 9.26L23.7689 7.35C24.0185 7.11 24.408 7.11 24.6576 7.35C24.8973 7.6 24.8973 7.99 24.6576 8.24L22.7504 10.15C22.6205 10.27 22.4608 10.33 22.301 10.33C22.1412 10.33 21.9815 10.27 21.8616 10.15C21.622 9.9 21.622 9.51 21.8616 9.26ZM19.6947 7.89L20.1041 7.48C20.3438 7.23 20.7432 7.23 20.9829 7.48C21.2325 7.72 21.2325 8.12 20.9829 8.36L20.5735 8.77C20.224 9.12 20.0243 9.6 20.0243 10.1C20.0243 10.6 20.224 11.08 20.5735 11.44C20.933 11.79 21.4023 11.99 21.9116 11.99C22.4108 11.98 22.8902 11.79 23.2397 11.44L23.6491 11.03C23.8887 10.78 24.2882 10.78 24.5278 11.03C24.7775 11.27 24.7775 11.67 24.5278 11.91L24.1184 12.32C23.5392 12.9 22.7603 13.23 21.9116 13.24C21.0728 13.24 20.2839 12.91 19.6947 12.32C19.1056 11.73 18.776 10.94 18.776 10.1C18.776 9.26 19.1056 8.48 19.6947 7.89Z" fill="black"/>
<path d="M29.2411 15.68C28.8317 15.68 28.4922 16.02 28.4922 16.43C28.4922 16.84 28.4522 17.26 28.4123 17.62C27.7033 23.26 23.0899 27.81 17.4379 28.43C14.4522 28.76 11.5663 28.06 9.09986 26.4L8.78031 26.18L4.08702 27.96L5.85449 23.25L5.64479 22.93C3.98716 20.46 3.29815 17.57 3.62767 14.58C4.2368 8.92 8.78031 4.31 14.3923 3.6C14.7718 3.56 15.1712 3.52 15.5706 3.52C15.97 3.52 16.3195 3.18 16.3195 2.77C16.3195 2.36 15.99 2.02 15.5806 2.02C15.1013 2.02 14.6519 2.07 14.2225 2.12C7.91155 2.9 2.82882 8.08 2.12981 14.41C1.77033 17.58 2.49929 20.77 4.17689 23.43L2.17974 28.76L2 29.31L2.33951 29.67C2.56919 29.92 2.92867 30 3.24822 29.88L8.5806 27.86C10.8074 29.26 13.3937 30 16.0399 30C16.5592 30 17.0685 29.97 17.5877 29.92C23.9187 29.22 29.0913 24.13 29.8802 17.8C29.9301 17.4 29.98 16.92 29.98 16.43C29.98 16.02 29.6405 15.68 29.2311 15.68H29.2411Z" fill="black"/>
<path d="M19.505 23.93C21.1227 23.93 22.4308 22.61 22.4308 21C22.4308 19.39 21.1127 18.07 19.505 18.07C18.6662 18.07 17.9073 18.43 17.378 19L13.1041 16.69C13.1541 16.47 13.194 16.24 13.194 16.01C13.194 15.78 13.1541 15.54 13.1041 15.32L15.1512 14.22C15.5107 14.02 15.6505 13.57 15.4508 13.2C15.2511 12.84 14.8017 12.7 14.4322 12.9L12.3852 14.01C11.8459 13.44 11.097 13.08 10.2582 13.08C8.64051 13.08 7.33238 14.4 7.33238 16.01C7.33238 17.62 8.6505 18.94 10.2582 18.94C11.097 18.94 11.8559 18.58 12.3852 18.01L16.6591 20.32C16.6091 20.54 16.5692 20.77 16.5692 21C16.5692 22.62 17.8873 23.93 19.495 23.93H19.505ZM18.2468 20.32C18.4864 19.88 18.9558 19.57 19.495 19.57C20.2839 19.57 20.923 20.21 20.923 21C20.923 21.79 20.2839 22.43 19.495 22.43C18.7061 22.43 18.067 21.79 18.067 21C18.067 20.76 18.1369 20.53 18.2468 20.33V20.32ZM10.2582 17.43C9.46933 17.43 8.83024 16.79 8.83024 16C8.83024 15.21 9.46933 14.57 10.2582 14.57C11.0471 14.57 11.6862 15.21 11.6862 16C11.6862 16.79 11.0471 17.43 10.2582 17.43Z" fill="black"/>
</svg>
