<svg width="32" height="32" viewBox="0 0 32 32" fill="none" xmlns="http://www.w3.org/2000/svg">
<path d="M23.2596 15.5C26.9743 15.5 30 12.47 30 8.75C30 5.03 26.9743 2 23.2596 2C19.5449 2 16.5193 5.03 16.5193 8.75C16.5193 12.47 19.5449 15.5 23.2596 15.5ZM22.5107 5.38C22.5107 4.97 22.8402 4.63 23.2596 4.63C23.679 4.63 24.0086 4.97 24.0086 5.38V8.34L26.1555 9.74C26.505 9.96 26.6048 10.42 26.3852 10.77C26.2354 10.99 25.9957 11.12 25.7561 11.12C25.6163 11.12 25.4765 11.08 25.3466 10.99L22.8502 9.38C22.6405 9.24 22.5107 9.01 22.5107 8.75V5.38Z" fill="black"/>
<path d="M19.505 23.93C21.1227 23.93 22.4308 22.61 22.4308 21C22.4308 19.39 21.1127 18.07 19.505 18.07C18.6662 18.07 17.9073 18.43 17.378 19L13.1041 16.69C13.1541 16.47 13.194 16.24 13.194 16.01C13.194 15.78 13.1541 15.54 13.1041 15.32L15.1512 14.22C15.5107 14.02 15.6505 13.57 15.4508 13.2C15.2511 12.84 14.8017 12.7 14.4322 12.9L12.3852 14.01C11.8459 13.44 11.097 13.08 10.2582 13.08C8.64051 13.08 7.33238 14.4 7.33238 16.01C7.33238 17.62 8.6505 18.94 10.2582 18.94C11.097 18.94 11.8559 18.58 12.3852 18.01L16.6591 20.32C16.6091 20.54 16.5692 20.77 16.5692 21C16.5692 22.62 17.8873 23.93 19.495 23.93H19.505ZM18.2468 20.32C18.4864 19.88 18.9558 19.57 19.495 19.57C20.2839 19.57 20.923 20.21 20.923 21C20.923 21.79 20.2839 22.43 19.495 22.43C18.7061 22.43 18.067 21.79 18.067 21C18.067 20.75 18.1369 20.53 18.2468 20.33V20.32ZM10.2582 17.43C9.46933 17.43 8.83024 16.79 8.83024 16C8.83024 15.21 9.46933 14.57 10.2582 14.57C11.0471 14.57 11.6862 15.21 11.6862 16C11.6862 16.79 11.0471 17.43 10.2582 17.43Z" fill="black"/>
<path d="M29.2411 15.68C28.8317 15.68 28.4922 16.02 28.4922 16.43C28.4922 16.84 28.4522 17.26 28.4123 17.62C27.7033 23.26 23.0899 27.81 17.4379 28.43C14.4422 28.76 11.5663 28.06 9.09986 26.4L8.78031 26.18L4.08702 27.96L5.85449 23.25L5.64479 22.93C3.98716 20.46 3.29815 17.57 3.62767 14.58C4.2368 8.92 8.78031 4.31 14.3923 3.6C14.7718 3.56 15.1712 3.52 15.5706 3.52C15.97 3.52 16.3195 3.18 16.3195 2.77C16.3195 2.36 15.99 2.02 15.5806 2.02C15.1013 2.02 14.6519 2.07 14.2225 2.12C7.91155 2.9 2.82882 8.08 2.12981 14.41C1.77033 17.58 2.49929 20.77 4.17689 23.43L2.17974 28.76L2 29.31L2.33951 29.67C2.56919 29.92 2.92867 30 3.24822 29.88L8.5806 27.86C10.8074 29.26 13.3937 30 16.0399 30C16.5592 30 17.0685 29.97 17.5877 29.92C23.9187 29.22 29.0913 24.13 29.8802 17.8C29.9301 17.4 29.97 16.92 29.97 16.43C29.97 16.02 29.6305 15.68 29.2211 15.68H29.2411Z" fill="black"/>
</svg>
