<svg width="32" height="32" viewBox="0 0 32 32" fill="none" xmlns="http://www.w3.org/2000/svg">
<path d="M28.7856 19.59C28.3956 19.46 27.9656 19.66 27.8356 20.06C26.2656 24.62 22.1756 27.91 17.4256 28.43C14.4256 28.76 11.5456 28.06 9.07563 26.4C8.87563 26.26 8.61563 26.24 8.39563 26.32L4.04563 27.97L5.69563 23.62C5.78563 23.39 5.75563 23.14 5.61563 22.94C3.96563 20.47 3.26563 17.58 3.58563 14.59C4.20563 8.93 8.74563 4.31 14.3956 3.6C14.9156 3.53 15.4656 3.5 16.0856 3.5C16.4956 3.5 16.8356 3.16 16.8356 2.75C16.8356 2.34 16.4956 2 16.0856 2C15.4056 2 14.7856 2.04 14.2056 2.12C7.88563 2.91 2.78563 8.08 2.08563 14.42C1.73563 17.59 2.46563 20.78 4.14563 23.44L2.13563 28.76C2.01563 29.04 2.09563 29.47 2.31563 29.68C2.55563 29.93 2.92563 30 3.21563 29.88L8.56563 27.85C10.8056 29.27 13.3456 30 15.9856 30C16.5156 30 17.0456 29.97 17.5856 29.91C22.9156 29.33 27.4956 25.65 29.2556 20.54C29.3856 20.15 29.1856 19.72 28.7856 19.59Z" fill="black"/>
<path d="M19.4956 23.93C21.1156 23.93 22.4256 22.61 22.4256 21C22.4256 19.39 21.1056 18.07 19.4956 18.07C18.6556 18.07 17.8956 18.43 17.3656 19L13.0856 16.69C13.1356 16.47 13.1756 16.24 13.1756 16.01C13.1756 15.78 13.1356 15.55 13.0856 15.33L15.5556 14C15.9156 13.8 16.0556 13.35 15.8556 12.98C15.6556 12.62 15.2056 12.48 14.8356 12.68L12.3656 14.01C11.8256 13.44 11.0756 13.08 10.2356 13.08C8.61563 13.08 7.30563 14.4 7.30563 16.01C7.30563 17.62 8.62563 18.94 10.2356 18.94C11.0756 18.94 11.8356 18.58 12.3656 18.01L16.6456 20.32C16.5956 20.54 16.5556 20.77 16.5556 21C16.5556 22.62 17.8756 23.93 19.4856 23.93H19.4956ZM18.2356 20.32C18.4756 19.87 18.9456 19.57 19.4856 19.57C20.2756 19.57 20.9156 20.21 20.9156 21C20.9156 21.79 20.2756 22.43 19.4856 22.43C18.6956 22.43 18.0556 21.79 18.0556 21C18.0556 20.75 18.1256 20.53 18.2356 20.33V20.32ZM10.2356 17.43C9.44563 17.43 8.80563 16.79 8.80563 16C8.80563 15.21 9.44563 14.57 10.2356 14.57C11.0256 14.57 11.6656 15.21 11.6656 16C11.6656 16.79 11.0256 17.43 10.2356 17.43Z" fill="black"/>
<path d="M29.7856 7.09L24.9156 2.22C24.6256 1.93 24.1456 1.93 23.8556 2.22L18.9856 7.09C18.6956 7.38 18.6956 7.86 18.9856 8.15C19.2756 8.44 19.7556 8.44 20.0456 8.15L23.6356 4.56V14.24C23.6356 14.65 23.9756 14.99 24.3856 14.99C24.7956 14.99 25.1356 14.65 25.1356 14.24V4.56L28.7256 8.15C28.8756 8.3 29.0656 8.37 29.2556 8.37C29.4456 8.37 29.6356 8.3 29.7856 8.15C30.0756 7.86 30.0756 7.38 29.7856 7.09Z" fill="black"/>
</svg>
