<svg width="32" height="32" viewBox="0 0 32 32" fill="none" xmlns="http://www.w3.org/2000/svg">
<path d="M19.4956 23.9378C21.1156 23.9378 22.4256 22.6174 22.4256 21.0068C22.4256 19.3962 21.1056 18.0757 19.4956 18.0757C18.6556 18.0757 17.8956 18.4359 17.3656 19.0061L13.0856 16.6952C13.1356 16.4752 13.1756 16.2451 13.1756 16.015C13.1756 15.7849 13.1356 15.5548 13.0856 15.3348L15.5556 14.0043C15.9156 13.8042 16.0556 13.3541 15.8556 12.9839C15.6556 12.6238 15.2056 12.4837 14.8356 12.6838L12.3656 14.0143C11.8256 13.4441 11.0756 13.084 10.2356 13.084C8.61563 13.084 7.30563 14.4044 7.30563 16.015C7.30563 17.6256 8.62563 18.9461 10.2356 18.9461C11.0756 18.9461 11.8256 18.5859 12.3656 18.0157L16.6456 20.3265C16.5956 20.5466 16.5556 20.7767 16.5556 21.0068C16.5556 22.6274 17.8756 23.9378 19.4856 23.9378H19.4956ZM18.2356 20.3265C18.4756 19.8864 18.9456 19.5763 19.4856 19.5763C20.2756 19.5763 20.9156 20.2165 20.9156 21.0068C20.9156 21.7971 20.2756 22.4373 19.4856 22.4373C18.6956 22.4373 18.0556 21.7971 18.0556 21.0068C18.0556 20.7667 18.1256 20.5366 18.2356 20.3365V20.3265ZM10.2356 17.4355C9.44563 17.4355 8.80563 16.7953 8.80563 16.005C8.80563 15.2147 9.44563 14.5745 10.2356 14.5745C11.0256 14.5745 11.6656 15.2147 11.6656 16.005C11.6656 16.7953 11.0256 17.4355 10.2356 17.4355Z" fill="black"/>
<path d="M28.7856 19.5963C28.3956 19.4662 27.9656 19.6663 27.8356 20.0665C26.2656 24.6281 22.1756 27.9193 17.4256 28.4394C14.4256 28.7696 11.5456 28.0693 9.07563 26.4087C8.87563 26.2687 8.61563 26.2487 8.39563 26.3287L4.04563 27.9793L5.69563 23.6277C5.78563 23.3976 5.75563 23.1476 5.61563 22.9475C3.96563 20.4766 3.25563 17.5856 3.58563 14.5945C4.20563 8.93248 8.74563 4.31083 14.3956 3.60057C14.9156 3.53055 15.4756 3.50054 16.0856 3.50054C16.4956 3.50054 16.8356 3.16041 16.8356 2.75027C16.8356 2.34012 16.4956 2 16.0856 2C15.4056 2 14.7856 2.04001 14.2056 2.12004C7.88563 2.91033 2.78563 8.08217 2.08563 14.4244C1.73563 17.5956 2.46563 20.7867 4.14563 23.4477L2.13563 28.7696C1.99563 29.0897 2.07563 29.4498 2.31563 29.6899C2.56563 29.94 2.92563 30.01 3.20563 29.88L8.55563 27.8492C10.7956 29.2697 13.3356 30 15.9756 30C16.5056 30 17.0356 29.97 17.5756 29.91C22.9056 29.3198 27.4856 25.6484 29.2456 20.5366C29.3756 20.1465 29.1756 19.7163 28.7756 19.5863L28.7856 19.5963Z" fill="black"/>
<path d="M29.7856 8.84244C29.4956 8.55234 29.0156 8.55234 28.7256 8.84244L25.1356 12.4337V2.75027C25.1356 2.34012 24.7956 2 24.3856 2C23.9756 2 23.6356 2.34012 23.6356 2.75027V12.4337L20.0456 8.84244C19.7556 8.55234 19.2756 8.55234 18.9856 8.84244C18.6956 9.13255 18.6956 9.61272 18.9856 9.90282L23.8556 14.7746C24.0056 14.9246 24.1956 14.9946 24.3856 14.9946C24.5756 14.9946 24.7656 14.9246 24.9156 14.7746L29.7856 9.90282C30.0756 9.61272 30.0756 9.13255 29.7856 8.84244Z" fill="black"/>
</svg>
