<svg width="32" height="32" viewBox="0 0 32 32" fill="none" xmlns="http://www.w3.org/2000/svg">
<path d="M29.2311 15.6849C28.8217 15.6849 28.4822 16.025 28.4822 16.4352C28.4822 16.8453 28.4422 17.2655 28.4023 17.6256C27.6933 23.2676 23.0799 27.8192 17.428 28.4394C14.4322 28.7696 11.5563 28.0693 9.08987 26.4087L8.77033 26.1886L4.07703 27.9693L5.84451 23.2576L5.63481 22.9375C3.97718 20.4666 3.28816 17.5756 3.61769 14.5845C4.2368 8.92247 8.77033 4.31083 14.3923 3.60057C14.7718 3.56056 15.1712 3.52054 15.5706 3.52054C15.97 3.52054 16.3195 3.18042 16.3195 2.77028C16.3195 2.36013 15.99 2.02001 15.5706 2.02001C15.0913 2.02001 14.6419 2.07002 14.2126 2.12004C7.91155 2.90032 2.82882 8.08217 2.12981 14.4144C1.77033 17.5856 2.49929 20.7767 4.17689 23.4377L2.16976 28.7696L2 29.3198L2.33951 29.6799C2.56919 29.92 2.92867 30 3.24822 29.88L8.5806 27.8592C10.8074 29.2597 13.3937 30 16.0399 30C16.5592 30 17.0685 29.97 17.5877 29.92C23.9187 29.2197 29.0913 24.1279 29.8802 17.7956C29.9301 17.3955 29.97 16.9153 29.97 16.4252C29.97 16.015 29.6305 15.6749 29.2211 15.6749L29.2311 15.6849Z" fill="black"/>
<path d="M19.505 23.9378C21.1227 23.9378 22.4308 22.6174 22.4308 21.0068C22.4308 19.3962 21.1127 18.0757 19.505 18.0757C18.6662 18.0757 17.9073 18.4359 17.378 19.0061L13.1041 16.6952C13.1541 16.4752 13.194 16.2451 13.194 16.015C13.194 15.7849 13.1541 15.5448 13.1041 15.3248L15.1512 14.2244C15.5107 14.0243 15.6505 13.5741 15.4508 13.204C15.2511 12.8439 14.8017 12.7038 14.4322 12.9039L12.3852 14.0143C11.8459 13.4441 11.097 13.084 10.2582 13.084C8.64051 13.084 7.33238 14.4044 7.33238 16.015C7.33238 17.6256 8.6505 18.9461 10.2582 18.9461C11.097 18.9461 11.8559 18.5859 12.3852 18.0157L16.6591 20.3265C16.6091 20.5466 16.5692 20.7767 16.5692 21.0068C16.5692 22.6274 17.8873 23.9378 19.495 23.9378H19.505ZM18.2468 20.3265C18.4864 19.8864 18.9558 19.5763 19.495 19.5763C20.2839 19.5763 20.923 20.2165 20.923 21.0068C20.923 21.7971 20.2839 22.4373 19.495 22.4373C18.7061 22.4373 18.067 21.7971 18.067 21.0068C18.067 20.7567 18.1369 20.5366 18.2468 20.3365V20.3265ZM10.2582 17.4355C9.46933 17.4355 8.83024 16.7953 8.83024 16.005C8.83024 15.2147 9.46933 14.5745 10.2582 14.5745C11.0471 14.5745 11.6862 15.2147 11.6862 16.005C11.6862 16.7953 11.0471 17.4355 10.2582 17.4355Z" fill="black"/>
<path d="M23.2596 15.5048C26.9843 15.5048 30 12.4837 30 8.75241C30 5.02108 26.9843 2 23.2596 2C19.535 2 16.5193 5.02108 16.5193 8.75241C16.5193 12.4837 19.535 15.5048 23.2596 15.5048ZM20.9629 7.51197C20.6733 7.22187 20.6733 6.7517 20.9629 6.45159C21.2525 6.16149 21.7318 6.16149 22.0214 6.45159L23.2596 7.69203L24.4979 6.45159C24.7874 6.16149 25.2568 6.16149 25.5563 6.45159C25.8459 6.7517 25.8459 7.22187 25.5563 7.51197L24.3181 8.75241L25.5563 9.99285C25.8459 10.283 25.8459 10.7631 25.5563 11.0532C25.4066 11.2033 25.2168 11.2733 25.0271 11.2733C24.8274 11.2733 24.6377 11.2033 24.4979 11.0532L23.2596 9.81279L22.0214 11.0532C21.8716 11.2033 21.6819 11.2733 21.4922 11.2733C21.3024 11.2733 21.1127 11.2033 20.9629 11.0532C20.6733 10.7631 20.6733 10.283 20.9629 9.99285L22.2011 8.75241L20.9629 7.51197Z" fill="black"/>
</svg>
