<svg width="32" height="32" viewBox="0 0 32 32" fill="none" xmlns="http://www.w3.org/2000/svg">
<path fill-rule="evenodd" clip-rule="evenodd" d="M17.791 2.15588C8.70818 0.996749 0.9984 8.7058 2.05512 17.688C2.79656 24.0401 7.9748 29.105 14.3114 29.8451C17.6505 30.2495 20.8082 29.4884 23.4006 27.8322L29.0705 29.8503H29.2L29.2024 29.8504C29.2167 29.8505 29.2801 29.8509 29.3406 29.8442C29.4005 29.8376 29.6257 29.8103 29.8178 29.6182C30.0099 29.4261 30.0372 29.2008 30.0438 29.141C30.0506 29.0804 30.0501 29.0171 30.05 29.0028L30.05 29.0003V28.8606L27.9372 23.3865C29.4941 20.8987 30.3493 17.7532 29.9447 14.4118C29.2048 8.0763 24.1416 2.89877 17.791 2.15588ZM3.54485 17.5127C2.60174 9.49625 9.48947 2.60628 17.6048 3.64429L17.6131 3.64534C23.26 4.30415 27.7944 8.92487 28.455 14.5873L28.4554 14.5906C28.8322 17.6991 27.9846 20.6213 26.4759 22.8843L26.2603 23.2078L28.0725 27.903L23.193 26.1662L22.8783 26.3802C20.5293 27.9775 17.6114 28.7341 14.4902 28.3558L14.4869 28.3554C8.82451 27.6948 4.20366 23.1597 3.54485 17.5127ZM12.5 9.55035C13.3008 9.55035 13.95 10.1995 13.95 11.0003C13.95 11.8012 13.3008 12.4503 12.5 12.4503C11.6992 12.4503 11.05 11.8012 11.05 11.0003C11.05 10.1995 11.6992 9.55035 12.5 9.55035ZM15.45 11.0003C15.45 9.37111 14.1292 8.05035 12.5 8.05035C10.8707 8.05035 9.54999 9.37111 9.54999 11.0003C9.54999 12.6296 10.8707 13.9503 12.5 13.9503C13.3572 13.9503 14.1291 13.5847 14.668 13.0009L18.9278 15.3244C18.8769 15.5415 18.85 15.7678 18.85 16.0003C18.85 16.2329 18.8769 16.4592 18.9278 16.6763L14.668 18.9998C14.1291 18.416 13.3572 18.0503 12.5 18.0503C10.8707 18.0503 9.54999 19.3711 9.54999 21.0003C9.54999 22.6296 10.8707 23.9503 12.5 23.9503C14.1292 23.9503 15.45 22.6296 15.45 21.0003C15.45 20.7678 15.4231 20.5415 15.3722 20.3244L19.6319 18.0009C20.1709 18.5847 20.9428 18.9503 21.8 18.9503C23.4292 18.9503 24.75 17.6296 24.75 16.0003C24.75 14.3711 23.4292 13.0503 21.8 13.0503C20.9428 13.0503 20.1709 13.416 19.6319 13.9998L15.3722 11.6763C15.4231 11.4592 15.45 11.2329 15.45 11.0003ZM21.8 14.5503C22.6008 14.5503 23.25 15.1995 23.25 16.0003C23.25 16.8012 22.6008 17.4503 21.8 17.4503C20.9992 17.4503 20.35 16.8012 20.35 16.0003C20.35 15.1995 20.9992 14.5503 21.8 14.5503ZM12.5 19.5503C13.3008 19.5503 13.95 20.1995 13.95 21.0003C13.95 21.8012 13.3008 22.4503 12.5 22.4503C11.6992 22.4503 11.05 21.8012 11.05 21.0003C11.05 20.1995 11.6992 19.5503 12.5 19.5503Z" fill="black"/>
</svg>
