<svg width="32" height="32" viewBox="0 0 32 32" fill="none" xmlns="http://www.w3.org/2000/svg">
<path d="M5.77865 29.5C7.8679 29.5 9.5573 27.7929 9.5573 25.7042C9.5573 23.8666 8.24777 22.3302 6.52838 21.9788V17.6609C6.52838 17.2692 6.84827 16.9479 7.23813 16.9479H15.2453V21.9788C13.5159 22.3302 12.2064 23.8666 12.2064 25.7042C12.2064 27.803 13.9057 29.5 15.995 29.5C18.0843 29.5 19.7737 27.7929 19.7737 25.7042C19.7737 23.8666 18.4641 22.3302 16.7447 21.9788V16.9479H24.7519C25.1417 16.9479 25.4616 17.2692 25.4616 17.6609V21.9788C23.7322 22.3302 22.4327 23.8666 22.4327 25.7042C22.4327 27.803 24.1321 29.5 26.2114 29.5C28.2906 29.5 30 27.7929 30 25.7042C30 23.8666 28.6905 22.3302 26.9611 21.9788V17.6609C26.9611 16.4358 25.9714 15.4416 24.7519 15.4416H16.7447V10.5212C18.4741 10.1698 19.7737 8.63338 19.7737 6.79576C19.7737 4.69704 18.0743 3 15.995 3C13.9157 3 12.2064 4.70709 12.2064 6.79576C12.2064 8.63338 13.5159 10.1698 15.2453 10.5212V15.4416H7.23813C6.01856 15.4416 5.02892 16.4358 5.02892 17.6609V21.9788C3.29954 22.3302 2 23.8666 2 25.7042C2 27.803 3.69939 29.5 5.77865 29.5ZM28.4905 25.7042C28.4905 26.9695 27.4709 27.9937 26.2014 27.9937C24.9318 27.9937 23.9222 26.9695 23.9222 25.7042C23.9222 24.439 24.9418 23.4047 26.2014 23.4047C27.4609 23.4047 28.4905 24.429 28.4905 25.7042ZM13.7058 6.79576C13.7058 5.5305 14.7255 4.50625 15.995 4.50625C17.2645 4.50625 18.2742 5.5305 18.2742 6.79576C18.2742 8.06101 17.2546 9.0953 15.995 9.0953C14.7355 9.0953 13.7058 8.07105 13.7058 6.79576ZM15.995 23.4047C17.2546 23.4047 18.2742 24.429 18.2742 25.7042C18.2742 26.9795 17.2546 27.9937 15.995 27.9937C14.7355 27.9937 13.7058 26.9695 13.7058 25.7042C13.7058 24.439 14.7255 23.4047 15.995 23.4047Z" fill="black"/>
</svg>
