<svg width="32" height="32" viewBox="0 0 32 32" fill="none" xmlns="http://www.w3.org/2000/svg">
<path d="M19.78 6.79719C19.78 4.69769 18.08 3 16 3C13.92 3 12.22 4.70773 12.22 6.79719C12.22 8.63552 13.53 10.1725 15.25 10.5241V21.9759C13.52 22.3275 12.22 23.8645 12.22 25.7028C12.22 27.8023 13.92 29.5 16 29.5C18.08 29.5 19.78 27.7923 19.78 25.7028C19.78 23.8645 18.47 22.3275 16.75 21.9759V10.5241C18.48 10.1725 19.78 8.63552 19.78 6.79719ZM18.28 25.7028C18.28 26.9685 17.26 27.9932 16 27.9932C14.74 27.9932 13.72 26.9685 13.72 25.7028C13.72 24.4371 14.74 23.4024 16 23.4024C17.26 23.4024 18.28 24.427 18.28 25.7028ZM16 9.08757C14.74 9.08757 13.72 8.06293 13.72 6.78715C13.72 5.51137 14.74 4.49678 16 4.49678C17.26 4.49678 18.28 5.52142 18.28 6.78715C18.28 8.05288 17.26 9.08757 16 9.08757Z" fill="black"/>
<path d="M9.57 6.79719C9.57 4.69769 7.87 3 5.78 3C3.69 3 2 4.70773 2 6.79719C2 8.63552 3.31 10.1725 5.03 10.5241V21.9759C3.3 22.3275 2 23.8645 2 25.7028C2 27.8023 3.7 29.5 5.78 29.5C7.86 29.5 9.57 27.7923 9.57 25.7028C9.57 23.8645 8.26 22.3275 6.53 21.9759V10.5241C8.26 10.1725 9.57 8.63552 9.57 6.79719ZM8.07 25.7028C8.07 26.9685 7.05 27.9932 5.78 27.9932C4.51 27.9932 3.5 26.9685 3.5 25.7028C3.5 24.4371 4.52 23.4024 5.78 23.4024C7.04 23.4024 8.07 24.427 8.07 25.7028ZM5.78 9.09761C4.52 9.09761 3.5 8.07297 3.5 6.79719C3.5 5.52142 4.52 4.50682 5.78 4.50682C7.04 4.50682 8.07 5.53146 8.07 6.79719C8.07 8.06293 7.05 9.09761 5.78 9.09761Z" fill="black"/>
<path d="M26.97 21.986V10.5241C28.7 10.1725 30 8.63552 30 6.79719C30 4.69769 28.3 3 26.22 3C24.14 3 22.43 4.70773 22.43 6.79719C22.43 8.63552 23.74 10.1725 25.47 10.5241V21.9759C23.74 22.3275 22.43 23.8645 22.43 25.7028C22.43 27.8023 24.13 29.5 26.22 29.5C28.31 29.5 30 27.7923 30 25.7028C30 23.8645 28.69 22.3275 26.97 21.9759V21.986Z" fill="black"/>
</svg>
