<svg width="32" height="32" viewBox="0 0 32 32" fill="none" xmlns="http://www.w3.org/2000/svg">
<path d="M3.54055 8.75759L5.61129 9.47733C6.09146 9.64727 6.46159 10.0171 6.63165 10.497L7.35191 12.5662C7.52197 13.0361 7.94212 13.336 8.4423 13.336C8.94248 13.336 9.36263 13.0361 9.53269 12.5662L10.2529 10.497C10.423 10.0171 10.7931 9.64727 11.2733 9.47733L13.3441 8.75759C13.8142 8.59764 14.1143 8.1678 14.1143 7.66798C14.1143 7.16815 13.8142 6.7483 13.3441 6.57837L11.2733 5.85862C10.7931 5.68868 10.423 5.31881 10.2529 4.83899L9.53269 2.76973C9.36263 2.29989 8.94248 2 8.4423 2C7.94212 2 7.52197 2.29989 7.35191 2.76973L6.63165 4.83899C6.46159 5.31881 6.09146 5.68868 5.61129 5.85862L3.54055 6.58836C3.07038 6.7483 2.77028 7.17815 2.77028 7.67797C2.77028 8.17779 3.07038 8.59764 3.54055 8.76758V8.75759ZM6.10147 7.27812C7.01179 6.95823 7.72204 6.25848 8.04216 5.33881L8.4423 4.20921L8.84244 5.33881C9.16256 6.24848 9.87281 6.95823 10.7831 7.27812L11.9135 7.67797L10.7831 8.07783C9.87281 8.39772 9.16256 9.10746 8.84244 10.0171L8.4423 11.1467L8.04216 10.0171C7.72204 9.10746 7.01179 8.39772 6.10147 8.07783L4.97106 7.67797L6.10147 7.27812Z" fill="black"/>
<path d="M24.1479 3.86933H18.4559C18.0457 3.86933 17.7056 4.20921 17.7056 4.61906C17.7056 5.02892 18.0457 5.3688 18.4559 5.3688H24.1479C26.5488 5.3688 28.4995 7.3181 28.4995 9.71724V17.8643C28.4995 20.2635 26.5488 22.2128 24.1479 22.2128H22.3773C21.9671 22.2128 21.627 22.5527 21.627 22.9625V27.4409L16.6152 22.4327C16.4752 22.2928 16.2851 22.2128 16.085 22.2128H7.23187C5.6413 22.2128 4.18078 21.3431 3.4105 19.9436L2.74026 20.2735L2.09003 20.6533C3.1204 22.5427 5.0911 23.7122 7.23187 23.7122H15.7749L21.8471 29.7801C21.9871 29.92 22.1772 30 22.3773 30C22.4773 30 22.5673 29.98 22.6674 29.94C22.9475 29.8201 23.1275 29.5502 23.1275 29.2503V23.7122H24.1479C27.3791 23.7122 30 21.0932 30 17.8643V9.71724C30 6.4884 27.3791 3.86933 24.1479 3.86933Z" fill="black"/>
<path d="M3.06038 15.2453C3.38049 15.3552 3.62058 15.6051 3.73062 15.915L4.06074 16.8547C4.12076 17.0146 4.35084 17.0146 4.41086 16.8547L4.74098 15.915C4.85102 15.5951 5.10111 15.3552 5.41122 15.2453L6.35155 14.9154C6.51161 14.8554 6.51161 14.6255 6.35155 14.5655L5.41122 14.2356C5.0911 14.1257 4.85102 13.8758 4.74098 13.5659L4.41086 12.6262C4.35084 12.4663 4.12076 12.4663 4.06074 12.6262L3.73062 13.5659C3.62058 13.8858 3.37049 14.1257 3.06038 14.2356L2.12004 14.5655C1.95999 14.6255 1.95999 14.8554 2.12004 14.9154L3.06038 15.2453Z" fill="black"/>
<path d="M12.5138 14.4855C12.2637 14.5755 12.2637 14.9154 12.5138 15.0054L13.9243 15.5052C14.3944 15.6751 14.7746 16.045 14.9346 16.5148L15.4348 17.9243C15.5248 18.1742 15.865 18.1742 15.955 17.9243L16.4552 16.5148C16.6252 16.045 16.9954 15.6651 17.4655 15.5052L18.876 15.0054C19.1261 14.9154 19.1261 14.5755 18.876 14.4855L17.4655 13.9857C16.9954 13.8158 16.6152 13.4459 16.4552 12.9761L15.955 11.5666C15.865 11.3167 15.5248 11.3167 15.4348 11.5666L14.9346 12.9761C14.7646 13.4459 14.3944 13.8258 13.9243 13.9857L12.5138 14.4855Z" fill="black"/>
</svg>
