<svg width="32" height="32" viewBox="0 0 32 32" fill="none" xmlns="http://www.w3.org/2000/svg">
<path d="M13.11 15.0107L14.52 15.5104C14.99 15.6802 15.37 16.05 15.53 16.5196L16.03 17.9286C16.12 18.1784 16.46 18.1784 16.55 17.9286L17.05 16.5196C17.22 16.05 17.59 15.6702 18.06 15.5104L19.47 15.0107C19.72 14.9208 19.72 14.581 19.47 14.4911L18.06 13.9914C17.59 13.8216 17.21 13.4518 17.05 12.9822L16.55 11.5732C16.46 11.3233 16.12 11.3233 16.03 11.5732L15.53 12.9822C15.36 13.4518 14.99 13.8315 14.52 13.9914L13.11 14.4911C12.86 14.581 12.86 14.9208 13.11 15.0107Z" fill="black"/>
<path d="M28.26 13.5717L27.93 12.6324C27.87 12.4725 27.64 12.4725 27.58 12.6324L27.25 13.5717C27.14 13.8915 26.89 14.1313 26.58 14.2413L25.64 14.571C25.48 14.631 25.48 14.8608 25.64 14.9208L26.58 15.2505C26.9 15.3605 27.14 15.6103 27.25 15.9201L27.58 16.8594C27.64 17.0193 27.87 17.0193 27.93 16.8594L28.26 15.9201C28.37 15.6003 28.62 15.3605 28.93 15.2505L29.87 14.9208C30.03 14.8608 30.03 14.631 29.87 14.571L28.93 14.2413C28.61 14.1313 28.37 13.8815 28.26 13.5717Z" fill="black"/>
<path d="M29.59 19.6174C29.23 19.4276 28.78 19.5774 28.58 19.9372C27.81 21.3462 26.35 22.2156 24.76 22.2156H15.91C15.71 22.2156 15.52 22.2955 15.38 22.4354L10.37 27.4418V22.965C10.37 22.5553 10.03 22.2156 9.62 22.2156H7.85C5.45 22.2156 3.5 20.267 3.5 17.8687V9.72448C3.5 7.3262 5.45 5.37759 7.85 5.37759H13.54C13.95 5.37759 14.29 5.03783 14.29 4.62812C14.29 4.21842 13.95 3.87866 13.54 3.87866H7.85C4.62 3.87866 2 6.49679 2 9.72448V17.8687C2 21.0964 4.62 23.7145 7.85 23.7145H8.87V29.2505C8.87 29.5503 9.05 29.8301 9.33 29.94C9.42 29.98 9.52 30 9.62 30C9.81 30 10.01 29.9201 10.15 29.7802L16.22 23.7145H24.76C26.9 23.7145 28.86 22.5453 29.92 20.6067C30.1 20.237 29.95 19.8073 29.59 19.6274V19.6174Z" fill="black"/>
<path d="M18.66 8.76517L20.73 9.49465C21.21 9.66453 21.58 10.0343 21.75 10.5139L22.48 12.5824C22.64 13.0521 23.07 13.3519 23.57 13.3519C24.07 13.3519 24.49 13.0521 24.66 12.5824L25.39 10.5139C25.56 10.0343 25.93 9.66453 26.41 9.49465L28.48 8.76517C28.95 8.60528 29.25 8.17559 29.25 7.67595C29.25 7.1763 28.95 6.7566 28.48 6.58672L26.41 5.85724C25.93 5.68737 25.56 5.31763 25.39 4.83797L24.66 2.76945C24.5 2.29979 24.07 2 23.57 2C23.07 2 22.65 2.29979 22.48 2.76945L21.75 4.83797C21.58 5.31763 21.21 5.68737 20.73 5.85724L18.66 6.58672C18.19 6.74661 17.89 7.1763 17.89 7.67595C17.89 8.17559 18.19 8.59529 18.66 8.76517ZM21.22 7.28622C22.13 6.96645 22.84 6.25696 23.16 5.34761L23.56 4.21842L23.96 5.34761C24.28 6.25696 24.99 6.96645 25.9 7.28622L27.03 7.68594L25.9 8.08565C24.99 8.40543 24.28 9.11492 23.96 10.0243L23.56 11.1535L23.16 10.0243C22.84 9.11492 22.13 8.40543 21.22 8.08565L20.09 7.68594L21.22 7.28622Z" fill="black"/>
</svg>
