<svg width="32" height="32" viewBox="0 0 32 32" fill="none" xmlns="http://www.w3.org/2000/svg">
<path d="M22.5 2C18.36 2 15 5.36 15 9.5C15 13.64 18.36 17 22.5 17C26.64 17 30 13.64 30 9.5C30 5.36 26.64 2 22.5 2ZM26 10.25H23.25V13C23.25 13.41 22.91 13.75 22.5 13.75C22.09 13.75 21.75 13.41 21.75 13V10.25H19C18.59 10.25 18.25 9.91 18.25 9.5C18.25 9.09 18.59 8.75 19 8.75H21.75V6C21.75 5.59 22.09 5.25 22.5 5.25C22.91 5.25 23.25 5.59 23.25 6V8.75H26C26.41 8.75 26.75 9.09 26.75 9.5C26.75 9.91 26.41 10.25 26 10.25Z" fill="black"/>
<path d="M24.5 21H18.5V17.55C17.97 17.28 17.47 16.97 17 16.61V21H11V15H15.39C15.03 14.53 14.71 14.03 14.45 13.5H3.5V9.75C3.5 8.51 4.51 7.5 5.75 7.5H13.73C13.85 6.98 14 6.48 14.21 6H5.75C3.68 6 2 7.68 2 9.75V26.25C2 28.32 3.68 30 5.75 30H22.25C24.32 30 26 28.32 26 26.25V17.79C25.52 17.99 25.02 18.15 24.5 18.27V21ZM9.5 28.5H5.75C4.51 28.5 3.5 27.49 3.5 26.25V22.5H9.5V28.5ZM9.5 21H3.5V15H9.5V21ZM17 28.5H11V22.5H17V28.5ZM24.5 26.25C24.5 27.49 23.49 28.5 22.25 28.5H18.5V22.5H24.5V26.25Z" fill="black"/>
</svg>
