<svg width="32" height="32" viewBox="0 0 32 32" fill="none" xmlns="http://www.w3.org/2000/svg">
<path d="M4.75007 6.77C4.84987 6.7687 4.94845 6.74774 5.04016 6.70834C5.13186 6.66894 5.21491 6.61185 5.28456 6.54035C5.3542 6.46885 5.40908 6.38432 5.44606 6.29161C5.48304 6.1989 5.50139 6.09981 5.50007 6V3.5H15.2501V28.5H11.7501C11.5512 28.5 11.3604 28.579 11.2197 28.7197C11.0791 28.8603 11.0001 29.0511 11.0001 29.25C11.0001 29.4489 11.0791 29.6397 11.2197 29.7803C11.3604 29.921 11.5512 30 11.7501 30H20.2501C20.449 30 20.6397 29.921 20.7804 29.7803C20.921 29.6397 21.0001 29.4489 21.0001 29.25C21.0001 29.0511 20.921 28.8603 20.7804 28.7197C20.6397 28.579 20.449 28.5 20.2501 28.5H16.7501V3.5H26.5001V6C26.5001 6.19891 26.5791 6.38968 26.7197 6.53033C26.8604 6.67098 27.0512 6.75 27.2501 6.75C27.449 6.75 27.6397 6.67098 27.7804 6.53033C27.921 6.38968 28.0001 6.19891 28.0001 6V2.75C27.9975 2.55189 27.9176 2.36263 27.7775 2.22253C27.6374 2.08244 27.4482 2.00259 27.2501 2H4.75007C4.55196 2.00259 4.3627 2.08244 4.2226 2.22253C4.08251 2.36263 4.00266 2.55189 4.00007 2.75V6C3.99874 6.09981 4.0171 6.1989 4.05407 6.29161C4.09105 6.38432 4.14593 6.46885 4.21557 6.54035C4.28522 6.61185 4.36827 6.66894 4.45998 6.70834C4.55169 6.74774 4.65026 6.7687 4.75007 6.77Z" fill="black"/>
</svg>
