<svg width="32" height="32" viewBox="0 0 32 32" fill="none" xmlns="http://www.w3.org/2000/svg">
<path d="M23.25 16.5C19.53 16.5 16.5 19.53 16.5 23.25C16.5 26.97 19.53 30 23.25 30C26.97 30 30 26.97 30 23.25C30 19.53 26.97 16.5 23.25 16.5ZM26.38 25.27C26.23 25.49 25.99 25.62 25.75 25.62C25.61 25.62 25.47 25.58 25.34 25.5L22.84 23.88C22.63 23.74 22.5 23.51 22.5 23.25V19.88C22.5 19.47 22.83 19.13 23.25 19.13C23.67 19.13 24 19.47 24 19.88V22.84L26.15 24.24C26.5 24.46 26.6 24.92 26.38 25.27Z" fill="black"/>
<path d="M26.25 5.34H23.02V2.75C23.02 2.34 22.68 2 22.27 2C21.86 2 21.52 2.34 21.52 2.75V5.34H10.47V2.75C10.47 2.34 10.13 2 9.72 2C9.31 2 8.97 2.34 8.97 2.75V5.34H5.75C3.68 5.34 2 7.02 2 9.09V26.24C2 28.31 3.68 29.99 5.75 29.99H16.5C16.91 29.99 17.25 29.65 17.25 29.24C17.25 28.83 16.91 28.49 16.5 28.49H5.75C4.51 28.49 3.5 27.48 3.5 26.24V14.89H28.5V16.49C28.5 16.9 28.84 17.24 29.25 17.24C29.66 17.24 30 16.9 30 16.49V9.09C30 7.02 28.32 5.34 26.25 5.34ZM28.5 13.4H3.5V9.09C3.5 7.85 4.51 6.84 5.75 6.84H8.97V9.51C8.97 9.92 9.31 10.26 9.72 10.26C10.13 10.26 10.47 9.92 10.47 9.51V6.84H21.52V9.51C21.52 9.92 21.86 10.26 22.27 10.26C22.68 10.26 23.02 9.92 23.02 9.51V6.84H26.25C27.49 6.84 28.5 7.85 28.5 9.09V13.4Z" fill="black"/>
</svg>
