<svg width="32" height="32" viewBox="0 0 32 32" fill="none" xmlns="http://www.w3.org/2000/svg">
<path d="M23.22 15.32C22.98 14.7 22.39 14.31 21.73 14.31C21.07 14.31 20.49 14.71 20.24 15.32L17.03 23.51C16.88 23.9 17.07 24.33 17.45 24.48C17.83 24.63 18.27 24.44 18.42 24.06L19.73 20.73H23.72L25.03 24.06C25.15 24.36 25.43 24.54 25.73 24.54C25.82 24.54 25.91 24.52 26 24.49C26.39 24.34 26.58 23.9 26.42 23.52L23.21 15.33L23.22 15.32ZM20.33 19.23L21.65 15.87C21.65 15.87 21.82 15.83 21.83 15.87L23.15 19.23H20.33Z" fill="black"/>
<path d="M25.25 7.48H20.02L20.68 5.72C21 4.88 20.88 3.93 20.37 3.19C19.86 2.45 19.01 2 18.11 2H6.75C4.13 2 2 4.13 2 6.75V19.78C2 22.4 4.13 24.53 6.75 24.53H11.98L11.32 26.28C11 27.12 11.12 28.07 11.63 28.81C12.14 29.55 12.99 30 13.89 30H25.25C27.87 30 30 27.87 30 25.25V12.23C30 9.61 27.87 7.48 25.25 7.48ZM6.75 23.03C4.96 23.03 3.5 21.57 3.5 19.78V6.75C3.5 4.96 4.96 3.5 6.75 3.5H18.11C18.53 3.5 18.9 3.7 19.14 4.04C19.38 4.38 19.43 4.8 19.28 5.19L12.55 23.03H6.75ZM28.5 25.25C28.5 27.04 27.04 28.5 25.25 28.5H13.89C13.47 28.5 13.1 28.3 12.86 27.96C12.62 27.62 12.57 27.2 12.72 26.81L19.45 8.98H25.25C27.04 8.98 28.5 10.44 28.5 12.23V25.25Z" fill="black"/>
<path d="M13.97 7.49H10.72V6.74C10.72 6.33 10.38 5.99 9.97 5.99C9.56 5.99 9.22 6.33 9.22 6.74V7.49H5.97C5.56 7.49 5.22 7.83 5.22 8.24C5.22 8.65 5.56 8.99 5.97 8.99H11.61C11.37 10.01 10.71 11.2 9.97 12.27C9.65 11.8 9.33 11.31 9.06 10.8C8.86 10.43 8.41 10.3 8.04 10.49C7.68 10.69 7.54 11.14 7.73 11.51C8.09 12.19 8.54 12.88 9.02 13.53C8.32 14.39 7.69 15.03 7.4 15.2C7.04 15.41 6.92 15.87 7.13 16.22C7.27 16.46 7.52 16.59 7.78 16.59C7.91 16.59 8.04 16.56 8.16 16.49C8.51 16.28 9.2 15.62 9.96 14.73C10.67 15.58 11.35 16.24 11.77 16.49C11.89 16.56 12.02 16.59 12.15 16.59C12.41 16.59 12.66 16.46 12.8 16.22C13.01 15.86 12.89 15.4 12.53 15.2C12.28 15.05 11.63 14.41 10.91 13.53C11.93 12.12 12.88 10.45 13.14 8.99H13.97C14.38 8.99 14.72 8.65 14.72 8.24C14.72 7.83 14.38 7.49 13.97 7.49Z" fill="black"/>
</svg>
