<svg width="32" height="32" viewBox="0 0 32 32" fill="none" xmlns="http://www.w3.org/2000/svg">
<path d="M15.67 25.76C16.3057 25.762 16.9277 25.5751 17.4571 25.2232C17.9865 24.8712 18.3995 24.37 18.6437 23.783C18.8879 23.1961 18.9523 22.5498 18.8288 21.9262C18.7053 21.3026 18.3993 20.7297 17.9498 20.2802C17.5003 19.8307 16.9274 19.5247 16.3038 19.4012C15.6802 19.2777 15.0339 19.3421 14.447 19.5863C13.86 19.8305 13.3588 20.2435 13.0068 20.7729C12.6549 21.3023 12.468 21.9243 12.47 22.56C12.4726 23.4079 12.8106 24.2203 13.4102 24.8198C14.0097 25.4194 14.8221 25.7574 15.67 25.76ZM15.67 20.85C16.0098 20.8421 16.3443 20.9355 16.6307 21.1185C16.9171 21.3015 17.1425 21.5657 17.2781 21.8774C17.4136 22.1891 17.4533 22.5341 17.3919 22.8684C17.3305 23.2027 17.1709 23.5111 16.9334 23.7543C16.6959 23.9975 16.3913 24.1643 16.0586 24.2336C15.7258 24.3029 15.38 24.2715 15.0652 24.1433C14.7504 24.0151 14.4809 23.7961 14.2912 23.514C14.1015 23.232 14.0001 22.8999 14 22.56C13.9999 22.1133 14.1745 21.6843 14.4866 21.3648C14.7987 21.0452 15.2234 20.8604 15.67 20.85Z" fill="black"/>
<path d="M7.75 30H23.6C24.3293 30 25.0288 29.7103 25.5445 29.1945C26.0603 28.6788 26.35 27.9793 26.35 27.25V17.87C26.35 17.1407 26.0603 16.4412 25.5445 15.9255C25.0288 15.4097 24.3293 15.12 23.6 15.12H10.39V8.78C10.39 7.37303 10.9489 6.02368 11.9438 5.0288C12.9387 4.03392 14.288 3.475 15.695 3.475C17.102 3.475 18.4513 4.03392 19.4462 5.0288C20.4411 6.02368 21 7.37303 21 8.78C21 8.97891 21.079 9.16968 21.2197 9.31033C21.3603 9.45098 21.5511 9.53 21.75 9.53C21.9489 9.53 22.1397 9.45098 22.2803 9.31033C22.421 9.16968 22.5 8.97891 22.5 8.78C22.5 6.98183 21.7857 5.25731 20.5142 3.98582C19.2427 2.71432 17.5182 2 15.72 2C13.9218 2 12.1973 2.71432 10.9258 3.98582C9.65432 5.25731 8.94 6.98183 8.94 8.78V15.12H7.75C7.02065 15.12 6.32118 15.4097 5.80546 15.9255C5.28973 16.4412 5 17.1407 5 17.87V27.25C5 27.9793 5.28973 28.6788 5.80546 29.1945C6.32118 29.7103 7.02065 30 7.75 30ZM6.5 17.87C6.5 17.5385 6.6317 17.2205 6.86612 16.9861C7.10054 16.7517 7.41848 16.62 7.75 16.62H23.6C23.9315 16.62 24.2495 16.7517 24.4839 16.9861C24.7183 17.2205 24.85 17.5385 24.85 17.87V27.25C24.85 27.5815 24.7183 27.8995 24.4839 28.1339C24.2495 28.3683 23.9315 28.5 23.6 28.5H7.75C7.41848 28.5 7.10054 28.3683 6.86612 28.1339C6.6317 27.8995 6.5 27.5815 6.5 27.25V17.87Z" fill="black"/>
</svg>
