<svg width="32" height="32" viewBox="0 0 32 32" fill="none" xmlns="http://www.w3.org/2000/svg">
<path d="M16 13.6C17.1476 13.602 18.2699 13.2635 19.225 12.6274C20.1801 11.9913 20.9251 11.0861 21.3656 10.0265C21.8061 8.96686 21.9224 7.80036 21.6998 6.67461C21.4771 5.54886 20.9255 4.51447 20.1148 3.70232C19.304 2.89018 18.2706 2.33679 17.1452 2.11218C16.0198 1.88758 14.8531 2.00185 13.7928 2.44054C12.7324 2.87924 11.8259 3.62263 11.1882 4.57665C10.5504 5.53067 10.21 6.65244 10.21 7.79999C10.21 9.33652 10.8197 10.8103 11.9052 11.8977C12.9908 12.9851 14.4635 13.5973 16 13.6ZM16 3.49999C16.8509 3.49802 17.6832 3.74852 18.3917 4.21981C19.1001 4.69109 19.6528 5.36197 19.9798 6.14751C20.3068 6.93306 20.3934 7.79796 20.2286 8.63274C20.0638 9.46751 19.6551 10.2346 19.0541 10.837C18.4531 11.4394 17.687 11.8499 16.8526 12.0166C16.0182 12.1834 15.1531 12.0988 14.3668 11.7736C13.5805 11.4485 12.9083 10.8973 12.4354 10.19C11.9624 9.48264 11.71 8.65088 11.71 7.79999C11.71 6.66129 12.1617 5.56908 12.9659 4.76296C13.7701 3.95685 14.8613 3.50264 16 3.49999Z" fill="black"/>
<path d="M16 15.47C13.3478 15.47 10.8043 16.5236 8.92893 18.3989C7.05357 20.2743 6 22.8178 6 25.47V29.27C6.00767 29.4646 6.08976 29.6488 6.22932 29.7847C6.36888 29.9205 6.55526 29.9976 6.75 30C6.94811 29.9974 7.13737 29.9176 7.27747 29.7775C7.41756 29.6374 7.49741 29.4481 7.5 29.25V25.45C7.5 23.1957 8.39553 21.0336 9.98959 19.4396C11.5837 17.8455 13.7457 16.95 16 16.95C18.2543 16.95 20.4163 17.8455 22.0104 19.4396C23.6045 21.0336 24.5 23.1957 24.5 25.45V29.25C24.5 29.4489 24.579 29.6397 24.7197 29.7803C24.8603 29.921 25.0511 30 25.25 30C25.4489 30 25.6397 29.921 25.7803 29.7803C25.921 29.6397 26 29.4489 26 29.25V25.45C25.9947 22.8013 24.9388 20.2629 23.064 18.3919C21.1892 16.5208 18.6487 15.47 16 15.47Z" fill="black"/>
</svg>
