<svg width="32" height="32" viewBox="0 0 32 32" fill="none" xmlns="http://www.w3.org/2000/svg">
<path d="M11 12.4962C12.0375 12.4903 13.0499 12.1772 13.9096 11.5965C14.7692 11.0158 15.4374 10.1935 15.8299 9.23341C16.2223 8.27335 16.3214 7.21858 16.1147 6.20225C15.9079 5.18593 15.4046 4.25363 14.6682 3.52306C13.9318 2.7925 12.9953 2.29642 11.9771 2.09747C10.9589 1.89852 9.9045 2.00561 8.94711 2.40523C7.98972 2.80484 7.17224 3.47906 6.59788 4.34277C6.02353 5.20647 5.71804 6.22092 5.72 7.25805C5.72131 7.94893 5.85906 8.63276 6.12536 9.2703C6.39166 9.90784 6.78126 10.4865 7.27182 10.9732C7.76238 11.4599 8.34424 11.8449 8.98401 12.1063C9.62378 12.3676 10.3089 12.5001 11 12.4962ZM11 3.49938C11.7399 3.5053 12.4616 3.72993 13.0741 4.14498C13.6866 4.56003 14.1626 5.14695 14.4421 5.83185C14.7217 6.51675 14.7922 7.26901 14.645 7.99392C14.4977 8.71884 14.1392 9.384 13.6146 9.90566C13.09 10.4273 12.4227 10.7822 11.6967 10.9255C10.9708 11.0689 10.2187 10.9943 9.535 10.7113C8.85135 10.4282 8.26676 9.9493 7.85481 9.33482C7.44287 8.72033 7.222 7.99775 7.22 7.25805C7.21998 6.76323 7.31797 6.27331 7.50829 5.81653C7.69862 5.35976 7.97753 4.94517 8.32893 4.59668C8.68034 4.24819 9.09728 3.97269 9.55572 3.78608C10.0142 3.59946 10.505 3.50542 11 3.50938V3.49938ZM15.58 17.4344C14.4783 16.585 13.1607 16.0609 11.7764 15.9216C10.3921 15.7823 8.99636 16.0332 7.74739 16.646C6.49841 17.2589 5.44606 18.2091 4.70952 19.389C3.97299 20.569 3.58171 21.9315 3.58 23.3223V26.7111C3.57741 26.9092 3.49756 27.0984 3.35747 27.2384C3.21737 27.3785 3.02811 27.4583 2.83 27.4609C2.72613 27.4705 2.6214 27.4586 2.52231 27.4261C2.42323 27.3935 2.33191 27.3408 2.25405 27.2715C2.17619 27.2021 2.11346 27.1174 2.06975 27.0227C2.02604 26.928 2.0023 26.8254 2 26.7211V23.3323C2 20.9462 2.94821 18.6579 4.63604 16.9706C6.32387 15.2834 8.61305 14.3355 11 14.3355C12.9951 14.3308 14.9332 15.0001 16.5 16.2349C16.5784 16.2946 16.6441 16.3693 16.6931 16.4548C16.7422 16.5402 16.7738 16.6346 16.7859 16.7323C16.798 16.8301 16.7904 16.9293 16.7637 17.0241C16.7369 17.1189 16.6915 17.2075 16.63 17.2845C16.5706 17.3687 16.4947 17.4399 16.4069 17.4938C16.3191 17.5478 16.2213 17.5833 16.1193 17.5982C16.0174 17.6132 15.9134 17.6073 15.8139 17.5808C15.7143 17.5544 15.6211 17.508 15.54 17.4444L15.58 17.4344ZM30 18.1042C29.9974 20.0317 29.2309 21.8797 27.8684 23.2437C26.5058 24.6076 24.6582 25.3763 22.73 25.3816H17.81L21.14 28.7204C21.2108 28.7893 21.267 28.8717 21.3054 28.9627C21.3438 29.0537 21.3636 29.1515 21.3636 29.2502C21.3636 29.349 21.3438 29.4467 21.3054 29.5377C21.267 29.6287 21.2108 29.7111 21.14 29.78C21.0711 29.8506 20.9886 29.9064 20.8975 29.9442C20.8064 29.982 20.7086 30.001 20.61 30C20.5115 30.0004 20.4138 29.9812 20.3228 29.9434C20.2318 29.9057 20.1492 29.8501 20.08 29.78L15.47 25.1617C15.3295 25.0211 15.2507 24.8305 15.2507 24.6319C15.2507 24.4332 15.3295 24.2426 15.47 24.1021L20.08 19.4837C20.2206 19.3433 20.4112 19.2644 20.61 19.2644C20.8088 19.2644 20.9994 19.3433 21.14 19.4837C21.2108 19.5526 21.267 19.635 21.3054 19.726C21.3438 19.817 21.3636 19.9148 21.3636 20.0135C21.3636 20.1123 21.3438 20.21 21.3054 20.301C21.267 20.392 21.2108 20.4744 21.14 20.5433L17.81 23.8821H22.73C24.263 23.8821 25.7331 23.2734 26.8171 22.1898C27.901 21.1062 28.51 19.6366 28.51 18.1042C28.51 16.5718 27.901 15.1021 26.8171 14.0186C25.7331 12.935 24.263 12.3262 22.73 12.3262H20.34C20.1411 12.3262 19.9503 12.2473 19.8097 12.1067C19.669 11.9661 19.59 11.7754 19.59 11.5765C19.59 11.3777 19.669 11.187 19.8097 11.0464C19.9503 10.9058 20.1411 10.8268 20.34 10.8268H22.73C24.659 10.8294 26.5082 11.5973 27.8713 12.9618C29.2344 14.3263 30 16.1758 30 18.1042Z" fill="black"/>
</svg>
