<svg width="32" height="32" viewBox="0 0 32 32" fill="none" xmlns="http://www.w3.org/2000/svg">
<path d="M7.53 5.24057C7.24 4.9351 6.77 4.9351 6.47 5.23039C3.59 8.07123 2 11.8998 2 16.0032C2 20.1066 3.59 23.9351 6.47 26.7862C6.62 26.9287 6.8 27 6.99 27C7.18 27 7.38 26.9185 7.53 26.7658C7.82 26.4603 7.81 25.9818 7.51 25.6865C4.92 23.1308 3.5 19.6892 3.5 16.0032C3.5 12.3172 4.92 8.87563 7.51 6.31989C7.81 6.0246 7.81 5.54604 7.53 5.24057Z" fill="black"/>
<path d="M21.17 9.52729C20.85 9.26255 20.38 9.31346 20.12 9.6393L15.98 14.8221L11.75 9.52729C11.49 9.20146 11.01 9.15055 10.7 9.41529C10.38 9.68002 10.33 10.1586 10.59 10.4946L15.02 16.0439L10.73 21.41C10.47 21.7358 10.52 22.2144 10.84 22.4893C10.98 22.6013 11.15 22.6624 11.31 22.6624C11.53 22.6624 11.74 22.5707 11.89 22.3773L15.98 17.2556L19.98 22.2551C20.13 22.4384 20.34 22.5402 20.56 22.5402C20.73 22.5402 20.89 22.4893 21.03 22.3671C21.35 22.1023 21.4 21.6238 21.14 21.2878L16.95 16.0439L21.29 10.6168C21.55 10.291 21.5 9.81239 21.18 9.53747L21.17 9.52729Z" fill="black"/>
<path d="M25.55 5.22021C25.25 4.92492 24.78 4.92492 24.49 5.23039C24.2 5.53586 24.2 6.01442 24.5 6.30971C27.08 8.88581 28.5 12.3274 28.5 15.993C28.5 19.6586 27.08 23.1002 24.5 25.6763C24.2 25.9716 24.2 26.4502 24.49 26.7556C24.64 26.9084 24.83 26.9898 25.03 26.9898C25.23 26.9898 25.41 26.9185 25.55 26.776C28.42 23.9148 30 20.0863 30 16.0032C30 11.9201 28.42 8.0916 25.55 5.22021Z" fill="black"/>
</svg>
