<svg width="32" height="32" viewBox="0 0 32 32" fill="none" xmlns="http://www.w3.org/2000/svg">
<path d="M8.29 6.23088C8 5.93772 7.53 5.93772 7.23 6.22111C4.5 8.80097 3 12.2799 3 16.0031C3 19.7263 4.5 23.2052 7.23 25.7948C7.38 25.9316 7.56 26 7.75 26C7.94 26 8.14 25.9218 8.29 25.7752C8.58 25.4821 8.57 25.0228 8.27 24.7394C5.84 22.4332 4.5 19.3256 4.5 16.0031C4.5 12.6805 5.84 9.57297 8.27 7.26673C8.57 6.98334 8.57 6.52405 8.29 6.23088Z" fill="black"/>
<path d="M21.15 10.1104C20.83 9.85636 20.36 9.90522 20.1 10.2179L16.22 14.8695L12.26 10.1104C12 9.79773 11.53 9.74887 11.21 10.0029C10.89 10.257 10.84 10.7163 11.1 11.0388L15.26 16.0324L11.24 20.8598C10.98 21.1725 11.03 21.6318 11.35 21.8957C11.49 22.0032 11.66 22.0618 11.82 22.0618C12.04 22.0618 12.25 21.9739 12.4 21.7882L16.23 17.1953L19.97 21.6807C20.12 21.8566 20.33 21.9543 20.55 21.9543C20.72 21.9543 20.88 21.8957 21.02 21.7882C21.34 21.5341 21.39 21.0748 21.13 20.7621L17.2 16.0324L21.27 11.1463C21.53 10.8336 21.48 10.3743 21.16 10.1104H21.15Z" fill="black"/>
<path d="M25.29 6.21134C24.99 5.92795 24.52 5.92795 24.23 6.22111C23.94 6.51428 23.94 6.97357 24.24 7.25696C26.67 9.58274 28 12.6805 28 15.9933C28 19.3061 26.66 22.4136 24.24 24.7296C23.94 25.013 23.94 25.4723 24.23 25.7655C24.38 25.9121 24.57 25.9902 24.77 25.9902C24.97 25.9902 25.15 25.9218 25.29 25.785C28.01 23.1856 29.5 19.7067 29.5 15.9933C29.5 12.2799 28 8.82051 25.29 6.21134Z" fill="black"/>
</svg>
