<svg width="32" height="32" viewBox="0 0 32 32" fill="none" xmlns="http://www.w3.org/2000/svg">
<path d="M16 2C12.287 2 8.72601 3.475 6.1005 6.1005C3.475 8.72601 2 12.287 2 16H2C2 19.713 3.475 23.274 6.1005 25.8995C8.72601 28.525 12.287 30 16 30C19.713 30 23.274 28.525 25.8995 25.8995C28.525 23.274 30 19.713 30 16C30 12.287 28.525 8.72601 25.8995 6.1005C23.274 3.475 19.713 2 16 2V2ZM21.2302 21.0189L16.9298 25.3192C16.6811 25.5619 16.3475 25.6977 16 25.6977C15.6525 25.6977 15.3189 25.5619 15.0702 25.3192L10.7698 21.0189C10.6468 20.8962 10.5492 20.7504 10.4826 20.59C10.4161 20.4295 10.3818 20.2575 10.3818 20.0838C10.3818 19.91 10.4161 19.738 10.4826 19.5776C10.5492 19.4171 10.6468 19.2714 10.7698 19.1487C11.0203 18.9053 11.3557 18.7692 11.7049 18.7692C12.0541 18.7692 12.3895 18.9053 12.64 19.1487L16 22.5192L19.36 19.1487C19.6105 18.9053 19.9459 18.7692 20.2951 18.7692C20.6443 18.7692 20.9797 18.9053 21.2302 19.1487C21.3532 19.2714 21.4508 19.4171 21.5174 19.5776C21.5839 19.738 21.6182 19.91 21.6182 20.0838C21.6182 20.2575 21.5839 20.4295 21.5174 20.59C21.4508 20.7504 21.3532 20.8962 21.2302 21.0189ZM21.2302 14.1087L16.9298 18.4091C16.6811 18.6517 16.3475 18.7876 16 18.7876C15.6525 18.7876 15.3189 18.6517 15.0702 18.4091L10.7698 14.1298C10.5456 13.8776 10.4264 13.549 10.4368 13.2117C10.4472 12.8743 10.5863 12.5537 10.8257 12.3158C11.065 12.0778 11.3864 11.9404 11.7238 11.932C12.0612 11.9235 12.389 12.0445 12.64 12.2702L14.6792 14.3094V7.6C14.6792 7.24971 14.8184 6.91378 15.0661 6.66609C15.3138 6.4184 15.6497 6.27925 16 6.27925C16.3503 6.27925 16.6862 6.4184 16.9339 6.66609C17.1816 6.91378 17.3208 7.24971 17.3208 7.6V14.3094L19.36 12.2702C19.611 12.0445 19.9388 11.9235 20.2762 11.932C20.6136 11.9404 20.935 12.0778 21.1743 12.3158C21.4137 12.5537 21.5528 12.8743 21.5632 13.2117C21.5736 13.549 21.4544 13.8776 21.2302 14.1298V14.1087Z" fill="black"/>
</svg>
