<svg width="32" height="32" viewBox="0 0 32 32" fill="none" xmlns="http://www.w3.org/2000/svg">
<path fill-rule="evenodd" clip-rule="evenodd" d="M2.80546 11.9255C3.32118 11.4097 4.02065 11.12 4.75 11.12H13.88C14.2942 11.12 14.63 11.4558 14.63 11.87C14.63 12.2842 14.2942 12.62 13.88 12.62H4.75C4.41848 12.62 4.10054 12.7517 3.86612 12.9861C3.6317 13.2205 3.5 13.5385 3.5 13.87V24.14C3.5 24.4715 3.6317 24.7895 3.86612 25.0239C4.10054 25.2583 4.41848 25.39 4.75 25.39H18.08C18.4115 25.39 18.7295 25.2583 18.9639 25.0239C19.1983 24.7895 19.33 24.4715 19.33 24.14V21C19.33 20.7046 19.5034 20.4368 19.7728 20.3158C20.0423 20.1948 20.3577 20.2433 20.5784 20.4396L26.3584 25.5795C26.3664 25.5867 26.3743 25.594 26.3821 25.6015C26.562 25.776 26.7902 25.8923 27.037 25.9355C27.2839 25.9786 27.538 25.9465 27.7664 25.8435C27.9948 25.7404 28.187 25.571 28.318 25.3574C28.4489 25.1437 28.5126 24.8956 28.5008 24.6453C28.5003 24.6335 28.5 24.6218 28.5 24.61V18.71C28.5 18.2958 28.8358 17.96 29.25 17.96C29.6642 17.96 30 18.2958 30 18.71V24.5938C30.0219 25.138 29.8816 25.6766 29.5968 26.1412C29.3087 26.6113 28.886 26.9839 28.3835 27.2107C27.881 27.4375 27.3219 27.508 26.7788 27.4131C26.2415 27.3192 25.7443 27.0676 25.3505 26.6906L20.83 22.6706V24.14C20.83 24.8693 20.5403 25.5688 20.0245 26.0845C19.5088 26.6003 18.8093 26.89 18.08 26.89H4.75C4.02066 26.89 3.32118 26.6003 2.80546 26.0845C2.28973 25.5688 2 24.8693 2 24.14V13.87C2 13.1407 2.28973 12.4412 2.80546 11.9255Z" fill="black"/>
<path d="M6.1 24.1C6.82349 24.1 7.41 23.5135 7.41 22.79C7.41 22.0665 6.82349 21.48 6.1 21.48C5.37651 21.48 4.79 22.0665 4.79 22.79C4.79 23.5135 5.37651 24.1 6.1 24.1Z" fill="black"/>
<path d="M23.19 18.5C21.855 18.5 20.5499 18.1041 19.4399 17.3624C18.3299 16.6207 17.4647 15.5665 16.9538 14.3331C16.4429 13.0997 16.3092 11.7425 16.5697 10.4331C16.8301 9.12377 17.473 7.92104 18.417 6.97703C19.361 6.03303 20.5638 5.39015 21.8731 5.1297C23.1825 4.86925 24.5397 5.00292 25.7731 5.51382C27.0065 6.02471 28.0607 6.88987 28.8024 7.9999C29.5441 9.10994 29.94 10.415 29.94 11.75C29.9374 13.5394 29.2253 15.2548 27.96 16.5201C26.6948 17.7853 24.9794 18.4974 23.19 18.5ZM26.29 11.5C26.1494 11.3596 25.9588 11.2807 25.76 11.2807C25.5612 11.2807 25.3706 11.3596 25.23 11.5L23.94 12.83V8.83C23.94 8.63109 23.861 8.44033 23.7203 8.29967C23.5797 8.15902 23.3889 8.08 23.19 8.08C22.9911 8.08 22.8003 8.15902 22.6597 8.29967C22.519 8.44033 22.44 8.63109 22.44 8.83V12.83L21.16 11.5C21.0194 11.3596 20.8288 11.2807 20.63 11.2807C20.4312 11.2807 20.2406 11.3596 20.1 11.5C20.0292 11.5689 19.973 11.6514 19.9346 11.7424C19.8962 11.8334 19.8764 11.9312 19.8764 12.03C19.8764 12.1288 19.8962 12.2266 19.9346 12.3176C19.973 12.4086 20.0292 12.4911 20.1 12.56L22.66 15.13C22.7294 15.1978 22.8107 15.2521 22.9 15.29C23.087 15.3598 23.293 15.3598 23.48 15.29C23.5693 15.2521 23.6506 15.1978 23.72 15.13L26.29 12.6C26.3657 12.5298 26.4261 12.4447 26.4675 12.3501C26.5088 12.2554 26.5301 12.1533 26.5301 12.05C26.5301 11.9467 26.5088 11.8446 26.4675 11.7499C26.4261 11.6553 26.3657 11.5702 26.29 11.5Z" fill="black"/>
</svg>
