<svg width="32" height="32" viewBox="0 0 32 32" fill="none" xmlns="http://www.w3.org/2000/svg">
<path d="M6.0889 24.0924C6.8122 24.0924 7.39855 23.506 7.39855 22.7827C7.39855 22.0594 6.8122 21.4731 6.0889 21.4731C5.36561 21.4731 4.77926 22.0594 4.77926 22.7827C4.77926 23.506 5.36561 24.0924 6.0889 24.0924Z" fill="black"/>
<path d="M29.2427 20.2834C28.8328 20.2834 28.4929 20.6233 28.4929 21.0332V24.6322C28.4929 25.1521 28.203 25.602 27.7331 25.8119C27.2532 26.0219 26.7334 25.9519 26.3435 25.602L20.565 20.4634C20.3451 20.2634 20.0252 20.2234 19.7552 20.3434C19.4853 20.4634 19.3154 20.7333 19.3154 21.0332V24.1324C19.3154 24.8222 18.7555 25.382 18.0657 25.382H4.74926C4.05945 25.382 3.4996 24.8222 3.4996 24.1324V13.8651C3.4996 13.1653 4.04945 12.6155 4.74926 12.6155H14.5066C14.9165 12.6155 15.2564 12.2756 15.2564 11.8657C15.2564 11.4558 14.9165 11.1159 14.5066 11.1159H4.74926C3.22967 11.1159 2 12.3455 2 13.8651V24.1324C2 25.652 3.22967 26.8816 4.74926 26.8816H18.0657C19.5853 26.8816 20.815 25.652 20.815 24.1324V22.7028L25.3437 26.7317C25.8736 27.2016 26.5234 27.4415 27.1833 27.4415C27.5732 27.4415 27.963 27.3615 28.3429 27.1916C29.3627 26.7317 29.9925 25.7619 29.9925 24.6422V21.0432C29.9925 20.6333 29.6526 20.2934 29.2427 20.2934V20.2834Z" fill="black"/>
<path d="M20.0452 11.1459L23.6342 7.55682V17.2342C23.6342 17.6441 23.9741 17.984 24.384 17.984C24.7939 17.984 25.1338 17.6441 25.1338 17.2342V7.55682L28.7228 11.1459C28.8728 11.2958 29.0627 11.3658 29.2527 11.3658C29.4426 11.3658 29.6326 11.2958 29.7826 11.1459C30.0725 10.8559 30.0725 10.3761 29.7826 10.0861L24.9039 5.21744C24.6139 4.92752 24.1341 4.92752 23.8441 5.21744L18.9755 10.0861C18.6855 10.3761 18.6855 10.8559 18.9755 11.1459C19.2654 11.4358 19.7452 11.4358 20.0352 11.1459H20.0452Z" fill="black"/>
</svg>
