<svg width="32" height="32" viewBox="0 0 32 32" fill="none" xmlns="http://www.w3.org/2000/svg">
<path d="M15.9799 24.3682C16.7013 24.3682 17.2862 23.7834 17.2862 23.0619C17.2862 22.3405 16.7013 21.7556 15.9799 21.7556C15.2584 21.7556 14.6736 22.3405 14.6736 23.0619C14.6736 23.7834 15.2584 24.3682 15.9799 24.3682Z" fill="black"/>
<path d="M15.9799 19.492C16.0785 19.4934 16.1763 19.4749 16.2677 19.4378C16.359 19.4007 16.442 19.3457 16.5117 19.276C16.5814 19.2062 16.6365 19.1233 16.6736 19.0319C16.7107 18.9406 16.7291 18.8427 16.7278 18.7441V11.0061C16.7278 10.8077 16.649 10.6175 16.5087 10.4772C16.3685 10.337 16.1782 10.2582 15.9799 10.2582C15.7815 10.2582 15.5913 10.337 15.4511 10.4772C15.3108 10.6175 15.232 10.8077 15.232 11.0061V18.7441C15.232 18.9425 15.3108 19.1327 15.4511 19.273C15.5913 19.4132 15.7815 19.492 15.9799 19.492Z" fill="black"/>
<path d="M29.5415 24.1987L18.5726 4.86347C18.3171 4.38609 17.9368 3.987 17.4723 3.70876C17.0078 3.43052 16.4765 3.28357 15.935 3.28357C15.3936 3.28357 14.8623 3.43052 14.3978 3.70876C13.9333 3.987 13.553 4.38609 13.2975 4.86347L2.41833 24.1987C2.14816 24.6543 2.00383 25.1735 2.00008 25.7032C1.99632 26.2329 2.13329 26.7541 2.39698 27.2136C2.66066 27.673 3.04161 28.0542 3.50088 28.3181C3.96015 28.5821 4.48128 28.7193 5.01098 28.7159H26.9488C27.4819 28.7265 28.0081 28.5945 28.473 28.3335C28.9379 28.0724 29.3246 27.6919 29.5931 27.2312C29.8616 26.7706 30.002 26.2465 30 25.7134C29.9979 25.1802 29.8534 24.6572 29.5814 24.1987H29.5415ZM28.2352 26.4623C28.1095 26.6963 27.9245 26.8932 27.6987 27.0332C27.4729 27.1732 27.2143 27.2514 26.9488 27.26H5.01098C4.74262 27.2624 4.47843 27.1935 4.24541 27.0604C4.0124 26.9272 3.81892 26.7346 3.68474 26.5022C3.55276 26.2696 3.48337 26.0067 3.48337 25.7393C3.48337 25.4719 3.55276 25.2091 3.68474 24.9765L14.6537 5.64127C14.7876 5.40484 14.9818 5.20818 15.2166 5.07135C15.4513 4.93452 15.7182 4.86242 15.9899 4.86242C16.2616 4.86242 16.5284 4.93452 16.7632 5.07135C16.9979 5.20818 17.1922 5.40484 17.3261 5.64127L28.295 24.9765C28.4135 25.2084 28.4703 25.467 28.4598 25.7272C28.4493 25.9875 28.372 26.2406 28.2352 26.4623Z" fill="black"/>
</svg>
