<svg width="32" height="32" viewBox="0 0 32 32" fill="none" xmlns="http://www.w3.org/2000/svg">
<path d="M5.01098 28.6938H26.9488C27.4819 28.7044 28.0081 28.5724 28.473 28.3113C28.9379 28.0503 29.3246 27.6698 29.5931 27.2091C29.8616 26.7484 30.002 26.2244 30 25.6912C29.9979 25.1581 29.8534 24.6351 29.5814 24.1766L18.6124 4.84135C18.3467 4.37494 17.9622 3.98718 17.4981 3.71746C17.034 3.44774 16.5067 3.30566 15.9699 3.30566C15.4331 3.30566 14.9059 3.44774 14.4418 3.71746C13.9776 3.98718 13.5932 4.37494 13.3274 4.84135L2.41833 24.1766C2.14816 24.6322 2.00383 25.1514 2.00008 25.6811C1.99632 26.2108 2.13329 26.732 2.39698 27.1914C2.66066 27.6509 3.04161 28.032 3.50088 28.296C3.96015 28.5599 4.48128 28.6972 5.01098 28.6938ZM14.4442 10.7446C14.4442 10.3479 14.6018 9.96746 14.8823 9.68695C15.1629 9.40644 15.5433 9.24886 15.94 9.24886C16.3367 9.24886 16.7172 9.40644 16.9977 9.68695C17.2782 9.96746 17.4358 10.3479 17.4358 10.7446V16.9969C17.4358 17.3936 17.2782 17.7741 16.9977 18.0546C16.7172 18.3351 16.3367 18.4927 15.94 18.4927C15.5433 18.4927 15.1629 18.3351 14.8823 18.0546C14.6018 17.7741 14.4442 17.3936 14.4442 16.9969V10.7446ZM15.9799 21.0055C16.3862 20.9956 16.7862 21.107 17.1289 21.3256C17.4715 21.5441 17.7413 21.8597 17.9037 22.2323C18.0661 22.6048 18.1137 23.0173 18.0406 23.4171C17.9674 23.8169 17.7768 24.1858 17.493 24.4767C17.2092 24.7676 16.8451 24.9673 16.4473 25.0503C16.0494 25.1333 15.6359 25.0958 15.2594 24.9426C14.883 24.7895 14.5607 24.5276 14.3338 24.1905C14.1069 23.8533 13.9857 23.4562 13.9855 23.0497C13.9854 22.5161 14.1939 22.0036 14.5666 21.6216C14.9392 21.2397 15.4464 21.0186 15.9799 21.0055Z" fill="black"/>
</svg>
