<svg width="32" height="32" viewBox="0 0 32 32" fill="none" xmlns="http://www.w3.org/2000/svg">
<path d="M11.3 17.69H9.27V15.64C9.27 15.23 8.93 14.89 8.52 14.89C8.11 14.89 7.77 15.23 7.77 15.64V18.44C7.77 18.85 8.11 19.19 8.52 19.19H11.3C11.71 19.19 12.05 18.85 12.05 18.44C12.05 18.03 11.71 17.69 11.3 17.69Z" fill="black"/>
<path d="M18.45 14.89C18.04 14.89 17.7 15.23 17.7 15.64V17.69H15.65C15.24 17.69 14.9 18.03 14.9 18.44C14.9 18.85 15.24 19.19 15.65 19.19H18.45C18.86 19.19 19.2 18.85 19.2 18.44V15.64C19.2 15.23 18.86 14.89 18.45 14.89Z" fill="black"/>
<path d="M11.31 7.79H8.51C8.1 7.79 7.76 8.13 7.76 8.54V11.34C7.76 11.75 8.1 12.09 8.51 12.09C8.92 12.09 9.26 11.75 9.26 11.34V9.29H11.31C11.72 9.29 12.06 8.95 12.06 8.54C12.06 8.13 11.72 7.79 11.31 7.79Z" fill="black"/>
<path d="M18.45 7.79H15.65C15.24 7.79 14.9 8.13 14.9 8.54C14.9 8.95 15.24 9.29 15.65 9.29H17.7V11.34C17.7 11.75 18.04 12.09 18.45 12.09C18.86 12.09 19.2 11.75 19.2 11.34V8.54C19.2 8.13 18.86 7.79 18.45 7.79Z" fill="black"/>
<path d="M29.78 28.72L22.1 21.04C23.88 19.02 24.96 16.38 24.96 13.48C24.97 7.15 19.81 2 13.48 2C7.15 2 2 7.15 2 13.48C2 19.81 7.15 24.96 13.48 24.96C16.38 24.96 19.02 23.87 21.04 22.1L28.72 29.78C28.87 29.93 29.06 30 29.25 30C29.44 30 29.63 29.93 29.78 29.78C30.07 29.49 30.07 29.01 29.78 28.72ZM13.48 23.47C7.98 23.47 3.5 18.99 3.5 13.49C3.5 7.99 7.98 3.5 13.48 3.5C18.98 3.5 23.46 7.98 23.46 13.48C23.46 18.98 18.98 23.46 13.48 23.46V23.47Z" fill="black"/>
</svg>
