<svg width="48" height="48" viewBox="0 0 70 70" fill="none" xmlns="http://www.w3.org/2000/svg">
<circle cx="35" cy="37" r="30" fill="white"/>
<path d="M17.8571 61.6196V58.1267C17.8571 53.5801 19.6633 49.2198 22.8782 46.0049C26.0931 42.79 30.4534 40.9838 35 40.9838C39.5466 40.9838 43.9069 42.79 47.1218 46.0049C50.3367 49.2198 52.1429 53.5801 52.1429 58.1267V61.6196C57.3842 57.9699 61.324 52.7428 63.3889 46.699C65.4538 40.6551 65.5359 34.11 63.6233 28.0163C61.7107 21.9226 57.9033 16.5983 52.7551 12.8183C47.607 9.03832 41.3868 7 35 7C28.6132 7 22.393 9.03832 17.2449 12.8183C12.0967 16.5983 8.28928 21.9226 6.3767 28.0163C4.46412 34.11 4.54624 40.6551 6.6111 46.699C8.67596 52.7428 12.6158 57.9699 17.8571 61.6196V61.6196ZM35 16.941C36.9453 16.941 38.847 17.5178 40.4644 18.5986C42.0819 19.6794 43.3426 21.2155 44.087 23.0127C44.8315 24.81 45.0262 26.7876 44.6467 28.6955C44.2672 30.6035 43.3304 32.356 41.9549 33.7316C40.5794 35.1071 38.8268 36.0439 36.9189 36.4234C35.0109 36.8029 33.0333 36.6082 31.236 35.8637C29.4388 35.1193 27.9027 33.8586 26.8219 32.2411C25.7411 30.6237 25.1643 28.722 25.1643 26.7767C25.1699 24.1698 26.208 21.6714 28.0514 19.828C29.8947 17.9847 32.3931 16.9466 35 16.941V16.941Z" fill="#0B3363"/>
</svg>
