<svg width="32" height="32" viewBox="0 0 32 32" fill="none" xmlns="http://www.w3.org/2000/svg">
<path d="M16.0034 3C18.165 3 19.9234 4.75412 19.9234 6.92162C19.9234 8.78747 18.6018 10.3516 16.8434 10.7427H16.8389V15.8062H24.2174C26.1662 15.8062 27.751 17.3882 27.751 19.3323V22.7098C29.0458 23.0763 30 24.2505 30 25.6594C30 27.361 28.6168 28.7397 26.911 28.7397C25.2064 28.7397 23.8232 27.361 23.8232 25.6594C23.8232 24.2505 24.7774 23.0763 26.071 22.7098V19.3323C26.071 18.3122 25.24 17.4821 24.2174 17.4821H16.8389V22.7087C18.1336 23.0763 19.0867 24.2505 19.0867 25.6594C19.0867 27.361 17.7046 28.7397 16 28.7397C14.2942 28.7397 12.911 27.361 12.911 25.6594C12.911 24.2516 13.8653 23.0763 15.1589 22.7098V17.4821H7.78144C6.75888 17.4821 5.92672 18.3122 5.92672 19.3323V22.7087C7.22144 23.0751 8.17568 24.2505 8.17568 25.6594C8.17568 27.361 6.79248 28.7397 5.08672 28.7397C3.38208 28.7397 2 27.361 2 25.6594C2 24.2516 2.95312 23.0763 4.24672 22.7098V19.3323C4.24672 17.3882 5.83264 15.8062 7.78144 15.8062H15.1589V10.7416C13.3915 10.3595 12.0722 8.78523 12.0722 6.92162C12.0722 4.75412 13.8306 3 16.0034 3ZM16.0039 4.67591C14.7607 4.67591 13.7527 5.68145 13.7527 6.92162C13.7527 8.15062 14.7607 9.15617 16.0039 9.15617C17.2359 9.15617 18.2439 8.15062 18.2439 6.92162C18.2439 5.68145 17.2359 4.67591 16.0039 4.67591Z" fill="black"/>
</svg>
