<svg width="32" height="32" viewBox="0 0 32 32" fill="none" xmlns="http://www.w3.org/2000/svg">
<path fill-rule="evenodd" clip-rule="evenodd" d="M24.2514 25.8352L19.8219 23.4864C20.8516 22.741 21.9291 21.2957 22.4363 19.7007C22.6656 18.9815 22.7984 18.0264 22.8599 16.8662C22.9088 15.9534 22.9107 15.0649 22.8857 13.9401C22.8857 13.9367 22.8746 13.4491 22.8726 13.3498C22.8522 12.1462 22.0161 10.5777 20.9671 9.62377C19.419 8.21538 17.9829 7.40998 16.0139 7.40998C14.0383 7.40998 12.6002 8.215 11.0518 9.62416C10.0028 10.5777 9.16662 12.1462 9.14661 13.3506C9.14469 13.4491 9.13314 13.9367 9.13314 13.9401C9.10813 15.0649 9.11005 15.9534 9.15893 16.8662C9.22088 18.0264 9.35364 18.9815 9.5826 19.7011C10.0902 21.2961 11.1676 22.741 12.197 23.4864L7.84751 25.9195C4.98378 23.5614 3.15442 19.9904 3.15442 16C3.15442 8.91688 8.91688 3.15442 16.0004 3.15442C23.0835 3.15442 28.8456 8.91688 28.8456 16C28.8456 19.9439 27.0578 23.4768 24.2514 25.8352ZM8.91688 26.7091L13.1598 24.53L13.2386 24.4827C13.311 24.4319 13.3937 24.3591 13.4749 24.2572C13.9036 23.7207 13.7862 23.0012 13.0351 22.5013C12.205 21.9476 11.2319 20.6773 10.7897 19.2874C10.5996 18.6921 10.4796 17.8251 10.4222 16.7558C10.3753 15.8734 10.3734 15.0026 10.398 13.8955C10.398 13.8959 10.4095 13.3972 10.4115 13.2917C10.4249 12.481 11.093 11.228 11.898 10.4957C13.239 9.27591 14.4362 8.60519 16.0139 8.60519C17.5842 8.60519 18.7802 9.27629 20.1209 10.4957C20.9263 11.228 21.5939 12.481 21.6078 13.291C21.6097 13.3972 21.6212 13.8959 21.6212 13.8955C21.6459 15.0026 21.6439 15.8734 21.5966 16.7558C21.5393 17.8251 21.4192 18.6921 21.2295 19.287C20.7874 20.6773 19.8142 21.9476 18.9838 22.5013C18.233 23.0012 18.1153 23.7207 18.544 24.2572C18.6255 24.3591 18.7079 24.4319 18.8183 24.5092C18.8183 24.5092 21.1075 25.6848 23.0916 26.7038C21.0579 28.056 18.6198 28.8456 16.0004 28.8456C13.3837 28.8456 10.949 28.0575 8.91688 26.7091ZM16.0004 2C8.28041 2 2 8.28003 2 16C2 23.7196 8.28041 30 16.0004 30C23.7196 30 30 23.7196 30 16C30 8.28003 23.7196 2 16.0004 2Z" fill="black"/>
</svg>
