<svg width="32" height="32" viewBox="0 0 32 32" fill="none" xmlns="http://www.w3.org/2000/svg">
<path fill-rule="evenodd" clip-rule="evenodd" d="M24.5313 3C25.1288 3 25.7163 3.08974 26.2777 3.26672C26.4563 3.32305 26.5913 3.46128 26.6349 3.63266C26.6787 3.80425 26.6249 3.98462 26.4926 4.11007L24.2579 6.23083V7.26135L25.4544 8.42051H26.5413L28.8086 6.28377C28.9419 6.15792 29.1359 6.10579 29.3204 6.14594C29.505 6.18589 29.6543 6.31273 29.7148 6.48072C29.9041 7.00567 30 7.55499 30 8.11369C30 10.9332 27.5469 13.2271 24.5313 13.2271C24.05 13.2271 23.5749 13.1688 23.1145 13.0537L19.8759 16.082L20.6793 16.7715L21.0158 16.4567C21.2297 16.257 21.5757 16.257 21.7894 16.4567C22.003 16.6565 22.003 16.9803 21.7894 17.1798L21.486 17.4635L29.0222 23.9282C29.028 23.9332 29.0338 23.9382 29.0393 23.9434C30.3181 25.1397 30.3181 27.0863 29.0393 28.2826C27.7569 29.4817 25.6802 29.4813 24.3984 28.2828C24.3931 28.2778 24.3877 28.2728 24.3826 28.2676L17.4555 21.232L17.1487 21.5188C16.9348 21.7184 16.5888 21.7184 16.3751 21.5188C16.1615 21.3191 16.1615 20.9953 16.3751 20.7955L16.714 20.4789L15.9756 19.729L12.7526 22.7427C13.1824 24.2295 12.8819 25.7835 11.9075 27.0517C10.8675 28.4051 9.24995 29.1813 7.4687 29.1813C6.8714 29.1813 6.2837 29.0916 5.7225 28.9146C5.54283 28.8581 5.40718 28.7185 5.36445 28.5459C5.32151 28.3731 5.37727 28.1919 5.51186 28.0671L7.79684 25.9473V24.9254L6.55159 23.761H5.45866L3.19163 25.8976C3.05811 26.0234 2.86435 26.0756 2.67956 26.0354C2.49498 25.9955 2.34565 25.8686 2.2852 25.7006C2.09592 25.1759 2 24.6264 2 24.0679C2 22.4023 2.82995 20.8896 4.27729 19.9174C5.63363 19.0063 7.29588 18.7253 8.88592 19.1272L12.899 15.3749L6.18693 9.08508L4.86712 9.08468C4.67507 9.08448 4.49712 8.9904 4.39842 8.83639L2.0784 5.22069C1.94937 5.01934 1.98334 4.76186 2.16065 4.59586L3.70733 3.14986C3.88464 2.98387 4.16001 2.95211 4.37535 3.07296L8.24226 5.24266C8.40696 5.33494 8.5078 5.50154 8.5078 5.68111V6.91558L15.2192 13.2054L19.2476 9.43864C18.8176 7.95189 19.1177 6.39842 20.0914 5.1308C21.1318 3.77668 22.7501 3 24.5313 3ZM20.7118 18.1874L18.2294 20.5081L25.1792 27.5667C26.0346 28.3587 27.4138 28.3563 28.2658 27.5597C29.1158 26.7645 29.1183 25.4721 28.2737 24.6739L20.7118 18.1874ZM24.5311 4.02278C23.1064 4.02278 21.812 4.644 20.9797 5.72746C20.1463 6.81231 19.9293 8.15823 20.3841 9.42046C20.4503 9.60464 20.3995 9.80778 20.2525 9.94521C20.2448 9.9524 9.45781 20.0389 9.42769 20.0668C9.28071 20.2043 9.06323 20.252 8.86648 20.1899C7.51634 19.7646 6.07627 19.9681 4.9154 20.748C3.75753 21.5256 3.09357 22.7355 3.09357 24.0677C3.09357 24.2173 3.10212 24.3661 3.11921 24.5135L4.84256 22.8893C4.94531 22.7926 5.08502 22.7381 5.23093 22.7381H6.77804C6.92309 22.7381 7.06217 22.792 7.16471 22.8879L8.7304 24.3519C8.83294 24.4478 8.89062 24.5778 8.89062 24.7134V26.16C8.89062 26.2965 8.8323 26.4271 8.7289 26.523L6.99188 28.1346C7.14954 28.1504 7.30869 28.1586 7.4687 28.1586C8.89319 28.1586 10.1874 27.5375 11.019 26.4551C11.853 25.3694 12.0705 24.0231 11.6159 22.7609C11.5495 22.5767 11.6005 22.3734 11.7475 22.2359C13.9229 20.2017 19.8306 14.6779 22.5723 12.1143C22.7193 11.9771 22.9368 11.9295 23.1335 11.9913C23.5826 12.1327 24.053 12.2044 24.5313 12.2044C26.9436 12.2044 28.9062 10.3693 28.9062 8.11369C28.9062 7.96408 28.8977 7.81526 28.8806 7.66784L27.1572 9.29182C27.0545 9.3887 26.9148 9.44304 26.7691 9.44304H25.222C25.0735 9.44304 24.9314 9.38671 24.8285 9.28683L23.3175 7.82285C23.219 7.72757 23.1641 7.60033 23.1641 7.46769V6.02109C23.1641 5.88686 23.2205 5.75802 23.3213 5.66234L25.0222 4.04815C24.8599 4.03137 24.696 4.02278 24.5311 4.02278ZM20.683 20.874C20.8962 20.6733 21.2432 20.6727 21.4573 20.8728L26.3929 25.4853C26.607 25.6854 26.6076 26.0105 26.3941 26.2112C26.1803 26.4124 25.8335 26.4124 25.6196 26.2124L20.684 21.5999C20.4699 21.3998 20.4693 21.0749 20.683 20.874ZM11.0462 20.3203C11.2839 20.3203 11.4769 20.5008 11.4769 20.7231C11.4769 20.9459 11.2839 21.1259 11.0462 21.1259C10.8079 21.1259 10.6154 20.9459 10.6154 20.7231C10.6154 20.5008 10.8079 20.3203 11.0462 20.3203ZM18.7494 12.8135C18.9581 12.6183 19.2963 12.6183 19.505 12.8135C19.7137 13.0086 19.7137 13.3249 19.505 13.5199L12.8197 19.7711C12.611 19.9663 12.2727 19.9663 12.0641 19.7711C11.8556 19.576 11.8556 19.2597 12.0641 19.0647L18.7494 12.8135ZM19.1017 16.8057L16.7496 19.0051L17.4879 19.755L19.9051 17.4952L19.1017 16.8057ZM4.17881 4.15541L3.23606 5.03692L5.1771 8.06715L6.41401 8.06755C6.55928 8.06755 6.69836 8.11649 6.8009 8.21257L13.6723 14.6518L14.4458 13.9287L7.57381 7.48847C7.47148 7.39259 7.41401 7.26275 7.41401 7.12732V5.97075L4.17881 4.15541ZM20.9538 11.0559C21.1921 11.0559 21.3846 11.236 21.3846 11.4587C21.3846 11.6812 21.1921 11.8615 20.9538 11.8615C20.7161 11.8615 20.5231 11.6812 20.5231 11.4587C20.5231 11.236 20.7161 11.0559 20.9538 11.0559Z" fill="black"/>
</svg>
