<svg width="32" height="32" viewBox="0 0 32 32" fill="none" xmlns="http://www.w3.org/2000/svg">
<path d="M16 2C8.3 2 2 8.3 2 16C2 23.7 8.3 30 16 30C23.7 30 30 23.7 30 16C30 8.3 23.7 2 16 2ZM27.4 10.8H21.9C21.4 7.9 20.5 5.5 19.3 3.9C22.9 4.9 25.8 7.5 27.4 10.8ZM20.8 16C20.8 17.4 20.7 18.7 20.6 19.9H11.5C11.3 18.7 11.3 17.4 11.3 16C11.3 14.7 11.4 13.5 11.5 12.3H20.6C20.7 13.5 20.8 14.7 20.8 16ZM16 28.5C14.3 28.5 12.5 25.7 11.7 21.4H20.3C19.5 25.7 17.7 28.5 16 28.5ZM11.7 10.8C12.5 6.3 14.4 3.5 16 3.5C17.6 3.5 19.5 6.3 20.3 10.8H11.7ZM12.8 3.9C11.6 5.5 10.7 7.9 10.2 10.8H4.6C6.2 7.5 9.1 4.9 12.8 3.9ZM4 12.3H9.9C9.8 13.5 9.7 14.7 9.7 16C9.7 17.3 9.8 18.6 9.9 19.9H4.1C3.7 18.7 3.5 17.4 3.5 16C3.5 14.7 3.7 13.5 4 12.3ZM4.7 21.4H10.1C10.6 24.2 11.5 26.6 12.7 28.1C9.2 27.1 6.3 24.6 4.7 21.4ZM19.2 28.1C20.4 26.6 21.3 24.2 21.8 21.4H27.2C25.7 24.6 22.8 27.1 19.2 28.1ZM27.9 19.9H22.1C22.3 18.7 22.3 17.4 22.3 16C22.3 14.7 22.2 13.5 22.1 12.3H28C28.4 13.5 28.5 14.7 28.5 16C28.5 17.3 28.3 18.6 27.9 19.9Z" fill="black"/>
</svg>
