<svg width="32" height="32" viewBox="0 0 32 32" fill="none" xmlns="http://www.w3.org/2000/svg">
<path d="M23.6 15.1H22.5V8.8C22.5 5.1 19.5 2 15.7 2C11.9 2 8.9 5 8.9 8.8V15.1H7.8C6.3 15.1 5 16.3 5 17.9V27.3C5 28.8 6.2 30 7.8 30H23.6C25.1 30 26.4 28.8 26.4 27.2V17.8C26.3 16.3 25.1 15.1 23.6 15.1ZM10.4 8.8C10.4 5.9 12.8 3.5 15.7 3.5C18.6 3.5 21 5.9 21 8.8V15.1H10.4V8.8ZM24.8 27.2C24.8 27.9 24.2 28.4 23.6 28.4H7.8C7.1 28.4 6.6 27.8 6.6 27.2V17.8C6.6 17.1 7.2 16.6 7.8 16.6H23.6C24.3 16.6 24.8 17.2 24.8 17.8V27.2Z" fill="black"/>
<path d="M15.7 19.4C13.9 19.4 12.5 20.8 12.5 22.6C12.5 24.4 13.9 25.8 15.7 25.8C17.5 25.8 18.9 24.4 18.9 22.6C18.9 20.8 17.4 19.4 15.7 19.4ZM15.7 24.3C14.8 24.3 14 23.5 14 22.6C14 21.7 14.8 20.9 15.7 20.9C16.6 20.9 17.4 21.7 17.4 22.6C17.4 23.5 16.6 24.3 15.7 24.3Z" fill="black"/>
</svg>
