<svg width="32" height="32" viewBox="0 0 32 32" fill="none" xmlns="http://www.w3.org/2000/svg">
<path d="M28.9004 10.6C28.7005 10.2 28.3007 10 27.9009 10.2C27.501 10.4 27.3011 10.8 27.501 11.2C28.1008 12.7 28.5006 14.3 28.5006 16C28.5006 22.9 22.9029 28.5 16.0057 28.5C12.807 28.5 9.8082 27.3 7.50913 25.1H10.6079C11.0077 25.1 11.4076 24.8 11.4076 24.3C11.4076 23.8 11.0077 23.6 10.6079 23.6H5.70986C5.31003 23.6 5.01015 24 5.01015 24.4V29.3C5.01015 29.7 5.31003 30 5.70986 30C6.1097 30 6.50954 29.7 6.50954 29.2V26.2C9.00853 28.6 12.5071 30 16.0057 30C23.7026 30 30 23.7 30 16C30 14.1 29.6002 12.3 28.9004 10.6Z" fill="black"/>
<path d="M7.20926 7.2C10.8078 3.6 16.1056 2.5 20.8037 4.5C22.2032 5.1 23.5026 5.9 24.6022 6.9H21.5035C21.1036 6.9 20.7038 7.2 20.7038 7.7C20.7038 8.2 21.0037 8.5 21.5035 8.5H26.4015C26.8013 8.5 27.2011 8.2 27.2011 7.7V2.8C27.2011 2.4 26.9013 2 26.4015 2C25.9017 2 25.6018 2.3 25.6018 2.8V5.9C24.4023 4.7 22.9029 3.8 21.4035 3.1C16.1056 0.9 10.208 2.1 6.1097 6.1C2.01137 10.1 0.911813 16.1 3.11092 21.4C3.21088 21.7 3.51076 21.9 3.81064 21.9C3.9106 21.9 4.01056 21.9 4.11051 21.8C4.51035 21.6 4.71027 21.2 4.51035 20.8C2.51116 16.1 3.61072 10.8 7.20926 7.2Z" fill="black"/>
<path d="M16.0057 9.6C14.2064 9.6 12.707 11.1 12.707 12.9V14.7H11.4076C11.0077 14.7 10.6079 15 10.6079 15.5V21.5C10.6079 21.9 10.9078 22.3 11.4076 22.3H20.6038C21.0037 22.3 21.4035 22 21.4035 21.5V15.5C21.4035 15.1 21.1036 14.7 20.6038 14.7H19.3043V12.9C19.3043 11.1 17.805 9.6 16.0057 9.6ZM14.3064 12.9C14.3064 11.9 15.106 11.1 16.1056 11.1C17.1052 11.1 17.9049 11.9 17.9049 12.9V14.7H14.3064V12.9ZM19.9041 20.7H12.2072V16.2H19.9041V20.7Z" fill="black"/>
</svg>
