<svg width="32" height="32" viewBox="0 0 32 32" fill="none" xmlns="http://www.w3.org/2000/svg">
<path fill-rule="evenodd" clip-rule="evenodd" d="M13.4436 5.04568C13.9972 5.59928 14.331 6.28946 14.4449 7.00775C14.5073 6.9943 14.5721 6.98723 14.6385 6.98723H29.0841C29.5899 6.98723 30 7.39373 30 7.90305C30 8.40885 29.5895 8.81888 29.0841 8.81888H14.6385C14.5149 8.81888 14.397 8.7946 14.2894 8.75048C14.1179 9.24141 13.8359 9.70235 13.4436 10.0947C12.0493 11.4889 9.78881 11.4889 8.39457 10.0947C8.0205 9.72063 7.74679 9.2842 7.57344 8.81888H2.91686C2.41049 8.81888 2 8.41238 2 7.90305C2 7.39726 2.41248 6.98723 2.91686 6.98723H7.39652C7.51356 6.27632 7.84624 5.59401 8.39457 5.04568C9.78881 3.65144 12.0493 3.65144 13.4436 5.04568ZM20.8263 18.7271C22.2205 20.1214 24.4811 20.1214 25.8753 18.7271C26.3185 18.284 26.6208 17.7532 26.7822 17.1906C26.8794 17.2255 26.9841 17.2445 27.0934 17.2445H29.0845C29.591 17.2445 30 16.8345 30 16.3287C30 15.8194 29.5901 15.4129 29.0845 15.4129H27.0934C27.0057 15.4129 26.921 15.4251 26.8408 15.4481C26.7012 14.7994 26.3794 14.1822 25.8753 13.6781C24.4811 12.2839 22.2205 12.2839 20.8263 13.6781C20.3285 14.1759 20.0084 14.7842 19.8661 15.424C19.8194 15.4167 19.7715 15.4129 19.7228 15.4129H2.91138C2.40653 15.4129 2 15.8229 2 16.3287C2 16.838 2.40804 17.2445 2.91138 17.2445H19.7228C19.7935 17.2445 19.8623 17.2365 19.9283 17.2212C20.0918 17.7725 20.3912 18.292 20.8263 18.7271ZM8.39259 27.5343C9.78683 28.9286 12.0474 28.9286 13.4416 27.5343C13.8868 27.0892 14.1898 26.5557 14.3507 25.9903C14.4412 26.0203 14.538 26.0365 14.6385 26.0365H29.0841C29.5899 26.0365 30 25.63 30 25.1206C30 24.6148 29.5895 24.2048 29.0841 24.2048H14.6385C14.557 24.2048 14.4779 24.2154 14.4027 24.2352C14.2608 23.5939 13.9404 22.9842 13.4416 22.4853C12.0474 21.0911 9.78683 21.0911 8.39259 22.4853C7.90163 22.9763 7.58355 23.5747 7.43835 24.2048H2.91686C2.41049 24.2048 2 24.6113 2 25.1206C2 25.6264 2.41248 26.0365 2.91686 26.0365H7.49697C7.66102 26.5847 7.95956 27.1013 8.39259 27.5343ZM21.7307 17.8227C20.836 16.928 20.836 15.4773 21.7307 14.5826C22.6255 13.6878 24.0761 13.6878 24.9709 14.5826C25.8656 15.4773 25.8656 16.928 24.9709 17.8227C24.0761 18.7174 22.6255 18.7174 21.7307 17.8227ZM9.29703 26.6299C8.40229 25.7352 8.40229 24.2845 9.29703 23.3898C10.1918 22.495 11.6424 22.495 12.5372 23.3898C13.4319 24.2845 13.4319 25.7352 12.5372 26.6299C11.6424 27.5246 10.1918 27.5246 9.29703 26.6299ZM9.29901 5.95012C10.1937 5.05539 11.6444 5.05539 12.5391 5.95012C13.4339 6.84486 13.4339 8.29552 12.5391 9.19025C11.6444 10.085 10.1937 10.085 9.29901 9.19025C8.40427 8.29552 8.40427 6.84486 9.29901 5.95012Z" fill="black"/>
</svg>
