<svg width="32" height="32" viewBox="0 0 32 32" fill="none" xmlns="http://www.w3.org/2000/svg">
<path d="M14.7195 15.6222C14.7193 15.4234 14.6402 15.2329 14.4996 15.0925L3.29661 3.88945C3.1495 3.74897 2.95262 3.67268 2.74927 3.67737C2.54592 3.68205 2.35276 3.76733 2.21228 3.91443C2.07181 4.06154 1.99552 4.25842 2.0002 4.46177C2.00489 4.66512 2.09016 4.85828 2.23727 4.99876L12.9106 15.6222L2.23727 26.2955C2.09866 26.439 2.02118 26.6307 2.02118 26.8302C2.02118 27.0297 2.09866 27.2214 2.23727 27.3648C2.38025 27.5005 2.56984 27.5761 2.76694 27.5761C2.96404 27.5761 3.15363 27.5005 3.29661 27.3648L14.4996 16.1518C14.6402 16.0114 14.7193 15.8209 14.7195 15.6222Z" fill="black"/>
<path d="M29.2505 3C29.0525 3.00259 28.8633 3.08239 28.7233 3.2224C28.5833 3.3624 28.5035 3.55155 28.5009 3.74953V27.4948C28.5009 27.6936 28.5799 27.8842 28.7205 28.0248C28.861 28.1653 29.0517 28.2443 29.2505 28.2443C29.4493 28.2443 29.6399 28.1653 29.7805 28.0248C29.921 27.8842 30 27.6936 30 27.4948V3.74953C29.9974 3.55155 29.9176 3.3624 29.7776 3.2224C29.6376 3.08239 29.4485 3.00259 29.2505 3Z" fill="black"/>
<path d="M14.6096 3.88945C14.4625 3.74897 14.2656 3.67268 14.0622 3.67737C13.8589 3.68205 13.6657 3.76733 13.5252 3.91443C13.3848 4.06154 13.3085 4.25842 13.3132 4.46177C13.3179 4.66512 13.4031 4.85828 13.5502 4.99876L24.2336 15.6222L13.5502 26.2955C13.4116 26.439 13.3341 26.6307 13.3341 26.8302C13.3341 27.0297 13.4116 27.2214 13.5502 27.3648C13.6934 27.5 13.883 27.5751 14.0799 27.5747C14.1777 27.5765 14.2748 27.5589 14.3658 27.5228C14.4567 27.4868 14.5395 27.4331 14.6096 27.3648L25.8226 16.1518C25.963 16.0113 26.0418 15.8208 26.0418 15.6222C26.0418 15.4235 25.963 15.233 25.8226 15.0925L14.6096 3.88945Z" fill="black"/>
</svg>
