<svg width="32" height="32" viewBox="0 0 32 32" fill="none" xmlns="http://www.w3.org/2000/svg">
<path d="M16.6097 6.50724C19.6665 9.56527 19.9224 14.3785 17.3783 17.7311L17.1823 17.9797L19.5846 20.3833C20.3286 20.0782 21.2039 20.1939 21.8456 20.7334L21.9894 20.8654L24.6358 23.5106C25.5 24.3749 25.5 25.7761 24.6358 26.6404C23.8195 27.4555 22.5243 27.5008 21.6559 26.7762L21.5072 26.6404L18.8608 23.994C18.2562 23.3904 18.0754 22.5251 18.3158 21.7631L18.3787 21.5892L15.9751 19.1869C14.4049 20.4726 12.4811 21.1166 10.5562 21.1166C8.36333 21.1166 6.17168 20.2821 4.50265 18.6142C1.16578 15.2762 1.16578 9.84529 4.50265 6.50724C7.8419 3.17156 13.2728 3.17156 16.6097 6.50724ZM29.1464 17.9796C29.6179 17.9796 30 18.3618 30 18.8332C30 19.3046 29.6179 19.6867 29.1464 19.6867H24.3429C23.8715 19.6867 23.4905 19.3046 23.4905 18.8332C23.4905 18.3618 23.8715 17.9796 24.3429 17.9796H29.1464ZM10.5562 5.71082C8.80142 5.71082 7.04667 6.37867 5.70978 7.71437C3.03719 10.387 3.03719 14.7345 5.70978 17.4071C8.38237 20.0797 12.7299 20.0797 15.4025 17.4071C18.0751 14.7345 18.0751 10.387 15.4025 7.71437C14.0668 6.37867 12.3109 5.71082 10.5562 5.71082ZM13.0443 9.8597C13.3932 9.51089 13.9586 9.51089 14.3074 9.8597C14.6562 10.2085 14.6562 10.774 14.3074 11.1228L8.97415 16.4549L6.31466 13.7954C5.96585 13.4466 5.96585 12.8811 6.31466 12.5323C6.66346 12.1835 7.22774 12.1835 7.57655 12.5323L8.97415 13.9299L13.0443 9.8597ZM29.1464 13.3195C29.6179 13.3195 30 13.7017 30 14.1731C30 14.6445 29.6179 15.0267 29.1464 15.0267H22.4108C21.9394 15.0267 21.5572 14.6445 21.5572 14.1731C21.5572 13.7017 21.9394 13.3195 22.4108 13.3195H29.1464ZM29.1464 8.65995C29.6179 8.65995 30 9.04209 30 9.51351C30 9.98494 29.6179 10.3671 29.1464 10.3671H22.1298C21.6584 10.3671 21.2763 9.98494 21.2763 9.51351C21.2763 9.04209 21.6584 8.65995 22.1298 8.65995H29.1464ZM29.1461 4C29.6175 4 29.9996 4.38214 29.9996 4.85356C29.9996 5.32499 29.6175 5.70712 29.1461 5.70712H19.5402C19.0688 5.70712 18.6867 5.32499 18.6867 4.85356C18.6867 4.38214 19.0688 4 19.5402 4H29.1461Z" fill="black"/>
</svg>
