<svg width="32" height="32" viewBox="0 0 32 32" fill="none" xmlns="http://www.w3.org/2000/svg">
<path d="M29.1032 15.153H2.79715C2.29893 15.153 2 15.5516 2 15.9502C2 16.3488 2.29893 16.7473 2.79715 16.7473H29.2028C29.6014 16.7473 30 16.4484 30 15.9502C30 15.452 29.6014 15.153 29.1032 15.153Z" fill="black"/>
<path d="M2.79715 3.49466H29.2028C29.6014 3.49466 30 3.19573 30 2.69751C30 2.19929 29.6014 2 29.1032 2H2.79715C2.29893 2 2 2.29893 2 2.79715C2 3.29537 2.29893 3.49466 2.79715 3.49466Z" fill="black"/>
<path d="M29.1032 28.4057H2.79715C2.39858 28.4057 2 28.7046 2 29.2028C2 29.7011 2.29893 29.9004 2.79715 29.9004H29.2028C29.6014 29.9004 30 29.6014 30 29.1032C30 28.605 29.6014 28.4057 29.1032 28.4057Z" fill="black"/>
<path d="M29.1032 21.8292H12.8612C12.4626 21.8292 12.0641 22.1281 12.0641 22.6263C12.0641 23.1246 12.363 23.4235 12.8612 23.4235H29.1032C29.5018 23.4235 29.9004 23.1246 29.9004 22.6263C29.9004 22.1281 29.6014 21.8292 29.1032 21.8292Z" fill="black"/>
<path d="M29.1032 8.57651H12.8612C12.4626 8.57651 12.0641 8.87544 12.0641 9.37367C12.0641 9.87189 12.363 10.1708 12.8612 10.1708H29.1032C29.5018 10.1708 29.9004 9.87189 29.9004 9.37367C29.9004 8.87544 29.6014 8.57651 29.1032 8.57651Z" fill="black"/>
</svg>
