<svg width="32" height="32" viewBox="0 0 32 32" fill="none" xmlns="http://www.w3.org/2000/svg">
<path d="M27.65 17.05H16.95V6.35C16.95 5.94 16.61 5.6 16.2 5.6C9.47 5.6 4 11.07 4 17.8C4 24.53 9.47 30 16.2 30C22.93 30 28.4 24.53 28.4 17.8C28.4 17.39 28.06 17.05 27.65 17.05ZM5.5 17.8C5.5 12.15 9.9 7.51 15.45 7.13V17.49L8.13 24.81C6.5 22.93 5.5 20.48 5.5 17.8ZM16.2 28.5C13.52 28.5 11.07 27.5 9.19 25.87L16.51 18.55H26.87C26.49 24.1 21.85 28.5 16.2 28.5Z" fill="black"/>
<path d="M20.04 15.1C20.45 15.1 20.79 14.76 20.79 14.35V6.35C20.79 5.94 20.45 5.6 20.04 5.6C19.63 5.6 19.29 5.94 19.29 6.35V14.35C19.29 14.76 19.63 15.1 20.04 15.1Z" fill="black"/>
<path d="M23.85 15.1C24.26 15.1 24.6 14.76 24.6 14.35V2.75C24.6 2.34 24.26 2 23.85 2C23.44 2 23.1 2.34 23.1 2.75V14.35C23.1 14.76 23.43 15.1 23.85 15.1Z" fill="black"/>
<path d="M27.65 8.62C27.24 8.62 26.9 8.96 26.9 9.37V14.34C26.9 14.75 27.24 15.09 27.65 15.09C28.06 15.09 28.4 14.75 28.4 14.34V9.38C28.4 8.96 28.06 8.62 27.65 8.62Z" fill="black"/>
</svg>
