<svg width="32" height="32" viewBox="0 0 32 32" fill="none" xmlns="http://www.w3.org/2000/svg">
<path d="M29.77 6.18084L26.71 3.18084C26.5662 3.05623 26.38 2.99177 26.19 3.00084H5.81C5.61623 3.00199 5.43022 3.07711 5.29 3.21084L2.23 6.21084C2.08955 6.34419 2.00697 6.5273 2 6.72084V11.8208C2.00259 12.0189 2.08244 12.2082 2.22253 12.3483C2.36263 12.4884 2.55189 12.5683 2.75 12.5708H4.55V27.1208C4.55 27.585 4.73437 28.0301 5.06256 28.3583C5.39075 28.6865 5.83587 28.8708 6.3 28.8708H25.7C26.1641 28.8708 26.6092 28.6865 26.9374 28.3583C27.2656 28.0301 27.45 27.585 27.45 27.1208V12.5708H29.25C29.4481 12.5683 29.6374 12.4884 29.7775 12.3483C29.9176 12.2082 29.9974 12.0189 30 11.8208V6.72084C30.0005 6.61991 29.9804 6.51993 29.9408 6.42706C29.9013 6.3342 29.8431 6.25041 29.77 6.18084ZM6.11 4.50084H25.89L27.67 6.23084H4.33L6.11 4.50084ZM26 27.1208C26 27.1871 25.9737 27.2507 25.9268 27.2976C25.8799 27.3445 25.8163 27.3708 25.75 27.3708H6.3C6.2337 27.3708 6.17011 27.3445 6.12322 27.2976C6.07634 27.2507 6.05 27.1871 6.05 27.1208V12.5708H26V27.1208ZM28.55 11.1208H3.5V7.73084H28.5L28.55 11.1208Z" fill="black"/>
<path d="M11.92 17.6608H20.08C20.2789 17.6608 20.4697 17.5818 20.6103 17.4412C20.751 17.3005 20.83 17.1098 20.83 16.9108C20.83 16.7119 20.751 16.5212 20.6103 16.3805C20.4697 16.2399 20.2789 16.1608 20.08 16.1608H11.92C11.7211 16.1608 11.5303 16.2399 11.3897 16.3805C11.249 16.5212 11.17 16.7119 11.17 16.9108C11.17 17.1098 11.249 17.3005 11.3897 17.4412C11.5303 17.5818 11.7211 17.6608 11.92 17.6608Z" fill="black"/>
</svg>
