<svg width="32" height="32" viewBox="0 0 32 32" fill="none" xmlns="http://www.w3.org/2000/svg">
<path fill-rule="evenodd" clip-rule="evenodd" d="M2.80221 13.7382C3.24788 13.7382 3.60441 14.0947 3.60441 14.5404V21.9564C3.60441 23.9351 5.21477 25.5514 7.19949 25.5514H24.8005C26.7793 25.5514 28.3956 23.9411 28.3956 21.9564V14.6593C28.3956 14.2136 28.7521 13.857 29.1978 13.857C29.6435 13.857 30 14.2195 30 14.6593V21.9564C30 24.8205 27.6706 27.1559 24.8005 27.1559H7.19949C4.33531 27.1559 2 24.8265 2 21.9564V14.5404C2 14.0947 2.35654 13.7382 2.80221 13.7382ZM15.9866 4C16.4323 4 16.7888 4.35654 16.7888 4.80221V18.2781L20.5146 14.5463C20.8296 14.2314 21.3347 14.2314 21.6496 14.5463C21.9646 14.8613 21.9646 15.3664 21.6496 15.6813L16.5511 20.7798C16.3966 20.9402 16.1887 21.0175 15.9866 21.0175C15.7846 21.0175 15.5766 20.9343 15.4221 20.7798L10.3177 15.6813C10.0028 15.3664 10.0028 14.8613 10.3177 14.5463C10.6326 14.2314 11.1377 14.2314 11.4527 14.5463L15.1844 18.2781V4.80221C15.1844 4.35654 15.541 4 15.9866 4Z" fill="black"/>
</svg>
