<svg width="32" height="32" viewBox="0 0 32 32" fill="none" xmlns="http://www.w3.org/2000/svg">
<path d="M2.896 29.9552C3.39085 29.9552 3.792 29.554 3.792 29.0592L3.792 2.896C3.792 2.40116 3.39085 2 2.896 2C2.40115 2 2 2.40116 2 2.896L2 29.0592C2 29.554 2.40115 29.9552 2.896 29.9552ZM16.224 27.2672C16.7017 27.2672 17.0895 26.803 17.0895 26.2287C17.0895 25.942 16.9925 25.6824 16.8359 25.4944L9.65866 16.8817L29.1345 16.8817C29.6123 16.8817 30 16.4175 30 15.8432C30 15.2689 29.6123 14.8047 29.1345 14.8047L9.65866 14.8047L16.8359 6.192C16.9925 6.00298 17.0895 5.74438 17.0895 5.45775C17.0895 4.88343 16.7017 4.4192 16.224 4.4192C15.9851 4.4192 15.7688 4.53448 15.6121 4.72349L6.95758 15.1089C6.80093 15.2969 6.704 15.5566 6.704 15.8432C6.704 16.1298 6.80093 16.3884 6.95758 16.5775L15.6121 26.9629C15.7688 27.1509 15.9851 27.2672 16.224 27.2672Z" fill="black"/>
</svg>
