<svg width="32" height="32" viewBox="0 0 32 32" fill="none" xmlns="http://www.w3.org/2000/svg">
<path d="M5.09495 15.9091L10.1838 11.0087C10.2949 10.9017 10.3636 10.754 10.3636 10.5909C10.3636 10.2641 10.0887 10 9.75 10C9.58064 10 9.42723 10.0662 9.31616 10.1731L3.1798 16.0822C3.06873 16.1898 3 16.3369 3 16.5C3 16.6631 3.06873 16.8108 3.1798 16.9178L9.31616 22.8269C9.42723 22.9344 9.58064 23 9.75 23C10.0887 23 10.3636 22.7359 10.3636 22.4091C10.3636 22.246 10.2949 22.0989 10.1838 21.9913L5.09495 17.0909H29.3864C29.7251 17.0909 30 16.8268 30 16.5C30 16.1732 29.7251 15.9091 29.3864 15.9091H5.09495Z" fill="black"/>
</svg>
