<svg width="32" height="32" viewBox="0 0 32 32" fill="none" xmlns="http://www.w3.org/2000/svg">
<path d="M28.3061 15.8068C28.1861 18.2045 27.5865 20.097 26.5072 21.4841C25.4279 22.8712 23.9838 23.5648 22.1749 23.5648C20.3061 23.5648 19.1068 22.7325 18.5772 21.0679C18.0375 21.9101 17.4204 22.5368 16.7258 22.948C16.0312 23.3592 15.3142 23.5648 14.5747 23.5648C13.1555 23.5648 12.0812 22.9901 11.3517 21.8408C10.6221 20.6914 10.3523 19.1012 10.5422 17.0701C10.6921 15.4352 11.0694 13.9763 11.674 12.6932C12.2786 11.4101 13.0581 10.402 14.0125 9.66879C14.9669 8.93559 15.9688 8.569 17.0181 8.569C17.8276 8.569 18.5522 8.67551 19.1918 8.88853C19.8314 9.10156 20.5509 9.52017 21.3504 10.1444L20.5709 18.3779C20.381 20.6667 21.0206 21.811 22.4897 21.811C23.619 21.811 24.5334 21.2562 25.233 20.1465C25.9326 19.0368 26.3123 17.5902 26.3723 15.8068C26.5622 11.9526 25.8401 9.01487 24.2061 6.99363C22.5721 4.97239 20.0862 3.96178 16.7483 3.96178C14.7395 3.96178 12.9557 4.4547 11.3967 5.44055C9.83762 6.4264 8.6084 7.85066 7.70896 9.71338C6.80952 11.5761 6.30484 13.7261 6.19491 16.1635C6.07498 18.6207 6.37479 20.7534 7.09434 22.5616C7.8139 24.3698 8.9107 25.7519 10.3848 26.7081C11.8589 27.6642 13.6402 28.1423 15.7289 28.1423C16.6284 28.1423 17.5303 28.0333 18.4347 27.8153C19.3392 27.5973 20.0912 27.3149 20.6908 26.9682L21.2455 28.6773C20.6259 29.0637 19.8039 29.3807 18.7795 29.6284C17.7552 29.8762 16.7183 30 15.669 30C13.1705 30 11.0219 29.4427 9.22301 28.328C7.42413 27.2134 6.07748 25.6083 5.18304 23.5127C4.2886 21.4172 3.90134 18.9675 4.02127 16.1635C4.14119 13.4388 4.7558 10.989 5.86511 8.81422C6.97442 6.63941 8.47847 4.96002 10.3773 3.77601C12.2761 2.592 14.4197 2 16.8083 2C19.2967 2 21.4304 2.55484 23.2093 3.66454C24.9881 4.77425 26.3123 6.37437 27.1818 8.46497C28.0512 10.5556 28.426 13.0028 28.3061 15.8068ZM13.2323 17.3491C13.0974 18.7622 13.2251 19.8469 13.6156 20.6032C14.0061 21.3595 14.6256 21.7377 15.474 21.7377C16.0525 21.7377 16.6094 21.4839 17.1445 20.9764C17.6796 20.4689 18.1207 19.7424 18.4678 18.797L18.4823 18.6627L19.1475 11.1542C18.6076 10.8656 18.0291 10.7213 17.412 10.7213C16.2839 10.7213 15.3511 11.3134 14.6135 12.4977C13.8759 13.6819 13.4155 15.299 13.2323 17.3491Z" fill="black"/>
</svg>
