<svg width="32" height="32" viewBox="0 0 32 32" fill="none" xmlns="http://www.w3.org/2000/svg">
<path fill-rule="evenodd" clip-rule="evenodd" d="M5.56892 22.9072C6.21826 22.9072 6.75111 23.4218 6.75111 24.0569L6.7507 25.3668H6.77507C7.13477 25.3668 7.42849 25.6381 7.42849 25.9667V29.784C7.42849 30.1126 7.13477 30.3839 6.77507 30.3839H1.65342C1.29372 30.3839 1 30.1126 1 29.784V25.9667C1 25.6381 1.29372 25.3668 1.65342 25.3668H1.82522L1.82534 24.0569C1.82534 23.4453 2.31945 22.9455 2.93588 22.9093L3.00753 22.9072H5.56892ZM16.14 2C18.4557 2 20.2998 3.82579 20.2998 6.12058L20.2998 16.7244L21.8716 18.278C21.912 18.0051 21.933 17.7263 21.933 17.443V13.2341C21.933 12.9728 22.1448 12.761 22.406 12.761C22.6672 12.761 22.879 12.9728 22.879 13.2341V17.443C22.879 18.0039 22.8083 18.5498 22.6753 19.0724L27.8616 24.1988C28.0446 24.3797 28.0463 24.6747 27.8655 24.8577L27.8627 24.8605C27.6782 25.044 27.3803 25.0444 27.1953 24.8616L22.3383 20.0616C21.357 22.3378 19.1425 23.9883 16.5464 24.1692L16.5463 29.0563H19.8317C20.073 29.0563 20.2717 29.2389 20.2971 29.4734L20.2998 29.5244C20.2998 29.783 20.0903 29.9925 19.8317 29.9925H12.3458C12.0873 29.9925 11.8777 29.783 11.8777 29.5244C11.8777 29.2659 12.0873 29.0563 12.3458 29.0563H15.601L15.6013 24.1695C12.0826 23.9271 9.26429 20.9849 9.26429 17.443V13.2336C9.26429 12.9726 9.47587 12.761 9.73685 12.761C9.99784 12.761 10.2094 12.9726 10.2094 13.2336V17.443C10.2094 20.6265 12.8574 23.2486 16.0712 23.2486C18.6168 23.2486 20.8064 21.6044 21.6077 19.3393L20.2819 18.0286C20.087 20.1356 18.3231 21.7582 16.14 21.7582C13.8234 21.7582 11.9802 19.9324 11.9802 17.6394L11.98 9.8242L6.88307 4.78695C6.70007 4.60609 6.69833 4.31113 6.87919 4.12814L6.88246 4.12486C7.06749 3.94133 7.36581 3.94106 7.55116 4.12426L11.98 8.50131L11.9802 6.12058C11.9802 3.82579 13.8234 2 16.14 2ZM5.56892 23.7071H3.00753C2.80059 23.7071 2.63334 23.8676 2.63334 24.0569L2.63322 25.3668H5.9427L5.94311 24.0569C5.94311 23.8821 5.8006 23.7319 5.61591 23.7099L5.56892 23.7071ZM12.9253 10.7585L12.9253 17.6394C12.9253 19.371 14.391 20.822 16.14 20.822C17.889 20.822 19.3538 19.371 19.3538 17.6394L19.3536 17.1118L12.9253 10.7585ZM16.14 2.93621C14.391 2.93621 12.9253 4.38806 12.9253 6.12058L12.9253 9.43598L19.3536 15.7893L19.3538 6.12058C19.3538 4.38806 17.889 2.93621 16.14 2.93621Z" fill="black"/>
</svg>
