<svg width="32" height="32" viewBox="0 0 32 32" fill="none" xmlns="http://www.w3.org/2000/svg">
<path fill-rule="evenodd" clip-rule="evenodd" d="M7.67025 3.50538C7.15084 3.50538 6.8172 3.90208 6.8172 4.25806V4.35842C6.8172 4.82285 7.16913 5.23504 7.71672 5.31183H11.6846C12.1721 5.31183 12.5376 4.94631 12.5376 4.45878V4.35842C12.5376 3.8709 12.1721 3.50538 11.6846 3.50538H7.67025ZM5.31183 4.25806C5.31183 3.00832 6.38321 2 7.67025 2H11.6846C12.7394 2 13.6154 2.66483 13.924 3.60573H16.8029C18.1346 3.60573 19.1195 4.64307 19.257 5.88104C19.2601 5.90864 19.2616 5.93639 19.2616 5.96416V8.32258H19.914C21.2329 8.32258 22.2724 9.36208 22.2724 10.681C22.2724 11.0967 21.9354 11.4337 21.5197 11.4337C21.104 11.4337 20.767 11.0967 20.767 10.681C20.767 10.1935 20.4015 9.82796 19.914 9.82796H9.4767C8.98917 9.82796 8.62366 10.1935 8.62366 10.681V13.0831C8.6237 13.0878 8.6237 13.0925 8.62366 13.0971V14.6878C8.6237 14.6925 8.6237 14.6972 8.62366 14.7018V17.1039C8.62366 17.5915 8.98917 17.957 9.4767 17.957H11.4839C11.8996 17.957 12.2366 18.294 12.2366 18.7097C12.2366 19.1254 11.8996 19.4624 11.4839 19.4624H9.4767C8.15778 19.4624 7.11828 18.4229 7.11828 17.1039V16.2423L3.2172 19.3019C2.99057 19.4797 2.68236 19.5125 2.42337 19.3865C2.16437 19.2605 2 18.9977 2 18.7097V9.07527C2 8.78724 2.16437 8.52447 2.42337 8.39845C2.68236 8.27243 2.99057 8.30526 3.2172 8.48301L7.11828 11.5427V10.681C7.11828 9.36208 8.15778 8.32258 9.4767 8.32258H17.7563V6.01062C17.6795 5.46304 17.2673 5.11111 16.8029 5.11111H13.9545C13.6769 6.10475 12.7765 6.8172 11.6846 6.8172H7.67025C7.64248 6.8172 7.61473 6.81567 7.58713 6.8126C6.34916 6.67505 5.31183 5.69017 5.31183 4.35842V4.25806ZM7.11828 13.4558L3.50538 10.6222V17.1628L7.11828 14.3291V13.4558ZM20.9989 13.1483C21.2945 12.865 21.7624 12.87 22.0519 13.1595L24.3602 15.4678C24.6541 15.7617 24.6541 16.2383 24.3602 16.5322C24.0662 16.8262 23.5897 16.8262 23.2957 16.5322L22.2724 15.5089V20.767H27.4835L26.3956 19.6319C26.108 19.3318 26.1181 18.8553 26.4183 18.5677C26.7184 18.2801 27.1949 18.2902 27.4825 18.5903L29.7907 20.9989C30.074 21.2945 30.0691 21.7624 29.7795 22.0519L27.4713 24.3602C27.1774 24.6541 26.7008 24.6541 26.4068 24.3602C26.1129 24.0662 26.1129 23.5897 26.4068 23.2957L27.4302 22.2724H22.2724V27.4302L23.2957 26.4068C23.5897 26.1129 24.0662 26.1129 24.3602 26.4068C24.6541 26.7008 24.6541 27.1774 24.3602 27.4713L22.0519 29.7795C21.7624 30.0691 21.2945 30.074 20.9989 29.7907L18.5903 27.4825C18.2902 27.1949 18.2801 26.7184 18.5677 26.4183C18.8553 26.1181 19.3318 26.108 19.6319 26.3956L20.767 27.4835V22.2724H15.5089L16.5322 23.2957C16.8262 23.5897 16.8262 24.0662 16.5322 24.3602C16.2383 24.6541 15.7617 24.6541 15.4678 24.3602L13.1595 22.0519C12.87 21.7624 12.865 21.2945 13.1483 20.9989L15.4566 18.5903C15.7442 18.2902 16.2207 18.2801 16.5208 18.5677C16.8209 18.8553 16.8311 19.3318 16.5434 19.6319L15.4556 20.767H20.767V15.4556L19.6319 16.5434C19.3318 16.8311 18.8553 16.8209 18.5677 16.5208C18.2801 16.2207 18.2902 15.7442 18.5903 15.4566L20.9989 13.1483Z" fill="black"/>
</svg>
