<svg width="32" height="32" viewBox="0 0 32 32" fill="none" xmlns="http://www.w3.org/2000/svg">
<path fill-rule="evenodd" clip-rule="evenodd" d="M13.2 6.25004C13.2 5.83583 13.5358 5.50004 13.95 5.50004H29.15C29.5642 5.50004 29.9 5.83583 29.9 6.25004C29.9 6.66425 29.5642 7.00004 29.15 7.00004H13.95C13.5358 7.00004 13.2 6.66425 13.2 6.25004Z" fill="black"/>
<path fill-rule="evenodd" clip-rule="evenodd" d="M10.7045 2.15347C11.034 2.4045 11.0976 2.87509 10.8466 3.20457L6.04657 9.50457C5.91397 9.67862 5.71197 9.78608 5.49353 9.79878C5.27509 9.81147 5.062 9.72815 4.91012 9.57064L2.21012 6.77064C1.9226 6.47247 1.93123 5.99768 2.2294 5.71016C2.52757 5.42264 3.00236 5.43127 3.28988 5.72944L5.38316 7.90024L9.65343 2.29551C9.90446 1.96603 10.3751 1.90243 10.7045 2.15347Z" fill="black"/>
<path fill-rule="evenodd" clip-rule="evenodd" d="M13.2 25.65C13.2 25.2358 13.5358 24.9 13.95 24.9H29.15C29.5642 24.9 29.9 25.2358 29.9 25.65C29.9 26.0643 29.5642 26.4 29.15 26.4H13.95C13.5358 26.4 13.2 26.0643 13.2 25.65Z" fill="black"/>
<path fill-rule="evenodd" clip-rule="evenodd" d="M10.7 21.45C11.0314 21.6986 11.0985 22.1687 10.85 22.5L6.05 28.9C5.91812 29.0759 5.71574 29.185 5.49637 29.1986C5.27699 29.2122 5.06269 29.1289 4.91012 28.9706L2.21012 26.1706C1.9226 25.8725 1.93123 25.3977 2.2294 25.1102C2.52757 24.8226 3.00236 24.8313 3.28988 25.1294L5.37848 27.2954L9.65 21.6C9.89853 21.2687 10.3686 21.2015 10.7 21.45Z" fill="black"/>
<path fill-rule="evenodd" clip-rule="evenodd" d="M13.2 15.95C13.2 15.5358 13.5358 15.2 13.95 15.2H29.15C29.5642 15.2 29.9 15.5358 29.9 15.95C29.9 16.3643 29.5642 16.7 29.15 16.7H13.95C13.5358 16.7 13.2 16.3643 13.2 15.95Z" fill="black"/>
<path fill-rule="evenodd" clip-rule="evenodd" d="M10.7 11.75C11.0314 11.9986 11.0985 12.4687 10.85 12.8L6.05 19.2C5.91812 19.3759 5.71574 19.485 5.49637 19.4986C5.27699 19.5122 5.06269 19.4289 4.91012 19.2706L2.21012 16.4706C1.9226 16.1725 1.93123 15.6977 2.2294 15.4102C2.52757 15.1226 3.00236 15.1313 3.28988 15.4294L5.37848 17.5954L9.65 11.9C9.89853 11.5687 10.3686 11.5015 10.7 11.75Z" fill="black"/>
</svg>
