<svg width="32" height="32" viewBox="0 0 32 32" fill="none" xmlns="http://www.w3.org/2000/svg">
<path d="M26.1 6H11.9C10.8 6 9.8 6.5 9 7.3L2.6 14.4C1.8 15.4 1.8 16.9 2.6 17.9L9 25C9.7 25.8 10.8 26.3 11.9 26.3H26.1C28.2 26.3 30 24.6 30 22.4V9.9C30 7.7 28.3 6 26.1 6ZM28.5 22.4C28.5 23.7 27.4 24.8 26.1 24.8H11.9C11.2 24.8 10.6 24.5 10.1 24L3.7 17C3.3 16.5 3.3 15.8 3.7 15.4L10.1 8.3C10.5 7.8 11.2 7.5 11.9 7.5H26.1C27.4 7.5 28.5 8.6 28.5 9.9V22.4Z" fill="black"/>
<path d="M21.5 12.5C21.2 12.2 20.7 12.2 20.4 12.5L17.8 15.1L15.2 12.5C14.9 12.2 14.4 12.2 14.1 12.5C13.8 12.8 13.8 13.3 14.1 13.6L16.7 16.2L14.1 18.8C13.8 19.1 13.8 19.6 14.1 19.9C14.2 20 14.4 20.1 14.6 20.1C14.8 20.1 15 20 15.1 19.9L17.7 17.3L20.3 19.9C20.4 20 20.6 20.1 20.8 20.1C21 20.1 21.2 20 21.3 19.9C21.6 19.6 21.6 19.1 21.3 18.8L18.7 16.2L21.3 13.6C21.8 13.2 21.8 12.7 21.5 12.5Z" fill="black"/>
</svg>
