<svg width="32" height="32" viewBox="0 0 32 32" fill="none" xmlns="http://www.w3.org/2000/svg">
<path fill-rule="evenodd" clip-rule="evenodd" d="M16.4038 2C17.6325 2 18.6346 2.976 18.6346 4.17729V5.19444L18.8983 5.2728C22.4732 6.33495 24.9721 9.56288 24.9752 13.2541C24.9353 14.2641 25.0332 16.0958 25.3995 17.9604C26.014 21.0888 27.2214 23.4776 29.2135 24.6757C29.5533 24.8798 29.7132 25.2804 29.6041 25.6576C29.4951 26.0315 29.1456 26.2886 28.7479 26.2886H20.8845L20.8184 26.5689C20.3485 28.5613 18.522 30 16.4038 30C14.2855 30 12.4591 28.5613 11.99 26.569L11.924 26.2886H4.05874C3.6621 26.2886 3.31302 26.0316 3.20314 25.6565C3.09371 25.2802 3.25339 24.8798 3.59296 24.6759C6.6366 22.8462 7.98737 17.7048 7.8338 13.2916C7.83322 9.57782 10.3289 6.33737 13.9093 5.27278L14.1729 5.19438V4.17729C14.1729 2.9763 15.1755 2 16.4038 2ZM23.5981 4.75777C23.7988 4.61245 24.0793 4.65733 24.2246 4.85801L28.9352 11.3631C29.0805 11.5638 29.0356 11.8443 28.835 11.9896C28.6343 12.1349 28.3538 12.09 28.2085 11.8894L23.4979 5.38426C23.3526 5.18358 23.3974 4.90309 23.5981 4.75777ZM8.24453 4.85801C8.38985 4.65733 8.67034 4.61245 8.87102 4.75777C9.0717 4.90309 9.11657 5.18358 8.97125 5.38426L4.26066 11.8894C4.11534 12.09 3.83485 12.1349 3.63417 11.9896C3.43349 11.8443 3.38861 11.5638 3.53393 11.3631L8.24453 4.85801ZM27.1949 4.75228C27.3986 4.61124 27.6781 4.66206 27.8191 4.86577L29.838 7.78185C29.979 7.98557 29.9282 8.26504 29.7245 8.40608C29.5207 8.54711 29.2413 8.4963 29.1002 8.29258L27.0814 5.3765C26.9404 5.17278 26.9912 4.89331 27.1949 4.75228ZM5.09864 4.86577C5.23967 4.66206 5.51914 4.61124 5.72286 4.75228C5.92657 4.89331 5.97739 5.17278 5.83635 5.3765L3.81753 8.29258C3.67649 8.4963 3.39702 8.54711 3.19331 8.40608C2.98959 8.26504 2.93878 7.98557 3.07981 7.78185L5.09864 4.86577Z" fill="black"/>
</svg>
