<svg width="32" height="32" viewBox="0 0 32 32" fill="none" xmlns="http://www.w3.org/2000/svg">
<path fill-rule="evenodd" clip-rule="evenodd" d="M24.9671 5.20658C25.2672 5.49206 25.2791 5.96679 24.9936 6.26691L21.0936 10.3669C20.8081 10.667 20.3334 10.6789 20.0333 10.3934C19.7332 10.1079 19.7213 9.63321 20.0068 9.33309L23.9068 5.23309C24.1922 4.93297 24.667 4.9211 24.9671 5.20658ZM16.5989 7.1149C16.8316 7.16198 17.0283 7.31647 17.1292 7.53141L23.2292 20.5314C23.3304 20.7473 23.3231 20.9984 23.2093 21.2079C23.0955 21.4174 22.8889 21.5604 22.6527 21.593L16.4336 22.4508C16.4221 23.9524 15.5755 25.3781 14.0576 26.0342C11.9924 26.9984 9.54934 26.1471 8.57157 24.0693C8.559 24.0426 8.54801 24.0152 8.53867 23.9872C8.51963 23.93 8.49478 23.8634 8.46652 23.7876C8.4411 23.7194 8.41292 23.6438 8.38372 23.5611L5.977 23.8931L6.13413 24.2422C6.3041 24.62 6.13569 25.064 5.75796 25.2339C5.38023 25.4039 4.93622 25.2355 4.76624 24.8578L2.06624 18.8578C1.89627 18.48 2.06468 18.036 2.44241 17.8661C2.82014 17.6961 3.26415 17.8645 3.43413 18.2422L3.53444 18.4652L15.9485 7.29253C16.1249 7.1337 16.3662 7.06781 16.5989 7.1149ZM4.18079 19.9015L5.33543 22.4674L21.4384 20.2462L16.2006 9.08366L4.18079 19.9015ZM9.90582 23.3512C9.91854 23.3866 9.932 23.425 9.94634 23.4672C10.5779 24.759 12.111 25.2925 13.4308 24.6714C13.4387 24.6677 13.4467 24.6641 13.4547 24.6606C14.3246 24.2878 14.8425 23.5167 14.9229 22.6591L9.90582 23.3512ZM28.3288 10.1307C28.5052 10.5054 28.3443 10.9522 27.9695 11.1286L22.8695 13.5286C22.4947 13.705 22.0479 13.5441 21.8716 13.1693C21.6952 12.7946 21.8561 12.3478 22.2308 12.1714L27.3308 9.77139C27.7056 9.59502 28.1524 9.75587 28.3288 10.1307ZM29.8991 15.9099C29.9213 16.3235 29.6039 16.6768 29.1903 16.6989L23.5903 16.9989C23.1767 17.0211 22.8234 16.7037 22.8013 16.2901C22.7791 15.8765 23.0964 15.5232 23.5101 15.5011L29.1101 15.2011C29.5237 15.1789 29.877 15.4963 29.8991 15.9099Z" fill="black"/>
</svg>
