<svg width="32" height="32" viewBox="0 0 32 32" fill="none" xmlns="http://www.w3.org/2000/svg">
<path fill-rule="evenodd" clip-rule="evenodd" d="M27.7717 3H15.6744V8.88553H3.95349V27.85H2V29.1579H30V27.85H27.7717V3ZM27.2191 27.85H25.3733V19.9474H18.2105V27.85H16.2271V3.55263H27.2191V27.85ZM15.4982 27.85V9.43815H4.50612V27.85H15.4982ZM18.7632 27.85V20.5H24.8207V27.85H18.7632ZM18.2791 6.26974H25.4419V11.5013H18.2791V6.26974ZM24.8892 10.9487H18.8317V6.82237H24.8892V10.9487ZM25.3733 12.8092H18.2105V18.0408H25.3733V12.8092ZM18.7632 17.4882H24.8207V13.3618H18.7632V17.4882ZM13.5838 11.8421H6.42106V17.0737H13.5838V11.8421ZM6.97369 16.5211H9.64902V12.3947H6.97369V16.5211ZM10.2017 16.5211H13.0312V12.3947H10.2017V16.5211ZM13.5838 18.8421H6.42106V24.0737H13.5838V18.8421ZM6.97369 23.5211H9.64902V19.3947H6.97369V23.5211ZM10.2017 23.5211H13.0312V19.3947H10.2017V23.5211Z" fill="black"/>
</svg>
