<svg width="32" height="32" viewBox="0 0 32 32" fill="none" xmlns="http://www.w3.org/2000/svg">
<path d="M16 2C13.2311 2 10.5243 2.82109 8.22202 4.35943C5.91973 5.89777 4.12532 8.08427 3.06569 10.6424C2.00607 13.2006 1.72882 16.0155 2.26901 18.7313C2.80921 21.447 4.14258 23.9416 6.10051 25.8995C8.05845 27.8574 10.553 29.1908 13.2687 29.731C15.9845 30.2712 18.7994 29.9939 21.3576 28.9343C23.9157 27.8747 26.1022 26.0803 27.6406 23.778C29.1789 21.4757 30 18.7689 30 16C30 12.287 28.525 8.72601 25.8995 6.1005C23.274 3.475 19.713 2 16 2ZM17.5 22.12C17.5 22.5178 17.342 22.8994 17.0607 23.1807C16.7794 23.462 16.3978 23.62 16 23.62C15.6022 23.62 15.2207 23.462 14.9393 23.1807C14.658 22.8994 14.5 22.5178 14.5 22.12V9.88C14.5 9.48218 14.658 9.10064 14.9393 8.81934C15.2207 8.53804 15.6022 8.38 16 8.38C16.3978 8.38 16.7794 8.53804 17.0607 8.81934C17.342 9.10064 17.5 9.48218 17.5 9.88V22.12Z" fill="black"/>
</svg>
