<svg width="32" height="32" viewBox="0 0 32 32" fill="none" xmlns="http://www.w3.org/2000/svg">
<path d="M8.17778 3.20001L8.1776 5.26753H22.7792L22.7793 3.20001H23.8222L23.8221 5.26753L30.08 5.2677V30.08H1.92V5.2677L7.13472 5.26753L7.13482 3.20001H8.17778ZM29.0368 12.5043H2.96288L2.96296 29.0462H29.037L29.0368 12.5043ZM14.4356 23.8769V25.9446H12.3496V23.8769H14.4356ZM9.22074 23.8769V25.9446H7.13482V23.8769H9.22074ZM19.6504 23.8769V25.9446H17.5644V23.8769H19.6504ZM14.4356 19.7416V21.8092H12.3496V19.7416H14.4356ZM9.22074 19.7416V21.8092H7.13482V19.7416H9.22074ZM19.6504 19.7416V21.8092H17.5644V19.7416H19.6504ZM24.8652 19.7416V21.8092H22.7793V19.7416H24.8652ZM14.4356 15.6062V17.6739H12.3496V15.6062H14.4356ZM19.6504 15.6062V17.6739H17.5644V15.6062H19.6504ZM24.8652 15.6062V17.6739H22.7793V15.6062H24.8652ZM7.13472 6.30145L2.96296 6.30155L2.96288 11.4707H29.0368L29.037 6.30155L23.8221 6.30145L23.8222 8.36924H22.7793L22.7792 6.30145H8.1776L8.17778 8.36924H7.13482L7.13472 6.30145Z" fill="black"/>
</svg>
