<svg width="32" height="32" viewBox="0 0 32 32" fill="none" xmlns="http://www.w3.org/2000/svg">
<path d="M26.1093 8.31934L24.9993 9.41934C25.1393 9.61934 25.2793 9.80934 25.4093 10.0093H24.4093L22.9093 11.5093H26.1993C27.1963 13.9105 27.3236 16.5843 26.5593 19.0693C26.3233 19.8445 26.0048 20.5921 25.6093 21.2993L21.0693 13.3593L19.9993 14.4593L20.7893 15.8293L18.2793 20.0893H14.3393L12.8393 21.5893H17.3693L14.2293 26.9193C12.4941 26.6673 10.8427 26.0094 9.40934 24.9993L8.31934 26.1093C10.2505 27.5177 12.5397 28.3529 14.9241 28.5191C17.3084 28.6854 19.6914 28.176 21.7993 27.0493C24.783 25.458 27.0124 22.7467 27.9969 19.5117C28.9815 16.2766 28.6406 12.783 27.0493 9.79934C26.7691 9.28578 26.455 8.79136 26.1093 8.31934ZM21.1093 25.7193C19.5036 26.566 17.7146 27.0055 15.8993 26.9993L21.6093 17.2893L24.6793 22.6593C23.7209 23.9258 22.4996 24.9698 21.0993 25.7193H21.1093Z" fill="black"/>
<path d="M5.48934 23.2893L6.57934 22.1893C6.44934 21.9893 6.29934 21.7993 6.16934 21.5893H7.16934L8.66934 20.0893H5.39934C4.39419 17.6918 4.2528 15.0196 4.99934 12.5293C5.25322 11.7529 5.58841 11.0054 5.99934 10.2993L10.5393 18.2393L11.6393 17.1393L10.8593 15.7693L13.3593 11.5093H17.2693L18.7593 9.99934H14.2293L17.3693 4.65934C19.1024 4.91348 20.7526 5.56739 22.1893 6.56934L23.2793 5.49934C20.9491 3.80016 18.1109 2.9426 15.2296 3.0671C12.3483 3.1916 9.59464 4.29078 7.41962 6.18463C5.24459 8.07848 3.7771 10.6547 3.25746 13.4915C2.73782 16.3283 3.19684 19.2575 4.55934 21.7993C4.83388 22.3173 5.14465 22.8152 5.48934 23.2893ZM10.4893 5.87934C12.0885 5.02039 13.8741 4.56713 15.6893 4.55934L9.99934 14.2693L6.91934 8.90934C7.88479 7.65737 9.10502 6.6246 10.4993 5.87934H10.4893Z" fill="black"/>
<path d="M28.3793 3.21934C28.2387 3.07889 28.0481 3 27.8493 3C27.6506 3 27.46 3.07889 27.3193 3.21934L3.21934 27.3193C3.07889 27.46 3 27.6506 3 27.8493C3 28.0481 3.07889 28.2387 3.21934 28.3793C3.35997 28.5198 3.55059 28.5987 3.74934 28.5987C3.94809 28.5987 4.13871 28.5198 4.27934 28.3793L28.3793 4.27934C28.4501 4.21039 28.5063 4.12798 28.5447 4.03695C28.5831 3.94593 28.6029 3.84813 28.6029 3.74934C28.6029 3.65055 28.5831 3.55275 28.5447 3.46173C28.5063 3.3707 28.4501 3.28829 28.3793 3.21934Z" fill="black"/>
</svg>
