<svg width="32" height="32" viewBox="0 0 32 32" fill="none" xmlns="http://www.w3.org/2000/svg">
<path d="M27.32 13.6635C27.3211 11.5885 26.7682 9.55087 25.7185 7.76092C24.6687 5.97096 23.16 4.49358 21.3483 3.48131C19.5366 2.46904 17.4875 1.95858 15.4125 2.00263C13.3375 2.04668 11.3119 2.64364 9.54477 3.73188C7.77766 4.82012 6.33311 6.36019 5.36027 8.19309C4.38744 10.026 3.92157 12.0853 4.01078 14.1583C4.09998 16.2314 4.74103 18.243 5.86773 19.9856C6.99443 21.7282 8.56594 23.1385 10.42 24.071L7.91 26.9104C7.66734 27.1762 7.5085 27.5077 7.45336 27.8634C7.39822 28.219 7.44922 28.5831 7.6 28.9099C7.75036 29.2406 7.99434 29.5201 8.30178 29.7138C8.60923 29.9074 8.96669 30.0068 9.33 29.9996H22C22.3655 30.0051 22.7246 29.9028 23.0323 29.7054C23.3399 29.508 23.5826 29.2244 23.73 28.8899C23.8808 28.5631 23.9318 28.1991 23.8766 27.8434C23.8215 27.4877 23.6627 27.1562 23.42 26.8904L20.9 24.071C22.8277 23.099 24.4482 21.6117 25.5815 19.7745C26.7148 17.9373 27.3166 15.822 27.32 13.6635ZM22.32 27.9001C22.366 27.9507 22.3962 28.0136 22.4069 28.0811C22.4176 28.1486 22.4082 28.2178 22.38 28.28C22.3474 28.3474 22.2961 28.4039 22.2323 28.4429C22.1685 28.4819 22.0948 28.5017 22.02 28.5H9.33C9.26035 28.4962 9.19299 28.4738 9.13495 28.4351C9.0769 28.3964 9.0303 28.3429 9 28.28C8.96341 28.2234 8.94394 28.1575 8.94394 28.0901C8.94394 28.0227 8.96341 27.9567 9 27.9001L11.85 24.6809C14.2977 25.5342 16.9623 25.5342 19.41 24.6809L22.32 27.9001ZM15.69 23.8211C13.6793 23.827 11.712 23.2363 10.0373 22.1238C8.36251 21.0113 7.05561 19.427 6.28202 17.5715C5.50843 15.7159 5.30295 13.6726 5.69158 11.7003C6.08021 9.72793 7.04548 7.91522 8.46518 6.49165C9.88488 5.06808 11.6952 4.09768 13.6668 3.70331C15.6385 3.30894 17.6829 3.50833 19.5411 4.27625C21.3993 5.04416 22.9879 6.34607 24.1056 8.01712C25.2234 9.68817 25.82 11.6532 25.82 13.6635C25.8174 16.3566 24.7461 18.9387 22.8413 20.8431C20.9365 22.7474 18.3538 23.8184 15.66 23.8211H15.69Z" fill="black"/>
<path d="M15.66 11.0041C15.1339 11.0041 14.6196 11.1601 14.1822 11.4523C13.7447 11.7445 13.4038 12.1599 13.2025 12.6458C13.0012 13.1317 12.9485 13.6664 13.0511 14.1823C13.1537 14.6982 13.4071 15.172 13.7791 15.5439C14.1511 15.9159 14.6251 16.1691 15.1411 16.2718C15.657 16.3744 16.1919 16.3217 16.6779 16.1204C17.164 15.9191 17.5794 15.5783 17.8717 15.141C18.164 14.7036 18.32 14.1895 18.32 13.6635C18.32 12.9582 18.0398 12.2818 17.5409 11.783C17.0421 11.2843 16.3655 11.0041 15.66 11.0041Z" fill="black"/>
<path d="M15.66 7.49494C14.4369 7.49296 13.2406 7.8539 12.2228 8.53205C11.205 9.21019 10.4113 10.175 9.94235 11.3044C9.47336 12.4338 9.35013 13.677 9.58827 14.8764C9.82641 16.0759 10.4152 17.1777 11.2801 18.0424C12.145 18.9071 13.2471 19.4957 14.4468 19.7338C15.6465 19.9719 16.89 19.8487 18.0196 19.3798C19.1493 18.9109 20.1143 18.1174 20.7927 17.0999C21.471 16.0823 21.832 14.8863 21.83 13.6635C21.8274 12.0283 21.1765 10.4608 20.0199 9.30459C18.8634 8.14833 17.2956 7.49759 15.66 7.49494ZM15.66 18.3424C14.734 18.3444 13.8281 18.0716 13.0572 17.5587C12.2863 17.0458 11.6849 16.3157 11.3291 15.461C10.9734 14.6062 10.8793 13.6651 11.0587 12.7568C11.2382 11.8485 11.6831 11.0139 12.3372 10.3586C12.9913 9.7032 13.8252 9.25659 14.7333 9.07524C15.6414 8.89389 16.5829 8.98596 17.4386 9.3398C18.2944 9.69364 19.0259 10.2933 19.5406 11.063C20.0553 11.8327 20.33 12.7377 20.33 13.6635C20.33 14.9027 19.8383 16.0913 18.9628 16.9684C18.0873 17.8456 16.8995 18.3397 15.66 18.3424Z" fill="black"/>
</svg>
