<svg width="32" height="32" viewBox="0 0 32 32" fill="none" xmlns="http://www.w3.org/2000/svg">
<path d="M23.2121 3C19.5187 3 16.4242 5.98394 16.4242 9.76359C16.4242 13.4438 19.4189 16.5272 23.2121 16.5272C26.9055 16.5272 30 13.5432 30 9.76359C30 5.98394 27.0053 3 23.2121 3ZM25.7077 10.4598H20.7166C20.3173 10.4598 19.918 10.1614 19.918 9.66412C20.0178 9.26627 20.3173 8.96787 20.7166 8.96787H25.7077C26.107 8.96787 26.5062 9.26627 26.5062 9.76359C26.5062 10.1614 26.2068 10.4598 25.7077 10.4598Z" fill="black"/>
<path fill-rule="evenodd" clip-rule="evenodd" d="M3.49733 8.78274C3.58954 6.39012 5.46698 4.5417 7.83957 4.5417H16.025C16.4384 4.5417 16.7736 4.20771 16.7736 3.79572C16.7736 3.38372 16.4384 3.04973 16.025 3.04973H7.83957C4.62638 3.04973 2.11414 5.57115 2.00048 8.74232C2.00016 8.75119 2 8.76007 2 8.76894V16.925C2 20.122 4.63109 22.7437 7.83957 22.7437H8.8877V28.264C8.8877 28.5657 9.07011 28.8377 9.34986 28.9532C9.62962 29.0687 9.95163 29.0048 10.1657 28.7915L16.2352 22.7437H24.1105C27.319 22.7437 29.9501 20.122 29.9501 16.925C29.9501 16.513 29.6149 16.1791 29.2014 16.1791C28.788 16.1791 28.4528 16.513 28.4528 16.925C28.4528 19.298 26.4921 21.2517 24.1105 21.2517H15.9251C15.7266 21.2517 15.5362 21.3303 15.3958 21.4702L10.385 26.463V21.9977C10.385 21.5857 10.0498 21.2517 9.63636 21.2517H7.83957C5.45804 21.2517 3.49733 19.298 3.49733 16.925V8.78274Z" fill="black"/>
</svg>
