<svg width="32" height="32" viewBox="0 0 32 32" fill="none" xmlns="http://www.w3.org/2000/svg">
<path fill-rule="evenodd" clip-rule="evenodd" d="M3.02818 15.2954C3.02818 9.56201 9.10162 5 16.5163 5C23.9301 5 30 9.56147 30 15.2954C30 21.0249 23.9287 25.5864 16.5163 25.5864C15.2024 25.5864 13.9132 25.4422 12.676 25.162C11.9957 25.4741 11.2718 25.7354 10.5095 25.9499C8.14216 26.6159 5.8565 26.7748 3.3329 26.6971C3.27169 26.6952 2.92712 26.6837 2.85863 26.682C2.80441 26.6806 2.76646 26.6801 2.74332 26.6805C2.0602 26.8445 1.66575 25.7849 2.37613 25.4397C4.93141 24.1979 6.13641 23.3968 6.64134 22.3065C4.34461 20.4262 3.02818 17.9475 3.02818 15.2954ZM10.1541 24.6864C10.9254 24.4694 11.6493 24.2017 12.319 23.8796C12.4554 23.8141 12.6102 23.7976 12.7573 23.8331C13.9625 24.1238 15.2256 24.2739 16.5163 24.2739C23.2722 24.2739 28.6875 20.2052 28.6875 15.2954C28.6875 10.3811 23.2735 6.31248 16.5163 6.31248C9.75812 6.31248 4.34067 10.3818 4.34067 15.2954C4.34067 17.6546 5.59493 19.8848 7.81852 21.5627C8.03689 21.7275 8.13013 22.0105 8.0525 22.2728C7.66801 23.572 6.87445 24.4337 5.27765 25.391C6.95177 25.343 8.54181 25.14 10.1541 24.6864Z" fill="black"/>
</svg>
