<svg width="32" height="32" viewBox="0 0 32 32" fill="none" xmlns="http://www.w3.org/2000/svg">
<path fill-rule="evenodd" clip-rule="evenodd" d="M8.68571 26.1309C9.57277 25.8813 10.4053 25.5734 11.1754 25.203C11.3323 25.1276 11.5103 25.1087 11.6795 25.1495C13.0655 25.4838 14.5182 25.6564 16.0025 25.6564C23.7721 25.6564 30 20.9773 30 15.3307C30 9.67904 23.7737 5 16.0025 5C8.23033 5 2 9.67986 2 15.3307C2 18.0439 3.44247 20.6088 5.99969 22.5385C6.25083 22.728 6.35806 23.0534 6.26878 23.3551C5.8266 24.8493 4.91397 25.8403 3.07757 26.9412C5.00289 26.886 6.83151 26.6525 8.68571 26.1309Z" fill="black"/>
</svg>
