<svg width="32" height="32" viewBox="0 0 32 32" fill="none" xmlns="http://www.w3.org/2000/svg">
<circle cx="16" cy="16" r="14" fill="#C4C4C4"/>
<path fill-rule="evenodd" clip-rule="evenodd" d="M21.8305 9.2308C22.1076 8.95643 22.5458 8.96784 22.8093 9.25627C23.0728 9.54471 23.0619 10.001 22.7848 10.2753L17.0086 15.9955L22.4768 21.404C22.7408 21.6651 22.7636 22.0914 22.5377 22.3807L22.5019 22.423C22.2386 22.7116 21.8004 22.7233 21.5232 22.4492L16.0043 16.9902L10.1695 22.7692C9.90561 23.0305 9.49558 23.0326 9.22949 22.783L9.19069 22.7437C8.92717 22.4553 8.93813 21.999 9.21516 21.7247L14.9991 15.9962L9.21548 10.2756C8.95148 10.0145 8.92872 9.58826 9.15463 9.29894L9.19039 9.25661C9.45373 8.968 9.89193 8.9563 10.1691 9.23048L16.0037 15.0014L21.8305 9.2308Z" fill="black"/>
</svg>
