<svg width="32" height="32" viewBox="0 0 32 32" fill="none" xmlns="http://www.w3.org/2000/svg">
<path d="M25.8 14.5C25.8 11.5 23.4 9.1 20.4 9.1C18.3 9.1 16.4 10.4 15.5 12.3C14.7 12 13.9 11.8 13 11.8C10 11.8 7.4 13.9 6.6 16.7C4 16.9 2 19 2 21.6C2 24.3 4.2 26.5 6.9 26.5H20.2C22.4 26.5 24.2 24.7 24.2 22.5C24.2 21.3 23.6 20.2 22.8 19.4C24.6 18.5 25.8 16.7 25.8 14.5ZM20.2 25H6.9C5 25 3.5 23.5 3.5 21.6C3.5 19.7 5 18.2 6.9 18.2H7.2C7.6 18.2 7.9 17.9 7.9 17.6C8.3 15.1 10.4 13.3 12.9 13.3C15.7 13.3 18 15.6 18 18.4C18 18.7 18 18.9 17.9 19.1C17.9 19.3 17.9 19.5 18.1 19.7C18.3 19.9 18.4 20 18.7 20H20.2C21.6 20 22.7 21.1 22.7 22.5C22.7 23.9 21.6 25 20.2 25ZM20.4 18.4C20.3 18.4 20.2 18.4 20.2 18.4H19.5V18.3C19.5 16.1 18.4 14.2 16.8 13C17.4 11.6 18.8 10.6 20.4 10.6C22.5 10.6 24.3 12.3 24.3 14.5C24.3 16.7 22.6 18.4 20.4 18.4Z" fill="black"/>
<path d="M20.4 8.2C20.8 8.2 21.2 7.9 21.2 7.4V5.8C21.2 5.4 20.9 5 20.4 5C19.9 5 19.6 5.3 19.6 5.8V7.5C19.7 7.8 20 8.2 20.4 8.2Z" fill="black"/>
<path d="M25.5 10.3C25.7 10.3 25.9 10.2 26 10.1L27.2 8.9C27.5 8.6 27.5 8.1 27.2 7.8C26.9 7.5 26.4 7.5 26.1 7.8L25 9C24.7 9.3 24.7 9.8 25 10.1C25.1 10.2 25.3 10.3 25.5 10.3Z" fill="black"/>
<path d="M29.2 13.8H27.5C27.1 13.8 26.7 14.1 26.7 14.6C26.7 15.1 27 15.4 27.5 15.4H29.2C29.6 15.4 30 15.1 30 14.6C30 14.1 29.7 13.8 29.2 13.8Z" fill="black"/>
<path d="M26 19.1C25.7 18.8 25.2 18.8 24.9 19.1C24.6 19.4 24.6 19.9 24.9 20.2L26.1 21.4C26.2 21.5 26.4 21.6 26.6 21.6C26.8 21.6 27 21.5 27.1 21.4C27.4 21.1 27.4 20.6 27.1 20.3L26 19.1Z" fill="black"/>
<path d="M14.9 10C15 10.1 15.2 10.2 15.4 10.2C15.6 10.2 15.8 10.1 15.9 10C16.2 9.7 16.2 9.2 15.9 8.9L14.7 7.7C14.4 7.4 13.9 7.4 13.6 7.7C13.3 8 13.3 8.5 13.6 8.8L14.9 10Z" fill="black"/>
</svg>
