<svg width="32" height="32" viewBox="0 0 32 32" fill="none" xmlns="http://www.w3.org/2000/svg">
<path d="M26.8 23.6H26.5C26.5 21.5 25.1 19.7 23.2 18.9C23.6 18 23.8 17 23.8 16C23.8 11.7 20.3 8.2 16 8.2C11.7 8.2 8.2 11.7 8.2 16C8.2 19.6 10.6 22.6 13.9 23.5C13.2 24.2 12.8 25.1 12.8 26.2C12.8 28.3 14.5 30.1 16.7 30.1H26.8C28.6 30.1 30 28.7 30 26.9C30 25.1 28.6 23.6 26.8 23.6ZM9.8 16C9.8 12.6 12.6 9.8 16 9.8C19.4 9.8 22.2 12.6 22.2 16C22.2 16.9 22 17.8 21.6 18.6C21.5 18.6 21.4 18.6 21.2 18.6C18.9 18.6 16.9 20.1 16.3 22.3C16.2 22.3 16 22.3 15.9 22.3C12.6 22.2 9.8 19.4 9.8 16ZM26.8 28.5H16.7C15.4 28.5 14.3 27.4 14.3 26.1C14.3 24.8 15.4 23.7 16.7 23.7H17C17.4 23.7 17.7 23.4 17.7 23.1C18 21.3 19.5 20 21.3 20C23.3 20 24.9 21.6 24.9 23.6C24.9 23.8 24.9 24 24.9 24.1C24.9 24.3 24.9 24.5 25.1 24.7C25.2 24.9 25.5 25 25.7 25H26.8C27.7 25 28.5 25.8 28.5 26.7C28.5 27.6 27.7 28.5 26.8 28.5Z" fill="black"/>
<path d="M16 6C16.4 6 16.8 5.7 16.8 5.2V2.8C16.8 2.3 16.4 2 16 2C15.6 2 15.2 2.3 15.2 2.8V5.3C15.2 5.7 15.6 6 16 6Z" fill="black"/>
<path d="M23.6 9.1C23.8 9.1 24 9 24.1 8.9L25.9 7.1C26.2 6.8 26.2 6.3 25.9 6C25.6 5.7 25.1 5.7 24.8 6L23 7.8C22.7 8.1 22.7 8.6 23 8.9C23.2 9.1 23.4 9.1 23.6 9.1Z" fill="black"/>
<path d="M7.9 23.1L6.1 24.9C5.8 25.2 5.8 25.7 6.1 26C6.2 26.1 6.4 26.2 6.6 26.2C6.8 26.2 7 26 7.2 25.9L9 24.1C9.3 23.8 9.3 23.3 9 23C8.7 22.7 8.2 22.8 7.9 23.1Z" fill="black"/>
<path d="M26.8 16.8H29.3C29.7 16.8 30.1 16.5 30.1 16C30.1 15.5 29.8 15.2 29.3 15.2H26.8C26.4 15.2 26 15.5 26 16C26 16.5 26.3 16.8 26.8 16.8Z" fill="black"/>
<path d="M5.2 15.2H2.8C2.3 15.2 2 15.6 2 16C2 16.4 2.3 16.8 2.8 16.8H5.3C5.7 16.8 6 16.4 6 16C6 15.6 5.7 15.2 5.2 15.2Z" fill="black"/>
<path d="M7.9 8.9C8 9.1 8.2 9.1 8.4 9.1C8.6 9.1 8.8 9 8.9 8.9C9.2 8.6 9.2 8.1 8.9 7.8L7.2 6.1C6.9 5.8 6.4 5.8 6.1 6.1C5.8 6.4 5.8 6.9 6.1 7.2L7.9 8.9Z" fill="black"/>
</svg>
