<svg width="32" height="32" viewBox="0 0 32 32" fill="none" xmlns="http://www.w3.org/2000/svg">
<path d="M23.6001 16.74V28H26.8001V14.31C25.9374 15.3583 24.8416 16.1905 23.6001 16.74Z" fill="black"/>
<path d="M26.8001 8.75C26.8001 7.41498 26.4042 6.10994 25.6625 4.9999C24.9208 3.88987 23.8666 3.02471 22.6332 2.51382C21.3998 2.00292 20.0426 1.86925 18.7333 2.1297C17.4239 2.39015 16.2212 3.03303 15.2772 3.97703C14.3332 4.92104 13.6903 6.12377 13.4298 7.43314C13.1694 8.74252 13.303 10.0997 13.8139 11.3331C14.3248 12.5665 15.19 13.6207 16.3 14.3624C17.4101 15.1041 18.7151 15.5 20.0501 15.5C21.8403 15.5 23.5572 14.7888 24.8231 13.523C26.089 12.2571 26.8001 10.5402 26.8001 8.75ZM18.2801 11.27C18.1816 11.2705 18.0839 11.2512 17.9929 11.2135C17.9019 11.1757 17.8194 11.1201 17.7501 11.05C17.6097 10.9094 17.5308 10.7188 17.5308 10.52C17.5308 10.3213 17.6097 10.1306 17.7501 9.99L19.0001 8.75L17.7501 7.51C17.6176 7.36783 17.5455 7.17978 17.549 6.98548C17.5524 6.79118 17.6311 6.60579 17.7685 6.46838C17.9059 6.33097 18.0913 6.25226 18.2856 6.24883C18.4799 6.2454 18.668 6.31752 18.8101 6.45L20.0501 7.69L21.2901 6.45C21.4323 6.31752 21.6203 6.2454 21.8146 6.24883C22.009 6.25226 22.1943 6.33097 22.3317 6.46838C22.4692 6.60579 22.5479 6.79118 22.5513 6.98548C22.5547 7.17978 22.4826 7.36783 22.3501 7.51L21.1101 8.75L22.3501 10C22.4906 10.1406 22.5695 10.3313 22.5695 10.53C22.5695 10.7288 22.4906 10.9194 22.3501 11.06C22.2809 11.1301 22.1983 11.1857 22.1073 11.2235C22.0163 11.2612 21.9187 11.2805 21.8201 11.28C21.7213 11.2822 21.6232 11.2638 21.5319 11.2259C21.4406 11.1881 21.3583 11.1315 21.2901 11.06L20.0501 9.81L18.8101 11.05C18.7409 11.1201 18.6583 11.1757 18.5673 11.2135C18.4763 11.2512 18.3787 11.2705 18.2801 11.27Z" fill="black"/>
<path d="M17.4001 17.09V28H20.6001V17.48H20.0501C19.1519 17.4885 18.2578 17.357 17.4001 17.09Z" fill="black"/>
<path d="M6.60013 20C6.38927 19.9973 6.18001 20.0369 5.98467 20.1163C5.78934 20.1958 5.61188 20.3135 5.46277 20.4626C5.31366 20.6118 5.1959 20.7892 5.11645 20.9845C5.03699 21.1799 4.99744 21.3891 5.00013 21.6V28H8.20013V21.6C8.20281 21.3891 8.16326 21.1799 8.08381 20.9845C8.00435 20.7892 7.8866 20.6118 7.73749 20.4626C7.58837 20.3135 7.41092 20.1958 7.21559 20.1163C7.02025 20.0369 6.81099 19.9973 6.60013 20Z" fill="black"/>
<path d="M12.8001 15C12.5893 14.9973 12.38 15.0369 12.1847 15.1163C11.9893 15.1958 11.8119 15.3135 11.6628 15.4626C11.5137 15.6118 11.3959 15.7892 11.3164 15.9845C11.237 16.1799 11.1974 16.3891 11.2001 16.6V28H14.4001V16.6C14.4028 16.3891 14.3633 16.1799 14.2838 15.9845C14.2044 15.7892 14.0866 15.6118 13.9375 15.4626C13.7884 15.3135 13.6109 15.1958 13.4156 15.1163C13.2203 15.0369 13.011 14.9973 12.8001 15Z" fill="black"/>
</svg>
