<svg width="32" height="32" viewBox="0 0 32 32" fill="none" xmlns="http://www.w3.org/2000/svg">
<path d="M26.64 14.6859V13.3559C26.6374 12.0969 26.1361 10.8902 25.2458 10C24.3556 9.10979 23.149 8.6085 21.89 8.60586H16.75V6.30586C16.7557 6.26271 16.7557 6.21901 16.75 6.17586C17.2276 6.00611 17.6299 5.67309 17.8858 5.23557C18.1417 4.79806 18.2349 4.28419 18.1487 3.78469C18.0626 3.28519 17.8028 2.83217 17.4151 2.50563C17.0274 2.17908 16.5369 2 16.03 2C15.5231 2 15.0326 2.17908 14.6449 2.50563C14.2572 2.83217 13.9974 3.28519 13.9113 3.78469C13.8251 4.28419 13.9183 4.79806 14.1742 5.23557C14.4301 5.67309 14.8324 6.00611 15.31 6.17586C15.3043 6.21901 15.3043 6.26271 15.31 6.30586V8.60586H10.11C8.85103 8.6085 7.64439 9.10979 6.75416 10C5.86394 10.8902 5.36264 12.0969 5.36 13.3559V14.6859C4.42307 14.8597 3.57566 15.3537 2.96275 16.0834C2.34984 16.813 2.00951 17.733 2 18.6859V19.8459C2.0076 20.7993 2.34724 21.7202 2.96048 22.4503C3.57372 23.1803 4.42222 23.6738 5.36 23.8459V25.1759C5.35072 25.8055 5.46673 26.4307 5.70128 27.0151C5.93583 27.5995 6.28424 28.1314 6.72625 28.58C7.16826 29.0285 7.69503 29.3846 8.27594 29.6277C8.85685 29.8708 9.48029 29.9959 10.11 29.9959H21.89C23.1498 29.9959 24.358 29.4954 25.2488 28.6046C26.1396 27.7138 26.64 26.5056 26.64 25.2459V23.9159C27.5778 23.7438 28.4263 23.2503 29.0395 22.5203C29.6528 21.7902 29.9924 20.8693 30 19.9159V18.7259C29.9998 17.7661 29.6637 16.8367 29.05 16.0988C28.4362 15.3609 27.5836 14.861 26.64 14.6859ZM5.36 22.3759C4.82399 22.2151 4.35386 21.8862 4.01896 21.4379C3.68406 20.9896 3.50213 20.4455 3.5 19.8859V18.7259C3.50053 18.1659 3.68186 17.621 4.01699 17.1723C4.35213 16.7237 4.82316 16.3952 5.36 16.2359V22.3759ZM15.25 28.4959H12.53V24.4959H15.25V28.4959ZM19.47 28.4959H16.75V24.4959H19.47V28.4959ZM25.14 25.2459C25.1374 26.107 24.7941 26.9321 24.1852 27.541C23.5763 28.15 22.7511 28.4932 21.89 28.4959H21V23.7559C20.9974 23.5578 20.9176 23.3685 20.7775 23.2284C20.6374 23.0883 20.4481 23.0084 20.25 23.0059H11.78C11.5819 23.0084 11.3926 23.0883 11.2525 23.2284C11.1124 23.3685 11.0326 23.5578 11.03 23.7559V28.4959H10.11C9.24886 28.4932 8.42374 28.15 7.81482 27.541C7.20589 26.9321 6.86264 26.107 6.86 25.2459V13.3559C6.86264 12.4947 7.20589 11.6696 7.81482 11.0607C8.42374 10.4518 9.24886 10.1085 10.11 10.1059H21.89C22.7511 10.1085 23.5763 10.4518 24.1852 11.0607C24.7941 11.6696 25.1374 12.4947 25.14 13.3559V25.2459ZM28.5 19.8859C28.4979 20.4455 28.3159 20.9896 27.981 21.4379C27.6461 21.8862 27.176 22.2151 26.64 22.3759V16.2359C27.1768 16.3952 27.6479 16.7237 27.983 17.1723C28.3181 17.621 28.4995 18.1659 28.5 18.7259V19.8859Z" fill="black"/>
<path d="M12.16 13.5559C11.5667 13.5559 10.9866 13.7318 10.4933 14.0614C9.99994 14.3911 9.61542 14.8596 9.38836 15.4078C9.1613 15.956 9.10189 16.5592 9.21764 17.1411C9.3334 17.7231 9.61912 18.2576 10.0387 18.6772C10.4582 19.0967 10.9928 19.3825 11.5747 19.4982C12.1567 19.614 12.7599 19.5546 13.3081 19.3275C13.8562 19.1004 14.3248 18.7159 14.6544 18.2226C14.9841 17.7292 15.16 17.1492 15.16 16.5559C15.16 15.7602 14.8439 14.9971 14.2813 14.4345C13.7187 13.8719 12.9556 13.5559 12.16 13.5559ZM12.16 18.0559C11.8633 18.0559 11.5733 17.9679 11.3266 17.8031C11.08 17.6382 10.8877 17.404 10.7742 17.1299C10.6606 16.8558 10.6309 16.5542 10.6888 16.2632C10.7467 15.9723 10.8896 15.705 11.0993 15.4952C11.3091 15.2854 11.5764 15.1426 11.8674 15.0847C12.1583 15.0268 12.4599 15.0565 12.734 15.17C13.0081 15.2836 13.2424 15.4758 13.4072 15.7225C13.572 15.9692 13.66 16.2592 13.66 16.5559C13.66 16.9537 13.502 17.3352 13.2207 17.6165C12.9394 17.8978 12.5578 18.0559 12.16 18.0559Z" fill="black"/>
<path d="M19.84 13.5559C19.2467 13.5559 18.6666 13.7318 18.1733 14.0614C17.6799 14.3911 17.2954 14.8596 17.0684 15.4078C16.8413 15.956 16.7819 16.5592 16.8976 17.1411C17.0134 17.7231 17.2991 18.2576 17.7187 18.6772C18.1382 19.0967 18.6728 19.3825 19.2547 19.4982C19.8367 19.614 20.4399 19.5546 20.9881 19.3275C21.5362 19.1004 22.0048 18.7159 22.3344 18.2226C22.6641 17.7292 22.84 17.1492 22.84 16.5559C22.84 15.7602 22.5239 14.9971 21.9613 14.4345C21.3987 13.8719 20.6356 13.5559 19.84 13.5559ZM19.84 18.0559C19.5433 18.0559 19.2533 17.9679 19.0066 17.8031C18.76 17.6382 18.5677 17.404 18.4542 17.1299C18.3406 16.8558 18.3109 16.5542 18.3688 16.2632C18.4267 15.9723 18.5696 15.705 18.7793 15.4952C18.9891 15.2854 19.2564 15.1426 19.5474 15.0847C19.8383 15.0268 20.1399 15.0565 20.414 15.17C20.6881 15.2836 20.9224 15.4758 21.0872 15.7225C21.252 15.9692 21.34 16.2592 21.34 16.5559C21.34 16.9537 21.182 17.3352 20.9007 17.6165C20.6194 17.8978 20.2378 18.0559 19.84 18.0559Z" fill="black"/>
</svg>
