<svg width="32" height="32" viewBox="0 0 32 32" fill="none" xmlns="http://www.w3.org/2000/svg">
<path d="M21.47 16.6058C21.3294 16.4654 21.1388 16.3865 20.94 16.3865C20.7413 16.3865 20.5507 16.4654 20.41 16.6058C20.2713 16.7494 20.1938 16.9412 20.1938 17.1408C20.1938 17.3404 20.2713 17.5323 20.41 17.6758C20.7747 18.0391 21.064 18.4708 21.2614 18.9461C21.4588 19.4215 21.5605 19.9311 21.5605 20.4458C21.5605 20.9605 21.4588 21.4702 21.2614 21.9455C21.064 22.4209 20.7747 22.8526 20.41 23.2158C20.2696 23.3564 20.1907 23.5471 20.1907 23.7458C20.1907 23.9446 20.2696 24.1352 20.41 24.2758C20.5518 24.4147 20.7416 24.4935 20.94 24.4958C21.138 24.4915 21.3272 24.413 21.47 24.2758C21.9741 23.7724 22.3739 23.1746 22.6468 22.5166C22.9196 21.8585 23.06 21.1532 23.06 20.4408C23.06 19.7285 22.9196 19.0231 22.6468 18.3651C22.3739 17.707 21.9741 17.1092 21.47 16.6058Z" fill="black"/>
<path d="M13.55 19.5658C13.3756 19.5638 13.2045 19.6138 13.0584 19.7092C12.9124 19.8047 12.7981 19.9415 12.7299 20.1021C12.6618 20.2627 12.6429 20.4399 12.6757 20.6113C12.7086 20.7826 12.7916 20.9404 12.9142 21.0645C13.0369 21.1885 13.1937 21.2733 13.3646 21.3081C13.5356 21.3429 13.7131 21.3261 13.8744 21.2598C14.0358 21.1934 14.1739 21.0807 14.271 20.9357C14.3682 20.7908 14.42 20.6203 14.42 20.4458C14.4214 20.3307 14.3998 20.2165 14.3567 20.1098C14.3136 20.0031 14.2497 19.906 14.1688 19.8242C14.0879 19.7423 13.9915 19.6773 13.8853 19.633C13.7791 19.5886 13.6651 19.5658 13.55 19.5658Z" fill="black"/>
<path d="M25.9 12.1858C25.8314 12.1121 25.7486 12.053 25.6566 12.012C25.5646 11.9711 25.4653 11.949 25.3646 11.9472C25.2639 11.9455 25.1638 11.964 25.0704 12.0017C24.9771 12.0394 24.8922 12.0956 24.821 12.1668C24.7498 12.238 24.6936 12.3228 24.6559 12.4162C24.6182 12.5096 24.5997 12.6096 24.6014 12.7103C24.6032 12.811 24.6253 12.9104 24.6663 13.0024C24.7072 13.0944 24.7663 13.1772 24.84 13.2458C26.7477 15.1564 27.8192 17.7459 27.8192 20.4458C27.8192 23.1457 26.7477 25.7353 24.84 27.6458C24.7693 27.7148 24.713 27.7972 24.6746 27.8882C24.6362 27.9792 24.6165 28.077 24.6165 28.1758C24.6165 28.2746 24.6362 28.3724 24.6746 28.4634C24.713 28.5545 24.7693 28.6369 24.84 28.7058C24.9818 28.8447 25.1716 28.9235 25.37 28.9258C25.568 28.9215 25.7572 28.843 25.9 28.7058C26.9849 27.6212 27.8455 26.3335 28.4327 24.9162C29.0198 23.4989 29.322 21.9799 29.322 20.4458C29.322 18.9117 29.0198 17.3927 28.4327 15.9754C27.8455 14.5582 26.9849 13.2704 25.9 12.1858Z" fill="black"/>
<path d="M16.15 19.5658C15.976 19.5658 15.8059 19.6174 15.6611 19.7141C15.5164 19.8108 15.4036 19.9483 15.337 20.1091C15.2704 20.2699 15.253 20.4468 15.2869 20.6175C15.3209 20.7882 15.4047 20.945 15.5278 21.0681C15.6509 21.1911 15.8077 21.275 15.9784 21.3089C16.1491 21.3429 16.326 21.3254 16.4868 21.2588C16.6476 21.1922 16.785 21.0794 16.8817 20.9347C16.9784 20.79 17.03 20.6199 17.03 20.4458C17.0314 20.3299 17.0095 20.2149 16.9658 20.1075C16.922 20.0001 16.8573 19.9026 16.7753 19.8206C16.6933 19.7386 16.5957 19.6738 16.4884 19.6301C16.381 19.5863 16.266 19.5645 16.15 19.5658Z" fill="black"/>
<path d="M18.76 19.5658C18.5856 19.5638 18.4145 19.6138 18.2684 19.7092C18.1224 19.8047 18.0081 19.9415 17.9399 20.1021C17.8718 20.2627 17.8529 20.4399 17.8857 20.6113C17.9186 20.7826 18.0016 20.9404 18.1242 21.0645C18.2469 21.1885 18.4037 21.2733 18.5746 21.3081C18.7456 21.3429 18.9231 21.3261 19.0844 21.2598C19.2458 21.1934 19.3839 21.0807 19.481 20.9357C19.5782 20.7908 19.63 20.6203 19.63 20.4458C19.6314 20.3307 19.6098 20.2165 19.5667 20.1098C19.5236 20.0031 19.4597 19.906 19.3788 19.8242C19.2979 19.7423 19.2015 19.6773 19.0953 19.633C18.9891 19.5886 18.8751 19.5658 18.76 19.5658Z" fill="black"/>
<path d="M15.71 5.48582C18.0521 5.46896 20.3085 6.36578 22 7.98582C22.1375 8.10881 22.3156 8.17681 22.5 8.17681C22.6845 8.17681 22.8625 8.10881 23 7.98582C23.1405 7.8452 23.2194 7.65457 23.2194 7.45582C23.2194 7.25707 23.1405 7.06645 23 6.92582C21.5132 5.50049 19.6406 4.54297 17.6146 4.17202C15.5886 3.80108 13.4983 4.03303 11.6029 4.8391C9.70751 5.64518 8.09043 6.98992 6.95222 8.70654C5.81402 10.4232 5.20477 12.4361 5.20004 14.4958V15.1758C4.29486 15.3606 3.48155 15.853 2.89822 16.5694C2.3149 17.2858 1.99754 18.182 2.00004 19.1058V21.7758C1.99601 22.713 2.32119 23.6218 2.91882 24.3437C3.51645 25.0657 4.34859 25.5548 5.27004 25.7258L6.35004 25.9258C6.47649 25.9362 6.60358 25.9362 6.73004 25.9258C7.28272 25.9206 7.8113 25.6987 8.20213 25.3079C8.59295 24.9171 8.81482 24.3885 8.82004 23.8358V16.9858C8.81893 16.6796 8.75024 16.3775 8.61887 16.1009C8.48749 15.8243 8.29667 15.5801 8.06004 15.3858C7.67075 15.0909 7.187 14.9486 6.70004 14.9858V14.5458C6.69212 13.358 6.9194 12.1804 7.36877 11.0809C7.81814 9.98141 8.48071 8.98172 9.31829 8.13949C10.1559 7.29726 11.1519 6.62917 12.2489 6.17372C13.3459 5.71827 14.5222 5.48448 15.71 5.48582ZM6.71004 16.4258C6.8648 16.4258 7.01337 16.4866 7.12373 16.5951C7.2341 16.7036 7.29741 16.8511 7.30004 17.0058V23.8758C7.29932 23.9625 7.27919 24.0479 7.24112 24.1258C7.20305 24.2037 7.148 24.272 7.08004 24.3258C7.01582 24.3834 6.93854 24.4244 6.8549 24.4453C6.77125 24.4662 6.68377 24.4664 6.60004 24.4458L5.53004 24.2458C4.96285 24.1281 4.45383 23.8179 4.08931 23.3677C3.72478 22.9175 3.52719 22.3551 3.53004 21.7758V19.1058C3.52945 18.5195 3.73414 17.9515 4.1086 17.5003C4.48306 17.0491 5.00364 16.7433 5.58004 16.6358L6.65004 16.4358L6.71004 16.4258Z" fill="black"/>
<path d="M23.65 14.4258C23.5814 14.3521 23.4986 14.293 23.4066 14.252C23.3146 14.2111 23.2153 14.189 23.1146 14.1872C23.0139 14.1855 22.9138 14.204 22.8204 14.2417C22.7271 14.2794 22.6422 14.3356 22.571 14.4068C22.4998 14.478 22.4436 14.5628 22.4059 14.6562C22.3682 14.7496 22.3497 14.8496 22.3514 14.9503C22.3532 15.051 22.3753 15.1504 22.4163 15.2424C22.4572 15.3344 22.5163 15.4172 22.59 15.4858C23.2416 16.136 23.7586 16.9084 24.1113 17.7586C24.464 18.6089 24.6455 19.5203 24.6455 20.4408C24.6455 21.3613 24.464 22.2728 24.1113 23.123C23.7586 23.9733 23.2416 24.7456 22.59 25.3958C22.4496 25.5364 22.3707 25.7271 22.3707 25.9258C22.3707 26.1246 22.4496 26.3152 22.59 26.4558C22.6593 26.5259 22.7418 26.5815 22.8328 26.6193C22.9239 26.6571 23.0215 26.6763 23.12 26.6758C23.2188 26.6781 23.317 26.6596 23.4083 26.6218C23.4995 26.5839 23.5819 26.5274 23.65 26.4558C25.2402 24.8639 26.1334 22.7059 26.1334 20.4558C26.1334 18.2058 25.2402 16.0477 23.65 14.4558V14.4258Z" fill="black"/>
</svg>
