<svg width="32" height="32" viewBox="0 0 32 32" fill="none" xmlns="http://www.w3.org/2000/svg">
<path d="M20.2 6.2998C19.2 5.7998 18.1 5.8998 17.3 6.5998L11.1 11.2998H5.8C5.3 11.2998 5 11.6998 5 12.0998V19.6998C5 20.0998 5.3 20.4998 5.8 20.4998H11.1L17.3 25.2998C17.8 25.6998 18.4 25.8998 19 25.8998C19.4 25.8998 19.8 25.7998 20.2 25.5998C21.2 25.0998 21.8 24.1998 21.8 23.0998V8.7998C21.8 7.6998 21.2 6.7998 20.2 6.2998ZM10.6 18.8998H6.5V12.7998H10.6V18.8998ZM20.3 22.9998C20.3 23.4998 20 23.8998 19.6 24.1998C19.2 24.4998 18.6 24.3998 18.2 24.0998L12.1 19.3998V12.4998L18.2 7.7998C18.6 7.4998 19.1 7.3998 19.6 7.6998C20.1 7.9998 20.3 8.3998 20.3 8.8998V22.9998Z" fill="black"/>
<path d="M25 11.9999C24.7 11.6999 24.2 11.6999 23.9 11.9999C23.6 12.2999 23.6 12.7999 23.9 13.0999C24.7 13.8999 25.1 14.8999 25.1 15.9999C25.1 17.0999 24.7 18.0999 23.9 18.8999C23.6 19.1999 23.6 19.6999 23.9 19.9999C24 20.0999 24.2 20.1999 24.4 20.1999C24.6 20.1999 24.8 20.0999 24.9 19.9999C25.9 18.9999 26.5 17.5999 26.5 16.0999C26.5 14.5999 26 12.9999 25 11.9999Z" fill="black"/>
</svg>
