<svg width="32" height="32" viewBox="0 0 32 32" fill="none" xmlns="http://www.w3.org/2000/svg">
<path d="M29.25 15.2358C29.0519 15.2384 28.8626 15.3182 28.7225 15.4581C28.5824 15.5981 28.5026 15.7871 28.5 15.985V18.7221C28.5 18.987 28.3946 19.2411 28.2071 19.4284C28.0196 19.6158 27.7652 19.721 27.5 19.721H26.78V17.7731C26.78 17.5744 26.701 17.3838 26.5603 17.2433C26.4197 17.1028 26.2289 17.0239 26.03 17.0239C25.8311 17.0239 25.6403 17.1028 25.4997 17.2433C25.359 17.3838 25.28 17.5744 25.28 17.7731V21.9786C25.28 22.2435 25.1746 22.4976 24.9871 22.6849C24.7996 22.8723 24.5452 22.9775 24.28 22.9775H14.28C14.0812 22.9777 13.8905 23.0567 13.75 23.1973L9.53 27.4128V23.7067C9.52233 23.5123 9.44024 23.3283 9.30068 23.1926C9.16112 23.0569 8.97474 22.9799 8.78 22.9775H4.51C4.24478 22.9775 3.99043 22.8723 3.80289 22.6849C3.61536 22.4976 3.51 22.2435 3.51 21.9786V7.73386C3.51 7.46893 3.61536 7.21484 3.80289 7.02751C3.99043 6.84017 4.24478 6.73493 4.51 6.73493H14.18C14.3789 6.73493 14.5697 6.656 14.7103 6.51549C14.851 6.37499 14.93 6.18443 14.93 5.98573C14.93 5.78703 14.851 5.59647 14.7103 5.45597C14.5697 5.31547 14.3789 5.23653 14.18 5.23653H6.74V4.49733C6.74 4.23239 6.84536 3.97831 7.03289 3.79098C7.22043 3.60364 7.47478 3.4984 7.74 3.4984H16.5C16.6989 3.4984 16.8897 3.41946 17.0303 3.27896C17.171 3.13846 17.25 2.9479 17.25 2.7492C17.25 2.5505 17.171 2.35994 17.0303 2.21944C16.8897 2.07894 16.6989 2 16.5 2H7.75C7.08604 2 6.44912 2.26279 5.97869 2.73084C5.50826 3.1989 5.24265 3.83408 5.24 4.49733V5.22655H4.51C3.84512 5.22918 3.20822 5.49418 2.73807 5.96383C2.26792 6.43347 2.00263 7.06969 2 7.73386V21.9786C2.00263 22.6428 2.26792 23.279 2.73807 23.7486C3.20822 24.2183 3.84512 24.4833 4.51 24.4859H8V29.2508C7.999 29.3984 8.04228 29.543 8.12427 29.6658C8.20625 29.7887 8.32319 29.8842 8.46 29.9401C8.55147 29.9799 8.65022 30.0003 8.75 30C8.94841 29.9977 9.13828 29.919 9.28 29.7802L14.57 24.4959H24.21C24.5443 24.5012 24.8763 24.44 25.1867 24.3159C25.497 24.1917 25.7796 24.0072 26.0178 23.7729C26.2561 23.5386 26.4453 23.2593 26.5744 22.9512C26.7036 22.6432 26.77 22.3126 26.77 21.9786V21.2494H27.49C27.8213 21.2494 28.1493 21.1839 28.4552 21.0566C28.761 20.9294 29.0386 20.7429 29.2719 20.5079C29.5053 20.273 29.6898 19.9942 29.8147 19.6877C29.9397 19.3812 30.0026 19.053 30 18.7221V15.985C29.9974 15.7871 29.9176 15.5981 29.7775 15.4581C29.6374 15.3182 29.4481 15.2384 29.25 15.2358Z" fill="black"/>
<path d="M23.25 15.4856C24.585 15.4856 25.8901 15.0901 27.0001 14.3492C28.1101 13.6083 28.9753 12.5552 29.4862 11.3231C29.9971 10.091 30.1308 8.7353 29.8703 7.42733C29.6098 6.11936 28.967 4.91791 28.023 3.97492C27.079 3.03192 25.8762 2.38973 24.5669 2.12956C23.2575 1.86939 21.9003 2.00292 20.6669 2.51327C19.4335 3.02361 18.3793 3.88785 17.6376 4.99669C16.8959 6.10554 16.5 7.40918 16.5 8.74278C16.5 10.5311 17.2112 12.2461 18.477 13.5106C19.7429 14.7752 21.4598 15.4856 23.25 15.4856ZM20.95 7.49411C20.8417 7.34984 20.7891 7.17138 20.8019 6.99149C20.8147 6.8116 20.892 6.64236 21.0197 6.51483C21.1473 6.38731 21.3168 6.31007 21.4968 6.29728C21.6769 6.2845 21.8556 6.33703 22 6.44524L23.24 7.68391L24.48 6.44524C24.6222 6.3129 24.8102 6.24086 25.0045 6.24428C25.1988 6.2477 25.3842 6.32633 25.5216 6.4636C25.659 6.60086 25.7377 6.78605 25.7412 6.98014C25.7446 7.17424 25.6725 7.36208 25.54 7.5041L24.31 8.74278L25.55 9.99144C25.6904 10.1319 25.7693 10.3223 25.7693 10.5209C25.7693 10.7194 25.6904 10.9098 25.55 11.0503C25.4808 11.1203 25.3982 11.1759 25.3072 11.2136C25.2162 11.2513 25.1185 11.2705 25.02 11.2701C24.9212 11.2723 24.823 11.2539 24.7318 11.2161C24.6405 11.1782 24.5582 11.1218 24.49 11.0503L23.25 9.80164L22 11.0403C21.8594 11.1806 21.6688 11.2594 21.47 11.2594C21.2712 11.2594 21.0806 11.1806 20.94 11.0403C20.8103 10.8926 20.7439 10.6998 20.7551 10.5036C20.7663 10.3074 20.8543 10.1235 21 9.99144L22.24 8.75277L20.95 7.49411Z" fill="black"/>
<path d="M9 18.1227H15.38C15.5789 18.1227 15.7697 18.0438 15.9103 17.9033C16.051 17.7628 16.13 17.5722 16.13 17.3735C16.13 17.1748 16.051 16.9843 15.9103 16.8438C15.7697 16.7033 15.5789 16.6243 15.38 16.6243H9C8.80109 16.6243 8.61032 16.7033 8.46967 16.8438C8.32902 16.9843 8.25 17.1748 8.25 17.3735C8.25 17.5722 8.32902 17.7628 8.46967 17.9033C8.61032 18.0438 8.80109 18.1227 9 18.1227Z" fill="black"/>
<path d="M15.09 13.4377C15.2889 13.4377 15.4797 13.3588 15.6203 13.2183C15.761 13.0778 15.84 12.8872 15.84 12.6885C15.84 12.4898 15.761 12.2993 15.6203 12.1588C15.4797 12.0183 15.2889 11.9394 15.09 11.9394H9C8.80109 11.9394 8.61032 12.0183 8.46967 12.1588C8.32902 12.2993 8.25 12.4898 8.25 12.6885C8.25 12.8872 8.32902 13.0778 8.46967 13.2183C8.61032 13.3588 8.80109 13.4377 9 13.4377H15.09Z" fill="black"/>
</svg>
