<svg width="32" height="32" viewBox="0 0 32 32" fill="none" xmlns="http://www.w3.org/2000/svg">
<path d="M17.2545 6.31362C16.2509 5.81183 15.147 5.91219 14.3441 6.6147L8.12186 11.3315H2.80287C2.30108 11.3315 2 11.733 2 12.1344V19.7616C2 20.1631 2.30108 20.5645 2.80287 20.5645H8.12186L14.3441 25.3817C14.8459 25.7832 15.448 25.9839 16.0502 25.9839C16.4516 25.9839 16.853 25.8835 17.2545 25.6828C18.2581 25.181 18.8602 24.2778 18.8602 23.1738V8.82258C18.8602 7.71864 18.2581 6.81541 17.2545 6.31362ZM7.62007 18.9588H3.50538V12.8369H7.62007V18.9588ZM17.3548 23.0735C17.3548 23.5753 17.0538 23.9767 16.6523 24.2778C16.2509 24.4785 15.6487 24.4785 15.2473 24.1774L9.02509 19.4606V12.5358L15.2473 7.819C15.6487 7.51792 16.1505 7.41756 16.6523 7.71864C17.0538 7.91935 17.3548 8.42115 17.3548 8.92294V23.0735Z" fill="black"/>
</svg>
