<svg width="32" height="32" viewBox="0 0 32 32" fill="none" xmlns="http://www.w3.org/2000/svg">
<path d="M14.5044 13.7642C14.5044 14.061 14.5924 14.3511 14.7573 14.5978C14.9222 14.8446 15.1566 15.0369 15.4307 15.1505C15.7049 15.2641 16.0066 15.2938 16.2977 15.2359C16.5888 15.178 16.8561 15.0351 17.066 14.8252C17.2759 14.6154 17.4188 14.348 17.4767 14.0569C17.5346 13.7658 17.5048 13.4641 17.3913 13.1899C17.2777 12.9158 17.0854 12.6814 16.8386 12.5165C16.5919 12.3516 16.3017 12.2636 16.005 12.2636C15.607 12.2636 15.2253 12.4217 14.9439 12.7031C14.6625 12.9845 14.5044 13.3662 14.5044 13.7642Z" fill="black"/>
<path d="M23.1875 15.5048C24.523 15.5048 25.8285 15.1088 26.9389 14.3668C28.0494 13.6248 28.9148 12.5703 29.4259 11.3364C29.937 10.1026 30.0707 8.74491 29.8102 7.43507C29.5496 6.12523 28.9065 4.92207 27.9622 3.97773C27.0178 3.03339 25.8147 2.39029 24.5048 2.12975C23.195 1.86921 21.8373 2.00293 20.6035 2.514C19.3696 3.02507 18.3151 3.89054 17.5731 5.00097C16.8311 6.11139 16.4351 7.4169 16.4351 8.7524C16.4351 10.5432 17.1465 12.2607 18.4128 13.5271C19.6792 14.7934 21.3967 15.5048 23.1875 15.5048ZM19.5762 8.73239C19.6452 8.66161 19.7276 8.60535 19.8187 8.56694C19.9098 8.52853 20.0076 8.50874 20.1064 8.50874C20.2052 8.50874 20.3031 8.52853 20.3941 8.56694C20.4852 8.60535 20.5676 8.66161 20.6366 8.73239L22.2972 10.393L25.6784 5.88138C25.7375 5.80256 25.8116 5.73615 25.8964 5.68595C25.9811 5.63576 26.075 5.60275 26.1725 5.58881C26.27 5.57488 26.3694 5.58029 26.4648 5.60475C26.5603 5.6292 26.6499 5.67221 26.7288 5.73133C26.8076 5.79044 26.874 5.8645 26.9242 5.94928C26.9744 6.03406 27.0074 6.1279 27.0213 6.22544C27.0353 6.32297 27.0299 6.4223 27.0054 6.51774C26.9809 6.61318 26.9379 6.70288 26.8788 6.7817L23.0074 12.0035C22.9443 12.0918 22.862 12.1646 22.7667 12.2166C22.6714 12.2685 22.5656 12.2983 22.4573 12.3037H22.3972C22.2987 12.3041 22.201 12.2849 22.1099 12.2471C22.0189 12.2093 21.9363 12.1537 21.867 12.0836L19.5762 9.79277C19.5054 9.7238 19.4492 9.64135 19.4108 9.55029C19.3724 9.45923 19.3526 9.36141 19.3526 9.26258C19.3526 9.16375 19.3724 9.06592 19.4108 8.97486C19.4492 8.88381 19.5054 8.80136 19.5762 8.73239Z" fill="black"/>
<path d="M29.1096 15.5948C28.9186 15.5418 28.7145 15.5655 28.5407 15.6608C28.367 15.7561 28.2373 15.9155 28.1793 16.105C26.8488 20.7667 21.847 24.0078 16.005 24.0078C14.8292 24.0071 13.6576 23.8694 12.5137 23.5977C12.4096 23.5701 12.3005 23.5665 12.1948 23.5873C12.0891 23.6081 11.9895 23.6527 11.9035 23.7177L7.00177 27.269L8.54232 22.6773C8.59609 22.5195 8.59578 22.3483 8.54144 22.1907C8.4871 22.0331 8.38181 21.8981 8.24221 21.807C6.83615 20.985 5.66172 19.8196 4.82891 18.4199C3.99609 17.0202 3.53215 15.4321 3.48052 13.8042C3.50053 8.10217 9.11252 3.50054 16.005 3.50054C16.2031 3.49794 16.3925 3.41807 16.5326 3.27792C16.6728 3.13778 16.7526 2.94845 16.7552 2.75027C16.7526 2.55209 16.6728 2.36276 16.5326 2.22262C16.3925 2.08247 16.2031 2.00259 16.005 2C8.28223 2 2 7.27187 2 13.7642C2.03607 15.559 2.51071 17.3178 3.38254 18.8871C4.25437 20.4564 5.4969 21.7885 7.00177 22.7674L4.85101 29.0096C4.79818 29.1599 4.79597 29.3234 4.84474 29.4752C4.89351 29.6269 4.99056 29.7585 5.12111 29.8499C5.24683 29.9479 5.40186 30.0007 5.56126 29.9999C5.71927 30.0021 5.87372 29.953 6.00142 29.8599L12.5037 25.1482C13.6539 25.3997 14.8277 25.5272 16.005 25.5283C22.5073 25.5283 28.1093 21.827 29.6198 16.5252C29.6488 16.4306 29.6585 16.3312 29.6484 16.2328C29.6384 16.1344 29.6087 16.039 29.5611 15.9523C29.5135 15.8656 29.4491 15.7892 29.3715 15.7279C29.294 15.6665 29.2049 15.6212 29.1096 15.5948Z" fill="black"/>
<path d="M8.94246 13.7642C8.94246 14.061 9.03047 14.3511 9.19535 14.5978C9.36023 14.8446 9.59458 15.0369 9.86876 15.1505C10.143 15.2641 10.4447 15.2938 10.7357 15.2359C11.0268 15.178 11.2942 15.0351 11.504 14.8252C11.7139 14.6154 11.8568 14.348 11.9147 14.0569C11.9726 13.7658 11.9429 13.4641 11.8293 13.1899C11.7157 12.9158 11.5234 12.6814 11.2766 12.5165C11.0299 12.3516 10.7398 12.2636 10.443 12.2636C10.045 12.2636 9.66336 12.4217 9.38196 12.7031C9.10055 12.9845 8.94246 13.3662 8.94246 13.7642Z" fill="black"/>
</svg>
