<svg width="32" height="32" viewBox="0 0 32 32" fill="none" xmlns="http://www.w3.org/2000/svg">
<path d="M23.1878 2C19.4812 2 16.3757 4.99465 16.3757 8.78788C16.3757 12.5811 19.381 15.4759 23.1878 15.4759C26.8945 15.4759 30 12.4813 30 8.78788C30 5.09447 26.9946 2 23.1878 2ZM25.6923 9.48663H20.6834C20.2826 9.48663 19.8819 9.18717 19.8819 8.68806C19.9821 8.28877 20.2826 7.9893 20.6834 7.9893H25.6923C26.093 7.9893 26.4937 8.28877 26.4937 8.78788C26.4937 9.18717 26.1932 9.48663 25.6923 9.48663Z" fill="black"/>
<path d="M15.975 15.2763C16.8049 15.2763 17.4776 14.6059 17.4776 13.779C17.4776 12.952 16.8049 12.2816 15.975 12.2816C15.145 12.2816 14.4723 12.952 14.4723 13.779C14.4723 14.6059 15.145 15.2763 15.975 15.2763Z" fill="black"/>
<path d="M10.3649 15.2763C11.1948 15.2763 11.8676 14.6059 11.8676 13.779C11.8676 12.952 11.1948 12.2816 10.3649 12.2816C9.53503 12.2816 8.86225 12.952 8.86225 13.779C8.86225 14.6059 9.53503 15.2763 10.3649 15.2763Z" fill="black"/>
<path fill-rule="evenodd" clip-rule="evenodd" d="M2 13.779C2 7.1537 8.38182 2.04991 15.975 2.04991C16.3899 2.04991 16.7263 2.3851 16.7263 2.79857C16.7263 3.21205 16.3899 3.54724 15.975 3.54724C8.94197 3.54724 3.50268 8.22598 3.50268 13.779C3.50268 16.9756 5.33796 19.9509 8.26779 21.8344C8.55706 22.0203 8.6825 22.3784 8.5722 22.7033L7.0193 27.2781L11.9293 23.7527C12.1088 23.6238 12.3361 23.5803 12.5507 23.6338C13.6746 23.9137 14.8115 24.0107 16.0751 24.0107C22.1251 24.0107 26.9843 20.5728 28.2758 16.0688C28.3898 15.6713 28.8056 15.4411 29.2046 15.5547C29.6036 15.6682 29.8346 16.0826 29.7206 16.4802C28.2071 21.7587 22.6477 25.508 16.0751 25.508C14.8542 25.508 13.6942 25.4229 12.53 25.1669L5.9956 29.8587C5.73061 30.049 5.37261 30.0469 5.1099 29.8535C4.8472 29.6601 4.73997 29.3198 4.84462 29.0115L6.96541 22.7637C3.95839 20.638 2 17.3787 2 13.779Z" fill="black"/>
</svg>
