<svg width="32" height="32" viewBox="0 0 32 32" fill="none" xmlns="http://www.w3.org/2000/svg">
<path d="M20.36 3C20.1611 3 19.9703 3.07902 19.8297 3.21967C19.689 3.36032 19.61 3.55109 19.61 3.75V27.51C19.61 27.7089 19.689 27.8997 19.8297 28.0403C19.9703 28.181 20.1611 28.26 20.36 28.26C20.5589 28.26 20.7497 28.181 20.8903 28.0403C21.031 27.8997 21.11 27.7089 21.11 27.51V3.75C21.1074 3.55189 21.0276 3.36263 20.8875 3.22253C20.7474 3.08244 20.5581 3.00259 20.36 3Z" fill="black"/>
<path d="M10.75 3C10.5519 3.00259 10.3626 3.08244 10.2225 3.22253C10.0824 3.36263 10.0026 3.55189 10 3.75V27.51C10 27.7089 10.079 27.8997 10.2197 28.0403C10.3603 28.181 10.5511 28.26 10.75 28.26C10.9489 28.26 11.1397 28.181 11.2803 28.0403C11.421 27.8997 11.5 27.7089 11.5 27.51V3.75C11.4974 3.55189 11.4176 3.36263 11.2775 3.22253C11.1374 3.08244 10.9481 3.00259 10.75 3Z" fill="black"/>
</svg>
