<svg width="32" height="32" viewBox="0 0 32 32" fill="none" xmlns="http://www.w3.org/2000/svg">
<path fill-rule="evenodd" clip-rule="evenodd" d="M16.1743 2C23.7337 2 29.8761 8.14161 29.9981 15.7684L30 16C30 23.732 23.8119 30 16.1743 30H15.8257C8.18997 30 2 23.7337 2 16C2 8.26801 8.18806 2 15.8257 2H16.1743ZM16.1978 3.43794H15.8022C8.9679 3.43794 3.42405 9.0633 3.42405 16C3.42405 22.9389 8.96535 28.5621 15.8022 28.5621H16.1978C23.0321 28.5621 28.5759 22.9367 28.5759 16C28.5759 9.06113 23.0347 3.43794 16.1978 3.43794ZM25.2946 10.3046C25.4654 10.3046 25.6137 10.3685 25.7395 10.4962C25.8653 10.6239 25.9237 10.7744 25.9147 10.9477C25.9057 11.121 25.8383 11.2715 25.7125 11.3992L14.6047 22.0441C14.4789 22.1536 14.3351 22.2083 14.1733 22.2083C14.0116 22.2083 13.8768 22.1536 13.7689 22.0441L8.29591 16.8175C8.17009 16.6897 8.10719 16.5392 8.10719 16.3659C8.10719 16.1926 8.16111 16.0421 8.26895 15.9144C8.39477 15.7867 8.54305 15.7229 8.7138 15.7229C8.88455 15.7229 9.03283 15.7776 9.15865 15.887L14.2542 20.758L24.8498 10.4688C24.9756 10.3594 25.1239 10.3046 25.2946 10.3046Z" fill="black"/>
</svg>
