<svg width="32" height="32" viewBox="0 0 32 32" fill="none" xmlns="http://www.w3.org/2000/svg">
<path fill-rule="evenodd" clip-rule="evenodd" d="M11.8185 7.46682L7.30191 2.94362C10.7291 1.22754 14.9337 1.85259 17.8918 4.81503C20.4738 7.40081 21.1948 11.2009 20.0547 14.4648L28.9489 23.3719C30.3504 24.9308 30.3504 27.4273 28.9489 28.8308C27.3922 30.3897 24.8994 30.3897 23.4979 28.8308L14.6768 19.9969C11.3675 21.2558 7.45396 20.5618 4.81094 17.9149C1.8528 14.9506 1.22866 10.7399 2.94225 7.30962L7.45888 11.8328C8.70343 13.081 10.5721 13.081 11.8185 11.8328C13.065 10.5865 13.065 8.71505 11.8185 7.46682Z" fill="black"/>
</svg>
