<svg width="32" height="32" viewBox="0 0 32 32" fill="none" xmlns="http://www.w3.org/2000/svg">
<path d="M5.50007 8.27V24.77C5.50266 24.9681 5.58251 25.1574 5.72261 25.2975C5.8627 25.4376 6.05197 25.5174 6.25007 25.52H25.7501C25.9482 25.5174 26.1374 25.4376 26.2775 25.2975C26.4176 25.1574 26.4975 24.9681 26.5001 24.77V8.27C26.5001 8.07109 26.4211 7.88032 26.2804 7.73967C26.1398 7.59902 25.949 7.52 25.7501 7.52H6.25007C6.05116 7.52 5.86039 7.59902 5.71974 7.73967C5.57909 7.88032 5.50007 8.07109 5.50007 8.27ZM20.1101 24H11.8901V22.76C11.8901 22.2203 11.9964 21.6858 12.2029 21.1872C12.4095 20.6885 12.7122 20.2354 13.0939 19.8538C13.4755 19.4721 13.9286 19.1694 14.4272 18.9629C14.9259 18.7563 15.4603 18.65 16.0001 18.65C16.5398 18.65 17.0743 18.7563 17.5729 18.9629C18.0716 19.1694 18.5246 19.4721 18.9063 19.8538C19.2879 20.2354 19.5907 20.6885 19.7972 21.1872C20.0038 21.6858 20.1101 22.2203 20.1101 22.76V24ZM7.00007 9H25.0001V24H21.6101V22.76C21.6101 21.2721 21.019 19.8452 19.9669 18.7931C18.9149 17.7411 17.4879 17.15 16.0001 17.15C14.5122 17.15 13.0853 17.7411 12.0332 18.7931C10.9811 19.8452 10.3901 21.2721 10.3901 22.76V24H7.00007V9Z" fill="black"/>
<path d="M16.0001 16.65C16.6745 16.65 17.3338 16.45 17.8946 16.0753C18.4553 15.7006 18.8924 15.168 19.1505 14.545C19.4086 13.9219 19.4761 13.2362 19.3446 12.5747C19.213 11.9133 18.8882 11.3057 18.4113 10.8288C17.9344 10.3519 17.3268 10.0271 16.6653 9.89552C16.0039 9.76395 15.3182 9.83148 14.6951 10.0896C14.072 10.3477 13.5395 10.7847 13.1648 11.3455C12.7901 11.9063 12.5901 12.5656 12.5901 13.24C12.5901 14.1444 12.9493 15.0117 13.5888 15.6512C14.2283 16.2907 15.0957 16.65 16.0001 16.65ZM16.0001 11.33C16.3778 11.33 16.7471 11.442 17.0612 11.6519C17.3753 11.8618 17.6201 12.1601 17.7647 12.5091C17.9092 12.8581 17.9471 13.2421 17.8734 13.6126C17.7997 13.9831 17.6178 14.3235 17.3506 14.5906C17.0835 14.8577 16.7432 15.0396 16.3727 15.1133C16.0022 15.187 15.6182 15.1492 15.2691 15.0046C14.9201 14.86 14.6218 14.6152 14.412 14.3011C14.2021 13.987 14.0901 13.6178 14.0901 13.24C14.0927 12.7342 14.2948 12.25 14.6524 11.8923C15.01 11.5347 15.4943 11.3326 16.0001 11.33Z" fill="black"/>
<path d="M16.0001 5.53C16.2043 5.53 16.4001 5.44888 16.5445 5.30447C16.6889 5.16007 16.7701 4.96422 16.7701 4.76C16.7674 4.55752 16.6852 4.36423 16.541 4.22198C16.3969 4.07973 16.2026 3.99998 16.0001 4C15.7985 4 15.6052 4.08007 15.4627 4.2226C15.3201 4.36513 15.2401 4.55844 15.2401 4.76C15.2387 4.86064 15.2574 4.96055 15.295 5.05391C15.3326 5.14728 15.3884 5.23224 15.4591 5.30388C15.5298 5.37551 15.614 5.43239 15.7069 5.47121C15.7998 5.51002 15.8994 5.53001 16.0001 5.53Z" fill="black"/>
<path d="M27.2501 4H20.0001C19.8012 4 19.6104 4.07902 19.4697 4.21967C19.3291 4.36032 19.2501 4.55109 19.2501 4.75C19.2501 4.94891 19.3291 5.13968 19.4697 5.28033C19.6104 5.42098 19.8012 5.5 20.0001 5.5H27.2401C27.4068 5.49865 27.572 5.53064 27.7262 5.59411C27.8803 5.65758 28.0202 5.75124 28.1376 5.86958C28.255 5.98791 28.3476 6.12853 28.4098 6.28317C28.4721 6.4378 28.5027 6.60333 28.5001 6.77V26.27C28.5001 26.6015 28.3684 26.9195 28.134 27.1539C27.8995 27.3883 27.5816 27.52 27.2501 27.52H4.75007C4.41855 27.52 4.10061 27.3883 3.86619 27.1539C3.63177 26.9195 3.50007 26.6015 3.50007 26.27V6.77C3.49874 6.60548 3.53016 6.44233 3.59251 6.29007C3.65486 6.13782 3.74688 5.99949 3.86322 5.88315C3.97956 5.76681 4.11789 5.67478 4.27015 5.61244C4.42241 5.55009 4.58555 5.51867 4.75007 5.52H12.0001C12.2016 5.52 12.3949 5.43993 12.5375 5.2974C12.68 5.15487 12.7601 4.96156 12.7601 4.76C12.7601 4.55844 12.68 4.36513 12.5375 4.2226C12.3949 4.08007 12.2016 4 12.0001 4H4.75007C4.38725 3.99999 4.02801 4.07178 3.69305 4.21123C3.3581 4.35068 3.05405 4.55503 2.79842 4.81251C2.5428 5.07 2.34065 5.37552 2.20364 5.71148C2.06662 6.04743 1.99743 6.40719 2.00007 6.77V26.27C2.00535 26.9959 2.29741 27.6902 2.81257 28.2016C3.32772 28.713 4.02418 29 4.75007 29H27.2501C27.976 29 28.6724 28.713 29.1876 28.2016C29.7027 27.6902 29.9948 26.9959 30.0001 26.27V6.77C30.0027 6.40719 29.9335 6.04743 29.7965 5.71148C29.6595 5.37552 29.4573 5.07 29.2017 4.81251C28.9461 4.55503 28.642 4.35068 28.3071 4.21123C27.9721 4.07178 27.6129 3.99999 27.2501 4Z" fill="black"/>
</svg>
