<svg width="32" height="32" viewBox="0 0 32 32" fill="none" xmlns="http://www.w3.org/2000/svg">
<path d="M27.2501 4H20.0001C19.8012 4 19.6104 4.07902 19.4697 4.21967C19.3291 4.36032 19.2501 4.55109 19.2501 4.75C19.2501 4.94891 19.3291 5.13968 19.4697 5.28033C19.6104 5.42098 19.8012 5.5 20.0001 5.5H27.2401C27.4068 5.49865 27.572 5.53064 27.7262 5.59411C27.8803 5.65758 28.0202 5.75124 28.1376 5.86958C28.255 5.98791 28.3476 6.12853 28.4098 6.28317C28.4721 6.4378 28.5027 6.60333 28.5001 6.77V26.27C28.5001 26.6015 28.3684 26.9195 28.134 27.1539C27.8995 27.3883 27.5816 27.52 27.2501 27.52H4.75007C4.41855 27.52 4.10061 27.3883 3.86619 27.1539C3.63177 26.9195 3.50007 26.6015 3.50007 26.27V6.77C3.49874 6.60548 3.53016 6.44233 3.59251 6.29007C3.65486 6.13782 3.74688 5.99949 3.86322 5.88315C3.97956 5.76681 4.11789 5.67478 4.27015 5.61244C4.42241 5.55009 4.58555 5.51867 4.75007 5.52H12.0001C12.2016 5.52 12.3949 5.43993 12.5375 5.2974C12.68 5.15487 12.7601 4.96156 12.7601 4.76C12.7601 4.55844 12.68 4.36513 12.5375 4.2226C12.3949 4.08007 12.2016 4 12.0001 4H4.75007C4.38725 3.99999 4.02801 4.07178 3.69305 4.21123C3.3581 4.35068 3.05405 4.55503 2.79842 4.81251C2.5428 5.07 2.34065 5.37552 2.20364 5.71148C2.06662 6.04743 1.99743 6.40719 2.00007 6.77V26.27C2.00535 26.9959 2.29741 27.6902 2.81257 28.2016C3.32772 28.713 4.02418 29 4.75007 29H27.2501C27.976 29 28.6724 28.713 29.1876 28.2016C29.7027 27.6902 29.9948 26.9959 30.0001 26.27V6.77C30.0027 6.40719 29.9335 6.04743 29.7965 5.71148C29.6595 5.37552 29.4573 5.07 29.2017 4.81251C28.9461 4.55503 28.642 4.35068 28.3071 4.21123C27.9721 4.07178 27.6129 3.99999 27.2501 4Z" fill="black"/>
<path d="M5.50007 8.27V24.77C5.50266 24.9681 5.58251 25.1574 5.72261 25.2975C5.8627 25.4376 6.05197 25.5174 6.25007 25.52H25.7501C25.9482 25.5174 26.1374 25.4376 26.2775 25.2975C26.4176 25.1574 26.4975 24.9681 26.5001 24.77V8.27C26.5001 8.07109 26.4211 7.88032 26.2804 7.73967C26.1398 7.59902 25.949 7.52 25.7501 7.52H6.25007C6.05116 7.52 5.86039 7.59902 5.71974 7.73967C5.57909 7.88032 5.50007 8.07109 5.50007 8.27ZM7.00007 9H25.0001V24H7.00007V9Z" fill="black"/>
<path d="M16.0001 5.52C16.4198 5.52 16.7601 5.17974 16.7601 4.76C16.7601 4.34026 16.4198 4 16.0001 4C15.5803 4 15.2401 4.34026 15.2401 4.76C15.2401 5.17974 15.5803 5.52 16.0001 5.52Z" fill="black"/>
</svg>
