<svg width="32" height="32" viewBox="0 0 32 32" fill="none" xmlns="http://www.w3.org/2000/svg">
<path d="M16 30C18.7689 30 21.4757 29.1789 23.778 27.6406C26.0803 26.1022 27.8747 23.9157 28.9343 21.3576C29.9939 18.7994 30.2712 15.9845 29.731 13.2687C29.1908 10.553 27.8574 8.05845 25.8995 6.10051C23.9416 4.14258 21.447 2.80921 18.7313 2.26901C16.0155 1.72882 13.2006 2.00607 10.6424 3.06569C8.08426 4.12532 5.89776 5.91973 4.35943 8.22202C2.82109 10.5243 2 13.2311 2 16C2 19.713 3.475 23.274 6.1005 25.8995C8.72601 28.525 12.287 30 16 30ZM13.375 9.52501L14.25 8.65C15.5058 7.47002 17.1643 6.81313 18.8875 6.81313C20.6107 6.81313 22.2692 7.47002 23.525 8.65C24.1347 9.24063 24.6194 9.94775 24.9504 10.7294C25.2815 11.511 25.4521 12.3512 25.4521 13.2C25.4521 14.0488 25.2815 14.889 24.9504 15.6706C24.6194 16.4523 24.1347 17.1594 23.525 17.75L22.65 18.625C22.4151 18.8517 22.1014 18.9784 21.775 18.9784C21.4486 18.9784 21.1349 18.8517 20.9 18.625C20.7767 18.515 20.678 18.3802 20.6105 18.2294C20.5429 18.0786 20.508 17.9152 20.508 17.75C20.508 17.5848 20.5429 17.4214 20.6105 17.2706C20.678 17.1198 20.7767 16.985 20.9 16.875L21.6 16C22.2835 15.2129 22.7108 14.2362 22.825 13.2C22.8303 12.6732 22.7238 12.1513 22.5127 11.6687C22.3015 11.186 21.9904 10.7537 21.6 10.4C21.2362 10.0253 20.801 9.72747 20.32 9.52407C19.8391 9.32067 19.3222 9.21587 18.8 9.21587C18.2778 9.21587 17.7609 9.32067 17.2799 9.52407C16.799 9.72747 16.3637 10.0253 16 10.4L15.125 11.275C15.015 11.3983 14.8802 11.497 14.7294 11.5645C14.5786 11.6321 14.4152 11.667 14.25 11.667C14.0848 11.667 13.9214 11.6321 13.7706 11.5645C13.6198 11.497 13.485 11.3983 13.375 11.275C13.2517 11.165 13.153 11.0302 13.0855 10.8794C13.0179 10.7286 12.983 10.5652 12.983 10.4C12.983 10.2348 13.0179 10.0714 13.0855 9.9206C13.153 9.76981 13.2517 9.63499 13.375 9.52501ZM13.025 17.05L17.05 13.025C17.311 12.8004 17.6473 12.6827 17.9914 12.6956C18.3355 12.7085 18.662 12.851 18.9055 13.0945C19.149 13.338 19.2915 13.6645 19.3044 14.0086C19.3173 14.3527 19.1996 14.689 18.975 14.95L14.95 18.975C14.6 19.15 14.425 19.325 14.075 19.325C13.7504 19.319 13.4392 19.1946 13.2 18.975C12.9638 18.7177 12.8187 18.3899 12.787 18.0421C12.7554 17.6942 12.839 17.3457 13.025 17.05ZM8.65 14.25L9.525 13.375C9.63499 13.2517 9.7698 13.153 9.92059 13.0855C10.0714 13.0179 10.2348 12.983 10.4 12.983C10.5652 12.983 10.7286 13.0179 10.8794 13.0855C11.0302 13.153 11.165 13.2517 11.275 13.375C11.3983 13.485 11.497 13.6198 11.5645 13.7706C11.6321 13.9214 11.667 14.0848 11.667 14.25C11.667 14.4152 11.6321 14.5786 11.5645 14.7294C11.497 14.8802 11.3983 15.015 11.275 15.125L10.4 16C9.69865 16.7609 9.32193 17.7655 9.35 18.8C9.32914 19.329 9.42854 19.8558 9.64073 20.3408C9.85292 20.8258 10.1724 21.2563 10.575 21.6C11.3173 22.3514 12.3194 22.7897 13.375 22.825C13.904 22.8459 14.4308 22.7465 14.9158 22.5343C15.4008 22.3221 15.8313 22.0026 16.175 21.6L17.05 20.725C17.2882 20.5264 17.592 20.424 17.9018 20.438C18.2117 20.452 18.505 20.5814 18.7243 20.8007C18.9436 21.02 19.073 21.3133 19.087 21.6232C19.101 21.933 18.9986 22.2368 18.8 22.475L17.75 23.35C17.1594 23.9597 16.4523 24.4444 15.6706 24.7755C14.889 25.1065 14.0488 25.2771 13.2 25.2771C12.3512 25.2771 11.511 25.1065 10.7294 24.7755C9.94774 24.4444 9.24062 23.9597 8.65 23.35C8.04034 22.7594 7.55559 22.0523 7.22455 21.2706C6.8935 20.489 6.72292 19.6488 6.72292 18.8C6.72292 17.9512 6.8935 17.111 7.22455 16.3294C7.55559 15.5477 8.04034 14.8406 8.65 14.25Z" fill="black"/>
</svg>
