<svg width="32" height="32" viewBox="0 0 32 32" fill="none" xmlns="http://www.w3.org/2000/svg">
<path fill-rule="evenodd" clip-rule="evenodd" d="M11.2396 2.16727C11.4372 2.0775 11.6639 2.07765 11.8613 2.16768L17.5613 4.76768C17.9381 4.93959 18.1043 5.38444 17.9324 5.7613C17.7605 6.13816 17.3156 6.30431 16.9387 6.13241L12.3 4.01649V23.7671L19.6 27.0853V16.45C19.6 16.0358 19.9358 15.7 20.35 15.7C20.7642 15.7 21.1 16.0358 21.1 16.45V27.0853L28.4 23.7671V16.45C28.4 16.0358 28.7358 15.7 29.15 15.7C29.5642 15.7 29.9 16.0358 29.9 16.45V24.25C29.9 24.5442 29.7281 24.8111 29.4604 24.9328L20.6604 28.9328C20.4632 29.0225 20.2368 29.0225 20.0396 28.9328L11.55 25.0739L3.06035 28.9328C2.82821 29.0383 2.55836 29.0187 2.34396 28.8806C2.12956 28.7426 2 28.505 2 28.25V6.85005C2 6.55594 2.1719 6.28898 2.43965 6.16727L11.2396 2.16727ZM10.8 23.7671V4.0148L3.5 7.33298V27.0853L10.8 23.7671Z" fill="black"/>
<path d="M24.7498 9.15C25.7991 9.15 26.6498 8.29934 26.6498 7.25C26.6498 6.20066 25.7991 5.35 24.7498 5.35C23.7005 5.35 22.8498 6.20066 22.8498 7.25C22.8498 8.29934 23.7005 9.15 24.7498 9.15Z" fill="black"/>
<path fill-rule="evenodd" clip-rule="evenodd" d="M19.4998 7.25C19.4998 4.44662 21.8248 2 24.7498 2C27.664 2 29.9998 4.33579 29.9998 7.25C29.9998 9.65357 28.7498 11.7451 27.5824 13.1849C26.991 13.9142 26.4013 14.5005 25.9592 14.9049C25.7376 15.1076 25.552 15.2657 25.42 15.3744C25.354 15.4287 25.3014 15.4708 25.2643 15.5C25.2458 15.5146 25.2311 15.526 25.2206 15.5341L25.2081 15.5437L25.2042 15.5467L25.2028 15.5477C25.2026 15.5479 25.2019 15.5484 24.7498 14.95C24.2894 15.542 24.2892 15.5419 24.289 15.5417L24.2872 15.5403L24.2834 15.5373L24.2709 15.5275C24.2606 15.5193 24.246 15.5077 24.2276 15.4928C24.1907 15.463 24.1383 15.42 24.0726 15.3644C23.9411 15.2534 23.7559 15.092 23.5349 14.8858C23.0939 14.4741 22.5053 13.8792 21.9152 13.1448C20.7521 11.6975 19.4998 9.60553 19.4998 7.25ZM24.7498 14.95L24.289 15.5417C24.5567 15.75 24.9313 15.7529 25.2019 15.5484L24.7498 14.95ZM24.7555 13.9698C24.8148 13.9176 24.8788 13.8603 24.9467 13.7982C25.3483 13.4308 25.8836 12.8983 26.4172 12.2401C27.4998 10.9049 28.4998 9.14643 28.4998 7.25C28.4998 5.16421 26.8356 3.5 24.7498 3.5C22.6748 3.5 20.9998 5.25338 20.9998 7.25C20.9998 9.09447 21.9975 10.8525 23.0844 12.2052C23.6193 12.8708 24.1557 13.4134 24.5584 13.7892C24.6286 13.8547 24.6945 13.915 24.7555 13.9698Z" fill="black"/>
</svg>
