<svg width="32" height="32" viewBox="0 0 32 32" fill="none" xmlns="http://www.w3.org/2000/svg">
<path d="M12.6623 16.58C12.7014 16.6356 12.7223 16.702 12.7223 16.77V28.2C12.7223 28.5198 12.8076 28.8339 12.9693 29.1098C13.131 29.3858 13.3633 29.6136 13.6423 29.77C13.9152 29.9195 14.2211 29.9986 14.5323 30C14.8572 30.0009 15.1759 29.9109 15.4523 29.74L18.6023 27.85C18.8682 27.6906 19.0883 27.4649 19.2408 27.195C19.3933 26.925 19.473 26.6201 19.4723 26.31V16.77C19.4758 16.701 19.5002 16.6348 19.5423 16.58L27.5423 6.64C27.8782 6.22393 28.0902 5.72176 28.1542 5.19088C28.2182 4.65999 28.1316 4.12181 27.9042 3.63784C27.6768 3.15386 27.3179 2.74362 26.8684 2.454C26.4189 2.16437 25.8969 2.00704 25.3623 2H6.84226C6.30503 2.00146 5.77915 2.15474 5.32526 2.44216C4.87137 2.72958 4.50797 3.13943 4.27695 3.62446C4.04593 4.10949 3.95672 4.64994 4.01958 5.18349C4.08245 5.71704 4.29484 6.22195 4.63226 6.64L12.6623 16.58Z" fill="black"/>
</svg>
