<svg width="32" height="32" viewBox="0 0 32 32" fill="none" xmlns="http://www.w3.org/2000/svg">
<path d="M13.16 9.66C13.1114 9.50691 13.0155 9.37315 12.8862 9.27793C12.7568 9.18271 12.6006 9.13092 12.44 9.13C12.2803 9.12991 12.1249 9.18148 11.9969 9.277C11.8689 9.37252 11.7753 9.50688 11.73 9.66L9.73 16.22L8.73 12.73C8.68456 12.5742 8.58982 12.4374 8.46 12.34C8.33018 12.2426 8.17228 12.19 8.01 12.19C7.84772 12.19 7.68982 12.2426 7.56 12.34C7.43018 12.4374 7.33544 12.5742 7.29 12.73L5.48 18.59C5.44493 18.7015 5.43753 18.8198 5.45844 18.9348C5.47935 19.0498 5.52793 19.158 5.6 19.25C5.66931 19.3437 5.75979 19.4198 5.86405 19.4719C5.96832 19.524 6.08343 19.5508 6.2 19.55H15.2C15.3219 19.5545 15.443 19.5288 15.5525 19.4753C15.662 19.4217 15.7567 19.3419 15.8279 19.2429C15.8992 19.1439 15.9449 19.0289 15.9609 18.908C15.977 18.7871 15.9629 18.6641 15.92 18.55L13.16 9.66ZM7.16 18.05L7.9 15.57L8.64 18.05H7.16ZM10.66 18.05L12.4 12.42L14.15 18.05H10.66Z" fill="black"/>
<path d="M24.06 10.68H17.87C17.6711 10.68 17.4803 10.759 17.3397 10.8997C17.199 11.0403 17.12 11.2311 17.12 11.43C17.12 11.6289 17.199 11.8197 17.3397 11.9603C17.4803 12.101 17.6711 12.18 17.87 12.18H24.06C24.2589 12.18 24.4497 12.101 24.5903 11.9603C24.731 11.8197 24.81 11.6289 24.81 11.43C24.81 11.2311 24.731 11.0403 24.5903 10.8997C24.4497 10.759 24.2589 10.68 24.06 10.68Z" fill="black"/>
<path d="M21.23 14.44H17.87C17.6711 14.44 17.4803 14.519 17.3397 14.6597C17.199 14.8003 17.12 14.9911 17.12 15.19C17.12 15.3889 17.199 15.5797 17.3397 15.7203C17.4803 15.861 17.6711 15.94 17.87 15.94H21.23C21.4289 15.94 21.6197 15.861 21.7603 15.7203C21.901 15.5797 21.98 15.3889 21.98 15.19C21.98 14.9911 21.901 14.8003 21.7603 14.6597C21.6197 14.519 21.4289 14.44 21.23 14.44Z" fill="black"/>
<path d="M27.25 2H4.75C4.02065 2 3.32118 2.28973 2.80546 2.80546C2.28973 3.32118 2 4.02065 2 4.75V21.13C2 21.8593 2.28973 22.5588 2.80546 23.0745C3.32118 23.5903 4.02065 23.88 4.75 23.88H8.35V29.25C8.35 29.4489 8.42902 29.6397 8.56967 29.7803C8.71032 29.921 8.90109 30 9.1 30C9.29891 30 9.48968 29.921 9.63033 29.7803C9.77098 29.6397 9.85 29.4489 9.85 29.25V23.88H11.41V29.25C11.41 29.4489 11.489 29.6397 11.6297 29.7803C11.7703 29.921 11.9611 30 12.16 30C12.3589 30 12.5497 29.921 12.6903 29.7803C12.831 29.6397 12.91 29.4489 12.91 29.25V23.88H20.11V29.25C20.11 29.4489 20.189 29.6397 20.3297 29.7803C20.4703 29.921 20.6611 30 20.86 30C21.0589 30 21.2497 29.921 21.3903 29.7803C21.531 29.6397 21.61 29.4489 21.61 29.25V23.88H23.17V29.25C23.17 29.4489 23.249 29.6397 23.3897 29.7803C23.5303 29.921 23.7211 30 23.92 30C24.1189 30 24.3097 29.921 24.4503 29.7803C24.591 29.6397 24.67 29.4489 24.67 29.25V23.88H27.25C27.9793 23.88 28.6788 23.5903 29.1945 23.0745C29.7103 22.5588 30 21.8593 30 21.13V4.75C30 4.02065 29.7103 3.32118 29.1945 2.80546C28.6788 2.28973 27.9793 2 27.25 2ZM28.5 21.13C28.5 21.4615 28.3683 21.7795 28.1339 22.0139C27.8995 22.2483 27.5815 22.38 27.25 22.38H4.75C4.41848 22.38 4.10054 22.2483 3.86612 22.0139C3.6317 21.7795 3.5 21.4615 3.5 21.13V4.75C3.5 4.41848 3.6317 4.10054 3.86612 3.86612C4.10054 3.6317 4.41848 3.5 4.75 3.5H15.25V5.06H13.82C13.6211 5.06 13.4303 5.13902 13.2897 5.27967C13.149 5.42032 13.07 5.61109 13.07 5.81C13.07 6.00891 13.149 6.19968 13.2897 6.34033C13.4303 6.48098 13.6211 6.56 13.82 6.56H18.18C18.3789 6.56 18.5697 6.48098 18.7103 6.34033C18.851 6.19968 18.93 6.00891 18.93 5.81C18.93 5.61109 18.851 5.42032 18.7103 5.27967C18.5697 5.13902 18.3789 5.06 18.18 5.06H16.75V3.5H27.25C27.5815 3.5 27.8995 3.6317 28.1339 3.86612C28.3683 4.10054 28.5 4.41848 28.5 4.75V21.13Z" fill="black"/>
</svg>
