<svg width="32" height="32" viewBox="0 0 32 32" fill="none" xmlns="http://www.w3.org/2000/svg">
<path d="M20.23 6.89699H7.21339C5.99201 6.89699 5 7.889 5 9.11038V27.7866C5 29.008 5.99201 30 7.21339 30H20.23C21.4514 30 22.4434 29.008 22.4434 27.7866V9.11038C22.4376 7.889 21.4456 6.89699 20.23 6.89699ZM20.2242 8.44522C20.5912 8.44522 20.8894 8.7434 20.8894 9.11038V27.7809C20.8894 28.1479 20.5912 28.446 20.2242 28.446H7.20766C6.84067 28.446 6.54249 28.1479 6.54249 27.7809V9.11038C6.54249 8.7434 6.84067 8.44522 7.20766 8.44522H20.2242ZM25.2073 2C26.4286 2 27.4206 2.99201 27.4206 4.21339V22.8896C27.4206 24.111 26.4286 25.103 25.2073 25.103C24.7772 25.103 24.4331 24.759 24.4331 24.3289C24.4331 23.8988 24.7772 23.5548 25.2073 23.5548C25.5742 23.5548 25.8724 23.2566 25.8724 22.8896V4.21339C25.8724 3.84641 25.5742 3.54823 25.2073 3.54823H12.1907C11.8237 3.54823 11.5255 3.84641 11.5255 4.21339C11.5255 4.64346 11.1814 4.98751 10.7514 4.98751C10.3213 4.98751 9.97727 4.64346 9.97727 4.21339C9.97727 2.99201 10.9693 2 12.1907 2H25.2073Z" fill="black"/>
</svg>
