<svg width="32" height="32" viewBox="0 0 32 32" fill="none" xmlns="http://www.w3.org/2000/svg">
<path d="M4.8118 6C3.26266 6 2 7.25973 2 8.80888V11.5105V14.9982V23.6462C2 25.1953 3.26266 26.458 4.8118 26.458H27.1872C28.7364 26.458 30 25.1953 30 23.6462V14.9982V11.5105V8.80888C30 7.25973 28.7364 6 27.1872 6H4.8118ZM4.8118 6.99871H27.1872C28.2004 6.99871 29.0013 7.79574 29.0013 8.80888V11.0092H2.99871V8.80888C2.99871 7.79574 3.79867 6.99871 4.8118 6.99871ZM2.99871 12.0088H29.0013V14.4968H2.99871V12.0088ZM2.99871 15.4956H29.0013V23.6462C29.0013 24.6593 28.2004 25.4593 27.1872 25.4593H4.8118C3.79867 25.4593 2.99871 24.6593 2.99871 23.6462V15.4956ZM6.05434 18.7911C5.98783 18.7896 5.92169 18.8015 5.85982 18.8259C5.79794 18.8503 5.74157 18.8869 5.69401 18.9334C5.64645 18.9799 5.60866 19.0354 5.58286 19.0968C5.55706 19.1581 5.54377 19.2239 5.54377 19.2905C5.54377 19.357 5.55706 19.4228 5.58286 19.4842C5.60866 19.5455 5.64645 19.601 5.69401 19.6476C5.74157 19.6941 5.79794 19.7306 5.85982 19.755C5.92169 19.7795 5.98783 19.7913 6.05434 19.7898H12.3392C12.4697 19.7869 12.5939 19.733 12.6852 19.6397C12.7765 19.5464 12.8276 19.421 12.8276 19.2905C12.8276 19.1599 12.7765 19.0346 12.6852 18.9412C12.5939 18.8479 12.4697 18.794 12.3392 18.7911H6.05434ZM6.05434 21.4898C5.98783 21.4883 5.9217 21.5001 5.85982 21.5246C5.79795 21.549 5.74158 21.5855 5.69402 21.6321C5.64646 21.6786 5.60867 21.7341 5.58288 21.7954C5.55708 21.8568 5.54379 21.9226 5.54379 21.9891C5.54379 22.0557 5.55708 22.1215 5.58288 22.1828C5.60867 22.2441 5.64646 22.2997 5.69402 22.3462C5.74158 22.3927 5.79795 22.4293 5.85982 22.4537C5.9217 22.4781 5.98783 22.49 6.05434 22.4885H8.73837C8.80488 22.49 8.87101 22.4781 8.93289 22.4537C8.99476 22.4293 9.05113 22.3927 9.09869 22.3462C9.14625 22.2997 9.18404 22.2441 9.20984 22.1828C9.23563 22.1215 9.24892 22.0557 9.24892 21.9891C9.24892 21.9226 9.23563 21.8568 9.20984 21.7954C9.18404 21.7341 9.14625 21.6786 9.09869 21.6321C9.05113 21.5855 8.99476 21.549 8.93289 21.5246C8.87101 21.5001 8.80488 21.4883 8.73837 21.4898H6.05434Z" fill="black"/>
</svg>
