<svg width="32" height="32" viewBox="0 0 32 32" fill="none" xmlns="http://www.w3.org/2000/svg">
<path d="M29.1822 5.425C28.583 5.225 28.0836 5.425 27.784 5.925L22.8907 14.325L16.9986 4.525C16.5992 3.825 15.4008 3.825 14.9015 4.525L9.10933 14.325L4.21595 5.925C3.91636 5.425 3.31717 5.225 2.81784 5.425C2.21865 5.625 1.91906 6.125 2.01892 6.725L4.81514 23.325C4.81514 23.625 5.11473 23.925 5.51419 23.925H26.4858C26.8853 23.925 27.1849 23.625 27.1849 23.325L29.9811 6.725C30.0809 6.125 29.7813 5.625 29.1822 5.425ZM25.8866 22.425H6.11338L3.81649 8.025L8.61 16.125C8.9096 16.625 9.60865 16.625 9.90825 16.125L16 5.725L22.1916 16.125C22.4912 16.625 23.1903 16.625 23.4899 16.125L28.2834 8.025L25.8866 22.425Z" fill="black"/>
<path d="M25.9865 25.825H6.01352C5.61406 25.825 5.2146 26.125 5.2146 26.625C5.2146 27.125 5.51419 27.425 6.01352 27.425H25.9865C26.3859 27.425 26.7854 27.125 26.7854 26.625C26.7854 26.125 26.3859 25.825 25.9865 25.825Z" fill="black"/>
<path d="M16.0999 10.625C15.7004 10.425 15.3009 10.525 15.1012 10.925L13.2038 14.125C13.0041 14.525 13.1039 14.925 13.5034 15.125C13.6032 15.225 13.803 15.225 13.9028 15.225C14.2024 15.225 14.4022 15.125 14.502 14.825L16.3995 11.625C16.5992 11.225 16.4993 10.825 16.0999 10.625Z" fill="black"/>
</svg>
