<svg width="32" height="32" viewBox="0 0 32 32" fill="none" xmlns="http://www.w3.org/2000/svg">
<path fill-rule="evenodd" clip-rule="evenodd" d="M21.4105 28.4444C21.8588 28.4444 22.2222 28.7927 22.2222 29.2222C22.2222 29.6518 21.8588 30 21.4106 30H10.9783C10.5301 30 10.1667 29.6518 10.1667 29.2222C10.1667 28.7927 10.5301 28.4444 10.9783 28.4444H21.4105ZM16 2C19.7396 2 23.2553 3.44522 25.8995 6.06934C28.4948 8.64493 29.9457 12.0537 29.9985 15.6878L30 15.8937V15.8938L29.9983 16.1156C29.9523 19.0681 28.9871 21.8695 27.2003 24.2304C27.0594 24.4165 26.8459 24.533 26.6143 24.5526L26.5444 24.5556H5.4557C5.19774 24.5556 4.95477 24.4351 4.79984 24.2304C3.01286 21.8696 2.04774 19.0682 2.00173 16.1156L2 15.8939V15.8938L2.0015 15.6878C2.05334 12.1223 3.45093 8.7738 5.95469 6.21613L6.10036 6.06945C8.74477 3.44517 12.2605 2 16 2ZM16.8203 3.65585V4.55808C16.8203 5.00767 16.453 5.37216 16 5.37216C15.5667 5.37216 15.2118 5.03867 15.1817 4.61621L15.1797 4.55808V3.65585C12.4597 3.83364 9.97748 4.88812 8.01787 6.5371L7.86425 6.66851L8.50316 7.30252C8.82352 7.62045 8.82358 8.13587 8.50322 8.4538C8.34304 8.61277 8.13309 8.69228 7.92315 8.69228C7.73653 8.69228 7.54996 8.6295 7.3983 8.5039L7.34313 8.45386L6.70416 7.81979C5.01124 9.73704 3.90993 12.1804 3.68449 14.8671L3.66852 15.0797L4.57753 15.0796C5.03056 15.0796 5.3979 15.4441 5.3979 15.8937C5.39795 16.3237 5.06191 16.676 4.63622 16.7058L4.57764 16.7078L3.6677 16.7079C3.80958 18.8784 4.51866 20.9404 5.74488 22.742L5.87357 22.9274H26.1265C27.3883 21.1439 28.1346 19.0949 28.3156 16.932L28.3323 16.7079L27.4223 16.7078C26.9693 16.7078 26.602 16.3433 26.602 15.8937C26.6021 15.4636 26.9381 15.1115 27.3638 15.0817L27.4224 15.0796L28.3315 15.0797C28.1523 12.3804 27.0898 9.91698 25.4282 7.97224L25.2958 7.81979L24.6568 8.45386C24.4966 8.61282 24.2867 8.69228 24.0768 8.69228C23.8669 8.69228 23.6569 8.61277 23.4967 8.4538C23.1924 8.15177 23.1773 7.67145 23.4512 7.35164L23.4968 7.30252L24.1358 6.66857C22.153 4.94422 19.6118 3.83831 16.8203 3.65585ZM21.2013 10.7987C21.5093 11.1067 21.5247 11.5964 21.2475 11.9226L21.2013 11.9727L18.9864 14.1876C19.309 14.717 19.4951 15.3384 19.4951 16.0025C19.4951 17.931 17.9262 19.5 15.9976 19.5C14.069 19.5 12.5 17.931 12.5 16.0025C12.5 14.0739 14.069 12.5049 15.9976 12.5049C16.6173 12.5049 17.2 12.667 17.7053 12.951L17.8124 13.0136L20.0274 10.7987C20.3516 10.4745 20.8772 10.4745 21.2013 10.7987ZM15.9976 14.1651C14.9845 14.1651 14.1603 14.9894 14.1603 16.0025C14.1603 17.0155 14.9845 17.8398 15.9976 17.8398C17.0107 17.8398 17.8349 17.0156 17.8349 16.0025C17.8349 14.9893 17.0107 14.1651 15.9976 14.1651Z" fill="black"/>
</svg>
