<svg width="32" height="32" viewBox="0 0 32 32" fill="none" xmlns="http://www.w3.org/2000/svg">
<path fill-rule="evenodd" clip-rule="evenodd" d="M6.91756 4.75986C6.91756 3.24022 8.15778 2 9.67742 2H22.4229C23.9426 2 25.1828 3.24021 25.1828 4.75986V18.0072C25.1828 18.4229 24.8458 18.7599 24.4301 18.7599C24.0144 18.7599 23.6774 18.4229 23.6774 18.0072V4.75986C23.6774 4.07161 23.1112 3.50538 22.4229 3.50538H9.67742C8.98917 3.50538 8.42294 4.07161 8.42294 4.75986V18.0072C8.42294 18.4229 8.08595 18.7599 7.67025 18.7599C7.25455 18.7599 6.91756 18.4229 6.91756 18.0072V4.75986ZM15.4678 6.23479C15.7617 5.94085 16.2383 5.94085 16.5322 6.23479L21.0484 10.7509C21.3423 11.0449 21.3423 11.5214 21.0484 11.8154C20.7544 12.1093 20.2778 12.1093 19.9839 11.8154L16.7527 8.58417V18.0072C16.7527 18.4229 16.4157 18.7599 16 18.7599C15.5843 18.7599 15.2473 18.4229 15.2473 18.0072V8.58417L12.0161 11.8154C11.7222 12.1093 11.2456 12.1093 10.9516 11.8154C10.6577 11.5214 10.6577 11.0449 10.9516 10.7509L15.4678 6.23479ZM4.75986 21.871C4.07161 21.871 3.50538 22.4372 3.50538 23.1254V27.2401C3.50538 27.9284 4.07161 28.4946 4.75986 28.4946H27.2401C27.9284 28.4946 28.4946 27.9284 28.4946 27.2401V23.1254C28.4946 22.4372 27.9284 21.871 27.2401 21.871H20.6068C20.2427 24.1311 18.2657 25.7849 16 25.7849C13.6319 25.7849 11.7524 24.0449 11.3948 21.871H4.75986ZM2 23.1254C2 21.6058 3.24022 20.3656 4.75986 20.3656H12.086C12.5017 20.3656 12.8387 20.7026 12.8387 21.1183C12.8387 22.8227 14.2203 24.2796 16 24.2796C17.7044 24.2796 19.1613 22.898 19.1613 21.1183C19.1613 20.7026 19.4983 20.3656 19.914 20.3656H27.2401C28.7598 20.3656 30 21.6058 30 23.1254V27.2401C30 28.7598 28.7598 30 27.2401 30H4.75986C3.24022 30 2 28.7598 2 27.2401V23.1254Z" fill="black"/>
</svg>
