<svg width="32" height="32" viewBox="0 0 32 32" fill="none" xmlns="http://www.w3.org/2000/svg">
<path fill-rule="evenodd" clip-rule="evenodd" d="M18.6595 2C18.9497 2 19.2014 2.20086 19.2657 2.4839L19.7504 4.61746L27.2289 4.61754C27.552 4.61754 27.8176 4.8641 27.8477 5.17936L27.8506 5.23924C27.8506 5.58259 27.5722 5.86093 27.2289 5.86093L26.3232 5.86085L24.3657 29.4283C24.3413 29.731 24.1027 29.9686 23.8061 29.9971L23.746 30H8.11355C7.78969 30 7.52007 29.7514 7.49389 29.4286L5.53593 5.86085L4.6217 5.86093C4.29854 5.86093 4.03297 5.61437 4.00285 5.29911L4 5.23924C4 4.89588 4.27834 4.61754 4.6217 4.61754L12.3818 4.61746L12.8765 2.48151C12.9371 2.21975 13.1579 2.02894 13.4208 2.00301L13.4822 2H18.6595ZM8.68556 28.7565L8.11355 28.7566L8.73321 29.328L8.68556 28.7565ZM23.746 28.7566L23.1736 28.7565L23.1263 29.3283L23.746 28.7566ZM25.0749 5.86085H6.78294L8.68556 28.7565H23.1736L25.0749 5.86085ZM15.9253 9.52363C16.2686 9.52363 16.547 9.80198 16.547 10.1453V25.1268C16.547 25.4702 16.2686 25.7485 15.9253 25.7485C15.5819 25.7485 15.3036 25.4702 15.3036 25.1268V10.1453C15.3036 9.80198 15.5819 9.52363 15.9253 9.52363ZM11.0423 10.7395C11.385 10.7182 11.6801 10.9788 11.7014 11.3215L12.5088 24.3134C12.5301 24.6561 12.2695 24.9511 11.9269 24.9724C11.5842 24.9937 11.2891 24.7332 11.2678 24.3905L10.4604 11.3986C10.4391 11.0559 10.6996 10.7608 11.0423 10.7395ZM20.7483 10.7387L20.8082 10.7395C21.1509 10.7608 21.4115 11.0559 21.3902 11.3986L20.5828 24.3905C20.5615 24.7332 20.2664 24.9937 19.9237 24.9724C19.581 24.9511 19.3205 24.6561 19.3418 24.3134L20.1492 11.3215C20.1705 10.9788 20.4655 10.7182 20.8082 10.7395L20.7483 10.7387ZM18.1629 3.24339H13.9761L13.6578 4.61746H18.4754L18.1629 3.24339ZM18.0532 2.75949L18.1629 3.24339H18.6595L18.0532 2.75949ZM14.0879 2.76188L13.4822 3.24339H13.9761L14.0879 2.76188Z" fill="black"/>
</svg>
