<svg width="32" height="32" viewBox="0 0 32 32" fill="none" xmlns="http://www.w3.org/2000/svg">
<path d="M20.7 16.2L14.6 24.4L11.3 21.1C11 20.8 10.6 20.8 10.3 21.1C10 21.4 10 21.8 10.3 22.1L14.1 25.9C14.2 26 14.4 26.1 14.6 26.1C14.8 26.1 15 26 15.1 25.8L21.7 17C21.9 16.7 21.9 16.3 21.6 16.1C21.3 15.9 20.9 15.9 20.7 16.2Z" fill="black"/>
<path d="M21.2 11.5H10.8C10.4 11.5 10 11.8 10 12.3C10 12.8 10.4 13 10.8 13H21.2C21.6 13 22 12.7 22 12.2C22 11.7 21.6 11.5 21.2 11.5Z" fill="black"/>
<path d="M10.8 17.4H16.6C17 17.4 17.4 17.1 17.4 16.6C17.4 16.1 17.1 15.8 16.6 15.8H10.8C10.4 15.8 10 16.1 10 16.6C10 17.1 10.4 17.4 10.8 17.4Z" fill="black"/>
<path d="M23.2 4.8H19.5C19.2 3.2 17.7 2 16 2C14.3 2 12.9 3.2 12.5 4.8H8.8C7.3 4.8 6 6.1 6 7.6V27.2C6 28.7 7.3 30 8.8 30H23.2C24.7 30 26 28.7 26 27.2V7.6C26 6.1 24.8 4.8 23.2 4.8ZM16 3.5C17.1 3.5 18.1 4.4 18.1 5.6C18.1 6.8 17.2 7.7 16 7.7C14.9 7.7 13.9 6.8 13.9 5.6C13.9 4.4 14.9 3.5 16 3.5ZM24.5 27.2C24.5 27.9 23.9 28.5 23.2 28.5H8.8C8.1 28.5 7.5 27.9 7.5 27.2V7.6C7.5 6.9 8.1 6.3 8.8 6.3H12.5C12.9 7.9 14.3 9.2 16 9.2C17.7 9.2 19.2 8 19.5 6.4H23.2C23.9 6.4 24.5 7 24.5 7.7V27.2Z" fill="black"/>
</svg>
