<svg width="32" height="32" viewBox="0 0 32 32" fill="none" xmlns="http://www.w3.org/2000/svg">
<path fill-rule="evenodd" clip-rule="evenodd" d="M21.2807 2L28.9309 10.0447V30H8.25773L8.25759 20.5034L5.70786 20.5034C4.21235 20.5034 3 19.2932 3 17.795V13.179C3 11.6831 4.21145 10.4705 5.70786 10.4705L8.44925 10.4704V2H21.2807ZM20.3778 3.12743H9.57668V10.4704L18.1213 10.4705C19.6168 10.4705 20.8291 11.6807 20.8291 13.179V17.795C20.8291 19.2908 19.6177 20.5034 18.1213 20.5034L9.38502 20.5034L9.38516 28.8726H27.8035V10.4952L27.7749 10.4651L20.3782 10.4655L20.3778 3.12743ZM18.1213 11.3725H5.70786C4.70998 11.3725 3.90194 12.1809 3.90194 13.179V17.795C3.90194 18.7942 4.70957 19.6015 5.70786 19.6015H18.1213C19.1192 19.6015 19.9272 18.7931 19.9272 17.795V13.179C19.9272 12.1798 19.1196 11.3725 18.1213 11.3725ZM12.2958 12.9451C12.9884 12.9451 13.5182 13.1445 13.885 13.5432C14.2519 13.9419 14.4353 14.5153 14.4353 15.2634C14.4353 16.0094 14.2503 16.5828 13.8804 16.9836C13.5104 17.3844 12.9802 17.5848 12.2896 17.5848C11.5991 17.5848 11.0689 17.3844 10.6989 16.9836C10.329 16.5828 10.144 16.0074 10.144 15.2572C10.144 14.5071 10.3295 13.9342 10.7005 13.5386C11.0714 13.1429 11.6032 12.9451 12.2958 12.9451ZM17.1841 12.9513C17.6219 12.9513 18.0617 13.0571 18.5036 13.2688L18.1953 14.0457C18.0268 13.9655 17.8572 13.8956 17.6866 13.836C17.516 13.7764 17.3485 13.7466 17.1841 13.7466C16.8245 13.7466 16.546 13.8818 16.3487 14.152C16.1514 14.4223 16.0527 14.7989 16.0527 15.2819C16.0527 16.2869 16.4299 16.7894 17.1841 16.7894C17.5006 16.7894 17.8839 16.7103 18.334 16.552V17.3535C17.9641 17.5077 17.551 17.5848 17.0947 17.5848C16.4391 17.5848 15.9376 17.3859 15.5903 16.9882C15.243 16.5905 15.0693 16.0197 15.0693 15.2757C15.0693 14.8071 15.1546 14.3966 15.3252 14.0441C15.4958 13.6917 15.7409 13.4214 16.0604 13.2334C16.38 13.0453 16.7546 12.9513 17.1841 12.9513ZM7.18554 13.016C7.92131 13.016 8.49265 13.2102 8.89959 13.5987C9.30652 13.9871 9.50999 14.5297 9.50999 15.2264C9.50999 15.9683 9.29882 16.5366 8.87647 16.9312C8.45412 17.3258 7.84424 17.5231 7.04681 17.5231H5.77053V13.016H7.18554ZM12.2958 13.7405C11.9156 13.7405 11.6289 13.8684 11.4357 14.1243C11.2425 14.3802 11.1459 14.7599 11.1459 15.2634C11.1459 15.7669 11.2415 16.1461 11.4326 16.401C11.6238 16.6558 11.9094 16.7832 12.2896 16.7832C13.0521 16.7832 13.4334 16.2766 13.4334 15.2634C13.4334 14.2481 13.0542 13.7405 12.2958 13.7405ZM7.23487 13.7991H6.7262V16.7339H7.13622C8.05696 16.7339 8.51732 16.2396 8.51732 15.2511C8.51732 14.2831 8.08984 13.7991 7.23487 13.7991ZM21.2798 3.63515L21.2801 9.56352L26.9173 9.56318L21.2798 3.63515Z" fill="black"/>
</svg>
