<svg width="32" height="32" viewBox="0 0 32 32" fill="none" xmlns="http://www.w3.org/2000/svg">
<path d="M2.75 21.8581H9.11L7.85 29.1319C7.83275 29.2289 7.83485 29.3283 7.85619 29.4245C7.87753 29.5207 7.91769 29.6117 7.97436 29.6923C8.03104 29.773 8.10311 29.8417 8.18644 29.8945C8.26978 29.9473 8.36274 29.9831 8.46 30H8.59C8.76607 29.9984 8.93612 29.9358 9.07109 29.823C9.20606 29.7101 9.29757 29.5541 9.33 29.3814L10.63 21.8481H19.36L18.11 29.122C18.0927 29.2189 18.0949 29.3184 18.1162 29.4145C18.1375 29.5107 18.1777 29.6017 18.2344 29.6824C18.291 29.763 18.3631 29.8317 18.4464 29.8845C18.5298 29.9373 18.6227 29.9732 18.72 29.99H18.85C19.0261 29.9884 19.1961 29.9258 19.3311 29.813C19.4661 29.7002 19.5576 29.5441 19.59 29.3714L20.89 21.8381H27.25C27.4489 21.8381 27.6397 21.7593 27.7803 21.6189C27.921 21.4786 28 21.2883 28 21.0898C28 20.8913 27.921 20.701 27.7803 20.5606C27.6397 20.4203 27.4489 20.3415 27.25 20.3415H21.15L22.64 11.7006H29.25C29.4489 11.7006 29.6397 11.6218 29.7803 11.4815C29.921 11.3411 30 11.1508 30 10.9523C30 10.7538 29.921 10.5635 29.7803 10.4232C29.6397 10.2828 29.4489 10.204 29.25 10.204H22.9L24.15 2.95008C24.1845 2.75426 24.1396 2.55279 24.0252 2.38999C23.9108 2.2272 23.7363 2.11641 23.54 2.08201C23.3437 2.04761 23.1418 2.09241 22.9787 2.20655C22.8155 2.3207 22.7045 2.49483 22.67 2.69066L21.37 10.2239H12.64L13.89 2.95008C13.9182 2.84951 13.925 2.74415 13.91 2.6408C13.8949 2.53744 13.8584 2.43837 13.8027 2.34995C13.7469 2.26154 13.6733 2.18575 13.5864 2.12745C13.4996 2.06914 13.4015 2.02963 13.2984 2.01144C13.1953 1.99325 13.0896 1.99679 12.988 2.02183C12.8863 2.04687 12.7911 2.09286 12.7084 2.15683C12.6256 2.22081 12.5572 2.30136 12.5076 2.3933C12.4579 2.48524 12.4281 2.58653 12.42 2.69066L11.11 10.2239H4.75C4.55109 10.2239 4.36032 10.3028 4.21967 10.4431C4.07902 10.5835 4 10.7738 4 10.9723C4 11.1707 4.07902 11.3611 4.21967 11.5014C4.36032 11.6418 4.55109 11.7206 4.75 11.7206H10.86L9.36 20.3614H2.75C2.55109 20.3614 2.36032 20.4403 2.21967 20.5806C2.07902 20.7209 2 20.9113 2 21.1097C2 21.3082 2.07902 21.4986 2.21967 21.6389C2.36032 21.7792 2.55109 21.8581 2.75 21.8581ZM12.38 11.7206H21.11L19.62 20.3614H10.89L12.38 11.7206Z" fill="black"/>
</svg>
