<svg width="32" height="32" viewBox="0 0 32 32" fill="none" xmlns="http://www.w3.org/2000/svg">
<path d="M4 2.007H15.1889C15.3948 2.0028 15.6371 2 15.8794 2C17.3808 2 18.8584 2.10218 20.3051 2.29954C21.2477 2.45911 22.2379 2.86503 23.0964 3.45011C23.9549 4.05059 24.6762 4.83443 25.2042 5.74565C25.7644 6.69326 26.0838 7.79344 26.0838 8.96781C26.0838 8.9944 26.0838 9.0224 26.0838 9.04899C26.0838 9.05599 26.0838 9.06719 26.0838 9.07978C26.0838 11.756 24.497 14.0614 22.2127 15.107C23.7631 15.5465 25.1034 16.4437 26.0726 17.6503C26.9395 18.7826 27.4549 20.2006 27.4549 21.7403C27.4549 21.792 27.4549 21.8438 27.4535 21.8956C27.4521 23.2422 27.1272 24.5201 26.5515 25.6497C26.0039 26.7722 25.1804 27.7381 24.1706 28.4603C23.0754 29.2022 21.7813 29.6823 20.3836 29.8026C19.4247 29.9081 17.139 29.9739 13.5265 30H4V2.007ZM9.65259 6.65967V13.1306H13.35C15.5536 13.1306 16.9228 13.1306 17.4578 13.1306C18.3234 13.0144 19.0797 12.6183 19.6483 12.036C20.2169 11.4957 20.5684 10.7371 20.5684 9.89442C20.5684 9.87063 20.5684 9.84683 20.567 9.82304C20.5684 9.78804 20.5698 9.74325 20.5698 9.69706C20.5698 8.93981 20.2953 8.24555 19.8401 7.71086C19.2911 7.15797 18.5362 6.79964 17.7001 6.75765C17.1343 6.75765 15.5213 6.75765 12.8612 6.75765L9.65259 6.65967ZM9.65259 17.7832V25.2703H14.8948C15.1371 25.2787 15.42 25.2829 15.7057 25.2829C16.7982 25.2829 17.8752 25.2144 18.9326 25.0814C19.5908 24.94 20.2631 24.5411 20.7603 23.984C21.2883 23.3793 21.609 22.5885 21.609 21.7221C21.609 21.6633 21.6076 21.6059 21.6048 21.5485C21.6062 21.5233 21.6062 21.4841 21.6062 21.4435C21.6062 20.6919 21.3793 19.9934 20.99 19.4125C20.567 18.833 19.9634 18.3879 19.2617 18.1612C18.018 17.8784 16.6161 17.7203 15.1777 17.7203C14.8444 17.7203 14.5125 17.7287 14.1834 17.7455L9.65259 17.7832Z" fill="black"/>
</svg>
