<svg width="32" height="32" viewBox="0 0 32 32" fill="none" xmlns="http://www.w3.org/2000/svg">
<path fill-rule="evenodd" clip-rule="evenodd" d="M8.40816 15.8509C8.40816 14.6954 7.45968 13.7542 6.27971 13.7155L6.20408 13.7143C4.9868 13.7143 4 14.6707 4 15.8509V15.8634C4 17.0188 4.94849 17.96 6.12846 17.9988L6.20408 18C7.42136 18 8.40816 17.0435 8.40816 15.8634V15.8509ZM18.2041 15.8509C18.2041 14.6954 17.2556 13.7542 16.0756 13.7155L16 13.7143C14.7827 13.7143 13.7959 14.6707 13.7959 15.8509V15.8634C13.7959 17.0188 14.7444 17.96 15.9244 17.9988L16 18C17.2173 18 18.2041 17.0435 18.2041 15.8634V15.8509ZM28 15.8509C28 14.6954 27.0515 13.7542 25.8715 13.7155L25.7959 13.7143C24.5786 13.7143 23.5918 14.6707 23.5918 15.8509V15.8634C23.5918 17.0188 24.5403 17.96 25.7203 17.9988L25.7959 18C27.0132 18 28 17.0435 28 15.8634V15.8509Z" fill="black"/>
</svg>
