<svg width="32" height="32" viewBox="0 0 32 32" fill="none" xmlns="http://www.w3.org/2000/svg">
<path fill-rule="evenodd" clip-rule="evenodd" d="M15.8509 23.5918C14.6954 23.5918 13.7542 24.5403 13.7155 25.7203L13.7143 25.7959C13.7143 27.0132 14.6707 28 15.8509 28H15.8634C17.0188 28 17.96 27.0515 17.9988 25.8715L18 25.7959C18 24.5786 17.0435 23.5918 15.8634 23.5918H15.8509ZM15.8509 13.7959C14.6954 13.7959 13.7542 14.7444 13.7155 15.9244L13.7143 16C13.7143 17.2173 14.6707 18.2041 15.8509 18.2041H15.8634C17.0188 18.2041 17.96 17.2556 17.9988 16.0756L18 16C18 14.7827 17.0435 13.7959 15.8634 13.7959H15.8509ZM15.8509 4C14.6954 4 13.7542 4.94849 13.7155 6.12846L13.7143 6.20408C13.7143 7.42136 14.6707 8.40816 15.8509 8.40816H15.8634C17.0188 8.40816 17.96 7.45968 17.9988 6.27971L18 6.20408C18 4.9868 17.0435 4 15.8634 4H15.8509Z" fill="black"/>
</svg>
