<svg width="32" height="32" viewBox="0 0 32 32" fill="none" xmlns="http://www.w3.org/2000/svg">
<path d="M29.2305 16.3605C29.1318 16.3591 29.0337 16.3776 28.9422 16.4148C28.8506 16.452 28.7675 16.5071 28.6976 16.577C28.6277 16.6468 28.5726 16.73 28.5354 16.8215C28.4982 16.9131 28.4797 17.0111 28.4811 17.1099V27.1028C28.4838 27.2676 28.4533 27.4312 28.3915 27.584C28.3297 27.7367 28.2378 27.8755 28.1212 27.9921C28.0047 28.1086 27.8659 28.2005 27.7132 28.2623C27.5604 28.3241 27.3968 28.3546 27.232 28.3519H4.74804C4.58316 28.3519 4.41991 28.3193 4.2677 28.2559C4.1155 28.1925 3.97735 28.0996 3.86123 27.9825C3.74511 27.8655 3.65331 27.7266 3.59113 27.5739C3.52895 27.4212 3.49761 27.2577 3.49893 27.0928V11.8037L12.6924 18.9886C13.6258 19.7473 14.7921 20.1615 15.995 20.1615C17.1979 20.1615 18.3642 19.7473 19.2976 18.9886C19.454 18.8653 19.555 18.685 19.5784 18.4873C19.6019 18.2896 19.5458 18.0907 19.4226 17.9343C19.2993 17.778 19.119 17.677 18.9213 17.6535C18.7236 17.6301 18.5247 17.6862 18.3683 17.8094C17.7013 18.3672 16.8595 18.6728 15.99 18.6728C15.1205 18.6728 14.2787 18.3672 13.6117 17.8094L4.35832 10.5746C4.4838 10.5312 4.61529 10.5076 4.74804 10.5046H13.5018C13.7006 10.5046 13.8912 10.4257 14.0317 10.2851C14.1723 10.1446 14.2512 9.95395 14.2512 9.75518C14.2512 9.55641 14.1723 9.36578 14.0317 9.22523C13.8912 9.08467 13.7006 9.00571 13.5018 9.00571H4.74804C4.01921 9.00571 3.32024 9.29524 2.80488 9.81059C2.28952 10.326 2 11.0249 2 11.7537V27.0928C2 27.8216 2.28952 28.5206 2.80488 29.0359C3.32024 29.5513 4.01921 29.8408 4.74804 29.8408H27.232C27.9608 29.8408 28.6598 29.5513 29.1751 29.0359C29.6905 28.5206 29.98 27.8216 29.98 27.0928V17.0999C29.9774 16.9029 29.8973 16.7148 29.757 16.5764C29.6167 16.438 29.4276 16.3604 29.2305 16.3605Z" fill="black"/>
<path d="M23.2548 16.4904C24.5889 16.4904 25.893 16.0948 27.0022 15.3536C28.1115 14.6124 28.976 13.559 29.4866 12.3265C29.9971 11.0939 30.1307 9.7377 29.8704 8.42926C29.6101 7.12083 28.9677 5.91895 28.0244 4.97562C27.081 4.03229 25.8792 3.38987 24.5707 3.12961C23.2623 2.86935 21.9061 3.00292 20.6735 3.51345C19.441 4.02398 18.3876 4.88852 17.6464 5.99776C16.9052 7.107 16.5096 8.41111 16.5096 9.74518C16.5096 11.5341 17.2203 13.2498 18.4853 14.5147C19.7502 15.7797 21.4659 16.4904 23.2548 16.4904ZM21.9857 6.58744L22.3854 6.17773C22.6703 5.86188 23.0165 5.60726 23.4028 5.42933C23.7892 5.25139 24.2077 5.15387 24.6329 5.14269C25.0581 5.1315 25.4811 5.20688 25.8763 5.36425C26.2715 5.52162 26.6305 5.7577 26.9316 6.05813C27.2327 6.35856 27.4696 6.71707 27.6279 7.11189C27.7861 7.50671 27.8625 7.92958 27.8522 8.35481C27.842 8.78004 27.7454 9.19875 27.5684 9.5855C27.3913 9.97225 27.1375 10.319 26.8223 10.6046L26.4126 10.9943C26.3564 11.0548 26.2884 11.1031 26.2128 11.1362C26.1371 11.1692 26.0554 11.1862 25.9729 11.1862C25.8903 11.1862 25.8087 11.1692 25.733 11.1362C25.6573 11.1031 25.5893 11.0548 25.5332 10.9943C25.4739 10.9374 25.4268 10.8691 25.3946 10.7936C25.3624 10.718 25.3458 10.6367 25.3458 10.5546C25.3458 10.4725 25.3624 10.3912 25.3946 10.3156C25.4268 10.2401 25.4739 10.1718 25.5332 10.1149L25.9829 9.7252C26.333 9.36713 26.5301 8.88693 26.5325 8.38615C26.53 8.01448 26.4178 7.65181 26.2101 7.34357C26.0024 7.03533 25.7084 6.79522 25.3649 6.65333C25.0213 6.51143 24.6436 6.47406 24.2789 6.54588C23.9142 6.61771 23.5788 6.79554 23.3148 7.0571L22.9051 7.46681C22.8473 7.52718 22.7783 7.57558 22.7018 7.60925C22.6254 7.64292 22.543 7.66121 22.4595 7.66307C22.376 7.66492 22.293 7.65031 22.2151 7.62007C22.1372 7.58982 22.0661 7.54454 22.0057 7.4868C21.9453 7.42906 21.8969 7.35999 21.8633 7.28355C21.8296 7.2071 21.8113 7.12477 21.8095 7.04126C21.8076 6.95775 21.8222 6.87468 21.8525 6.79682C21.8827 6.71895 21.928 6.64781 21.9857 6.58744ZM21.8558 10.2548L23.7645 8.34618C23.8841 8.23711 24.0412 8.17834 24.2031 8.18209C24.365 8.18583 24.5192 8.25181 24.6337 8.36631C24.7482 8.4808 24.8142 8.63502 24.8179 8.7969C24.8217 8.95878 24.7629 9.11587 24.6538 9.23555L22.7452 11.1442C22.6235 11.259 22.4628 11.3233 22.2955 11.3241C22.214 11.3245 22.1332 11.3088 22.0577 11.2779C21.9823 11.2471 21.9137 11.2016 21.8558 11.1442C21.7404 11.0249 21.6759 10.8655 21.6759 10.6995C21.6759 10.5335 21.7404 10.3741 21.8558 10.2548ZM19.6874 8.8858L20.0971 8.47609C20.2137 8.35948 20.3718 8.29397 20.5368 8.29397C20.7017 8.29397 20.8598 8.35948 20.9764 8.47609C21.0931 8.5927 21.1586 8.75086 21.1586 8.91578C21.1586 9.08069 21.0931 9.23885 20.9764 9.35546L20.5667 9.76517C20.3869 9.93726 20.2431 10.1434 20.1436 10.3715C20.0441 10.5997 19.9909 10.8453 19.9872 11.0942C19.9844 11.346 20.0323 11.5958 20.128 11.8287C20.2237 12.0616 20.3653 12.2729 20.5443 12.45C20.7232 12.6271 20.936 12.7664 21.1699 12.8597C21.4038 12.9529 21.654 12.9982 21.9058 12.9929C22.4031 12.9879 22.8792 12.791 23.2348 12.4433L23.6445 11.9936C23.7023 11.9358 23.7708 11.89 23.8463 11.8588C23.9217 11.8275 24.0026 11.8115 24.0842 11.8115C24.1659 11.8115 24.2467 11.8275 24.3222 11.8588C24.3976 11.89 24.4662 11.9358 24.5239 11.9936C24.5816 12.0513 24.6275 12.1199 24.6587 12.1953C24.69 12.2707 24.706 12.3516 24.706 12.4333C24.706 12.5149 24.69 12.5958 24.6587 12.6712C24.6275 12.7467 24.5816 12.8152 24.5239 12.8729L24.1142 13.2827C23.6767 13.7162 23.1213 14.0114 22.5171 14.1315C21.913 14.2516 21.2869 14.1911 20.7168 13.9578C20.1468 13.7245 19.658 13.3285 19.3115 12.8193C18.9649 12.3101 18.7759 11.7101 18.768 11.0942C18.7672 10.6836 18.8481 10.2768 19.0059 9.89769C19.1638 9.51856 19.3954 9.17459 19.6874 8.8858Z" fill="black"/>
</svg>
