<svg width="32" height="32" viewBox="0 0 32 32" fill="none" xmlns="http://www.w3.org/2000/svg">
<path d="M27.1103 6H4.79004C3.19573 6 2 7.19573 2 8.79004V24.1352C2 25.6299 3.19573 26.9253 4.79004 26.9253H27.21C28.7046 26.9253 30 25.7295 30 24.1352V8.79004C29.9004 7.19573 28.7046 6 27.1103 6ZM27.1103 7.49466C27.21 7.49466 27.4093 7.49466 27.5089 7.59431L18.3416 14.7687C16.847 15.9644 15.0534 15.9644 13.5587 14.7687L4.39146 7.59431C4.4911 7.59431 4.69039 7.49466 4.79004 7.49466H27.1103ZM27.1103 25.331H4.79004C4.09253 25.331 3.59431 24.7331 3.59431 24.1352V8.79004L12.7616 15.9644C13.758 16.7616 14.9537 17.1601 16.0498 17.1601C17.2456 17.1601 18.3416 16.7616 19.3381 15.9644L28.5053 8.79004V24.0356C28.4057 24.7331 27.8078 25.331 27.1103 25.331Z" fill="black"/>
</svg>
