<svg width="32" height="32" viewBox="0 0 32 32" fill="none" xmlns="http://www.w3.org/2000/svg">
<path d="M22.6719 19.263C21.7604 22.1979 19.0807 24.1667 16 24.1667C12.9193 24.1667 10.2396 22.1979 9.32813 19.263C9.1276 18.6432 9.47396 18.0052 10.0938 17.8047C10.6953 17.6042 11.3516 17.9505 11.5521 18.5703C12.1536 20.5208 13.9583 21.8333 16 21.8333C18.0417 21.8333 19.8464 20.5208 20.4479 18.5703C20.6484 17.9505 21.3047 17.6042 21.9245 17.8047C22.526 18.0052 22.8724 18.6432 22.6719 19.263ZM13.6667 11.3333C13.6667 12.6276 12.6276 13.6667 11.3333 13.6667C10.0391 13.6667 9 12.6276 9 11.3333C9 10.0391 10.0391 9 11.3333 9C12.6276 9 13.6667 10.0391 13.6667 11.3333ZM23 11.3333C23 12.6276 21.9609 13.6667 20.6667 13.6667C19.3724 13.6667 18.3333 12.6276 18.3333 11.3333C18.3333 10.0391 19.3724 9 20.6667 9C21.9609 9 23 10.0391 23 11.3333ZM27.6667 16C27.6667 9.5651 22.4349 4.33333 16 4.33333C9.5651 4.33333 4.33333 9.5651 4.33333 16C4.33333 22.4349 9.5651 27.6667 16 27.6667C22.4349 27.6667 27.6667 22.4349 27.6667 16ZM30 16C30 23.7292 23.7292 30 16 30C8.27083 30 2 23.7292 2 16C2 8.27083 8.27083 2 16 2C23.7292 2 30 8.27083 30 16Z" fill="black"/>
</svg>
