<svg width="32" height="32" viewBox="0 0 32 32" fill="none" xmlns="http://www.w3.org/2000/svg">
<path fill-rule="evenodd" clip-rule="evenodd" d="M29.4223 19.0701L21.0023 4.30006C20.9529 4.20816 20.8792 4.1316 20.7893 4.0787C20.6993 4.0258 20.5966 3.9986 20.4923 4.00006H12.0023C11.9048 4.00177 11.8091 4.02571 11.7223 4.07006C11.6337 4.12454 11.5639 4.20479 11.5223 4.30006L3.08228 19.0701C3.02845 19.159 3 19.2611 3 19.3651C3 19.4691 3.02845 19.5711 3.08228 19.6601L7.30228 27.0501C7.35008 27.1359 7.4189 27.2081 7.50228 27.2601C7.59402 27.321 7.70218 27.3524 7.81228 27.3501H24.6923C24.7962 27.3494 24.898 27.3213 24.9876 27.2686C25.0772 27.2159 25.1512 27.1405 25.2023 27.0501L29.4223 19.6601C29.4688 19.5741 29.4929 19.4778 29.4923 19.3801C29.4929 19.2791 29.4689 19.1796 29.4223 19.0901V19.0701ZM4.28228 19.3701L12.0023 5.80006L15.5323 12.1201L7.81228 25.5601L4.28228 19.3701ZM16.2823 13.2501L19.4323 18.7701H13.1023L16.2823 13.2501ZM24.3323 26.1601H8.87228L12.6223 20.0001H27.8823L24.3323 26.1601ZM20.8023 18.7701L13.0523 5.19006H20.1223L27.8823 18.7701H20.8023Z" fill="black"/>
</svg>
