<svg width="32" height="32" viewBox="0 0 32 32" fill="none" xmlns="http://www.w3.org/2000/svg">
<path d="M29.18 10.26L21.73 2.81C21.21 2.29 20.51 2 19.76 2H5.81C3.71 2 2 3.71 2 5.81V26.19C2 28.29 3.71 30 5.81 30H26.19C28.29 30 30 28.29 30 26.19V12.24C30 11.49 29.71 10.79 29.18 10.26ZM28.12 11.32C28.22 11.42 28.28 11.54 28.34 11.66H21.62C20.91 11.66 20.33 11.08 20.33 10.37V3.65C20.45 3.71 20.57 3.78 20.67 3.88L28.12 11.32ZM26.19 28.5H5.81C4.54 28.5 3.5 27.46 3.5 26.19V5.81C3.5 4.54 4.54 3.5 5.81 3.5H18.84V10.37C18.84 11.91 20.09 13.16 21.63 13.16H28.5V26.19C28.5 27.46 27.46 28.5 26.19 28.5Z" fill="black"/>
<path d="M13.58 17.66H12.04L10.81 19.91L9.59 17.66H8.05L9.94 20.9L8 24.18H9.56L10.81 21.9L12.07 24.18H13.63L11.68 20.9L13.58 17.66Z" fill="black"/>
<path d="M15.65 17.66H14.31V24.18H18.51V23.1H15.65V17.66Z" fill="black"/>
<path d="M21.59 18.64C21.93 18.64 22.19 18.72 22.38 18.89C22.57 19.06 22.66 19.29 22.66 19.59H24C24 19.2 23.9 18.85 23.7 18.54C23.5 18.23 23.22 17.99 22.85 17.83C22.49 17.66 22.07 17.58 21.61 17.58C21.15 17.58 20.73 17.66 20.36 17.81C19.99 17.97 19.7 18.18 19.5 18.46C19.3 18.74 19.2 19.05 19.2 19.4C19.2 20.08 19.57 20.62 20.31 21.02C20.58 21.17 20.95 21.32 21.42 21.47C21.89 21.62 22.21 21.76 22.39 21.9C22.57 22.04 22.66 22.23 22.66 22.48C22.66 22.71 22.57 22.89 22.39 23.02C22.21 23.15 21.96 23.21 21.64 23.21C20.78 23.21 20.35 22.85 20.35 22.13H19C19 22.55 19.11 22.92 19.33 23.24C19.55 23.56 19.86 23.81 20.27 23.99C20.68 24.17 21.14 24.27 21.64 24.27C22.36 24.27 22.94 24.11 23.36 23.79C23.79 23.47 24 23.03 24 22.46C24 21.95 23.83 21.53 23.48 21.19C23.13 20.85 22.57 20.56 21.81 20.33C21.39 20.2 21.08 20.07 20.87 19.93C20.66 19.79 20.55 19.61 20.55 19.4C20.55 19.17 20.64 18.99 20.82 18.85C21 18.71 21.26 18.64 21.59 18.64Z" fill="black"/>
</svg>
