<svg width="32" height="32" viewBox="0 0 32 32" fill="none" xmlns="http://www.w3.org/2000/svg">
<path d="M29.2 10.2042L21.8 2.8042C21.3 2.3042 20.6 2.0042 19.8 2.0042H5.8C3.7 1.9042 2 3.6042 2 5.7042V26.1042C2 28.2042 3.7 29.9042 5.8 29.9042H26.2C28.3 29.9042 30 28.2042 30 26.1042V12.1042C30 11.4042 29.7 10.7042 29.2 10.2042ZM28.1 11.2042C28.2 11.3042 28.3 11.4042 28.3 11.5042H21.6C20.9 11.5042 20.3 10.9042 20.3 10.2042V3.6042C20.4 3.7042 20.5 3.7042 20.6 3.8042L28.1 11.2042ZM26.2 28.4042H5.8C4.5 28.4042 3.5 27.4042 3.5 26.1042V5.7042C3.5 4.4042 4.5 3.4042 5.8 3.4042H18.8V10.3042C18.8 11.8042 20.1 13.1042 21.6 13.1042H28.5V26.1042C28.5 27.4042 27.5 28.4042 26.2 28.4042Z" fill="black"/>
<path d="M7.6 18.6042H9.6V24.1042H10.9V18.6042H12.9V17.6042H7.6V18.6042Z" fill="black"/>
<path d="M18.8 17.6042H17.2L16 19.8042L14.8 17.6042H13.2L15.1 20.8042L13.2 24.1042H14.8L16 21.8042L17.3 24.1042H18.8L16.9 20.8042L18.8 17.6042Z" fill="black"/>
<path d="M19.1 18.6042H21.1V24.1042H22.4V18.6042H24.4V17.6042H19.1V18.6042Z" fill="black"/>
</svg>
