<svg width="32" height="32" viewBox="0 0 32 32" fill="none" xmlns="http://www.w3.org/2000/svg">
<path fill-rule="evenodd" clip-rule="evenodd" d="M19.4092 8.10207C19.4092 4.72371 17.4152 1.9056 14.0092 2.00242C11.3998 2.0773 9.34291 4.26542 9.02557 6.86923C8.64527 9.98812 9.76303 12.5635 11.0504 14.1514C11.5232 14.7362 11.5399 16.0206 10.9553 16.7603C10.2795 17.6175 9.24398 18.9278 6.3545 20.0974C3.46502 21.2657 2.97681 22.8871 2.97681 25.1114L2.97809 25.1772C2.99865 26.7108 4.32968 27.9011 5.85601 27.9011H15.2195L14.2945 26.9716C13.2923 25.9647 13.2923 24.3278 14.2945 23.3209C15.2953 22.3139 16.927 22.3139 17.9278 23.3209L19.5801 24.981L23.5873 20.9546C23.1608 20.646 22.6507 20.3582 22.0044 20.0974C19.1161 18.9283 18.0815 17.6185 17.4044 16.7613L17.4036 16.7603C16.8191 16.0206 16.8358 14.7362 17.3099 14.1514C18.4225 12.7778 19.4092 10.6659 19.4092 8.10207ZM28.7408 19.4273C28.3644 19.049 27.7541 19.049 27.3777 19.4273L19.5803 27.2619L16.7923 24.4606C16.4159 24.0824 15.8069 24.0824 15.4305 24.4606C15.054 24.8389 15.054 25.452 15.4305 25.8303L19.5803 30L28.7408 20.797C29.1173 20.4187 29.1173 19.8055 28.7408 19.4273Z" fill="black"/>
</svg>
