<svg width="32" height="32" viewBox="0 0 32 32" fill="none" xmlns="http://www.w3.org/2000/svg">
<path fill-rule="evenodd" clip-rule="evenodd" d="M6.09255 6.09874C11.5493 0.642006 20.4315 0.63104 25.8992 6.09874C31.3669 11.5664 31.3669 20.4377 25.8992 25.9054C20.4425 31.3622 11.5493 31.3622 6.09255 25.9054C0.635818 20.4487 0.635818 11.5555 6.09255 6.09874ZM12.735 12.7412C10.9344 14.5419 10.9344 17.4623 12.735 19.2629C14.5356 21.0635 17.4561 21.0636 19.2567 19.2629C21.0574 17.4623 21.0574 14.5419 19.2567 12.7412C17.4561 10.9406 14.5357 10.9406 12.735 12.7412ZM20.5743 11.4237C21.0134 11.8629 21.3648 12.346 21.6503 12.851H27.7108C27.1838 10.8528 26.1408 8.97529 24.5817 7.4162C22.9897 5.82422 21.0793 4.7702 19.0372 4.2432L19.0371 10.2818C19.5971 10.5783 20.1131 10.9626 20.5743 11.4237ZM12.5154 10.5453L12.5154 4.37495C10.6489 4.92393 8.8813 5.945 7.41006 7.41624C5.85101 8.97529 4.808 10.8528 4.28096 12.851L10.3415 12.851C10.627 12.346 10.9784 11.8629 11.4175 11.4237C11.7579 11.0834 12.1312 10.7979 12.5154 10.5453ZM10.4504 19.3697C10.4446 19.3711 10.4378 19.3727 10.4294 19.3727H4.32492C4.87386 21.2831 5.90594 23.0837 7.42113 24.5989C8.89237 26.0701 10.649 27.0802 12.5265 27.6402V21.4698C12.1422 21.2172 11.7689 20.9318 11.4286 20.5914C11.0553 20.2181 10.7369 19.8119 10.4734 19.3727C10.4666 19.3659 10.4598 19.3675 10.4504 19.3697ZM20.5743 20.5804C20.1021 21.0525 19.5971 21.4258 19.0372 21.7222V27.7609C21.0793 27.2339 22.9897 26.1798 24.5927 24.5988C26.0969 23.0946 27.118 21.283 27.6669 19.3726H21.5185C21.266 19.8009 20.9476 20.2071 20.5743 20.5804Z" fill="black"/>
</svg>
