<svg width="32" height="32" viewBox="0 0 32 32" fill="none" xmlns="http://www.w3.org/2000/svg">
<path fill-rule="evenodd" clip-rule="evenodd" d="M9.75 3.5C8.46421 3.5 7.5 4.46421 7.5 5.75V26.25C7.5 27.5358 8.46421 28.5 9.75 28.5H23.15C24.4358 28.5 25.4 27.5358 25.4 26.25V5.75C25.4 4.46421 24.4358 3.5 23.15 3.5H9.75ZM6 5.75C6 3.63579 7.63579 2 9.75 2H23.15C25.2642 2 26.9 3.63579 26.9 5.75V26.25C26.9 28.3642 25.2642 30 23.15 30H9.75C7.63579 30 6 28.3642 6 26.25V5.75Z" fill="black"/>
<path d="M20.65 7.85V10.95H12.35V7.85H20.65ZM21.15 6.35H11.85C11.25 6.35 10.85 6.75 10.85 7.35V11.45C10.85 12.05 11.25 12.45 11.85 12.45H21.15C21.75 12.45 22.15 12.05 22.15 11.45V7.35C22.15 6.75 21.65 6.35 21.15 6.35Z" fill="black"/>
<path d="M13.95 16.05V17.65H12.35V16.05H13.95ZM14.45 14.55H11.85C11.25 14.55 10.85 14.95 10.85 15.55V18.15C10.85 18.75 11.25 19.15 11.85 19.15H14.45C15.05 19.15 15.45 18.75 15.45 18.15V15.55C15.45 14.95 14.95 14.55 14.45 14.55Z" fill="black"/>
<path d="M20.65 16.05V17.65H19.05V16.05H20.65ZM21.15 14.55H18.55C17.95 14.55 17.55 14.95 17.55 15.55V18.15C17.55 18.75 17.95 19.15 18.55 19.15H21.15C21.75 19.15 22.15 18.75 22.15 18.15V15.55C22.15 14.95 21.65 14.55 21.15 14.55Z" fill="black"/>
<path d="M13.95 22.75V24.35H12.35V22.75H13.95ZM14.45 21.25H11.85C11.25 21.25 10.85 21.65 10.85 22.25V24.85C10.85 25.45 11.25 25.85 11.85 25.85H14.45C15.05 25.85 15.45 25.45 15.45 24.85V22.25C15.45 21.65 14.95 21.25 14.45 21.25Z" fill="black"/>
<path d="M20.65 22.75V24.35H19.05V22.75H20.65ZM21.15 21.25H18.55C17.95 21.25 17.55 21.65 17.55 22.25V24.85C17.55 25.45 17.95 25.85 18.55 25.85H21.15C21.75 25.85 22.15 25.45 22.15 24.85V22.25C22.15 21.65 21.65 21.25 21.15 21.25Z" fill="black"/>
</svg>
