<svg width="32" height="32" viewBox="0 0 32 32" fill="none" xmlns="http://www.w3.org/2000/svg">
<path fill-rule="evenodd" clip-rule="evenodd" d="M4.43692 7.8386C4.27722 16.2051 4.09727 25.6764 15.9991 30C27.9019 25.6763 27.7221 16.2047 27.5625 7.83783C27.5529 7.33601 27.5437 6.84966 27.5372 6.37273C22.8928 6.17686 19.1785 4.76942 15.9991 2C12.82 4.76942 9.10632 6.1767 4.46227 6.37273C4.45578 6.84981 4.4465 7.33648 4.43692 7.8386ZM14.396 17.3955L19.9922 11.7996C20.445 11.3468 21.1792 11.3469 21.6318 11.7997C22.0847 12.2524 22.0847 12.9866 21.6317 13.4394L15.2158 19.8551C14.9895 20.0814 14.6927 20.1946 14.396 20.1946C14.0993 20.1946 13.8025 20.0814 13.5762 19.8551L10.3683 16.6472C9.91553 16.1944 9.91553 15.4604 10.3683 15.0074C10.821 14.5548 11.5552 14.5548 12.008 15.0074L14.396 17.3955Z" fill="black"/>
</svg>
