<svg width="32" height="32" viewBox="0 0 32 32" fill="none" xmlns="http://www.w3.org/2000/svg">
<path d="M28.9489 28.8122C27.3922 30.3688 24.8994 30.3688 23.4979 28.8122L14.1544 19.4687L19.6054 14.0177L28.9489 23.3612C30.3504 24.9178 30.3504 27.4106 28.9489 28.8122Z" fill="black"/>
<path d="M7.30191 2.96251L11.8185 7.47914C13.065 8.72556 13.065 10.5943 11.8185 11.8388C10.5721 13.0852 8.70343 13.0852 7.45888 11.8388L2.94225 7.32217C1.22866 10.7475 1.8528 14.9521 4.81094 17.9121C8.39323 21.4943 14.3095 21.4943 17.8918 17.9121C21.4741 14.3298 21.4741 8.41349 17.8918 4.83121C14.9337 1.87306 10.7291 1.24892 7.30191 2.96251Z" fill="black"/>
</svg>
