<svg width="32" height="32" viewBox="0 0 32 32" fill="none" xmlns="http://www.w3.org/2000/svg">
<path d="M27.6616 23.7159C27.9425 23.8493 28.3417 24.0763 28.7476 24.3829C29.5157 24.963 30 25.6003 30 26.3695V27.9553C30 29.0933 28.9421 29.8449 27.9665 29.8575C27.7766 29.8599 26.0355 29.881 23.2477 29.9146L18.4778 29.9721L13.5133 29.972L8.76526 29.9148C5.96449 29.881 4.2234 29.8599 4.03355 29.8575C3.05791 29.8449 2 29.0933 2 27.9553V26.3695C2 25.6003 2.48434 24.963 3.25235 24.3829C3.65832 24.0763 4.05752 23.8493 4.31805 23.726L11.7474 19.9147C10.599 19.084 9.39739 17.4736 8.8313 15.6961C8.57571 14.8945 8.42781 13.8303 8.35874 12.5374C8.30442 11.5205 8.30219 10.53 8.32998 9.27671L8.33022 9.26619C8.33205 9.18761 8.34292 8.72091 8.34471 8.61978C8.36721 7.27794 9.29994 5.52986 10.4699 4.46727C12.1971 2.8974 13.8011 2 16.0046 2C18.201 2 19.803 2.89755 21.5299 4.4671C22.7001 5.52986 23.6328 7.27794 23.6553 8.61904C23.6571 8.72003 23.6678 9.17948 23.6697 9.26352L23.67 9.27671C23.6978 10.53 23.6956 11.5205 23.6413 12.5374C23.5722 13.8303 23.4243 14.8945 23.1688 15.6958C22.6027 17.4734 21.4012 19.0837 20.2526 19.9147L27.6616 23.7159Z" fill="black"/>
</svg>
