<svg width="32" height="32" viewBox="0 0 32 32" fill="none" xmlns="http://www.w3.org/2000/svg">
<path fill-rule="evenodd" clip-rule="evenodd" d="M28.6677 4.3582C30.0556 5.79402 30.3747 8.8217 29.5516 12.2697C28.6457 16.0647 26.485 19.9714 23.2536 23.258C19.9756 26.4829 16.0685 28.6436 12.2712 29.5497C8.82297 30.3726 5.79368 30.0543 4.35723 28.6681L2.55239 26.8579C1.81746 26.1271 1.81581 24.9353 2.5478 24.1939C2.58144 24.1603 2.58144 24.1603 2.73278 24.0092C2.93457 23.8076 2.93457 23.8076 3.22049 23.5222C3.72509 23.0183 4.22989 22.5145 4.70131 22.0443C5.43205 21.3153 6.01082 20.7387 6.38757 20.3644C7.75832 19.0004 10.0653 19.1213 11.5308 20.5899L12.4398 21.498C13.4176 22.48 15.9948 21.5816 18.7891 18.7867C21.5877 15.9835 22.4792 13.4217 21.4949 12.428L20.5957 11.5289C19.1229 10.0594 19.0008 7.74964 20.3673 6.38663C20.743 6.01001 21.3208 5.43176 22.0463 4.70625C22.5202 4.23235 23.0251 3.72756 23.53 3.22288C23.8161 2.9369 23.8161 2.9369 24.0181 2.73505C24.1696 2.58367 24.1696 2.58367 24.2007 2.55255C24.929 1.81627 26.1337 1.81627 26.8565 2.54985L28.6677 4.3582Z" fill="black"/>
</svg>
