<svg width="32" height="32" viewBox="0 0 32 32" fill="none" xmlns="http://www.w3.org/2000/svg">
<path fill-rule="evenodd" clip-rule="evenodd" d="M23.2501 5.56177C24.8585 5.56177 26.2195 6.93852 26.2195 8.56559C26.2195 10.1927 24.8585 11.5694 23.2501 11.5694C22.2623 11.5694 21.3678 11.0502 20.8246 10.2726L9.83265 14.9389C9.98019 15.2915 10.0622 15.6758 10.0622 16.0752C10.0622 16.3639 10.0193 16.6447 9.93987 16.9113L20.8699 21.3276C21.2682 20.1394 22.3981 19.2557 23.6867 19.2557C25.2952 19.2557 26.6562 20.6324 26.6562 22.2595C26.6562 23.8866 25.2952 25.2633 23.6867 25.2633C22.2577 25.2633 21.0241 24.1766 20.7666 22.7932L9.23265 18.1333C8.6874 18.7121 7.92304 19.079 7.09274 19.079C5.48429 19.079 4.12329 17.7022 4.12329 16.0752C4.12329 14.4481 5.48429 13.0713 7.09274 13.0713C7.81918 13.0713 8.49515 13.3522 9.01806 13.81C9.06201 13.7625 9.11832 13.7239 9.18607 13.6951L20.3093 8.97352C20.2904 8.8398 20.2806 8.7036 20.2806 8.56559C20.2806 6.93852 21.6416 5.56177 23.2501 5.56177Z" fill="black"/>
</svg>
