<svg width="32" height="32" viewBox="0 0 32 32" fill="none" xmlns="http://www.w3.org/2000/svg">
<path fill-rule="evenodd" clip-rule="evenodd" d="M19.1699 20.6031L23.6111 16.1623L18.9446 11.3917C18.6892 11.1307 18.6937 10.7118 18.9547 10.4565C19.2157 10.2012 19.6346 10.2056 19.8899 10.4666L23.8267 14.4907V6.29926C23.8267 5.70266 24.5538 5.41119 24.9661 5.842L29.8165 10.9129C30.0648 11.173 30.0604 11.5836 29.8064 11.8375L25.4714 16.1725L29.8112 20.6084C30.0692 20.8716 30.0617 21.295 29.7954 21.5494L24.945 26.1793C24.5238 26.581 23.8267 26.2829 23.8267 25.7009V17.8172L20.1056 21.5384C19.8472 21.7968 19.4283 21.7968 19.1699 21.5384C18.9119 21.2804 18.9119 20.8615 19.1699 20.6031ZM28.3976 21.0547L25.1496 17.7348V24.1554L28.3976 21.0547ZM28.4134 11.3596L25.1496 7.94751V14.6239L28.4134 11.3596Z" fill="black"/>
<path d="M2.44095 11.4515H9.05514L15.1318 6.59007C15.3483 6.41678 15.6693 6.57111 15.6693 6.84803V24.8735C15.6693 25.1508 15.3483 25.3052 15.1318 25.1319L9.05514 20.2704H2.44095C2.19754 20.2704 2 20.0733 2 19.8295V11.8925C2 11.6486 2.19754 11.4515 2.44095 11.4515Z" fill="black"/>
</svg>
