<svg width="32" height="32" viewBox="0 0 32 32" fill="none" xmlns="http://www.w3.org/2000/svg">
<path fill-rule="evenodd" clip-rule="evenodd" d="M9.12884 2H22.8712C24.7612 2 26.3068 3.5456 26.3068 5.4356V26.5644C26.3068 28.4544 24.7612 30 22.8712 30H9.12884C7.23884 30 5.69324 28.4544 5.69324 26.5644V5.4356C5.69324 3.5456 7.23884 2 9.12884 2ZM9.13024 24.6758C9.13024 26.0492 10.3314 27.2518 11.7062 27.2518C13.0796 27.2518 14.2822 26.0492 14.2822 24.6758C14.2822 23.3024 13.0796 22.0998 11.7062 22.0998C10.3328 22.0998 9.13024 23.3024 9.13024 24.6758ZM11.7062 19.521C10.3314 19.521 9.13024 18.3184 9.13024 16.945C9.13024 15.5716 10.3328 14.369 11.7062 14.369C13.0796 14.369 14.2822 15.5716 14.2822 16.945C14.2822 18.3184 13.0796 19.521 11.7062 19.521ZM17.7192 24.6758C17.7192 26.0492 18.9204 27.2518 20.2952 27.2518C21.6686 27.2518 22.8712 26.0492 22.8712 24.6758C22.8712 23.3024 21.6686 22.0998 20.2952 22.0998C18.9218 22.0998 17.7192 23.3024 17.7192 24.6758ZM20.2952 19.521C18.9204 19.521 17.7192 18.3184 17.7192 16.945C17.7192 15.5716 18.9218 14.369 20.2952 14.369C21.6686 14.369 22.8712 15.5716 22.8712 16.945C22.8712 18.3184 21.6686 19.521 20.2952 19.521ZM21.1534 11.7916C22.1838 11.7916 22.8712 11.1042 22.8712 10.0738V6.6382C22.8712 5.6078 22.1838 4.9204 21.1534 4.9204H10.8466C9.81623 4.9204 9.12883 5.6078 9.12883 6.6382V10.0738C9.12883 11.1042 9.81623 11.7916 10.8466 11.7916H21.1534Z" fill="black"/>
</svg>
