<svg width="32" height="32" viewBox="0 0 32 32" fill="none" xmlns="http://www.w3.org/2000/svg">
<path d="M24.7376 22.9504V8.75177C24.7376 7.75887 23.9433 6.96454 22.9504 6.96454H8.75177C7.75887 6.96454 6.96454 7.75887 6.96454 8.75177V22.9504C6.96454 23.9433 7.75887 24.7376 8.75177 24.7376H22.9504C23.9433 24.7376 24.7376 23.9433 24.7376 22.9504ZM23.0496 23.2482H16.695V19.3759H23.3475V23.0496C23.2482 23.1489 23.1489 23.2482 23.0496 23.2482ZM8.55319 13.9149H15.2057V17.8865H8.55319V13.9149ZM16.695 13.9149H23.3475V17.8865H16.695V13.9149ZM23.2482 8.75177V12.4255H16.5957V8.55319H22.9504C23.1489 8.55319 23.2482 8.65248 23.2482 8.75177ZM8.75177 8.55319H15.1064V12.4255H8.55319V8.75177C8.55319 8.65248 8.65248 8.55319 8.75177 8.55319ZM8.55319 22.9504V19.2766H15.2057V23.1489H8.75177C8.65248 23.2482 8.55319 23.1489 8.55319 22.9504Z" fill="black"/>
<path d="M26.0284 2H21.9574C21.5603 2 21.1631 2.29787 21.1631 2.79433C21.1631 3.29078 21.461 3.58865 21.9574 3.58865H26.0284C27.3192 3.58865 28.3121 4.58156 28.3121 5.87234V26.1277C28.3121 27.4184 27.3192 28.4113 26.0284 28.4113H21.9574C21.5603 28.4113 21.1631 28.7092 21.1631 29.2057C21.1631 29.7021 21.461 30 21.9574 30H26.0284C28.1135 30 29.8014 28.3121 29.8014 26.2269V5.77305C29.8014 3.68794 28.1135 2 26.0284 2Z" fill="black"/>
<path d="M9.84397 28.3121H5.77305C4.48227 28.3121 3.48936 27.3191 3.48936 26.0284V5.77305C3.48936 4.48227 4.48227 3.48936 5.77305 3.48936H9.84397C10.2411 3.48936 10.6383 3.19149 10.6383 2.69504C10.6383 2.19858 10.2411 2 9.84397 2H5.77305C3.68794 2 2 3.68794 2 5.77305V26.0284C2 28.1135 3.68794 29.8014 5.77305 29.8014H9.84397C10.2411 29.8014 10.6383 29.5035 10.6383 29.0071C10.6383 28.5106 10.2411 28.3121 9.84397 28.3121Z" fill="black"/>
</svg>
