<svg width="32" height="32" viewBox="0 0 32 32" fill="none" xmlns="http://www.w3.org/2000/svg">
<path fill-rule="evenodd" clip-rule="evenodd" d="M15.5065 15.8137L16.9891 16.6377H16.9902C15.8435 18.0329 15.1537 19.82 15.1537 21.7685C15.1537 23.6311 15.7837 25.3451 16.8267 26.6933H2.0042V26.0486C2.0014 25.9477 2 25.8454 2 25.7431C2 21.3453 4.60693 17.5571 8.42632 15.8137L8.39972 15.7982C6.58103 14.6238 5.37837 12.5791 5.37837 10.2526C5.37837 6.61159 8.32832 3.65869 11.9657 3.65869C15.6031 3.65869 18.553 6.61019 18.553 10.2526C18.553 12.5791 17.3504 14.6238 15.5065 15.8137ZM21.7662 18.4512H23.4127V21.7489H26.707V23.397H21.7662V18.4512ZM23.4127 15.1536C19.7739 15.1536 16.8253 18.1065 16.8253 21.7475C16.8253 25.3885 19.7753 28.3414 23.4127 28.3414C27.0515 28.3414 30 25.3885 30 21.7475C30 18.1051 27.0501 15.1536 23.4127 15.1536ZM18.4718 21.7475C18.4718 24.479 20.6839 26.6933 23.4127 26.6933C26.1414 26.6933 28.3535 24.479 28.3535 21.7475C28.3535 19.016 26.1414 16.8017 23.4127 16.8017C20.6839 16.8017 18.4718 19.016 18.4718 21.7475Z" fill="black"/>
</svg>
