<svg width="32" height="32" viewBox="0 0 32 32" fill="none" xmlns="http://www.w3.org/2000/svg">
<path fill-rule="evenodd" clip-rule="evenodd" d="M23.8267 6.66278C23.8267 6.06618 24.5538 5.77472 24.9661 6.20552L29.8165 11.2764C30.0648 11.5366 30.0604 11.9471 29.8064 12.2011L25.4714 16.536L29.8112 20.9719C30.0692 21.2352 30.0617 21.6585 29.7954 21.9129L24.945 26.5428C24.5238 26.9445 23.8267 26.6465 23.8267 26.0644V18.1807L20.1056 21.9019C19.8472 22.1603 19.4283 22.1603 19.1699 21.9019C18.9119 21.6439 18.9119 21.225 19.1699 20.9666L23.6111 16.5259L18.9446 11.7553C18.6892 11.4942 18.6937 11.0753 18.9547 10.82C19.2157 10.5647 19.6346 10.5691 19.8899 10.8302L23.8267 14.8542V6.66278ZM15.1318 6.95362C15.3483 6.78033 15.6693 6.93466 15.6693 7.21157V25.237C15.6693 25.5144 15.3483 25.6687 15.1318 25.4954L9.05514 20.634H2.44095C2.19754 20.634 2 20.4369 2 20.193V12.256C2 12.0122 2.19754 11.815 2.44095 11.815H9.05514L15.1318 6.95362ZM25.1495 18.0983V24.5189L28.3976 21.4182L25.1495 18.0983ZM25.1495 8.31104V14.9874L28.4134 11.7231L25.1495 8.31104Z" fill="black"/>
</svg>
