<svg width="32" height="32" viewBox="0 0 32 32" fill="none" xmlns="http://www.w3.org/2000/svg">
<path d="M9.00006 16.0001C9.00006 12.1361 12.1361 9.00003 16.0001 9.00003C19.8641 9.00003 23.0001 12.136 23.0001 16C23.0001 19.864 19.8641 23 16.0001 23C12.1361 23 9.00006 19.8641 9.00006 16.0001Z" fill="black"/>
<path fill-rule="evenodd" clip-rule="evenodd" d="M2 16C2 8.26503 8.26503 2 16 2C23.735 2 30.0001 8.26497 30.0001 16C30.0001 23.735 23.735 30 16 30C8.26503 30 2 23.735 2 16ZM4.79996 16C4.79996 22.1881 9.81201 27.2 16 27.2C22.1881 27.2 27.2 22.188 27.2 16C27.2 9.81201 22.188 4.80003 16 4.80003C9.81201 4.80003 4.79996 9.81195 4.79996 16Z" fill="black"/>
</svg>
