<svg width="32" height="32" viewBox="0 0 32 32" fill="none" xmlns="http://www.w3.org/2000/svg">
<path fill-rule="evenodd" clip-rule="evenodd" d="M30 16C30 23.732 23.732 30 16 30C8.26801 30 2 23.732 2 16C2 8.26801 8.26801 2 16 2C23.732 2 30 8.26801 30 16ZM9.88338 17.903H22.3882C23.3646 17.7416 24.1298 16.9764 24.2911 16C24.3024 15.492 24.1055 15.0014 23.7462 14.6421C23.3869 14.2828 22.8963 14.0859 22.3882 14.0971H9.88338C8.83243 14.0971 7.98047 14.9491 7.98047 16C7.98047 17.051 8.83243 17.903 9.88338 17.903Z" fill="black"/>
</svg>
