<svg width="32" height="32" viewBox="0 0 32 32" fill="none" xmlns="http://www.w3.org/2000/svg">
<path d="M16.4701 2C15.0102 3.27821 13.7875 4.81285 12.8601 6.53091H20.0801C19.1527 4.81285 17.93 3.27821 16.4701 2Z" fill="black"/>
<path d="M16.4701 15.4604C17.4753 15.4604 18.2901 14.6307 18.2901 13.6073C18.2901 12.5838 17.4753 11.7542 16.4701 11.7542C15.4649 11.7542 14.6501 12.5838 14.6501 13.6073C14.6501 14.6307 15.4649 15.4604 16.4701 15.4604Z" fill="black"/>
<path d="M20.5901 7.54909H12.3501C11.2382 9.90274 10.6639 12.4821 10.6701 15.0938C10.6701 19.9811 12.6701 22.4451 12.6701 22.4451H20.2501C20.2501 22.4451 22.2501 19.9811 22.2501 15.0938C22.2664 12.4832 21.6987 9.90311 20.5901 7.54909ZM16.4701 16.4785C15.9123 16.4785 15.3671 16.3101 14.9034 15.9946C14.4396 15.6791 14.0782 15.2307 13.8648 14.7061C13.6513 14.1814 13.5955 13.6041 13.7043 13.0471C13.8131 12.4901 14.0817 11.9785 14.4761 11.577C14.8704 11.1754 15.3729 10.902 15.9199 10.7912C16.467 10.6804 17.034 10.7372 17.5493 10.9546C18.0645 11.1719 18.505 11.5399 18.8148 12.0121C19.1247 12.4843 19.2901 13.0394 19.2901 13.6073C19.2875 14.368 18.9895 15.0967 18.4612 15.6346C17.9329 16.1725 17.2172 16.4759 16.4701 16.4785Z" fill="black"/>
<path d="M9.75009 16.7127C6.12009 19.7673 7.11009 24.8582 7.16009 25.1025C7.17899 25.1739 7.21421 25.2397 7.26287 25.2946C7.31154 25.3495 7.37227 25.3918 7.44009 25.4182C7.50562 25.4505 7.57729 25.4679 7.65009 25.4691C7.7298 25.4727 7.80906 25.4552 7.88009 25.4182L12.0001 23.2596L11.8701 23.0967C10.5896 21.2132 9.85501 19.001 9.75009 16.7127Z" fill="black"/>
<path d="M23.1901 16.7127C23.0705 19.0093 22.3108 21.2237 21.0001 23.0967L20.8701 23.2596L25.0601 25.4182C25.1307 25.4575 25.2097 25.4784 25.2901 25.4793C25.3661 25.4783 25.4411 25.4609 25.5101 25.4284C25.5803 25.3961 25.6417 25.3467 25.6888 25.2845C25.7359 25.2224 25.7672 25.1494 25.7801 25.072C25.8301 24.8785 26.8201 19.7673 23.1901 16.7127Z" fill="black"/>
<path d="M16.4701 25.0924C16.3375 25.0924 16.2103 25.146 16.1165 25.2415C16.0228 25.3369 15.9701 25.4664 15.9701 25.6015V29.4909C15.9701 29.6259 16.0228 29.7554 16.1165 29.8509C16.2103 29.9464 16.3375 30 16.4701 30C16.6027 30 16.7299 29.9464 16.8236 29.8509C16.9174 29.7554 16.9701 29.6259 16.9701 29.4909V25.6015C16.9701 25.4664 16.9174 25.3369 16.8236 25.2415C16.7299 25.146 16.6027 25.0924 16.4701 25.0924Z" fill="black"/>
<path d="M13.2801 25.0924C13.1483 25.095 13.0226 25.1494 12.9294 25.2444C12.8362 25.3393 12.7827 25.4673 12.7801 25.6015V27.984C12.7801 28.119 12.8328 28.2485 12.9265 28.344C13.0203 28.4395 13.1475 28.4931 13.2801 28.4931C13.4127 28.4931 13.5399 28.4395 13.6336 28.344C13.7274 28.2485 13.7801 28.119 13.7801 27.984V25.6015C13.7801 25.4664 13.7274 25.3369 13.6336 25.2415C13.5399 25.146 13.4127 25.0924 13.2801 25.0924Z" fill="black"/>
<path d="M19.6601 25.0924C19.5275 25.0924 19.4003 25.146 19.3065 25.2415C19.2128 25.3369 19.1601 25.4664 19.1601 25.6015V27.984C19.1601 28.119 19.2128 28.2485 19.3065 28.344C19.4003 28.4395 19.5275 28.4931 19.6601 28.4931C19.7927 28.4931 19.9199 28.4395 20.0136 28.344C20.1074 28.2485 20.1601 28.119 20.1601 27.984V25.6015C20.1575 25.4673 20.104 25.3393 20.0108 25.2444C19.9176 25.1494 19.7919 25.095 19.6601 25.0924Z" fill="black"/>
</svg>
