<svg width="32" height="32" viewBox="0 0 32 32" fill="none" xmlns="http://www.w3.org/2000/svg">
<path fill-rule="evenodd" clip-rule="evenodd" d="M6.09255 6.09666C11.5493 0.639931 20.4315 0.628965 25.8992 6.09666C31.3669 11.5644 31.3669 20.4356 25.8992 25.9034C20.4425 31.3601 11.5493 31.3601 6.09255 25.9034C0.635818 20.4466 0.635818 11.5534 6.09255 6.09666ZM12.735 12.7392C10.9344 14.5398 10.9344 17.4603 12.735 19.2609C14.5356 21.0615 17.4561 21.0615 19.2567 19.2609C21.0574 17.4603 21.0574 14.5398 19.2567 12.7392C17.4561 10.9385 14.5357 10.9385 12.735 12.7392ZM20.5743 11.4216C21.0134 11.8608 21.3648 12.3439 21.6503 12.8489H27.7108C27.1838 10.8507 26.1408 8.97322 24.5817 7.41413C22.9897 5.82214 21.0793 4.76813 19.0372 4.24112L19.0371 10.2798C19.5971 10.5762 20.1131 10.9605 20.5743 11.4216ZM12.5154 10.5433L12.5154 4.37287C10.6489 4.92185 8.8813 5.94293 7.41006 7.41417C5.85101 8.97322 4.808 10.8507 4.28096 12.8489L10.3415 12.8489C10.627 12.3439 10.9784 11.8608 11.4175 11.4216C11.7579 11.0813 12.1312 10.7958 12.5154 10.5433ZM10.4504 19.3677C10.4446 19.369 10.4378 19.3706 10.4294 19.3706H4.32492C4.87386 21.281 5.90594 23.0816 7.42113 24.5968C8.89237 26.068 10.649 27.0781 12.5265 27.6381V21.4677C12.1422 21.2152 11.7689 20.9297 11.4286 20.5893C11.0553 20.2161 10.7369 19.8098 10.4734 19.3706C10.4666 19.3638 10.4598 19.3654 10.4504 19.3677ZM20.5743 20.5783C20.1021 21.0504 19.5971 21.4237 19.0372 21.7201V27.7588C21.0793 27.2318 22.9897 26.1778 24.5927 24.5967C26.0969 23.0925 27.118 21.2809 27.6669 19.3705H21.5185C21.266 19.7988 20.9476 20.205 20.5743 20.5783Z" fill="black"/>
</svg>
