<svg width="32" height="32" viewBox="0 0 32 32" fill="none" xmlns="http://www.w3.org/2000/svg">
<path d="M26.2242 5.08897L16.1601 2C16.0605 2 15.8612 2 15.7616 2L5.49822 5.08897C5.19929 5.18861 5 5.48754 5 5.78648V14.6548C5 18.9395 6.89324 22.9253 10.2811 25.6157L15.4626 29.8007C15.5623 29.9004 15.7616 30 15.9609 30C16.1601 30 16.2598 29.9004 16.4591 29.8007L21.6406 25.6157C24.9288 22.9253 26.8221 18.9395 26.8221 14.6548V5.78648C26.8221 5.48754 26.6228 5.18861 26.2242 5.08897ZM25.3274 14.6548C25.3274 18.4413 23.6335 22.0285 20.6441 24.4199L15.8612 28.2064L11.0783 24.4199C8.08897 22.0285 6.39502 18.5409 6.39502 14.6548V6.38434L15.7616 3.59431L25.427 6.48399L25.3274 14.6548Z" fill="black"/>
</svg>
