<svg width="32" height="32" viewBox="0 0 32 32" fill="none" xmlns="http://www.w3.org/2000/svg">
<path fill-rule="evenodd" clip-rule="evenodd" d="M15.75 3.5C10.7642 3.5 6.7 7.56421 6.7 12.55V13.55C6.7 13.9642 6.36421 14.3 5.95 14.3C5.53579 14.3 5.2 13.9642 5.2 13.55V12.55C5.2 6.73579 9.93579 2 15.75 2C21.5642 2 26.3 6.73579 26.3 12.55V13.45C26.3 13.8642 25.9642 14.2 25.55 14.2C25.1358 14.2 24.8 13.8642 24.8 13.45V12.55C24.8 7.56421 20.7358 3.5 15.75 3.5Z" fill="black"/>
<path fill-rule="evenodd" clip-rule="evenodd" d="M25.1054 13.016L26.1882 13.2128C28.132 13.5773 29.5 15.1781 29.5 17.15V19.85C29.5 21.8423 28.0123 23.4224 26.1971 23.7854L26.1842 23.788L25.1053 23.9841C24.44 24.1407 23.8302 23.9191 23.3954 23.541C22.9646 23.1663 22.6781 22.6211 22.6058 22.043C22.6019 22.0122 22.6 21.9811 22.6 21.95V15.05C22.6 13.8227 23.7929 12.7067 25.1054 13.016ZM24.3301 14.6012C24.1788 14.7273 24.1 14.9001 24.1 15.05V21.896C24.1354 22.1027 24.2439 22.2911 24.3796 22.409C24.514 22.5259 24.6437 22.5535 24.7681 22.5224C24.7839 22.5184 24.7998 22.515 24.8158 22.5121L25.909 22.3133C27.0908 22.0741 28 21.0556 28 19.85V17.15C28 15.9226 27.1689 14.9237 25.9137 14.6875L24.8158 14.4879C24.7998 14.485 24.7839 14.4816 24.7681 14.4776C24.6378 14.445 24.4781 14.4778 24.3301 14.6012Z" fill="black"/>
<path fill-rule="evenodd" clip-rule="evenodd" d="M7.16986 14.6012C7.02188 14.4778 6.86221 14.445 6.7319 14.4776C6.7161 14.4816 6.70018 14.485 6.68416 14.4879L5.58631 14.6875C4.33115 14.9237 3.5 15.9226 3.5 17.15V19.85C3.5 21.0556 4.40924 22.0741 5.59102 22.3133L6.68416 22.5121C6.70018 22.515 6.71611 22.5184 6.7319 22.5224C6.86221 22.555 7.02188 22.5222 7.16986 22.3988C7.32119 22.2727 7.4 22.0999 7.4 21.95V15.05C7.4 14.9001 7.32119 14.7273 7.16986 14.6012ZM6.39459 13.016C7.7071 12.7067 8.9 13.8227 8.9 15.05V21.95C8.9 23.1773 7.7071 24.2933 6.3946 23.984L5.30289 23.7855C3.48763 23.4225 2 21.8423 2 19.85V17.15C2 15.1781 3.36801 13.5773 5.31178 13.2128L5.31583 13.2121L6.39459 13.016Z" fill="black"/>
<path fill-rule="evenodd" clip-rule="evenodd" d="M24.8 24.25V23.05H26.3V24.25C26.3 26.5642 24.4642 28.4 22.15 28.4H18.35V26.9H22.15C23.6358 26.9 24.8 25.7358 24.8 24.25Z" fill="black"/>
<path fill-rule="evenodd" clip-rule="evenodd" d="M14.1553 26.9553C14.009 27.1016 13.9 27.3297 13.9 27.65C13.9 28.1358 14.3642 28.6 14.85 28.6H16.75C17.2358 28.6 17.7 28.1358 17.7 27.65C17.7 27.1642 17.2358 26.7 16.75 26.7H14.85C14.5297 26.7 14.3016 26.809 14.1553 26.9553ZM13.0947 25.8947C13.5484 25.441 14.1703 25.2 14.85 25.2H16.75C18.0642 25.2 19.2 26.3358 19.2 27.65C19.2 28.9642 18.0642 30.1 16.75 30.1H14.85C13.5358 30.1 12.4 28.9642 12.4 27.65C12.4 26.9703 12.641 26.3484 13.0947 25.8947Z" fill="black"/>
</svg>
