<svg width="32" height="32" viewBox="0 0 32 32" fill="none" xmlns="http://www.w3.org/2000/svg">
<path fill-rule="evenodd" clip-rule="evenodd" d="M30 16C30 23.732 23.732 30 16 30C8.26801 30 2 23.732 2 16C2 8.26801 8.26801 2 16 2C23.732 2 30 8.26801 30 16ZM15.3207 21.9807L23.8838 13.4176C24.0517 13.2627 24.1899 13.0784 24.2916 12.8739C24.6798 12.1576 24.4412 11.2629 23.7479 10.835L23.612 10.6991C23.2971 10.3907 22.8666 10.2296 22.4266 10.2555C21.9865 10.2814 21.5779 10.4918 21.3013 10.835L13.9615 18.1748L10.8353 15.0486C10.5204 14.7402 10.0899 14.5791 9.64986 14.605C9.20984 14.6309 8.80121 14.8414 8.52461 15.1846L8.38869 15.3205C8.0803 15.6354 7.9192 16.0659 7.94508 16.5059C7.97097 16.9459 8.18142 17.3546 8.52461 17.6312L13.01 22.1166C13.325 22.425 13.7555 22.5861 14.1955 22.5602C14.6355 22.5343 15.0441 22.3239 15.3207 21.9807Z" fill="black"/>
</svg>
