<svg width="32" height="32" viewBox="0 0 32 32" fill="none" xmlns="http://www.w3.org/2000/svg">
<path fill-rule="evenodd" clip-rule="evenodd" d="M6.07658 25.9234C8.70682 28.5537 12.2805 30.0216 16.0001 29.9998C23.732 29.9998 30 23.7318 30 15.9999C30 8.26796 23.732 2 16.0001 2C8.2682 2 2.00024 8.26796 2.00024 15.9999C1.97838 19.7195 3.44634 23.2932 6.07658 25.9234ZM14.6828 23.1223C14.3259 22.7909 14.1154 22.3311 14.0977 21.8444V9.88331C14.2338 8.93971 15.0472 8.24249 16.0006 8.25226H16.1365C16.5941 8.20536 17.0498 8.35722 17.3878 8.66924C17.7259 8.98127 17.9136 9.42341 17.9034 9.88331V21.7085C17.9147 22.2165 17.7178 22.7071 17.3585 23.0664C16.9992 23.4257 16.5086 23.6226 16.0006 23.6113C15.5138 23.6297 15.0397 23.4538 14.6828 23.1223Z" fill="black"/>
</svg>
