<svg width="32" height="32" viewBox="0 0 32 32" fill="none" xmlns="http://www.w3.org/2000/svg">
<path d="M14.2 14.2C9.7 14.2 6 17.9 6 22.4V25.5C6 25.9 6.3 26.3 6.8 26.3H16.4C16.4 26.1 16.3 25.8 16.3 25.5C16.3 25.2 16.3 25 16.4 24.7H7.5V22.4C7.5 18.7 10.5 15.7 14.2 15.7C17.3 15.7 19.8 17.8 20.7 20.6C20.9 20.6 21.1 20.6 21.3 20.6C21.6 20.6 21.9 20.6 22.2 20.7C21.4 17 18.1 14.2 14.2 14.2Z" fill="black"/>
<path d="M14.2 3C11.6 3 9.4 5.2 9.4 7.8C9.4 10.4 11.6 12.6 14.2 12.6C16.9 12.6 19 10.4 19 7.8C19 5.2 16.9 3 14.2 3ZM14.2 11.2C12.4 11.2 10.9 9.7 10.9 7.9C10.9 6.1 12.4 4.6 14.2 4.6C16 4.6 17.5 6.1 17.5 7.9C17.5 9.7 16.1 11.2 14.2 11.2Z" fill="black"/>
<path d="M20.8 28.9C20.5 28.9 20.3 28.8 20.2 28.6L18.4 26C18.2 25.7 18.2 25.2 18.6 25C18.9 24.8 19.4 24.8 19.6 25.2L20.9 27L24.5 22.5C24.8 22.2 25.2 22.1 25.6 22.4C25.9 22.7 26 23.1 25.7 23.5L21.4 28.8C21.3 28.8 21.1 28.9 20.8 28.9Z" fill="black"/>
</svg>
