<svg width="32" height="32" viewBox="0 0 32 32" fill="none" xmlns="http://www.w3.org/2000/svg">
<path fill-rule="evenodd" clip-rule="evenodd" d="M9.50603 4.34317C9.73225 4.69193 9.63291 5.15803 9.28416 5.38425C5.77575 7.65998 3.50538 11.5418 3.50538 15.9929C3.50538 20.453 5.78251 24.4247 9.27192 26.5938C9.62497 26.8133 9.73326 27.2774 9.5138 27.6304C9.29434 27.9835 8.83023 28.0918 8.47718 27.8723C4.54007 25.4249 2 20.9665 2 15.9929C2 11.0104 4.54683 6.66278 8.46494 4.1213C8.8137 3.89508 9.27981 3.99442 9.50603 4.34317ZM22.4862 4.45577C22.7057 4.10272 23.1698 3.99443 23.5228 4.21389C27.4599 6.66128 30 11.1197 30 16.0933C30 21.0758 27.4532 25.4234 23.5351 27.9649C23.1863 28.1911 22.7202 28.0918 22.494 27.743C22.2678 27.3943 22.3671 26.9282 22.7158 26.7019C26.2242 24.4262 28.4946 20.5444 28.4946 16.0933C28.4946 11.6332 26.2175 7.66147 22.7281 5.49238C22.375 5.27292 22.2667 4.80881 22.4862 4.45577ZM11.2261 6.17197C11.4399 6.52843 11.3244 6.99078 10.9679 7.20465C9.55227 8.05403 8.33141 9.18248 7.3933 10.5896C7.16271 10.9355 6.69539 11.029 6.34951 10.7984C6.00363 10.5678 5.91016 10.1005 6.14075 9.75461C7.20981 8.15103 8.59827 6.87088 10.1934 5.9138C10.5498 5.69993 11.0122 5.81552 11.2261 6.17197ZM20.7739 6.17197C20.9878 5.81552 21.4502 5.69993 21.8066 5.9138C23.3796 6.85762 24.892 8.14094 25.8784 9.78488C26.0923 10.1413 25.9767 10.6037 25.6202 10.8176C25.2638 11.0314 24.8014 10.9158 24.5875 10.5594C23.7675 9.19257 22.4698 8.06729 21.0321 7.20465C20.6756 6.99078 20.5601 6.52843 20.7739 6.17197ZM10.6981 13.3811C9.35817 14.1515 8.72401 15.1024 8.72401 15.9929C8.72401 16.8834 9.35817 17.8343 10.6981 18.6048C12.0175 19.3635 13.8904 19.8567 16 19.8567C18.1096 19.8567 19.9825 19.3635 21.3019 18.6048C22.6418 17.8343 23.276 16.8834 23.276 15.9929C23.276 15.1024 22.6418 14.1515 21.3019 13.3811C19.9825 12.6224 18.1096 12.1291 16 12.1291C13.8904 12.1291 12.0175 12.6224 10.6981 13.3811ZM9.94768 12.0761C11.534 11.1639 13.6754 10.6237 16 10.6237C18.3246 10.6237 20.466 11.1639 22.0523 12.0761C23.6182 12.9765 24.7814 14.3338 24.7814 15.9929C24.7814 17.652 23.6182 19.0094 22.0523 19.9098C20.466 20.8219 18.3246 21.3621 16 21.3621C13.6754 21.3621 11.534 20.8219 9.94768 19.9098C8.38176 19.0094 7.21864 17.652 7.21864 15.9929C7.21864 14.3338 8.38176 12.9765 9.94768 12.0761ZM16 14.0359C14.9192 14.0359 14.043 14.9121 14.043 15.9929C14.043 17.0737 14.9192 17.9499 16 17.9499C17.0808 17.9499 17.957 17.0737 17.957 15.9929C17.957 14.9121 17.0808 14.0359 16 14.0359ZM12.5376 15.9929C12.5376 14.0807 14.0878 12.5306 16 12.5306C17.9122 12.5306 19.4624 14.0807 19.4624 15.9929C19.4624 17.9051 17.9122 19.4553 16 19.4553C14.0878 19.4553 12.5376 17.9051 12.5376 15.9929ZM25.6202 21.1683C25.9767 21.3822 26.0923 21.8445 25.8784 22.201C24.9026 23.8273 23.3952 25.2259 21.7736 26.0907C21.4068 26.2864 20.9508 26.1476 20.7552 25.7808C20.5596 25.414 20.6984 24.9581 21.0651 24.7625C22.4543 24.0216 23.7569 22.8109 24.5875 21.4265C24.8014 21.07 25.2638 20.9544 25.6202 21.1683ZM6.37977 21.2686C6.73623 21.0548 7.19857 21.1704 7.41245 21.5268C8.23254 22.8936 9.53017 24.0189 10.9679 24.8815C11.3244 25.0954 11.4399 25.5578 11.2261 25.9142C11.0122 26.2707 10.5498 26.3863 10.1934 26.1724C8.62036 25.2286 7.10796 23.9453 6.1216 22.3013C5.90773 21.9449 6.02331 21.4825 6.37977 21.2686Z" fill="black"/>
</svg>
