<svg width="32" height="32" viewBox="0 0 32 32" fill="none" xmlns="http://www.w3.org/2000/svg">
<path fill-rule="evenodd" clip-rule="evenodd" d="M16.745 25.9589V30H15.2548V25.9589H16.745ZM19.398 25.9589V28.4312H17.9078V25.9589H19.398ZM14.0921 25.9589V28.4312H12.6019V25.9589H14.0921ZM25.8183 26.1182L25.6149 27.1145L21.4123 24.8355C22.198 23.7771 22.8155 22.5793 23.2628 21.2492C23.6234 20.1769 23.8734 19.0186 24.0117 17.778C26.7808 21.1767 25.8645 25.8912 25.8183 26.1182ZM7.88459 17.9077C8.26259 20.7307 9.17584 23.2135 10.5149 24.9667L10.4658 24.9012L6.3851 27.1145L6.18168 26.1182C6.13619 25.8947 5.24699 21.3196 7.86381 17.9343L7.88459 17.9077ZM22.7061 15.9859C22.7061 16.4937 22.6863 16.9874 22.6469 17.4668C22.549 18.6561 22.3299 19.7569 21.991 20.7645C21.6112 21.8939 21.0808 22.9064 20.4018 23.7953L20.1783 24.0883H11.8219L11.598 23.7953C10.1339 21.8782 9.29415 18.8912 9.29415 15.6003C9.29415 12.2905 10.1266 9.49968 11.1835 7.29014C11.2619 7.30537 11.3436 7.31314 11.4278 7.31314L20.5723 7.31314C20.6853 7.31314 20.794 7.29912 20.8956 7.27325C21.9157 9.50311 22.7061 12.3911 22.7061 15.9859ZM16 9.26826C13.9457 9.26826 12.2745 10.9976 12.2745 13.1223C12.2745 15.2477 13.9457 16.9767 16 16.9767C18.0543 16.9767 19.7255 15.2477 19.7255 13.1223C19.7255 10.9976 18.0543 9.26826 16 9.26826ZM16 10.8099C17.2328 10.8099 18.2353 11.8472 18.2353 13.1223C18.2353 14.3978 17.2328 15.4351 16 15.4351C14.7672 15.4351 13.7647 14.3978 13.7647 13.1223C13.7647 11.8472 14.7672 10.8099 16 10.8099ZM15.9692 1L16.4315 1.34056C16.5725 1.44382 18.4571 2.8635 20.1243 5.77123L11.9922 5.77108C13.6149 3.01403 15.3931 1.48596 15.5296 1.37106L15.9692 1Z" fill="black"/>
</svg>
