<svg width="32" height="32" viewBox="0 0 32 32" fill="none" xmlns="http://www.w3.org/2000/svg">
<path fill-rule="evenodd" clip-rule="evenodd" d="M20.2616 5.46448C21.3794 5.46448 22.3426 6.06495 22.8634 6.9476L29.1645 17.2376C29.6931 18.1454 30 19.1921 30 20.3089C30 23.7421 27.1406 26.5356 23.6238 26.5356C20.1082 26.5356 17.2488 23.7421 17.2488 20.3089V15.7228H14.7523V20.3089C14.7523 23.7421 11.8918 26.5356 8.37728 26.5356C4.86048 26.5356 2 23.7421 2 20.3089C2 19.1921 2.30688 18.1454 2.83664 17.2376L9.13776 6.9476C9.65856 6.06495 10.6229 5.46448 11.7395 5.46448C13.4038 5.46448 14.7523 6.78135 14.7523 8.40667V9.34838H17.2488V8.40667C17.2488 6.78135 18.5973 5.46448 20.2616 5.46448ZM23.6238 15.7228C21.0344 15.7228 18.9288 17.7801 18.9288 20.3089C18.9288 22.8376 21.0344 24.895 23.6238 24.895C26.2144 24.895 28.32 22.8376 28.32 20.3089C28.32 17.7801 26.2144 15.7228 23.6238 15.7228ZM3.68 20.3089C3.68 17.7801 5.78672 15.7228 8.37728 15.7228C10.9656 15.7228 13.0723 17.7801 13.0723 20.3089C13.0723 22.8376 10.9656 24.895 8.37728 24.895C5.78672 24.895 3.68 22.8376 3.68 20.3089ZM8.78633 18.0289C9.07197 18.0289 9.30491 18.2614 9.30491 18.5465C9.30491 18.8327 9.07197 19.0642 8.78633 19.0642C7.63007 19.0642 6.69094 20.0028 6.69094 21.157C6.69094 21.4422 6.458 21.6747 6.17236 21.6747C5.88567 21.6747 5.65273 21.4422 5.65273 21.157C5.65273 19.4314 7.05774 18.0289 8.78633 18.0289ZM23.9136 18.5465C23.9136 18.2614 23.6807 18.0289 23.395 18.0289C21.6664 18.0289 20.2614 19.4314 20.2614 21.157C20.2614 21.4422 20.4944 21.6747 20.7811 21.6747C21.0667 21.6747 21.2996 21.4422 21.2996 21.157C21.2996 20.0028 22.2388 19.0642 23.395 19.0642C23.6807 19.0642 23.9136 18.8327 23.9136 18.5465Z" fill="black"/>
</svg>
