<svg width="32" height="32" viewBox="0 0 32 32" fill="none" xmlns="http://www.w3.org/2000/svg">
<path d="M24.5769 2C27.9358 5.57699 30 10.4048 30 15.7154C30 20.9596 27.9871 25.7332 24.693 29.3068L24.5767 29.4317L23.3357 28.3404C26.4285 25.0487 28.3281 20.6036 28.3281 15.7168C28.3281 10.8301 26.4285 6.38471 23.3261 3.08206L23.3357 3.0919L24.5769 2ZM21.3428 5.29174C23.8966 8.01013 25.4643 11.679 25.4643 15.714C25.4643 19.687 23.9432 23.3063 21.4521 26.0182L21.3414 26.1369L21.3399 26.1377L20.1935 25.0475C22.4798 22.6144 23.8857 19.3294 23.8857 15.7154C23.8857 12.1014 22.4812 8.81657 20.188 6.37661L20.1949 6.38336L21.3428 5.29174ZM14.0792 6.13949V25.3108L7.75773 20.0057H2V11.4266H7.75773L14.0792 6.13949ZM18.1801 8.58488C19.9274 10.4447 21.0013 12.9545 21.0013 15.7154C21.0013 18.4242 19.9676 20.8915 18.2744 22.7453L18.1797 22.8468L17.0513 21.7558C18.5325 20.1812 19.4419 18.0553 19.4419 15.7168C19.4419 13.3784 18.5325 11.2523 17.0472 9.67228L17.0513 9.6765L18.1801 8.58488Z" fill="black"/>
</svg>
