<svg width="32" height="32" viewBox="0 0 32 32" fill="none" xmlns="http://www.w3.org/2000/svg">
<path fill-rule="evenodd" clip-rule="evenodd" d="M6.07658 25.9234C8.70682 28.5537 12.2805 30.0216 16.0001 29.9998C23.732 29.9998 30 23.7318 30 15.9999C30 8.26796 23.732 2 16.0001 2C8.2682 2 2.00024 8.26796 2.00024 15.9999C1.97838 19.7195 3.44634 23.2932 6.07658 25.9234ZM16.5443 15.456H22.9326C23.8018 15.4247 24.5831 15.9828 24.8355 16.8152C24.8467 17.3232 24.6498 17.8138 24.2905 18.1731C23.9312 18.5324 23.4406 18.7293 22.9326 18.7181H14.7773C14.3197 18.765 13.8639 18.6131 13.5259 18.3011C13.1879 17.9891 13.0001 17.5469 13.0103 17.087V8.93174C12.9634 8.47412 13.1153 8.01839 13.4273 7.68037C13.7393 7.34234 14.1815 7.15457 14.6414 7.16476C15.1494 7.15351 15.64 7.35038 15.9993 7.70971C16.3587 8.06904 16.5555 8.55961 16.5443 9.06766V15.456Z" fill="black"/>
</svg>
