<svg width="32" height="32" viewBox="0 0 32 32" fill="none" xmlns="http://www.w3.org/2000/svg">
<path d="M26.75 28.4895H4.75C4.55109 28.4895 4.36032 28.5691 4.21967 28.7107C4.07902 28.8524 4 29.0445 4 29.2448C4 29.4451 4.07902 29.6372 4.21967 29.7789C4.36032 29.9205 4.55109 30.0001 4.75 30.0001H26.75C26.9489 30.0001 27.1397 29.9205 27.2803 29.7789C27.421 29.6372 27.5 29.4451 27.5 29.2448C27.5 29.0445 27.421 28.8524 27.2803 28.7107C27.1397 28.5691 26.9489 28.4895 26.75 28.4895Z" fill="black"/>
<path d="M9.56 26.0322C9.65456 26.058 9.75326 26.0646 9.85038 26.0517C9.94749 26.0387 10.0411 26.0065 10.1257 25.9569C10.2104 25.9072 10.2844 25.8411 10.3435 25.7624C10.4026 25.6838 10.4456 25.5941 10.47 25.4985L12.85 16.5962H18.65L21 25.4985C21.0436 25.6573 21.1376 25.7973 21.2676 25.8973C21.3975 25.9973 21.5564 26.0518 21.72 26.0524C21.783 26.0622 21.847 26.0622 21.91 26.0524C22.0053 26.0267 22.0946 25.9823 22.1728 25.9218C22.251 25.8613 22.3166 25.7859 22.3658 25.6998C22.415 25.6138 22.4469 25.5188 22.4597 25.4203C22.4724 25.3218 22.4657 25.2218 22.44 25.1259L16.47 2.65873C16.4489 2.4773 16.3625 2.30997 16.227 2.18853C16.0915 2.06709 15.9164 2 15.735 2C15.5536 2 15.3785 2.06709 15.243 2.18853C15.1075 2.30997 15.0211 2.4773 15 2.65873L9 25.1058C8.97474 25.2037 8.96927 25.3057 8.98392 25.4058C8.99856 25.5059 9.03302 25.602 9.08526 25.6884C9.13749 25.7748 9.20642 25.8498 9.28798 25.9088C9.36953 25.9679 9.46203 26.0099 9.56 26.0322ZM15.75 5.76043L18.24 15.0857H13.24L15.75 5.76043Z" fill="black"/>
</svg>
