<svg width="32" height="32" viewBox="0 0 32 32" fill="none" xmlns="http://www.w3.org/2000/svg">
<path d="M8.14 21.58C8.26554 21.5798 8.38913 21.5489 8.5 21.49C15.4 17.65 16.43 12.2 16.43 9.29C16.4274 9.09189 16.3476 8.90263 16.2075 8.76253C16.0674 8.62244 15.8781 8.54259 15.68 8.54H8.32C8.12109 8.54 7.93032 8.61902 7.78967 8.75967C7.64902 8.90032 7.57 9.09109 7.57 9.29C7.57 9.48891 7.64902 9.67968 7.78967 9.82033C7.93032 9.96098 8.12109 10.04 8.32 10.04H14.9C14.71 13.12 13.23 17.14 7.77 20.18C7.6016 20.2767 7.47729 20.435 7.4232 20.6215C7.36911 20.808 7.38947 21.0082 7.48 21.18C7.54509 21.2989 7.64038 21.3984 7.75627 21.4687C7.87215 21.5389 8.00452 21.5773 8.14 21.58Z" fill="black"/>
<path d="M20.51 25.66C20.7081 25.6574 20.8974 25.5776 21.0375 25.4375C21.1776 25.2974 21.2574 25.1081 21.26 24.91V15.78H23.86C24.0589 15.78 24.2497 15.701 24.3903 15.5603C24.531 15.4197 24.61 15.2289 24.61 15.03C24.61 14.8311 24.531 14.6403 24.3903 14.4997C24.2497 14.359 24.0589 14.28 23.86 14.28H21.26V7.09C21.26 6.89109 21.181 6.70032 21.0403 6.55967C20.8997 6.41902 20.7089 6.34 20.51 6.34C20.3111 6.34 20.1203 6.41902 19.9797 6.55967C19.839 6.70032 19.76 6.89109 19.76 7.09V24.91C19.76 25.1089 19.839 25.2997 19.9797 25.4403C20.1203 25.581 20.3111 25.66 20.51 25.66Z" fill="black"/>
<path d="M29.25 2H2.75C2.55189 2.00259 2.36263 2.08244 2.22253 2.22253C2.08244 2.36263 2.00259 2.55189 2 2.75V29.25C2.00259 29.4481 2.08244 29.6374 2.22253 29.7775C2.36263 29.9176 2.55189 29.9974 2.75 30H29.25C29.4481 29.9974 29.6374 29.9176 29.7775 29.7775C29.9176 29.6374 29.9974 29.4481 30 29.25V2.75C29.9974 2.55189 29.9176 2.36263 29.7775 2.22253C29.6374 2.08244 29.4481 2.00259 29.25 2ZM28.5 28.5H3.5V3.5H28.5V28.5Z" fill="black"/>
</svg>
