<svg width="32" height="32" viewBox="0 0 32 32" fill="none" xmlns="http://www.w3.org/2000/svg">
<path d="M14.2002 13.5493C14.2901 13.2993 14.3601 13.0593 14.4301 12.8293C14.4666 12.6463 14.4337 12.4563 14.3377 12.2963C14.2416 12.1363 14.0895 12.0179 13.9109 11.9642C13.7323 11.9104 13.5401 11.9252 13.3718 12.0057C13.2035 12.0862 13.0713 12.2265 13.0009 12.3993C12.9209 12.6593 12.821 12.9793 12.701 13.3293C11.3132 13.2899 9.92763 13.4653 8.59336 13.8493C8.59336 13.0493 8.71329 12.2193 8.81324 11.3593C11.0858 11.2542 13.3511 11.0272 15.5994 10.6793C15.6971 10.6648 15.7909 10.6308 15.8752 10.5795C15.9596 10.5281 16.0328 10.4603 16.0906 10.3801C16.1483 10.3 16.1894 10.2091 16.2115 10.1127C16.2336 10.0164 16.2362 9.91667 16.2191 9.81934C16.2058 9.72201 16.173 9.62837 16.1226 9.54403C16.0723 9.45968 16.0055 9.38637 15.9262 9.32848C15.8468 9.27059 15.7566 9.22931 15.661 9.20712C15.5654 9.18493 15.4662 9.18229 15.3695 9.19934C13.2603 9.52756 11.1352 9.74453 9.00313 9.84934C9.07309 9.28934 9.15305 8.71934 9.25299 8.11934C9.28347 7.92175 9.23426 7.72014 9.11618 7.55886C9.05771 7.479 8.98409 7.41145 8.89953 7.36006C8.81497 7.30867 8.72112 7.27444 8.62334 7.25934C8.52557 7.24424 8.42577 7.24855 8.32966 7.27204C8.23354 7.29553 8.143 7.33773 8.06318 7.39623C7.90199 7.51438 7.79431 7.69175 7.76383 7.88934C7.66389 8.58934 7.56394 9.24934 7.47399 9.88934C6.1132 9.92115 4.75171 9.87441 3.39629 9.74934C3.19888 9.72978 3.00178 9.78932 2.84816 9.91491C2.69455 10.0405 2.59695 10.2219 2.57675 10.4193C2.56 10.6179 2.62184 10.8151 2.74895 10.9684C2.87606 11.1218 3.05828 11.2191 3.25637 11.2393C4.35575 11.3493 5.53509 11.3993 6.78438 11.3993H7.30409C7.19415 12.3993 7.1142 13.3993 7.07422 14.3993C6.33597 14.7046 5.64053 15.1046 5.00538 15.5893C4.18 16.2214 3.48948 17.0125 2.97452 17.9159C2.45957 18.8193 2.13062 19.8167 2.00708 20.8493C1.97873 21.2321 2.03577 21.6164 2.17404 21.9744C2.31232 22.3324 2.52839 22.6551 2.80662 22.9193C4.00595 23.9893 5.73497 23.8193 7.93373 22.4293C7.98371 22.6193 8.02368 22.8093 8.07365 23.0093C8.11759 23.166 8.2119 23.3038 8.34197 23.4014C8.47205 23.499 8.63066 23.551 8.79325 23.5493C8.91062 23.5556 9.02773 23.5329 9.13433 23.4834C9.24094 23.4339 9.33379 23.359 9.40479 23.2652C9.47578 23.1715 9.52275 23.0618 9.54159 22.9457C9.56042 22.8297 9.55055 22.7107 9.51284 22.5993C9.4129 22.2193 9.33294 21.8593 9.243 21.4993C9.45288 21.3393 9.66276 21.1893 9.87264 20.9993C11.6041 19.3297 12.9158 17.2736 13.7005 14.9993H13.7804C14.6748 15.169 15.4752 15.6627 16.0284 16.3859C16.5816 17.1092 16.8488 18.0113 16.7787 18.9193C16.5889 20.3993 15.5794 22.3593 11.7816 23.2093C11.6036 23.2512 11.447 23.3567 11.3414 23.506C11.2357 23.6554 11.1882 23.8382 11.2079 24.02C11.2275 24.2019 11.313 24.3704 11.4481 24.4936C11.5832 24.6169 11.7587 24.6865 11.9415 24.6893C11.9977 24.699 12.0552 24.699 12.1114 24.6893C16.9886 23.5893 18.058 20.6893 18.2579 19.1193C18.3868 17.8537 18.0438 16.5851 17.2949 15.557C16.5459 14.529 15.4438 13.814 14.2002 13.5493ZM3.80606 21.7993C3.69308 21.6785 3.60773 21.5345 3.55595 21.3774C3.50418 21.2202 3.48721 21.0537 3.50623 20.8893C3.75216 19.2529 4.61826 17.7739 5.92487 16.7593C6.25836 16.4734 6.62001 16.2221 7.00426 16.0093C7.03051 17.6384 7.20445 19.2617 7.52396 20.8593C6.23469 21.8093 4.65558 22.5593 3.80606 21.7993ZM8.91318 19.8493C8.65578 18.3836 8.53201 16.8975 8.54339 15.4093C9.70952 15.0309 10.9256 14.8287 12.1514 14.8093C11.466 16.7124 10.3589 18.4354 8.91318 19.8493Z" fill="black"/>
<path d="M28.712 22.4493L25.9936 25.1593V6.56934L28.702 9.27934C28.8426 9.41979 29.0331 9.49868 29.2317 9.49868C29.4304 9.49868 29.6209 9.41979 29.7614 9.27934C29.9018 9.13871 29.9806 8.94809 29.9806 8.74934C29.9806 8.55059 29.9018 8.35997 29.7614 8.21934L25.7637 4.21934C25.6231 4.07889 25.4326 4 25.234 4C25.0353 4 24.8448 4.07889 24.7043 4.21934L20.7065 8.21934C20.5662 8.35997 20.4873 8.55059 20.4873 8.74934C20.4873 8.94809 20.5662 9.13871 20.7065 9.27934C20.7754 9.3501 20.8578 9.40633 20.9488 9.44473C21.0398 9.48313 21.1375 9.50291 21.2362 9.50291C21.335 9.50291 21.4327 9.48313 21.5237 9.44473C21.6147 9.40633 21.697 9.3501 21.7659 9.27934L24.4844 6.56934V25.1593L21.7659 22.4493C21.6973 22.3757 21.6146 22.3166 21.5226 22.2756C21.4307 22.2346 21.3314 22.2125 21.2308 22.2107C21.1301 22.209 21.0301 22.2275 20.9368 22.2652C20.8435 22.3029 20.7587 22.3591 20.6875 22.4303C20.6163 22.5015 20.5602 22.5864 20.5225 22.6797C20.4848 22.7731 20.4663 22.8732 20.4681 22.9739C20.4699 23.0746 20.4919 23.1739 20.5329 23.2659C20.5738 23.3579 20.6329 23.4407 20.7065 23.5093L24.7043 27.5093C24.7744 27.5761 24.8556 27.6302 24.9441 27.6693C25.0375 27.7013 25.1353 27.7182 25.234 27.7193C25.3293 27.7173 25.4237 27.7004 25.5138 27.6693C25.6041 27.6279 25.6882 27.574 25.7637 27.5093L29.7614 23.5093C29.8351 23.4407 29.8941 23.3579 29.9351 23.2659C29.9761 23.1739 29.9981 23.0746 29.9999 22.9739C30.0017 22.8732 29.9831 22.7731 29.9454 22.6797C29.9077 22.5864 29.8516 22.5015 29.7805 22.4303C29.7093 22.3591 29.6245 22.3029 29.5312 22.2652C29.4378 22.2275 29.3378 22.209 29.2372 22.2107C29.1366 22.2125 29.0373 22.2346 28.9454 22.2756C28.8534 22.3166 28.7706 22.3757 28.702 22.4493H28.712Z" fill="black"/>
</svg>
