<svg width="32" height="32" viewBox="0 0 32 32" fill="none" xmlns="http://www.w3.org/2000/svg">
<path d="M29.25 2H2.75C2.55189 2.00259 2.36263 2.08244 2.22253 2.22253C2.08244 2.36263 2.00259 2.55189 2 2.75V29.25C2.00259 29.4481 2.08244 29.6374 2.22253 29.7775C2.36263 29.9176 2.55189 29.9974 2.75 30H29.25C29.4481 29.9974 29.6374 29.9176 29.7775 29.7775C29.9176 29.6374 29.9974 29.4481 30 29.25V2.75C29.9974 2.55189 29.9176 2.36263 29.7775 2.22253C29.6374 2.08244 29.4481 2.00259 29.25 2ZM28.5 28.5H3.5V3.5H28.5V28.5Z" fill="black"/>
<path d="M10.82 15.62C9.99395 16.2564 9.30314 17.0511 8.78801 17.9577C8.27289 18.8644 7.9438 19.8646 7.82 20.9C7.78994 21.2874 7.84609 21.6766 7.98441 22.0397C8.12274 22.4029 8.3398 22.7308 8.62 23C9.83 24.08 11.62 23.9 13.78 22.51C13.83 22.7 13.87 22.89 13.92 23.09C13.967 23.2476 14.0632 23.3861 14.1946 23.485C14.3259 23.584 14.4855 23.6383 14.65 23.64H14.85C15.0405 23.5863 15.2021 23.4595 15.2996 23.2871C15.397 23.1148 15.4223 22.9109 15.37 22.72C15.26 22.34 15.18 21.97 15.09 21.61L15.73 21.11C17.4825 19.4116 18.7998 17.3157 19.57 15H19.66C20.5575 15.172 21.36 15.6691 21.9136 16.3962C22.4672 17.1233 22.733 18.0291 22.66 18.94C22.47 20.44 21.45 22.4 17.66 23.26C17.4819 23.3019 17.3253 23.4074 17.2196 23.5567C17.1138 23.706 17.0663 23.8888 17.086 24.0707C17.1057 24.2526 17.1911 24.421 17.3263 24.5443C17.4615 24.6675 17.6371 24.7372 17.82 24.74H18C22.9 23.63 24 20.74 24.18 19.14C24.3 17.876 23.9533 16.6117 23.2054 15.5857C22.4575 14.5596 21.3601 13.8427 20.12 13.57L20.35 12.85C20.3782 12.7554 20.3876 12.6563 20.3775 12.5581C20.3674 12.4599 20.338 12.3647 20.2911 12.2779C20.2443 12.1911 20.1807 12.1144 20.1042 12.0521C20.0276 11.9898 19.9396 11.9432 19.845 11.915C19.7504 11.8868 19.6513 11.8774 19.5531 11.8875C19.4549 11.8976 19.3597 11.927 19.2729 11.9739C19.1861 12.0207 19.1094 12.0843 19.0471 12.1608C18.9848 12.2374 18.9382 12.3254 18.91 12.42C18.83 12.67 18.73 12.99 18.61 13.35C17.2083 13.311 15.8088 13.4864 14.46 13.87C14.51 13.07 14.59 12.23 14.69 11.37C16.9769 11.2559 19.2565 11.0256 21.52 10.68C21.7176 10.6495 21.895 10.5418 22.0131 10.3805C22.1313 10.2192 22.1805 10.0176 22.15 9.82C22.1195 9.62241 22.0118 9.44504 21.8505 9.32689C21.6892 9.20874 21.4876 9.1595 21.29 9.19C19.1664 9.52453 17.0269 9.74816 14.88 9.86C14.95 9.29 15.03 8.72 15.13 8.11C15.1588 7.91266 15.1089 7.7119 14.9911 7.55101C14.8732 7.39013 14.6968 7.28202 14.5 7.25C14.3038 7.22134 14.1043 7.27152 13.945 7.38958C13.7857 7.50764 13.6796 7.68396 13.65 7.88C13.54 8.58 13.44 9.25 13.35 9.88C11.9816 9.90369 10.613 9.85362 9.25 9.73C9.15196 9.71895 9.0527 9.72761 8.95805 9.75549C8.86341 9.78336 8.7753 9.82988 8.69889 9.8923C8.62249 9.95473 8.55935 10.0318 8.51317 10.119C8.46699 10.2062 8.43871 10.3017 8.43 10.4C8.41044 10.5975 8.46998 10.7947 8.59557 10.9484C8.72115 11.1021 8.90255 11.1998 9.1 11.22C10.21 11.33 11.39 11.38 12.65 11.38H13.18C13.07 12.38 12.99 13.38 12.95 14.38C12.1849 14.6905 11.4678 15.108 10.82 15.62ZM18.02 14.84C17.3329 16.7535 16.2218 18.4867 14.77 19.91C14.5124 18.4308 14.3886 16.9314 14.4 15.43C15.5648 15.0586 16.7776 14.8598 18 14.84H18.02ZM13.41 20.94C12.07 21.87 10.49 22.63 9.63 21.86C9.51262 21.7397 9.4238 21.5946 9.37014 21.4353C9.31647 21.2761 9.29934 21.1068 9.32 20.94C9.56526 19.2929 10.44 17.8052 11.76 16.79C12.1134 16.5124 12.4916 16.268 12.89 16.06C12.9157 17.699 13.0898 19.3324 13.41 20.94Z" fill="black"/>
</svg>
