<svg width="32" height="32" viewBox="0 0 32 32" fill="none" xmlns="http://www.w3.org/2000/svg">
<path d="M27.15 12.69H24.22V4.75C24.22 4.55109 24.141 4.36032 24.0003 4.21967C23.8597 4.07902 23.6689 4 23.47 4C23.2711 4 23.0803 4.07902 22.9397 4.21967C22.799 4.36032 22.72 4.55109 22.72 4.75V24.26C22.72 24.4589 22.799 24.6497 22.9397 24.7903C23.0803 24.931 23.2711 25.01 23.47 25.01C23.6689 25.01 23.8597 24.931 24.0003 24.7903C24.141 24.6497 24.22 24.4589 24.22 24.26V14.19H27.15C27.3489 14.19 27.5397 14.111 27.6803 13.9703C27.821 13.8297 27.9 13.6389 27.9 13.44C27.9 13.2411 27.821 13.0503 27.6803 12.9097C27.5397 12.769 27.3489 12.69 27.15 12.69Z" fill="black"/>
<path d="M9.92 20.55C10.0502 20.5512 10.1782 20.5166 10.29 20.45C17.81 16.27 18.93 10.33 18.93 7.16C18.9274 6.96189 18.8476 6.77263 18.7075 6.63253C18.5674 6.49244 18.3781 6.41259 18.18 6.41H10.12C9.92109 6.41 9.73032 6.48902 9.58967 6.62967C9.44902 6.77032 9.37 6.96109 9.37 7.16C9.37 7.35891 9.44902 7.54968 9.58967 7.69033C9.73032 7.83098 9.92109 7.91 10.12 7.91H17.41C17.21 11.31 15.61 15.78 9.56 19.14C9.3916 19.2367 9.26729 19.395 9.2132 19.5815C9.15911 19.768 9.17947 19.9682 9.27 20.14C9.33129 20.2606 9.42407 20.3624 9.5385 20.4346C9.65293 20.5068 9.78475 20.5466 9.92 20.55Z" fill="black"/>
<path d="M26.75 26.86H4.75C4.55109 26.86 4.36032 26.939 4.21967 27.0797C4.07902 27.2203 4 27.4111 4 27.61C4 27.8089 4.07902 27.9997 4.21967 28.1403C4.36032 28.281 4.55109 28.36 4.75 28.36H26.75C26.9489 28.36 27.1397 28.281 27.2803 28.1403C27.421 27.9997 27.5 27.8089 27.5 27.61C27.5 27.4111 27.421 27.2203 27.2803 27.0797C27.1397 26.939 26.9489 26.86 26.75 26.86Z" fill="black"/>
</svg>
