<svg width="32" height="32" viewBox="0 0 32 32" fill="none" xmlns="http://www.w3.org/2000/svg">
<path d="M29.2207 28.5378H20.9778L28.3115 20.256C28.7922 19.7089 29.0377 18.9936 28.9947 18.2658C28.9516 17.5381 28.6235 16.8569 28.0817 16.3705L24.7545 13.3662C24.2081 12.8813 23.4922 12.6333 22.7637 12.6764C22.0352 12.7196 21.3535 13.0505 20.8679 13.5965L12.3053 23.2703C12.0651 23.5415 11.8807 23.8576 11.7628 24.2004C11.6448 24.5433 11.5955 24.9061 11.6178 25.268C11.6401 25.63 11.7335 25.984 11.8926 26.3096C12.0517 26.6353 12.2735 26.9263 12.5451 27.1659L15.6824 29.8197C15.8137 29.9384 15.9851 30.0028 16.162 29.9999H29.2506C29.4494 29.9999 29.64 29.9208 29.7805 29.7799C29.921 29.6391 30 29.448 30 29.2488C30 29.0496 29.921 28.8586 29.7805 28.7178C29.64 28.5769 29.4494 28.4978 29.2506 28.4978L29.2207 28.5378ZM21.9769 14.638C22.0848 14.5139 22.2165 14.4128 22.3641 14.3405C22.5117 14.2683 22.6722 14.2264 22.8362 14.2174C22.9991 14.2072 23.1624 14.2294 23.3167 14.2827C23.471 14.336 23.6133 14.4193 23.7354 14.5279L27.0625 17.5321C27.3096 17.7517 27.4598 18.0604 27.4804 18.3907C27.501 18.7209 27.3903 19.046 27.1724 19.2947L23.8054 23.03L18.6198 18.4034L21.9769 14.638ZM18.9795 28.5378H16.4017L13.5043 26.0343C13.2566 25.813 13.1061 25.5026 13.0855 25.1707C13.0649 24.8387 13.1759 24.5121 13.3943 24.2617L17.6207 19.4949L22.8162 24.1215L18.9795 28.5378Z" fill="black"/>
<path d="M13.1546 18.5336C13.2533 18.5349 13.3514 18.5164 13.4429 18.4791C13.5344 18.4419 13.6176 18.3866 13.6874 18.3166C13.7573 18.2466 13.8124 18.1632 13.8496 18.0715C13.8868 17.9798 13.9053 17.8815 13.9039 17.7825V10.2017H15.9821C16.1809 10.2017 16.3715 10.1226 16.512 9.98171C16.6525 9.84085 16.7315 9.64982 16.7315 9.45062C16.7315 9.25142 16.6525 9.06039 16.512 8.91953C16.3715 8.77868 16.1809 8.69955 15.9821 8.69955H13.9039V2.75107C13.9039 2.55187 13.825 2.36084 13.6844 2.21998C13.5439 2.07913 13.3533 2 13.1546 2C12.9558 2 12.7652 2.07913 12.6247 2.21998C12.4842 2.36084 12.4052 2.55187 12.4052 2.75107V17.7725C12.4039 17.872 12.4223 17.9707 12.4594 18.063C12.4964 18.1553 12.5514 18.2392 12.6211 18.3101C12.6908 18.3809 12.7739 18.4371 12.8655 18.4755C12.957 18.5138 13.0553 18.5336 13.1546 18.5336Z" fill="black"/>
<path d="M9.08807 3.85264H2.89342C2.69468 3.85264 2.50408 3.93177 2.36355 4.07262C2.22302 4.21348 2.14407 4.40451 2.14407 4.60371C2.14407 4.80291 2.22302 4.99395 2.36355 5.1348C2.50408 5.27565 2.69468 5.35478 2.89342 5.35478H8.30874C8.11891 7.90842 6.85 11.1931 2.38386 13.6867C2.21389 13.7818 2.08755 13.9396 2.0316 14.1265C1.97566 14.3134 1.99449 14.5148 2.08412 14.6881C2.14964 14.8059 2.24524 14.9042 2.36111 14.9728C2.47698 15.0414 2.60897 15.078 2.74355 15.0786C2.87043 15.0796 2.99503 15.0449 3.10324 14.9785C8.98816 11.7339 9.83742 7.08725 9.83742 4.60371C9.83742 4.40451 9.75847 4.21348 9.61794 4.07262C9.47741 3.93177 9.28681 3.85264 9.08807 3.85264Z" fill="black"/>
</svg>
