<svg width="32" height="32" viewBox="0 0 32 32" fill="none" xmlns="http://www.w3.org/2000/svg">
<path d="M29.0187 23.4316C28.9864 23.3334 28.9344 23.2427 28.8658 23.1653C28.7973 23.0878 28.7136 23.0252 28.62 22.9812C28.5264 22.9372 28.4248 22.9127 28.3214 22.9094C28.218 22.906 28.115 22.9238 28.0187 22.9616C24.0187 24.1316 19.3187 23.6816 18.2087 20.5916C17.9734 19.9071 17.8864 19.1804 17.9537 18.4597C18.0209 17.7389 18.2408 17.0408 18.5987 16.4116C19.6887 14.4116 21.9987 12.8916 25.0787 12.1716C25.1775 12.1523 25.2715 12.1132 25.3549 12.0567C25.4383 12.0003 25.5095 11.9276 25.5642 11.843C25.6189 11.7585 25.656 11.6638 25.6733 11.5645C25.6906 11.4653 25.6878 11.3636 25.6649 11.2655C25.6421 11.1674 25.5997 11.075 25.5404 10.9936C25.481 10.9122 25.4058 10.8437 25.3194 10.792C25.233 10.7403 25.137 10.7065 25.0372 10.6927C24.9375 10.6789 24.8359 10.6854 24.7387 10.7116C23.5536 10.977 22.4075 11.3938 21.3287 11.9516C20.1687 11.5516 18.2787 10.4616 18.4687 8.84164C18.515 8.49041 18.6363 8.15324 18.8243 7.85302C19.0124 7.55279 19.2629 7.29654 19.5587 7.10164C20.0234 6.80683 20.5455 6.61423 21.0903 6.53665C21.6351 6.45906 22.1902 6.49826 22.7187 6.65164C22.8139 6.67543 22.913 6.68003 23.01 6.66517C23.107 6.65032 23.2001 6.61631 23.2839 6.56512C23.3676 6.51394 23.4404 6.4466 23.4979 6.36703C23.5554 6.28746 23.5964 6.19724 23.6187 6.10164C23.6425 6.00641 23.6471 5.90739 23.6322 5.81036C23.6174 5.71333 23.5834 5.62022 23.5322 5.53646C23.481 5.4527 23.4137 5.37996 23.3341 5.32248C23.2545 5.265 23.1643 5.22392 23.0687 5.20164C22.3365 4.99368 21.568 4.94588 20.8157 5.06149C20.0633 5.17711 19.3447 5.45342 18.7087 5.87164C18.2475 6.18331 17.8581 6.58986 17.5667 7.06411C17.2752 7.53836 17.0884 8.06938 17.0187 8.62164C16.7787 10.6216 18.2087 12.0416 19.8187 12.8616C18.7927 13.595 17.9394 14.5438 17.3187 15.6416C16.8579 16.4553 16.5766 17.3582 16.4938 18.2897C16.411 19.2211 16.5286 20.1594 16.8387 21.0416C17.7587 23.6016 20.4887 25.0416 24.0187 25.0416C25.5297 25.0315 27.0315 24.8059 28.4787 24.3716C28.5778 24.3487 28.6711 24.3056 28.7528 24.245C28.8345 24.1843 28.9029 24.1075 28.9535 24.0193C29.0042 23.9311 29.0361 23.8334 29.0474 23.7323C29.0586 23.6312 29.0488 23.5288 29.0187 23.4316Z" fill="black"/>
<path d="M11.2287 15.6116L7.75871 19.0816L4.29871 15.6116C4.23005 15.538 4.14725 15.4789 4.05525 15.4379C3.96325 15.3969 3.86393 15.3748 3.76323 15.3731C3.66253 15.3713 3.5625 15.3898 3.46911 15.4275C3.37572 15.4652 3.29089 15.5214 3.21967 15.5926C3.14845 15.6638 3.09231 15.7487 3.05459 15.842C3.01686 15.9354 2.99834 16.0355 3.00012 16.1362C3.00189 16.2369 3.02394 16.3362 3.06493 16.4282C3.10592 16.5202 3.16502 16.603 3.23871 16.6716L7.23871 20.6716C7.38155 20.8088 7.57071 20.8873 7.76871 20.8916C7.96755 20.8915 8.15819 20.8123 8.29871 20.6716L12.2987 16.6716C12.3724 16.603 12.4315 16.5202 12.4725 16.4282C12.5135 16.3362 12.5355 16.2369 12.5373 16.1362C12.5391 16.0355 12.5206 15.9354 12.4828 15.842C12.4451 15.7487 12.389 15.6638 12.3177 15.5926C12.2465 15.5214 12.1617 15.4652 12.0683 15.4275C11.9749 15.3898 11.8749 15.3713 11.7742 15.3731C11.6735 15.3748 11.5742 15.3969 11.4822 15.4379C11.3902 15.4789 11.3074 15.538 11.2387 15.6116H11.2287Z" fill="black"/>
<path d="M11.2287 21.7116L7.75871 25.1816L4.29871 21.7116C4.15653 21.5792 3.96849 21.507 3.77419 21.5105C3.57988 21.5139 3.3945 21.5926 3.25709 21.73C3.11967 21.8674 3.04096 22.0528 3.03753 22.2471C3.03411 22.4414 3.10623 22.6295 3.23871 22.7716L7.23871 26.7716C7.38043 26.9105 7.57029 26.9893 7.76871 26.9916C7.96755 26.9915 8.15819 26.9123 8.29871 26.7716L12.2987 22.7716C12.4312 22.6295 12.5033 22.4414 12.4999 22.2471C12.4965 22.0528 12.4177 21.8674 12.2803 21.73C12.1429 21.5926 11.9575 21.5139 11.7632 21.5105C11.5689 21.507 11.3809 21.5792 11.2387 21.7116H11.2287Z" fill="black"/>
</svg>
