<svg width="32" height="32" viewBox="0 0 32 32" fill="none" xmlns="http://www.w3.org/2000/svg">
<path d="M28.6924 21.68L25.2352 25.15L21.768 21.68C21.626 21.5475 21.4381 21.4754 21.2439 21.4788C21.0498 21.4823 20.8646 21.561 20.7273 21.6984C20.59 21.8358 20.5113 22.0212 20.5079 22.2155C20.5045 22.4098 20.5765 22.5978 20.7089 22.74L24.7056 26.74C24.846 26.8807 25.0365 26.9598 25.2352 26.96C25.4334 26.9577 25.6232 26.8789 25.7648 26.74L29.7615 22.74C29.8939 22.5978 29.9659 22.4098 29.9625 22.2155C29.9591 22.0212 29.8804 21.8358 29.7431 21.6984C29.6058 21.561 29.4206 21.4823 29.2264 21.4788C29.0323 21.4754 28.8444 21.5475 28.7024 21.68H28.6924Z" fill="black"/>
<path d="M24.7056 20.63C24.7737 20.7015 24.856 20.758 24.9472 20.7959C25.0384 20.8338 25.1365 20.8522 25.2352 20.85C25.3337 20.8505 25.4312 20.8312 25.5222 20.7935C25.6131 20.7557 25.6956 20.7001 25.7648 20.63L29.7615 16.63C29.8351 16.5613 29.8942 16.4785 29.9351 16.3865C29.9761 16.2945 29.9981 16.1952 29.9999 16.0945C30.0017 15.9938 29.9832 15.8938 29.9455 15.8004C29.9078 15.707 29.8517 15.6222 29.7805 15.551C29.7094 15.4797 29.6246 15.4236 29.5313 15.3859C29.438 15.3482 29.338 15.3296 29.2374 15.3314C29.1368 15.3332 29.0375 15.3552 28.9456 15.3962C28.8537 15.4372 28.771 15.4963 28.7024 15.57L25.2352 19L21.768 15.58C21.6994 15.5063 21.6167 15.4472 21.5248 15.4062C21.4328 15.3652 21.3336 15.3432 21.233 15.3414C21.1324 15.3396 21.0324 15.3582 20.9391 15.3959C20.8458 15.4336 20.761 15.4897 20.6899 15.561C20.6187 15.6322 20.5626 15.717 20.5249 15.8104C20.4872 15.9038 20.4687 16.0038 20.4705 16.1045C20.4723 16.2052 20.4943 16.3045 20.5353 16.3965C20.5762 16.4885 20.6353 16.5713 20.7089 16.64L24.7056 20.63Z" fill="black"/>
<path d="M17.2217 13.31H14.8837V6.75C14.8837 6.55109 14.8047 6.36032 14.6642 6.21967C14.5236 6.07902 14.333 6 14.1343 6C13.9355 6 13.7449 6.07902 13.6044 6.21967C13.4638 6.36032 13.3849 6.55109 13.3849 6.75V23.16C13.3849 23.3589 13.4638 23.5497 13.6044 23.6903C13.7449 23.831 13.9355 23.91 14.1343 23.91C14.333 23.91 14.5236 23.831 14.6642 23.6903C14.8047 23.5497 14.8837 23.3589 14.8837 23.16V14.81H17.2217C17.4205 14.81 17.6111 14.731 17.7516 14.5903C17.8922 14.4497 17.9711 14.2589 17.9711 14.06C17.9711 13.8611 17.8922 13.6703 17.7516 13.5297C17.6111 13.389 17.4205 13.31 17.2217 13.31Z" fill="black"/>
<path d="M9.67792 8H2.91345C2.7147 8 2.52409 8.07902 2.38355 8.21967C2.24301 8.36032 2.16406 8.55109 2.16406 8.75C2.16406 8.94891 2.24301 9.13968 2.38355 9.28033C2.52409 9.42098 2.7147 9.5 2.91345 9.5H8.90855C8.70871 12.34 7.33983 16 2.38388 18.75C2.2139 18.845 2.08756 19.0026 2.03161 19.1892C1.97566 19.3759 1.99449 19.577 2.08413 19.75C2.14965 19.8677 2.24525 19.9658 2.36112 20.0343C2.477 20.1028 2.60899 20.1393 2.74359 20.14C2.87047 20.1409 2.99507 20.1063 3.10329 20.04C9.47808 16.52 10.4273 11.47 10.4273 8.78C10.4328 8.67866 10.4174 8.57728 10.3821 8.48215C10.3468 8.38701 10.2923 8.30017 10.222 8.22702C10.1517 8.15386 10.0671 8.09596 9.97353 8.0569C9.87993 8.01785 9.77931 7.99848 9.67792 8Z" fill="black"/>
</svg>
