<svg width="32" height="32" viewBox="0 0 32 32" fill="none" xmlns="http://www.w3.org/2000/svg">
<path d="M3.21879 8.91061C3.31968 8.91465 3.42034 8.89825 3.51473 8.86239C3.60913 8.82653 3.6953 8.77196 3.76808 8.70194C3.84086 8.63193 3.89875 8.54792 3.93826 8.45496C3.97778 8.362 3.9981 8.26201 3.99802 8.16099V6.49185H16.116V8.16099C16.116 8.35981 16.195 8.55047 16.3355 8.69105C16.476 8.83163 16.6666 8.91061 16.8653 8.91061C17.064 8.91061 17.2546 8.83163 17.3951 8.69105C17.5356 8.55047 17.6145 8.35981 17.6145 8.16099V5.74223C17.6068 5.54867 17.5244 5.36562 17.3848 5.23146C17.2451 5.0973 17.0589 5.02245 16.8653 5.0226H14.9871C15.3909 4.46049 15.7579 3.87291 16.0861 3.26351C16.1373 3.17657 16.1705 3.08018 16.1836 2.98011C16.1967 2.88003 16.1895 2.77834 16.1624 2.68113C16.1353 2.58391 16.0888 2.49318 16.0258 2.41437C15.9628 2.33555 15.8845 2.27028 15.7956 2.22247C15.7068 2.17466 15.6092 2.1453 15.5087 2.13613C15.4083 2.12697 15.307 2.13819 15.211 2.16914C15.1149 2.20009 15.0262 2.25011 14.9499 2.31622C14.8737 2.38233 14.8116 2.46317 14.7674 2.55387C14.3015 3.43198 13.7457 4.25933 13.109 5.0226H11.2209C11.2606 4.8821 11.2606 4.73333 11.2209 4.59282C10.9671 3.81114 10.6074 3.06793 10.1519 2.38396C10.1028 2.29594 10.0364 2.21876 9.95671 2.15701C9.87705 2.09527 9.78575 2.05024 9.68829 2.02461C9.59082 1.99899 9.48919 1.9933 9.38948 2.00788C9.28977 2.02247 9.19402 2.05702 9.10797 2.10949C9.02191 2.16195 8.94732 2.23124 8.88866 2.31322C8.82999 2.39519 8.78846 2.48817 8.76654 2.58657C8.74462 2.68498 8.74277 2.7868 8.76109 2.88594C8.77942 2.98508 8.81755 3.0795 8.87319 3.16356C9.2444 3.71693 9.55901 4.30626 9.81226 4.92265V4.99262H6.73531C6.80003 4.82542 6.80003 4.64008 6.73531 4.47289C6.38395 3.76527 5.93685 3.10945 5.40663 2.52388C5.34622 2.44628 5.27094 2.38151 5.18521 2.33337C5.09947 2.28523 5.005 2.25468 4.90732 2.24351C4.80964 2.23234 4.71072 2.24078 4.61634 2.26833C4.52196 2.29588 4.43402 2.34198 4.35767 2.40395C4.21528 2.52464 4.12378 2.69475 4.10155 2.88014C4.07931 3.06552 4.12798 3.25246 4.23778 3.40343C4.65398 3.90752 5.0219 4.44963 5.3367 5.0226H3.21879C3.12003 5.02126 3.02199 5.03973 2.93048 5.07693C2.83897 5.11412 2.75584 5.16929 2.68599 5.23917C2.61615 5.30904 2.56101 5.39222 2.52383 5.48377C2.48665 5.57533 2.46819 5.67341 2.46954 5.77222V8.16099C2.46819 8.25981 2.48665 8.35789 2.52383 8.44944C2.56101 8.541 2.61615 8.62417 2.68599 8.69405C2.75584 8.76393 2.83897 8.81909 2.93048 8.85629C3.02199 8.89348 3.12003 8.91195 3.21879 8.91061Z" fill="black"/>
<path d="M29.273 11.0195C28.8757 10.6143 28.3451 10.3668 27.7795 10.3227C27.2138 10.2786 26.6513 10.4409 26.196 10.7797L25.8664 11.0195C22.2943 13.6355 19.1441 16.7838 16.5256 20.3547L15.5266 21.714C15.3619 21.6826 15.1948 21.6659 15.0271 21.6641C14.1045 21.6603 13.216 22.0124 12.5462 22.6472C11.8765 23.2819 11.4769 24.1505 11.4307 25.0723C11.2908 26.3617 9.74233 27.661 9.16291 28.0708C9.04713 28.1464 8.95486 28.253 8.89658 28.3784C8.83831 28.5039 8.81636 28.6431 8.83323 28.7804C8.84932 28.9176 8.90246 29.0477 8.98695 29.1569C9.07144 29.2661 9.18408 29.3502 9.31276 29.4001C10.329 29.7826 11.4039 29.9855 12.4896 29.9998C14.2717 30.0136 15.9875 29.3241 17.2649 28.0808C17.3737 28.005 17.4742 27.9179 17.5646 27.8209C17.9002 27.4889 18.1667 27.0936 18.3484 26.6578C18.5302 26.222 18.6237 25.7544 18.6235 25.2822C18.6334 25.1124 18.6334 24.9422 18.6235 24.7725L19.9722 23.773C23.5445 21.1534 26.6946 18.0018 29.313 14.4278L29.5527 14.0979C29.8863 13.6378 30.0418 13.0723 29.9904 12.5062C29.9389 11.9401 29.684 11.4119 29.273 11.0195ZM16.5156 26.7515L16.3158 26.9314C15.6453 27.5859 14.8198 28.0595 13.9164 28.3077C13.0131 28.556 12.0615 28.5707 11.1509 28.3506C12.0817 27.5278 12.7082 26.4151 12.9292 25.1923C12.9534 24.6598 13.1783 24.1563 13.5586 23.783C13.7498 23.585 13.9798 23.4286 14.2342 23.3237C14.4886 23.2188 14.762 23.1676 15.0371 23.1733C15.5919 23.1785 16.1225 23.4013 16.5148 23.7938C16.9071 24.1863 17.1298 24.7172 17.135 25.2722C17.1354 25.5476 17.0808 25.8203 16.9744 26.0743C16.8681 26.3283 16.7121 26.5585 16.5156 26.7515ZM19.0431 22.5636L18.1041 23.2533L17.0451 22.1938L17.7344 21.2543C17.9542 20.9544 18.204 20.6646 18.4337 20.3647L19.9322 21.864C19.6325 22.0939 19.3528 22.3437 19.0431 22.5636ZM28.304 13.2184L28.0642 13.5482C26.0435 16.2839 23.695 18.7612 21.0711 20.9244L19.3328 19.1853C21.4999 16.5647 23.9754 14.2156 26.7055 12.1889L27.0452 11.9391C27.2123 11.8146 27.4189 11.7551 27.6266 11.7716C27.8342 11.7882 28.0288 11.8796 28.1741 12.029C28.3438 12.173 28.4518 12.3765 28.476 12.5978C28.5001 12.8191 28.4386 13.0412 28.304 13.2184Z" fill="black"/>
<path d="M10.7913 16.7266V13.4583H17.3348C17.5335 13.4583 17.7241 13.3793 17.8646 13.2387C18.0051 13.0981 18.0841 12.9075 18.0841 12.7087C18.0841 12.5099 18.0051 12.3192 17.8646 12.1786C17.7241 12.038 17.5335 11.959 17.3348 11.959H10.7913V11.6792C12.3169 11.0251 13.714 10.1045 14.9172 8.96058C15.0474 8.8111 15.114 8.6166 15.1028 8.41865C15.0916 8.22069 15.0035 8.03496 14.8573 7.90113C14.7155 7.76314 14.5256 7.68594 14.3278 7.68594C14.13 7.68594 13.9401 7.76314 13.7983 7.90113C13.7983 7.90113 13.7983 7.90113 13.7484 7.9511H5.75628C5.55757 7.9511 5.36699 8.03008 5.22648 8.17066C5.08596 8.31124 5.00702 8.50191 5.00702 8.70072C5.00702 8.89953 5.08596 9.0902 5.22648 9.23078C5.36699 9.37136 5.55757 9.45033 5.75628 9.45033H11.7503C11.1043 9.82199 10.4371 10.1557 9.75232 10.4498C9.62172 10.5091 9.51088 10.6047 9.43296 10.7252C9.35504 10.8457 9.31332 10.986 9.31276 11.1295V11.8891H2.74926C2.55054 11.8891 2.35997 11.9681 2.21945 12.1086C2.07894 12.2492 2 12.4399 2 12.6387C2 12.8375 2.07894 13.0282 2.21945 13.1688C2.35997 13.3093 2.55054 13.3883 2.74926 13.3883H9.29278V16.6566C9.29278 16.7666 9.29278 16.8266 9.29278 16.8365C9.17022 16.8545 9.04571 16.8545 8.92315 16.8365C8.34372 16.8365 6.43561 16.8365 6.43561 16.8365V18.3358H8.99308C10.4716 18.3957 10.7913 17.4862 10.7913 16.7266Z" fill="black"/>
</svg>
