<svg width="32" height="32" viewBox="0 0 32 32" fill="none" xmlns="http://www.w3.org/2000/svg">
<path d="M12.0021 19C12.0189 19.1037 12.0572 19.2028 12.1145 19.2907C12.1719 19.3786 12.2471 19.4535 12.3351 19.5105C12.4232 19.5674 12.5222 19.6052 12.6258 19.6213C12.7294 19.6375 12.8352 19.6316 12.9364 19.6042C13.0375 19.5767 13.1318 19.5282 13.2131 19.4619C13.2944 19.3956 13.3609 19.3129 13.4082 19.2191C13.4556 19.1254 13.4828 19.0227 13.488 18.9178C13.4933 18.8129 13.4765 18.708 13.4387 18.61L9.16889 2.56C9.12526 2.39969 9.03043 2.25813 8.8989 2.15699C8.76737 2.05585 8.60639 2.0007 8.44062 2C8.27613 2.00122 8.11663 2.05674 7.98678 2.15797C7.85694 2.25919 7.76399 2.40049 7.72233 2.56L2.02588 23.67C2.00023 23.7652 1.99356 23.8646 2.00626 23.9624C2.01896 24.0601 2.05078 24.1545 2.09989 24.2399C2.149 24.3254 2.21444 24.4003 2.29247 24.4604C2.3705 24.5204 2.45958 24.5645 2.55462 24.59C2.61744 24.5996 2.68135 24.5996 2.74417 24.59C2.9091 24.5905 3.06944 24.5356 3.19963 24.4341C3.32981 24.3326 3.42234 24.1904 3.46246 24.03L5.70712 15.69H11.1542L12.0021 19ZM6.1361 14.22L8.44062 5.64L10.7451 14.22H6.1361Z" fill="black"/>
<path d="M29.2611 11C28.862 10.598 28.3318 10.3534 27.7675 10.3112C27.2032 10.269 26.6427 10.4318 26.1884 10.77L25.8592 11C22.2895 13.6181 19.1433 16.7718 16.5314 20.35L15.5337 21.73C15.0441 21.6537 14.5439 21.6815 14.0657 21.8116C13.5874 21.9418 13.1419 22.1714 12.758 22.4855C12.3741 22.7995 12.0604 23.1911 11.8374 23.6346C11.6144 24.0782 11.4869 24.5638 11.4634 25.06C11.3238 26.35 9.77744 27.65 9.19882 28.06C9.08402 28.1365 8.99254 28.2432 8.93444 28.3685C8.87635 28.4938 8.85391 28.6327 8.8696 28.77C8.88566 28.9072 8.93873 29.0374 9.0231 29.1467C9.10748 29.2559 9.21996 29.34 9.34846 29.39C10.3614 29.7806 11.4357 29.9871 12.5209 30C14.2997 30.0095 16.0115 29.3203 17.2896 28.08C17.3961 27.9979 17.4962 27.9076 17.5889 27.81C17.9249 27.4785 18.1916 27.0831 18.3732 26.6469C18.5548 26.2107 18.6476 25.7426 18.6463 25.27C18.6567 25.1035 18.6567 24.9365 18.6463 24.77L19.9931 23.77C23.5582 21.1465 26.7036 17.9936 29.321 14.42L29.5604 14.09C29.8917 13.6258 30.044 13.0569 29.989 12.4887C29.9339 11.9206 29.6754 11.3917 29.2611 11ZM16.5214 26.75C16.461 26.8165 16.3942 26.8768 16.3219 26.93C15.6512 27.5835 14.8271 28.0571 13.9257 28.307C13.0242 28.5569 12.0745 28.5752 11.1641 28.36C12.0936 27.5367 12.7192 26.4235 12.9399 25.2C12.9577 24.7921 13.0931 24.3981 13.3298 24.0658C13.5665 23.7335 13.8943 23.4772 14.2734 23.328C14.6525 23.1787 15.0667 23.1429 15.4657 23.2249C15.8647 23.3069 16.2315 23.5032 16.5214 23.79C16.723 23.9841 16.8833 24.217 16.9929 24.4748C17.1024 24.7325 17.1589 25.0098 17.1589 25.29C17.1589 25.5702 17.1024 25.8475 16.9929 26.1052C16.8833 26.363 16.723 26.5959 16.5214 26.79V26.75ZM19.0454 22.57L18.1076 23.26L17.0501 22.19L17.7385 21.25C17.958 20.95 18.2074 20.66 18.4468 20.36L19.9832 21.86C19.634 22.09 19.3547 22.34 19.0454 22.57ZM28.2934 13.21L28.054 13.54C26.0361 16.2771 23.6908 18.7556 21.0706 20.92L19.3347 19.18C21.5018 16.5756 23.9737 14.2422 26.6972 12.23L27.0364 11.99C27.2012 11.8621 27.4073 11.7996 27.6153 11.8143C27.8232 11.8291 28.0185 11.9201 28.1637 12.07C28.3196 12.2119 28.4187 12.4058 28.4426 12.6155C28.4665 12.8253 28.4134 13.0366 28.2934 13.21Z" fill="black"/>
</svg>
