<svg width="32" height="32" viewBox="0 0 32 32" fill="none" xmlns="http://www.w3.org/2000/svg">
<path d="M3.23917 13.1031C3.33844 13.1045 3.43697 13.086 3.52906 13.0489C3.62115 13.0118 3.70496 12.9568 3.77562 12.887C3.84628 12.8173 3.90238 12.7341 3.94067 12.6425C3.97896 12.5508 3.99867 12.4525 3.99866 12.3531V10.5731H16.7202V12.3531C16.7202 12.552 16.7991 12.7428 16.9397 12.8835C17.0802 13.0241 17.2709 13.1031 17.4697 13.1031C17.6684 13.1031 17.8591 13.0241 17.9996 12.8835C18.1402 12.7428 18.2192 12.552 18.2192 12.3531V9.82313C18.2192 9.62422 18.1402 9.43345 17.9996 9.2928C17.8591 9.15215 17.6684 9.07313 17.4697 9.07313H15.471C15.8992 8.48166 16.2897 7.86377 16.6402 7.22313C16.7343 7.04676 16.7545 6.84022 16.6964 6.64893C16.6383 6.45764 16.5067 6.29728 16.3304 6.20313C16.1542 6.10898 15.9478 6.08875 15.7566 6.14688C15.5654 6.20502 15.4052 6.33676 15.3111 6.51313C14.8213 7.42418 14.2386 8.28208 13.5723 9.07313H11.5736C11.6438 8.93062 11.6648 8.76888 11.6336 8.61313C11.3487 7.80301 10.9481 7.03842 10.4444 6.34313C10.3397 6.18342 10.1787 6.06902 9.99352 6.02269C9.80834 5.97637 9.61251 6.00151 9.44503 6.09313C9.28524 6.19785 9.17143 6.35966 9.12686 6.54552C9.08228 6.73138 9.1103 6.92725 9.20519 7.09313C9.59036 7.68462 9.90559 8.31887 10.1446 8.98313C10.1446 8.98313 10.1446 9.05313 10.1446 9.09313H6.86675C6.90386 9.0062 6.92299 8.91266 6.92299 8.81813C6.92299 8.7236 6.90386 8.63006 6.86675 8.54313C6.50949 7.79544 6.04858 7.10194 5.49766 6.48313C5.37433 6.34413 5.20381 6.25592 5.01916 6.2356C4.83452 6.21527 4.64891 6.26429 4.49833 6.37313C4.35589 6.49389 4.26437 6.66409 4.24213 6.84957C4.21989 7.03505 4.26857 7.22208 4.37841 7.37313C4.79899 7.89782 5.17031 8.4602 5.48767 9.05313H3.23917C3.0412 9.05572 2.85206 9.13557 2.71206 9.27567C2.57206 9.41576 2.49226 9.60502 2.48967 9.80313V12.3531C2.48967 12.552 2.56864 12.7428 2.7092 12.8835C2.84975 13.0241 3.04039 13.1031 3.23917 13.1031Z" fill="black"/>
<path d="M25.7741 20.6631C25.6311 20.5274 25.4416 20.4517 25.2445 20.4517C25.0474 20.4517 24.8578 20.5274 24.7148 20.6631L20.7175 24.6631C20.5771 24.8038 20.4983 24.9944 20.4983 25.1931C20.4983 25.3919 20.5771 25.5825 20.7175 25.7231C20.7867 25.7932 20.8692 25.8488 20.9601 25.8866C21.0511 25.9244 21.1487 25.9436 21.2471 25.9431C21.3457 25.9442 21.4434 25.9252 21.5345 25.8874C21.6255 25.8496 21.7079 25.7937 21.7768 25.7231L25.2445 22.2631L28.7022 25.7231C28.7708 25.7968 28.8535 25.8559 28.9455 25.8969C29.0374 25.9379 29.1366 25.9599 29.2373 25.9617C29.3379 25.9635 29.4379 25.945 29.5312 25.9073C29.6245 25.8695 29.7093 25.8134 29.7805 25.7422C29.8516 25.671 29.9078 25.5861 29.9455 25.4927C29.9831 25.3993 30.0017 25.2993 29.9999 25.1986C29.9981 25.0979 29.9761 24.9986 29.9351 24.9066C29.8942 24.8146 29.8351 24.7318 29.7615 24.6631L25.7741 20.6631Z" fill="black"/>
<path d="M21.2471 19.8431C21.4454 19.8408 21.6352 19.762 21.7768 19.6231L25.2445 16.1531L28.7022 19.6231C28.8442 19.7556 29.0322 19.8277 29.2263 19.8243C29.4205 19.8209 29.6058 19.7422 29.7431 19.6048C29.8804 19.4673 29.9591 19.282 29.9625 19.0877C29.9659 18.8934 29.8938 18.7053 29.7615 18.5631L25.7641 14.5631C25.6211 14.4274 25.4316 14.3517 25.2345 14.3517C25.0374 14.3517 24.8478 14.4274 24.7048 14.5631L20.7075 18.5631C20.5671 18.7038 20.4883 18.8944 20.4883 19.0931C20.4883 19.2919 20.5671 19.4825 20.7075 19.6231C20.8528 19.7626 21.0458 19.8413 21.2471 19.8431Z" fill="black"/>
<path d="M17.9893 16.3431H11.1039V15.9831C12.7017 15.3091 14.1618 14.3464 15.411 13.1431C15.5234 12.9933 15.5757 12.8068 15.5577 12.6204C15.5396 12.4339 15.4524 12.261 15.3133 12.1356C15.1742 12.0102 14.9933 11.9415 14.8061 11.9429C14.6189 11.9442 14.439 12.0157 14.3018 12.1431L14.2418 12.2031H5.84743C5.64865 12.2031 5.45801 12.2821 5.31745 12.4228C5.1769 12.5635 5.09793 12.7542 5.09793 12.9531C5.09793 13.152 5.1769 13.3428 5.31745 13.4835C5.45801 13.6241 5.64865 13.7031 5.84743 13.7031H12.1932C11.4999 14.1249 10.7825 14.5055 10.0446 14.8431C9.91398 14.9025 9.8031 14.9981 9.72516 15.1186C9.64721 15.2392 9.60548 15.3796 9.60492 15.5231V16.3431H2.7495C2.55072 16.3431 2.36008 16.4221 2.21952 16.5628C2.07896 16.7035 2 16.8942 2 17.0931C2 17.292 2.07896 17.4828 2.21952 17.6235C2.36008 17.7641 2.55072 17.8431 2.7495 17.8431H9.60492V21.2831C9.61476 21.3528 9.61476 21.4235 9.60492 21.4931C9.60492 21.4931 9.49499 21.5431 9.20519 21.5531C8.59559 21.5531 6.60692 21.5531 6.59693 21.5531V23.0531H9.23517C10.7841 23.0031 11.1039 22.0531 11.1039 21.2831V17.8431H17.9893C18.1881 17.8431 18.3787 17.7641 18.5193 17.6235C18.6599 17.4828 18.7388 17.292 18.7388 17.0931C18.7388 16.8942 18.6599 16.7035 18.5193 16.5628C18.3787 16.4221 18.1881 16.3431 17.9893 16.3431Z" fill="black"/>
</svg>
