<svg width="32" height="32" viewBox="0 0 32 32" fill="none" xmlns="http://www.w3.org/2000/svg">
<path d="M29.2491 28.5204H20.9594L28.308 20.2526C28.7897 19.7064 29.0358 18.9923 28.9926 18.2658C28.9495 17.5393 28.6207 16.8592 28.0778 16.3736L24.7439 13.3744C24.4742 13.1338 24.1595 12.9488 23.818 12.8301C23.4764 12.7113 23.1147 12.6612 22.7537 12.6826C22.3927 12.7039 22.0394 12.7964 21.7143 12.9546C21.3892 13.1128 21.0986 13.3336 20.8593 13.6044L12.2693 23.2618C12.0257 23.5318 11.8391 23.8479 11.7204 24.1914C11.6017 24.5349 11.5534 24.8988 11.5785 25.2613C11.6004 25.626 11.6949 25.9828 11.8565 26.3106C12.0181 26.6385 12.2435 26.9309 12.5196 27.1708L15.6532 29.82C15.7873 29.9345 15.9574 29.9982 16.1338 30H29.2491C29.4483 30 29.6393 29.921 29.7801 29.7804C29.9209 29.6398 30 29.4491 30 29.2502C30 29.0513 29.9209 28.8606 29.7801 28.72C29.6393 28.5794 29.4483 28.5004 29.2491 28.5004V28.5204ZM22.0207 14.6341C22.1293 14.5116 22.2615 14.4122 22.4094 14.3418C22.5574 14.2714 22.718 14.2314 22.8817 14.2242C23.0449 14.2141 23.2085 14.2362 23.3632 14.2894C23.5178 14.3426 23.6604 14.4258 23.7827 14.5341L27.1166 17.5333C27.3642 17.7525 27.5147 18.0607 27.5354 18.3904C27.556 18.7201 27.445 19.0446 27.2268 19.2929L23.8328 23.0119L18.6267 18.3931L22.0207 14.6341ZM19.0172 28.5204H16.4141L13.5007 26.0611C13.2525 25.8401 13.1017 25.5303 13.0811 25.1989C13.0605 24.8675 13.1717 24.5414 13.3906 24.2915L17.6255 19.5328L22.8316 24.1516L19.0172 28.5204Z" fill="black"/>
<path d="M13.3305 18.5331C13.2746 18.3418 13.1456 18.1802 12.9715 18.0829C12.7973 17.9857 12.5919 17.9606 12.3994 18.0132C8.83525 19.0129 4.72044 18.663 3.7493 15.9538C3.54241 15.3547 3.46576 14.7185 3.52446 14.0876C3.58315 13.4567 3.77585 12.8455 4.0897 12.2947C5.09087 10.5252 7.09321 9.19557 9.8164 8.55574C9.91301 8.53458 10.0044 8.49433 10.0852 8.43734C10.166 8.38036 10.2345 8.3078 10.2868 8.22394C10.339 8.14008 10.3739 8.04662 10.3894 7.94908C10.4049 7.85153 10.4007 7.75187 10.3771 7.65598C10.3318 7.46249 10.2115 7.29484 10.0425 7.18987C9.87359 7.0849 9.66983 7.05118 9.476 7.09613C8.4346 7.33746 7.42614 7.70334 6.47249 8.18584C5.43127 7.83593 3.81939 6.89618 3.9996 5.51655C4.03791 5.21568 4.13984 4.92638 4.29864 4.66784C4.45744 4.4093 4.66947 4.18743 4.92067 4.01695C5.32599 3.7614 5.78132 3.59531 6.25616 3.52979C6.73099 3.46427 7.21437 3.50084 7.67389 3.63705C7.76924 3.66083 7.86837 3.66543 7.96552 3.65058C8.06266 3.63573 8.15588 3.60173 8.23974 3.55056C8.3236 3.49938 8.39642 3.43206 8.45397 3.35251C8.51152 3.27296 8.55264 3.18277 8.57495 3.0872C8.59851 2.99062 8.60234 2.89028 8.5862 2.79218C8.57007 2.69409 8.5343 2.60025 8.48103 2.51626C8.42776 2.43228 8.35809 2.35988 8.27618 2.30338C8.19427 2.24689 8.10179 2.20745 8.00428 2.18744C7.33215 1.9952 6.62637 1.95017 5.93521 2.05542C5.24404 2.16067 4.58379 2.41372 3.9996 2.79728C3.58086 3.09074 3.22948 3.46984 2.96883 3.90939C2.70817 4.34895 2.5442 4.83887 2.48783 5.3466C2.27758 7.09613 3.489 8.34579 4.92067 9.14558C4.04118 9.79641 3.30793 10.624 2.76816 11.5749C2.35126 12.3101 2.0971 13.126 2.02284 13.9676C1.94857 14.8092 2.05593 15.657 2.33765 16.4536C3.16863 18.763 5.63151 20.0127 8.82524 20.0127C10.1818 20.0029 11.5302 19.801 12.8299 19.4128C13.0097 19.3571 13.1614 19.2352 13.2544 19.0718C13.3474 18.9084 13.3746 18.7158 13.3305 18.5331Z" fill="black"/>
</svg>
