<svg width="32" height="32" viewBox="0 0 32 32" fill="none" xmlns="http://www.w3.org/2000/svg">
<path d="M8.27934 15.6116C8.13627 15.4759 7.94656 15.4002 7.74934 15.4002C7.55211 15.4002 7.36241 15.4759 7.21934 15.6116L3.21934 19.6116C3.07889 19.7523 3 19.9429 3 20.1416C3 20.3404 3.07889 20.531 3.21934 20.6716C3.36219 20.8088 3.55134 20.8873 3.74934 20.8916C3.94734 20.8873 4.13649 20.8088 4.27934 20.6716L7.73934 17.2016L11.2093 20.6716C11.3515 20.8041 11.5396 20.8762 11.7339 20.8728C11.9282 20.8694 12.1135 20.7907 12.251 20.6533C12.3884 20.5159 12.4671 20.3305 12.4705 20.1362C12.4739 19.9419 12.4018 19.7538 12.2693 19.6116L8.27934 15.6116Z" fill="black"/>
<path d="M8.27934 21.7116C8.13627 21.5759 7.94656 21.5002 7.74934 21.5002C7.55211 21.5002 7.36241 21.5759 7.21934 21.7116L3.21934 25.7116C3.07889 25.8523 3 26.0429 3 26.2416C3 26.4404 3.07889 26.631 3.21934 26.7716C3.35997 26.9121 3.55059 26.991 3.74934 26.991C3.94809 26.991 4.13871 26.9121 4.27934 26.7716L7.73934 23.3016L11.2093 26.7716C11.278 26.8453 11.3608 26.9044 11.4528 26.9454C11.5448 26.9864 11.6441 27.0085 11.7448 27.0102C11.8455 27.012 11.9455 26.9935 12.0389 26.9558C12.1323 26.918 12.2172 26.8619 12.2884 26.7907C12.3596 26.7195 12.4157 26.6346 12.4535 26.5412C12.4912 26.4479 12.5097 26.3478 12.5079 26.2471C12.5062 26.1464 12.4841 26.0471 12.4431 25.9551C12.4021 25.8631 12.343 25.7803 12.2693 25.7116L8.27934 21.7116Z" fill="black"/>
<path d="M29.0093 23.4316C28.977 23.3334 28.925 23.2427 28.8565 23.1653C28.7879 23.0878 28.7042 23.0252 28.6106 22.9812C28.517 22.9372 28.4154 22.9127 28.312 22.9094C28.2086 22.906 28.1056 22.9238 28.0093 22.9616C24.0093 24.1316 19.3093 23.6816 18.1993 20.5916C17.964 19.9071 17.877 19.1804 17.9443 18.4597C18.0115 17.7389 18.2314 17.0408 18.5893 16.4116C19.6793 14.4116 21.9893 12.8916 25.0693 12.1716C25.1682 12.1523 25.2621 12.1132 25.3455 12.0567C25.4289 12.0003 25.5001 11.9276 25.5548 11.843C25.6095 11.7585 25.6466 11.6638 25.6639 11.5645C25.6813 11.4653 25.6784 11.3636 25.6556 11.2655C25.6327 11.1674 25.5904 11.075 25.531 10.9936C25.4716 10.9122 25.3965 10.8437 25.31 10.792C25.2236 10.7403 25.1276 10.7065 25.0279 10.6927C24.9281 10.6789 24.8266 10.6854 24.7293 10.7116C23.5442 10.977 22.3981 11.3938 21.3193 11.9516C20.1593 11.5516 18.2693 10.4616 18.4593 8.84164C18.5056 8.49041 18.6269 8.15324 18.815 7.85302C19.003 7.55279 19.2535 7.29654 19.5493 7.10164C20.014 6.80683 20.5361 6.61423 21.0809 6.53665C21.6257 6.45906 22.1808 6.49826 22.7093 6.65164C22.8046 6.67543 22.9036 6.68003 23.0006 6.66517C23.0977 6.65032 23.1908 6.61631 23.2745 6.56512C23.3583 6.51394 23.431 6.4466 23.4885 6.36703C23.546 6.28746 23.5871 6.19724 23.6093 6.10164C23.6331 6.00641 23.6377 5.90739 23.6229 5.81036C23.608 5.71333 23.574 5.62022 23.5228 5.53646C23.4716 5.4527 23.4043 5.37996 23.3247 5.32248C23.2452 5.265 23.1549 5.22392 23.0593 5.20164C22.3271 4.99368 21.5587 4.94588 20.8063 5.06149C20.054 5.17711 19.3353 5.45342 18.6993 5.87164C18.2381 6.18331 17.8488 6.58986 17.5573 7.06411C17.2659 7.53836 17.0791 8.06938 17.0093 8.62164C16.7693 10.6216 18.1993 12.0416 19.8093 12.8616C18.7833 13.595 17.93 14.5438 17.3093 15.6416C16.8485 16.4553 16.5672 17.3582 16.4844 18.2897C16.4016 19.2211 16.5192 20.1594 16.8293 21.0416C17.7493 23.6016 20.4793 25.0416 24.0093 25.0416C25.5203 25.0315 27.0221 24.8059 28.4693 24.3716C28.5685 24.3487 28.6618 24.3056 28.7435 24.245C28.8252 24.1843 28.8935 24.1075 28.9442 24.0193C28.9948 23.9311 29.0268 23.8334 29.038 23.7323C29.0492 23.6312 29.0395 23.5288 29.0093 23.4316Z" fill="black"/>
</svg>
