<svg width="32" height="32" viewBox="0 0 32 32" fill="none" xmlns="http://www.w3.org/2000/svg">
<path d="M8.29871 13.6638C8.15808 13.5233 7.96746 13.4445 7.76871 13.4445C7.56996 13.4445 7.37933 13.5233 7.23871 13.6638L3.23871 17.6638C3.09826 17.8044 3.01937 17.995 3.01937 18.1938C3.01937 18.3925 3.09826 18.5832 3.23871 18.7238C3.30765 18.7946 3.39007 18.8508 3.4811 18.8892C3.57212 18.9276 3.66992 18.9474 3.76871 18.9474C3.8675 18.9474 3.96529 18.9276 4.05632 18.8892C4.14735 18.8508 4.22976 18.7946 4.29871 18.7238L7.76871 15.2538L11.2387 18.7138C11.3793 18.8542 11.57 18.9331 11.7687 18.9331C11.9675 18.9331 12.1581 18.8542 12.2987 18.7138C12.4392 18.5732 12.518 18.3825 12.518 18.1838C12.518 17.985 12.4392 17.7944 12.2987 17.6538L8.29871 13.6638Z" fill="black"/>
<path d="M8.29871 19.7638C8.15808 19.6233 7.96746 19.5445 7.76871 19.5445C7.56996 19.5445 7.37933 19.6233 7.23871 19.7638L3.23871 23.7638C3.16502 23.8325 3.10592 23.9153 3.06493 24.0073C3.02394 24.0993 3.00189 24.1986 3.00012 24.2993C2.99834 24.4 3.01686 24.5 3.05459 24.5934C3.09231 24.6868 3.14845 24.7716 3.21967 24.8428C3.29089 24.9141 3.37572 24.9702 3.46911 25.0079C3.5625 25.0456 3.66253 25.0642 3.76323 25.0624C3.86393 25.0606 3.96325 25.0386 4.05525 24.9976C4.14725 24.9566 4.23005 24.8975 4.29871 24.8238L7.75871 21.3538L11.2287 24.8238C11.3693 24.9642 11.56 25.0431 11.7587 25.0431C11.9575 25.0431 12.1481 24.9642 12.2887 24.8238C12.4292 24.6832 12.508 24.4925 12.508 24.2938C12.508 24.095 12.4292 23.9044 12.2887 23.7638L8.29871 19.7638Z" fill="black"/>
<path d="M28.0287 9.8238V6.8238C28.0287 6.62489 27.9497 6.43412 27.809 6.29347C27.6684 6.15282 27.4776 6.0738 27.2787 6.0738C27.0798 6.0738 26.889 6.15282 26.7484 6.29347C26.6077 6.43412 26.5287 6.62489 26.5287 6.8238V9.8238C26.5812 10.6477 26.4255 11.4716 26.076 12.2196C25.7265 12.9675 25.1944 13.6155 24.5287 14.1038L19.1487 6.3038C19.0365 6.15216 18.8712 6.0484 18.6859 6.01318C18.5005 5.97797 18.3087 6.0139 18.1487 6.1138C17.999 6.22746 17.8967 6.3926 17.8616 6.57729C17.8265 6.76199 17.8611 6.95313 17.9587 7.1138L20.1787 10.3138C19.2811 10.892 18.5516 11.6965 18.0636 12.6462C17.5756 13.5959 17.3462 14.6573 17.3987 15.7238V19.1938C17.3987 19.3927 17.4777 19.5835 17.6184 19.7241C17.759 19.8648 17.9498 19.9438 18.1487 19.9438C18.3476 19.9438 18.5384 19.8648 18.679 19.7241C18.8197 19.5835 18.8987 19.3927 18.8987 19.1938V15.7738C18.8428 14.9496 19.0113 14.1257 19.3864 13.3896C19.7615 12.6536 20.329 12.033 21.0287 11.5938L26.6887 19.7738C26.7445 19.8552 26.8158 19.9248 26.8985 19.9787C26.9813 20.0326 27.0738 20.0696 27.1708 20.0877C27.2679 20.1058 27.3675 20.1047 27.4641 20.0842C27.5607 20.0638 27.6523 20.0246 27.7337 19.9688C27.8151 19.913 27.8848 19.8417 27.9386 19.759C27.9925 19.6762 28.0295 19.5837 28.0476 19.4867C28.0657 19.3896 28.0646 19.29 28.0442 19.1934C28.0237 19.0968 27.9845 19.0052 27.9287 18.9238L25.4087 15.3338C26.2689 14.7054 26.9589 13.8725 27.4163 12.9105C27.8738 11.9485 28.0842 10.8876 28.0287 9.8238Z" fill="black"/>
</svg>
