<svg width="32" height="32" viewBox="0 0 32 32" fill="none" xmlns="http://www.w3.org/2000/svg">
<path fill-rule="evenodd" clip-rule="evenodd" d="M2.75269 2C3.16839 2 3.50538 2.33699 3.50538 2.75269V28.4946H29.2473C29.663 28.4946 30 28.8316 30 29.2473C30 29.663 29.663 30 29.2473 30H2.75269C2.33699 30 2 29.663 2 29.2473V2.75269C2 2.33699 2.33699 2 2.75269 2Z" fill="black"/>
<path fill-rule="evenodd" clip-rule="evenodd" d="M21.0681 8.47312C21.0681 8.05742 21.4051 7.72043 21.8208 7.72043H29.2473C29.663 7.72043 30 8.05742 30 8.47312V16C30 16.4157 29.663 16.7527 29.2473 16.7527C28.8316 16.7527 28.4946 16.4157 28.4946 16V9.22581H21.8208C21.4051 9.22581 21.0681 8.88882 21.0681 8.47312Z" fill="black"/>
<path fill-rule="evenodd" clip-rule="evenodd" d="M29.481 8.34487C29.7735 8.64022 29.7713 9.11679 29.4759 9.40932L18.9383 19.8466C18.6466 20.1355 18.1773 20.1374 17.8833 19.8509L14.5015 16.5558L6.99818 24.0591C6.70424 24.3531 6.22766 24.3531 5.93372 24.0591C5.63978 23.7652 5.63978 23.2886 5.93372 22.9946L13.9624 14.966C14.2536 14.6747 14.7249 14.6717 15.0199 14.9591L18.4043 18.2567L28.4166 8.33978C28.7119 8.04725 29.1885 8.04953 29.481 8.34487Z" fill="black"/>
</svg>
