<svg width="32" height="32" viewBox="0 0 32 32" fill="none" xmlns="http://www.w3.org/2000/svg">
<path fill-rule="evenodd" clip-rule="evenodd" d="M14.3279 6.44363C15.4002 5.80157 16.7387 5.80157 17.8109 6.44363C18.8833 7.08571 19.5156 8.26583 19.4565 9.51472L19.4559 9.52717L19.456 9.53965C19.4644 11.4234 17.9551 12.9621 16.0732 12.9903C14.1884 12.9662 12.6745 11.4263 12.6829 9.53964L12.683 9.52717L12.6824 9.51472C12.6232 8.26583 13.2557 7.08571 14.3279 6.44363ZM18.3052 5.61821C16.9286 4.79393 15.2103 4.79393 13.8337 5.61821C12.4607 6.44034 11.6497 7.94947 11.7209 9.54778C11.7172 11.6714 13.2205 13.4497 15.227 13.8624C14.0019 13.8931 12.7885 14.1114 11.6288 14.5102L11.628 14.5104C9.82016 15.1354 8.45601 16.6397 8.00982 18.5001L8.00595 18.5164L8.0032 18.5327L7.18715 23.3958L7.13046 23.7336L7.43115 23.8977L7.71763 24.054L7.71968 24.0551C10.2866 25.4396 13.1574 26.1637 16.0737 26.1622H16.0734L16.0738 25.6812L16.0741 26.1622H16.0737C18.9868 26.1644 21.8545 25.4406 24.4177 24.0559L24.4195 24.055L24.7112 23.9006L25.0182 23.7379L24.9603 23.3953L24.1356 18.5148L24.1328 18.4987L24.1291 18.4828C23.6835 16.6252 22.3172 15.1257 20.5094 14.5099C19.3503 14.1112 18.1372 13.893 16.9127 13.8623C18.9192 13.4493 20.4218 11.6707 20.4181 9.54777C20.4893 7.94947 19.6782 6.44034 18.3052 5.61821ZM4.88708 9.83274C4.88708 8.63547 5.85732 7.66515 7.05386 7.66515C8.25039 7.66515 9.22063 8.63547 9.22063 9.83274C9.22063 11.03 8.25039 12.0003 7.05386 12.0003C5.85732 12.0003 4.88708 11.03 4.88708 9.83274ZM7.05386 6.70306C5.3257 6.70306 3.925 8.10441 3.925 9.83274C3.925 11.5611 5.3257 12.9624 7.05386 12.9624C8.78202 12.9624 10.1827 11.5611 10.1827 9.83274C10.1827 8.10441 8.78202 6.70306 7.05386 6.70306ZM7.30753 13.4332C6.4872 13.4299 5.67242 13.5682 4.89909 13.842C3.72995 14.2417 2.84857 15.215 2.56608 16.4182L2.56264 16.4329L2.56012 16.4478L2.0566 19.4177L2 19.7516L2.29518 19.9174C3.61286 20.6581 5.03065 21.2042 6.50456 21.539L6.71766 20.6008C5.44385 20.3115 4.2147 19.8539 3.06243 19.2406L3.50604 16.624C3.71655 15.749 4.36029 15.0422 5.21241 14.7516H5.21242L5.21789 14.7497C5.8857 14.513 6.58929 14.3931 7.29779 14.3952C7.73279 14.408 8.41376 14.4667 9.02191 14.5803C9.32819 14.6375 9.60051 14.7059 9.80833 14.7829C10.0104 14.8579 10.0826 14.9165 10.0958 14.9273L10.0981 14.9291C10.0981 14.9291 10.0981 14.929 10.0979 14.9287L10.8855 14.3761C10.7076 14.1226 10.3962 13.9748 10.1428 13.8809C9.86307 13.7772 9.53149 13.6968 9.1986 13.6346C8.53119 13.5099 7.79621 13.447 7.31939 13.4334L7.3194 13.4332L7.30753 13.4332ZM24.6664 13.433V13.4332C25.486 13.4299 26.3 13.5679 27.0728 13.8412C28.2524 14.2329 29.1456 15.2072 29.4335 16.4167L29.4373 16.4321L29.4399 16.4478L29.9434 19.4177L30 19.7516L29.7048 19.9174C28.3872 20.6581 26.9693 21.2042 25.4954 21.539L25.2823 20.6008C26.5561 20.3115 27.7853 19.8539 28.9376 19.2406L28.4941 16.6248C28.2792 15.7449 27.6263 15.0373 26.766 14.7531L26.7561 14.7498V14.7497C26.0883 14.513 25.3847 14.3931 24.6761 14.3952C24.2412 14.408 23.5602 14.4667 22.9521 14.5803C22.6458 14.6375 22.3735 14.7059 22.1656 14.7829C21.9635 14.8579 21.8914 14.9165 21.8782 14.9273C21.8761 14.929 21.8755 14.9294 21.8761 14.9287L21.0884 14.3761C21.2663 14.1226 21.5778 13.9748 21.8312 13.8809C22.1108 13.7772 22.4425 13.6968 22.7754 13.6346C23.4427 13.5099 24.1778 13.447 24.6546 13.4334L24.6664 13.433ZM27.2028 7.63849C26.3122 6.73271 24.9625 6.45536 23.7869 6.93666C22.6127 7.41745 21.8451 8.5599 21.8433 9.8287C21.8306 10.6546 22.1495 11.4513 22.7287 12.0403C23.3079 12.6293 24.099 12.9615 24.9248 12.9624C26.1933 12.9816 27.3479 12.2327 27.8479 11.0663C28.3483 9.89865 28.0935 8.54425 27.2028 7.63849ZM24.1514 7.82701C24.9654 7.49374 25.9001 7.68574 26.5169 8.31303C27.1337 8.94034 27.3103 9.87849 26.9636 10.6873C26.6169 11.496 25.816 12.0148 24.9367 12.0004V12.0003H24.9287C24.3594 12.0004 23.8139 11.7718 23.4147 11.3658C23.0154 10.9597 22.7958 10.4103 22.8054 9.84075V9.8328C22.8056 8.95279 23.3375 8.16028 24.1514 7.82701ZM16.6715 14.8208H15.4759C14.2732 14.8264 13.0794 15.0287 11.9419 15.4198C10.4499 15.9358 9.32268 17.175 8.94919 18.7088L8.19267 23.2171C10.6151 24.5201 13.3229 25.2016 16.0735 25.2001H16.0742C18.825 25.2023 21.5329 24.5194 23.9538 23.213L23.1898 18.6917C22.8172 17.1619 21.6893 15.9279 20.1986 15.4204L20.1973 15.4199C19.0624 15.0295 17.8715 14.8272 16.6715 14.8208Z" fill="black"/>
</svg>
