<svg width="32" height="32" viewBox="0 0 32 32" fill="none" xmlns="http://www.w3.org/2000/svg">
<path fill-rule="evenodd" clip-rule="evenodd" d="M27.1529 24.8429C27.623 24.8429 28 25.2858 28 25.8322L27.9979 25.9033C27.9669 26.4198 27.6004 26.8215 27.1529 26.8215H4.84712C4.37698 26.8215 4 26.3786 4 25.8322C4 25.282 4.37927 24.8429 4.84712 24.8429H27.1529ZM27.1529 15.4214C27.6004 15.4214 27.9669 15.8232 27.9979 16.3397L28 16.4108C28 16.9572 27.623 17.4001 27.1529 17.4001H4.84712C4.37927 17.4001 4 16.961 4 16.4108C4 15.8644 4.37698 15.4214 4.84712 15.4214H27.1529ZM27.1529 6C27.6004 6 27.9669 6.40177 27.9979 6.91822L28 6.98933C28 7.53572 27.623 7.97865 27.1529 7.97865H4.84712C4.37927 7.97865 4 7.53953 4 6.98933C4 6.44294 4.37698 6 4.84712 6H27.1529Z" fill="black"/>
</svg>
