<svg width="32" height="32" viewBox="0 0 32 32" fill="none" xmlns="http://www.w3.org/2000/svg">
<path fill-rule="evenodd" clip-rule="evenodd" d="M14.3002 3.5498C9.90345 3.5498 6.06957 6.16863 4.38693 10.0013C4.22042 10.3806 3.77798 10.553 3.39871 10.3865C3.01944 10.22 2.84696 9.77758 3.01347 9.39831C4.93083 5.03098 9.29695 2.0498 14.3002 2.0498C21.1144 2.0498 26.6502 7.58559 26.6502 14.3998C26.6502 21.214 21.1144 26.7498 14.3002 26.7498C8.65244 26.7498 3.86746 22.9152 2.37906 17.7058C2.26527 17.3076 2.49588 16.8925 2.89416 16.7787C3.29244 16.6649 3.70755 16.8955 3.82134 17.2938C5.13294 21.8844 9.34796 25.2498 14.3002 25.2498C20.286 25.2498 25.1502 20.3856 25.1502 14.3998C25.1502 8.41402 20.286 3.5498 14.3002 3.5498Z" fill="black"/>
<path fill-rule="evenodd" clip-rule="evenodd" d="M2.8002 4.3498C3.21441 4.3498 3.5502 4.68559 3.5502 5.0998V9.3498H7.8002C8.21442 9.3498 8.5502 9.68559 8.5502 10.0998C8.5502 10.514 8.21442 10.8498 7.8002 10.8498H2.8002C2.38599 10.8498 2.0502 10.514 2.0502 10.0998V5.0998C2.0502 4.68559 2.38599 4.3498 2.8002 4.3498Z" fill="black"/>
<path fill-rule="evenodd" clip-rule="evenodd" d="M22.0699 22.0695C22.3628 21.7766 22.8376 21.7766 23.1305 22.0695L29.7305 28.6695C30.0234 28.9624 30.0234 29.4372 29.7305 29.7301C29.4376 30.023 28.9628 30.023 28.6699 29.7301L22.0699 23.1301C21.777 22.8372 21.777 22.3624 22.0699 22.0695Z" fill="black"/>
<path fill-rule="evenodd" clip-rule="evenodd" d="M14.3002 6.8498C14.7144 6.8498 15.0502 7.18559 15.0502 7.5998V13.7849L20.0254 18.6644C20.3211 18.9544 20.3257 19.4292 20.0357 19.725C19.7456 20.0207 19.2708 20.0253 18.975 19.7353L13.775 14.6353C13.6312 14.4942 13.5502 14.3012 13.5502 14.0998V7.5998C13.5502 7.18559 13.886 6.8498 14.3002 6.8498Z" fill="black"/>
</svg>
