<svg width="32" height="32" viewBox="0 0 32 32" fill="none" xmlns="http://www.w3.org/2000/svg">
<path fill-rule="evenodd" clip-rule="evenodd" d="M7.71967 3.21967C8.01256 2.92678 8.48744 2.92678 8.78033 3.21967L14.2803 8.71967C14.5732 9.01256 14.5732 9.48744 14.2803 9.78033C13.9874 10.0732 13.5126 10.0732 13.2197 9.78033L8.25 4.81066L3.28033 9.78033C2.98744 10.0732 2.51256 10.0732 2.21967 9.78033C1.92678 9.48744 1.92678 9.01256 2.21967 8.71967L7.71967 3.21967Z" fill="black"/>
<path fill-rule="evenodd" clip-rule="evenodd" d="M17.6197 23.1197C17.9126 22.8268 18.3874 22.8268 18.6803 23.1197L23.65 28.0893L28.6197 23.1197C28.9126 22.8268 29.3874 22.8268 29.6803 23.1197C29.9732 23.4126 29.9732 23.8874 29.6803 24.1803L24.1803 29.6803C23.8874 29.9732 23.4126 29.9732 23.1197 29.6803L17.6197 24.1803C17.3268 23.8874 17.3268 23.4126 17.6197 23.1197Z" fill="black"/>
<path fill-rule="evenodd" clip-rule="evenodd" d="M8.25 4.7C8.66421 4.7 9 5.03579 9 5.45V22.55C9 23.3814 9.97805 23.5558 10.326 23.034C10.3304 23.0273 10.335 23.0206 10.3397 23.0141L20.3397 9.01407L20.35 9C21.6825 7.22339 24.4 8.12924 24.4 10.35V27.45C24.4 27.8642 24.0642 28.2 23.65 28.2C23.2358 28.2 22.9 27.8642 22.9 27.45V10.35C22.9 9.57328 22.0232 9.27851 21.5545 9.89399L11.5667 23.8769C10.311 25.7402 7.5 24.7144 7.5 22.55V5.45C7.5 5.03579 7.83579 4.7 8.25 4.7Z" fill="black"/>
</svg>
