<svg width="32" height="32" viewBox="0 0 32 32" fill="none" xmlns="http://www.w3.org/2000/svg">
<path d="M25.4258 4.76959H19.5671C18.963 3.13951 17.4226 2 15.6145 2C13.8064 2 12.2661 3.14091 11.6718 4.74155L11.662 4.77099H5.80322C4.25444 4.77099 3 6.02543 3 7.57421V27.1968C3 28.7456 4.25444 30 5.80322 30H25.4258C26.9746 30 28.229 28.7456 28.229 27.1968V7.57421C28.229 6.02543 26.9746 4.77099 25.4258 4.77099V4.76959ZM18.4177 23.6913H8.60645V22.2897H18.4177V23.6913ZM22.6226 18.0849H8.60645V16.6833H22.6226V18.0849ZM22.6226 12.4785H8.60645V11.0768H22.6226V12.4785Z" fill="black"/>
</svg>
