<svg width="32" height="32" viewBox="0 0 32 32" fill="none" xmlns="http://www.w3.org/2000/svg">
<path d="M22 20.7001C22 20.3001 21.9001 20.1 21.7001 19.9C21.5 19.7 21.2001 19.5 20.7001 19.3C20.2001 19.1 19.8 18.9 19.5 18.8C19.2 18.6 18.9 18.4001 18.6 18.2001C18.4 18.0001 18.2 17.7 18 17.4C17.9 17.1 17.8 16.7 17.8 16.3C17.8 15.6 18 15 18.5 14.5C19 14 19.6 13.8 20.4 13.7V12.3H21.4V13.7C22.2 13.8 22.8001 14.1 23.2001 14.7C23.6 15.2 23.8 15.9 23.8 16.8H22C22 16.3 21.9001 15.9 21.7001 15.6C21.5 15.3 21.2 15.2 20.8 15.2C20.4 15.2 20.2 15.3 20 15.5C19.8 15.7 19.7 16 19.7 16.3C19.7 16.6 19.8 16.9 20 17.1C20.2 17.3 20.5 17.5 21.1 17.7C21.6 17.9 22 18.1 22.4 18.3C22.7 18.5 23 18.7 23.2001 18.9C23.4001 19.1 23.6 19.4001 23.7001 19.7001C23.8001 20 23.9 20.3001 23.9 20.7001C23.9 21.4001 23.7001 22 23.2001 22.5C22.7001 23 22.1 23.2 21.3 23.3V24.6H20.3V23.3C19.4 23.2 18.7 22.9 18.2 22.4C17.7 21.9 17.5 21.2 17.5 20.3H19.4C19.4 20.8 19.5 21.2001 19.8 21.5C20 21.8 20.4 21.9 20.9 21.9C21.3 21.9 21.6 21.8 21.8 21.6C21.9 21.3 22 21 22 20.7001Z" fill="black"/>
<path fill-rule="evenodd" clip-rule="evenodd" d="M5.60538 3.60538C5.58996 3.62079 5.55005 3.67048 5.55005 3.80005V28.2001C5.55005 28.3296 5.58996 28.3793 5.60538 28.3947C5.61665 28.406 5.64625 28.4304 5.712 28.4426L10.6917 26.9182L16.0038 28.4216L21.5167 26.9181L26.292 28.4421C26.3638 28.4288 26.4123 28.4003 26.4464 28.3708C26.4881 28.3346 26.5263 28.2804 26.55 28.2084V3.80005C26.55 3.67048 26.5101 3.62079 26.4947 3.60538C26.4793 3.58996 26.4296 3.55005 26.3 3.55005H5.80005C5.67048 3.55005 5.62079 3.58996 5.60538 3.60538ZM4.54472 2.54472C4.8793 2.21013 5.32961 2.05005 5.80005 2.05005H26.3C26.7705 2.05005 27.2208 2.21013 27.5554 2.54472C27.89 2.8793 28.05 3.32961 28.05 3.80005V28.3743L28.0355 28.4471C27.8724 29.2624 27.1924 29.9501 26.2001 29.9501H26.0833L21.4834 28.482L15.9963 29.9785L10.7084 28.4819L5.91227 29.9501H5.80005C5.32961 29.9501 4.8793 29.79 4.54472 29.4554C4.21013 29.1208 4.05005 28.6705 4.05005 28.2001V3.80005C4.05005 3.32961 4.21013 2.8793 4.54472 2.54472Z" fill="black"/>
<path fill-rule="evenodd" clip-rule="evenodd" d="M8.35005 7.70005C8.35005 7.28583 8.68583 6.95005 9.10005 6.95005H22.9C23.3143 6.95005 23.65 7.28583 23.65 7.70005C23.65 8.11426 23.3143 8.45005 22.9 8.45005H9.10005C8.68583 8.45005 8.35005 8.11426 8.35005 7.70005Z" fill="black"/>
<path fill-rule="evenodd" clip-rule="evenodd" d="M8.35005 13.8C8.35005 13.3858 8.68583 13.05 9.10005 13.05H14C14.4143 13.05 14.75 13.3858 14.75 13.8C14.75 14.2143 14.4143 14.55 14 14.55H9.10005C8.68583 14.55 8.35005 14.2143 8.35005 13.8Z" fill="black"/>
<path fill-rule="evenodd" clip-rule="evenodd" d="M8.35005 22.9C8.35005 22.4858 8.68583 22.15 9.10005 22.15H14C14.4143 22.15 14.75 22.4858 14.75 22.9C14.75 23.3143 14.4143 23.65 14 23.65H9.10005C8.68583 23.65 8.35005 23.3143 8.35005 22.9Z" fill="black"/>
<path fill-rule="evenodd" clip-rule="evenodd" d="M8.35005 18.3C8.35005 17.8858 8.68583 17.55 9.10005 17.55H14C14.4143 17.55 14.75 17.8858 14.75 18.3C14.75 18.7143 14.4143 19.05 14 19.05H9.10005C8.68583 19.05 8.35005 18.7143 8.35005 18.3Z" fill="black"/>
</svg>
