<svg width="32" height="32" viewBox="0 0 32 32" fill="none" xmlns="http://www.w3.org/2000/svg">
<path d="M28.7021 16.8591L26.8133 18.7479C26.7426 18.8168 26.6864 18.8992 26.6481 18.9901C26.6097 19.0811 26.5899 19.1788 26.5899 19.2776C26.5899 19.3763 26.6097 19.474 26.6481 19.565C26.6864 19.656 26.7426 19.7383 26.8133 19.8072C26.8815 19.8787 26.9638 19.9352 27.055 19.9731C27.1462 20.0109 27.2443 20.0293 27.343 20.0271C27.4415 20.0276 27.5391 20.0083 27.63 19.9706C27.721 19.9328 27.8035 19.8773 27.8727 19.8072L29.7614 17.9184C29.8351 17.8498 29.8941 17.7671 29.9351 17.6751C29.9761 17.5832 29.9981 17.484 29.9999 17.3833C30.0017 17.2827 29.9831 17.1827 29.9454 17.0894C29.9078 16.9961 29.8516 16.9113 29.7805 16.8401C29.7093 16.7689 29.6245 16.7128 29.5312 16.6751C29.4379 16.6374 29.3379 16.6189 29.2373 16.6207C29.1366 16.6225 29.0374 16.6445 28.9454 16.6855C28.8535 16.7264 28.7707 16.7855 28.7021 16.8591Z" fill="black"/>
<path d="M28.7021 9.54385L25.0745 13.1715C24.9341 13.312 24.8553 13.5025 24.8553 13.7012C24.8553 13.8998 24.9341 14.0903 25.0745 14.2308C25.2172 14.3679 25.4063 14.4464 25.6041 14.4507C25.8024 14.4484 25.9922 14.3696 26.1338 14.2308L29.7614 10.6032C29.8938 10.4611 29.9659 10.2732 29.9625 10.079C29.9591 9.8848 29.8804 9.69954 29.7431 9.56221C29.6058 9.42489 29.4205 9.34623 29.2263 9.3428C29.0321 9.33937 28.8442 9.41145 28.7021 9.54385Z" fill="black"/>
<path d="M24.0751 8.67441C24.2738 8.67423 24.4643 8.59515 24.6048 8.45455L29.7614 3.29787C29.8938 3.15579 29.9659 2.96786 29.9625 2.77369C29.9591 2.57951 29.8804 2.39425 29.7431 2.25692C29.6058 2.1196 29.4205 2.04094 29.2263 2.03751C29.0321 2.03408 28.8442 2.10616 28.7021 2.23855L23.5455 7.39523C23.4051 7.53577 23.3263 7.72627 23.3263 7.92489C23.3263 8.12351 23.4051 8.31401 23.5455 8.45455C23.6882 8.59163 23.8772 8.6701 24.0751 8.67441Z" fill="black"/>
<path d="M16.9897 8.46454C17.0882 8.46558 17.186 8.44663 17.277 8.40884C17.3681 8.37105 17.4505 8.31521 17.5193 8.24468L22.4661 3.29787C22.6066 3.15607 22.685 2.96428 22.6841 2.76468C22.6831 2.56508 22.603 2.37403 22.4612 2.23356C22.3194 2.09308 22.1276 2.01469 21.928 2.01563C21.7284 2.01657 21.5373 2.09676 21.3968 2.23855L16.45 7.23533C16.3097 7.37587 16.2308 7.56637 16.2308 7.76499C16.2308 7.96361 16.3097 8.15412 16.45 8.29465C16.6003 8.42057 16.7944 8.48168 16.9897 8.46454Z" fill="black"/>
<path d="M28.7021 24.1644L24.1451 28.7215C24.0047 28.862 23.9259 29.0525 23.9259 29.2511C23.9259 29.4498 24.0047 29.6403 24.1451 29.7808C24.2856 29.9212 24.4761 30 24.6747 30C24.8733 30 25.0638 29.9212 25.2044 29.7808L29.7614 25.2237C29.8351 25.1551 29.8941 25.0724 29.9351 24.9804C29.9761 24.8885 29.9981 24.7892 29.9999 24.6886C30.0017 24.588 29.9831 24.488 29.9454 24.3947C29.9078 24.3013 29.8516 24.2166 29.7805 24.1454C29.7093 24.0742 29.6245 24.0181 29.5312 23.9804C29.4379 23.9427 29.3379 23.9242 29.2373 23.926C29.1366 23.9278 29.0374 23.9498 28.9454 23.9908C28.8535 24.0317 28.7707 24.0908 28.7021 24.1644Z" fill="black"/>
<path d="M13.0522 25.1838L9.52449 28.7215C9.38413 28.862 9.30529 29.0525 9.30529 29.2511C9.30529 29.4498 9.38413 29.6403 9.52449 29.7808C9.66503 29.9212 9.85553 30 10.0541 30C10.2528 30 10.4433 29.9212 10.5838 29.7808L14.1215 26.2531C14.242 26.1074 14.3038 25.922 14.2948 25.7332C14.2859 25.5444 14.2069 25.3657 14.0732 25.2321C13.9396 25.0984 13.7609 25.0194 13.5721 25.0105C13.3833 25.0015 13.1979 25.0633 13.0522 25.1838Z" fill="black"/>
<path d="M20.3775 25.1838L16.8398 28.7215C16.6994 28.862 16.6206 29.0525 16.6206 29.2511C16.6206 29.4498 16.6994 29.6403 16.8398 29.7808C16.9803 29.9212 17.1708 30 17.3694 30C17.5681 30 17.7586 29.9212 17.8991 29.7808L21.4368 26.2431C21.5692 26.101 21.6413 25.9131 21.6379 25.7189C21.6344 25.5247 21.5558 25.3395 21.4184 25.2021C21.2811 25.0648 21.0959 24.9861 20.9017 24.9827C20.7075 24.9793 20.5196 25.0514 20.3775 25.1838Z" fill="black"/>
<path d="M20.2376 9.59381C19.6446 9.59381 19.065 9.76965 18.5719 10.0991C18.0789 10.4285 17.6946 10.8967 17.4677 11.4446C17.2408 11.9924 17.1814 12.5952 17.2971 13.1768C17.4128 13.7583 17.6983 14.2925 18.1176 14.7118C18.5369 15.1311 19.0711 15.4167 19.6527 15.5323C20.2343 15.648 20.8371 15.5887 21.3849 15.3617C21.9327 15.1348 22.401 14.7505 22.7304 14.2575C23.0598 13.7645 23.2357 13.1848 23.2357 12.5919C23.2357 11.7967 22.9198 11.0342 22.3575 10.4719C21.7953 9.90968 21.0327 9.59381 20.2376 9.59381Z" fill="black"/>
<path d="M5.7869 25.1538L2.2192 28.7215C2.07884 28.862 2 29.0525 2 29.2511C2 29.4498 2.07884 29.6403 2.2192 29.7808C2.35973 29.9212 2.55023 30 2.74886 30C2.94748 30 3.13798 29.9212 3.27852 29.7808L6.84622 26.2131C6.91986 26.1445 6.97892 26.0617 7.01989 25.9698C7.06085 25.8779 7.08288 25.7786 7.08465 25.678C7.08643 25.5773 7.06792 25.4774 7.03022 25.384C6.99252 25.2907 6.93642 25.2059 6.86524 25.1348C6.79407 25.0636 6.70929 25.0075 6.61596 24.9698C6.52263 24.9321 6.42267 24.9136 6.32203 24.9153C6.22139 24.9171 6.12214 24.9391 6.0302 24.9801C5.93826 25.0211 5.85552 25.0801 5.7869 25.1538Z" fill="black"/>
<path d="M2.74886 22.6954C2.84733 22.6958 2.94491 22.6766 3.03587 22.6389C3.12682 22.6011 3.20932 22.5456 3.27852 22.4755L5.1673 20.5867C5.24094 20.5181 5.3 20.4354 5.34097 20.3434C5.38193 20.2515 5.40396 20.1522 5.40574 20.0516C5.40751 19.951 5.389 19.851 5.3513 19.7577C5.31361 19.6643 5.2575 19.5796 5.18632 19.5084C5.11515 19.4372 5.03037 19.3811 4.93704 19.3434C4.84372 19.3057 4.74375 19.2872 4.64311 19.289C4.54248 19.2907 4.44323 19.3128 4.35129 19.3537C4.25935 19.3947 4.1766 19.4538 4.10798 19.5274L2.2192 21.4162C2.07884 21.5567 2 21.7472 2 21.9459C2 22.1445 2.07884 22.335 2.2192 22.4755C2.2884 22.5456 2.3709 22.6011 2.46185 22.6389C2.5528 22.6766 2.65038 22.6958 2.74886 22.6954Z" fill="black"/>
<path d="M2.74886 8.07479C2.84733 8.07526 2.94491 8.05605 3.03587 8.0183C3.12682 7.98054 3.20932 7.925 3.27852 7.85493L7.83558 3.29787C7.90922 3.22925 7.96828 3.14651 8.00925 3.05457C8.05021 2.96263 8.07224 2.86338 8.07402 2.76274C8.07579 2.6621 8.05728 2.56214 8.01958 2.46881C7.98189 2.37548 7.92578 2.2907 7.8546 2.21953C7.78343 2.14836 7.69865 2.09225 7.60532 2.05455C7.512 2.01685 7.41203 1.99834 7.31139 2.00012C7.21076 2.00189 7.11151 2.02392 7.01957 2.06489C6.92763 2.10585 6.84488 2.16492 6.77626 2.23855L2.2192 6.79562C2.07884 6.93615 2 7.12665 2 7.32528C2 7.5239 2.07884 7.7144 2.2192 7.85493C2.2884 7.925 2.3709 7.98054 2.46185 8.0183C2.5528 8.05605 2.65038 8.07526 2.74886 8.07479Z" fill="black"/>
<path d="M2.74886 15.3801C2.84733 15.3805 2.94491 15.3613 3.03587 15.3236C3.12682 15.2858 3.20932 15.2303 3.27852 15.1602L15.1409 3.29787C15.2145 3.22925 15.2736 3.14651 15.3145 3.05457C15.3555 2.96263 15.3775 2.86338 15.3793 2.76274C15.3811 2.6621 15.3626 2.56214 15.3249 2.46881C15.2872 2.37548 15.2311 2.2907 15.1599 2.21953C15.0887 2.14836 15.0039 2.09225 14.9106 2.05455C14.8173 2.01685 14.7173 1.99834 14.6167 2.00012C14.516 2.00189 14.4168 2.02392 14.3249 2.06489C14.2329 2.10585 14.1502 2.16492 14.0816 2.23855L2.2192 14.1009C2.07884 14.2414 2 14.4319 2 14.6306C2 14.8292 2.07884 15.0197 2.2192 15.1602C2.2884 15.2303 2.3709 15.2858 2.46185 15.3236C2.5528 15.3613 2.65038 15.3805 2.74886 15.3801Z" fill="black"/>
<path d="M8.76498 12.5719C8.76498 13.1649 8.94081 13.7445 9.27025 14.2375C9.59968 14.7306 10.0679 15.1148 10.6157 15.3417C11.1636 15.5687 11.7664 15.628 12.3479 15.5124C12.9295 15.3967 13.4637 15.1111 13.883 14.6918C14.3023 14.2726 14.5878 13.7384 14.7035 13.1568C14.8192 12.5752 14.7598 11.9724 14.5329 11.4246C14.306 10.8768 13.9217 10.4085 13.4287 10.0791C12.9357 9.74966 12.356 9.57383 11.763 9.57383C10.9679 9.57383 10.2053 9.88969 9.64309 10.4519C9.08085 11.0142 8.76498 11.7768 8.76498 12.5719Z" fill="black"/>
<path d="M24.9845 22.1657V20.5667C24.9926 19.4912 24.6336 18.445 23.9669 17.601C23.3001 16.757 22.3655 16.1656 21.3172 15.9245C20.269 15.6834 19.1699 15.807 18.2014 16.2749C17.2329 16.7428 16.4529 17.527 15.9903 18.4981C15.5277 17.527 14.7477 16.7428 13.7792 16.2749C12.8107 15.807 11.7116 15.6834 10.6634 15.9245C9.61517 16.1656 8.68051 16.757 8.01375 17.601C7.347 18.445 6.98803 19.4912 6.99612 20.5667V22.1657C6.9961 22.3919 7.08528 22.609 7.2443 22.7699C7.40332 22.9308 7.61937 23.0225 7.84557 23.0252H24.1251C24.353 23.0252 24.5716 22.9346 24.7328 22.7734C24.894 22.6123 24.9845 22.3937 24.9845 22.1657Z" fill="black"/>
</svg>
