<svg width="32" height="32" viewBox="0 0 32 32" fill="none" xmlns="http://www.w3.org/2000/svg">
<path d="M29.1652 24.818L18.8846 14.538L22.8809 10.538C23.233 10.1791 23.4303 9.6961 23.4303 9.19305C23.4303 8.69 23.233 8.20704 22.8809 7.84805L17.6557 2.54805C17.3004 2.1969 16.8212 2 16.3219 2C15.8226 2 15.3434 2.1969 14.9881 2.54805L2.55949 14.998C2.38241 15.1713 2.2417 15.3781 2.14563 15.6065C2.04955 15.8349 2.00004 16.0802 2 16.328C2.00037 16.5773 2.05 16.824 2.14602 17.054C2.24204 17.284 2.38256 17.4927 2.55949 17.668L7.81469 22.938C8.17336 23.2904 8.65587 23.4879 9.15846 23.4879C9.66105 23.4879 10.1436 23.2904 10.5022 22.938L14.4986 18.938L24.7992 29.178C25.0603 29.4418 25.3718 29.6503 25.7151 29.7912C26.0583 29.9321 26.4264 30.0024 26.7974 29.998C27.1686 30.0041 27.5371 29.9346 27.8806 29.7936C28.2242 29.6526 28.5354 29.4432 28.7955 29.178L29.2151 28.758C29.7272 28.2272 30.0091 27.5155 29.9998 26.7778C29.9904 26.04 29.6905 25.3357 29.1652 24.818ZM16.0372 3.61805C16.0735 3.58055 16.117 3.55074 16.165 3.53038C16.2131 3.51002 16.2647 3.49953 16.3169 3.49953C16.3691 3.49953 16.4208 3.51002 16.4688 3.53038C16.5169 3.55074 16.5603 3.58055 16.5967 3.61805L21.8619 8.87805C21.931 8.95509 21.97 9.05451 21.9718 9.15805C21.9715 9.26486 21.9324 9.36794 21.8619 9.44805L20.8628 10.448L14.9881 4.61805L16.0372 3.61805ZM9.4432 21.878C9.36568 21.9497 9.26401 21.9895 9.15846 21.9895C9.05292 21.9895 8.95125 21.9497 8.87372 21.878L3.61852 16.608C3.58079 16.5718 3.55073 16.5284 3.53013 16.4802C3.50954 16.4321 3.49882 16.3804 3.49863 16.328C3.49695 16.2754 3.50681 16.2231 3.52753 16.1747C3.54824 16.1264 3.5793 16.0831 3.61852 16.048L4.61761 15.048L10.4423 20.878L9.4432 21.878ZM13.9891 17.308L11.4913 19.818L5.66665 13.998L13.9891 5.67805L19.8137 11.508L17.296 13.998L13.9891 17.308ZM15.5776 17.838L17.8156 15.598L25.9082 23.698L23.6802 25.938L15.5776 17.838ZM28.0962 27.698L27.6766 28.118C27.4342 28.3533 27.1099 28.4848 26.7724 28.4848C26.4348 28.4848 26.1105 28.3533 25.8682 28.118L24.7392 26.998L26.9772 24.758L28.0962 25.878C28.3365 26.1198 28.4715 26.447 28.4715 26.788C28.4715 27.1291 28.3365 27.4563 28.0962 27.698Z" fill="black"/>
</svg>
