<svg width="32" height="32" viewBox="0 0 32 32" fill="none" xmlns="http://www.w3.org/2000/svg">
<path d="M7.56691 11.9668V13.3429H2.35509V11.9668H4.23364V7.72298H2.73309V6.67069C3.16073 6.5936 3.52536 6.50109 3.827 6.39316C4.12864 6.28524 4.41309 6.15418 4.68036 6H5.91745V11.9668H7.56691ZM30 22.703V25.2727H12.1818V22.703H30ZM4.60018 17.4249C4.982 17.4249 5.32945 17.4808 5.64255 17.5925C5.95564 17.7043 6.22482 17.8624 6.45009 18.0667C6.67536 18.2709 6.851 18.5157 6.977 18.8009C7.103 19.0862 7.166 19.4061 7.166 19.7607C7.166 20.0691 7.09346 20.3832 6.94836 20.7032C6.80327 21.0231 6.60664 21.343 6.35845 21.6629C6.11027 21.9829 5.82582 22.3028 5.50509 22.6227C5.18436 22.9427 4.84837 23.2568 4.49709 23.5652C4.70327 23.542 4.92664 23.5208 5.16718 23.5016C5.40773 23.4823 5.62345 23.4727 5.81436 23.4727H7.544V24.9065H2.08018V23.9352C2.59946 23.4958 3.07291 23.0853 3.50055 22.7037C3.92818 22.3221 4.29473 21.9655 4.60018 21.634C4.90564 21.3025 5.14236 20.9903 5.31036 20.6974C5.47836 20.4044 5.56236 20.1269 5.56236 19.8648C5.56236 19.5025 5.45927 19.2269 5.25309 19.038C5.04691 18.8491 4.75291 18.7547 4.37109 18.7547C4.08091 18.7547 3.81555 18.8299 3.575 18.9802C3.33445 19.1305 3.11109 19.3059 2.90491 19.5063L2 18.5928C2.19091 18.4001 2.37991 18.2305 2.567 18.084C2.75409 17.9375 2.95264 17.8161 3.16264 17.7197C3.37264 17.6234 3.59409 17.5501 3.827 17.5C4.05991 17.4499 4.31763 17.4249 4.60018 17.4249ZM30 14.9939V17.5636H12.1818V14.9939H30ZM30 7.28485V9.85455H12.1818V7.28485H30Z" fill="black"/>
</svg>
