<svg width="32" height="32" viewBox="0 0 32 32" fill="none" xmlns="http://www.w3.org/2000/svg">
<path d="M23.53 16.8C23.5217 15.9202 23.7457 15.0538 24.1794 14.2882C24.6131 13.5227 25.2411 12.8852 26 12.44L26.69 12.09L26.32 11.41C25.6878 10.4466 24.8164 9.66368 23.791 9.13785C22.7656 8.61201 21.6213 8.36122 20.47 8.41C19.9339 8.41233 19.4 8.47948 18.88 8.61C19.2956 8.274 19.6714 7.89151 20 7.47C20.5802 6.81444 21.0191 6.04631 21.2892 5.21357C21.5594 4.38082 21.6549 3.50133 21.57 2.63L21.47 2H20.83C19.8944 2.06229 18.9837 2.32813 18.1616 2.77894C17.3394 3.22975 16.6256 3.85466 16.07 4.61C15.5607 5.21133 15.1829 5.91253 14.9607 6.66857C14.7386 7.42461 14.677 8.21876 14.78 9L14.87 9.37L14.43 9.21C13.3887 8.7467 12.2688 8.4854 11.13 8.44C7.67 8.45 4 11.53 4 17.23C4 22.57 7.89 30 11.72 30C12.4103 29.9486 13.0867 29.7795 13.72 29.5C14.483 29.177 15.2937 28.981 16.12 28.92C16.8109 28.9606 17.4886 29.1266 18.12 29.41C18.8799 29.7376 19.6932 29.924 20.52 29.96C24.31 29.96 26.82 23.21 27.09 22.44L27.33 21.76L26.66 21.49C25.7357 21.1015 24.9461 20.4497 24.3896 19.6158C23.833 18.7818 23.5341 17.8026 23.53 16.8ZM17.27 5.51C17.9681 4.57143 18.967 3.90077 20.1 3.61C20.0041 4.678 19.5816 5.69056 18.89 6.51C18.2412 7.36281 17.2884 7.93237 16.23 8.1C16.3058 7.15113 16.6685 6.24779 17.27 5.51ZM20.49 28.51C19.841 28.4542 19.2075 28.2814 18.62 28C17.8228 27.6534 16.9685 27.4568 16.1 27.42C15.0987 27.4747 14.1144 27.7014 13.19 28.09C12.7212 28.2937 12.2265 28.4317 11.72 28.5C9.26 28.5 5.5 22.5 5.5 17.23C5.5 12.5 8.4 10 11.13 10C12.0844 10.0448 13.0213 10.2722 13.89 10.67C14.4728 10.9416 15.0992 11.1075 15.74 11.16C16.3215 11.1045 16.8878 10.9418 17.41 10.68C18.3691 10.2365 19.4046 9.98188 20.46 9.93C21.229 9.90445 21.9946 10.0438 22.7052 10.3388C23.4158 10.6337 24.0551 11.0774 24.58 11.64C23.7772 12.2392 23.1258 13.0179 22.6778 13.9139C22.2298 14.8099 21.9977 15.7983 22 16.8C21.9896 17.9761 22.2984 19.1329 22.8937 20.1473C23.4889 21.1617 24.3482 21.9955 25.38 22.56C24.58 24.58 22.57 28.46 20.49 28.46V28.51Z" fill="black"/>
</svg>
