<svg width="32" height="32" viewBox="0 0 32 32" fill="none" xmlns="http://www.w3.org/2000/svg">
<path fill-rule="evenodd" clip-rule="evenodd" d="M28.7273 23.7154C28.7273 23.7907 28.7171 23.8634 28.705 23.9356L20.8472 16.1231L28.705 8.31059C28.7171 8.38272 28.7273 8.45548 28.7273 8.53077V23.7154ZM27.4545 24.9808H4.54545C4.39655 24.9808 4.25464 24.9504 4.12164 24.9036L12.0526 17.0177L14.2373 19.1904C14.7247 19.6744 15.3624 19.9167 16 19.9167C16.6383 19.9167 17.2759 19.6744 17.7621 19.1904L19.9474 17.0177L27.8796 24.9036C27.7454 24.9504 27.6041 24.9808 27.4545 24.9808ZM3.27273 23.7154V8.53077C3.27273 8.45548 3.28291 8.38272 3.295 8.31059L11.1528 16.1231L3.295 23.9356C3.28291 23.8634 3.27273 23.7907 3.27273 23.7154ZM4.54545 7.26538H27.4545C27.6041 7.26538 27.7454 7.29575 27.879 7.34321L16.8623 18.2957C16.6319 18.5248 16.3258 18.6513 16 18.6513C15.6742 18.6513 15.3681 18.5248 15.1371 18.2957L4.12164 7.34321C4.25464 7.29575 4.39655 7.26538 4.54545 7.26538ZM27.4545 6H4.54545C3.13973 6 2 7.13315 2 8.53077V23.7154C2 25.113 3.13973 26.2462 4.54545 26.2462H27.4545C28.8603 26.2462 30 25.113 30 23.7154V8.53077C30 7.13315 28.8603 6 27.4545 6Z" fill="black"/>
</svg>
