<svg width="32" height="32" viewBox="0 0 32 32" fill="none" xmlns="http://www.w3.org/2000/svg">
<path d="M29.25 15.2356C29.0519 15.2382 28.8626 15.3179 28.7225 15.4579C28.5824 15.5978 28.5026 15.7869 28.5 15.9848V18.7218C28.5 18.9867 28.3946 19.2408 28.2071 19.4281C28.0196 19.6155 27.7652 19.7207 27.5 19.7207H26.78V17.7728C26.78 17.5741 26.701 17.3836 26.5603 17.2431C26.4197 17.1026 26.2289 17.0236 26.03 17.0236C25.8311 17.0236 25.6403 17.1026 25.4997 17.2431C25.359 17.3836 25.28 17.5741 25.28 17.7728V21.9782C25.28 22.2432 25.1746 22.4973 24.9871 22.6846C24.7996 22.8719 24.5452 22.9772 24.28 22.9772H14.28C14.0812 22.9773 13.8905 23.0564 13.75 23.1969L9.53 27.4123V23.7064C9.52233 23.512 9.44024 23.3279 9.30068 23.1923C9.16112 23.0566 8.97474 22.9796 8.78 22.9772H4.51C4.24478 22.9772 3.99043 22.8719 3.80289 22.6846C3.61536 22.4973 3.51 22.2432 3.51 21.9782V7.73376C3.51 7.46883 3.61536 7.21475 3.80289 7.02742C3.99043 6.84009 4.24478 6.73485 4.51 6.73485H14.18C14.3789 6.73485 14.5697 6.65591 14.7103 6.51542C14.851 6.37492 14.93 6.18436 14.93 5.98566C14.93 5.78697 14.851 5.59641 14.7103 5.45591C14.5697 5.31541 14.3789 5.23648 14.18 5.23648H6.74V4.49728C6.74 4.23236 6.84536 3.97828 7.03289 3.79095C7.22043 3.60361 7.47478 3.49837 7.74 3.49837H16.5C16.6989 3.49837 16.8897 3.41944 17.0303 3.27894C17.171 3.13844 17.25 2.94788 17.25 2.74919C17.25 2.55049 17.171 2.35993 17.0303 2.21943C16.8897 2.07893 16.6989 2 16.5 2H7.75C7.08604 2 6.44912 2.26278 5.97869 2.73083C5.50826 3.19888 5.24265 3.83405 5.24 4.49728V5.22649H4.51C3.84512 5.22912 3.20822 5.49412 2.73807 5.96376C2.26792 6.43339 2.00263 7.0696 2 7.73376V21.9782C2.00263 22.6424 2.26792 23.2786 2.73807 23.7482C3.20822 24.2179 3.84512 24.4829 4.51 24.4855H8V29.2503C7.999 29.398 8.04228 29.5425 8.12427 29.6654C8.20625 29.7882 8.32319 29.8837 8.46 29.9396C8.59689 29.9985 8.74842 30.0148 8.89474 29.9863C9.04106 29.9578 9.17534 29.8858 9.28 29.7798L14.57 24.4955H24.21C24.5443 24.5008 24.8763 24.4396 25.1867 24.3155C25.497 24.1914 25.7796 24.0068 26.0178 23.7725C26.2561 23.5382 26.4453 23.2589 26.5744 22.9509C26.7036 22.6428 26.77 22.3122 26.77 21.9782V21.249H27.49C27.8213 21.2491 28.1493 21.1835 28.4552 21.0563C28.761 20.929 29.0386 20.7426 29.2719 20.5076C29.5053 20.2727 29.6898 19.9939 29.8147 19.6874C29.9397 19.3809 30.0026 19.0527 30 18.7218V15.9848C29.9974 15.7869 29.9176 15.5978 29.7775 15.4579C29.6374 15.3179 29.4481 15.2382 29.25 15.2356Z" fill="black"/>
<path d="M23.25 15.4853C24.585 15.4853 25.8901 15.0899 27.0001 14.349C28.1101 13.6081 28.9753 12.555 29.4862 11.323C29.9971 10.0909 30.1308 8.73518 29.8703 7.42723C29.6098 6.11929 28.967 4.91786 28.023 3.97488C27.079 3.0319 25.8762 2.38973 24.5669 2.12956C23.2575 1.86939 21.9003 2.00292 20.6669 2.51326C19.4335 3.02359 18.3793 3.88782 17.6376 4.99664C16.8959 6.10546 16.5 7.40909 16.5 8.74266C16.5026 10.5301 17.2147 12.2436 18.4799 13.5075C19.7452 14.7714 21.4606 15.4827 23.25 15.4853ZM22.5 5.37633C22.5 5.17763 22.579 4.98707 22.7197 4.84657C22.8603 4.70607 23.0511 4.62714 23.25 4.62714C23.4489 4.62714 23.6397 4.70607 23.7803 4.84657C23.921 4.98707 24 5.17763 24 5.37633V8.50292C24 8.70162 23.921 8.89218 23.7803 9.03267C23.6397 9.17317 23.4489 9.25211 23.25 9.25211C23.0511 9.25211 22.8603 9.17317 22.7197 9.03267C22.579 8.89218 22.5 8.70162 22.5 8.50292V5.37633ZM23.25 10.311C23.4478 10.311 23.6411 10.3695 23.8056 10.4793C23.97 10.5891 24.0982 10.7451 24.1739 10.9276C24.2496 11.1101 24.2694 11.311 24.2308 11.5047C24.1922 11.6985 24.097 11.8765 23.9571 12.0162C23.8173 12.1559 23.6391 12.251 23.4451 12.2896C23.2511 12.3281 23.05 12.3083 22.8673 12.2327C22.6846 12.1571 22.5284 12.0291 22.4185 11.8648C22.3086 11.7006 22.25 11.5074 22.25 11.3099C22.25 11.0449 22.3554 10.7909 22.5429 10.6035C22.7304 10.4162 22.9848 10.311 23.25 10.311Z" fill="black"/>
<path d="M9 18.1224H15.38C15.5789 18.1224 15.7697 18.0435 15.9103 17.903C16.051 17.7625 16.13 17.572 16.13 17.3733C16.13 17.1746 16.051 16.984 15.9103 16.8435C15.7697 16.703 15.5789 16.6241 15.38 16.6241H9C8.80109 16.6241 8.61032 16.703 8.46967 16.8435C8.32902 16.984 8.25 17.1746 8.25 17.3733C8.25 17.572 8.32902 17.7625 8.46967 17.903C8.61032 18.0435 8.80109 18.1224 9 18.1224Z" fill="black"/>
<path d="M15.09 13.4375C15.2889 13.4375 15.4797 13.3586 15.6203 13.2181C15.761 13.0776 15.84 12.8871 15.84 12.6884C15.84 12.4897 15.761 12.2991 15.6203 12.1586C15.4797 12.0181 15.2889 11.9392 15.09 11.9392H9C8.80109 11.9392 8.61032 12.0181 8.46967 12.1586C8.32902 12.2991 8.25 12.4897 8.25 12.6884C8.25 12.8871 8.32902 13.0776 8.46967 13.2181C8.61032 13.3586 8.80109 13.4375 9 13.4375H15.09Z" fill="black"/>
</svg>
