<svg width="32" height="32" viewBox="0 0 32 32" fill="none" xmlns="http://www.w3.org/2000/svg">
<path d="M9.10934 24C9.24986 24.1407 9.44049 24.2198 9.63934 24.22H9.68934C9.79657 24.2145 9.9013 24.1856 9.99628 24.1356C10.0913 24.0855 10.1742 24.0153 10.2393 23.93L13.0793 20.13L16.9993 24C17.1399 24.1407 17.3305 24.2198 17.5293 24.22H17.5893C17.695 24.2137 17.798 24.1845 17.8913 24.1344C17.9845 24.0844 18.0657 24.0146 18.1293 23.93L29.8493 8.2C29.9687 8.04087 30.0199 7.84085 29.9918 7.64394C29.9637 7.44702 29.8585 7.26935 29.6993 7.15C29.5402 7.03066 29.3402 6.97941 29.1433 7.00754C28.9464 7.03567 28.7687 7.14087 28.6493 7.3L17.3993 22.3L13.9993 18.92L21.9993 8.2C22.0584 8.12121 22.1014 8.03155 22.1259 7.93614C22.1503 7.84073 22.1557 7.74144 22.1418 7.64394C22.1279 7.54644 22.0949 7.45263 22.0447 7.36788C21.9945 7.28313 21.9281 7.2091 21.8493 7.15C21.7705 7.09091 21.6809 7.04791 21.5855 7.02347C21.4901 6.99902 21.3908 6.99361 21.2933 7.00754C21.1958 7.02147 21.102 7.05447 21.0172 7.10465C20.9325 7.15483 20.8584 7.22121 20.7993 7.3L9.54934 22.3L3.27934 16.06C3.21039 15.9892 3.12798 15.933 3.03695 15.8946C2.94593 15.8562 2.84813 15.8364 2.74934 15.8364C2.65055 15.8364 2.55275 15.8562 2.46173 15.8946C2.3707 15.933 2.28829 15.9892 2.21934 16.06C2.07889 16.2006 2 16.3913 2 16.59C2 16.7888 2.07889 16.9794 2.21934 17.12L9.10934 24Z" fill="black"/>
</svg>
