<svg width="32" height="32" viewBox="0 0 32 32" fill="none" xmlns="http://www.w3.org/2000/svg">
<path fill-rule="evenodd" clip-rule="evenodd" d="M14.3734 17.1413C14.7445 17.1413 15.0453 17.4422 15.0453 17.8133V24.16C15.0453 24.5311 14.7445 24.832 14.3734 24.832C14.0022 24.832 13.7013 24.5311 13.7013 24.16L13.7013 19.4527L6.79891 26.4583C6.55145 26.7095 6.15509 26.7249 5.8894 26.5024L5.84858 26.4653C5.58421 26.2049 5.58106 25.7794 5.84154 25.515L12.7679 18.4851L8.56668 18.4853C8.21168 18.4853 7.92098 18.2101 7.89637 17.8613L7.89468 17.8133C7.89468 17.4422 8.19555 17.1413 8.56668 17.1413H14.3734ZM25.1582 5.95165C25.4187 5.68729 25.8442 5.68413 26.1085 5.94461C26.3729 6.2051 26.3761 6.63057 26.1156 6.89494L19.189 13.9244L23.3904 13.9246C23.7454 13.9246 24.0361 14.1999 24.0607 14.5486L24.0624 14.5966C24.0624 14.9678 23.7616 15.2686 23.3904 15.2686H17.5838C17.2126 15.2686 16.9118 14.9678 16.9118 14.5966V8.24995C16.9118 7.87882 17.2126 7.57795 17.5838 7.57795C17.9549 7.57795 18.2558 7.87882 18.2558 8.24995L18.2556 12.9571L25.1582 5.95165Z" fill="black"/>
</svg>
