<svg width="32" height="32" viewBox="0 0 32 32" fill="none" xmlns="http://www.w3.org/2000/svg">
<path d="M16.06 2H5.75C4.75544 2 3.80161 2.39509 3.09835 3.09835C2.39509 3.80161 2 4.75544 2 5.75V26.25C2 27.2446 2.39509 28.1984 3.09835 28.9017C3.80161 29.6049 4.75544 30 5.75 30H16.06C16.5525 30 17.0401 29.903 17.4951 29.7145C17.95 29.5261 18.3634 29.2499 18.7117 28.9017C19.0599 28.5534 19.3361 28.14 19.5245 27.6851C19.713 27.2301 19.81 26.7425 19.81 26.25V5.75C19.81 5.25754 19.713 4.76991 19.5245 4.31494C19.3361 3.85997 19.0599 3.44657 18.7117 3.09835C18.3634 2.75013 17.95 2.47391 17.4951 2.28545C17.0401 2.097 16.5525 2 16.06 2ZM18.31 26.25C18.31 26.8467 18.0729 27.419 17.651 27.841C17.229 28.2629 16.6567 28.5 16.06 28.5H5.75C5.15326 28.5 4.58097 28.2629 4.15901 27.841C3.73705 27.419 3.5 26.8467 3.5 26.25V24.9H18.31V26.25ZM18.31 23.4H3.5V5.75C3.5 5.15326 3.73705 4.58097 4.15901 4.15901C4.58097 3.73705 5.15326 3.5 5.75 3.5H16.06C16.3555 3.5 16.6481 3.5582 16.921 3.67127C17.194 3.78434 17.4421 3.95008 17.651 4.15901C17.8599 4.36794 18.0257 4.61598 18.1387 4.88896C18.2518 5.16194 18.31 5.45453 18.31 5.75V23.4Z" fill="black"/>
<path d="M26.13 6.66C25.9878 6.52752 25.7998 6.4554 25.6055 6.45883C25.4112 6.46225 25.2258 6.54097 25.0884 6.67838C24.951 6.81579 24.8723 7.00118 24.8688 7.19548C24.8654 7.38978 24.9375 7.57782 25.07 7.72C27.2659 9.91603 28.4996 12.8944 28.4996 16C28.4996 19.1056 27.2659 22.084 25.07 24.28C24.9296 24.4206 24.8507 24.6112 24.8507 24.81C24.8507 25.0088 24.9296 25.1994 25.07 25.34C25.2106 25.4804 25.4012 25.5593 25.6 25.5593C25.7988 25.5593 25.9894 25.4804 26.13 25.34C28.6068 22.8627 29.9982 19.5031 29.9982 16C29.9982 12.4969 28.6068 9.13728 26.13 6.66Z" fill="black"/>
<path d="M23.57 9.21C23.4294 9.06955 23.2388 8.99066 23.04 8.99066C22.8412 8.99066 22.6506 9.06955 22.51 9.21C22.3713 9.35357 22.2938 9.54538 22.2938 9.745C22.2938 9.94462 22.3713 10.1364 22.51 10.28C24.0275 11.7988 24.8799 13.858 24.8799 16.005C24.8799 18.152 24.0275 20.2112 22.51 21.73C22.3696 21.8706 22.2907 22.0612 22.2907 22.26C22.2907 22.4588 22.3696 22.6494 22.51 22.79C22.6441 22.9147 22.8173 22.9889 23 23C23.1988 22.9998 23.3895 22.9207 23.53 22.78C25.329 20.9782 26.3394 18.5361 26.3394 15.99C26.3394 13.4439 25.329 11.0018 23.53 9.2L23.57 9.21Z" fill="black"/>
</svg>
