<svg width="32" height="32" viewBox="0 0 32 32" fill="none" xmlns="http://www.w3.org/2000/svg">
<path d="M26.75 13.64C26.5519 13.6426 26.3626 13.7224 26.2225 13.8625C26.0824 14.0026 26.0026 14.1919 26 14.39V17.11C26 17.3089 26.079 17.4997 26.2197 17.6403C26.3603 17.781 26.5511 17.86 26.75 17.86C26.9489 17.86 27.1397 17.781 27.2803 17.6403C27.421 17.4997 27.5 17.3089 27.5 17.11V14.39C27.4974 14.1919 27.4176 14.0026 27.2775 13.8625C27.1374 13.7224 26.9481 13.6426 26.75 13.64Z" fill="black"/>
<path d="M4.75 13.64C4.55189 13.6426 4.36263 13.7224 4.22253 13.8625C4.08244 14.0026 4.00259 14.1919 4 14.39V17.11C4.00259 17.3081 4.08244 17.4974 4.22253 17.6375C4.36263 17.7776 4.55189 17.8574 4.75 17.86C4.94811 17.8574 5.13737 17.7776 5.27747 17.6375C5.41756 17.4974 5.49741 17.3081 5.5 17.11V14.39C5.49741 14.1919 5.41756 14.0026 5.27747 13.8625C5.13737 13.7224 4.94811 13.6426 4.75 13.64Z" fill="black"/>
<path d="M21.25 8.58C21.0519 8.58259 20.8626 8.66244 20.7225 8.80253C20.5824 8.94263 20.5026 9.13189 20.5 9.33V22.17C20.5 22.3689 20.579 22.5597 20.7197 22.7003C20.8603 22.841 21.0511 22.92 21.25 22.92C21.4489 22.92 21.6397 22.841 21.7803 22.7003C21.921 22.5597 22 22.3689 22 22.17V9.33C21.9974 9.13189 21.9176 8.94263 21.7775 8.80253C21.6374 8.66244 21.4481 8.58259 21.25 8.58Z" fill="black"/>
<path d="M10.25 8.58C10.0519 8.58259 9.86263 8.66244 9.72253 8.80253C9.58244 8.94263 9.50259 9.13189 9.5 9.33V22.17C9.5 22.3689 9.57902 22.5597 9.71967 22.7003C9.86032 22.841 10.0511 22.92 10.25 22.92C10.4489 22.92 10.6397 22.841 10.7803 22.7003C10.921 22.5597 11 22.3689 11 22.17V9.33C10.9974 9.13189 10.9176 8.94263 10.7775 8.80253C10.6374 8.66244 10.4481 8.58259 10.25 8.58Z" fill="black"/>
<path d="M15.75 6C15.5519 6.00259 15.3626 6.08244 15.2225 6.22253C15.0824 6.36263 15.0026 6.55189 15 6.75V24.75C15 24.9489 15.079 25.1397 15.2197 25.2803C15.3603 25.421 15.5511 25.5 15.75 25.5C15.9489 25.5 16.1397 25.421 16.2803 25.2803C16.421 25.1397 16.5 24.9489 16.5 24.75V6.75C16.4974 6.55189 16.4176 6.36263 16.2775 6.22253C16.1374 6.08244 15.9481 6.00259 15.75 6Z" fill="black"/>
</svg>
