<svg width="32" height="32" viewBox="0 0 32 32" fill="none" xmlns="http://www.w3.org/2000/svg">
<path d="M23.8381 19.3224L20.221 17.5139C20.0445 17.4265 19.8408 17.4122 19.6538 17.4739C19.4668 17.5356 19.3116 17.6684 19.2218 17.8436C19.1378 18.0217 19.1263 18.2254 19.1897 18.4118C19.2531 18.5983 19.3864 18.7528 19.5615 18.8428L21.8397 19.9819L19.5515 21.1509C19.3764 21.2409 19.2431 21.3954 19.1797 21.5819C19.1163 21.7683 19.1278 21.972 19.2118 22.1501C19.2746 22.2736 19.3704 22.3773 19.4886 22.4496C19.6068 22.5219 19.7427 22.5601 19.8813 22.5598C19.9995 22.5632 20.1166 22.5356 20.221 22.4799L23.8381 20.6713C23.9653 20.6117 24.0728 20.517 24.1482 20.3985C24.2235 20.2799 24.2636 20.1423 24.2636 20.0019C24.2636 19.8614 24.2235 19.7238 24.1482 19.6052C24.0728 19.4867 23.9653 19.392 23.8381 19.3324V19.3224Z" fill="black"/>
<path d="M17.713 14.1566C17.6185 14.1276 17.5192 14.1179 17.421 14.1279C17.3227 14.138 17.2274 14.1677 17.1408 14.2152C17.0542 14.2627 16.978 14.3271 16.9166 14.4045C16.8553 14.482 16.8101 14.5709 16.7838 14.6661L13.7862 24.8579C13.7572 24.9524 13.7475 25.0517 13.7576 25.15C13.7676 25.2483 13.7973 25.3435 13.8448 25.4301C13.8923 25.5168 13.9567 25.593 14.0341 25.6543C14.1116 25.7156 14.2005 25.7608 14.2958 25.7872C14.3654 25.7969 14.436 25.7969 14.5056 25.7872C14.6681 25.7888 14.8267 25.7369 14.9567 25.6394C15.0868 25.5418 15.1811 25.4041 15.225 25.2476L18.2226 15.0558C18.2694 14.8692 18.2425 14.6717 18.1476 14.5043C18.0528 14.3369 17.8972 14.2124 17.713 14.1566Z" fill="black"/>
<path d="M12.8169 17.8436C12.7271 17.6684 12.5719 17.5356 12.3849 17.4739C12.198 17.4122 11.9942 17.4265 11.8177 17.5139L8.19066 19.3224C8.06347 19.382 7.9559 19.4767 7.88055 19.5952C7.80519 19.7138 7.76517 19.8514 7.76517 19.9919C7.76517 20.1323 7.80519 20.2699 7.88055 20.3885C7.9559 20.507 8.06347 20.6017 8.19066 20.6613L11.8078 22.4699C11.9121 22.5256 12.0292 22.5532 12.1475 22.5498C12.285 22.551 12.4202 22.5144 12.5383 22.4439C12.6564 22.3734 12.7528 22.2718 12.8169 22.1501C12.9009 21.972 12.9124 21.7683 12.849 21.5819C12.7856 21.3954 12.6523 21.2409 12.4772 21.1509L10.199 19.9919L12.4772 18.8528C12.6549 18.7627 12.7901 18.6065 12.8536 18.4177C12.9171 18.2289 12.904 18.0227 12.8169 17.8436Z" fill="black"/>
<path d="M25.0771 14.6661H24.0079C24.0079 14.5562 24.0079 14.4463 24.0079 14.3364C24.051 12.3045 23.3345 10.3295 21.9987 8.79781C20.6628 7.26609 18.8037 6.28776 16.7847 6.05413C14.7658 5.82051 12.7323 6.34839 11.082 7.53455C9.43161 8.72071 8.28306 10.4798 7.86093 12.4679C6.58459 12.4965 5.35071 12.9318 4.33895 13.7104C3.32719 14.4889 2.59039 15.5702 2.23584 16.7966C1.88128 18.023 1.9275 19.3306 2.36775 20.529C2.80799 21.7273 3.61929 22.7539 4.68349 23.4591C4.76457 23.5208 4.85738 23.5653 4.95624 23.5899C5.05511 23.6145 5.15795 23.6187 5.25849 23.6022C5.35903 23.5857 5.45515 23.5489 5.54098 23.494C5.62682 23.4391 5.70056 23.3673 5.7577 23.283C5.81484 23.1986 5.85418 23.1035 5.87332 23.0034C5.89245 22.9034 5.89098 22.8005 5.869 22.701C5.84702 22.6015 5.80498 22.5075 5.74546 22.4248C5.68593 22.3422 5.61017 22.2725 5.52281 22.2201C4.73255 21.6757 4.13574 20.8942 3.81858 19.9885C3.50141 19.0828 3.4803 18.0998 3.75829 17.1813C4.03628 16.2628 4.59898 15.4565 5.36515 14.8787C6.13131 14.3009 7.06129 13.9815 8.0208 13.9667H8.45046C8.62984 13.9663 8.80311 13.9015 8.93879 13.7841C9.07447 13.6668 9.16355 13.5047 9.18986 13.3272C9.43349 11.6577 10.3013 10.1426 11.6182 9.08783C12.9351 8.03303 14.603 7.51696 16.2855 7.64375C17.9679 7.77053 19.5397 8.53074 20.6836 9.77099C21.8276 11.0112 22.4585 12.6392 22.4492 14.3264C22.4456 14.6609 22.4188 14.9948 22.3693 15.3256C22.3529 15.4319 22.3596 15.5404 22.3889 15.6439C22.4182 15.7473 22.4695 15.8432 22.5391 15.9251C22.6097 16.0069 22.6972 16.0725 22.7955 16.1173C22.8938 16.1622 23.0006 16.1852 23.1087 16.1849H25.0471C25.9553 16.1876 26.8255 16.5495 27.4676 17.1916C28.1098 17.8338 28.4717 18.704 28.4743 19.6122C28.4763 20.1389 28.3554 20.6588 28.1212 21.1306C27.8871 21.6023 27.5461 22.013 27.1254 22.33C26.9768 22.4531 26.8813 22.6288 26.859 22.8205C26.8366 23.0122 26.8891 23.2052 27.0055 23.3591C27.0748 23.4528 27.1652 23.5288 27.2694 23.5809C27.3736 23.633 27.4886 23.6597 27.605 23.6589C27.7692 23.6608 27.9286 23.6042 28.0547 23.499C28.8768 22.8755 29.4819 22.0091 29.7842 21.0226C30.0866 20.036 30.0708 18.9794 29.7392 18.0023C29.4076 17.0252 28.777 16.1772 27.9367 15.5784C27.0963 14.9797 26.0889 14.6605 25.0571 14.6661H25.0771Z" fill="black"/>
</svg>
