<svg width="32" height="32" viewBox="0 0 32 32" fill="none" xmlns="http://www.w3.org/2000/svg">
<path fill-rule="evenodd" clip-rule="evenodd" d="M24.9458 8.8068V2H5V27.6667H7.31928V30H27.2651V11.1401L24.9458 8.8068ZM20.7711 5.92653L24.9458 10.1265L25.6815 10.8667H20.7711V5.92653ZM5.92771 26.7333V2.93333H24.0181V7.87347L20.4993 4.33333H7.31928V26.7333H5.92771ZM8.24699 29.0667V27.6667V5.26667H19.8434V11.8H26.3374V29.0667H8.24699ZM23.0904 13.6667H11.494C11.2379 13.6667 11.0301 13.8753 11.0301 14.1333C11.0301 14.3914 11.2379 14.6 11.494 14.6H23.0904C23.3464 14.6 23.5542 14.3914 23.5542 14.1333C23.5542 13.8753 23.3464 13.6667 23.0904 13.6667ZM11.494 10.8667H16.1325C16.3886 10.8667 16.5964 10.6581 16.5964 10.4C16.5964 10.1419 16.3886 9.93333 16.1325 9.93333H11.494C11.2379 9.93333 11.0301 10.1419 11.0301 10.4C11.0301 10.6581 11.2379 10.8667 11.494 10.8667ZM23.0904 17.4H11.494C11.2379 17.4 11.0301 17.6086 11.0301 17.8667C11.0301 18.1247 11.2379 18.3333 11.494 18.3333H23.0904C23.3464 18.3333 23.5542 18.1247 23.5542 17.8667C23.5542 17.6086 23.3464 17.4 23.0904 17.4ZM23.0904 21.1333H11.494C11.2379 21.1333 11.0301 21.3419 11.0301 21.6C11.0301 21.8581 11.2379 22.0667 11.494 22.0667H23.0904C23.3464 22.0667 23.5542 21.8581 23.5542 21.6C23.5542 21.3419 23.3464 21.1333 23.0904 21.1333ZM23.0904 24.8667H11.494C11.2379 24.8667 11.0301 25.0753 11.0301 25.3333C11.0301 25.5914 11.2379 25.8 11.494 25.8H23.0904C23.3464 25.8 23.5542 25.5914 23.5542 25.3333C23.5542 25.0753 23.3464 24.8667 23.0904 24.8667Z" fill="black"/>
</svg>
