<svg width="32" height="32" viewBox="0 0 32 32" fill="none" xmlns="http://www.w3.org/2000/svg">
<path fill-rule="evenodd" clip-rule="evenodd" d="M16 3.50538C9.09941 3.50538 3.50538 9.09941 3.50538 16C3.50538 21.3588 6.87899 25.9297 11.6183 27.7047L18.9425 3.85385C17.9989 3.62606 17.0136 3.50538 16 3.50538ZM20.3817 4.29527L13.0575 28.1462C14.0011 28.3739 14.9864 28.4946 16 28.4946C22.9006 28.4946 28.4946 22.9006 28.4946 16C28.4946 10.6411 25.121 6.07025 20.3817 4.29527ZM2 16C2 8.26801 8.26801 2 16 2C23.732 2 30 8.26801 30 16C30 23.732 23.732 30 16 30C8.26801 30 2 23.732 2 16Z" fill="black"/>
<path d="M12.3871 19.8136H11.1828L8.17204 14.9964V19.8136H6.96774V12.9892H8.17204L11.1828 17.8064V12.9892H12.3871V19.8136Z" fill="black"/>
<path d="M23.7276 18.2079H21.0179L20.4158 19.8136H19.2115L21.8208 12.9892H22.9247L25.534 19.8136H24.3297L23.7276 18.2079ZM21.4194 17.3047H23.4265L22.4229 14.4946L21.4194 17.3047Z" fill="black"/>
</svg>
