<svg width="32" height="32" viewBox="0 0 32 32" fill="none" xmlns="http://www.w3.org/2000/svg">
<path d="M27.0766 10.1151L22.0766 5.1151C21.2766 4.3151 20.1766 3.9151 19.0766 4.0151C17.9766 4.1151 16.9766 4.7151 16.2766 5.6151L11.1766 12.6151C10.0766 12.3151 8.97664 12.2151 7.87664 12.5151L5.57664 13.0151C4.87664 13.2151 4.27664 13.7151 4.07664 14.5151C3.87664 15.3151 4.07664 16.0151 4.57664 16.5151L9.57664 21.5151L4.77664 26.3151C4.47664 26.6151 4.47664 27.1151 4.77664 27.4151C4.87664 27.5151 5.07664 27.6151 5.27664 27.6151C5.47664 27.6151 5.67664 27.5151 5.77664 27.4151L10.5766 22.6151L15.5766 27.6151C15.9766 28.0151 16.4766 28.2151 17.0766 28.2151C17.2766 28.2151 17.4766 28.2151 17.6766 28.1151C18.3766 27.9151 18.9766 27.3151 19.1766 26.6151L19.7766 24.3151C20.0766 23.2151 19.9766 22.1151 19.6766 21.0151L26.6766 15.9151C27.5766 15.2151 28.1766 14.2151 28.2766 13.1151C28.2766 12.0151 27.8766 10.9151 27.0766 10.1151ZM18.2766 24.0151L17.6766 26.3151C17.5766 26.6151 17.3766 26.7151 17.2766 26.7151C17.1766 26.7151 16.9766 26.8151 16.6766 26.6151L11.1766 21.0151L5.67664 15.5151C5.47664 15.3151 5.47664 15.0151 5.57664 14.9151C5.57664 14.8151 5.67664 14.6151 5.97664 14.5151L8.27664 13.9151C8.57664 13.8151 8.97664 13.8151 9.27664 13.8151C10.5766 13.8151 11.7766 14.3151 12.6766 15.2151L16.9766 19.5151C18.1766 20.6151 18.5766 22.4151 18.2766 24.0151ZM25.6766 14.7151L18.9766 19.6151C18.6766 19.2151 18.3766 18.8151 18.0766 18.4151L13.7766 14.1151C13.3766 13.8151 12.9766 13.5151 12.5766 13.2151L17.4766 6.4151C17.8766 5.9151 18.4766 5.5151 19.1766 5.5151C19.8766 5.4151 20.4766 5.7151 20.9766 6.2151L25.9766 11.2151C26.4766 11.7151 26.6766 12.3151 26.6766 13.0151C26.6766 13.7151 26.2766 14.3151 25.6766 14.7151Z" fill="black"/>
</svg>
