<svg width="32" height="32" viewBox="0 0 32 32" fill="none" xmlns="http://www.w3.org/2000/svg">
<path fill-rule="evenodd" clip-rule="evenodd" d="M25.0451 5.3415C22.5316 3.20746 19.3432 2 16.0004 2C8.28168 2 2.00073 8.28095 2.00073 15.9997C2.00073 17.6584 2.28829 19.2813 2.85541 20.8255C3.00318 21.2289 3.38526 21.4792 3.79263 21.4792C3.90712 21.4792 4.02427 21.4592 4.13743 21.4179C4.65396 21.2276 4.92021 20.6538 4.72984 20.1359C4.24393 18.8153 3.99764 17.4228 3.99764 15.9997C3.99764 9.38058 9.38131 3.99691 16.0004 3.99691C18.7415 3.99691 21.3641 4.94211 23.4728 6.62484H22.1975C21.6463 6.62484 21.199 7.07215 21.199 7.6233C21.199 8.17444 21.6463 8.62175 22.1975 8.62175H27.042V3.77725C27.042 3.2261 26.5947 2.77879 26.0435 2.77879C25.4924 2.77879 25.0451 3.2261 25.0451 3.77725V5.3415ZM15.9873 8.90558C18.132 8.90558 19.8773 10.6509 19.8773 12.7956V13.79H20.1396C20.9397 13.79 21.5893 14.4397 21.5893 15.2384V20.4317C21.5893 21.2318 20.9397 21.8815 20.1396 21.8815H11.8351C11.0363 21.8815 10.3867 21.2318 10.3867 20.4317V15.2384C10.3867 14.4397 11.0363 13.79 11.8351 13.79H12.0987V12.7956C12.0987 10.6509 13.844 8.90558 15.9873 8.90558ZM27.8905 10.638C28.4057 10.4516 28.9808 10.7165 29.1686 11.237C29.7197 12.7613 29.9993 14.3642 29.9993 15.999C29.9993 23.7191 23.7183 30 15.9996 30C12.5556 30 9.26203 28.7206 6.71397 26.4588V28.0257C6.71397 28.5769 6.26666 29.0242 5.71552 29.0242C5.16437 29.0242 4.71706 28.5769 4.71706 28.0257V23.0601H9.68138C10.2325 23.0601 10.6798 23.5074 10.6798 24.0585C10.6798 24.6097 10.2325 25.057 9.68138 25.057H8.14642C10.3164 26.9367 13.0948 28.0031 15.9996 28.0031C22.6187 28.0031 28.0024 22.6181 28.0024 15.999C28.0024 14.5945 27.7627 13.2206 27.2915 11.916C27.1037 11.3968 27.3713 10.8243 27.8905 10.638ZM19.5924 15.7869H12.3836V19.8846H19.5924V15.7869ZM14.0956 12.7956C14.0956 11.7518 14.945 10.9025 15.9873 10.9025C17.0311 10.9025 17.8804 11.7518 17.8804 12.7956V13.79H14.0956V12.7956Z" fill="black"/>
</svg>
