<svg width="32" height="32" viewBox="0 0 32 32" fill="none" xmlns="http://www.w3.org/2000/svg">
<path fill-rule="evenodd" clip-rule="evenodd" d="M16.4122 1.47498H30.5248V15.5875L15.3699 30.7424L1.25732 16.6299L16.4122 1.47498ZM16.8472 2.52498L2.74225 16.6299L15.3699 29.2575L29.4748 15.1526V2.52498H16.8472Z" fill="black"/>
<path fill-rule="evenodd" clip-rule="evenodd" d="M17.7045 10.5827C17.7045 8.53224 19.3667 6.87005 21.4171 6.87005C23.4675 6.87005 25.1297 8.53224 25.1297 10.5827C25.1297 12.6331 23.4675 14.2953 21.4171 14.2953C19.3667 14.2953 17.7045 12.6331 17.7045 10.5827ZM21.4171 7.87005C19.919 7.87005 18.7045 9.08453 18.7045 10.5827C18.7045 12.0808 19.919 13.2953 21.4171 13.2953C22.9152 13.2953 24.1297 12.0808 24.1297 10.5827C24.1297 9.08453 22.9152 7.87005 21.4171 7.87005Z" fill="black"/>
</svg>
