<svg width="32" height="32" viewBox="0 0 32 32" fill="none" xmlns="http://www.w3.org/2000/svg">
<path d="M7.656 2C8.1264 2 8.5072 2.3808 8.5072 2.8512V6.1216C10.4314 6.1216 12.043 7.48576 12.4362 9.29792H15.1981C16.1053 9.29792 16.8434 10.036 16.8434 10.9432V21.0658L19.5728 21.0378C19.6176 20.8149 19.6848 20.5909 19.7744 20.3792C19.808 20.2784 19.864 20.1776 19.9088 20.0768C19.9648 19.976 20.0096 19.8752 20.0768 19.7744C20.1104 19.7184 20.1552 19.6512 20.1888 19.5952C20.2448 19.5056 20.312 19.4272 20.3792 19.3488C20.8832 18.7216 21.5664 18.2512 22.3616 18.0272C22.4288 18.0048 22.4848 17.9824 22.552 17.9712C22.6304 17.9488 22.7088 17.9376 22.7872 17.9264C22.8768 17.904 22.9776 17.8928 23.0784 17.8816C23.2128 17.8704 23.3584 17.8592 23.4928 17.8592V14.5888C23.4928 14.1184 23.8736 13.7376 24.344 13.7376H29.1488C29.6192 13.7376 30 14.1184 30 14.5888V29.16C30 29.6192 29.6192 30 29.1488 30H24.344C23.8736 30 23.4928 29.6192 23.4928 29.16V25.8784C23.3584 25.8784 23.2128 25.8672 23.0784 25.856C22.9552 25.8448 22.8197 25.8224 22.6976 25.8C22.552 25.7664 22.4064 25.7328 22.2597 25.688C22.16 25.6544 22.0704 25.6208 21.9696 25.5872C21.4768 25.3744 21.0288 25.0832 20.6592 24.7024C20.5696 24.6128 20.48 24.5232 20.4016 24.4224C20.3232 24.3216 20.2448 24.2208 20.1664 24.1088C20.0096 23.8736 19.8752 23.6272 19.7744 23.3696C19.7296 23.2576 19.696 23.1568 19.6624 23.0448C19.6288 22.9339 19.5952 22.8219 19.5728 22.7099H16.8075C15.9003 22.7099 15.1634 21.973 15.1634 21.0658V10.9432L12.4384 10.969C12.0576 12.7968 10.4448 14.152 8.5072 14.152V17.4224C8.5072 17.8928 8.1264 18.2736 7.656 18.2736H2.8512C2.37968 18.2736 2 17.8928 2 17.4224V2.8512C2 2.3808 2.37968 2 2.8512 2H7.656ZM23.4928 19.5392C22.2048 19.5392 21.1632 20.5808 21.1632 21.8688C21.1632 23.1568 22.2048 24.1984 23.4928 24.1984C24.7797 24.1984 25.8336 23.1568 25.8336 21.8688C25.8336 20.5808 24.7797 19.5392 23.4928 19.5392ZM8.5072 7.8016C7.2192 7.8016 6.1776 8.8544 6.1776 10.1424C6.1776 11.4304 7.2192 12.472 8.5072 12.472C9.7952 12.472 10.848 11.4304 10.848 10.1424C10.848 8.8544 9.7952 7.8016 8.5072 7.8016Z" fill="black"/>
</svg>
