<svg width="32" height="32" viewBox="0 0 32 32" fill="none" xmlns="http://www.w3.org/2000/svg">
<path fill-rule="evenodd" clip-rule="evenodd" d="M28.65 12.3369H20.35V10.8315H28.65V12.3369Z" fill="black"/>
<path fill-rule="evenodd" clip-rule="evenodd" d="M28.65 21.1685H3.25V19.6631H28.65V21.1685Z" fill="black"/>
<path fill-rule="evenodd" clip-rule="evenodd" d="M19.6 29.2473V3.15412H21.1V29.2473H19.6Z" fill="black"/>
<path fill-rule="evenodd" clip-rule="evenodd" d="M10.8 28.7455V20.4158H12.3V28.7455H10.8Z" fill="black"/>
<path fill-rule="evenodd" clip-rule="evenodd" d="M5.75 3.50538C4.46421 3.50538 3.5 4.47305 3.5 5.76344V26.2366C3.5 27.527 4.46421 28.4946 5.75 28.4946H26.15C27.4353 28.4946 28.4137 27.5217 28.5 26.3118V5.76344C28.5 4.47305 27.5358 3.50538 26.25 3.50538H5.75ZM2 5.76344C2 3.64165 3.63579 2 5.75 2H26.25C28.3642 2 30 3.64165 30 5.76344V26.3369C30 26.3526 29.9995 26.3682 29.9985 26.3839C29.8745 28.3753 28.2569 30 26.15 30H5.75C3.63579 30 2 28.3584 2 26.2366V5.76344Z" fill="black"/>
<path fill-rule="evenodd" clip-rule="evenodd" d="M15.6475 10.4442L9.2547 6.43434C8.85091 6.17058 8.37307 6.19754 8.02321 6.3596C7.65469 6.53029 7.3 6.91461 7.3 7.46953V15.5986C7.3 16.5804 8.34541 17.1652 9.15649 16.6326L15.6501 12.5219L15.666 12.5116C16.4113 12.0129 16.4113 10.9548 15.666 10.4562C15.6628 10.454 15.6596 10.4519 15.6564 10.4498C15.6535 10.4479 15.6505 10.446 15.6475 10.4442Z" fill="black"/>
</svg>
