<svg width="32" height="32" viewBox="0 0 32 32" fill="none" xmlns="http://www.w3.org/2000/svg">
<path fill-rule="evenodd" clip-rule="evenodd" d="M20.71 17.92C20.3 19.2 19.41 20.37 18.64 20.88C17.95 21.34 17.84 22 18.23 22.5C18.31 22.59 18.38 22.66 18.48 22.73C18.48 22.73 19.2 23.1 20.16 23.59L21.12 23.36C21.39 23.3 21.63 23.2 21.86 23.09L19.4 21.79C20.35 21.1 21.34 19.77 21.81 18.3C22.02 17.64 22.14 16.76 22.2 15.69C22.25 14.85 22.25 14.03 22.22 12.99V12.87C22.22 12.73 22.21 12.51 22.21 12.45C22.19 11.34 21.42 9.9 20.45 9.02C19.02 7.72 17.7 6.98 15.89 6.98C14.07 6.98 12.75 7.72 11.32 9.02C10.37 9.9 9.6 11.35 9.58 12.46C9.58 12.52 9.57 12.75 9.57 12.89V13C9.55 14.04 9.55 14.85 9.59 15.7C9.65 16.77 9.77 17.65 9.98 18.31C10.45 19.78 11.44 21.11 12.39 21.8L8.38 24.04C5.74 21.87 4.06 18.58 4.06 14.9C4.06 8.38 9.37 3.07 15.89 3.07C22.41 3.07 27.72 8.38 27.72 14.9C27.72 18.09 26.45 20.98 24.39 23.11C24.62 23.22 24.85 23.31 25.11 23.37L25.51 23.47C27.54 21.19 28.78 18.19 28.78 14.9C28.79 7.79 23.01 2 15.9 2C8.79 2 3 7.79 3 14.9C3 22.01 8.79 27.8 15.9 27.8C17.27 27.8 18.59 27.58 19.83 27.19C19.75 26.83 19.7 26.46 19.68 26.11C18.49 26.51 17.23 26.74 15.91 26.74C13.5 26.74 11.26 26.01 9.38 24.77L13.29 22.76L13.36 22.72C13.43 22.67 13.5 22.61 13.58 22.51C13.97 22.02 13.87 21.35 13.17 20.89C12.4 20.38 11.5 19.21 11.1 17.93C10.92 17.38 10.81 16.58 10.76 15.6C10.72 14.79 10.71 13.98 10.74 12.97C10.74 12.97 10.75 12.51 10.75 12.41C10.76 11.66 11.38 10.51 12.12 9.83C13.36 8.71 14.46 8.09 15.91 8.09C17.36 8.09 18.46 8.71 19.69 9.83C20.43 10.5 21.05 11.66 21.06 12.4C21.06 12.5 21.07 12.96 21.07 12.96C21.09 13.98 21.09 14.78 21.05 15.59C21 16.58 20.89 17.38 20.71 17.92Z" fill="black"/>
<path fill-rule="evenodd" clip-rule="evenodd" d="M26.02 24.07C24.86 24.02 23.92 23.67 23.13 22.97C22.33 23.66 21.4 24.02 20.24 24.07C20.24 24.19 20.24 24.31 20.23 24.44C20.19 26.54 20.14 28.91 23.13 30C26.12 28.92 26.07 26.54 26.03 24.44C26.03 24.31 26.02 24.19 26.02 24.07ZM24.54 25.85L22.93 27.46C22.87 27.52 22.8 27.55 22.72 27.55C22.65 27.55 22.57 27.52 22.51 27.46L21.71 26.66C21.6 26.55 21.6 26.36 21.71 26.25C21.82 26.14 22.01 26.14 22.12 26.25L22.72 26.85L24.12 25.45C24.23 25.34 24.42 25.34 24.53 25.45C24.65 25.55 24.65 25.73 24.54 25.85Z" fill="black"/>
</svg>
