<svg width="32" height="32" viewBox="0 0 32 32" fill="none" xmlns="http://www.w3.org/2000/svg">
<path d="M27.1759 10.2324L19.7505 2.80696C19.2488 2.30524 18.5463 2.00421 17.7436 2.00421H8.81305C6.70584 1.90387 5 3.6097 5 5.71691V26.187C5 28.2942 6.70584 30 8.81305 30H24.1656C26.2728 30 27.9786 28.2942 27.9786 26.187V12.1389C27.9786 11.4365 27.6776 10.7341 27.1759 10.2324ZM26.0721 11.2358C26.1724 11.3361 26.2728 11.4365 26.2728 11.5368H19.5498C18.8474 11.5368 18.2453 10.9348 18.2453 10.2324V3.6097C18.3457 3.71005 18.446 3.71005 18.5463 3.81039L26.0721 11.2358ZM24.1656 28.4949H8.81305C7.50858 28.4949 6.50515 27.4914 6.50515 26.187V5.71691C6.50515 4.41245 7.50858 3.40902 8.81305 3.40902H16.7402V10.3327C16.7402 11.8379 18.0446 13.1423 19.5498 13.1423H26.4735V26.187C26.4735 27.4914 25.47 28.4949 24.1656 28.4949Z" fill="black"/>
</svg>
