<svg width="32" height="32" viewBox="0 0 32 32" fill="none" xmlns="http://www.w3.org/2000/svg">
<path d="M26.2001 11.3H17V17.3H26.2001V11.3Z" fill="black"/>
<path fill-rule="evenodd" clip-rule="evenodd" d="M16.25 11.3C16.25 10.8858 16.5858 10.55 17 10.55H26.2001C26.6143 10.55 26.9501 10.8858 26.9501 11.3V17.3C26.9501 17.7142 26.6143 18.05 26.2001 18.05H17C16.5858 18.05 16.25 17.7142 16.25 17.3V11.3ZM17.75 12.05V16.55H25.4501V12.05H17.75Z" fill="black"/>
<path fill-rule="evenodd" clip-rule="evenodd" d="M18.35 8.8C18.35 6.98579 19.7858 5.55 21.6 5.55C23.4143 5.55 24.85 6.98579 24.85 8.8V11.3C24.85 11.7142 24.5143 12.05 24.1 12.05C23.6858 12.05 23.35 11.7142 23.35 11.3V8.8C23.35 7.81422 22.5858 7.05 21.6 7.05C20.6143 7.05 19.85 7.81422 19.85 8.8V11.3C19.85 11.7142 19.5143 12.05 19.1 12.05C18.6858 12.05 18.35 11.7142 18.35 11.3V8.8Z" fill="black"/>
<path fill-rule="evenodd" clip-rule="evenodd" d="M5.80005 11.85C6.21426 11.85 6.55005 12.1858 6.55005 12.6V15.4C6.55005 19.9858 10.3143 23.75 14.9 23.75C17.551 23.75 19.938 22.4713 21.5066 20.4414C21.7599 20.1137 22.2309 20.0533 22.5586 20.3065C22.8864 20.5598 22.9468 21.0308 22.6935 21.3586C20.8621 23.7287 18.0491 25.25 14.9 25.25C9.48583 25.25 5.05005 20.8142 5.05005 15.4V12.6C5.05005 12.1858 5.38584 11.85 5.80005 11.85Z" fill="black"/>
<path fill-rule="evenodd" clip-rule="evenodd" d="M14.5 3.55C12.0143 3.55 10.05 5.51422 10.05 8V15.7C10.05 18.1858 12.0143 20.15 14.5 20.15H15.2C15.5455 20.15 15.8197 20.0939 16.2255 20.0108C16.2969 19.9962 16.3723 19.9807 16.453 19.9646C16.8591 19.8833 17.2543 20.1467 17.3355 20.5529C17.4167 20.9591 17.1533 21.3542 16.7471 21.4354C16.6818 21.4485 16.6159 21.4622 16.5491 21.476C16.1446 21.5599 15.7097 21.65 15.2 21.65H14.5C11.1858 21.65 8.55005 19.0142 8.55005 15.7V8C8.55005 4.68579 11.1858 2.05 14.5 2.05H15.2C16.2151 2.05 17.1461 2.27678 17.9722 2.74882C18.3318 2.95433 18.4567 3.41247 18.2512 3.77211C18.0457 4.13175 17.5876 4.25669 17.2279 4.05119C16.654 3.72323 15.985 3.55 15.2 3.55H14.5Z" fill="black"/>
<path fill-rule="evenodd" clip-rule="evenodd" d="M14.05 29.2V24.4H15.55V29.2H14.05Z" fill="black"/>
<path fill-rule="evenodd" clip-rule="evenodd" d="M8.55005 29.2C8.55005 28.7858 8.88584 28.45 9.30005 28.45H20.4C20.8143 28.45 21.15 28.7858 21.15 29.2C21.15 29.6142 20.8143 29.95 20.4 29.95H9.30005C8.88584 29.95 8.55005 29.6142 8.55005 29.2Z" fill="black"/>
</svg>
