<svg width="32" height="32" viewBox="0 0 32 32" fill="none" xmlns="http://www.w3.org/2000/svg">
<path fill-rule="evenodd" clip-rule="evenodd" d="M16.0828 2.15687L15.6229 2.75269L15.1696 2.15181C15.4403 1.94753 15.8143 1.94961 16.0828 2.15687ZM22.0544 16.5853C22.0813 16.206 22.096 15.8101 22.096 15.3978C22.096 11.1006 20.6008 7.7958 19.1082 5.57003C18.3624 4.45781 17.6156 3.6123 17.052 3.04211C16.77 2.75679 16.5331 2.53971 16.3642 2.39196C16.2797 2.31806 16.2122 2.26144 16.1643 2.22223C16.1404 2.20262 16.1214 2.18736 16.1077 2.17646L16.0912 2.16339L16.0859 2.15931L16.0841 2.15788C16.0838 2.15765 16.0828 2.15687 15.6229 2.75269C15.1696 2.15181 15.1699 2.15157 15.1696 2.15181L15.1682 2.15283L15.1663 2.15425L15.161 2.1583L15.1443 2.17121C15.1305 2.18196 15.1114 2.19698 15.0874 2.21627C15.0393 2.25485 14.9715 2.31053 14.8868 2.38326C14.7174 2.52865 14.4801 2.74244 14.1976 3.02411C13.633 3.58705 12.8853 4.42384 12.1387 5.53069C10.644 7.74651 9.14975 11.0518 9.14975 15.3978C9.14975 15.7848 9.16267 16.1573 9.18653 16.5153C7.08848 18.0274 6.33141 20.1909 6.09562 21.9331C5.97397 22.832 5.9877 23.6361 6.03136 24.2154C6.05326 24.5059 6.08287 24.7423 6.10754 24.9088C6.11989 24.9921 6.13103 25.0581 6.1394 25.1047C6.14359 25.1281 6.14709 25.1466 6.1497 25.1601L6.15294 25.1765L6.15401 25.1819L6.15441 25.1838C6.15448 25.1841 6.1547 25.1852 6.89169 25.0323L6.1547 25.1852C6.20286 25.4172 6.35747 25.613 6.57201 25.7137C6.78654 25.8143 7.03595 25.8081 7.24516 25.6968L11.809 23.2692C11.8421 23.2737 11.8757 23.276 11.9096 23.276H19.3361C19.3404 23.276 19.3447 23.2759 19.3489 23.2759L23.9002 25.6968C24.1094 25.8081 24.3588 25.8143 24.5734 25.7137C24.7879 25.613 24.9425 25.4172 24.9907 25.1852L24.2537 25.0323C24.9907 25.1852 24.9906 25.1856 24.9907 25.1852L24.991 25.1838L24.9914 25.1819L24.9924 25.1765L24.9957 25.1601C24.9973 25.1517 24.9993 25.1413 25.0016 25.129C25.0029 25.1216 25.0044 25.1135 25.006 25.1047C25.0144 25.0581 25.0255 24.9921 25.0378 24.9088C25.0625 24.7423 25.0921 24.5059 25.114 24.2154C25.1577 23.6361 25.1714 22.832 25.0498 21.9331C24.8176 20.2176 24.08 18.0936 22.0544 16.5853ZM21.8231 18.3736C21.6202 19.4371 21.3285 20.3206 21.0334 21.0215C20.8387 21.4839 20.6428 21.8661 20.4705 22.1674L23.6287 23.8472C23.6515 23.3757 23.6455 22.7817 23.558 22.135C23.3894 20.8893 22.9269 19.4933 21.8231 18.3736ZM18.9497 21.7706C18.9694 21.7405 18.9904 21.7079 19.0124 21.6728C19.1809 21.4047 19.4123 20.9923 19.646 20.4373C20.1127 19.329 20.5906 17.6466 20.5906 15.3978C20.5906 12.5526 19.8759 10.1861 18.9627 8.32258H12.2614C11.359 10.1764 10.6551 12.5381 10.6551 15.3978C10.6551 17.6466 11.1331 19.329 11.5997 20.4373C11.8334 20.9923 12.0648 21.4047 12.2333 21.6728C12.2554 21.7079 12.2763 21.7405 12.296 21.7706H18.9497ZM11.701 22.6971C11.7605 22.6476 11.8295 22.5901 11.9096 22.5233L11.701 22.6971ZM10.7519 22.1264C10.5854 21.8317 10.3983 21.4632 10.2123 21.0215C9.9095 20.3023 9.61027 19.3906 9.4069 18.2896C8.24192 19.423 7.76023 20.858 7.5874 22.135C7.49987 22.7817 7.49391 23.3757 7.51672 23.8472L10.7519 22.1264ZM13.0972 6.8172H18.1234C18.0352 6.67686 17.9466 6.54061 17.8579 6.40846C17.1737 5.38807 16.4904 4.6153 15.9814 4.10036C15.8469 3.96435 15.7248 3.84652 15.6184 3.74707C15.5132 3.84379 15.3928 3.95818 15.2605 4.09013C14.7525 4.59665 14.0701 5.35932 13.3866 6.37253C13.29 6.51579 13.1934 6.66401 13.0972 6.8172ZM15.6229 12.3369C14.7638 12.3369 14.0673 13.0334 14.0673 13.8925C14.0673 14.7516 14.7638 15.448 15.6229 15.448C16.482 15.448 17.1784 14.7516 17.1784 13.8925C17.1784 13.0334 16.482 12.3369 15.6229 12.3369ZM12.5619 13.8925C12.5619 12.202 13.9324 10.8315 15.6229 10.8315C17.3134 10.8315 18.6838 12.202 18.6838 13.8925C18.6838 15.583 17.3134 16.9534 15.6229 16.9534C13.9324 16.9534 12.5619 15.583 12.5619 13.8925ZM12.49 22.0441C12.4903 22.0444 12.49 22.0441 12.4894 22.0433L12.49 22.0441ZM12.4114 24.7814C12.8271 24.7814 13.1641 25.1184 13.1641 25.534V27.8423C13.1641 28.258 12.8271 28.595 12.4114 28.595C11.9957 28.595 11.6587 28.258 11.6587 27.8423V25.534C11.6587 25.1184 11.9957 24.7814 12.4114 24.7814ZM15.6229 24.7814C16.0386 24.7814 16.3756 25.1184 16.3756 25.534V29.2473C16.3756 29.663 16.0386 30 15.6229 30C15.2072 30 14.8702 29.663 14.8702 29.2473V25.534C14.8702 25.1184 15.2072 24.7814 15.6229 24.7814ZM18.734 24.7814C19.1497 24.7814 19.4867 25.1184 19.4867 25.534V27.8423C19.4867 28.258 19.1497 28.595 18.734 28.595C18.3183 28.595 17.9813 28.258 17.9813 27.8423V25.534C17.9813 25.1184 18.3183 24.7814 18.734 24.7814Z" fill="black"/>
</svg>
