<svg width="32" height="32" viewBox="0 0 32 32" fill="none" xmlns="http://www.w3.org/2000/svg">
<path fill-rule="evenodd" clip-rule="evenodd" d="M21.0398 2.56006H9.83984V16H10.9598V3.68006H19.9198V12.6401H28.8798V28.3201H10.9598V26.08H9.83984V29.4401H29.9998V11.5201H29.9398V11.313L21.247 2.62006H21.0398V2.56006ZM21.0398 3.82717V11.5201H28.7327L21.0398 3.82717Z" fill="black"/>
<path fill-rule="evenodd" clip-rule="evenodd" d="M26.64 16H2V26.08H26.64V16ZM12.0801 17.12V24.96H16.5601V23.84H13.2001V17.12H12.0801ZM22.6192 23.2351H18.3408V24.6463H22.6192V23.2351ZM22.6191 21.8127H24.0415V23.2239H22.6191V21.8127ZM22.6192 20.4015H19.7632V18.9904H18.3408V20.4016L19.7632 20.4015L19.7632 21.8127L22.6191 21.8127L22.6192 20.4015ZM19.7632 17.5791L19.7632 18.9904L24.0415 18.9903V17.5791H19.7632ZM6.939 18.9903V17.5791L4.09424 17.5792V18.9904L5.51664 18.9903L5.5166 20.4016H6.939V18.9903ZM11.2178 17.5791H8.37305V18.9903H9.79541H11.2178V17.5791ZM8.36185 18.9904L6.939 18.9903V20.4016L6.93945 21.8127H8.36185V18.9904ZM8.37305 18.9903H9.79541L9.79545 20.4016H8.37305V18.9903ZM11.2178 23.2351V24.6463H8.37305V23.2351H11.2178ZM4.09424 23.2351V24.6463H6.939V23.2351H4.09424ZM8.37305 21.8127H9.79545V23.2239H8.37305V21.8127ZM8.36185 21.8127H6.93945V23.2239H8.36185V21.8127ZM6.93945 21.8127L5.5166 21.8127V23.2239H6.93945V21.8127Z" fill="black"/>
</svg>
