<svg width="32" height="32" viewBox="0 0 32 32" fill="none" xmlns="http://www.w3.org/2000/svg">
<path fill-rule="evenodd" clip-rule="evenodd" d="M4.7451 10.5365C4.06053 10.5365 3.49733 11.0998 3.49733 11.7843V27.057C3.49733 27.7416 4.06053 28.3048 4.7451 28.3048H27.205C27.8896 28.3048 28.4528 27.7416 28.4528 27.057V17.0749C28.4528 16.6614 28.788 16.3262 29.2014 16.3262C29.6149 16.3262 29.9501 16.6614 29.9501 17.0749V27.057C29.9501 28.5686 28.7165 29.8021 27.205 29.8021H4.7451C3.23358 29.8021 2 28.5686 2 27.057V11.7843C2 10.2728 3.23358 9.03922 4.7451 9.03922H13.5294C13.9429 9.03922 14.2781 9.3744 14.2781 9.78788C14.2781 10.2014 13.9429 10.5365 13.5294 10.5365H4.7451Z" fill="black"/>
<path fill-rule="evenodd" clip-rule="evenodd" d="M2.85581 10.3273C3.10919 10.0006 3.57948 9.9411 3.90621 10.1945L13.6887 17.7809C13.6923 17.7837 13.6958 17.7864 13.6992 17.7892C13.7015 17.791 13.7037 17.7928 13.7059 17.7946C15.1188 18.9582 16.9257 18.9751 18.4602 17.7816C18.7865 17.5277 19.2569 17.5865 19.5107 17.9129C19.7646 18.2393 19.7058 18.7097 19.3794 18.9635C17.3233 20.5627 14.7426 20.5818 12.7628 18.9576L2.98862 11.3777C2.66188 11.1243 2.60242 10.654 2.85581 10.3273Z" fill="black"/>
<path d="M23.2121 3C19.5187 3 16.4242 5.99465 16.4242 9.78788C16.4242 13.4813 19.4189 16.5758 23.2121 16.5758C26.9055 16.5758 30 13.5811 30 9.78788C30 5.99465 27.0053 3 23.2121 3ZM23.3119 5.59537C23.7112 5.59537 24.0107 5.99465 24.0107 6.39394V9.48841C24.0107 9.8877 23.7112 10.287 23.2121 10.287C22.8128 10.287 22.4135 9.98752 22.4135 9.48841V6.39394C22.4135 6 22.7226 5.59537 23.3119 5.59537ZM23.2121 13.2816C22.6132 13.2816 22.2139 12.7825 22.2139 12.2834C22.2139 11.7843 22.6132 11.2852 23.2121 11.2852C23.7112 11.2852 24.2103 11.7843 24.2103 12.2834C24.2103 12.7825 23.8111 13.2816 23.2121 13.2816Z" fill="black"/>
</svg>
