<svg width="32" height="32" viewBox="0 0 32 32" fill="none" xmlns="http://www.w3.org/2000/svg">
<path fill-rule="evenodd" clip-rule="evenodd" d="M1.5 9.95281H17.2897V15.2066H16.2897V10.9528H2.5V19.4604H5.69741V20.4604H1.5V9.95281Z" fill="black"/>
<path fill-rule="evenodd" clip-rule="evenodd" d="M6.75382 16.263H22.5999V26.8271H6.75382V16.263ZM21.5435 25.7707V17.3194H7.81023V25.7707H21.5435Z" fill="black"/>
<path fill-rule="evenodd" clip-rule="evenodd" d="M19.6138 8.33999L22.4274 5.52644L21.7203 4.81934L18.1996 8.33999L18.6049 8.74531L21.7203 11.8606L22.4274 11.1535L19.6138 8.33999Z" fill="black"/>
<path fill-rule="evenodd" clip-rule="evenodd" d="M26.8329 16.6145L24.0193 13.8019L23.3123 14.5091L26.8329 18.0285L30.3535 14.5091L29.6465 13.8019L26.8329 16.6145Z" fill="black"/>
<path fill-rule="evenodd" clip-rule="evenodd" d="M21.8491 7.70966C23.4859 7.84606 25.5291 8.39911 26.7133 10.1754L26.721 10.1869C28.0389 12.2873 28.0387 14.9566 26.7208 17.057L25.8738 16.5255C26.9865 14.7521 26.9877 12.4989 25.8775 10.7244C24.9482 9.33589 23.2964 8.83373 21.7661 8.70621C21.011 8.64328 20.3154 8.67464 19.8075 8.72226C19.5542 8.746 19.3493 8.77362 19.2091 8.79505C19.139 8.80575 19.0852 8.81489 19.0497 8.82119L19.0106 8.82834L19.0018 8.83002L19.0003 8.83032C19.0003 8.83032 19.0005 8.83027 18.9025 8.33998C18.8044 7.84969 18.8048 7.84962 18.8048 7.84962L18.8066 7.84925L18.8108 7.84844L18.8248 7.84576C18.8366 7.84352 18.8534 7.84041 18.8749 7.8366C18.9178 7.82897 18.9795 7.81851 19.058 7.80652C19.2149 7.78255 19.4392 7.7524 19.7141 7.72662C20.2626 7.6752 21.0196 7.64053 21.8491 7.70966Z" fill="black"/>
</svg>
