<svg width="32" height="32" viewBox="0 0 32 32" fill="none" xmlns="http://www.w3.org/2000/svg">
<path fill-rule="evenodd" clip-rule="evenodd" d="M8.85138 4.29768V7.13284H7.94814V3.40002H30V17.434H26.244V16.5363H29.0968V4.29768H8.85138ZM12.5745 22.8966H13.4778V27.7024H20.296V28.6H5.75618V27.7024H12.5745V22.8966ZM11.4949 18.8028L15.4786 16.3283L11.4949 13.854V18.8028ZM10.5917 13.0443C10.5917 12.6918 10.9818 12.4769 11.2826 12.6637L16.5701 15.9477C16.8532 16.1235 16.8532 16.5331 16.5701 16.7089L11.2826 19.9932C10.9818 20.1801 10.5917 19.9652 10.5917 19.6126V13.0443ZM2 23.3455V9.31155H24.0519V23.3455H2ZM2.90323 22.4479H23.1486V10.2092H2.90323V22.4479ZM24.093 27.0804C23.9084 27.2854 23.5899 27.2943 23.3942 27.0999L3.04831 6.8805C2.86584 6.69916 2.85761 6.4066 3.0296 6.2153C3.21419 6.00997 3.53309 6.001 3.72893 6.19563L24.0744 26.4154C24.2569 26.5967 24.265 26.8892 24.093 27.0804Z" fill="black"/>
</svg>
