<svg width="32" height="32" viewBox="0 0 32 32" fill="none" xmlns="http://www.w3.org/2000/svg">
<path fill-rule="evenodd" clip-rule="evenodd" d="M28.7732 5.75882C30.0512 7.08106 30.3451 9.86923 29.5871 13.0445C28.7529 16.5392 26.7633 20.1369 23.7879 23.1636C20.7695 26.1333 17.1717 28.1231 13.6752 28.9575C10.5 29.7153 7.71063 29.4221 6.38793 28.1456L4.72602 26.4787C4.04929 25.8056 4.04777 24.7081 4.7218 24.0254C4.75277 23.9945 4.75277 23.9945 4.89212 23.8553C5.07794 23.6697 5.07794 23.6697 5.34122 23.4068C5.80586 22.9428 6.27067 22.4788 6.70476 22.0458C7.37763 21.3745 7.91057 20.8435 8.25748 20.4988C9.51969 19.2427 11.6439 19.354 12.9934 20.7065L13.8305 21.5427C14.7308 22.4471 17.1039 21.6197 19.6769 19.0459C22.2539 16.4645 23.0748 14.1053 22.1684 13.1903L21.3404 12.3622C19.9843 11.009 19.8719 8.88198 21.1301 7.6268C21.4761 7.27996 22.0082 6.74746 22.6762 6.07934C23.1125 5.64293 23.5774 5.17808 24.0424 4.71332C24.3058 4.44997 24.3058 4.44997 24.4918 4.26409C24.6313 4.12468 24.6313 4.12468 24.66 4.09602C25.3306 3.41798 26.4398 3.41798 27.1055 4.09353L28.7732 5.75882ZM26.3112 4.88257C26.0806 4.64861 25.6882 4.64861 25.4537 4.88563C25.4227 4.91659 25.4227 4.91659 25.2833 5.05597C25.0973 5.24182 25.0973 5.24182 24.8339 5.50514C24.369 5.96984 23.9042 6.43463 23.4703 6.86856C22.8002 7.53879 22.2684 8.07105 21.9218 8.41847C21.1209 9.21741 21.1959 10.6363 22.1317 11.5701L22.962 12.4005C24.4582 13.911 23.4272 16.8738 20.469 19.8372C17.5123 22.7948 14.5317 23.834 13.0381 22.3337L12.2015 21.4979C11.2708 20.5652 9.85263 20.4909 9.04693 21.2927C8.70038 21.6371 8.16787 22.1677 7.49973 22.8342C7.06155 23.2713 6.59685 23.7352 6.13233 24.199C5.86911 24.4619 5.86911 24.4619 5.68334 24.6474C5.54404 24.7866 5.54404 24.7866 5.51581 24.8147C5.2767 25.0569 5.27725 25.4478 5.51723 25.6865L7.1731 27.3475C8.1522 28.2923 10.5731 28.5467 13.4153 27.8685C16.7137 27.0813 20.1297 25.192 22.996 22.372C25.822 19.4974 27.7112 16.0813 28.4981 12.7845C29.1757 9.94579 28.9221 7.52872 27.9784 6.54733L26.3112 4.88257ZM8.74377 16.1163L9.39287 16.1169C9.39677 12.7384 12.2999 9.99841 15.8842 9.99468L15.8836 9.37316C11.9432 9.3772 8.74799 12.3931 8.74377 16.1163ZM15.4875 3.2656V2.62939C8.03959 2.62939 2 8.66698 2 16.1169H2.62733C2.62733 9.02039 8.384 3.2656 15.4875 3.2656ZM15.4869 5.80293C9.7947 5.80937 5.17988 10.422 5.17354 16.1163L5.80823 16.1169C5.81426 10.7796 10.1435 6.45265 15.4875 6.44653L15.4869 5.80293Z" fill="black"/>
</svg>
