<svg width="32" height="32" viewBox="0 0 32 32" fill="none" xmlns="http://www.w3.org/2000/svg">
<path fill-rule="evenodd" clip-rule="evenodd" d="M2 5.8363C2 3.72961 3.72961 2 5.8363 2H19.7865C20.5142 2 21.195 2.30186 21.8096 2.9164L29.1506 10.2574C29.7695 10.7541 30 11.5958 30 12.2135V26.1637C30 28.2704 28.2704 30 26.1637 30H5.8363C3.72961 30 2 28.2704 2 26.1637V5.8363ZM5.8363 3.49466C4.55509 3.49466 3.49466 4.55509 3.49466 5.8363V26.1637C3.49466 27.4449 4.55509 28.5053 5.8363 28.5053H26.1637C27.4449 28.5053 28.5053 27.4449 28.5053 26.1637V12.2135C28.5053 11.8503 28.3489 11.5233 28.2064 11.4164C28.1781 11.3952 28.1514 11.372 28.1264 11.3469L20.7527 3.97328C20.3708 3.59138 20.0552 3.49466 19.7865 3.49466H5.8363Z" fill="black"/>
<path fill-rule="evenodd" clip-rule="evenodd" d="M19.5872 2C19.9999 2 20.3345 2.33459 20.3345 2.74733V10.3203C20.3345 11.0036 20.8967 11.5658 21.5801 11.5658H29.153C29.5658 11.5658 29.9004 11.9004 29.9004 12.3132C29.9004 12.7259 29.5658 13.0605 29.153 13.0605H21.5801C20.0712 13.0605 18.8399 11.8291 18.8399 10.3203V2.74733C18.8399 2.33459 19.1744 2 19.5872 2Z" fill="black"/>
<path d="M10.8185 19.7865L12.0142 17.5943H13.5089L11.6157 20.7829L13.5089 24.0712H11.9146L10.6192 21.7794L9.32384 24.0712H8.02847L9.92171 20.7829L8.02847 17.5943H9.52313L10.8185 19.7865Z" fill="black"/>
<path d="M15.7011 22.9751H18.5907V24.0712H14.4057V17.5943H15.7011V22.9751Z" fill="black"/>
<path d="M22.6762 22.3772C22.6762 22.0783 22.5765 21.9786 22.3772 21.7794C22.1779 21.6797 21.879 21.4804 21.3808 21.3808C20.8826 21.1815 20.5836 21.0818 20.2847 20.9822C19.5872 20.5836 19.1886 20.0854 19.1886 19.3879C19.1886 18.9893 19.2883 18.6904 19.4875 18.4911C19.6868 18.1922 19.9858 17.9929 20.3843 17.8932C20.7829 17.6939 21.1815 17.6939 21.6797 17.6939C22.1779 17.6939 22.5765 17.7936 22.8754 17.9929C23.274 18.1922 23.4733 18.3915 23.6726 18.6904C23.8719 18.9893 23.9715 19.3879 23.9715 19.6868H22.6762C22.6762 19.3879 22.5765 19.1886 22.3772 18.9893C22.1779 18.79 21.879 18.79 21.5801 18.79C21.2811 18.79 20.9822 18.8897 20.7829 18.9893C20.5836 19.089 20.484 19.2883 20.484 19.4875C20.484 19.6868 20.5836 19.8861 20.7829 19.9858C20.9822 20.0854 21.2811 20.2847 21.6797 20.3843C22.4769 20.5836 22.9751 20.8826 23.3737 21.2811C23.7722 21.5801 23.8719 22.0783 23.8719 22.5765C23.8719 23.1744 23.6726 23.573 23.274 23.8719C22.8754 24.1708 22.2776 24.3701 21.5801 24.3701C21.0819 24.3701 20.5836 24.2705 20.1851 24.0712C19.7865 23.8719 19.4875 23.6726 19.2883 23.274C19.089 22.9751 18.9893 22.5765 18.9893 22.1779H20.2847C20.2847 22.8754 20.6833 23.274 21.5801 23.274C21.879 23.274 22.1779 23.1744 22.2776 23.0747C22.5765 22.7758 22.6762 22.5765 22.6762 22.3772Z" fill="black"/>
</svg>
