<svg width="32" height="32" viewBox="0 0 32 32" fill="none" xmlns="http://www.w3.org/2000/svg">
<path fill-rule="evenodd" clip-rule="evenodd" d="M22.27 14.6725H13.1L7.96 6.11246C7.96 6.11246 7.59 5.39246 7.12 5.01246C6.09 4.18246 4.42 3.81246 2 4.09246L2.14 5.26246C4.27 5.01246 5.62 5.31246 6.39 5.92246C6.69 6.17246 6.85 6.50246 6.85 6.50246L12.09 15.2625L6.85 24.5625C6.85 24.5625 6.69 24.8925 6.39 25.1325C5.63 25.7425 4.27 26.0425 2.14 25.7925L2 26.9825C4.42 27.2625 6.09 26.8925 7.12 26.0625C7.6 25.6825 7.96 24.9525 7.96 24.9525L13.11 15.8425H22.27V18.0325L30 15.2625L22.27 12.4825V14.6725Z" fill="black"/>
</svg>
