<svg width="32" height="32" viewBox="0 0 32 32" fill="none" xmlns="http://www.w3.org/2000/svg">
<path fill-rule="evenodd" clip-rule="evenodd" d="M13.4436 4.75565C13.9972 5.30925 14.331 5.99942 14.4449 6.71771C14.5074 6.70427 14.5721 6.69719 14.6385 6.69719H29.0841C29.5899 6.69719 30 7.10369 30 7.61302C30 8.11882 29.5895 8.52885 29.0841 8.52885H14.6385C14.5149 8.52885 14.397 8.50457 14.2894 8.46044C14.1179 8.95137 13.8359 9.41231 13.4436 9.80466C12.0493 11.1989 9.78882 11.1989 8.39457 9.80466C8.02051 9.43059 7.7468 8.99417 7.57345 8.52885H2.91686C2.41049 8.52885 2 8.12234 2 7.61302C2 7.10722 2.41248 6.69719 2.91686 6.69719H7.39653C7.51357 5.98628 7.84625 5.30397 8.39457 4.75565C9.78882 3.3614 12.0493 3.3614 13.4436 4.75565ZM20.8263 18.4371C22.2205 19.8313 24.4811 19.8313 25.8753 18.4371C26.3185 17.9939 26.6208 17.4632 26.7822 16.9006C26.8794 16.9355 26.9841 16.9545 27.0934 16.9545H29.0845C29.591 16.9545 30 16.5444 30 16.0386C30 15.5293 29.5901 15.1228 29.0845 15.1228H27.0934C27.0057 15.1228 26.921 15.1351 26.8408 15.158C26.7012 14.5094 26.3794 13.8921 25.8753 13.3881C24.4811 11.9938 22.2205 11.9938 20.8263 13.3881C20.3285 13.8859 20.0084 14.4942 19.8661 15.134C19.8194 15.1266 19.7715 15.1228 19.7228 15.1228H2.91138C2.40653 15.1228 2 15.5328 2 16.0386C2 16.548 2.40804 16.9545 2.91138 16.9545H19.7228C19.7935 16.9545 19.8623 16.9464 19.9283 16.9312C20.0918 17.4824 20.3912 18.0019 20.8263 18.4371ZM8.39259 27.2443C9.78684 28.6386 12.0474 28.6386 13.4416 27.2443C13.8868 26.7991 14.1898 26.2657 14.3507 25.7003C14.4412 25.7302 14.538 25.7464 14.6385 25.7464H29.0841C29.5899 25.7464 30 25.3399 30 24.8306C30 24.3248 29.5895 23.9148 29.0841 23.9148H14.6385C14.557 23.9148 14.4779 23.9254 14.4027 23.9452C14.2608 23.3039 13.9405 22.6942 13.4416 22.1953C12.0474 20.8011 9.78684 20.8011 8.39259 22.1953C7.90163 22.6863 7.58355 23.2846 7.43836 23.9148H2.91686C2.41049 23.9148 2 24.3213 2 24.8306C2 25.3364 2.41248 25.7464 2.91686 25.7464H7.49698C7.66102 26.2947 7.95956 26.8113 8.39259 27.2443ZM21.7307 17.5327C20.836 16.6379 20.836 15.1873 21.7307 14.2925C22.6255 13.3978 24.0761 13.3978 24.9709 14.2925C25.8656 15.1873 25.8656 16.6379 24.9709 17.5327C24.0761 18.4274 22.6255 18.4274 21.7307 17.5327ZM9.29702 26.3399C8.40229 25.4451 8.40229 23.9945 9.29702 23.0997C10.1918 22.205 11.6424 22.205 12.5372 23.0997C13.4319 23.9945 13.4319 25.4451 12.5372 26.3399C11.6424 27.2346 10.1918 27.2346 9.29702 26.3399ZM9.29901 5.6601C10.1937 4.76536 11.6444 4.76536 12.5391 5.6601C13.4339 6.55483 13.4339 8.00549 12.5391 8.90023C11.6444 9.79496 10.1937 9.79496 9.29901 8.90023C8.40427 8.00549 8.40427 6.55483 9.29901 5.6601Z" fill="black"/>
</svg>
