<svg width="32" height="32" viewBox="0 0 32 32" fill="none" xmlns="http://www.w3.org/2000/svg">
<path fill-rule="evenodd" clip-rule="evenodd" d="M19.9234 7.0155C19.9234 4.83922 18.165 3.078 16.0034 3.078C13.8306 3.078 12.0722 4.83922 12.0722 7.0155C12.0722 8.88666 13.3915 10.4673 15.1589 10.8509V15.936H7.78144C5.83264 15.936 4.24672 17.5245 4.24672 19.4764V22.8676C2.95312 23.2355 2 24.4157 2 25.8291C2 27.5376 3.38208 28.9219 5.08672 28.9219C6.79248 28.9219 8.17568 27.5376 8.17568 25.8291C8.17568 24.4145 7.22144 23.2344 5.92672 22.8665V19.4764C5.92672 18.4522 6.75888 17.6187 7.78144 17.6187H15.1589V22.8676C13.8653 23.2355 12.911 24.4157 12.911 25.8291C12.911 27.5376 14.2942 28.9219 16 28.9219C17.7046 28.9219 19.0867 27.5376 19.0867 25.8291C19.0867 24.4145 18.1336 23.2355 16.8389 22.8665V17.6187H24.2174C25.24 17.6187 26.071 18.4522 26.071 19.4764V22.8676C24.7774 23.2355 23.8232 24.4145 23.8232 25.8291C23.8232 27.5376 25.2064 28.9219 26.911 28.9219C28.6168 28.9219 30 27.5376 30 25.8291C30 24.4145 29.0458 23.2355 27.751 22.8676V19.4764C27.751 17.5245 26.1662 15.936 24.2174 15.936H16.8389V10.852H16.8434C18.6018 10.4594 19.9234 8.8889 19.9234 7.0155ZM13.7527 7.0155C13.7527 5.77031 14.7607 4.7607 16.0039 4.7607C17.2359 4.7607 18.2439 5.77031 18.2439 7.0155C18.2439 8.24948 17.2359 9.25909 16.0039 9.25909C14.7607 9.25909 13.7527 8.24948 13.7527 7.0155Z" fill="black"/>
</svg>
