<svg width="32" height="32" viewBox="0 0 32 32" fill="none" xmlns="http://www.w3.org/2000/svg">
<path fill-rule="evenodd" clip-rule="evenodd" d="M16.6364 4.17255L21.9137 9.44991C22.0289 9.56509 22.188 9.63636 22.3636 9.63636C22.7155 9.63636 23 9.35127 23 9C23 8.82436 22.9287 8.66527 22.8135 8.55009L16.4499 2.18645C16.3341 2.07127 16.1756 2 16 2C15.8244 2 15.6653 2.07127 15.5501 2.18645L9.18645 8.55009C9.07064 8.66527 9 8.82436 9 9C9 9.35127 9.28445 9.63636 9.63636 9.63636C9.812 9.63636 9.97045 9.56509 10.0863 9.44991L15.3636 4.17255L15.3636 29.3636C15.3636 29.7149 15.6481 30 16 30C16.3519 30 16.6364 29.7149 16.6364 29.3636L16.6364 4.17255Z" fill="black"/>
</svg>
