<svg width="32" height="32" viewBox="0 0 32 32" fill="none" xmlns="http://www.w3.org/2000/svg">
<path d="M24.3999 21.4L25.9999 20.6C26.3999 20.4 26.4999 20 26.2999 19.6C26.0999 19.2 25.6999 19.1 25.2999 19.3L22.9999 20.4L16.7999 16L22.9999 11.6L25.2999 12.8C25.3999 12.9 25.4999 12.9 25.5999 12.9C25.8999 12.9 26.0999 12.7 26.2999 12.5C26.4999 12.1 26.2999 11.7 25.9999 11.5L24.3999 10.7L26.7999 9C27.0999 8.8 27.1999 8.3 26.9999 8C26.7999 7.7 26.2999 7.6 25.9999 7.8L23.5999 9.5L23.3999 7.7C23.1999 7.2 22.7999 7 22.3999 7C21.9999 7.1 21.6999 7.4 21.7999 7.8L22.0999 10.3L16.2999 14.4V7.4L18.5999 6.2C18.9999 6 19.0999 5.6 18.8999 5.2C18.6999 4.8 18.2999 4.7 17.8999 4.9L16.2999 5.7V2.7C16.2999 2.3 15.9999 2 15.4999 2C14.9999 2 14.6999 2.3 14.6999 2.8V5.8L13.1999 4.9C12.7999 4.7 12.3999 4.8 12.1999 5.2C11.9999 5.6 12.1999 6 12.4999 6.2L14.7999 7.4V14.5L8.9999 10.4L9.2999 7.9C9.3999 7.5 9.0999 7.1 8.6999 7C8.2999 7 7.8999 7.2 7.7999 7.7L7.5999 9.4L5.1999 7.7C4.8999 7.5 4.3999 7.5 4.1999 7.9C3.9999 8.2 3.9999 8.7 4.3999 8.9L6.7999 10.6L5.0999 11.4C4.6999 11.6 4.5999 12 4.7999 12.4C4.8999 12.7 5.1999 12.8 5.4999 12.8C5.5999 12.8 5.6999 12.8 5.7999 12.7L8.0999 11.5L14.1999 15.9L8.0999 20.3L5.7999 19.1C5.3999 18.9 4.9999 19.1 4.7999 19.4C4.5999 19.8 4.7999 20.2 5.0999 20.4L6.6999 21.2L4.2999 22.9C3.9999 23.1 3.8999 23.6 4.0999 23.9C4.1999 24.1 4.4999 24.2 4.6999 24.2C4.8999 24.2 4.9999 24.2 5.0999 24.1L7.4999 22.4L7.6999 24.2C7.8999 24.7 8.1999 25 8.5999 25H8.6999C9.0999 24.9 9.3999 24.6 9.2999 24.2L8.9999 21.6L14.7999 17.5V24.6L12.4999 25.8C12.0999 26 11.9999 26.4 12.1999 26.8C12.3999 27.2 12.7999 27.3 13.1999 27.1L14.7999 26.3V29.3C14.7999 29.7 15.0999 30.1 15.5999 30.1C16.0999 30.1 16.3999 29.8 16.3999 29.3V26.3L17.9999 27.1C18.0999 27.2 18.1999 27.2 18.2999 27.2C18.5999 27.2 18.7999 27.1 18.9999 26.8C19.1999 26.4 19.0999 26 18.6999 25.8L16.3999 24.6V17.5L22.1999 21.6L21.8999 24.1C21.7999 24.5 22.0999 24.9 22.4999 24.9H22.5999C22.9999 24.9 23.2999 24.6 23.2999 24.3L23.4999 22.5L25.8999 24.2C25.9999 24.3 26.1999 24.3 26.2999 24.3C26.4999 24.3 26.7999 24.2 26.8999 24C27.0999 23.7 27.0999 23.2 26.6999 23L24.3999 21.4Z" fill="black"/>
</svg>
