<svg width="32" height="32" viewBox="0 0 32 32" fill="none" xmlns="http://www.w3.org/2000/svg">
<path fill-rule="evenodd" clip-rule="evenodd" d="M10.2286 2.08539C11.7226 2.0182 12.1986 2.0014 16.0014 2.0014V2C19.8028 2 20.2844 2.0168 21.7742 2.08399C23.2639 2.15118 24.2846 2.38774 25.1667 2.73069L25.2143 2.74609C26.1384 3.10303 26.9659 3.65315 27.6478 4.34885L27.6492 4.35025C28.3436 5.03195 28.8939 5.85782 29.2663 6.82788C29.615 7.72654 29.8488 8.73299 29.916 10.2266C29.9832 11.7201 30 12.1975 30 15.9979C30 19.7983 29.9832 20.2785 29.916 21.7692C29.8488 23.26 29.6122 24.2763 29.2663 25.1679L29.2495 25.2169C28.5229 27.052 27.0583 28.5162 25.1737 29.2595C24.286 29.6081 23.2709 29.8488 21.777 29.916C20.283 29.9832 19.8056 30 16.0042 30C12.2028 30 11.7226 29.9832 10.2314 29.916C8.74027 29.8488 7.72377 29.6123 6.83188 29.2665L6.78428 29.2511C5.86159 28.8942 5.0341 28.344 4.35224 27.6484L4.35084 27.647C3.65637 26.9653 3.10611 26.138 2.73367 25.1679C2.38784 24.2805 2.15122 23.2628 2.08401 21.7692C2.0168 20.2757 2 19.7983 2 15.9979C2 12.1975 2.0168 11.7173 2.08401 10.2266C2.15122 8.73579 2.38784 7.72514 2.73087 6.83068L2.74627 6.78448C3.10331 5.86062 3.65357 5.03474 4.34944 4.35305L4.35084 4.35165C5.0313 3.65735 5.85879 3.10723 6.82908 2.73489C7.72797 2.38914 8.73467 2.15258 10.2286 2.08539ZM21.6603 4.60712C20.1845 4.53993 19.7379 4.52454 16.0023 4.52454H16.0037C12.2639 4.52454 11.8229 4.53993 10.3457 4.60712C8.97918 4.66871 8.24271 4.89688 7.74426 5.08865L7.71486 5.09845C7.1142 5.32662 6.57654 5.68356 6.1355 6.13569L6.1341 6.13709C5.68045 6.57663 5.32342 7.11415 5.08539 7.74545C4.89358 8.23958 4.66535 8.97727 4.60375 10.3463C4.53654 11.823 4.52114 12.264 4.52114 16.0028C4.52114 19.7417 4.53654 20.184 4.60375 21.6594C4.66535 23.0256 4.89358 23.7619 5.08539 24.2602L5.0952 24.2896C5.32342 24.8901 5.67905 25.4276 6.1327 25.8685L6.1341 25.8699C6.57374 26.3221 7.1114 26.6776 7.74286 26.9156C8.23711 27.1073 8.97498 27.3355 10.3443 27.3971C11.8215 27.4643 12.2639 27.4797 16.0037 27.4797C19.7435 27.4797 20.1859 27.4643 21.6617 27.3971C23.0282 27.3355 23.7647 27.1073 24.2631 26.9156L24.2939 26.9044C25.4868 26.4341 26.4375 25.4836 26.9192 24.2588C27.111 23.7647 27.3392 23.027 27.4008 21.658C27.468 20.1826 27.4834 19.7403 27.4834 16.0014C27.4834 12.2626 27.468 11.8216 27.4008 10.3449C27.3392 8.97867 27.111 8.24238 26.9192 7.74405L26.9094 7.71466C26.6812 7.11415 26.3241 6.57663 25.8719 6.13569L25.8705 6.13429C25.4308 5.68216 24.8932 5.32522 24.2617 5.08865C23.7675 4.89688 23.0296 4.66871 21.6603 4.60712Z" fill="black"/>
<path fill-rule="evenodd" clip-rule="evenodd" d="M8.81152 15.9992C8.81152 12.0294 12.0304 8.81128 16.0012 8.81128C19.972 8.81128 23.1896 12.0294 23.191 15.9992C23.191 19.969 19.972 23.1871 16.0012 23.1871C12.0304 23.1871 8.81152 19.969 8.81152 15.9992ZM11.3407 16C11.3407 18.5756 13.4269 20.6627 16.0017 20.6669V20.6739H16.0073C18.5864 20.6739 20.6768 18.584 20.6768 16.0056V16C20.6768 13.423 18.5864 11.3331 16.0087 11.3331C13.4311 11.3331 11.3407 13.423 11.3407 16Z" fill="black"/>
<path d="M25.1553 8.52758C25.1553 9.45587 24.4034 10.2077 23.4751 10.2077C22.5468 10.2077 21.7949 9.45587 21.7949 8.52758C21.7949 7.59929 22.5468 6.84741 23.4751 6.84741C24.4034 6.84741 25.1553 7.59929 25.1553 8.52758Z" fill="black"/>
</svg>
