<svg width="32" height="32" viewBox="0 0 32 32" fill="none" xmlns="http://www.w3.org/2000/svg">
<path fill-rule="evenodd" clip-rule="evenodd" d="M9.6762 2C10.0168 1.99939 10.3153 2.22753 10.4042 2.5563L17.4292 28.549C17.5377 28.9503 17.3003 29.3635 16.899 29.472C16.4977 29.5804 16.0844 29.343 15.976 28.9417L13.1698 18.559H6.24553L3.48018 28.9391C3.37317 29.3408 2.96079 29.5797 2.55911 29.4727C2.15742 29.3656 1.91854 28.9533 2.02555 28.5516L8.95024 2.55892C9.03791 2.22983 9.33563 2.00061 9.6762 2ZM6.64658 17.0537H12.763L9.68278 5.65688L6.64658 17.0537ZM24.8079 4.22092C25.1029 3.93331 25.5743 3.9363 25.8656 4.22761L29.7795 8.14156C30.0735 8.4355 30.0735 8.91208 29.7795 9.20602C29.4856 9.49996 29.009 9.49996 28.7151 9.20602L26.086 6.57698V25.1891L28.7084 22.4995C28.9986 22.2019 29.4751 22.1958 29.7728 22.486C30.0704 22.7762 30.0764 23.2528 29.7862 23.5504L25.8723 27.5647C25.7318 27.7088 25.5394 27.7907 25.3381 27.7919C25.1369 27.7932 24.9435 27.7138 24.8011 27.5715L20.7868 23.5572C20.4929 23.2632 20.4929 22.7867 20.7868 22.4927C21.0808 22.1988 21.5573 22.1988 21.8513 22.4927L24.5807 25.2221V6.54494L21.8445 9.21271C21.5469 9.50291 21.0703 9.49688 20.7801 9.19924C20.4899 8.9016 20.496 8.42507 20.7936 8.13487L24.8079 4.22092Z" fill="black"/>
</svg>
