<svg width="32" height="32" viewBox="0 0 32 32" fill="none" xmlns="http://www.w3.org/2000/svg">
<path d="M6.59995 3.2C6.59995 3.86274 6.06269 4.4 5.39995 4.4C4.73721 4.4 4.19995 3.86274 4.19995 3.2C4.19995 2.53726 4.73721 2 5.39995 2C6.06269 2 6.59995 2.53726 6.59995 3.2Z" fill="black"/>
<path d="M11.4 3.2C11.4 3.86274 10.8627 4.4 10.2 4.4C9.53721 4.4 8.99995 3.86274 8.99995 3.2C8.99995 2.53726 9.53721 2 10.2 2C10.8627 2 11.4 2.53726 11.4 3.2Z" fill="black"/>
<path d="M19.3923 19.6451L18.6506 13.4495C18.6161 11.9801 17.4146 10.8 15.9486 10.8C14.4998 10.8 13.327 11.9223 13.2522 13.3743C13.2465 13.409 13.2465 13.4379 13.2465 13.4726V16.8683L13.2005 24.3945L12.9073 24.1631C12.7348 24.0184 12.0219 23.4457 11.0273 23.1391C9.47509 22.6648 7.99757 23.0929 6.87075 24.3366C6.54305 24.7011 6.50856 25.239 6.79027 25.6382L6.79145 25.6399C6.86426 25.7425 8.22343 27.6581 10.3834 29.7165C10.5847 29.9074 10.8376 30 11.0963 30C11.3723 30 11.6425 29.8901 11.8495 29.676C12.2404 29.2595 12.2231 28.6001 11.8092 28.2067C10.5962 27.0497 9.64181 25.9274 9.07265 25.2101C9.46934 25.0134 9.89477 24.9845 10.3834 25.1234C11.0388 25.3085 11.539 25.725 11.5735 25.7539C11.5853 25.7658 11.5945 25.7723 11.6065 25.7808C11.6119 25.7846 11.618 25.7889 11.6252 25.7944L13.5972 27.3216C13.9076 27.5646 14.3273 27.6051 14.6838 27.4315C15.0345 27.258 15.2644 26.8993 15.2644 26.5002L15.3219 16.8741V13.4958C15.3334 13.1487 15.6094 12.8768 15.9543 12.8768C16.305 12.8768 16.5867 13.1602 16.5867 13.5131C16.5867 13.5536 16.5867 13.5941 16.5925 13.6346L17.3398 19.8938C17.4088 20.4665 17.9205 20.8715 18.4896 20.802C19.0588 20.7326 19.4612 20.212 19.3923 19.6451Z" fill="black"/>
<path d="M27.5502 22.8947C27.494 22.6263 27.3424 22.3921 27.1234 22.2436C25.6464 21.2098 23.7539 20.3359 21.5019 19.6448C20.9684 19.4791 20.4012 19.7876 20.244 20.3302C20.0811 20.8728 20.3844 21.4497 20.9179 21.6096C22.7599 22.175 24.3772 22.8947 25.6296 23.7C25.7531 24.5796 25.9609 26.7329 25.4667 28.7206C25.3319 29.2689 25.6577 29.8286 26.2024 29.9714C26.2866 29.9943 26.3709 30 26.4495 30C26.9044 30 27.3143 29.6916 27.4266 29.2232C28.154 26.2863 27.6032 23.1923 27.5531 22.9112L27.5502 22.8947Z" fill="black"/>
<path d="M15.4 4.4C16.0627 4.4 16.6 3.86274 16.6 3.2C16.6 2.53726 16.0627 2 15.4 2C14.7372 2 14.2 2.53726 14.2 3.2C14.2 3.86274 14.7372 4.4 15.4 4.4Z" fill="black"/>
<path d="M10.2 9.2C10.8627 9.2 11.4 8.66274 11.4 8C11.4 7.33726 10.8627 6.8 10.2 6.8C9.53721 6.8 8.99995 7.33726 8.99995 8C8.99995 8.66274 9.53721 9.2 10.2 9.2Z" fill="black"/>
<path d="M16.6 8C16.6 8.66274 16.0627 9.2 15.4 9.2C14.7372 9.2 14.2 8.66274 14.2 8C14.2 7.33726 14.7372 6.8 15.4 6.8C16.0627 6.8 16.6 7.33726 16.6 8Z" fill="black"/>
<path d="M5.39995 9.2C6.06269 9.2 6.59995 8.66274 6.59995 8C6.59995 7.33726 6.06269 6.8 5.39995 6.8C4.73721 6.8 4.19995 7.33726 4.19995 8C4.19995 8.66274 4.73721 9.2 5.39995 9.2Z" fill="black"/>
<path d="M11.4 12.8C11.4 13.4627 10.8627 14 10.2 14C9.53721 14 8.99995 13.4627 8.99995 12.8C8.99995 12.1373 9.53721 11.6 10.2 11.6C10.8627 11.6 11.4 12.1373 11.4 12.8Z" fill="black"/>
<path d="M5.39995 14C6.06269 14 6.59995 13.4627 6.59995 12.8C6.59995 12.1373 6.06269 11.6 5.39995 11.6C4.73721 11.6 4.19995 12.1373 4.19995 12.8C4.19995 13.4627 4.73721 14 5.39995 14Z" fill="black"/>
<path d="M11.4 17.6C11.4 18.2627 10.8627 18.8 10.2 18.8C9.53721 18.8 8.99995 18.2627 8.99995 17.6C8.99995 16.9373 9.53721 16.4 10.2 16.4C10.8627 16.4 11.4 16.9373 11.4 17.6Z" fill="black"/>
</svg>
