<svg width="32" height="32" viewBox="0 0 32 32" fill="none" xmlns="http://www.w3.org/2000/svg">
<path d="M25.7798 3.29214C25.2925 2.51709 24.4295 2 23.45 2H4.75C3.23579 2 2 3.23579 2 4.75V23.45C2 24.4295 2.51709 25.2925 3.29214 25.7798L4.41744 24.6545C3.8909 24.5074 3.5 24.0208 3.5 23.45V4.75C3.5 4.06421 4.06421 3.5 4.75 3.5H23.45C24.0208 3.5 24.5074 3.8909 24.6545 4.41744L25.7798 3.29214Z" fill="black"/>
<path d="M23.272 5.8H8.55C7.03579 5.8 5.8 7.03579 5.8 8.55V23.272L7.3 21.772V8.55C7.3 7.86421 7.86421 7.3 8.55 7.3H21.772L23.272 5.8Z" fill="black"/>
<path d="M16.009 13.0629L13.015 11.3948C12.7827 11.2654 12.4993 11.2687 12.27 11.4034C12.0408 11.5381 11.9 11.7841 11.9 12.05V17.172L16.009 13.0629Z" fill="black"/>
<path d="M15.7442 18.9847L19.6419 15.0869L20.015 15.2948C20.2527 15.4272 20.4 15.6779 20.4 15.95C20.4 16.222 20.2527 16.4728 20.015 16.6052L15.7442 18.9847Z" fill="black"/>
<path d="M10.0288 24.7H23.45C24.1358 24.7 24.7 24.1358 24.7 23.45V10.0288L26.2 8.52882V23.45C26.2 24.9642 24.9642 26.2 23.45 26.2H8.52882L10.0288 24.7Z" fill="black"/>
<path d="M7.31134 27.4175L6.14605 28.5828C6.61658 29.4268 7.51872 30 8.55 30H27.25C28.7642 30 30 28.7642 30 27.25V8.55C30 7.51872 29.4268 6.61658 28.5828 6.14605L27.4175 7.31134C28.0253 7.3942 28.5 7.92096 28.5 8.55V27.25C28.5 27.9358 27.9358 28.5 27.25 28.5H8.55C7.92096 28.5 7.3942 28.0253 7.31134 27.4175Z" fill="black"/>
<path fill-rule="evenodd" clip-rule="evenodd" d="M28.9805 2.91977C29.2734 3.21266 29.2734 3.68753 28.9805 3.98043L3.98053 28.9804C3.68763 29.2733 3.21276 29.2733 2.91987 28.9804C2.62697 28.6875 2.62697 28.2127 2.91987 27.9198L27.9199 2.91977C28.2128 2.62687 28.6876 2.62687 28.9805 2.91977Z" fill="black"/>
</svg>
