<svg width="32" height="32" viewBox="0 0 32 32" fill="none" xmlns="http://www.w3.org/2000/svg">
<path fill-rule="evenodd" clip-rule="evenodd" d="M18.8256 3.17886C21.0744 0.93695 24.7143 0.940888 26.9583 3.18766C29.2022 5.43441 29.2016 9.07433 26.9569 11.3203L14.8899 23.3967C14.0998 24.1877 12.9478 24.4971 11.8677 24.2084C10.7877 23.9197 9.94369 23.0767 9.65371 21.997C9.36372 20.9173 9.67178 19.7649 10.4618 18.9739L19.7492 9.68443L20.4564 10.3915L11.1694 19.6806C10.6318 20.2188 10.4222 21.0029 10.6195 21.7376C10.8168 22.4723 11.3911 23.0459 12.126 23.2423C12.8609 23.4388 13.6448 23.2282 14.1823 22.69L26.2495 10.6135C28.1041 8.75788 28.1046 5.75057 26.2507 3.89432C24.3968 2.03807 21.3895 2.03481 19.5316 3.88705L6.52216 16.8917C3.63789 19.776 3.63781 24.4524 6.52207 27.3367C9.40632 30.221 14.0826 30.2211 16.967 27.3369L27.1831 17.1158L27.8904 17.8227L17.6742 28.0438C14.3994 31.3186 9.08976 31.3187 5.81496 28.0438C2.54016 24.769 2.5402 19.4594 5.81506 16.1846L18.8256 3.17886Z" fill="black"/>
</svg>
