<svg width="32" height="32" viewBox="0 0 32 32" fill="none" xmlns="http://www.w3.org/2000/svg">
<path d="M7.1945 14.2941L3.24441 10.344C2.99928 10.0989 2.60184 10.0989 2.3567 10.344C2.11157 10.5892 2.11157 10.9866 2.3567 11.2317L7.37835 16.2534C7.62349 16.4985 8.02093 16.4985 8.26607 16.2534L13.2877 11.2317C13.5329 10.9866 13.5329 10.5892 13.2877 10.344C13.0426 10.0989 12.6451 10.0989 12.4 10.344L8.44992 14.2941V2.62771C8.44992 2.28103 8.16888 2 7.82221 2C7.47554 2 7.1945 2.28103 7.1945 2.62771V14.2941Z" fill="black"/>
<path fill-rule="evenodd" clip-rule="evenodd" d="M29.3914 12.7776C30.191 9.42808 29.881 6.48683 28.5329 5.092L26.7735 3.33528C26.0714 2.62265 24.9012 2.62265 24.1938 3.33791L22.101 5.43012C21.3963 6.13492 20.8351 6.69665 20.4701 7.06253C19.1428 8.38662 19.2613 10.6304 20.692 12.058L21.5654 12.9315C22.5216 13.8967 21.6555 16.3854 18.9371 19.1086C16.2228 21.8237 13.7195 22.6965 12.7697 21.7425L11.8867 20.8603C10.4631 19.4336 8.22225 19.3162 6.89076 20.6413C6.5248 21.0049 5.9626 21.565 5.25279 22.2731C4.79487 22.73 4.30453 23.2194 3.81438 23.7088L3.16096 24.3614C2.44993 25.0816 2.45154 26.2394 3.16541 26.9494L4.91857 28.7078C6.31388 30.0545 9.25641 30.3637 12.6059 29.5643C16.2944 28.6841 20.0896 26.5851 23.2738 23.4523C26.4126 20.2595 28.5114 16.4643 29.3914 12.7776ZM25.0311 4.17085C25.2784 3.92082 25.6924 3.92082 25.9356 4.16763L27.6944 5.92379C28.6899 6.95906 28.9574 9.50882 28.2426 12.5034C27.4125 15.9811 25.4196 19.5848 22.4385 22.6173C19.4148 25.5921 15.8113 27.5851 12.3317 28.4155C9.33356 29.131 6.7797 28.8626 5.74685 27.8659L4.00007 26.1137C3.74691 25.8619 3.74634 25.4496 3.99858 25.1941L4.64894 24.5446C5.13897 24.0553 5.62918 23.5659 6.09142 23.1048C6.79623 22.4017 7.35798 21.842 7.72356 21.4787C8.57349 20.6329 10.0696 20.7113 11.0513 21.6952L11.9338 22.5769C13.5094 24.1595 16.6537 23.0632 19.7727 19.9433C22.8933 16.8172 23.981 13.6917 22.4026 12.0983L21.5267 11.2223C20.5395 10.2373 20.4604 8.74045 21.3053 7.89765C21.6709 7.53116 22.2319 6.96968 22.9388 6.26265L25.0311 4.17085Z" fill="black"/>
</svg>
