<svg width="32" height="32" viewBox="0 0 32 32" fill="none" xmlns="http://www.w3.org/2000/svg">
<path fill-rule="evenodd" clip-rule="evenodd" d="M2.05005 13.4C2.05005 11.8858 3.28584 10.65 4.80005 10.65H15.3C15.7143 10.65 16.05 10.9858 16.05 11.4C16.05 11.8142 15.7143 12.15 15.3 12.15H4.80005C4.11426 12.15 3.55005 12.7142 3.55005 13.4V23.7C3.55005 24.3858 4.11426 24.95 4.80005 24.95H18.1C18.7858 24.95 19.35 24.3858 19.35 23.7V20.6C19.35 20.3054 19.5225 20.0381 19.791 19.9167C20.0594 19.7953 20.3741 19.8423 20.5953 20.0368L26.3953 25.1368L26.4088 25.1489C27.2029 25.882 28.55 25.2811 28.55 24.2V18.3C28.55 17.8858 28.8858 17.55 29.3 17.55C29.7143 17.55 30.05 17.8858 30.05 18.3V24.2C30.05 26.5159 27.2047 27.9144 25.3985 26.2577L20.85 22.2582V23.7C20.85 25.2142 19.6143 26.45 18.1 26.45H4.80005C3.28584 26.45 2.05005 25.2142 2.05005 23.7V13.4Z" fill="black"/>
<path d="M6.10005 23.7C6.81802 23.7 7.40005 23.118 7.40005 22.4C7.40005 21.6821 6.81802 21.1 6.10005 21.1C5.38208 21.1 4.80005 21.6821 4.80005 22.4C4.80005 23.118 5.38208 23.7 6.10005 23.7Z" fill="black"/>
<path fill-rule="evenodd" clip-rule="evenodd" d="M21.7489 4.92792C22.4368 3.72406 24.1633 3.72406 24.8512 4.92792L24.8531 4.93123L29.6358 13.4006C30.0239 13.9704 30.0457 14.6415 29.7405 15.1816C29.438 15.7168 28.856 16.05 28.2001 16.05H18.5C17.1668 16.05 16.2435 14.6653 16.9478 13.4297L16.9489 13.4279L21.7489 4.92792ZM23.4 7.30002C23.6762 7.30002 23.9 7.52388 23.9 7.80002V11.2C23.9 11.4762 23.6762 11.7 23.4 11.7C23.1239 11.7 22.9 11.4762 22.9 11.2V7.80002C22.9 7.52388 23.1239 7.30002 23.4 7.30002ZM23.4001 13.7C23.7314 13.7 24.0001 13.4314 24.0001 13.1C24.0001 12.7687 23.7314 12.5 23.4001 12.5C23.0687 12.5 22.8001 12.7687 22.8001 13.1C22.8001 13.4314 23.0687 13.7 23.4001 13.7Z" fill="black"/>
</svg>
