<svg width="32" height="32" viewBox="0 0 32 32" fill="none" xmlns="http://www.w3.org/2000/svg">
<path d="M16 20.4465C15.2 20.4465 14.4 20.2465 13.7 19.8465C11.4 18.6465 10.6 15.7465 11.8 13.4465C13.1 11.1465 15.9 10.3465 18.2 11.5465C19.3 12.1465 20.1 13.1465 20.5 14.3465C20.9 15.5465 20.7 16.8465 20.1 17.9465C19.5 19.0465 18.5 19.8465 17.3 20.2465C16.9 20.3465 16.4 20.4465 16 20.4465ZM13.2 14.1465C12.3 15.7465 12.9 17.6465 14.5 18.5465C15.3 18.9465 16.1 19.0465 17 18.8465C17.8 18.6465 18.5 18.0465 18.9 17.3465C19.3 16.5465 19.4 15.7465 19.2 14.8465C19 14.0465 18.4 13.3465 17.7 12.9465C16 12.0465 14 12.6465 13.2 14.1465Z" fill="black"/>
<path d="M10.9 28.4465C10.3 28.4465 9.8 28.3465 9.3 28.0465C8 27.3465 7.3 25.8465 7.6 24.3465L8.2 21.6465C8.3 21.2465 8.2 20.7465 8 20.4465C7.8 20.0465 7.4 19.8465 7 19.7465L4.8 19.2465C3.1 18.8465 2 17.5465 2 15.9465C2 14.4465 3 13.0465 4.4 12.6465L6.9 11.8465C7.3 11.7465 7.7 11.4465 7.9 11.0465C8.1 10.6465 8.1 10.2465 8 9.84649L7.3 7.64649C6.8 6.14649 7.4 4.54649 8.8 3.74649C10.1 2.94649 11.8 3.14649 12.9 4.14649L14.9 5.94649C15.2 6.24649 15.6 6.44649 16.1 6.34649C16.5 6.34649 16.9 6.14649 17.2 5.84649L18.7 4.14649C19.8 2.94649 21.5 2.64649 22.8 3.44649C24.1 4.14649 24.8 5.74649 24.5 7.14649L23.9 9.74649C23.8 10.1465 23.9 10.6465 24.1 10.9465C24.3 11.3465 24.7 11.5465 25.1 11.6465L27.3 12.1465C28.8 12.4465 29.9 13.8465 30 15.3465C30 16.8465 29.1 18.2465 27.6 18.6465L25 19.5465C24.6 19.6465 24.2 19.9465 24 20.3465C23.8 20.7465 23.8 21.1465 23.9 21.6465L24.6 23.8465C25.1 25.3465 24.5 26.9465 23.1 27.7465C21.8 28.5465 20.1 28.3465 19 27.3465L17.1 25.5465C16.9 25.1465 16.5 25.0465 16 25.0465C15.6 25.0465 15.2 25.2465 14.9 25.5465L13.4 27.2465C12.7 28.0465 11.8 28.4465 10.9 28.4465ZM10.5 4.74649C10.2 4.74649 9.8 4.84649 9.5 5.04649C8.8 5.44649 8.5 6.34649 8.7 7.24649L9.4 9.34649C9.7 10.1465 9.6 11.0465 9.2 11.7465C8.8 12.5465 8.2 13.0465 7.4 13.3465L4.8 14.0465C4 14.2465 3.4 15.0465 3.5 15.8465C3.5 16.7465 4.1 17.4465 5 17.6465L7.2 18.1465C8 18.3465 8.7 18.8465 9.2 19.5465C9.7 20.2465 9.8 21.1465 9.6 21.9465L9 24.6465C8.8 25.4465 9.2 26.3465 9.9 26.7465C10.7 27.1465 11.6 27.0465 12.2 26.3465L13.7 24.6465C14.3 24.0465 15 23.6465 15.9 23.6465C16.8 23.6465 17.6 23.9465 18.2 24.4465L20.1 26.2465C20.7 26.8465 21.6 26.9465 22.4 26.4465C23.2 25.9465 23.5 25.0465 23.2 24.2465L22.6 22.0465C22.3 21.2465 22.4 20.3465 22.8 19.6465C23.2 18.9465 23.8 18.3465 24.7 18.1465L27.3 17.3465C28.1 17.1465 28.6 16.3465 28.6 15.5465C28.6 14.6465 28 13.9465 27.1 13.7465L24.9 13.2465C24.1 13.0465 23.4 12.5465 22.9 11.8465C22.4 11.1465 22.3 10.2465 22.5 9.44649L23 6.84649C23.2 6.04649 22.8 5.14649 22.1 4.74649C21.3 4.34649 20.4 4.44649 19.8 5.14649L18.3 6.84649C17.7 7.44649 17 7.84649 16.1 7.84649C15.2 7.84649 14.5 7.54649 13.8 7.04649L11.8 5.24649C11.4 4.94649 11 4.74649 10.5 4.74649Z" fill="black"/>
</svg>
