<svg width="32" height="32" viewBox="0 0 32 32" fill="none" xmlns="http://www.w3.org/2000/svg">
<path fill-rule="evenodd" clip-rule="evenodd" d="M11.6502 3.70108C11.5197 3.77472 11.3802 3.88074 11.2305 4.03038L3.83053 11.4304C3.80543 11.4555 3.77859 11.4788 3.7502 11.5C3.70754 11.532 3.66365 11.5837 3.62306 11.65H10.4002C11.086 11.65 11.6502 11.0858 11.6502 10.4V3.70108ZM12.2002 2.05005C11.4698 2.05005 10.7866 2.35298 10.1699 2.96972L2.80263 10.337C2.18147 10.8354 1.9502 11.6801 1.9502 12.3V26.3C1.9502 28.4143 3.68598 30.15 5.8002 30.15H26.2002C28.3144 30.15 30.0502 28.4143 30.0502 26.3V5.90005C30.0502 3.78584 28.3144 2.05005 26.2002 2.05005H12.2002ZM13.1502 3.55005V10.4C13.1502 11.9143 11.9144 13.15 10.4002 13.15H3.4502V26.3C3.4502 27.5858 4.51441 28.65 5.8002 28.65H26.2002C27.486 28.65 28.5502 27.5858 28.5502 26.3V5.90005C28.5502 4.61426 27.486 3.55005 26.2002 3.55005H13.1502Z" fill="black"/>
</svg>
