<svg width="32" height="32" viewBox="0 0 32 32" fill="none" xmlns="http://www.w3.org/2000/svg">
<path fill-rule="evenodd" clip-rule="evenodd" d="M15.2527 6.63345C15.2527 6.22071 15.5872 5.88612 16 5.88612H26.1637C28.2704 5.88612 30 7.61573 30 9.72241V19.8861C30 21.9928 28.2704 23.7224 26.1637 23.7224H16.2099L10.1512 29.7811C9.93748 29.9948 9.61604 30.0588 9.33678 29.9431C9.05752 29.8274 8.87544 29.5549 8.87544 29.2526V23.6228H5.8363C3.72961 23.6228 2 21.8932 2 19.7865V10.6192C2 10.2065 2.33459 9.87188 2.74733 9.87188C3.16007 9.87188 3.49466 10.2065 3.49466 10.6192V19.7865C3.49466 21.0677 4.55509 22.1281 5.8363 22.1281H9.62277C10.0355 22.1281 10.3701 22.4627 10.3701 22.8754V27.4484L15.3719 22.4466C15.5121 22.3065 15.7021 22.2277 15.9003 22.2277H26.1637C27.4449 22.2277 28.5053 21.1673 28.5053 19.8861V9.72241C28.5053 8.4412 27.4449 7.38078 26.1637 7.38078H16C15.5872 7.38078 15.2527 7.04619 15.2527 6.63345Z" fill="black"/>
<path fill-rule="evenodd" clip-rule="evenodd" d="M7.19444 2.22562C7.48258 1.9301 7.95572 1.92411 8.25124 2.21224L12.237 6.09836C12.3801 6.23787 12.4613 6.42888 12.4626 6.62872C12.4639 6.82856 12.385 7.02058 12.2437 7.16189L8.25797 11.1477C7.96612 11.4395 7.49294 11.4395 7.20109 11.1477C6.90924 10.8558 6.90924 10.3826 7.20109 10.0908L10.6517 6.64018L7.20782 3.28242C6.9123 2.99429 6.90631 2.52114 7.19444 2.22562Z" fill="black"/>
<path fill-rule="evenodd" clip-rule="evenodd" d="M2.09964 6.63345C2.09964 6.22071 2.43424 5.88612 2.84697 5.88612H11.7153C12.128 5.88612 12.4626 6.22071 12.4626 6.63345C12.4626 7.04619 12.128 7.38078 11.7153 7.38078H2.84697C2.43424 7.38078 2.09964 7.04619 2.09964 6.63345Z" fill="black"/>
<path d="M16 17.0961C16.7154 17.0961 17.2954 16.5161 17.2954 15.8007C17.2954 15.0853 16.7154 14.5053 16 14.5053C15.2846 14.5053 14.7046 15.0853 14.7046 15.8007C14.7046 16.5161 15.2846 17.0961 16 17.0961Z" fill="black"/>
<path d="M10.4199 17.0961C11.1353 17.0961 11.7153 16.5161 11.7153 15.8007C11.7153 15.0853 11.1353 14.5053 10.4199 14.5053C9.70451 14.5053 9.12455 15.0853 9.12455 15.8007C9.12455 16.5161 9.70451 17.0961 10.4199 17.0961Z" fill="black"/>
<path d="M21.5801 17.0961C22.2955 17.0961 22.8754 16.5161 22.8754 15.8007C22.8754 15.0853 22.2955 14.5053 21.5801 14.5053C20.8646 14.5053 20.2847 15.0853 20.2847 15.8007C20.2847 16.5161 20.8646 17.0961 21.5801 17.0961Z" fill="black"/>
</svg>
