<svg width="32" height="32" viewBox="0 0 32 32" fill="none" xmlns="http://www.w3.org/2000/svg">
<path fill-rule="evenodd" clip-rule="evenodd" d="M15.9879 2.05732C16.2692 1.94082 16.5929 2.00521 16.8082 2.22048L23.4318 8.84412C23.725 9.13728 23.7259 9.61229 23.4339 9.90656L17.3866 16L23.4339 22.0934C23.7259 22.3877 23.725 22.8627 23.4318 23.1559L16.8082 29.7795C16.5929 29.9948 16.2692 30.0592 15.9879 29.9427C15.7067 29.8262 15.5233 29.5517 15.5233 29.2473V17.8775L10.2869 23.1538C9.99411 23.4489 9.51754 23.4507 9.22248 23.1579C8.92743 22.8651 8.92561 22.3885 9.21844 22.0934L15.2657 16L9.21844 9.90656C8.92561 9.6115 8.92743 9.13493 9.22248 8.8421C9.51754 8.54928 9.99411 8.55109 10.2869 8.84615L15.5233 14.1225V2.75271C15.5233 2.44828 15.7067 2.17382 15.9879 2.05732ZM17.0287 17.7764L21.8372 22.6216L17.0287 27.4301V17.7764ZM17.0287 14.2236V4.56986L21.8372 9.37837L17.0287 14.2236Z" fill="black"/>
</svg>
