<svg width="32" height="32" viewBox="0 0 32 32" fill="none" xmlns="http://www.w3.org/2000/svg">
<path fill-rule="evenodd" clip-rule="evenodd" d="M6.96774 5.50538C5.05553 5.50538 3.50538 7.05553 3.50538 8.96774C3.50538 10.88 5.05553 12.4301 6.96774 12.4301C8.87995 12.4301 10.4301 10.88 10.4301 8.96774C10.4301 7.05553 8.87995 5.50538 6.96774 5.50538ZM2 8.96774C2 6.22413 4.22413 4 6.96774 4C9.45547 4 11.5161 5.82862 11.8788 8.21505H13.8925C15.5125 8.21505 16.7527 9.45527 16.7527 11.0753V20.7097C16.7527 21.4983 17.3189 22.0645 18.1075 22.0645H20.1212C20.4839 19.6781 22.5445 17.8495 25.0323 17.8495C27.7759 17.8495 30 20.0736 30 22.8172C30 25.5608 27.7759 27.7849 25.0323 27.7849C22.5445 27.7849 20.4839 25.9563 20.1212 23.5699H18.1075C16.4875 23.5699 15.2473 22.3297 15.2473 20.7097V11.0753C15.2473 10.2867 14.6811 9.72043 13.8925 9.72043H11.8788C11.5161 12.1069 9.45547 13.9355 6.96774 13.9355C4.22413 13.9355 2 11.7113 2 8.96774ZM25.0323 19.3548C23.12 19.3548 21.5699 20.905 21.5699 22.8172C21.5699 24.7294 23.12 26.2796 25.0323 26.2796C26.9445 26.2796 28.4946 24.7294 28.4946 22.8172C28.4946 20.905 26.9445 19.3548 25.0323 19.3548Z" fill="black"/>
</svg>
