<svg width="32" height="32" viewBox="0 0 32 32" fill="none" xmlns="http://www.w3.org/2000/svg">
<path fill-rule="evenodd" clip-rule="evenodd" d="M20.7068 3.50228C16.4201 3.50228 12.9451 6.97735 12.9451 11.2641C12.9451 15.5508 16.4201 19.0259 20.7068 19.0259C24.9936 19.0259 28.4686 15.5508 28.4686 11.2641C28.4686 6.97735 24.9936 3.50228 20.7068 3.50228ZM11.4428 11.2641C11.4428 6.14766 15.5904 2 20.7068 2C25.8233 2 29.9709 6.14766 29.9709 11.2641C29.9709 16.3805 25.8233 20.5281 20.7068 20.5281C15.5904 20.5281 11.4428 16.3805 11.4428 11.2641ZM20.7068 6.00608C21.0001 6.00608 21.2665 6.1767 21.3891 6.44302L24.8944 14.0546C25.068 14.4314 24.9032 14.8775 24.5264 15.051C24.1496 15.2246 23.7034 15.0598 23.5299 14.683L22.8548 13.217H18.5589L17.8838 14.683C17.7103 15.0598 17.2641 15.2246 16.8873 15.051C16.5105 14.8775 16.3457 14.4314 16.5193 14.0546L20.0246 6.44302C20.1472 6.1767 20.4136 6.00608 20.7068 6.00608ZM19.2507 11.7148H22.163L20.7068 8.55292L19.2507 11.7148ZM6.49983 12.542C6.95886 12.744 7.32489 13.0892 7.57256 13.3988C7.66667 13.5164 7.82365 13.7056 8.01158 13.9321C8.52504 14.5508 9.26945 15.4479 9.59344 15.9246C9.79259 16.1754 9.91339 16.4646 9.93815 16.7773C9.96344 17.0966 9.8848 17.3891 9.76638 17.6358C9.54272 18.1017 9.13985 18.4853 8.74884 18.7683C8.47007 19.0024 8.37576 19.119 8.33841 19.1895L8.33792 19.1904C8.32281 19.219 8.29694 19.2678 8.32785 19.4532C8.35284 19.6032 8.48791 19.9512 8.79715 20.4388C9.09021 20.901 9.50176 21.4289 10.0084 21.9374C10.5308 22.4111 11.0686 22.8302 11.5485 23.1387C12.0576 23.466 12.419 23.6144 12.6006 23.6404C12.6452 23.6468 12.6892 23.6571 12.7319 23.6714C12.7717 23.6846 12.7989 23.6904 12.8156 23.6928C12.8239 23.694 12.8296 23.6944 12.833 23.6946C12.8345 23.6946 12.8356 23.6946 12.8364 23.6946L12.8386 23.6937C12.8414 23.6924 12.8458 23.6902 12.8522 23.6865C12.8805 23.6698 12.9319 23.6319 13.0157 23.5468C13.0998 23.4616 13.1951 23.3513 13.3195 23.2021C13.6034 22.8614 13.9853 22.4956 14.4353 22.2796C14.9099 22.0518 15.5316 21.9673 16.1159 22.3569C16.5839 22.6689 17.5067 23.4347 18.139 23.9593C18.3655 24.1473 18.5546 24.3042 18.6723 24.3984C18.957 24.6261 19.3144 24.9649 19.5244 25.4231C19.7531 25.9222 19.7818 26.5116 19.4758 27.1236C19.4521 27.171 19.4266 27.2236 19.399 27.2806C19.2211 27.6478 18.956 28.1948 18.5258 28.6772C18.0002 29.2665 17.244 29.7553 16.1168 29.9332C13.8808 30.2863 10.5463 29.3094 6.64833 25.3088C2.75369 21.3117 1.7989 17.9959 2.03308 15.8883C2.25542 13.8872 3.82501 13.1087 4.56117 12.7435C4.66172 12.6936 4.74671 12.6514 4.81061 12.6149C5.40808 12.2735 6.01508 12.3287 6.49983 12.542ZM5.8948 13.9171C5.7536 13.855 5.65954 13.8601 5.55595 13.9193C5.4236 13.9949 5.28798 14.0661 5.15264 14.1372C4.39791 14.5335 3.65159 14.9254 3.52617 16.0542C3.35975 17.552 4.00739 20.4457 7.72431 24.2604C11.4379 28.0717 14.3128 28.6972 15.8826 28.4493C16.6583 28.3269 17.1039 28.0144 17.4046 27.6773C17.685 27.3629 17.8529 27.0202 18.035 26.6485C18.0667 26.5838 18.0989 26.5182 18.1321 26.4517C18.2267 26.2625 18.2053 26.1508 18.1587 26.049C18.0932 25.9062 17.9499 25.7443 17.7338 25.5714C17.5683 25.439 17.3341 25.2447 17.0718 25.027C16.4539 24.5141 15.6801 23.8719 15.2826 23.6068C15.2562 23.5892 15.2447 23.589 15.2345 23.589C15.2156 23.589 15.1675 23.5946 15.0854 23.634C14.9094 23.7185 14.6904 23.9035 14.4735 24.1638C14.2402 24.4438 13.959 24.7783 13.6138 24.9813C13.2078 25.2202 12.7742 25.253 12.3202 25.1167C11.8176 25.0271 11.2551 24.736 10.7361 24.4024C10.1685 24.0375 9.55967 23.5597 8.98454 23.0369C8.97573 23.0289 8.9671 23.0207 8.95868 23.0122C8.36941 22.423 7.88397 21.804 7.52846 21.2434C7.1867 20.7044 6.92116 20.1511 6.84601 19.7002C6.77709 19.2867 6.8004 18.8839 7.01071 18.4866C7.19782 18.1332 7.50053 17.853 7.80712 17.5975C7.82145 17.5856 7.83622 17.5742 7.8514 17.5633C8.15395 17.3472 8.33987 17.1361 8.41204 16.9857C8.42779 16.9529 8.43497 16.9293 8.43813 16.9148C8.43969 16.9076 8.44025 16.9027 8.44046 16.8999L8.44059 16.8969L8.44069 16.8966C8.44072 16.8968 8.44072 16.8967 8.44065 16.8965L8.44056 16.8959C8.44056 16.8959 8.44057 16.896 8.4406 16.8962L8.44069 16.8966L8.44065 16.8965C8.44053 16.8961 8.44026 16.8953 8.43971 16.894C8.4381 16.8902 8.43157 16.8762 8.41201 16.8527C8.3949 16.8322 8.3789 16.8107 8.36407 16.7885C8.09905 16.391 7.45685 15.6172 6.94393 14.9992C6.72625 14.737 6.53186 14.5027 6.39947 14.3373C6.24653 14.1461 6.06173 13.9905 5.8948 13.9171Z" fill="black"/>
</svg>
