<svg width="32" height="32" viewBox="0 0 32 32" fill="none" xmlns="http://www.w3.org/2000/svg">
<path fill-rule="evenodd" clip-rule="evenodd" d="M2 5.8363C2 3.72961 3.72961 2 5.8363 2H19.7865C20.5142 2 21.195 2.30186 21.8096 2.9164L29.1506 10.2574C29.7695 10.7541 30 11.5958 30 12.2135V26.1637C30 28.2704 28.2704 30 26.1637 30H5.8363C3.72961 30 2 28.2704 2 26.1637V5.8363ZM5.8363 3.49466C4.55509 3.49466 3.49466 4.55509 3.49466 5.8363V26.1637C3.49466 27.4449 4.55509 28.5053 5.8363 28.5053H26.1637C27.4449 28.5053 28.5053 27.4449 28.5053 26.1637V12.2135C28.5053 11.8503 28.3489 11.5233 28.2064 11.4164C28.1781 11.3952 28.1514 11.372 28.1264 11.3469L20.7527 3.97328C20.3708 3.59138 20.0552 3.49466 19.7865 3.49466H5.8363Z" fill="black"/>
<path fill-rule="evenodd" clip-rule="evenodd" d="M19.5872 2C19.9999 2 20.3345 2.33459 20.3345 2.74733V10.3203C20.3345 11.0036 20.8967 11.5658 21.5801 11.5658H29.153C29.5658 11.5658 29.9004 11.9004 29.9004 12.3132C29.9004 12.7259 29.5658 13.0605 29.153 13.0605H21.5801C20.0712 13.0605 18.8399 11.8291 18.8399 10.3203V2.74733C18.8399 2.33459 19.1744 2 19.5872 2Z" fill="black"/>
<path d="M9.32384 21.7794V24.0712H7.92883V17.5943H10.4199C10.9181 17.5943 11.3167 17.6939 11.7153 17.8932C12.1139 18.0925 12.4128 18.2918 12.6121 18.6904C12.8114 18.9893 12.911 19.3879 12.911 19.7865C12.911 20.3843 12.7117 20.8826 12.2135 21.2811C11.8149 21.6797 11.2171 21.879 10.4199 21.879H9.32384V21.7794ZM9.32384 20.6833H10.5196C10.9181 20.6833 11.1174 20.5836 11.3167 20.3843C11.516 20.1851 11.6157 19.9858 11.6157 19.6868C11.6157 19.3879 11.516 19.089 11.3167 18.8897C11.1174 18.6904 10.9181 18.5907 10.5196 18.5907H9.32384V20.6833Z" fill="black"/>
<path d="M13.9075 24.0712V17.5943H15.9004C16.4982 17.5943 16.9964 17.6939 17.395 17.9929C17.8932 18.2918 18.1922 18.5907 18.4911 19.089C18.79 19.5872 18.8897 20.0854 18.8897 20.6833V20.9822C18.8897 21.5801 18.79 22.0783 18.4911 22.5765C18.2918 23.0747 17.8932 23.3737 17.395 23.6726C16.8968 23.9715 16.3986 24.0712 15.9004 24.0712H13.9075ZM15.2028 18.5907V22.9751H15.8007C16.2989 22.9751 16.6975 22.7758 16.9964 22.4769C17.2954 22.1779 17.395 21.6797 17.395 20.9822V20.6833C17.395 19.9858 17.2954 19.4875 16.9964 19.1886C16.6975 18.8897 16.2989 18.6904 15.8007 18.6904H15.2028V18.5907Z" fill="black"/>
<path d="M23.6726 21.3808H21.0819V24.0712H19.7865V17.5943H23.9715V18.6904H21.0819V20.3843H23.6726V21.3808Z" fill="black"/>
</svg>
