<svg width="32" height="32" viewBox="0 0 32 32" fill="none" xmlns="http://www.w3.org/2000/svg">
<path fill-rule="evenodd" clip-rule="evenodd" d="M8.47312 7.21864C7.78487 7.21864 7.21864 7.78487 7.21864 8.47312V27.2401C7.21864 27.9284 7.78487 28.4946 8.47312 28.4946H27.2401C27.6712 28.4946 27.972 28.3542 28.1631 28.1631C28.3542 27.972 28.4946 27.6712 28.4946 27.2401V8.47312C28.4946 7.78487 27.9284 7.21864 27.2401 7.21864H8.47312ZM5.71326 8.47312C5.71326 6.95348 6.95348 5.71326 8.47312 5.71326H27.2401C28.7598 5.71326 30 6.95348 30 8.47312V27.2401C30 28.0133 29.739 28.7162 29.2276 29.2276C28.7162 29.739 28.0133 30 27.2401 30H8.47312C6.95348 30 5.71326 28.7598 5.71326 27.2401V8.47312Z" fill="black"/>
<path fill-rule="evenodd" clip-rule="evenodd" d="M4.75986 3.50538C4.07161 3.50538 3.50538 4.07161 3.50538 4.75986V23.5269C3.50538 24.2151 4.07161 24.7814 4.75986 24.7814H23.5269C24.2151 24.7814 24.7814 24.2151 24.7814 23.5269V4.75986C24.7814 4.07161 24.2151 3.50538 23.5269 3.50538H4.75986ZM2 4.75986C2 3.24022 3.24022 2 4.75986 2H23.5269C25.0465 2 26.2867 3.24022 26.2867 4.75986V23.5269C26.2867 25.0465 25.0465 26.2867 23.5269 26.2867H4.75986C3.24022 26.2867 2 25.0465 2 23.5269V4.75986Z" fill="black"/>
<path d="M12.6882 12.086V19.914L19.7133 16L12.6882 12.086Z" fill="black"/>
<path fill-rule="evenodd" clip-rule="evenodd" d="M12.3069 11.4371C12.5369 11.3019 12.8214 11.2986 13.0545 11.4285L20.0796 15.3425C20.3181 15.4754 20.466 15.727 20.466 16C20.466 16.273 20.3181 16.5246 20.0796 16.6575L13.0545 20.5715C12.8214 20.7014 12.5369 20.6981 12.3069 20.5629C12.0768 20.4277 11.9355 20.1808 11.9355 19.914V12.086C11.9355 11.8192 12.0768 11.5723 12.3069 11.4371ZM13.4409 13.367V18.633L18.1668 16L13.4409 13.367Z" fill="black"/>
</svg>
