<svg width="32" height="32" viewBox="0 0 32 32" fill="none" xmlns="http://www.w3.org/2000/svg">
<path fill-rule="evenodd" clip-rule="evenodd" d="M30.0002 8.78788C30.0002 12.5367 26.9612 15.5758 23.2123 15.5758C19.4635 15.5758 16.4244 12.5367 16.4244 8.78788C16.4244 5.03904 19.4635 2 23.2123 2C26.9612 2 30.0002 5.03904 30.0002 8.78788ZM20.7166 11.2834V6.29232C20.7166 5.89304 21.1159 5.59357 21.4153 5.79321L25.9073 8.28876C26.3066 8.4884 26.3066 8.98751 25.9073 9.18715L21.5152 11.7825C21.1159 11.9822 20.7166 11.6827 20.7166 11.2834Z" fill="black"/>
<path fill-rule="evenodd" clip-rule="evenodd" d="M5.74338 3.54724C4.45989 3.54724 3.4974 4.50973 3.4974 5.79323V26.2567C3.4974 27.4567 4.47602 28.5027 5.74338 28.5027H26.107C27.3744 28.5027 28.353 27.4567 28.353 26.2567V16.4742C28.353 16.0607 28.6882 15.7255 29.1017 15.7255C29.5152 15.7255 29.8503 16.0607 29.8503 16.4742V26.2567C29.8503 28.251 28.2336 30 26.107 30H5.74338C3.61681 30 2.00007 28.251 2.00007 26.2567V5.79323C2.00007 3.68278 3.63294 2.04991 5.74338 2.04991H15.5259C15.9394 2.04991 16.2746 2.3851 16.2746 2.79857C16.2746 3.21205 15.9394 3.54724 15.5259 3.54724H5.74338Z" fill="black"/>
<path fill-rule="evenodd" clip-rule="evenodd" d="M8.75002 12.4315C9.00038 12.4355 9.23216 12.5644 9.36764 12.7749L17.0043 24.6439L20.3759 19.0808C20.5074 18.8637 20.7399 18.7281 20.9936 18.7205C21.2473 18.7129 21.4876 18.8343 21.6319 19.043L28.1203 28.4262C28.3555 28.7663 28.2704 29.2327 27.9303 29.4678C27.5902 29.703 27.1239 29.6179 26.8887 29.2779L21.0575 20.845L17.6635 26.4451C17.5297 26.6659 17.2915 26.8022 17.0333 26.8056C16.7751 26.8091 16.5334 26.6793 16.3936 26.4621L8.71642 14.5301L3.36504 22.2896C3.1303 22.6299 2.66407 22.7156 2.32369 22.4808C1.98331 22.2461 1.89768 21.7799 2.13242 21.4395L8.12173 12.755C8.26388 12.5489 8.49967 12.4275 8.75002 12.4315Z" fill="black"/>
</svg>
