<svg width="32" height="32" viewBox="0 0 32 32" fill="none" xmlns="http://www.w3.org/2000/svg">
<path fill-rule="evenodd" clip-rule="evenodd" d="M30 4.45353C30 3.10037 28.8996 2 27.5316 2H9.67286C8.31822 2 7.21933 3.09888 7.21933 4.45353V7.21933H4.45353C3.09888 7.21933 2 8.31822 2 9.67286V27.5316C2 28.8996 3.10037 30 4.45353 30H22.3123C23.6654 30 24.7807 28.8996 24.7807 27.5316V25.1167C24.7807 24.9591 24.7182 24.8074 24.6067 24.6944L22.6513 22.7271C22.5383 22.6126 22.3866 22.5502 22.2275 22.5502H9.67286C9.5539 22.5502 9.44981 22.4461 9.44981 22.3123V4.45353C9.44981 4.33011 9.54944 4.23048 9.67286 4.23048H27.5316C27.6654 4.23048 27.7695 4.33457 27.7695 4.45353V17.1688C27.7695 17.2253 27.7918 17.2788 27.832 17.3175L30 19.487V4.45353ZM4.45353 9.44981H7.21933V22.3123C7.21933 23.6803 8.31971 24.7807 9.67286 24.7807H21.3011C21.5167 24.7807 21.5857 24.822 21.6432 24.8762L21.801 25.0336C22.0191 25.2513 22.4388 25.6704 22.4654 25.6981C22.5204 25.7546 22.5502 25.8468 22.5502 25.9375V27.5316C22.5502 27.6654 22.4461 27.7695 22.3123 27.7695H4.45353C4.33457 27.7695 4.23049 27.6654 4.23049 27.5316V9.67286C4.23049 9.5539 4.33457 9.44981 4.45353 9.44981ZM18.6101 6.84803C22.2086 6.84803 25.1529 9.7774 25.1529 13.3908C25.1529 14.7886 24.7068 16.0822 23.9484 17.1529L29.6733 22.8778C30.1045 23.309 30.1045 24.0079 29.6733 24.454C29.4503 24.6622 29.1677 24.7811 28.8852 24.7811C28.6027 24.7811 28.3053 24.6622 28.0971 24.454L22.3722 18.7291C21.3016 19.4874 20.0079 19.9335 18.6101 19.9335C14.9967 19.9335 12.0674 16.9893 12.0674 13.3908C12.0674 9.7774 14.9967 6.84803 18.6101 6.84803ZM14.2978 13.3908C14.2978 11.0116 16.2309 9.07851 18.6101 9.07851C20.9893 9.07851 22.9224 11.0116 22.9224 13.3908C22.9224 15.77 20.9893 17.703 18.6101 17.703C16.2309 17.703 14.2978 15.77 14.2978 13.3908Z" fill="black"/>
</svg>
