<svg width="32" height="32" viewBox="0 0 32 32" fill="none" xmlns="http://www.w3.org/2000/svg">
<path fill-rule="evenodd" clip-rule="evenodd" d="M20.7373 16L12.302 7.56467L13.0091 6.85756L22.1516 16L13.0091 25.1424L12.302 24.4353L20.7373 16Z" fill="black"/>
<path fill-rule="evenodd" clip-rule="evenodd" d="M5.11111 2H26.8889C28.6071 2 30 3.39289 30 5.11111V26.8889C30 28.6071 28.6071 30 26.8889 30H5.11111C3.39289 30 2 28.6071 2 26.8889V5.11111C2 3.39289 3.39289 2 5.11111 2ZM28.4444 5.11111C28.4444 4.252 27.748 3.55556 26.8889 3.55556H5.11111C4.252 3.55556 3.55555 4.252 3.55555 5.11111V26.8889C3.55555 27.748 4.252 28.4444 5.11111 28.4444H26.8889C27.748 28.4444 28.4444 27.748 28.4444 26.8889V5.11111Z" fill="black"/>
<path fill-rule="evenodd" clip-rule="evenodd" d="M20.6667 16.5H2V15.5H20.6667V16.5Z" fill="black"/>
</svg>
