<svg width="32" height="32" viewBox="0 0 32 32" fill="none" xmlns="http://www.w3.org/2000/svg">
<path fill-rule="evenodd" clip-rule="evenodd" d="M9.4 4.75C9.4 3.23579 10.6358 2 12.15 2H26.95C28.4642 2 29.7 3.23579 29.7 4.75V27.25C29.7 28.7642 28.4642 30 26.95 30H12.15C10.5895 30 9.4 28.6163 9.4 27.15C9.4 26.7358 9.73579 26.4 10.15 26.4C10.5642 26.4 10.9 26.7358 10.9 27.15C10.9 27.8837 11.5105 28.5 12.15 28.5H26.95C27.6358 28.5 28.2 27.9358 28.2 27.25V4.75C28.2 4.06421 27.6358 3.5 26.95 3.5H12.15C11.4642 3.5 10.9 4.06421 10.9 4.75C10.9 5.16421 10.5642 5.5 10.15 5.5C9.73579 5.5 9.4 5.16421 9.4 4.75ZM9.79793 7.38777C10.1637 7.19333 10.6178 7.33219 10.8122 7.69793L15.0122 15.5979C15.1299 15.8193 15.1292 16.0848 15.0104 16.3056L10.8104 24.1056C10.614 24.4703 10.1591 24.6067 9.79442 24.4104C9.42972 24.214 9.29327 23.7591 9.48965 23.3944L13.4994 15.9477L9.48777 8.40207C9.29333 8.03633 9.43219 7.58221 9.79793 7.38777ZM12.9979 7.38777C13.3637 7.19333 13.8178 7.33219 14.0122 7.69793L18.2122 15.5979C18.3299 15.8193 18.3292 16.0848 18.2104 16.3056L14.0104 24.1056C13.814 24.4703 13.3591 24.6067 12.9944 24.4104C12.6297 24.214 12.4933 23.7591 12.6896 23.3944L16.6994 15.9477L12.6878 8.40207C12.4933 8.03633 12.6322 7.58221 12.9979 7.38777ZM6.95 7.3C7.22734 7.3 7.48204 7.45305 7.61223 7.69793L11.8122 15.5979C11.9299 15.8193 11.9292 16.0848 11.8104 16.3056L7.61035 24.1056C7.47954 24.3485 7.22591 24.5 6.95 24.5C6.67409 24.5 6.42046 24.3485 6.28965 24.1056L2.08965 16.3056C1.97079 16.0848 1.97008 15.8193 2.08777 15.5979L6.28777 7.69793C6.41796 7.45305 6.67266 7.3 6.95 7.3ZM3.6006 15.9477L6.95 22.1681L10.2994 15.9477L6.95 9.64769L3.6006 15.9477Z" fill="black"/>
</svg>
