<svg width="32" height="32" viewBox="0 0 32 32" fill="none" xmlns="http://www.w3.org/2000/svg">
<path fill-rule="evenodd" clip-rule="evenodd" d="M2 5.8363C2 3.72961 3.72961 2 5.8363 2H19.7865C20.5142 2 21.195 2.30186 21.8096 2.9164L29.1506 10.2574C29.7695 10.7541 30 11.5958 30 12.2135V26.1637C30 28.2704 28.2704 30 26.1637 30H5.8363C3.72961 30 2 28.2704 2 26.1637V5.8363ZM5.8363 3.49466C4.55509 3.49466 3.49466 4.55509 3.49466 5.8363V26.1637C3.49466 27.4449 4.55509 28.5053 5.8363 28.5053H26.1637C27.4449 28.5053 28.5053 27.4449 28.5053 26.1637V12.2135C28.5053 11.8503 28.3489 11.5233 28.2064 11.4164C28.1781 11.3952 28.1514 11.372 28.1264 11.3469L20.7527 3.97328C20.3708 3.59138 20.0552 3.49466 19.7865 3.49466H5.8363Z" fill="black"/>
<path fill-rule="evenodd" clip-rule="evenodd" d="M19.5872 2C19.9999 2 20.3345 2.33459 20.3345 2.74733V10.3203C20.3345 11.0036 20.8967 11.5658 21.5801 11.5658H29.153C29.5658 11.5658 29.9004 11.9004 29.9004 12.3132C29.9004 12.7259 29.5658 13.0605 29.153 13.0605H21.5801C20.0712 13.0605 18.8399 11.8291 18.8399 10.3203V2.74733C18.8399 2.33459 19.1744 2 19.5872 2Z" fill="black"/>
<path d="M8.52669 17.4947L10.2206 22.1779L11.9146 17.4947H13.7082V23.9715H12.4128V22.1779L12.5125 19.089L10.7189 23.9715H9.72242L8.02847 19.1886L8.12811 22.2776V24.0712H6.83274V17.5943H8.52669V17.4947Z" fill="black"/>
<path d="M16.0996 21.7794V24.0712H14.8043V17.5943H17.2954C17.7936 17.5943 18.1922 17.6939 18.5907 17.8932C18.9893 18.0925 19.2883 18.2918 19.4875 18.6904C19.6868 18.9893 19.7865 19.3879 19.7865 19.7865C19.7865 20.3843 19.5872 20.8826 19.089 21.2811C18.5907 21.6797 18.0925 21.879 17.2954 21.879H16.0996V21.7794ZM16.0996 20.6833H17.2954C17.6939 20.6833 17.8932 20.5836 18.0925 20.3843C18.2918 20.1851 18.3915 19.9858 18.3915 19.6868C18.3915 19.3879 18.2918 19.089 18.0925 18.8897C17.8932 18.6904 17.6939 18.5907 17.2954 18.5907H16.0996V20.6833Z" fill="black"/>
<path d="M25.0676 21.5801V22.5765H24.3701V23.9715H23.0747V22.5765H20.3843L20.2847 21.7794L22.9751 17.4947H24.2705V21.5801H25.0676ZM21.6797 21.5801H23.0747V19.2883L22.9751 19.3879L21.6797 21.5801Z" fill="black"/>
</svg>
