<svg width="32" height="32" viewBox="0 0 32 32" fill="none" xmlns="http://www.w3.org/2000/svg">
<path d="M27.1793 17.3113C26.7797 17.3113 26.38 17.6111 26.38 18.1106C26.38 23.9054 21.6842 28.6012 15.8894 28.6012C10.0946 28.6012 5.49866 23.8055 5.49866 18.0107C5.49866 12.5156 9.69492 8.01963 15.0901 7.61998L12.3925 10.4175C12.0928 10.7172 12.0928 11.2168 12.3925 11.5165C12.4924 11.6164 12.6922 11.7163 12.8921 11.7163C13.0919 11.7163 13.2917 11.6164 13.3916 11.5165L17.488 7.42016C17.7877 7.12043 17.7877 6.62087 17.488 6.32114L13.3916 2.2248C13.0919 1.92507 12.5923 1.92507 12.2926 2.2248C11.9929 2.52453 12.0928 3.02409 12.3925 3.32382L15.19 6.12132C8.99554 6.52096 4 11.7163 4 18.0107C4 24.6048 9.39518 30 15.9893 30C22.5834 30 27.9786 24.6048 27.9786 18.0107C27.8787 17.6111 27.5789 17.3113 27.1793 17.3113Z" fill="black"/>
</svg>
