<svg width="32" height="32" viewBox="0 0 32 32" fill="none" xmlns="http://www.w3.org/2000/svg">
<path fill-rule="evenodd" clip-rule="evenodd" d="M23.7074 2.05732C23.9886 2.17382 24.172 2.44828 24.172 2.75271V28.4946H27.233C27.6487 28.4946 27.9856 28.8316 27.9856 29.2473C27.9856 29.663 27.6487 30 27.233 30H19.7061C19.2904 30 18.9534 29.663 18.9534 29.2473C18.9534 28.8316 19.2904 28.4946 19.7061 28.4946H22.6667V4.56986L20.7401 6.49641C20.4462 6.79035 19.9696 6.79035 19.6756 6.49641C19.3817 6.20246 19.3817 5.72589 19.6756 5.43195L22.8871 2.22048C23.1024 2.00521 23.4261 1.94082 23.7074 2.05732ZM4.75269 2.00002C5.16839 2.00002 5.50538 2.33701 5.50538 2.75271V15.2473H14.2366V2.75271C14.2366 2.33701 14.5735 2.00002 14.9892 2.00002C15.4049 2.00002 15.7419 2.33701 15.7419 2.75271V29.2473C15.7419 29.663 15.4049 30 14.9892 30C14.5735 30 14.2366 29.663 14.2366 29.2473V16.7527H5.50538V29.2473C5.50538 29.663 5.16839 30 4.75269 30C4.33699 30 4 29.663 4 29.2473V2.75271C4 2.33701 4.33699 2.00002 4.75269 2.00002Z" fill="black"/>
</svg>
