<svg width="32" height="32" viewBox="0 0 32 32" fill="none" xmlns="http://www.w3.org/2000/svg">
<path fill-rule="evenodd" clip-rule="evenodd" d="M12.25 14.8C8.47072 14.8 5.5 17.8577 5.5 21.55V23.9H12.85C13.2642 23.9 13.6 24.2358 13.6 24.65C13.6 25.0642 13.2642 25.4 12.85 25.4H4.75C4.33579 25.4 4 25.0642 4 24.65V21.55C4 17.0423 7.62928 13.3 12.25 13.3C14.129 13.3 15.8874 13.9633 17.3073 15.0555C17.6356 15.3081 17.697 15.779 17.4445 16.1073C17.1919 16.4356 16.721 16.497 16.3927 16.2445C15.2126 15.3367 13.771 14.8 12.25 14.8Z" fill="black"/>
<path fill-rule="evenodd" clip-rule="evenodd" d="M12.15 3.5C10.2998 3.5 8.8 4.99985 8.8 6.85C8.8 8.70015 10.2998 10.2 12.15 10.2C14.0002 10.2 15.5 8.70015 15.5 6.85C15.5 4.99985 14.0002 3.5 12.15 3.5ZM7.3 6.85C7.3 4.17142 9.47142 2 12.15 2C14.8286 2 17 4.17142 17 6.85C17 9.52858 14.8286 11.7 12.15 11.7C9.47142 11.7 7.3 9.52858 7.3 6.85Z" fill="black"/>
<path d="M22.15 16.55C18.45 16.55 15.35 19.55 15.35 23.35C15.35 27.05 18.35 30.15 22.15 30.15C25.85 30.15 28.95 27.15 28.95 23.35C28.95 19.55 25.95 16.55 22.15 16.55ZM25.35 25.35C25.15 25.55 24.95 25.65 24.75 25.65C24.65 25.65 24.45 25.65 24.35 25.55L21.85 23.95C21.65 23.85 21.55 23.55 21.55 23.35V19.95C21.55 19.55 21.85 19.15 22.35 19.15C22.75 19.15 23.15 19.45 23.15 19.95V22.95L25.25 24.35C25.45 24.55 25.55 24.95 25.35 25.35Z" fill="black"/>
</svg>
