<svg width="32" height="32" viewBox="0 0 32 32" fill="none" xmlns="http://www.w3.org/2000/svg">
<path fill-rule="evenodd" clip-rule="evenodd" d="M18.6407 5.7334C18.2563 4.64587 17.2191 3.8667 16 3.8667C14.7809 3.8667 13.7437 4.64587 13.3593 5.7334H2V24.4001H15.0667V26.2667H7.6V28.1334H24.4V26.2667H16.9333V24.4001H30V5.7334H18.6407ZM17.3971 5.73337C17.0957 5.28313 16.5825 4.9867 16 4.9867C15.4175 4.9867 14.9043 5.28313 14.6029 5.73337H17.3971ZM13.3593 7.60003C13.7437 8.68755 14.7809 9.4667 16 9.4667C17.2191 9.4667 18.2563 8.68755 18.6407 7.60003H28.1333V22.5334H3.86667V7.60003H13.3593ZM14.6029 5.73337H17.3971C17.5758 6.00031 17.68 6.32135 17.68 6.6667C17.68 7.59454 16.9278 8.3467 16 8.3467C15.0722 8.3467 14.32 7.59454 14.32 6.6667C14.32 6.32135 14.4242 6.00031 14.6029 5.73337Z" fill="black"/>
</svg>
