<svg width="32" height="32" viewBox="0 0 32 32" fill="none" xmlns="http://www.w3.org/2000/svg">
<path fill-rule="evenodd" clip-rule="evenodd" d="M9.05247 8.28971C9.05247 7.02514 10.0776 6 11.3422 6H20.8011L20.8082 6.00021C22.0179 6.03588 22.9723 7.03987 22.9475 8.2491V9.52624H27.709C28.9727 9.52994 29.9963 10.5535 30 11.8172L30 11.8187L30 24.6593C30 25.9231 28.9755 26.9475 27.7118 26.9475H4.29942L4.298 26.9475C3.03039 26.9438 2.00372 25.9171 2 24.6495L2 24.6481V11.8145C2 10.5507 3.0245 9.52624 4.28829 9.52624H9.05247V8.28971ZM11.3422 6.96552C10.6109 6.96552 10.018 7.55838 10.018 8.28971V10.4918H4.28829C3.55774 10.4918 2.96552 11.084 2.96552 11.8145V24.6473C2.96803 25.3834 3.56415 25.9795 4.30025 25.982H27.7118C28.4423 25.982 29.0345 25.3898 29.0345 24.6593V11.819C29.0317 11.087 28.4388 10.4942 27.7067 10.4918H21.982V8.23266C21.9977 7.55368 21.4642 6.98902 20.7863 6.96552H11.3422Z" fill="black"/>
<path fill-rule="evenodd" clip-rule="evenodd" d="M19.356 22.5525L19.7656 19.5849L19.3644 19.5295L18.8856 22.9986L22.375 22.7045L22.341 22.3009L19.356 22.5525Z" fill="black"/>
<path fill-rule="evenodd" clip-rule="evenodd" d="M14.4901 13.2395L14.0113 16.7093L13.6101 16.6539L14.0197 13.6858L11.0341 13.9379L11 13.5343L14.4901 13.2395Z" fill="black"/>
<path fill-rule="evenodd" clip-rule="evenodd" d="M14.4844 13.9333C12.5361 14.9359 11.4965 17.1155 11.9433 19.2605C12.3901 21.4056 14.2136 22.9887 16.4001 23.13L16.374 23.5342C14.0057 23.3812 12.0308 21.6665 11.5468 19.3431C11.0628 17.0198 12.1889 14.6591 14.2991 13.5732L14.4844 13.9333Z" fill="black"/>
<path fill-rule="evenodd" clip-rule="evenodd" d="M21.483 17.2779C21.0379 15.1314 19.2143 13.5462 17.0267 13.4042L17.0529 13C19.4223 13.1538 21.3975 14.8707 21.8795 17.1957C22.3616 19.5207 21.232 21.8814 19.119 22.9646L18.9343 22.6042C20.8851 21.6041 21.928 19.4245 21.483 17.2779Z" fill="black"/>
</svg>
