<svg width="32" height="32" viewBox="0 0 32 32" fill="none" xmlns="http://www.w3.org/2000/svg">
<path d="M7.25 5.5H5.5V7.25H7.25V5.5Z" fill="black"/>
<path fill-rule="evenodd" clip-rule="evenodd" d="M10.75 2H2V10.75H10.75V2ZM9 9H3.75V3.75H9V9Z" fill="black"/>
<path d="M26.5 5.5H24.75V7.25H26.5V5.5Z" fill="black"/>
<path fill-rule="evenodd" clip-rule="evenodd" d="M21.25 2H30V10.75H21.25V2ZM23 9H28.25V3.75H23V9Z" fill="black"/>
<path d="M7.25 24.75H5.5V26.5H7.25V24.75Z" fill="black"/>
<path fill-rule="evenodd" clip-rule="evenodd" d="M10.75 30H2V21.25H10.75V30ZM9 23H3.75V28.25H9V23Z" fill="black"/>
<path d="M16 2H19.5V3.75H16V2Z" fill="black"/>
<path d="M16 9H17.75V7.25H19.5V5.5H14.25V3.75H12.5V7.25H16V9Z" fill="black"/>
<path d="M12.5 9H14.25V10.75H12.5V9Z" fill="black"/>
<path d="M19.5 10.75H17.75V12.5H12.5V14.25H19.5V10.75Z" fill="black"/>
<path d="M5.5 17.75H3.75V19.5H2V12.5H3.75V16H5.5V17.75Z" fill="black"/>
<path d="M7.25 12.5H5.5V14.25H7.25V12.5Z" fill="black"/>
<path d="M16 17.75V19.5H12.5V17.75H9V19.5H7.25V16H9V12.5H10.75V16H14.25V17.75H16Z" fill="black"/>
<path d="M19.5 16H17.75V19.5H19.5V16Z" fill="black"/>
<path d="M12.5 21.25H17.75V26.5H21.25V28.25H17.75V30H12.5V28.25H16V23H12.5V21.25Z" fill="black"/>
<path d="M14.25 24.75H12.5V26.5H14.25V24.75Z" fill="black"/>
<path d="M19.5 21.25H21.25V24.75H19.5V21.25Z" fill="black"/>
<path d="M28.25 24.75H23V30H24.75V26.5H28.25V24.75Z" fill="black"/>
<path d="M26.5 30V28.25H30V30H26.5Z" fill="black"/>
<path d="M30 21.25H28.25V23H30V21.25Z" fill="black"/>
<path d="M24.75 23H23V19.5H21.25V17.75H24.75V23Z" fill="black"/>
<path d="M26.5 14.25H24.75V12.5H23V14.25H21.25V16H28.25V14.25H30V12.5H26.5V14.25Z" fill="black"/>
<path d="M26.5 17.75H30V19.5H26.5V17.75Z" fill="black"/>
</svg>
