<svg width="32" height="32" viewBox="0 0 32 32" fill="none" xmlns="http://www.w3.org/2000/svg">
<path d="M29.18 10.26L21.73 2.81C21.21 2.29 20.51 2 19.76 2H5.81C3.71 2 2 3.71 2 5.81V26.19C2 28.29 3.71 30 5.81 30H26.19C28.29 30 30 28.29 30 26.19V12.24C30 11.49 29.71 10.79 29.18 10.26ZM28.12 11.33C28.22 11.43 28.28 11.55 28.34 11.67H21.62C20.91 11.67 20.33 11.09 20.33 10.38V3.65C20.45 3.71 20.57 3.78 20.67 3.88L28.12 11.33ZM26.19 28.5H5.81C4.54 28.5 3.5 27.46 3.5 26.19V5.81C3.5 4.54 4.54 3.5 5.81 3.5H18.84V10.37C18.84 11.91 20.09 13.16 21.63 13.16H28.5V26.19C28.5 27.46 27.46 28.5 26.19 28.5Z" fill="black"/>
<path d="M11.1 17.93C10.73 17.75 10.3 17.66 9.81 17.66H7.26V24.18H8.6V21.88H9.78C10.55 21.88 11.16 21.7 11.6 21.33C12.04 20.96 12.26 20.46 12.26 19.82C12.26 19.4 12.16 19.02 11.96 18.69C11.75 18.36 11.47 18.11 11.1 17.93ZM10.62 20.55C10.43 20.72 10.16 20.8 9.81 20.8H8.6V18.75H9.83C10.16 18.76 10.42 18.86 10.61 19.05C10.8 19.25 10.89 19.51 10.89 19.82C10.9 20.14 10.8 20.38 10.62 20.55Z" fill="black"/>
<path d="M17.14 21.96L14.52 17.66H13.18V24.18H14.52V19.89L17.14 24.18H18.48V17.66H17.14V21.96Z" fill="black"/>
<path d="M21.22 19.17C21.46 18.83 21.81 18.65 22.26 18.65C22.62 18.65 22.9 18.74 23.1 18.91C23.31 19.08 23.44 19.36 23.5 19.73H24.81C24.73 19.02 24.47 18.49 24.03 18.12C23.59 17.75 22.99 17.57 22.22 17.57C21.67 17.57 21.18 17.7 20.77 17.95C20.36 18.2 20.04 18.57 19.82 19.04C19.6 19.52 19.49 20.08 19.49 20.73V21.17C19.5 21.8 19.61 22.35 19.85 22.82C20.08 23.29 20.41 23.65 20.84 23.89C21.27 24.13 21.76 24.26 22.32 24.26C22.86 24.26 23.35 24.18 23.79 24.02C24.23 23.86 24.58 23.64 24.82 23.35V20.75H22.25V21.74H23.47V22.86C23.25 23.07 22.89 23.18 22.39 23.18C21.89 23.18 21.51 23.01 21.25 22.66C20.99 22.31 20.86 21.79 20.86 21.11V20.7C20.86 20.02 20.98 19.51 21.22 19.17Z" fill="black"/>
</svg>
