<svg width="32" height="32" viewBox="0 0 32 32" fill="none" xmlns="http://www.w3.org/2000/svg">
<path fill-rule="evenodd" clip-rule="evenodd" d="M17.6936 6.44305L17.6948 6.44305C21.1887 6.44305 24.3727 7.50504 26.6945 9.24683C29.0165 10.9888 30.5 13.4339 30.5 16.1783C30.5 18.9226 29.0167 21.3708 26.6949 23.1159C24.3733 24.8609 21.1893 25.9263 17.6954 25.9264C16.4518 25.9295 15.2123 25.7883 14.0016 25.5058C11.8892 26.4848 9.56162 26.8346 7.74138 26.9503C6.80417 27.0098 5.99326 27.0077 5.40459 26.9949C5.17971 26.99 4.98552 26.9835 4.832 26.9784C4.78538 26.9768 4.74252 26.9754 4.70368 26.9742C4.61822 26.9715 4.55627 26.9699 4.51366 26.9698C4.49619 26.9698 4.48608 26.97 4.4814 26.9702C4.49379 26.9691 4.52337 26.9653 4.55862 26.9549L4.19901 26.0255C5.11482 25.5805 6.0826 25.1091 6.8896 24.532C7.58335 24.0359 8.11151 23.4938 8.38821 22.8742C7.36419 22.0558 6.5062 21.0472 5.86211 19.9028L6.73358 19.4123C7.3702 20.5435 8.23847 21.5275 9.28158 22.3L9.56268 22.5082L9.46347 22.8437C9.149 23.9069 8.35756 24.7116 7.47128 25.3454C7.14327 25.58 6.79357 25.7971 6.43756 25.9997C6.81432 25.9945 7.23148 25.9806 7.67797 25.9523C9.48527 25.8375 11.7405 25.4861 13.7301 24.5282L13.8917 24.4503L14.066 24.4931C15.2532 24.784 16.4713 24.9295 17.6936 24.9264H17.6948C20.9928 24.9264 23.9612 23.9196 26.0941 22.3165C28.2268 20.7136 29.5 18.5378 29.5 16.1783C29.5 13.819 28.2269 11.6465 26.0944 10.0468C23.9618 8.44694 20.9935 7.44318 17.6955 7.44305C17.1243 7.4445 16.5537 7.47759 15.9862 7.54217L15.8731 6.54859C16.4775 6.4798 17.0853 6.44457 17.6936 6.44305ZM4.47897 26.9703C4.4795 26.9703 4.4803 26.9702 4.4814 26.9702L4.47897 26.9703Z" fill="black"/>
<path fill-rule="evenodd" clip-rule="evenodd" d="M13.0304 17.248L1.64624 5.851L2.35374 5.14429L13.7379 16.5413L13.0304 17.248Z" fill="black"/>
<path fill-rule="evenodd" clip-rule="evenodd" d="M1.64624 16.5413L13.0304 5.14429L13.7379 5.851L2.35374 17.248L1.64624 16.5413Z" fill="black"/>
</svg>
