<svg width="32" height="32" viewBox="0 0 32 32" fill="none" xmlns="http://www.w3.org/2000/svg">
<path fill-rule="evenodd" clip-rule="evenodd" d="M18.2311 5.19444L18.4948 5.2728C22.0697 6.33495 24.5686 9.56287 24.5717 13.2541C24.5318 14.2641 24.6297 16.0958 24.996 17.9604C25.6105 21.0888 26.8179 23.4776 28.81 24.6757C29.1498 24.8798 29.3097 25.2804 29.2006 25.6576C29.0916 26.0315 28.7421 26.2886 28.3444 26.2886H20.4809L20.4149 26.5689C19.945 28.5613 18.1185 30 16.0003 30C13.882 30 12.0556 28.5613 11.5865 26.569L11.5205 26.2886H3.65524C3.2586 26.2886 2.90952 26.0316 2.79964 25.6565C2.69021 25.2802 2.84988 24.8798 3.18946 24.6759C6.2331 22.8462 7.58387 17.7048 7.4303 13.2916C7.42971 9.57782 9.9254 6.33737 13.5058 5.27278L13.7694 5.19438V4.17729C13.7694 2.9763 14.772 2 16.0003 2C17.229 2 18.2311 2.976 18.2311 4.17729V5.19444ZM25.8843 24.2813L26.3113 24.8642H5.66585L6.09279 24.2814C7.4256 22.4617 8.2515 20.0517 8.6669 17.3294C8.92351 15.6478 8.98248 14.1709 8.94831 13.2464C8.94831 9.49492 12.1051 6.44179 15.989 6.44179C19.8645 6.44179 23.0287 9.4877 23.0294 13.2151C22.9955 14.1658 23.0532 15.6325 23.31 17.3213C23.7247 20.0483 24.5506 22.4607 25.8843 24.2813Z" fill="black"/>
<path fill-rule="evenodd" clip-rule="evenodd" d="M18.2311 5.19444L18.4948 5.2728C22.0697 6.33495 24.5686 9.56287 24.5717 13.2541C24.5318 14.2641 24.6297 16.0958 24.996 17.9604C25.6105 21.0888 26.8179 23.4776 28.81 24.6757C29.1498 24.8798 29.3097 25.2804 29.2006 25.6576C29.0916 26.0315 28.7421 26.2886 28.3444 26.2886H20.4809L20.4149 26.5689C19.945 28.5613 18.1185 30 16.0003 30C13.882 30 12.0556 28.5613 11.5865 26.569L11.5205 26.2886H3.65524C3.2586 26.2886 2.90952 26.0316 2.79964 25.6565C2.69021 25.2802 2.84988 24.8798 3.18946 24.6759C6.2331 22.8462 7.58387 17.7048 7.4303 13.2916C7.42971 9.57782 9.9254 6.33737 13.5058 5.27278L13.7694 5.19438V4.17729C13.7694 2.9763 14.772 2 16.0003 2C17.229 2 18.2311 2.976 18.2311 4.17729V5.19444ZM25.8843 24.2813L26.3113 24.8642H5.66585L6.09279 24.2814C7.4256 22.4617 8.2515 20.0517 8.6669 17.3294C8.92351 15.6478 8.98248 14.1709 8.94831 13.2464C8.94831 9.49492 12.1051 6.44179 15.989 6.44179C19.8645 6.44179 23.0287 9.4877 23.0294 13.2151C22.9955 14.1658 23.0532 15.6325 23.31 17.3213C23.7247 20.0483 24.5506 22.4607 25.8843 24.2813Z" fill="black"/>
</svg>
