<svg width="32" height="32" viewBox="0 0 32 32" fill="none" xmlns="http://www.w3.org/2000/svg">
<path d="M16 2C8.3 2 2 8.3 2 16C2 23.7 8.3 30 16 30C23.7 30 30 23.7 30 16C30 8.3 23.7 2 16 2ZM9.3 26.5V25.8C9.3 22.1 12.3 19.1 16 19.1C19.7 19.1 22.7 22.1 22.7 25.8V26.5C20.8 27.7 18.5 28.5 16 28.5C13.5 28.5 11.2 27.8 9.3 26.5ZM24.2 25.4C24 21.1 20.4 17.6 16 17.6C11.6 17.6 8 21 7.8 25.4C5.2 23.1 3.5 19.7 3.5 16C3.5 9.1 9.1 3.5 16 3.5C22.9 3.5 28.5 9.1 28.5 16C28.5 19.8 26.8 23.1 24.2 25.4Z" fill="black"/>
<path d="M16 6.4C13.3 6.4 11.2 8.6 11.2 11.2C11.2 13.8 13.4 16 16 16C18.7 16 20.8 13.8 20.8 11.2C20.8 8.6 18.7 6.4 16 6.4ZM16 14.6C14.2 14.6 12.7 13.1 12.7 11.3C12.7 9.5 14.2 8 16 8C17.8 8 19.3 9.5 19.3 11.3C19.3 13.1 17.8 14.6 16 14.6Z" fill="black"/>
</svg>
