<svg width="32" height="32" viewBox="0 0 32 32" fill="none" xmlns="http://www.w3.org/2000/svg">
<path fill-rule="evenodd" clip-rule="evenodd" d="M6.75 11.7C7.16421 11.7 7.5 12.0358 7.5 12.45V15.25C7.5 19.8358 11.2642 23.6 15.85 23.6C20.4358 23.6 24.2 19.8358 24.2 15.25V12.45C24.2 12.0358 24.5358 11.7 24.95 11.7C25.3642 11.7 25.7 12.0358 25.7 12.45V15.25C25.7 20.6642 21.2642 25.1 15.85 25.1C10.4358 25.1 6 20.6642 6 15.25V12.45C6 12.0358 6.33579 11.7 6.75 11.7Z" fill="black"/>
<path fill-rule="evenodd" clip-rule="evenodd" d="M15.55 3.5C13.0642 3.5 11.1 5.46421 11.1 7.95V15.55C11.1 18.0358 13.0642 20 15.55 20H16.25C18.7358 20 20.7 18.0358 20.7 15.55V7.95C20.7 5.46421 18.7358 3.5 16.25 3.5H15.55ZM9.6 7.95C9.6 4.63579 12.2358 2 15.55 2H16.25C19.5642 2 22.2 4.63579 22.2 7.95V15.55C22.2 18.8642 19.5642 21.5 16.25 21.5H15.55C12.2358 21.5 9.6 18.8642 9.6 15.55V7.95Z" fill="black"/>
<path fill-rule="evenodd" clip-rule="evenodd" d="M15.1 29.15V24.35H16.6V29.15H15.1Z" fill="black"/>
<path fill-rule="evenodd" clip-rule="evenodd" d="M9.6 29.15C9.6 28.7358 9.93579 28.4 10.35 28.4H21.45C21.8642 28.4 22.2 28.7358 22.2 29.15C22.2 29.5642 21.8642 29.9 21.45 29.9H10.35C9.93579 29.9 9.6 29.5642 9.6 29.15Z" fill="black"/>
</svg>
