<svg width="32" height="32" viewBox="0 0 32 32" fill="none" xmlns="http://www.w3.org/2000/svg">
<path fill-rule="evenodd" clip-rule="evenodd" d="M27.5882 4.41179C26.3779 3.20144 24.3473 3.20144 23.137 4.41179L23.1354 4.41338L21.9559 5.5858L26.3705 10.0807L27.5882 8.86305C28.7986 7.6527 28.7986 5.62214 27.5882 4.41179ZM25.307 11.1443L20.8892 6.64613L6.44442 21.0044C6.43858 21.0132 6.43281 21.0219 6.4271 21.0305L10.9239 25.5273L25.307 11.1443ZM9.48163 26.2121L5.78793 22.5184L3.94107 28.0589L9.48163 26.2121ZM22.074 3.34771C23.8718 1.55057 26.8542 1.55076 28.6517 3.34828C30.4494 5.14599 30.4494 8.12885 28.6517 9.92656L11.9069 26.6714C11.6336 26.9446 11.2348 27.2131 10.8108 27.3544L2.98984 29.9614C2.71962 30.0515 2.42169 29.9811 2.22028 29.7797C2.01887 29.5783 1.94854 29.2804 2.03861 29.0102L4.64559 21.1892C4.77832 20.791 5.02774 20.4174 5.21145 20.1422C5.21931 20.1305 5.22704 20.1189 5.23464 20.1075C5.26253 20.0656 5.29455 20.0267 5.3302 19.9913L22.0734 3.34828C22.0736 3.34809 22.0738 3.3479 22.074 3.34771Z" fill="black"/>
</svg>
