<svg width="32" height="32" viewBox="0 0 32 32" fill="none" xmlns="http://www.w3.org/2000/svg">
<path fill-rule="evenodd" clip-rule="evenodd" d="M16.15 5C16.5642 5 16.9 5.33579 16.9 5.75V26.75C16.9 27.1642 16.5642 27.5 16.15 27.5C15.7358 27.5 15.4 27.1642 15.4 26.75V5.75C15.4 5.33579 15.7358 5 16.15 5ZM11.45 9.5C11.8642 9.5 12.2 9.83579 12.2 10.25V22.15C12.2 22.5642 11.8642 22.9 11.45 22.9C11.0358 22.9 10.7 22.5642 10.7 22.15V10.25C10.7 9.83579 11.0358 9.5 11.45 9.5ZM20.95 9.5C21.3642 9.5 21.7 9.83579 21.7 10.25V22.15C21.7 22.5642 21.3642 22.9 20.95 22.9C20.5358 22.9 20.2 22.5642 20.2 22.15V10.25C20.2 9.83579 20.5358 9.5 20.95 9.5ZM6.75 13.6C7.16421 13.6 7.5 13.9358 7.5 14.35V18.05C7.5 18.4642 7.16421 18.8 6.75 18.8C6.33579 18.8 6 18.4642 6 18.05V14.35C6 13.9358 6.33579 13.6 6.75 13.6ZM25.65 13.6C26.0642 13.6 26.4 13.9358 26.4 14.35V18.05C26.4 18.4642 26.0642 18.8 25.65 18.8C25.2358 18.8 24.9 18.4642 24.9 18.05V14.35C24.9 13.9358 25.2358 13.6 25.65 13.6Z" fill="black"/>
</svg>
