<svg width="32" height="32" viewBox="0 0 32 32" fill="none" xmlns="http://www.w3.org/2000/svg">
<path fill-rule="evenodd" clip-rule="evenodd" d="M7.09091 8.37667C7.09091 9.78008 5.95127 10.9178 4.54545 10.9178C3.13964 10.9178 2 9.78008 2 8.37667C2 6.97326 3.13964 5.83557 4.54545 5.83557C5.95127 5.83557 7.09091 6.97326 7.09091 8.37667ZM30 7.10612H12.1818V9.64722H30V7.10612ZM4.54545 18.5411C5.95127 18.5411 7.09091 17.4034 7.09091 16C7.09091 14.5965 5.95127 13.4589 4.54545 13.4589C3.13964 13.4589 2 14.5965 2 16C2 17.4034 3.13964 18.5411 4.54545 18.5411ZM30 14.7294H12.1818V17.2705H30V14.7294ZM4.54545 26.1643C5.95127 26.1643 7.09091 25.0267 7.09091 23.6232C7.09091 22.2198 5.95127 21.0821 4.54545 21.0821C3.13964 21.0821 2 22.2198 2 23.6232C2 25.0267 3.13964 26.1643 4.54545 26.1643ZM30 22.3527H12.1818V24.8938H30V22.3527Z" fill="black"/>
<path fill-rule="evenodd" clip-rule="evenodd" d="M7.09091 8.37667C7.09091 9.78008 5.95127 10.9178 4.54545 10.9178C3.13964 10.9178 2 9.78008 2 8.37667C2 6.97326 3.13964 5.83557 4.54545 5.83557C5.95127 5.83557 7.09091 6.97326 7.09091 8.37667ZM30 7.10612H12.1818V9.64722H30V7.10612ZM4.54545 18.5411C5.95127 18.5411 7.09091 17.4034 7.09091 16C7.09091 14.5965 5.95127 13.4589 4.54545 13.4589C3.13964 13.4589 2 14.5965 2 16C2 17.4034 3.13964 18.5411 4.54545 18.5411ZM30 14.7294H12.1818V17.2705H30V14.7294ZM4.54545 26.1643C5.95127 26.1643 7.09091 25.0267 7.09091 23.6232C7.09091 22.2198 5.95127 21.0821 4.54545 21.0821C3.13964 21.0821 2 22.2198 2 23.6232C2 25.0267 3.13964 26.1643 4.54545 26.1643ZM30 22.3527H12.1818V24.8938H30V22.3527Z" fill="black"/>
</svg>
