<svg width="32" height="32" viewBox="0 0 32 32" fill="none" xmlns="http://www.w3.org/2000/svg">
<path d="M29.1757 9.11864H17.7859L23.5807 3.32382C23.8805 3.02409 23.8805 2.52453 23.5807 2.2248C23.281 1.92507 22.7814 1.92507 22.4817 2.2248L15.9875 8.81891L11.5914 4.42284C11.2917 4.1231 10.7922 4.1231 10.4924 4.42284C10.1927 4.72257 10.1927 5.22212 10.4924 5.52186L14.0892 9.11864H2.79929C2.29973 9.11864 2 9.41838 2 9.91793V29.3006C2 29.6004 2.29973 30 2.79929 30H29.2756C29.6753 30 30.0749 29.7003 30.0749 29.2007V9.91793C29.975 9.41838 29.6753 9.11864 29.1757 9.11864ZM28.4764 28.5013H3.49866V10.6173H28.4764V28.5013Z" fill="black"/>
<path d="M25.8787 27.2025C26.5781 27.2025 27.1775 26.603 27.1775 25.9037C27.1775 25.2043 26.5781 24.6048 25.8787 24.6048C25.1793 24.6048 24.5798 25.2043 24.5798 25.9037C24.5798 26.603 25.1793 27.2025 25.8787 27.2025Z" fill="black"/>
</svg>
