<svg width="32" height="32" viewBox="0 0 32 32" fill="none" xmlns="http://www.w3.org/2000/svg">
<path d="M16 2C8.3 2 2 8.3 2 16C2 23.7 8.3 30 16 30C23.7 30 30 23.7 30 16C30 8.3 23.7 2 16 2ZM16 28.5C9.1 28.5 3.5 22.9 3.5 16C3.5 9.1 9.1 3.5 16 3.5C22.9 3.5 28.5 9.1 28.5 16C28.5 22.9 22.9 28.5 16 28.5Z" fill="black"/>
<path d="M15.8 21.7C15.2 21.7 14.6 22.2 14.6 22.9C14.6 23.5 15.1 24.1 15.8 24.1C16.4 24.1 17 23.6 17 22.9C16.9 22.2 16.4 21.7 15.8 21.7Z" fill="black"/>
<path d="M16.2 8.6C13.6 8.6 12.1 9.9 12.1 12.1C12.1 12.5 12.4 12.9 12.9 12.9C13.4 12.9 13.7 12.6 13.7 12.1C13.7 11.6 13.7 10.1 16.3 10.1C17 10.1 17.5 10.3 17.9 10.7C18.3 11.2 18.5 11.9 18.4 12.4C18.3 13.3 17.7 14.2 16.9 15.2C16.8 15.3 16.7 15.4 16.6 15.6C15.8 16.4 15 17.4 15 19.3C15 19.7 15.3 20.1 15.8 20.1C16.3 20.1 16.6 19.8 16.6 19.3C16.6 18 17.1 17.4 17.8 16.6C17.9 16.5 18 16.3 18.1 16.2C19 15.2 19.9 14 20 12.6C20.1 11.6 19.7 10.5 19.1 9.8C18.5 9.2 17.7 8.6 16.2 8.6Z" fill="black"/>
</svg>
