<svg width="32" height="32" viewBox="0 0 32 32" fill="none" xmlns="http://www.w3.org/2000/svg">
<path fill-rule="evenodd" clip-rule="evenodd" d="M16.0455 25.25C22.3075 25.25 27.6625 21.4335 29.8757 15.9369L30 15.6221L29.8757 15.3073L29.8405 15.2081C27.64 9.81072 22.2723 6 16.0005 6C9.72869 6 4.36097 9.81168 2.12426 15.3073L2 15.6221L2.12426 15.9369L2.15949 16.0361C4.33749 21.4335 9.69347 25.25 15.9545 25.25H16.0455ZM16.0103 23.4996C10.6093 23.4996 5.97051 20.2916 3.92166 15.6221L3.95395 15.5383C5.96953 10.9526 10.6083 7.74359 16.0093 7.74359C21.4103 7.74359 26.0491 10.9516 28.0979 15.6211L28.0656 15.7049C26.05 20.2907 21.4113 23.4996 16.0103 23.4996Z" fill="black"/>
<path d="M22.3 15.625C22.3 19.008 19.4797 21.75 16 21.75C12.5203 21.75 9.7 19.008 9.7 15.625C9.7 12.242 12.5203 9.5 16 9.5C19.4797 9.5 22.3 12.242 22.3 15.625Z" fill="black"/>
</svg>
