<svg width="32" height="32" viewBox="0 0 32 32" fill="none" xmlns="http://www.w3.org/2000/svg">
<path fill-rule="evenodd" clip-rule="evenodd" d="M2 5.8363C2 3.72961 3.72961 2 5.8363 2H19.7865C20.5142 2 21.195 2.30186 21.8096 2.9164L29.1506 10.2574C29.7695 10.7541 30 11.5958 30 12.2135V26.1637C30 28.2704 28.2704 30 26.1637 30H5.8363C3.72961 30 2 28.2704 2 26.1637V5.8363ZM5.8363 3.49466C4.55509 3.49466 3.49466 4.55509 3.49466 5.8363V26.1637C3.49466 27.4449 4.55509 28.5053 5.8363 28.5053H26.1637C27.4449 28.5053 28.5053 27.4449 28.5053 26.1637V12.2135C28.5053 11.8503 28.3489 11.5233 28.2064 11.4164C28.1781 11.3952 28.1514 11.372 28.1264 11.3469L20.7527 3.97328C20.3708 3.59138 20.0552 3.49466 19.7865 3.49466H5.8363Z" fill="black"/>
<path fill-rule="evenodd" clip-rule="evenodd" d="M19.5872 2C19.9999 2 20.3345 2.33459 20.3345 2.74733V10.3203C20.3345 11.0036 20.8967 11.5658 21.5801 11.5658H29.153C29.5658 11.5658 29.9004 11.9004 29.9004 12.3132C29.9004 12.7259 29.5658 13.0605 29.153 13.0605H21.5801C20.0712 13.0605 18.8399 11.8291 18.8399 10.3203V2.74733C18.8399 2.33459 19.1744 2 19.5872 2Z" fill="black"/>
<path d="M11.9146 17.5943V22.0783C11.9146 22.4769 11.8149 22.8754 11.6157 23.1744C11.4164 23.4733 11.2171 23.7722 10.8185 23.8719C10.5196 24.0712 10.121 24.1708 9.72242 24.1708C9.02491 24.1708 8.52669 23.9715 8.12811 23.6726C7.72954 23.274 7.53025 22.8754 7.53025 22.1779H8.92527C8.92527 22.4769 9.02491 22.7758 9.12456 22.8754C9.2242 23.0747 9.42349 23.0747 9.72242 23.0747C10.0214 23.0747 10.2206 22.9751 10.3203 22.7758C10.5196 22.5765 10.5196 22.3772 10.5196 21.9786V17.5943H11.9146Z" fill="black"/>
<path d="M14.4057 21.7794V24.0712H13.1103V17.5943H15.6014C16.0996 17.5943 16.4982 17.6939 16.8968 17.8932C17.2954 18.0925 17.5943 18.2918 17.7936 18.6904C17.9929 18.9893 18.0925 19.3879 18.0925 19.7865C18.0925 20.3843 17.8932 20.8826 17.395 21.2811C16.8968 21.6797 16.3986 21.879 15.6014 21.879H14.4057V21.7794ZM14.4057 20.6833H15.6014C16 20.6833 16.1993 20.5836 16.3986 20.484C16.5979 20.2847 16.6975 20.0854 16.6975 19.7865C16.6975 19.4875 16.5979 19.1886 16.3986 18.9893C16.1993 18.79 16 18.6904 15.6014 18.6904H14.4057V20.6833Z" fill="black"/>
<path d="M23.0747 23.9715C22.6762 24.1708 22.1779 24.1708 21.5801 24.1708C20.9822 24.1708 20.4271 23.9863 20.0854 23.7722C19.7437 23.5582 19.4873 23.3736 19.089 22.6762C18.6906 21.9787 18.6904 21.6797 18.6904 20.9822V20.5836C18.6904 19.8861 18.79 19.3879 18.9893 18.8897C19.1886 18.3915 19.4875 18.0925 19.9858 17.7936C20.3843 17.4947 20.8826 17.395 21.4804 17.395C22.2776 17.395 22.8754 17.5943 23.274 17.9929C23.6726 18.3915 23.9715 18.8897 24.0712 19.5872H22.7758C22.6762 19.1886 22.5765 18.9893 22.3772 18.79C22.1779 18.5907 21.879 18.4911 21.5801 18.4911C21.0819 18.4911 20.7829 18.6904 20.5836 18.9893C20.3843 19.2883 20.1851 19.8861 20.1851 20.484V20.8826C20.1851 21.5801 20.2847 22.0783 20.5836 22.4769C20.8826 22.8754 21.1815 22.9751 21.6797 22.9751C22.1779 22.9751 22.5765 22.8754 22.7758 22.6762V21.5801H21.5801V20.5836H24.1708V23.274C24.1708 23.274 23.8381 23.5898 23.0747 23.9715Z" fill="black"/>
</svg>
