<svg width="32" height="32" viewBox="0 0 32 32" fill="none" xmlns="http://www.w3.org/2000/svg">
<path fill-rule="evenodd" clip-rule="evenodd" d="M5.23328 20.0444C5.23328 14.27 9.91439 9.58889 15.6888 9.58889C21.4633 9.58889 26.1444 14.27 26.1444 20.0444C26.1444 25.8189 21.4633 30.5 15.6888 30.5C9.91439 30.5 5.23328 25.8189 5.23328 20.0444ZM15.6888 10.5889C10.4667 10.5889 6.23328 14.8223 6.23328 20.0444C6.23328 25.2666 10.4667 29.5 15.6888 29.5C20.911 29.5 25.1444 25.2666 25.1444 20.0444C25.1444 14.8223 20.911 10.5889 15.6888 10.5889Z" fill="black"/>
<path fill-rule="evenodd" clip-rule="evenodd" d="M12.5777 5.11111C12.5777 3.39289 13.9706 2 15.6888 2C16.5139 2 17.3053 2.32778 17.8887 2.91122C18.4722 3.49467 18.7999 4.28599 18.7999 5.11111C18.7999 6.82933 17.4071 8.22222 15.6888 8.22222C13.9706 8.22222 12.5777 6.82933 12.5777 5.11111ZM17.5555 5.11111C17.5555 4.08018 16.7198 3.24444 15.6888 3.24444C14.6579 3.24444 13.8222 4.08018 13.8222 5.11111C13.8222 6.14204 14.6579 6.97778 15.6888 6.97778C16.7198 6.97778 17.5555 6.14204 17.5555 5.11111Z" fill="black"/>
<path fill-rule="evenodd" clip-rule="evenodd" d="M25.6854 11.5248L21.3298 8.41373L22.4923 6.78627L26.8478 9.89738L25.6854 11.5248Z" fill="black"/>
<path fill-rule="evenodd" clip-rule="evenodd" d="M15.1888 20.6667V13.2H16.1888V20.6667H15.1888Z" fill="black"/>
</svg>
