<svg width="32" height="32" viewBox="0 0 32 32" fill="none" xmlns="http://www.w3.org/2000/svg">
<path fill-rule="evenodd" clip-rule="evenodd" d="M23.7717 2C24.3459 2 24.8119 2.4672 24.8119 3.04286V5.32463H26.984C28.6137 5.32463 29.9411 6.65531 29.9411 8.29051V27.0355C29.9411 28.6693 28.6137 30 26.984 30H5.95708C4.32736 30 3 28.6693 3 27.0355V8.29051C3 6.65531 4.32736 5.32463 5.95708 5.32463H8.98629V3.04286C8.98629 2.4672 9.45232 2 10.0265 2C10.6008 2 11.0668 2.4672 11.0668 3.04286V5.32463H22.7315V3.04286C22.7315 2.4672 23.1975 2 23.7717 2ZM27.966 11.9308H4.97508V27.0355C4.97508 27.5792 5.41476 28.02 5.95708 28.02H26.984C27.5263 28.02 27.966 27.5792 27.966 27.0355V11.9308ZM18.551 25.4223V21.2509H14.39V25.4223H18.551ZM11.8407 21.2509V25.4223H7.67973V21.2509H11.8407ZM18.551 18.6952V14.5237H14.39V18.6952H18.551ZM11.8407 14.5237V18.6952H7.67973V14.5237H11.8407ZM25.2627 18.6952V14.5237H21.1017V18.6952H25.2627Z" fill="black"/>
</svg>
