<svg width="32" height="32" viewBox="0 0 32 32" fill="none" xmlns="http://www.w3.org/2000/svg">
<path fill-rule="evenodd" clip-rule="evenodd" d="M16.0455 25.625C22.3075 25.625 27.6625 21.8085 29.8757 16.3119L30 15.9971L29.8757 15.6823L29.8405 15.5831C27.64 10.1857 22.2723 6.375 16.0005 6.375C9.72869 6.375 4.36097 10.1867 2.12426 15.6823L2 15.9971L2.12426 16.3119L2.15949 16.4111C4.33749 21.8085 9.69347 25.625 15.9545 25.625H16.0455ZM16.0103 23.8746C10.6093 23.8746 5.97051 20.6666 3.92166 15.9971L3.95395 15.9133C5.96953 11.3276 10.6083 8.11859 16.0093 8.11859C21.4103 8.11859 26.0491 11.3266 28.0979 15.9961L28.0656 16.0799C26.05 20.6657 21.4113 23.8746 16.0103 23.8746Z" fill="black"/>
<path d="M22.3 16C22.3 19.383 19.4797 22.125 16 22.125C12.5203 22.125 9.7 19.383 9.7 16C9.7 12.617 12.5203 9.875 16 9.875C19.4797 9.875 22.3 12.617 22.3 16Z" fill="black"/>
</svg>
