<svg width="32" height="32" viewBox="0 0 32 32" fill="none" xmlns="http://www.w3.org/2000/svg">
<path fill-rule="evenodd" clip-rule="evenodd" d="M17.3 10.45C17.3 10.0358 17.6358 9.7 18.05 9.7H29.25C29.6642 9.7 30 10.0358 30 10.45V28.15C30 28.5642 29.6642 28.9 29.25 28.9H7.95C7.53579 28.9 7.2 28.5642 7.2 28.15V20.45C7.2 20.0358 7.53579 19.7 7.95 19.7C8.36421 19.7 8.7 20.0358 8.7 20.45V27.4H28.5V11.2H18.05C17.6358 11.2 17.3 10.8642 17.3 10.45Z" fill="black"/>
<path fill-rule="evenodd" clip-rule="evenodd" d="M7.42798 9.91149C7.72539 9.62319 8.2002 9.63057 8.48851 9.92798L17.9885 19.728C18.2768 20.0254 18.2694 20.5002 17.972 20.7885C17.6746 21.0768 17.1998 21.0694 16.9115 20.772L7.41149 10.972C7.12319 10.6746 7.13057 10.1998 7.42798 9.91149Z" fill="black"/>
<path fill-rule="evenodd" clip-rule="evenodd" d="M7.2 10.45C7.2 10.0358 7.53579 9.7 7.95 9.7H13.25C13.6642 9.7 14 10.0358 14 10.45C14 10.8642 13.6642 11.2 13.25 11.2H8.7V15.75C8.7 16.1642 8.36421 16.5 7.95 16.5C7.53579 16.5 7.2 16.1642 7.2 15.75V10.45Z" fill="black"/>
<path fill-rule="evenodd" clip-rule="evenodd" d="M2 4.75C2 4.33579 2.33579 4 2.75 4H23.95C24.3642 4 24.7 4.33579 24.7 4.75V9.95C24.7 10.3642 24.3642 10.7 23.95 10.7C23.5358 10.7 23.2 10.3642 23.2 9.95V5.5H3.5V21.6H7.95C8.36421 21.6 8.7 21.9358 8.7 22.35C8.7 22.7642 8.36421 23.1 7.95 23.1H2.75C2.33579 23.1 2 22.7642 2 22.35V4.75Z" fill="black"/>
</svg>
