<svg width="32" height="32" viewBox="0 0 32 32" fill="none" xmlns="http://www.w3.org/2000/svg">
<path fill-rule="evenodd" clip-rule="evenodd" d="M11.8796 3.65838L14.4461 9.07323L13.8699 9.23016C12.1544 9.69738 10.6257 10.6841 9.49349 12.0545C8.64028 13.3462 8.16243 14.846 8.10823 16.3872H13.3521V28.227H1.51232V19.9809C1.43523 17.434 1.72029 14.8892 2.35895 12.4225L2.36208 12.4104L2.36581 12.3985C2.9751 10.4517 4.07833 8.69602 5.568 7.30247C7.25754 5.72558 9.26706 4.53034 11.4593 3.79867L11.8796 3.65838ZM11.3583 4.89341C9.46473 5.58767 7.72783 6.65463 6.25115 8.03274C4.89067 9.30544 3.88233 10.9082 3.32388 12.6853C2.71055 15.0589 2.43722 17.5075 2.51208 19.958L2.51232 19.9656V27.227H12.3521V17.3872H7.11678L7.10553 16.8987C7.06123 14.9743 7.60897 13.0828 8.67467 11.4798L8.68864 11.4588L8.70465 11.4393C9.84407 10.0519 11.3466 9.01443 13.0389 8.43908L11.3583 4.89341Z" fill="black"/>
<path fill-rule="evenodd" clip-rule="evenodd" d="M28.1379 3.65625L30.7078 9.07323L30.1313 9.23017C28.4151 9.69739 26.8856 10.6841 25.7525 12.0546C24.8991 13.3461 24.4216 14.8461 24.3684 16.3872H29.6117V28.227H17.772V19.9811C17.6922 17.4277 17.9768 14.8759 18.6172 12.4028L18.6206 12.3897L18.6247 12.3768C19.2414 10.4343 20.3521 8.68519 21.848 7.30092C23.5357 5.73364 25.5354 4.54048 27.7162 3.79953L28.1379 3.65625ZM27.619 4.8955C25.7341 5.59741 24.0041 6.66332 22.5282 8.03397C21.1626 9.29762 20.147 10.8941 19.5818 12.6666C18.967 15.0461 18.6943 17.501 18.7717 19.9575L18.772 19.9654V27.227H28.6117V17.3872H23.3776L23.366 16.899C23.3204 14.9746 23.8677 13.0826 24.9338 11.4797L24.9478 11.4587L24.9639 11.4392C26.1041 10.0518 27.6073 9.0144 29.3002 8.43909L27.619 4.8955Z" fill="black"/>
</svg>
