<svg width="32" height="32" viewBox="0 0 32 32" fill="none" xmlns="http://www.w3.org/2000/svg">
<path d="M15.9557 24.0325C16.6714 24.0325 17.2516 23.4523 17.2516 22.7366C17.2516 22.0209 16.6714 21.4408 15.9557 21.4408C15.24 21.4408 14.6599 22.0209 14.6599 22.7366C14.6599 23.4523 15.24 24.0325 15.9557 24.0325Z" fill="black"/>
<path fill-rule="evenodd" clip-rule="evenodd" d="M15.9557 9.92762C16.3686 9.92762 16.7033 10.2623 16.7033 10.6752V18.4503C16.7033 18.8632 16.3686 19.1979 15.9557 19.1979C15.5428 19.1979 15.2081 18.8632 15.2081 18.4503V10.6752C15.2081 10.2623 15.5428 9.92762 15.9557 9.92762Z" fill="black"/>
<path fill-rule="evenodd" clip-rule="evenodd" d="M17.2977 5.26025C16.6864 4.17347 15.225 4.17347 14.6137 5.26025L14.6124 5.26248L3.64753 24.6006L3.63826 24.6165C3.05468 25.5891 3.74911 26.8734 4.99081 26.8734H26.9206C28.0264 26.8734 28.7928 25.6064 28.2586 24.5913L17.299 5.26248L17.2977 5.26025ZM18.6003 4.52615C17.4172 2.42455 14.4942 2.42455 13.3111 4.52615L13.3105 4.52721L2.3511 23.8556C1.1496 25.8719 2.64725 28.3686 4.99081 28.3686H26.9206C29.2011 28.3686 30.6267 25.854 29.5739 23.88L29.5646 23.8631L18.6009 4.52721L18.6003 4.52615Z" fill="black"/>
<path d="M16.0289 24.0825C16.7446 24.0825 17.3248 23.5023 17.3248 22.7867C17.3248 22.071 16.7446 21.4908 16.0289 21.4908C15.3133 21.4908 14.7331 22.071 14.7331 22.7867C14.7331 23.5023 15.3133 24.0825 16.0289 24.0825Z" fill="black"/>
<path fill-rule="evenodd" clip-rule="evenodd" d="M16.0289 9.97766C16.4418 9.97766 16.7766 10.3124 16.7766 10.7253V18.5004C16.7766 18.9133 16.4418 19.248 16.0289 19.248C15.6161 19.248 15.2813 18.9133 15.2813 18.5004V10.7253C15.2813 10.3124 15.6161 9.97766 16.0289 9.97766Z" fill="black"/>
<path fill-rule="evenodd" clip-rule="evenodd" d="M17.371 5.3103C16.7597 4.22352 15.2982 4.22352 14.6869 5.3103L14.6857 5.31253L3.72077 24.6506L3.7115 24.6665C3.12792 25.6391 3.82235 26.9234 5.06405 26.9234H26.9938C28.0997 26.9234 28.866 25.6565 28.3319 24.6414L17.3722 5.31253L17.371 5.3103ZM18.6736 4.5762C17.4904 2.4746 14.5675 2.4746 13.3843 4.5762L13.3837 4.57726L2.42434 23.9056C1.22284 25.922 2.72049 28.4186 5.06405 28.4186H26.9938C29.2744 28.4186 30.6999 25.9041 29.6471 23.9301L29.6378 23.9131L18.6742 4.57726L18.6736 4.5762Z" fill="black"/>
</svg>
