<svg width="32" height="32" viewBox="0 0 32 32" fill="none" xmlns="http://www.w3.org/2000/svg">
<path fill-rule="evenodd" clip-rule="evenodd" d="M12.3478 7.89127H27.8101C29.2939 7.89561 30.4956 9.09736 30.5 10.5811L30.5 10.5826V22.0261L30.5 22.0275C30.4956 23.5113 29.2939 24.713 27.8101 24.7174L27.8087 24.7174H11.4514L6.36457 29.6619L6.36954 13.8694L7.36954 13.8697L7.36531 27.2946L11.0455 23.7174H27.8078C28.7411 23.7143 29.4969 22.9585 29.5 22.0252V10.584C29.4969 9.65079 28.7411 8.89437 27.8079 8.89127H12.3478V7.89127Z" fill="black"/>
<path d="M13.5652 17.5217C14.2375 17.5217 14.7826 16.9767 14.7826 16.3043C14.7826 15.632 14.2375 15.0869 13.5652 15.0869C12.8928 15.0869 12.3478 15.632 12.3478 16.3043C12.3478 16.9767 12.8928 17.5217 13.5652 17.5217Z" fill="black"/>
<path d="M23.3043 17.5217C23.9767 17.5217 24.5217 16.9767 24.5217 16.3043C24.5217 15.632 23.9767 15.0869 23.3043 15.0869C22.632 15.0869 22.0869 15.632 22.0869 16.3043C22.0869 16.9767 22.632 17.5217 23.3043 17.5217Z" fill="black"/>
<path d="M18.4348 17.5217C19.1071 17.5217 19.6522 16.9767 19.6522 16.3043C19.6522 15.632 19.1071 15.0869 18.4348 15.0869C17.7624 15.0869 17.2174 15.632 17.2174 16.3043C17.2174 16.9767 17.7624 17.5217 18.4348 17.5217Z" fill="black"/>
<path fill-rule="evenodd" clip-rule="evenodd" d="M11.3761 13.6239L1.63696 3.88472L2.36299 3.15869L12.1021 12.8978L11.3761 13.6239Z" fill="black"/>
<path fill-rule="evenodd" clip-rule="evenodd" d="M1.63696 12.8978L11.3761 3.15869L12.1021 3.88472L2.36299 13.6239L1.63696 12.8978Z" fill="black"/>
</svg>
