<svg width="32" height="32" viewBox="0 0 32 32" fill="none" xmlns="http://www.w3.org/2000/svg">
<path fill-rule="evenodd" clip-rule="evenodd" d="M29.7726 6.12768C30.0702 6.41788 30.0762 6.89441 29.786 7.19204L25.8721 11.2063C25.7316 11.3504 25.5392 11.4323 25.338 11.4335C25.1367 11.4348 24.9433 11.3554 24.801 11.2131L20.7867 7.19882C20.4928 6.90488 20.4928 6.42832 20.7867 6.13438C21.0806 5.84044 21.5572 5.84044 21.8511 6.13438L25.3264 9.60965L28.7082 6.14116C28.9984 5.84352 29.4749 5.83749 29.7726 6.12768Z" fill="black"/>
<path fill-rule="evenodd" clip-rule="evenodd" d="M25.3332 2C25.7489 2 26.0859 2.33699 26.0859 2.75268V10.6809C26.0859 11.0966 25.7489 11.4336 25.3332 11.4336C24.9175 11.4336 24.5805 11.0966 24.5805 10.6809V2.75268C24.5805 2.33699 24.9175 2 25.3332 2Z" fill="black"/>
<path fill-rule="evenodd" clip-rule="evenodd" d="M10.6798 2C11.0104 1.99942 11.3027 2.21465 11.4002 2.53055L19.4288 28.523C19.5515 28.9202 19.3289 29.3416 18.9318 29.4643C18.5346 29.587 18.1132 29.3645 17.9905 28.9673L10.6856 5.31772L3.47281 28.9647C3.35153 29.3623 2.93089 29.5863 2.53328 29.4651C2.13568 29.3438 1.91167 28.9232 2.03294 28.5255L9.96115 2.53308C10.0576 2.21685 10.3491 2.00058 10.6798 2Z" fill="black"/>
<path fill-rule="evenodd" clip-rule="evenodd" d="M6.36573 18.5589V17.0535H15.2975V18.5589H6.36573Z" fill="black"/>
<path fill-rule="evenodd" clip-rule="evenodd" d="M25.3358 14.9461C25.6673 14.9472 25.9589 15.165 26.0541 15.4824L29.9681 28.5289C30.0875 28.927 29.8616 29.3466 29.4634 29.4661C29.0652 29.5855 28.6456 29.3596 28.5262 28.9614L25.3241 18.2877L22.0383 28.9665C21.9161 29.3638 21.4949 29.5868 21.0976 29.4645C20.7003 29.3423 20.4773 28.9211 20.5995 28.5238L24.6138 15.4774C24.7113 15.1606 25.0044 14.9449 25.3358 14.9461Z" fill="black"/>
<path fill-rule="evenodd" clip-rule="evenodd" d="M27.5411 23.9782H23.1253V22.4728H27.5411V23.9782Z" fill="black"/>
</svg>
