<svg width="32" height="32" viewBox="0 0 32 32" fill="none" xmlns="http://www.w3.org/2000/svg">
<path d="M15.5 6.2C12 6.2 9.2 9 9.2 12.5C9.2 16 12.1 18.9 15.6 18.9C19.1 18.9 22 16 22 12.5C22 9 19.1 6.2 15.5 6.2ZM15.5 17.4C12.8 17.4 10.6 15.2 10.6 12.5C10.6 9.8 12.8 7.6 15.5 7.6C18.2 7.6 20.4 9.8 20.4 12.5C20.4 15.2 18.2 17.4 15.5 17.4Z" fill="black"/>
<path d="M15.5 2C9.7 2 5 6.7 5 12.5C5 22 14.7 29.5 15.1 29.8C15.2 29.9 15.4 30 15.6 30C15.8 30 15.9 29.9 16.1 29.8C16.5 29.5 26.2 22 26.2 12.5C26.1 6.7 21.4 2 15.5 2ZM15.5 28.3C13.6 26.7 6.5 20.2 6.5 12.6C6.5 7.6 10.6 3.6 15.5 3.6C20.4 3.6 24.5 7.7 24.5 12.6C24.6 20.2 17.4 26.7 15.5 28.3Z" fill="black"/>
</svg>
