<svg width="32" height="32" viewBox="0 0 32 32" fill="none" xmlns="http://www.w3.org/2000/svg">
<path d="M16 2C8.3 2 2 8.3 2 16C2 23.7 8.3 30 16 30C23.7 30 30 23.7 30 16C30 8.3 23.7 2 16 2ZM16 28.5C9.1 28.5 3.5 22.9 3.5 16C3.5 9.1 9.1 3.5 16 3.5C22.9 3.5 28.5 9.1 28.5 16C28.5 22.9 22.9 28.5 16 28.5Z" fill="black"/>
<path d="M24.2 15.2H16.8V7.8C16.8 7.4 16.5 7 16 7C15.5 7 15.2 7.3 15.2 7.8V16C15.2 16.4 15.5 16.8 16 16.8H24.2C24.6 16.8 25 16.5 25 16C25 15.5 24.6 15.2 24.2 15.2Z" fill="black"/>
</svg>
