<svg width="32" height="32" viewBox="0 0 32 32" fill="none" xmlns="http://www.w3.org/2000/svg">
<path fill-rule="evenodd" clip-rule="evenodd" d="M28.142 15.8068C28.0221 18.2045 27.4225 20.097 26.3431 21.4841C25.2638 22.8712 23.8197 23.5648 22.0108 23.5648C20.142 23.5648 18.9428 22.7325 18.4131 21.0679C17.8734 21.9101 17.2563 22.5368 16.5618 22.948C15.8672 23.3592 15.1501 23.5648 14.4106 23.5648C12.9915 23.5648 11.9172 22.9901 11.1876 21.8408C10.4581 20.6914 10.1882 19.1012 10.3781 17.0701C10.528 15.4352 10.9053 13.9763 11.5099 12.6932C12.1145 11.4101 12.894 10.402 13.8485 9.66879C14.8029 8.93559 15.8047 8.569 16.8541 8.569C17.6636 8.569 18.3881 8.67551 19.0277 8.88854C19.6673 9.10156 20.3869 9.52017 21.1864 10.1444L20.4068 18.3779C20.217 20.6667 20.8566 21.811 22.3256 21.811C23.4549 21.811 24.3694 21.2562 25.0689 20.1465C25.7685 19.0368 26.1483 17.5902 26.2082 15.8068C26.3981 11.9526 25.6761 9.01487 24.0421 6.99363C22.4081 4.97239 19.9222 3.96178 16.5842 3.96178C14.5755 3.96178 12.7916 4.4547 11.2326 5.44055C9.67356 6.4264 8.44434 7.85066 7.5449 9.71338C6.64546 11.5761 6.14078 13.7261 6.03084 16.1635C5.91092 18.6207 6.21073 20.7534 6.93028 22.5616C7.64983 24.3698 8.74664 25.7519 10.2207 26.7081C11.6948 27.6642 13.4762 28.1423 15.5649 28.1423C16.4643 28.1423 17.3662 28.0333 18.2707 27.8153C19.1751 27.5973 19.9271 27.3149 20.5268 26.9682L21.0814 28.6773C20.4618 29.0637 19.6398 29.3807 18.6155 29.6284C17.5911 29.8762 16.5543 30 15.5049 30C13.0065 30 10.8578 29.4427 9.05895 28.328C7.26007 27.2134 5.91342 25.6083 5.01898 23.5127C4.12453 21.4172 3.73728 18.9675 3.85721 16.1635C3.97713 13.4388 4.59174 10.989 5.70105 8.81422C6.81036 6.63941 8.31441 4.96002 10.2132 3.77601C12.112 2.592 14.2557 2 16.6442 2C19.1327 2 21.2663 2.55484 23.0452 3.66454C24.8241 4.77424 26.1482 6.37437 27.0177 8.46497C27.8872 10.5556 28.2619 13.0028 28.142 15.8068ZM13.0683 17.3491C12.9333 18.7622 13.061 19.8469 13.4515 20.6032C13.842 21.3596 14.4615 21.7377 15.31 21.7377C15.8885 21.7377 16.4453 21.4839 16.9804 20.9764C17.5155 20.4689 17.9566 19.7424 18.3037 18.797L18.3182 18.6627L18.9835 11.1542C18.4435 10.8656 17.865 10.7213 17.248 10.7213C16.1199 10.7213 15.1871 11.3134 14.4495 12.4977C13.7119 13.6819 13.2515 15.299 13.0683 17.3491Z" fill="black"/>
</svg>
