<svg width="32" height="32" viewBox="0 0 32 32" fill="none" xmlns="http://www.w3.org/2000/svg">
<path fill-rule="evenodd" clip-rule="evenodd" d="M28.0034 2.15264C28.3334 2.40307 28.3978 2.87355 28.1474 3.20349L21.8474 11.5035C21.7153 11.6775 21.5139 11.7853 21.2959 11.7986C21.0778 11.812 20.8648 11.7296 20.7125 11.5731L17.1125 7.87306C16.8236 7.57618 16.8301 7.10135 17.127 6.8125C17.4239 6.52364 17.8987 6.53015 18.1875 6.82702L21.1796 9.90224L26.9526 2.29659C27.203 1.96666 27.6735 1.90221 28.0034 2.15264ZM2 2.75004C2 2.33583 2.33579 2.00004 2.75 2.00004H11.95C12.3642 2.00004 12.7 2.33583 12.7 2.75004V29.25C12.7 29.6643 12.3642 30 11.95 30H2.75C2.33579 30 2 29.6643 2 29.25V2.75004ZM3.5 16.7V28.5H11.2V16.7H3.5ZM11.2 15.2H3.5V3.50004H11.2V15.2ZM15.25 15.95C15.25 15.5358 15.5858 15.2 16 15.2H29.2C29.6142 15.2 29.95 15.5358 29.95 15.95V29.15C29.95 29.5643 29.6142 29.9 29.2 29.9H16C15.5858 29.9 15.25 29.5643 15.25 29.15V15.95ZM23.3 28.4H28.45V16.7H23.3V28.4ZM21.8 16.7V28.4H16.75V16.7H21.8Z" fill="black"/>
</svg>
