<svg width="32" height="32" viewBox="0 0 32 32" fill="none" xmlns="http://www.w3.org/2000/svg">
<path d="M7.80143 6.20229C8.96823 6.20229 9.91527 5.262 9.91527 4.10115C9.91527 2.94029 8.96823 2 7.80143 2C6.63356 2 5.68652 2.94029 5.68652 4.10115C5.68652 5.262 6.63356 6.20229 7.80143 6.20229Z" fill="black"/>
<path d="M13.8855 4.28634C13.8855 5.4472 14.8325 6.38749 16.0004 6.38749C17.1672 6.38749 18.1142 5.4472 18.1142 4.28634C18.1142 3.12549 17.1672 2.1852 16.0004 2.1852C14.8325 2.1852 13.8855 3.12549 13.8855 4.28634Z" fill="black"/>
<path d="M16.0004 14.2584C17.1672 14.2584 18.1142 13.3181 18.1142 12.1573C18.1142 10.9964 17.1672 10.0561 16.0004 10.0561C14.8325 10.0561 13.8855 10.9964 13.8855 12.1573C13.8855 13.3181 14.8325 14.2584 16.0004 14.2584Z" fill="black"/>
<path d="M18.1142 20.0281C18.1142 21.1889 17.1672 22.1292 16.0004 22.1292C14.8325 22.1292 13.8855 21.1889 13.8855 20.0281C13.8855 18.8672 14.8325 17.9269 16.0004 17.9269C17.1672 17.9269 18.1142 18.8672 18.1142 20.0281Z" fill="black"/>
<path d="M16.0004 30C17.1672 30 18.1142 29.0597 18.1142 27.8988C18.1142 26.738 17.1672 25.7977 16.0004 25.7977C14.8325 25.7977 13.8855 26.738 13.8855 27.8988C13.8855 29.0597 14.8325 30 16.0004 30Z" fill="black"/>
<path d="M26.3136 4.28634C26.3136 5.4472 25.3666 6.38749 24.1998 6.38749C23.0319 6.38749 22.0849 5.4472 22.0849 4.28634C22.0849 3.12549 23.0319 2.1852 24.1998 2.1852C25.3666 2.1852 26.3136 3.12549 26.3136 4.28634Z" fill="black"/>
<path d="M24.1998 14.2584C25.3666 14.2584 26.3136 13.3181 26.3136 12.1573C26.3136 10.9964 25.3666 10.0561 24.1998 10.0561C23.0319 10.0561 22.0849 10.9964 22.0849 12.1573C22.0849 13.3181 23.0319 14.2584 24.1998 14.2584Z" fill="black"/>
<path d="M26.3136 20.0281C26.3136 21.1889 25.3666 22.1292 24.1998 22.1292C23.0319 22.1292 22.0849 21.1889 22.0849 20.0281C22.0849 18.8672 23.0319 17.9269 24.1998 17.9269C25.3666 17.9269 26.3136 18.8672 26.3136 20.0281Z" fill="black"/>
<path d="M9.91527 11.9351C9.91527 13.0959 8.96823 14.0362 7.80143 14.0362C6.63356 14.0362 5.68652 13.0959 5.68652 11.9351C5.68652 10.7742 6.63356 9.83393 7.80143 9.83393C8.96823 9.83393 9.91527 10.7742 9.91527 11.9351Z" fill="black"/>
<path d="M7.80143 21.8701C8.96823 21.8701 9.91527 20.9299 9.91527 19.769C9.91527 18.6081 8.96823 17.6679 7.80143 17.6679C6.63356 17.6679 5.68652 18.6081 5.68652 19.769C5.68652 20.9299 6.63356 21.8701 7.80143 21.8701Z" fill="black"/>
</svg>
