<svg width="32" height="32" viewBox="0 0 32 32" fill="none" xmlns="http://www.w3.org/2000/svg">
<path d="M18.1 3.0084H14.7V6.4084H18.1V3.0084Z" fill="black"/>
<path d="M10.4 3.0084H7V6.4084H10.4V3.0084Z" fill="black"/>
<path d="M22.4028 6.4H25.8028V3L22.4028 3V6.4Z" fill="black"/>
<path d="M18.1 10.7084H14.7V14.1084H18.1V10.7084Z" fill="black"/>
<path d="M10.4 10.7084H7V14.1084H10.4V10.7084Z" fill="black"/>
<path d="M22.4028 14.1056H25.8028V10.7056H22.4028V14.1056Z" fill="black"/>
<path d="M18.1 18.4084H14.7V21.8084H18.1V18.4084Z" fill="black"/>
<path d="M10.4 18.4084H7V21.8084H10.4V18.4084Z" fill="black"/>
<path d="M22.4028 21.8112H25.8028V18.4112H22.4028V21.8112Z" fill="black"/>
<path d="M18.1 26.1084H14.7V29.5084H18.1V26.1084Z" fill="black"/>
</svg>
