<svg width="32" height="32" viewBox="0 0 32 32" fill="none" xmlns="http://www.w3.org/2000/svg">
<path fill-rule="evenodd" clip-rule="evenodd" d="M6.22258 19.4168C6.51707 19.1255 6.99193 19.1281 7.28322 19.4226L15.8529 28.0864L24.5197 19.4197C24.8126 19.1268 25.2874 19.1268 25.5803 19.4197C25.8732 19.7126 25.8732 20.1874 25.5803 20.4803L16.3803 29.6803C16.2392 29.8215 16.0476 29.9005 15.8479 29.9C15.6483 29.8995 15.4572 29.8193 15.3168 29.6774L6.21678 20.4774C5.92549 20.1829 5.92809 19.7081 6.22258 19.4168Z" fill="black"/>
<path fill-rule="evenodd" clip-rule="evenodd" d="M15.85 3C16.2642 3 16.6 3.33579 16.6 3.75V27.45C16.6 27.8642 16.2642 28.2 15.85 28.2C15.4358 28.2 15.1 27.8642 15.1 27.45V3.75C15.1 3.33579 15.4358 3 15.85 3Z" fill="black"/>
</svg>
