<svg width="32" height="32" viewBox="0 0 32 32" fill="none" xmlns="http://www.w3.org/2000/svg">
<path fill-rule="evenodd" clip-rule="evenodd" d="M27.6611 2.46166C28.2152 1.91292 29.0916 1.93573 29.6186 2.51261C30.1457 3.08948 30.1237 4.00197 29.5697 4.5507L18.0172 15.9911L28.9536 26.8081C29.4817 27.3303 29.5272 28.1828 29.0754 28.7615L29.0038 28.8461C28.4772 29.4234 27.6008 29.4467 27.0463 28.8984L16.0086 17.9805L4.33891 29.5385C3.81123 30.0611 2.99116 30.0653 2.45898 29.5661L2.38138 29.4875C1.85434 28.9106 1.87625 27.9981 2.43032 27.4494L13.9982 15.9924L2.43097 4.55134C1.90296 4.02909 1.85743 3.17658 2.30927 2.59794L2.38077 2.51328C2.90746 1.93605 3.78386 1.91265 4.33827 2.46102L16.0074 14.003L27.6611 2.46166Z" fill="black"/>
</svg>
