<svg width="32" height="32" viewBox="0 0 32 32" fill="none" xmlns="http://www.w3.org/2000/svg">
<path fill-rule="evenodd" clip-rule="evenodd" d="M22.6676 12.4662L14.9044 20.2404L14.1968 19.5338L21.96 11.7596L22.6676 12.4662Z" fill="black"/>
<path fill-rule="evenodd" clip-rule="evenodd" d="M21.96 20.2404L14.1968 12.4662L14.9044 11.7596L22.6676 19.5338L21.96 20.2404Z" fill="black"/>
<path fill-rule="evenodd" clip-rule="evenodd" d="M8.48878 7.81372H27.0902C28.9734 7.81372 30.5 9.34034 30.5 11.2235V20.7765C30.5 22.6596 28.9734 24.1863 27.0902 24.1863H8.47511L1.33618 15.6336L8.48878 7.81372ZM8.92933 8.81372L2.66388 15.6637L8.94299 23.1863H27.0902C28.4211 23.1863 29.5 22.1074 29.5 20.7765V11.2235C29.5 9.89263 28.4211 8.81372 27.0902 8.81372H8.92933Z" fill="black"/>
</svg>
