<svg width="32" height="32" viewBox="0 0 32 32" fill="none" xmlns="http://www.w3.org/2000/svg">
<path d="M14.6709 19.1804C14.6839 18.4016 14.7723 17.7864 14.9359 17.3348C15.0995 16.8832 15.4333 16.3826 15.9373 15.8328L17.2233 14.5075C17.7731 13.8858 18.0479 13.2182 18.0479 12.5048C18.0479 11.8176 17.8679 11.2793 17.508 10.8899C17.148 10.5005 16.6245 10.3058 15.9373 10.3058C15.2697 10.3058 14.733 10.4825 14.3273 10.8359C13.9215 11.1894 13.7186 11.6638 13.7186 12.2594H11.9024C11.9155 11.1992 12.2935 10.3434 13.0363 9.69225C13.7791 9.04104 14.7461 8.71545 15.9373 8.71545C17.1742 8.71545 18.1379 9.04759 18.8284 9.71188C19.5189 10.3762 19.8641 11.2875 19.8641 12.4459C19.8641 13.5913 19.334 14.7202 18.2737 15.8328L17.2037 16.8931C16.7259 17.4232 16.487 18.1856 16.487 19.1804H14.6709Z" fill="black"/>
<path d="M14.5923 22.2925C14.5923 21.9979 14.6823 21.7509 14.8623 21.5513C15.0423 21.3517 15.309 21.2519 15.6624 21.2519C16.0158 21.2519 16.2841 21.3517 16.4674 21.5513C16.6506 21.7509 16.7423 21.9979 16.7423 22.2925C16.7423 22.587 16.6506 22.8308 16.4674 23.0238C16.2841 23.2169 16.0158 23.3134 15.6624 23.3134C15.309 23.3134 15.0423 23.2169 14.8623 23.0238C14.6823 22.8308 14.5923 22.587 14.5923 22.2925Z" fill="black"/>
<path fill-rule="evenodd" clip-rule="evenodd" d="M16 30C8.268 30 2 23.732 2 16C2 8.268 8.268 2 16 2C23.732 2 30 8.268 30 16C30 23.732 23.732 30 16 30ZM16 28.4065C22.8519 28.4065 28.4065 22.8519 28.4065 16C28.4065 9.14806 22.8519 3.5935 16 3.5935C9.14806 3.5935 3.5935 9.14806 3.5935 16C3.5935 22.8519 9.14806 28.4065 16 28.4065Z" fill="black"/>
</svg>
