<svg width="32" height="32" viewBox="0 0 32 32" fill="none" xmlns="http://www.w3.org/2000/svg">
<path fill-rule="evenodd" clip-rule="evenodd" d="M2.23991 15.4346C2.17944 15.568 2.10645 15.7291 2.10645 15.8538C2.10645 16.0665 2.10645 16.1728 2.21281 16.5983C4.34007 18.6192 7.53095 19.151 10.0837 17.981L16.8909 24.7882C15.7209 25.7455 15.7209 27.66 16.8909 28.83L17.21 29.1491C17.7418 29.6809 18.4863 30 19.1245 30C19.7627 30 20.6136 29.6809 21.1454 29.1491L29.0162 21.2783C30.1862 20.321 30.1862 18.4065 29.0162 17.2365L28.6971 16.9174C28.1653 16.3856 27.3144 16.0665 26.6762 16.0665C26.0381 16.0665 25.1872 16.3856 24.6554 16.9174L17.8481 10.1102C19.0181 7.55746 18.4863 4.26021 16.4654 2.23932C16.1463 1.92023 15.6145 1.92023 15.2954 2.23932L9.28591 8.24883L4.12734 3.09026C3.80825 2.77117 3.27643 2.77117 2.95735 3.09026C2.74462 3.19662 2.74462 3.40935 2.74462 3.72843C2.74462 4.04752 2.74462 4.15388 2.95735 4.36661L8.06274 9.47201L2.31917 15.2156C2.31917 15.2596 2.28267 15.3402 2.23991 15.4346ZM4.02098 15.8537L15.6145 4.2602C16.7845 5.962 16.8909 8.19562 16.04 9.89742C15.9336 10.3229 15.9336 10.642 16.2527 10.9611L24.1235 18.8319C24.4426 19.151 24.9744 19.151 25.2935 18.8319L25.9317 18.1937C25.9713 18.1739 26.0146 18.1504 26.0609 18.1253C26.2632 18.0155 26.5229 17.8746 26.7826 17.8746C27.1017 17.8746 27.4208 17.981 27.6335 18.1937L27.9526 18.5128C28.4844 18.8319 28.4844 19.6828 27.9526 20.2146L20.0818 28.0855C20.0422 28.1053 19.9989 28.1287 19.9526 28.1538C19.7502 28.2636 19.4905 28.4045 19.2309 28.4045C18.9118 28.4045 18.5927 28.2982 18.3799 28.0855L18.0609 27.7664C17.529 27.4473 17.529 26.5964 18.0609 26.0646L18.699 25.4264C19.0181 25.1073 19.0181 24.5755 18.699 24.2564L10.7218 16.2792C10.2964 15.8537 9.97729 15.8537 9.6582 16.0665C7.9564 17.2365 5.72278 17.0237 4.02098 15.8537Z" fill="black"/>
</svg>
