<svg width="32" height="32" viewBox="0 0 32 32" fill="none" xmlns="http://www.w3.org/2000/svg">
<path d="M26.1139 2H5.78648C3.69395 2 2 3.69395 2 5.78648V26.2135C2 28.2064 3.69395 29.9004 5.78648 29.9004H26.2135C28.306 29.9004 30 28.2064 30 26.1139V5.78648C29.9004 3.69395 28.2064 2 26.1139 2ZM3.49466 5.78648C3.49466 4.59075 4.4911 3.59431 5.68683 3.59431H26.1139C27.3096 3.59431 28.306 4.59075 28.306 5.78648V17.5445L23.6228 10.7687C23.5231 10.5694 23.2242 10.4698 23.0249 10.4698C22.8256 10.4698 22.5267 10.5694 22.427 10.7687L14.8541 22.6263L11.4662 17.0463C11.3665 16.847 11.0676 16.6477 10.8683 16.6477C10.669 16.6477 10.3701 16.7473 10.2705 16.9466L3.59431 26.6121C3.59431 26.4128 3.49466 26.3132 3.49466 26.1139V5.78648ZM26.1139 28.4057H5.78648C5.28826 28.4057 4.88968 28.2064 4.4911 28.0071L10.8683 18.7402L14.2562 24.3203C14.3559 24.5196 14.6548 24.7189 14.8541 24.7189C15.0534 24.7189 15.3523 24.6192 15.452 24.4199L23.0249 12.4626L28.306 20.0356V26.1139C28.4057 27.4093 27.4093 28.4057 26.1139 28.4057Z" fill="black"/>
<path d="M8.97509 12.4626C10.968 12.4626 12.4626 10.968 12.4626 8.97509C12.4626 6.98221 10.968 5.48754 8.97509 5.48754C6.98221 5.48754 5.48754 7.08185 5.48754 8.97509C5.48754 10.8683 7.08185 12.4626 8.97509 12.4626ZM8.97509 6.98221C10.0712 6.98221 10.968 7.879 10.968 8.97509C10.968 10.0712 10.0712 10.968 8.97509 10.968C7.879 10.968 6.98221 10.0712 6.98221 8.97509C6.98221 7.879 7.879 6.98221 8.97509 6.98221Z" fill="black"/>
</svg>
