<svg width="32" height="32" viewBox="0 0 32 32" fill="none" xmlns="http://www.w3.org/2000/svg">
<path d="M30 16C30 14.6 29 13.5 27.6 13.3C26.6 8.9 23.1 5.4 18.7 4.4C18.5 3 17.4 2 16 2C14.6 2 13.5 3 13.3 4.4C8.9 5.4 5.4 8.9 4.4 13.3C3 13.5 2 14.6 2 16C2 17.4 3 18.5 4.4 18.7C5.4 23.1 8.9 26.6 13.3 27.6C13.5 29 14.6 30 16 30C17.4 30 18.5 29 18.7 27.6C23.1 26.6 26.6 23.1 27.6 18.7C29 18.5 30 17.4 30 16ZM16 3.5C16.7 3.5 17.3 4.1 17.3 4.8C17.3 5.5 16.7 6.1 16 6.1C15.3 6.1 14.7 5.5 14.7 4.8C14.7 4.1 15.3 3.5 16 3.5ZM3.5 16C3.5 15.3 4.1 14.7 4.8 14.7C5.5 14.7 6.1 15.3 6.1 16C6.1 16.7 5.5 17.3 4.8 17.3C4.1 17.3 3.5 16.7 3.5 16ZM16 28.5C15.3 28.5 14.7 27.9 14.7 27.2C14.7 26.5 15.3 25.9 16 25.9C16.7 25.9 17.3 26.5 17.3 27.2C17.3 27.9 16.7 28.5 16 28.5ZM18.6 26.1C18.2 25.1 17.2 24.4 16 24.4C14.8 24.4 13.9 25.1 13.4 26.1C9.7 25.2 6.8 22.2 5.8 18.5C6.8 18.1 7.5 17.1 7.5 15.9C7.5 14.7 6.8 13.7 5.8 13.3C6.7 9.6 9.7 6.7 13.4 5.7C13.8 6.7 14.8 7.4 16 7.4C17.2 7.4 18.2 6.7 18.6 5.7C22.3 6.6 25.2 9.6 26.2 13.3C25.2 13.7 24.5 14.7 24.5 15.9C24.5 17.1 25.2 18 26.2 18.5C25.2 22.3 22.3 25.2 18.6 26.1ZM27.2 17.3C26.5 17.3 25.9 16.7 25.9 16C25.9 15.3 26.5 14.7 27.2 14.7C27.9 14.7 28.5 15.3 28.5 16C28.5 16.7 27.9 17.3 27.2 17.3Z" fill="black"/>
<path d="M16.1 18.9L14.8 20.2C14 21 12.7 21 11.9 20.2C11 19.4 11 18 11.8 17.2L13.1 15.9C13.4 15.6 13.4 15.1 13.1 14.8C12.8 14.5 12.3 14.5 12 14.8L10.7 16.1C10 16.8 9.7 17.7 9.7 18.6C9.7 19.5 10.1 20.5 10.7 21.1C11.4 21.8 12.3 22.1 13.2 22.1C14.1 22.1 15 21.8 15.7 21.1L17 19.8C17.3 19.5 17.3 19 17 18.7C16.7 18.4 16.3 18.6 16.1 18.9Z" fill="black"/>
<path d="M16.2 10.8L14.9 12C14.6 12.3 14.6 12.8 14.9 13.1C15.2 13.4 15.7 13.4 16 13.1L17.3 11.8C18 11 19.4 11 20.2 11.8C21 12.6 21 13.9 20.2 14.7L18.9 16C18.6 16.3 18.6 16.8 18.9 17.1C19 17.2 19.2 17.3 19.4 17.3C19.6 17.3 19.8 17.2 19.9 17.1L21.2 15.8C21.9 15.1 22.2 14.2 22.2 13.3C22.2 12.4 21.8 11.4 21.2 10.8C19.8 9.4 17.6 9.4 16.2 10.8Z" fill="black"/>
<path d="M19.1 12.9C18.8 12.6 18.3 12.6 18 12.9L12.9 18C12.6 18.3 12.6 18.8 12.9 19.1C13 19.2 13.2 19.3 13.4 19.3C13.6 19.3 13.8 19.2 13.9 19.1L19 14C19.4 13.7 19.4 13.2 19.1 12.9Z" fill="black"/>
</svg>
