<svg width="32" height="32" viewBox="0 0 32 32" fill="none" xmlns="http://www.w3.org/2000/svg">
<path fill-rule="evenodd" clip-rule="evenodd" d="M11.65 3.70102C11.5194 3.77466 11.3799 3.88067 11.2303 4.03032L3.83028 11.4303C3.80519 11.4554 3.77834 11.4787 3.74995 11.5C3.7073 11.532 3.66341 11.5836 3.62281 11.65H10.4C11.0857 11.65 11.65 11.0858 11.65 10.4V3.70102ZM12.2 2.04999C11.4696 2.04999 10.7864 2.35292 10.1696 2.96966L2.80238 10.3369C2.18123 10.8353 1.94995 11.6801 1.94995 12.3V26.3C1.94995 28.4142 3.68574 30.15 5.79995 30.15H26.2C28.3142 30.15 30.0499 28.4142 30.0499 26.3V5.89999C30.0499 3.78577 28.3142 2.04999 26.2 2.04999H12.2ZM13.15 3.54999V10.4C13.15 11.9142 11.9142 13.15 10.4 13.15H3.44995V26.3C3.44995 27.5858 4.51416 28.65 5.79995 28.65H26.2C27.4857 28.65 28.5499 27.5858 28.5499 26.3V5.89999C28.5499 4.6142 27.4857 3.54999 26.2 3.54999H13.15Z" fill="black"/>
</svg>
