<svg width="32" height="32" viewBox="0 0 32 32" fill="none" xmlns="http://www.w3.org/2000/svg">
<path fill-rule="evenodd" clip-rule="evenodd" d="M24.2077 27.3977C24.4207 27.6107 24.7688 27.601 24.9696 27.3765C25.1553 27.169 25.1465 26.8526 24.9496 26.6558L21.1235 22.8297C22.0309 22.3967 22.6589 21.47 22.6589 20.399V19.2496L26.7189 21.5715C27.5574 22.0485 28.371 22.1089 29.0096 21.7358C29.6483 21.3654 30 20.63 30 19.6662V10.8548C30 9.8911 29.6483 9.15563 29.0096 8.78346C28.371 8.41217 27.5583 8.46813 26.7198 8.94334L22.6589 11.2661V10.1176C22.6589 8.63335 21.4527 7.42533 19.9685 7.42533H5.719L2.89612 4.60248C2.68292 4.38929 2.33437 4.39909 2.13348 4.62392C1.94795 4.83157 1.95685 5.14797 2.15376 5.34486L4.38671 7.57771C3.33895 7.94702 2.58611 8.94629 2.58611 10.1176V20.399C2.58611 21.8833 3.79497 23.0904 5.28095 23.0904H19.9002L24.2077 27.3977ZM20.3587 22.0649C21.1144 21.8879 21.6783 21.2082 21.6783 20.3991V17.5567L27.2057 20.7188C27.7191 21.0111 28.1969 21.0732 28.5158 20.8876C28.8355 20.7028 29.0185 20.2569 29.0185 19.6663V10.8549C29.0185 10.2633 28.8355 9.8174 28.5158 9.63176C28.1942 9.44523 27.7173 9.50563 27.2039 9.79697L21.6783 12.9573V10.1176C21.6783 9.17342 20.9118 8.40687 19.9685 8.40687H6.70054L20.3587 22.0649ZM5.21709 8.40804L18.9195 22.1098H5.28095C4.33678 22.1098 3.56758 21.3424 3.56758 20.3991V10.1176C3.56758 9.19481 4.30234 8.44168 5.21709 8.40804Z" fill="black"/>
</svg>
