<svg width="32" height="32" viewBox="0 0 32 32" fill="none" xmlns="http://www.w3.org/2000/svg">
<path fill-rule="evenodd" clip-rule="evenodd" d="M5.24031 3.21151C5.38066 3.07584 5.56823 3 5.76344 3H26.2366C26.4318 3 26.6193 3.07584 26.7597 3.21151L29.7704 6.12191C29.9172 6.26373 30 6.45903 30 6.66308V11.7814C30 12.1971 29.663 12.534 29.2473 12.534H27.491V27.1362C27.491 27.6083 27.3304 28.0602 26.9946 28.396C26.6588 28.7318 26.2069 28.8925 25.7348 28.8925H6.26523C5.79311 28.8925 5.34119 28.7318 5.0054 28.396C4.66962 28.0602 4.50896 27.6083 4.50896 27.1362V12.534H2.75269C2.33699 12.534 2 12.1971 2 11.7814V6.66308C2 6.45903 2.08284 6.26373 2.22955 6.12191L5.24031 3.21151ZM3.50538 7.71685V11.0287H28.4946V7.71685H3.50538ZM27.6972 6.21147H4.30284L6.06777 4.50538H25.9322L27.6972 6.21147ZM6.01434 12.534V27.1362C6.01434 27.2662 6.05439 27.3161 6.06987 27.3316C6.08534 27.347 6.1352 27.3871 6.26523 27.3871H25.7348C25.8648 27.3871 25.9147 27.347 25.9301 27.3316C25.9456 27.3161 25.9857 27.2662 25.9857 27.1362V12.534H6.01434ZM11.1326 16.8996C11.1326 16.4839 11.4696 16.147 11.8853 16.147H20.1147C20.5304 16.147 20.8674 16.4839 20.8674 16.8996C20.8674 17.3153 20.5304 17.6523 20.1147 17.6523H11.8853C11.4696 17.6523 11.1326 17.3153 11.1326 16.8996Z" fill="black"/>
</svg>
