<svg width="32" height="32" viewBox="0 0 32 32" fill="none" xmlns="http://www.w3.org/2000/svg">
<path fill-rule="evenodd" clip-rule="evenodd" d="M2 5.76344C2 3.64165 3.63579 2 5.75 2H26.25C28.3642 2 30 3.64165 30 5.76344V26.2366C30 28.3584 28.3642 30 26.25 30H5.75C3.65252 30 2 28.3749 2 26.3369V5.76344ZM5.75 3.50538C4.46421 3.50538 3.5 4.47305 3.5 5.76344V26.3369C3.5 27.5104 4.44748 28.4946 5.75 28.4946H26.25C27.5358 28.4946 28.5 27.527 28.5 26.2366V5.76344C28.5 4.47305 27.5358 3.50538 26.25 3.50538H5.75Z" fill="black"/>
<path d="M15.95 8.42296C14.1551 8.42296 12.7 9.88325 12.7 11.6846C12.7 13.486 14.1551 14.9463 15.95 14.9463C17.7449 14.9463 19.2 13.486 19.2 11.6846C19.2 9.88325 17.7449 8.42296 15.95 8.42296Z" fill="black"/>
<path d="M15.95 15.6487C13.0358 15.6487 10.7 17.9929 10.7 20.9175V22.8243C10.7 23.24 11.0358 23.577 11.45 23.577H20.45C20.8642 23.577 21.2 23.24 21.2 22.8243V20.9175C21.2 17.9929 18.8642 15.6487 15.95 15.6487Z" fill="black"/>
</svg>
