<svg width="32" height="32" viewBox="0 0 32 32" fill="none" xmlns="http://www.w3.org/2000/svg">
<path fill-rule="evenodd" clip-rule="evenodd" d="M2 5.8363C2 3.72961 3.72961 2 5.8363 2H19.7865C20.5142 2 21.195 2.30186 21.8096 2.9164L29.1506 10.2574C29.7695 10.7541 30 11.5958 30 12.2135V26.1637C30 28.2704 28.2704 30 26.1637 30H5.8363C3.72961 30 2 28.2704 2 26.1637V5.8363ZM5.8363 3.49466C4.55509 3.49466 3.49466 4.55509 3.49466 5.8363V26.1637C3.49466 27.4449 4.55509 28.5053 5.8363 28.5053H26.1637C27.4449 28.5053 28.5053 27.4449 28.5053 26.1637V12.2135C28.5053 11.8503 28.3489 11.5233 28.2064 11.4164C28.1781 11.3952 28.1514 11.372 28.1264 11.3469L20.7527 3.97328C20.3708 3.59138 20.0552 3.49466 19.7865 3.49466H5.8363Z" fill="black"/>
<path fill-rule="evenodd" clip-rule="evenodd" d="M19.5872 2C19.9999 2 20.3345 2.33459 20.3345 2.74733V10.3203C20.3345 11.0036 20.8967 11.5658 21.5801 11.5658H29.153C29.5658 11.5658 29.9004 11.9004 29.9004 12.3132C29.9004 12.7259 29.5658 13.0605 29.153 13.0605H21.5801C20.0712 13.0605 18.8399 11.8291 18.8399 10.3203V2.74733C18.8399 2.33459 19.1744 2 19.5872 2Z" fill="black"/>
<path d="M26.8612 24.0712H25.2669L23.1744 20.0854V24.0712H21.879V17.395H23.3737L25.5658 21.5801V17.395H26.8612V24.0712Z" fill="black"/>
<path fill-rule="evenodd" clip-rule="evenodd" d="M9.37367 17.5943V22.2776C9.37367 22.7461 9.26342 23.1495 9.05555 23.4811C8.84884 23.8107 8.57333 24.0252 8.3102 24.1617C7.81177 24.4201 7.31543 24.42 7.23355 24.4199H7.23132C7.05851 24.4199 6.55432 24.3845 6.0674 24.0849C5.52388 23.7504 5.08897 23.1365 5.08897 22.1779H6.58363C6.58363 22.417 6.63389 22.5556 6.67813 22.6345C6.72249 22.7137 6.78117 22.7691 6.85075 22.8119C6.92448 22.8573 7.00977 22.8876 7.09139 22.9057C7.17279 22.9238 7.22975 22.9252 7.23128 22.9253C7.25628 22.9253 7.45277 22.9226 7.62218 22.8348C7.69535 22.7968 7.74991 22.7498 7.78921 22.6871C7.82733 22.6263 7.879 22.5066 7.879 22.2776V17.5943H9.37367Z" fill="black"/>
<path fill-rule="evenodd" clip-rule="evenodd" d="M10.9119 17.8767C11.3326 17.4339 11.9312 17.2456 12.6121 17.2456C14.2115 17.2456 14.9537 18.5738 14.9537 19.4875H13.4591C13.4591 19.3732 13.4026 19.1736 13.2579 19.0081C13.1314 18.8636 12.9345 18.7402 12.6121 18.7402C12.1969 18.7402 12.0482 18.8508 11.9956 18.9062C11.9359 18.969 11.8648 19.1037 11.8648 19.3879C11.8648 19.3897 11.8761 19.5186 12.2046 19.7376C12.4965 19.9322 12.8717 20.0817 13.1474 20.1736C13.5317 20.3017 13.9492 20.5246 14.2968 20.8391C14.6441 21.1534 14.9642 21.6 15.0459 22.1719C15.1259 22.7319 14.9656 23.3139 14.5483 23.7521C14.1301 24.1911 13.5194 24.4199 12.8114 24.4199C12.1029 24.4199 11.4584 24.1919 10.986 23.7384C10.5118 23.2831 10.2705 22.657 10.2705 21.9786H11.7651C11.7651 22.2968 11.8726 22.5176 12.0211 22.6602C12.1715 22.8046 12.4238 22.9253 12.8114 22.9253C13.1994 22.9253 13.3859 22.8053 13.4659 22.7213C13.5469 22.6362 13.5859 22.5208 13.5662 22.3833C13.5483 22.2577 13.4697 22.1064 13.294 21.9474C13.1185 21.7886 12.8882 21.6627 12.6747 21.5915C12.3525 21.4841 11.8309 21.2848 11.3755 20.9812C10.9567 20.702 10.3701 20.1832 10.3701 19.3879C10.3701 18.875 10.4983 18.3121 10.9119 17.8767Z" fill="black"/>
<path fill-rule="evenodd" clip-rule="evenodd" d="M16.5767 17.9805C17.1849 17.444 17.8872 17.3452 18.2918 17.3452C18.6964 17.3452 19.3988 17.444 20.0069 17.9805C20.6347 18.5345 21.032 19.4387 21.032 20.7829C21.032 22.1451 20.5995 23.0593 19.9794 23.6263C19.3839 24.1707 18.6957 24.3203 18.2918 24.3203C17.8879 24.3203 17.1998 24.1707 16.6043 23.6263C15.9841 23.0593 15.5516 22.1451 15.5516 20.7829C15.5516 19.4387 15.9489 18.5345 16.5767 17.9805ZM17.5656 19.1013C17.3465 19.2947 17.0463 19.7357 17.0463 20.7829C17.0463 21.8122 17.3611 22.293 17.6128 22.5232C17.8892 22.7759 18.1975 22.8256 18.2918 22.8256C18.3861 22.8256 18.6944 22.7759 18.9708 22.5232C19.2226 22.293 19.5374 21.8122 19.5374 20.7829C19.5374 19.7357 19.2372 19.2947 19.018 19.1013C18.7792 18.8906 18.4851 18.8399 18.2918 18.8399C18.0985 18.8399 17.8045 18.8906 17.5656 19.1013Z" fill="black"/>
</svg>
