<svg width="32" height="32" viewBox="0 0 32 32" fill="none" xmlns="http://www.w3.org/2000/svg">
<path fill-rule="evenodd" clip-rule="evenodd" d="M13.4436 5.04569C13.9972 5.59929 14.331 6.28946 14.4449 7.00775C14.5074 6.99431 14.5721 6.98723 14.6385 6.98723H29.0841C29.5899 6.98723 30 7.39373 30 7.90306C30 8.40886 29.5895 8.81889 29.0841 8.81889H14.6385C14.5149 8.81889 14.397 8.79461 14.2894 8.75048C14.1179 9.24141 13.8359 9.70235 13.4436 10.0947C12.0493 11.4889 9.78882 11.4889 8.39457 10.0947C8.02051 9.72063 7.7468 9.28421 7.57345 8.81889H2.91686C2.41049 8.81889 2 8.41238 2 7.90306C2 7.39726 2.41248 6.98723 2.91686 6.98723H7.39653C7.51357 6.27632 7.84625 5.59401 8.39457 5.04569C9.78882 3.65144 12.0493 3.65144 13.4436 5.04569ZM20.8263 18.7271C22.2205 20.1213 24.4811 20.1213 25.8753 18.7271C26.3185 18.2839 26.6208 17.7532 26.7822 17.1906C26.8794 17.2255 26.9841 17.2445 27.0934 17.2445H29.0845C29.591 17.2445 30 16.8344 30 16.3286C30 15.8193 29.5901 15.4128 29.0845 15.4128H27.0934C27.0057 15.4128 26.921 15.4251 26.8408 15.448C26.7012 14.7994 26.3794 14.1821 25.8753 13.6781C24.4811 12.2838 22.2205 12.2838 20.8263 13.6781C20.3285 14.1759 20.0084 14.7842 19.8661 15.424C19.8194 15.4166 19.7715 15.4128 19.7228 15.4128H2.91138C2.40653 15.4128 2 15.8228 2 16.3286C2 16.838 2.40804 17.2445 2.91138 17.2445H19.7228C19.7935 17.2445 19.8623 17.2364 19.9283 17.2212C20.0918 17.7724 20.3912 18.2919 20.8263 18.7271ZM8.39259 27.5343C9.78684 28.9286 12.0474 28.9286 13.4416 27.5343C13.8868 27.0891 14.1898 26.5557 14.3507 25.9903C14.4412 26.0202 14.538 26.0364 14.6385 26.0364H29.0841C29.5899 26.0364 30 25.6299 30 25.1206C30 24.6148 29.5895 24.2048 29.0841 24.2048H14.6385C14.557 24.2048 14.4779 24.2154 14.4027 24.2352C14.2608 23.5939 13.9405 22.9842 13.4416 22.4853C12.0474 21.0911 9.78684 21.0911 8.39259 22.4853C7.90163 22.9763 7.58355 23.5746 7.43836 24.2048H2.91686C2.41049 24.2048 2 24.6113 2 25.1206C2 25.6264 2.41248 26.0364 2.91686 26.0364H7.49698C7.66102 26.5847 7.95956 27.1013 8.39259 27.5343ZM21.7307 17.8227C20.836 16.9279 20.836 15.4773 21.7307 14.5825C22.6255 13.6878 24.0761 13.6878 24.9709 14.5825C25.8656 15.4773 25.8656 16.9279 24.9709 17.8227C24.0761 18.7174 22.6255 18.7174 21.7307 17.8227ZM9.29702 26.6299C8.40229 25.7351 8.40229 24.2845 9.29702 23.3897C10.1918 22.495 11.6424 22.495 12.5372 23.3897C13.4319 24.2845 13.4319 25.7351 12.5372 26.6299C11.6424 27.5246 10.1918 27.5246 9.29702 26.6299ZM9.29901 5.95014C10.1937 5.0554 11.6444 5.0554 12.5391 5.95014C13.4339 6.84487 13.4339 8.29553 12.5391 9.19027C11.6444 10.085 10.1937 10.085 9.29901 9.19027C8.40427 8.29553 8.40427 6.84487 9.29901 5.95014Z" fill="black"/>
</svg>
