<svg width="32" height="32" viewBox="0 0 32 32" fill="none" xmlns="http://www.w3.org/2000/svg">
<path fill-rule="evenodd" clip-rule="evenodd" d="M6.902 19.315H13.4156L14.4095 22.0588C14.6772 22.6816 14.8517 23.3545 14.9189 24.0836V24.1107C14.9189 24.4195 14.7845 24.6973 14.5779 24.8849C14.2179 25.1326 13.7827 25.277 13.3133 25.277C13.2772 25.277 13.2421 25.276 13.212 25.275V25.8035H19.858L19.856 25.275C19.2332 25.266 18.6686 25.0203 18.2605 24.6432C17.6898 23.9091 17.2506 23.0687 16.9617 22.1019L11.109 5.97485H10.6768L4.74584 21.9866C4.42894 22.9694 3.95057 23.88 3.36289 24.6582C2.98381 24.9601 2.51948 25.1587 2 25.2148V25.7433H7.27607L7.27908 25.2148C7.25802 25.2158 7.23596 25.2158 7.2149 25.2158C6.65329 25.2158 6.1308 25.0544 5.69957 24.7816C5.47994 24.5951 5.34054 24.3163 5.34054 24.0044L5.34255 23.9793C5.40072 23.4026 5.55014 22.8531 5.76074 22.3797L6.902 19.315ZM10.2195 10.4226L13.0676 18.258H7.28711L10.2195 10.4226Z" fill="black"/>
<path fill-rule="evenodd" clip-rule="evenodd" d="M25.6736 24.0024C24.9686 24.5811 24.1834 25.1366 23.36 25.634C22.8245 25.8968 22.301 26.0211 21.7494 26.0211H21.7314C21.7033 26.0221 21.6702 26.0231 21.6361 26.0231C20.8699 26.0231 20.1769 25.7102 19.6775 25.2048C19.1681 24.6422 18.8562 23.8931 18.8562 23.0707C18.8562 23.0186 18.8572 22.9664 18.8602 22.9143C18.8592 22.8972 18.8592 22.8681 18.8592 22.839C18.8592 22.2975 19.0066 21.791 19.2643 21.3578C19.7447 20.6578 20.3825 20.0812 21.1277 19.679C22.4244 18.959 23.9166 18.289 25.467 17.7455L25.6736 17.2019C25.6867 17.0786 25.6947 16.9362 25.6947 16.7918C25.6947 16.0135 25.4721 15.2875 25.087 14.6737C24.7109 14.2666 24.1563 14.0008 23.5395 14.0008C23.4914 14.0008 23.4433 14.0028 23.3961 14.0058C23.3741 14.0038 23.34 14.0028 23.3069 14.0028C22.8325 14.0028 22.3993 14.1763 22.0663 14.4641C21.7635 14.7118 21.5689 15.0869 21.5639 15.5071V16.2773C21.5659 16.3034 21.5669 16.3345 21.5669 16.3655C21.5669 16.6945 21.4476 16.9964 21.25 17.229C21.0544 17.4346 20.7756 17.564 20.4668 17.564C20.4557 17.564 20.4437 17.564 20.4327 17.563C20.429 17.563 20.4249 17.5632 20.4204 17.5634C20.4152 17.5637 20.4095 17.564 20.4036 17.564C20.0957 17.564 19.8199 17.4296 19.6304 17.216C19.4338 16.9813 19.3145 16.6774 19.3145 16.3455C19.3145 16.3174 19.3155 16.2893 19.3175 16.2613C19.3706 15.3888 19.8309 14.6296 20.5099 14.1683C21.3483 13.5495 22.3903 13.1804 23.5175 13.1804C23.6168 13.1804 23.715 13.1835 23.8133 13.1885C23.8615 13.1855 23.9337 13.1845 24.0069 13.1845C24.9014 13.1845 25.7479 13.39 26.502 13.7561C27.0125 14.0178 27.4337 14.4701 27.6633 15.0227C27.8328 15.6144 27.9261 16.2743 27.9261 16.9572C27.9261 17.1277 27.9201 17.2982 27.909 17.4657L27.91 21.5895C27.907 21.7178 27.905 21.8683 27.905 22.0197C27.905 22.6214 27.9331 23.2161 27.9873 23.8038C27.9943 23.9322 28.0745 24.1157 28.1989 24.2581C28.2891 24.3393 28.4105 24.3895 28.5428 24.3895H28.5549C28.6883 24.3895 28.8136 24.3534 28.9219 24.2912C29.3181 23.9903 29.6711 23.6714 29.996 23.3244L30 24.0044C28.9584 25.3502 27.9929 26.0231 27.1037 26.0231C27.0797 26.0251 27.0526 26.0251 27.0245 26.0251C26.6284 26.0251 26.2734 25.8476 26.0357 25.5678C25.798 25.2008 25.6586 24.7545 25.6586 24.2751C25.6586 24.1833 25.6642 24.0915 25.6736 24.0024ZM25.6736 18.4977V23.1369L25.6746 23.148C24.9706 23.8379 24.054 24.3133 23.005 24.4707C22.4745 24.4627 22.0012 24.218 21.6863 23.8359C21.3252 23.4318 21.1056 22.8982 21.1056 22.3146C21.1056 22.2865 21.1056 22.2584 21.1066 22.2343C21.1076 21.7058 21.2791 21.2184 21.5699 20.8203C21.9691 20.3299 22.4695 19.9258 22.9158 19.6961C23.7501 19.2729 24.6096 18.8928 25.6736 18.4977Z" fill="black"/>
</svg>
