<svg width="32" height="32" viewBox="0 0 32 32" fill="none" xmlns="http://www.w3.org/2000/svg">
<path fill-rule="evenodd" clip-rule="evenodd" d="M18.4669 7.24232C18.4669 4.35248 20.813 2.00849 23.7111 2C26.615 2.00139 28.9683 4.34769 28.9683 7.24232C28.9683 10.1364 25.2227 14.4448 24.0993 15.7361L23.7253 16.141L23.3513 15.7361C22.2125 14.4755 18.4669 10.135 18.4669 7.24232ZM21.0274 7.24232C21.0274 8.71939 22.2293 9.91723 23.7113 9.91723C25.1933 9.91723 26.3951 8.71939 26.3951 7.24232C26.3951 5.76526 25.1933 4.56741 23.7113 4.56741C22.2293 4.56741 21.0274 5.76526 21.0274 7.24232Z" fill="black"/>
<path d="M23.7111 2C23.711 2 23.7111 2 23.7111 2V2Z" fill="black"/>
<path d="M4 12.8895V30L12.5838 26.1747L20.1058 29.4262L28.6279 24.3235V14.9906H27.0675V23.5612L21.0429 27.1701V16.282H19.4824V27.6839L13.6147 25.0704V11.1639L17.5004 12.7192L18.0467 11.3343L12.5684 9.15636L4 12.8895Z" fill="black"/>
</svg>
