<svg width="32" height="32" viewBox="0 0 32 32" fill="none" xmlns="http://www.w3.org/2000/svg">
<path fill-rule="evenodd" clip-rule="evenodd" d="M18.6407 5.73334C18.2563 4.64581 17.2191 3.86664 16 3.86664C14.7809 3.86664 13.7437 4.64581 13.3593 5.73334H2V24.4H15.0667V26.2667H7.6V28.1333H24.4V26.2667H16.9333V24.4H30V5.73334H18.6407ZM17.3971 5.7333C17.0957 5.28307 16.5825 4.98664 16 4.98664C15.4175 4.98664 14.9043 5.28307 14.6029 5.7333H17.3971ZM13.3593 7.59997C13.7437 8.68748 14.7809 9.46664 16 9.46664C17.2191 9.46664 18.2563 8.68748 18.6407 7.59997H28.1333V22.5333H3.86667V7.59997H13.3593ZM14.6029 5.7333H17.3971C17.5758 6.00025 17.68 6.32129 17.68 6.66664C17.68 7.59448 16.9278 8.34664 16 8.34664C15.0722 8.34664 14.32 7.59448 14.32 6.66664C14.32 6.32129 14.4242 6.00025 14.6029 5.7333Z" fill="black"/>
</svg>
