<svg width="32" height="32" viewBox="0 0 32 32" fill="none" xmlns="http://www.w3.org/2000/svg">
<path fill-rule="evenodd" clip-rule="evenodd" d="M21.2013 10.7987C20.8772 10.4745 20.3516 10.4745 20.0274 10.7987L17.8124 13.0136C17.283 12.691 16.6616 12.5049 15.9976 12.5049C14.069 12.5049 12.5 14.0739 12.5 16.0024C12.5 17.931 14.069 19.5 15.9976 19.5C17.9262 19.5 19.4951 17.931 19.4951 16.0024C19.4951 15.3384 19.309 14.717 18.9864 14.1876L21.2013 11.9727C21.5255 11.6485 21.5255 11.1229 21.2013 10.7987ZM15.9976 17.8398C14.9845 17.8398 14.1603 17.0155 14.1603 16.0025C14.1603 14.9894 14.9845 14.1651 15.9976 14.1651C17.0107 14.1651 17.8349 14.9893 17.8349 16.0025C17.8349 17.0156 17.0107 17.8398 15.9976 17.8398Z" fill="black"/>
<path fill-rule="evenodd" clip-rule="evenodd" d="M16 2C19.7396 2 23.2553 3.44522 25.8995 6.06934C28.5437 8.69352 30 12.1826 30 15.8937C29.9999 18.9276 29.0318 21.8105 27.2003 24.2304C27.0453 24.4351 26.8024 24.5556 26.5444 24.5556H5.4557C5.19774 24.5556 4.95477 24.4351 4.79984 24.2304C2.96819 21.8106 2.00005 18.9279 2 15.8939C2 12.1828 3.45622 8.69369 6.10036 6.06945C8.74461 3.44527 12.2605 2 16 2ZM5.87356 22.9274H26.1265C27.4318 21.0824 28.1855 18.9532 28.3323 16.7079L27.4223 16.7078C26.9693 16.7078 26.602 16.3433 26.602 15.8937C26.6021 15.4441 26.9694 15.0796 27.4223 15.0796L28.3315 15.0797C28.1476 12.3094 27.0333 9.78748 25.2958 7.81978L24.6567 8.45385C24.4966 8.61281 24.2867 8.69226 24.0768 8.69226C23.8669 8.69226 23.6569 8.61275 23.4967 8.45379C23.1764 8.13586 23.1765 7.62038 23.4968 7.30251L24.1358 6.66855C22.153 4.94421 19.6118 3.8383 16.8203 3.65584V4.55806C16.8203 5.00766 16.453 5.37215 16 5.37215C15.547 5.37215 15.1797 5.00766 15.1797 4.55806V3.65584C12.3882 3.8383 9.84699 4.94421 7.86424 6.6685L8.50315 7.30251C8.82351 7.62044 8.82357 8.13586 8.50321 8.45379C8.34303 8.61275 8.13308 8.69226 7.92314 8.69226C7.71319 8.69226 7.5033 8.61281 7.34312 8.45385L6.70415 7.81978C4.96668 9.78748 3.85236 12.3094 3.6685 15.0797L4.57752 15.0796C5.03055 15.0796 5.39789 15.4441 5.39789 15.8937C5.39794 16.3433 5.03066 16.7078 4.57763 16.7078L3.66768 16.7079C3.81447 18.9533 4.56822 21.0825 5.87356 22.9274Z" fill="black"/>
<path d="M21.4105 28.4444H10.9783C10.5301 28.4444 10.1667 28.7927 10.1667 29.2222C10.1667 29.6518 10.5301 30 10.9783 30H21.4106C21.8588 30 22.2222 29.6518 22.2222 29.2222C22.2222 28.7927 21.8588 28.4444 21.4105 28.4444Z" fill="black"/>
</svg>
