<svg width="32" height="32" viewBox="0 0 32 32" fill="none" xmlns="http://www.w3.org/2000/svg">
<path fill-rule="evenodd" clip-rule="evenodd" d="M22.5686 26.5139L23.5768 19.2091L22.5892 19.0728L21.4106 27.612L30 26.8881L29.9163 25.8947L22.5686 26.5139Z" fill="black"/>
<path fill-rule="evenodd" clip-rule="evenodd" d="M10.591 3.58972L9.41246 12.1306L8.42481 11.9943L9.43301 4.68807L2.0839 5.30872L2 4.31525L10.591 3.58972Z" fill="black"/>
<path fill-rule="evenodd" clip-rule="evenodd" d="M10.577 5.29751C5.78127 7.76544 3.22215 13.1305 4.32202 18.4106C5.4219 23.6907 9.91034 27.5877 15.2926 27.9355L15.2283 28.9305C9.39872 28.5537 4.53726 24.3329 3.34597 18.6139C2.15468 12.8949 4.92649 7.08404 10.1208 4.411L10.577 5.29751Z" fill="black"/>
<path fill-rule="evenodd" clip-rule="evenodd" d="M27.8042 13.5304C26.7086 8.24649 22.2198 4.34445 16.8348 3.99491L16.8994 3C22.7319 3.37859 27.5938 7.60492 28.7804 13.3279C29.9671 19.051 27.1865 24.862 21.9854 27.5284L21.5305 26.6412C26.3325 24.1794 28.8998 18.8142 27.8042 13.5304Z" fill="black"/>
</svg>
