<svg width="32" height="32" viewBox="0 0 32 32" fill="none" xmlns="http://www.w3.org/2000/svg">
<path fill-rule="evenodd" clip-rule="evenodd" d="M3.904 2L2 3.904L5.808 7.712C3.926 10.0705 2.87311 12.9832 2.812 16C2.80321 21.0582 5.71563 25.6668 10.288 27.83L11.52 25.38C8.65996 24.0458 6.56278 21.4823 5.82174 18.4146C5.0807 15.3469 5.77639 12.1087 7.712 9.616L9.336 11.24C8.35703 12.6339 7.83373 14.2967 7.838 16C7.80954 19.1788 9.68348 22.0668 12.598 23.336L13.83 20.886C11.8296 20.0976 10.5292 18.1498 10.568 16C10.5626 15.0341 10.8453 14.0885 11.38 13.284L18.716 20.62C18.6421 20.6939 18.5721 20.7288 18.5019 20.7638C18.4391 20.7951 18.3761 20.8265 18.31 20.886L19.528 23.336C19.7321 23.2068 19.9328 23.1073 20.1319 23.0086C20.3425 22.9042 20.5513 22.8008 20.76 22.664L22.384 24.288C21.7726 24.7335 21.1369 25.1448 20.48 25.52L21.712 27.956C22.6734 27.5341 23.5471 26.9358 24.288 26.192L28.096 30L30 28.096L3.904 2ZM23.336 19.528C23.8821 18.4323 24.1649 17.2243 24.162 16C24.139 11.5018 20.4982 7.86099 16 7.83802C14.7758 7.83513 13.5677 8.11796 12.472 8.66402L14.6 10.694C14.7843 10.694 14.9685 10.6681 15.1698 10.6397C15.412 10.6056 15.6789 10.568 16 10.568C19 10.568 21.432 13 21.432 16C21.432 16.2865 21.3973 16.5345 21.3643 16.7702C21.3345 16.9836 21.306 17.1871 21.306 17.4L23.336 19.528ZM26.472 15.9999C26.472 10.2164 21.7835 5.52791 16 5.52791C14.235 5.51762 12.5078 6.03967 11.044 7.02591L9 4.98191C13.0415 2.3531 18.1977 2.14746 22.4356 4.44607C26.6736 6.74468 29.3133 11.1787 29.314 15.9999C29.3413 18.5555 28.6052 21.0611 27.2 23.1959L25.072 21.1659C25.9684 19.5902 26.4501 17.8126 26.472 15.9999Z" fill="black"/>
</svg>
