<svg width="32" height="32" viewBox="0 0 32 32" fill="none" xmlns="http://www.w3.org/2000/svg">
<path fill-rule="evenodd" clip-rule="evenodd" d="M16.4125 1.47498H30.525V15.5875L15.3701 30.7424L1.25757 16.6299L16.4125 1.47498ZM16.8474 2.52498L2.74249 16.6299L15.3701 29.2575L29.475 15.1526V2.52498H16.8474Z" fill="black"/>
<path fill-rule="evenodd" clip-rule="evenodd" d="M17.7048 10.5827C17.7048 8.53224 19.3669 6.87005 21.4174 6.87005C23.4678 6.87005 25.13 8.53224 25.13 10.5827C25.13 12.6331 23.4678 14.2953 21.4174 14.2953C19.3669 14.2953 17.7048 12.6331 17.7048 10.5827ZM21.4174 7.87005C19.9192 7.87005 18.7048 9.08453 18.7048 10.5827C18.7048 12.0808 19.9192 13.2953 21.4174 13.2953C22.9155 13.2953 24.13 12.0808 24.13 10.5827C24.13 9.08453 22.9155 7.87005 21.4174 7.87005Z" fill="black"/>
</svg>
