<svg width="32" height="32" viewBox="0 0 32 32" fill="none" xmlns="http://www.w3.org/2000/svg">
<path fill-rule="evenodd" clip-rule="evenodd" d="M9.51008 5.68087C9.40815 5.76582 9.32616 5.893 9.32616 6.12034V11.3384L8.57348 11.339L7.82079 11.3389V6.93444C7.54658 6.67497 7.18658 6.63214 6.89151 6.76043C6.61075 6.8825 6.31541 7.19872 6.31541 7.82643V11.8291C6.31552 11.8364 6.31552 11.8437 6.31541 11.8511V15.0512L5.56272 15.0522L4.81004 15.0522V12.1637C4.77658 12.1482 4.73546 12.1332 4.68522 12.1205C4.52388 12.0797 4.32023 12.0784 4.1213 12.1302C3.7284 12.2323 3.50538 12.4755 3.50538 12.8444V18.5648C3.50538 19.6347 3.69174 20.201 3.93541 20.5752C4.19099 20.9677 4.56397 21.2428 5.17737 21.6518C5.83894 22.0928 6.45611 22.6589 6.89782 23.1006C7.12128 23.3241 7.30541 23.5214 7.43432 23.6635C7.49886 23.7347 7.54979 23.7923 7.58514 23.8327C7.59558 23.8447 7.60467 23.8551 7.61236 23.864C7.61768 23.8702 7.62233 23.8756 7.62628 23.8802L7.63767 23.8935L7.64099 23.8974L7.64204 23.8986C7.64211 23.8987 7.64269 23.8994 7.0681 24.3856L7.64269 23.8994C7.75769 24.0353 7.82079 24.2075 7.82079 24.3856V26.8945C7.82079 27.3102 7.4838 27.6472 7.0681 27.6472C6.6524 27.6472 6.31541 27.3102 6.31541 26.8945V24.6706C6.19986 24.5433 6.03418 24.3659 5.83336 24.1651C5.42202 23.7538 4.88507 23.2661 4.34234 22.9043C3.75144 22.5104 3.12084 22.083 2.67391 21.3966C2.21507 20.692 2 19.8031 2 18.5648V12.8444C2 11.6075 2.88092 10.8972 3.7425 10.6732C4.08953 10.583 4.45817 10.5609 4.81004 10.6125V7.82643C4.81004 6.64769 5.41792 5.75961 6.29128 5.37989C6.82067 5.14972 7.42064 5.12151 7.97353 5.30761C8.09937 4.99619 8.29738 4.7319 8.54637 4.52441C8.9723 4.16947 9.51014 4.00909 10.0157 4.00038C10.5203 3.99168 11.0598 4.13297 11.4905 4.46718C11.625 4.57149 11.7456 4.69244 11.8487 4.82852C11.8773 4.81689 11.9061 4.80583 11.9348 4.79535C12.3511 4.64359 12.8343 4.58778 13.307 4.67868C13.7882 4.77121 14.2668 5.0192 14.6194 5.47453C14.9109 5.85112 15.0823 6.32545 15.1319 6.87831C15.4392 6.81767 15.7733 6.80035 16.1043 6.841C16.5812 6.89957 17.104 7.08639 17.5124 7.4997C17.9327 7.92519 18.1577 8.51584 18.1577 9.23145V20.2709C18.1577 21.6352 17.7055 22.8583 17.2754 23.7186C17.0582 24.153 16.8409 24.5063 16.6765 24.7529C16.6306 24.8217 16.5888 24.8823 16.552 24.9344V26.8945C16.552 27.3102 16.215 27.6472 15.7993 27.6472C15.3836 27.6472 15.0466 27.3102 15.0466 26.8945V24.6866C15.0466 24.5163 15.1044 24.3509 15.2106 24.2177C15.2106 24.2176 15.2112 24.2168 15.2113 24.2168C15.2114 24.2167 15.2112 24.2169 15.2113 24.2168L15.2207 24.2046C15.2294 24.1932 15.2436 24.1746 15.2623 24.1492C15.2999 24.0983 15.3557 24.0201 15.4239 23.9179C15.5606 23.7129 15.7447 23.4138 15.9289 23.0454C16.3016 22.3 16.6523 21.3151 16.6523 20.2709V9.23145C16.6523 8.84311 16.5386 8.65599 16.4415 8.55773C16.3324 8.44729 16.1589 8.3644 15.9208 8.33516C15.6814 8.30575 15.4294 8.33857 15.2365 8.40491C15.2023 8.41666 15.1725 8.42861 15.147 8.44011V11.9401L14.3943 11.9411L13.6416 11.9411V8.14415C13.6413 8.13284 13.6413 8.12151 13.6416 8.11016V7.22428C13.6416 6.77254 13.5299 6.52643 13.429 6.39608C13.3299 6.26807 13.1939 6.18989 13.0227 6.15697C12.8431 6.12243 12.6364 6.14189 12.4505 6.20966C12.3618 6.24198 12.291 6.28023 12.2366 6.31794V11.3386L11.4839 11.339L10.7312 11.3389V6.01998C10.7312 5.83348 10.6628 5.7303 10.5677 5.65656C10.4528 5.56738 10.2646 5.50169 10.0416 5.50553C9.81961 5.50936 9.62985 5.58106 9.51008 5.68087ZM11.4839 11.339L10.7312 11.3389C10.7312 11.7546 11.0682 12.0917 11.4839 12.0917C11.8996 12.0917 12.2366 11.7543 12.2366 11.3386L11.4839 11.339ZM14.3943 11.9411L13.6416 11.9411C13.6416 12.3568 13.9786 12.6938 14.3943 12.6938C14.81 12.6938 15.147 12.3558 15.147 11.9401L14.3943 11.9411ZM5.56272 15.0522L4.81004 15.0522C4.81004 15.4679 5.14703 15.8049 5.56272 15.8049C5.97842 15.8049 6.31541 15.4669 6.31541 15.0512L5.56272 15.0522ZM25.4033 7.2942C25.6972 7.00026 26.1738 7.00026 26.4677 7.2942C28.7148 9.54127 30 12.5421 30 15.8551C30 19.173 28.6109 22.2728 26.4677 24.416C26.1738 24.7099 25.6972 24.7099 25.4033 24.416C25.1093 24.1221 25.1093 23.6455 25.4033 23.3515C27.2744 21.4804 28.4946 18.7594 28.4946 15.8551C28.4946 12.9459 27.3712 10.3266 25.4033 8.35866C25.1093 8.06472 25.1093 7.58814 25.4033 7.2942ZM23.095 9.60244C23.389 9.3085 23.8655 9.3085 24.1595 9.60244C25.7965 11.2395 26.7885 13.4345 26.7885 15.8551C26.7885 18.2757 25.7965 20.4707 24.1595 22.1078C23.8655 22.4017 23.389 22.4017 23.095 22.1078C22.8011 21.8138 22.8011 21.3372 23.095 21.0433C24.4687 19.6696 25.2832 17.8503 25.2832 15.8551C25.2832 13.8599 24.4687 12.0406 23.095 10.6669C22.8011 10.373 22.8011 9.89639 23.095 9.60244ZM8.57348 12.0917C8.15778 12.0917 7.82079 11.7546 7.82079 11.3389L8.57348 11.339L9.32616 11.3384C9.32616 11.7541 8.98917 12.0917 8.57348 12.0917ZM20.7868 11.9107C21.0807 11.6167 21.5573 11.6167 21.8512 11.9107C22.8964 12.9558 23.4767 14.3519 23.4767 15.8551C23.4767 17.3583 22.8964 18.7544 21.8512 19.7995C21.5573 20.0935 21.0807 20.0935 20.7868 19.7995C20.4928 19.5056 20.4928 19.029 20.7868 18.7351C21.5481 17.9738 21.9713 16.9612 21.9713 15.8551C21.9713 14.749 21.5481 13.7365 20.7868 12.9751C20.4928 12.6812 20.4928 12.2046 20.7868 11.9107Z" fill="black"/>
</svg>
