<svg width="32" height="32" viewBox="0 0 32 32" fill="none" xmlns="http://www.w3.org/2000/svg">
<path fill-rule="evenodd" clip-rule="evenodd" d="M13.491 3.50533C7.97611 3.50533 3.50538 7.97606 3.50538 13.491C3.50538 19.0059 7.97611 23.4767 13.491 23.4767C19.006 23.4767 23.4767 19.0059 23.4767 13.491C23.4767 7.97606 19.006 3.50533 13.491 3.50533ZM2 13.491C2 7.14467 7.14471 1.99995 13.491 1.99995C19.8374 1.99995 24.9821 7.14467 24.9821 13.491C24.9821 19.8373 19.8374 24.982 13.491 24.982C7.14471 24.982 2 19.8373 2 13.491Z" fill="black"/>
<path fill-rule="evenodd" clip-rule="evenodd" d="M20.9875 20.9874C21.2814 20.6935 21.758 20.6935 22.0519 20.9874L29.7795 28.715C30.0735 29.009 30.0735 29.4856 29.7795 29.7795C29.4856 30.0734 29.009 30.0734 28.7151 29.7795L20.9875 22.0519C20.6935 21.758 20.6935 21.2814 20.9875 20.9874Z" fill="black"/>
<path fill-rule="evenodd" clip-rule="evenodd" d="M7.41935 9.3763C7.41935 8.9606 7.75634 8.62361 8.17204 8.62361H14.3943C14.81 8.62361 15.147 8.9606 15.147 9.3763C15.147 9.792 14.81 10.129 14.3943 10.129H8.17204C7.75634 10.129 7.41935 9.792 7.41935 9.3763Z" fill="black"/>
<path fill-rule="evenodd" clip-rule="evenodd" d="M16.9534 9.3763C16.9534 8.9606 17.2904 8.62361 17.7061 8.62361H18.81C19.2257 8.62361 19.5627 8.9606 19.5627 9.3763C19.5627 9.792 19.2257 10.129 18.81 10.129H17.7061C17.2904 10.129 16.9534 9.792 16.9534 9.3763Z" fill="black"/>
<path fill-rule="evenodd" clip-rule="evenodd" d="M7.41935 13.491C7.41935 13.0753 7.75634 12.7383 8.17204 12.7383H14.3943C14.81 12.7383 15.147 13.0753 15.147 13.491C15.147 13.9067 14.81 14.2437 14.3943 14.2437H8.17204C7.75634 14.2437 7.41935 13.9067 7.41935 13.491Z" fill="black"/>
<path fill-rule="evenodd" clip-rule="evenodd" d="M16.9534 13.491C16.9534 13.0753 17.2904 12.7383 17.7061 12.7383H18.81C19.2257 12.7383 19.5627 13.0753 19.5627 13.491C19.5627 13.9067 19.2257 14.2437 18.81 14.2437H17.7061C17.2904 14.2437 16.9534 13.9067 16.9534 13.491Z" fill="black"/>
<path fill-rule="evenodd" clip-rule="evenodd" d="M7.41935 17.6057C7.41935 17.19 7.75634 16.853 8.17204 16.853H14.3943C14.81 16.853 15.147 17.19 15.147 17.6057C15.147 18.0214 14.81 18.3584 14.3943 18.3584H8.17204C7.75634 18.3584 7.41935 18.0214 7.41935 17.6057Z" fill="black"/>
<path fill-rule="evenodd" clip-rule="evenodd" d="M16.9534 17.6057C16.9534 17.19 17.2904 16.853 17.7061 16.853H18.81C19.2257 16.853 19.5627 17.19 19.5627 17.6057C19.5627 18.0214 19.2257 18.3584 18.81 18.3584H17.7061C17.2904 18.3584 16.9534 18.0214 16.9534 17.6057Z" fill="black"/>
</svg>
