<svg width="32" height="32" viewBox="0 0 32 32" fill="none" xmlns="http://www.w3.org/2000/svg">
<path fill-rule="evenodd" clip-rule="evenodd" d="M21.3845 3.0769H10.6152V16H11.6924V4.15381H20.3078V12.7692H28.9232V27.8461H11.6924V25.6923H10.6152V28.9231H29.9998V11.6923H29.9615V11.4852L21.5917 3.11538H21.3845V3.0769ZM21.3845 4.32234L28.7544 11.6923H21.3845V4.32234Z" fill="black"/>
<path fill-rule="evenodd" clip-rule="evenodd" d="M26.7692 16H2V25.6923H26.7692V16ZM15.354 17.2274V18.5843H12.6187V19.952H15.354V21.3089H12.6187V24.0337H11.251V17.2275L15.354 17.2274ZM20.8461 18.5952V24.0337H22.2138V18.5952H25.0138V17.2275H18.1538V18.5952H20.8461ZM16.7324 18.5951H15.3647V19.952H16.7324V18.5951ZM16.7324 19.952H15.3647V21.3089H16.7324V19.952ZM15.3647 17.2274H16.7324V18.5843H15.3647V17.2274ZM8.50443 18.5845H5.76906V20.3076H8.46173V21.3845H5.76906V24.0338H4.40137V17.2277L8.50443 17.2275V18.5845ZM9.88332 18.5952H8.51562V19.9521H9.88332V18.5952ZM9.88332 19.9521H8.51562V21.3091H9.88332V19.9521ZM8.51562 17.2275H9.88332V18.5845H8.51562V17.2275Z" fill="black"/>
</svg>
