<svg width="32" height="32" viewBox="0 0 32 32" fill="none" xmlns="http://www.w3.org/2000/svg">
<path d="M16 2C8.3 2 2 8.3 2 16C2 23.7 8.3 30 16 30C23.7 30 30 23.7 30 16C30 8.3 23.7 2 16 2ZM16 28.5C9.1 28.5 3.5 22.9 3.5 16C3.5 9.1 9.1 3.5 16 3.5C22.9 3.5 28.5 9.1 28.5 16C28.5 22.9 22.9 28.5 16 28.5Z" fill="black"/>
<path d="M16 5.3C10.1 5.3 5.3 10.1 5.3 16C5.3 21.9 10.1 26.7 16 26.7C21.9 26.7 26.7 21.9 26.7 16C26.7 10.1 21.9 5.3 16 5.3ZM16 25.2C11 25.2 6.8 21.1 6.8 16C6.8 10.9 11 6.8 16 6.8C21 6.8 25.2 11 25.2 16C25.2 21 21 25.2 16 25.2Z" fill="black"/>
<path d="M17.7 10H13.5C13.1 10 12.7 10.3 12.7 10.8V21.4C12.7 21.8 13 22.2 13.5 22.2C14 22.2 14.3 21.9 14.3 21.4V17H17.7C19.6 17 21.2 15.4 21.2 13.5C21.2 11.6 19.7 10 17.7 10ZM17.7 15.4H14.3V11.4H17.7C18.8 11.4 19.7 12.3 19.7 13.4C19.7 14.5 18.8 15.4 17.7 15.4Z" fill="black"/>
</svg>
