<svg width="32" height="32" viewBox="0 0 32 32" fill="none" xmlns="http://www.w3.org/2000/svg">
<path fill-rule="evenodd" clip-rule="evenodd" d="M18.15 7.5C15.0296 7.5 12.5 10.0296 12.5 13.15C12.5 16.2704 15.0296 18.8 18.15 18.8C21.2704 18.8 23.8 16.2704 23.8 13.15C23.8 10.0296 21.2704 7.5 18.15 7.5ZM11 13.15C11 9.20116 14.2012 6 18.15 6C22.0988 6 25.3 9.20116 25.3 13.15C25.3 17.0988 22.0988 20.3 18.15 20.3C14.2012 20.3 11 17.0988 11 13.15Z" fill="black"/>
<path fill-rule="evenodd" clip-rule="evenodd" d="M22.2197 17.1197C22.5126 16.8268 22.9874 16.8268 23.2803 17.1197L29.3803 23.2197C29.6732 23.5126 29.6732 23.9874 29.3803 24.2803C29.0874 24.5732 28.6126 24.5732 28.3197 24.2803L22.2197 18.1803C21.9268 17.8874 21.9268 17.4126 22.2197 17.1197Z" fill="black"/>
<path fill-rule="evenodd" clip-rule="evenodd" d="M6.7 4.75C6.7 3.23579 7.93579 2 9.45 2H27.15C28.6642 2 29.9 3.23579 29.9 4.75V18.45C29.9 18.8642 29.5642 19.2 29.15 19.2C28.7358 19.2 28.4 18.8642 28.4 18.45V4.75C28.4 4.06421 27.8358 3.5 27.15 3.5H9.45C8.76421 3.5 8.2 4.06421 8.2 4.75V22.55C8.2 23.2358 8.76421 23.8 9.45 23.8H23.45C24.0699 23.8 24.9147 24.0313 25.4131 24.6524L27.6803 26.9197C28.7187 27.9581 28.066 29.9 26.45 29.9H4.75C3.23579 29.9 2 28.6642 2 27.15V9.45C2 7.93579 3.23579 6.7 4.75 6.7H6.7V4.75ZM6.7 8.2H4.75C4.06421 8.2 3.5 8.76421 3.5 9.45V27.15C3.5 27.8358 4.06421 28.4 4.75 28.4H26.45C26.5158 28.4 26.5553 28.3819 26.5823 28.3622C26.6134 28.3396 26.6442 28.3023 26.6644 28.2508C26.7073 28.1416 26.6821 28.0428 26.6197 27.9803L24.3197 25.6803C24.2946 25.6552 24.2713 25.6284 24.25 25.6C24.1427 25.457 23.8145 25.3 23.45 25.3H9.45C7.93579 25.3 6.7 24.0642 6.7 22.55V8.2Z" fill="black"/>
</svg>
