<svg width="32" height="32" viewBox="0 0 32 32" fill="none" xmlns="http://www.w3.org/2000/svg">
<path d="M15.1279 27.8275L10.046 22.5501C9.93513 22.4349 9.78193 22.3636 9.61279 22.3636C9.27392 22.3636 9 22.6487 9 23C9 23.1756 9.06863 23.3347 9.17955 23.4499L15.3075 29.8135C15.419 29.9287 15.5716 30 15.7407 30C15.9099 30 16.0631 29.9287 16.174 29.8135L22.3019 23.4499C22.4135 23.3347 22.4815 23.1756 22.4815 23C22.4815 22.6487 22.2076 22.3636 21.8687 22.3636C21.6996 22.3636 21.547 22.4349 21.4354 22.5501L16.3535 27.8275L16.3535 2.63636C16.3535 2.28509 16.0796 2 15.7407 2C15.4019 2 15.1279 2.28509 15.1279 2.63636L15.1279 27.8275Z" fill="black"/>
</svg>
