<svg width="32" height="32" viewBox="0 0 32 32" fill="none" xmlns="http://www.w3.org/2000/svg">
<path d="M4.17255 15.1279L9.44991 10.046C9.56509 9.93513 9.63636 9.78193 9.63636 9.61279C9.63636 9.27392 9.35127 9 9 9C8.82436 9 8.66527 9.06863 8.55009 9.17955L2.18645 15.3075C2.07127 15.419 2 15.5716 2 15.7407C2 15.9099 2.07127 16.0631 2.18645 16.174L8.55009 22.3019C8.66527 22.4135 8.82436 22.4815 9 22.4815C9.35127 22.4815 9.63636 22.2076 9.63636 21.8687C9.63636 21.6996 9.56509 21.547 9.44991 21.4354L4.17255 16.3535H29.3636C29.7149 16.3535 30 16.0796 30 15.7407C30 15.4019 29.7149 15.1279 29.3636 15.1279H4.17255Z" fill="black"/>
</svg>
