<svg width="32" height="32" viewBox="0 0 32 32" fill="none" xmlns="http://www.w3.org/2000/svg">
<path fill-rule="evenodd" clip-rule="evenodd" d="M21.0669 3.49716C16.9602 3.49716 13.631 6.82633 13.631 10.9331C13.631 12.7168 14.2591 14.3539 15.3062 15.6352L18.5218 12.4196V6.74101C18.5218 6.32758 18.8569 5.99243 19.2703 5.99243C19.6838 5.99243 20.0189 6.32758 20.0189 6.74101V10.9224L22.1149 8.8264V6.74101C22.1149 6.32758 22.4501 5.99243 22.8635 5.99243C23.277 5.99243 23.6121 6.32758 23.6121 6.74101V7.32924L25.769 5.17231C24.4878 4.12524 22.8507 3.49716 21.0669 3.49716ZM27.3385 4.57167C25.7256 2.98143 23.5109 2 21.0669 2C16.1333 2 12.1339 5.99947 12.1339 10.9331C12.1339 13.377 13.1153 15.5917 14.7055 17.2046C14.7191 17.2207 14.7335 17.2363 14.7486 17.2514C14.7637 17.2665 14.7793 17.2809 14.7954 17.2945C16.4083 18.8847 18.623 19.8661 21.0669 19.8661C26.0005 19.8661 30 15.8667 30 10.9331C30 8.48911 29.0186 6.27439 27.4283 4.66151C27.4148 4.64546 27.4004 4.62984 27.3853 4.61471C27.3702 4.59958 27.3545 4.58524 27.3385 4.57167ZM26.8277 6.23096L23.6121 9.44654V15.1251C23.6121 15.5385 23.277 15.8737 22.8635 15.8737C22.4501 15.8737 22.1149 15.5385 22.1149 15.1251V10.9437L20.0189 13.0397V15.1251C20.0189 15.5385 19.6838 15.8737 19.2703 15.8737C18.8569 15.8737 18.5218 15.5385 18.5218 15.1251V14.5369L16.3648 16.6938C17.6461 17.7409 19.2832 18.369 21.0669 18.369C25.1737 18.369 28.5028 15.0398 28.5028 10.9331C28.5028 9.1493 27.8748 7.51224 26.8277 6.23096ZM6.83179 11.2692C7.29191 11.4907 7.66759 11.8459 7.92219 12.1005C8.45902 12.6373 9.6668 14.1495 10.1835 14.8695C10.3869 15.1223 10.5098 15.4142 10.5346 15.7309C10.5596 16.049 10.4819 16.3403 10.3682 16.5866C10.1498 17.0598 9.75082 17.4692 9.37719 17.7895C9.32942 17.8305 9.28538 17.868 9.24445 17.9029C9.12499 18.0047 9.03206 18.0839 8.95047 18.1593C8.84298 18.2586 8.80021 18.3114 8.78241 18.339C8.7812 18.3408 8.78022 18.3424 8.77941 18.3437C8.77924 18.3596 8.7818 18.4093 8.81132 18.5127C8.96427 19.048 9.57318 20.1394 10.7169 21.2831C11.2886 21.8548 11.8508 22.3214 12.3403 22.6515C12.8528 22.9972 13.2112 23.1422 13.3876 23.1674C13.432 23.1738 13.4758 23.1841 13.5184 23.1983C13.5771 23.2179 13.6063 23.2204 13.6151 23.2206C13.6192 23.2189 13.6271 23.2152 13.6399 23.2073C13.6787 23.1836 13.7423 23.1344 13.8438 23.0316C13.9449 22.9293 14.0605 22.7978 14.2105 22.6228C14.223 22.6083 14.236 22.5942 14.2495 22.5806C14.2616 22.5686 14.2738 22.5564 14.2863 22.5439C14.5573 22.2724 14.9277 21.9014 15.3443 21.6848C15.5792 21.5626 15.865 21.4682 16.1898 21.4774C16.5218 21.4869 16.8316 21.6031 17.1104 21.8022C17.1255 21.813 17.1402 21.8243 17.1545 21.8362C17.7395 22.3237 19.2935 23.5865 19.8146 24.004C20.2044 24.2711 20.5715 24.6699 20.7818 25.1606C21.0052 25.6817 21.0505 26.3139 20.7384 26.9381C20.7335 26.9478 20.7285 26.9574 20.7232 26.9669C20.6822 27.0408 20.6367 27.128 20.5862 27.225C20.3843 27.6127 20.1015 28.1555 19.6965 28.6184C19.1492 29.2439 18.3679 29.7614 17.1856 29.9387C17.1734 29.9405 17.1612 29.9421 17.149 29.9433C14.8586 30.1723 11.3557 29.2294 7.06316 24.9368C2.79059 20.6643 1.71161 17.1455 2.06127 14.8144C2.40093 12.5501 4.06452 11.7451 4.89421 11.3436C4.95483 11.3142 5.011 11.2871 5.06187 11.2616C5.71503 10.935 6.33819 11.0315 6.83179 11.2692ZM13.6116 23.2217C13.6116 23.2216 13.6124 23.2213 13.6138 23.221L13.6116 23.2217ZM6.1823 12.6181C6.00218 12.5314 5.87675 12.5281 5.73142 12.6007C5.67852 12.6272 5.62462 12.6537 5.57 12.6806C4.74738 13.0857 3.76167 13.5712 3.54187 15.0365C3.29266 16.6979 4.01027 19.7666 8.12181 23.8782C12.1986 27.955 15.2757 28.619 16.9816 28.4554C17.7842 28.3311 18.2461 28.0024 18.5697 27.6325C18.8448 27.3182 19.0169 26.9899 19.2096 26.6225C19.2713 26.5049 19.3351 26.3833 19.405 26.2568C19.4862 26.0868 19.4801 25.924 19.4057 25.7504C19.3219 25.5547 19.1532 25.3622 18.9549 25.23C18.9369 25.218 18.9194 25.2052 18.9025 25.1917C18.4079 24.796 16.8448 23.526 16.2222 23.0081C16.1944 22.99 16.1755 22.9819 16.1655 22.9783C16.1542 22.9742 16.1491 22.974 16.147 22.974C16.1443 22.9739 16.112 22.973 16.035 23.0131C15.8508 23.1089 15.6421 23.3058 15.3284 23.6191C15.0554 23.9375 14.7584 24.2784 14.4206 24.4848C14.2265 24.6035 14.0048 24.689 13.751 24.7117C13.5254 24.732 13.3103 24.6995 13.108 24.6386C12.6028 24.5486 12.0395 24.2545 11.5032 23.8928C10.9198 23.4993 10.2843 22.9678 9.65824 22.3418C8.40649 21.09 7.61805 19.786 7.37176 18.924C7.30689 18.6969 7.26663 18.4571 7.28803 18.2094C7.31054 17.949 7.39725 17.7237 7.52543 17.5256C7.64487 17.341 7.79548 17.188 7.9344 17.0597C8.04018 16.9619 8.16545 16.8552 8.29175 16.7476C8.32885 16.716 8.36604 16.6843 8.40285 16.6528C8.7279 16.3742 8.92776 16.1349 9.00883 15.9592C9.04486 15.8812 9.04204 15.8481 9.04203 15.848C9.04203 15.8479 9.04225 15.8478 9.04096 15.8447C9.03944 15.8411 9.03308 15.8273 9.01362 15.804C9.00172 15.7897 8.99036 15.775 8.97955 15.7598C8.48974 15.0741 7.31977 13.6154 6.86354 13.1592C6.61908 12.9147 6.3959 12.721 6.1823 12.6181Z" fill="black"/>
</svg>
