<svg width="32" height="32" viewBox="0 0 32 32" fill="none" xmlns="http://www.w3.org/2000/svg">
<path fill-rule="evenodd" clip-rule="evenodd" d="M14.3002 3.54993C9.90342 3.54993 6.06954 6.16875 4.3869 10.0014C4.22039 10.3807 3.77795 10.5532 3.39868 10.3867C3.01941 10.2201 2.84693 9.77771 3.01344 9.39843C4.9308 5.0311 9.29692 2.04993 14.3002 2.04993C21.1144 2.04993 26.6502 7.58571 26.6502 14.3999C26.6502 21.2141 21.1144 26.7499 14.3002 26.7499C8.65241 26.7499 3.86743 22.9154 2.37903 17.706C2.26523 17.3077 2.49585 16.8926 2.89413 16.7788C3.29241 16.665 3.70752 16.8956 3.82131 17.2939C5.13291 21.8845 9.34793 25.2499 14.3002 25.2499C20.286 25.2499 25.1502 20.3857 25.1502 14.3999C25.1502 8.41414 20.286 3.54993 14.3002 3.54993Z" fill="black"/>
<path fill-rule="evenodd" clip-rule="evenodd" d="M2.80017 4.34993C3.21438 4.34993 3.55017 4.68571 3.55017 5.09993V9.34993H7.80017C8.21438 9.34993 8.55017 9.68571 8.55017 10.0999C8.55017 10.5141 8.21438 10.8499 7.80017 10.8499H2.80017C2.38596 10.8499 2.05017 10.5141 2.05017 10.0999V5.09993C2.05017 4.68571 2.38596 4.34993 2.80017 4.34993Z" fill="black"/>
<path fill-rule="evenodd" clip-rule="evenodd" d="M22.0698 22.0696C22.3627 21.7767 22.8376 21.7767 23.1305 22.0696L29.7305 28.6696C30.0234 28.9625 30.0234 29.4374 29.7305 29.7303C29.4376 30.0232 28.9627 30.0232 28.6698 29.7303L22.0698 23.1303C21.7769 22.8374 21.7769 22.3625 22.0698 22.0696Z" fill="black"/>
<path fill-rule="evenodd" clip-rule="evenodd" d="M14.3002 6.84993C14.7144 6.84993 15.0502 7.18571 15.0502 7.59993V13.785L20.0253 18.6645C20.3211 18.9545 20.3257 19.4294 20.0356 19.7251C19.7456 20.0208 19.2707 20.0254 18.975 19.7354L13.775 14.6354C13.6312 14.4943 13.5502 14.3014 13.5502 14.0999V7.59993C13.5502 7.18571 13.886 6.84993 14.3002 6.84993Z" fill="black"/>
</svg>
