<svg width="32" height="32" viewBox="0 0 32 32" fill="none" xmlns="http://www.w3.org/2000/svg">
<path d="M13.8133 15.9583C13.6729 15.771 13.5428 15.587 13.4241 15.409C12.9885 14.7555 12.746 14.2415 12.6777 13.9681C12.6221 13.7457 12.6538 13.6543 12.7157 13.5524C12.8197 13.3816 13.024 13.1819 13.444 12.8144C13.8659 12.4453 14.3331 11.9651 14.5999 11.4147C14.8859 10.8249 14.9618 10.0884 14.4557 9.40747C14.1911 9.03805 13.6612 8.38199 13.1538 7.75382L13.1335 7.72873C12.6 7.0682 12.0939 6.44101 11.8604 6.11405C11.2587 5.27173 9.89259 4.3402 8.41467 5.07916C8.37139 5.1008 8.32567 5.12339 8.27779 5.14704C7.25472 5.65241 5.24484 6.64523 4.90587 9.35696C4.59904 11.8116 5.51892 15.5861 9.55885 20.2127L10.6219 19.1497C6.82186 14.7698 6.15865 11.4281 6.39429 9.54301C6.63177 7.64314 7.96616 6.97844 8.98741 6.46972L9.08549 6.4208C9.60757 6.15976 10.2414 6.42824 10.6398 6.98591C10.9028 7.3541 11.436 8.01431 11.9465 8.64626L11.9666 8.67123C12.5001 9.33176 13.0062 9.95896 13.2398 10.2859L13.2501 10.3C13.3378 10.4169 13.3632 10.5272 13.2502 10.7603C13.1171 11.0349 12.8343 11.3547 12.4562 11.6855C12.0762 12.018 11.6805 12.3683 11.4344 12.7725C11.1464 13.2457 11.0781 13.7542 11.2225 14.3319C11.3541 14.8585 11.7117 15.5445 12.176 16.241C12.3461 16.4961 12.5358 16.7605 12.743 17.0286L13.8133 15.9583Z" fill="black"/>
<path d="M13.4236 22.0048C17.7329 25.8792 21.0738 26.5226 23.0316 26.2094C23.0401 26.208 23.0485 26.2068 23.0571 26.2058C24.7721 25.9914 25.3837 24.9106 25.9573 23.8967C26.0403 23.7502 26.1224 23.605 26.207 23.4641C26.3652 23.2004 26.3542 22.9857 26.2514 22.7527C26.1305 22.4786 25.8789 22.1911 25.562 21.9194C24.8551 21.3136 23.0897 19.8445 22.2341 19.274C22.2225 19.2663 22.2112 19.2583 22.2001 19.25C22.0831 19.1623 21.9728 19.1368 21.7398 19.2498C21.4652 19.383 21.1454 19.6658 20.8145 20.0439C20.482 20.4239 20.1317 20.8196 19.7275 21.0656C19.2544 21.3537 18.7458 21.422 18.1682 21.2776C17.6492 21.1478 16.9921 20.8209 16.2993 20.3633C16.067 20.2099 15.8257 20.0386 15.5787 19.8498L16.6499 18.7785C16.8134 18.8992 16.9725 19.0103 17.1259 19.1116C17.758 19.5291 18.251 19.7521 18.532 19.8224C18.7543 19.878 18.8458 19.8463 18.9476 19.7843C19.1184 19.6804 19.3181 19.4761 19.6856 19.0561C20.0548 18.6342 20.535 18.167 21.0854 17.9001C21.6721 17.6156 22.404 17.539 23.082 18.0366C24.0309 18.6726 25.8489 20.1897 26.5382 20.7805C26.9212 21.1089 27.3697 21.5714 27.6238 22.1473C27.896 22.7643 27.935 23.4996 27.4932 24.2359C27.4328 24.3366 27.3678 24.4546 27.2959 24.5852C26.7373 25.5997 25.7603 27.3739 23.2559 27.6926C20.6935 28.0975 16.9058 27.1717 12.3618 23.0667L13.4236 22.0048Z" fill="black"/>
<path fill-rule="evenodd" clip-rule="evenodd" d="M28.3803 4.21967C28.6732 4.51256 28.6732 4.98744 28.3803 5.28033L5.28033 28.3803C4.98744 28.6732 4.51256 28.6732 4.21967 28.3803C3.92678 28.0874 3.92678 27.6126 4.21967 27.3197L27.3197 4.21967C27.6126 3.92678 28.0874 3.92678 28.3803 4.21967Z" fill="black"/>
</svg>
