<svg width="32" height="32" viewBox="0 0 32 32" fill="none" xmlns="http://www.w3.org/2000/svg">
<path fill-rule="evenodd" clip-rule="evenodd" d="M4.75 3.5C4.06421 3.5 3.5 4.06421 3.5 4.75V21.05C3.5 21.7358 4.06421 22.3 4.75 22.3H27.15C27.9089 22.3 28.4202 21.7549 28.5 21.1087V4.75C28.5 4.06421 27.9358 3.5 27.25 3.5H16.7V5H18.15C18.5642 5 18.9 5.33579 18.9 5.75C18.9 6.16421 18.5642 6.5 18.15 6.5H13.75C13.3358 6.5 13 6.16421 13 5.75C13 5.33579 13.3358 5 13.75 5H15.2V3.5H4.75ZM4.75 2C3.23579 2 2 3.23579 2 4.75V21.05C2 22.5642 3.23579 23.8 4.75 23.8H8.3V29.15C8.3 29.5642 8.63579 29.9 9.05 29.9C9.46421 29.9 9.8 29.5642 9.8 29.15V23.8H11.4V29.15C11.4 29.5642 11.7358 29.9 12.15 29.9C12.5642 29.9 12.9 29.5642 12.9 29.15V23.8H20.1V29.15C20.1 29.5642 20.4358 29.9 20.85 29.9C21.2642 29.9 21.6 29.5642 21.6 29.15V23.8H23.1V29.15C23.1 29.5642 23.4358 29.9 23.85 29.9C24.2642 29.9 24.6 29.5642 24.6 29.15V23.8H27.15C28.7781 23.8 29.8623 22.5639 29.9963 21.2246C29.9988 21.1998 30 21.1749 30 21.15V4.75C30 3.23579 28.7642 2 27.25 2H4.75ZM12.3462 9.10001C12.6751 9.09832 12.9667 9.31115 13.0654 9.62492L15.8654 18.5249C15.9371 18.7528 15.896 19.0011 15.7547 19.1937C15.6134 19.3862 15.3888 19.5 15.15 19.5H9.65059C9.65019 19.5 9.64979 19.5 9.6494 19.5H6.15C5.91436 19.5 5.69242 19.3893 5.55073 19.201C5.40904 19.0127 5.36408 18.7688 5.42932 18.5423L7.12932 12.6423C7.22126 12.3233 7.51209 12.1026 7.84416 12.1C8.17622 12.0974 8.47046 12.3135 8.56736 12.6311L9.64798 16.1732L11.6323 9.63227C11.7278 9.31751 12.0172 9.1017 12.3462 9.10001ZM8.63706 18L7.87054 15.4875L7.14661 18H8.63706ZM10.6613 18H14.1278L12.363 12.3905L10.6613 18ZM17.1 11.35C17.1 10.9358 17.4358 10.6 17.85 10.6H24.05C24.4642 10.6 24.8 10.9358 24.8 11.35C24.8 11.7642 24.4642 12.1 24.05 12.1H17.85C17.4358 12.1 17.1 11.7642 17.1 11.35ZM17.1 15.15C17.1 14.7358 17.4358 14.4 17.85 14.4H21.15C21.5642 14.4 21.9 14.7358 21.9 15.15C21.9 15.5642 21.5642 15.9 21.15 15.9H17.85C17.4358 15.9 17.1 15.5642 17.1 15.15Z" fill="black"/>
</svg>
