<svg width="32" height="32" viewBox="0 0 32 32" fill="none" xmlns="http://www.w3.org/2000/svg">
<path fill-rule="evenodd" clip-rule="evenodd" d="M16.0006 2.5C8.54504 2.49965 2.5007 8.54314 2.5 15.9987C2.4993 23.4542 8.54221 29.4987 15.9976 29.5C23.451 29.4928 29.4918 23.4529 29.5 15.9995C29.4997 8.54411 23.4561 2.50035 16.0006 2.5ZM15.9985 30.5C24.0035 30.4923 30.4911 24.0055 30.5 16.0006C30.5 7.9927 24.0086 1.50038 16.0007 1.5C7.99282 1.49962 1.50075 7.99078 1.5 15.9986C1.49925 24.0065 7.99066 30.4989 15.9985 30.5Z" fill="black"/>
<path fill-rule="evenodd" clip-rule="evenodd" d="M11.9018 9.30814H16.5561C20.4809 9.30814 21.8802 11.4187 21.8802 13.3962C21.8802 15.9582 19.8902 17.4875 16.5561 17.4875H13.1147V22.9704H11.9018V9.30814ZM13.1147 16.2407H16.5561C19.2079 16.2407 20.6672 15.2309 20.6672 13.3963C20.6672 11.5908 19.1684 10.5551 16.5561 10.5551H13.1147V16.2407Z" fill="black"/>
</svg>
