<svg width="32" height="32" viewBox="0 0 32 32" fill="none" xmlns="http://www.w3.org/2000/svg">
<rect width="32" height="32" fill="white"/>
<path fill-rule="evenodd" clip-rule="evenodd" d="M24.0382 5.0588C24.3201 4.94032 24.6457 5.00422 24.862 5.22048L29.7795 10.138C29.9207 10.2792 30 10.4706 30 10.6703C30 10.8699 29.9207 11.0613 29.7795 11.2025L25.4444 15.5377L29.7795 19.8728C30.0714 20.1647 30.0738 20.6371 29.7849 20.9319L24.8673 25.9498C24.6523 26.1692 24.3255 26.2359 24.0417 26.1183C23.7578 26.0008 23.574 25.7225 23.5771 25.4153L23.6597 17.3224L20.0448 20.9373C19.7508 21.2312 19.2743 21.2312 18.9803 20.9373C18.6864 20.6433 18.6864 20.1667 18.9803 19.8728L23.3155 15.5377L18.9803 11.2025C18.6864 10.9086 18.6864 10.432 18.9803 10.138C19.2743 9.8441 19.7508 9.8441 20.0448 10.138L23.6586 13.7519L23.5771 5.76039C23.574 5.45457 23.7562 5.17727 24.0382 5.0588ZM25.1645 17.3867L28.1882 20.4104L25.1015 23.5601L25.1645 17.3867ZM25.1635 13.6897L25.1012 7.58863L28.1828 10.6703L25.1635 13.6897ZM15.2473 7.71776L10.046 11.8611C9.91278 11.9673 9.74744 12.0251 9.57706 12.0251H3.50538V18.9498H9.57706C9.74744 18.9498 9.91278 19.0076 10.046 19.1138L15.2473 23.2572V7.71776ZM16.161 5.83217C16.4422 5.9728 16.7527 6.29648 16.7527 6.75629V24.2187C16.7527 24.6416 16.5197 25.0503 16.0887 25.212C15.6959 25.3592 15.2863 25.2447 15.0048 24.9887L9.31391 20.4552H3.15412C2.80897 20.4552 2.52681 20.2902 2.34591 20.1093C2.165 19.9284 2 19.6463 2 19.3011V11.6739C2 11.4617 2.05159 11.1688 2.26227 10.916C2.49308 10.639 2.82258 10.5197 3.15412 10.5197H9.31391L15.0047 5.9864C15.3713 5.65268 15.8397 5.67156 16.161 5.83217Z" fill="black"/>
</svg>
