<svg width="32" height="32" viewBox="0 0 32 32" fill="none" xmlns="http://www.w3.org/2000/svg">
<path fill-rule="evenodd" clip-rule="evenodd" d="M15.8692 4.52664C15.8639 4.53526 15.8541 4.55398 15.8465 4.58823C15.8413 4.61164 15.835 4.63477 15.8276 4.65757L13.1267 12.9604C13.0262 13.2694 12.7382 13.4785 12.4132 13.4785H3.61025C3.61007 13.4785 3.61048 13.4786 3.61025 13.4785C3.60805 13.4783 3.60226 13.4778 3.58689 13.491C3.56433 13.5106 3.53311 13.5519 3.51401 13.6134C3.49507 13.6744 3.49682 13.7272 3.50551 13.76C3.51216 13.7851 3.52232 13.8013 3.54615 13.8184L3.54778 13.8195L10.6502 18.9212C10.9155 19.1118 11.027 19.4521 10.9259 19.7627L8.22502 28.0655C8.22159 28.076 8.21794 28.0865 8.21405 28.0968C8.20389 28.1239 8.20731 28.133 8.20935 28.1384C8.21429 28.1519 8.23118 28.1813 8.27034 28.209C8.30929 28.2366 8.35218 28.2499 8.38683 28.2514C8.41452 28.2525 8.44141 28.247 8.47286 28.2254L14.9686 23.4286C14.9782 23.4214 14.9881 23.4145 14.9981 23.4079C15.2988 23.2074 15.6531 23.1318 15.9644 23.1318C16.2758 23.1318 16.63 23.2074 16.9308 23.4079C16.9408 23.4145 16.9506 23.4214 16.9603 23.4286L23.456 28.2254C23.4874 28.247 23.5143 28.2525 23.542 28.2514C23.5767 28.2499 23.6196 28.2366 23.6585 28.209C23.6977 28.1813 23.7143 28.1526 23.7192 28.1392C23.7213 28.1338 23.725 28.1239 23.7148 28.0968C23.7109 28.0865 23.7073 28.076 23.7038 28.0655L21.0029 19.7627C20.9019 19.4521 21.0134 19.1118 21.2787 18.9212L28.3735 13.825C28.4545 13.7629 28.4814 13.7085 28.4913 13.678C28.5024 13.6441 28.5014 13.6118 28.4921 13.5831C28.4826 13.5535 28.4648 13.529 28.4419 13.512C28.4222 13.4974 28.3858 13.4785 28.3186 13.4785H19.5156C19.1907 13.4785 18.9027 13.2694 18.8022 12.9604L16.103 4.66273C16.1027 4.66209 16.1025 4.66145 16.1023 4.66082C16.0764 4.58413 16.0403 4.54802 16.015 4.52998C15.9859 4.50921 15.9541 4.50051 15.9269 4.50051C15.9 4.50051 15.8861 4.50861 15.8813 4.5123C15.8788 4.51424 15.8746 4.51804 15.8692 4.52664ZM15.9269 3C16.606 3 17.2723 3.42565 17.5265 4.18823L17.5282 4.19339L20.0605 11.978H28.3186C29.1053 11.978 29.7117 12.4738 29.9207 13.1239C30.1334 13.7857 29.919 14.5415 29.2689 15.0291L29.2565 15.0382L22.5995 19.82L25.1263 27.5877C25.4069 28.3614 25.0426 29.0674 24.5258 29.4335C24.01 29.7988 23.233 29.9102 22.5807 29.4442L22.5711 29.4373L16.0947 24.6547C16.0896 24.6524 16.0799 24.6485 16.065 24.6445C16.0381 24.6373 16.0033 24.6323 15.9644 24.6323C15.9256 24.6323 15.8908 24.6373 15.8639 24.6445C15.8489 24.6485 15.8393 24.6524 15.8341 24.6547L9.34817 29.4443C8.69585 29.9103 7.9188 29.7988 7.40302 29.4335C6.88621 29.0674 6.52191 28.3614 6.80253 27.5877L9.32938 19.82L2.674 15.0394C2.6737 15.0392 2.67339 15.0389 2.67309 15.0387C1.99743 14.5555 1.89771 13.759 2.08093 13.1686C2.26056 12.5898 2.7894 11.978 3.61025 11.978H11.8683L14.391 4.22321C14.5847 3.43347 15.2463 3 15.9269 3Z" fill="black"/>
</svg>
