<svg width="32" height="32" viewBox="0 0 32 32" fill="none" xmlns="http://www.w3.org/2000/svg">
<path d="M27.21 2C25.6157 2 24.4199 3.19573 24.4199 4.69039V28.8043C24.4199 29.2028 24.7189 29.6014 25.2171 29.6014H29.2028C29.6014 29.6014 30 29.3025 30 28.8043V4.69039C29.9004 3.19573 28.7046 2 27.21 2ZM28.4057 28.1068H25.9146V4.69039C25.9146 3.99288 26.4128 3.49466 27.1103 3.49466H27.21C27.9075 3.49466 28.4057 3.99288 28.4057 4.69039V28.1068Z" fill="black"/>
<path d="M19.7367 7.97865C18.1423 7.97865 16.9466 9.27402 16.9466 10.7687V28.9039C16.9466 29.3025 17.2456 29.7011 17.7438 29.7011H21.7295C22.1281 29.7011 22.5267 29.4021 22.5267 28.9039V10.7687C22.427 9.27402 21.2313 7.97865 19.7367 7.97865ZM20.9324 28.1068H18.4413V10.7687C18.4413 10.0712 18.9395 9.57295 19.637 9.57295H19.7367C20.4342 9.57295 20.9324 10.0712 20.9324 10.7687V28.1068Z" fill="black"/>
<path d="M12.2633 14.0569C10.669 14.0569 9.47331 15.2527 9.47331 16.7473V28.8043C9.47331 29.2028 9.77224 29.6014 10.2705 29.6014H14.2562C14.6548 29.6014 15.0534 29.3025 15.0534 28.8043V16.7473C14.9537 15.2527 13.758 14.0569 12.2633 14.0569ZM13.4591 28.1068H10.968V16.7473C10.968 16.0498 11.4662 15.5516 12.1637 15.5516H12.2633C12.9609 15.5516 13.4591 16.0498 13.4591 16.7473V28.1068Z" fill="black"/>
<path d="M4.79004 20.0356C3.19573 20.0356 2 21.2313 2 22.726V28.8043C2 29.2028 2.29893 29.6014 2.79715 29.6014H6.78292C7.18149 29.6014 7.58007 29.3025 7.58007 28.8043V22.726C7.48043 21.2313 6.2847 20.0356 4.79004 20.0356ZM5.98576 28.1068H3.49466V22.8256C3.49466 22.1281 3.99288 21.6299 4.69039 21.6299H4.79004C5.48754 21.6299 5.98576 22.1281 5.98576 22.8256V28.1068Z" fill="black"/>
</svg>
