<svg width="32" height="32" viewBox="0 0 32 32" fill="none" xmlns="http://www.w3.org/2000/svg">
<path fill-rule="evenodd" clip-rule="evenodd" d="M15.54 30V24.6667H16.54V30H15.54Z" fill="black"/>
<path fill-rule="evenodd" clip-rule="evenodd" d="M15.54 18V2H16.54V18H15.54Z" fill="black"/>
<path fill-rule="evenodd" clip-rule="evenodd" d="M26.2067 30V19.3333H27.2067V30H26.2067Z" fill="black"/>
<path fill-rule="evenodd" clip-rule="evenodd" d="M26.2067 12.6667V2H27.2067V12.6667H26.2067Z" fill="black"/>
<path fill-rule="evenodd" clip-rule="evenodd" d="M1.5 10.3867C1.5 8.26958 3.21624 6.55333 5.33333 6.55333C7.45042 6.55333 9.16667 8.26958 9.16667 10.3867C9.16667 12.5038 7.45042 14.22 5.33333 14.22C3.21624 14.22 1.5 12.5038 1.5 10.3867ZM5.33333 7.55333C3.76853 7.55333 2.5 8.82186 2.5 10.3867C2.5 11.9515 3.76853 13.22 5.33333 13.22C6.89814 13.22 8.16667 11.9515 8.16667 10.3867C8.16667 8.82186 6.89814 7.55333 5.33333 7.55333Z" fill="black"/>
<path fill-rule="evenodd" clip-rule="evenodd" d="M12.1667 21.0533C12.1667 18.9362 13.8829 17.22 16 17.22C18.1171 17.22 19.8333 18.9362 19.8333 21.0533C19.8333 23.1704 18.1171 24.8867 16 24.8867C13.8829 24.8867 12.1667 23.1704 12.1667 21.0533ZM16 18.22C14.4352 18.22 13.1667 19.4885 13.1667 21.0533C13.1667 22.6181 14.4352 23.8867 16 23.8867C17.5648 23.8867 18.8333 22.6181 18.8333 21.0533C18.8333 19.4885 17.5648 18.22 16 18.22Z" fill="black"/>
<path fill-rule="evenodd" clip-rule="evenodd" d="M22.8333 15.72C22.8333 13.6029 24.5496 11.8867 26.6667 11.8867C28.7838 11.8867 30.5 13.6029 30.5 15.72C30.5 17.8371 28.7838 19.5533 26.6667 19.5533C24.5496 19.5533 22.8333 17.8371 22.8333 15.72ZM26.6667 12.8867C25.1019 12.8867 23.8333 14.1552 23.8333 15.72C23.8333 17.2848 25.1019 18.5533 26.6667 18.5533C28.2315 18.5533 29.5 17.2848 29.5 15.72C29.5 14.1552 28.2315 12.8867 26.6667 12.8867Z" fill="black"/>
<path fill-rule="evenodd" clip-rule="evenodd" d="M4.87333 30V14H5.87333V30H4.87333Z" fill="black"/>
<path fill-rule="evenodd" clip-rule="evenodd" d="M4.87333 7.33333V2H5.87333V7.33333H4.87333Z" fill="black"/>
</svg>
