<svg width="32" height="32" viewBox="0 0 32 32" fill="none" xmlns="http://www.w3.org/2000/svg">
<path d="M18.1541 23.4615H14.9233V19.1538H18.1541V23.4615Z" fill="black"/>
<path fill-rule="evenodd" clip-rule="evenodd" d="M26.7692 17H2V25.6154H26.7692V17ZM22.4618 18.0769V19.1538H21.3848V24.5384H20.3079V18.0769H22.4618ZM23.5387 23.4615H22.4618V19.1538H23.5387V23.4615ZM23.5387 23.4615H24.6156V18.0769H25.6925V24.5384H23.5387V23.4615ZM6.30792 19.1538V23.4615H4.15407V22.3846H3.07715V23.4615H4.15407L4.15407 24.5384H6.30792V23.4615H7.38484L7.38484 18.0769H4.15407V19.1538H6.30792ZM8.46176 19.1538H9.53869V20.2308H8.46176V19.1538ZM11.6925 21.3077H9.53869V20.2308L11.6925 20.2307V21.3077ZM11.6925 23.4615V21.3077H12.7695V23.4615H11.6925ZM11.6925 23.4615V24.5384H8.46176V23.4615L11.6925 23.4615ZM9.53869 19.1538L9.53869 18.0769H12.7695V19.1538H9.53869ZM19.231 19.1538H18.1541L18.1541 18.0769H14.9233L14.9233 19.1538H13.8464V23.4615H14.9233L14.9233 24.5384H18.1541L18.1541 23.4615H19.231V19.1538Z" fill="black"/>
<path fill-rule="evenodd" clip-rule="evenodd" d="M21.3845 3.0769H10.6152V17H11.6922V4.15383H20.3076V12.7692H28.923V27.8461H11.6922V25H10.6152V28.9231H29.9998V11.6923H29.9614V11.4852L21.5916 3.11537H21.3845V3.0769ZM21.3845 4.32247V11.6923H28.7543L21.3845 4.32247Z" fill="black"/>
</svg>
