<svg width="32" height="32" viewBox="0 0 32 32" fill="none" xmlns="http://www.w3.org/2000/svg">
<path d="M28.9117 2H9.32156C5.26502 2 2 5.26502 2 9.32156C2 13.3781 5.26502 16.6431 9.32156 16.6431H15.4558V29.0106C15.4558 29.4064 15.7527 29.8021 16.2473 29.8021C16.742 29.8021 17.0389 29.5053 17.0389 29.0106V3.4841H21.9859V29.0106C21.9859 29.4064 22.2827 29.8021 22.7774 29.8021C23.2721 29.8021 23.5689 29.5053 23.5689 29.0106V3.4841H29.2085C29.6042 3.4841 30 3.18728 30 2.69258C30 2.19788 29.4064 2 28.9117 2ZM15.3569 15.0601H9.32156C6.15548 15.0601 3.4841 12.4876 3.4841 9.22262C3.4841 5.9576 6.05654 3.38516 9.32156 3.38516H15.4558V15.0601H15.3569Z" fill="black"/>
</svg>
