<svg width="32" height="32" viewBox="0 0 32 32" fill="none" xmlns="http://www.w3.org/2000/svg">
<path fill-rule="evenodd" clip-rule="evenodd" d="M9.58588 23.9559V25.0661H22.3401V23.9683C22.415 21.3906 21.0825 18.976 18.8617 17.6652C19.753 16.866 20.2677 15.7292 20.2802 14.5322C20.2802 12.1478 18.3473 10.215 15.963 10.215C13.5787 10.215 11.6458 12.1478 11.6458 14.5322C11.6442 15.7323 12.1614 16.8746 13.0643 17.6652C10.8513 18.9776 9.52079 21.3839 9.58588 23.9559ZM17.4555 18.2571C19.7239 19.1707 21.1951 21.3873 21.1559 23.8325H10.77C10.7518 21.3981 12.2317 19.2028 14.4951 18.3065L15.7286 17.8254L14.4951 17.2334C13.4771 16.7213 12.8299 15.6839 12.8176 14.5444C12.8629 12.8808 14.2008 11.5429 15.8643 11.4977H15.963C17.6537 11.4756 19.0593 12.7941 19.1454 14.4827C19.144 15.6319 18.4883 16.6801 17.4555 17.184L16.222 17.7761L17.4555 18.2571Z" fill="black"/>
<path fill-rule="evenodd" clip-rule="evenodd" d="M3.62817 10.8317V30H28.2978L28.3718 10.8317L15.963 2L3.62817 10.8317ZM27.1506 11.4978V28.7665H4.77531V11.4978L15.963 3.45551L27.1506 11.4978Z" fill="black"/>
</svg>
