<svg width="32" height="32" viewBox="0 0 32 32" fill="none" xmlns="http://www.w3.org/2000/svg">
<path d="M10.968 7.08897H29.2028C29.6014 7.08897 30 6.79004 30 6.29181C30 5.79359 29.7011 5.49466 29.2028 5.49466H10.968C10.5694 5.59431 10.1708 5.99288 10.1708 6.39146C10.1708 6.79004 10.5694 7.08897 10.968 7.08897Z" fill="black"/>
<path d="M4.39146 4C3.09609 4 2 5.09609 2 6.39146C2 7.68683 3.09609 8.78292 4.39146 8.78292C5.68683 8.78292 6.78292 7.68683 6.78292 6.39146C6.78292 5.09609 5.68683 4 4.39146 4ZM4.39146 7.28826C3.89324 7.28826 3.49466 6.88968 3.49466 6.39146C3.49466 5.89324 3.89324 5.49466 4.39146 5.49466C4.88968 5.49466 5.28826 5.89324 5.28826 6.39146C5.28826 6.88968 4.88968 7.28826 4.39146 7.28826Z" fill="black"/>
<path d="M29.1032 15.2598H10.968C10.5694 15.2598 10.1708 15.5587 10.1708 16.0569C10.1708 16.5552 10.4698 16.8541 10.968 16.8541H29.2028C29.6014 16.8541 30 16.5552 30 16.0569C30 15.5587 29.6014 15.2598 29.1032 15.2598Z" fill="black"/>
<path d="M4.39146 13.6655C3.09609 13.6655 2 14.7616 2 16.0569C2 17.3523 3.09609 18.4484 4.39146 18.4484C5.68683 18.4484 6.78292 17.3523 6.78292 16.0569C6.78292 14.7616 5.68683 13.6655 4.39146 13.6655ZM4.39146 16.9537C3.89324 16.9537 3.49466 16.5552 3.49466 16.0569C3.49466 15.5587 3.89324 15.1601 4.39146 15.1601C4.88968 15.1601 5.28826 15.5587 5.28826 16.0569C5.28826 16.5552 4.88968 16.9537 4.39146 16.9537Z" fill="black"/>
<path d="M29.1032 24.9253H10.968C10.5694 24.9253 10.1708 25.2242 10.1708 25.7224C10.1708 26.2206 10.4698 26.5196 10.968 26.5196H29.2028C29.6014 26.5196 30 26.2206 30 25.7224C30 25.2242 29.6014 24.9253 29.1032 24.9253Z" fill="black"/>
<path d="M4.39146 23.331C3.09609 23.331 2 24.427 2 25.7224C2 27.0178 3.09609 28.1139 4.39146 28.1139C5.68683 28.1139 6.78292 27.0178 6.78292 25.7224C6.78292 24.427 5.68683 23.331 4.39146 23.331ZM4.39146 26.6192C3.89324 26.6192 3.49466 26.2206 3.49466 25.7224C3.49466 25.2242 3.89324 24.8256 4.39146 24.8256C4.88968 24.8256 5.28826 25.2242 5.28826 25.7224C5.28826 26.2206 4.88968 26.6192 4.39146 26.6192Z" fill="black"/>
</svg>
