<svg width="32" height="32" viewBox="0 0 32 32" fill="none" xmlns="http://www.w3.org/2000/svg">
<path d="M9.2 11H6.1C5.7 11 5.4 11.4 5.4 11.8C5.4 12.2 5.7 12.6 6.2 12.6H9.3C9.7 12.6 10.1 12.3 10.1 11.8C10.1 11.3 9.6 11 9.2 11Z" fill="black"/>
<path d="M26.9 7.9H23V2.8C23 2.3 22.7 2 22.3 2H9.4C9 2 8.6 2.3 8.6 2.8V7.9H4.8C3.2 7.9 2 9.1 2 10.7V19.7C2 21.2 3.2 22.5 4.8 22.5H8.7V29.3C8.6 29.7 9 30 9.4 30H22.3C22.7 30 23.1 29.7 23.1 29.2V22.4H27C28.5 22.4 29.8 21.2 29.8 19.6V10.6C29.6 9.1 28.4 7.9 26.9 7.9ZM10.1 3.5H21.5V7.9H10.1V3.5ZM21.5 28.5H10.1V16H21.5V28.5ZM28.1 19.7C28.1 20.4 27.5 21 26.8 21H23V15.3C23 14.9 22.7 14.5 22.2 14.5H9.4C9 14.5 8.6 14.8 8.6 15.3V21H4.8C4.1 21 3.5 20.4 3.5 19.7V10.7C3.5 10 4.1 9.4 4.8 9.4H26.9C27.6 9.4 28.2 10 28.2 10.7V19.7H28.1Z" fill="black"/>
</svg>
