<svg width="32" height="32" viewBox="0 0 32 32" fill="none" xmlns="http://www.w3.org/2000/svg">
<path fill-rule="evenodd" clip-rule="evenodd" d="M17.3226 11.8877C17.3226 11.4742 17.6578 11.139 18.0713 11.139C19.5828 11.139 20.8164 12.3726 20.8164 13.8841V24.1658C20.8164 25.6773 19.5828 26.9109 18.0713 26.9109H4.79501C3.28349 26.9109 2.04991 25.6773 2.04991 24.1658V18.975C2.04991 18.5616 2.3851 18.2264 2.79857 18.2264C3.21205 18.2264 3.54724 18.5616 3.54724 18.975V24.1658C3.54724 24.8503 4.11045 25.4135 4.79501 25.4135H18.0713C18.7559 25.4135 19.3191 24.8503 19.3191 24.1658V13.8841C19.3191 13.1996 18.7559 12.6364 18.0713 12.6364C17.6578 12.6364 17.3226 12.3012 17.3226 11.8877Z" fill="black"/>
<path fill-rule="evenodd" clip-rule="evenodd" d="M28.5027 13.385C28.5027 12.3059 27.1579 11.7061 26.3652 12.4378L26.3518 12.4499L20.5621 17.5408C20.2516 17.8139 19.7785 17.7835 19.5055 17.473C19.2325 17.1625 19.2629 16.6894 19.5734 16.4164L25.3567 11.331C27.1598 9.67726 30 11.0733 30 13.385V24.6649C30 27.1154 27.1292 28.3488 25.3539 26.7163L19.568 21.5289C19.2601 21.2529 19.2343 20.7796 19.5103 20.4717C19.7863 20.1639 20.2596 20.138 20.5675 20.414L26.3653 25.612C27.1856 26.3693 28.5027 25.806 28.5027 24.6649V13.385Z" fill="black"/>
<path d="M6.09269 24.066C6.80938 24.066 7.39037 23.485 7.39037 22.7683C7.39037 22.0516 6.80938 21.4706 6.09269 21.4706C5.376 21.4706 4.79501 22.0516 4.79501 22.7683C4.79501 23.485 5.376 24.066 6.09269 24.066Z" fill="black"/>
<path d="M8.78788 5C4.99465 5 2 7.99465 2 11.7879C2 15.4813 4.99465 18.5758 8.78788 18.5758C12.4813 18.5758 15.4759 15.5811 15.4759 11.7879C15.4759 7.99465 12.4813 5 8.78788 5ZM11.8824 13.7843C11.6827 13.984 11.4831 14.0838 11.2834 14.0838C11.0838 14.0838 10.984 14.0838 10.7843 13.984L8.28877 12.3868C8.08913 12.1872 7.98931 11.9875 7.98931 11.7879V8.39394C7.98931 7.99465 8.28877 7.59537 8.78788 7.59537C9.18717 7.59537 9.58645 7.89483 9.58645 8.39394V11.3886L11.6827 12.7861C11.9822 12.9857 12.082 13.385 11.8824 13.7843Z" fill="black"/>
</svg>
