<svg width="32" height="32" viewBox="0 0 32 32" fill="none" xmlns="http://www.w3.org/2000/svg">
<path fill-rule="evenodd" clip-rule="evenodd" d="M28.6675 4.35835C30.0553 5.79426 30.3744 8.82213 29.5513 12.2703C28.6454 16.0656 26.4848 19.9726 23.2535 23.2594C19.9756 26.4845 16.0686 28.6453 12.2714 29.5515C8.82326 30.3744 5.79406 30.056 4.35765 28.6698L2.55286 26.8595C1.81796 26.1286 1.8163 24.9367 2.54828 24.1953C2.58191 24.1617 2.58191 24.1617 2.73325 24.0106C2.93504 23.809 2.93504 23.809 3.22095 23.5235C3.72553 23.0197 4.23031 22.5158 4.70172 22.0455C5.43244 21.3166 6.01119 20.7399 6.38793 20.3656C7.75865 19.0015 10.0655 19.1223 11.531 20.5911L12.44 21.4992C13.4178 22.4813 15.9949 21.5828 18.7891 18.7878C21.5876 15.9844 22.4791 13.4224 21.4948 12.4287L20.5956 11.5295C19.1229 10.0599 19.0008 7.75 20.3672 6.38691C20.743 6.01026 21.3208 5.43198 22.0462 4.70642C22.5201 4.23249 23.025 3.72767 23.5299 3.22295C23.816 2.93696 23.816 2.93696 24.018 2.7351C24.1694 2.58371 24.1694 2.58371 24.2006 2.55258C24.9288 1.81626 26.1335 1.81626 26.8563 2.54988L28.6675 4.35835ZM25.9937 3.40676C25.7434 3.15268 25.3172 3.15268 25.0626 3.41008C25.0289 3.4437 25.0289 3.4437 24.8775 3.59507C24.6756 3.7969 24.6756 3.7969 24.3895 4.08285C23.8846 4.5875 23.3798 5.09225 22.9086 5.56349C22.1809 6.29134 21.6034 6.86936 21.227 7.24664C20.3573 8.11427 20.4387 9.65517 21.4549 10.6692L22.3567 11.571C23.9815 13.2114 22.8618 16.4289 19.6493 19.6471C16.4384 22.8589 13.2015 23.9874 11.5795 22.3582L10.671 21.4506C9.66036 20.4377 8.12022 20.357 7.24526 21.2277C6.86891 21.6017 6.29062 22.1779 5.56504 22.9017C5.08919 23.3764 4.58454 23.8802 4.08008 24.3839C3.79423 24.6693 3.79423 24.6693 3.5925 24.8708C3.44121 25.0219 3.44121 25.0219 3.41056 25.0525C3.1509 25.3155 3.15149 25.74 3.4121 25.9992L5.21033 27.803C6.2736 28.8291 8.90268 29.1054 11.9891 28.3688C15.5712 27.514 19.2809 25.4623 22.3936 22.3998C25.4625 19.2781 27.5141 15.5682 28.3687 11.988C29.1045 8.90527 28.8291 6.28041 27.8043 5.21464L25.9937 3.40676Z" fill="black"/>
</svg>
