<svg width="32" height="32" viewBox="0 0 32 32" fill="none" xmlns="http://www.w3.org/2000/svg">
<path fill-rule="evenodd" clip-rule="evenodd" d="M25.5137 9.43663C25.7894 9.16077 26.1634 9.00578 26.5533 9.00578C26.9432 9.00578 27.3171 9.1607 27.5928 9.43643L28.9845 10.8259C29.5431 11.4039 29.8568 12.2957 29.9648 13.3198C30.074 14.3556 29.9797 15.5852 29.6641 16.9071C29.0326 19.5526 27.5029 22.6188 24.8405 25.3257L24.8347 25.3316C22.1283 27.9946 19.0618 29.524 16.416 30.1555C15.094 30.4711 13.8643 30.5655 12.8286 30.4566C11.8046 30.3489 10.9129 30.0357 10.3351 29.4781L10.3282 29.4715L8.9461 28.0857C8.37335 27.5102 8.37058 26.5803 8.94039 26.0019L8.94332 25.9989L10.0905 24.854C10.7177 24.2282 11.4525 23.4955 11.882 23.0683L11.8917 23.0586L11.9019 23.0494C13.0587 22.0187 14.8281 22.1089 15.8742 23.2496L16.5601 23.9355C16.833 24.2094 17.3693 24.3455 18.2485 24.0389C19.1141 23.737 20.1962 23.0359 21.3702 21.8619C22.5453 20.6852 23.2452 19.6048 23.5459 18.7402C23.8504 17.8649 23.7171 17.3254 23.4399 17.0444L23.4391 17.0436L22.7611 16.3656C21.6181 15.3205 21.5274 13.5493 22.5598 12.3927L22.5689 12.3825L22.5785 12.3728C23.0065 11.9432 23.7405 11.209 24.3672 10.5824L25.5137 9.43663ZM9.65279 26.7037C9.46783 26.8914 9.4686 27.1931 9.65451 27.3799L11.0327 28.7616C11.3857 29.1002 12.023 29.3664 12.9331 29.4621C13.8343 29.5568 14.9483 29.4778 16.1838 29.1828C18.6522 28.5936 21.555 27.1546 24.1304 24.6216C26.6629 22.0457 28.1023 19.143 28.6915 16.6749C28.9864 15.4395 29.0653 14.3257 28.9703 13.4247C28.8744 12.5147 28.6077 11.8773 28.2682 11.5239L26.886 10.1439C26.7979 10.0557 26.678 10.0058 26.5533 10.0058C26.4287 10.0058 26.3092 10.0553 26.2211 10.1435L25.8746 9.79728C26.2207 10.1438 26.2211 10.1435 26.2211 10.1435L25.0742 11.2896C24.4523 11.9113 23.7257 12.6382 23.2973 13.0683C22.6369 13.8184 22.7004 14.9611 23.4421 15.6333L23.4512 15.6415L24.15 16.3403C24.8151 17.0127 24.8531 18.026 24.4904 19.0687C24.1237 20.1231 23.3169 21.3278 22.0778 22.5685C20.8391 23.8072 19.6326 24.6152 18.5778 24.9831C17.537 25.3461 16.5205 25.3121 15.8529 24.6425L15.1507 23.9403L15.1427 23.9315C14.4694 23.191 13.3275 23.1279 12.5769 23.7875C12.1466 24.2155 11.4191 24.9411 10.7968 25.5619L9.65585 26.7006L9.65279 26.7037Z" fill="black"/>
<path fill-rule="evenodd" clip-rule="evenodd" d="M8.12781 5.77638H11.2024C12.3189 5.77638 13.1948 6.03577 13.8017 6.52372C14.4208 7.02143 14.7061 7.71459 14.7061 8.45129C14.7061 9.17711 14.4447 9.87309 13.8292 10.3763C13.2272 10.8685 12.3476 11.1262 11.2024 11.1262H9.12781V14.4579H8.12781V5.77638ZM9.12781 10.1262H11.2024C12.2132 10.1262 12.8354 9.89708 13.1963 9.60208C13.5436 9.31812 13.7061 8.92663 13.7061 8.45129C13.7061 7.98681 13.5352 7.59252 13.1751 7.30307C12.803 7.00386 12.1771 6.77638 11.2024 6.77638H9.12781V10.1262Z" fill="black"/>
<path fill-rule="evenodd" clip-rule="evenodd" d="M1.9917 10.1815C1.9917 5.38683 5.87853 1.5 10.6732 1.5C15.4678 1.5 19.3547 5.38683 19.3547 10.1815C19.3547 14.9761 15.4678 18.863 10.6732 18.863C5.87853 18.863 1.9917 14.9761 1.9917 10.1815ZM10.6732 2.5C6.43082 2.5 2.9917 5.93912 2.9917 10.1815C2.9917 14.4239 6.43082 17.863 10.6732 17.863C14.9156 17.863 18.3547 14.4239 18.3547 10.1815C18.3547 5.93912 14.9156 2.5 10.6732 2.5Z" fill="black"/>
</svg>
