<svg width="32" height="32" viewBox="0 0 32 32" fill="none" xmlns="http://www.w3.org/2000/svg">
<path d="M29.3913 21.6667C29.7279 21.6667 30 21.9573 30 22.3155V24.262C30 25.3352 29.1807 26.2086 28.1739 26.2086H18.6868L16.4303 28.6138C16.3117 28.7403 16.1558 28.8039 16 28.8039C15.8442 28.8039 15.6884 28.7403 15.5697 28.6138L13.3132 26.2086H3.82609C2.8193 26.2086 2 25.3352 2 24.262V22.3155C2 21.9573 2.27209 21.6667 2.6087 21.6667C2.9453 21.6667 3.21739 21.9573 3.21739 22.3155V24.262C3.21739 24.6195 3.49009 24.9109 3.82609 24.9109H13.5652C13.7271 24.9109 13.8817 24.979 13.9956 25.101L16 27.2376L18.0044 25.101C18.1183 24.979 18.2729 24.9109 18.4348 24.9109H28.1739C28.5099 24.9109 28.7826 24.6195 28.7826 24.262V22.3155C28.7826 21.9573 29.0547 21.6667 29.3913 21.6667ZM8.97255 11.7843C9.97144 11.7843 10.7843 12.6289 10.7843 13.6667V19.9412C10.7843 20.2875 10.5144 20.5686 10.1804 20.5686C9.84642 20.5686 9.57647 20.2875 9.57647 19.9412V18.0588H5.95294V19.9412C5.95294 20.2875 5.68299 20.5686 5.34902 20.5686C5.01505 20.5686 4.7451 20.2875 4.7451 19.9412V13.6667C4.7451 12.6289 5.55798 11.7843 6.55686 11.7843H8.97255ZM16.549 11.7843C18.214 11.7843 19.5686 13.1917 19.5686 14.9216C19.5686 16.6515 18.214 18.0588 16.549 18.0588H14.7373V19.9412C14.7373 20.2875 14.4673 20.5686 14.1333 20.5686C13.7994 20.5686 13.5294 20.2875 13.5294 19.9412V12.4118C13.5294 12.0654 13.7994 11.7843 14.1333 11.7843H16.549ZM27.2 11.7843C27.534 11.7843 27.8039 12.0654 27.8039 12.4118C27.8039 12.7581 27.534 13.0392 27.2 13.0392H25.3882V19.3137H27.2C27.534 19.3137 27.8039 19.5948 27.8039 19.9412C27.8039 20.2875 27.534 20.5686 27.2 20.5686H22.3686C22.0347 20.5686 21.7647 20.2875 21.7647 19.9412C21.7647 19.5948 22.0347 19.3137 22.3686 19.3137H24.1804V13.0392H22.3686C22.0347 13.0392 21.7647 12.7581 21.7647 12.4118C21.7647 12.0654 22.0347 11.7843 22.3686 11.7843H27.2ZM8.97255 13.0392H6.55686C6.2235 13.0392 5.95294 13.3209 5.95294 13.6667V16.8039H9.57647V13.6667C9.57647 13.3209 9.30591 13.0392 8.97255 13.0392ZM16.549 13.0392H14.7373V16.8039H16.549C17.5479 16.8039 18.3608 15.9594 18.3608 14.9216C18.3608 13.8838 17.5479 13.0392 16.549 13.0392ZM15.5697 3.19027C15.8077 2.93658 16.1923 2.93658 16.4303 3.19027L18.6868 5.59547H28.1739C29.1807 5.59547 30 6.46879 30 7.54195V9.48843C30 9.84658 29.7279 10.1373 29.3913 10.1373C29.0547 10.1373 28.7826 9.84658 28.7826 9.48843V7.54195C28.7826 7.18444 28.5099 6.89312 28.1739 6.89312H18.4348C18.2729 6.89312 18.1183 6.82499 18.0044 6.70301L16 4.56643L13.9956 6.70301C13.8817 6.82499 13.7271 6.89312 13.5652 6.89312H3.82609C3.49009 6.89312 3.21739 7.18444 3.21739 7.54195V9.48843C3.21739 9.84658 2.9453 10.1373 2.6087 10.1373C2.27209 10.1373 2 9.84658 2 9.48843V7.54195C2 6.46879 2.8193 5.59547 3.82609 5.59547H13.3132L15.5697 3.19027Z" fill="black"/>
</svg>
