<svg width="32" height="32" viewBox="0 0 32 32" fill="none" xmlns="http://www.w3.org/2000/svg">
<path fill-rule="evenodd" clip-rule="evenodd" d="M11.2633 1.2926L16.5442 6.57489L15.837 7.2819L11.2636 2.70729L6.69406 7.28176L5.98657 6.57503L11.2633 1.2926Z" fill="black"/>
<path fill-rule="evenodd" clip-rule="evenodd" d="M10.6527 29.9999V2.30462H11.6527V29.9999H10.6527Z" fill="black"/>
<path fill-rule="evenodd" clip-rule="evenodd" d="M13.0159 16.1985C11.588 14.2468 10.6527 11.6568 10.6527 8.23933H11.6527C11.6527 11.4628 12.5308 13.8418 13.823 15.6081C15.1191 17.3797 16.8546 18.5653 18.6119 19.3584C20.3702 20.152 22.1352 20.5456 23.4654 20.7399C24.1292 20.8369 24.6814 20.8839 25.0659 20.9065C25.258 20.9179 25.408 20.9231 25.5089 20.9255C25.5593 20.9267 25.5974 20.9273 25.6223 20.9275L25.6497 20.9276L25.6557 20.9276L25.6568 20.9276C25.6567 20.9276 25.6566 20.9276 25.6598 21.4276C25.663 21.9276 25.6627 21.9276 25.6624 21.9276L25.6586 21.9276L25.6489 21.9276L25.614 21.9274C25.584 21.9272 25.5407 21.9266 25.4848 21.9252C25.3732 21.9226 25.2115 21.9169 25.007 21.9048C24.5982 21.8807 24.017 21.8312 23.3208 21.7294C21.9308 21.5263 20.0691 21.1132 18.2006 20.2699C16.3312 19.4262 14.4398 18.1448 13.0159 16.1985Z" fill="black"/>
</svg>
