<svg width="32" height="32" viewBox="0 0 32 32" fill="none" xmlns="http://www.w3.org/2000/svg">
<path d="M16.2295 16.9624H11.7165C11.3153 16.9624 10.9142 17.2632 10.9142 17.7647V24.9855C10.9142 25.3867 11.2151 25.7878 11.7165 25.7878H15.9287C17.3327 25.7878 18.3356 25.3867 19.1379 24.6847C19.9402 23.8823 20.3414 22.8794 20.3414 21.5757C20.3414 18.567 18.8371 16.9624 16.2295 16.9624ZM18.135 23.3809C17.6336 23.8823 16.9316 24.0829 15.9287 24.0829H12.4185V18.3664H16.1292C17.9345 18.3664 18.8371 19.269 18.8371 21.2748C18.8371 22.2777 18.6365 22.8794 18.135 23.3809Z" fill="black"/>
<path d="M24.0521 17.2632C23.5507 16.5612 22.9489 15.9595 22.2469 15.5583C22.8486 15.0569 23.3501 14.5554 23.7513 13.8534C24.4533 12.7502 24.7541 11.4464 24.7541 10.0424C24.7541 7.43485 23.9518 5.42906 22.2469 4.02501C20.6423 2.72124 18.2353 2.01922 15.1263 2.01922H6.80232C6.30087 1.91893 6 2.21979 6 2.72124V29.298C6 29.6991 6.30087 30 6.80232 30H16.029C18.9374 30 21.244 29.1977 22.8486 27.7936C24.4533 26.2893 25.2556 24.1832 25.2556 21.4754C25.2556 19.7705 24.8544 18.3664 24.0521 17.2632ZM21.8457 26.6904C20.542 27.8939 18.5362 28.4957 16.029 28.4957H7.50434V3.42327H15.1263C17.8342 3.42327 19.9402 4.02501 21.244 5.12819C22.5478 6.23138 23.2498 7.83601 23.2498 9.94209C23.2498 11.1456 22.9489 12.1485 22.4475 12.9508C21.946 13.8534 21.244 14.4551 20.2411 14.8563C19.9402 14.9566 19.7397 15.2574 19.7397 15.5583C19.7397 15.8592 19.9402 16.16 20.2411 16.2603C21.3443 16.5612 22.1466 17.1629 22.7484 18.0655C23.3501 18.9682 23.651 20.0713 23.651 21.4754C23.7513 23.782 23.1495 25.487 21.8457 26.6904Z" fill="black"/>
<path d="M11.7165 14.5554H15.4272C19.3385 14.4551 19.9402 11.9479 19.9402 10.5438C19.9402 9.13977 19.5391 8.03659 18.7368 7.33456C17.9345 6.73282 16.8313 6.33167 15.2266 6.33167H11.7165C11.3153 6.33167 10.9142 6.63253 10.9142 7.13398V13.8534C10.9142 14.2545 11.2151 14.5554 11.7165 14.5554ZM12.4185 7.83601H15.1263C16.3298 7.83601 17.1321 8.03659 17.6336 8.43775C18.0347 8.8389 18.3356 9.54093 18.3356 10.4435C18.3356 11.647 18.0347 12.9508 15.3269 12.9508H12.4185V7.83601Z" fill="black"/>
</svg>
