<svg width="32" height="32" viewBox="0 0 32 32" fill="none" xmlns="http://www.w3.org/2000/svg">
<path fill-rule="evenodd" clip-rule="evenodd" d="M28.7273 23.5923C28.7273 23.6676 28.7171 23.7404 28.705 23.8125L20.8472 16L28.705 8.18755C28.7171 8.25968 28.7273 8.33244 28.7273 8.40773V23.5923ZM27.4545 24.8577H4.54546C4.39655 24.8577 4.25464 24.8273 4.12164 24.7805L12.0526 16.8946L14.2373 19.0673C14.7247 19.5513 15.3624 19.7936 16 19.7936C16.6383 19.7936 17.2759 19.5513 17.7621 19.0673L19.9474 16.8946L27.8796 24.7805C27.7454 24.8273 27.6041 24.8577 27.4545 24.8577ZM3.27273 23.5923V8.40773C3.27273 8.33244 3.28291 8.25968 3.295 8.18755L11.1528 16L3.295 23.8125C3.28291 23.7404 3.27273 23.6676 3.27273 23.5923ZM4.54546 7.14234H27.4545C27.6041 7.14234 27.7454 7.17271 27.879 7.22016L16.8623 18.1727C16.6319 18.4017 16.3258 18.5283 16 18.5283C15.6742 18.5283 15.3681 18.4017 15.1371 18.1727L4.12164 7.22016C4.25464 7.17271 4.39655 7.14234 4.54546 7.14234ZM27.4545 5.87695H4.54545C3.13973 5.87695 2 7.01011 2 8.40772V23.5923C2 24.99 3.13973 26.1231 4.54545 26.1231H27.4545C28.8603 26.1231 30 24.99 30 23.5923V8.40772C30 7.01011 28.8603 5.87695 27.4545 5.87695Z" fill="black"/>
</svg>
