<svg width="32" height="32" viewBox="0 0 32 32" fill="none" xmlns="http://www.w3.org/2000/svg">
<path fill-rule="evenodd" clip-rule="evenodd" d="M26.5826 8.9591V4.40162C26.5826 3.89974 26.3274 3.44858 25.8998 3.19482C25.4705 2.94006 24.9542 2.9348 24.5188 3.18115C20.3613 5.53325 15.8386 6.90686 11.0764 7.26407C11.0399 7.26678 6.73572 7.28582 6.73572 7.28582C5.65471 7.28582 4.76123 8.1114 4.63758 9.17182H3.7541C2.78695 9.17182 2 9.9678 2 10.9462V14.8447C2 15.8232 2.78695 16.6192 3.7541 16.6192H4.63747C4.7265 17.3824 5.21409 18.0234 5.88352 18.3231L9.02723 27.0999C9.22373 27.6462 9.74184 28.0133 10.3167 28.0133H13.4714C13.9186 28.0133 14.3388 27.7921 14.5953 27.4215C14.8518 27.0509 14.9137 26.5758 14.761 26.1513L12.06 18.6143C16.4614 19.0769 20.6481 20.4179 24.5188 22.6077C24.7323 22.7285 24.9654 22.7888 25.198 22.7888C25.4396 22.7887 25.6809 22.7238 25.8996 22.594C26.3272 22.3402 26.5826 21.8891 26.5826 21.3871V16.8296C28.5076 16.5773 30 14.9094 30 12.8944C30 10.8793 28.5076 9.21132 26.5826 8.9591ZM4.62232 15.2506H3.7541C3.53278 15.2506 3.3528 15.0685 3.3528 14.8447V10.9462C3.3528 10.7225 3.53278 10.5403 3.7541 10.5403H4.62232V15.2506ZM6.42586 17.0692C6.16063 16.949 5.97513 16.6798 5.97513 16.3673V9.4236H5.97518C5.97518 8.99944 6.31638 8.65434 6.73566 8.65434H10.4179V17.1366C10.4179 17.1366 6.70356 17.1352 6.68754 17.1342C6.55186 17.1183 6.52331 17.1112 6.42586 17.0692ZM13.4894 26.6184C13.4915 26.624 13.493 26.6279 13.4871 26.6363C13.4814 26.6446 13.4771 26.6446 13.4714 26.6446H10.3166C10.3086 26.6446 10.3012 26.6395 10.2987 26.6328L7.38754 18.5051H10.5819L13.4894 26.6184ZM25.2298 21.3871C25.2298 21.397 25.2298 21.4049 25.2152 21.4136C25.1978 21.4238 25.1874 21.418 25.1791 21.4133C21.021 19.061 16.5129 17.6489 11.7707 17.211V8.57843C16.5132 8.13988 21.0214 6.72766 25.179 4.37556C25.1875 4.37086 25.1981 4.36505 25.2152 4.37523C25.2298 4.38392 25.2298 4.39172 25.2298 4.40162V21.3871ZM26.5826 15.4443V10.3444C27.7586 10.583 28.6472 11.6356 28.6472 12.8943C28.6472 14.1531 27.7585 15.2057 26.5826 15.4443Z" fill="black"/>
</svg>
