<svg width="32" height="32" viewBox="0 0 32 32" fill="none" xmlns="http://www.w3.org/2000/svg">
<path d="M29.1032 15.153H2.79715C2.29893 15.153 2 15.5516 2 15.9502C2 16.3488 2.29893 16.7473 2.79715 16.7473H29.2028C29.6014 16.7473 30 16.4484 30 15.9502C30 15.452 29.6014 15.153 29.1032 15.153Z" fill="black"/>
<path d="M2.79715 3.49466H29.2028C29.6014 3.49466 30 3.19573 30 2.69751C30 2.19929 29.6014 2 29.1032 2H2.79715C2.29893 2 2 2.29893 2 2.79715C2 3.29537 2.29893 3.49466 2.79715 3.49466Z" fill="black"/>
<path d="M29.1032 28.4057H2.79715C2.39858 28.4057 2 28.7046 2 29.2028C2 29.7011 2.29893 29.9004 2.79715 29.9004H29.2028C29.6014 29.9004 30 29.6014 30 29.1032C30 28.605 29.6014 28.4057 29.1032 28.4057Z" fill="black"/>
<path d="M2.79715 23.3238H19.0391C19.4377 23.3238 19.8363 23.0249 19.8363 22.5267C19.8363 22.0285 19.5374 21.7295 19.0391 21.7295H2.79715C2.39858 21.7295 2 22.0285 2 22.5267C2 23.0249 2.29893 23.3238 2.79715 23.3238Z" fill="black"/>
<path d="M2.79715 10.0712H19.0391C19.4377 10.0712 19.8363 9.77224 19.8363 9.27402C19.8363 8.7758 19.5374 8.47687 19.0391 8.47687H2.79715C2.29893 8.57651 2 8.97509 2 9.37367C2 9.77224 2.29893 10.0712 2.79715 10.0712Z" fill="black"/>
</svg>
