<svg width="32" height="32" viewBox="0 0 32 32" fill="none" xmlns="http://www.w3.org/2000/svg">
<path fill-rule="evenodd" clip-rule="evenodd" d="M4.75246 3.50134C4.06606 3.50134 3.50134 4.06606 3.50134 4.75246V26.7721C3.50134 27.4585 4.06606 28.0232 4.75246 28.0232H8.75603C9.17062 28.0232 9.5067 28.3593 9.5067 28.7739C9.5067 29.1885 9.17062 29.5246 8.75603 29.5246H4.75246C3.23689 29.5246 2 28.2877 2 26.7721V4.75246C2 3.23689 3.23689 2 4.75246 2H20.7668C22.2823 2 23.5192 3.23689 23.5192 4.75246V9.25648C23.5192 9.67106 23.1831 10.0071 22.7685 10.0071C22.354 10.0071 22.0179 9.67106 22.0179 9.25648V4.75246C22.0179 4.06606 21.4532 3.50134 20.7668 3.50134H4.75246ZM6.00357 9.25648C6.00357 8.8419 6.33966 8.50581 6.75425 8.50581H18.765C19.1796 8.50581 19.5156 8.8419 19.5156 9.25648C19.5156 9.67106 19.1796 10.0071 18.765 10.0071H6.75425C6.33966 10.0071 6.00357 9.67106 6.00357 9.25648ZM28.0429 13.7909C27.4353 13.1832 26.3091 13.1832 25.7015 13.7909L25.2314 14.2609L27.5728 16.6024L28.0429 16.1323C28.6506 15.5246 28.6506 14.3985 28.0429 13.7909ZM26.5112 17.664L24.1698 15.3226L15.7284 23.7639L18.1082 26.067L26.5112 17.664ZM16.6814 26.7755L14.2468 27.587L15.0451 25.192L16.6814 26.7755ZM24.6399 12.7293C25.8338 11.5353 27.9106 11.5353 29.1045 12.7293C30.2985 13.9232 30.2985 15.9999 29.1045 17.1939L18.9636 27.3348C18.7348 27.6885 18.3692 27.8753 18.0103 27.915L13.2973 29.4861C13.0275 29.576 12.7301 29.5058 12.5291 29.3047C12.328 29.1037 12.2578 28.8063 12.3477 28.5365L13.9492 23.7322C13.9604 23.6985 13.974 23.6657 13.9899 23.6339L13.9942 23.6254C14.0412 23.5313 14.0992 23.4153 14.1597 23.3094C14.2169 23.2094 14.3071 23.0621 14.4308 22.9384L24.6399 12.7293ZM6.00357 15.7623C6.00357 15.3477 6.33966 15.0116 6.75425 15.0116H16.8633C17.2779 15.0116 17.6139 15.3477 17.6139 15.7623C17.6139 16.1769 17.2779 16.513 16.8633 16.513H6.75425C6.33966 16.513 6.00357 16.1769 6.00357 15.7623ZM6.00357 22.2681C6.00357 21.8535 6.33966 21.5174 6.75425 21.5174H10.6577C11.0723 21.5174 11.4084 21.8535 11.4084 22.2681C11.4084 22.6827 11.0723 23.0188 10.6577 23.0188H6.75425C6.33966 23.0188 6.00357 22.6827 6.00357 22.2681Z" fill="black"/>
</svg>
