<svg width="32" height="32" viewBox="0 0 32 32" fill="none" xmlns="http://www.w3.org/2000/svg">
<path d="M21 2H10.8C8.7 2 7 3.7 7 5.8V8.1C7 8.4 7.2 8.8 7.6 8.8L12.6 10C12.9 10.1 13.3 9.9 13.4 9.6C13.9 8.7 14.9 8.1 15.9 8.1C16.8 8.1 17.6 8.5 18.1 9.2C18.6 9.9 18.8 10.8 18.6 11.6C18.4 12.6 17.6 13.4 16.6 13.7C15.2 14 13.9 13.4 13.3 12.1C13.2 11.8 12.8 11.6 12.5 11.7L7.6 12.7C7.2 12.8 7 13.1 7 13.4V26.2C7 28.3 8.7 30 10.8 30H21C23.1 30 24.8 28.3 24.8 26.2V5.8C24.8 3.7 23.1 2 21 2ZM23.3 26.2C23.3 27.5 22.3 28.5 21 28.5H10.8C9.5 28.5 8.5 27.5 8.5 26.2V14L12.2 13.2C13.2 14.8 15.1 15.6 16.9 15.1C18.5 14.7 19.7 13.5 20.1 11.9C20.4 10.6 20.1 9.2 19.3 8.2C18.5 7.2 17.2 6.6 15.9 6.6C14.5 6.6 13.3 7.3 12.4 8.3L8.5 7.5V5.8C8.5 4.5 9.5 3.5 10.8 3.5H21C22.3 3.5 23.3 4.5 23.3 5.8V26.2Z" fill="black"/>
<path d="M19 18.9C18.2 18.1 17.1 17.6 15.9 17.6C13.5 17.6 11.6 19.5 11.6 21.9C11.6 23.1 12.1 24.2 12.9 24.9C13.7 25.7 14.8 26.2 15.9 26.2C18.3 26.2 20.2 24.3 20.2 21.9C20.2 20.7 19.7 19.7 19 18.9ZM15.9 19.1C16.4 19.1 16.9 19.2 17.3 19.5L13.5 23.3C13.3 22.9 13.1 22.4 13.1 21.9C13.1 20.4 14.4 19.1 15.9 19.1ZM15.9 24.7C15.4 24.7 14.9 24.6 14.5 24.3L18.3 20.5C18.5 20.9 18.7 21.4 18.7 21.9C18.7 23.5 17.5 24.7 15.9 24.7Z" fill="black"/>
</svg>
