<svg width="32" height="32" viewBox="0 0 32 32" fill="none" xmlns="http://www.w3.org/2000/svg">
<path d="M15.1569 24.8307H12.803V17.1463H4.35383V24.8307H2V7.4305H4.35383V15.2936H12.803V7.4305H15.1568L15.1569 24.8307Z" fill="black"/>
<path d="M30 24.8307H18.7188V23.2065L24.419 16.8835C25.2051 16.056 25.9001 15.1464 26.4921 14.1705C26.8437 13.5423 27.0307 12.8353 27.0357 12.1154C27.0597 11.3164 26.7902 10.5362 26.2782 9.92231C25.7791 9.33196 25.0365 9.00365 24.2639 9.03185C23.2862 8.94873 22.3192 9.28558 21.6048 9.95822C20.9972 10.6828 20.691 11.6131 20.7494 12.557H18.4918L18.4673 12.4851C18.3955 11.0697 18.9402 9.69262 19.9609 8.70941C21.1297 7.63913 22.6817 7.08716 24.2638 7.17908C25.6427 7.11089 26.9903 7.60476 27.9987 8.5478C28.9283 9.46399 29.433 10.7268 29.3911 12.0313C29.3737 13.0401 29.0825 14.0252 28.5488 14.8814C27.8716 15.9832 27.0804 17.0107 26.1884 17.947L21.6112 22.9184L21.6341 22.978H30V24.8307Z" fill="black"/>
</svg>
