<svg width="32" height="32" viewBox="0 0 32 32" fill="none" xmlns="http://www.w3.org/2000/svg">
<path d="M3.525 25.3H3.825L5.325 23.8C7.825 20.8 9.225 16.2 9.225 10.6C9.225 7.1 11.325 3.4 15.925 3.4C19.025 3.4 20.925 5.1 21.925 7.2L23.025 6.2C21.725 3.8 19.325 2 15.925 2C10.525 2 7.725 6.4 7.725 10.7C7.725 16.7 6.025 21.4 3.025 24C2.825 24.2 2.725 24.5 2.825 24.8C2.925 25.1 3.225 25.3 3.525 25.3Z" fill="black"/>
<path d="M24.125 10.8L22.625 12.3C22.825 17.2 24.125 21.2 26.425 23.9H11.025L9.525 25.4H11.625C12.025 27.4 13.725 29 15.925 29C18.125 29 19.825 27.4 20.225 25.4H28.325C28.625 25.4 28.925 25.2 29.025 24.9C29.125 24.6 29.025 24.3 28.825 24.1C25.725 21.5 24.125 16.7 24.125 10.8ZM15.925 27.4C14.625 27.4 13.525 26.5 13.225 25.3H18.725C18.325 26.5 17.225 27.4 15.925 27.4Z" fill="black"/>
<path d="M29.525 2.5C29.225 2.2 28.725 2.2 28.425 2.5L2.225 28.7C1.925 29 1.925 29.5 2.225 29.8C2.425 29.9 2.625 30 2.825 30C3.025 30 3.225 29.9 3.325 29.8L29.525 3.6C29.825 3.3 29.825 2.8 29.525 2.5Z" fill="black"/>
</svg>
