<svg width="32" height="32" viewBox="0 0 32 32" fill="none" xmlns="http://www.w3.org/2000/svg">
<path d="M29.2623 27.5584H28.5606V15.6311C28.5606 15.2302 28.26 14.9295 27.859 14.9295H22.7474C22.3465 14.9295 22.0458 15.2302 22.0458 15.6311V27.5584H19.3396V13.5263C19.3396 13.1254 19.0389 12.8247 18.638 12.8247H13.5263C13.1254 12.8247 12.8247 13.1254 12.8247 13.5263V27.5584H10.0183V20.7428C10.0183 20.3419 9.71762 20.0412 9.31671 20.0412H4.20503C3.80412 20.0412 3.50343 20.3419 3.50343 20.7428V27.5584H2.7016C2.30069 27.5584 2 27.859 2 28.26C2 28.6609 2.30069 29.0618 2.7016 29.0618H29.2623C29.6632 29.0618 29.9639 28.7611 29.9639 28.3602C29.9639 27.9593 29.7634 27.5584 29.2623 27.5584ZM4.90664 27.5584V21.4444H8.51488V27.5584H4.90664ZM14.2279 27.5584V14.3281H17.8362V27.5584H14.2279ZM23.5492 27.5584V16.3327H27.1574V27.5584H23.5492Z" fill="black"/>
<path d="M3.10252 9.31671C3.20275 9.31671 3.30298 9.31671 3.4032 9.21648L8.31442 7.11167C8.91579 7.81327 9.81785 8.31442 10.8201 8.31442C12.2233 8.31442 13.4261 7.41236 13.827 6.10938L18.1368 7.71304C18.4375 9.21648 19.7405 10.319 21.2439 10.319C22.8476 10.319 24.1506 9.11625 24.351 7.61282L29.5629 5.20732C29.9639 5.00687 30.0641 4.60595 29.9639 4.20503C29.7634 3.80412 29.3625 3.70389 28.9616 3.80412L24.2508 6.00915C23.8499 4.80641 22.6471 3.90435 21.2439 3.90435C19.8407 3.90435 18.638 4.80641 18.2371 6.10938L13.9272 4.50572C13.6265 3.10252 12.3236 2 10.8201 2C9.01602 2 7.61282 3.4032 7.61282 5.20732C7.61282 5.40778 7.61282 5.60824 7.71304 5.8087L2.80183 7.9135C2.40092 8.01373 2.20046 8.51488 2.40092 8.91579C2.50114 9.11625 2.80183 9.31671 3.10252 9.31671ZM21.2439 5.50801C22.146 5.50801 22.9478 6.30984 22.9478 7.2119C22.9478 8.11396 22.146 8.91579 21.2439 8.91579C20.3419 8.91579 19.5401 8.11396 19.5401 7.2119C19.5401 6.30984 20.3419 5.50801 21.2439 5.50801ZM10.8201 3.50343C11.7222 3.50343 12.524 4.30526 12.524 5.20732C12.524 6.10938 11.7222 6.91121 10.8201 6.91121C9.91808 6.91121 9.11625 6.10938 9.11625 5.20732C9.11625 4.30526 9.81785 3.50343 10.8201 3.50343Z" fill="black"/>
</svg>
