<svg width="32" height="32" viewBox="0 0 32 32" fill="none" xmlns="http://www.w3.org/2000/svg">
<path fill-rule="evenodd" clip-rule="evenodd" d="M20.6675 16.041C20.6805 13.5234 18.5257 11.3375 16.0218 11.3254C13.5268 11.3134 11.3426 13.4769 11.3333 15.9687C11.3238 18.4931 13.4687 20.6559 15.9889 20.6641C18.4804 20.6722 20.6547 18.5227 20.6675 16.041ZM10.0606 15.964C10.0725 12.7685 12.8298 10.0373 16.0279 10.0527C19.2361 10.0682 21.9568 12.8281 21.9402 16.0475C21.9238 19.2321 19.1773 21.9472 15.9848 21.9368C12.7611 21.9264 10.0485 19.1911 10.0606 15.964ZM28.7857 13.0387C29.424 13.1277 29.7822 13.4994 29.8702 14.1368C30.0415 15.3789 30.0416 16.621 29.8701 17.8605C29.7812 18.5024 29.3943 18.8857 28.7565 18.9697C28.5424 18.9979 28.357 19.0226 27.9933 19.0712C27.0638 19.1956 26.6144 19.2545 26.1273 19.3141C25.9178 19.8476 25.7132 20.3431 25.506 20.8164C25.8797 21.2951 26.2167 21.7336 26.8931 22.6177C26.9933 22.7486 26.9933 22.7486 27.0869 22.8709C27.5347 23.4559 27.5322 23.9777 27.0798 24.559C26.3409 25.5084 25.4968 26.3517 24.5484 27.0871C23.9898 27.5204 23.4461 27.5194 22.8818 27.0875C22.7799 27.0095 22.7799 27.0095 22.6778 26.9315C21.7592 26.2287 21.3163 25.888 20.8235 25.5021C20.3309 25.7243 19.8271 25.9332 19.314 26.1284C19.2713 26.477 19.2289 26.8057 19.1462 27.4364C19.0652 28.0547 19.0305 28.3226 18.989 28.6569C18.8957 29.4083 18.515 29.7978 17.7643 29.8908C16.593 30.0359 15.4192 30.0363 14.2437 29.8925C13.505 29.8022 13.1153 29.4207 13.0215 28.6864C12.9942 28.4723 12.972 28.3003 12.9219 27.9151C12.8078 27.0367 12.7547 26.6187 12.6982 26.1378C12.1908 25.9576 11.6825 25.7463 11.1761 25.5064C10.7775 25.8224 10.4252 26.0941 9.6895 26.6568C9.41582 26.8661 9.29477 26.9588 9.14487 27.0739C8.55099 27.5303 8.01826 27.5327 7.43268 27.0752C6.48818 26.3372 5.65125 25.5007 4.92394 24.5648C4.47217 23.9836 4.46965 23.4587 4.91644 22.8764C5.02728 22.7319 5.11743 22.6143 5.3146 22.3569C5.89201 21.6029 6.1809 21.2273 6.49527 20.8241C6.2958 20.3685 6.09772 19.8883 5.86983 19.3132C5.39444 19.2554 4.95215 19.1975 4.07582 19.0803C3.66414 19.0252 3.47276 18.9997 3.24864 18.9703C2.61038 18.8866 2.21666 18.5064 2.12908 17.8646C1.95772 16.6081 1.95824 15.3568 2.13286 14.114C2.21994 13.494 2.58742 13.1264 3.21015 13.04C4.37274 12.8785 5.10688 12.7811 5.86155 12.6919C6.03283 12.2323 6.2259 11.7746 6.49621 11.1742C6.16576 10.7493 5.86185 10.3548 5.25594 9.56599C5.09619 9.35803 5.0257 9.26628 4.93748 9.15154C4.46545 8.53765 4.46321 8.02865 4.93521 7.4202C5.66733 6.47663 6.50632 5.63982 7.45109 4.91115C8.0285 4.46582 8.56491 4.47135 9.14025 4.91733C9.36687 5.09298 9.55017 5.23421 9.95818 5.54794C10.5566 6.00805 10.8592 6.24176 11.179 6.49208C11.658 6.28149 12.1582 6.07514 12.6911 5.86716C12.7283 5.57238 12.7669 5.27711 12.8392 4.73008C12.9289 4.05051 12.9683 3.7478 13.0149 3.37143C13.1135 2.57711 13.4659 2.21698 14.2606 2.1121C15.4325 1.95736 16.6311 1.96448 17.8687 2.12315C18.5197 2.20658 18.9011 2.63612 18.9864 3.30737C19.0271 3.62764 19.0607 3.88567 19.1364 4.46082C19.2266 5.14667 19.2727 5.50135 19.3186 5.86975C19.8376 6.06956 20.3391 6.27748 20.8245 6.49486C21.2595 6.15493 21.6529 5.85243 22.4562 5.23771C22.6747 5.07055 22.7673 4.99962 22.8841 4.91019C23.4623 4.46711 24.0009 4.47759 24.5726 4.92665C25.5372 5.68427 26.3786 6.52763 27.0952 7.46516C27.1726 7.56639 27.2268 7.66177 27.2953 7.80161C27.3448 7.90429 27.3643 7.94415 27.3859 7.98466L27.5452 8.28296L27.3871 8.58189C27.3744 8.6058 27.3613 8.63193 27.3451 8.66531C27.3366 8.68288 27.3225 8.7123 27.2973 8.76493C27.2245 8.9156 27.1689 9.01488 27.0883 9.12153C26.5539 9.82867 26.028 10.5131 25.507 11.1792C25.7512 11.7162 25.9572 12.2097 26.1349 12.6905C26.9426 12.7881 27.7871 12.8995 28.7857 13.0387ZM8.36937 26.0648C8.52031 25.9488 8.64187 25.8557 8.91232 25.6489C9.69131 25.0531 10.036 24.7869 10.459 24.4508C10.828 24.1576 11.2127 24.1124 11.6428 24.319C12.1557 24.5652 12.6693 24.7792 13.1797 24.958C13.6371 25.1183 13.8965 25.4247 13.9523 25.9042C14.0119 26.416 14.0638 26.8262 14.1839 27.75C14.2342 28.1372 14.2565 28.3099 14.284 28.5252C14.3035 28.6777 14.2333 28.6091 14.3982 28.6292C15.4706 28.7604 16.54 28.76 17.6078 28.6277C17.7737 28.6072 17.7038 28.6787 17.726 28.5001C17.7679 28.162 17.8028 27.8922 17.8822 27.2864C17.9763 26.5684 18.0181 26.2437 18.066 25.8481C18.1182 25.4177 18.3539 25.13 18.76 24.9773C19.3265 24.7644 19.8806 24.5343 20.4199 24.2875C20.8095 24.1093 21.1663 24.1533 21.4985 24.4141C22.0334 24.8339 22.4695 25.1696 23.4383 25.9108C23.5532 25.9987 23.5532 25.9987 23.6553 26.0768C23.7628 26.1591 23.6685 26.1589 23.7685 26.0814C24.6328 25.4111 25.4016 24.6431 26.0754 23.7773C26.1399 23.6944 26.1484 23.6763 26.1482 23.7109C26.1481 23.7456 26.1399 23.7276 26.0762 23.6444C25.9825 23.522 25.9825 23.522 25.8889 23.3997C25.1455 22.4279 24.8135 21.9965 24.3975 21.4649C24.1447 21.1418 24.1218 20.7995 24.2829 20.4358C24.5204 19.8996 24.7542 19.3331 24.9965 18.7112C25.141 18.3404 25.4057 18.1194 25.8112 18.0705C26.3608 18.0041 26.8013 17.9466 27.7924 17.814C28.1891 17.761 28.3751 17.7362 28.5903 17.7079C28.7649 16.5622 28.7648 15.4374 28.6094 14.3108C27.5788 14.1555 26.7161 14.042 25.8896 13.9429C25.4376 13.8888 25.1332 13.6602 24.9738 13.221C24.7888 12.711 24.5677 12.1828 24.297 11.5935C24.1192 11.207 24.1504 10.8468 24.4146 10.5099C24.9605 9.81353 25.5118 9.0966 26.0729 8.35413C26.0838 8.33969 26.0964 8.31909 26.1138 8.28615C25.434 7.38762 24.6685 6.62032 23.7865 5.92755C23.7073 5.86538 23.6872 5.85599 23.7154 5.85654C23.7468 5.85715 23.7328 5.86322 23.6582 5.92044C23.5412 6.01009 23.4482 6.08122 23.2385 6.24174C22.3633 6.91139 21.9767 7.20898 21.4997 7.58251C21.1645 7.84521 20.8035 7.88246 20.4154 7.70649C19.8753 7.46159 19.3128 7.22864 18.7258 7.0057C18.3518 6.86362 18.1269 6.60402 18.0769 6.19855C18.0233 5.76334 17.9781 5.41472 17.8749 4.62976C17.7986 4.04975 17.7648 3.79046 17.7238 3.46774C17.7081 3.34386 17.75 3.39108 17.7069 3.38555C16.5752 3.24046 15.4866 3.23399 14.4272 3.37388C14.374 3.3809 14.3316 3.38809 14.2989 3.39514C14.2919 3.42884 14.2848 3.47279 14.278 3.52809C14.2308 3.90886 14.1911 4.2138 14.1012 4.89437C14.0142 5.55311 13.9763 5.8446 13.931 6.20837C13.8818 6.6036 13.6575 6.85773 13.2983 6.99666C12.6827 7.23461 12.1144 7.46881 11.5753 7.70842C11.201 7.87483 10.8495 7.85137 10.518 7.59113C10.1508 7.30278 9.85385 7.0732 9.18646 6.56002C8.77307 6.24215 8.5889 6.10025 8.36054 5.92325C8.28081 5.86145 8.26112 5.85243 8.2897 5.85273C8.32049 5.85304 8.30486 5.85995 8.22836 5.91895C7.36908 6.5817 6.60678 7.34201 5.94079 8.20036C5.91099 8.23878 5.89135 8.26547 5.8785 8.28129C5.89511 8.30675 5.91753 8.33816 5.94646 8.37578C6.03484 8.49074 6.10545 8.58264 6.26428 8.78941C6.93669 9.66475 7.2359 10.0529 7.61161 10.5351C7.8534 10.8452 7.88756 11.1873 7.72517 11.5452C7.41508 12.2289 7.20931 12.714 7.03025 13.2009C6.86804 13.642 6.57332 13.8899 6.10416 13.9449C5.32817 14.0357 4.59073 14.1332 3.392 14.2997C3.23495 15.4232 3.23487 16.5542 3.39013 17.6925C3.63971 17.738 3.83185 17.7636 4.21829 17.8153C5.2194 17.9492 5.65257 18.0056 6.19288 18.0701C6.60965 18.1199 6.8575 18.3485 7.00207 18.7153C7.26889 19.392 7.49115 19.9308 7.71759 20.4417C7.87861 20.805 7.85873 21.1464 7.60513 21.4707C7.24832 21.9271 6.96417 22.2962 6.32969 23.1246C6.12761 23.3885 6.03729 23.5064 5.92614 23.6512C5.86383 23.7324 5.8561 23.7495 5.85594 23.7154C5.85578 23.6822 5.86447 23.701 5.92882 23.7838C6.59142 24.6363 7.35392 25.3985 8.21628 26.0723C8.24883 26.0978 8.27123 26.1144 8.28441 26.1252C8.30733 26.1106 8.33563 26.0907 8.36937 26.0648Z" fill="black"/>
</svg>
