<svg width="32" height="32" viewBox="0 0 32 32" fill="none" xmlns="http://www.w3.org/2000/svg">
<path fill-rule="evenodd" clip-rule="evenodd" d="M14.05 3C14.4642 3 14.8 3.33579 14.8 3.75V9.25C14.8 9.66421 14.4642 10 14.05 10C13.6358 10 13.3 9.66421 13.3 9.25V3.75C13.3 3.33579 13.6358 3 14.05 3ZM8.16915 3.85457C8.55323 3.69946 8.99032 3.88508 9.14543 4.26915L11.2454 9.46915C11.4005 9.85323 11.2149 10.2903 10.8308 10.4454C10.4468 10.6005 10.0097 10.4149 9.85457 10.0308L7.75457 4.83085C7.59946 4.44677 7.78508 4.00968 8.16915 3.85457ZM19.8238 3.95177C20.2094 4.10299 20.3995 4.53819 20.2482 4.92382L18.2482 10.0238C18.097 10.4094 17.6618 10.5995 17.2762 10.4482C16.8906 10.297 16.7005 9.86181 16.8518 9.47618L18.8518 4.37618C19.003 3.99056 19.4382 3.80055 19.8238 3.95177ZM2 20.65C2 15.942 5.82962 12 10.65 12H29.25C29.6642 12 30 12.3358 30 12.75V18.55C30 18.8911 29.7698 19.1892 29.4399 19.2756L19.2296 21.9474C18.5649 26.1662 14.9623 29.3 10.65 29.3C5.94198 29.3 2 25.4704 2 20.65ZM10.65 13.5C6.67038 13.5 3.5 16.758 3.5 20.65C3.5 24.6296 6.75802 27.8 10.65 27.8C14.3608 27.8 17.4407 24.9962 17.8035 21.2772C17.834 20.9645 18.0562 20.704 18.3601 20.6244L28.5 17.971V13.5H10.65ZM10.65 17.5C8.9103 17.5 7.5 18.9103 7.5 20.65C7.5 22.3897 8.9103 23.8 10.65 23.8C12.3897 23.8 13.8 22.3897 13.8 20.65C13.8 18.9103 12.3897 17.5 10.65 17.5ZM6 20.65C6 18.0819 8.08187 16 10.65 16C13.2181 16 15.3 18.0819 15.3 20.65C15.3 23.2181 13.2181 25.3 10.65 25.3C8.08188 25.3 6 23.2181 6 20.65Z" fill="black"/>
</svg>
