<svg width="32" height="32" viewBox="0 0 32 32" fill="none" xmlns="http://www.w3.org/2000/svg">
<path fill-rule="evenodd" clip-rule="evenodd" d="M16.7341 19.6841C17.2859 18.9402 18.132 18.4567 19.1253 18.4567C20.7807 18.4567 22.1419 19.8329 22.1419 21.4695C22.1419 23.106 20.7807 24.4822 19.1621 24.4822C17.5434 24.4822 16.1823 23.1432 16.1823 21.4695C16.1823 21.3207 16.1823 21.1347 16.2191 20.9859L12.246 18.7171C11.731 19.1262 11.0688 19.3866 10.3699 19.3866C8.75123 19.3866 7.3901 18.0104 7.3901 16.3738C7.3901 14.7372 8.71445 13.361 10.3699 13.361C10.8849 13.361 11.3999 13.5098 11.8414 13.7702L16.2559 11.5013C16.1823 11.2409 16.1455 11.0178 16.1455 10.7574C16.1455 9.12085 17.5067 7.74464 19.1253 7.74464C20.7439 7.74464 22.1051 9.12085 22.1051 10.7574C22.1051 12.394 20.7807 13.7702 19.1253 13.7702C18.2424 13.7702 17.4331 13.361 16.8813 12.7287L12.8714 14.7744C13.1657 15.258 13.3129 15.7787 13.3129 16.3738C13.3129 16.7829 13.2025 17.1921 13.0554 17.564L16.7341 19.6841ZM21.0071 10.7233C21.0071 9.69412 20.1923 8.87934 19.1632 8.87934C18.134 8.87934 17.3192 9.69412 17.3192 10.7233C17.3192 11.7525 18.134 12.5673 19.1632 12.5673C20.1923 12.5673 21.0071 11.7525 21.0071 10.7233ZM10.3688 18.2412C9.33963 18.2412 8.52486 17.4264 8.52486 16.3972C8.52486 15.368 9.33963 14.5532 10.3688 14.5532C11.398 14.5532 12.2128 15.368 12.2128 16.3972C12.2128 17.4264 11.398 18.2412 10.3688 18.2412ZM17.3192 21.5035C17.3192 22.5327 18.134 23.3475 19.1632 23.3475C20.1923 23.3475 21.0071 22.5327 21.0071 21.5035C21.0071 20.4743 20.1923 19.6595 19.1632 19.6595C18.134 19.6595 17.3192 20.4743 17.3192 21.5035Z" fill="black"/>
<path fill-rule="evenodd" clip-rule="evenodd" d="M2 16C2 8.31203 8.2695 2.01416 15.9858 2.01416C23.6738 2.01416 30 8.28366 30 16C30 23.7163 23.7305 29.9858 16.0142 29.9858C13.5745 29.9858 11.1631 29.3617 9.06383 28.1418L8.97872 28.0851L4.6383 29.3333C4.07092 29.5035 3.47518 29.3333 3.07801 28.9361C2.68085 28.5106 2.51064 27.9149 2.68085 27.3759L3.92908 23.0922L3.87234 23.0071C2.65248 20.8794 2 18.4681 2 16ZM9.31915 27.0355C11.305 28.2554 13.6312 28.9079 15.9858 28.9079C23.078 28.9079 28.8652 23.1206 28.8936 16.0284C28.8936 8.90786 23.1064 3.12063 15.9858 3.12063C8.86525 3.12063 3.07801 8.90786 3.07801 16.0284C3.07801 18.4114 3.7305 20.7376 4.97872 22.7518L5.0922 22.9504L3.70213 27.688C3.64539 27.8582 3.70213 28.0568 3.84397 28.1703C3.95745 28.2837 4.15603 28.3405 4.32624 28.2837L9.0922 26.922L9.31915 27.0355Z" fill="black"/>
</svg>
