<svg width="32" height="32" viewBox="0 0 32 32" fill="none" xmlns="http://www.w3.org/2000/svg">
<path d="M2.75 11.5842V5.76344C2.75 4.05735 4.05 2.75269 5.75 2.75269H26.25C27.95 2.75269 29.25 4.05735 29.25 5.76344V11.5842H2.75Z" fill="black"/>
<path fill-rule="evenodd" clip-rule="evenodd" d="M5.75 3.50538C4.46421 3.50538 3.5 4.47305 3.5 5.76344V26.2366C3.5 27.527 4.46421 28.4946 5.75 28.4946H26.15C27.4353 28.4946 28.4137 27.5217 28.5 26.3118V5.76344C28.5 4.47305 27.5358 3.50538 26.25 3.50538H5.75ZM2 5.76344C2 3.64165 3.63579 2 5.75 2H26.25C28.3642 2 30 3.64165 30 5.76344V26.3369C30 26.3526 29.9995 26.3682 29.9985 26.3839C29.8745 28.3753 28.2569 30 26.15 30H5.75C3.63579 30 2 28.3584 2 26.2366V5.76344Z" fill="black"/>
<path fill-rule="evenodd" clip-rule="evenodd" d="M2 11.5842C2 11.1685 2.33579 10.8315 2.75 10.8315H29.15C29.5642 10.8315 29.9 11.1685 29.9 11.5842C29.9 11.9999 29.5642 12.3369 29.15 12.3369H2.75C2.33579 12.3369 2 11.9999 2 11.5842Z" fill="black"/>
<path fill-rule="evenodd" clip-rule="evenodd" d="M2 20.4158C2 20.0001 2.33579 19.6631 2.75 19.6631H29.15C29.5642 19.6631 29.9 20.0001 29.9 20.4158C29.9 20.8315 29.5642 21.1685 29.15 21.1685H2.75C2.33579 21.1685 2 20.8315 2 20.4158Z" fill="black"/>
<path fill-rule="evenodd" clip-rule="evenodd" d="M20.35 10.8315C20.7642 10.8315 21.1 11.1685 21.1 11.5842V29.2473C21.1 29.663 20.7642 30 20.35 30C19.9358 30 19.6 29.663 19.6 29.2473V11.5842C19.6 11.1685 19.9358 10.8315 20.35 10.8315Z" fill="black"/>
<path fill-rule="evenodd" clip-rule="evenodd" d="M11.55 10.8315C11.9642 10.8315 12.3 11.1685 12.3 11.5842V29.2473C12.3 29.663 11.9642 30 11.55 30C11.1358 30 10.8 29.663 10.8 29.2473V11.5842C10.8 11.1685 11.1358 10.8315 11.55 10.8315Z" fill="black"/>
</svg>
