<svg width="32" height="32" viewBox="0 0 32 32" fill="none" xmlns="http://www.w3.org/2000/svg">
<path d="M28.2939 3.80645L28.1936 3.70609C27.0896 2.60215 25.6846 2 24.1792 2C22.6738 2 21.2688 2.60215 20.1649 3.70609L16.853 7.01792C15.7491 8.12186 15.147 9.52688 15.147 11.0323C15.147 11.9355 15.3477 12.7384 15.7491 13.4409L16.853 12.2366C16.7527 11.8351 16.6523 11.4337 16.6523 10.9319C16.6523 9.82796 17.0538 8.72401 17.8566 7.92115L21.1685 4.60932C21.9713 3.80645 22.9749 3.40502 24.1792 3.40502C25.2832 3.40502 26.3871 3.80645 27.19 4.60932L27.2903 4.70968C28.0932 5.51255 28.4946 6.51613 28.4946 7.72043C28.4946 8.92473 28.0932 9.92832 27.2903 10.7312L23.9785 14.043C22.8746 15.147 21.1685 15.5484 19.7634 15.0466L18.5591 16.2509C19.362 16.6523 20.1649 16.7527 20.9677 16.7527C22.4731 16.7527 23.8781 16.2509 24.9821 15.0466L28.2939 11.7348C29.3979 10.6308 30 9.22581 30 7.72043C30 6.31541 29.3979 4.81004 28.2939 3.80645Z" fill="black"/>
<path d="M15.0466 19.7634C15.147 20.1649 15.2473 20.5663 15.2473 21.0681C15.2473 22.172 14.8459 23.276 14.043 24.0789L10.7312 27.3907C9.92832 28.1935 8.92473 28.595 7.72043 28.595C6.61649 28.595 5.51255 28.1935 4.70968 27.3907L4.60932 27.2903C3.80645 26.4875 3.40502 25.4839 3.40502 24.2796C3.40502 23.1756 3.80645 22.0717 4.60932 21.2688L7.92115 17.957C8.72401 17.1541 9.82796 16.7527 10.9319 16.7527C11.3333 16.7527 11.7348 16.853 12.2366 16.9534L13.4409 15.7491C11.3333 14.7455 8.72401 15.147 7.01792 16.853L3.70609 20.1649C2.60215 21.2688 2 22.6738 2 24.1792C2 25.6846 2.60215 27.0896 3.70609 28.1936L3.80645 28.2939C4.91039 29.3979 6.31541 30 7.82079 30C9.32617 30 10.7312 29.3979 11.8351 28.2939L15.147 24.9821C16.2509 23.8781 16.853 22.4731 16.853 20.9677C16.853 20.1649 16.6523 19.2617 16.3513 18.5591L15.0466 19.7634Z" fill="black"/>
<path d="M8.82437 23.1756C8.92473 23.276 9.12545 23.3763 9.32617 23.3763C9.52688 23.3763 9.7276 23.276 9.82796 23.1756L23.0753 9.92832C23.3763 9.62724 23.3763 9.12545 23.0753 8.82437C22.7742 8.5233 22.2724 8.5233 21.9713 8.82437L8.82437 22.172C8.5233 22.3728 8.5233 22.8746 8.82437 23.1756Z" fill="black"/>
</svg>
