<svg width="32" height="32" viewBox="0 0 32 32" fill="none" xmlns="http://www.w3.org/2000/svg">
<path d="M27.8775 3.14865C27.4308 3.18161 26.9872 3.24855 26.5506 3.3489C26.0479 3.43926 25.5664 3.6224 25.1307 3.88895C24.6875 4.28468 24.4161 4.83762 24.3742 5.43027C24.2268 6.37215 24.1619 7.32507 24.18 8.27823L24.2205 18.2623C24.2568 19.4183 23.9889 20.5635 23.4438 21.5835C22.9369 22.5052 22.2273 23.2995 21.3684 23.9066C20.5499 24.4778 19.6403 24.9057 18.6783 25.1719C17.7973 25.4209 16.8874 25.5528 15.972 25.5643C14.7205 25.5898 13.4732 25.4122 12.2785 25.0384C11.2877 24.73 10.364 24.2372 9.55596 23.5861C8.86077 23.0139 8.30002 22.2957 7.91346 21.4825C7.5455 20.7068 7.35349 19.8593 7.35116 19.0007L7.29047 5.42431C7.3005 5.09838 7.23545 4.77452 7.10033 4.47775C6.92359 4.17571 6.66191 3.93233 6.34789 3.77789C6.02001 3.60945 5.66996 3.48824 5.30812 3.41787C4.96681 3.34077 4.62089 3.2857 4.2725 3.25302L4.26846 2.10412L13.8277 2.0627L13.8358 3.2116C13.4525 3.23425 13.0712 3.28426 12.695 3.36126C12.3526 3.42002 12.0147 3.50247 11.6837 3.60803C11.3554 3.70583 11.0873 3.94397 10.9514 4.2584C10.8241 4.57158 10.7622 4.90748 10.7694 5.24548L10.826 17.9217C10.8311 18.5711 10.9016 19.2182 11.0364 19.8534C11.1757 20.5285 11.4509 21.1683 11.8455 21.7335C12.2939 22.3474 12.8836 22.8442 13.5648 23.1818C14.5013 23.5978 15.5228 23.787 16.5462 23.734C17.5704 23.7609 18.588 23.5635 19.5277 23.1555C20.2721 22.8195 20.9223 22.3054 21.421 21.6587C21.8435 21.1125 22.1592 20.4914 22.3514 19.8281C22.5319 19.2023 22.6218 18.5539 22.6184 17.9025L22.5779 8.49286C22.5933 7.50764 22.5024 6.52364 22.3069 5.5579C22.2325 4.98623 21.9606 4.45854 21.5383 4.06615C21.0675 3.75909 20.5412 3.54711 19.989 3.44215C19.4985 3.32063 18.9995 3.23645 18.4962 3.19032L18.4881 2.04142L27.8735 2L27.8775 3.14865Z" fill="black"/>
<path d="M3.57275 27.9288H28.4277V30H3.57275V27.9288Z" fill="black"/>
</svg>
