<svg width="32" height="32" viewBox="0 0 32 32" fill="none" xmlns="http://www.w3.org/2000/svg">
<path fill-rule="evenodd" clip-rule="evenodd" d="M10.2266 2.08539C11.7201 2.0182 12.1961 2.0014 15.9979 2.0014V2C19.7983 2 20.2799 2.0168 21.7692 2.08399C23.2586 2.15118 24.2791 2.38774 25.1609 2.73069L25.2085 2.74609C26.1324 3.10303 26.9597 3.65315 27.6414 4.34885L27.6428 4.35025C28.337 5.03195 28.8872 5.85782 29.2595 6.82788C29.6081 7.72654 29.8418 8.73299 29.909 10.2266C29.9762 11.7201 29.993 12.1975 29.993 15.9979C29.993 19.7983 29.9762 20.2785 29.909 21.7692C29.8418 23.26 29.6053 24.2763 29.2595 25.1679L29.2427 25.2169C28.5162 27.052 27.052 28.5162 25.1679 29.2595C24.2805 29.6081 23.2656 29.8488 21.772 29.916C20.2785 29.9832 19.8011 30 16.0007 30C12.2003 30 11.7201 29.9832 10.2294 29.916C8.73859 29.8488 7.72234 29.6123 6.83068 29.2665L6.78308 29.2511C5.86062 28.8942 5.03334 28.344 4.35165 27.6484L4.35025 27.647C3.65595 26.9653 3.10583 26.138 2.73349 25.1679C2.38774 24.2805 2.15118 23.2628 2.08399 21.7692C2.0168 20.2757 2 19.7983 2 15.9979C2 12.1975 2.0168 11.7173 2.08399 10.2266C2.15118 8.73579 2.38774 7.72514 2.73069 6.83068L2.74609 6.78448C3.10303 5.86062 3.65315 5.03474 4.34885 4.35305L4.35025 4.35165C5.03055 3.65735 5.85782 3.10723 6.82788 2.73489C7.72654 2.38914 8.73299 2.15258 10.2266 2.08539ZM21.6549 4.60707C20.1796 4.53988 19.733 4.52448 15.9984 4.52448H15.9998C12.261 4.52448 11.82 4.53988 10.3432 4.60707C8.97705 4.66866 8.24076 4.89683 7.74243 5.0886L7.71304 5.0984C7.11253 5.32656 6.57501 5.68351 6.13407 6.13564L6.13267 6.13704C5.67914 6.57657 5.32219 7.11409 5.08423 7.7454C4.89246 8.23952 4.66429 8.97721 4.6027 10.3462C4.53551 11.823 4.52011 12.2639 4.52011 16.0028C4.52011 19.7416 4.53551 20.1839 4.6027 21.6593C4.66429 23.0255 4.89246 23.7618 5.08423 24.2601L5.09403 24.2895C5.32219 24.89 5.67774 25.4275 6.13127 25.8685L6.13267 25.8699C6.57221 26.322 7.10973 26.6776 7.74103 26.9155C8.23516 27.1073 8.97285 27.3355 10.3418 27.397C11.8186 27.4642 12.261 27.4796 15.9998 27.4796C19.7386 27.4796 20.181 27.4642 21.6563 27.397C23.0225 27.3355 23.7588 27.1073 24.2572 26.9155L24.288 26.9043C25.4806 26.434 26.431 25.4835 26.9126 24.2587C27.1043 23.7646 27.3325 23.0269 27.3941 21.6579C27.4613 20.1825 27.4767 19.7402 27.4767 16.0014C27.4767 12.2625 27.4613 11.8216 27.3941 10.3448C27.3325 8.97861 27.1043 8.24232 26.9126 7.744L26.9028 7.7146C26.6746 7.11409 26.3176 6.57657 25.8655 6.13564L25.8641 6.13424C25.4246 5.68211 24.8871 5.32516 24.2558 5.0886C23.7616 4.89683 23.0239 4.66866 21.6549 4.60707Z" fill="black"/>
<path fill-rule="evenodd" clip-rule="evenodd" d="M8.80982 15.9992C8.80982 12.0294 12.0279 8.81129 15.9977 8.81129C19.9675 8.81129 23.1843 12.0294 23.1857 15.9992C23.1857 19.969 19.9675 23.1871 15.9977 23.1871C12.0279 23.1871 8.80982 19.969 8.80982 15.9992ZM11.339 16C11.339 18.5756 13.4247 20.6627 15.9989 20.6669V20.6739H16.0045C18.5829 20.6739 20.6728 18.584 20.6728 16.0056V16C20.6728 13.423 18.5829 11.3331 16.0059 11.3331C13.4289 11.3331 11.339 13.423 11.339 16Z" fill="black"/>
<path d="M25.1503 8.52759C25.1503 9.45588 24.3984 10.2078 23.4701 10.2078C22.5418 10.2078 21.79 9.45588 21.79 8.52759C21.79 7.5993 22.5418 6.84742 23.4701 6.84742C24.3984 6.84742 25.1503 7.5993 25.1503 8.52759Z" fill="black"/>
</svg>
