<svg width="32" height="32" viewBox="0 0 32 32" fill="none" xmlns="http://www.w3.org/2000/svg">
<path d="M2 25.2C4.5 26.8 7.5 27.7 10.8 27.7C19.9 27.7 27.2 20.4 27.2 11.3C27.2 11.1 27.2 10.8 27.2 10.6C27.5 10.3 29.6 8.7 30 7.7C30 7.7 28.4 8.4 26.7 8.5C26.8 8.4 28.9 7 29.2 5.3C29.2 5.3 28 5.9 26.4 6.5C26.1 6.6 25.8 6.7 25.6 6.8C24.6 5.7 23.1 5 21.4 5C18.2 5 15.6 7.6 15.6 10.8C15.6 11.2 15.7 11.7 15.7 12.1C15.4 12 8.6 11.7 4 6.1C4 6.1 1.3 9.9 5.6 13.7C5.6 13.7 4.3 13.6 3.1 13C3.1 13 2.7 17.5 7.6 18.7C7.6 18.7 6.6 19.1 5.1 18.8C5.1 18.8 6 22.5 10.4 22.8C10.4 22.8 7 25.9 2 25.2Z" fill="black"/>
</svg>
