<svg width="32" height="32" viewBox="0 0 32 32" fill="none" xmlns="http://www.w3.org/2000/svg">
<path d="M29.18 10.2601L21.74 2.82014C21.4783 2.55685 21.1665 2.34863 20.823 2.2078C20.4795 2.06696 20.1112 1.99636 19.74 2.00014H5.81C4.80034 2.00278 3.83278 2.40504 3.11884 3.11898C2.4049 3.83293 2.00264 4.80048 2 5.81014V26.1901C2.00264 27.1998 2.4049 28.1674 3.11884 28.8813C3.83278 29.5952 4.80034 29.9975 5.81 30.0001H26.19C27.1997 29.9975 28.1672 29.5952 28.8812 28.8813C29.5951 28.1674 29.9974 27.1998 30 26.1901V12.2401C30.0011 11.8723 29.9292 11.5078 29.7885 11.168C29.6477 10.8281 29.4409 10.5195 29.18 10.2601ZM28.12 11.3301C28.2165 11.4249 28.2945 11.5368 28.35 11.6601H21.63C21.2879 11.6601 20.9598 11.5242 20.7178 11.2823C20.4759 11.0404 20.34 10.7123 20.34 10.3701V3.65014C20.4633 3.70568 20.5752 3.78367 20.67 3.88014L28.12 11.3301ZM26.19 28.5001H5.81C5.19816 28.4975 4.61213 28.2533 4.17949 27.8207C3.74685 27.388 3.50263 26.802 3.5 26.1901V5.81014C3.50263 5.19831 3.74685 4.61228 4.17949 4.17964C4.61213 3.747 5.19816 3.50278 5.81 3.50014H18.81V10.3701C18.81 11.1101 19.1039 11.8197 19.6272 12.343C20.1504 12.8662 20.86 13.1601 21.6 13.1601H28.5V26.1601C28.5026 26.4657 28.4449 26.7687 28.3301 27.0518C28.2153 27.3349 28.0458 27.5926 27.8311 27.81C27.6165 28.0275 27.361 28.2003 27.0794 28.3188C26.7978 28.4372 26.4955 28.4988 26.19 28.5001Z" fill="black"/>
</svg>
