<svg width="32" height="32" viewBox="0 0 32 32" fill="none" xmlns="http://www.w3.org/2000/svg">
<path fill-rule="evenodd" clip-rule="evenodd" d="M20.1412 2.76665C20.1412 2.34324 20.4845 2 20.9079 2H29.2334C29.6568 2 30 2.34324 30 2.76665V11.0921C30 11.5155 29.6568 11.8588 29.2334 11.8588C28.8099 11.8588 28.4667 11.5155 28.4667 11.0921V3.53329H20.9079C20.4845 3.53329 20.1412 3.19005 20.1412 2.76665Z" fill="black"/>
<path fill-rule="evenodd" clip-rule="evenodd" d="M29.7755 2.22455C30.0748 2.52394 30.0748 3.00935 29.7755 3.30875L13.5257 19.5585C13.2263 19.8579 12.7409 19.8579 12.4415 19.5585C12.1421 19.2591 12.1421 18.7737 12.4415 18.4743L28.6913 2.22455C28.9906 1.92515 29.4761 1.92515 29.7755 2.22455Z" fill="black"/>
<path fill-rule="evenodd" clip-rule="evenodd" d="M5.76151 6.52816C4.47178 6.52816 3.50461 7.49533 3.50461 8.78507V26.2385C3.50461 27.5282 4.47178 28.4954 5.76151 28.4954H23.2149C24.5047 28.4954 25.4718 27.5282 25.4718 26.2385V18.0133C25.4718 17.5978 25.8087 17.261 26.2241 17.261C26.6396 17.261 26.9764 17.5978 26.9764 18.0133V26.2385C26.9764 28.3592 25.3356 30 23.2149 30H5.76151C3.64081 30 2 28.3592 2 26.2385V8.78507C2 6.66436 3.64081 5.02355 5.76151 5.02355H13.9867C14.4022 5.02355 14.739 5.36037 14.739 5.77586C14.739 6.19134 14.4022 6.52816 13.9867 6.52816H5.76151Z" fill="black"/>
</svg>
