<svg width="32" height="32" viewBox="0 0 32 32" fill="none" xmlns="http://www.w3.org/2000/svg">
<path d="M8.78788 5C4.99465 5 2 7.99465 2 11.7879C2 15.4813 4.99465 18.5758 8.78788 18.5758C12.4813 18.5758 15.5758 15.5811 15.5758 11.7879C15.4759 7.99465 12.4813 5 8.78788 5ZM11.0838 12.9857C11.3832 13.2852 11.3832 13.7843 11.0838 14.0838C10.8841 14.1836 10.6845 14.2834 10.4848 14.2834C10.2852 14.2834 10.0856 14.1836 9.98574 14.0838L8.78788 12.7861L7.4902 14.0838C7.39037 14.1836 7.19073 14.2834 6.99109 14.2834C6.79144 14.2834 6.5918 14.1836 6.49198 14.0838C6.19251 13.7843 6.19251 13.2852 6.49198 12.9857L7.68984 11.7879L6.49198 10.4902C6.19251 10.1907 6.19251 9.69162 6.49198 9.39216C6.79144 9.09269 7.29055 9.09269 7.59002 9.39216L8.78788 10.59L9.98574 9.49198C10.2852 9.19251 10.7843 9.19251 11.0838 9.49198C11.3832 9.79144 11.3832 10.2906 11.0838 10.59L9.7861 11.7879L11.0838 12.9857Z" fill="black"/>
<path fill-rule="evenodd" clip-rule="evenodd" d="M17.3226 11.8877C17.3226 11.4742 17.6578 11.139 18.0713 11.139C19.5828 11.139 20.8164 12.3726 20.8164 13.8841V24.1658C20.8164 25.6773 19.5828 26.9109 18.0713 26.9109H4.79501C3.28349 26.9109 2.04991 25.6773 2.04991 24.1658V18.975C2.04991 18.5616 2.3851 18.2264 2.79857 18.2264C3.21205 18.2264 3.54724 18.5616 3.54724 18.975V24.1658C3.54724 24.8503 4.11045 25.4135 4.79501 25.4135H18.0713C18.7559 25.4135 19.3191 24.8503 19.3191 24.1658V13.8841C19.3191 13.1996 18.7559 12.6364 18.0713 12.6364C17.6578 12.6364 17.3226 12.3012 17.3226 11.8877Z" fill="black"/>
<path fill-rule="evenodd" clip-rule="evenodd" d="M28.5027 13.385C28.5027 12.3059 27.1579 11.7061 26.3652 12.4378L26.3518 12.4499L20.5621 17.5408C20.2516 17.8139 19.7785 17.7835 19.5055 17.473C19.2325 17.1625 19.2629 16.6894 19.5734 16.4164L25.3567 11.331C27.1598 9.67726 30 11.0733 30 13.385V24.6649C30 27.1154 27.1292 28.3488 25.3539 26.7163L19.568 21.5289C19.2601 21.2529 19.2343 20.7796 19.5103 20.4717C19.7863 20.1639 20.2596 20.138 20.5675 20.414L26.3653 25.612C27.1856 26.3693 28.5027 25.806 28.5027 24.6649V13.385Z" fill="black"/>
<path d="M6.09269 24.066C6.80938 24.066 7.39037 23.485 7.39037 22.7683C7.39037 22.0516 6.80938 21.4706 6.09269 21.4706C5.376 21.4706 4.79501 22.0516 4.79501 22.7683C4.79501 23.485 5.376 24.066 6.09269 24.066Z" fill="black"/>
</svg>
