<svg width="32" height="32" viewBox="0 0 32 32" fill="none" xmlns="http://www.w3.org/2000/svg">
<path fill-rule="evenodd" clip-rule="evenodd" d="M24.6408 9.2483L30 3.88912L28.0704 2.04041L22.3093 7.78747C20.469 6.86102 18.2966 6.31826 15.9986 6.31826C9.99342 6.31826 4.85469 10.0241 2.74367 15.2744L2.71019 15.3707L2.59019 15.679L2.71019 15.9874C3.75523 18.6091 5.46721 20.7773 7.63823 22.3484L7.68009 22.3777L2 28.0577L3.88918 29.9595L10.0381 23.7701C11.7682 24.5738 13.7927 25.0426 15.9274 25.0426C21.9312 25.0426 27.0686 21.334 29.1754 16.0837L29.2089 15.9874L29.3289 15.679L29.2089 15.3707C28.2294 12.8913 26.6625 10.8249 24.6729 9.27202L24.6408 9.2483ZM4.411 15.6776C6.36157 11.1402 10.7929 8.02044 15.9526 8.02044C17.7831 8.02044 19.5216 8.41251 21.0885 9.11851L21.009 9.08642L19.3347 10.7607C18.4012 10.1259 17.2488 9.74638 16.0084 9.74638C12.7156 9.74638 10.0464 12.4155 10.0464 15.7083C10.0464 16.9369 10.4177 18.0789 11.0551 19.0277L8.9121 21.1707C6.93084 19.809 5.38489 17.9449 4.4417 15.7599L4.411 15.679V15.6776ZM11.2924 22.4265C12.7379 23.0111 14.3159 23.3362 15.9721 23.3404H16.0516C21.2043 23.3404 25.6287 20.222 27.5723 15.6902L27.5416 15.6093C26.6542 13.568 25.2394 11.8086 23.4339 10.4789L21.1306 12.7557C21.1254 12.747 21.1202 12.7382 21.115 12.7295L21.1306 12.7557C21.6304 13.6023 21.9259 14.5835 21.9466 15.6372C21.9466 18.93 19.2775 21.5991 15.9847 21.5991H15.9833C14.8977 21.5949 13.882 21.2963 13.0379 20.7955L11.3761 22.4572L11.2924 22.4265Z" fill="black"/>
</svg>
