<svg width="32" height="32" viewBox="0 0 32 32" fill="none" xmlns="http://www.w3.org/2000/svg">
<path d="M25.3525 7C25.5861 7 25.775 7.19345 25.775 7.43182V24.5258L29.2788 20.9447C29.3557 20.8665 29.4609 20.8182 29.5775 20.8182C29.8112 20.8182 30 21.0116 30 21.25C30 21.3692 29.9531 21.4771 29.8762 21.5553L25.6512 25.8735C25.5747 25.9516 25.4691 26 25.3525 26C25.2359 26 25.1307 25.9516 25.0538 25.8735L20.8288 21.5553C20.7523 21.4771 20.705 21.3692 20.705 21.25C20.705 21.0116 20.8938 20.8182 21.1275 20.8182C21.2441 20.8182 21.3497 20.8665 21.4262 20.9447L24.93 24.5258V7.43182C24.93 7.19345 25.1189 7 25.3525 7Z" fill="#1B7DB3"/>
<path d="M7.64754 7C7.76415 7 7.86936 7.04836 7.94625 7.12652L12.1713 11.4447C12.2478 11.5229 12.2951 11.6308 12.2951 11.75C12.2951 11.9884 12.1062 12.1818 11.8726 12.1818C11.756 12.1818 11.6503 12.1335 11.5739 12.0553L8.07004 8.47423V25.5682C8.07004 25.8065 7.88119 26 7.64754 26C7.4139 26 7.22504 25.8065 7.22504 25.5682V8.47423L3.72121 12.0553C3.64432 12.1335 3.53912 12.1818 3.4225 12.1818C3.18886 12.1818 3 11.9884 3 11.75C3 11.6308 3.0469 11.5229 3.12379 11.4447L7.34883 7.12652C7.4253 7.04836 7.53093 7 7.64754 7Z" fill="black"/>
</svg>
