<svg width="32" height="32" viewBox="0 0 32 32" fill="none" xmlns="http://www.w3.org/2000/svg">
<path d="M29.18 10.26L21.73 2.81C21.21 2.29 20.51 2 19.76 2H5.81C3.71 2 2 3.71 2 5.81V26.19C2 28.29 3.71 30 5.81 30H26.19C28.29 30 30 28.29 30 26.19V12.24C30 11.49 29.71 10.79 29.18 10.26ZM28.12 11.33C28.22 11.43 28.28 11.55 28.35 11.67H21.63C20.92 11.67 20.34 11.09 20.34 10.38V3.65C20.46 3.71 20.58 3.78 20.68 3.88L28.12 11.33ZM26.19 28.5H5.81C4.54 28.5 3.5 27.46 3.5 26.19V5.81C3.5 4.54 4.54 3.5 5.81 3.5H18.84V10.37C18.84 11.91 20.09 13.16 21.63 13.16H28.5V26.19C28.5 27.46 27.46 28.5 26.19 28.5Z" fill="black"/>
<path d="M10.83 18.05C10.38 17.79 9.86 17.66 9.29 17.66H7.29V24.18H9.31C9.88 24.18 10.39 24.05 10.85 23.79C11.31 23.53 11.66 23.16 11.91 22.69C12.16 22.22 12.28 21.68 12.28 21.07V20.77C12.28 20.16 12.15 19.62 11.9 19.15C11.64 18.67 11.28 18.31 10.83 18.05ZM10.91 21.11C10.9 21.75 10.76 22.24 10.48 22.58C10.2 22.92 9.8 23.1 9.28 23.1H8.63V18.75H9.29C9.82 18.75 10.22 18.92 10.5 19.26C10.77 19.6 10.91 20.1 10.91 20.77V21.11Z" fill="black"/>
<path d="M21.09 19.16C21.31 18.84 21.65 18.68 22.1 18.68C22.51 18.68 22.82 18.78 23.02 18.96C23.22 19.15 23.34 19.45 23.37 19.88H24.71C24.64 19.15 24.37 18.59 23.91 18.18C23.45 17.78 22.85 17.58 22.09 17.58C21.55 17.58 21.07 17.71 20.66 17.96C20.25 18.21 19.93 18.58 19.71 19.06C19.49 19.54 19.38 20.09 19.38 20.72V21.12C19.38 22.1 19.62 22.88 20.1 23.44C20.58 24 21.24 24.28 22.07 24.28C22.83 24.28 23.45 24.08 23.92 23.68C24.39 23.28 24.65 22.72 24.7 22.02H23.36C23.33 22.42 23.21 22.71 23.01 22.9C22.81 23.09 22.5 23.18 22.08 23.18C21.62 23.18 21.28 23.02 21.07 22.69C20.86 22.36 20.75 21.85 20.75 21.14V20.65C20.75 19.97 20.87 19.48 21.09 19.16Z" fill="black"/>
<path d="M15.78 17.43C14.51 17.43 13.02 18.35 13.02 20.93C13.02 23.75 14.83 24.5 15.78 24.5C16.73 24.5 18.54 23.75 18.54 20.93C18.55 18.34 17.06 17.43 15.78 17.43ZM15.78 22.99C15.65 22.99 14.52 22.93 14.52 20.92C14.52 19.18 15.31 18.92 15.78 18.92C16.25 18.92 17.04 19.18 17.04 20.92C17.05 22.93 15.91 22.99 15.78 22.99Z" fill="black"/>
</svg>
