<svg width="32" height="32" viewBox="0 0 32 32" fill="none" xmlns="http://www.w3.org/2000/svg">
<path fill-rule="evenodd" clip-rule="evenodd" d="M26.0952 5.53603C28.4741 7.85458 29.8069 10.9632 29.8487 14.2847C29.9078 18.9821 27.3616 23.2624 23.2032 25.4529C23.0654 25.5268 22.9177 25.56 22.7737 25.56C22.4414 25.56 22.1215 25.3803 21.9566 25.0677C21.719 24.6161 21.8913 24.0574 22.3418 23.8211C25.8836 21.9529 28.0532 18.3077 28.0028 14.3081C27.9683 11.4789 26.8324 8.83172 24.8068 6.85775C22.7811 4.88132 20.1327 3.78112 17.2776 3.8488C15.1781 3.87588 13.1586 4.51336 11.4357 5.69232C11.0136 5.98276 10.4401 5.872 10.1521 5.45234C9.86539 5.03146 9.97246 4.45798 10.3921 4.16877C12.4165 2.78306 14.7892 2.03482 17.2542 2.00282C20.5598 1.93145 23.7176 3.21625 26.0952 5.53603ZM7.19894 5.86414C7.94718 5.74107 8.74341 6.27026 9.38458 7.31508C10.4073 8.98261 10.7937 11.4722 10.2288 12.7533C10.0824 13.0893 9.88053 13.3219 9.63071 13.4474L7.96318 14.2904C7.21125 15.7254 7.49799 17.8458 8.71018 19.821C9.91007 21.7765 11.7142 23.0281 13.3091 23.0096H13.3337L14.8167 21.9069C15.0407 21.7396 15.3446 21.6645 15.7064 21.6854C17.2485 21.7703 19.2606 23.4182 20.1713 24.9036C20.8912 26.0788 20.9392 27.1261 20.2992 27.7045L18.7929 29.0632C18.2859 29.521 17.6533 29.8151 16.9113 29.9369C13.3362 30.5252 7.67151 26.9243 4.78809 22.2318C2.41293 18.3516 1.4924 12.8666 2.64552 9.47118C3.12917 8.04978 3.96109 7.07756 5.05145 6.65914L6.94666 5.93306C7.02788 5.90229 7.1128 5.87891 7.19894 5.86414ZM18.5013 16.0103V9.29836H16.515V17.5376H21.9594V16.0103H18.5013Z" fill="black"/>
</svg>
