<svg width="32" height="32" viewBox="0 0 32 32" fill="none" xmlns="http://www.w3.org/2000/svg">
<path fill-rule="evenodd" clip-rule="evenodd" d="M4.6243 6.62333C3.11858 4.70695 4.51375 2 6.91898 2H25.3587C27.698 2 29.0378 4.7338 27.5532 6.62333L27.5468 6.63141L19.5873 16.4812C19.5659 16.5312 19.5444 16.589 19.527 16.6471C19.5145 16.6887 19.506 16.7243 19.5009 16.752C19.497 16.7728 19.4962 16.7834 19.4961 16.7849V26.3024C19.4961 26.9948 19.1342 27.5138 18.6603 27.8297C18.6494 27.8369 18.6384 27.8439 18.6271 27.8506L15.4094 29.7611C14.2336 30.433 12.6814 29.6158 12.6814 28.2065V16.7818C12.6814 16.7023 12.6812 16.6526 12.6792 16.6102C12.6787 16.6014 12.6783 16.5939 12.6778 16.5874C12.6675 16.5761 12.6576 16.5646 12.648 16.5527L4.6243 6.62333ZM5.80348 5.69096C5.10896 4.80139 5.71808 3.50324 6.91898 3.50324H25.3587C26.4253 3.50324 27.0895 4.77469 26.374 5.69094L18.3603 15.6079C18.3262 15.6501 18.2969 15.6958 18.2726 15.7442C18.1511 15.9872 17.9928 16.4111 17.9928 16.7818V26.3024C17.9928 26.3721 17.9769 26.4165 17.9574 26.4498C17.9374 26.4841 17.9019 26.5262 17.8396 26.5699L14.6597 28.458C14.5598 28.5133 14.4425 28.5106 14.3389 28.4526C14.2355 28.3947 14.1846 28.3051 14.1846 28.2065V16.7818C14.1846 16.7683 14.1847 16.7543 14.1848 16.7396C14.186 16.4658 14.1881 15.9981 13.7963 15.5821L5.80348 5.69096Z" fill="black"/>
</svg>
