<svg width="32" height="32" viewBox="0 0 32 32" fill="none" xmlns="http://www.w3.org/2000/svg">
<path d="M23.24 14.5735V9.2447C23.33 5.51554 20.48 2.33626 16.74 2.00634C14.89 1.92636 13.06 2.6062 11.72 3.88591C10.38 5.16562 9.62 6.96522 9.62 8.8148V14.5635H6V30H26.85V14.5735H23.24ZM10.58 8.82479C10.58 7.23515 11.24 5.6955 12.38 4.59575C13.53 3.496 15.09 2.90613 16.67 2.97612C19.88 3.25605 22.34 6.00543 22.27 9.2347V14.5735H10.58V8.82479ZM25.89 29.0302H6.97V15.5333H9.62V15.9532H10.59V15.5333H22.28V15.9532H23.25V15.5333H25.9V29.0302H25.89Z" fill="black"/>
</svg>
