<svg width="32" height="32" viewBox="0 0 32 32" fill="none" xmlns="http://www.w3.org/2000/svg">
<path fill-rule="evenodd" clip-rule="evenodd" d="M14.2092 2.15552C23.2921 0.996382 31.0018 8.70544 29.9451 17.6876C29.2037 24.0398 24.0254 29.1047 17.6888 29.8447C14.3498 30.2491 11.192 29.488 8.59966 27.8319L2.92975 29.85H2.80026L2.79781 29.85C2.78353 29.8501 2.72018 29.8506 2.65962 29.8438C2.59978 29.8372 2.37454 29.8099 2.18242 29.6178C1.99031 29.4257 1.96305 29.2005 1.95641 29.1406C1.94968 29.0801 1.95014 29.0167 1.95024 29.0024L1.95026 29V28.8603L4.06309 23.3861C2.50612 20.8984 1.6509 17.7528 2.0555 14.4114C2.79542 8.07593 7.85865 2.8984 14.2092 2.15552ZM28.4554 17.5124C29.3985 9.49588 22.5108 2.60591 14.3954 3.64392L14.3872 3.64498C8.74023 4.30379 4.20582 8.9245 3.5452 14.5869L3.54481 14.5902C3.16802 17.6987 4.01562 20.6209 5.52429 22.884L5.73992 23.2074L3.92774 27.9026L8.80729 26.1658L9.12199 26.3798C11.471 27.9771 14.3889 28.7338 17.51 28.3554L17.5133 28.355C23.1757 27.6944 27.7966 23.1593 28.4554 17.5124ZM19.5003 9.54998C18.6994 9.54998 18.0503 10.1992 18.0503 11C18.0503 11.8008 18.6994 12.45 19.5003 12.45C20.3011 12.45 20.9503 11.8008 20.9503 11C20.9503 10.1992 20.3011 9.54998 19.5003 9.54998ZM16.5503 11C16.5503 9.37074 17.871 8.04998 19.5003 8.04998C21.1295 8.04998 22.4503 9.37074 22.4503 11C22.4503 12.6292 21.1295 13.95 19.5003 13.95C18.643 13.95 17.8712 13.5843 17.3322 13.0005L13.0724 15.324C13.1233 15.5411 13.1503 15.7674 13.1503 16C13.1503 16.2326 13.1233 16.4589 13.0724 16.676L17.3322 18.9995C17.8712 18.4156 18.643 18.05 19.5003 18.05C21.1295 18.05 22.4503 19.3707 22.4503 21C22.4503 22.6292 21.1295 23.95 19.5003 23.95C17.871 23.95 16.5503 22.6292 16.5503 21C16.5503 20.7674 16.5772 20.5411 16.6281 20.324L12.3683 18.0005C11.8293 18.5843 11.0575 18.95 10.2003 18.95C8.57102 18.95 7.25026 17.6292 7.25026 16C7.25026 14.3707 8.57102 13.05 10.2003 13.05C11.0575 13.05 11.8293 13.4156 12.3683 13.9995L16.6281 11.676C16.5772 11.4589 16.5503 11.2326 16.5503 11ZM10.2003 14.55C9.39944 14.55 8.75026 15.1992 8.75026 16C8.75026 16.8008 9.39944 17.45 10.2003 17.45C11.0011 17.45 11.6503 16.8008 11.6503 16C11.6503 15.1992 11.0011 14.55 10.2003 14.55ZM19.5003 19.55C18.6994 19.55 18.0503 20.1992 18.0503 21C18.0503 21.8008 18.6994 22.45 19.5003 22.45C20.3011 22.45 20.9503 21.8008 20.9503 21C20.9503 20.1992 20.3011 19.55 19.5003 19.55Z" fill="black"/>
</svg>
