<svg width="32" height="32" viewBox="0 0 32 32" fill="none" xmlns="http://www.w3.org/2000/svg">
<path d="M29.5084 2.49657C29.0084 1.99657 28.3084 1.89657 27.7084 2.09657L3.90842 9.99657C2.70842 10.3966 1.90842 11.4966 2.00842 12.7966C2.10842 14.0966 2.90842 15.0966 4.20842 15.3966L14.2084 17.7966L16.6084 27.7966C16.9084 29.0966 17.9084 29.8966 19.2084 29.9966H19.3084C20.5084 29.9966 21.6084 29.2966 22.0084 28.0966L29.9084 4.39657C30.1084 3.69657 30.0084 2.99657 29.5084 2.49657ZM3.50842 12.6966C3.50842 12.1966 3.70842 11.5966 4.40842 11.3966L27.1084 3.79657L14.6084 16.2966L4.50842 13.8966C3.80842 13.7966 3.50842 13.1966 3.50842 12.6966ZM20.6084 27.5966C20.4084 28.2966 19.8084 28.4966 19.3084 28.4966C18.8084 28.4966 18.3084 28.1966 18.1084 27.4966L15.7084 17.3966L28.1084 4.89657L20.6084 27.5966Z" fill="black"/>
</svg>
