<svg width="32" height="32" viewBox="0 0 32 32" fill="none" xmlns="http://www.w3.org/2000/svg">
<path fill-rule="evenodd" clip-rule="evenodd" d="M23.1092 1.66016C26.7205 5.55753 28.7392 10.6767 28.7646 16.0001L28.7646 16.005C28.7372 21.3264 26.7187 26.4433 23.1093 30.3398L22.3757 29.6602C25.8141 25.9483 27.7378 21.0732 27.7646 16.0023C27.7398 10.9297 25.8159 6.05251 22.3757 2.33983L23.1092 1.66016Z" fill="black"/>
<path fill-rule="evenodd" clip-rule="evenodd" d="M19.9972 4.7992C22.7049 7.8993 24.2074 11.8766 24.2289 15.9998L24.2289 16.0057C24.2022 20.1334 22.701 24.1146 19.998 27.2249L19.2432 26.569C21.7885 23.6401 23.203 19.8905 23.2289 16.0021C23.2079 12.1195 21.7928 8.37517 19.244 5.45703L19.9972 4.7992Z" fill="black"/>
<path fill-rule="evenodd" clip-rule="evenodd" d="M16.846 7.88078C20.7711 12.5763 20.7711 19.4247 16.846 24.1203L16.0788 23.4789C19.6936 19.1546 19.6936 12.8464 16.0788 8.52214L16.846 7.88078Z" fill="black"/>
<path fill-rule="evenodd" clip-rule="evenodd" d="M13.8456 9.2012V23.2472L9.57973 19.4066L3.23547 19.4043V13.0418H9.57981L13.8456 9.2012ZM10 14.0418H4.23547V18.4047L9.96372 18.4067L12.8456 21.0013V11.4471L10 14.0418Z" fill="black"/>
</svg>
