<svg width="32" height="32" viewBox="0 0 32 32" fill="none" xmlns="http://www.w3.org/2000/svg">
<path fill-rule="evenodd" clip-rule="evenodd" d="M23.5 22.8244C23.5 23.2401 23.1642 23.5771 22.75 23.5771H9.15C8.73579 23.5771 8.4 23.2401 8.4 22.8244V9.17563C8.4 8.75993 8.73579 8.42294 9.15 8.42294H22.75C23.1642 8.42294 23.5 8.75993 23.5 9.17563V22.8244ZM22 22.0717V9.92832H9.9V22.0717H22Z" fill="black"/>
<path fill-rule="evenodd" clip-rule="evenodd" d="M17.95 13.8924C17.95 15.001 17.0546 15.8996 15.95 15.8996C14.8454 15.8996 13.95 15.001 13.95 13.8924C13.95 12.7839 14.8454 11.8853 15.95 11.8853C17.0546 11.8853 17.95 12.7839 17.95 13.8924ZM12.35 21.319V22.8244H19.55V21.319C19.55 19.3118 17.95 17.7061 15.95 17.7061C13.95 17.7061 12.35 19.3118 12.35 21.319Z" fill="black"/>
<path fill-rule="evenodd" clip-rule="evenodd" d="M13.2 13.8924C13.2 12.3682 14.4312 11.1326 15.95 11.1326C17.4688 11.1326 18.7 12.3682 18.7 13.8924C18.7 15.4167 17.4688 16.6523 15.95 16.6523C14.4312 16.6523 13.2 15.4167 13.2 13.8924ZM15.95 12.6379C15.2596 12.6379 14.7 13.1996 14.7 13.8924C14.7 14.5853 15.2596 15.1469 15.95 15.1469C16.6403 15.1469 17.2 14.5853 17.2 13.8924C17.2 13.1996 16.6403 12.6379 15.95 12.6379ZM15.95 18.4588C14.3642 18.4588 13.1 19.7275 13.1 21.319V22.0717H18.8V21.319C18.8 19.7275 17.5358 18.4588 15.95 18.4588ZM11.6 21.319C11.6 18.8961 13.5358 16.9534 15.95 16.9534C18.3642 16.9534 20.3 18.8961 20.3 21.319V22.8244C20.3 23.2401 19.9642 23.5771 19.55 23.5771H12.35C11.9358 23.5771 11.6 23.2401 11.6 22.8244V21.319Z" fill="black"/>
<path fill-rule="evenodd" clip-rule="evenodd" d="M2 5.76344C2 3.64165 3.63579 2 5.75 2H26.25C28.3642 2 30 3.64165 30 5.76344V26.2366C30 28.3584 28.3642 30 26.25 30H5.75C3.65252 30 2 28.3749 2 26.3369V5.76344ZM5.75 3.50538C4.46421 3.50538 3.5 4.47305 3.5 5.76344V26.3369C3.5 27.5104 4.44748 28.4946 5.75 28.4946H26.25C27.5358 28.4946 28.5 27.527 28.5 26.2366V5.76344C28.5 4.47305 27.5358 3.50538 26.25 3.50538H5.75Z" fill="black"/>
<path fill-rule="evenodd" clip-rule="evenodd" d="M9.15 12.3369H3.25V10.8315H9.15V12.3369Z" fill="black"/>
<path fill-rule="evenodd" clip-rule="evenodd" d="M9.15 21.1685H3.25V19.6631H9.15V21.1685Z" fill="black"/>
<path fill-rule="evenodd" clip-rule="evenodd" d="M28.65 12.3369H22.75V10.8315H28.65V12.3369Z" fill="black"/>
<path fill-rule="evenodd" clip-rule="evenodd" d="M28.65 21.1685H22.75V19.6631H28.65V21.1685Z" fill="black"/>
<path fill-rule="evenodd" clip-rule="evenodd" d="M19.6 9.17563V3.15412H21.1V9.17563H19.6Z" fill="black"/>
<path fill-rule="evenodd" clip-rule="evenodd" d="M10.8 9.17563V3.15412H12.3V9.17563H10.8Z" fill="black"/>
<path fill-rule="evenodd" clip-rule="evenodd" d="M20.35 22.0717C20.7642 22.0717 21.1 22.4087 21.1 22.8244V28.8459C21.1 29.2616 20.7642 29.5986 20.35 29.5986C19.9358 29.5986 19.6 29.2616 19.6 28.8459V22.8244C19.6 22.4087 19.9358 22.0717 20.35 22.0717Z" fill="black"/>
<path fill-rule="evenodd" clip-rule="evenodd" d="M11.55 22.0717C11.9642 22.0717 12.3 22.4087 12.3 22.8244V28.8459C12.3 29.2616 11.9642 29.5986 11.55 29.5986C11.1358 29.5986 10.8 29.2616 10.8 28.8459V22.8244C10.8 22.4087 11.1358 22.0717 11.55 22.0717Z" fill="black"/>
</svg>
