<svg width="32" height="32" viewBox="0 0 32 32" fill="none" xmlns="http://www.w3.org/2000/svg">
<path fill-rule="evenodd" clip-rule="evenodd" d="M21.2807 2L28.9309 10.0447V30H8.25773L8.25759 20.5034L5.70786 20.5034C4.21235 20.5034 3 19.2932 3 17.795V13.179C3 11.6831 4.21145 10.4705 5.70786 10.4705L8.44925 10.4704V2H21.2807ZM20.3778 3.12743H9.57668V10.4704L18.1213 10.4705C19.6168 10.4705 20.8291 11.6807 20.8291 13.179V17.795C20.8291 19.2908 19.6177 20.5034 18.1213 20.5034L9.38502 20.5034L9.38516 28.8726H27.8035V10.4952L27.7749 10.4651L20.3782 10.4655L20.3778 3.12743ZM18.1213 11.3725H5.70786C4.70998 11.3725 3.90194 12.1809 3.90194 13.179V17.795C3.90194 18.7942 4.70957 19.6015 5.70786 19.6015H18.1213C19.1192 19.6015 19.9272 18.7931 19.9272 17.795V13.179C19.9272 12.1798 19.1196 11.3725 18.1213 11.3725ZM17.0745 13.0885V13.8839H15.8506V17.5956H14.895V13.8839H13.6711V13.0885H17.0745ZM11.6868 13.0885C12.2335 13.0885 12.6491 13.2062 12.9338 13.4415C13.2184 13.6768 13.3608 14.0278 13.3608 14.4943C13.3608 14.9793 13.2092 15.3503 12.906 15.6072C12.6029 15.8641 12.1718 15.9926 11.6128 15.9926H11.2028V17.5956H10.2471V13.0885H11.6868ZM7.82197 13.0885C8.36866 13.0885 8.78432 13.2062 9.06897 13.4415C9.35362 13.6768 9.49594 14.0278 9.49594 14.4943C9.49594 14.9793 9.34437 15.3503 9.04122 15.6072C8.73808 15.8641 8.307 15.9926 7.74798 15.9926H7.33797V17.5956H6.38229V13.0885H7.82197ZM11.6375 13.8716H11.2028V15.2095H11.5172C11.8111 15.2095 12.031 15.1515 12.177 15.0353C12.3229 14.9192 12.3958 14.7502 12.3958 14.5282C12.3958 14.3042 12.3347 14.1388 12.2124 14.0319C12.0901 13.925 11.8985 13.8716 11.6375 13.8716ZM7.77264 13.8716H7.33797V15.2095H7.65241C7.94631 15.2095 8.16622 15.1515 8.31214 15.0353C8.45806 14.9192 8.53102 14.7502 8.53102 14.5282C8.53102 14.3042 8.46987 14.1388 8.34759 14.0319C8.2253 13.925 8.03366 13.8716 7.77264 13.8716ZM21.2798 3.63515L21.2801 9.56352L26.9173 9.56318L21.2798 3.63515Z" fill="black"/>
</svg>
