<svg width="32" height="32" viewBox="0 0 32 32" fill="none" xmlns="http://www.w3.org/2000/svg">
<path fill-rule="evenodd" clip-rule="evenodd" d="M22.7152 2.22422C23.0055 1.92884 23.4804 1.92478 23.7758 2.21516L29.6758 8.01516C29.8184 8.15538 29.8991 8.34677 29.9 8.54679C29.9009 8.74682 29.8218 8.93889 29.6803 9.08033L23.7803 14.9803C23.4874 15.2732 23.0126 15.2732 22.7197 14.9803C22.4268 14.6874 22.4268 14.2126 22.7197 13.9197L28.0848 8.55455L22.7242 3.28484C22.4288 2.99446 22.4248 2.51961 22.7152 2.22422Z" fill="black"/>
<path fill-rule="evenodd" clip-rule="evenodd" d="M3 8.55C3 8.13579 3.33579 7.8 3.75 7.8H27.45C27.8642 7.8 28.2 8.13579 28.2 8.55C28.2 8.96421 27.8642 9.3 27.45 9.3H3.75C3.33579 9.3 3 8.96421 3 8.55Z" fill="black"/>
<path fill-rule="evenodd" clip-rule="evenodd" d="M10.0758 16.9152C10.3712 17.2055 10.3752 17.6804 10.0848 17.9758L4.80615 23.3455L10.0803 28.6197C10.3732 28.9126 10.3732 29.3874 10.0803 29.6803C9.78744 29.9732 9.31256 29.9732 9.01967 29.6803L3.21967 23.8803C2.92855 23.5892 2.92653 23.1178 3.21516 22.8242L9.01516 16.9242C9.30554 16.6288 9.78039 16.6248 10.0758 16.9152Z" fill="black"/>
<path fill-rule="evenodd" clip-rule="evenodd" d="M4.7 23.35C4.7 22.9358 5.03579 22.6 5.45 22.6H29.15C29.5642 22.6 29.9 22.9358 29.9 23.35C29.9 23.7642 29.5642 24.1 29.15 24.1H5.45C5.03579 24.1 4.7 23.7642 4.7 23.35Z" fill="black"/>
</svg>
