<svg width="32" height="32" viewBox="0 0 32 32" fill="none" xmlns="http://www.w3.org/2000/svg">
<path fill-rule="evenodd" clip-rule="evenodd" d="M2 15.5841C2 7.77972 8.11581 2.00274 15.9986 2.00274V2.00134C23.8898 2.00134 30 7.78112 30 15.5855C30 23.3899 23.8842 29.1669 16.0014 29.1669H15.9804C14.5453 29.1669 13.1563 28.9694 11.9466 28.6236L11.955 28.625C11.8584 28.5984 11.7576 28.5844 11.654 28.5844C11.4901 28.5844 11.3333 28.6208 11.2003 28.681L8.42244 29.9047L8.42944 29.9019C8.28943 29.9635 8.13401 29.9985 7.9716 29.9985C7.36534 29.9985 6.86969 29.5169 6.85009 28.912L6.77448 26.4268V26.424C6.76188 26.109 6.61906 25.8275 6.39784 25.6301C3.67317 23.1953 2 19.6613 2 15.5841ZM20.2928 18.978L24.405 12.4548H24.4092L24.4078 12.4576C24.4806 12.3498 24.5226 12.221 24.5226 12.0824C24.5226 11.7155 24.2244 11.4173 23.8576 11.4173C23.7008 11.4173 23.5566 11.4719 23.4445 11.5615L19.0271 14.9148L19.0285 14.9134C18.8871 15.0212 18.7107 15.0843 18.5203 15.0843C18.3298 15.0843 18.1534 15.0198 18.0148 14.9148L14.7511 12.473C14.75 12.4722 14.749 12.4714 14.748 12.4707C14.3971 12.2074 13.9614 12.0515 13.4881 12.0515C12.7419 12.0515 12.0866 12.4394 11.7086 13.0344L7.59636 19.5577L7.59776 19.5549C7.53055 19.6585 7.49275 19.7817 7.49275 19.9133C7.49275 20.2802 7.79098 20.5784 8.15781 20.5784C8.30903 20.5784 8.44904 20.5266 8.55965 20.4426L12.9771 17.0893L12.9757 17.0907C13.1171 16.9828 13.2935 16.9198 13.4839 16.9198C13.6744 16.9198 13.8508 16.9842 13.9894 17.0893L17.2531 19.5311C17.2535 19.5314 17.2539 19.5317 17.2543 19.532C17.6055 19.7975 18.0433 19.9539 18.5175 19.9539C19.2609 19.9539 19.9134 19.5689 20.2928 18.978Z" fill="black"/>
</svg>
