<svg width="32" height="32" viewBox="0 0 32 32" fill="none" xmlns="http://www.w3.org/2000/svg">
<path fill-rule="evenodd" clip-rule="evenodd" d="M13.4778 22.8242L13.4772 27.4635L20.296 27.4643V28.331H5.75618V27.4643L12.5738 27.4635L12.5745 22.8242H13.4778ZM30 4V17.55H26.244V16.6833H29.0968V4.8667H8.85137V7.6041H7.94814V4H30ZM11.4949 18.8717L15.4786 16.4825L11.4949 14.0935V18.8717ZM10.5916 13.3117C10.5916 12.9713 10.9818 12.7638 11.2826 12.9442L16.5701 16.1149C16.8531 16.2847 16.8532 16.6802 16.5701 16.8499L11.2826 20.021C10.9818 20.2014 10.5916 19.9939 10.5916 19.6535V13.3117ZM2 23.2577V9.70766H24.0519V23.2577H2ZM2.90323 22.391H23.1486V10.5744H2.90323V22.391Z" fill="black"/>
</svg>
