<svg width="32" height="32" viewBox="0 0 32 32" fill="none" xmlns="http://www.w3.org/2000/svg">
<path d="M26.868 8C28.5978 8 30 9.39654 30 11.1193V21.2141C30 22.9368 28.5978 24.3333 26.868 24.3333H5.132C3.40224 24.3333 2 22.9368 2 21.2141V11.1193C2 9.39654 3.40224 8 5.132 8H26.868ZM26.868 9.50187H5.132C4.23509 9.50187 3.508 10.226 3.508 11.1193V21.2141C3.508 22.1073 4.23509 22.8315 5.132 22.8315H26.868C27.7649 22.8315 28.492 22.1073 28.492 21.2141V11.1193C28.492 10.226 27.7649 9.50187 26.868 9.50187ZM11.2103 12.8928C12.0306 12.8928 12.6821 13.0922 13.1649 13.491C13.6476 13.8897 13.9379 14.4646 14.0358 15.2156H12.78C12.6382 14.3417 12.1234 13.9047 11.2356 13.9047C10.6617 13.9047 10.2254 14.1082 9.92665 14.5153C9.62789 14.9224 9.47345 15.5197 9.46333 16.3072V16.8655C9.46333 17.6497 9.63127 18.2587 9.96716 18.6923C10.3031 19.126 10.7697 19.3428 11.3673 19.3428C12.0222 19.3428 12.488 19.1966 12.7648 18.9042V17.4836H11.2457V16.5266H14.0409V19.3079C13.7742 19.6502 13.4045 19.9094 12.9319 20.0855C12.4593 20.2616 11.9226 20.3497 11.3217 20.3497C10.7039 20.3497 10.157 20.2118 9.68106 19.936C9.20508 19.6602 8.83796 19.2656 8.57972 18.7521C8.32147 18.2387 8.18728 17.6398 8.17716 16.9552V16.387C8.17716 15.2904 8.44384 14.4339 8.97721 13.8175C9.51059 13.201 10.2549 12.8928 11.2103 12.8928ZM17.3191 12.9925V20.25H16.043V12.9925H17.3191ZM24.0963 12.9925V14.0094H20.6935V16.1677H23.6608V17.1745H20.6935V20.25H19.4124V12.9925H24.0963Z" fill="black"/>
</svg>
