<svg width="32" height="32" viewBox="0 0 32 32" fill="none" xmlns="http://www.w3.org/2000/svg">
<path fill-rule="evenodd" clip-rule="evenodd" d="M12 7.07776C12 4.86862 13.7909 3.07776 16 3.07776C18.2091 3.07776 20 4.86862 20 7.07776C20 9.2869 18.2091 11.0778 16 11.0778C13.7909 11.0778 12 9.2869 12 7.07776ZM16 4.07776C14.3431 4.07776 13 5.4209 13 7.07776C13 8.73461 14.3431 10.0778 16 10.0778C17.6569 10.0778 19 8.73461 19 7.07776C19 5.4209 17.6569 4.07776 16 4.07776Z" fill="black"/>
<path fill-rule="evenodd" clip-rule="evenodd" d="M4.33187 6.57776L4.33333 6.57776L13.0833 6.57776V7.57776H4.33411C3.32255 7.58109 2.50333 8.40031 2.5 9.41187V23.4103C2.50333 24.4219 3.32259 25.2411 4.33418 25.2444H6.08333V26.2444H4.33333L4.33187 26.2444C2.76977 26.2399 1.50457 24.9747 1.5 23.4126L1.5 23.4111V9.40963C1.50457 7.84753 2.76977 6.58233 4.33187 6.57776Z" fill="black"/>
<path fill-rule="evenodd" clip-rule="evenodd" d="M18.9167 6.57776H27.6681C29.2302 6.58233 30.4954 7.84753 30.5 9.40963L30.5 9.41109L30.5 23.4111L30.5 23.4126C30.4954 24.9747 29.2302 26.2399 27.6681 26.2444L27.6667 26.2444H25.9167V25.2444L27.6652 25.2444C28.6767 25.2411 29.4966 24.422 29.5 23.4105V9.41165C29.4966 8.4002 28.6774 7.58109 27.6659 7.57776H18.9167V6.57776Z" fill="black"/>
<path fill-rule="evenodd" clip-rule="evenodd" d="M8.78039 21.5737C12.8907 18.1907 18.8207 18.1907 22.931 21.5737L22.2955 22.3458C18.5544 19.2667 13.157 19.2667 9.41587 22.3458L8.78039 21.5737Z" fill="black"/>
<path fill-rule="evenodd" clip-rule="evenodd" d="M11.0289 24.5007C13.9701 22.5993 17.7532 22.6001 20.6935 24.503L20.1502 25.3425C17.5404 23.6535 14.1824 23.6528 11.5718 25.3405L11.0289 24.5007Z" fill="black"/>
<path fill-rule="evenodd" clip-rule="evenodd" d="M13.2159 27.6302C14.9042 26.9013 16.8187 26.9029 18.5058 27.6345L18.1079 28.552C16.6741 27.9302 15.0471 27.9289 13.6122 28.5483L13.2159 27.6302Z" fill="black"/>
</svg>
