<svg width="32" height="32" viewBox="0 0 32 32" fill="none" xmlns="http://www.w3.org/2000/svg">
<path fill-rule="evenodd" clip-rule="evenodd" d="M16 14.923C18.9738 14.923 21.3846 12.5123 21.3846 9.53842C21.3846 6.56458 18.9738 4.15381 16 4.15381C13.0262 4.15381 10.6154 6.56458 10.6154 9.53842C10.6154 12.5123 13.0262 14.923 16 14.923ZM24.6154 27.8461C27.5892 27.8461 30 25.4353 30 22.4615C30 19.4877 27.5892 17.0769 24.6154 17.0769C21.6415 17.0769 19.2308 19.4877 19.2308 22.4615C19.2308 25.4353 21.6415 27.8461 24.6154 27.8461ZM12.7692 22.4615C12.7692 25.4353 10.3585 27.8461 7.38462 27.8461C4.41077 27.8461 2 25.4353 2 22.4615C2 19.4877 4.41077 17.0769 7.38462 17.0769C10.3585 17.0769 12.7692 19.4877 12.7692 22.4615Z" fill="black"/>
</svg>
