<svg width="32" height="32" viewBox="0 0 32 32" fill="none" xmlns="http://www.w3.org/2000/svg">
<path fill-rule="evenodd" clip-rule="evenodd" d="M29.6545 2.20339C29.3251 1.95236 28.8545 2.01596 28.6034 2.34543L24.3332 7.95017L22.2399 5.77937C21.9524 5.4812 21.4776 5.47256 21.1794 5.76008C20.8812 6.0476 20.8726 6.5224 21.1601 6.82057L23.8601 9.62057C24.012 9.77808 24.2251 9.8614 24.4435 9.8487C24.662 9.836 24.864 9.72855 24.9966 9.5545L29.7966 3.2545C30.0476 2.92502 29.984 2.45442 29.6545 2.20339ZM2.05005 6.29997C2.05005 5.88575 2.38584 5.54997 2.80005 5.54997H18C18.4143 5.54997 18.75 5.88575 18.75 6.29997C18.75 6.71418 18.4143 7.04997 18 7.04997H2.80005C2.38584 7.04997 2.05005 6.71418 2.05005 6.29997ZM29.65 11.8C29.3186 11.5514 28.8485 11.6186 28.6 11.95L24.3285 17.6453L22.2399 15.4794C21.9524 15.1812 21.4776 15.1726 21.1794 15.4601C20.8812 15.7476 20.8726 16.2224 21.1601 16.5206L23.8601 19.3206C24.0127 19.4788 24.227 19.5621 24.4464 19.5485C24.6658 19.5349 24.8681 19.4258 25 19.25L29.8 12.85C30.0485 12.5186 29.9814 12.0485 29.65 11.8ZM2.05005 16C2.05005 15.5858 2.38584 15.25 2.80005 15.25H18C18.4143 15.25 18.75 15.5858 18.75 16C18.75 16.4142 18.4143 16.75 18 16.75H2.80005C2.38584 16.75 2.05005 16.4142 2.05005 16ZM29.65 21.5C29.3186 21.2514 28.8485 21.3186 28.6 21.65L24.3285 27.3453L22.2399 25.1794C21.9524 24.8812 21.4776 24.8726 21.1794 25.1601C20.8812 25.4476 20.8726 25.9224 21.1601 26.2206L23.8601 29.0206C24.0127 29.1788 24.227 29.2621 24.4464 29.2485C24.6658 29.2349 24.8681 29.1258 25 28.95L29.8 22.55C30.0485 22.2186 29.9814 21.7485 29.65 21.5ZM2.05005 25.7C2.05005 25.2858 2.38584 24.95 2.80005 24.95H18C18.4143 24.95 18.75 25.2858 18.75 25.7C18.75 26.1142 18.4143 26.45 18 26.45H2.80005C2.38584 26.45 2.05005 26.1142 2.05005 25.7Z" fill="black"/>
</svg>
