<svg width="32" height="32" viewBox="0 0 32 32" fill="none" xmlns="http://www.w3.org/2000/svg">
<path fill-rule="evenodd" clip-rule="evenodd" d="M10.184 6.25787C10.3265 6.09406 10.5329 6 10.75 6H29.15C29.5642 6 29.9 6.33579 29.9 6.75V25.15C29.9 25.5642 29.5642 25.9 29.15 25.9H10.75C10.5329 25.9 10.3265 25.8059 10.184 25.6421L2.18405 16.4421C1.93865 16.1599 1.93865 15.7401 2.18405 15.4579L10.184 6.25787ZM11.0917 7.5L3.7439 15.95L11.0917 24.4H28.4V7.5H11.0917Z" fill="black"/>
<path fill-rule="evenodd" clip-rule="evenodd" d="M13 11.75C13 11.3358 13.3358 11 13.75 11H24.15C24.5642 11 24.9 11.3358 24.9 11.75C24.9 12.1642 24.5642 12.5 24.15 12.5H13.75C13.3358 12.5 13 12.1642 13 11.75Z" fill="black"/>
<path fill-rule="evenodd" clip-rule="evenodd" d="M13 15.95C13 15.5358 13.3358 15.2 13.75 15.2H24.15C24.5642 15.2 24.9 15.5358 24.9 15.95C24.9 16.3642 24.5642 16.7 24.15 16.7H13.75C13.3358 16.7 13 16.3642 13 15.95Z" fill="black"/>
<path fill-rule="evenodd" clip-rule="evenodd" d="M13 20.15C13 19.7358 13.3358 19.4 13.75 19.4H24.15C24.5642 19.4 24.9 19.7358 24.9 20.15C24.9 20.5642 24.5642 20.9 24.15 20.9H13.75C13.3358 20.9 13 20.5642 13 20.15Z" fill="black"/>
</svg>
