<svg width="32" height="32" viewBox="0 0 32 32" fill="none" xmlns="http://www.w3.org/2000/svg">
<path fill-rule="evenodd" clip-rule="evenodd" d="M27.8275 15.3636L22.5501 10.0863C22.4349 9.97109 22.3636 9.812 22.3636 9.63636C22.3636 9.28445 22.6487 9 23 9C23.1756 9 23.3347 9.07127 23.4499 9.18645L29.8135 15.5501C29.9287 15.6659 30 15.8244 30 16C30 16.1756 29.9287 16.3347 29.8135 16.4499L23.4499 22.8135C23.3347 22.9294 23.1756 23 23 23C22.6487 23 22.3636 22.7155 22.3636 22.3636C22.3636 22.188 22.4349 22.0295 22.5501 21.9137L27.8275 16.6364H2.63636C2.28509 16.6364 2 16.3519 2 16C2 15.6481 2.28509 15.3636 2.63636 15.3636H27.8275Z" fill="black"/>
</svg>
