<svg width="32" height="32" viewBox="0 0 32 32" fill="none" xmlns="http://www.w3.org/2000/svg">
<path fill-rule="evenodd" clip-rule="evenodd" d="M8.85 15.95C8.85 11.95 12.05 8.75 16.05 8.75C20.05 8.75 23.25 11.95 23.25 15.95C23.25 19.95 20.05 23.15 16.05 23.15C12.05 23.15 8.85 19.95 8.85 15.95ZM11.35 15.95C11.35 18.55 13.45 20.65 16.05 20.65C18.65 20.65 20.75 18.55 20.75 15.95C20.75 13.35 18.65 11.25 16.05 11.25C13.45 11.25 11.35 13.35 11.35 15.95Z" fill="black"/>
<path d="M25.25 8.45C25.25 9.35 24.45 10.15 23.55 10.15C22.65 10.15 21.85 9.35 21.85 8.45C21.85 7.55 22.65 6.75 23.55 6.75C24.45 6.75 25.25 7.55 25.25 8.45Z" fill="black"/>
<path fill-rule="evenodd" clip-rule="evenodd" d="M3.5 9.85987V21.95C3.5 25.529 6.45743 28.4 9.95 28.4H22.15C25.6354 28.4 28.5054 25.5341 28.6 22.1398V9.95C28.6 6.37096 25.6426 3.5 22.15 3.5H9.95C6.47093 3.5 3.59474 6.35953 3.5 9.85987ZM2.00025 9.83078C2.11038 5.53538 5.63217 2 9.95 2H22.15C26.4574 2 30.1 5.52904 30.1 9.95V22.15L30.0997 22.1697C29.9892 26.3713 26.4613 29.9 22.15 29.9H9.95C5.64257 29.9 2 26.371 2 21.95V9.85L2.00025 9.83078Z" fill="black"/>
</svg>
