<svg width="32" height="32" viewBox="0 0 32 32" fill="none" xmlns="http://www.w3.org/2000/svg">
<path fill-rule="evenodd" clip-rule="evenodd" d="M5.75 3.5C4.46421 3.5 3.5 4.46421 3.5 5.75V12.5521L7.67261 10.8255C7.62505 10.6079 7.6 10.3819 7.6 10.15C7.6 8.4103 9.0103 7 10.75 7C12.3067 7 13.5996 8.12919 13.8544 9.61316L18.1685 11.2309C18.5921 9.99135 19.7669 9.1 21.15 9.1C22.5209 9.1 23.6872 9.97568 24.1201 11.1982L28.5 9.12769V5.75C28.5 4.46421 27.5358 3.5 26.25 3.5H5.75ZM28.5 10.7869L24.2531 12.7945C23.9952 14.2747 22.704 15.4 21.15 15.4C19.5933 15.4 18.3004 14.2708 18.0456 12.7868L13.7315 11.1691C13.3079 12.4086 12.1331 13.3 10.75 13.3C9.78101 13.3 8.91421 12.8625 8.33638 12.1742L3.5 14.1755V20.2038L7.74287 21.5093C8.14295 20.2291 9.33798 19.3 10.75 19.3C11.942 19.3 12.9793 19.9621 13.5144 20.9385L18.0003 20.3971C18.0001 20.3814 18 20.3657 18 20.35C18 18.6103 19.4103 17.2 21.15 17.2C22.7101 17.2 24.0054 18.3342 24.2561 19.8231L28.5 21.5046V10.7869ZM28.5 23.118L24.126 21.385C23.6979 22.6163 22.5271 23.5 21.15 23.5C19.958 23.5 18.9207 22.8379 18.3856 21.8615L13.8997 22.4029C13.8999 22.4186 13.9 22.4343 13.9 22.45C13.9 24.1897 12.4897 25.6 10.75 25.6C9.21632 25.6 7.93864 24.5039 7.65754 23.0524L3.5 21.7732V26.15C3.5 27.4358 4.46421 28.4 5.75 28.4H26.15C27.4353 28.4 28.4137 27.4306 28.5 26.225V23.118ZM2 5.75C2 3.63579 3.63579 2 5.75 2H26.25C28.3642 2 30 3.63579 30 5.75V26.25C30 26.2656 29.9995 26.2812 29.9985 26.2968C29.8745 28.2811 28.2569 29.9 26.15 29.9H5.75C3.63579 29.9 2 28.2642 2 26.15V5.75ZM10.75 8.5C9.83873 8.5 9.1 9.23873 9.1 10.15C9.1 11.0613 9.83873 11.8 10.75 11.8C11.6613 11.8 12.4 11.0613 12.4 10.15C12.4 9.23873 11.6613 8.5 10.75 8.5ZM21.15 10.6C20.2387 10.6 19.5 11.3387 19.5 12.25C19.5 13.1613 20.2387 13.9 21.15 13.9C22.0613 13.9 22.8 13.1613 22.8 12.25C22.8 11.3387 22.0613 10.6 21.15 10.6ZM21.15 18.7C20.2387 18.7 19.5 19.4387 19.5 20.35C19.5 21.2613 20.2387 22 21.15 22C22.0613 22 22.8 21.2613 22.8 20.35C22.8 19.4387 22.0613 18.7 21.15 18.7ZM10.75 20.8C9.83873 20.8 9.1 21.5387 9.1 22.45C9.1 23.3613 9.83873 24.1 10.75 24.1C11.6613 24.1 12.4 23.3613 12.4 22.45C12.4 21.5387 11.6613 20.8 10.75 20.8Z" fill="black"/>
</svg>
