<svg width="32" height="32" viewBox="0 0 32 32" fill="none" xmlns="http://www.w3.org/2000/svg">
<path fill-rule="evenodd" clip-rule="evenodd" d="M15.2401 6.76702C15.2401 6.35133 15.5771 6.01434 15.9928 6.01434C22.526 6.01434 27.9857 11.3649 27.9857 18.0072C27.9857 24.6451 22.6307 30 15.9928 30C9.35491 30 4 24.6451 4 18.0072C4 17.5915 4.33699 17.2545 4.75269 17.2545C5.16839 17.2545 5.50538 17.5915 5.50538 18.0072C5.50538 23.8137 10.1863 28.4946 15.9928 28.4946C21.7994 28.4946 26.4803 23.8137 26.4803 18.0072C26.4803 12.205 21.7034 7.51971 15.9928 7.51971C15.5771 7.51971 15.2401 7.18272 15.2401 6.76702Z" fill="black"/>
<path fill-rule="evenodd" clip-rule="evenodd" d="M19.5423 2.22707C19.8326 2.52462 19.8268 3.00116 19.5292 3.29145L15.96 6.77364L19.5358 10.3495C19.8298 10.6434 19.8298 11.12 19.5358 11.4139C19.2419 11.7079 18.7653 11.7079 18.4714 11.4139L14.3567 7.29926C14.2144 7.15696 14.135 6.96361 14.1362 6.76238C14.1375 6.56115 14.2192 6.36879 14.3633 6.22826L18.478 2.21393C18.7755 1.92364 19.2521 1.92952 19.5423 2.22707Z" fill="black"/>
<path fill-rule="evenodd" clip-rule="evenodd" d="M11.3373 7.71625C11.5336 8.08268 11.3957 8.53886 11.0293 8.73516C10.7068 8.90792 10.3942 9.09622 10.0927 9.29885C9.74767 9.53073 9.28 9.43901 9.04812 9.09399C8.81625 8.74897 8.90797 8.28131 9.25299 8.04943C9.59594 7.81894 9.95153 7.60474 10.3184 7.40821C10.6848 7.2119 11.141 7.34982 11.3373 7.71625ZM8.40422 9.62698C8.70039 9.91868 8.70402 10.3952 8.41232 10.6914C7.89854 11.2131 7.44223 11.7833 7.05335 12.3914C6.82939 12.7416 6.36393 12.844 6.01372 12.62C5.66352 12.396 5.56117 11.9306 5.78514 11.5804C6.23172 10.8821 6.75399 10.2299 7.33979 9.63507C7.63149 9.3389 8.10805 9.33528 8.40422 9.62698ZM5.64126 13.3692C6.03226 13.5103 6.23482 13.9417 6.09368 14.3327C5.97138 14.6715 5.86867 15.0171 5.78676 15.3682C5.6923 15.773 5.28755 16.0246 4.88273 15.9301C4.47791 15.8357 4.22631 15.4309 4.32076 15.0261C4.41628 14.6168 4.53581 14.2148 4.67773 13.8216C4.81887 13.4306 5.25026 13.228 5.64126 13.3692Z" fill="black"/>
</svg>
