<svg width="32" height="32" viewBox="0 0 32 32" fill="none" xmlns="http://www.w3.org/2000/svg">
<path d="M24.8731 3.56075C24.7352 3.40301 24.5326 3.30336 24.3066 3.30336H2.75191C2.33664 3.30336 2 3.64 2 4.05527V18.5922C2 19.0075 2.33664 19.3441 2.75191 19.3441C3.16718 19.3441 3.50382 19.0075 3.50382 18.5922V4.80718H23.6266L24.8731 3.56075Z" fill="black"/>
<path d="M22.1941 6.23971H5.68827C5.273 6.23971 4.93636 6.57636 4.93636 6.99162V23.4975L6.44017 21.9936V7.74353H20.6903L22.1941 6.23971Z" fill="black"/>
<path d="M16.5109 11.9229L14.3466 10.7171C14.1137 10.5873 13.8295 10.5906 13.5997 10.7256C13.3699 10.8607 13.2287 11.1073 13.2287 11.3739V15.2051L16.5109 11.9229Z" fill="black"/>
<path d="M14.1888 19.9163L20.153 13.9521L21.3644 14.627C21.6027 14.7597 21.7503 15.0111 21.7503 15.2838C21.7503 15.5566 21.6027 15.8079 21.3644 15.9407L14.3466 19.8506C14.296 19.8788 14.2431 19.9007 14.1888 19.9163Z" fill="black"/>
<path d="M11.3233 22.7817H28.4962V7.74353H26.3615L27.8654 6.23971H29.2481C29.6634 6.23971 30 6.57636 30 6.99162V23.5336C30 23.9489 29.6634 24.2855 29.2481 24.2855H18.2412V27.8657H21.8003C22.2155 27.8657 22.5522 28.2024 22.5522 28.6176C22.5522 29.0329 22.2155 29.3696 21.8003 29.3696H13.2786C12.8634 29.3696 12.5267 29.0329 12.5267 28.6176C12.5267 28.2024 12.8634 27.8657 13.2786 27.8657H16.7374V24.2855H9.81953L11.3233 22.7817Z" fill="black"/>
<path fill-rule="evenodd" clip-rule="evenodd" d="M29.0492 2.22023C29.3428 2.51387 29.3428 2.98995 29.0492 3.28359L3.98557 28.3472C3.69193 28.6409 3.21585 28.6409 2.92221 28.3472C2.62857 28.0536 2.62857 27.5775 2.92221 27.2839L27.9858 2.22023C28.2795 1.92659 28.7556 1.92659 29.0492 2.22023Z" fill="black"/>
</svg>
