<svg width="32" height="32" viewBox="0 0 32 32" fill="none" xmlns="http://www.w3.org/2000/svg">
<path fill-rule="evenodd" clip-rule="evenodd" d="M5.75269 11.8351C6.16839 11.8351 6.50538 12.1721 6.50538 12.5878V15.3978C6.50538 20.0001 10.2831 23.7778 14.8853 23.7778C17.5457 23.7778 19.9413 22.4945 21.5155 20.4573C21.7697 20.1284 22.2424 20.0678 22.5713 20.322C22.9003 20.5761 22.9609 21.0489 22.7067 21.3778C20.8687 23.7564 18.0457 25.2832 14.8853 25.2832C9.45168 25.2832 5 20.8315 5 15.3978V12.5878C5 12.1721 5.33699 11.8351 5.75269 11.8351Z" fill="black"/>
<path fill-rule="evenodd" clip-rule="evenodd" d="M14.4839 3.50538C11.9892 3.50538 10.0179 5.47663 10.0179 7.97133V15.6989C10.0179 18.1936 11.9892 20.1649 14.4839 20.1649H15.1864C15.5331 20.1649 15.8083 20.1085 16.2155 20.0251C16.2871 20.0105 16.3629 19.995 16.4438 19.9788C16.8514 19.8972 17.2479 20.1616 17.3295 20.5692C17.411 20.9769 17.1466 21.3734 16.739 21.4549C16.6735 21.468 16.6073 21.4817 16.5403 21.4956C16.1343 21.5798 15.6978 21.6702 15.1864 21.6702H14.4839C11.1578 21.6702 8.51254 19.025 8.51254 15.6989V7.97133C8.51254 4.64523 11.1578 2 14.4839 2H15.1864C16.205 2 17.1394 2.22759 17.9684 2.70132C18.3293 2.90757 18.4547 3.36735 18.2485 3.72828C18.0423 4.0892 17.5825 4.2146 17.2215 4.00835C16.6456 3.67922 15.9742 3.50538 15.1864 3.50538H14.4839Z" fill="black"/>
<path fill-rule="evenodd" clip-rule="evenodd" d="M14.0323 29.2473V24.4301H15.5376V29.2473H14.0323Z" fill="black"/>
<path fill-rule="evenodd" clip-rule="evenodd" d="M8.51254 29.2473C8.51254 28.8316 8.84953 28.4946 9.26523 28.4946H20.405C20.8207 28.4946 21.1577 28.8316 21.1577 29.2473C21.1577 29.663 20.8207 30 20.405 30H9.26523C8.84953 30 8.51254 29.663 8.51254 29.2473Z" fill="black"/>
<path d="M27.7312 14.3943L22.914 5.8638C22.6129 5.26165 22.0107 4.96057 21.4086 4.96057C20.8064 4.96057 20.2043 5.26165 19.9032 5.8638L14.9857 14.3943C14.6846 14.8961 14.6846 15.5986 14.9857 16.2007C15.2867 16.7025 15.8889 17.1039 16.491 17.1039H26.2258C26.828 17.1039 27.4301 16.8029 27.7312 16.2007C28.0323 15.5986 28.0323 14.9964 27.7312 14.3943ZM20.6057 8.2724C20.6057 7.87097 20.9068 7.46953 21.4086 7.46953C21.81 7.46953 22.2115 7.77061 22.2115 8.2724V11.3835C22.2115 11.7849 21.9104 12.1864 21.4086 12.1864C21.0072 12.1864 20.6057 11.8853 20.6057 11.3835V8.2724ZM21.3082 15.1971C20.7061 15.1971 20.3047 14.6953 20.3047 14.1935C20.3047 13.6918 20.7061 13.19 21.3082 13.19C21.9104 13.19 22.3118 13.6918 22.3118 14.1935C22.3118 14.6953 21.9104 15.1971 21.3082 15.1971Z" fill="black"/>
</svg>
