<svg width="32" height="32" viewBox="0 0 32 32" fill="none" xmlns="http://www.w3.org/2000/svg">
<path d="M27.8275 15.8721L22.5501 20.954C22.4349 21.0649 22.3636 21.2181 22.3636 21.3872C22.3636 21.7261 22.6487 22 23 22C23.1756 22 23.3347 21.9314 23.4499 21.8205L29.8135 15.6925C29.9287 15.581 30 15.4284 30 15.2593C30 15.0901 29.9287 14.9369 29.8135 14.826L23.4499 8.69807C23.3347 8.58654 23.1756 8.51852 23 8.51852C22.6487 8.51852 22.3636 8.79244 22.3636 9.13131C22.3636 9.30044 22.4349 9.45303 22.5501 9.56456L27.8275 14.6465L2.63636 14.6465C2.28509 14.6465 2 14.9204 2 15.2593C2 15.5981 2.28509 15.8721 2.63636 15.8721L27.8275 15.8721Z" fill="black"/>
</svg>
