<svg width="32" height="32" viewBox="0 0 32 32" fill="none" xmlns="http://www.w3.org/2000/svg">
<path d="M16 18.2C17.1046 18.2 18 17.3046 18 16.2C18 15.0954 17.1046 14.2 16 14.2C14.8954 14.2 14 15.0954 14 16.2C14 17.3046 14.8954 18.2 16 18.2Z" fill="black"/>
<path d="M16 27.4C17.1046 27.4 18 26.5046 18 25.4C18 24.2954 17.1046 23.4 16 23.4C14.8954 23.4 14 24.2954 14 25.4C14 26.5046 14.8954 27.4 16 27.4Z" fill="black"/>
<path d="M16 9C17.1046 9 18 8.10457 18 7C18 5.89543 17.1046 5 16 5C14.8954 5 14 5.89543 14 7C14 8.10457 14.8954 9 16 9Z" fill="black"/>
</svg>
