<svg width="32" height="32" viewBox="0 0 32 32" fill="none" xmlns="http://www.w3.org/2000/svg">
<path fill-rule="evenodd" clip-rule="evenodd" d="M13.491 3.50533C7.97606 3.50533 3.50533 7.97606 3.50533 13.491C3.50533 19.0059 7.97606 23.4767 13.491 23.4767C19.0059 23.4767 23.4767 19.0059 23.4767 13.491C23.4767 7.97606 19.0059 3.50533 13.491 3.50533ZM1.99995 13.491C1.99995 7.14467 7.14467 1.99995 13.491 1.99995C19.8373 1.99995 24.982 7.14467 24.982 13.491C24.982 19.8373 19.8373 24.982 13.491 24.982C7.14467 24.982 1.99995 19.8373 1.99995 13.491Z" fill="black"/>
<path fill-rule="evenodd" clip-rule="evenodd" d="M20.9874 20.9874C21.2814 20.6935 21.758 20.6935 22.0519 20.9874L29.7795 28.715C30.0734 29.009 30.0734 29.4856 29.7795 29.7795C29.4856 30.0734 29.009 30.0734 28.715 29.7795L20.9874 22.0519C20.6935 21.758 20.6935 21.2814 20.9874 20.9874Z" fill="black"/>
<path fill-rule="evenodd" clip-rule="evenodd" d="M7.41931 9.3763C7.41931 8.9606 7.7563 8.62361 8.172 8.62361H14.3942C14.8099 8.62361 15.1469 8.9606 15.1469 9.3763C15.1469 9.792 14.8099 10.129 14.3942 10.129H8.172C7.7563 10.129 7.41931 9.792 7.41931 9.3763Z" fill="black"/>
<path fill-rule="evenodd" clip-rule="evenodd" d="M16.9534 9.3763C16.9534 8.9606 17.2903 8.62361 17.706 8.62361H18.81C19.2257 8.62361 19.5627 8.9606 19.5627 9.3763C19.5627 9.792 19.2257 10.129 18.81 10.129H17.706C17.2903 10.129 16.9534 9.792 16.9534 9.3763Z" fill="black"/>
<path fill-rule="evenodd" clip-rule="evenodd" d="M7.41931 13.491C7.41931 13.0753 7.7563 12.7383 8.172 12.7383H14.3942C14.8099 12.7383 15.1469 13.0753 15.1469 13.491C15.1469 13.9067 14.8099 14.2437 14.3942 14.2437H8.172C7.7563 14.2437 7.41931 13.9067 7.41931 13.491Z" fill="black"/>
<path fill-rule="evenodd" clip-rule="evenodd" d="M16.9534 13.491C16.9534 13.0753 17.2903 12.7383 17.706 12.7383H18.81C19.2257 12.7383 19.5627 13.0753 19.5627 13.491C19.5627 13.9067 19.2257 14.2437 18.81 14.2437H17.706C17.2903 14.2437 16.9534 13.9067 16.9534 13.491Z" fill="black"/>
<path fill-rule="evenodd" clip-rule="evenodd" d="M7.41931 17.6057C7.41931 17.19 7.7563 16.853 8.172 16.853H14.3942C14.8099 16.853 15.1469 17.19 15.1469 17.6057C15.1469 18.0214 14.8099 18.3584 14.3942 18.3584H8.172C7.7563 18.3584 7.41931 18.0214 7.41931 17.6057Z" fill="black"/>
<path fill-rule="evenodd" clip-rule="evenodd" d="M16.9534 17.6057C16.9534 17.19 17.2903 16.853 17.706 16.853H18.81C19.2257 16.853 19.5627 17.19 19.5627 17.6057C19.5627 18.0214 19.2257 18.3584 18.81 18.3584H17.706C17.2903 18.3584 16.9534 18.0214 16.9534 17.6057Z" fill="black"/>
</svg>
