<svg width="32" height="32" viewBox="0 0 32 32" fill="none" xmlns="http://www.w3.org/2000/svg">
<path fill-rule="evenodd" clip-rule="evenodd" d="M18.2791 6.19076H25.4418V11.4223H18.2791V6.19076ZM24.8892 10.8697H18.8317V6.74339H24.8892V10.8697Z" fill="black"/>
<path fill-rule="evenodd" clip-rule="evenodd" d="M25.3733 12.7302H18.2105V17.9618H25.3733V12.7302ZM18.7631 17.4092H24.8207V13.2829H18.7631V17.4092Z" fill="black"/>
<path fill-rule="evenodd" clip-rule="evenodd" d="M13.5838 11.7631H6.42104V16.9947H13.5838V11.7631ZM6.97367 16.4421H9.649V12.3158H6.97367V16.4421ZM10.2016 16.4421H13.0312V12.3158H10.2016V16.4421Z" fill="black"/>
<path fill-rule="evenodd" clip-rule="evenodd" d="M13.5838 18.7631H6.42104V23.9947H13.5838V18.7631ZM6.97367 23.4421H9.64901V19.3158H6.97367V23.4421ZM10.2016 23.4421H13.0312V19.3158H10.2016V23.4421Z" fill="black"/>
<path fill-rule="evenodd" clip-rule="evenodd" d="M27.7717 2.92102H15.6744V8.80655H3.95348V27.771H2V29.0789H30V27.771H27.7717V2.92102ZM27.2191 27.771H25.3733V19.8684H18.2105V27.771H16.227V3.47365H27.2191V27.771ZM15.4981 27.771V9.35917H4.5061V27.771H15.4981ZM18.7631 27.771V20.421H24.8207V27.771H18.7631Z" fill="black"/>
</svg>
