<svg width="32" height="32" viewBox="0 0 32 32" fill="none" xmlns="http://www.w3.org/2000/svg">
<path fill-rule="evenodd" clip-rule="evenodd" d="M20.3656 2.75269C20.3656 2.33699 20.7026 2 21.1183 2H29.2473C29.663 2 30 2.33699 30 2.75269V10.8817C30 11.2974 29.663 11.6344 29.2473 11.6344C28.8316 11.6344 28.4946 11.2974 28.4946 10.8817V4.56984L13.2204 19.8441C13.2202 19.8442 13.2206 19.8439 13.2204 19.8441L4.56984 28.4946H10.8817C11.2974 28.4946 11.6344 28.8316 11.6344 29.2473C11.6344 29.663 11.2974 30 10.8817 30H2.75269C2.33699 30 2 29.663 2 29.2473V21.1183C2 20.7026 2.33699 20.3656 2.75269 20.3656C3.16839 20.3656 3.50538 20.7026 3.50538 21.1183V27.4302L12.1558 18.7798C12.1558 18.7797 12.1557 18.7798 12.1558 18.7798L13.3602 17.5753C13.3603 17.5752 13.3602 17.5753 13.3602 17.5753L27.4302 3.50538H21.1183C20.7026 3.50538 20.3656 3.16839 20.3656 2.75269Z" fill="black"/>
</svg>
