<svg width="32" height="32" viewBox="0 0 32 32" fill="none" xmlns="http://www.w3.org/2000/svg">
<path fill-rule="evenodd" clip-rule="evenodd" d="M27.9148 6.29383C28.2745 6.61486 28.7135 7.05202 29.2651 7.60152L29.267 7.60333C29.9284 8.26898 30.3101 9.30333 30.4417 10.5081C30.5744 11.7233 30.4595 13.1669 30.0723 14.7186C29.2974 17.8239 27.4193 21.4124 24.1433 24.5556C20.8743 27.6992 17.1804 29.4621 14.0028 30.1538C12.4148 30.4994 10.9432 30.5802 9.70979 30.4235C8.48761 30.2682 7.44383 29.8719 6.77851 29.2085L6.77671 29.2067L6.7194 29.1489C6.20089 28.6267 5.78575 28.2085 5.47867 27.8651C5.16803 27.5176 4.92036 27.1963 4.79777 26.8746C4.65701 26.5052 4.68893 26.1598 4.86508 25.8292C5.01726 25.5436 5.27721 25.2717 5.55871 24.9944L5.56448 24.9887L8.5001 22.1895C9.23024 21.507 10.2124 21.1607 11.2092 21.2343C12.1959 21.3072 13.1079 21.7849 13.7295 22.5534C14.4014 23.2173 15.1153 23.5224 16.0542 23.3346C17.0613 23.1331 18.3969 22.3524 20.2253 20.6C22.0584 18.8445 22.8791 17.553 23.1024 16.5765C23.3091 15.6732 23.0173 14.9732 22.3531 14.3011C21.5846 13.6878 21.1126 12.7764 21.0559 11.7938C20.9986 10.8006 21.3713 9.83061 22.079 9.13126L22.085 9.1253L25.0089 6.33229L25.01 6.3312C25.2941 6.05643 25.5727 5.80397 25.8645 5.65816C26.1999 5.49057 26.5459 5.46521 26.9145 5.60692C27.239 5.73164 27.5631 5.97992 27.9148 6.29383ZM26.3115 6.5527C26.1757 6.62055 25.9985 6.76629 25.7041 7.05104L25.7019 7.05321L22.779 9.84539C22.2776 10.3426 22.0136 11.0311 22.0543 11.7362C22.095 12.4427 22.4377 13.0975 22.9949 13.5337L23.0187 13.5524L23.0402 13.5738C23.8898 14.4234 24.3829 15.4631 24.0773 16.7995C23.7862 18.0717 22.7852 19.5331 20.9173 21.322C19.052 23.1097 17.5448 24.0562 16.2504 24.3152C14.8965 24.586 13.8548 24.0924 13.0037 23.242L12.9835 23.2218L12.9658 23.1994C12.5175 22.6355 11.8539 22.2846 11.1355 22.2316C10.4179 22.1786 9.71073 22.4276 9.18465 22.9185L9.183 22.92L6.25755 25.7097C5.96618 25.9968 5.81741 26.1684 5.74764 26.2994C5.7016 26.3858 5.69862 26.4303 5.73222 26.5185C5.78399 26.6544 5.91994 26.8583 6.22415 27.1985C6.5134 27.522 6.91216 27.9237 7.44568 28.4611L7.48459 28.5004L7.48533 28.5011C7.93161 28.9456 8.72603 29.2904 9.83583 29.4314C10.935 29.5711 12.2901 29.5031 13.7901 29.1766C16.7885 28.524 20.3157 26.8491 23.4502 23.8347C26.5919 20.8205 28.3732 17.3972 29.102 14.4765C29.4667 13.0151 29.565 11.692 29.4476 10.6166C29.3291 9.53152 28.9978 8.75185 28.5585 8.30911C27.9994 7.75222 27.5833 7.33825 27.249 7.0399C26.9065 6.73427 26.6977 6.59491 26.5557 6.54033C26.4579 6.50273 26.4041 6.50642 26.3115 6.5527Z" fill="black"/>
<path fill-rule="evenodd" clip-rule="evenodd" d="M7.61307 18.0327V2.76353H8.61307V18.0327H7.61307Z" fill="black"/>
<path fill-rule="evenodd" clip-rule="evenodd" d="M8.11307 1.29297L14.5743 7.75418L13.8672 8.46129L8.11307 2.70718L2.35896 8.46129L1.65186 7.75418L8.11307 1.29297Z" fill="black"/>
</svg>
