<svg width="32" height="32" viewBox="0 0 32 32" fill="none" xmlns="http://www.w3.org/2000/svg">
<path fill-rule="evenodd" clip-rule="evenodd" d="M9 2H20.6667V11.3333H30V30H9V2ZM19.5 12.5V3.16667H10.1667V28.8333H28.8333V12.5H19.5Z" fill="black"/>
<path fill-rule="evenodd" clip-rule="evenodd" d="M20.0833 2.08333H20.8738L29.9167 11.1262V11.9167H28.9167V11.5404L20.4596 3.08333H20.0833V2.08333Z" fill="black"/>
<path d="M15.9998 19.5V24.1667H11.3332V19.5H15.9998Z" fill="black"/>
<path fill-rule="evenodd" clip-rule="evenodd" d="M26.5 17.1666H2V26.5H26.5V17.1666ZM3.1665 18.3333H4.33317V25.3333H3.1665V18.3333ZM7.83317 24.1667V25.3333L4.33317 25.3333L4.33317 24.1667H7.83317ZM7.83317 19.5H8.99984V24.1667H7.83317V19.5ZM7.83317 19.5V18.3333L4.33317 18.3333L4.33317 19.5H7.83317ZM15.9998 18.3333H11.3332V19.5H10.1665V24.1667H11.3332V25.3333H15.9998V24.1667H17.1665V19.5H15.9998V18.3333ZM24.1665 18.3333H19.4998V19.5H18.3332V24.1667H19.4998V25.3333H24.1665V24.1667H25.3332V23H24.1665V24.1667H19.4998V19.5H24.1665V20.6667H25.3332V19.5H24.1665V18.3333Z" fill="black"/>
</svg>
