<svg width="32" height="32" viewBox="0 0 32 32" fill="none" xmlns="http://www.w3.org/2000/svg">
<path fill-rule="evenodd" clip-rule="evenodd" d="M16.5158 28.1826C18.2902 28.751 20.1454 29.0258 22.0083 28.9963H21.9938C22.6835 28.9939 23.3725 28.9503 24.0571 28.8656C26.2897 28.7557 28.0189 26.871 27.9367 24.6372C27.9509 24.4444 28.0161 24.2589 28.1256 24.0996C28.726 23.1754 28.9831 22.0699 28.8521 20.9756C28.8229 20.9008 28.8229 20.8178 28.8521 20.7431C29.3774 19.7908 29.5277 18.6765 29.2735 17.6191C29.2869 17.4932 29.3212 17.3704 29.3752 17.2558C29.4973 16.9284 29.638 16.6082 29.7966 16.2968L30 15.8609V14.2626L29.9273 14.1173L29.7385 13.7104C29.5785 13.3468 29.389 12.9969 29.1718 12.6642C28.4757 11.7147 27.3552 11.1708 26.1785 11.2112H22.9673L23.0981 10.9932C23.9008 9.52093 24.1581 7.81255 23.8246 6.16915V6.09649C23.4561 4.05633 21.507 2.69845 19.4655 3.05965C18.8762 3.1394 18.3703 3.51883 18.1287 4.06224C17.7467 4.79978 17.454 5.58025 17.2569 6.3871C17.0586 7.47423 16.5546 8.48231 15.8038 9.29317C15.2226 9.90345 14.685 10.5718 14.1764 11.2112L13.261 12.33C12.9465 12.8043 12.4803 13.1577 11.9388 13.3326C11.128 13.5524 10.6139 14.3486 10.7473 15.178V24.9569C10.6944 25.4276 10.8321 25.8998 11.1296 26.2684C11.4272 26.6369 11.8598 26.871 12.3311 26.9185C13.6098 27.2672 14.9465 27.6741 16.5158 28.1826ZM19.48 4.49815H19.8433L19.9014 4.48362C21.1113 4.33786 22.2131 5.19332 22.3716 6.40162C22.6362 7.71356 22.4305 9.0768 21.7904 10.2522C21.6451 10.5282 21.4998 10.8043 21.3545 11.124L20.6279 12.577H26.3529C27.0608 12.5666 27.7309 12.8962 28.1547 13.4634C28.31 13.7142 28.446 13.9765 28.5615 14.248L28.6923 14.5532V15.4395L28.5615 15.7156C28.3842 16.052 28.2336 16.4018 28.1111 16.7618C27.9367 17.1227 27.8808 17.5296 27.9512 17.9242C28.1279 18.6426 28.024 19.4013 27.6606 20.0456C27.4701 20.3606 27.3743 20.7238 27.3846 21.0918C27.481 21.8538 27.3061 22.6254 26.8905 23.2714C26.6364 23.6535 26.4816 24.093 26.4401 24.55C26.4472 24.6079 26.4472 24.6665 26.4401 24.7244C26.4715 25.4294 26.2183 26.1175 25.7374 26.6339C25.2565 27.1503 24.5882 27.4519 23.8827 27.4706C21.5462 27.7213 19.1831 27.4939 16.9372 26.8022C15.3534 26.2937 13.973 25.8723 12.6944 25.5236C12.4221 25.4458 12.2956 25.4096 12.2368 25.3259C12.1858 25.2533 12.1858 25.1449 12.1858 24.9424V15.1489C12.1444 15 12.171 14.8404 12.2584 14.713C13.1044 14.4799 13.8468 13.9678 14.3653 13.26C14.565 13.024 14.7534 12.788 14.9445 12.5485C15.0594 12.4045 15.1753 12.2593 15.2953 12.1121C15.8039 11.4582 16.2979 10.8479 16.8355 10.2812C17.7595 9.27658 18.3705 8.02429 18.5937 6.6777C18.7804 5.98187 19.0335 5.30554 19.3493 4.65798L19.48 4.49815Z" fill="black"/>
<path fill-rule="evenodd" clip-rule="evenodd" d="M3.75817 26.715H7.57966C8.04456 26.7191 8.4912 26.5342 8.8172 26.2027C9.1432 25.8713 9.32061 25.4216 9.30877 24.9568V15.2651C9.30877 14.3021 8.52812 13.5214 7.56513 13.5214H3.75817C2.79281 13.5214 2.00798 14.2998 2 15.2651V24.9714C1.99998 25.4363 2.18568 25.8821 2.51583 26.2095C2.84597 26.5369 3.29322 26.7189 3.75817 26.715ZM3.45304 15.2651C3.47317 15.1082 3.60051 14.9869 3.75817 14.9744H7.56513C7.72249 14.9818 7.8484 15.1077 7.85574 15.2651V24.9568C7.85574 25.1173 7.72563 25.2474 7.56513 25.2474H3.75817C3.59797 25.2408 3.46747 25.1165 3.45304 24.9568V15.2651Z" fill="black"/>
</svg>
