<svg width="32" height="32" viewBox="0 0 32 32" fill="none" xmlns="http://www.w3.org/2000/svg">
<path fill-rule="evenodd" clip-rule="evenodd" d="M2 6.4C2 5.98579 2.33579 5.65 2.75 5.65H20.35C20.7642 5.65 21.1 5.98579 21.1 6.4C21.1 6.81421 20.7642 7.15 20.35 7.15H2.75C2.33579 7.15 2 6.81421 2 6.4Z" fill="black"/>
<path fill-rule="evenodd" clip-rule="evenodd" d="M2 15.7C2 15.2858 2.33579 14.95 2.75 14.95H20.35C20.7642 14.95 21.1 15.2858 21.1 15.7C21.1 16.1142 20.7642 16.45 20.35 16.45H2.75C2.33579 16.45 2 16.1142 2 15.7Z" fill="black"/>
<path fill-rule="evenodd" clip-rule="evenodd" d="M2 25.1C2 24.6858 2.33579 24.35 2.75 24.35H20.35C20.7642 24.35 21.1 24.6858 21.1 25.1C21.1 25.5142 20.7642 25.85 20.35 25.85H2.75C2.33579 25.85 2 25.5142 2 25.1Z" fill="black"/>
<path d="M27.95 9.7H26.75V4.6L25.35 5.1V4L27.85 3H27.95V9.7Z" fill="black"/>
<path d="M24.95 19.2V18.3L26.95 16C27.25 15.7 27.45 15.4 27.55 15.1C27.65 14.9 27.75 14.6 27.75 14.4C27.75 14.1 27.65 13.9 27.55 13.7C27.45 13.5 27.25 13.4 26.95 13.4C26.65 13.4 26.45 13.5 26.35 13.7C26.15 13.9 26.15 14.2 26.15 14.5H24.95C24.95 14.1 25.05 13.7 25.25 13.4C25.45 13.1 25.65 12.8 25.95 12.6C26.25 12.4 26.65 12.3 27.05 12.3C27.65 12.3 28.15 12.5 28.55 12.8C28.85 13.1 29.05 13.6 29.05 14.2C29.05 14.5 28.95 14.9 28.85 15.2C28.65 15.5 28.45 15.9 28.05 16.4L26.65 18H29.25V19.2H24.95Z" fill="black"/>
<path d="M26.95 24.5C27.25 24.5 27.45 24.4 27.65 24.2C27.75 24 27.85 23.8 27.85 23.5C27.85 23.2 27.75 23 27.65 22.9C27.55 22.7 27.35 22.7 27.05 22.7C26.85 22.7 26.65 22.8 26.45 22.9C26.25 23 26.25 23.2 26.25 23.4H24.95C24.95 23 25.05 22.7 25.25 22.5C25.45 22.2 25.65 22 25.95 21.8C26.25 21.6 26.55 21.6 26.95 21.6C27.55 21.6 28.05 21.8 28.45 22.1C28.85 22.4 28.95 22.9 28.95 23.5C28.95 23.8 28.85 24.1 28.65 24.4C28.45 24.7 28.25 24.9 27.95 25C28.25 25.1 28.55 25.3 28.75 25.6C28.95 25.9 29.05 26.2 29.05 26.6C29.05 27.2 28.85 27.7 28.45 28C28.05 28.4 27.55 28.5 26.85 28.5C26.25 28.5 25.75 28.3 25.35 28C24.95 27.6 24.75 27.2 24.75 26.6H25.95C25.95 26.9 26.05 27.1 26.25 27.2C26.45 27.3 26.65 27.4 26.85 27.4C27.15 27.4 27.35 27.3 27.55 27.1C27.75 26.9 27.75 26.7 27.75 26.4C27.75 25.7 27.45 25.4 26.75 25.4H26.15V24.5H26.95Z" fill="black"/>
</svg>
