<svg width="32" height="32" viewBox="0 0 32 32" fill="none" xmlns="http://www.w3.org/2000/svg">
<path fill-rule="evenodd" clip-rule="evenodd" d="M7.88968 17.4471V13.2366C7.88968 12.9755 8.10131 12.7639 8.36237 12.7639C8.62343 12.7639 8.83506 12.9755 8.83506 13.2366V17.4471C8.83506 20.6314 11.4837 23.2542 14.6984 23.2542C17.2447 23.2542 19.4349 21.6096 20.2364 19.3439L18.9102 18.0333C18.715 20.1406 16.9507 21.7634 14.7672 21.7634C12.45 21.7634 10.6063 19.9372 10.6063 17.6435V9.82651L5.51114 4.79097C5.32498 4.60699 5.3247 4.30646 5.51053 4.12213C5.69377 3.94038 5.9892 3.94012 6.17277 4.12155L10.6063 8.50357V6.12168C10.6063 3.82628 12.45 2 14.7672 2C17.0836 2 18.9282 3.82628 18.9282 6.12168V16.7288L20.5003 18.2826C20.5408 18.0095 20.5617 17.7306 20.5617 17.4471V13.237C20.5617 12.9757 20.7736 12.7639 21.0349 12.7639C21.2962 12.7639 21.508 12.9757 21.508 13.237V17.4471C21.508 18.0083 21.4373 18.5545 21.3042 19.0772L26.4891 24.2019C26.6748 24.3855 26.6753 24.6853 26.4901 24.8694C26.3072 25.0513 26.0118 25.0518 25.8283 24.8705L20.9673 20.0663C19.9858 22.3431 17.7707 23.9941 15.1738 24.1751V29.0635H18.4599C18.7185 29.0635 18.9282 29.2732 18.9282 29.5318C18.9282 29.7904 18.7185 30 18.4599 30H10.972C10.7134 30 10.5038 29.7904 10.5038 29.5318C10.5038 29.2732 10.7134 29.0635 10.972 29.0635H14.2285V24.1754C10.7087 23.933 7.88968 20.9899 7.88968 17.4471ZM17.9819 15.7935V6.12168C17.9819 4.38869 16.5167 2.93646 14.7672 2.93646C13.0177 2.93646 11.5517 4.38869 11.5517 6.12168V9.43797L17.9819 15.7935ZM11.5517 10.7608V17.6435C11.5517 19.3756 13.0177 20.827 14.7672 20.827C16.5167 20.827 17.9819 19.3756 17.9819 17.6435V17.1158L11.5517 10.7608Z" fill="black"/>
</svg>
