<svg width="32" height="32" viewBox="0 0 32 32" fill="none" xmlns="http://www.w3.org/2000/svg">
<path fill-rule="evenodd" clip-rule="evenodd" d="M13.6517 8.35774C14.5546 7.41946 15.8117 6.83736 17.2022 6.83736C19.0508 6.83736 20.6631 7.86521 21.522 9.39129C22.2684 9.05884 23.0943 8.8737 23.9634 8.8737C27.2972 8.8737 30 11.593 30 14.9473C30 18.3021 27.2972 21.0214 23.9634 21.0214C23.5565 21.0214 23.1589 20.9804 22.7742 20.9032C22.0182 22.2483 20.5771 23.1575 18.9228 23.1575C18.2307 23.1575 17.5759 22.9982 16.9924 22.7142C16.2261 24.5128 14.4397 25.7742 12.3583 25.7742C10.1904 25.7742 8.34268 24.4061 7.63363 22.4872C7.32375 22.5525 7.00238 22.5869 6.67317 22.5869C4.09216 22.5869 2 20.4784 2 17.8772C2 16.1336 2.93949 14.6116 4.33655 13.7972C4.04896 13.1368 3.88928 12.4086 3.88928 11.6427C3.88928 8.65123 6.32423 6.22583 9.32744 6.22583C11.0908 6.22583 12.6579 7.0619 13.6517 8.35774Z" fill="black"/>
</svg>
