<svg width="32" height="32" viewBox="0 0 32 32" fill="none" xmlns="http://www.w3.org/2000/svg">
<path d="M21.7109 27.2541C23.3516 25.9949 24.1719 24.2402 24.1719 21.99C24.1719 20.2411 23.665 18.8187 22.6514 17.7227C22.3571 17.4046 21.9921 17.0924 21.5562 16.7861H30V14.7962H17.5065C17.3693 14.7455 17.2298 14.695 17.0879 14.6447C15.4824 14.0733 14.29 13.5516 13.5107 13.0794C12.7314 12.6072 12.1777 12.0884 11.8496 11.5229C11.5215 10.9574 11.3574 10.2316 11.3574 9.34553C11.3574 8.14463 11.8027 7.20607 12.6934 6.52983C13.584 5.85359 14.8203 5.51548 16.4023 5.51548C18.4063 5.51548 20.4687 5.95853 22.5898 6.84463L23.5215 4.25628C21.3769 3.32354 19.0274 2.85718 16.4727 2.85718C14.0234 2.85718 12.0547 3.44013 10.5664 4.60606C9.07812 5.77199 8.33398 7.34014 8.33398 9.31056C8.33398 11.1877 8.84667 12.7092 9.87207 13.8751C10.1524 14.1939 10.4838 14.501 10.8663 14.7962H2V16.7861H14.6807C14.7845 16.8246 14.8896 16.8628 14.9961 16.9007C16.707 17.507 17.9814 18.0491 18.8193 18.5272C19.6572 19.0052 20.2549 19.5269 20.6123 20.0924C20.9697 20.6579 21.1484 21.3837 21.1484 22.2698C21.1484 23.6106 20.6445 24.657 19.6367 25.409C18.6289 26.1611 17.1289 26.5371 15.1367 26.5371C13.918 26.5371 12.6875 26.4088 11.4453 26.1523C10.2031 25.8958 9.05469 25.546 8 25.103V27.9711C9.64063 28.7523 11.9844 29.1429 15.0312 29.1429C17.8438 29.1429 20.0703 28.5133 21.7109 27.2541Z" fill="black"/>
</svg>
