<svg width="32" height="32" viewBox="0 0 32 32" fill="none" xmlns="http://www.w3.org/2000/svg">
<path d="M28.12 14.17C27.96 13.13 27.31 12.29 26.42 11.85C26.16 6.29 21.39 2 15.25 2C9.03 2 4.15 6.53 4.15 12.32V12.91C2.92 13.16 2 14.25 2 15.54V19.83C2 21.32 3.21 22.52 4.69 22.52C6.18 22.52 7.38 21.31 7.38 19.83V15.54C7.38 14.2 6.39 13.09 5.11 12.89V12.32C5.11 7.08 9.55 2.98 15.22 2.97C20.61 2.99 25.02 6.69 25.43 11.56C25.26 11.54 25.09 11.52 24.91 11.53C23.19 11.58 21.85 12.97 21.85 14.69V22.32C21.85 23.91 23.05 25.22 24.58 25.43C23.72 26.27 22.63 26.84 21.44 27.07C21.19 26.03 20.26 25.26 19.14 25.26H14.81C13.51 25.26 12.44 26.33 12.44 27.63C12.44 28.93 13.51 30 14.81 30H19.14C20.3 30 21.27 29.15 21.47 28.04C23.26 27.73 24.87 26.76 25.97 25.31C27.1 24.94 27.96 23.95 28.13 22.74C28.86 22.39 29.34 21.65 29.35 20.82V16.1C29.35 15.27 28.86 14.52 28.12 14.17ZM6.42 15.54V19.83C6.42 20.78 5.64 21.56 4.69 21.56C3.74 21.56 2.96 20.78 2.96 19.83V15.54C2.96 14.59 3.73 13.81 4.69 13.81C5.65 13.81 6.42 14.59 6.42 15.54ZM19.15 29.03H14.82C14.05 29.03 13.42 28.4 13.41 27.62C13.41 26.85 14.04 26.22 14.82 26.21H19.15C19.92 26.21 20.55 26.84 20.56 27.61C20.55 28.4 19.92 29.03 19.15 29.03ZM28.39 20.82C28.39 21.33 28.04 21.79 27.55 21.94L27.21 22.04L27.2 22.39C27.17 23.58 26.19 24.5 24.98 24.51C23.79 24.49 22.82 23.51 22.82 22.32V14.69C22.82 13.5 23.75 12.54 24.94 12.5C24.96 12.5 24.99 12.5 25.01 12.5C26.17 12.5 27.12 13.39 27.19 14.56L27.21 14.9L27.54 14.99C28.04 15.13 28.38 15.59 28.39 16.11V20.82Z" fill="black"/>
</svg>
