<svg width="32" height="32" viewBox="0 0 32 32" fill="none" xmlns="http://www.w3.org/2000/svg">
<path fill-rule="evenodd" clip-rule="evenodd" d="M2.05005 2.05005H12.8V3.55005H3.55005V13H2.05005V2.05005Z" fill="black"/>
<path fill-rule="evenodd" clip-rule="evenodd" d="M15.25 2.05005H29.9501V16.75H19.2001V15.25H28.4501V3.55005H16.75V29.9501H2.05005V15.25H12.8V16.75H3.55005V28.4501H15.25V2.05005Z" fill="black"/>
<path fill-rule="evenodd" clip-rule="evenodd" d="M19.25 5.95005H26.3V7.45005H20.75V11.25H26.3V12.75H19.25V5.95005Z" fill="black"/>
<path fill-rule="evenodd" clip-rule="evenodd" d="M11.25 20.75H5.70005V19.25H12.75V26.05H5.70005V24.55H11.25V20.75Z" fill="black"/>
<path fill-rule="evenodd" clip-rule="evenodd" d="M6.05005 5.70005H7.55005V11.25H12.8V12.75H6.05005V5.70005Z" fill="black"/>
<path d="M12.8 5.70005H9.60005V8.90005H12.8V5.70005Z" fill="black"/>
<path fill-rule="evenodd" clip-rule="evenodd" d="M28.4501 28.4501V19H29.9501V29.9501H19.2001V28.4501H28.4501Z" fill="black"/>
<path fill-rule="evenodd" clip-rule="evenodd" d="M19.2001 19.25H25.9501V26.3H24.4501V20.75H19.2001V19.25Z" fill="black"/>
<path d="M19.1943 26.3062H22.3942V23.1063H19.1943V26.3062Z" fill="black"/>
</svg>
