<svg width="32" height="32" viewBox="0 0 32 32" fill="none" xmlns="http://www.w3.org/2000/svg">
<path fill-rule="evenodd" clip-rule="evenodd" d="M27.4423 17.05H18.5577C18.1123 17.05 17.75 16.6876 17.75 16.242V11.908C17.75 11.4624 18.1123 11.1 18.5577 11.1H27.4423C27.8877 11.1 28.25 11.4624 28.25 11.908V16.242C28.25 16.6876 27.8877 17.05 27.4423 17.05ZM27.222 16.0216H18.778V12.1284H27.222V16.0216Z" fill="black"/>
<path d="M20.2603 18.1H18.7397C18.5803 18.1 18.45 18.2482 18.45 18.4294V19.1706C18.45 19.3518 18.5803 19.5 18.7397 19.5H20.2603C20.4197 19.5 20.55 19.3518 20.55 19.1706V18.4294C20.55 18.2482 20.4197 18.1 20.2603 18.1Z" fill="black"/>
<path d="M22.2397 18.1H23.7603C23.9197 18.1 24.05 18.2482 24.05 18.4294V19.1706C24.05 19.3518 23.9197 19.5 23.7603 19.5H22.2397C22.0803 19.5 21.95 19.3518 21.95 19.1706V18.4294C21.95 18.2482 22.0803 18.1 22.2397 18.1Z" fill="black"/>
<path d="M27.2603 18.1H25.7397C25.5803 18.1 25.45 18.2482 25.45 18.4294V19.1706C25.45 19.3518 25.5803 19.5 25.7397 19.5H27.2603C27.4197 19.5 27.55 19.3518 27.55 19.1706V18.4294C27.55 18.2482 27.4197 18.1 27.2603 18.1Z" fill="black"/>
<path d="M18.7397 20.55H20.2603C20.4197 20.55 20.55 20.6982 20.55 20.8794V21.6206C20.55 21.8018 20.4197 21.95 20.2603 21.95H18.7397C18.5803 21.95 18.45 21.8018 18.45 21.6206V20.8794C18.45 20.6982 18.5803 20.55 18.7397 20.55Z" fill="black"/>
<path d="M23.7603 20.55H22.2397C22.0803 20.55 21.95 20.6982 21.95 20.8794V21.6206C21.95 21.8018 22.0803 21.95 22.2397 21.95H23.7603C23.9197 21.95 24.05 21.8018 24.05 21.6206V20.8794C24.05 20.6982 23.9197 20.55 23.7603 20.55Z" fill="black"/>
<path d="M25.7397 20.55H27.2603C27.4197 20.55 27.55 20.6982 27.55 20.8794V21.6206C27.55 21.8018 27.4197 21.95 27.2603 21.95H25.7397C25.5803 21.95 25.45 21.8018 25.45 21.6206V20.8794C25.45 20.6982 25.5803 20.55 25.7397 20.55Z" fill="black"/>
<path d="M20.2603 22.65H18.7397C18.5803 22.65 18.45 22.7982 18.45 22.9794V23.7206C18.45 23.9018 18.5803 24.05 18.7397 24.05H20.2603C20.4197 24.05 20.55 23.9018 20.55 23.7206V22.9794C20.55 22.7982 20.4197 22.65 20.2603 22.65Z" fill="black"/>
<path d="M22.2397 22.65H23.7603C23.9197 22.65 24.05 22.7982 24.05 22.9794V23.7206C24.05 23.9018 23.9197 24.05 23.7603 24.05H22.2397C22.0803 24.05 21.95 23.9018 21.95 23.7206V22.9794C21.95 22.7982 22.0803 22.65 22.2397 22.65Z" fill="black"/>
<path d="M27.2603 22.65H25.7397C25.5803 22.65 25.45 22.7982 25.45 22.9794V23.7206C25.45 23.9018 25.5803 24.05 25.7397 24.05H27.2603C27.4197 24.05 27.55 23.9018 27.55 23.7206V22.9794C27.55 22.7982 27.4197 22.65 27.2603 22.65Z" fill="black"/>
<path d="M18.7397 25.1H20.2603C20.4197 25.1 20.55 25.2482 20.55 25.4294V26.1706C20.55 26.3518 20.4197 26.5 20.2603 26.5H18.7397C18.5803 26.5 18.45 26.3518 18.45 26.1706V25.4294C18.45 25.2482 18.5803 25.1 18.7397 25.1Z" fill="black"/>
<path d="M23.7603 25.1H22.2397C22.0803 25.1 21.95 25.2482 21.95 25.4294V26.1706C21.95 26.3518 22.0803 26.5 22.2397 26.5H23.7603C23.9197 26.5 24.05 26.3518 24.05 26.1706V25.4294C24.05 25.2482 23.9197 25.1 23.7603 25.1Z" fill="black"/>
<path d="M25.7397 25.1H27.2603C27.4197 25.1 27.55 25.2482 27.55 25.4294V26.1706C27.55 26.3518 27.4197 26.5 27.2603 26.5H25.7397C25.5803 26.5 25.45 26.3518 25.45 26.1706V25.4294C25.45 25.2482 25.5803 25.1 25.7397 25.1Z" fill="black"/>
<path fill-rule="evenodd" clip-rule="evenodd" d="M16.6429 8.87595H29.2143C29.6476 8.87595 30 9.2257 30 9.6557V29.2203C30 29.6502 29.6476 30 29.2143 30H2.78571C2.35243 30 2 29.6502 2 29.2203V9.6557C2 9.2257 2.35243 8.87595 2.78571 8.87595H5.42857V2.77975C5.42857 2.34975 5.781 2 6.21429 2H15.8571C16.2903 2 16.6429 2.34975 16.6429 2.77975V8.87595ZM3 29.0076H29V9.86833H16.6429V25.3924C16.6429 25.8222 16.2903 26.1721 15.8571 26.1721H6.21429C5.781 26.1721 5.42857 25.8222 5.42857 25.3924V9.86833H3V29.0076ZM15.6429 25.1797H6.42858V2.99241H15.6429V25.1797Z" fill="black"/>
</svg>
