<svg width="32" height="32" viewBox="0 0 32 32" fill="none" xmlns="http://www.w3.org/2000/svg">
<path fill-rule="evenodd" clip-rule="evenodd" d="M16 3.50538C9.09941 3.50538 3.50538 9.09941 3.50538 16C3.50538 22.9006 9.09941 28.4946 16 28.4946C22.9006 28.4946 28.4946 22.9006 28.4946 16C28.4946 9.09941 22.9006 3.50538 16 3.50538ZM2 16C2 8.26801 8.26801 2 16 2C23.732 2 30 8.26801 30 16C30 23.732 23.732 30 16 30C8.26801 30 2 23.732 2 16ZM8.67918 14.3996C8.66371 14.4151 8.62366 14.465 8.62366 14.595V17.5054C8.62366 17.6354 8.66371 17.6853 8.67918 17.7007C8.69465 17.7162 8.74452 17.7563 8.87455 17.7563H23.1254C23.2555 17.7563 23.3053 17.7162 23.3208 17.7007C23.3363 17.6853 23.3763 17.6354 23.3763 17.5054V14.595C23.3763 14.465 23.3363 14.4151 23.3208 14.3996C23.3053 14.3841 23.2555 14.3441 23.1254 14.3441H8.87455C8.74452 14.3441 8.69465 14.3841 8.67918 14.3996ZM7.61472 13.3352C7.95051 12.9994 8.40243 12.8387 8.87455 12.8387H23.1254C23.5976 12.8387 24.0495 12.9994 24.3853 13.3352C24.7211 13.6709 24.8817 14.1229 24.8817 14.595V17.5054C24.8817 17.9775 24.7211 18.4294 24.3853 18.7652C24.0495 19.101 23.5976 19.2616 23.1254 19.2616H8.87455C8.40243 19.2616 7.95051 19.101 7.61472 18.7652C7.27894 18.4294 7.11828 17.9775 7.11828 17.5054V14.595C7.11828 14.1229 7.27894 13.6709 7.61472 13.3352Z" fill="black"/>
</svg>
