<svg width="32" height="32" viewBox="0 0 32 32" fill="none" xmlns="http://www.w3.org/2000/svg">
<path fill-rule="evenodd" clip-rule="evenodd" d="M23.5833 9.63635C20.0833 9.63635 17.1667 12.5289 17.1667 16C17.1667 17.5041 17.75 18.8926 18.6833 20.0496H13.3167C14.25 18.8926 14.8333 17.5041 14.8333 16C14.8333 12.5289 11.9167 9.63635 8.41667 9.63635C4.91667 9.63635 2 12.5289 2 16C2 19.4711 4.91667 22.3636 8.41667 22.3636H23.5833C27.0833 22.3636 30 19.4711 30 16C30 12.5289 27.0833 9.63635 23.5833 9.63635ZM8.41667 20.0496C6.2 20.0496 4.33333 18.1984 4.33333 16C4.33333 13.8017 6.2 11.9504 8.41667 11.9504C10.6333 11.9504 12.5 13.8017 12.5 16C12.5 18.1984 10.6333 20.0496 8.41667 20.0496ZM23.5833 20.0496C21.3667 20.0496 19.5 18.1984 19.5 16C19.5 13.8017 21.3667 11.9504 23.5833 11.9504C25.8 11.9504 27.6667 13.8017 27.6667 16C27.6667 18.1984 25.8 20.0496 23.5833 20.0496Z" fill="black"/>
</svg>
