<svg width="32" height="32" viewBox="0 0 32 32" fill="none" xmlns="http://www.w3.org/2000/svg">
<path d="M27.2 8.7H25.5C24.4 8.7 23.6 7.8 23.6 6.8C23.6 5.3 22.3 4 20.8 4H11.2C9.7 4 8.4 5.3 8.4 6.8C8.4 7.9 7.5 8.7 6.5 8.7H4.8C3.3 8.7 2 10 2 11.5V24.8C2 26.3 3.3 27.6 4.8 27.6H27.2C28.7 27.6 30 26.3 30 24.8V11.5C30 10 28.7 8.7 27.2 8.7ZM28.5 24.8C28.5 25.5 27.9 26.1 27.2 26.1H4.8C4.1 26.1 3.5 25.5 3.5 24.8V11.5C3.5 10.8 4.1 10.2 4.8 10.2H6.5C8.4 10.2 9.9 8.7 9.9 6.8C9.9 6.1 10.5 5.5 11.2 5.5H20.8C21.5 5.5 22.1 6.1 22.1 6.8C22.1 8.7 23.6 10.2 25.5 10.2H27.2C27.9 10.2 28.5 10.8 28.5 11.5V24.8Z" fill="black"/>
<path d="M22.2 11.1C21.8 11.1 21.4 11.4 21.4 11.9V12.8C19.6 10.5 16.6 9.5 13.7 10.5C11.2 11.4 9.4 13.5 9.1 16.1C9 16.5 9.3 16.9 9.7 16.9H9.8C10.2 16.9 10.5 16.6 10.5 16.2C10.8 14.1 12.2 12.5 14.1 11.8C16.6 11 19.3 12 20.6 14.3H19C18.6 14.3 18.2 14.6 18.2 15.1C18.2 15.6 18.5 15.9 19 15.9H22.2C22.6 15.9 23 15.6 23 15.1V11.8C22.9 11.4 22.6 11.1 22.2 11.1Z" fill="black"/>
<path d="M22.2 16.9C21.8 16.8 21.4 17.1 21.4 17.5C21.1 19.6 19.7 21.2 17.8 21.9C16.4 22.4 15 22.3 13.7 21.6C12.7 21.1 11.9 20.3 11.4 19.4H13C13.4 19.4 13.8 19.1 13.8 18.6C13.8 18.1 13.4 18 13 18H9.8C9.4 18 9 18.3 9 18.8V22C9 22.4 9.3 22.8 9.8 22.8C10.3 22.8 10.6 22.5 10.6 22V21.1C11.2 21.9 12.1 22.6 13 23.1C14 23.6 15 23.8 16 23.8C16.7 23.8 17.5 23.7 18.2 23.4C20.7 22.5 22.5 20.4 22.8 17.8C22.9 17.4 22.6 17 22.2 16.9Z" fill="black"/>
</svg>
