<svg width="32" height="32" viewBox="0 0 32 32" fill="none" xmlns="http://www.w3.org/2000/svg">
<path d="M15.9502 21.1317C18.8118 21.1317 21.1317 18.8118 21.1317 15.9502C21.1317 13.0885 18.8118 10.7687 15.9502 10.7687C13.0885 10.7687 10.7687 13.0885 10.7687 15.9502C10.7687 18.8118 13.0885 21.1317 15.9502 21.1317Z" fill="black"/>
<path d="M23.1246 2H8.7758C4.98932 2 2 4.98932 2 8.7758V23.2242C2 26.911 4.98932 29.9004 8.7758 29.9004H23.2242C26.911 29.9004 30 26.911 30 23.1246V8.7758C29.9004 4.98932 26.911 2 23.1246 2ZM28.4057 23.1246C28.4057 26.0142 26.0142 28.306 23.2242 28.306H8.7758C5.88612 28.306 3.59431 25.9146 3.59431 23.1246V8.7758C3.59431 5.88612 5.98577 3.59431 8.7758 3.59431H23.2242C26.1139 3.59431 28.4057 5.98577 28.4057 8.7758V23.1246Z" fill="black"/>
</svg>
