<svg width="32" height="32" viewBox="0 0 32 32" fill="none" xmlns="http://www.w3.org/2000/svg">
<path fill-rule="evenodd" clip-rule="evenodd" d="M2.05005 13.4004C2.05005 11.8862 3.28584 10.6504 4.80005 10.6504H15.3C15.7143 10.6504 16.05 10.9862 16.05 11.4004C16.05 11.8146 15.7143 12.1504 15.3 12.1504H4.80005C4.11426 12.1504 3.55005 12.7146 3.55005 13.4004V23.7004C3.55005 24.3862 4.11426 24.9504 4.80005 24.9504H18.1C18.7858 24.9504 19.35 24.3862 19.35 23.7004V20.6004C19.35 20.3058 19.5225 20.0385 19.791 19.917C20.0594 19.7956 20.3741 19.8426 20.5953 20.0372L26.3953 25.1372L26.4088 25.1493C27.2029 25.8823 28.55 25.2814 28.55 24.2004V18.3004C28.55 17.8862 28.8858 17.5504 29.3 17.5504C29.7143 17.5504 30.05 17.8862 30.05 18.3004V24.2004C30.05 26.5163 27.2047 27.9148 25.3985 26.2581L20.85 22.2586V23.7004C20.85 25.2146 19.6143 26.4504 18.1 26.4504H4.80005C3.28584 26.4504 2.05005 25.2146 2.05005 23.7004V13.4004Z" fill="black"/>
<path d="M6.10005 23.7004C6.81802 23.7004 7.40005 23.1184 7.40005 22.4004C7.40005 21.6824 6.81802 21.1004 6.10005 21.1004C5.38208 21.1004 4.80005 21.6824 4.80005 22.4004C4.80005 23.1184 5.38208 23.7004 6.10005 23.7004Z" fill="black"/>
<path fill-rule="evenodd" clip-rule="evenodd" d="M21.7489 4.92829C22.4368 3.72443 24.1633 3.72443 24.8512 4.92829L24.8531 4.9316L29.6358 13.401C30.0239 13.9707 30.0457 14.6419 29.7405 15.1819C29.438 15.7172 28.856 16.0504 28.2001 16.0504H18.5C17.1668 16.0504 16.2435 14.6657 16.9478 13.4301L16.9489 13.4283L21.7489 4.92829ZM23.4 7.30038C23.6762 7.30038 23.9 7.52424 23.9 7.80038V11.2004C23.9 11.4765 23.6762 11.7004 23.4 11.7004C23.1239 11.7004 22.9 11.4765 22.9 11.2004V7.80038C22.9 7.52424 23.1239 7.30038 23.4 7.30038ZM23.4001 13.7004C23.7314 13.7004 24.0001 13.4318 24.0001 13.1004C24.0001 12.769 23.7314 12.5004 23.4001 12.5004C23.0687 12.5004 22.8001 12.769 22.8001 13.1004C22.8001 13.4318 23.0687 13.7004 23.4001 13.7004Z" fill="black"/>
</svg>
