<svg width="32" height="32" viewBox="0 0 32 32" fill="none" xmlns="http://www.w3.org/2000/svg">
<path fill-rule="evenodd" clip-rule="evenodd" d="M29.6545 2.20345C29.3251 1.95242 28.8545 2.01602 28.6034 2.3455L24.3332 7.95023L22.2399 5.77943C21.9524 5.48126 21.4776 5.47262 21.1794 5.76014C20.8812 6.04767 20.8726 6.52246 21.1601 6.82063L23.8601 9.62063C24.012 9.77814 24.2251 9.86146 24.4435 9.84876C24.662 9.83606 24.864 9.72861 24.9966 9.55456L29.7966 3.25456C30.0476 2.92508 29.984 2.45449 29.6545 2.20345ZM2.05005 6.30003C2.05005 5.88581 2.38584 5.55003 2.80005 5.55003H18C18.4143 5.55003 18.75 5.88581 18.75 6.30003C18.75 6.71424 18.4143 7.05003 18 7.05003H2.80005C2.38584 7.05003 2.05005 6.71424 2.05005 6.30003ZM29.65 11.8C29.3186 11.5515 28.8485 11.6187 28.6 11.95L24.3285 17.6454L22.2399 15.4794C21.9524 15.1813 21.4776 15.1726 21.1794 15.4601C20.8812 15.7477 20.8726 16.2225 21.1601 16.5206L23.8601 19.3206C24.0127 19.4788 24.227 19.5622 24.4464 19.5486C24.6658 19.535 24.8681 19.4259 25 19.25L29.8 12.85C30.0485 12.5187 29.9814 12.0486 29.65 11.8ZM2.05005 16C2.05005 15.5858 2.38584 15.25 2.80005 15.25H18C18.4143 15.25 18.75 15.5858 18.75 16C18.75 16.4142 18.4143 16.75 18 16.75H2.80005C2.38584 16.75 2.05005 16.4142 2.05005 16ZM29.65 21.5C29.3186 21.2515 28.8485 21.3187 28.6 21.65L24.3285 27.3454L22.2399 25.1794C21.9524 24.8813 21.4776 24.8726 21.1794 25.1601C20.8812 25.4477 20.8726 25.9225 21.1601 26.2206L23.8601 29.0206C24.0127 29.1789 24.227 29.2622 24.4464 29.2486C24.6658 29.235 24.8681 29.1259 25 28.95L29.8 22.55C30.0485 22.2187 29.9814 21.7486 29.65 21.5ZM2.05005 25.7C2.05005 25.2858 2.38584 24.95 2.80005 24.95H18C18.4143 24.95 18.75 25.2858 18.75 25.7C18.75 26.1142 18.4143 26.45 18 26.45H2.80005C2.38584 26.45 2.05005 26.1142 2.05005 25.7Z" fill="black"/>
</svg>
