<svg width="32" height="32" viewBox="0 0 32 32" fill="none" xmlns="http://www.w3.org/2000/svg">
<path d="M25.9489 6.81447C24.0501 4.21609 21.3518 2.51715 18.3536 2.1174C11.6578 1.11802 5.26182 6.61459 4.1625 14.2099C3.06319 21.9051 7.66032 28.9007 14.3561 29.9001C14.8558 30 15.3555 30 15.9551 30C17.5541 30 19.2531 29.6002 20.7521 28.9007C21.1519 28.7008 21.2518 28.3011 21.1519 27.9013C20.952 27.5016 20.5523 27.4016 20.1525 27.5016C18.3536 28.3011 16.4548 28.6009 14.656 28.3011C8.75963 27.4016 4.76213 21.2055 5.7615 14.3098C6.76088 7.51403 12.3574 2.61708 18.2537 3.51652C20.8521 3.91627 23.2506 5.3154 24.8496 7.61397C26.8483 10.3123 27.6479 13.91 27.1482 17.4079C26.7484 20.2061 25.2493 21.8051 23.0507 21.8051H22.9508C22.2512 21.8051 21.7515 21.5053 21.2518 21.0056C20.5523 20.2061 20.2525 19.0069 20.3524 17.5078C20.5523 14.7095 21.052 10.4122 21.052 10.3123C21.052 10.1124 20.952 9.8126 20.7521 9.61272C19.453 8.51341 17.754 8.11366 16.255 8.41347C15.0557 8.61334 13.4567 9.41285 12.2575 11.8113C10.4586 15.509 10.3586 19.8064 12.0576 22.005C12.8571 23.0044 14.3561 23.4041 15.9551 23.0044C17.3543 22.7046 18.4536 21.8051 19.2531 20.6059C19.453 21.1055 19.7528 21.5053 20.0526 21.9051C20.7522 22.7046 21.7515 23.1043 22.8508 23.2042C25.849 23.3042 28.0476 21.1056 28.5473 17.6077C29.1469 13.8101 28.2475 9.8126 25.9489 6.81447ZM18.7534 17.5078C18.7534 17.7077 18.7534 17.9075 18.7534 18.1074C18.3536 20.0062 17.1544 21.4054 15.5554 21.7052C14.556 21.9051 13.6566 21.7052 13.1569 21.2055C11.9576 19.8064 11.7578 16.1087 13.5566 12.6109C14.2562 11.2117 15.3555 10.3123 16.5548 10.0125C16.7546 10.0125 17.0545 9.91253 17.2543 9.91253C18.0538 9.91253 18.8533 10.1124 19.453 10.6121C19.353 11.9113 19.0532 15.2092 18.7534 17.5078Z" fill="black"/>
</svg>
