<svg width="32" height="32" viewBox="0 0 32 32" fill="none" xmlns="http://www.w3.org/2000/svg">
<path d="M22.5334 24.8206C22.5334 25.1275 22.2649 25.396 21.9581 25.396H10.4519C10.145 25.396 9.87655 25.1275 9.87655 24.8206C9.87655 24.5138 10.145 24.2453 10.4519 24.2453H21.9581C22.2649 24.2453 22.5334 24.5138 22.5334 24.8206Z" fill="black"/>
<path d="M16.205 18.1087H10.4519C10.145 18.1087 9.87655 17.8402 9.87655 17.5334C9.87655 17.2266 10.145 16.9581 10.4519 16.9581H16.205C16.5118 16.9581 16.7803 17.2266 16.7803 17.5334C16.7803 17.8402 16.5118 18.1087 16.205 18.1087Z" fill="black"/>
<path d="M14.2873 21.177H10.4519C10.145 21.177 9.87655 20.9085 9.87655 20.6017C9.87655 20.2949 10.145 20.0264 10.4519 20.0264H14.2873C14.5941 20.0264 14.8626 20.2949 14.8626 20.6017C14.8626 20.9085 14.5941 21.177 14.2873 21.177Z" fill="black"/>
<path d="M21.9581 18.1087H20.0404C19.7335 18.1087 19.4651 17.8402 19.4651 17.5334C19.4651 17.2266 19.7335 16.9581 20.0404 16.9581H21.9581C22.2649 16.9581 22.5334 17.2266 22.5334 17.5334C22.5334 17.8402 22.2649 18.1087 21.9581 18.1087Z" fill="black"/>
<path d="M21.9581 21.177H20.0404C19.7335 21.177 19.4651 20.9085 19.4651 20.6017C19.4651 20.2949 19.7335 20.0264 20.0404 20.0264H21.9581C22.2649 20.0264 22.5334 20.2949 22.5334 20.6017C22.5334 20.9085 22.2649 21.177 21.9581 21.177Z" fill="black"/>
<path d="M14.2873 15.0404H10.4519C10.145 15.0404 9.87655 14.7719 9.87655 14.4651C9.87655 14.1582 10.145 13.8897 10.4519 13.8897H14.2873C14.5941 13.8897 14.8626 14.1582 14.8626 14.4651C14.8626 14.7719 14.5941 15.0404 14.2873 15.0404Z" fill="black"/>
<path d="M21.9581 15.0404H20.0404C19.7335 15.0404 19.4651 14.7719 19.4651 14.4651C19.4651 14.1582 19.7335 13.8897 20.0404 13.8897H21.9581C22.2649 13.8897 22.5334 14.1582 22.5334 14.4651C22.5334 14.7719 22.2649 15.0404 21.9581 15.0404Z" fill="black"/>
<path d="M16.205 11.972H10.4519C10.145 11.972 9.87655 11.7036 9.87655 11.3967C9.87655 11.0899 10.145 10.8214 10.4519 10.8214H16.205C16.5118 10.8214 16.7803 11.0899 16.7803 11.3967C16.7803 11.7036 16.5118 11.972 16.205 11.972Z" fill="black"/>
<path d="M21.9581 11.972H20.0404C19.7335 11.972 19.4651 11.7036 19.4651 11.3967C19.4651 11.0899 19.7335 10.8214 20.0404 10.8214H21.9581C22.2649 10.8214 22.5334 11.0899 22.5334 11.3967C22.5334 11.7036 22.2649 11.972 21.9581 11.972Z" fill="black"/>
<path fill-rule="evenodd" clip-rule="evenodd" d="M25.4099 8.32841C25.4099 8.29006 25.4099 8.25171 25.4099 8.21335C25.3716 8.02158 25.2565 7.90652 25.1031 7.79146C24.7579 7.40792 23.9908 6.64084 22.38 5.02997L19.5034 2.15342C19.4651 2.11506 19.4651 2.11506 19.4267 2.07671C19.4267 2.07671 19.4267 2.07671 19.3884 2.07671C19.35 2.07671 19.35 2.03835 19.3116 2.03835H19.2733C19.2349 2.03835 19.2349 2.03835 19.1966 2C19.1582 2 19.1199 2 19.0815 2H7.57531C7.26848 2 7 2.26848 7 2.57531V29.4231C7 29.6533 7.11506 29.845 7.34519 29.9601C7.53696 30.0368 7.80543 29.9984 7.95885 29.8834L9.30124 28.6561L10.6436 29.845C10.8738 30.0368 11.1806 30.0368 11.4107 29.845L12.7531 28.6561L14.0955 29.845C14.3256 30.0368 14.6325 30.0368 14.8626 29.845L16.205 28.6561L17.5474 29.845C17.7775 30.0368 18.0843 30.0368 18.3144 29.845L19.6568 28.6561L20.9992 29.845C21.2293 30.0368 21.5362 30.0368 21.7663 29.845L23.1087 28.6561L24.4511 29.845C24.5662 29.9217 24.6812 29.9984 24.8346 29.9984C24.9113 29.9984 24.988 29.9984 25.0648 29.9601C25.2565 29.8834 25.4099 29.6533 25.4099 29.4231V8.32841ZM23.4539 7.7531H19.6568V3.95606C20.7307 5.02997 22.38 6.67919 23.4539 7.7531ZM23.4922 27.4671C23.2621 27.2753 22.9553 27.2753 22.7252 27.4671L21.3828 28.6561L20.0404 27.4671C19.8102 27.2753 19.5034 27.2753 19.2733 27.4671L17.9309 28.6561L16.5885 27.4671C16.3584 27.2753 16.0516 27.2753 15.8214 27.4671L14.479 28.6561L13.1366 27.4671C12.9065 27.2753 12.5997 27.2753 12.3696 27.4671L11.0272 28.6561L9.68478 27.4671C9.56972 27.352 9.45466 27.3137 9.30124 27.3137C9.14783 27.3137 9.03276 27.352 8.9177 27.4671L8.15062 28.1574V3.15062H18.5062V8.32841C18.5062 8.63525 18.7747 8.90373 19.0815 8.90373H24.2593V28.1574L23.4922 27.4671Z" fill="black"/>
</svg>
