<svg width="32" height="32" viewBox="0 0 32 32" fill="none" xmlns="http://www.w3.org/2000/svg">
<path d="M16.0289 24.0825C16.7446 24.0825 17.3248 23.5023 17.3248 22.7867C17.3248 22.071 16.7446 21.4908 16.0289 21.4908C15.3133 21.4908 14.7331 22.071 14.7331 22.7867C14.7331 23.5023 15.3133 24.0825 16.0289 24.0825Z" fill="black"/>
<path fill-rule="evenodd" clip-rule="evenodd" d="M16.0289 9.97766C16.4418 9.97766 16.7766 10.3124 16.7766 10.7253V18.5004C16.7766 18.9133 16.4418 19.248 16.0289 19.248C15.6161 19.248 15.2813 18.9133 15.2813 18.5004V10.7253C15.2813 10.3124 15.6161 9.97766 16.0289 9.97766Z" fill="black"/>
<path fill-rule="evenodd" clip-rule="evenodd" d="M17.371 5.3103C16.7597 4.22352 15.2982 4.22352 14.6869 5.3103L14.6857 5.31253L3.72077 24.6506L3.7115 24.6665C3.12792 25.6391 3.82235 26.9234 5.06405 26.9234H26.9938C28.0997 26.9234 28.866 25.6565 28.3319 24.6414L17.3722 5.31253L17.371 5.3103ZM18.6736 4.5762C17.4904 2.4746 14.5675 2.4746 13.3843 4.5762L13.3837 4.57726L2.42434 23.9056C1.22284 25.922 2.72049 28.4186 5.06405 28.4186H26.9938C29.2744 28.4186 30.6999 25.9041 29.6471 23.9301L29.6378 23.9131L18.6742 4.57726L18.6736 4.5762Z" fill="black"/>
</svg>
