<svg width="32" height="32" viewBox="0 0 32 32" fill="none" xmlns="http://www.w3.org/2000/svg">
<path d="M12.15 19.35H10.95L7.95 14.55V19.35H6.75V12.55H7.95L10.95 17.35V12.55H12.15V19.35Z" fill="black"/>
<path d="M23.45 17.75H20.85L20.25 19.35H19.05L21.65 12.55H22.75L25.35 19.35H23.95L23.45 17.75ZM21.15 16.85H23.15L22.15 14.05L21.15 16.85Z" fill="black"/>
<path fill-rule="evenodd" clip-rule="evenodd" d="M15.95 3.5C9.07405 3.5 3.5 9.07405 3.5 15.95C3.5 22.8259 9.07405 28.4 15.95 28.4C22.8259 28.4 28.4 22.8259 28.4 15.95C28.4 9.07405 22.8259 3.5 15.95 3.5ZM2 15.95C2 8.24563 8.24563 2 15.95 2C23.6462 2.02869 29.8967 8.25781 29.9 15.95C29.9 23.6544 23.6544 29.9 15.95 29.9C8.24563 29.9 2 23.6544 2 15.95Z" fill="black"/>
<path fill-rule="evenodd" clip-rule="evenodd" d="M21.1841 3.47017L13.3841 28.8702L11.9502 28.4298L19.7502 3.02983L21.1841 3.47017Z" fill="black"/>
</svg>
