<svg width="32" height="32" viewBox="0 0 32 32" fill="none" xmlns="http://www.w3.org/2000/svg">
<path d="M21.1 2H10.8C8.7 2 7 3.7 7 5.8V26.3C7 28.3 8.7 30 10.8 30H21.1C23.2 30 24.9 28.3 24.9 26.2V5.8C24.8 3.7 23.1 2 21.1 2ZM10.8 3.5H21.1C22.3 3.5 23.3 4.5 23.3 5.7V23.4H8.5V5.8C8.5 4.5 9.5 3.5 10.8 3.5ZM21.1 28.5H10.8C9.6 28.5 8.6 27.5 8.6 26.3V25H23.4V26.3C23.3 27.5 22.3 28.5 21.1 28.5Z" fill="black"/>
<path d="M11 7.1C11.7 7.1 12.2 6.6 12.2 5.9C12.2 5.2 11.6 4.8 11 4.8C10.3 4.8 9.8 5.3 9.8 6C9.8 6.7 10.3 7.1 11 7.1Z" fill="black"/>
</svg>
