<svg width="32" height="32" viewBox="0 0 32 32" fill="none" xmlns="http://www.w3.org/2000/svg">
<path d="M28.9375 25C25.9375 22.4 24.3375 17.7 24.3375 11.7C24.3375 7.4 21.5375 3 16.1375 3C10.7375 3 7.9375 7.4 7.9375 11.7C7.9375 17.7 6.3375 22.5 3.3375 25C3.0375 25.2 2.9375 25.6 3.0375 25.8C3.1375 26.1 3.4375 26.3 3.7375 26.3H11.8375C12.2375 28.3 13.9375 29.9 16.1375 29.9C18.3375 29.9 20.0375 28.3 20.4375 26.3H28.5375C28.8375 26.3 29.1375 26.1 29.2375 25.8C29.3375 25.6 29.2375 25.2 28.9375 25ZM16.1375 28.4C14.8375 28.4 13.7375 27.5 13.4375 26.3H18.9375C18.5375 27.5 17.4375 28.4 16.1375 28.4ZM5.5375 24.8C8.0375 21.8 9.4375 17.2 9.4375 11.6C9.4375 8.1 11.5375 4.4 16.1375 4.4C20.7375 4.4 22.8375 8.1 22.8375 11.6C22.8375 17.2 24.2375 21.8 26.7375 24.8H5.5375Z" fill="black"/>
</svg>
