<svg width="32" height="32" viewBox="0 0 32 32" fill="none" xmlns="http://www.w3.org/2000/svg">
<path d="M2 26.612H30V28.474H2V26.612Z" fill="black"/>
<path d="M22.314 3.526L27.592 8.804L23.63 12.752L18.352 7.474L22.314 3.526Z" fill="black"/>
<path d="M22.902 13.55L17.68 8.314L9.658 10.932L4.422 24.19L5.178 24.75L11.702 18.212C11.1307 17.1507 11.3623 15.8361 12.262 15.034C13.3767 14.1979 14.9366 14.3088 15.9219 15.2941C16.9072 16.2794 17.0181 17.8393 16.182 18.954C15.39 19.861 14.0732 20.0941 13.018 19.514L6.48 26.052L7.04 26.612L20.298 21.39L22.902 13.55Z" fill="black"/>
</svg>
