<svg width="32" height="32" viewBox="0 0 32 32" fill="none" xmlns="http://www.w3.org/2000/svg">
<path fill-rule="evenodd" clip-rule="evenodd" d="M2 6.76344C2 6.34774 2.33699 6.01075 2.75269 6.01075H26.3369C26.7526 6.01075 27.0896 6.34774 27.0896 6.76344V23.3226C27.0896 23.7383 26.7526 24.0753 26.3369 24.0753H2.75269C2.33699 24.0753 2 23.7383 2 23.3226V6.76344ZM3.50538 7.51613V22.5699H25.5842V7.51613H3.50538Z" fill="black"/>
<path fill-rule="evenodd" clip-rule="evenodd" d="M7.01792 3.75269C7.01792 3.33699 7.35491 3 7.77061 3H29.2473C29.663 3 30 3.33699 30 3.75269V18.2043C30 18.62 29.663 18.957 29.2473 18.957C28.8316 18.957 28.4946 18.62 28.4946 18.2043V4.50538H7.77061C7.35491 4.50538 7.01792 4.16839 7.01792 3.75269Z" fill="black"/>
<path fill-rule="evenodd" clip-rule="evenodd" d="M9.42652 28.2401C9.42652 27.8244 9.76351 27.4875 10.1792 27.4875H18.81C19.2257 27.4875 19.5627 27.8244 19.5627 28.2401C19.5627 28.6558 19.2257 28.9928 18.81 28.9928H10.1792C9.76351 28.9928 9.42652 28.6558 9.42652 28.2401Z" fill="black"/>
<path fill-rule="evenodd" clip-rule="evenodd" d="M15.2473 23.2222V28.2401H13.7419V23.2222H15.2473Z" fill="black"/>
<path fill-rule="evenodd" clip-rule="evenodd" d="M11.3486 10.4214C11.1155 10.2915 10.831 10.2948 10.601 10.43C10.3709 10.5651 10.2296 10.812 10.2296 11.0789V18.9069C10.2296 19.1737 10.3709 19.4206 10.601 19.5558C10.831 19.691 11.1155 19.6943 11.3486 19.5644L18.3737 15.6504C18.6122 15.5175 18.7601 15.2659 18.7601 14.9929C18.7601 14.7199 18.6122 14.4682 18.3737 14.3354L11.3486 10.4214Z" fill="black"/>
</svg>
