<svg width="32" height="32" viewBox="0 0 32 32" fill="none" xmlns="http://www.w3.org/2000/svg">
<path fill-rule="evenodd" clip-rule="evenodd" d="M13.9984 15.9929L2.43097 5.00382C1.87656 4.47713 1.85408 3.60073 2.38077 3.04632C2.90746 2.49191 3.78386 2.46944 4.33827 2.99613L16.0075 14.0819L27.6611 2.99674C28.2152 2.4697 29.0916 2.49161 29.6186 3.04568C30.1457 3.59975 30.1238 4.47617 29.5697 5.00321L18.0177 15.9916L28.9537 26.3807C29.5081 26.9074 29.5305 27.7838 29.0038 28.3382C28.4772 28.8926 27.6008 28.9151 27.0463 28.3884L16.0087 17.9027L4.33891 29.0032C3.78484 29.5302 2.90843 29.5083 2.38138 28.9543C1.85434 28.4002 1.87625 27.5238 2.43032 26.9967L13.9984 15.9929Z" fill="black"/>
</svg>
