<svg width="32" height="32" viewBox="0 0 32 32" fill="none" xmlns="http://www.w3.org/2000/svg">
<path d="M22.6016 2.34143L30 5.11867L22.6016 7.8959V5.74672C20.7917 5.58025 19.621 5.8776 18.94 6.44729C18.6465 6.69285 18.5188 6.91709 18.4905 7.02746L18.4711 7.10351L13.4701 15.7808L18.4729 25.0039L18.4905 25.0726C18.5188 25.183 18.6465 25.4072 18.94 25.6528C19.621 26.2225 20.7917 26.5198 22.6016 26.3534V24.1041L30 26.8813L22.6016 29.6585V27.5046C20.5577 27.6744 19.1206 27.2994 18.204 26.5326C17.7484 26.1514 17.5028 25.7521 17.4016 25.4346L17.4308 25.4884L17.3794 25.3573C17.3858 25.3824 17.3932 25.4082 17.4016 25.4346L12.4716 16.3458H2V15.1988H12.4816L17.4042 6.65751C17.3947 6.68665 17.3865 6.71512 17.3794 6.74284L17.4381 6.59877L17.4042 6.65751C17.507 6.34124 17.7522 5.94544 18.204 5.56751C19.1206 4.80069 20.5577 4.42573 22.6016 4.5955V2.34143Z" fill="black"/>
</svg>
