<svg width="32" height="32" viewBox="0 0 32 32" fill="none" xmlns="http://www.w3.org/2000/svg">
<path fill-rule="evenodd" clip-rule="evenodd" d="M29.4728 6.8687H25.2613V10.9994H24.5796V6.8687H20.3493V6.12115H24.5796V2H25.2613V6.12115H29.4728V6.8687ZM25.1697 28.8236C23.9017 30.0491 21.228 30.3309 18.1831 29.6041C14.8317 28.8041 11.3817 26.8962 8.47932 24.0429C5.63146 21.1483 3.72334 17.6983 2.92314 14.3452C2.19651 11.3004 2.47762 8.62548 3.70175 7.35708L5.30028 5.76338C5.9457 5.11442 6.99818 5.11296 7.65284 5.75932C7.68252 5.78903 7.68252 5.78903 7.816 5.92266C7.99397 6.10085 7.99397 6.10085 8.24608 6.35332C8.69101 6.79889 9.13593 7.24463 9.5512 7.6609C10.1949 8.30616 10.7041 8.81722 11.0347 9.14989C12.2392 10.3603 12.1325 12.3973 10.8355 13.6914L10.0336 14.4941C9.16638 15.3575 9.9598 17.6332 12.4279 20.1006C14.9034 22.5718 17.1658 23.3591 18.0432 22.4899L18.8373 21.6959C20.135 20.3954 22.1747 20.2876 23.3784 21.4942C23.711 21.826 24.2216 22.3362 24.8623 22.9768C25.2808 23.3952 25.7266 23.8411 26.1723 24.2869C26.4248 24.5396 26.4248 24.5396 26.6031 24.7179C26.7368 24.8517 26.7368 24.8517 26.7642 24.8792C27.4145 25.5222 27.4145 26.586 26.7666 27.2243L25.1697 28.8236ZM26.01 26.4626C26.2343 26.2415 26.2343 25.8651 26.007 25.6403C25.9773 25.6106 25.9773 25.6106 25.8437 25.4769C25.6655 25.2986 25.6655 25.2986 25.4129 25.0459C24.9673 24.6002 24.5216 24.1544 24.1055 23.7383C23.4628 23.0957 22.9523 22.5857 22.6192 22.2534C21.853 21.4853 20.4924 21.5572 19.5969 22.4546L18.8006 23.2509C17.3521 24.6857 14.5109 23.697 11.6691 20.8602C8.83295 18.0249 7.8364 15.1666 9.27508 13.7343L10.0766 12.932C10.971 12.0396 11.0422 10.6796 10.2733 9.90693C9.94314 9.5746 9.43432 9.06394 8.79514 8.42323C8.37595 8.00303 7.93114 7.55741 7.48633 7.11195C7.23427 6.85953 7.23427 6.85953 7.05635 6.68139C6.92291 6.5478 6.92291 6.5478 6.89589 6.52074C6.66365 6.29145 6.28882 6.29197 6.05994 6.52209L4.46708 8.11001C3.56104 9.04892 3.31706 11.3705 3.96749 14.096C4.72234 17.259 6.53409 20.5348 9.23834 23.2835C11.995 25.9934 15.2709 27.8051 18.4324 28.5597C21.1546 29.2095 23.4724 28.9663 24.4135 28.0613L26.01 26.4626Z" fill="black"/>
<path fill-rule="evenodd" clip-rule="evenodd" d="M29.4728 6.8687H25.2613V10.9994H24.5796V6.8687H20.3493V6.12115H24.5796V2H25.2613V6.12115H29.4728V6.8687ZM25.1697 28.8236C23.9017 30.0491 21.228 30.3309 18.1831 29.6041C14.8317 28.8041 11.3817 26.8962 8.47932 24.0429C5.63146 21.1483 3.72334 17.6983 2.92314 14.3452C2.19651 11.3004 2.47762 8.62548 3.70175 7.35708L5.30028 5.76338C5.9457 5.11442 6.99818 5.11296 7.65284 5.75932C7.68252 5.78903 7.68252 5.78903 7.816 5.92266C7.99397 6.10085 7.99397 6.10085 8.24608 6.35332C8.69101 6.79889 9.13593 7.24463 9.5512 7.6609C10.1949 8.30616 10.7041 8.81722 11.0347 9.14989C12.2392 10.3603 12.1325 12.3973 10.8355 13.6914L10.0336 14.4941C9.16638 15.3575 9.9598 17.6332 12.4279 20.1006C14.9034 22.5718 17.1658 23.3591 18.0432 22.4899L18.8373 21.6959C20.135 20.3954 22.1747 20.2876 23.3784 21.4942C23.711 21.826 24.2216 22.3362 24.8623 22.9768C25.2808 23.3952 25.7266 23.8411 26.1723 24.2869C26.4248 24.5396 26.4248 24.5396 26.6031 24.7179C26.7368 24.8517 26.7368 24.8517 26.7642 24.8792C27.4145 25.5222 27.4145 26.586 26.7666 27.2243L25.1697 28.8236ZM26.01 26.4626C26.2343 26.2415 26.2343 25.8651 26.007 25.6403C25.9773 25.6106 25.9773 25.6106 25.8437 25.4769C25.6655 25.2986 25.6655 25.2986 25.4129 25.0459C24.9673 24.6002 24.5216 24.1544 24.1055 23.7383C23.4628 23.0957 22.9523 22.5857 22.6192 22.2534C21.853 21.4853 20.4924 21.5572 19.5969 22.4546L18.8006 23.2509C17.3521 24.6857 14.5109 23.697 11.6691 20.8602C8.83295 18.0249 7.8364 15.1666 9.27508 13.7343L10.0766 12.932C10.971 12.0396 11.0422 10.6796 10.2733 9.90693C9.94314 9.5746 9.43432 9.06394 8.79514 8.42323C8.37595 8.00303 7.93114 7.55741 7.48633 7.11195C7.23427 6.85953 7.23427 6.85953 7.05635 6.68139C6.92291 6.5478 6.92291 6.5478 6.89589 6.52074C6.66365 6.29145 6.28882 6.29197 6.05994 6.52209L4.46708 8.11001C3.56104 9.04892 3.31706 11.3705 3.96749 14.096C4.72234 17.259 6.53409 20.5348 9.23834 23.2835C11.995 25.9934 15.2709 27.8051 18.4324 28.5597C21.1546 29.2095 23.4724 28.9663 24.4135 28.0613L26.01 26.4626Z" fill="black"/>
</svg>
