<svg width="32" height="32" viewBox="0 0 32 32" fill="none" xmlns="http://www.w3.org/2000/svg">
<path d="M11.0383 27.9333C7.91102 27.9333 4.97328 27.0804 2.31983 25.3747C2.03554 25.2799 1.94077 24.9008 2.03554 24.6165C2.1303 24.3322 2.50937 24.1427 2.79366 24.1427C5.44711 24.5218 7.62672 23.6689 8.95344 22.9107C6.48953 22.0578 5.25758 20.0678 5.06804 18.9306C4.97328 18.741 5.06804 18.4567 5.25758 18.2672L5.35234 18.1724C3.45702 16.6562 2.9832 14.4766 3.17273 13.1499C3.17273 12.8656 3.36226 12.676 3.55179 12.5813C3.74132 12.4865 3.93085 12.4865 4.12039 12.5813C2.03554 9.26446 4.12039 6.32672 4.12039 6.32672C4.21515 6.13719 4.49945 6.04242 4.68898 6.04242C4.87851 6.04242 5.16281 6.13719 5.25758 6.32672C8.47961 10.3069 13.1231 11.3493 15.0185 11.6336C15.0185 11.4441 15.0185 11.3493 15.0185 11.1598C15.0185 7.74821 17.7667 5 21.1782 5C22.6945 5 24.2107 5.56859 25.3479 6.61102C25.4427 6.61102 25.6322 6.51625 25.727 6.51625C27.1485 6.04242 28.2857 5.47383 28.2857 5.47383C28.57 5.37906 28.8543 5.37906 29.0438 5.56859C29.2333 5.75813 29.3281 6.04242 29.3281 6.23196C29.1386 6.80055 28.8543 7.36915 28.57 7.84297C28.8543 7.74821 29.0438 7.65344 29.0438 7.65344C29.3281 7.55868 29.6124 7.65344 29.8019 7.84297C29.9915 8.03251 30.0862 8.41157 29.8967 8.6011C29.4229 9.54876 28.0014 10.7807 27.2432 11.4441C27.2432 11.5388 27.2432 11.6336 27.2432 11.7284C27.338 20.7311 20.041 27.9333 11.0383 27.9333ZM5.7314 25.5642C7.43719 26.2275 9.23774 26.5118 11.0383 26.5118C19.1882 26.5118 25.8218 19.8782 25.8218 11.7284C25.8218 11.5388 25.8218 11.3493 25.8218 11.1598C25.8218 10.9702 25.9165 10.6859 26.1061 10.5912C26.3904 10.3069 26.7694 10.0226 27.0537 9.73829C26.7694 9.83306 26.4851 9.83306 26.2008 9.83306C25.9165 9.83306 25.5375 9.64353 25.4427 9.35923C25.3479 9.07493 25.4427 8.69587 25.727 8.50634C26.0113 8.3168 26.3904 8.03251 26.8642 7.55868C26.6747 7.65344 26.3904 7.74821 26.1061 7.84297C25.8218 7.93774 25.5375 8.03251 25.2532 8.12727C24.9689 8.22204 24.6846 8.12727 24.5898 7.93774C23.6421 6.99008 22.4102 6.42149 21.0835 6.42149C18.43 6.42149 16.3452 8.50634 16.3452 11.1598C16.3452 11.5388 16.3452 11.9179 16.4399 12.2022C16.5347 12.3917 16.4399 12.676 16.2504 12.7708C16.1556 12.9603 15.8713 13.0551 15.6818 13.0551C15.3975 13.0551 9.23774 12.7708 4.68898 7.93774C4.30992 9.07493 4.02562 11.1598 6.5843 13.3394C6.77383 13.5289 6.86859 13.8132 6.77383 14.0975C6.77383 14.4766 6.48953 14.7609 6.20523 14.6661C6.20523 14.6661 5.44711 14.6661 4.68898 14.3818C4.87851 15.519 5.63664 17.3196 8.29008 17.9829C8.57438 18.0777 8.85868 18.362 8.85868 18.6463C8.85868 18.9306 8.66914 19.2149 8.38485 19.4044C8.29008 19.4044 7.72149 19.5939 6.86859 19.6887C7.43719 20.5416 8.57438 21.7736 10.8488 21.9631C11.1331 21.9631 11.4174 22.1526 11.5121 22.4369C11.6069 22.7212 11.5121 23.0055 11.3226 23.195C11.1331 23.195 8.95344 25.0904 5.7314 25.5642Z" fill="black"/>
</svg>
