<svg width="32" height="32" viewBox="0 0 32 32" fill="none" xmlns="http://www.w3.org/2000/svg">
<path d="M7.64084 17.5956H8.59651V13.8839H9.82039V13.0885H6.41696V13.8839H7.64084V17.5956Z" fill="black"/>
<path d="M14.0582 17.5956H12.9669L11.9188 15.8908L10.8706 17.5956H9.8471L11.3423 15.2711L9.94267 13.0885H10.997L11.9681 14.7101L12.9207 13.0885H13.9503L12.5353 15.3236L14.0582 17.5956Z" fill="black"/>
<path d="M15.3088 17.5956H16.2645V13.8839H17.4884V13.0885H14.0849V13.8839H15.3088V17.5956Z" fill="black"/>
<path fill-rule="evenodd" clip-rule="evenodd" d="M8.48392 2V10.4705H5.74253C4.24612 10.4705 3.03467 11.6831 3.03467 13.1789V17.7949C3.03467 19.2932 4.24702 20.5034 5.74253 20.5034H8.2924V30H28.9656V10.0447L21.3154 2H8.48392ZM20.4128 3.12743H9.61135V10.4705H18.1559C19.6515 10.4705 20.8638 11.6807 20.8638 13.1789V17.7949C20.8638 19.2908 19.6524 20.5034 18.1559 20.5034H9.41983V28.8726H27.8381V10.4952L27.8098 10.4654H20.4128V3.12743ZM21.3148 3.6354V9.5635H26.9521L21.3148 3.6354ZM3.93661 17.795V13.179C3.93661 12.1809 4.74465 11.3725 5.74253 11.3725H18.1559C19.1542 11.3725 19.9619 12.1798 19.9619 13.179V17.795C19.9619 18.7931 19.1538 19.6015 18.1559 19.6015H5.74253C4.74423 19.6015 3.93661 18.7942 3.93661 17.795Z" fill="black"/>
</svg>
