<svg width="32" height="32" viewBox="0 0 32 32" fill="none" xmlns="http://www.w3.org/2000/svg">
<path fill-rule="evenodd" clip-rule="evenodd" d="M16.4927 24.8571C15.1447 24.8571 14.0466 25.9637 14.0014 27.3403L14 27.4286C14 28.8487 15.1159 30 16.4927 30H16.5073C17.8553 30 18.9534 28.8934 18.9986 27.5168L19 27.4286C19 26.0084 17.8841 24.8571 16.5073 24.8571H16.4927ZM16.4927 13.4286C15.1447 13.4286 14.0466 14.5351 14.0014 15.9118L14 16C14 17.4202 15.1159 18.5714 16.4927 18.5714H16.5073C17.8553 18.5714 18.9534 17.4649 18.9986 16.0882L19 16C19 14.5798 17.8841 13.4286 16.5073 13.4286H16.4927ZM16.4927 2C15.1447 2 14.0466 3.10657 14.0014 4.4832L14 4.57143C14 5.99159 15.1159 7.14286 16.4927 7.14286H16.5073C17.8553 7.14286 18.9534 6.03629 18.9986 4.65966L19 4.57143C19 3.15127 17.8841 2 16.5073 2H16.4927Z" fill="black"/>
</svg>
