<svg width="32" height="32" viewBox="0 0 32 32" fill="none" xmlns="http://www.w3.org/2000/svg">
<path fill-rule="evenodd" clip-rule="evenodd" d="M16.0558 10.3128H27.9948C29.3752 10.3204 30.4924 11.4375 30.5 12.818L30.5 12.8207L30.5 23.3068L30.5 23.3095C30.4924 24.69 29.3752 25.8071 27.9948 25.8147L27.9921 25.8148H11.9082L7.18928 30.4026V20.2948H8.18928V28.0357L11.5022 24.8148H27.9905C28.8219 24.8096 29.4948 24.1368 29.5 23.3053V12.8222C29.4948 11.9908 28.822 11.318 27.9906 11.3128H16.0558V10.3128Z" fill="black"/>
<path d="M14.9403 19.1793C15.5564 19.1793 16.0558 18.6798 16.0558 18.0638C16.0558 17.4477 15.5564 16.9482 14.9403 16.9482C14.3242 16.9482 13.8247 17.4477 13.8247 18.0638C13.8247 18.6798 14.3242 19.1793 14.9403 19.1793Z" fill="black"/>
<path d="M23.8646 19.1793C24.4807 19.1793 24.9801 18.6798 24.9801 18.0638C24.9801 17.4477 24.4807 16.9482 23.8646 16.9482C23.2485 16.9482 22.749 17.4477 22.749 18.0638C22.749 18.6798 23.2485 19.1793 23.8646 19.1793Z" fill="black"/>
<path d="M19.4024 19.1793C20.0185 19.1793 20.518 18.6798 20.518 18.0638C20.518 17.4477 20.0185 16.9482 19.4024 16.9482C18.7863 16.9482 18.2869 17.4477 18.2869 18.0638C18.2869 18.6798 18.7863 19.1793 19.4024 19.1793Z" fill="black"/>
<path fill-rule="evenodd" clip-rule="evenodd" d="M8.18928 2.78088V16.5H7.18928V2.78088H8.18928Z" fill="black"/>
<path fill-rule="evenodd" clip-rule="evenodd" d="M7.68928 16.2411L2.35359 10.9054L1.64648 11.6125L7.68928 17.6553L13.7321 11.6125L13.025 10.9054L7.68928 16.2411Z" fill="black"/>
</svg>
