<svg width="32" height="32" viewBox="0 0 32 32" fill="none" xmlns="http://www.w3.org/2000/svg">
<path d="M9.07482 2.58025C8.47246 2.8234 8.16853 3.37601 8.163 4.2381H8.94219V5.97056H7.34236V4.61112C7.34236 4.21876 7.36585 3.87752 7.41282 3.58739C7.4598 3.29727 7.58275 3.00715 7.7817 2.71702C7.98064 2.4269 8.28734 2.18789 8.7018 2L9.07482 2.58025Z" fill="black"/>
<path d="M6.49686 2.58025C5.8945 2.8234 5.5878 3.37601 5.57675 4.2381H6.36423V5.97056H4.7644V4.61112C4.7644 4.21876 4.78789 3.87752 4.83486 3.58739C4.88184 3.29727 5.00341 3.00715 5.19959 2.71702C5.39577 2.4269 5.70385 2.18789 6.12384 2L6.49686 2.58025Z" fill="black"/>
<path fill-rule="evenodd" clip-rule="evenodd" d="M17.6979 5.57763C17.6979 3.58266 15.9004 2 13.7214 2C11.5425 2 9.74593 3.58256 9.74593 5.57763V15.7751C9.74593 17.7702 11.5425 19.3528 13.7214 19.3528C15.9004 19.3528 17.6979 17.7701 17.6979 15.7751V5.57763ZM16.4187 5.57763L16.4584 10.1408H11.0251C10.9312 10.1408 11.0251 5.57763 11.0251 5.57763C11.0251 4.32767 12.2154 3.27915 13.7214 3.27915C15.2276 3.27915 16.4187 4.3279 16.4187 5.57763Z" fill="black"/>
<path d="M27.1652 4.38316C27.2122 4.09304 27.2356 3.74904 27.2356 3.35115V2H25.6358V3.73246H26.4233C26.4122 4.59454 26.1055 5.14716 25.5032 5.39031L25.8762 5.97056C26.2962 5.78267 26.6043 5.54366 26.8005 5.25354C26.9966 4.96341 27.1182 4.67329 27.1652 4.38316Z" fill="black"/>
<path d="M24.5872 4.38316C24.6342 4.09304 24.6577 3.74904 24.6577 3.35115V2H23.0578V3.73246H23.837C23.8315 4.59454 23.5276 5.14716 22.9252 5.39031L23.2982 5.97056C23.7127 5.78267 24.0194 5.54366 24.2183 5.25354C24.4173 4.96341 24.5402 4.67329 24.5872 4.38316Z" fill="black"/>
<path d="M4.7657 15.5104C4.78188 15.7661 4.84107 16.1884 4.97092 16.7236C5.18599 17.6099 5.52839 18.4966 6.0287 19.3285C7.41458 21.6329 9.71432 23.0586 13.0552 23.1614V29.3604C13.0552 29.7137 13.3416 30 13.6948 30C14.048 30 14.3344 29.7137 14.3344 29.3604V23.1359C17.4081 22.913 19.5485 21.517 20.8647 19.3285C21.365 18.4966 21.7074 17.6099 21.9225 16.7236C22.0523 16.1884 22.1115 15.7661 22.1277 15.5104C22.15 15.1578 21.8823 14.854 21.5298 14.8317C21.1772 14.8094 20.8734 15.0771 20.8511 15.4296C20.8486 15.469 20.8399 15.5563 20.822 15.6845C20.791 15.9055 20.7445 16.1537 20.6794 16.4219C20.4931 17.1898 20.1967 17.9572 19.7685 18.6692C18.555 20.687 16.5398 21.8882 13.4467 21.8882C10.3536 21.8882 8.33839 20.687 7.12488 18.6692C6.69668 17.9572 6.40032 17.1898 6.214 16.4219C6.14891 16.1537 6.10239 15.9055 6.07141 15.6845C6.05345 15.5563 6.0448 15.469 6.0423 15.4296C6.02 15.0771 5.71614 14.8094 5.36362 14.8317C5.0111 14.854 4.7434 15.1578 4.7657 15.5104Z" fill="black"/>
</svg>
