<svg width="32" height="32" viewBox="0 0 32 32" fill="none" xmlns="http://www.w3.org/2000/svg">
<path d="M18.4 11.9C16 10.9 13.3 11.5 11.4 13.3C9.6 15.1 9 17.9 10 20.3C11 22.7 13.3 24.2 15.9 24.2C19.4 24.2 22.3 21.3 22.3 17.8C22.4 15.2 20.8 12.9 18.4 11.9ZM16 22.7C14 22.7 12.2 21.5 11.5 19.7C10.7 17.9 11.2 15.8 12.6 14.4C13.5 13.5 14.8 13 16.1 13C16.7 13 17.4 13.1 18 13.4C19.8 14.2 21 15.9 21 17.9C20.9 20.5 18.7 22.7 16 22.7Z" fill="black"/>
<path d="M25.7 14.2C26.3627 14.2 26.9 13.6627 26.9 13C26.9 12.3373 26.3627 11.8 25.7 11.8C25.0373 11.8 24.5 12.3373 24.5 13C24.5 13.6627 25.0373 14.2 25.7 14.2Z" fill="black"/>
<path d="M27.2 8.7H25.5C24.4 8.7 23.6 7.8 23.6 6.8C23.6 5.3 22.3 4 20.8 4H11.2C9.7 4 8.4 5.3 8.4 6.8C8.4 7.9 7.5 8.7 6.5 8.7H4.8C3.3 8.7 2 10 2 11.5V24.8C2 26.3 3.3 27.6 4.8 27.6H27.2C28.7 27.6 30 26.3 30 24.8V11.5C30 10 28.7 8.7 27.2 8.7ZM28.5 24.8C28.5 25.5 27.9 26.1 27.2 26.1H4.8C4.1 26.1 3.5 25.5 3.5 24.8V11.5C3.5 10.8 4.1 10.2 4.8 10.2H6.5C8.4 10.2 9.9 8.7 9.9 6.8C9.9 6.1 10.5 5.5 11.2 5.5H20.8C21.5 5.5 22.1 6.1 22.1 6.8C22.1 8.7 23.6 10.2 25.5 10.2H27.2C27.9 10.2 28.5 10.8 28.5 11.5V24.8Z" fill="black"/>
</svg>
