<svg width="32" height="32" viewBox="0 0 32 32" fill="none" xmlns="http://www.w3.org/2000/svg">
<path fill-rule="evenodd" clip-rule="evenodd" d="M22.6719 19.2629C21.7604 22.1978 19.0807 24.1666 16 24.1666C12.9193 24.1666 10.2396 22.1978 9.32812 19.2629C9.1276 18.6431 9.47396 18.0051 10.0938 17.8046C10.6953 17.6041 11.3516 17.9504 11.5521 18.5702C12.1536 20.5207 13.9583 21.8332 16 21.8332C18.0417 21.8332 19.8464 20.5207 20.4479 18.5702C20.6484 17.9504 21.3047 17.6041 21.9245 17.8046C22.526 18.0051 22.8724 18.6431 22.6719 19.2629Z" fill="black"/>
<path fill-rule="evenodd" clip-rule="evenodd" d="M13.6667 11.3333C13.6667 12.6276 12.6276 13.6667 11.3333 13.6667C10.0391 13.6667 9 12.6276 9 11.3333C9 10.0391 10.0391 9 11.3333 9C12.6276 9 13.6667 10.0391 13.6667 11.3333Z" fill="black"/>
<path fill-rule="evenodd" clip-rule="evenodd" d="M23 11.3333C23 12.6276 21.9609 13.6667 20.6667 13.6667C19.3724 13.6667 18.3333 12.6276 18.3333 11.3333C18.3333 10.0391 19.3724 9 20.6667 9C21.9609 9 23 10.0391 23 11.3333Z" fill="black"/>
<path fill-rule="evenodd" clip-rule="evenodd" d="M16 30C23.7292 30 30 23.7292 30 16C30 8.27083 23.7292 2 16 2C8.27083 2 2 8.27083 2 16C2 23.7292 8.27083 30 16 30ZM16 4.33341C22.4349 4.33341 27.6667 9.56518 27.6667 16.0001C27.6667 22.435 22.4349 27.6667 16 27.6667C9.56511 27.6667 4.33334 22.435 4.33334 16.0001C4.33334 9.56518 9.56511 4.33341 16 4.33341Z" fill="black"/>
</svg>
