<svg width="32" height="32" viewBox="0 0 32 32" fill="none" xmlns="http://www.w3.org/2000/svg">
<rect width="32" height="32" fill="white"/>
<path d="M22.6 4.5H29.2C29.6 4.5 30 4.2 30 3.7C30 3.2 29.7 3 29.2 3H22.6C22.2 3 21.8 3.3 21.8 3.8C21.8 4.3 22.2 4.5 22.6 4.5Z" fill="black"/>
<path d="M18.4 4.5H19.4C19.8 4.5 20.2 4.2 20.2 3.7C20.2 3.2 19.8 3 19.4 3H18.4C18 3 17.6 3.3 17.6 3.8C17.6 4.3 17.9 4.5 18.4 4.5Z" fill="black"/>
<path d="M29.2 8H22.6C22.2 8 21.8 8.3 21.8 8.8C21.8 9.3 22.1 9.6 22.6 9.6H29.2C29.6 9.6 30 9.3 30 8.8C30 8.3 29.7 8 29.2 8Z" fill="black"/>
<path d="M18.4 9.5H19.4C19.8 9.5 20.2 9.2 20.2 8.7C20.2 8.2 19.8 8 19.4 8H18.4C18 8 17.6 8.3 17.6 8.8C17.6 9.3 17.9 9.5 18.4 9.5Z" fill="black"/>
<path d="M29.2 13H22.6C22.2 13 21.8 13.3 21.8 13.8C21.8 14.3 22.1 14.6 22.6 14.6H29.2C29.6 14.6 30 14.3 30 13.8C30 13.3 29.7 13 29.2 13Z" fill="black"/>
<path d="M18.4 14.5H19.4C19.8 14.5 20.2 14.2 20.2 13.7C20.2 13.2 19.8 13 19.4 13H18.4C18 13 17.6 13.3 17.6 13.8C17.6 14.3 17.9 14.5 18.4 14.5Z" fill="black"/>
<path d="M26.8 17.5C26.4 17.4 26 17.7 25.9 18.1C24.8 23.3 20.2 27.1 14.8 27.1C8.6 27.1 3.5 22 3.5 15.8C3.5 9.6 8.6 4.5 14.8 4.5C15.2 4.5 15.6 4.2 15.6 3.7C15.6 3.2 15.2 3 14.8 3C7.8 3 2 8.8 2 15.8C2 22.8 7.8 28.6 14.8 28.6C20.9 28.6 26.2 24.3 27.4 18.4C27.5 18 27.2 17.6 26.8 17.5Z" fill="black"/>
<path d="M14.8 7.2C14.4 7.2 14 7.5 14 8V15.6L9.7 22.5C9.5 22.9 9.6 23.3 9.9 23.5C10 23.6 10.2 23.6 10.3 23.6C10.5 23.6 10.8 23.5 10.9 23.2L15.4 16.1C15.5 16 15.5 15.8 15.5 15.7V8C15.6 7.6 15.2 7.2 14.8 7.2Z" fill="black"/>
</svg>
