<svg width="32" height="32" viewBox="0 0 32 32" fill="none" xmlns="http://www.w3.org/2000/svg">
<path d="M30 3.7198C30 3.61971 30 3.51962 29.8999 3.41953C29.8999 3.41953 29.8999 3.31945 29.7998 3.31945C29.7998 3.21936 29.6997 3.21936 29.6997 3.11927H29.5996C29.4996 3.11927 29.4996 3.01918 29.3995 3.01918C29.2994 3.01918 29.2994 3.01918 29.1993 3.01918C29.1993 3.01918 29.1993 3.01918 29.0992 3.01918H11.6836C11.2833 2.91909 10.8829 3.21936 10.8829 3.7198V10.5259C10.8829 10.9262 11.1832 11.3266 11.6836 11.3266C12.1841 11.3266 12.4844 11.0263 12.4844 10.5259V4.52052H24.1948L18.79 6.12195C18.4897 6.22204 18.2895 6.52231 18.2895 6.82257V24.6385H12.5845V18.6331C12.5845 18.2328 12.2842 17.8324 11.7837 17.8324C11.2833 17.8324 10.983 18.1327 10.983 18.6331V25.4392C10.983 25.8396 11.2833 26.2399 11.7837 26.2399H18.2895V28.542C18.2895 28.7421 18.3896 29.0424 18.5898 29.1425C18.6899 29.2426 18.8901 29.2426 18.9902 29.2426C19.0903 29.2426 19.0903 29.2426 19.1903 29.2426L29.4996 26.1398C29.7998 26.0397 30 25.7395 30 25.4392V3.7198ZM28.4987 24.8387L19.6908 27.441V7.32302L28.4987 4.7207V24.8387Z" fill="black"/>
<path d="M4.5773 15.2301H15.487C15.8874 15.2301 16.2878 14.9298 16.2878 14.4294C16.2878 13.9289 15.9875 13.6286 15.487 13.6286H4.5773L8.68096 9.52499C8.98123 9.22472 8.98123 8.72427 8.68096 8.424C8.3807 8.12373 7.88025 8.12373 7.57998 8.424L2.27525 13.7287C2.17516 13.8288 2.17516 13.9289 2.07507 13.9289C1.97498 14.1291 1.97498 14.3293 2.07507 14.5295C2.07507 14.6295 2.17516 14.7296 2.27525 14.7296L7.57998 20.0344C7.68007 20.1345 7.88025 20.2345 8.08043 20.2345C8.28061 20.2345 8.48079 20.1345 8.58088 20.0344C8.88114 19.7341 8.88114 19.2337 8.58088 18.9334L4.5773 15.2301Z" fill="black"/>
</svg>
