<svg width="32" height="32" viewBox="0 0 32 32" fill="none" xmlns="http://www.w3.org/2000/svg">
<path d="M5.2 30H2V23.6C2 22.7 2.7 22 3.6 22C4.5 22 5.2 22.7 5.2 23.6V30Z" fill="black"/>
<path d="M30 30H26.8V3.6C26.8 2.7 27.5 2 28.4 2C29.3 2 30 2.7 30 3.6V30Z" fill="black"/>
<path d="M23.8001 30H20.6001V8.6C20.6001 7.7 21.3001 7 22.2001 7C23.1001 7 23.8001 7.7 23.8001 8.6V30Z" fill="black"/>
<path d="M17.5999 30H14.3999V13.6C14.3999 12.7 15.0999 12 15.9999 12C16.8999 12 17.5999 12.7 17.5999 13.6V30Z" fill="black"/>
<path d="M11.4 30H8.19995V18.6C8.19995 17.7 8.89995 17 9.79995 17C10.7 17 11.4 17.7 11.4 18.6V30Z" fill="black"/>
</svg>
