<svg width="32" height="32" viewBox="0 0 32 32" fill="none" xmlns="http://www.w3.org/2000/svg">
<path d="M23.25 15.5C24.585 15.5 25.8901 15.1041 27.0001 14.3624C28.1101 13.6207 28.9753 12.5665 29.4862 11.3331C29.9971 10.0997 30.1308 8.74252 29.8703 7.43314C29.6098 6.12377 28.967 4.92104 28.023 3.97703C27.079 3.03303 25.8762 2.39015 24.5669 2.1297C23.2575 1.86925 21.9003 2.00292 20.6669 2.51382C19.4335 3.02471 18.3793 3.88987 17.6376 4.9999C16.8959 6.10994 16.5 7.41498 16.5 8.75C16.5 10.5402 17.2112 12.2571 18.477 13.523C19.7429 14.7888 21.4598 15.5 23.25 15.5ZM20.77 6.26C20.7703 6.16761 20.7948 6.07691 20.841 5.99689C20.8872 5.91688 20.9535 5.85032 21.0333 5.80383C21.1131 5.75734 21.2038 5.73253 21.2961 5.73186C21.3885 5.73119 21.4795 5.75468 21.56 5.8L26.05 8.28C26.1334 8.32564 26.2031 8.3929 26.2516 8.47471C26.3001 8.55653 26.3257 8.64989 26.3257 8.745C26.3257 8.84012 26.3001 8.93348 26.2516 9.01529C26.2031 9.09711 26.1334 9.16436 26.05 9.21L21.56 11.7C21.4783 11.7427 21.3871 11.7637 21.295 11.7612C21.2029 11.7586 21.113 11.7326 21.0338 11.6855C20.9547 11.6384 20.8888 11.5718 20.8427 11.4921C20.7965 11.4123 20.7715 11.3221 20.77 11.23V6.26Z" fill="black"/>
<path d="M29.25 15.71C29.0519 15.7126 28.8626 15.7924 28.7225 15.9325C28.5824 16.0726 28.5026 16.2619 28.5 16.46V26.25C28.5003 26.5502 28.4403 26.8475 28.3235 27.1241C28.2067 27.4006 28.0355 27.6509 27.82 27.86L21.71 19C21.6412 18.8948 21.5457 18.8097 21.4333 18.7535C21.3208 18.6973 21.1955 18.6719 21.07 18.68C20.9452 18.6852 20.8236 18.7207 20.7155 18.7834C20.6075 18.8462 20.5164 18.9342 20.45 19.04L17.06 24.64L9.47 12.79C9.40185 12.6866 9.31007 12.601 9.20226 12.5401C9.09445 12.4793 8.9737 12.445 8.85 12.44C8.72707 12.4392 8.60573 12.4678 8.49613 12.5235C8.38652 12.5791 8.29184 12.6602 8.22 12.76L3.5 19.52V5.75C3.5 5.15327 3.73705 4.58097 4.15901 4.15901C4.58097 3.73706 5.15326 3.5 5.75 3.5H15.54C15.7381 3.49741 15.9274 3.41756 16.0675 3.27747C16.2076 3.13737 16.2874 2.94811 16.29 2.75C16.2874 2.5519 16.2076 2.36263 16.0675 2.22254C15.9274 2.08244 15.7381 2.00259 15.54 2H5.75C4.75544 2 3.80161 2.39509 3.09835 3.09835C2.39509 3.80161 2 4.75544 2 5.75V26.25C2 27.2446 2.39509 28.1984 3.09835 28.9017C3.80161 29.6049 4.75544 30 5.75 30H26.25C26.8041 29.9961 27.3504 29.8697 27.85 29.63C27.9244 29.6069 27.9952 29.5733 28.06 29.53C28.6484 29.2082 29.1391 28.7337 29.4805 28.1564C29.8219 27.5792 30.0014 26.9206 30 26.25V16.46C29.9974 16.2619 29.9176 16.0726 29.7775 15.9325C29.6374 15.7924 29.4481 15.7126 29.25 15.71ZM26.25 28.5H5.75C5.15326 28.5 4.58097 28.263 4.15901 27.841C3.73705 27.419 3.5 26.8467 3.5 26.25V22.14L8.81 14.54L16.44 26.54C16.507 26.6497 16.601 26.7402 16.7131 26.8031C16.8252 26.866 16.9515 26.899 17.08 26.899C17.2085 26.899 17.3348 26.866 17.4469 26.8031C17.559 26.7402 17.653 26.6497 17.72 26.54L21.14 20.9L26.43 28.54L26.25 28.5Z" fill="black"/>
</svg>
