<svg width="32" height="32" viewBox="0 0 32 32" fill="none" xmlns="http://www.w3.org/2000/svg">
<path fill-rule="evenodd" clip-rule="evenodd" d="M22.0775 7.49179C22.0775 5.46995 23.7687 3.75916 25.7674 3.75916C27.7661 3.75916 29.4574 5.46995 29.4574 7.49179C29.4574 9.51363 27.7661 11.2244 25.7674 11.2244C24.5401 11.2244 23.4288 10.5794 22.7537 9.61331L9.09455 15.4113C9.27792 15.8494 9.37985 16.327 9.37985 16.8234C9.37985 17.1822 9.32658 17.5312 9.22778 17.8626L22.8098 23.3502C23.3048 21.8737 24.7088 20.7756 26.3101 20.7756C28.3088 20.7756 30 22.4864 30 24.5082C30 26.5301 28.3088 28.2409 26.3101 28.2409C24.5342 28.2409 23.0011 26.8903 22.6813 25.171L8.34938 19.3805C7.67182 20.1 6.72185 20.556 5.68992 20.556C3.69121 20.556 2 18.8452 2 16.8234C2 14.8015 3.69121 13.0907 5.68992 13.0907C6.59231 13.0907 7.43202 13.4395 8.0817 14.0081C8.13708 13.9495 8.20702 13.9016 8.29115 13.8659L22.1132 7.99881C22.0897 7.83261 22.0775 7.66332 22.0775 7.49179ZM5.68992 15.0668C4.60465 15.0668 3.95348 15.7255 3.95348 16.8234C3.95348 17.9212 4.60465 18.5799 5.68992 18.5799C6.77519 18.5799 7.42635 17.9212 7.42635 16.8234C7.42635 15.7255 6.77519 15.0668 5.68992 15.0668ZM24.031 7.49179C24.031 6.39395 24.6822 5.73525 25.7674 5.73525C26.8527 5.73525 27.5039 6.39395 27.5039 7.49179C27.5039 8.58962 26.8527 9.24832 25.7674 9.24832C24.6822 9.24832 24.031 8.58962 24.031 7.49179ZM24.5736 24.5082C24.5736 23.4104 25.2248 22.7517 26.3101 22.7517C27.3953 22.7517 28.0465 23.4104 28.0465 24.5082C28.0465 25.6061 27.3953 26.2648 26.3101 26.2648C25.2248 26.2648 24.5736 25.6061 24.5736 24.5082Z" fill="black"/>
</svg>
