<svg width="32" height="32" viewBox="0 0 32 32" fill="none" xmlns="http://www.w3.org/2000/svg">
<path d="M15.0858 23.616H16.952V12.416H15.0858V23.616Z" fill="black"/>
<path d="M15.0858 10.5498H16.952V8.4036H15.0858V10.5498Z" fill="black"/>
<path fill-rule="evenodd" clip-rule="evenodd" d="M2 16C2 23.7322 8.2678 30 16 30H16.0014C23.728 29.9888 29.9888 23.728 30 16C30 8.2678 23.7322 2 16 2C8.2678 2 2 8.2678 2 16ZM3.8662 16C3.8662 9.29819 9.2996 3.86619 16 3.86619H16.0014C22.6976 3.87739 28.1226 9.30379 28.1338 16C28.1338 22.7018 22.7004 28.1338 16 28.1338C9.2982 28.1338 3.8662 22.7018 3.8662 16Z" fill="black"/>
</svg>
