<svg width="32" height="32" viewBox="0 0 32 32" fill="none" xmlns="http://www.w3.org/2000/svg">
<path fill-rule="evenodd" clip-rule="evenodd" d="M25.5136 9.43663C25.7892 9.16077 26.1632 9.00578 26.5532 9.00578C26.9431 9.00578 27.317 9.1607 27.5926 9.43643L28.9844 10.8259C29.5429 11.4039 29.8567 12.2957 29.9647 13.3198C30.0739 14.3556 29.9796 15.5852 29.664 16.9071C29.0325 19.5526 27.5028 22.6188 24.8403 25.3257L24.8346 25.3316C22.1282 27.9946 19.0617 29.524 16.4159 30.1555C15.0938 30.4711 13.8642 30.5655 12.8285 30.4566C11.8044 30.3489 10.9128 30.0357 10.335 29.4781L10.3281 29.4715L8.94598 28.0857C8.37323 27.5102 8.37045 26.5803 8.94027 26.0019L8.94319 25.9989L10.0904 24.854C10.7176 24.2282 11.4523 23.4955 11.8818 23.0683L11.8916 23.0586L11.9018 23.0494C13.0586 22.0187 14.8279 22.1089 15.8741 23.2496L16.56 23.9355C16.8329 24.2094 17.3692 24.3455 18.2484 24.0389C19.114 23.737 20.1961 23.0359 21.3701 21.8619C22.5452 20.6852 23.2451 19.6048 23.5458 18.7402C23.8502 17.8649 23.717 17.3254 23.4398 17.0444L23.4389 17.0436L22.761 16.3656C21.618 15.3205 21.5272 13.5493 22.5597 12.3927L22.5688 12.3825L22.5784 12.3728C23.0063 11.9432 23.7403 11.209 24.3671 10.5824L25.5136 9.43663ZM9.65267 26.7037C9.46771 26.8914 9.46848 27.1931 9.65439 27.3799L11.0326 28.7616C11.3856 29.1002 12.0229 29.3664 12.933 29.4621C13.8342 29.5568 14.9482 29.4778 16.1837 29.1828C18.6521 28.5936 21.5549 27.1546 24.1302 24.6216C26.6628 22.0457 28.1021 19.143 28.6914 16.6749C28.9863 15.4395 29.0652 14.3257 28.9702 13.4247C28.8742 12.5147 28.6076 11.8773 28.2681 11.5239L26.8859 10.1439C26.7978 10.0557 26.6779 10.0058 26.5532 10.0058C26.4286 10.0058 26.309 10.0553 26.2209 10.1435L25.8745 9.79728C26.2206 10.1438 26.2209 10.1435 26.2209 10.1435L25.0741 11.2896C24.4522 11.9113 23.7256 12.6382 23.2971 13.0683C22.6368 13.8184 22.7003 14.9611 23.442 15.6333L23.4511 15.6415L24.1499 16.3403C24.815 17.0127 24.853 18.026 24.4903 19.0687C24.1235 20.1231 23.3167 21.3278 22.0777 22.5685C20.839 23.8072 19.6325 24.6152 18.5777 24.9831C17.5368 25.3461 16.5204 25.3121 15.8528 24.6425L15.1506 23.9403L15.1426 23.9315C14.4693 23.191 13.3273 23.1279 12.5767 23.7875C12.1465 24.2155 11.419 24.9411 10.7967 25.5619L9.65572 26.7006L9.65267 26.7037Z" fill="black"/>
<path fill-rule="evenodd" clip-rule="evenodd" d="M8.12769 5.77638H11.2023C12.3188 5.77638 13.1947 6.03577 13.8016 6.52372C14.4207 7.02143 14.706 7.71459 14.706 8.45129C14.706 9.17711 14.4446 9.87309 13.8291 10.3763C13.2271 10.8685 12.3474 11.1262 11.2023 11.1262H9.12769V14.4579H8.12769V5.77638ZM9.12769 10.1262H11.2023C12.2131 10.1262 12.8353 9.89708 13.1961 9.60208C13.5435 9.31812 13.706 8.92663 13.706 8.45129C13.706 7.98681 13.535 7.59252 13.175 7.30307C12.8029 7.00386 12.177 6.77638 11.2023 6.77638H9.12769V10.1262Z" fill="black"/>
<path fill-rule="evenodd" clip-rule="evenodd" d="M1.99158 10.1815C1.99158 5.38683 5.87841 1.5 10.6731 1.5C15.4677 1.5 19.3545 5.38683 19.3545 10.1815C19.3545 14.9761 15.4677 18.863 10.6731 18.863C5.87841 18.863 1.99158 14.9761 1.99158 10.1815ZM10.6731 2.5C6.4307 2.5 2.99158 5.93912 2.99158 10.1815C2.99158 14.4239 6.4307 17.863 10.6731 17.863C14.9154 17.863 18.3545 14.4239 18.3545 10.1815C18.3545 5.93912 14.9154 2.5 10.6731 2.5Z" fill="black"/>
</svg>
