<svg width="32" height="32" viewBox="0 0 32 32" fill="none" xmlns="http://www.w3.org/2000/svg">
<path d="M26.25 2H5.75C4.75544 2 3.80161 2.39509 3.09835 3.09835C2.39509 3.80161 2 4.75544 2 5.75V26.25C2 27.2446 2.39509 28.1984 3.09835 28.9017C3.80161 29.6049 4.75544 30 5.75 30H26.25C27.2446 30 28.1984 29.6049 28.9017 28.9017C29.6049 28.1984 30 27.2446 30 26.25V5.75C30 4.75544 29.6049 3.80161 28.9017 3.09835C28.1984 2.39509 27.2446 2 26.25 2ZM12.33 3.5H19.67V8.5H12.33V3.5ZM3.5 5.75C3.5 5.15326 3.73705 4.58097 4.15901 4.15901C4.58097 3.73705 5.15326 3.5 5.75 3.5H10.83V8.5H9.2C9.00189 8.50259 8.81263 8.58244 8.67253 8.72253C8.53244 8.86263 8.45259 9.05189 8.45 9.25V10.83H3.5V5.75ZM3.5 12.33H8.5V19.67H3.5V12.33ZM10.83 28.5H5.75C5.15326 28.5 4.58097 28.2629 4.15901 27.841C3.73705 27.419 3.5 26.8467 3.5 26.25V21.17H8.5V22.8C8.50259 22.9981 8.58244 23.1874 8.72253 23.3275C8.86263 23.4676 9.05189 23.5474 9.25 23.55H10.83V28.5ZM19.67 28.5H12.33V23.55H19.67V28.5ZM16 16.94C14.841 16.94 13.7295 17.4004 12.9099 18.2199C12.0904 19.0395 11.63 20.151 11.63 21.31V22.05H10V10H22.1V22.1H20.37V21.36C20.3766 20.7819 20.2685 20.2083 20.0518 19.6723C19.8352 19.1363 19.5143 18.6487 19.1079 18.2376C18.7014 17.8265 18.2174 17.5001 17.684 17.2774C17.1505 17.0546 16.5781 16.94 16 16.94ZM28.5 26.25C28.5 26.8467 28.2629 27.419 27.841 27.841C27.419 28.2629 26.8467 28.5 26.25 28.5H21.17V23.55H22.8C22.9981 23.5474 23.1874 23.4676 23.3275 23.3275C23.4676 23.1874 23.5474 22.9981 23.55 22.8V21.17H28.5V26.25ZM28.5 19.67H23.55V12.33H28.5V19.67ZM28.5 10.83H23.55V9.2C23.5474 9.00189 23.4676 8.81263 23.3275 8.67253C23.1874 8.53244 22.9981 8.45259 22.8 8.45H21.17V3.5H26.25C26.8467 3.5 27.419 3.73705 27.841 4.15901C28.2629 4.58097 28.5 5.15326 28.5 5.75V10.83Z" fill="black"/>
<path d="M16 16.6C17.5077 16.6 18.73 15.3777 18.73 13.87C18.73 12.3623 17.5077 11.14 16 11.14C14.4923 11.14 13.27 12.3623 13.27 13.87C13.27 15.3777 14.4923 16.6 16 16.6Z" fill="black"/>
</svg>
