<svg width="32" height="32" viewBox="0 0 32 32" fill="none" xmlns="http://www.w3.org/2000/svg">
<path d="M26.1139 2H5.78648C3.69395 2 2 3.69395 2 5.78648V26.2135C2 28.2064 3.69395 29.9004 5.78648 29.9004H26.2135C28.306 29.9004 30 28.2064 30 26.1139V5.78648C29.9004 3.69395 28.2064 2 26.1139 2ZM11.2669 12.2633H28.4057V19.5374H11.2669V12.2633ZM5.78648 3.49466H26.2135C27.4093 3.49466 28.4057 4.4911 28.4057 5.68683V10.7687H3.49466V5.78648C3.49466 4.4911 4.4911 3.49466 5.78648 3.49466ZM3.49466 26.1139V12.2633H9.77224V28.4057H5.78648C4.4911 28.4057 3.49466 27.4093 3.49466 26.1139ZM26.1139 28.4057H11.1673V21.1317H28.306V26.2135C28.4057 27.4093 27.4093 28.4057 26.1139 28.4057Z" fill="black"/>
</svg>
