<svg width="32" height="32" viewBox="0 0 32 32" fill="none" xmlns="http://www.w3.org/2000/svg">
<path fill-rule="evenodd" clip-rule="evenodd" d="M3.02818 15.4378C3.02818 9.70446 9.10161 5.14246 16.5163 5.14246C23.9301 5.14246 30 9.70393 30 15.4378C30 21.1673 23.9287 25.7288 16.5163 25.7288C15.2024 25.7288 13.9132 25.5846 12.676 25.3044C11.9957 25.6165 11.2718 25.8778 10.5095 26.0923C8.14216 26.7583 5.8565 26.9173 3.3329 26.8396C3.27169 26.8377 2.92712 26.8261 2.85863 26.8244C2.80441 26.823 2.76646 26.8226 2.74332 26.8229C2.0602 26.9869 1.66575 25.9273 2.37613 25.5821C4.93141 24.3403 6.13641 23.5393 6.64134 22.449C4.34461 20.5686 3.02818 18.09 3.02818 15.4378ZM10.1541 24.8289C10.9254 24.6119 11.6493 24.3441 12.319 24.0221C12.4553 23.9565 12.6102 23.9401 12.7573 23.9756C13.9625 24.2662 15.2256 24.4163 16.5163 24.4163C23.2722 24.4163 28.6875 20.3477 28.6875 15.4378C28.6875 10.5235 23.2735 6.45494 16.5163 6.45494C9.75812 6.45494 4.34066 10.5242 4.34066 15.4378C4.34066 17.797 5.59493 20.0273 7.81852 21.7052C8.03689 21.87 8.13013 22.1529 8.0525 22.4152C7.66801 23.7145 6.87445 24.5762 5.27765 25.5335C6.95177 25.4855 8.54181 25.2825 10.1541 24.8289Z" fill="black"/>
</svg>
