<svg width="32" height="32" viewBox="0 0 32 32" fill="none" xmlns="http://www.w3.org/2000/svg">
<path fill-rule="evenodd" clip-rule="evenodd" d="M11.55 5.5C10.473 5.5 9.6 6.37304 9.6 7.45C9.6 8.52696 10.473 9.4 11.55 9.4C12.627 9.4 13.5 8.52696 13.5 7.45C13.5 6.37304 12.627 5.5 11.55 5.5ZM8.1 7.45C8.1 5.54462 9.64462 4 11.55 4C13.4554 4 15 5.54462 15 7.45C15 9.35538 13.4554 10.9 11.55 10.9C9.64462 10.9 8.1 9.35538 8.1 7.45Z" fill="black"/>
<path fill-rule="evenodd" clip-rule="evenodd" d="M13.5 7.45C13.5 7.03579 13.8358 6.7 14.25 6.7H29.25C29.6642 6.7 30 7.03579 30 7.45C30 7.86421 29.6642 8.2 29.25 8.2H14.25C13.8358 8.2 13.5 7.86421 13.5 7.45Z" fill="black"/>
<path fill-rule="evenodd" clip-rule="evenodd" d="M2 7.45C2 7.03579 2.33579 6.7 2.75 6.7H8.85C9.26421 6.7 9.6 7.03579 9.6 7.45C9.6 7.86421 9.26421 8.2 8.85 8.2H2.75C2.33579 8.2 2 7.86421 2 7.45Z" fill="black"/>
<path fill-rule="evenodd" clip-rule="evenodd" d="M11.55 21.8C10.473 21.8 9.6 22.673 9.6 23.75C9.6 24.827 10.473 25.7 11.55 25.7C12.627 25.7 13.5 24.827 13.5 23.75C13.5 22.673 12.627 21.8 11.55 21.8ZM8.1 23.75C8.1 21.8446 9.64462 20.3 11.55 20.3C13.4554 20.3 15 21.8446 15 23.75C15 25.6554 13.4554 27.2 11.55 27.2C9.64462 27.2 8.1 25.6554 8.1 23.75Z" fill="black"/>
<path fill-rule="evenodd" clip-rule="evenodd" d="M13.5 23.75C13.5 23.3358 13.8358 23 14.25 23H29.25C29.6642 23 30 23.3358 30 23.75C30 24.1642 29.6642 24.5 29.25 24.5H14.25C13.8358 24.5 13.5 24.1642 13.5 23.75Z" fill="black"/>
<path fill-rule="evenodd" clip-rule="evenodd" d="M2 23.75C2 23.3358 2.33579 23 2.75 23H8.85C9.26421 23 9.6 23.3358 9.6 23.75C9.6 24.1642 9.26421 24.5 8.85 24.5H2.75C2.33579 24.5 2 24.1642 2 23.75Z" fill="black"/>
<path fill-rule="evenodd" clip-rule="evenodd" d="M20.35 13.6C19.273 13.6 18.4 14.473 18.4 15.55C18.4 16.627 19.273 17.5 20.35 17.5C21.427 17.5 22.3 16.627 22.3 15.55C22.3 14.473 21.427 13.6 20.35 13.6ZM16.9 15.55C16.9 13.6446 18.4446 12.1 20.35 12.1C22.2554 12.1 23.8 13.6446 23.8 15.55C23.8 17.4554 22.2554 19 20.35 19C18.4446 19 16.9 17.4554 16.9 15.55Z" fill="black"/>
<path fill-rule="evenodd" clip-rule="evenodd" d="M2 15.55C2 15.1358 2.33579 14.8 2.75 14.8H17.65C18.0642 14.8 18.4 15.1358 18.4 15.55C18.4 15.9642 18.0642 16.3 17.65 16.3H2.75C2.33579 16.3 2 15.9642 2 15.55Z" fill="black"/>
<path fill-rule="evenodd" clip-rule="evenodd" d="M22.3 15.55C22.3 15.1358 22.6358 14.8 23.05 14.8H29.25C29.6642 14.8 30 15.1358 30 15.55C30 15.9642 29.6642 16.3 29.25 16.3H23.05C22.6358 16.3 22.3 15.9642 22.3 15.55Z" fill="black"/>
</svg>
