<svg width="32" height="32" viewBox="0 0 32 32" fill="none" xmlns="http://www.w3.org/2000/svg">
<path fill-rule="evenodd" clip-rule="evenodd" d="M7.14286 15.4927C7.14286 14.1447 6.03629 13.0466 4.65966 13.0014L4.57143 13C3.15127 13 2 14.1159 2 15.4927V15.5073C2 16.8553 3.10657 17.9534 4.4832 17.9986L4.57143 18C5.99159 18 7.14286 16.8841 7.14286 15.5073V15.4927ZM18.5714 15.4927C18.5714 14.1447 17.4649 13.0466 16.0882 13.0014L16 13C14.5798 13 13.4286 14.1159 13.4286 15.4927V15.5073C13.4286 16.8553 14.5351 17.9534 15.9118 17.9986L16 18C17.4202 18 18.5714 16.8841 18.5714 15.5073V15.4927ZM30 15.4927C30 14.1447 28.8934 13.0466 27.5168 13.0014L27.4286 13C26.0084 13 24.8571 14.1159 24.8571 15.4927V15.5073C24.8571 16.8553 25.9637 17.9534 27.3403 17.9986L27.4286 18C28.8487 18 30 16.8841 30 15.5073V15.4927Z" fill="black"/>
</svg>
