<svg width="32" height="32" viewBox="0 0 32 32" fill="none" xmlns="http://www.w3.org/2000/svg">
<path d="M22.5 10.7901L23.75 3.79006C23.7863 3.5696 23.7741 3.34389 23.7144 3.12859C23.6547 2.91329 23.5489 2.71356 23.4043 2.54325C23.2597 2.37295 23.0797 2.23615 22.877 2.14235C22.6742 2.04855 22.4534 2 22.23 2.00006H21.86C21.4989 1.99953 21.1493 2.12672 20.8729 2.35914C20.5966 2.59156 20.4114 2.91423 20.35 3.27006L19 10.7901H14.26L15.51 3.79006C15.5461 3.57043 15.5342 3.34558 15.4751 3.13099C15.416 2.91641 15.3111 2.71718 15.1675 2.54705C15.024 2.37692 14.8453 2.23992 14.6438 2.14549C14.4422 2.05106 14.2226 2.00145 14 2.00006H13.63C13.266 1.99679 12.9126 2.12255 12.6326 2.35504C12.3525 2.58752 12.1638 2.9117 12.1 3.27006L10.76 10.7901H4.85C4.44157 10.7901 4.04986 10.9523 3.76106 11.2411C3.47225 11.5299 3.31 11.9216 3.31 12.3301C3.31 12.7385 3.47225 13.1302 3.76106 13.419C4.04986 13.7078 4.44157 13.8701 4.85 13.8701H10.21L9.45 18.1201H3.54C3.33776 18.1201 3.13751 18.1599 2.95067 18.2373C2.76383 18.3147 2.59406 18.4281 2.45106 18.5711C2.30805 18.7141 2.19462 18.8839 2.11723 19.0707C2.03983 19.2576 2 19.4578 2 19.6601C2 19.8623 2.03983 20.0626 2.11723 20.2494C2.19462 20.4362 2.30805 20.606 2.45106 20.749C2.59406 20.892 2.76383 21.0054 2.95067 21.0828C3.13751 21.1602 3.33776 21.2001 3.54 21.2001H8.9L7.65 28.2001C7.61211 28.4213 7.62302 28.6481 7.68198 28.8646C7.74093 29.0811 7.8465 29.2822 7.99129 29.4536C8.13608 29.6251 8.31659 29.7629 8.5202 29.8572C8.72381 29.9516 8.94558 30.0004 9.17 30.0001H9.54C9.90227 30.001 10.2533 29.8741 10.5313 29.6419C10.8093 29.4096 10.9965 29.0867 11.06 28.7301L12.4 21.2001H17.14L15.9 28.2001C15.8622 28.4204 15.8729 28.6464 15.9313 28.8622C15.9897 29.078 16.0944 29.2785 16.2381 29.4498C16.3818 29.6211 16.561 29.7591 16.7634 29.8541C16.9658 29.9491 17.1864 29.9989 17.41 30.0001H17.78C18.1423 30.001 18.4933 29.8741 18.7713 29.6419C19.0493 29.4096 19.2365 29.0867 19.3 28.7301L20.64 21.2001H26.55C26.9584 21.2001 27.3501 21.0378 27.6389 20.749C27.9278 20.4602 28.09 20.0685 28.09 19.6601C28.09 19.2516 27.9278 18.8599 27.6389 18.5711C27.3501 18.2823 26.9584 18.1201 26.55 18.1201H21.19L22 13.8701H27.91C28.3184 13.8701 28.7101 13.7078 28.9989 13.419C29.2878 13.1302 29.45 12.7385 29.45 12.3301C29.45 11.9216 29.2878 11.5299 28.9989 11.2411C28.7101 10.9523 28.3184 10.7901 27.91 10.7901H22.5ZM17.69 18.1201H13L13.76 13.8701H18.5L17.69 18.1201Z" fill="black"/>
</svg>
