<svg width="32" height="32" viewBox="0 0 32 32" fill="none" xmlns="http://www.w3.org/2000/svg">
<g clip-path="url(#clip0)">
<path fill-rule="evenodd" clip-rule="evenodd" d="M1.94971 5.88623C1.94971 3.77954 3.67932 2.04993 5.78601 2.04993H19.7362C20.4639 2.04993 21.1447 2.35178 21.7593 2.96632L29.1003 10.3073C29.7193 10.804 29.9497 11.6457 29.9497 12.2634V26.2136C29.9497 28.3203 28.2201 30.0499 26.1134 30.0499H5.78601C3.67932 30.0499 1.94971 28.3203 1.94971 26.2136V5.88623ZM5.78601 3.54459C4.5048 3.54459 3.44437 4.60502 3.44437 5.88623V26.2136C3.44437 27.4948 4.5048 28.5553 5.78601 28.5553H26.1134C27.3946 28.5553 28.455 27.4948 28.455 26.2136V12.2634C28.455 11.9002 28.2986 11.5732 28.1561 11.4663C28.1278 11.4451 28.1011 11.4219 28.0761 11.3969L20.7024 4.02321C20.3205 3.64131 20.0049 3.54459 19.7362 3.54459H5.78601Z" fill="black"/>
<path fill-rule="evenodd" clip-rule="evenodd" d="M19.5369 2.04993C19.9496 2.04993 20.2842 2.38452 20.2842 2.79726V10.3702C20.2842 11.0536 20.8464 11.6158 21.5298 11.6158H29.1027C29.5155 11.6158 29.8501 11.9504 29.8501 12.3631C29.8501 12.7758 29.5155 13.1104 29.1027 13.1104H21.5298C20.021 13.1104 18.7896 11.879 18.7896 10.3702V2.79726C18.7896 2.38452 19.1242 2.04993 19.5369 2.04993Z" fill="black"/>
<path d="M9.27355 21.8293V24.1211H7.87853V17.6442H10.3696C10.8679 17.6442 11.2664 17.7439 11.665 17.9432C12.0636 18.1425 12.3625 18.3417 12.5618 18.7403C12.7611 19.0392 12.8607 19.4378 12.8607 19.8364C12.8607 20.4343 12.6615 20.9325 12.1632 21.3311C11.7647 21.7296 11.1668 21.9289 10.3696 21.9289H9.27355V21.8293ZM9.27355 20.7332H10.4693C10.8679 20.7332 11.0671 20.6336 11.2664 20.4343C11.4657 20.235 11.5654 20.0357 11.5654 19.7368C11.5654 19.4378 11.4657 19.1389 11.2664 18.9396C11.0671 18.7403 10.8679 18.6407 10.4693 18.6407H9.27355V20.7332Z" fill="black"/>
<path d="M13.8572 24.1211V17.6442H15.8501C16.4479 17.6442 16.9461 17.7439 17.3447 18.0428C17.8429 18.3417 18.1419 18.6407 18.4408 19.1389C18.7397 19.6371 18.8394 20.1353 18.8394 20.7332V21.0321C18.8394 21.63 18.7397 22.1282 18.4408 22.6264C18.2415 23.1247 17.8429 23.4236 17.3447 23.7225C16.8465 24.0215 16.3483 24.1211 15.8501 24.1211H13.8572ZM15.1526 18.6407V23.025H15.7504C16.2486 23.025 16.6472 22.8257 16.9461 22.5268C17.2451 22.2279 17.3447 21.7296 17.3447 21.0321V20.7332C17.3447 20.0357 17.2451 19.5375 16.9461 19.2385C16.6472 18.9396 16.2486 18.7403 15.7504 18.7403H15.1526V18.6407Z" fill="black"/>
<path d="M23.6223 21.4307H21.0316V24.1211H19.7362V17.6442H23.9212V18.7403H21.0316V20.4343H23.6223V21.4307Z" fill="black"/>
</g>
<defs>
<clipPath id="clip0">
<rect width="28" height="28" fill="white" transform="translate(2 2)"/>
</clipPath>
</defs>
</svg>
