<svg width="32" height="32" viewBox="0 0 32 32" fill="none" xmlns="http://www.w3.org/2000/svg">
<path fill-rule="evenodd" clip-rule="evenodd" d="M15.9646 3.72266C15.5658 3.72266 15.2668 3.92202 15.0675 4.32073L12.5755 11.9959C12.4758 12.3946 12.0771 12.594 11.6784 12.594H3.70419C2.80709 12.594 2.40838 13.6904 3.2058 14.2885L9.68485 19.073C9.98389 19.2724 10.1832 19.6711 9.98389 20.0698L7.49195 27.745C7.19291 28.5424 8.18969 29.2402 8.88743 28.7418L15.3665 23.9572C15.5658 23.8576 15.6655 23.7579 15.8649 23.7579V3.72266H15.9646Z" fill="black"/>
<path fill-rule="evenodd" clip-rule="evenodd" d="M15.7773 4.6549L13.0871 12.9249C12.9869 13.2328 12.6999 13.4412 12.3762 13.4412H3.60451C3.60232 13.441 3.59655 13.4405 3.58124 13.4537C3.55876 13.4732 3.52765 13.5143 3.50862 13.5756C3.48975 13.6364 3.49149 13.689 3.50015 13.7217C3.50678 13.7467 3.5169 13.7629 3.54065 13.7798L3.54227 13.781L10.6194 18.8646C10.8837 19.0544 10.9948 19.3935 10.8942 19.703L8.20286 27.9763C8.19945 27.9867 8.1958 27.9972 8.19193 28.0075C8.18181 28.0345 8.18521 28.0435 8.18725 28.0489C8.19217 28.0623 8.209 28.0916 8.24801 28.1193C8.28683 28.1468 8.32957 28.16 8.3641 28.1615C8.39244 28.1627 8.41996 28.1568 8.45242 28.1338L15.5284 23.051C15.789 22.8638 16.1401 22.8638 16.4007 23.051L23.4762 28.1334C23.5087 28.1565 23.5367 28.1627 23.565 28.1615C23.5995 28.16 23.6423 28.1468 23.6811 28.1193C23.7201 28.0916 23.7367 28.0631 23.7416 28.0497C23.7436 28.0443 23.7473 28.0345 23.7372 28.0075C23.7333 27.9972 23.7297 27.9867 23.7262 27.9763L21.0349 19.703C20.9343 19.3935 21.0454 19.0544 21.3097 18.8646L28.3793 13.7864C28.46 13.7246 28.4868 13.6703 28.4967 13.64C28.5077 13.6062 28.5067 13.574 28.4975 13.5454C28.488 13.516 28.4702 13.4915 28.4475 13.4746C28.4278 13.46 28.3916 13.4412 28.3246 13.4412H19.5529C19.2292 13.4412 18.9422 13.2328 18.842 12.9249L16.1524 4.65681L16.1518 4.6549C16.126 4.5788 16.0908 4.54396 16.0661 4.52654C16.0377 4.50654 16.0025 4.49517 15.9646 4.49517C15.9266 4.49517 15.8914 4.50654 15.863 4.52654C15.8383 4.54396 15.8031 4.5788 15.7773 4.6549ZM14.3582 4.184C14.8845 2.60533 17.0446 2.60533 17.5709 4.184L17.5726 4.18914L20.0959 11.9461H28.3246C29.1085 11.9461 29.7127 12.44 29.9209 13.0879C30.1329 13.7473 29.9193 14.5004 29.2715 14.9862L29.2591 14.9954L22.6258 19.7601L25.1437 27.5002C25.4233 28.2711 25.0603 28.9746 24.5453 29.3394C24.0314 29.7034 23.2571 29.8144 22.6071 29.3501L22.6055 29.3489L15.9646 24.5787L9.32357 29.3489L9.32196 29.3501C8.67196 29.8144 7.89773 29.7034 7.38378 29.3394C6.86881 28.9746 6.50581 28.2711 6.78544 27.5002L9.30329 19.7601L2.6716 14.9965L2.67069 14.9959C1.99744 14.5143 1.89808 13.7207 2.08064 13.1324C2.25963 12.5557 2.78659 11.9461 3.60451 11.9461H11.8332L14.3582 4.184Z" fill="black"/>
</svg>
