<svg width="32" height="32" viewBox="0 0 32 32" fill="none" xmlns="http://www.w3.org/2000/svg">
<path fill-rule="evenodd" clip-rule="evenodd" d="M22.6466 4.27558C18.989 2.68124 14.5907 3.34092 11.5985 6.33305C10.7567 7.1749 10.1537 8.00073 9.70667 8.94987C9.82263 9.09591 9.9469 9.25161 10.0761 9.41355C10.1687 9.52958 10.2639 9.64882 10.3604 9.77001C10.8882 10.4328 11.455 11.1529 11.7782 11.635C12.2681 12.3021 12.1937 13.022 11.9123 13.6025C11.6477 14.1482 11.1832 14.6262 10.7609 14.9958C10.3404 15.3637 10.1308 15.5677 10.0231 15.7447C9.95667 15.8539 9.924 15.954 9.97788 16.1774C10.0537 16.4338 10.2862 16.9369 10.7022 17.5787C11.1143 18.2145 11.6823 18.949 12.3926 19.6607C13.1124 20.3315 13.8277 20.8787 14.4516 21.2789C15.0921 21.6898 15.592 21.9172 15.8816 21.9896C16.1133 22.0476 16.215 22.0149 16.3261 21.9473C16.503 21.8396 16.7071 21.63 17.075 21.2095C17.4445 20.7872 17.9226 20.3227 18.4683 20.0581C19.0537 19.7743 19.781 19.701 20.4529 20.2049C20.8337 20.4905 21.4468 20.9881 22.0527 21.4799C22.1079 21.5248 22.1631 21.5695 22.2181 21.6141C22.4999 21.8428 22.7742 22.0648 23.0221 22.263C23.9706 21.816 24.796 21.2133 25.6374 20.3719C28.6295 17.3798 29.2892 12.9814 27.6948 9.32383C27.5367 8.96093 27.7026 8.5385 28.0655 8.38032C28.4284 8.22213 28.8508 8.38808 29.009 8.75098C30.8266 12.9207 30.0814 17.9553 26.6511 21.3856C25.8818 22.1549 25.1018 22.7663 24.2335 23.2514C24.5193 23.5393 24.8002 23.8922 24.9812 24.3024C25.2471 24.9051 25.2878 25.6204 24.8677 26.3392C24.8327 26.41 24.7954 26.4884 24.7551 26.5729C24.2603 27.6127 23.3204 29.5878 20.624 29.9178C17.7944 30.3641 13.3662 29.0856 8.17152 23.7891C2.97134 18.4869 1.714 14.1679 2.05091 11.3604C2.35618 8.81647 4.15655 7.88046 5.18622 7.34513C5.34768 7.26119 5.4902 7.18709 5.60502 7.1182C6.33569 6.6798 7.08437 6.72291 7.69871 6.9862C8.10273 7.15935 8.45208 7.42651 8.73073 7.71614C9.2139 6.85617 9.82167 6.08249 10.5848 5.31934C14.0151 1.88905 19.0497 1.14383 23.2194 2.9614C23.5823 3.11959 23.7483 3.54201 23.5901 3.90491C23.4319 4.26781 23.0095 4.43377 22.6466 4.27558ZM22.9907 24.0514C22.6121 23.778 21.955 23.2468 21.3148 22.7274C21.2627 22.6851 21.2106 22.6428 21.1587 22.6007C20.5416 22.0999 19.95 21.6198 19.5928 21.3518C19.4619 21.2537 19.3362 21.2306 19.0937 21.3481C18.8116 21.4849 18.4868 21.7731 18.1539 22.1536C17.8194 22.5358 17.4715 22.9284 17.0715 23.1719C16.6055 23.4555 16.1051 23.5232 15.5339 23.3804C15.0207 23.2521 14.3666 22.9276 13.6775 22.4856C12.9744 22.0345 12.1878 21.4306 11.4054 20.7003C11.3994 20.6947 11.3934 20.689 11.3876 20.6831C10.5968 19.8923 9.9635 19.0748 9.49921 18.3584C9.04337 17.6551 8.72462 17.0095 8.59615 16.5599C8.59396 16.5522 8.5919 16.5445 8.58997 16.5368C8.44718 15.9656 8.51488 15.4653 8.79852 14.9993C9.04202 14.5993 9.43457 14.2514 9.81686 13.9169C10.1973 13.584 10.4855 13.2592 10.6223 12.977C10.7399 12.7346 10.7168 12.6089 10.6186 12.478C10.6106 12.4674 10.603 12.4566 10.5956 12.4455C10.3149 12.0245 9.78434 11.348 9.23893 10.663C9.14829 10.5492 9.05711 10.435 8.96691 10.322C8.5316 9.77672 8.119 9.25989 7.89929 8.95229C7.70447 8.67955 7.42407 8.42821 7.13399 8.30389C6.87026 8.19086 6.61544 8.1838 6.34261 8.3475C6.15579 8.45959 5.9612 8.56435 5.76515 8.66989C4.74397 9.21963 3.68316 9.7907 3.4743 11.5312C3.2091 13.7412 4.15948 17.651 9.19502 22.7852C14.2275 27.9164 18.2228 28.8502 20.4114 28.5C20.4206 28.4985 20.4299 28.4972 20.4392 28.4961C22.3366 28.2684 22.9564 26.9917 23.4623 25.9498C23.5076 25.8563 23.5521 25.7648 23.5964 25.676C23.6046 25.6596 23.6135 25.6435 23.6229 25.6278C23.7885 25.3519 23.7767 25.124 23.6696 24.881C23.548 24.6054 23.3 24.3198 22.9907 24.0514ZM19.8222 7.01605C20.218 7.01605 20.539 7.33697 20.539 7.73285V11.4315H24.2376C24.6334 11.4315 24.9544 11.7524 24.9544 12.1483C24.9544 12.5441 24.6334 12.8651 24.2376 12.8651H20.539V16.664C20.539 17.0599 20.218 17.3808 19.8222 17.3808C19.4263 17.3808 19.1054 17.0599 19.1054 16.664V12.8651H15.4067C15.0109 12.8651 14.6899 12.5441 14.6899 12.1483C14.6899 11.7524 15.0109 11.4315 15.4067 11.4315H19.1054V7.73285C19.1054 7.33697 19.4263 7.01605 19.8222 7.01605Z" fill="black"/>
<path d="M25.9438 7.4317C26.6643 7.4317 27.2484 6.84763 27.2484 6.12715C27.2484 5.40666 26.6643 4.8226 25.9438 4.8226C25.2233 4.8226 24.6393 5.40666 24.6393 6.12715C24.6393 6.84763 25.2233 7.4317 25.9438 7.4317Z" fill="black"/>
</svg>
