<svg width="32" height="32" viewBox="0 0 32 32" fill="none" xmlns="http://www.w3.org/2000/svg">
<path fill-rule="evenodd" clip-rule="evenodd" d="M2 5.8363C2 3.72961 3.72961 2 5.8363 2H19.7865C20.5142 2 21.195 2.30186 21.8096 2.9164L29.1506 10.2574C29.7695 10.7541 30 11.5958 30 12.2135V26.1637C30 28.2704 28.2704 30 26.1637 30H5.8363C3.72961 30 2 28.2704 2 26.1637V5.8363ZM5.8363 3.49466C4.55509 3.49466 3.49466 4.55509 3.49466 5.8363V26.1637C3.49466 27.4449 4.55509 28.5053 5.8363 28.5053H26.1637C27.4449 28.5053 28.5053 27.4449 28.5053 26.1637V12.2135C28.5053 11.8503 28.3489 11.5233 28.2064 11.4164C28.1781 11.3952 28.1514 11.372 28.1264 11.3469L20.7527 3.97328C20.3708 3.59138 20.0552 3.49466 19.7865 3.49466H5.8363Z" fill="black"/>
<path fill-rule="evenodd" clip-rule="evenodd" d="M19.5872 2C19.9999 2 20.3345 2.33459 20.3345 2.74733V10.3203C20.3345 11.0036 20.8967 11.5658 21.5801 11.5658H29.153C29.5658 11.5658 29.9004 11.9004 29.9004 12.3132C29.9004 12.7259 29.5658 13.0605 29.153 13.0605H21.5801C20.0712 13.0605 18.8399 11.8291 18.8399 10.3203V2.74733C18.8399 2.33459 19.1744 2 19.5872 2Z" fill="black"/>
<path d="M9.02491 21.7794V24.0712H7.62989V17.5943H10.121C10.6192 17.5943 11.0178 17.6939 11.4164 17.8932C11.8149 18.0925 12.1139 18.2918 12.3132 18.6904C12.5125 18.9893 12.6121 19.3879 12.6121 19.7865C12.6121 20.3843 12.4128 20.8826 11.9146 21.2811C11.516 21.6797 10.9181 21.879 10.121 21.879H9.02491V21.7794ZM9.02491 20.6833H10.2206C10.6192 20.6833 10.8185 20.5836 11.0178 20.3843C11.2171 20.1851 11.3167 19.9858 11.3167 19.6868C11.3167 19.3879 11.2171 19.089 11.0178 18.8897C10.8185 18.6904 10.6192 18.5907 10.2206 18.5907H9.02491V20.6833Z" fill="black"/>
<path d="M14.9039 21.7794V24.0712H13.6085V17.5943H16.0996C16.5979 17.5943 16.9964 17.6939 17.395 17.8932C17.7936 18.0925 18.0925 18.2918 18.2918 18.6904C18.4911 18.9893 18.5907 19.3879 18.5907 19.7865C18.5907 20.3843 18.3915 20.8826 17.8932 21.2811C17.4947 21.6797 16.8968 21.879 16.0996 21.879H14.9039V21.7794ZM14.9039 20.6833H16.0996C16.4982 20.6833 16.6975 20.5836 16.8968 20.3843C17.0961 20.1851 17.1957 19.9858 17.1957 19.6868C17.1957 19.3879 17.0961 19.089 16.8968 18.8897C16.6975 18.6904 16.4982 18.5907 16.0996 18.5907H14.9039V20.6833Z" fill="black"/>
<path d="M24.3701 18.5907H22.3772V23.9715H20.9822V18.5907H18.9893V17.4947H24.2705V18.5907H24.3701Z" fill="black"/>
</svg>
