<svg width="32" height="32" viewBox="0 0 32 32" fill="none" xmlns="http://www.w3.org/2000/svg">
<path d="M25.1 2H11.9C10.3 2 9.1 3.3 9.1 4.8V6.1H6.8C5.2 6.1 4 7.3 4 8.8V27.2C4 28.8 5.2 30 6.8 30H21.1C22.6 30 23.9 28.8 23.9 27.2V24.9H25.2C26.7 24.9 28 23.6 28 22.1V4.8C27.9 3.3 26.7 2 25.1 2ZM22.3 27.2C22.3 27.9 21.7 28.4 21.1 28.4H6.8C6.1 28.4 5.6 27.8 5.6 27.2V8.8C5.6 8.1 6.2 7.6 6.8 7.6H21.1C21.8 7.6 22.3 8.2 22.3 8.8V27.2ZM26.4 22.1C26.4 22.8 25.8 23.4 25.1 23.4H23.8V8.8C23.8 7.3 22.6 6 21 6H10.6V4.8C10.6 4.1 11.2 3.5 11.9 3.5H25.1C25.8 3.5 26.4 4.1 26.4 4.8V22.1Z" fill="black"/>
</svg>
