<svg width="32" height="32" viewBox="0 0 32 32" fill="none" xmlns="http://www.w3.org/2000/svg">
<path fill-rule="evenodd" clip-rule="evenodd" d="M21.1031 3.5C16.9886 3.5 13.6531 6.83548 13.6531 10.95C13.6531 15.0645 16.9886 18.4 21.1031 18.4C25.2176 18.4 28.5531 15.0645 28.5531 10.95C28.5531 6.83548 25.2176 3.5 21.1031 3.5ZM12.1531 10.95C12.1531 6.00705 16.1601 2 21.1031 2C26.046 2 30.0531 6.00705 30.0531 10.95C30.0531 15.8929 26.046 19.9 21.1031 19.9C16.1601 19.9 12.1531 15.8929 12.1531 10.95ZM19.3031 6C19.7173 6 20.0531 6.33579 20.0531 6.75V15.15C20.0531 15.5642 19.7173 15.9 19.3031 15.9C18.8889 15.9 18.5531 15.5642 18.5531 15.15V6.75C18.5531 6.33579 18.8889 6 19.3031 6ZM22.9031 6C23.3173 6 23.6531 6.33579 23.6531 6.75V15.15C23.6531 15.5642 23.3173 15.9 22.9031 15.9C22.4889 15.9 22.1531 15.5642 22.1531 15.15V6.75C22.1531 6.33579 22.4889 6 22.9031 6ZM6.84095 11.2867C7.30194 11.5087 7.67834 11.8646 7.93342 12.1197C8.47127 12.6575 9.68133 14.1726 10.199 14.8939C10.4028 15.1472 10.5259 15.4396 10.5508 15.757C10.5758 16.0756 10.498 16.3675 10.3841 16.6143C10.1653 17.0883 9.76552 17.4986 9.39118 17.8194C9.34332 17.8605 9.29919 17.8981 9.25819 17.933C9.1385 18.035 9.0454 18.1144 8.96365 18.1899C8.85596 18.2894 8.81311 18.3424 8.79527 18.3699C8.79406 18.3718 8.79307 18.3734 8.79227 18.3747C8.7921 18.3907 8.79466 18.4405 8.82423 18.544C8.97748 19.0803 9.58754 20.1738 10.7334 21.3197C11.3062 21.8924 11.8695 22.3599 12.3599 22.6907C12.8734 23.037 13.2324 23.1823 13.4092 23.2075C13.4537 23.2139 13.4976 23.2243 13.5403 23.2385C13.599 23.2581 13.6283 23.2606 13.6371 23.2608C13.6412 23.2592 13.6491 23.2554 13.662 23.2475C13.7009 23.2238 13.7646 23.1745 13.8663 23.0715C13.9675 22.969 14.0833 22.8373 14.2336 22.6619C14.2461 22.6473 14.2592 22.6332 14.2728 22.6197C14.2848 22.6076 14.2971 22.5953 14.3096 22.5828C14.5811 22.3108 14.9523 21.9391 15.3696 21.7221C15.6049 21.5997 15.8913 21.5051 16.2167 21.5144C16.5493 21.5239 16.8597 21.6402 17.139 21.8397C17.1542 21.8505 17.1689 21.8619 17.1832 21.8738C17.7693 22.3622 19.3263 23.6275 19.8483 24.0457C20.2389 24.3134 20.6067 24.7129 20.8174 25.2046C21.0412 25.7266 21.0866 26.36 20.7739 26.9854C20.7691 26.9951 20.764 27.0047 20.7587 27.0142C20.7176 27.0883 20.6721 27.1757 20.6215 27.2728C20.4191 27.6612 20.1359 28.2051 19.73 28.6689C19.1817 29.2955 18.399 29.814 17.2143 29.9917C17.2022 29.9935 17.19 29.9951 17.1777 29.9963C14.883 30.2258 11.3735 29.281 7.07276 24.9803C2.79209 20.6997 1.71106 17.1742 2.06139 14.8387C2.40169 12.5701 4.06843 11.7635 4.8997 11.3613C4.96043 11.3319 5.01671 11.3047 5.06768 11.2792C5.72207 10.952 6.34641 11.0486 6.84095 11.2867ZM13.6336 23.2619C13.6336 23.2619 13.6344 23.2616 13.6358 23.2613L13.6336 23.2619ZM6.19023 12.6383C6.00976 12.5514 5.8841 12.548 5.7385 12.6208C5.68549 12.6473 5.63149 12.6739 5.57677 12.7009C4.75259 13.1068 3.76501 13.5931 3.54479 15.0613C3.29512 16.7258 4.01408 19.8003 8.13342 23.9197C12.218 28.0042 15.3009 28.6695 17.01 28.5055C17.8141 28.3811 18.2769 28.0517 18.6012 27.6811C18.8767 27.3662 19.0492 27.0373 19.2422 26.6692C19.304 26.5514 19.368 26.4295 19.438 26.3028C19.5193 26.1324 19.5133 25.9694 19.4387 25.7954C19.3547 25.5994 19.1857 25.4065 18.9871 25.274C18.969 25.262 18.9515 25.2492 18.9346 25.2357C18.4391 24.8392 16.8729 23.5669 16.2491 23.048C16.2213 23.0298 16.2024 23.0216 16.1923 23.018C16.1811 23.014 16.1759 23.0138 16.1739 23.0138C16.1711 23.0137 16.1388 23.0128 16.0616 23.0529C15.877 23.1489 15.668 23.3462 15.3537 23.6601C15.0801 23.9791 14.7826 24.3207 14.4442 24.5275C14.2497 24.6463 14.0276 24.732 13.7733 24.7548C13.5473 24.7751 13.3318 24.7425 13.1291 24.6815C12.6229 24.5913 12.0586 24.2967 11.5212 23.9343C10.9367 23.5401 10.3 23.0076 9.67276 22.3803C8.41864 21.1262 7.6287 19.8197 7.38195 18.956C7.31695 18.7286 7.27661 18.4883 7.29806 18.2401C7.32061 17.9792 7.40748 17.7535 7.53591 17.5551C7.65557 17.3701 7.80647 17.2168 7.94565 17.0882C8.05164 16.9903 8.17714 16.8834 8.30368 16.7756C8.34085 16.7439 8.37811 16.7122 8.415 16.6806C8.74066 16.4014 8.94089 16.1617 9.02212 15.9857C9.05821 15.9075 9.05539 15.8744 9.05538 15.8743C9.05538 15.8742 9.0556 15.874 9.05431 15.871C9.05279 15.8673 9.04642 15.8535 9.02692 15.8301C9.015 15.8158 9.00361 15.8011 8.99279 15.7859C8.50204 15.0989 7.32986 13.6374 6.87276 13.1803C6.62784 12.9354 6.40423 12.7413 6.19023 12.6383Z" fill="black"/>
</svg>
