<svg width="32" height="32" viewBox="0 0 32 32" fill="none" xmlns="http://www.w3.org/2000/svg">
<path fill-rule="evenodd" clip-rule="evenodd" d="M15.4432 12.5651H23.9001C24.8077 12.5678 25.5428 13.3029 25.5455 14.2105L25.5455 14.2124L25.5455 14.8987L27.4724 13.6589L27.4742 13.6578C28.0238 13.3068 28.6936 13.1805 29.2584 13.55C29.7931 13.9 30 14.549 30 15.2072V20.6773C30 21.1965 29.8172 21.7466 29.314 22.0212C28.8109 22.2958 28.2493 22.1519 27.8127 21.871L25.5455 20.4123V21.0997C25.5455 22.0095 24.808 22.747 23.8982 22.747H15.4432V21.4742H23.8982C24.1051 21.4742 24.2727 21.3066 24.2727 21.0997V18.08L28.5013 20.8006C28.5939 20.8602 28.6599 20.8829 28.6972 20.8909C28.7106 20.8552 28.7273 20.7874 28.7273 20.6773V15.2072C28.7273 14.7615 28.587 14.6317 28.5614 14.615C28.551 14.6081 28.5296 14.5963 28.4756 14.6012C28.415 14.6067 28.3086 14.6352 28.16 14.7299L24.2727 17.231V14.2135C24.2717 14.0064 24.1041 13.8388 23.897 13.8379H15.4432V12.5651Z" fill="black"/>
<path fill-rule="evenodd" clip-rule="evenodd" d="M12.1023 29.4288H4.30682V28.156H12.1023V29.4288Z" fill="black"/>
<path fill-rule="evenodd" clip-rule="evenodd" d="M8.84091 23.781V28.2356H7.56818V23.781H8.84091Z" fill="black"/>
<path fill-rule="evenodd" clip-rule="evenodd" d="M3.27273 12.6447L3.27273 18.35C3.27358 19.8379 3.94535 21.2465 5.10125 22.1834C6.25554 23.119 7.7697 23.485 9.22372 23.1802C11.5499 22.6358 13.1805 20.5407 13.1365 18.1515L13.1363 18.1398L13.1364 12.6447H14.4091V18.1341C14.4614 21.1235 12.4183 23.7437 9.5057 24.4213L9.49294 24.4242C7.66169 24.8107 5.75377 24.3506 4.29983 23.1721C2.84588 21.9936 2.00095 20.2222 2 18.3507L2 12.6447H3.27273Z" fill="black"/>
<path fill-rule="evenodd" clip-rule="evenodd" d="M6.15523 3.58168C7.34575 2.85905 8.82608 2.80634 10.065 3.44247L10.0771 3.44869L10.0889 3.45542C11.3362 4.16484 12.1277 5.46895 12.1814 6.90284L12.1818 6.91473V17.516H11.5455L12.1818 17.5193C12.1746 18.9102 11.4465 20.1978 10.2583 20.921C9.07011 21.6441 7.59189 21.6993 6.35313 21.0667L6.34125 21.0606L6.32963 21.054C5.0768 20.3465 4.281 19.0395 4.22771 17.6017L4.22727 17.5899V6.98589C4.23473 5.59323 4.96471 4.30432 6.15523 3.58168ZM10.9091 17.5142V6.93913C10.8684 5.95459 10.3257 5.05967 9.47154 4.56849C8.62859 4.14093 7.62416 4.1789 6.81562 4.66967C6.00367 5.16252 5.50565 6.04135 5.5 6.99108V17.5657C5.54043 18.5527 6.086 19.4495 6.94383 19.9392C7.78664 20.3645 8.78966 20.3249 9.59661 19.8338C10.4069 19.3406 10.9036 18.4627 10.9091 17.5142Z" fill="black"/>
</svg>
