<svg width="32" height="32" viewBox="0 0 32 32" fill="none" xmlns="http://www.w3.org/2000/svg">
<path fill-rule="evenodd" clip-rule="evenodd" d="M4.25 3.5C3.86421 3.5 3.5 3.86421 3.5 4.25V8.65C3.5 9.06421 3.16421 9.4 2.75 9.4C2.33579 9.4 2 9.06421 2 8.65V4.25C2 3.03579 3.03579 2 4.25 2H8.65C9.06421 2 9.4 2.33579 9.4 2.75C9.4 3.16421 9.06421 3.5 8.65 3.5H4.25ZM22.5 2.75C22.5 2.33579 22.8358 2 23.25 2H27.65C28.8642 2 29.9 3.03579 29.9 4.25V8.65C29.9 9.06421 29.5642 9.4 29.15 9.4C28.7358 9.4 28.4 9.06421 28.4 8.65V4.25C28.4 3.86421 28.0358 3.5 27.65 3.5H23.25C22.8358 3.5 22.5 3.16421 22.5 2.75ZM6 6.75C6 6.33579 6.33579 6 6.75 6H25.15C25.5642 6 25.9 6.33579 25.9 6.75V23.25C25.9 23.6642 25.5642 24 25.15 24H16.7V28.5H19.05C19.4642 28.5 19.8 28.8358 19.8 29.25C19.8 29.6642 19.4642 30 19.05 30H12.85C12.4358 30 12.1 29.6642 12.1 29.25C12.1 28.8358 12.4358 28.5 12.85 28.5H15.2V24H6.75C6.33579 24 6 23.6642 6 23.25V6.75ZM7.5 7.5V22.5H24.4V7.5H7.5ZM2.75 22.5C3.16421 22.5 3.5 22.8358 3.5 23.25V27.65C3.5 28.0358 3.86421 28.4 4.25 28.4H8.65C9.06421 28.4 9.4 28.7358 9.4 29.15C9.4 29.5642 9.06421 29.9 8.65 29.9H4.25C3.03579 29.9 2 28.8642 2 27.65V23.25C2 22.8358 2.33579 22.5 2.75 22.5ZM29.15 22.5C29.5642 22.5 29.9 22.8358 29.9 23.25V27.65C29.9 28.8642 28.8642 29.9 27.65 29.9H23.25C22.8358 29.9 22.5 29.5642 22.5 29.15C22.5 28.7358 22.8358 28.4 23.25 28.4H27.65C28.0358 28.4 28.4 28.0358 28.4 27.65V23.25C28.4 22.8358 28.7358 22.5 29.15 22.5Z" fill="black"/>
</svg>
