<svg width="32" height="32" viewBox="0 0 32 32" fill="none" xmlns="http://www.w3.org/2000/svg">
<path fill-rule="evenodd" clip-rule="evenodd" d="M2 8.75269C2 8.33699 2.33699 8 2.75269 8H26.2366C26.6523 8 26.9892 8.33699 26.9892 8.75269C26.9892 9.16839 26.6523 9.50538 26.2366 9.50538H2.75269C2.33699 9.50538 2 9.16839 2 8.75269ZM2 15.8781C2 15.4624 2.33699 15.1254 2.75269 15.1254H29.2473C29.663 15.1254 30 15.4624 30 15.8781C30 16.2938 29.663 16.6308 29.2473 16.6308H2.75269C2.33699 16.6308 2 16.2938 2 15.8781ZM2 23.0036C2 22.5879 2.33699 22.2509 2.75269 22.2509H23.1254C23.5411 22.2509 23.8781 22.5879 23.8781 23.0036C23.8781 23.4193 23.5411 23.7563 23.1254 23.7563H2.75269C2.33699 23.7563 2 23.4193 2 23.0036Z" fill="black"/>
</svg>
