<svg width="32" height="32" viewBox="0 0 32 32" fill="none" xmlns="http://www.w3.org/2000/svg">
<path fill-rule="evenodd" clip-rule="evenodd" d="M2 5.8363C2 3.72961 3.72961 2 5.8363 2H19.7865C20.5142 2 21.195 2.30186 21.8096 2.9164L29.1506 10.2574C29.7695 10.7541 30 11.5958 30 12.2135V26.1637C30 28.2704 28.2704 30 26.1637 30H5.8363C3.72961 30 2 28.2704 2 26.1637V5.8363ZM5.8363 3.49466C4.55509 3.49466 3.49466 4.55509 3.49466 5.8363V26.1637C3.49466 27.4449 4.55509 28.5053 5.8363 28.5053H26.1637C27.4449 28.5053 28.5053 27.4449 28.5053 26.1637V12.2135C28.5053 11.8503 28.3489 11.5233 28.2064 11.4164C28.1781 11.3952 28.1514 11.372 28.1264 11.3469L20.7527 3.97328C20.3708 3.59138 20.0552 3.49466 19.7865 3.49466H5.8363Z" fill="black"/>
<path fill-rule="evenodd" clip-rule="evenodd" d="M19.5872 2C19.9999 2 20.3345 2.33459 20.3345 2.74733V10.3203C20.3345 11.0036 20.8967 11.5658 21.5801 11.5658H29.153C29.5658 11.5658 29.9004 11.9004 29.9004 12.3132C29.9004 12.7259 29.5658 13.0605 29.153 13.0605H21.5801C20.0712 13.0605 18.8399 11.8291 18.8399 10.3203V2.74733C18.8399 2.33459 19.1744 2 19.5872 2Z" fill="black"/>
<path d="M10.4199 22.8754H14.0071V24.0712H8.52669V23.1744L12.1139 17.9929H8.52669V16.7972H13.9075V17.6939L10.4199 22.8754Z" fill="black"/>
<path d="M16.5979 24.0712H15.1032V16.8968H16.5979V24.0712Z" fill="black"/>
<path d="M19.3879 21.4804V24.0712H17.8932V16.8968H20.6833C21.1815 16.8968 21.6797 16.9964 22.0783 17.1957C22.4769 17.395 22.7758 17.6939 23.0747 17.9929C23.274 18.3915 23.3737 18.79 23.3737 19.2883C23.3737 19.9858 23.1744 20.5836 22.6762 20.9822C22.1779 21.3808 21.4804 21.5801 20.6833 21.5801H19.3879V21.4804ZM20.6833 20.2847C21.0819 20.2847 21.3808 20.1851 21.5801 19.9858C21.7794 19.7865 21.879 19.4875 21.879 19.1886C21.879 18.79 21.7794 18.5907 21.5801 18.2918C21.3808 18.0925 21.0819 17.9929 20.6833 17.9929H19.2883V20.2847H20.6833Z" fill="black"/>
</svg>
