<svg width="32" height="32" viewBox="0 0 32 32" fill="none" xmlns="http://www.w3.org/2000/svg">
<path d="M26.8889 4H5.11111C3.38444 4 2 5.4 2 7.11111V25.7778C2 27.4889 3.38444 28.8889 5.11111 28.8889H26.8889C28.6 28.8889 30 27.4889 30 25.7778V7.11111C30 5.4 28.6 4 26.8889 4ZM14.4444 14.8889H12.1111V14.1111H9V18.7778H12.1111V18H14.4444V19.5556C14.4444 20.4111 13.7444 21.1111 12.8889 21.1111H8.22222C7.36667 21.1111 6.66667 20.4111 6.66667 19.5556V13.3333C6.66667 12.4778 7.36667 11.7778 8.22222 11.7778H12.8889C13.7444 11.7778 14.4444 12.4778 14.4444 13.3333V14.8889ZM25.3333 14.8889H23V14.1111H19.8889V18.7778H23V18H25.3333V19.5556C25.3333 20.4111 24.6333 21.1111 23.7778 21.1111H19.1111C18.2556 21.1111 17.5556 20.4111 17.5556 19.5556V13.3333C17.5556 12.4778 18.2556 11.7778 19.1111 11.7778H23.7778C24.6333 11.7778 25.3333 12.4778 25.3333 13.3333V14.8889Z" fill="black"/>
</svg>
