<svg width="32" height="32" viewBox="0 0 32 32" fill="none" xmlns="http://www.w3.org/2000/svg">
<path fill-rule="evenodd" clip-rule="evenodd" d="M17.727 11.6786C17.3387 12.038 16.8076 12.2176 16.1337 12.2176V12.219C15.4869 12.219 14.9618 12.0314 14.5698 11.6618C14.1806 11.2903 13.986 10.7896 13.986 10.1595V6.33034C13.9846 6.30514 13.9846 6.27993 13.9846 6.25333C13.9846 5.73391 14.217 5.26908 14.5866 4.95547C14.987 4.61805 15.5275 4.44724 16.1995 4.44724C16.8183 4.44724 17.321 4.62925 17.7102 4.98487L17.7116 4.98627C18.0728 5.31249 18.2996 5.78291 18.2996 6.30794C18.2996 6.31902 18.2992 6.33011 18.2988 6.34057C18.2985 6.34994 18.2982 6.35881 18.2982 6.36674V10.1875C18.3057 10.8222 18.1153 11.3192 17.727 11.6786ZM15.5131 6.25338V6.26738H15.5145V10.2982C15.5131 10.3122 15.5131 10.3262 15.5131 10.3402C15.5131 10.504 15.5733 10.6552 15.6727 10.77C15.7791 10.8736 15.9247 10.938 16.0857 10.938C16.1011 10.938 16.1165 10.938 16.1291 10.9366H16.1585C16.3321 10.9366 16.4889 10.8736 16.6093 10.7686C16.7185 10.6566 16.7871 10.5026 16.7871 10.3332C16.7871 10.3274 16.7868 10.3212 16.7864 10.3153C16.7861 10.3097 16.7857 10.3043 16.7857 10.2996V6.25618C16.7857 6.10217 16.7143 5.96496 16.6023 5.87536L16.6037 5.87676C16.4819 5.78156 16.3279 5.72555 16.1613 5.72555C16.1546 5.72555 16.1483 5.72595 16.1424 5.72632C16.1377 5.72661 16.1333 5.72689 16.1291 5.72694C16.1193 5.72555 16.1081 5.72555 16.0983 5.72555C15.9401 5.72555 15.7945 5.78296 15.6825 5.87536C15.5789 5.96776 15.5131 6.10357 15.5131 6.25338Z" fill="black"/>
<path d="M20.5419 12.138C20.8597 12.131 21.1565 12.0442 21.4155 11.8972L21.4071 11.9014C21.7404 11.7166 22.0232 11.4883 22.2612 11.2195L22.264 11.2167V12.033H23.7495V4.62941H22.264V10.2493C22.1338 10.4033 21.9826 10.5363 21.8146 10.6427L21.8062 10.6469C21.6914 10.7295 21.5514 10.7841 21.4001 10.7995H21.3959C21.3847 10.8009 21.3707 10.8009 21.3581 10.8009C21.2531 10.8009 21.1593 10.7561 21.0935 10.6847C21.0333 10.5909 20.9983 10.4775 20.9983 10.3557C20.9983 10.3375 20.9997 10.3207 21.0011 10.3039V10.3067V4.62941H19.5157V10.8149C19.5157 11.2559 19.6039 11.5877 19.7747 11.8076C19.9455 12.0274 20.2003 12.1366 20.5433 12.1366L20.5419 12.138Z" fill="black"/>
<path d="M10.2433 12.0315H11.9192V7.86909L13.8653 2H12.1628L11.131 6.0098H11.0246L9.93532 2H8.25103L10.2447 8.0581V12.0301L10.2433 12.0315Z" fill="black"/>
<path d="M23.7568 21.1782C23.7414 21.1768 23.7218 21.1754 23.7036 21.1754C23.5426 21.1754 23.397 21.2482 23.3004 21.363V21.3644C23.2108 21.4792 23.1674 21.685 23.1674 21.965V22.6412H24.3337V21.965C24.3337 21.6836 24.2889 21.482 24.1936 21.3644C24.1012 21.2496 23.9598 21.1768 23.803 21.1768C23.7876 21.1768 23.7708 21.1782 23.7554 21.1796H23.7568V21.1782Z" fill="black"/>
<path d="M19.205 21.1544C19.2036 21.1544 19.2008 21.1544 19.1994 21.1544C19.1 21.1544 19.0062 21.1782 18.9236 21.2202L18.9264 21.2188C18.82 21.272 18.7304 21.342 18.6562 21.4247L18.6548 21.4261V25.6095C18.743 25.7047 18.8466 25.7831 18.9628 25.8419L18.9684 25.8447C19.058 25.8909 19.1644 25.9175 19.2764 25.9175C19.2792 25.9175 19.282 25.9175 19.2834 25.9175C19.2946 25.9189 19.3086 25.9189 19.3212 25.9189C19.4486 25.9189 19.562 25.8643 19.6404 25.7761C19.7132 25.6627 19.758 25.5255 19.758 25.377C19.758 25.3546 19.7566 25.3322 19.7552 25.3098V25.3126V21.8447C19.7566 21.8279 19.7566 21.8083 19.7566 21.7887C19.7566 21.6179 19.7034 21.4583 19.6138 21.3266L19.6152 21.3294C19.5228 21.2216 19.3856 21.153 19.2344 21.153C19.2232 21.153 19.212 21.153 19.2022 21.1544H19.205Z" fill="black"/>
<path fill-rule="evenodd" clip-rule="evenodd" d="M26.5443 15.9433C25.4564 14.8639 16.314 14.8485 16.314 14.8485C16.314 14.8485 7.17151 14.8611 6.08645 15.9447C5.0014 17.0284 5 22.3892 5 22.4201C5 22.4509 5 27.8089 6.09065 28.894C7.18131 29.979 16.314 30 16.314 30C16.314 30 25.4564 29.9776 26.5415 28.894C27.6265 27.8103 27.6419 22.4201 27.6419 22.4201C27.6447 22.3906 27.6279 17.034 26.5443 15.9433ZM11.9708 19.1047H10.4322V26.8862H8.94669V19.1047H7.39961V17.783H11.9708V19.1047ZM15.0065 26.8862H16.324L16.3226 20.17H15.0037V25.2705L15.0023 25.2733C14.8861 25.4091 14.7517 25.5267 14.5935 25.6289L14.5949 25.6275C14.4899 25.7073 14.3639 25.7605 14.2225 25.7731H14.2239C14.2141 25.7745 14.2057 25.7745 14.1959 25.7745C14.0993 25.7745 14.0138 25.7325 13.9536 25.6653L13.955 25.6681C13.9004 25.5799 13.8696 25.4777 13.8696 25.3671C13.8696 25.3517 13.8696 25.3363 13.871 25.3223V20.17H12.5592V25.7829C12.5592 26.1847 12.6334 26.4802 12.7874 26.6818L12.7888 26.6832C12.9372 26.8666 13.164 26.9842 13.4174 26.9842C13.437 26.9842 13.4566 26.9842 13.4734 26.9828H13.4748C13.7576 26.9786 14.0208 26.8988 14.2407 26.7686L14.2547 26.7616C14.5389 26.602 14.7923 26.3961 15.0065 26.1483V26.8862ZM21.1137 25.4986C21.1137 25.9746 21.0115 26.3372 20.8015 26.592C20.5915 26.8468 20.2961 26.9687 19.9041 26.9687H19.8719C19.6353 26.9687 19.4098 26.9154 19.2096 26.8188L19.2194 26.823C18.9954 26.7096 18.8064 26.5556 18.658 26.3694L18.6552 26.3666V26.8818H17.3153V17.78H18.6538V20.7117C18.8106 20.5241 18.9982 20.3687 19.2082 20.2483L19.218 20.2427C19.3944 20.1447 19.6031 20.0859 19.8271 20.0831H19.8285C19.8481 20.0817 19.8705 20.0817 19.8929 20.0817C20.2527 20.0817 20.5747 20.2483 20.7833 20.5087L20.7847 20.5115C21.0069 20.7981 21.1175 21.2172 21.1165 21.7688V25.5L21.1137 25.4986ZM23.1703 23.6912H25.6946L25.696 23.6884V21.9747C25.696 21.3363 25.535 20.8533 25.2088 20.5103C24.884 20.1705 24.4196 20.0006 23.8157 20.0006H23.8199C23.7933 19.9992 23.7667 19.9992 23.7401 19.9992C23.2081 19.9992 22.7251 20.2093 22.3709 20.5509C22.0209 20.8967 21.8052 21.3783 21.8052 21.9089C21.8052 21.9327 21.8052 21.9551 21.8066 21.9747V24.9891C21.8066 25.6401 21.9789 26.1469 22.3163 26.5138C22.657 26.8834 23.1227 27.0682 23.7135 27.0682C24.3725 27.0747 24.8677 26.9016 25.199 26.5488C25.5304 26.1959 25.696 25.6765 25.696 24.9905V24.6475H24.3366V24.9555C24.3366 25.3517 24.2918 25.6093 24.2036 25.7227C24.1154 25.8361 23.9614 25.8949 23.7457 25.8949H23.7485C23.7317 25.8963 23.7135 25.8977 23.6953 25.8977C23.5315 25.8977 23.3873 25.8179 23.2977 25.6919C23.2128 25.5547 23.1703 25.3088 23.1703 24.9541V23.6912Z" fill="black"/>
</svg>
