<svg width="32" height="32" viewBox="0 0 32 32" fill="none" xmlns="http://www.w3.org/2000/svg">
<path d="M15.0858 8.38395H16.952V19.5839H15.0858V8.38395Z" fill="black"/>
<path d="M15.0858 21.4502H16.952V23.5964H15.0858V21.4502Z" fill="black"/>
<path fill-rule="evenodd" clip-rule="evenodd" d="M2 16C2 8.2678 8.2678 2 16 2H16.0014C23.728 2.0112 29.9888 8.272 30 16C30 23.7322 23.7322 30 16 30C8.2678 30 2 23.7322 2 16ZM3.8662 16C3.8662 22.7018 9.2996 28.1338 16 28.1338H16.0014C22.6976 28.1226 28.1226 22.6962 28.1338 16C28.1338 9.29819 22.7004 3.86619 16 3.86619C9.2982 3.86619 3.8662 9.29819 3.8662 16Z" fill="black"/>
</svg>
