<svg width="32" height="32" viewBox="0 0 32 32" fill="none" xmlns="http://www.w3.org/2000/svg">
<path d="M15.9251 15.2763C16.7521 15.2763 17.4225 14.6059 17.4225 13.779C17.4225 12.952 16.7521 12.2816 15.9251 12.2816C15.0982 12.2816 14.4278 12.952 14.4278 13.779C14.4278 14.6059 15.0982 15.2763 15.9251 15.2763Z" fill="black"/>
<path d="M10.3351 15.2763C11.1621 15.2763 11.8324 14.6059 11.8324 13.779C11.8324 12.952 11.1621 12.2816 10.3351 12.2816C9.50816 12.2816 8.83779 12.952 8.83779 13.779C8.83779 14.6059 9.50816 15.2763 10.3351 15.2763Z" fill="black"/>
<path fill-rule="evenodd" clip-rule="evenodd" d="M2 13.779C2 7.1537 8.35907 2.04991 15.9251 2.04991C16.3386 2.04991 16.6738 2.3851 16.6738 2.79857C16.6738 3.21205 16.3386 3.54724 15.9251 3.54724C8.91722 3.54724 3.49733 8.22598 3.49733 13.779C3.49733 16.9756 5.32606 19.9509 8.24544 21.8344C8.53369 22.0203 8.65867 22.3784 8.54877 22.7033L7.00141 27.2781L11.8939 23.7527C12.0727 23.6238 12.2993 23.5803 12.5131 23.6338C13.633 23.9137 14.7658 24.0107 16.025 24.0107C22.0533 24.0107 26.8952 20.5728 28.1821 16.0688C28.2957 15.6713 28.7101 15.4411 29.1076 15.5547C29.5052 15.6682 29.7354 16.0826 29.6218 16.4802C28.1137 21.7587 22.5741 25.508 16.025 25.508C14.8084 25.508 13.6525 25.4229 12.4924 25.1669L5.98135 29.8587C5.71731 30.049 5.36059 30.0469 5.09882 29.8535C4.83705 29.6601 4.7302 29.3198 4.83448 29.0115L6.94771 22.7637C3.95141 20.638 2 17.3787 2 13.779Z" fill="black"/>
<path d="M23.1123 2C19.4189 2 16.3244 4.99465 16.3244 8.78788C16.3244 12.4813 19.3191 15.5758 23.1123 15.5758C26.8057 15.5758 29.9002 12.5811 29.9002 8.78788C29.9002 4.99465 26.9055 2 23.1123 2ZM26.2068 8.98752C26.0071 9.08734 25.9073 9.18717 25.7077 9.18717C25.508 9.18717 25.3084 9.08734 25.2086 8.98752L23.9109 7.68984V11.6827C23.9109 12.082 23.6114 12.4813 23.1123 12.4813C22.713 12.4813 22.3137 12.1818 22.3137 11.6827V7.68984L21.1159 8.98752C20.8164 9.28699 20.3173 9.28699 20.0178 8.98752C19.7184 8.68806 19.7184 8.18895 20.0178 7.88948L22.6132 5.29412C22.713 5.1943 22.713 5.1943 22.8128 5.09447C22.9127 4.99465 23.0125 4.99465 23.1123 4.99465C23.2121 4.99465 23.4118 5.09447 23.4118 5.09447C23.4118 5.09447 25.724 7.40669 26.2068 7.88948C26.5062 8.18895 26.5062 8.68806 26.2068 8.98752Z" fill="black"/>
</svg>
