<svg width="32" height="32" viewBox="0 0 32 32" fill="none" xmlns="http://www.w3.org/2000/svg">
<path fill-rule="evenodd" clip-rule="evenodd" d="M21.9636 3.2243C22.2539 2.92887 22.7288 2.92474 23.0242 3.21508L28.8242 8.91508C28.9669 9.05529 29.0476 9.2467 29.0485 9.44674C29.0494 9.64678 28.9703 9.83888 28.8288 9.98033L23.0288 15.7803C22.736 16.0732 22.2611 16.0732 21.9682 15.7803C21.6753 15.4874 21.6753 15.0126 21.9682 14.7197L26.4879 10.2H16.6985C16.2843 10.2 15.9485 9.86421 15.9485 9.45C15.9485 9.03579 16.2843 8.7 16.6985 8.7H26.4654L21.9728 4.28492C21.6774 3.99459 21.6733 3.51973 21.9636 3.2243ZM7.71322 6.52514C8.26799 6.79412 8.6998 7.24 8.97468 7.56986C9.0415 7.65004 9.12951 7.75527 9.23324 7.87929C9.88758 8.66165 11.1675 10.192 11.6985 10.9C11.7068 10.9111 11.7149 10.9224 11.7226 10.934C11.9415 11.2624 12.0624 11.6158 12.0732 11.9842C12.0839 12.3477 11.9862 12.6767 11.8443 12.9604C11.5731 13.5028 11.0972 13.9602 10.6924 14.3144C10.2724 14.6819 10.0681 14.8816 9.96417 15.0525C9.90219 15.1543 9.87053 15.2457 9.92612 15.4681C9.99448 15.7415 10.2369 16.2555 10.6726 16.909C11.096 17.5441 11.6648 18.2556 12.3288 18.9197C12.9933 19.5842 13.7042 20.1521 14.3243 20.5617C14.6344 20.7664 14.9138 20.9263 15.1464 21.0379C15.3907 21.1551 15.5413 21.1985 15.6046 21.2075C15.6301 21.2112 15.6554 21.2161 15.6804 21.2224C15.9028 21.278 15.9942 21.2463 16.0961 21.1843C16.2669 21.0804 16.4666 20.8761 16.8341 20.4561C17.2032 20.0342 17.6834 19.567 18.2338 19.3001C18.8205 19.0157 19.5525 18.9391 20.2305 19.4366C21.1794 20.0726 22.9973 21.5897 23.6866 22.1806C24.0697 22.5089 24.5181 22.9714 24.7722 23.5473C25.0444 24.1643 25.0834 24.8996 24.6416 25.6359C24.5812 25.7366 24.5162 25.8546 24.4443 25.9852C23.8857 26.9997 22.9088 28.7739 20.4043 29.0926C17.5745 29.5398 13.2501 28.3639 8.06306 23.0752C2.87077 17.781 1.71574 13.4656 2.05431 10.757C2.36196 8.2958 4.17269 7.36028 5.19283 6.83323C5.35618 6.74884 5.49925 6.67492 5.61265 6.60688C6.37132 6.15168 7.12027 6.23765 7.71322 6.52514ZM7.05881 7.87486C6.82676 7.76235 6.62572 7.74832 6.38439 7.89312C6.18685 8.01164 5.98252 8.12148 5.77808 8.23138C4.76291 8.77711 3.74507 9.32428 3.54273 10.943C3.2813 13.0344 4.12627 16.9189 9.13397 22.0248C14.1391 27.1281 18.0096 27.9567 20.18 27.6094C20.1853 27.6086 20.1906 27.6078 20.1959 27.6071C20.1991 27.6066 20.2023 27.6062 20.2055 27.6058C21.9205 27.3914 22.5321 26.3106 23.1058 25.2968C23.1887 25.1502 23.2708 25.0051 23.3554 24.8641C23.5136 24.6004 23.5026 24.3857 23.3998 24.1527C23.2789 23.8786 23.0274 23.5911 22.7104 23.3194C22.0036 22.7136 20.2381 21.2445 19.3825 20.674C19.3709 20.6663 19.3596 20.6583 19.3485 20.65C19.2316 20.5623 19.1213 20.5369 18.8882 20.6499C18.6136 20.783 18.2938 21.0658 17.9629 21.4439C17.6304 21.8239 17.2802 22.2196 16.876 22.4656C16.4124 22.7478 15.915 22.8191 15.3519 22.6862C15.0765 22.6403 14.7799 22.5257 14.4975 22.3903C14.1895 22.2425 13.8501 22.0461 13.4977 21.8133C12.7929 21.3479 12.0037 20.7158 11.2682 19.9803C10.5322 19.2444 9.90106 18.4559 9.42448 17.741C8.96011 17.0445 8.60255 16.3585 8.47091 15.8319C8.3265 15.2543 8.39484 14.7457 8.68287 14.2725C8.9289 13.8684 9.32464 13.5181 9.70464 13.1856C10.0998 12.8398 10.3739 12.5472 10.5027 12.2896C10.5608 12.1733 10.5757 12.0898 10.5738 12.0283C10.5722 11.9741 10.5569 11.8946 10.4844 11.7812C9.97238 11.1016 8.74879 9.63835 8.09282 8.85388C7.98566 8.72573 7.89364 8.61569 7.82235 8.53014C7.59723 8.26 7.32905 8.00588 7.05881 7.87486Z" fill="black"/>
</svg>
