<svg width="32" height="32" viewBox="0 0 32 32" fill="none" xmlns="http://www.w3.org/2000/svg">
<path d="M26.25 7.13H20.36V5C20.36 4.46957 20.1493 3.96086 19.7742 3.58579C19.3991 3.21071 18.8904 3 18.36 3H13.62C13.0896 3 12.5809 3.21071 12.2058 3.58579C11.8307 3.96086 11.62 4.46957 11.62 5V7.13H5.75C4.75544 7.13 3.80161 7.52509 3.09835 8.22835C2.39509 8.93161 2 9.88544 2 10.88V25.38C2 26.3746 2.39509 27.3284 3.09835 28.0317C3.80161 28.7349 4.75544 29.13 5.75 29.13H26.25C27.2446 29.13 28.1984 28.7349 28.9017 28.0317C29.6049 27.3284 30 26.3746 30 25.38V10.88C30 9.88544 29.6049 8.93161 28.9017 8.22835C28.1984 7.52509 27.2446 7.13 26.25 7.13ZM5.67 27.62C5.08896 27.5993 4.53848 27.3546 4.13394 26.937C3.7294 26.5194 3.50222 25.9614 3.5 25.38V10.88C3.50222 10.2986 3.7294 9.74063 4.13394 9.32304C4.53848 8.90545 5.08896 8.66067 5.67 8.64V27.62ZM13.14 5C13.14 4.8727 13.1906 4.75061 13.2806 4.66059C13.3706 4.57057 13.4927 4.52 13.62 4.52H18.38C18.5073 4.52 18.6294 4.57057 18.7194 4.66059C18.8094 4.75061 18.86 4.8727 18.86 5V7.13H13.14V5ZM24.83 27.63H7.17V8.63H24.83V27.63ZM28.5 25.38C28.4978 25.9614 28.2706 26.5194 27.8661 26.937C27.4615 27.3546 26.911 27.5993 26.33 27.62V8.62C26.9145 8.64079 27.4679 8.88835 27.873 9.31023C28.2781 9.73211 28.503 10.2951 28.5 10.88V25.38Z" fill="black"/>
<path d="M14 23.49C14.0682 23.5615 14.1505 23.618 14.2418 23.6559C14.333 23.6938 14.4312 23.7122 14.53 23.71H14.58C14.6884 23.7047 14.7941 23.6749 14.8893 23.623C14.9846 23.571 15.0668 23.4982 15.13 23.41L22.37 13.74C22.4893 13.5809 22.5406 13.3808 22.5125 13.1839C22.4843 12.987 22.3791 12.8093 22.22 12.69C22.0609 12.5707 21.8608 12.5194 21.6639 12.5475C21.467 12.5757 21.2893 12.6809 21.17 12.84L14.45 21.84L10.79 18.2C10.7211 18.1292 10.6386 18.073 10.5476 18.0346C10.4566 17.9962 10.3588 17.9764 10.26 17.9764C10.1612 17.9764 10.0634 17.9962 9.97239 18.0346C9.88136 18.073 9.79895 18.1292 9.73 18.2C9.58955 18.3406 9.51066 18.5312 9.51066 18.73C9.51066 18.9288 9.58955 19.1194 9.73 19.26L14 23.49Z" fill="black"/>
</svg>
