<svg width="32" height="32" viewBox="0 0 32 32" fill="none" xmlns="http://www.w3.org/2000/svg">
<path fill-rule="evenodd" clip-rule="evenodd" d="M16.9976 20.6738H3.75008V19.6738H16.9976V20.6738Z" fill="black"/>
<path fill-rule="evenodd" clip-rule="evenodd" d="M4.45646 20.1731L6.23061 18.3916L5.52205 17.686L3.0437 20.1745L5.52278 22.6536L6.22989 21.9465L4.45646 20.1731Z" fill="black"/>
<path fill-rule="evenodd" clip-rule="evenodd" d="M16.2897 20.1731L14.509 18.3924L15.2161 17.6852L17.7054 20.1745L15.2154 22.6543L14.5098 21.9458L16.2897 20.1731Z" fill="black"/>
<path fill-rule="evenodd" clip-rule="evenodd" d="M9.87383 26.7888V13.5501H10.8738V26.7888H9.87383Z" fill="black"/>
<path fill-rule="evenodd" clip-rule="evenodd" d="M10.3746 12.8437L12.8536 15.3228L12.1465 16.0299L10.3731 14.2564L8.59166 16.0306L7.88601 15.322L10.3746 12.8437Z" fill="black"/>
<path fill-rule="evenodd" clip-rule="evenodd" d="M10.3731 26.0824L8.59166 24.3083L7.88601 25.0168L10.3746 27.4952L12.8536 25.0161L12.1465 24.309L10.3731 26.0824Z" fill="black"/>
<path fill-rule="evenodd" clip-rule="evenodd" d="M10.0413 9.9613H21.0751C22.2646 9.9613 23.2288 10.9256 23.2288 12.1151V12.7505L26.0795 11.1245C26.698 10.7476 27.3791 10.6559 27.9363 10.9843C28.4887 11.3099 28.7501 11.9497 28.7501 12.6663V19.2638C28.7501 19.9783 28.4943 20.6126 27.94 20.9344C27.386 21.2559 26.7084 21.1639 26.0871 20.81L26.0861 20.8094L23.2288 19.1935V19.8413C23.2288 20.4125 23.0019 20.9603 22.598 21.3642C22.1941 21.7681 21.6463 21.9951 21.0751 21.9951H18.3188V20.9951H21.0751C21.3811 20.9951 21.6745 20.8735 21.8909 20.6571C22.1073 20.4408 22.2288 20.1473 22.2288 19.8413V17.4791L26.58 19.9398L26.5815 19.9407C27.0187 20.19 27.2988 20.1503 27.438 20.0695C27.5771 19.9887 27.7501 19.7656 27.7501 19.2638V12.6663C27.7501 12.1667 27.5739 11.9315 27.4286 11.8458C27.2901 11.7642 27.0161 11.7231 26.5953 11.9813L26.5885 11.9854L22.2288 14.4721V12.1151C22.2288 11.4779 21.7123 10.9613 21.0751 10.9613H10.0413C9.40168 10.9613 8.88219 11.478 8.87883 12.1177L7.87884 12.1124C7.8851 10.9226 8.85146 9.96129 10.0413 9.9613Z" fill="black"/>
</svg>
