<svg width="32" height="32" viewBox="0 0 32 32" fill="none" xmlns="http://www.w3.org/2000/svg">
<path d="M13.53 20.38L9.23 16.36L13.51 11.32L7.96 6.02V15.18L3.66 11.16L3 11.86L7.9 16.44L3.08 22.12L3.82 22.74L7.97 17.86V26.4L13.53 20.38ZM8.93 8.27L12.19 11.39L8.93 15.23V8.27ZM8.93 17.4L12.17 20.43L8.93 23.93V17.4Z" fill="black"/>
<path d="M28.71 14.17C28.55 13.14 27.89 12.31 27.01 11.86C26.76 6.3 21.98 2 15.84 2H15.83C14.36 2 12.93 2.27 11.56 2.8L11.91 3.7C13.16 3.21 14.48 2.96 15.9 2.96H15.91C21.32 2.96 25.6 6.68 26.01 11.55C25.84 11.53 25.66 11.51 25.49 11.52C23.77 11.57 22.43 12.96 22.43 14.68V22.31C22.43 23.9 23.62 25.21 25.16 25.43C24.3 26.27 23.21 26.84 22.02 27.07C21.77 26.04 20.84 25.26 19.72 25.26H15.39C14.09 25.26 13.02 26.33 13.02 27.63C13.02 28.93 14.09 30 15.39 30H19.72C20.88 30 21.85 29.15 22.05 28.04C23.84 27.73 25.45 26.76 26.55 25.31C27.68 24.94 28.54 23.95 28.71 22.74C29.44 22.39 29.92 21.65 29.93 20.82V16.1C29.94 15.27 29.44 14.52 28.71 14.17ZM19.74 29.03H15.41C14.64 29.03 14.01 28.4 14 27.62C14 26.85 14.63 26.22 15.41 26.21H19.74C20.51 26.21 21.15 26.84 21.15 27.62C21.14 28.4 20.51 29.03 19.74 29.03ZM28.98 20.82C28.98 21.33 28.63 21.79 28.14 21.94L27.8 22.04L27.79 22.39C27.75 23.58 26.77 24.53 25.57 24.51C24.38 24.49 23.41 23.51 23.41 22.32V14.69C23.41 13.5 24.34 12.53 25.53 12.5C25.55 12.5 25.58 12.5 25.6 12.5C26.76 12.5 27.71 13.39 27.78 14.56L27.8 14.9L28.13 14.99C28.63 15.13 28.97 15.59 28.98 16.11V20.82Z" fill="black"/>
</svg>
