<svg width="32" height="32" viewBox="0 0 32 32" fill="none" xmlns="http://www.w3.org/2000/svg">
<path d="M21.8537 15.6524C22.0921 14.9051 22.2312 13.9046 22.2963 12.6872C22.3477 11.7254 22.3498 10.7872 22.3236 9.60016C22.3234 9.59334 22.3115 9.08269 22.3096 8.97752C22.2889 7.7452 21.4206 6.11926 20.3346 5.13428C18.7114 3.66317 17.2191 2.82812 15.1752 2.82812C13.1243 2.82812 11.6275 3.6647 10.0081 5.1344C8.92244 6.11794 8.05408 7.74394 8.03211 8.97752C8.03044 9.07162 8.02071 9.49034 8.01857 9.58232L8.01816 9.60016C7.99188 10.7872 7.99403 11.7254 8.04546 12.6872C8.11055 13.9046 8.24964 14.9051 8.48807 15.6525C9.04037 17.3848 10.2408 18.947 11.3495 19.6851C11.3676 19.6972 4.12918 23.4436 4.12918 23.4436C4.0759 23.4686 3.9642 23.5261 3.82331 23.6061C3.58999 23.7386 3.3565 23.8887 3.136 24.055C2.4372 24.5821 2 25.1563 2 25.8307V27.3359C2 28.3299 2.93788 28.995 3.79777 29.0039C3.9767 29.0062 5.63222 29.0263 8.28264 29.0583L12.8093 29.1129L17.5267 29.1129L20.0369 29.0824C20.3502 29.0785 20.601 28.8214 20.5971 28.5081C20.5933 28.1949 20.3362 27.944 20.0229 27.9479L17.5198 27.9784L12.8162 27.9783L8.30871 27.9239C5.64751 27.8918 3.99083 27.8717 3.81095 27.8694C3.5036 27.8662 3.13458 27.6045 3.13458 27.3359V25.8307C3.13458 25.6145 3.38011 25.292 3.81922 24.9608C3.99698 24.8267 4.1902 24.7026 4.38359 24.5927C4.49872 24.5273 4.58616 24.4823 4.6312 24.461L12.1214 20.6224L12.1874 20.5827C12.2535 20.5365 12.3304 20.4688 12.4063 20.3742C12.8044 19.8775 12.6967 19.2183 11.978 18.7405C11.081 18.1434 10.0419 16.7911 9.56901 15.3078C9.36618 14.6719 9.23878 13.7556 9.17841 12.6266C9.12885 11.6997 9.12676 10.786 9.15246 9.62527L9.15268 9.61569C9.15434 9.54448 9.16472 9.09817 9.16651 8.99772C9.18236 8.10726 9.90024 6.76305 10.7702 5.9749C12.1991 4.67807 13.479 3.9627 15.1752 3.9627C16.8641 3.9627 18.1404 4.67691 19.5725 5.97482C20.4424 6.76383 21.1602 8.10796 21.1752 8.99716C21.1771 9.10658 21.1892 9.62165 21.1893 9.62527C21.215 10.786 21.2129 11.6997 21.1633 12.6266C21.1029 13.7556 20.9755 14.6719 20.7727 15.3077C20.2995 16.7918 19.2606 18.1443 18.3637 18.7405C17.6456 19.2186 17.5384 19.8777 17.9364 20.3741C18.0124 20.4688 18.0893 20.5365 18.1554 20.5827L18.2213 20.6223L20.5957 21.8397C20.8744 21.9827 21.2163 21.8726 21.3593 21.5938C21.5022 21.315 21.3921 20.9731 21.1133 20.8301L18.9442 19.718C20.1007 18.9482 21.3011 17.3856 21.8537 15.6524Z" fill="black"/>
<path d="M25.2381 25.5486V28.6542C25.2381 28.9401 25.4698 29.1718 25.7557 29.1718C26.0416 29.1718 26.2733 28.9401 26.2733 28.6542V25.5486H29.4824C29.7683 25.5486 30 25.3169 30 25.031C30 24.7452 29.7683 24.5134 29.4824 24.5134H26.2733V21.2008C26.2733 20.9149 26.0416 20.6832 25.7557 20.6832C25.4698 20.6832 25.2381 20.9149 25.2381 21.2008V24.5134H22.029C21.7431 24.5134 21.5114 24.7452 21.5114 25.031C21.5114 25.3169 21.7431 25.5486 22.029 25.5486H25.2381Z" fill="black"/>
</svg>
