<svg width="32" height="32" viewBox="0 0 32 32" fill="none" xmlns="http://www.w3.org/2000/svg">
<path fill-rule="evenodd" clip-rule="evenodd" d="M24.8403 6.97724C25.1224 6.85837 25.4484 6.92218 25.6648 7.13863L29.7795 11.2533C30.0722 11.546 30.0737 12.0201 29.7828 12.3145L26.2408 15.9003L29.7828 19.486C30.0737 19.7804 30.0722 20.2545 29.7795 20.5472L25.6648 24.6619C25.4484 24.8783 25.1224 24.9421 24.8403 24.8233C24.5583 24.7044 24.3763 24.4265 24.38 24.1205L24.4582 17.7048L21.6538 20.5439C21.3616 20.8396 20.8851 20.8426 20.5893 20.5504C20.2936 20.2583 20.2907 19.7817 20.5828 19.486L24.1248 15.9003L20.5828 12.3145C20.2907 12.0188 20.2936 11.5422 20.5893 11.2501C20.8851 10.9579 21.3616 10.9609 21.6538 11.2566L24.4582 14.0957L24.38 7.68004C24.3763 7.37396 24.5583 7.0961 24.8403 6.97724ZM25.963 17.7612L28.1861 20.0117L25.9078 22.29L25.963 17.7612ZM25.963 14.0393L25.9078 9.5105L28.1861 11.7888L25.963 14.0393Z" fill="black"/>
<path fill-rule="evenodd" clip-rule="evenodd" d="M2 12.0866C2 11.6709 2.33699 11.3339 2.75269 11.3339H8.37276C8.78846 11.3339 9.12545 11.6709 9.12545 12.0866V19.7139C9.12545 20.1296 8.78846 20.4666 8.37276 20.4666H2.75269C2.33699 20.4666 2 20.1296 2 19.7139V12.0866ZM3.50538 12.8393V18.9612H7.62007V12.8393H3.50538Z" fill="black"/>
<path fill-rule="evenodd" clip-rule="evenodd" d="M17.2545 8.7748C17.2545 7.7312 15.9943 7.11947 15.1543 7.76567L15.1529 7.76671L8.72997 12.6843C8.3999 12.937 7.92747 12.8743 7.67476 12.5442C7.42205 12.2141 7.48477 11.7417 7.81483 11.489L14.2364 6.57247C14.2367 6.57227 14.2362 6.57267 14.2364 6.57247C16.0057 5.21246 18.7599 6.40657 18.7599 8.7748V23.0257C18.7599 25.4031 16.1123 26.5685 14.2578 25.2439C14.2511 25.2391 14.2444 25.2341 14.2378 25.2291L7.81483 20.3115C7.48477 20.0588 7.42205 19.5864 7.67476 19.2563C7.92747 18.9262 8.3999 18.8635 8.72997 19.1162L15.1421 24.0255C16.0959 24.6974 17.2545 24.0572 17.2545 23.0257V8.7748Z" fill="black"/>
</svg>
