<svg width="32" height="32" viewBox="0 0 32 32" fill="none" xmlns="http://www.w3.org/2000/svg">
<path d="M17.2405 4.34253V3.63367C8.82455 3.63367 2 10.3607 2 18.6615H2.70886C2.70886 10.7545 9.21371 4.34253 17.2405 4.34253Z" fill="black"/>
<path d="M19.6631 9.78603L19.7506 9.08249C25.6161 9.81119 30 13.6114 30 18.1435C30 23.2448 24.4837 27.33 17.7176 27.3324C16.5051 27.3317 15.2968 27.196 14.1159 26.928C13.4687 27.2265 12.7765 27.4749 12.0449 27.6773C9.8737 28.2777 7.76377 28.4212 5.45502 28.3493C5.38378 28.3468 5.08039 28.3365 5.02013 28.3348L4.99085 28.3342C4.94271 28.3333 4.90135 28.3326 4.92763 28.3252L4.68272 27.6635C7.24418 26.4389 8.3897 25.6648 8.84089 24.5002C7.71274 23.6357 6.79618 22.5306 6.1614 21.266L6.79512 20.9477C7.41785 22.1886 8.33405 23.2636 9.46717 24.0827L9.67132 24.2301L9.59901 24.4711C9.2056 25.7885 8.29046 26.6055 6.28722 27.6564C8.21922 27.6702 10.0222 27.5008 11.856 26.9943C12.5922 26.7905 13.284 26.5385 13.9245 26.2348L14.0365 26.1816L14.1573 26.21C15.3238 26.4843 16.5185 26.6229 17.7176 26.6236C24.1299 26.6211 29.2911 22.7993 29.2911 18.1435C29.2911 14.0154 25.2063 10.4747 19.6631 9.78603Z" fill="black"/>
<path d="M10.1517 18.6616L9.44289 18.6609C9.44749 14.4145 12.9369 10.9748 17.24 10.9702L17.2407 11.679C13.3264 11.6833 10.156 14.8083 10.1517 18.6616Z" fill="black"/>
<path d="M5.72137 18.661C5.72846 12.3894 10.8826 7.30897 17.24 7.30188L17.2407 8.01074C11.2721 8.01747 6.43697 12.7831 6.43023 18.6617L5.72137 18.661Z" fill="black"/>
</svg>
