<svg width="32" height="32" viewBox="0 0 32 32" fill="none" xmlns="http://www.w3.org/2000/svg">
<path fill-rule="evenodd" clip-rule="evenodd" d="M10.3028 17.3017C9.37601 14.6701 8.51665 12.0145 7.64369 9.36388C7.6075 9.25392 7.62102 9.12755 7.60448 8.92395H27.7299C27.5538 9.50413 27.4208 9.97654 27.2675 10.4421C26.5419 12.6462 25.7986 14.8446 25.09 17.0541C24.9115 17.6108 24.6412 17.8394 24.024 17.8355C19.7572 17.8081 15.4901 17.8319 11.2234 17.7992C10.9052 17.7967 10.3909 17.5522 10.3028 17.3017ZM11.6015 24.6118C12.2149 24.6118 12.7123 25.1102 12.7123 25.725C12.7123 26.3397 12.2149 26.8381 11.6015 26.8381C10.988 26.8381 10.4907 26.3397 10.4907 25.725C10.4907 25.1102 10.988 24.6118 11.6015 24.6118ZM23.9848 24.6118C24.5983 24.6118 25.0956 25.1102 25.0956 25.725C25.0956 26.3397 24.5983 26.8381 23.9848 26.8381C23.3714 26.8381 22.874 26.3397 22.874 25.725C22.874 25.1102 23.3714 24.6118 23.9848 24.6118ZM25.0083 19.4501C25.7566 19.4565 26.1073 19.2456 26.3413 18.5101C27.435 15.0727 28.5928 11.6559 29.7241 8.2306C29.8197 7.94085 29.8898 7.64243 30 7.24624H28.8778C21.9458 7.24624 15.0137 7.22664 8.08193 7.26963C7.15432 7.27544 6.71154 6.99696 6.52701 6.10363C6.39478 5.46347 6.15056 4.84113 5.90155 4.23336C5.81121 4.01293 5.56875 3.70609 5.38422 3.69785C4.26896 3.64779 3.15043 3.67295 2 3.67295V5.2793C2.57375 5.2793 3.07345 5.32709 3.56021 5.26836C4.34074 5.17405 4.6591 5.54423 4.88796 6.24632C6.65596 11.6695 8.44898 17.0845 10.2598 22.4936C10.443 23.0408 10.4238 23.3713 9.94455 23.7782C8.99024 24.5885 8.79866 25.9798 9.37685 27.0381C9.9328 28.0557 11.1847 28.5561 12.3797 28.2384C13.4518 27.9535 14.1822 26.9581 14.1209 25.6504C14.085 24.8876 14.4094 24.7336 15.049 24.7388C16.8367 24.7531 18.6253 24.7712 20.4123 24.7297C21.2059 24.7112 21.517 24.9071 21.4634 25.7894C21.3873 27.04 22.2412 28.0485 23.3442 28.2592C24.7499 28.5277 25.9107 27.9172 26.3814 26.662C27.056 24.8629 25.7781 23.1254 23.7279 23.1136C20.1837 23.0929 16.6391 23.1161 13.0948 23.0936C12.7608 23.0916 12.218 22.9845 12.1303 22.7754C11.703 21.7552 11.3974 20.6839 11.0057 19.5005C11.5713 19.471 11.9381 19.4355 12.305 19.4352C16.5395 19.4312 20.7741 19.4138 25.0083 19.4501Z" fill="black"/>
</svg>
