<svg width="32" height="32" viewBox="0 0 32 32" fill="none" xmlns="http://www.w3.org/2000/svg">
<path fill-rule="evenodd" clip-rule="evenodd" d="M27.6616 23.7298C27.9425 23.8633 28.3417 24.0902 28.7476 24.3968C29.5157 24.9769 30 25.6142 30 26.3834V27.9692C30 29.1072 28.9421 29.8588 27.9665 29.8714C27.7766 29.8739 26.0355 29.8949 23.2477 29.9285C22.1961 29.9412 21.4542 29.9502 19.9705 29.968C18.7835 29.9823 18.7835 29.9823 18.4778 29.986L13.5133 29.9859C13.2165 29.9823 13.2165 29.9823 12.0295 29.968C10.5458 29.9502 9.80389 29.9412 8.76526 29.9287C5.96449 29.8949 4.2234 29.8739 4.03355 29.8714C3.05791 29.8588 2 29.1072 2 27.9692V26.3834C2 25.6142 2.48434 24.9769 3.25235 24.3968C3.65832 24.0902 4.05752 23.8633 4.31805 23.7399L11.7474 19.9286C10.599 19.0979 9.39739 17.4875 8.8313 15.71C8.57571 14.9085 8.42781 13.8443 8.35874 12.5513C8.30442 11.5344 8.30219 10.5439 8.32998 9.29063C8.33006 9.28677 8.34276 8.74384 8.34471 8.63369C8.36721 7.29185 9.29994 5.54378 10.4699 4.48119C12.1971 2.91132 13.8011 2.01392 16.0046 2.01392C18.201 2.01392 19.803 2.91146 21.5299 4.48101C22.7001 5.54378 23.6328 7.29185 23.6553 8.63296C23.6572 8.74384 23.6699 9.28677 23.67 9.29063C23.6978 10.5439 23.6956 11.5344 23.6413 12.5513C23.5722 13.8443 23.4243 14.9085 23.1688 15.7097C22.6027 17.4873 21.4012 19.0976 20.2526 19.9286L27.6616 23.7298ZM18.7929 20.7287C18.3204 20.1383 18.4501 19.3461 19.277 18.7961C20.1922 18.1866 21.2647 16.7883 21.752 15.2582C21.9609 14.603 22.0935 13.6491 22.1564 12.472C22.2083 11.5009 22.2104 10.5424 22.1834 9.32359C22.1834 9.32359 22.1706 8.77514 22.1685 8.65862C22.1536 7.76689 21.4178 6.38788 20.53 5.58157C19.0532 4.23935 17.7351 3.50089 16.0046 3.50089C14.2665 3.50089 12.947 4.23911 11.4698 5.58174C10.5822 6.38788 9.84642 7.76689 9.83145 8.65935C9.8294 8.77514 9.81658 9.32359 9.81658 9.32359C9.78956 10.5424 9.79171 11.5009 9.84358 12.472C9.90647 13.6491 10.039 14.603 10.2481 15.2585C10.7353 16.7883 11.8078 18.1866 12.7226 18.7959C13.5498 19.3461 13.6796 20.1383 13.2071 20.7287C13.1176 20.8406 13.0267 20.9208 12.9466 20.9768L12.8599 21.0291L4.97641 25.073C4.93216 25.094 4.84343 25.1397 4.72577 25.2066C4.52769 25.3192 4.32983 25.4464 4.14854 25.5834C3.72035 25.9068 3.48696 26.2139 3.48696 26.3834V27.9692C3.48696 28.1577 3.80165 28.3813 4.05271 28.3846C4.24189 28.387 5.98449 28.4081 8.77022 28.4417C9.8218 28.4544 10.5637 28.4633 12.0474 28.4812C13.2344 28.4955 13.2344 28.4955 13.5222 28.499L18.4688 28.4991C18.7656 28.4955 18.7656 28.4955 19.9526 28.4812C21.4363 28.4633 22.1782 28.4544 23.2168 28.4418C26.0155 28.4081 27.7581 28.387 27.9473 28.3846C28.1983 28.3813 28.513 28.1577 28.513 27.9692V26.3834C28.513 26.2139 28.2796 25.9068 27.8514 25.5834C27.6702 25.4464 27.4723 25.3192 27.2742 25.2066C27.1566 25.1397 27.0678 25.094 27.0032 25.0629L19.0949 21.0059C18.9732 20.9208 18.8824 20.8406 18.7929 20.7287Z" fill="black"/>
</svg>
