<svg width="32" height="32" viewBox="0 0 32 32" fill="none" xmlns="http://www.w3.org/2000/svg">
<path fill-rule="evenodd" clip-rule="evenodd" d="M4.57143 13.421C3.15127 13.421 2 14.5798 2 16C2 17.4201 3.15127 18.5789 4.57143 18.5789C5.99159 18.5789 7.14286 17.4201 7.14286 16C7.14286 14.5798 5.99159 13.421 4.57143 13.421ZM13.4286 16C13.4286 14.5798 14.5798 13.421 16 13.421C17.4202 13.421 18.5714 14.5798 18.5714 16C18.5714 17.4201 17.4202 18.5789 16 18.5789C14.5798 18.5789 13.4286 17.4201 13.4286 16ZM24.8571 16C24.8571 14.5798 26.0084 13.421 27.4286 13.421C28.8487 13.421 30 14.5798 30 16C30 17.4201 28.8487 18.5789 27.4286 18.5789C26.0084 18.5789 24.8571 17.4201 24.8571 16Z" fill="black"/>
</svg>
