<svg width="32" height="32" viewBox="0 0 32 32" fill="none" xmlns="http://www.w3.org/2000/svg">
<path fill-rule="evenodd" clip-rule="evenodd" d="M5.49255 2H29.9404V27.7396C29.9404 28.3715 29.7221 28.9062 29.2855 29.3437C28.8489 29.7812 28.3154 30 27.6848 30H4.2556C3.625 30 3.09142 29.7812 2.65485 29.3437C2.21828 28.9062 2 28.3715 2 27.7396V5.5H4.32836V6.66667H3.16418V27.7396C3.16418 28.0312 3.27332 28.2865 3.49161 28.5052C3.70989 28.724 3.96456 28.8333 4.2556 28.8333H27.6848C27.9758 28.8333 28.2305 28.724 28.4488 28.5052C28.667 28.2865 28.7762 28.0312 28.7762 27.7396V3.16667H6.65673V26.5H5.49255V3.16667V2ZM8.98509 6.66667V5.5H18.2985V6.66667H8.98509ZM8.98509 12.5V11.3333H26.4478V12.5H8.98509ZM8.98509 18.3333V17.1667H22.9553V18.3333H8.98509ZM8.98509 24.1667V23H26.4478V24.1667H8.98509Z" fill="black"/>
</svg>
