<svg width="32" height="32" viewBox="0 0 32 32" fill="none" xmlns="http://www.w3.org/2000/svg">
<path fill-rule="evenodd" clip-rule="evenodd" d="M11.2434 3.7387C11.3305 3.69182 11.4312 3.66467 11.5412 3.66467H20.4556C20.681 3.66467 20.8891 3.78548 21.0009 3.9812L29.9142 19.5871C29.9194 19.5961 29.9244 19.6052 29.9291 19.6144C30.0182 19.7865 30.0294 19.9994 29.9278 20.193C29.9235 20.2012 29.919 20.2094 29.9143 20.2175L25.4581 28.0188C25.3463 28.2145 25.1382 28.3353 24.9128 28.3353H7.09017H7.08405C7.07404 28.3353 7.06411 28.3351 7.05425 28.3347C6.94544 28.3298 6.84661 28.2982 6.762 28.2476C6.67344 28.195 6.59575 28.1187 6.53869 28.0187L2.08262 20.2138C1.97245 20.0209 1.97246 19.784 2.08264 19.5911L10.9949 3.98309C10.9964 3.98029 10.9981 3.97749 10.9997 3.97471C11.0617 3.86899 11.1469 3.79033 11.2434 3.7387ZM16.0387 13.4344L12.6713 19.2745H19.3738L16.0387 13.4344ZM28.2892 19.2745H20.8201L12.623 4.92063H20.0911L28.2892 19.2745ZM20.4438 20.5303H12.1657L8.19864 27.0793H24.5483L28.2891 20.5304H20.4556C20.4517 20.5304 20.4477 20.5304 20.4438 20.5303ZM3.35112 19.9024L11.5361 5.56806L15.2761 12.2426L7.08674 26.4455L3.35112 19.9024Z" fill="black"/>
</svg>
