<svg width="32" height="32" viewBox="0 0 32 32" fill="none" xmlns="http://www.w3.org/2000/svg">
<path fill-rule="evenodd" clip-rule="evenodd" d="M16.0196 2.68164C8.27696 2.68164 2.00027 8.95833 2.00027 16.701C1.96654 22.096 5.06844 27.0196 9.94926 29.3185L11.2531 26.7249C6.30633 24.3444 3.84586 18.7028 5.46689 13.4579C7.08793 8.21294 12.3025 4.94347 17.7298 5.76923C23.157 6.59498 27.1633 11.2674 27.151 16.7571C27.1677 21.0403 24.679 24.9379 20.7862 26.7249L22.09 29.3185C27.9647 26.4733 31.0985 19.9501 29.6482 13.5859C28.1978 7.22164 22.547 2.70045 16.0196 2.68164ZM24.6976 16.701C24.6976 11.9083 20.8124 8.02302 16.0196 8.02302C11.2269 8.02302 7.34165 11.9083 7.34165 16.701C7.30986 20.08 9.30313 23.1499 12.4026 24.4958L13.7064 21.9022C11.6696 20.9803 10.375 18.9365 10.4119 16.701C10.3068 14.567 11.3855 12.5486 13.218 11.4501C15.0506 10.3516 17.3392 10.3516 19.1717 11.4501C21.0043 12.5486 22.083 14.567 21.9779 16.701C22.0098 18.9431 20.7031 20.9887 18.6553 21.9022L19.9451 24.4958C22.8534 22.9812 24.6832 19.98 24.6976 16.701ZM13.8466 16.4066C13.8466 15.2065 14.8195 14.2336 16.0197 14.2336C17.2043 14.2701 18.1562 15.2219 18.1927 16.4066C18.1927 17.6067 17.2198 18.5796 16.0197 18.5796C14.8195 18.5796 13.8466 17.6067 13.8466 16.4066Z" fill="black"/>
</svg>
