<svg width="32" height="32" viewBox="0 0 32 32" fill="none" xmlns="http://www.w3.org/2000/svg">
<path fill-rule="evenodd" clip-rule="evenodd" d="M16.181 3.77698C8.62521 3.77698 2.5 9.90219 2.5 17.458H1.5C1.5 9.3499 8.07292 2.77698 16.181 2.77698V3.77698Z" fill="black"/>
<path fill-rule="evenodd" clip-rule="evenodd" d="M16.1815 7.32214C10.5859 7.32825 6.05124 11.8629 6.04513 17.4585L5.04513 17.4574C5.05184 11.3103 10.0333 6.32885 16.1804 6.32214L16.1815 7.32214Z" fill="black"/>
<path fill-rule="evenodd" clip-rule="evenodd" d="M16.1815 10.8674C12.543 10.8714 9.59436 13.82 9.59039 17.4585L8.59039 17.4574C8.59497 13.2674 11.9904 9.87198 16.1804 9.8674L16.1815 10.8674Z" fill="black"/>
<path fill-rule="evenodd" clip-rule="evenodd" d="M18.7733 8.72406H27.8743C29.3227 8.7283 30.4958 9.90138 30.5 11.3498L30.5 11.3512L30.5 22.4597L30.5 22.4612C30.4958 23.9095 29.3227 25.0826 27.8743 25.0868L27.8729 25.0869H12.0004L7.04173 29.9068L7.04669 18.087L8.04669 18.0874L8.04272 27.5392L11.5945 24.0868H27.8723C28.77 24.0837 29.497 23.3566 29.5 22.4588L29.5 11.3527C29.4971 10.4548 28.7699 9.72705 27.8721 9.72406H18.7733V8.72406Z" fill="black"/>
<path d="M14.0463 18.0872C14.699 18.0872 15.2281 17.5581 15.2281 16.9055C15.2281 16.2528 14.699 15.7237 14.0463 15.7237C13.3937 15.7237 12.8646 16.2528 12.8646 16.9055C12.8646 17.5581 13.3937 18.0872 14.0463 18.0872Z" fill="black"/>
<path d="M23.5004 18.0872C24.153 18.0872 24.6821 17.5581 24.6821 16.9055C24.6821 16.2528 24.153 15.7237 23.5004 15.7237C22.8477 15.7237 22.3186 16.2528 22.3186 16.9055C22.3186 17.5581 22.8477 18.0872 23.5004 18.0872Z" fill="black"/>
<path d="M18.7733 18.0872C19.426 18.0872 19.9551 17.5581 19.9551 16.9055C19.9551 16.2528 19.426 15.7237 18.7733 15.7237C18.1207 15.7237 17.5916 16.2528 17.5916 16.9055C17.5916 17.5581 18.1207 18.0872 18.7733 18.0872Z" fill="black"/>
</svg>
