<svg width="32" height="32" viewBox="0 0 32 32" fill="none" xmlns="http://www.w3.org/2000/svg">
<path fill-rule="evenodd" clip-rule="evenodd" d="M16.5854 2.29614C17.0895 2.29614 17.4987 2.7053 17.4987 3.20944V19.6719C17.4987 20.1761 17.0895 20.5852 16.5854 20.5852C16.0812 20.5852 15.6721 20.1761 15.6721 19.6719V3.20944C15.6721 2.7053 16.0812 2.29614 16.5854 2.29614ZM20.7523 11.4147C21.2565 11.4147 21.6656 11.8239 21.6656 12.328V28.7905C21.6656 29.2947 21.2565 29.7038 20.7523 29.7038C20.2482 29.7038 19.839 29.2947 19.839 28.7905V12.328C19.839 11.8239 20.2482 11.4147 20.7523 11.4147ZM24.9199 11.4147C25.424 11.4147 25.8332 11.8239 25.8332 12.328V28.7905C25.8332 29.2947 25.424 29.7038 24.9199 29.7038C24.4157 29.7038 24.0066 29.2947 24.0066 28.7905V12.328C24.0066 11.8239 24.4157 11.4147 24.9199 11.4147ZM30 12.328C30 11.8239 29.5908 11.4147 29.0867 11.4147C28.5826 11.4147 28.1734 11.8239 28.1734 12.328V28.7905C28.1734 29.2947 28.5826 29.7038 29.0867 29.7038C29.5908 29.7038 30 29.2947 30 28.7905V12.328ZM13.6866 11.4349L7.47979 7.12776V10.1222H2V12.7439H7.47979V15.7529L13.6866 11.4349Z" fill="black"/>
</svg>
