<svg width="32" height="32" viewBox="0 0 32 32" fill="none" xmlns="http://www.w3.org/2000/svg">
<path fill-rule="evenodd" clip-rule="evenodd" d="M16 2.5C8.54433 2.5 2.50025 8.54388 2.5 15.9996C2.49975 23.4552 8.54343 29.4995 15.9991 29.5C23.4548 29.5005 29.4993 23.457 29.5 16.0014C29.5003 12.4207 28.0781 8.98667 25.5463 6.45466C23.0145 3.92265 19.5806 2.50011 16 2.5ZM1.5 15.9995C1.50027 7.99158 7.99206 1.5 16 1.5C19.8459 1.50012 23.5341 3.02802 26.2534 5.74759C28.9727 8.46715 30.5003 12.1556 30.5 16.0015C30.4992 24.0094 24.007 30.5005 15.999 30.5C7.99109 30.4995 1.49973 24.0075 1.5 15.9995Z" fill="black"/>
<path fill-rule="evenodd" clip-rule="evenodd" d="M17.1995 5.3694V17.5344L8.14402 17.5361L8.14384 16.5361L16.1995 16.5346V5.3694H17.1995Z" fill="black"/>
</svg>
