<svg width="32" height="32" viewBox="0 0 32 32" fill="none" xmlns="http://www.w3.org/2000/svg">
<path fill-rule="evenodd" clip-rule="evenodd" d="M16 5C16.4157 5 16.7527 5.33699 16.7527 5.75269V19.5915L21.2886 15.0556C21.5825 14.7616 22.0591 14.7616 22.353 15.0556C22.647 15.3495 22.647 15.8261 22.353 16.12L16.5322 21.9408C16.2383 22.2348 15.7617 22.2348 15.4678 21.9408L9.64698 16.12C9.35304 15.8261 9.35304 15.3495 9.64698 15.0556C9.94092 14.7616 10.4175 14.7616 10.7114 15.0556L15.2473 19.5915V5.75269C15.2473 5.33699 15.5843 5 16 5ZM2.75269 21.2581C3.16839 21.2581 3.50538 21.5951 3.50538 22.0108V25.1219C3.50538 25.8101 4.07161 26.3763 4.75986 26.3763H27.2401C27.9284 26.3763 28.4946 25.8101 28.4946 25.1219V22.0108C28.4946 21.5951 28.8316 21.2581 29.2473 21.2581C29.663 21.2581 30 21.5951 30 22.0108V25.1219C30 26.6415 28.7598 27.8817 27.2401 27.8817H4.75986C3.24022 27.8817 2 26.6415 2 25.1219V22.0108C2 21.5951 2.33699 21.2581 2.75269 21.2581Z" fill="black"/>
</svg>
