<svg width="32" height="32" viewBox="0 0 32 32" fill="none" xmlns="http://www.w3.org/2000/svg">
<path fill-rule="evenodd" clip-rule="evenodd" d="M2 5.8363C2 3.72961 3.72961 2 5.8363 2H19.7865C20.5142 2 21.195 2.30186 21.8096 2.9164L29.1506 10.2574C29.7695 10.7541 30 11.5958 30 12.2135V26.1637C30 28.2704 28.2704 30 26.1637 30H5.8363C3.72961 30 2 28.2704 2 26.1637V5.8363ZM5.8363 3.49466C4.55509 3.49466 3.49466 4.55509 3.49466 5.8363V26.1637C3.49466 27.4449 4.55509 28.5053 5.8363 28.5053H26.1637C27.4449 28.5053 28.5053 27.4449 28.5053 26.1637V12.2135C28.5053 11.8503 28.3489 11.5233 28.2064 11.4164C28.1781 11.3952 28.1514 11.372 28.1264 11.3469L20.7527 3.97328C20.3708 3.59138 20.0552 3.49466 19.7865 3.49466H5.8363Z" fill="black"/>
<path fill-rule="evenodd" clip-rule="evenodd" d="M19.5872 2C19.9999 2 20.3345 2.33459 20.3345 2.74733V10.3203C20.3345 11.0036 20.8967 11.5658 21.5801 11.5658H29.153C29.5658 11.5658 29.9004 11.9004 29.9004 12.3132C29.9004 12.7259 29.5658 13.0605 29.153 13.0605H21.5801C20.0712 13.0605 18.8399 11.8291 18.8399 10.3203V2.74733C18.8399 2.33459 19.1744 2 19.5872 2Z" fill="black"/>
<path d="M12.8114 22.6762H10.4199L10.0214 24.0712H8.62633L11.0178 17.4947H12.2135L14.605 23.9715H13.21L12.8114 22.6762ZM10.8185 21.5801H12.4128L11.6157 19.1886L10.8185 21.5801Z" fill="black"/>
<path d="M17.395 22.3772L18.8897 17.4947H20.3843L18.0925 23.9715H16.6975L14.4057 17.4947H15.9004L17.395 22.3772Z" fill="black"/>
<path d="M22.3772 24.0712H20.9822V17.5943H22.2776V24.0712H22.3772Z" fill="black"/>
</svg>
