<svg width="32" height="32" viewBox="0 0 32 32" fill="none" xmlns="http://www.w3.org/2000/svg">
<path d="M12.6619 15.5516H19.2384C20.2349 15.5516 21.032 14.7544 21.032 13.758V8.7758C21.032 7.77936 20.2349 6.98221 19.2384 6.98221H19.0391V5.08897C19.0391 3.39502 17.6441 2 15.9502 2C14.2562 2 12.8612 3.39502 12.8612 5.08897V6.98221H12.6619C11.6655 6.98221 10.8683 7.77936 10.8683 8.7758V13.758C10.8683 14.7544 11.6655 15.5516 12.6619 15.5516ZM14.3559 5.08897C14.3559 4.19217 15.0534 3.49466 15.9502 3.49466C16.847 3.49466 17.5445 4.19217 17.5445 5.08897V6.98221H14.3559V5.08897ZM12.363 8.7758C12.363 8.57651 12.4626 8.47687 12.6619 8.47687H19.2384C19.4377 8.47687 19.5374 8.57651 19.5374 8.7758V13.758C19.5374 13.9573 19.4377 14.0569 19.2384 14.0569H12.6619C12.4626 14.0569 12.363 13.9573 12.363 13.758V8.7758Z" fill="black"/>
<path d="M23.6228 17.4448C20.1352 17.4448 17.3452 20.2349 17.3452 23.7224C17.3452 25.6157 18.242 27.3096 19.5374 28.5053H12.1637C13.4591 27.3096 14.3559 25.6157 14.3559 23.7224C14.3559 20.2349 11.5658 17.4448 8.07829 17.4448C4.59075 17.4448 2 20.2349 2 23.6228C2 27.0107 4.79004 29.9004 8.27758 29.9004H23.7224C27.21 29.9004 30 27.1103 30 23.6228C30 20.1352 27.1103 17.4448 23.6228 17.4448ZM3.49466 23.6228C3.49466 21.032 5.58719 18.8399 8.27758 18.8399C10.968 18.8399 13.0605 20.9324 13.0605 23.6228C13.0605 26.3132 10.968 28.4057 8.27758 28.4057C5.58719 28.4057 3.49466 26.3132 3.49466 23.6228ZM23.6228 28.4057C21.032 28.4057 18.8399 26.3132 18.8399 23.6228C18.8399 20.9324 20.9324 18.8399 23.6228 18.8399C26.3132 18.8399 28.4057 20.9324 28.4057 23.6228C28.4057 26.3132 26.3132 28.4057 23.6228 28.4057Z" fill="black"/>
</svg>
