<svg width="32" height="32" viewBox="0 0 32 32" fill="none" xmlns="http://www.w3.org/2000/svg">
<path d="M12.08 5.64C12.08 6.10392 11.7039 6.48 11.24 6.48C10.7761 6.48 10.4 6.10392 10.4 5.64C10.4 5.17608 10.7761 4.8 11.24 4.8C11.7039 4.8 12.08 5.17608 12.08 5.64Z" fill="black"/>
<path fill-rule="evenodd" clip-rule="evenodd" d="M7.59998 4.80002C7.59998 3.25361 8.84898 2 10.4025 2H21.5975C23.1453 2 24.4 3.2575 24.4 4.80002V27.2C24.4 28.7464 23.151 30 21.5975 30H10.4025C8.85469 30 7.59998 28.7425 7.59998 27.2V4.80002ZM8.99998 4.80002V23.14H23V4.80002C23 4.02933 22.3707 3.4 21.5975 3.4H10.4025C9.62432 3.4 8.99998 4.02467 8.99998 4.80002ZM8.99998 27.2V24.54H23V27.2C23 27.9753 22.3756 28.6 21.5975 28.6H10.4025C9.62926 28.6 8.99998 27.9707 8.99998 27.2Z" fill="black"/>
</svg>
