<svg width="32" height="32" viewBox="0 0 32 32" fill="none" xmlns="http://www.w3.org/2000/svg">
<path fill-rule="evenodd" clip-rule="evenodd" d="M28.3803 4.21967C28.6732 4.51256 28.6732 4.98744 28.3803 5.28033L15.6766 17.9841C16.1858 18.4399 16.6798 18.8171 17.1258 19.1117C17.758 19.5291 18.2509 19.7521 18.5319 19.8224C18.7543 19.878 18.8457 19.8463 18.9475 19.7844C19.1184 19.6804 19.3181 19.4761 19.6856 19.0561C20.0547 18.6342 20.5349 18.167 21.0853 17.9001C21.672 17.6157 22.4039 17.5391 23.0819 18.0366C24.0308 18.6726 25.8488 20.1897 26.5381 20.7806C26.9211 21.1089 27.3696 21.5714 27.6237 22.1473C27.8959 22.7643 27.9349 23.4996 27.4931 24.2359C27.4327 24.3366 27.3677 24.4546 27.2958 24.5852C26.7372 25.5997 25.7602 27.3739 23.2558 27.6926C20.524 28.1243 16.3995 27.0435 11.4505 22.2101L5.28033 28.3803C4.98744 28.6732 4.51256 28.6732 4.21967 28.3803C3.92678 28.0874 3.92678 27.6126 4.21967 27.3197L10.3998 21.1396C5.64557 16.09 4.57871 11.9736 4.90579 9.35697C5.24476 6.64525 7.2546 5.65244 8.27767 5.14708C8.32556 5.12342 8.37129 5.10083 8.41459 5.07918C9.89251 4.34022 11.2586 5.27174 11.8603 6.11407C12.0938 6.44102 12.6 7.06822 13.1335 7.72875L13.1536 7.75373C13.661 8.38194 14.191 9.03806 14.4556 9.4075C14.9617 10.0885 14.8858 10.8249 14.5999 11.4147C14.333 11.9651 13.8658 12.4453 13.4439 12.8144C13.0239 13.1819 12.8196 13.3816 12.7156 13.5525C12.6537 13.6543 12.622 13.7457 12.6776 13.9681C12.746 14.2415 12.9884 14.7555 13.424 15.409C13.7442 15.8892 14.1475 16.4131 14.6122 16.9271L27.3197 4.21967C27.6126 3.92678 28.0874 3.92678 28.3803 4.21967ZM13.5503 17.989C13.0139 17.4015 12.5478 16.7988 12.176 16.241C11.7116 15.5445 11.354 14.8585 11.2224 14.3319C11.078 13.7543 11.1463 13.2457 11.4344 12.7725C11.6804 12.3684 12.0761 12.0181 12.4561 11.6856C12.8342 11.3547 13.117 11.0349 13.2501 10.7603C13.3631 10.5272 13.3377 10.417 13.25 10.3L13.2397 10.2859C13.0062 9.95897 12.5 9.33178 11.9665 8.67125L11.9464 8.64627C11.4359 8.01432 10.9027 7.35412 10.6397 6.98593C10.2414 6.42826 9.60749 6.15978 9.08541 6.42082C9.05307 6.43699 9.02036 6.45328 8.98733 6.46974C7.96608 6.97846 6.63169 7.64316 6.39421 9.54303C6.14219 11.5592 6.91837 15.2417 11.4609 20.0784L13.5503 17.989ZM12.5112 21.1494C17.2617 25.7852 20.9377 26.5444 23.0315 26.2094C23.04 26.2081 23.0485 26.2069 23.057 26.2058C24.772 25.9914 25.3836 24.9106 25.9573 23.8968C26.0402 23.7502 26.1223 23.6051 26.2069 23.4641C26.3651 23.2004 26.3541 22.9857 26.2513 22.7527C26.1304 22.4786 25.8789 22.1911 25.5619 21.9194C24.8551 21.3136 23.0896 19.8445 22.234 19.274C22.2224 19.2663 22.2111 19.2583 22.2 19.25C22.083 19.1623 21.9728 19.1369 21.7397 19.2499C21.4651 19.383 21.1453 19.6658 20.8144 20.0439C20.4819 20.4239 20.1316 20.8196 19.7275 21.0656C19.2543 21.3537 18.7457 21.422 18.1681 21.2776C17.6491 21.1479 16.992 20.8209 16.2992 20.3633C15.7715 20.0149 15.1978 19.5739 14.6144 19.0462L12.5112 21.1494Z" fill="black"/>
</svg>
