<svg width="32" height="32" viewBox="0 0 32 32" fill="none" xmlns="http://www.w3.org/2000/svg">
<path fill-rule="evenodd" clip-rule="evenodd" d="M14.9474 2.18867C15.108 2.33102 15.2 2.53537 15.2 2.75V9.15C15.2 9.50057 14.9572 9.80437 14.6152 9.88159C11.8393 10.5084 9.7 13.0186 9.7 15.95C9.7 19.3428 12.4712 22.2 15.95 22.2C17.1934 22.2 18.2554 21.8485 19.2473 21.2173C19.5439 21.0285 19.9318 21.0711 20.1803 21.3197L24.6803 25.8197C24.8322 25.9715 24.9116 26.1811 24.8986 26.3955C24.8856 26.6098 24.7813 26.8083 24.6122 26.9406C22.1946 28.8327 19.2348 30 15.95 30C8.2321 30 2 23.7605 2 15.95C2 8.76511 7.38877 2.85042 14.3598 2.00545C14.5728 1.97963 14.7868 2.04633 14.9474 2.18867ZM13.7 3.62526C7.88381 4.73237 3.5 9.82648 3.5 15.95C3.5 22.9395 9.0679 28.5 15.95 28.5C18.5663 28.5 20.9612 27.6682 23.0023 26.263L19.5299 22.7905C18.4602 23.3698 17.2855 23.7 15.95 23.7C11.6288 23.7 8.2 20.1572 8.2 15.95C8.2 12.4931 10.5625 9.55015 13.7 8.57509V3.62526ZM17.0526 2.28867C17.2132 2.14633 17.4272 2.07963 17.6402 2.10545C24.6112 2.95042 30 8.86511 30 16.05C30 19.3263 28.8381 22.3934 26.9305 24.7249C26.7954 24.89 26.5964 24.9898 26.3832 24.9993C26.1701 25.0087 25.9631 24.927 25.8139 24.7745L21.3139 20.1745C21.0702 19.9254 21.0302 19.5413 21.2173 19.2473C21.8485 18.2554 22.2 17.1934 22.2 15.95C22.2 13.0027 20.1449 10.5048 17.3848 9.88159C17.0428 9.80437 16.8 9.50057 16.8 9.15V2.85C16.8 2.63537 16.892 2.43102 17.0526 2.28867ZM18.3 3.72526V8.57533C21.4396 9.55413 23.7 12.5076 23.7 15.95C23.7 17.2879 23.3686 18.4644 22.7874 19.5357L26.2787 23.1046C27.6678 21.1327 28.5 18.6678 28.5 16.05C28.5 9.92648 24.1162 4.83237 18.3 3.72526Z" fill="black"/>
</svg>
