<svg width="32" height="32" viewBox="0 0 32 32" fill="none" xmlns="http://www.w3.org/2000/svg">
<path d="M11.9802 2H24.9968C26.2182 2 27.2102 2.99201 27.2102 4.21339V22.8896C27.2102 24.111 26.2182 25.103 24.9968 25.103C24.5667 25.103 24.2227 24.759 24.2227 24.3289C24.2227 23.8988 24.5667 23.5548 24.9968 23.5548C25.3638 23.5548 25.662 23.2566 25.662 22.8896V4.21339C25.662 3.84641 25.3638 3.54823 24.9968 3.54823H11.9802C11.6132 3.54823 11.315 3.84641 11.315 4.21339C11.315 4.64346 10.971 4.98751 10.5409 4.98751C10.1109 4.98751 9.76681 4.64346 9.76681 4.21339C9.76681 2.99201 10.7588 2 11.9802 2Z" fill="black"/>
<path fill-rule="evenodd" clip-rule="evenodd" d="M7.00294 6.89695H20.0195C21.2352 6.89695 22.2272 7.88896 22.2329 9.11034V27.7866C22.2329 29.0079 21.2409 30 20.0195 30H7.00294C5.78156 30 4.78955 29.0079 4.78955 27.7866V9.11034C4.78955 7.88896 5.78156 6.89695 7.00294 6.89695ZM20.0138 28.446C20.3808 28.446 20.679 28.1478 20.679 27.7809V9.11036C20.679 8.74337 20.3808 8.4452 20.0138 8.4452H6.99722C6.63023 8.4452 6.33205 8.74337 6.33205 9.11036V27.7809C6.33205 28.1478 6.63023 28.446 6.99722 28.446H20.0138Z" fill="black"/>
</svg>
