<svg width="32" height="32" viewBox="0 0 32 32" fill="none" xmlns="http://www.w3.org/2000/svg">
<path fill-rule="evenodd" clip-rule="evenodd" d="M18.5696 22.5425C17.061 22.1775 15.9899 20.8291 15.9674 19.2667C15.9182 17.8697 16.4513 16.5157 17.4376 15.5322C17.4376 15.5322 18.2769 14.805 17.7174 12.4529C18.6542 11.1426 18.8298 8.8888 17.815 6.47778C17.1644 4.96434 16.6049 4.13883 15.7462 3.65401C15.1175 3.32718 14.4173 3.16495 13.71 3.18229C12.6513 3.18169 11.6092 3.44744 10.6784 3.95538C9.23416 4.61055 8.26483 5.18055 7.36056 7.42777C6.62544 9.24914 7.51019 11.3588 7.97208 12.3808C7.4061 14.7329 8.19327 15.5388 8.19327 15.5388C9.17963 16.5222 9.71271 17.8762 9.66352 19.2732C9.64106 20.8356 8.56995 22.184 7.06131 22.549C5.42191 23.1321 2 24.3245 2 28.1638C2 28.5257 2.29126 28.819 2.65055 28.819H22.9999C23.3592 28.819 23.6504 28.5257 23.6504 28.1638C23.6309 24.318 20.209 23.1256 18.5696 22.5425ZM3.33364 27.5218C3.64591 25.3335 5.58456 24.4425 7.44514 23.7742C9.49113 23.251 10.9258 21.3991 10.9321 19.2732C11.011 17.6951 10.466 16.1497 9.41632 14.9753C9.35126 14.8967 9.28621 14.8246 9.24067 14.7591L9.19513 14.7001C9.14959 14.615 8.89588 14.045 9.22766 12.656C9.29106 12.3796 9.26367 12.0899 9.14959 11.8305C8.83733 11.1295 7.99811 9.2688 8.55759 7.8995C9.31223 6.03227 9.98881 5.65882 11.2118 5.11503L11.3875 5.01676C12.1111 4.66373 12.906 4.48432 13.71 4.49263C14.2085 4.47509 14.7033 4.58557 15.1477 4.81366C15.6031 5.06917 16.039 5.54089 16.6635 7.02157C17.5482 9.11156 17.314 10.8936 16.7155 11.7322C16.4995 12.0376 16.4237 12.4216 16.5074 12.787C16.8131 14.0974 16.5919 14.5953 16.5399 14.687L16.4358 14.8115C16.3903 14.877 16.3252 14.9491 16.2601 15.0277C15.2115 16.1909 14.6599 17.7232 14.7248 19.2929C14.7312 21.4187 16.1658 23.2706 18.2118 23.7939C20.0594 24.449 22.011 25.3401 22.3233 27.5414L3.33364 27.5218ZM25.3744 21.8939C24.0156 21.5638 23.0484 20.353 23.0194 18.9456C23.0194 16.8425 24.1448 16.0956 24.5222 15.5846C24.5222 15.5846 25.2898 14.9294 24.7759 12.8133C25.6346 11.6536 25.8298 9.60949 24.8995 7.44088C24.5182 6.37667 23.7825 5.47838 22.8177 4.89883C22.2364 4.60872 21.5925 4.46911 20.9441 4.49263C20.1137 4.49847 19.293 4.67225 18.5306 5.00366C18.6932 5.31814 18.8493 5.65882 18.999 6.01261C18.999 6.06503 19.038 6.11744 19.0575 6.16986C19.654 5.9126 20.2952 5.77677 20.9441 5.7702C21.3816 5.75571 21.8157 5.8526 22.2062 6.05192C22.918 6.48425 23.4567 7.15428 23.7285 7.94536C24.5027 9.75362 24.2945 11.3064 23.7285 12.0467C23.5064 12.3544 23.4281 12.7442 23.5138 13.1146C23.6996 13.6261 23.7179 14.184 23.5659 14.7067L23.4748 14.8181L23.2991 15.0146C22.2506 16.0444 21.6814 17.4715 21.7313 18.9456C21.7435 20.9211 23.0815 22.6379 24.9841 23.119C26.6625 23.7087 28.2954 24.4294 28.6272 26.2376H24.6328C24.7548 26.6653 24.8333 27.1043 24.867 27.548H29.4208C29.5749 27.5534 29.7243 27.4947 29.8339 27.3855C29.9435 27.2764 30.0035 27.1266 29.9998 26.9714C29.9933 23.4925 26.8707 22.4115 25.3744 21.8873V21.8939Z" fill="black"/>
</svg>
