<svg width="32" height="32" viewBox="0 0 32 32" fill="none" xmlns="http://www.w3.org/2000/svg">
<path fill-rule="evenodd" clip-rule="evenodd" d="M27.5027 4.86085C28.83 6.23407 29.1352 9.12976 28.348 12.4274C27.4816 16.057 25.4153 19.7934 22.3251 22.9367C19.1903 26.021 15.4539 28.0875 11.8225 28.9541C8.5249 29.7411 5.62795 29.4366 4.25425 28.1109L2.52826 26.3796C1.82544 25.6806 1.82386 24.5408 2.52387 23.8318C2.55604 23.7997 2.55604 23.7997 2.70077 23.6551C2.89375 23.4623 2.89375 23.4623 3.16718 23.1893C3.64973 22.7074 4.13247 22.2256 4.5833 21.7758C5.28212 21.0787 5.8356 20.5272 6.19589 20.1692C7.50677 18.8647 9.71291 18.9803 11.1144 20.3849L11.9838 21.2534C12.9188 22.1926 15.3834 21.3333 18.0556 18.6603C20.732 15.9793 21.5846 13.5292 20.6433 12.5789L19.7833 11.7189C18.3748 10.3135 18.2581 8.10443 19.5649 6.80085C19.9242 6.44065 20.4768 5.88761 21.1706 5.19373C21.6237 4.74049 22.1066 4.25771 22.5894 3.77503C22.8631 3.50152 22.8631 3.50152 23.0562 3.30848C23.2011 3.1637 23.2011 3.1637 23.2309 3.13393C23.9273 2.42975 25.0794 2.42975 25.7707 3.13135L27.5027 4.86085ZM24.9457 3.95081C24.7063 3.70782 24.2987 3.70782 24.0552 3.95399C24.0231 3.98614 24.0231 3.98614 23.8782 4.1309C23.6851 4.32392 23.6851 4.32392 23.4115 4.59739C22.9287 5.08 22.4459 5.56271 21.9953 6.01338C21.2994 6.70945 20.747 7.26224 20.3871 7.62305C19.5553 8.4528 19.6332 9.92643 20.6051 10.8962L21.4674 11.7586C23.0214 13.3274 21.9506 16.4044 18.8783 19.4821C15.8076 22.5537 12.712 23.633 11.1608 22.0749L10.292 21.2069C9.32545 20.2382 7.85255 20.161 7.01579 20.9938C6.65587 21.3514 6.10283 21.9024 5.40893 22.5946C4.95385 23.0486 4.47124 23.5304 3.9888 24.0121C3.71543 24.2851 3.71543 24.2851 3.5225 24.4778C3.37782 24.6223 3.37782 24.6223 3.34851 24.6516C3.10018 24.9031 3.10075 25.309 3.34998 25.5569L5.06971 27.282C6.08656 28.2632 8.60085 28.5275 11.5526 27.823C14.9782 27.0055 18.5259 25.0434 21.5028 22.1147C24.4377 19.1292 26.3997 15.5813 27.217 12.1574C27.9207 9.20926 27.6573 6.699 26.6772 5.67976L24.9457 3.95081ZM29.8594 29.2106C29.6482 29.4468 29.2819 29.457 29.0578 29.2329L5.85731 6.03349C5.65016 5.82636 5.6408 5.49352 5.83598 5.27507C6.04731 5.03854 6.41399 5.02823 6.63827 5.25251L29.8383 28.4524C30.0455 28.6595 30.0547 28.9923 29.8594 29.2106Z" fill="black"/>
</svg>
