<svg width="32" height="32" viewBox="0 0 32 32" fill="none" xmlns="http://www.w3.org/2000/svg">
<path fill-rule="evenodd" clip-rule="evenodd" d="M16 4.5C14.7511 4.5 13.7386 5.51245 13.7386 6.76136C13.7386 8.01028 14.7511 9.02273 16 9.02273C17.2489 9.02273 18.2614 8.01028 18.2614 6.76136C18.2614 5.51245 17.2489 4.5 16 4.5ZM12.2386 6.76136C12.2386 4.68402 13.9227 3 16 3C18.0773 3 19.7614 4.68402 19.7614 6.76136C19.7614 8.58188 18.468 10.1003 16.75 10.4479V15.3466H24.8333C26.0506 15.3466 27.089 16.385 27.089 17.6023V21.9677C28.7568 22.3532 30 23.8477 30 25.6326C30 27.7099 28.316 29.3939 26.2386 29.3939C24.1613 29.3939 22.4773 27.7099 22.4773 25.6326C22.4773 23.7768 23.8213 22.2349 25.589 21.9271V17.6023C25.589 17.2135 25.2222 16.8466 24.8333 16.8466H16.75V21.946C18.468 22.2936 19.7614 23.8121 19.7614 25.6326C19.7614 27.7099 18.0773 29.3939 16 29.3939C13.9227 29.3939 12.2386 27.7099 12.2386 25.6326C12.2386 23.8121 13.532 22.2936 15.25 21.946V16.8466H7.26705C6.87823 16.8466 6.51136 17.2135 6.51136 17.6023V21.946C8.22936 22.2936 9.52273 23.8121 9.52273 25.6326C9.52273 27.7099 7.83871 29.3939 5.76136 29.3939C3.68402 29.3939 2 27.7099 2 25.6326C2 23.8121 3.29336 22.2936 5.01136 21.946V17.6023C5.01136 16.385 6.0498 15.3466 7.26705 15.3466H15.25V10.4479C13.532 10.1003 12.2386 8.58188 12.2386 6.76136ZM5.76136 23.3712C4.51245 23.3712 3.5 24.3837 3.5 25.6326C3.5 26.8815 4.51245 27.8939 5.76136 27.8939C7.01028 27.8939 8.02273 26.8815 8.02273 25.6326C8.02273 24.3837 7.01028 23.3712 5.76136 23.3712ZM16 23.3712C14.7511 23.3712 13.7386 24.3837 13.7386 25.6326C13.7386 26.8815 14.7511 27.8939 16 27.8939C17.2489 27.8939 18.2614 26.8815 18.2614 25.6326C18.2614 24.3837 17.2489 23.3712 16 23.3712ZM26.2386 23.3712C24.9897 23.3712 23.9773 24.3837 23.9773 25.6326C23.9773 26.8815 24.9897 27.8939 26.2386 27.8939C27.4876 27.8939 28.5 26.8815 28.5 25.6326C28.5 24.3837 27.4876 23.3712 26.2386 23.3712Z" fill="black"/>
</svg>
