<svg width="32" height="32" viewBox="0 0 32 32" fill="none" xmlns="http://www.w3.org/2000/svg">
<path fill-rule="evenodd" clip-rule="evenodd" d="M26.868 7.83337H5.132C3.40224 7.83337 2 9.22992 2 10.9526V21.0474C2 22.7702 3.40224 24.1667 5.132 24.1667H26.868C28.5978 24.1667 30 22.7702 30 21.0474V10.9526C30 9.22992 28.5978 7.83337 26.868 7.83337ZM3.508 10.9526C3.508 10.0594 4.23509 9.33525 5.132 9.33525H26.868C27.7649 9.33525 28.492 10.0594 28.492 10.9526V21.0474C28.492 21.9407 27.7649 22.6648 26.868 22.6648H5.132C4.23509 22.6648 3.508 21.9407 3.508 21.0474V10.9526Z" fill="black"/>
<path fill-rule="evenodd" clip-rule="evenodd" d="M14.0409 19.1413C13.7742 19.4836 13.4045 19.7428 12.9319 19.9189C12.4593 20.095 11.9226 20.1831 11.3217 20.1831C10.7039 20.1831 10.157 20.0452 9.68106 19.7693C9.20508 19.4935 8.83797 19.0989 8.57972 18.5855C8.32147 18.0721 8.18728 17.4731 8.17716 16.7886V16.2204C8.17716 15.1238 8.44384 14.2673 8.97721 13.6508C9.51059 13.0344 10.2549 12.7262 11.2103 12.7262C12.0306 12.7262 12.6821 12.9256 13.1649 13.3243C13.6476 13.7231 13.9379 14.298 14.0358 15.049H12.78C12.6382 14.175 12.1234 13.7381 11.2356 13.7381C10.6617 13.7381 10.2254 13.9416 9.92665 14.3487C9.62789 14.7557 9.47345 15.353 9.46333 16.1406V16.6989C9.46333 17.4831 9.63127 18.092 9.96716 18.5257C10.3031 18.9594 10.7697 19.1762 11.3673 19.1762C12.0222 19.1762 12.488 19.03 12.7648 18.7375V17.317H11.2457V16.3599H14.0409V19.1413Z" fill="black"/>
<path fill-rule="evenodd" clip-rule="evenodd" d="M17.3191 20.0834H16.043V12.8259H17.3191V20.0834Z" fill="black"/>
<path fill-rule="evenodd" clip-rule="evenodd" d="M23.6608 17.0079H20.6935V20.0834H19.4124V12.8259H24.0963V13.8427H20.6935V16.001H23.6608V17.0079Z" fill="black"/>
</svg>
