<svg width="32" height="32" viewBox="0 0 32 32" fill="none" xmlns="http://www.w3.org/2000/svg">
<path d="M16.0383 18.9323C17.6397 18.9323 19.1461 19.2844 19.8476 19.5192C22.1018 20.2727 22.6063 22.4278 22.6384 22.5756L22.6401 22.5836L23.351 26.8103C21.1632 27.9936 18.6602 28.6667 16.0005 28.6667C13.5061 28.6667 11.1506 28.0751 9.06293 27.0262L8.64901 26.8103L9.36086 22.5836C9.36086 22.5836 9.8177 20.2996 12.1524 19.5192C12.7806 19.3088 14.2457 18.9845 15.6911 18.9379L16.0002 18.9323H16.0383ZM16.0383 19.8565H16.0032C14.6457 19.8612 13.1046 20.1748 12.4446 20.3958C10.8001 20.9457 10.3446 22.451 10.2738 22.7297L10.2665 22.7599L9.67111 26.2955C11.6347 27.2439 13.809 27.7426 16.0005 27.7426C18.0354 27.7426 20.0556 27.3126 21.9052 26.4918L22.3289 26.2955L21.7338 22.7572C21.701 22.6143 21.288 20.975 19.5558 20.3958C18.957 20.1956 17.5424 19.8565 16.0383 19.8565ZM9.36786 19.802C9.56197 19.802 9.79725 19.8138 10.0643 19.847C8.93917 20.9093 8.61542 22.2193 8.57037 22.4265L8.56564 22.4492L8.0663 25.4156C7.00843 25.3014 6.00529 25.0076 5.08863 24.5616L4.749 24.3873L5.16466 21.9179C5.16466 21.9179 5.43207 20.5834 6.79587 20.1273C7.60177 19.8574 8.26878 19.802 8.71926 19.802C8.84476 19.802 8.9532 19.8064 9.04389 19.8117C9.13392 19.8064 9.24202 19.802 9.36786 19.802ZM23.2813 19.727C23.7308 19.727 24.3982 19.7823 25.2044 20.052C26.5003 20.4853 26.8065 21.7113 26.8338 21.8328L26.8359 21.8426L27.2506 24.3116C26.3534 24.7973 25.3641 25.1329 24.3169 25.2908L23.9216 25.3416L23.4306 22.4244C23.4139 22.3423 23.106 20.9052 21.8657 19.7803C22.1629 19.7401 22.4216 19.727 22.6317 19.727C22.7569 19.727 22.866 19.731 22.9567 19.7364C23.0471 19.731 23.1552 19.727 23.2813 19.727ZM16.0002 3C17.254 3 18.3634 3.63236 19.0275 4.59564L26.4712 4.59664L26.4708 6.23167L30 6.23272V21.3614H27.5328C27.4639 21.1666 27.3492 20.9031 27.1707 20.6244L27.0559 20.4558H29.0967V7.13791L26.4708 7.137L26.4712 7.15827H18.942L18.9412 7.137L18.7743 7.13791V6.68549C18.7743 5.15247 17.5293 3.90552 16.0002 3.90552C14.5335 3.90552 13.3302 5.05072 13.2324 6.49542L13.226 6.68549V7.13791L13.0565 7.137L13.0571 7.15827H5.52789L5.52683 7.137L2.90363 7.13791V20.4558H5.00271C4.80084 20.7188 4.65958 20.9811 4.56265 21.2031L4.49802 21.3614H2V6.23272L5.52683 6.23167L5.52789 4.59664L12.972 4.59564C13.636 3.63236 14.7456 3 16.0002 3ZM9.04543 14.6167C10.2757 14.6167 11.2727 15.6467 11.2727 16.9127C11.2727 18.1788 10.2747 19.2074 9.04242 19.2074C7.8088 19.2074 6.8118 18.1794 6.8118 16.9117C6.8118 15.646 7.80747 14.6167 9.04041 14.6167H9.04543ZM22.9583 14.5414C24.1883 14.5414 25.1853 15.5713 25.1853 16.8374C25.1853 18.1034 24.1873 19.1321 22.9553 19.1321C21.7214 19.1321 20.7247 18.1041 20.7247 16.8364C20.7247 15.5707 21.7204 14.5414 22.953 14.5414H22.9583ZM16.0001 10.0792C18.305 10.0792 20.1731 11.9515 20.1731 14.2614C20.1731 16.5713 18.3049 18.4439 16.0001 18.4439C13.6947 18.4439 11.8267 16.5714 11.8267 14.2614C11.8267 11.9514 13.6947 10.0792 16.0001 10.0792ZM16.0001 11.0498C14.2296 11.0498 12.7952 12.4873 12.7952 14.2614C12.7952 16.0355 14.2297 17.4733 16.0001 17.4733C17.77 17.4733 19.2046 16.0353 19.2046 14.2614C19.2046 12.4875 17.7701 11.0498 16.0001 11.0498ZM15.9997 4.77822C17.0512 4.77822 17.9032 5.63199 17.9032 6.68535C17.9032 7.73895 17.0513 8.59249 15.9997 8.59249C14.9488 8.59249 14.0963 7.73865 14.0963 6.68535C14.0963 5.63229 14.9489 4.77822 15.9997 4.77822ZM15.9997 5.68341C15.4477 5.68341 14.9996 6.13231 14.9996 6.68535C14.9996 7.2386 15.4476 7.6873 15.9997 7.6873C16.5525 7.6873 16.9999 7.239 16.9999 6.68535C16.9999 6.13191 16.5523 5.68341 15.9997 5.68341Z" fill="black"/>
</svg>
