<svg width="32" height="32" viewBox="0 0 32 32" fill="none" xmlns="http://www.w3.org/2000/svg">
<path fill-rule="evenodd" clip-rule="evenodd" d="M15.5706 12.7152C15.2908 13.0008 15.011 13.1437 14.7312 13.1437H10.3942V25.9973C10.3942 26.8542 9.83458 27.4254 8.99516 27.4254C8.15574 27.4254 7.59613 26.8542 7.59613 25.9973V13.1437H3.25913C2.55961 13.1437 2 12.5724 2 11.8583C2 11.5727 2.1399 11.1442 2.41971 11.0014L8.15574 5.14586C8.57545 4.57459 9.41487 4.57459 9.83458 5.00304L15.5706 10.8586C16.1302 11.4298 16.1302 12.2867 15.5706 12.7152ZM29.5609 19.2848C29.2811 18.9992 29.0013 18.8564 28.7215 18.8564H24.3845V6.00276C24.3845 5.14586 23.8249 4.57458 22.9855 4.57458C22.1461 4.57458 21.5864 5.14586 21.5864 6.00276V18.8564H17.2494C16.5499 18.8564 15.9903 19.4276 15.9903 20.1417C15.9903 20.4274 16.1302 20.8558 16.41 20.9986L22.1461 26.8542C22.7057 27.4254 23.4052 27.4254 23.9648 26.8542L29.7008 20.9986C30.1205 20.5702 30.1205 19.7133 29.5609 19.2848Z" fill="black"/>
</svg>
