<svg width="32" height="32" viewBox="0 0 32 32" fill="none" xmlns="http://www.w3.org/2000/svg">
<path fill-rule="evenodd" clip-rule="evenodd" d="M3.57424 10.4733C3.52914 10.5154 3.5 10.5706 3.5 10.65V28.15C3.5 28.2046 3.52419 28.2732 3.57329 28.3258C3.61539 28.3709 3.67063 28.4 3.75 28.4H22.65C22.7046 28.4 22.7732 28.3758 22.8258 28.3267C22.8709 28.2846 22.9 28.2294 22.9 28.15V10.65C22.9 10.5954 22.8758 10.5268 22.8267 10.4742C22.7846 10.4291 22.7294 10.4 22.65 10.4H3.75C3.69535 10.4 3.62685 10.4242 3.57424 10.4733ZM2 10.65C2 9.58789 2.88536 8.9 3.75 8.9H22.65C23.7121 8.9 24.4 9.78536 24.4 10.65V28.15C24.4 29.2121 23.5146 29.9 22.65 29.9H3.75C2.68789 29.9 2 29.0146 2 28.15V10.65Z" fill="black"/>
<path fill-rule="evenodd" clip-rule="evenodd" d="M2 16.55C2 16.1358 2.33579 15.8 2.75 15.8H23.55C23.9642 15.8 24.3 16.1358 24.3 16.55C24.3 16.9642 23.9642 17.3 23.55 17.3H2.75C2.33579 17.3 2 16.9642 2 16.55Z" fill="black"/>
<path d="M6.35 13.75C6.84706 13.75 7.25 13.3471 7.25 12.85C7.25 12.3529 6.84706 11.95 6.35 11.95C5.85294 11.95 5.45 12.3529 5.45 12.85C5.45 13.3471 5.85294 13.75 6.35 13.75Z" fill="black"/>
<path d="M9.55 13.75C10.0471 13.75 10.45 13.3471 10.45 12.85C10.45 12.3529 10.0471 11.95 9.55 11.95C9.05294 11.95 8.65 12.3529 8.65 12.85C8.65 13.3471 9.05294 13.75 9.55 13.75Z" fill="black"/>
<path fill-rule="evenodd" clip-rule="evenodd" d="M7.6 9.65C7.6 9.23579 7.93579 8.9 8.35 8.9H29.15C29.5642 8.9 29.9 9.23579 29.9 9.65C29.9 10.0642 29.5642 10.4 29.15 10.4H8.35C7.93579 10.4 7.6 10.0642 7.6 9.65Z" fill="black"/>
<path d="M11.95 7.05C12.4471 7.05 12.85 6.64706 12.85 6.15C12.85 5.65294 12.4471 5.25 11.95 5.25C11.4529 5.25 11.05 5.65294 11.05 6.15C11.05 6.64706 11.4529 7.05 11.95 7.05Z" fill="black"/>
<path d="M15.25 7.05C15.7471 7.05 16.15 6.64706 16.15 6.15C16.15 5.65294 15.7471 5.25 15.25 5.25C14.7529 5.25 14.35 5.65294 14.35 6.15C14.35 6.64706 14.7529 7.05 15.25 7.05Z" fill="black"/>
<path fill-rule="evenodd" clip-rule="evenodd" d="M9.17424 3.57329C9.12914 3.61539 9.1 3.67063 9.1 3.75V9.65C9.1 10.0642 8.76421 10.4 8.35 10.4C7.93579 10.4 7.6 10.0642 7.6 9.65V3.75C7.6 2.68789 8.48536 2 9.35 2H28.25C29.3121 2 30 2.88536 30 3.75V21.55C30 22.6121 29.1146 23.3 28.25 23.3H23.65C23.2358 23.3 22.9 22.9642 22.9 22.55C22.9 22.1358 23.2358 21.8 23.65 21.8H28.25C28.3046 21.8 28.3732 21.7758 28.4258 21.7267C28.4709 21.6846 28.5 21.6294 28.5 21.55V3.75C28.5 3.69535 28.4758 3.62685 28.4267 3.57424C28.3846 3.52914 28.3294 3.5 28.25 3.5H9.35C9.29535 3.5 9.22685 3.52419 9.17424 3.57329Z" fill="black"/>
</svg>
