<svg width="32" height="32" viewBox="0 0 32 32" fill="none" xmlns="http://www.w3.org/2000/svg">
<path fill-rule="evenodd" clip-rule="evenodd" d="M2.21779 13.1309C3.59529 6.7732 9.21264 2 16 2C23.7419 2 30 8.25814 30 16C30 23.7419 23.7419 30 16 30C10.5667 30 5.79227 26.9407 3.50538 22.4393V26.638C3.50538 27.0537 3.16839 27.3907 2.75269 27.3907C2.33699 27.3907 2 27.0537 2 26.638V20.8172C2 20.4015 2.33699 20.0645 2.75269 20.0645H8.47312C8.88882 20.0645 9.22581 20.4015 9.22581 20.8172C9.22581 21.2329 8.88882 21.5699 8.47312 21.5699H4.75426C6.74609 25.6688 11.0587 28.4946 16 28.4946C22.9105 28.4946 28.4946 22.9105 28.4946 16C28.4946 9.08953 22.9105 3.50538 16 3.50538C9.94148 3.50538 4.92083 7.76443 3.68902 13.4497C3.601 13.856 3.20029 14.114 2.79402 14.0259C2.38775 13.9379 2.12976 13.5372 2.21779 13.1309ZM17.3509 8.21093C17.7174 8.01477 18.1736 8.15287 18.3697 8.51938L22.1833 15.6448C22.3021 15.8667 22.3021 16.1333 22.1833 16.3552L18.3697 23.4806C18.1736 23.8471 17.7174 23.9852 17.3509 23.7891C16.9844 23.5929 16.8463 23.1368 17.0425 22.7703L20.666 16L17.0425 9.22973C16.8463 8.86322 16.9844 8.40709 17.3509 8.21093ZM20.2613 8.21093C20.6278 8.01477 21.0839 8.15287 21.2801 8.51938L25.0937 15.6448C25.2125 15.8667 25.2125 16.1333 25.0937 16.3552L21.2801 23.4806C21.0839 23.8471 20.6278 23.9852 20.2613 23.7891C19.8948 23.5929 19.7567 23.1368 19.9529 22.7703L23.5764 16L19.9529 9.22973C19.7567 8.86322 19.8948 8.40709 20.2613 8.21093ZM14.7957 8.12186C15.0733 8.12186 15.3283 8.27464 15.4593 8.51938L19.2729 15.6448C19.3917 15.8667 19.3917 16.1333 19.2729 16.3552L15.4593 23.4806C15.3283 23.7254 15.0733 23.8781 14.7957 23.8781C14.5181 23.8781 14.2631 23.7254 14.1321 23.4806L10.3185 16.3552C10.1997 16.1333 10.1997 15.8667 10.3185 15.6448L14.1321 8.51938C14.2631 8.27464 14.5181 8.12186 14.7957 8.12186ZM11.8358 16L14.7957 21.5304L17.7556 16L14.7957 10.4696L11.8358 16Z" fill="black"/>
</svg>
