<svg width="32" height="32" viewBox="0 0 32 32" fill="none" xmlns="http://www.w3.org/2000/svg">
<path d="M24.6363 8.09038L23.7747 9.06141C26.8276 11.7343 28.2079 15.8422 27.3884 19.8163C26.5689 23.7904 23.6761 27.017 19.8148 28.2642C15.9535 29.5113 11.7199 28.5863 8.7306 25.8424C7.70566 24.913 6.85769 23.8056 6.22781 22.5737L9.96147 23.5721L10.2897 22.3002L4.69606 20.7821L3.19165 26.3894L4.44988 26.7177L5.27046 23.449C5.94086 24.7012 6.81433 25.8334 7.85531 26.7997C10.1546 28.8631 13.1359 30.003 16.2253 30H16.9364C22.0064 29.7236 26.4107 26.4206 28.0961 21.631C29.7814 16.8414 28.416 11.5081 24.6363 8.11774V8.09038Z" fill="black"/>
<path fill-rule="evenodd" clip-rule="evenodd" d="M7.23987 18.3066H21.3676L21.3129 17.1852C21.3922 14.3244 19.9164 11.6449 17.4561 10.1828C18.4658 9.29389 19.0438 8.01325 19.0426 6.66801C19.0172 5.39354 18.4916 4.18019 17.5792 3.28994C16.6567 2.41357 15.4177 1.94957 14.1465 2.00435C11.6117 2.09007 9.58096 4.13279 9.51015 6.66801C9.52489 7.99308 10.1076 9.2481 11.1103 10.1145C8.64265 11.5709 7.16048 14.2525 7.23987 17.1168V18.3066ZM20.0683 16.939H8.53913V17.0074C8.43404 14.2791 10.0461 11.7762 12.5737 10.7436L13.9413 10.1965L12.6557 9.54005C11.5238 8.97368 10.8014 7.82416 10.7821 6.55859C10.8097 5.72288 11.1402 4.92573 11.7121 4.31566C12.3372 3.62609 13.212 3.21501 14.1419 3.17391C15.0717 3.13282 15.9794 3.46511 16.6629 4.09684C17.4968 4.83217 17.9058 5.93708 17.7517 7.03816C17.5975 8.13923 16.9008 9.08935 15.897 9.5674L14.5978 10.1965L15.9654 10.7572C18.4755 11.7764 20.104 14.2302 20.0683 16.939Z" fill="black"/>
</svg>
