<svg width="32" height="32" viewBox="0 0 32 32" fill="none" xmlns="http://www.w3.org/2000/svg">
<path fill-rule="evenodd" clip-rule="evenodd" d="M26.0951 5.53603C28.474 7.85458 29.8068 10.9632 29.8486 14.2847C29.9077 18.9821 27.3615 23.2624 23.2031 25.4529C23.0653 25.5268 22.9176 25.56 22.7736 25.56C22.4413 25.56 22.1213 25.3803 21.9564 25.0677C21.7189 24.6161 21.8912 24.0574 22.3416 23.8211C25.8835 21.9529 28.0531 18.3077 28.0026 14.3081C27.9682 11.4789 26.8323 8.83172 24.8066 6.85775C22.781 4.88132 20.1326 3.78112 17.2775 3.8488C15.178 3.87588 13.1585 4.51336 11.4356 5.69232C11.0135 5.98276 10.44 5.872 10.152 5.45234C9.86527 5.03146 9.97234 4.45798 10.392 4.16877C12.4164 2.78306 14.7891 2.03482 17.2541 2.00282C20.5596 1.93145 23.7175 3.21625 26.0951 5.53603ZM7.19882 5.86414C7.94706 5.74107 8.74329 6.27026 9.38446 7.31508C10.4071 8.98261 10.7936 11.4722 10.2287 12.7533C10.0822 13.0893 9.88041 13.3219 9.63059 13.4474L7.96306 14.2904C7.21113 15.7254 7.49787 17.8458 8.71006 19.821C9.90995 21.7765 11.7141 23.0281 13.309 23.0096H13.3336L14.8166 21.9069C15.0405 21.7396 15.3445 21.6645 15.7063 21.6854C17.2483 21.7703 19.2605 23.4182 20.1711 24.9036C20.8911 26.0788 20.9391 27.1261 20.2991 27.7045L18.7928 29.0632C18.2858 29.521 17.6532 29.8151 16.9111 29.9369C13.3361 30.5252 7.67139 26.9243 4.78797 22.2318C2.41281 18.3516 1.49228 12.8666 2.6454 9.47118C3.12905 8.04978 3.96097 7.07756 5.05133 6.65914L6.94654 5.93306C7.02776 5.90229 7.11267 5.87891 7.19882 5.86414ZM18.5011 16.0103V9.29836H16.5149V17.5376H21.9593V16.0103H18.5011Z" fill="black"/>
</svg>
