<svg width="32" height="32" viewBox="0 0 32 32" fill="none" xmlns="http://www.w3.org/2000/svg">
<path fill-rule="evenodd" clip-rule="evenodd" d="M29.9996 5.20976C29.9996 4.73834 29.6175 4.3562 29.1461 4.3562H19.5402C19.0688 4.3562 18.6867 4.73834 18.6867 5.20976C18.6867 5.68119 19.0688 6.06333 19.5402 6.06333H29.1461C29.6175 6.06333 29.9996 5.68119 29.9996 5.20976ZM16.6097 6.86344C19.6665 9.92148 19.9224 14.7347 17.3783 18.0873L17.1823 18.3359L19.5846 20.7395C20.3286 20.4344 21.2039 20.5501 21.8456 21.0896L21.9894 21.2216L24.6358 23.8668C25.5 24.7311 25.5 26.1323 24.6358 26.9966C23.8195 27.8117 22.5243 27.857 21.6559 27.1324L21.5072 26.9966L18.8608 24.3502C18.2562 23.7466 18.0754 22.8813 18.3158 22.1193L18.3787 21.9454L15.9751 19.5431C14.4049 20.8288 12.4811 21.4728 10.5562 21.4728C8.36332 21.4728 6.17168 20.6383 4.50265 18.9705C1.16578 15.6324 1.16578 10.2015 4.50265 6.86344C7.8419 3.52776 13.2728 3.52776 16.6097 6.86344ZM29.1464 18.3358C29.6179 18.3358 30 18.718 30 19.1894C30 19.6608 29.6179 20.0429 29.1464 20.0429H24.3429C23.8715 20.0429 23.4905 19.6608 23.4905 19.1894C23.4905 18.718 23.8715 18.3358 24.3429 18.3358H29.1464ZM5.70978 8.07056C7.04667 6.73486 8.80141 6.06701 10.5562 6.06701C12.3109 6.06701 14.0668 6.73486 15.4025 8.07056C18.0751 10.7432 18.0751 15.0907 15.4025 17.7633C12.7299 20.4359 8.38237 20.4359 5.70978 17.7633C3.03719 15.0907 3.03719 10.7432 5.70978 8.07056ZM13.0443 10.2159C13.3932 9.8671 13.9586 9.8671 14.3074 10.2159C14.6562 10.5647 14.6562 11.1302 14.3074 11.479L8.97415 16.8111L6.31466 14.1516C5.96585 13.8028 5.96585 13.2373 6.31466 12.8885C6.66346 12.5397 7.22774 12.5397 7.57655 12.8885L8.97415 14.2861L13.0443 10.2159ZM30 14.5293C30 14.0579 29.6179 13.6757 29.1464 13.6757H22.4108C21.9394 13.6757 21.5572 14.0579 21.5572 14.5293C21.5572 15.0007 21.9394 15.3829 22.4108 15.3829H29.1464C29.6179 15.3829 30 15.0007 30 14.5293ZM29.1464 9.01616C29.6179 9.01616 30 9.3983 30 9.86972C30 10.3411 29.6179 10.7233 29.1464 10.7233H22.1298C21.6584 10.7233 21.2763 10.3411 21.2763 9.86972C21.2763 9.3983 21.6584 9.01616 22.1298 9.01616H29.1464Z" fill="black"/>
</svg>
