<svg width="32" height="32" viewBox="0 0 32 32" fill="none" xmlns="http://www.w3.org/2000/svg">
<path d="M13.0471 25.342L13.779 24.61C15.4079 26.3003 17.6423 27.2731 19.9893 27.3137C22.3363 27.3544 24.6031 26.4597 26.2895 24.8269C27.9806 23.199 28.9557 20.966 29.0004 18.6191C29.0107 16.2785 28.106 14.0265 26.4793 12.3435C25.7199 11.5708 24.8237 10.9458 23.8362 10.5001L24.7308 13.333L23.7007 13.6176L22.3453 9.19894L26.7097 7.84352L27.0215 8.88719L24.4597 9.68689C27.7121 11.2606 29.8366 14.4942 29.9898 18.104C30.0034 18.2845 30.0034 18.4657 29.9898 18.6462C29.9252 22.6256 27.4794 26.1778 23.7849 27.658C20.0905 29.1381 15.8686 28.2573 13.0742 25.4233L13.0471 25.342Z" fill="black"/>
<path fill-rule="evenodd" clip-rule="evenodd" d="M22.3859 18.2938C22.4294 15.4107 20.8608 12.7441 18.3197 11.3812C19.403 10.6063 20.0563 9.36499 20.0817 8.03332C20.0963 6.25698 19.0328 4.64903 17.3924 3.96728C15.7521 3.28553 13.8621 3.66601 12.6134 4.92941H12.4236C10.9656 4.9303 9.60364 5.657 8.7911 6.86766C8.7911 6.86766 8.7911 6.96254 8.70977 6.96254C6.35478 6.95498 4.43545 8.8501 4.4131 11.205C4.41516 12.5133 5.02648 13.7459 6.06671 14.5393C3.53442 15.9113 1.96931 18.572 2.00046 21.452V22.0348H15.4191V21.4655C15.4278 20.983 15.3823 20.5011 15.2836 20.0288H19.0923V18.836H22.3046L22.3859 18.2938ZM17.8197 5.84068C17.2356 5.27665 16.4541 4.96427 15.643 4.96963C15.1233 4.9369 14.6036 5.03488 14.1314 5.25469C15.705 5.93113 16.7309 7.47268 16.7474 9.1854C16.7499 9.80497 16.6109 10.4169 16.3408 10.9745L16.7474 10.8255C17.9297 10.3894 18.7288 9.27925 18.767 8.01974C18.7527 7.19649 18.412 6.41264 17.8197 5.84068ZM13.0607 6.17644C12.8352 6.15571 12.6084 6.15571 12.383 6.17644H12.4236C11.5479 6.17661 10.7142 6.55156 10.133 7.20656C11.91 7.77388 13.13 9.40784 13.1691 11.2728C13.1658 11.6204 13.1202 11.9663 13.0336 12.3029L13.5893 12.0861C14.7776 11.6553 15.5724 10.5307 15.5817 9.2668C15.6019 7.76164 14.5392 6.45896 13.0607 6.17644ZM5.60586 11.2456C5.60224 10.4213 5.9281 9.62972 6.51098 9.04683C7.09386 8.46395 7.88546 8.1381 8.70977 8.14172H8.77754C9.60311 8.12357 10.4019 8.43513 10.9971 9.00748C11.5924 9.57982 11.935 10.3658 11.9492 11.1914C11.9241 12.4575 11.1291 13.5802 9.9432 14.0242L8.73688 14.4851L7.59833 14.0513C6.46097 13.5782 5.71104 12.4772 5.68719 11.2456H5.60586ZM7.67965 15.2305C5.20142 16.0223 3.46653 18.2583 3.31521 20.8555H14.3348C14.1648 18.2653 12.4371 16.0386 9.97031 15.2305L8.79109 14.8104L7.67965 15.2305ZM15.1616 18.8495C14.5385 17.0317 13.257 15.5132 11.5697 14.5935C12.1065 14.1514 12.5256 13.5833 12.7896 12.9399L13.5757 13.2381C16.0494 14.0364 17.7813 16.2687 17.9402 18.8631L15.1616 18.8495ZM15.1887 12.5875C17.1295 13.6458 18.5218 15.4873 19.011 17.6432H21.1796C21.0197 15.0621 19.3089 12.8366 16.8558 12.0182L16.0155 11.7065C15.7796 12.035 15.5016 12.3312 15.1887 12.5875Z" fill="black"/>
</svg>
