<svg width="32" height="32" viewBox="0 0 32 32" fill="none" xmlns="http://www.w3.org/2000/svg">
<path fill-rule="evenodd" clip-rule="evenodd" d="M10.2305 2.08539C11.724 2.0182 12.2 2.0014 16.0018 2.0014V2C19.8022 2 20.2838 2.0168 21.7731 2.08399C23.2625 2.15118 24.283 2.38774 25.1648 2.73069L25.2124 2.74609C26.1363 3.10303 26.9636 3.65315 27.6453 4.34885L27.6467 4.35025C28.341 5.03195 28.8911 5.85782 29.2634 6.82788C29.612 7.72654 29.8457 8.73299 29.9129 10.2266C29.9801 11.7201 29.9969 12.1975 29.9969 15.9979C29.9969 19.7983 29.9801 20.2785 29.9129 21.7692C29.8457 23.26 29.6092 24.2763 29.2634 25.1679L29.2466 25.2169C28.5201 27.052 27.0559 28.5162 25.1718 29.2595C24.2844 29.6081 23.2695 29.8488 21.7759 29.916C20.2824 29.9832 19.805 30 16.0046 30C12.2042 30 11.724 29.9832 10.2333 29.916C8.7425 29.8488 7.72625 29.6123 6.83458 29.2665L6.78699 29.2511C5.86453 28.8942 5.03725 28.344 4.35555 27.6484L4.35415 27.647C3.65986 26.9653 3.10974 26.138 2.7374 25.1679C2.39165 24.2805 2.15508 23.2628 2.08789 21.7692C2.0207 20.2757 2.00391 19.7983 2.00391 15.9979C2.00391 12.1975 2.0207 11.7173 2.08789 10.2266C2.15508 8.73579 2.39165 7.72514 2.7346 6.83068L2.74999 6.78448C3.10694 5.86062 3.65706 5.03474 4.35275 4.35305L4.35415 4.35165C5.03445 3.65735 5.86173 3.10723 6.83178 2.73489C7.73045 2.38914 8.7369 2.15258 10.2305 2.08539ZM21.6584 4.60645C20.183 4.53926 19.7364 4.52386 16.0018 4.52386H16.0032C12.2644 4.52386 11.8234 4.53926 10.3467 4.60645C8.98046 4.66804 8.24417 4.8962 7.74585 5.08798L7.71645 5.09777C7.11594 5.32594 6.57842 5.68289 6.13749 6.13502L6.13609 6.13642C5.68255 6.57595 5.32561 7.11347 5.08764 7.74478C4.89587 8.2389 4.66771 8.97659 4.60612 10.3456C4.53893 11.8224 4.52353 12.2633 4.52353 16.0021C4.52353 19.741 4.53893 20.1833 4.60612 21.6587C4.66771 23.0249 4.89587 23.7612 5.08764 24.2595L5.09744 24.2889C5.32561 24.8894 5.68115 25.4269 6.13469 25.8679L6.13609 25.8693C6.57562 26.3214 7.11314 26.6769 7.74445 26.9149C8.23857 27.1067 8.97626 27.3348 10.3453 27.3964C11.822 27.4636 12.2644 27.479 16.0032 27.479C19.742 27.479 20.1844 27.4636 21.6598 27.3964C23.026 27.3348 23.7622 27.1067 24.2606 26.9149L24.2914 26.9037C25.484 26.4334 26.4344 25.4829 26.916 24.2581C27.1077 23.764 27.3359 23.0263 27.3975 21.6573C27.4647 20.1819 27.4801 19.7396 27.4801 16.0007C27.4801 12.2619 27.4647 11.821 27.3975 10.3442C27.3359 8.97799 27.1077 8.2417 26.916 7.74338L26.9062 7.71398C26.678 7.11347 26.3211 6.57595 25.8689 6.13502L25.8675 6.13362C25.428 5.68149 24.8905 5.32454 24.2592 5.08798C23.765 4.8962 23.0274 4.66804 21.6584 4.60645Z" fill="black"/>
<path fill-rule="evenodd" clip-rule="evenodd" d="M8.81388 15.9993C8.81388 12.0295 12.032 8.8114 16.0018 8.8114C19.9716 8.8114 23.1883 12.0295 23.1897 15.9993C23.1897 19.9691 19.9716 23.1872 16.0018 23.1872C12.032 23.1872 8.81388 19.9691 8.81388 15.9993ZM11.3419 15.9992C11.3419 18.5748 13.4276 20.6619 16.0018 20.6661V20.6731H16.0074C18.5858 20.6731 20.6757 18.5832 20.6757 16.0048V15.9992C20.6757 13.4222 18.5858 11.3323 16.0088 11.3323C13.4318 11.3323 11.3419 13.4222 11.3419 15.9992Z" fill="black"/>
<path d="M25.1536 8.5272C25.1536 9.45527 24.4019 10.207 23.4739 10.207C22.5458 10.207 21.7941 9.45527 21.7941 8.5272C21.7941 7.59914 22.5458 6.84746 23.4739 6.84746C24.4019 6.84746 25.1536 7.59914 25.1536 8.5272Z" fill="black"/>
</svg>
