<svg width="32" height="32" viewBox="0 0 32 32" fill="none" xmlns="http://www.w3.org/2000/svg">
<path fill-rule="evenodd" clip-rule="evenodd" d="M13.4129 27.2029C13.2521 27.6045 12.8502 27.8454 12.3679 27.7651C11.966 27.6045 11.7249 27.2029 11.8053 26.7211L18.4768 4.79702C18.6376 4.39549 19.0395 4.15456 19.5218 4.23487C19.9237 4.39549 20.1648 4.79702 20.0844 5.27887L13.4129 27.2029ZM21.9714 19.3777C21.5695 19.6186 21.4892 20.1005 21.6499 20.502C21.8911 20.9035 22.3734 20.9839 22.7753 20.8232L29.6076 16.8078C30.1702 16.4866 30.0898 15.7638 29.6076 15.4426L22.293 11.4272C21.8911 11.1863 21.4088 11.3469 21.248 11.7484C21.0069 12.15 21.1676 12.6318 21.5695 12.7924L27.5981 16.1654L21.9714 19.3777ZM10.3501 11.7128C10.5108 12.1143 10.4305 12.5962 10.0286 12.8371L4.40194 16.0494L10.4305 19.4224C10.8324 19.583 10.9931 20.0648 10.752 20.4664C10.5912 20.8679 10.1089 21.0285 9.70703 20.7876L2.39243 16.7722C1.91015 16.451 1.82977 15.7282 2.39243 15.407L9.22475 11.3916C9.62665 11.231 10.1089 11.3113 10.3501 11.7128Z" fill="black"/>
</svg>
