<svg width="32" height="32" viewBox="0 0 32 32" fill="none" xmlns="http://www.w3.org/2000/svg">
<path fill-rule="evenodd" clip-rule="evenodd" d="M15.9973 3.08823C16.3629 2.89346 16.8171 3.03192 17.0119 3.39749L23.5119 15.5975C23.6294 15.8179 23.6294 16.0824 23.5119 16.3028L17.0119 28.5028C16.8171 28.8684 16.3629 29.0068 15.9973 28.8121C15.6318 28.6173 15.4933 28.1631 15.6881 27.7975L22.0002 15.9501L15.6881 4.10281C15.4933 3.73724 15.6318 3.283 15.9973 3.08823ZM20.9931 3.09049C21.3575 2.8934 21.8126 3.02897 22.0097 3.39328L28.6097 15.5933C28.7301 15.8159 28.7301 16.0844 28.6097 16.307L22.0097 28.507C21.8126 28.8713 21.3575 29.0069 20.9931 28.8098C20.6288 28.6127 20.4933 28.1576 20.6903 27.7933L27.0973 15.9501L20.6903 4.10701C20.4933 3.74269 20.6288 3.28758 20.9931 3.09049ZM11.2476 3.00015C11.5239 2.99927 11.7782 3.15032 11.9097 3.39328L18.5097 15.5933C18.6301 15.8159 18.6301 16.0844 18.5097 16.307L11.9097 28.507C11.7782 28.75 11.5239 28.901 11.2476 28.9001C10.9714 28.8993 10.718 28.7466 10.5881 28.5028L4.08809 16.3028C3.97064 16.0824 3.97064 15.8179 4.08809 15.5975L10.5881 3.39749C10.718 3.15369 10.9714 3.00103 11.2476 3.00015ZM11.255 5.3357L5.59981 15.9501L11.255 26.5646L16.9973 15.9501L11.255 5.3357Z" fill="black"/>
</svg>
