<svg width="32" height="32" viewBox="0 0 32 32" fill="none" xmlns="http://www.w3.org/2000/svg">
<path fill-rule="evenodd" clip-rule="evenodd" d="M1.5 16C1.5 7.99187 7.99187 1.5 16 1.5C24.0081 1.5 30.5 7.99187 30.5 16C30.5 24.0081 24.0081 30.5 16 30.5C7.99187 30.5 1.5 24.0081 1.5 16ZM16 2.5C8.54416 2.5 2.5 8.54416 2.5 16C2.5 23.4558 8.54416 29.5 16 29.5C23.4558 29.5 29.5 23.4558 29.5 16C29.5 8.54416 23.4558 2.5 16 2.5Z" fill="black"/>
<path fill-rule="evenodd" clip-rule="evenodd" d="M23 16.5H9V15.5H23V16.5Z" fill="black"/>
<path fill-rule="evenodd" clip-rule="evenodd" d="M16.5 9V23H15.5V9H16.5Z" fill="black"/>
</svg>
