<svg width="32" height="32" viewBox="0 0 32 32" fill="none" xmlns="http://www.w3.org/2000/svg">
<path d="M19.2458 16.8235H10.5154C10.211 16.8235 9.96432 17.0684 9.96432 17.3704C9.96432 17.6724 10.211 17.9173 10.5154 17.9173H19.2458C19.5501 17.9173 19.7969 17.6724 19.7969 17.3704C19.7968 17.0684 19.5501 16.8235 19.2458 16.8235Z" fill="black"/>
<path d="M10.5154 9.68627H19.2458C19.5501 9.68627 19.7968 9.9311 19.7969 10.2331C19.7969 10.5352 19.5501 10.78 19.2458 10.78H10.5154C10.211 10.78 9.96432 10.5352 9.96432 10.2331C9.96432 9.9311 10.211 9.68627 10.5154 9.68627Z" fill="black"/>
<path d="M8.16159 16.9838C8.05909 16.882 7.91691 16.8235 7.77197 16.8235C7.62704 16.8235 7.48486 16.882 7.38236 16.9838C7.27986 17.0855 7.22089 17.2266 7.22089 17.3704C7.22089 17.5142 7.27986 17.6553 7.38236 17.757C7.48486 17.8588 7.62704 17.9173 7.77197 17.9173C7.91691 17.9173 8.05909 17.8588 8.16159 17.757C8.26409 17.6553 8.32305 17.5142 8.32305 17.3704C8.32305 17.2266 8.26409 17.0855 8.16159 16.9838Z" fill="black"/>
<path d="M7.77197 9.68627C7.91691 9.68627 8.05909 9.74478 8.16159 9.8465C8.26409 9.94822 8.32305 10.0893 8.32305 10.2331C8.32305 10.377 8.26409 10.5181 8.16159 10.6198C8.05909 10.7215 7.91691 10.78 7.77197 10.78C7.62704 10.78 7.48486 10.7215 7.38236 10.6198C7.27986 10.5181 7.22089 10.377 7.22089 10.2331C7.22089 10.0893 7.27986 9.94822 7.38236 9.8465C7.48486 9.74478 7.62704 9.68627 7.77197 9.68627Z" fill="black"/>
<path d="M19.2458 20.1176H10.5154C10.211 20.1176 9.96432 20.3625 9.96432 20.6645C9.96432 20.9666 10.211 21.2114 10.5154 21.2114H19.2458C19.5501 21.2114 19.7969 20.9666 19.7969 20.6645C19.7968 20.3625 19.5501 20.1176 19.2458 20.1176Z" fill="black"/>
<path d="M10.5154 13.5294H19.2458C19.5501 13.5294 19.7968 13.7742 19.7969 14.0763C19.7969 14.3783 19.5501 14.6232 19.2458 14.6232H10.5154C10.211 14.6232 9.96432 14.3783 9.96432 14.0763C9.96432 13.7742 10.211 13.5294 10.5154 13.5294Z" fill="black"/>
<path d="M8.16159 20.2779C8.05909 20.1762 7.91691 20.1176 7.77197 20.1176C7.62704 20.1176 7.48486 20.1762 7.38236 20.2779C7.27986 20.3796 7.22089 20.5207 7.22089 20.6645C7.22089 20.8083 7.27986 20.9494 7.38236 21.0512C7.48486 21.1529 7.62704 21.2114 7.77197 21.2114C7.91691 21.2114 8.05909 21.1529 8.16159 21.0512C8.26409 20.9494 8.32305 20.8083 8.32305 20.6645C8.32305 20.5207 8.26409 20.3796 8.16159 20.2779Z" fill="black"/>
<path d="M7.77197 13.5294C7.91691 13.5294 8.05909 13.5879 8.16159 13.6896C8.26409 13.7914 8.32305 13.9325 8.32305 14.0763C8.32305 14.2201 8.26409 14.3612 8.16159 14.4629C8.05909 14.5646 7.91691 14.6232 7.77197 14.6232C7.62704 14.6232 7.48486 14.5646 7.38236 14.4629C7.27986 14.3612 7.22089 14.2201 7.22089 14.0763C7.22089 13.9325 7.27986 13.7914 7.38236 13.6896C7.48486 13.5879 7.62704 13.5294 7.77197 13.5294Z" fill="black"/>
<path d="M19.2458 23.9608H10.5154C10.211 23.9608 9.96432 24.2056 9.96432 24.5077C9.96432 24.8097 10.211 25.0545 10.5154 25.0545H19.2458C19.5501 25.0545 19.7969 24.8097 19.7969 24.5077C19.7969 24.2056 19.5501 23.9608 19.2458 23.9608Z" fill="black"/>
<path d="M7.77197 23.9608C7.91691 23.9608 8.05909 24.0193 8.16159 24.121C8.26409 24.2227 8.32305 24.3638 8.32305 24.5077C8.32305 24.6515 8.26409 24.7926 8.16159 24.8943C8.05909 24.996 7.91691 25.0545 7.77197 25.0545C7.62704 25.0545 7.48486 24.996 7.38236 24.8943C7.27986 24.7926 7.22089 24.6515 7.22089 24.5077C7.22089 24.3638 7.27986 24.2227 7.38236 24.121C7.48486 24.0193 7.62704 23.9608 7.77197 23.9608Z" fill="black"/>
<path fill-rule="evenodd" clip-rule="evenodd" d="M28.0682 15.4532H23.9895V2.54692C23.9895 2.32576 23.8552 2.12632 23.6493 2.04166C23.4433 1.95695 23.2063 2.00387 23.0488 2.16017L21.4876 3.70936L19.9266 2.16022C19.7114 1.94667 19.3624 1.94667 19.1472 2.16022L17.5861 3.70941L16.0251 2.16022C15.8099 1.94667 15.461 1.94667 15.2457 2.16022L13.6846 3.70941L12.1235 2.16022C11.9083 1.94667 11.5593 1.94667 11.3442 2.16022L9.78305 3.70941L8.22207 2.16022C8.00687 1.94667 7.65793 1.94667 7.44267 2.16022L5.88158 3.70941L4.32053 2.16022C4.10666 1.94798 3.76075 1.94689 3.545 2.15721C3.4317 2.26774 3.37675 2.41501 3.38056 2.5613V27.1564C3.38056 28.7244 4.666 30 6.24606 30H25.753C27.333 30 28.6192 28.7244 28.6192 27.1564V16C28.6192 15.698 28.3725 15.4532 28.0682 15.4532ZM6.24607 28.9062C5.27369 28.9062 4.48267 28.1212 4.48267 27.1563V3.86789L5.49191 4.86944C5.70711 5.08299 6.05605 5.08299 6.27131 4.86944L7.8324 3.32025L9.3935 4.86944C9.6087 5.08299 9.95764 5.08299 10.1729 4.86944L11.734 3.32025L13.2951 4.86944C13.5103 5.08299 13.8593 5.08299 14.0745 4.86944L15.6356 3.32025L17.1967 4.86944C17.4119 5.08299 17.7608 5.08299 17.9761 4.86944L19.5372 3.32025L21.0983 4.86944C21.3135 5.08299 21.6625 5.08299 21.8776 4.86944L22.8877 3.86713V16L22.8878 16.0041L22.8881 16.0086L22.8885 16.0148V27.1563C22.8885 27.8159 23.1166 28.4233 23.4978 28.9062H6.24607ZM25.7537 28.9062C26.726 28.9062 27.5171 28.1212 27.5171 27.1563V16.5469H23.9903V27.1563C23.9903 28.1212 24.7813 28.9062 25.7537 28.9062Z" fill="black"/>
</svg>
