<svg width="32" height="32" viewBox="0 0 32 32" fill="none" xmlns="http://www.w3.org/2000/svg">
<path d="M17.8 2H14.5C14 2 13.7 2.3 13.7 2.8V6.2C13.7 6.6 14 7 14.5 7H17.9C18.3 7 18.7 6.7 18.7 6.2V2.8C18.6 2.3 18.3 2 17.8 2ZM17.1 5.4H15.2V3.5H17.1V5.4Z" fill="black"/>
<path d="M10.1 2H6.8C6.3 2 6 2.3 6 2.8V6.2C6 6.6 6.3 7 6.8 7H10.2C10.6 7 11 6.7 11 6.2V2.8C10.9 2.3 10.6 2 10.1 2ZM9.4 5.4H7.5V3.5H9.4V5.4Z" fill="black"/>
<path d="M25.5 2H22.1C21.7 2 21.3 2.3 21.3 2.8V6.2C21.3 6.6 21.6 7 22.1 7H25.5C25.9 7 26.3 6.7 26.3 6.2V2.8C26.3 2.3 26 2 25.5 2ZM24.8 5.4H22.9V3.5H24.8V5.4Z" fill="black"/>
<path d="M17.8 9.7H14.5C14 9.7 13.7 10 13.7 10.5V13.9C13.7 14.3 14 14.7 14.5 14.7H17.9C18.3 14.7 18.7 14.4 18.7 13.9V10.5C18.6 10 18.3 9.7 17.8 9.7ZM17.1 13.1H15.2V11.2H17.1V13.1Z" fill="black"/>
<path d="M10.1 9.7H6.8C6.3 9.7 6 10 6 10.5V13.9C6 14.3 6.3 14.7 6.8 14.7H10.2C10.6 14.7 11 14.4 11 13.9V10.5C10.9 10 10.6 9.7 10.1 9.7ZM9.4 13.1H7.5V11.2H9.4V13.1Z" fill="black"/>
<path d="M25.5 9.7H22.1C21.7 9.7 21.3 10 21.3 10.5V13.9C21.3 14.3 21.6 14.7 22.1 14.7H25.5C25.9 14.7 26.3 14.4 26.3 13.9V10.5C26.3 10 26 9.7 25.5 9.7ZM24.8 13.1H22.9V11.2H24.8V13.1Z" fill="black"/>
<path d="M17.8 17.4H14.5C14.1 17.4 13.7 17.7 13.7 18.2V21.6C13.7 22 14 22.4 14.5 22.4H17.9C18.3 22.4 18.7 22.1 18.7 21.6V18.2C18.6 17.7 18.3 17.4 17.8 17.4ZM17.1 20.8H15.2V18.9H17.1V20.8Z" fill="black"/>
<path d="M10.1 17.4H6.8C6.4 17.4 6 17.7 6 18.2V21.6C6 22 6.3 22.4 6.8 22.4H10.2C10.6 22.4 11 22.1 11 21.6V18.2C10.9 17.7 10.6 17.4 10.1 17.4ZM9.4 20.8H7.5V18.9H9.4V20.8Z" fill="black"/>
<path d="M25.5 17.4H22.1C21.7 17.4 21.3 17.7 21.3 18.2V21.6C21.3 22 21.6 22.4 22.1 22.4H25.5C25.9 22.4 26.3 22.1 26.3 21.6V18.2C26.3 17.7 26 17.4 25.5 17.4ZM24.8 20.8H22.9V18.9H24.8V20.8Z" fill="black"/>
<path d="M17.8 25.1H14.5C14.1 25.1 13.7 25.4 13.7 25.9V29.3C13.7 29.7 14 30 14.5 30H17.9C18.3 30 18.7 29.7 18.7 29.2V25.8C18.6 25.4 18.3 25.1 17.8 25.1ZM17.1 28.5H15.2V26.6H17.1V28.5Z" fill="black"/>
</svg>
