<svg width="32" height="32" viewBox="0 0 32 32" fill="none" xmlns="http://www.w3.org/2000/svg">
<path fill-rule="evenodd" clip-rule="evenodd" d="M2 6.57856C2 6.03217 2.44294 5.58923 2.98933 5.58923H29.0107C29.5571 5.58923 30 6.03217 30 6.57856C30 7.12495 29.5571 7.56789 29.0107 7.56789H2.98933C2.44294 7.56789 2 7.12495 2 6.57856ZM2 16.0001C2 15.4537 2.44294 15.0108 2.98933 15.0108H29.0107C29.5571 15.0108 30 15.4537 30 16.0001C30 16.5465 29.5571 16.9894 29.0107 16.9894H2.98933C2.44294 16.9894 2 16.5465 2 16.0001ZM2.98933 26.4109C2.44294 26.4109 2 25.9679 2 25.4215C2 24.8751 2.44294 24.4322 2.98933 24.4322H29.0107C29.5571 24.4322 30 24.8751 30 25.4215C30 25.9679 29.5571 26.4109 29.0107 26.4109H2.98933Z" fill="black"/>
</svg>
