<svg width="32" height="32" viewBox="0 0 32 32" fill="none" xmlns="http://www.w3.org/2000/svg">
<path fill-rule="evenodd" clip-rule="evenodd" d="M4.75246 9.00249C3.7881 9.00249 3.00246 9.78543 3.00246 10.7498V21.2511C3.00246 22.2146 3.7881 22.9984 4.75246 22.9984H19.754C20.7175 22.9984 21.5004 22.2146 21.5004 21.2511V18.3479L27.1459 21.5777C27.6703 21.8762 28.1584 21.9397 28.4841 21.7501C28.8106 21.5613 28.9975 21.1059 28.9975 20.5026V11.5028C28.9975 10.8986 28.8106 10.4432 28.4841 10.2536C28.1556 10.063 27.6685 10.1247 27.1441 10.4223L21.5004 13.6503V10.7498C21.5004 9.78543 20.7175 9.00249 19.754 9.00249H4.75246ZM19.754 24H4.75246C3.23471 24 2 22.7671 2 21.2511V10.7498C2 9.23384 3.23471 8 4.75246 8H19.754C21.27 8 22.5019 9.23384 22.5019 10.7498V11.9229L26.6497 9.55046C27.5061 9.06509 28.3362 9.00794 28.9885 9.38716C29.6407 9.76729 30 10.5185 30 11.5028V20.5026C30 21.487 29.6407 22.2381 28.9885 22.6165C28.3362 22.9975 27.5052 22.9358 26.6488 22.4486L22.5019 20.0771V21.2511C22.5019 22.7671 21.27 24 19.754 24Z" fill="black"/>
</svg>
