<svg width="32" height="32" viewBox="0 0 32 32" fill="none" xmlns="http://www.w3.org/2000/svg">
<path fill-rule="evenodd" clip-rule="evenodd" d="M23.7808 1.5L23.7819 1.5C26.8536 1.50356 29.3427 3.9928 29.3461 7.06442C29.3461 7.90443 29.0589 8.82559 28.6492 9.7226C28.236 10.627 27.6794 11.5476 27.0992 12.3983C25.9385 14.1 24.6551 15.5628 24.152 16.1185L23.7815 16.5278L23.4108 16.1186C22.9076 15.5631 21.624 14.1006 20.4631 12.399C19.8828 11.5484 19.3261 10.6278 18.9129 9.72327C18.5031 8.82613 18.2159 7.90533 18.2159 7.06498C18.2195 3.99316 20.709 1.50335 23.7808 1.5ZM19.2159 7.06526C19.216 7.6975 19.4378 8.46561 19.8225 9.30776C20.2039 10.1427 20.7273 11.0119 21.2892 11.8355C22.1917 13.1584 23.1752 14.3374 23.7813 15.0304C24.3872 14.3372 25.3706 13.1579 26.2731 11.8349C26.8349 11.0112 27.3582 10.1419 27.7396 9.30711C28.1243 8.46489 28.3461 7.69689 28.3461 7.06498C28.343 4.5452 26.3011 2.50322 23.7813 2.5C21.2613 2.50305 19.2191 4.54517 19.2159 7.06526Z" fill="black"/>
<path fill-rule="evenodd" clip-rule="evenodd" d="M23.7818 4.23791C25.3419 4.23979 26.6061 5.50403 26.608 7.06412C26.6081 8.20763 25.9194 9.23915 24.863 9.67681C23.8065 10.1145 22.5905 9.87262 21.7819 9.06404C20.9733 8.25547 20.7315 7.03942 21.1691 5.98298C21.5418 5.08331 22.3448 4.45029 23.2812 4.28231V4.2373L23.7818 4.23791ZM23.7808 5.23791C23.0419 5.23794 22.3758 5.68304 22.093 6.36571C21.8101 7.04846 21.9664 7.83437 22.489 8.35694C23.0116 8.8795 23.7975 9.0358 24.4802 8.75295C25.1629 8.47013 25.608 7.80393 25.608 7.06498C25.6066 6.05648 24.7894 5.23927 23.7808 5.23791Z" fill="black"/>
<path fill-rule="evenodd" clip-rule="evenodd" d="M11.5137 9.0912L16.7655 11.7178L16.3182 12.6122L11.5137 10.2093L3.63306 14.1496V29.0255L11.5137 25.873L19.8583 29.2111L28.3669 24.443V15.8564H29.3669V25.0289L19.9304 30.317L11.5137 26.9501L2.63306 30.5026V13.5315L11.5137 9.0912Z" fill="black"/>
<path fill-rule="evenodd" clip-rule="evenodd" d="M11.211 8.70811H12.211V26.2303L19.7889 29.2615V17.2861H20.7889V30.7385L11.211 26.9073V8.70811Z" fill="black"/>
</svg>
