<svg width="32" height="32" viewBox="0 0 32 32" fill="none" xmlns="http://www.w3.org/2000/svg">
<path d="M15.1836 23.0252L11.2616 26.9471C10.2682 27.937 8.66119 27.937 7.66775 26.9471L5.05384 24.3332C4.06376 23.339 4.06376 21.7315 5.05384 20.7373L8.9757 16.8174C9.51022 16.2864 10.2538 16.0217 11.0036 16.0955L12.8496 14.2495C11.0009 13.3643 8.79522 13.7383 7.34176 15.1835L3.4199 19.1033C1.528 21.0002 1.528 24.0703 3.4199 25.9671L6.03381 28.581C7.9298 30.473 10.9996 30.473 12.8956 28.581L16.8174 24.6591C18.2617 23.2052 18.6356 21.0001 17.7514 19.1513L15.9055 20.9973C15.9782 21.747 15.7138 22.4902 15.1836 23.0252Z" fill="black"/>
<path d="M19.1048 3.41895L15.1829 7.34081C13.7382 8.79468 13.3651 11.0004 14.251 12.8486L16.097 11.0027C16.0225 10.2532 16.2865 9.50951 16.8169 8.97475L20.7388 5.05289C21.7322 4.06294 23.3392 4.06294 24.3327 5.05289L26.9466 7.6668C27.9386 8.65937 27.9386 10.2681 26.9466 11.2607L23.0267 15.1825C22.4917 15.7127 21.7485 15.9773 20.9988 15.9045L19.1528 17.7504C21.0017 18.6344 23.2066 18.2605 24.6606 16.8165L28.5805 12.8946C30.4724 10.9986 30.4724 7.92889 28.5805 6.03286L25.9666 3.41895C24.0706 1.52702 21.0009 1.52702 19.1048 3.41895Z" fill="black"/>
<path d="M22.6993 10.9346L10.9357 22.6982C10.4836 23.1441 9.75643 23.1416 9.30742 22.6926C8.85841 22.2436 8.8559 21.5164 9.3018 21.0643L21.0654 9.30068C21.517 8.85225 22.2463 8.85357 22.6964 9.30362C23.1464 9.75367 23.1477 10.4829 22.6993 10.9346Z" fill="black"/>
</svg>
