<svg width="32" height="32" viewBox="0 0 32 32" fill="none" xmlns="http://www.w3.org/2000/svg">
<path fill-rule="evenodd" clip-rule="evenodd" d="M3.5 8.76387V16.95C3.5 19.3358 5.46421 21.3 7.85 21.3H9.65C10.0642 21.3 10.4 21.6358 10.4 22.05V26.5393L15.4197 21.5197C15.5603 21.379 15.7511 21.3 15.95 21.3H24.15C26.5358 21.3 28.5 19.3358 28.5 16.95V8.75C28.5 6.37393 26.6456 4.5 24.15 4.5H7.85C5.47318 4.5 3.59237 6.35837 3.5 8.76387ZM2.00048 8.72323C2.11434 5.53499 4.63107 3 7.85 3H24.15C27.4544 3 30 5.52607 30 8.75V16.95C30 20.1642 27.3642 22.8 24.15 22.8H16.2607L10.1803 28.8803C9.96583 29.0948 9.64324 29.159 9.36299 29.0429C9.08273 28.9268 8.9 28.6533 8.9 28.35V22.8H7.85C4.63579 22.8 2 20.1642 2 16.95V8.75C2 8.74108 2.00016 8.73215 2.00048 8.72323Z" fill="black"/>
<path fill-rule="evenodd" clip-rule="evenodd" d="M16.05 11.5C15.3596 11.5 14.8 12.0596 14.8 12.75C14.8 13.4404 15.3596 14 16.05 14C16.7404 14 17.3 13.4404 17.3 12.75C17.3 12.0596 16.7404 11.5 16.05 11.5ZM13.3 12.75C13.3 11.2312 14.5312 10 16.05 10C17.5688 10 18.8 11.2312 18.8 12.75C18.8 14.2688 17.5688 15.5 16.05 15.5C14.5312 15.5 13.3 14.2688 13.3 12.75Z" fill="black"/>
<path fill-rule="evenodd" clip-rule="evenodd" d="M8.45 11.5C7.75964 11.5 7.2 12.0596 7.2 12.75C7.2 13.4404 7.75964 14 8.45 14C9.14036 14 9.7 13.4404 9.7 12.75C9.7 12.0596 9.14036 11.5 8.45 11.5ZM5.7 12.75C5.7 11.2312 6.93122 10 8.45 10C9.96878 10 11.2 11.2312 11.2 12.75C11.2 14.2688 9.96878 15.5 8.45 15.5C6.93122 15.5 5.7 14.2688 5.7 12.75Z" fill="black"/>
<path fill-rule="evenodd" clip-rule="evenodd" d="M23.65 11.5C22.9596 11.5 22.4 12.0596 22.4 12.75C22.4 13.4404 22.9596 14 23.65 14C24.3404 14 24.9 13.4404 24.9 12.75C24.9 12.0596 24.3404 11.5 23.65 11.5ZM20.9 12.75C20.9 11.2312 22.1312 10 23.65 10C25.1688 10 26.4 11.2312 26.4 12.75C26.4 14.2688 25.1688 15.5 23.65 15.5C22.1312 15.5 20.9 14.2688 20.9 12.75Z" fill="black"/>
</svg>
