<svg width="32" height="32" viewBox="0 0 32 32" fill="none" xmlns="http://www.w3.org/2000/svg">
<path fill-rule="evenodd" clip-rule="evenodd" d="M21.6924 20.2038L29.6915 28.2014C30.1028 28.6128 30.1028 29.2797 29.6915 29.6911C29.4851 29.8961 29.2169 30 28.9459 30C28.6763 30 28.4081 29.8961 28.2017 29.6911L20.204 21.6935C18.279 23.2857 15.8092 24.2461 13.1204 24.2461C6.98873 24.2461 2 19.256 2 13.1231C2 6.99007 6.98873 2 13.1204 2C19.2549 2 24.2464 6.99007 24.2464 13.1231C24.2464 15.8105 23.286 18.2788 21.6924 20.2038ZM13.1204 4.10611C8.14991 4.10611 4.10614 8.15124 4.10614 13.1231C4.10614 18.0949 8.14991 22.14 13.1204 22.14C18.0937 22.14 22.1403 18.0949 22.1403 13.1231C22.1403 8.15124 18.0937 4.10611 13.1204 4.10611Z" fill="black"/>
</svg>
