<svg width="32" height="32" viewBox="0 0 32 32" fill="none" xmlns="http://www.w3.org/2000/svg">
<path fill-rule="evenodd" clip-rule="evenodd" d="M17.3 10.45C17.3 10.0358 17.6358 9.7 18.05 9.7H29.25C29.6642 9.7 30 10.0358 30 10.45V28.15C30 28.5642 29.6642 28.9 29.25 28.9H7.95C7.53579 28.9 7.2 28.5642 7.2 28.15V20.45C7.2 20.0358 7.53579 19.7 7.95 19.7C8.36421 19.7 8.7 20.0358 8.7 20.45V27.4H28.5V11.2H18.05C17.6358 11.2 17.3 10.8642 17.3 10.45Z" fill="black"/>
<path fill-rule="evenodd" clip-rule="evenodd" d="M7.43083 9.90874C7.72976 9.62201 8.20453 9.6319 8.49126 9.93083L17.8913 19.7308C18.178 20.0298 18.1681 20.5045 17.8692 20.7913C17.5702 21.078 17.0955 21.0681 16.8087 20.7692L7.40874 10.9692C7.12201 10.6702 7.1319 10.1955 7.43083 9.90874Z" fill="black"/>
<path fill-rule="evenodd" clip-rule="evenodd" d="M17.45 14.2C17.8642 14.2 18.2 14.5358 18.2 14.95V20.25C18.2 20.6642 17.8642 21 17.45 21H12.15C11.7358 21 11.4 20.6642 11.4 20.25C11.4 19.8358 11.7358 19.5 12.15 19.5H16.7V14.95C16.7 14.5358 17.0358 14.2 17.45 14.2Z" fill="black"/>
<path fill-rule="evenodd" clip-rule="evenodd" d="M2 4.75C2 4.33579 2.33579 4 2.75 4H23.95C24.3642 4 24.7 4.33579 24.7 4.75V9.95C24.7 10.3642 24.3642 10.7 23.95 10.7C23.5358 10.7 23.2 10.3642 23.2 9.95V5.5H3.5V21.6H7.95C8.36421 21.6 8.7 21.9358 8.7 22.35C8.7 22.7642 8.36421 23.1 7.95 23.1H2.75C2.33579 23.1 2 22.7642 2 22.35V4.75Z" fill="black"/>
</svg>
