<svg width="32" height="32" viewBox="0 0 32 32" fill="none" xmlns="http://www.w3.org/2000/svg">
<path fill-rule="evenodd" clip-rule="evenodd" d="M2.73517 30H15.9184L15.9056 28.8642C15.9717 26.2134 14.6001 23.7338 12.3195 22.381C13.2261 21.575 13.7576 20.4288 13.7871 19.216C13.7544 18.0321 13.2488 16.9106 12.3833 16.1021C11.5433 15.2519 10.3874 14.7895 9.19278 14.8259C6.85352 14.903 4.96544 16.7633 4.85368 19.1012C4.86953 20.3481 5.41191 21.5303 6.34684 22.3555C4.04621 23.7042 2.6622 26.1984 2.73517 28.8642V30ZM14.7443 28.7875H3.96033C3.93061 26.2609 5.44909 23.973 7.78895 23.0191L9.06516 22.5214L7.78895 21.9088C6.7387 21.3802 6.06613 20.3149 6.04055 19.1394C6.10027 17.4119 7.49052 16.0272 9.2183 15.9744C10.1018 15.9708 10.9525 16.3092 11.592 16.9188C12.2268 17.4736 12.6129 18.2596 12.6641 19.1011C12.6675 20.2948 11.9884 21.3854 10.9157 21.9088L9.63945 22.5214L10.9157 23.0191C13.2555 23.973 14.774 26.2609 14.7443 28.7875Z" fill="black"/>
<path d="M29.2675 26.031H17.386V24.2953H27.5319V10.4995L18.5857 4.14403L9.72879 10.4995V12.9499H7.99315V9.6062L18.5857 2L29.2675 9.6062V26.031Z" fill="black"/>
</svg>
