<svg width="32" height="32" viewBox="0 0 32 32" fill="none" xmlns="http://www.w3.org/2000/svg">
<path fill-rule="evenodd" clip-rule="evenodd" d="M22.6668 8.6668C24.5008 8.6668 26.0002 7.1674 26.0002 5.3334C26.0002 3.4994 24.5008 2 22.6668 2C20.8328 2 19.3334 3.4994 19.3334 5.3334C19.3334 7.1674 20.8328 8.6668 22.6668 8.6668ZM5.99976 16C5.99976 14.166 7.49916 12.6666 9.33316 12.6666C11.1672 12.6666 12.6666 14.166 12.6666 16C12.6666 17.834 11.1672 19.3334 9.33316 19.3334C7.49916 19.3334 5.99976 17.834 5.99976 16ZM5.99976 26.6666C5.99976 24.8326 7.49916 23.3332 9.33316 23.3332C11.1672 23.3332 12.6666 24.8326 12.6666 26.6666C12.6666 28.5006 11.1672 30 9.33316 30C7.49916 30 5.99976 28.5006 5.99976 26.6666ZM19.3334 16C19.3334 14.166 20.8328 12.6666 22.6668 12.6666C24.5008 12.6666 26.0002 14.166 26.0002 16C26.0002 17.834 24.5008 19.3334 22.6668 19.3334C20.8328 19.3334 19.3334 17.834 19.3334 16ZM22.6668 23.3332C20.8328 23.3332 19.3334 24.8326 19.3334 26.6666C19.3334 28.5006 20.8328 30 22.6668 30C24.5008 30 26.0002 28.5006 26.0002 26.6666C26.0002 24.8326 24.5008 23.3332 22.6668 23.3332ZM5.99976 5.3334C5.99976 3.4994 7.49916 2 9.33316 2C11.1672 2 12.6666 3.4994 12.6666 5.3334C12.6666 7.1674 11.1672 8.6668 9.33316 8.6668C7.49916 8.6668 5.99976 7.1674 5.99976 5.3334Z" fill="black"/>
</svg>
