<svg width="32" height="32" viewBox="0 0 32 32" fill="none" xmlns="http://www.w3.org/2000/svg">
<path d="M16 30C8.3 30 2 23.7 2 16C2 8.3 8.3 2 16 2C23.7 2 30 8.3 30 16C30 23.7 23.7 30 16 30ZM16 3.5C9.1 3.5 3.5 9.1 3.5 16C3.5 22.9 9.1 28.5 16 28.5C22.9 28.5 28.5 22.9 28.5 16C28.5 9.1 22.9 3.5 16 3.5Z" fill="black"/>
<path d="M16 9.3C16.7 9.3 17.3 9.9 17.3 10.6C17.3 11.3 16.7 11.9 16 11.9" fill="black"/>
<path d="M16 11.9C15.3 11.9 14.7 11.3 14.7 10.6C14.7 9.9 15.3 9.3 16 9.3" fill="black"/>
<path d="M16 23.4C15.6 23.4 15.2 23.1 15.2 22.6V14.8C15.2 14.4 15.5 14 16 14C16.5 14 16.8 14.3 16.8 14.8V22.6C16.8 23.1 16.4 23.4 16 23.4Z" fill="black"/>
</svg>
