<svg width="32" height="32" viewBox="0 0 32 32" fill="none" xmlns="http://www.w3.org/2000/svg">
<path d="M26.2 10.6H24.9V8.8C24.9 7 23.4 5.5 21.6 5.5C19.8 5.5 18.3 7 18.3 8.8V10.6H17C16.6 10.6 16.2 10.9 16.2 11.4V17.4C16.2 17.8 16.5 18.2 17 18.2H26.2C26.6 18.2 27 17.9 27 17.4V11.4C27 10.9 26.6 10.6 26.2 10.6ZM19.8 8.8C19.8 7.8 20.6 7 21.6 7C22.6 7 23.4 7.8 23.4 8.8V10.6H19.8V8.8Z" fill="black"/>
<path d="M21.5 20.4C19.9 22.5 17.5 23.7 14.9 23.7C10.3 23.7 6.6 20 6.6 15.4V12.6C6.6 12.2 6.3 11.8 5.8 11.8C5.3 11.8 5 12.1 5 12.5V15.3C5 20.5 9 24.7 14.1 25.1V28.5H9.3C8.9 28.5 8.5 28.8 8.5 29.3C8.5 29.8 8.8 30 9.3 30H20.4C20.8 30 21.2 29.7 21.2 29.2C21.2 28.7 20.9 28.4 20.4 28.4H15.6V25C18.4 24.8 20.9 23.4 22.7 21.2C23 20.9 22.9 20.4 22.6 20.1C22.2 20 21.7 20.1 21.5 20.4Z" fill="black"/>
<path d="M14.5 21.6H15.2C15.8 21.6 16.3 21.5 16.8 21.4C17.2 21.3 17.4 20.9 17.3 20.5C17.2 20.1 16.8 19.9 16.4 20C16 20.1 15.6 20.2 15.2 20.2H14.5C12 20.2 10 18.2 10 15.7V8C10 5.5 12 3.5 14.5 3.5H15.2C15.9 3.5 16.6 3.7 17.3 4C17.7 4.2 18.1 4 18.3 3.7C18.5 3.3 18.3 2.9 18 2.7C17.1 2.2 16.1 2 15.2 2H14.5C11.2 2 8.5 4.7 8.5 8V15.6C8.5 18.9 11.2 21.6 14.5 21.6Z" fill="black"/>
</svg>
