<svg width="32" height="32" viewBox="0 0 32 32" fill="none" xmlns="http://www.w3.org/2000/svg">
<path fill-rule="evenodd" clip-rule="evenodd" d="M20.9163 4.2231C21.2073 3.92833 21.6821 3.92526 21.9769 4.21626L25.35 7.54612L28.7231 4.21626C29.0179 3.92526 29.4927 3.92833 29.7837 4.2231C30.0747 4.51788 30.0717 4.99274 29.7769 5.28374L26.4176 8.6L29.7769 11.9163C30.0717 12.2073 30.0747 12.6821 29.7837 12.9769C29.4927 13.2717 29.0179 13.2747 28.7231 12.9837L25.35 9.65388L21.9769 12.9837C21.6821 13.2747 21.2073 13.2717 20.9163 12.9769C20.6253 12.6821 20.6283 12.2073 20.9231 11.9163L24.2824 8.6L20.9231 5.28374C20.6283 4.99274 20.6253 4.51788 20.9163 4.2231ZM4.75 5.5C4.06421 5.5 3.5 6.06421 3.5 6.75V25.05C3.5 25.7358 4.06421 26.3 4.75 26.3H27.25C27.9358 26.3 28.5 25.7358 28.5 25.05V17.05C28.5 16.6358 28.8358 16.3 29.25 16.3C29.6642 16.3 30 16.6358 30 17.05V25.05C30 26.5642 28.7642 27.8 27.25 27.8H4.75C3.23579 27.8 2 26.5642 2 25.05V6.75C2 5.23579 3.23579 4 4.75 4H15.85C16.2642 4 16.6 4.33579 16.6 4.75C16.6 5.16421 16.2642 5.5 15.85 5.5H4.75ZM5 12.45C5 12.0358 5.33579 11.7 5.75 11.7H14.85C15.9121 11.7 16.6 12.5854 16.6 13.45V23.15C16.6 23.5642 16.2642 23.9 15.85 23.9C15.4358 23.9 15.1 23.5642 15.1 23.15V13.45C15.1 13.3954 15.0758 13.3268 15.0267 13.2742C14.9846 13.2291 14.9294 13.2 14.85 13.2H5.75C5.33579 13.2 5 12.8642 5 12.45ZM5 16.05C5 15.6358 5.33579 15.3 5.75 15.3H12.75C13.1642 15.3 13.5 15.6358 13.5 16.05C13.5 16.4642 13.1642 16.8 12.75 16.8H5.75C5.33579 16.8 5 16.4642 5 16.05ZM5 19.55C5 19.1358 5.33579 18.8 5.75 18.8H12.75C13.1642 18.8 13.5 19.1358 13.5 19.55C13.5 19.9642 13.1642 20.3 12.75 20.3H5.75C5.33579 20.3 5 19.9642 5 19.55ZM5 23.15C5 22.7358 5.33579 22.4 5.75 22.4H12.75C13.1642 22.4 13.5 22.7358 13.5 23.15C13.5 23.5642 13.1642 23.9 12.75 23.9H5.75C5.33579 23.9 5 23.5642 5 23.15Z" fill="black"/>
</svg>
