<svg width="32" height="32" viewBox="0 0 32 32" fill="none" xmlns="http://www.w3.org/2000/svg">
<path fill-rule="evenodd" clip-rule="evenodd" d="M24.6408 9.20789L30 3.84871L28.0704 2L22.3093 7.74706C20.469 6.82061 18.2966 6.27786 15.9986 6.27786C9.99342 6.27786 4.85469 9.98366 2.74367 15.234L2.71019 15.3303L2.59019 15.6386L2.71019 15.947C3.75523 18.5687 5.46721 20.7369 7.63823 22.308L7.68009 22.3373L2 28.0173L3.88918 29.9191L10.0381 23.7297C11.7682 24.5334 13.7927 25.0022 15.9274 25.0022C21.9312 25.0022 27.0686 21.2936 29.1754 16.0433L29.2089 15.947L29.3289 15.6386L29.2089 15.3303C28.2294 12.8509 26.6625 10.7845 24.6729 9.23161L24.6408 9.20789ZM4.411 15.6372C6.36157 11.0998 10.7929 7.98004 15.9526 7.98004C17.7831 7.98004 19.5216 8.37211 21.0885 9.07811L21.009 9.04601L19.3347 10.7203C18.4012 10.0855 17.2488 9.70597 16.0084 9.70597C12.7156 9.70597 10.0464 12.3751 10.0464 15.6679C10.0464 16.8965 10.4177 18.0385 11.0551 18.9873L8.9121 21.1303C6.93084 19.7686 5.38489 17.9045 4.4417 15.7195L4.411 15.6386V15.6372ZM11.2924 22.3861C12.7379 22.9707 14.3159 23.2958 15.9721 23.3H16.0516C21.2043 23.3 25.6287 20.1816 27.5723 15.6498L27.5416 15.5689C26.6542 13.5276 25.2394 11.7682 23.4339 10.4385L21.1306 12.7153C21.1254 12.7066 21.1202 12.6978 21.115 12.6891L21.1306 12.7153C21.6304 13.5619 21.9259 14.5431 21.9466 15.5968C21.9466 18.8896 19.2775 21.5587 15.9847 21.5587H15.9833C14.8977 21.5545 13.882 21.2559 13.0379 20.755L11.3761 22.4168L11.2924 22.3861Z" fill="black"/>
</svg>
