<svg width="32" height="32" viewBox="0 0 32 32" fill="none" xmlns="http://www.w3.org/2000/svg">
<path fill-rule="evenodd" clip-rule="evenodd" d="M27.5393 2.57166C27.5471 2.42331 27.4936 2.27246 27.3776 2.15917C27.2617 2.04588 27.1072 1.99364 26.9553 2.0013L26.9454 2.00074L26.9454 2.00073C26.9398 2.00037 26.9341 2 26.9284 2H23.5612C23.2538 2 23.0046 2.24338 23.0046 2.54361C23.0046 2.84385 23.2538 3.08722 23.5612 3.08722H25.6403L20.1383 8.46126L18.0635 6.43468C17.9591 6.33275 17.8175 6.27545 17.6699 6.27545C17.5223 6.27545 17.3808 6.33275 17.2764 6.43468L7.27117 16.2072C7.05383 16.4195 7.05383 16.7637 7.27117 16.976C7.37987 17.0821 7.52229 17.1351 7.66471 17.1351C7.80714 17.1351 7.94962 17.0821 8.05826 16.9759L17.6699 7.58779L19.7448 9.61437C19.9621 9.82665 20.3146 9.82665 20.5319 9.61437L26.4275 3.85605V5.69401C26.4275 5.99424 26.6767 6.23762 26.984 6.23762C27.2914 6.23762 27.5406 5.99424 27.5406 5.69401V2.59797C27.5406 2.59239 27.5402 2.5869 27.5399 2.5814L27.5393 2.57166ZM27.6629 28.9022H28.8783C29.1844 28.9022 29.4325 29.1479 29.4325 29.4511C29.4325 29.7543 29.1844 30 28.8783 30H3.12177C2.81572 30 2.56763 29.7543 2.56763 29.4511C2.56763 29.1479 2.81572 28.9022 3.12177 28.9022H4.40274V23.9508C4.40274 23.1373 5.07098 22.4753 5.89239 22.4753H8.60909C9.43044 22.4753 10.0987 23.1372 10.0987 23.9508V28.9022H13.1849V19.3416C13.1849 18.528 13.8531 17.8661 14.6745 17.8661H17.3912C18.2126 17.8661 18.8808 18.528 18.8808 19.3416V28.9022H21.967V11.4215C21.967 10.6079 22.6352 9.94595 23.4566 9.94595H26.1733C26.9946 9.94595 27.6629 10.6079 27.6629 11.4215V28.9022ZM5.51096 28.9022H8.99033V23.9509C8.99033 23.7426 8.81926 23.5731 8.60897 23.5731H5.89232C5.68202 23.5731 5.51096 23.7426 5.51096 23.9509V28.9022ZM17.7725 28.9022H14.2931V19.3416C14.2931 19.1333 14.4642 18.9639 14.6745 18.9639H17.3911C17.6014 18.9639 17.7725 19.1333 17.7725 19.3416V28.9022ZM23.0753 28.9022H26.5546V11.4215C26.5546 11.2132 26.3836 11.0438 26.1733 11.0438H23.4566C23.2463 11.0438 23.0753 11.2132 23.0753 11.4215V28.9022ZM6.72979 18.4595C6.72979 18.7729 6.47568 19.027 6.16222 19.027C5.84876 19.027 5.59465 18.7729 5.59465 18.4595C5.59465 18.146 5.84876 17.8919 6.16222 17.8919C6.47568 17.8919 6.72979 18.146 6.72979 18.4595Z" fill="black"/>
</svg>
