<svg width="32" height="32" viewBox="0 0 32 32" fill="none" xmlns="http://www.w3.org/2000/svg">
<path d="M10.1712 2.00603H22.8254C23.3915 2.0886 23.9221 2.33138 24.3547 2.70571C24.7824 3.06216 25.2844 3.31832 25.824 3.45536H27.0235C27.4998 3.45798 27.9559 3.64838 28.2928 3.98523C28.6296 4.32207 28.82 4.77817 28.8226 5.25453V14.7801C28.8226 15.0023 28.7786 15.2224 28.6929 15.4274C28.6073 15.6324 28.4818 15.8185 28.3238 15.9747C28.1657 16.1308 27.9782 16.2541 27.7722 16.3373C27.5661 16.4205 27.3456 16.462 27.1234 16.4594C25.824 16.4594 24.1248 18.1686 22.2657 20.0777C21.5034 20.7603 20.8925 21.5951 20.4724 22.5281C20.0524 23.4612 19.8324 24.4719 19.8268 25.4952V27.994C19.8299 28.108 19.8059 28.221 19.7568 28.3239C19.453 28.8639 19.0029 29.3071 18.4582 29.6024C17.9135 29.8977 17.2965 30.0332 16.6782 29.9931C16.0755 29.9457 15.5029 29.7097 15.0418 29.3186C14.5807 28.9275 14.2545 28.4011 14.1094 27.8141C13.501 25.6644 13.4392 23.3968 13.9295 21.2172H6.42296C5.8288 21.2455 5.23782 21.1151 4.71079 20.8393C4.18377 20.5635 3.73973 20.1522 3.42434 19.6479C3.13389 19.0688 2.9885 18.4278 3.00069 17.7801C3.01288 17.1324 3.18228 16.4973 3.49431 15.9296C3.18565 15.1615 3.08231 14.3262 3.19448 13.5059C3.30665 12.6857 3.63045 11.9088 4.13401 11.2518C3.86414 9.89239 3.9441 7.68341 5.63332 6.56393C5.62119 5.36462 6.04776 4.20222 6.83277 3.29543C7.26702 2.85748 7.78891 2.51623 8.36423 2.29402C8.93955 2.07182 9.55534 1.97367 10.1712 2.00603ZM18.3175 27.8041V25.4952C18.3249 24.2744 18.5824 23.0681 19.074 21.9507C19.5657 20.8333 20.2811 19.8284 21.1762 18.9982C23.3851 16.7292 25.2243 15 27.1234 15C27.2933 15 27.3233 14.8901 27.3233 14.8201V5.29451C27.3247 5.25476 27.3179 5.21514 27.3033 5.17813C27.2888 5.14112 27.2667 5.1075 27.2386 5.07937C27.2105 5.05124 27.1769 5.02921 27.1398 5.01463C27.1028 5.00005 27.0632 4.99325 27.0235 4.99465H25.824C24.9704 4.89361 24.1647 4.54631 23.5051 3.99511C23.2709 3.82569 23.0236 3.67528 22.7654 3.54532H10.1712C9.75925 3.51746 9.34595 3.575 8.95723 3.71431C8.56852 3.85363 8.21277 4.07173 7.91227 4.35495C7.32348 5.09887 7.03783 6.03795 7.11264 6.98373C7.1217 7.13176 7.08665 7.27915 7.01192 7.40726C6.9372 7.53536 6.82615 7.63842 6.69284 7.7034C4.91366 8.55301 5.62333 11.1918 5.6933 11.3017C5.73228 11.4354 5.7333 11.5772 5.69622 11.7114C5.65915 11.8455 5.58546 11.9667 5.48339 12.0614C5.05284 12.5364 4.77649 13.1307 4.69083 13.7661C4.60517 14.4014 4.71423 15.0477 5.00361 15.6198C5.06757 15.7325 5.10119 15.8599 5.10119 15.9896C5.10119 16.1192 5.06757 16.2466 5.00361 16.3594C4.74206 16.7287 4.58064 17.1594 4.53509 17.6096C4.48955 18.0598 4.56143 18.5141 4.74373 18.9282C4.92976 19.2072 5.18776 19.4306 5.49041 19.5749C5.79306 19.7192 6.1291 19.779 6.46294 19.7478H14.8291C14.9381 19.7481 15.0457 19.7724 15.1441 19.819C15.2426 19.8657 15.3296 19.9335 15.3988 20.0177C15.4724 20.0993 15.526 20.1968 15.5555 20.3026C15.585 20.4084 15.5895 20.5196 15.5687 20.6274L15.5088 20.9673C14.9693 23.0689 14.9693 25.2727 15.5088 27.3743C15.5706 27.6732 15.7278 27.944 15.9567 28.1458C16.1856 28.3477 16.4739 28.4698 16.7782 28.4938C17.0701 28.5022 17.3602 28.4445 17.6267 28.3251C17.8933 28.2057 18.1294 28.0276 18.3175 27.8041Z" fill="black"/>
</svg>
