<svg width="32" height="32" viewBox="0 0 32 32" fill="none" xmlns="http://www.w3.org/2000/svg">
<path fill-rule="evenodd" clip-rule="evenodd" d="M19.1326 23.0801C19.1326 19.9411 21.6772 17.3964 24.8163 17.3964C27.9553 17.3964 30.5 19.9411 30.5 23.0801C30.5 26.2191 27.9553 28.7638 24.8163 28.7638C21.6772 28.7638 19.1326 26.2191 19.1326 23.0801ZM24.8163 18.3964C22.2295 18.3964 20.1326 20.4934 20.1326 23.0801C20.1326 25.6669 22.2295 27.7638 24.8163 27.7638C27.403 27.7638 29.5 25.6669 29.5 23.0801C29.5 20.4934 27.403 18.3964 24.8163 18.3964Z" fill="black"/>
<path fill-rule="evenodd" clip-rule="evenodd" d="M1.5 23.0801C1.5 19.9411 4.04469 17.3964 7.18372 17.3964C10.3228 17.3964 12.8674 19.9411 12.8674 23.0801C12.8674 26.2191 10.3228 28.7638 7.18372 28.7638C4.04469 28.7638 1.5 26.2191 1.5 23.0801ZM7.18372 18.3964C4.59697 18.3964 2.5 20.4934 2.5 23.0801C2.5 25.6669 4.59697 27.7638 7.18372 27.7638C9.77047 27.7638 11.8674 25.6669 11.8674 23.0801C11.8674 20.4934 9.77047 18.3964 7.18372 18.3964Z" fill="black"/>
<path fill-rule="evenodd" clip-rule="evenodd" d="M11.4584 7.47107H20.3618V14.1163H11.4584V7.47107ZM12.4584 8.47107V13.1163H19.3618V8.47107H12.4584Z" fill="black"/>
<path fill-rule="evenodd" clip-rule="evenodd" d="M13.5874 5.96476V7.40653H12.5874V5.96253C12.5928 4.13052 14.0766 2.64671 15.9086 2.64136L15.9101 3.14136L15.9115 2.64136C17.7435 2.64671 19.2274 4.13052 19.2327 5.96253L19.2327 5.96399L19.2327 7.40653H18.2327V5.96483C18.2286 4.68359 17.1912 3.64588 15.9101 3.64136C14.629 3.64588 13.5915 4.68355 13.5874 5.96476Z" fill="black"/>
<path fill-rule="evenodd" clip-rule="evenodd" d="M24.9425 28.7941H6.87763V27.7941H24.9425V28.7941Z" fill="black"/>
</svg>
