<svg width="32" height="32" viewBox="0 0 32 32" fill="none" xmlns="http://www.w3.org/2000/svg">
<path fill-rule="evenodd" clip-rule="evenodd" d="M19.754 8C21.27 8 22.5019 9.19129 22.5019 10.655V11.7876L26.6497 9.497C27.5061 9.02837 28.3362 8.97318 28.9885 9.33933C29.6407 9.70635 30 10.4316 30 11.382V20.0715C30 21.0219 29.6407 21.7472 28.9885 22.1125C28.3362 22.4804 27.5052 22.4208 26.6488 21.9504L22.5019 19.6607V20.7941C22.5019 22.2579 21.27 23.4483 19.754 23.4483H4.75246C3.23471 23.4483 2 22.2579 2 20.7941V10.655C2 9.19129 3.23471 8 4.75246 8H19.754ZM19.754 8.96793H4.75246C3.7881 8.96793 3.00246 9.72387 3.00246 10.655V20.7941C3.00246 21.7244 3.7881 22.4812 4.75246 22.4812H19.754C20.7175 22.4812 21.5004 21.7244 21.5004 20.7941V17.9911L27.1459 21.1095C27.6703 21.3977 28.1584 21.459 28.4841 21.2759C28.8107 21.0937 28.9975 20.654 28.9975 20.0715V11.382C28.9975 10.7987 28.8107 10.3589 28.4841 10.1759C28.1557 9.99191 27.6685 10.0515 27.1441 10.3388L21.5004 13.4554V10.655C21.5004 9.72387 20.7175 8.96793 19.754 8.96793Z" fill="black"/>
</svg>
