<svg width="32" height="32" viewBox="0 0 32 32" fill="none" xmlns="http://www.w3.org/2000/svg">
<path d="M7.4 24.7V22.4C7.4 18.7 10.4 15.7 14.1 15.7C16.8 15.7 19.1 17.3 20.2 19.6C20.6 19.5 21.1 19.4 21.6 19.4C21.7 19.4 21.7 19.4 21.8 19.4C20.6 16.4 17.6 14.2 14.2 14.2C9.7 14.2 6 17.9 6 22.4V25.5C6 25.9 6.3 26.3 6.8 26.3H15.7C15.7 26.1 15.6 25.8 15.6 25.5C15.6 25.2 15.6 25 15.7 24.7H7.4Z" fill="black"/>
<path d="M14.1 12.6C16.8 12.6 18.9 10.4 18.9 7.8C18.9 5.1 16.7 3 14.1 3C11.5 3 9.3 5.1 9.3 7.7C9.3 10.4 11.5 12.6 14.1 12.6ZM14.1 4.4C15.9 4.4 17.4 5.9 17.4 7.7C17.4 9.5 15.9 11 14.1 11C12.2 11 10.8 9.5 10.8 7.7C10.8 5.9 12.3 4.4 14.1 4.4Z" fill="black"/>
<path d="M24.9 24.7H22.4V22.2C22.4 21.8 22.1 21.4 21.6 21.4C21.1 21.4 20.9 21.8 20.9 22.2V24.7H18.4C18 24.7 17.6 25 17.6 25.5C17.6 26 17.9 26.3 18.4 26.3H20.9V28.8C20.9 29.2 21.2 29.6 21.7 29.6C22.2 29.6 22.5 29.3 22.5 28.8V26.3H24.9C25.3 26.3 25.7 26 25.7 25.5C25.7 25 25.3 24.7 24.9 24.7Z" fill="black"/>
</svg>
