<svg width="32" height="32" viewBox="0 0 32 32" fill="none" xmlns="http://www.w3.org/2000/svg">
<path fill-rule="evenodd" clip-rule="evenodd" d="M21.3 10.1C21.3 7.3 19 5 16.2 5C13.4 5 11.2 7.3 11.2 10.1C11.2 12.9 13.5 15.2 16.3 15.2C19.1 15.2 21.3 12.9 21.3 10.1Z" fill="black"/>
<path fill-rule="evenodd" clip-rule="evenodd" d="M24.4 17.2C21.6 17.2 19.3 19.5 19.3 22.3C19.3 25.1 21.6 27.4 24.4 27.4C27.2 27.4 29.5 25.1 29.5 22.3C29.5 19.5 27.2 17.2 24.4 17.2Z" fill="black"/>
<path fill-rule="evenodd" clip-rule="evenodd" d="M8.1 17.2C5.3 17.2 3 19.5 3 22.3C3 25.1 5.3 27.4 8.1 27.4C10.9 27.4 13.2 25.1 13.2 22.3C13.2 19.5 10.9 17.2 8.1 17.2Z" fill="black"/>
</svg>
