<svg width="32" height="32" viewBox="0 0 32 32" fill="none" xmlns="http://www.w3.org/2000/svg">
<path fill-rule="evenodd" clip-rule="evenodd" d="M11.2728 3.06747C11.4698 2.97792 11.6958 2.97749 11.8931 3.0663L15.9074 4.87275C16.2865 5.04333 16.4555 5.48893 16.285 5.86802C16.1144 6.2471 15.6688 6.41612 15.2897 6.24553L12.3369 4.91678V24.7447L19.6631 28.0748V17.4014C19.6631 16.9857 20.0001 16.6487 20.4158 16.6487C20.8315 16.6487 21.1685 16.9857 21.1685 17.4014V28.0748L28.4946 24.7447V17.4014C28.4946 16.9857 28.8316 16.6487 29.2473 16.6487C29.663 16.6487 30 16.9857 30 17.4014V25.2294C30 25.5246 29.8275 25.7925 29.5588 25.9146L20.7272 29.9289C20.5293 30.0189 20.3022 30.0189 20.1043 29.9289L11.5842 26.0562L3.06415 29.9289C2.83118 30.0348 2.56036 30.0151 2.34519 29.8766C2.13003 29.738 2 29.4996 2 29.2437V7.76702C2 7.47186 2.17252 7.20394 2.44122 7.0818L11.2728 3.06747ZM10.8315 24.7447V4.92162L3.50538 8.25169V28.0748L10.8315 24.7447ZM18.6595 3.75269C18.6595 3.33699 18.9965 3 19.4122 3H20.4158C20.8315 3 21.1685 3.33699 21.1685 3.75269C21.1685 4.16839 20.8315 4.50538 20.4158 4.50538H19.4122C18.9965 4.50538 18.6595 4.16839 18.6595 3.75269ZM22.8746 3.75269C22.8746 3.33699 23.2115 3 23.6272 3H29.2473C29.663 3 30 3.33699 30 3.75269C30 4.16839 29.663 4.50538 29.2473 4.50538H23.6272C23.2115 4.50538 22.8746 4.16839 22.8746 3.75269ZM18.6595 8.77061C18.6595 8.35491 18.9965 8.01792 19.4122 8.01792H20.4158C20.8315 8.01792 21.1685 8.35491 21.1685 8.77061C21.1685 9.18631 20.8315 9.5233 20.4158 9.5233H19.4122C18.9965 9.5233 18.6595 9.18631 18.6595 8.77061ZM22.8746 8.77061C22.8746 8.35491 23.2115 8.01792 23.6272 8.01792H29.2473C29.663 8.01792 30 8.35491 30 8.77061C30 9.18631 29.663 9.5233 29.2473 9.5233H23.6272C23.2115 9.5233 22.8746 9.18631 22.8746 8.77061ZM18.6595 13.7885C18.6595 13.3728 18.9965 13.0358 19.4122 13.0358H20.4158C20.8315 13.0358 21.1685 13.3728 21.1685 13.7885C21.1685 14.2042 20.8315 14.5412 20.4158 14.5412H19.4122C18.9965 14.5412 18.6595 14.2042 18.6595 13.7885ZM22.8746 13.7885C22.8746 13.3728 23.2115 13.0358 23.6272 13.0358H29.2473C29.663 13.0358 30 13.3728 30 13.7885C30 14.2042 29.663 14.5412 29.2473 14.5412H23.6272C23.2115 14.5412 22.8746 14.2042 22.8746 13.7885Z" fill="black"/>
</svg>
