<svg width="32" height="32" viewBox="0 0 32 32" fill="none" xmlns="http://www.w3.org/2000/svg">
<path d="M19.246 16.8235H10.5156C10.2113 16.8235 9.96456 17.0684 9.96456 17.3704C9.96456 17.6724 10.2113 17.9173 10.5156 17.9173H19.246C19.5504 17.9173 19.7971 17.6724 19.7971 17.3704C19.797 17.0684 19.5504 16.8235 19.246 16.8235Z" fill="black"/>
<path d="M10.5156 9.68627H19.246C19.5504 9.68627 19.797 9.9311 19.7971 10.2331C19.7971 10.5352 19.5504 10.78 19.246 10.78H10.5156C10.2113 10.78 9.96456 10.5352 9.96456 10.2331C9.96456 9.9311 10.2113 9.68627 10.5156 9.68627Z" fill="black"/>
<path d="M8.16183 16.9838C8.05933 16.882 7.91715 16.8235 7.77222 16.8235C7.62728 16.8235 7.48511 16.882 7.3826 16.9838C7.2801 17.0855 7.22114 17.2266 7.22114 17.3704C7.22114 17.5142 7.2801 17.6553 7.3826 17.757C7.48511 17.8588 7.62728 17.9173 7.77222 17.9173C7.91715 17.9173 8.05933 17.8588 8.16183 17.757C8.26433 17.6553 8.3233 17.5142 8.3233 17.3704C8.3233 17.2266 8.26433 17.0855 8.16183 16.9838Z" fill="black"/>
<path d="M7.77222 9.68627C7.91715 9.68627 8.05933 9.74478 8.16183 9.8465C8.26433 9.94822 8.3233 10.0893 8.3233 10.2331C8.3233 10.377 8.26433 10.5181 8.16183 10.6198C8.05933 10.7215 7.91715 10.78 7.77222 10.78C7.62728 10.78 7.48511 10.7215 7.3826 10.6198C7.2801 10.5181 7.22114 10.377 7.22114 10.2331C7.22114 10.0893 7.2801 9.94822 7.3826 9.8465C7.48511 9.74478 7.62728 9.68627 7.77222 9.68627Z" fill="black"/>
<path d="M19.246 20.1176H10.5156C10.2113 20.1176 9.96456 20.3625 9.96456 20.6645C9.96456 20.9666 10.2113 21.2114 10.5156 21.2114H19.246C19.5504 21.2114 19.7971 20.9666 19.7971 20.6645C19.797 20.3625 19.5504 20.1176 19.246 20.1176Z" fill="black"/>
<path d="M10.5156 13.5294H19.246C19.5504 13.5294 19.797 13.7742 19.7971 14.0763C19.7971 14.3783 19.5504 14.6232 19.246 14.6232H10.5156C10.2113 14.6232 9.96456 14.3783 9.96456 14.0763C9.96456 13.7742 10.2113 13.5294 10.5156 13.5294Z" fill="black"/>
<path d="M8.16183 20.2779C8.05933 20.1762 7.91715 20.1176 7.77222 20.1176C7.62728 20.1176 7.48511 20.1762 7.3826 20.2779C7.2801 20.3796 7.22114 20.5207 7.22114 20.6645C7.22114 20.8083 7.2801 20.9494 7.3826 21.0512C7.48511 21.1529 7.62728 21.2114 7.77222 21.2114C7.91715 21.2114 8.05933 21.1529 8.16183 21.0512C8.26433 20.9494 8.3233 20.8083 8.3233 20.6645C8.3233 20.5207 8.26433 20.3796 8.16183 20.2779Z" fill="black"/>
<path d="M7.77222 13.5294C7.91715 13.5294 8.05933 13.5879 8.16183 13.6896C8.26433 13.7914 8.3233 13.9325 8.3233 14.0763C8.3233 14.2201 8.26433 14.3612 8.16183 14.4629C8.05933 14.5646 7.91715 14.6232 7.77222 14.6232C7.62728 14.6232 7.48511 14.5646 7.3826 14.4629C7.2801 14.3612 7.22114 14.2201 7.22114 14.0763C7.22114 13.9325 7.2801 13.7914 7.3826 13.6896C7.48511 13.5879 7.62728 13.5294 7.77222 13.5294Z" fill="black"/>
<path d="M19.246 23.9608H10.5156C10.2113 23.9608 9.96456 24.2056 9.96456 24.5077C9.96456 24.8097 10.2113 25.0545 10.5156 25.0545H19.246C19.5504 25.0545 19.7971 24.8097 19.7971 24.5077C19.7971 24.2056 19.5504 23.9608 19.246 23.9608Z" fill="black"/>
<path d="M7.77222 23.9608C7.91715 23.9608 8.05933 24.0193 8.16183 24.121C8.26433 24.2227 8.3233 24.3638 8.3233 24.5077C8.3233 24.6515 8.26433 24.7926 8.16183 24.8943C8.05933 24.996 7.91715 25.0545 7.77222 25.0545C7.62728 25.0545 7.48511 24.996 7.3826 24.8943C7.2801 24.7926 7.22114 24.6515 7.22114 24.5077C7.22114 24.3638 7.2801 24.2227 7.3826 24.121C7.48511 24.0193 7.62728 23.9608 7.77222 23.9608Z" fill="black"/>
<path fill-rule="evenodd" clip-rule="evenodd" d="M28.0684 15.4532H23.9897V2.54692C23.9897 2.32576 23.8554 2.12632 23.6496 2.04166C23.4436 1.95695 23.2066 2.00387 23.049 2.16017L21.4878 3.70936L19.9268 2.16022C19.7116 1.94667 19.3627 1.94667 19.1474 2.16022L17.5863 3.70941L16.0254 2.16022C15.8102 1.94667 15.4612 1.94667 15.246 2.16022L13.6849 3.70941L12.1237 2.16022C11.9085 1.94667 11.5596 1.94667 11.3444 2.16022L9.7833 3.70941L8.22231 2.16022C8.00711 1.94667 7.65817 1.94667 7.44292 2.16022L5.88182 3.70941L4.32078 2.16022C4.1069 1.94798 3.76099 1.94689 3.54524 2.15721C3.43194 2.26774 3.377 2.41501 3.3808 2.5613V27.1564C3.3808 28.7244 4.66625 30 6.2463 30H25.7532C27.3333 30 28.6195 28.7244 28.6195 27.1564V16C28.6195 15.698 28.3728 15.4532 28.0684 15.4532ZM6.24631 28.9062C5.27393 28.9062 4.48291 28.1212 4.48291 27.1563V3.86789L5.49216 4.86944C5.70735 5.08299 6.0563 5.08299 6.27155 4.86944L7.83265 3.32025L9.39375 4.86944C9.60894 5.08299 9.95789 5.08299 10.1731 4.86944L11.7342 3.32025L13.2954 4.86944C13.5106 5.08299 13.8595 5.08299 14.0747 4.86944L15.6358 3.32025L17.1969 4.86944C17.4121 5.08299 17.7611 5.08299 17.9763 4.86944L19.5374 3.32025L21.0985 4.86944C21.3138 5.08299 21.6627 5.08299 21.8779 4.86944L22.8879 3.86713V16L22.888 16.0041L22.8883 16.0086L22.8887 16.0148V27.1563C22.8887 27.8159 23.1168 28.4233 23.498 28.9062H6.24631ZM25.7539 28.9062C26.7262 28.9062 27.5173 28.1212 27.5173 27.1563V16.5469H23.9905V27.1563C23.9905 28.1212 24.7816 28.9062 25.7539 28.9062Z" fill="black"/>
</svg>
