<svg width="32" height="32" viewBox="0 0 32 32" fill="none" xmlns="http://www.w3.org/2000/svg">
<path d="M16.2 30C9.5 30 4 24.5 4 17.8C4 11.1 9.5 5.6 16.2 5.6C16.6 5.6 17 5.9 17 6.4V17.1H27.7C28.1 17.1 28.5 17.4 28.5 17.9C28.4 24.5 22.9 30 16.2 30ZM15.4 7.1C9.8 7.5 5.5 12.1 5.5 17.8C5.5 23.7 10.3 28.5 16.2 28.5C21.8 28.5 26.5 24.1 26.9 18.6H16.2C15.8 18.6 15.4 18.3 15.4 17.8V7.1Z" fill="black"/>
<path d="M20 15.1C19.6 15.1 19.2 14.8 19.2 14.3V6.3C19.2 5.9 19.5 5.5 20 5.5C20.5 5.5 20.8 5.8 20.8 6.3V14.3C20.8 14.8 20.5 15.1 20 15.1Z" fill="black"/>
<path d="M23.8 15.1C23.4 15.1 23 14.8 23 14.3V2.8C23 2.4 23.3 2 23.8 2C24.3 2 24.6 2.3 24.6 2.8V14.4C24.6 14.8 24.3 15.1 23.8 15.1Z" fill="black"/>
<path d="M27.6 15.1C27.2 15.1 26.8 14.8 26.8 14.3V9.3C26.8 8.9 27.1 8.5 27.6 8.5C28.1 8.5 28.4 8.8 28.4 9.3V14.3C28.4 14.8 28.1 15.1 27.6 15.1Z" fill="black"/>
<path d="M8.4 26.3C8.2 26.3 8 26.2 7.9 26.1C7.6 25.8 7.6 25.3 7.9 25L15.7 17.2C16 16.9 16.5 16.9 16.8 17.2C17.1 17.5 17.1 18 16.8 18.3L9 26.1C8.8 26.3 8.6 26.3 8.4 26.3Z" fill="black"/>
</svg>
