<svg width="32" height="32" viewBox="0 0 32 32" fill="none" xmlns="http://www.w3.org/2000/svg">
<path d="M16.4727 3C19.0274 3 21.3769 3.46636 23.5215 4.39911L22.5898 6.98745C20.4687 6.10135 18.4063 5.6583 16.4023 5.6583C14.8203 5.6583 13.584 5.99642 12.6934 6.67266C11.8027 7.34889 11.3574 8.28745 11.3574 9.48836C11.3574 10.3745 11.5215 11.1002 11.8496 11.6657C12.1777 12.2312 12.7314 12.75 13.5107 13.2222C14.29 13.6944 15.4824 14.2162 17.0879 14.7875C17.2301 14.8379 17.3699 14.8885 17.5074 14.9393L30 14.939V16.9289L21.5559 16.9287C21.9919 17.2351 22.3571 17.5473 22.6514 17.8655C23.665 18.9615 24.1719 20.3839 24.1719 22.1328C24.1719 24.383 23.3516 26.1377 21.7109 27.3969C20.0703 28.6561 17.8438 29.2857 15.0313 29.2857C11.9844 29.2857 9.64063 28.8951 8 28.114V25.2458C9.05469 25.6888 10.2031 26.0386 11.4453 26.2951C12.6875 26.5516 13.918 26.6799 15.1367 26.6799C17.1289 26.6799 18.6289 26.3039 19.6367 25.5519C20.6445 24.7998 21.1484 23.7534 21.1484 22.4126C21.1484 21.5265 20.9697 20.8007 20.6123 20.2352C20.2549 19.6698 19.6572 19.148 18.8193 18.67C17.9814 18.192 16.707 17.6498 14.9961 17.0435C14.8896 17.0056 14.7844 16.9674 14.6806 16.9288L2 16.9289V14.939L10.8667 14.9394C10.4841 14.644 10.1526 14.3369 9.87207 14.018C8.84667 12.852 8.33398 11.3305 8.33398 9.45338C8.33398 7.48296 9.07812 5.91481 10.5664 4.74888C12.0547 3.58296 14.0234 3 16.4727 3Z" fill="black"/>
</svg>
