<svg width="32" height="32" viewBox="0 0 32 32" fill="none" xmlns="http://www.w3.org/2000/svg">
<path fill-rule="evenodd" clip-rule="evenodd" d="M4.17255 15.3636L9.44991 10.0863C9.56509 9.97109 9.63636 9.812 9.63636 9.63636C9.63636 9.28445 9.35127 9 9 9C8.82436 9 8.66527 9.07127 8.55009 9.18645L2.18645 15.5501C2.07127 15.6659 2 15.8244 2 16C2 16.1756 2.07127 16.3347 2.18645 16.4499L8.55009 22.8135C8.66527 22.9294 8.82436 23 9 23C9.35127 23 9.63636 22.7155 9.63636 22.3636C9.63636 22.188 9.56509 22.0295 9.44991 21.9137L4.17255 16.6364H29.3636C29.7149 16.6364 30 16.3519 30 16C30 15.6481 29.7149 15.3636 29.3636 15.3636H4.17255Z" fill="black"/>
</svg>
