<svg width="32" height="32" viewBox="0 0 32 32" fill="none" xmlns="http://www.w3.org/2000/svg">
<path d="M16.0049 22.8629C16.3205 22.8629 16.5764 22.6061 16.5764 22.2893C16.5764 21.9724 16.3205 21.7156 16.0049 21.7156C15.6885 21.7156 15.4326 21.9724 15.4326 22.2893C15.4326 22.6061 15.6885 22.8629 16.0049 22.8629Z" fill="black"/>
<path d="M14.1547 21.8856H7.80679C7.58388 21.8856 7.40318 22.0663 7.40318 22.2893C7.40318 22.5122 7.58388 22.6929 7.80679 22.6929H14.1547C14.3776 22.6929 14.5584 22.5122 14.5584 22.2893C14.5584 22.0663 14.3776 21.8856 14.1547 21.8856Z" fill="black"/>
<path d="M17.7873 21.8856H24.3183C24.5412 21.8856 24.7219 22.0663 24.7219 22.2893C24.7219 22.5122 24.5412 22.6929 24.3183 22.6929H17.7873C17.5644 22.6929 17.3837 22.5122 17.3837 22.2893C17.3837 22.0663 17.5644 21.8856 17.7873 21.8856Z" fill="black"/>
<path fill-rule="evenodd" clip-rule="evenodd" d="M29.0248 6.59343L25.0064 11.4465L23.6228 7.39167C23.4828 6.98126 22.9452 6.88648 22.6733 7.22425L18.7172 12.1377L16.6107 6.7442C16.4308 6.28363 15.782 6.27545 15.5905 6.73136L13.2955 12.1969L9.0943 7.21462C8.81836 6.88738 8.29088 6.98656 8.15264 7.39167L6.81649 11.3074L2.9771 6.61301C2.62325 6.18036 1.92447 6.48954 2.00666 7.0424L4.69716 25.1385C4.73726 25.4083 4.96885 25.608 5.24156 25.608H26.3643C26.6326 25.608 26.8619 25.4145 26.9069 25.15L29.9913 7.03683C30.0859 6.48153 29.3841 6.15956 29.0248 6.59343ZM22.9038 8.69309L24.1828 12.4412L20.5496 16.8291L19.1788 13.3196L22.9038 8.69309ZM13.9815 13.4065L16.0795 8.41001L19.8644 18.1006C20.0171 18.4914 20.5334 18.5745 20.801 18.2513L28.5609 8.8797L25.8997 24.5072H5.71616L3.38909 8.85548L11.0715 18.2488C11.3342 18.57 11.8444 18.496 12.005 18.1134L13.9416 13.5015C13.958 13.471 13.9713 13.4391 13.9815 13.4065ZM12.8169 13.3368L8.88014 8.66822L7.63718 12.3109L11.3444 16.8436L12.8169 13.3368Z" fill="black"/>
</svg>
