<svg width="32" height="32" viewBox="0 0 32 32" fill="none" xmlns="http://www.w3.org/2000/svg">
<path fill-rule="evenodd" clip-rule="evenodd" d="M23.2498 5.56177C24.8583 5.56177 26.2193 6.93852 26.2193 8.56559C26.2193 10.1927 24.8583 11.5694 23.2498 11.5694C22.262 11.5694 21.3676 11.0502 20.8244 10.2726L9.83241 14.9389C9.97995 15.2915 10.062 15.6758 10.062 16.0752C10.062 16.3639 10.0191 16.6447 9.93963 16.9113L20.8697 21.3276C21.268 20.1394 22.3978 19.2557 23.6865 19.2557C25.295 19.2557 26.656 20.6324 26.656 22.2595C26.656 23.8866 25.295 25.2633 23.6865 25.2633C22.2575 25.2633 21.0238 24.1766 20.7663 22.7932L9.2324 18.1333C8.68716 18.7121 7.9228 19.079 7.0925 19.079C5.48405 19.079 4.12305 17.7022 4.12305 16.0752C4.12305 14.4481 5.48405 13.0713 7.0925 13.0713C7.81894 13.0713 8.49491 13.3522 9.01781 13.81C9.06177 13.7625 9.11808 13.7239 9.18582 13.6951L20.3091 8.97352C20.2902 8.8398 20.2804 8.7036 20.2804 8.56559C20.2804 6.93852 21.6414 5.56177 23.2498 5.56177ZM23.6865 20.8459C22.8131 20.8459 22.2891 21.376 22.2891 22.2595C22.2891 23.143 22.8131 23.6731 23.6865 23.6731C24.5599 23.6731 25.0839 23.143 25.0839 22.2595C25.0839 21.376 24.5599 20.8459 23.6865 20.8459ZM7.0925 14.6616C6.21913 14.6616 5.69511 15.1917 5.69511 16.0752C5.69511 16.9586 6.21913 17.4887 7.0925 17.4887C7.96587 17.4887 8.48989 16.9586 8.48989 16.0752C8.48989 15.1917 7.96587 14.6616 7.0925 14.6616ZM23.2498 7.15203C22.3764 7.15203 21.8524 7.68212 21.8524 8.56559C21.8524 9.44907 22.3764 9.97916 23.2498 9.97916C24.1232 9.97916 24.6472 9.44907 24.6472 8.56559C24.6472 7.68212 24.1232 7.15203 23.2498 7.15203Z" fill="black"/>
</svg>
