<svg width="32" height="32" viewBox="0 0 32 32" fill="none" xmlns="http://www.w3.org/2000/svg">
<path fill-rule="evenodd" clip-rule="evenodd" d="M20.6667 2H9V16H10.1667V3.16667H19.5V12.5H28.8333V28.8333H10.1667V26.5H9V30H30V11.3333H29.9167V11.1262L20.8738 2.08333H20.6667V2ZM20.6667 3.29044V11.3333H28.7096L20.6667 3.29044Z" fill="black"/>
<path fill-rule="evenodd" clip-rule="evenodd" d="M26.5 16H2V26.5H26.5V16ZM5.96653 17.645H4.48486V25.0184H5.96653V17.645ZM11.9165 17.645H16.3732V19.115H17.8435V23.5367H16.3734V25.0066H13.3984V23.5366H16.3618V19.115H13.3982L13.3984 25.0066L11.9165 25.0067V17.645ZM19.3364 17.645V24.9717H20.8181V22.0667H23.7931V20.585H20.8181V19.115H23.7931V17.645H19.3364ZM5.9668 20.585H8.9418V22.055H5.9668V20.585ZM8.94189 19.115L8.9418 20.585V22.055H10.4236V17.645H8.94189V19.115ZM5.96653 17.645H8.94189V19.115H5.9668L5.96653 17.645Z" fill="black"/>
</svg>
