<svg width="32" height="32" viewBox="0 0 32 32" fill="none" xmlns="http://www.w3.org/2000/svg">
<path fill-rule="evenodd" clip-rule="evenodd" d="M7.56691 13.7066V12.3305H5.91745V6.36365H4.68036C4.41309 6.51783 4.12864 6.64888 3.827 6.75681C3.52536 6.86474 3.16073 6.95725 2.73309 7.03434V8.08663H4.23364V12.3305H2.35509V13.7066H7.56691ZM3.50055 23.0673C3.07291 23.4489 2.59946 23.8594 2.08018 24.2989V25.2702H7.544V23.8363H5.81436C5.62345 23.8363 5.40773 23.846 5.16718 23.8652C4.92664 23.8845 4.70327 23.9057 4.49709 23.9288C4.84837 23.6205 5.18436 23.3063 5.50509 22.9864C5.82582 22.6665 6.11027 22.3465 6.35845 22.0266C6.60664 21.7067 6.80327 21.3868 6.94836 21.0668C7.09346 20.7469 7.166 20.4328 7.166 20.1244C7.166 19.7698 7.103 19.4499 6.977 19.1646C6.851 18.8794 6.67536 18.6346 6.45009 18.4303C6.22482 18.226 5.95564 18.068 5.64255 17.9562C5.32945 17.8444 4.982 17.7885 4.60018 17.7885C4.31764 17.7885 4.05991 17.8136 3.827 17.8637C3.59409 17.9138 3.37264 17.9871 3.16264 18.0834C2.95264 18.1798 2.75409 18.3012 2.567 18.4477C2.37991 18.5941 2.19091 18.7637 2 18.9565L2.90491 19.87C3.11109 19.6696 3.33445 19.4942 3.575 19.3439C3.81555 19.1935 4.08091 19.1184 4.37109 19.1184C4.75291 19.1184 5.04691 19.2128 5.25309 19.4017C5.45927 19.5905 5.56236 19.8661 5.56236 20.2285C5.56236 20.4906 5.47836 20.7681 5.31036 21.0611C5.14236 21.354 4.90564 21.6662 4.60018 21.9977C4.29473 22.3292 3.92818 22.6857 3.50055 23.0673ZM30 7.64854H12.1818V10.2182H30V7.64854ZM12.1818 15.3576H30V17.9273H12.1818V15.3576ZM30 23.0667H12.1818V25.6364H30V23.0667Z" fill="black"/>
<path fill-rule="evenodd" clip-rule="evenodd" d="M7.56691 13.7066V12.3305H5.91745V6.36365H4.68036C4.41309 6.51783 4.12864 6.64888 3.827 6.75681C3.52536 6.86474 3.16073 6.95725 2.73309 7.03434V8.08663H4.23364V12.3305H2.35509V13.7066H7.56691ZM3.50055 23.0673C3.07291 23.4489 2.59946 23.8594 2.08018 24.2989V25.2702H7.544V23.8363H5.81436C5.62345 23.8363 5.40773 23.846 5.16718 23.8652C4.92664 23.8845 4.70327 23.9057 4.49709 23.9288C4.84837 23.6205 5.18436 23.3063 5.50509 22.9864C5.82582 22.6665 6.11027 22.3465 6.35845 22.0266C6.60664 21.7067 6.80327 21.3868 6.94836 21.0668C7.09346 20.7469 7.166 20.4328 7.166 20.1244C7.166 19.7698 7.103 19.4499 6.977 19.1646C6.851 18.8794 6.67536 18.6346 6.45009 18.4303C6.22482 18.226 5.95564 18.068 5.64255 17.9562C5.32945 17.8444 4.982 17.7885 4.60018 17.7885C4.31764 17.7885 4.05991 17.8136 3.827 17.8637C3.59409 17.9138 3.37264 17.9871 3.16264 18.0834C2.95264 18.1798 2.75409 18.3012 2.567 18.4477C2.37991 18.5941 2.19091 18.7637 2 18.9565L2.90491 19.87C3.11109 19.6696 3.33445 19.4942 3.575 19.3439C3.81555 19.1935 4.08091 19.1184 4.37109 19.1184C4.75291 19.1184 5.04691 19.2128 5.25309 19.4017C5.45927 19.5905 5.56236 19.8661 5.56236 20.2285C5.56236 20.4906 5.47836 20.7681 5.31036 21.0611C5.14236 21.354 4.90564 21.6662 4.60018 21.9977C4.29473 22.3292 3.92818 22.6857 3.50055 23.0673ZM30 7.64854H12.1818V10.2182H30V7.64854ZM12.1818 15.3576H30V17.9273H12.1818V15.3576ZM30 23.0667H12.1818V25.6364H30V23.0667Z" fill="black"/>
</svg>
