<svg width="32" height="32" viewBox="0 0 32 32" fill="none" xmlns="http://www.w3.org/2000/svg">
<path d="M23.24 14.5763V9.24634C23.33 5.51634 20.48 2.33634 16.74 2.00634C14.89 1.92634 13.06 2.60634 11.72 3.88634C10.38 5.16634 9.62 6.96634 9.62 8.81634V14.5663H6V30.0063H26.85V14.5763H23.24ZM10.58 8.82634C10.58 7.23634 11.24 5.69634 12.38 4.59634C13.53 3.49634 15.09 2.90634 16.67 2.97634C19.88 3.25634 22.34 6.00634 22.27 9.23634V14.5763H10.58V8.82634ZM25.89 29.0363H6.97V15.5363H9.62V15.9563H10.59V15.5363H22.28V15.9563H23.25V15.5363H25.9V29.0363H25.89Z" fill="black"/>
</svg>
