<svg width="32" height="32" viewBox="0 0 32 32" fill="none" xmlns="http://www.w3.org/2000/svg">
<path d="M29.18 10.26L21.73 2.81C21.21 2.29 20.51 2 19.76 2H5.81C3.71 2 2 3.71 2 5.81V26.19C2 28.29 3.71 30 5.81 30H26.19C28.29 30 30 28.29 30 26.19V12.24C30 11.49 29.71 10.79 29.18 10.26ZM28.12 11.33C28.22 11.43 28.28 11.55 28.34 11.67H21.62C20.91 11.67 20.33 11.09 20.33 10.38V3.65C20.45 3.71 20.57 3.78 20.67 3.88L28.12 11.33ZM26.19 28.5H5.81C4.54 28.5 3.5 27.46 3.5 26.19V5.81C3.5 4.54 4.54 3.5 5.81 3.5H18.84V10.37C18.84 11.91 20.09 13.16 21.63 13.16H28.5V26.19C28.5 27.46 27.46 28.5 26.19 28.5Z" fill="black"/>
<path d="M10.2 22.37L8.52 17.64H6.77V24.16H8.11V22.38L7.98 19.3L9.73 24.16H10.65L12.41 19.3L12.28 22.38V24.16H13.63V17.64H11.86L10.2 22.37Z" fill="black"/>
<path d="M18.64 17.9C18.27 17.72 17.84 17.63 17.35 17.63H14.8V24.15H16.14V21.85H17.32C18.09 21.85 18.7 21.67 19.14 21.3C19.58 20.93 19.8 20.43 19.8 19.79C19.8 19.37 19.7 18.99 19.5 18.66C19.3 18.34 19.01 18.08 18.64 17.9ZM18.16 20.52C17.97 20.69 17.7 20.77 17.35 20.77H16.15V18.72H17.38C17.71 18.73 17.97 18.83 18.16 19.02C18.35 19.22 18.44 19.48 18.44 19.79C18.44 20.11 18.35 20.35 18.16 20.52Z" fill="black"/>
<path d="M24.41 17.64H23.1L20.38 21.94L20.44 22.76H23.11V24.17H24.4V22.76H25.14V21.7H24.4V17.64H24.41ZM23.12 21.7H21.68L23.04 19.55L23.12 19.4V21.7Z" fill="black"/>
</svg>
