<svg width="32" height="32" viewBox="0 0 32 32" fill="none" xmlns="http://www.w3.org/2000/svg">
<path fill-rule="evenodd" clip-rule="evenodd" d="M22.5884 26.5803L23.5996 19.2536L22.609 19.1169L21.4269 27.6817L30.0421 26.9557L29.9581 25.9592L22.5884 26.5803Z" fill="black"/>
<path fill-rule="evenodd" clip-rule="evenodd" d="M10.5748 3.58734L9.39272 12.1538L8.40211 12.0172L9.41334 4.68899L2.04216 5.3115L1.95801 4.31505L10.5748 3.58734Z" fill="black"/>
<path fill-rule="evenodd" clip-rule="evenodd" d="M10.5607 5.30025C5.75063 7.77559 3.18382 13.1567 4.287 18.4527C5.39018 23.7487 9.89209 27.6574 15.2905 28.0062L15.226 29.0042C9.37894 28.6263 4.50288 24.3928 3.30802 18.6566C2.11315 12.9205 4.89328 7.09215 10.1032 4.41108L10.5607 5.30025Z" fill="black"/>
<path fill-rule="evenodd" clip-rule="evenodd" d="M27.8397 13.5578C26.7408 8.25809 22.2385 4.34434 16.8374 3.99375L16.9022 2.99585C22.7521 3.37557 27.6286 7.6146 28.8188 13.3548C30.0091 19.095 27.2201 24.9235 22.0034 27.5979L21.5472 26.708C26.3636 24.2388 28.9386 18.8576 27.8397 13.5578Z" fill="black"/>
</svg>
