<svg width="32" height="32" viewBox="0 0 32 32" fill="none" xmlns="http://www.w3.org/2000/svg">
<path fill-rule="evenodd" clip-rule="evenodd" d="M16.275 13.2L13.075 18.7H19.375L16.275 13.2ZM11.475 4.3L3.075 19.1C2.975 19.3 2.975 19.5 3.075 19.7L7.275 27C7.375 27.1 7.375 27.2 7.475 27.2C7.575 27.3 7.675 27.3 7.775 27.3H24.675C24.875 27.3 25.075 27.2 25.175 27L29.375 19.6C29.475 19.5 29.475 19.4 29.475 19.3C29.475 19.2 29.475 19.1 29.375 19L20.975 4.3C20.875 4.1 20.675 4 20.475 4H11.975C11.875 4 11.775 4 11.675 4.1C11.675 4.1 11.575 4.2 11.475 4.3ZM27.875 20H12.575L8.775 26.2H24.275L27.875 20ZM4.275 19.4L11.975 5.8L15.475 12.1L7.775 25.6L4.275 19.4ZM20.775 18.8H27.875L20.075 5.2H12.975L20.775 18.8Z" fill="black"/>
</svg>
