<svg width="32" height="32" viewBox="0 0 32 32" fill="none" xmlns="http://www.w3.org/2000/svg">
<path fill-rule="evenodd" clip-rule="evenodd" d="M6.04735 13.0092C3.5876 14.5209 2.02767 16.4484 2 18.0746L2.00155 20.159C1.99534 20.9978 2.68907 21.6915 3.53248 21.6868L6.0135 21.6872C6.8491 21.6871 7.51487 21.6868 7.94815 21.6863C9.52 21.6882 10.78 20.2877 10.7781 18.5933L10.7781 17.5576C10.7836 16.4185 12.7724 15.4565 15.9984 15.4537C19.2171 15.4532 21.2186 16.4199 21.2161 17.5485L21.2167 18.595C21.2148 20.2848 22.4737 21.6828 24.0486 21.6866C24.4811 21.688 25.1465 21.6892 25.9871 21.6903C26.5294 21.6909 27.1102 21.6914 27.691 21.6919L28.4653 21.6923C29.3137 21.6869 29.9992 20.9996 29.9968 20.1555L30 18.0736C29.9711 16.4481 28.41 14.5203 25.9504 13.0085C23.2418 11.3436 19.7475 10.3381 16.0025 10.3076C12.2489 10.3396 8.75467 11.3453 6.04735 13.0092ZM3.52991 20.6966C3.23506 20.6982 2.98962 20.4528 2.99176 20.1623L2.99023 18.0785C3.01379 16.8746 4.36679 15.2044 6.56585 13.8528C9.11978 12.2832 12.4377 11.3283 16.0027 11.2978C19.5589 11.3268 22.8768 12.2816 25.4319 13.8521C27.6335 15.2054 28.9884 16.8785 29.0098 18.0817L29.0066 20.1561C29.0074 20.4554 28.7633 20.7002 28.4623 20.7021L27.6917 20.7016C27.1111 20.7012 26.5304 20.7007 25.983 20.7C25.1483 20.699 24.4834 20.6978 24.0514 20.6964C23.0461 20.694 22.2056 19.7606 22.2069 18.5953L22.2064 17.5494C22.2105 15.6771 19.6966 14.4629 15.9979 14.4635C12.2945 14.4667 9.79684 15.6748 9.7879 17.5552L9.78788 18.5938C9.78915 19.763 8.94865 20.6973 7.94814 20.6961C7.51413 20.6966 6.84867 20.6969 6.01043 20.6969L3.52991 20.6966Z" fill="black"/>
</svg>
