<svg width="32" height="32" viewBox="0 0 32 32" fill="none" xmlns="http://www.w3.org/2000/svg">
<path fill-rule="evenodd" clip-rule="evenodd" d="M8 10.45C8 10.0358 8.33579 9.7 8.75 9.7H21.05C25.9642 9.7 30 13.7358 30 18.65C30 23.5642 25.9642 27.6 21.05 27.6C20.6358 27.6 20.3 27.2642 20.3 26.85C20.3 26.4358 20.6358 26.1 21.05 26.1C25.1358 26.1 28.5 22.7358 28.5 18.65C28.5 14.5642 25.1358 11.2 21.05 11.2H8.75C8.33579 11.2 8 10.8642 8 10.45Z" fill="black"/>
<path fill-rule="evenodd" clip-rule="evenodd" d="M13.9803 4.21967C14.2732 4.51256 14.2732 4.98744 13.9803 5.28033L8.80607 10.4546L13.9849 15.7243C14.2753 16.0197 14.2711 16.4946 13.9757 16.7849C13.6803 17.0753 13.2054 17.0711 12.9151 16.7757L7.21508 10.9757C6.92653 10.6821 6.92858 10.2108 7.21967 9.91967L12.9197 4.21967C13.2126 3.92678 13.6874 3.92678 13.9803 4.21967Z" fill="black"/>
<path fill-rule="evenodd" clip-rule="evenodd" d="M8.98033 4.21967C9.27322 4.51256 9.27322 4.98744 8.98033 5.28033L3.80607 10.4546L8.98492 15.7243C9.27526 16.0197 9.27113 16.4946 8.9757 16.7849C8.68027 17.0753 8.20541 17.0711 7.91508 16.7757L2.21508 10.9757C1.92653 10.6821 1.92858 10.2108 2.21967 9.91967L7.91967 4.21967C8.21256 3.92678 8.68744 3.92678 8.98033 4.21967Z" fill="black"/>
</svg>
