<svg width="32" height="32" viewBox="0 0 32 32" fill="none" xmlns="http://www.w3.org/2000/svg">
<path d="M19.3562 18.1516C19.4315 18.2108 19.5209 18.2395 19.6098 18.2395C19.7314 18.2395 19.8519 18.1857 19.9329 18.0826C20.6359 17.1881 21.0076 16.1141 21.0076 14.9764C21.0076 12.2021 18.7506 9.9451 15.9763 9.9451C13.2021 9.9451 10.945 12.2021 10.945 14.9764C10.945 16.1141 11.3167 17.1882 12.0198 18.0826C12.16 18.261 12.4181 18.2918 12.5964 18.1517C12.7747 18.0115 12.8056 17.7534 12.6655 17.5751C12.0773 16.8268 11.7663 15.9282 11.7663 14.9764C11.7663 12.6551 13.6549 10.7664 15.9763 10.7664C18.2978 10.7664 20.1863 12.655 20.1863 14.9764C20.1863 15.9282 19.8754 16.8268 19.2871 17.5751C19.147 17.7533 19.178 18.0115 19.3562 18.1516Z" fill="black"/>
<path d="M25.1521 5.8007C22.7011 3.34978 19.4426 2 15.9764 2C12.5102 2 9.25163 3.34978 6.80071 5.8007C4.34978 8.25163 3 11.5102 3 14.9764C3 18.724 4.62081 22.2882 7.4468 24.7552C7.61768 24.9044 7.87699 24.8867 8.02625 24.7159C8.1754 24.545 8.15777 24.2857 7.98694 24.1364C5.33961 21.8255 3.8213 18.4868 3.8213 14.9764C3.8213 11.7296 5.08567 8.67723 7.38142 6.38142C9.67717 4.08561 12.7296 2.8213 15.9764 2.8213C19.2232 2.8213 22.2755 4.08566 24.5714 6.38142C26.8672 8.67717 28.1315 11.7296 28.1315 14.9764C28.1315 18.4868 26.6132 21.8255 23.9658 24.1364C23.795 24.2857 23.7774 24.545 23.9265 24.7159C24.0077 24.8089 24.1216 24.8565 24.236 24.8565C24.3319 24.8565 24.4281 24.8232 24.506 24.7552C27.332 22.2881 28.9528 18.724 28.9528 14.9763C28.9528 11.5102 27.603 8.25163 25.1521 5.8007Z" fill="black"/>
<path d="M25.3722 14.9764C25.3722 12.9998 24.7651 11.1086 23.6166 9.50691C23.4844 9.3225 23.2278 9.28028 23.0436 9.41246C22.8593 9.54463 22.817 9.80121 22.9492 9.98551C23.997 11.4468 24.5509 13.1726 24.5509 14.9763C24.5509 17.721 23.2205 20.3209 20.9921 21.931C20.8083 22.0639 20.7669 22.3206 20.8997 22.5044C20.98 22.6155 21.1055 22.6746 21.2329 22.6746C21.3162 22.6746 21.4004 22.6493 21.4731 22.5967C22.6541 21.7434 23.6345 20.6114 24.308 19.3232C25.0043 17.9918 25.3722 16.4887 25.3722 14.9764Z" fill="black"/>
<path d="M22.4285 8.71046C22.5839 8.54516 22.5758 8.2853 22.4106 8.12997C20.6619 6.48594 18.3768 5.58049 15.9764 5.58049C10.7955 5.58049 6.58049 9.79545 6.58049 14.9764C6.58049 16.4887 6.94849 17.9918 7.64473 19.3233C8.31831 20.6115 9.29861 21.7435 10.4796 22.5968C10.5524 22.6493 10.6365 22.6746 10.7198 22.6746C10.8471 22.6746 10.9727 22.6156 11.053 22.5045C11.1858 22.3207 11.1445 22.0639 10.9606 21.9311C8.73219 20.321 7.40179 17.7211 7.40179 14.9764C7.40179 10.2483 11.2483 6.40179 15.9764 6.40179C18.167 6.40179 20.2522 7.22802 21.848 8.72826C22.0131 8.88359 22.2731 8.8756 22.4285 8.71046Z" fill="black"/>
<path d="M16.8335 14.15H15.1192C14.6993 14.15 14.3304 14.4479 14.2421 14.8584L11.8962 25.7587C11.8484 25.9805 11.9895 26.1989 12.2112 26.2466C12.2403 26.2528 12.2694 26.2559 12.2981 26.2559C12.4874 26.2558 12.6576 26.1241 12.6991 25.9315L15.045 15.0312C15.0525 14.9964 15.0836 14.9712 15.1191 14.9712H16.8335C16.869 14.9712 16.9002 14.9964 16.9076 15.0312L17.6734 18.5893C17.721 18.811 17.9395 18.9519 18.1612 18.9043C18.3829 18.8567 18.524 18.6382 18.4763 18.4165L17.7105 14.8584C17.6223 14.448 17.2535 14.15 16.8335 14.15Z" fill="black"/>
<path d="M21.4271 29.1787H20.7925L18.8447 20.128C18.7969 19.9062 18.5784 19.7654 18.3568 19.8129C18.1351 19.8606 17.9941 20.079 18.0418 20.3008L19.9525 29.1787H19.1123L16.3779 16.4726C16.3372 16.2835 16.1699 16.1484 15.9764 16.1484C15.7829 16.1484 15.6157 16.2835 15.575 16.4726L12.8405 29.1787H12.0004L12.3309 27.643C12.3786 27.4212 12.2375 27.2028 12.0159 27.1551C11.7942 27.1077 11.5757 27.2484 11.528 27.4702L11.1603 29.1787H10.6756C10.4488 29.1787 10.265 29.3625 10.265 29.5894C10.265 29.8162 10.4488 30 10.6756 30H21.4271C21.6539 30 21.8377 29.8162 21.8377 29.5894C21.8377 29.3625 21.6539 29.1787 21.4271 29.1787ZM15.2318 23.0646L16.6967 21.858L17.3018 24.67L15.2318 23.0646ZM17.2047 25.6341L14.0537 27.445L14.8383 23.7988L17.2047 25.6341ZM15.9764 18.5109L16.5022 20.9542L15.224 22.007L15.9764 18.5109ZM13.821 28.526L17.6572 26.3213L18.2721 29.1787H13.6805L13.821 28.526Z" fill="black"/>
</svg>
