<svg width="32" height="32" viewBox="0 0 32 32" fill="none" xmlns="http://www.w3.org/2000/svg">
<path fill-rule="evenodd" clip-rule="evenodd" d="M18.4656 5.19444L18.7294 5.2728C22.3042 6.33495 24.8031 9.56287 24.8062 13.2541C24.7664 14.2641 24.8642 16.0958 25.2305 17.9604C25.8451 21.0888 27.0525 23.4776 29.0445 24.6757C29.3843 24.8798 29.5442 25.2804 29.4351 25.6576C29.3262 26.0315 28.9766 26.2886 28.579 26.2886H20.7155L20.6494 26.5689C20.1795 28.5613 18.353 30 16.2348 30C14.1165 30 12.2901 28.5613 11.8211 26.569L11.7551 26.2886H3.88977C3.49312 26.2886 3.14405 26.0316 3.03416 25.6565C2.92474 25.2802 3.08441 24.8798 3.42398 24.6759C6.46763 22.8462 7.8184 17.7048 7.66483 13.2916C7.66424 9.57782 10.1599 6.33737 13.7403 5.27278L14.0039 5.19438V4.17729C14.0039 2.9763 15.0065 2 16.2348 2C17.4636 2 18.4656 2.976 18.4656 4.17729V5.19444ZM26.1188 24.2813L26.5458 24.8642H5.90038L6.32732 24.2814C7.66013 22.4617 8.48602 20.0517 8.90143 17.3294C9.15803 15.6478 9.21701 14.1709 9.18283 13.2464C9.18283 9.49492 12.3396 6.44179 16.2235 6.44179C20.099 6.44179 23.2633 9.4877 23.264 13.2151C23.23 14.1658 23.2877 15.6325 23.5445 17.3213C23.9592 20.0483 24.7851 22.4607 26.1188 24.2813Z" fill="black"/>
<path fill-rule="evenodd" clip-rule="evenodd" d="M18.4656 5.19444L18.7294 5.2728C22.3042 6.33495 24.8031 9.56287 24.8062 13.2541C24.7664 14.2641 24.8642 16.0958 25.2305 17.9604C25.8451 21.0888 27.0525 23.4776 29.0445 24.6757C29.3843 24.8798 29.5442 25.2804 29.4351 25.6576C29.3262 26.0315 28.9766 26.2886 28.579 26.2886H20.7155L20.6494 26.5689C20.1795 28.5613 18.353 30 16.2348 30C14.1165 30 12.2901 28.5613 11.8211 26.569L11.7551 26.2886H3.88977C3.49312 26.2886 3.14405 26.0316 3.03416 25.6565C2.92474 25.2802 3.08441 24.8798 3.42398 24.6759C6.46763 22.8462 7.8184 17.7048 7.66483 13.2916C7.66424 9.57782 10.1599 6.33737 13.7403 5.27278L14.0039 5.19438V4.17729C14.0039 2.9763 15.0065 2 16.2348 2C17.4636 2 18.4656 2.976 18.4656 4.17729V5.19444ZM26.1188 24.2813L26.5458 24.8642H5.90038L6.32732 24.2814C7.66013 22.4617 8.48602 20.0517 8.90143 17.3294C9.15803 15.6478 9.21701 14.1709 9.18283 13.2464C9.18283 9.49492 12.3396 6.44179 16.2235 6.44179C20.099 6.44179 23.2633 9.4877 23.264 13.2151C23.23 14.1658 23.2877 15.6325 23.5445 17.3213C23.9592 20.0483 24.7851 22.4607 26.1188 24.2813Z" fill="black"/>
</svg>
