<svg width="32" height="32" viewBox="0 0 32 32" fill="none" xmlns="http://www.w3.org/2000/svg">
<path d="M14.6 20.2H17.4V23H14.6V20.2Z" fill="black"/>
<path d="M14.6 14.6H17.4V17.4H14.6V14.6Z" fill="black"/>
<path d="M14.6 9.00005H17.4V11.8H14.6V9.00005Z" fill="black"/>
<path fill-rule="evenodd" clip-rule="evenodd" d="M4.8 4.80005H27.2C28.7464 4.80005 30 6.05365 30 7.60005V13.2C28.4536 13.2 27.2 14.4537 27.2 16C27.2 17.5464 28.4536 18.8 30 18.8V24.4C30 25.9464 28.7464 27.2 27.2 27.2H4.8C3.2536 27.2 2 25.9464 2 24.4V18.8C3.5464 18.8 4.8 17.5464 4.8 16C4.8 14.4537 3.5464 13.2 2 13.2V7.60005C2 6.05365 3.2536 4.80005 4.8 4.80005ZM28.6 7.60008C28.6 6.82688 27.9732 6.20008 27.2 6.20008H4.8C4.0268 6.20008 3.4 6.82688 3.4 7.60008V12.0381C5.08132 12.6295 6.20624 14.2178 6.20624 16.0001C6.20624 17.7824 5.08132 19.3706 3.4 19.9621V24.4001C3.4 25.1733 4.0268 25.8001 4.8 25.8001H27.2C27.9732 25.8001 28.6 25.1733 28.6 24.4001V19.9621C26.9187 19.3706 25.7938 17.7824 25.7938 16.0001C25.7938 14.2178 26.9187 12.6295 28.6 12.0381V7.60008Z" fill="black"/>
</svg>
