<svg width="32" height="32" viewBox="0 0 32 32" fill="none" xmlns="http://www.w3.org/2000/svg">
<path fill-rule="evenodd" clip-rule="evenodd" d="M24.7403 9.40562H25.334C27.9109 9.40562 30 11.4947 30 14.0716V22.8126H24.6954V29.2213H7.30462V22.7663H2V14.0716C2 11.4947 4.08906 9.40562 6.66601 9.40562H7.3033V2.77881H24.7403V9.40562ZM23.2158 4.25702H8.78019V8.08343H23.2158V4.25702ZM22.0497 26.5782H9.96355V17.3692H22.0497V26.5782ZM23.2621 14.1179C23.2621 15.2603 24.189 16.1871 25.3313 16.1871C26.4737 16.1871 27.4006 15.2603 27.4006 14.1179C27.4006 12.9755 26.4737 12.0487 25.3313 12.0487C24.189 12.0487 23.2621 12.9755 23.2621 14.1179Z" fill="black"/>
</svg>
