<svg width="32" height="32" viewBox="0 0 32 32" fill="none" xmlns="http://www.w3.org/2000/svg">
<path fill-rule="evenodd" clip-rule="evenodd" d="M16.2485 3.75C16.2485 3.33579 16.5843 3 16.9985 3C20.0946 3 23.0862 4.17706 25.4288 6.51967C27.7739 8.86475 28.9485 11.9574 28.9485 14.95C28.9485 15.3642 28.6127 15.7 28.1985 15.7C27.7843 15.7 27.4485 15.3642 27.4485 14.95C27.4485 12.3426 26.4231 9.63525 24.3682 7.58033C22.3108 5.52294 19.7024 4.5 16.9985 4.5C16.5843 4.5 16.2485 4.16421 16.2485 3.75ZM8.67893 6.20956C9.25067 6.45212 9.70145 6.88375 10.0088 7.31407C10.242 7.64047 10.7484 8.26813 11.2934 8.93997C11.3379 8.9948 11.3826 9.04989 11.4274 9.10504C11.9173 9.70857 12.4135 10.32 12.6985 10.7C13.209 11.3806 13.1385 12.122 12.8443 12.7104C12.5751 13.249 12.1088 13.7012 11.672 14.0323C11.2658 14.3884 11.0664 14.5844 10.9642 14.7525C10.9022 14.8543 10.8705 14.9457 10.9261 15.1681C10.9945 15.4415 11.2369 15.9555 11.6726 16.609C12.096 17.2441 12.6648 17.9556 13.3288 18.6197C13.3349 18.6258 13.3409 18.632 13.3468 18.6383C14.6701 20.0561 16.1462 20.8637 16.6927 21.0254C16.9062 21.0768 16.9961 21.0452 17.0961 20.9844C17.2669 20.8804 17.4666 20.6761 17.8341 20.2561C18.1883 19.8513 18.6457 19.3754 19.1881 19.1042C19.4718 18.9623 19.8009 18.8646 20.1643 18.8753C20.5327 18.8862 20.8861 19.007 21.2145 19.226C21.7035 19.552 22.4111 20.13 23.0515 20.6595C23.1508 20.7416 23.2484 20.8226 23.3438 20.9016C23.89 21.3542 24.3606 21.7441 24.6344 21.9397C24.6524 21.9525 24.6698 21.9662 24.6866 21.9806C25.0697 22.3089 25.5181 22.7714 25.7722 23.3473C26.0444 23.9643 26.0834 24.6996 25.6416 25.4359C25.5812 25.5366 25.5162 25.6546 25.4443 25.7852C24.8857 26.7997 23.9088 28.5739 21.4043 28.8926C18.5745 29.3398 14.2501 28.1639 9.06306 22.8752C3.87077 17.581 2.71574 13.2656 3.05431 10.557C3.38916 7.87817 5.45034 6.87191 6.47815 6.37014C6.54433 6.33784 6.60623 6.30762 6.66311 6.27918C7.37675 5.92236 8.0826 5.95658 8.67893 6.20956ZM8.0931 7.59044C7.86443 7.49342 7.62028 7.47764 7.33393 7.62082C7.28231 7.64663 7.22968 7.6727 7.17623 7.69919C6.13213 8.21652 4.77445 8.88922 4.54273 10.743C4.2813 12.8344 5.12627 16.7189 10.134 21.8248C15.1391 26.9281 19.0096 27.7567 21.18 27.4094C21.1885 27.4081 21.197 27.4069 21.2055 27.4058C22.9205 27.1914 23.5321 26.1106 24.1058 25.0968C24.1887 24.9502 24.2708 24.8051 24.3554 24.6641C24.5136 24.4004 24.5026 24.1857 24.3998 23.9527C24.2819 23.6853 24.0396 23.4052 23.7336 23.1394C23.4095 22.9045 22.9003 22.4824 22.3775 22.049C22.2837 21.9712 22.1893 21.893 22.0956 21.8155C21.436 21.27 20.7935 20.748 20.3825 20.474C20.261 20.393 20.1768 20.3763 20.1202 20.3747C20.0587 20.3729 19.9752 20.3877 19.8589 20.4458C19.6013 20.5746 19.3087 20.8487 18.9629 21.2439C18.6304 21.6239 18.2802 22.0196 17.876 22.2656C17.4028 22.5537 16.8943 22.622 16.3166 22.4776C16.3085 22.4756 16.3005 22.4734 16.2925 22.4711C15.4309 22.225 13.7241 21.2375 12.2591 19.6712C11.527 18.9379 10.8991 18.1529 10.4245 17.441C9.96011 16.7445 9.60255 16.0585 9.47091 15.5319C9.3265 14.9543 9.39484 14.4457 9.68287 13.9725C9.9289 13.5684 10.3246 13.2181 10.7046 12.8856C10.7188 12.8732 10.7334 12.8613 10.7485 12.85C11.105 12.5826 11.3768 12.2914 11.5027 12.0396C11.6085 11.828 11.5881 11.7194 11.4985 11.6C11.2319 11.2446 10.754 10.6557 10.2547 10.0404C10.2128 9.98879 10.1707 9.93694 10.1286 9.88503C9.59868 9.23187 9.05507 8.55953 8.78822 8.18593C8.59559 7.91625 8.34636 7.69788 8.0931 7.59044ZM16.2485 6.95C16.2485 6.53579 16.5843 6.2 16.9985 6.2C19.1865 6.2 21.4807 7.07149 23.1288 8.71967C24.8686 10.4594 25.7485 12.6498 25.7485 14.95C25.7485 15.3642 25.4127 15.7 24.9985 15.7C24.5843 15.7 24.2485 15.3642 24.2485 14.95C24.2485 13.0502 23.5284 11.2406 22.0682 9.78033C20.7164 8.42851 18.8105 7.7 16.9985 7.7C16.5843 7.7 16.2485 7.36421 16.2485 6.95ZM16.2485 10.15C16.2485 9.73579 16.5843 9.4 16.9985 9.4C18.3881 9.4 19.8817 9.97256 20.9288 11.0197C21.976 12.0668 22.5485 13.5604 22.5485 14.95C22.5485 15.3642 22.2127 15.7 21.7985 15.7C21.3843 15.7 21.0485 15.3642 21.0485 14.95C21.0485 13.9396 20.6211 12.8332 19.8682 12.0803C19.1153 11.3274 18.0089 10.9 16.9985 10.9C16.5843 10.9 16.2485 10.5642 16.2485 10.15Z" fill="black"/>
</svg>
