<svg width="32" height="32" viewBox="0 0 32 32" fill="none" xmlns="http://www.w3.org/2000/svg">
<path fill-rule="evenodd" clip-rule="evenodd" d="M23.1846 7.94584L29.0885 2.07629L30 2.99311L23.9982 8.95994C24.8483 10.2168 25.3368 11.7149 25.3382 13.3035C25.3003 14.2617 25.3932 15.9994 25.7407 17.7683C26.3237 20.7362 27.4692 23.0025 29.359 24.1392C29.6814 24.3327 29.8331 24.7128 29.7296 25.0706C29.6262 25.4254 29.2946 25.6693 28.9174 25.6693H21.4573L21.3946 25.9352C20.9488 27.8254 19.216 29.1903 17.2065 29.1903C15.1968 29.1903 13.4642 27.8254 13.0192 25.9353L12.9565 25.6693H7.19085L2.91147 29.9237L2 29.0069L5.36675 25.6598C5.04515 25.6116 4.77527 25.3845 4.68304 25.0696C4.57922 24.7126 4.73071 24.3327 5.05286 24.1393C7.94036 22.4034 9.22183 17.5258 9.07614 13.339C9.07559 9.8158 11.4432 6.74158 14.8399 5.73161L15.09 5.65723V4.69232C15.09 3.55294 16.0412 2.62673 17.2065 2.62673C18.3722 2.62673 19.3229 3.55266 19.3229 4.69232V5.65729L19.573 5.73163C20.9868 6.15167 22.2231 6.92874 23.1846 7.94584ZM22.1538 8.97059C20.9296 7.66445 19.1588 6.84066 17.1957 6.84066C13.5111 6.84066 10.5163 9.73717 10.5163 13.2962C10.5487 14.1733 10.4927 15.5744 10.2493 17.1698C9.95242 19.1152 9.43457 20.8926 8.65663 22.3891L22.1538 8.97059ZM8.55003 24.318H26.9885L26.5834 23.765C25.3182 22.0377 24.5346 19.7492 24.1412 17.162C23.8975 15.5599 23.8428 14.1685 23.875 13.2665C23.8748 12.0783 23.5357 10.9631 22.946 10.006L8.55003 24.318Z" fill="black"/>
</svg>
