<svg width="32" height="32" viewBox="0 0 32 32" fill="none" xmlns="http://www.w3.org/2000/svg">
<path d="M15.9998 7.14286C14.5797 7.14286 13.4209 5.99159 13.4209 4.57143C13.4209 3.15127 14.5797 2 15.9998 2C17.42 2 18.5788 3.15127 18.5788 4.57143C18.5788 5.99159 17.42 7.14286 15.9998 7.14286Z" fill="black"/>
<path d="M15.9998 18.5714C14.5797 18.5714 13.4209 17.4201 13.4209 15.9999C13.4209 14.5798 14.5797 13.4285 15.9998 13.4285C17.42 13.4285 18.5788 14.5798 18.5788 15.9999C18.5788 17.4201 17.42 18.5714 15.9998 18.5714Z" fill="black"/>
<path d="M13.4209 27.4286C13.4209 28.8487 14.5797 30 15.9998 30C17.42 30 18.5788 28.8487 18.5788 27.4286C18.5788 26.0084 17.42 24.8571 15.9998 24.8571C14.5797 24.8571 13.4209 26.0084 13.4209 27.4286Z" fill="black"/>
</svg>
