<svg width="32" height="32" viewBox="0 0 32 32" fill="none" xmlns="http://www.w3.org/2000/svg">
<path d="M12.0801 5.64C12.0801 6.10392 11.704 6.48 11.2401 6.48C10.7762 6.48 10.4001 6.10392 10.4001 5.64C10.4001 5.17608 10.7762 4.8 11.2401 4.8C11.704 4.8 12.0801 5.17608 12.0801 5.64Z" fill="black"/>
<path fill-rule="evenodd" clip-rule="evenodd" d="M7.6001 4.80002C7.6001 3.25361 8.8491 2 10.4026 2H21.5976C23.1454 2 24.4001 3.2575 24.4001 4.80002V27.2C24.4001 28.7464 23.1511 30 21.5976 30H10.4026C8.85481 30 7.6001 28.7425 7.6001 27.2V4.80002ZM9.0001 4.80002V23.14H23.0001V4.80002C23.0001 4.02933 22.3708 3.4 21.5976 3.4H10.4026C9.62444 3.4 9.0001 4.02467 9.0001 4.80002ZM9.0001 27.2V24.54H23.0001V27.2C23.0001 27.9753 22.3758 28.6 21.5976 28.6H10.4026C9.62938 28.6 9.0001 27.9707 9.0001 27.2Z" fill="black"/>
</svg>
