<svg width="32" height="32" viewBox="0 0 32 32" fill="none" xmlns="http://www.w3.org/2000/svg">
<path fill-rule="evenodd" clip-rule="evenodd" d="M11.7276 23.0379H3.23935C1.59557 23.0379 1.59557 25.4649 3.23935 25.4649H11.7276C13.3713 25.4649 13.3713 23.0379 11.7276 23.0379Z" fill="black"/>
<path fill-rule="evenodd" clip-rule="evenodd" d="M20.2681 13.2192H25.8341L23.686 15.3603C22.5032 16.4957 24.2339 18.2727 25.3732 17.0851L29.6608 12.8552C30.1131 12.3524 30.1131 11.6243 29.6608 11.1302L25.3732 6.90017C25.1384 6.6748 24.8687 6.53612 24.5035 6.53612C23.4076 6.53612 22.9033 7.85371 23.686 8.62513L25.8341 10.7661H20.2681C18.6243 10.7661 18.6243 13.2192 20.2681 13.2192Z" fill="black"/>
<path fill-rule="evenodd" clip-rule="evenodd" d="M28.7476 23.0116H20.9029L12.78 11.3121C12.5538 10.9914 12.1451 10.766 11.7276 10.766H6.16153L8.35317 8.62501C9.12718 7.85359 8.57933 6.49268 7.44001 6.53605C7.11825 6.53605 6.84859 6.67468 6.62243 6.9001L2.37827 11.1301C1.87391 11.6328 1.87391 12.3609 2.37827 12.855L6.62243 17.0851C7.76181 18.2639 9.54469 16.4956 8.35317 15.3601L6.16153 13.2191H11.0928L19.2592 24.9186C19.4853 25.2393 19.8506 25.4647 20.2594 25.4647H28.7476C30.3914 25.4647 30.3914 23.0116 28.7476 23.0116Z" fill="black"/>
</svg>
