<svg width="32" height="32" viewBox="0 0 32 32" fill="none" xmlns="http://www.w3.org/2000/svg">
<path fill-rule="evenodd" clip-rule="evenodd" d="M25.8995 6.1059C23.3 3.5078 19.8582 2.0583 16.1896 2.00984C16.1257 2.00405 16.0623 2 16 2C15.9377 2 15.8743 2.00405 15.8104 2.00984C12.1418 2.05824 8.69996 3.50774 6.10045 6.10584C3.45624 8.74874 2 12.2625 2 16C2 19.7375 3.45624 23.2513 6.10051 25.8942C8.70001 28.4923 12.1418 29.9418 15.8105 29.9902C15.8744 29.996 15.9378 30 16 30C16.0623 30 16.1257 29.996 16.1896 29.9902C19.8582 29.9418 23.3001 28.4923 25.8995 25.8942C28.5438 23.2514 30 19.7376 30 16C30.0001 12.2625 28.5438 8.74874 25.8995 6.1059ZM7.27738 7.28212C8.76465 5.79566 10.5651 4.7363 12.5298 4.16394C12.087 4.67346 11.6565 5.2595 11.2559 5.90891C10.7449 6.73721 10.3024 7.63497 9.93193 8.58418H6.14358C6.4883 8.12847 6.86618 7.6931 7.27738 7.28212ZM5.08321 10.2476H9.37156C8.92562 11.8074 8.66188 13.4692 8.59671 15.1683H3.69257C3.80775 13.429 4.28319 11.7598 5.08321 10.2476ZM5.08327 21.7524C4.28314 20.2402 3.8077 18.571 3.69252 16.8317H8.59666C8.66183 18.5309 8.92556 20.1927 9.37151 21.7524H5.08327ZM7.27743 24.7179C6.86612 24.307 6.48825 23.8716 6.14358 23.4159H9.93198C10.3025 24.3651 10.7449 25.2628 11.2559 26.0911C11.6566 26.7406 12.087 27.3266 12.5298 27.8361C10.5652 27.2638 8.76476 26.2044 7.27743 24.7179ZM15.1678 27.9943C14.4745 27.5409 13.5435 26.63 12.6724 25.2181C12.323 24.6519 12.009 24.0488 11.7314 23.4159H15.1677L15.1678 27.9943ZM15.1678 21.7524H11.1081C10.6217 20.2112 10.3331 18.5449 10.2622 16.8317H15.1678V21.7524ZM15.1678 15.1683H10.2622C10.333 13.4551 10.6217 11.7888 11.1081 10.2476H15.1678V15.1683ZM15.1678 8.58413H11.7315C12.0091 7.95128 12.3231 7.34819 12.6725 6.78195C13.5435 5.37002 14.4745 4.45909 15.1678 4.00578L15.1678 8.58413ZM26.9168 10.2476C27.7169 11.7599 28.1923 13.429 28.3075 15.1683H23.4033C23.3381 13.4691 23.0744 11.8074 22.6284 10.2476H26.9168ZM24.7227 7.28212C25.1339 7.6931 25.5118 8.12847 25.8565 8.58418H22.0681C21.6976 7.63497 21.2553 6.73721 20.7442 5.90891C20.3436 5.2595 19.9131 4.67346 19.4703 4.16394C21.4349 4.7363 23.2354 5.79566 24.7227 7.28212ZM16.8322 4.00578C17.5255 4.45914 18.4565 5.37002 19.3276 6.78195C19.6769 7.34819 19.991 7.95128 20.2685 8.58413H16.8322L16.8322 4.00578ZM16.8322 10.2476H20.8919C21.3783 11.7888 21.667 13.4552 21.7378 15.1683H16.8322V10.2476ZM21.7378 16.8317C21.6669 18.5449 21.3783 20.2113 20.8919 21.7524H16.8321V16.8317H21.7378ZM16.8322 27.9943V23.4159H20.2685C19.9909 24.0488 19.6769 24.6519 19.3275 25.2181C18.4565 26.6301 17.5255 27.5409 16.8322 27.9943ZM24.7227 24.718C23.2354 26.2045 21.4349 27.2638 19.4703 27.8362C19.9131 27.3266 20.3436 26.7406 20.7442 26.0912C21.2552 25.2629 21.6976 24.3651 22.0681 23.4159H25.8565C25.5118 23.8716 25.1339 24.307 24.7227 24.718ZM26.9168 21.7524H22.6284C23.0744 20.1927 23.3382 18.5309 23.4033 16.8317H28.3074C28.1923 18.571 27.7168 20.2402 26.9168 21.7524Z" fill="black"/>
</svg>
