<svg width="32" height="32" viewBox="0 0 32 32" fill="none" xmlns="http://www.w3.org/2000/svg">
<path d="M25.1 25.4H8C4.7 25.4 2 22.7 2 19.4C2 16.1 4.6 13.5 7.8 13.4C8.7 9.7 12 7 15.8 7C20.3 7 24 10.7 24 15.2C24 15.3 24 15.4 24 15.5H25.1C27.8 15.5 30 17.7 30 20.4C30 23.1 27.8 25.4 25.1 25.4ZM8 14.8C5.5 14.8 3.5 16.8 3.5 19.3C3.5 21.8 5.5 23.8 8 23.8H25C26.9 23.8 28.4 22.3 28.4 20.4C28.4 18.5 27 17 25.1 17H23.2C23 17 22.8 16.9 22.6 16.7C22.5 16.5 22.4 16.3 22.4 16.1C22.5 15.7 22.5 15.4 22.5 15.1C22.5 11.4 19.5 8.4 15.8 8.4C12.5 8.4 9.7 10.8 9.2 14.1C9.1 14.5 8.8 14.8 8.5 14.8H8Z" fill="black"/>
</svg>
