<svg width="32" height="32" viewBox="0 0 32 32" fill="none" xmlns="http://www.w3.org/2000/svg">
<path d="M26.1139 7H5.78648C3.69395 7 2 8.69395 2 10.7865V21.0498C2 23.1423 3.69395 24.8363 5.78648 24.8363H26.2135C28.306 24.8363 30 23.1423 30 21.0498V10.7865C29.9004 8.69395 28.2064 7 26.1139 7ZM28.4057 21.0498C28.4057 22.2456 27.4093 23.242 26.2135 23.242H5.78648C4.59075 23.242 3.59431 22.2456 3.59431 21.0498V10.7865C3.59431 9.59075 4.59075 8.59431 5.78648 8.59431H26.2135C27.4093 8.59431 28.4057 9.59075 28.4057 10.7865V21.0498Z" fill="black"/>
<path d="M9.6726 13.9751C9.97153 13.5765 10.3701 13.3772 10.8683 13.3772C11.2669 13.3772 11.5658 13.4769 11.7651 13.6762C11.9644 13.8754 12.1637 14.1744 12.1637 14.573H13.6584C13.5587 13.7758 13.2598 13.1779 12.7616 12.7794C12.2633 12.3808 11.5658 12.1815 10.7687 12.1815C10.1708 12.1815 9.57295 12.2811 9.17438 12.5801C8.67616 12.879 8.37722 13.2776 8.07829 13.7758C7.879 14.274 7.77936 14.9715 7.77936 15.669V16.1673C7.77936 16.8648 7.879 17.4626 8.17794 17.9609C8.47687 18.4591 8.7758 18.8577 9.27402 19.1566C9.77224 19.4555 10.2705 19.5552 10.8683 19.5552C11.4662 19.5552 11.9644 19.4555 12.4626 19.2562C12.9609 19.0569 13.3594 18.8577 13.5587 18.5587V15.669H10.7687V16.7651H12.1637V17.9609C11.9644 18.2598 11.5658 18.3594 10.968 18.3594C10.3701 18.3594 9.97153 18.1601 9.6726 17.7616C9.37366 17.363 9.27402 16.7651 9.27402 16.0676V15.669C9.27402 14.8719 9.37366 14.274 9.6726 13.9751Z" fill="black"/>
<path d="M17.2456 12.2811H15.7509V19.4555H17.2456V12.2811Z" fill="black"/>
<path d="M19.4377 19.4555H20.9324V16.5658H23.8221V15.3701H20.9324V13.4769H24.121V12.2811H19.4377V19.4555Z" fill="black"/>
</svg>
