<svg width="32" height="32" viewBox="0 0 32 32" fill="none" xmlns="http://www.w3.org/2000/svg">
<path fill-rule="evenodd" clip-rule="evenodd" d="M1.51325 6.49897C1.51423 4.7584 2.92552 3.3479 4.6661 3.3479H27.3501C29.0876 3.35299 30.4949 4.76028 30.5 6.49781L30.5 6.49928L30.5 20.3453L30.5 20.3468C30.4949 22.0843 29.0876 23.4916 27.3501 23.4967L27.3486 23.4967H7.50832L1.49927 29.3359L1.51325 6.49897ZM4.6661 4.3479C3.47758 4.3479 2.51391 5.31104 2.51325 6.49955L2.50072 26.9684L7.10247 22.4967L27.3472 22.4967C28.5342 22.4929 29.4962 21.5316 29.5 20.3445L29.5 6.50074C29.4962 5.31372 28.5349 4.35175 27.3479 4.3479H4.6661Z" fill="black"/>
<path d="M10.1147 14.8953C10.9282 14.8953 11.5877 14.2358 11.5877 13.4223C11.5877 12.6088 10.9282 11.9493 10.1147 11.9493C9.30117 11.9493 8.64169 12.6088 8.64169 13.4223C8.64169 14.2358 9.30117 14.8953 10.1147 14.8953Z" fill="black"/>
<path d="M16.0066 14.8953C16.8201 14.8953 17.4796 14.2358 17.4796 13.4223C17.4796 12.6088 16.8201 11.9493 16.0066 11.9493C15.1931 11.9493 14.5336 12.6088 14.5336 13.4223C14.5336 14.2358 15.1931 14.8953 16.0066 14.8953Z" fill="black"/>
<path d="M21.8986 14.8953C22.7121 14.8953 23.3716 14.2358 23.3716 13.4223C23.3716 12.6088 22.7121 11.9493 21.8986 11.9493C21.0851 11.9493 20.4256 12.6088 20.4256 13.4223C20.4256 14.2358 21.0851 14.8953 21.8986 14.8953Z" fill="black"/>
</svg>
