<svg width="32" height="32" viewBox="0 0 32 32" fill="none" xmlns="http://www.w3.org/2000/svg">
<path fill-rule="evenodd" clip-rule="evenodd" d="M8.73084 3.44463C9.23084 3.80669 9.57264 4.32591 9.79928 4.77917C9.92429 5.0292 10.1495 5.45662 10.4084 5.94798C10.913 6.90575 11.5456 8.10647 11.8138 8.70998C12.1478 9.46143 11.9552 10.1536 11.5432 10.678C11.1657 11.1584 10.5976 11.5185 10.0639 11.7854C9.55165 12.0415 9.31929 12.1898 9.19792 12.3179C9.13 12.3896 9.07846 12.4666 9.07846 12.7146C9.07846 12.9775 9.18993 13.5257 9.46773 14.2625C9.73719 14.9771 10.1384 15.804 10.6581 16.6071C11.1716 17.4007 11.8074 18.1317 12.3979 18.6985C13.0094 19.2856 13.5039 19.631 13.7239 19.7252C13.9482 19.8213 14.0304 19.8067 14.1163 19.7781C14.2767 19.7246 14.5062 19.5817 14.968 19.2226C15.4408 18.8548 15.9952 18.4975 16.5817 18.3595C17.227 18.2077 17.9027 18.3282 18.4588 18.8843C19.1932 19.6187 20.6933 21.5199 21.2198 22.2522C21.5496 22.6419 21.9003 23.1681 22.0356 23.7769C22.184 24.4449 22.0603 25.1701 21.489 25.8129C21.4102 25.9015 21.3251 26.0038 21.2323 26.1156C20.4719 27.03 19.19 28.5719 16.5686 28.3622C13.7437 28.1362 9.76506 25.924 5.79962 19.8233C1.82617 13.7103 1.51956 9.26956 2.41694 6.57741C2.87805 5.19411 3.67826 4.37702 4.54018 3.87801C5.23741 3.47435 5.97794 3.28492 6.48534 3.15513C6.57507 3.13218 6.6575 3.11109 6.73112 3.09101C7.51817 2.87636 8.20013 3.06032 8.73084 3.44463ZM7.85107 4.65954C7.65678 4.51885 7.43875 4.45281 7.1258 4.53816C7.02277 4.56625 6.91948 4.59308 6.81604 4.61994C6.30692 4.75214 5.79413 4.88529 5.29173 5.17615C4.72865 5.50215 4.17887 6.03506 3.83997 7.05176C3.13735 9.15961 3.23074 13.1188 7.05729 19.0058C10.8919 24.9052 14.5132 26.693 16.6883 26.867C18.5012 27.012 19.2954 26.0755 20.0575 25.1766C20.1608 25.0549 20.2634 24.9339 20.3679 24.8163C20.5966 24.559 20.6229 24.3343 20.5713 24.1023C20.5096 23.8246 20.3229 23.5106 20.059 23.2027C20.0446 23.1859 20.031 23.1685 20.0182 23.1505C19.5266 22.4623 18.0547 20.6014 17.3981 19.9449C17.2542 19.801 17.1299 19.7715 16.9252 19.8196C16.6617 19.8816 16.3161 20.0743 15.8889 20.4066C15.4507 20.7474 15.0302 21.0546 14.5906 21.2011C14.0765 21.3725 13.6088 21.3078 13.133 21.1039C12.653 20.8982 11.9975 20.3936 11.3591 19.7806C10.6995 19.1475 9.98528 18.3284 9.39878 17.422C8.81848 16.5252 8.36973 15.602 8.06418 14.7917C7.76698 14.0035 7.57846 13.2516 7.57846 12.7146C7.57846 12.1626 7.72691 11.6896 8.10899 11.2863C8.43762 10.9394 8.90526 10.6877 9.39305 10.4438C9.85932 10.2106 10.1912 9.97078 10.3637 9.75122C10.5017 9.57557 10.5091 9.46774 10.4431 9.31919C10.1917 8.75343 9.62856 7.68599 9.14179 6.76323C8.8655 6.23947 8.61381 5.76233 8.45764 5.44999C8.28427 5.10326 8.07608 4.82247 7.85107 4.65954Z" fill="black"/>
<path fill-rule="evenodd" clip-rule="evenodd" d="M15.5785 3.81458C15.5785 3.40037 15.9142 3.06458 16.3285 3.06458H24.4285C24.8427 3.06458 25.1785 3.40037 25.1785 3.81458C25.1785 4.2288 24.8427 4.56458 24.4285 4.56458H16.3285C15.9142 4.56458 15.5785 4.2288 15.5785 3.81458Z" fill="black"/>
<path fill-rule="evenodd" clip-rule="evenodd" d="M26.8785 3.81458C26.8785 3.40037 27.2142 3.06458 27.6285 3.06458H28.7285C29.1427 3.06458 29.4785 3.40037 29.4785 3.81458C29.4785 4.2288 29.1427 4.56458 28.7285 4.56458H27.6285C27.2142 4.56458 26.8785 4.2288 26.8785 3.81458Z" fill="black"/>
<path fill-rule="evenodd" clip-rule="evenodd" d="M15.5785 8.81458C15.5785 8.40037 15.9142 8.06458 16.3285 8.06458H24.4285C24.8427 8.06458 25.1785 8.40037 25.1785 8.81458C25.1785 9.2288 24.8427 9.56458 24.4285 9.56458H16.3285C15.9142 9.56458 15.5785 9.2288 15.5785 8.81458Z" fill="black"/>
<path fill-rule="evenodd" clip-rule="evenodd" d="M26.8785 8.81458C26.8785 8.40037 27.2142 8.06458 27.6285 8.06458H28.7285C29.1427 8.06458 29.4785 8.40037 29.4785 8.81458C29.4785 9.2288 29.1427 9.56458 28.7285 9.56458H27.6285C27.2142 9.56458 26.8785 9.2288 26.8785 8.81458Z" fill="black"/>
<path fill-rule="evenodd" clip-rule="evenodd" d="M15.5785 13.8146C15.5785 13.4004 15.9142 13.0646 16.3285 13.0646H24.4285C24.8427 13.0646 25.1785 13.4004 25.1785 13.8146C25.1785 14.2288 24.8427 14.5646 24.4285 14.5646H16.3285C15.9142 14.5646 15.5785 14.2288 15.5785 13.8146Z" fill="black"/>
<path fill-rule="evenodd" clip-rule="evenodd" d="M26.8785 13.8146C26.8785 13.4004 27.2142 13.0646 27.6285 13.0646H28.7285C29.1427 13.0646 29.4785 13.4004 29.4785 13.8146C29.4785 14.2288 29.1427 14.5646 28.7285 14.5646H27.6285C27.2142 14.5646 26.8785 14.2288 26.8785 13.8146Z" fill="black"/>
</svg>
