<svg width="32" height="32" viewBox="0 0 32 32" fill="none" xmlns="http://www.w3.org/2000/svg">
<path d="M16.6887 6.12132L19.4862 3.32382C19.7859 3.02409 19.7859 2.52453 19.4862 2.2248C19.1864 1.92507 18.6869 1.92507 18.3872 2.2248L14.2908 6.32114C14.1909 6.42105 14.091 6.62087 14.091 6.8207C14.091 7.02052 14.1909 7.22034 14.2908 7.32025L18.3872 11.4166C18.4871 11.5165 18.6869 11.6164 18.8867 11.6164C19.0865 11.6164 19.2864 11.5165 19.3863 11.4166C19.686 11.1169 19.686 10.6173 19.3863 10.3176L16.5888 7.52007C21.9839 7.91971 26.1802 12.4157 26.1802 17.9108C26.1802 23.7056 21.4844 28.4014 15.6896 28.4014C9.89474 28.4014 5.49866 23.8055 5.49866 18.0107C5.49866 17.6111 5.19893 17.2114 4.69938 17.2114C4.19982 17.2114 4 17.6111 4 18.0107C4 24.6048 9.39518 30 15.9893 30C22.5834 30 27.9786 24.6048 27.9786 18.0107C27.8787 11.7163 22.8831 6.52096 16.6887 6.12132Z" fill="black"/>
</svg>
