<svg width="32" height="32" viewBox="0 0 32 32" fill="none" xmlns="http://www.w3.org/2000/svg">
<path fill-rule="evenodd" clip-rule="evenodd" d="M8.80435 7.52358C8.80435 6.21385 9.8661 5.1521 11.1758 5.1521H20.9726L20.98 5.15232C22.2329 5.18926 23.2214 6.2291 23.1957 7.48152V8.80427H28.1272C29.4361 8.80811 30.4962 9.86822 30.5 11.1771L30.5 11.1786L30.5 24.4778C30.5 25.7867 29.439 26.8478 28.1301 26.8478H3.88154L3.88007 26.8477C2.56719 26.8439 1.50385 25.7806 1.5 24.4677L1.5 24.4662V11.1743C1.5 9.86536 2.56109 8.80427 3.87001 8.80427H8.80435V7.52358ZM11.1758 6.1521C10.4184 6.1521 9.80435 6.76613 9.80435 7.52358V9.80427H3.87001C3.11337 9.80427 2.5 10.4176 2.5 11.1743V24.4654C2.5026 25.2278 3.12002 25.8452 3.8824 25.8478H28.1301C28.8867 25.8478 29.5 25.2344 29.5 24.4778V11.1789C29.4972 10.4207 28.8831 9.80682 28.1248 9.80427H22.1957V7.4645C22.2119 6.76127 21.6594 6.17644 20.9573 6.1521H11.1758Z" fill="black"/>
<path fill-rule="evenodd" clip-rule="evenodd" d="M17.8983 12.7966C16.0157 12.0176 13.8493 12.4496 12.4095 13.891C10.9696 15.3325 10.54 17.4994 11.321 19.3811C12.102 21.2627 13.9396 22.4885 15.9768 22.4869C18.7558 22.4808 21.0063 20.2278 21.0092 17.4488C21.0086 15.4116 19.7807 13.5754 17.8983 12.7966ZM11.702 13.1843C13.4277 11.4567 16.0243 10.9389 18.2806 11.8725C20.537 12.8061 22.0087 15.0072 22.0092 17.449C22.0058 20.7793 19.3089 23.4798 15.9786 23.4869C13.5368 23.489 11.3335 22.0198 10.3974 19.7644C9.46135 17.5091 9.97626 14.9119 11.702 13.1843Z" fill="black"/>
</svg>
