<svg width="32" height="32" viewBox="0 0 32 32" fill="none" xmlns="http://www.w3.org/2000/svg">
<path fill-rule="evenodd" clip-rule="evenodd" d="M20.6676 16.041C20.6805 13.5234 18.5257 11.3375 16.0218 11.3254C13.5269 11.3134 11.3426 13.4769 11.3333 15.9687C11.3239 18.4931 13.4688 20.6559 15.989 20.6641C18.4804 20.6722 20.6548 18.5227 20.6676 16.041ZM10.0606 15.964C10.0725 12.7685 12.8299 10.0373 16.0279 10.0527C19.2362 10.0682 21.9569 12.8281 21.9403 16.0475C21.9239 19.2321 19.1774 21.9472 15.9848 21.9368C12.7611 21.9264 10.0485 19.1911 10.0606 15.964ZM28.7858 13.0387C29.4241 13.1277 29.7822 13.4994 29.8702 14.1368C30.0416 15.3789 30.0417 16.621 29.8701 17.8605C29.7812 18.5024 29.3943 18.8857 28.7565 18.9697C28.5425 18.9979 28.357 19.0226 27.9933 19.0712C27.0639 19.1956 26.6145 19.2545 26.1274 19.3141C25.9178 19.8476 25.7133 20.3431 25.506 20.8164C25.8797 21.2951 26.2168 21.7336 26.8932 22.6177C26.9934 22.7486 26.9934 22.7486 27.0869 22.8709C27.5348 23.4559 27.5323 23.9777 27.0799 24.559C26.341 25.5084 25.4968 26.3517 24.5485 27.0871C23.9898 27.5204 23.4462 27.5194 22.8819 27.0875C22.7799 27.0095 22.7799 27.0095 22.6779 26.9315C21.7593 26.2287 21.3164 25.888 20.8236 25.5021C20.331 25.7243 19.8272 25.9332 19.3141 26.1284C19.2713 26.477 19.2289 26.8057 19.1463 27.4364C19.0652 28.0547 19.0306 28.3226 18.9891 28.6569C18.8957 29.4083 18.5151 29.7978 17.7644 29.8908C16.593 30.0359 15.4193 30.0363 14.2437 29.8925C13.5051 29.8022 13.1153 29.4207 13.0216 28.6864C12.9943 28.4723 12.972 28.3003 12.922 27.9151C12.8078 27.0367 12.7548 26.6187 12.6983 26.1378C12.1908 25.9576 11.6826 25.7463 11.1762 25.5064C10.7775 25.8224 10.4253 26.0941 9.68957 26.6568C9.41588 26.8661 9.29483 26.9588 9.14493 27.0739C8.55105 27.5303 8.01832 27.5327 7.43274 27.0752C6.48824 26.3372 5.65131 25.5007 4.924 24.5648C4.47223 23.9836 4.46971 23.4587 4.9165 22.8764C5.02735 22.7319 5.11749 22.6143 5.31466 22.3569C5.89207 21.6029 6.18096 21.2273 6.49533 20.8241C6.29586 20.3685 6.09778 19.8883 5.86989 19.3132C5.3945 19.2554 4.95222 19.1975 4.07588 19.0803C3.6642 19.0252 3.47282 18.9997 3.2487 18.9703C2.61044 18.8866 2.21672 18.5064 2.12914 17.8646C1.95778 16.6081 1.9583 15.3568 2.13292 14.114C2.22 13.494 2.58748 13.1264 3.21021 13.04C4.37281 12.8785 5.10694 12.7811 5.86161 12.6919C6.0329 12.2323 6.22596 11.7746 6.49627 11.1742C6.16582 10.7493 5.86191 10.3548 5.256 9.56599C5.09625 9.35803 5.02576 9.26628 4.93754 9.15154C4.46551 8.53765 4.46327 8.02865 4.93528 7.4202C5.66739 6.47663 6.50638 5.63982 7.45115 4.91115C8.02856 4.46582 8.56497 4.47135 9.14031 4.91733C9.36693 5.09298 9.55023 5.23421 9.95824 5.54794C10.5566 6.00805 10.8593 6.24176 11.1791 6.49208C11.6581 6.28149 12.1583 6.07514 12.6911 5.86716C12.7284 5.57238 12.767 5.27711 12.8392 4.73008C12.929 4.05051 12.9683 3.7478 13.015 3.37143C13.1135 2.57711 13.466 2.21698 14.2607 2.1121C15.4326 1.95736 16.6311 1.96448 17.8688 2.12315C18.5197 2.20658 18.9012 2.63612 18.9865 3.30737C19.0272 3.62764 19.0608 3.88567 19.1364 4.46082C19.2266 5.14667 19.2727 5.50135 19.3186 5.86975C19.8377 6.06956 20.3392 6.27748 20.8245 6.49486C21.2596 6.15493 21.653 5.85243 22.4563 5.23771C22.6747 5.07055 22.7674 4.99962 22.8841 4.91019C23.4624 4.46711 24.001 4.47759 24.5727 4.92665C25.5373 5.68427 26.3787 6.52763 27.0953 7.46516C27.1726 7.56639 27.2269 7.66177 27.2953 7.80161C27.3449 7.90429 27.3643 7.94415 27.386 7.98466L27.5452 8.28296L27.3871 8.58189C27.3745 8.6058 27.3614 8.63193 27.3452 8.66531C27.3367 8.68288 27.3226 8.7123 27.2973 8.76493C27.2245 8.9156 27.1689 9.01488 27.0883 9.12153C26.554 9.82867 26.0281 10.5131 25.507 11.1792C25.7512 11.7162 25.9573 12.2097 26.135 12.6905C26.9426 12.7881 27.7871 12.8995 28.7858 13.0387ZM8.36943 26.0648C8.52037 25.9488 8.64193 25.8557 8.91238 25.6489C9.69137 25.0531 10.036 24.7869 10.459 24.4508C10.828 24.1576 11.2128 24.1124 11.6429 24.319C12.1558 24.5652 12.6694 24.7792 13.1797 24.958C13.6372 25.1183 13.8965 25.4247 13.9524 25.9042C14.012 26.416 14.0639 26.8262 14.1839 27.75C14.2343 28.1372 14.2566 28.3099 14.2841 28.5252C14.3035 28.6777 14.2334 28.6091 14.3982 28.6292C15.4707 28.7604 16.54 28.76 17.6079 28.6277C17.7738 28.6072 17.7038 28.6787 17.726 28.5001C17.768 28.162 17.8029 27.8922 17.8823 27.2864C17.9764 26.5684 18.0182 26.2437 18.0661 25.8481C18.1182 25.4177 18.354 25.13 18.76 24.9773C19.3265 24.7644 19.8807 24.5343 20.4199 24.2875C20.8096 24.1093 21.1663 24.1533 21.4986 24.4141C22.0335 24.8339 22.4695 25.1696 23.4383 25.9108C23.5533 25.9987 23.5533 25.9987 23.6553 26.0768C23.7628 26.1591 23.6686 26.1589 23.7686 26.0814C24.6329 25.4111 25.4017 24.6431 26.0755 23.7773C26.14 23.6944 26.1484 23.6763 26.1483 23.7109C26.1481 23.7456 26.14 23.7276 26.0763 23.6444C25.9826 23.522 25.9826 23.522 25.889 23.3997C25.1455 22.4279 24.8135 21.9965 24.3975 21.4649C24.1448 21.1418 24.1218 20.7995 24.283 20.4358C24.5204 19.8996 24.7543 19.3331 24.9966 18.7112C25.141 18.3404 25.4058 18.1194 25.8113 18.0705C26.3609 18.0041 26.8014 17.9466 27.7925 17.814C28.1891 17.761 28.3752 17.7362 28.5904 17.7079C28.765 16.5622 28.7649 15.4374 28.6094 14.3108C27.5788 14.1555 26.7161 14.042 25.8897 13.9429C25.4376 13.8888 25.1332 13.6602 24.9739 13.221C24.7888 12.711 24.5678 12.1828 24.297 11.5935C24.1193 11.207 24.1505 10.8468 24.4146 10.5099C24.9606 9.81353 25.5119 9.0966 26.073 8.35413C26.0839 8.33969 26.0965 8.31909 26.1139 8.28615C25.4341 7.38762 24.6686 6.62032 23.7865 5.92755C23.7074 5.86538 23.6873 5.85599 23.7154 5.85654C23.7469 5.85715 23.7329 5.86322 23.6582 5.92044C23.5412 6.01009 23.4483 6.08122 23.2385 6.24174C22.3634 6.91139 21.9767 7.20898 21.4998 7.58251C21.1645 7.84521 20.8035 7.88246 20.4154 7.70649C19.8753 7.46159 19.3129 7.22864 18.7259 7.0057C18.3519 6.86362 18.1269 6.60402 18.0769 6.19855C18.0233 5.76334 17.9782 5.41472 17.875 4.62976C17.7987 4.04975 17.7649 3.79046 17.7239 3.46774C17.7082 3.34386 17.7501 3.39108 17.7069 3.38555C16.5752 3.24046 15.4867 3.23399 14.4272 3.37388C14.3741 3.3809 14.3316 3.38809 14.2989 3.39514C14.292 3.42884 14.2849 3.47279 14.278 3.52809C14.2308 3.90886 14.1912 4.2138 14.1013 4.89437C14.0143 5.55311 13.9764 5.8446 13.9311 6.20837C13.8819 6.6036 13.6575 6.85773 13.2984 6.99666C12.6828 7.23461 12.1145 7.46881 11.5754 7.70842C11.201 7.87483 10.8495 7.85137 10.5181 7.59113C10.1509 7.30278 9.85391 7.0732 9.18652 6.56002C8.77313 6.24215 8.58896 6.10025 8.3606 5.92325C8.28087 5.86145 8.26119 5.85243 8.28977 5.85273C8.32055 5.85304 8.30492 5.85995 8.22843 5.91895C7.36914 6.5817 6.60684 7.34201 5.94085 8.20036C5.91105 8.23878 5.89141 8.26547 5.87856 8.28129C5.89517 8.30675 5.91759 8.33816 5.94652 8.37578C6.0349 8.49074 6.10551 8.58264 6.26434 8.78941C6.93675 9.66475 7.23596 10.0529 7.61167 10.5351C7.85347 10.8452 7.88762 11.1873 7.72523 11.5452C7.41514 12.2289 7.20937 12.714 7.03031 13.2009C6.8681 13.642 6.57338 13.8899 6.10422 13.9449C5.32823 14.0357 4.5908 14.1332 3.39206 14.2997C3.23501 15.4232 3.23493 16.5542 3.39019 17.6925C3.63977 17.738 3.83191 17.7636 4.21835 17.8153C5.21946 17.9492 5.65263 18.0056 6.19294 18.0701C6.60972 18.1199 6.85757 18.3485 7.00213 18.7153C7.26895 19.392 7.49121 19.9308 7.71765 20.4417C7.87867 20.805 7.85879 21.1464 7.60519 21.4707C7.24839 21.9271 6.96423 22.2962 6.32975 23.1246C6.12767 23.3885 6.03735 23.5064 5.9262 23.6512C5.8639 23.7324 5.85616 23.7495 5.856 23.7154C5.85584 23.6822 5.86453 23.701 5.92888 23.7838C6.59148 24.6363 7.35398 25.3985 8.21634 26.0723C8.24889 26.0978 8.27129 26.1144 8.28447 26.1252C8.30739 26.1106 8.33569 26.0907 8.36943 26.0648Z" fill="black"/>
</svg>
