<svg width="32" height="32" viewBox="0 0 32 32" fill="none" xmlns="http://www.w3.org/2000/svg">
<path d="M23.2121 2C19.5187 2 16.4242 4.99465 16.4242 8.78788C16.4242 12.5811 19.4189 15.4759 23.2121 15.4759C26.9055 15.4759 30 12.4813 30 8.78788C30 5.09447 26.9055 2 23.2121 2ZM25.508 9.98574C25.8075 10.2852 25.8075 10.7843 25.508 11.0838C25.3084 11.1836 25.2086 11.2834 25.0089 11.2834C24.8093 11.2834 24.6096 11.1836 24.5098 11.0838L23.3119 9.88592L21.9144 10.984C21.8146 11.0838 21.615 11.1836 21.4153 11.1836C21.2157 11.1836 21.016 11.1836 20.9162 10.984C20.6168 10.6845 20.6168 10.1854 20.9162 9.88592L22.1141 8.68806L20.9162 7.4902C20.6168 7.19073 20.6168 6.69162 20.9162 6.39216C21.2157 6.09269 21.7148 6.09269 22.0143 6.39216L23.2121 7.59002L24.41 6.39216C24.7094 6.09269 25.2086 6.09269 25.508 6.39216C25.8075 6.69162 25.8075 7.19073 25.508 7.4902L24.3102 8.68806L25.508 9.98574Z" fill="black"/>
<path d="M15.9251 15.2763C16.7521 15.2763 17.4225 14.6059 17.4225 13.779C17.4225 12.952 16.7521 12.2816 15.9251 12.2816C15.0982 12.2816 14.4278 12.952 14.4278 13.779C14.4278 14.6059 15.0982 15.2763 15.9251 15.2763Z" fill="black"/>
<path d="M10.3351 15.2763C11.1621 15.2763 11.8324 14.6059 11.8324 13.779C11.8324 12.952 11.1621 12.2816 10.3351 12.2816C9.50816 12.2816 8.83779 12.952 8.83779 13.779C8.83779 14.6059 9.50816 15.2763 10.3351 15.2763Z" fill="black"/>
<path fill-rule="evenodd" clip-rule="evenodd" d="M2 13.779C2 7.1537 8.35907 2.04991 15.9251 2.04991C16.3386 2.04991 16.6738 2.3851 16.6738 2.79857C16.6738 3.21205 16.3386 3.54724 15.9251 3.54724C8.91722 3.54724 3.49733 8.22598 3.49733 13.779C3.49733 16.9756 5.32606 19.9509 8.24544 21.8344C8.53369 22.0203 8.65867 22.3784 8.54877 22.7033L7.00141 27.2781L11.8939 23.7527C12.0727 23.6238 12.2993 23.5803 12.5131 23.6338C13.633 23.9137 14.7658 24.0107 16.025 24.0107C22.0533 24.0107 26.8952 20.5728 28.1821 16.0688C28.2957 15.6713 28.7101 15.4411 29.1076 15.5547C29.5052 15.6682 29.7354 16.0826 29.6218 16.4802C28.1137 21.7587 22.5741 25.508 16.025 25.508C14.8084 25.508 13.6525 25.4229 12.4924 25.1669L5.98135 29.8587C5.71731 30.049 5.36059 30.0469 5.09882 29.8535C4.83705 29.6601 4.7302 29.3198 4.83448 29.0115L6.94771 22.7637C3.95141 20.638 2 17.3787 2 13.779Z" fill="black"/>
</svg>
