<svg width="32" height="32" viewBox="0 0 32 32" fill="none" xmlns="http://www.w3.org/2000/svg">
<path fill-rule="evenodd" clip-rule="evenodd" d="M17.6738 22.1154H12.6527L11.1311 30H8.41131L9.93288 22.1154H5.38721V19.4808H10.4274L11.7397 12.6731H6.83269V10H12.2533L13.8129 2H16.5327L14.9731 10H19.9942L21.5538 2H24.2926L22.733 10H26.613V12.6731H22.2195L20.9072 19.4808H25.1865V22.1154H20.4126L18.8911 30H16.1523L17.6738 22.1154ZM13.1472 19.4808H18.1683L19.4807 12.6731H14.4595L13.1472 19.4808Z" fill="black"/>
<path fill-rule="evenodd" clip-rule="evenodd" d="M17.6738 22.1154H12.6527L11.1311 30H8.41131L9.93288 22.1154H5.38721V19.4808H10.4274L11.7397 12.6731H6.83269V10H12.2533L13.8129 2H16.5327L14.9731 10H19.9942L21.5538 2H24.2926L22.733 10H26.613V12.6731H22.2195L20.9072 19.4808H25.1865V22.1154H20.4126L18.8911 30H16.1523L17.6738 22.1154ZM13.1472 19.4808H18.1683L19.4807 12.6731H14.4595L13.1472 19.4808Z" fill="black"/>
</svg>
