<svg width="32" height="32" viewBox="0 0 32 32" fill="none" xmlns="http://www.w3.org/2000/svg">
<path fill-rule="evenodd" clip-rule="evenodd" d="M29.6545 2.20342C29.325 1.95239 28.8544 2.01599 28.6034 2.34546L24.3331 7.9502L22.2398 5.7794C21.9523 5.48123 21.4775 5.47259 21.1793 5.76011C20.8812 6.04763 20.8725 6.52243 21.1601 6.8206L23.8601 9.6206C24.0119 9.77811 24.225 9.86143 24.4435 9.84873C24.6619 9.83603 24.8639 9.72858 24.9965 9.55453L29.7965 3.25453C30.0476 2.92505 29.984 2.45445 29.6545 2.20342ZM2.04999 6.3C2.04999 5.88578 2.38577 5.55 2.79999 5.55H18C18.4142 5.55 18.75 5.88578 18.75 6.3C18.75 6.71421 18.4142 7.05 18 7.05H2.79999C2.38577 7.05 2.04999 6.71421 2.04999 6.3ZM29.6499 11.8C29.3186 11.5515 28.8485 11.6186 28.5999 11.95L24.3284 17.6454L22.2398 15.4794C21.9523 15.1812 21.4775 15.1726 21.1793 15.4601C20.8812 15.7476 20.8725 16.2224 21.1601 16.5206L23.8601 19.3206C24.0126 19.4788 24.2269 19.5621 24.4463 19.5486C24.6657 19.535 24.8681 19.4258 24.9999 19.25L29.7999 12.85C30.0485 12.5186 29.9813 12.0485 29.6499 11.8ZM2.04999 16C2.04999 15.5858 2.38577 15.25 2.79999 15.25H18C18.4142 15.25 18.75 15.5858 18.75 16C18.75 16.4142 18.4142 16.75 18 16.75H2.79999C2.38577 16.75 2.04999 16.4142 2.04999 16ZM29.6499 21.5C29.3186 21.2515 28.8485 21.3186 28.5999 21.65L24.3284 27.3454L22.2398 25.1794C21.9523 24.8812 21.4775 24.8726 21.1793 25.1601C20.8812 25.4476 20.8725 25.9224 21.1601 26.2206L23.8601 29.0206C24.0126 29.1788 24.2269 29.2622 24.4463 29.2486C24.6657 29.235 24.8681 29.1258 24.9999 28.95L29.7999 22.55C30.0485 22.2186 29.9813 21.7485 29.6499 21.5ZM2.04999 25.7C2.04999 25.2858 2.38577 24.95 2.79999 24.95H18C18.4142 24.95 18.75 25.2858 18.75 25.7C18.75 26.1142 18.4142 26.45 18 26.45H2.79999C2.38577 26.45 2.04999 26.1142 2.04999 25.7Z" fill="black"/>
</svg>
