<svg width="32" height="32" viewBox="0 0 32 32" fill="none" xmlns="http://www.w3.org/2000/svg">
<path d="M22.0498 7.62177V6.05005C22.0498 5.45005 21.6498 5.05005 21.0498 5.05005H19.5498C18.9498 5.05005 18.5498 5.45005 18.5498 6.05005V11.1218L22.0498 7.62177Z" fill="black"/>
<path d="M13.9502 15.7214V6.05005C13.9502 5.45005 13.5502 5.05005 12.9502 5.05005H11.4502C10.8502 5.05005 10.4502 5.45005 10.4502 6.05005V19.2214L13.9502 15.7214Z" fill="black"/>
<path d="M10.4502 24.8782L13.9502 21.3782V26.55C13.9502 27.15 13.5502 27.55 12.9502 27.55H11.4502C10.9502 27.55 10.4502 27.05 10.4502 26.55V24.8782Z" fill="black"/>
<path d="M18.5498 16.7786L22.0498 13.2786V26.55C22.0498 27.15 21.6498 27.55 21.0498 27.55H19.5498C19.0498 27.55 18.5498 27.05 18.5498 26.55V16.7786Z" fill="black"/>
<path fill-rule="evenodd" clip-rule="evenodd" d="M28.2803 4.21967C28.5732 4.51256 28.5732 4.98744 28.2803 5.28033L5.28033 28.2803C4.98744 28.5732 4.51256 28.5732 4.21967 28.2803C3.92678 27.9874 3.92678 27.5126 4.21967 27.2197L27.2197 4.21967C27.5126 3.92678 27.9874 3.92678 28.2803 4.21967Z" fill="black"/>
</svg>
