<svg width="32" height="32" viewBox="0 0 32 32" fill="none" xmlns="http://www.w3.org/2000/svg">
<path fill-rule="evenodd" clip-rule="evenodd" d="M5.01075 2.75269C5.01075 2.33699 5.34774 2 5.76344 2H26.2366C28.3584 2 30 3.64165 30 5.76344V26.3369C30 28.3749 28.3416 30 26.2366 30H5.76344C5.34774 30 5.01075 29.663 5.01075 29.2473V25.0824H2.75269C2.33699 25.0824 2 24.7454 2 24.3297C2 23.914 2.33699 23.5771 2.75269 23.5771H5.01075V19.5627H2.75269C2.33699 19.5627 2 19.2257 2 18.81C2 18.3943 2.33699 18.0573 2.75269 18.0573H5.01075V13.9427H2.75269C2.33699 13.9427 2 13.6057 2 13.19C2 12.7743 2.33699 12.4373 2.75269 12.4373H5.01075V8.42294H2.75269C2.33699 8.42294 2 8.08595 2 7.67025C2 7.25455 2.33699 6.91756 2.75269 6.91756H5.01075V2.75269ZM6.51613 8.42294H8.77419C9.18989 8.42294 9.52688 8.08595 9.52688 7.67025C9.52688 7.25455 9.18989 6.91756 8.77419 6.91756H6.51613V3.50538H26.2366C27.527 3.50538 28.4946 4.47305 28.4946 5.76344V26.3369C28.4946 27.5104 27.5437 28.4946 26.2366 28.4946H6.51613V25.0824H8.77419C9.18989 25.0824 9.52688 24.7454 9.52688 24.3297C9.52688 23.914 9.18989 23.5771 8.77419 23.5771H6.51613V19.5627H8.77419C9.18989 19.5627 9.52688 19.2257 9.52688 18.81C9.52688 18.3943 9.18989 18.0573 8.77419 18.0573H6.51613V13.9427H8.77419C9.18989 13.9427 9.52688 13.6057 9.52688 13.19C9.52688 12.7743 9.18989 12.4373 8.77419 12.4373H6.51613V8.42294ZM17.645 8.70343C18.0075 8.96524 18.2622 9.34197 18.4049 9.69895C18.4747 9.87336 18.6265 10.1675 18.8159 10.5344C18.8518 10.604 18.8891 10.6762 18.9274 10.7507C19.145 11.1738 19.4016 11.6813 19.5241 12.0487C19.7187 12.6326 19.5545 13.1492 19.2405 13.5305C18.9619 13.8687 18.5696 14.1015 18.2434 14.2646C18.0969 14.3379 17.9887 14.3953 17.9041 14.4469C17.8198 14.4985 17.7797 14.5321 17.7616 14.5502C17.7605 14.5513 17.7595 14.5523 17.7586 14.5532C17.7575 14.5611 17.7563 14.5746 17.7563 14.595C17.7563 14.696 17.8098 14.9605 17.9811 15.401C18.142 15.8149 18.3778 16.3119 18.6679 16.8439C18.9407 17.3438 19.2508 17.7598 19.543 18.052C19.8565 18.3655 20.0695 18.4576 20.1381 18.469C20.2121 18.4814 20.2838 18.5047 20.351 18.5382C20.371 18.5483 20.3849 18.5538 20.3935 18.5568C20.4082 18.5516 20.4389 18.5389 20.4894 18.5087C20.5541 18.4701 20.6375 18.4114 20.7484 18.3226C21.0225 18.1034 21.405 17.8414 21.8346 17.7391C22.0615 17.6851 22.3286 17.669 22.6054 17.7517C22.889 17.8364 23.1268 18.0082 23.3118 18.2395C23.7205 18.7504 24.626 19.9577 24.9275 20.3598L24.9319 20.3656C24.9474 20.3863 24.9619 20.4078 24.9752 20.4299C25.1248 20.6793 25.3443 21.0603 25.4215 21.4854C25.5073 21.957 25.4165 22.4786 24.9959 22.9207C24.9816 22.9389 24.9664 22.9582 24.9505 22.9786C24.5391 23.5034 23.5924 24.7113 21.7458 24.4769C19.8815 24.3402 17.5046 22.7784 15.16 19.0067C12.7922 15.1975 12.5594 12.3157 13.301 10.5852C13.6745 9.71379 14.2284 9.20952 14.8153 8.9077C15.2343 8.69218 15.702 8.5761 16.0009 8.5019C16.0719 8.48428 16.1334 8.46902 16.1824 8.45536C16.7502 8.27334 17.2683 8.43135 17.645 8.70343ZM17.7604 14.544C17.7604 14.544 17.7603 14.5444 17.76 14.5453L17.7604 14.544ZM16.6851 9.88423C16.6777 9.88276 16.6657 9.88093 16.6395 9.88969C16.6291 9.89314 16.6187 9.89636 16.6082 9.89935C16.4753 9.93734 16.3556 9.96736 16.244 9.99535C15.9744 10.063 15.752 10.1187 15.5037 10.2464C15.2125 10.3962 14.9133 10.6446 14.6847 11.1782C14.222 12.2577 14.1899 14.5946 16.4385 18.2119C18.7 21.8499 20.7281 22.9004 21.8709 22.9766C21.8874 22.9777 21.9039 22.9793 21.9203 22.9815C22.9172 23.1144 23.3739 22.5409 23.7904 22.0179C23.8078 21.9961 23.8251 21.9743 23.8424 21.9527C23.8597 21.9311 23.8782 21.9103 23.8979 21.8907C23.9204 21.8682 23.9314 21.8522 23.9364 21.8438C23.9401 21.8376 23.9419 21.8335 23.9428 21.8307C23.9431 21.8299 23.9433 21.8292 23.9435 21.8286C23.9444 21.8254 23.9497 21.8054 23.9405 21.7547C23.9184 21.6334 23.8428 21.4717 23.7037 21.237C23.3849 20.8119 22.5534 19.7042 22.1602 19.2099C22.12 19.2224 22.0617 19.247 21.985 19.2912C21.8941 19.3436 21.7944 19.4137 21.6888 19.4981C21.4224 19.7113 21.1198 19.9215 20.7728 20.014C20.4132 20.1099 20.0813 20.0626 19.7763 19.9306C19.2872 19.8132 18.8395 19.4775 18.4785 19.1165C18.0682 18.7061 17.6758 18.1687 17.3464 17.5647C17.0344 16.9928 16.7684 16.436 16.5781 15.9466C16.3981 15.484 16.2509 14.9958 16.2509 14.595C16.2509 14.1579 16.3962 13.7866 16.6972 13.4857C16.9467 13.2362 17.2819 13.0623 17.5702 12.9182C17.8462 12.7802 18.0058 12.6617 18.0785 12.5735C18.0904 12.559 18.0972 12.5485 18.1009 12.5421C18.1 12.538 18.0985 12.5323 18.096 12.5248C18.0177 12.29 17.8227 11.8943 17.5887 11.4392C17.5561 11.3757 17.5224 11.3107 17.4884 11.245C17.3026 10.8856 17.1068 10.5068 17.0072 10.258C16.9493 10.1132 16.8527 9.98816 16.7636 9.92381C16.7234 9.89479 16.6967 9.88653 16.6851 9.88423Z" fill="black"/>
</svg>
