<svg width="32" height="32" viewBox="0 0 32 32" fill="none" xmlns="http://www.w3.org/2000/svg">
<path fill-rule="evenodd" clip-rule="evenodd" d="M8.55 3.5C5.76096 3.5 3.5 5.76096 3.5 8.55C3.5 11.339 5.76096 13.6 8.55 13.6C11.339 13.6 13.6 11.339 13.6 8.55C13.6 5.76096 11.339 3.5 8.55 3.5ZM2 8.55C2 4.93253 4.93253 2 8.55 2C12.1675 2 15.1 4.93253 15.1 8.55C15.1 11.9138 12.5643 14.6854 9.3 15.0575V20.2H27.25C28.7642 20.2 30 21.4358 30 22.95V27.15C30 27.1708 29.9991 27.1916 29.9974 27.2123C29.9347 27.9643 29.6465 28.6442 29.1334 29.1396C28.6168 29.6384 27.9235 29.9 27.15 29.9H4.75C3.23579 29.9 2 28.6642 2 27.15V22.95C2 21.4358 3.23579 20.2 4.75 20.2H7.8V15.0575C4.53574 14.6854 2 11.9138 2 8.55ZM23.9253 3.21412C24.2212 2.92432 24.6961 2.92932 24.9859 3.22528L29.6859 8.02528C29.9735 8.31904 29.971 8.78961 29.6803 9.08033L24.9803 13.7803C24.6874 14.0732 24.2126 14.0732 23.9197 13.7803C23.6268 13.4874 23.6268 13.0126 23.9197 12.7197L27.3393 9.3H19.65C19.2358 9.3 18.9 8.96421 18.9 8.55C18.9 8.13579 19.2358 7.8 19.65 7.8H27.366L23.9141 4.27472C23.6243 3.97876 23.6293 3.50391 23.9253 3.21412ZM4.75 21.7C4.06421 21.7 3.5 22.2642 3.5 22.95V27.15C3.5 27.8358 4.06421 28.4 4.75 28.4H27.15C27.5765 28.4 27.8832 28.2616 28.0916 28.0605C28.2989 27.8603 28.4582 27.5495 28.5 27.1165V22.95C28.5 22.2642 27.9358 21.7 27.25 21.7H4.75ZM19.6 24.55C19.6 24.1358 19.9358 23.8 20.35 23.8H24.95C25.3642 23.8 25.7 24.1358 25.7 24.55C25.7 24.9642 25.3642 25.3 24.95 25.3H20.35C19.9358 25.3 19.6 24.9642 19.6 24.55Z" fill="black"/>
</svg>
