<svg width="32" height="32" viewBox="0 0 32 32" fill="none" xmlns="http://www.w3.org/2000/svg">
<path fill-rule="evenodd" clip-rule="evenodd" d="M16.6364 27.8275L21.9137 22.5501C22.0289 22.4349 22.188 22.3636 22.3636 22.3636C22.7155 22.3636 23 22.6487 23 23C23 23.1756 22.9287 23.3347 22.8135 23.4499L16.4499 29.8135C16.3341 29.9287 16.1756 30 16 30C15.8244 30 15.6653 29.9287 15.5501 29.8135L9.18645 23.4499C9.07064 23.3347 9 23.1756 9 23C9 22.6487 9.28445 22.3636 9.63636 22.3636C9.812 22.3636 9.97045 22.4349 10.0863 22.5501L15.3636 27.8275L15.3636 2.63636C15.3636 2.28509 15.6481 2 16 2C16.3519 2 16.6364 2.28509 16.6364 2.63636L16.6364 27.8275Z" fill="black"/>
</svg>
