<svg width="32" height="32" viewBox="0 0 32 32" fill="none" xmlns="http://www.w3.org/2000/svg">
<path fill-rule="evenodd" clip-rule="evenodd" d="M8.57348 5.50538C7.88523 5.50538 7.319 6.07161 7.319 6.75986V22.2151C7.319 22.9033 7.88523 23.4695 8.57348 23.4695H10.9821C11.6703 23.4695 12.2366 22.9033 12.2366 22.2151V6.75986C12.2366 6.07161 11.6703 5.50538 10.9821 5.50538H8.57348ZM5.81362 6.75986C5.81362 5.24022 7.05384 4 8.57348 4H10.9821C12.5017 4 13.7419 5.24022 13.7419 6.75986V8.1147H27.2401C28.7598 8.1147 30 9.35491 30 10.8746V26.2294C30 27.749 28.7598 28.9892 27.2401 28.9892H4.75986C3.24022 28.9892 2 27.749 2 26.2294V10.9749C2 9.45527 3.24022 8.21505 4.75986 8.21505H5.81362V6.75986ZM5.81362 9.72043H4.75986C4.07161 9.72043 3.50538 10.2867 3.50538 10.9749V26.2294C3.50538 26.9176 4.07161 27.4839 4.75986 27.4839H27.2401C27.9284 27.4839 28.4946 26.9176 28.4946 26.2294V10.8746C28.4946 10.1863 27.9284 9.62007 27.2401 9.62007H13.7419V22.2151C13.7419 23.7347 12.5017 24.9749 10.9821 24.9749H8.57348C7.05384 24.9749 5.81362 23.7347 5.81362 22.2151V9.72043ZM16.9534 12.7814C16.9534 12.3657 17.2904 12.0287 17.7061 12.0287H24.9319C25.3476 12.0287 25.6846 12.3657 25.6846 12.7814V18C25.6846 18.4157 25.3476 18.7527 24.9319 18.7527H17.7061C17.2904 18.7527 16.9534 18.4157 16.9534 18V12.7814ZM18.4588 13.5341V17.2473H24.1792V13.5341H18.4588ZM16.9534 21.1111C16.9534 20.6954 17.2904 20.3584 17.7061 20.3584H19.8136C20.2293 20.3584 20.5663 20.6954 20.5663 21.1111C20.5663 21.5268 20.2293 21.8638 19.8136 21.8638H17.7061C17.2904 21.8638 16.9534 21.5268 16.9534 21.1111ZM22.0717 21.1111C22.0717 20.6954 22.4087 20.3584 22.8244 20.3584H24.9319C25.3476 20.3584 25.6846 20.6954 25.6846 21.1111C25.6846 21.5268 25.3476 21.8638 24.9319 21.8638H22.8244C22.4087 21.8638 22.0717 21.5268 22.0717 21.1111ZM16.9534 24.2222C16.9534 23.8065 17.2904 23.4695 17.7061 23.4695H19.8136C20.2293 23.4695 20.5663 23.8065 20.5663 24.2222C20.5663 24.6379 20.2293 24.9749 19.8136 24.9749H17.7061C17.2904 24.9749 16.9534 24.6379 16.9534 24.2222ZM22.0717 24.2222C22.0717 23.8065 22.4087 23.4695 22.8244 23.4695H24.9319C25.3476 23.4695 25.6846 23.8065 25.6846 24.2222C25.6846 24.6379 25.3476 24.9749 24.9319 24.9749H22.8244C22.4087 24.9749 22.0717 24.6379 22.0717 24.2222Z" fill="black"/>
</svg>
