<svg width="32" height="32" viewBox="0 0 32 32" fill="none" xmlns="http://www.w3.org/2000/svg">
<path fill-rule="evenodd" clip-rule="evenodd" d="M4.27686 2.00706H15.4645C17.1202 1.97246 18.7761 2.06503 20.4177 2.28396C21.464 2.45182 22.461 2.84608 23.3392 3.43919C24.2208 4.0488 24.9548 4.84805 25.4873 5.7783C26.0655 6.77174 26.3625 7.90373 26.3466 9.05304C26.3511 11.6767 24.8093 14.0567 22.4131 15.1252C23.9654 15.5217 25.3463 16.4132 26.3466 17.6648C27.2681 18.8759 27.7527 20.3632 27.7215 21.8847C27.7174 23.1748 27.4134 24.4462 26.8336 25.5986C26.2841 26.7507 25.4494 27.7432 24.4085 28.482C23.2783 29.239 21.9738 29.6957 20.6182 29.809C19.6769 29.9112 17.4052 29.9749 13.8033 30H4.27686V2.00706ZM9.927 6.66615V13.1393H13.6313C15.833 13.1393 17.2008 13.1074 17.7348 13.0438C18.5877 12.9808 19.3932 12.6269 20.0166 12.0413C20.5823 11.4578 20.8828 10.667 20.8472 9.85498C20.8811 9.08682 20.6256 8.33391 20.1312 7.74501C19.5694 7.16262 18.8098 6.81178 18.0021 6.76163C17.4426 6.69765 15.833 6.66583 13.173 6.66615H9.927ZM9.927 25.2836V17.7985H14.4906C16.1712 17.7118 17.8558 17.8467 19.5011 18.1995C20.2128 18.4235 20.8326 18.8725 21.2674 19.4788C21.6882 20.1109 21.9018 20.8584 21.8784 21.6174C21.923 22.4814 21.64 23.3303 21.086 23.9947C20.5497 24.591 19.8252 24.9853 19.0333 25.1118C17.7481 25.2672 16.4529 25.3246 15.159 25.2836H9.927Z" fill="black"/>
</svg>
