<svg width="32" height="32" viewBox="0 0 32 32" fill="none" xmlns="http://www.w3.org/2000/svg">
<path fill-rule="evenodd" clip-rule="evenodd" d="M17.6577 2.22046C17.9516 1.92651 18.4282 1.92651 18.7221 2.22046C19.3632 2.86151 19.5987 3.54745 19.4661 4.25812C19.3622 4.81497 19.0316 5.31471 18.7983 5.66739C18.7795 5.69586 18.7613 5.72338 18.7439 5.74988C18.4646 6.17552 18.317 6.43904 18.2881 6.68087C18.2689 6.84077 18.2887 7.10606 18.7221 7.53945C19.0161 7.8334 19.0161 8.30997 18.7221 8.60391C18.4282 8.89786 17.9516 8.89786 17.6577 8.60391C16.9871 7.93336 16.7059 7.2327 16.7934 6.50193C16.87 5.86134 17.2285 5.31525 17.4758 4.93845L17.4854 4.92395C17.7794 4.47594 17.9417 4.22072 17.9863 3.98203C18.0105 3.85219 18.0202 3.64745 17.6577 3.28492C17.3637 2.99098 17.3637 2.5144 17.6577 2.22046ZM13.3423 3.3244C13.6362 3.03046 14.1128 3.03046 14.4067 3.3244C15.0478 3.96545 15.2833 4.65139 15.1507 5.36206C15.0468 5.91891 14.7162 6.41866 14.4829 6.77134C14.4641 6.79981 14.4459 6.82732 14.4285 6.85383C14.1492 7.27946 14.0016 7.54298 13.9726 7.78481C13.9535 7.94471 13.9733 8.21 14.4067 8.6434C14.7007 8.93734 14.7007 9.41391 14.4067 9.70786C14.1128 10.0018 13.6362 10.0018 13.3423 9.70786C12.6717 9.03731 12.3905 8.33665 12.4779 7.60587C12.5546 6.96528 12.9131 6.41919 13.1604 6.04239L13.1699 6.02789C13.4639 5.57988 13.6263 5.32466 13.6709 5.08597C13.6951 4.95613 13.7048 4.7514 13.3423 4.38886C13.0483 4.09492 13.0483 3.61834 13.3423 3.3244ZM6.99994 11.7849C6.99994 11.3692 7.33693 11.0323 7.75263 11.0323H24.2114C24.6271 11.0323 24.9641 11.3692 24.9641 11.7849C24.9641 12.2006 24.6271 12.5376 24.2114 12.5376H23.6859L21.9493 29.3248C21.9097 29.7084 21.5864 30 21.2007 30H10.7634C10.3777 30 10.0544 29.7084 10.0147 29.3248L8.27809 12.5376H7.75263C7.33693 12.5376 6.99994 12.2006 6.99994 11.7849ZM9.7915 12.5376L11.4422 28.4946H20.5218L22.1725 12.5376H9.7915ZM15.982 16.6523C14.6241 16.6523 13.5232 17.7532 13.5232 19.1111C13.5232 20.4691 14.6241 21.5699 15.982 21.5699C17.34 21.5699 18.4408 20.4691 18.4408 19.1111C18.4408 17.7532 17.34 16.6523 15.982 16.6523ZM12.0179 19.1111C12.0179 16.9218 13.7927 15.147 15.982 15.147C18.1714 15.147 19.9462 16.9218 19.9462 19.1111C19.9462 21.3005 18.1714 23.0753 15.982 23.0753C13.7927 23.0753 12.0179 21.3005 12.0179 19.1111Z" fill="black"/>
</svg>
