<svg width="32" height="32" viewBox="0 0 32 32" fill="none" xmlns="http://www.w3.org/2000/svg">
<path fill-rule="evenodd" clip-rule="evenodd" d="M15.0052 7.19965C15.1595 7.34213 15.2473 7.54263 15.2473 7.75269V13.4731C15.2473 13.8259 15.0023 14.1314 14.6579 14.2079C13.8535 14.3866 13.0293 14.7497 12.2842 15.2153C11.987 15.4011 11.6009 15.3571 11.3531 15.1093L7.23838 10.9946C7.08639 10.8426 7.00663 10.6329 7.01921 10.4183C7.03179 10.2037 7.1355 10.0048 7.30421 9.8716C9.31424 8.28473 11.7611 7.21628 14.4346 7.0024C14.644 6.98565 14.8508 7.05716 15.0052 7.19965ZM16.9948 7.19965C17.1491 7.05716 17.356 6.98565 17.5654 7.0024C20.2389 7.21628 22.6858 8.28473 24.6958 9.8716C24.8645 10.0048 24.9682 10.2037 24.9808 10.4183C24.9934 10.6329 24.9136 10.8426 24.7616 10.9946L20.6469 15.1093C20.3991 15.3571 20.013 15.4011 19.7158 15.2153C18.9707 14.7497 18.1465 14.3866 17.3421 14.2079C16.9977 14.1314 16.7527 13.8259 16.7527 13.4731V7.75269C16.7527 7.54263 16.8405 7.34213 16.9948 7.19965ZM8.92125 10.5485L12.0068 13.6341C12.5554 13.334 13.1413 13.0786 13.7419 12.8944V8.59881C11.9932 8.87173 10.3584 9.56056 8.92125 10.5485ZM18.2581 8.59881V12.8944C18.8587 13.0786 19.4446 13.334 19.9932 13.6341L23.0787 10.5485C21.6416 9.56056 20.0068 8.87173 18.2581 8.59881ZM26.4829 11.8186C26.698 11.8317 26.8972 11.9363 27.03 12.106C28.9433 14.5508 30 17.6256 30 20.8996C30 21.3153 29.663 21.6523 29.2473 21.6523H23.5269C23.1112 21.6523 22.7742 21.3153 22.7742 20.8996C22.7742 19.5531 22.3219 18.1773 21.6724 17.0638C21.5001 16.7685 21.5486 16.3941 21.7903 16.1524L25.905 12.0377C26.0574 11.8853 26.2678 11.8055 26.4829 11.8186ZM5.52523 11.9185C5.73762 11.9079 5.94458 11.9877 6.09495 12.138L10.2097 16.2527C10.4634 16.5064 10.5027 16.9039 10.3037 17.2025C9.58948 18.2738 9.22581 19.5312 9.22581 20.8996C9.22581 21.3153 8.88882 21.6523 8.47312 21.6523H2.75269C2.33699 21.6523 2 21.3153 2 20.8996C2 17.6289 3.05507 14.5465 4.98018 12.1936C5.11484 12.029 5.31284 11.9291 5.52523 11.9185ZM23.2524 16.8193C23.7549 17.8115 24.1283 18.9594 24.2429 20.147H28.4738C28.343 17.786 27.5982 15.5791 26.347 13.7247L23.2524 16.8193ZM5.64161 13.8136C4.40039 15.5949 3.65688 17.788 3.52615 20.147H7.75179C7.84897 18.9929 8.17237 17.8949 8.72681 16.8988L5.64161 13.8136ZM16 18.5412C14.6975 18.5412 13.6416 19.5971 13.6416 20.8996C13.6416 22.2022 14.6975 23.2581 16 23.2581C17.3025 23.2581 18.3584 22.2022 18.3584 20.8996C18.3584 19.5971 17.3025 18.5412 16 18.5412ZM12.1362 20.8996C12.1362 18.7657 13.8661 17.0358 16 17.0358C18.1339 17.0358 19.8638 18.7657 19.8638 20.8996C19.8638 23.0336 18.1339 24.7634 16 24.7634C13.8661 24.7634 12.1362 23.0336 12.1362 20.8996Z" fill="black"/>
</svg>
