<svg width="32" height="32" viewBox="0 0 32 32" fill="none" xmlns="http://www.w3.org/2000/svg">
<path d="M29.98 25.72V25.7C29.92 22.86 25.32 19.04 18.82 18.11L18.58 18.08L16 20.66L13.38 18.04L13.14 18.07C6.69003 18.92 1.93003 22.8 2.00003 25.71C2.05003 28.48 2.10003 29.24 3.99003 29.21H7.61003C8.51003 29.2 9.37003 28.81 9.95003 28.12C10.54 27.44 10.8 26.53 10.68 25.7C10.66 24.98 10.84 24.46 11.23 24.06C11.96 23.31 13.5 22.95 15.93 22.95C20.6 22.95 21.27 24.28 21.3 25.66C21.22 26.56 21.52 27.45 22.12 28.12C22.72 28.79 23.58 29.18 24.49 29.19L28.12 29.2C28.73 29.19 29.23 29.16 29.58 28.8C30.04 28.34 30.02 27.57 29.98 25.72ZM15.93 21.99C13.19 21.99 11.47 22.43 10.54 23.39C9.97003 23.97 9.70003 24.74 9.72003 25.78C9.81003 26.4 9.63003 27.02 9.22003 27.49C8.81003 27.96 8.23003 28.24 7.61003 28.24H3.99003C3.00003 28.24 3.01003 28.24 2.97003 25.69C2.92003 23.56 6.81003 19.95 13.04 19.07L15.96 21.99C15.95 21.99 15.94 21.99 15.93 21.99ZM28.89 28.14C28.79 28.24 28.32 28.24 28.12 28.25L24.5 28.24C23.87 28.23 23.26 27.96 22.84 27.49C22.42 27.02 22.21 26.39 22.27 25.7C22.21 23.16 20.29 22.02 16.05 22L18.94 19.11C25.04 20.06 28.98 23.64 29.03 25.73V25.74C29.04 27.02 29.06 27.96 28.89 28.14Z" fill="black"/>
<path d="M16.93 15.89L17.61 16.57L24.9 9.29L17.61 2L16.93 2.68L23.05 8.8H6.04003V9.77H23.05L16.93 15.89Z" fill="black"/>
</svg>
