<svg width="32" height="32" viewBox="0 0 32 32" fill="none" xmlns="http://www.w3.org/2000/svg">
<path d="M20.25 11.65C14.88 11.65 10.5 14.99 10.5 19.11C10.57 21.1 11.53 22.96 13.1 24.17C12.59 25.17 11.19 25.85 10.04 26.41L10.3 27.33C10.34 27.33 10.43 27.33 10.56 27.34C10.79 27.35 11.11 27.36 11.51 27.36C12.95 27.36 15.35 27.22 17.48 26.24C18.39 26.44 19.31 26.51 20.25 26.55C25.62 26.55 30 23.21 30 19.11C30 14.99 25.63 11.65 20.25 11.65ZM20.25 25.57C19.33 25.59 18.43 25.46 17.54 25.25L17.37 25.21L17.21 25.28C15.51 26.1 13.57 26.32 12.17 26.37C13.07 25.81 13.86 25.11 14.14 24.14L14.24 23.8L13.95 23.6C12.46 22.58 11.53 20.89 11.46 19.09C11.46 15.52 15.4 12.61 20.24 12.61C25.08 12.61 29.02 15.52 29.02 19.09C29.03 22.67 25.09 25.57 20.25 25.57Z" fill="black"/>
<path d="M10.76 10.41L11.44 9.72L6.72 5L2 9.72L2.69 10.41L6.24 6.86V14H7.21V6.86L10.76 10.41Z" fill="black"/>
</svg>
