<svg width="32" height="32" viewBox="0 0 32 32" fill="none" xmlns="http://www.w3.org/2000/svg">
<path d="M16.0217 2C16.0091 2 15.9951 2 15.9811 2C8.56901 2 2.55969 8.00932 2.55969 15.4214C2.55969 17.3207 2.95386 19.1288 3.66645 20.7672L3.63278 20.6802L3.75623 20.9692L5.62888 20.1023L5.57417 19.8961C4.99344 18.5775 4.65538 17.0387 4.65538 15.4228C4.65538 9.15114 9.74029 4.06623 16.0119 4.06623C16.0147 4.06623 16.0189 4.06623 16.0217 4.06623C22.2934 4.06763 27.3755 9.15255 27.3755 15.4228C27.3755 21.693 22.2906 26.7793 16.0189 26.7793C13.6764 26.7793 11.4979 26.0695 9.6898 24.8534L9.73047 24.8786L13.1027 24.5896L12.9231 22.5248L6.03988 23.1168L6.63183 30L8.68263 29.8204L8.39367 26.3795C10.5132 27.9043 13.1574 28.8245 16.0147 28.8441H16.0189C23.431 28.8441 29.4403 22.8348 29.4403 15.4228C29.4403 8.01072 23.431 2.0014 16.0189 2.0014L16.0217 2Z" fill="black"/>
<path d="M17.3992 5.78598H14.6457V15.037H7.76244V17.7906H17.3978V5.78738L17.3992 5.78598Z" fill="black"/>
</svg>
