<svg width="32" height="32" viewBox="0 0 32 32" fill="none" xmlns="http://www.w3.org/2000/svg">
<path d="M16.2 18C17.3046 18 18.2 17.1046 18.2 16C18.2 14.8954 17.3046 14 16.2 14C15.0954 14 14.2 14.8954 14.2 16C14.2 17.1046 15.0954 18 16.2 18Z" fill="black"/>
<path d="M7 18C8.10457 18 9 17.1046 9 16C9 14.8954 8.10457 14 7 14C5.89543 14 5 14.8954 5 16C5 17.1046 5.89543 18 7 18Z" fill="black"/>
<path d="M25.4 18C26.5046 18 27.4 17.1046 27.4 16C27.4 14.8954 26.5046 14 25.4 14C24.2954 14 23.4 14.8954 23.4 16C23.4 17.1046 24.2954 18 25.4 18Z" fill="black"/>
</svg>
