<svg width="32" height="32" viewBox="0 0 32 32" fill="none" xmlns="http://www.w3.org/2000/svg">
<path fill-rule="evenodd" clip-rule="evenodd" d="M2.03725 13.5603C3.20365 6.98597 8.92934 2 15.825 2C22.3983 2 27.9107 6.45496 29.4999 12.6001C29.604 13.0025 29.3621 13.4132 28.9597 13.5172C28.5572 13.6213 28.1466 13.3794 28.0425 12.977C26.621 7.48052 21.696 3.50538 15.825 3.50538C9.67548 3.50538 4.56345 7.95093 3.52024 13.8189C3.39649 14.5758 4.05995 15.3477 4.78553 15.3477H7.04359V13.3907C7.04359 11.871 8.28381 10.6308 9.80345 10.6308H12.6135C13.0292 10.6308 13.3662 10.9678 13.3662 11.3835V12.4373H15.9253C16.341 12.4373 16.678 12.7743 16.678 13.19C16.678 13.6057 16.341 13.9427 15.9253 13.9427H13.3662V18.0573H15.9253C16.341 18.0573 16.678 18.3943 16.678 18.81C16.678 19.2257 16.341 19.5627 15.9253 19.5627H13.3662V20.6165C13.3662 21.0322 13.0292 21.3692 12.6135 21.3692H9.80345C8.28381 21.3692 7.04359 20.129 7.04359 18.6093V16.853H4.78553C3.1036 16.853 1.7608 15.2187 2.03591 13.568L2.03725 13.5603ZM8.54897 18.6093C8.54897 19.2976 9.1152 19.8638 9.80345 19.8638H11.8608V12.1362H9.80345C9.11521 12.1362 8.54897 12.7024 8.54897 13.3907V18.6093ZM18.3841 11.3835C18.3841 10.9678 18.7211 10.6308 19.1368 10.6308H21.9468C23.4665 10.6308 24.7067 11.871 24.7067 13.3907V15.147H26.9647C28.6467 15.147 29.9895 16.7813 29.7144 18.432L29.7131 18.4397C28.5467 25.014 22.8209 30 15.9253 30C9.25729 30 3.73452 25.549 2.2474 19.3881C2.14986 18.984 2.39837 18.5773 2.80247 18.4798C3.20656 18.3823 3.61321 18.6308 3.71075 19.0349C5.03367 24.5155 9.94818 28.4946 15.9253 28.4946C22.0748 28.4946 27.1868 24.0491 28.23 18.181C28.3538 17.4242 27.6903 16.6523 26.9647 16.6523H24.7067V18.6093C24.7067 20.129 23.4665 21.3692 21.9468 21.3692H19.1368C18.7211 21.3692 18.3841 21.0322 18.3841 20.6165V11.3835ZM23.2013 13.3907C23.2013 12.7024 22.6351 12.1362 21.9468 12.1362H19.8895V19.8638H21.9468C22.6351 19.8638 23.2013 19.2976 23.2013 18.6093V13.3907Z" fill="black"/>
</svg>
