<svg width="32" height="32" viewBox="0 0 32 32" fill="none" xmlns="http://www.w3.org/2000/svg">
<path fill-rule="evenodd" clip-rule="evenodd" d="M9.1908 13.2366V17.4471C9.1908 20.9899 12.0098 23.933 15.5295 24.1754V29.0635H12.2731C12.0145 29.0635 11.8049 29.2732 11.8049 29.5318C11.8049 29.7904 12.0145 30 12.2731 30H19.761C20.0196 30 20.2293 29.7904 20.2293 29.5318C20.2293 29.2732 20.0196 29.0635 19.761 29.0635H16.4749V24.1751C19.9922 23.9299 22.8091 20.9881 22.8091 17.4471V13.237C22.8091 12.9757 22.5973 12.7639 22.336 12.7639C22.0747 12.7639 21.8629 12.9757 21.8629 13.237V17.4471C21.8629 20.6314 19.2151 23.2542 15.9995 23.2542C12.7849 23.2542 10.1362 20.6314 10.1362 17.4471V13.2366C10.1362 12.9755 9.92454 12.7639 9.66349 12.7639C9.40243 12.7639 9.1908 12.9755 9.1908 13.2366ZM16.0683 2.93646C14.3188 2.93646 12.8528 4.38869 12.8528 6.12168V17.6435C12.8528 19.3756 14.3188 20.827 16.0683 20.827C17.8178 20.827 19.283 19.3756 19.283 17.6435V6.12168C19.283 4.38869 17.8178 2.93646 16.0683 2.93646ZM16.0683 21.7634C13.7511 21.7634 11.9074 19.9372 11.9074 17.6435V6.12168C11.9074 3.82628 13.7511 2 16.0683 2C18.3847 2 20.2293 3.82628 20.2293 6.12168V17.6435C20.2293 19.9372 18.3847 21.7634 16.0683 21.7634Z" fill="black"/>
</svg>
