<svg width="32" height="32" viewBox="0 0 32 32" fill="none" xmlns="http://www.w3.org/2000/svg">
<path d="M29.25 16.36C28.84 16.36 28.5 16.7 28.5 17.11V27.11C28.5 27.81 27.95 28.36 27.25 28.36H4.75C4.06 28.36 3.5 27.8 3.5 27.11V11.81L12.7 19C13.7 19.78 14.85 20.18 16 20.18C17.15 20.18 18.31 19.78 19.31 18.99C19.64 18.73 19.69 18.26 19.43 17.94C19.18 17.61 18.7 17.56 18.38 17.82C16.91 18.97 15.09 18.98 13.62 17.83L4.36 10.58C4.48 10.54 4.61 10.5 4.75 10.5H13.51C13.92 10.5 14.26 10.16 14.26 9.75C14.26 9.34 13.92 9 13.51 9H4.75C3.23 9.01 2 10.24 2 11.76V27.12C2 28.64 3.23 29.87 4.75 29.87H27.25C28.77 29.87 30 28.64 30 27.12V17.12C30 16.7 29.66 16.36 29.25 16.36Z" fill="black"/>
<path d="M23.25 16.5C19.53 16.5 16.5 13.47 16.5 9.75C16.5 6.03 19.53 3 23.25 3C26.98 3 30 6.03 30 9.75C30 13.47 26.98 16.5 23.25 16.5ZM26.15 9H22.17L23.46 7.71C23.6 7.56 23.68 7.37 23.68 7.18C23.68 6.99 23.6 6.8 23.46 6.65C23.16 6.36 22.69 6.36 22.4 6.65L19.83 9.22C19.76 9.29 19.71 9.37 19.67 9.46C19.6 9.65 19.6 9.85 19.67 10.04C19.71 10.13 19.76 10.21 19.83 10.28L22.4 12.84C22.69 13.14 23.16 13.14 23.46 12.84C23.75 12.55 23.75 12.08 23.46 11.78L22.17 10.5H26.15C26.56 10.5 26.9 10.16 26.9 9.75C26.9 9.33 26.56 9 26.15 9Z" fill="black"/>
</svg>
