<svg width="32" height="32" viewBox="0 0 32 32" fill="none" xmlns="http://www.w3.org/2000/svg">
<path fill-rule="evenodd" clip-rule="evenodd" d="M16 3.50538C9.09941 3.50538 3.50538 9.09941 3.50538 16C3.50538 22.9006 9.09941 28.4946 16 28.4946C22.9006 28.4946 28.4946 22.9006 28.4946 16C28.4946 9.09941 22.9006 3.50538 16 3.50538ZM2 16C2 8.26801 8.26801 2 16 2C23.732 2 30 8.26801 30 16C30 23.732 23.732 30 16 30C8.26801 30 2 23.732 2 16ZM23.1739 9.67615C23.5072 9.92463 23.5759 10.3962 23.3274 10.7295L14.797 22.1703C14.6655 22.3466 14.4636 22.4566 14.2442 22.4714C14.0248 22.4862 13.8099 22.4043 13.656 22.2473L8.73841 17.2293C8.44745 16.9324 8.45226 16.4559 8.74916 16.1649C9.04605 15.874 9.52261 15.8788 9.81356 16.1757L14.1157 20.5656L22.1206 9.82965C22.3691 9.49639 22.8407 9.42767 23.1739 9.67615Z" fill="black"/>
</svg>
