<svg width="32" height="32" viewBox="0 0 32 32" fill="none" xmlns="http://www.w3.org/2000/svg">
<path fill-rule="evenodd" clip-rule="evenodd" d="M3.03222 8.4C4.73201 6.13361 8.71369 4 16.0322 4C23.3733 4 27.2316 6.24555 28.9209 8.38527C30.5132 10.4022 29.8982 12.3991 29.5599 13.4975C29.52 13.6271 29.4839 13.7442 29.4558 13.8473C29.2376 14.6473 28.707 15.1406 28.0928 15.3935C27.5106 15.6332 26.8721 15.6535 26.3494 15.5954C26.1427 15.5724 25.8378 15.5426 25.4798 15.5076C24.3926 15.4013 22.8162 15.2471 22.0183 15.092C21.6413 15.0472 21.3065 14.9033 21.0367 14.6591C20.7653 14.4134 20.6031 14.1056 20.5061 13.8059C20.3195 13.2289 20.3336 12.551 20.3853 11.9821C20.438 11.4019 20.4437 11.1324 20.4029 10.9625C20.3882 10.9012 20.3704 10.8709 20.3512 10.8469C20.3281 10.8183 20.2775 10.7683 20.1601 10.7012C20.1382 10.6886 20.1169 10.675 20.0963 10.6603C19.8772 10.5038 19.3785 10.3039 18.6181 10.147C17.8841 9.99556 16.9851 9.9 16.0322 9.9C15.0798 9.9 14.1768 9.99547 13.4351 10.1368C12.6727 10.282 12.1453 10.4635 11.9043 10.6012C11.7063 10.7143 11.6415 10.8151 11.6013 10.9506C11.5448 11.1413 11.5301 11.4429 11.5791 11.9821C11.6307 12.5492 11.6457 13.2062 11.4562 13.7747C11.3573 14.0716 11.1957 14.366 10.9372 14.6083C10.6753 14.8536 10.3502 15.0113 9.9793 15.0854C9.19264 15.2428 7.58716 15.3998 6.48462 15.5076C6.1294 15.5424 5.82638 15.572 5.61978 15.5949C5.13074 15.6552 4.49903 15.6295 3.91617 15.3964C3.30714 15.1527 2.7327 14.6689 2.50864 13.8473C2.47877 13.7378 2.44033 13.6145 2.39797 13.4787C2.05788 12.388 1.46563 10.4888 3.03222 8.4ZM16.0322 5.5C8.95075 5.5 5.53242 7.56639 4.23222 9.3C3.14617 10.7481 3.49849 11.919 3.82433 13.0018C3.87002 13.1537 3.91518 13.3038 3.95579 13.4527C4.03173 13.7311 4.20729 13.8973 4.47326 14.0036C4.76323 14.1196 5.12898 14.1446 5.43919 14.1058L5.44939 14.1045L5.44939 14.1046C5.70226 14.0765 6.05046 14.0424 6.44363 14.0039C7.53788 13.8968 8.9804 13.7555 9.68513 13.6146C9.81426 13.5887 9.87658 13.5464 9.91164 13.5136C9.94994 13.4777 9.99467 13.4159 10.0332 13.3003C10.1187 13.0438 10.1337 12.6508 10.0853 12.1179C10.0343 11.5571 10.0196 11.0087 10.1631 10.5244C10.323 9.98492 10.6581 9.58568 11.1601 9.29882C11.6191 9.03655 12.3418 8.81803 13.1544 8.66325C13.9876 8.50453 14.9846 8.4 16.0322 8.4C17.0793 8.4 18.0803 8.50444 18.9213 8.67797C19.7182 8.84241 20.4545 9.08532 20.9363 9.41738C21.4144 9.69882 21.7327 10.0758 21.8615 10.6125C21.9707 11.0676 21.9264 11.5981 21.8791 12.1179C21.8309 12.649 21.845 13.0711 21.9333 13.3441C21.9738 13.4694 22.0179 13.5241 22.0434 13.5471C22.0611 13.5632 22.0999 13.593 22.2068 13.6037C22.2312 13.6062 22.2553 13.6098 22.2793 13.6146C22.984 13.7555 24.4265 13.8968 25.5208 14.0039C25.914 14.0424 26.2622 14.0765 26.515 14.1046C26.8924 14.1465 27.2538 14.1168 27.5217 14.0065C27.7575 13.9094 27.9268 13.7527 28.0086 13.4527C28.0468 13.3129 28.0886 13.1712 28.1311 13.0276C28.4601 11.9145 28.824 10.6833 27.7436 9.31473C26.4328 7.65445 23.0911 5.5 16.0322 5.5ZM16.0322 14C16.4464 14 16.7822 14.3358 16.7822 14.75V24.5393L21.3019 20.0197C21.5948 19.7268 22.0697 19.7268 22.3625 20.0197C22.6554 20.3126 22.6554 20.7874 22.3625 21.0803L16.5625 26.8803C16.2697 27.1732 15.7948 27.1732 15.5019 26.8803L9.70189 21.0803C9.40899 20.7874 9.40899 20.3126 9.70189 20.0197C9.99478 19.7268 10.4697 19.7268 10.7625 20.0197L15.2822 24.5393V14.75C15.2822 14.3358 15.618 14 16.0322 14Z" fill="black"/>
</svg>
