<svg width="32" height="32" viewBox="0 0 32 32" fill="none" xmlns="http://www.w3.org/2000/svg">
<path d="M10.6379 14.6486H16.88C17.5302 14.6486 17.9203 14.2533 17.9203 13.5945C17.9203 12.9358 17.5302 12.5405 16.88 12.5405H10.6379C9.98766 12.5405 9.59752 12.9358 9.59752 13.5945C9.59752 14.2533 9.98766 14.6486 10.6379 14.6486Z" fill="black"/>
<path fill-rule="evenodd" clip-rule="evenodd" d="M13.7589 25.1891C7.51682 25.1891 2.31506 19.9188 2.31506 13.5945C2.31506 7.27024 7.51682 2 13.7589 2C20.001 2 25.2028 7.27024 25.2028 13.5945C25.2028 16.4106 24.1714 19.0177 22.4761 21.0435L29.3959 28.3083C29.7812 28.6987 29.7812 29.3493 29.3959 29.7397C29.139 30 28.7537 30 28.6253 30C28.3684 30 27.9831 30 27.8546 29.7397L20.988 22.5308C19.0065 24.1863 16.4817 25.1891 13.7589 25.1891ZM4.39577 13.5945C4.39577 18.8648 8.55717 23.081 13.7589 23.081C18.9607 23.081 23.1221 18.8648 23.1221 13.5945C23.1221 8.32429 18.9607 4.10809 13.7589 4.10809C8.55717 4.10809 4.39577 8.32429 4.39577 13.5945Z" fill="black"/>
</svg>
