<svg width="32" height="32" viewBox="0 0 32 32" fill="none" xmlns="http://www.w3.org/2000/svg">
<path d="M21.1574 22.9803H17.1112C15.2633 22.9803 13.7645 21.4339 13.7645 19.5242C13.7645 19.5156 13.7645 19.507 13.7645 19.4984V19.4998V17.0446H20.6429C20.6582 17.0446 20.6777 17.0446 20.6958 17.0446C21.5509 17.0446 22.324 16.6741 22.8704 16.0811L22.8718 16.0797C23.4725 15.4278 23.8034 14.6826 23.8034 13.7795C23.8034 13.7637 23.8034 13.745 23.8034 13.7278C23.8034 12.8448 23.4461 12.0465 22.8732 11.4807L22.8718 11.4793C22.3128 10.8849 21.5314 10.5159 20.6666 10.5159C20.6582 10.5159 20.6513 10.5159 20.6429 10.5159H13.7408V5.51203C13.7408 5.49623 13.7408 5.479 13.7408 5.46177C13.7408 4.517 13.3598 3.66412 12.7494 3.05677L12.7481 3.05533C12.1808 2.40634 11.3632 2 10.4538 2C10.4344 2 10.4149 2 10.3968 2H10.3996C10.3843 2 10.3676 2 10.3496 2C9.42492 2 8.59066 2.39342 7.99277 3.02518C7.37959 3.63684 7 4.49259 7 5.44023C7 5.46608 7 5.49049 7.00139 5.5149V5.51059V19.5257C7.00139 22.416 7.99416 24.8755 9.9505 26.923C11.9379 28.9743 14.3151 30 17.082 30H21.131C21.1324 30 21.1351 30 21.1379 30C22.9956 30 24.5 28.445 24.5 26.5282C24.5 25.5647 24.1204 24.6932 23.5072 24.0643C22.9524 23.3966 22.1335 22.976 21.2214 22.976C21.2005 22.976 21.1783 22.976 21.1574 22.976H21.1602L21.1574 22.9803Z" fill="black"/>
</svg>
