<svg width="32" height="32" viewBox="0 0 32 32" fill="none" xmlns="http://www.w3.org/2000/svg">
<path d="M27.9323 3.62001C27.7012 3.13434 27.3371 2.72427 26.8821 2.43748C26.4271 2.15069 25.9001 1.99898 25.3623 2.00001H6.84226C6.30503 2.00146 5.77915 2.15474 5.32526 2.44216C4.87137 2.72958 4.50797 3.13944 4.27695 3.62447C4.04593 4.1095 3.95672 4.64995 4.01958 5.18349C4.08245 5.71704 4.29484 6.22195 4.63226 6.64001L12.6323 16.58C12.6714 16.6356 12.6923 16.702 12.6923 16.77V28.2C12.7 28.675 12.8921 29.1283 13.228 29.4643C13.5639 29.8002 14.0173 29.9923 14.4923 30C14.8205 30.0023 15.1428 29.9122 15.4223 29.74L18.5723 27.85C18.8382 27.6906 19.0583 27.4649 19.2108 27.195C19.3633 26.925 19.443 26.6201 19.4423 26.31V16.77C19.4458 16.701 19.4702 16.6348 19.5123 16.58L27.5123 6.64001C27.8644 6.22983 28.0912 5.72709 28.1656 5.19166C28.2401 4.65624 28.1591 4.1107 27.9323 3.62001ZM26.4123 5.70001L18.4123 15.64C18.1572 15.9618 18.0165 16.3594 18.0123 16.77V26.31C18.0124 26.3616 17.9997 26.4123 17.9752 26.4577C17.9508 26.5031 17.9154 26.5417 17.8723 26.57L14.7223 28.46C14.6763 28.4854 14.6247 28.4987 14.5723 28.4987C14.5198 28.4987 14.4682 28.4854 14.4223 28.46C14.3741 28.4358 14.3335 28.3987 14.3053 28.3528C14.277 28.3068 14.2621 28.2539 14.2623 28.2V16.77C14.2628 16.3586 14.1215 15.9595 13.8623 15.64L5.79226 5.70001C5.63125 5.5021 5.53055 5.26206 5.50218 5.00851C5.47381 4.75496 5.51897 4.4986 5.63226 4.27C5.73828 4.03869 5.90889 3.84294 6.12356 3.70633C6.33824 3.56972 6.58782 3.49807 6.84226 3.50001H25.3623C25.6167 3.49807 25.8663 3.56972 26.081 3.70633C26.2956 3.84294 26.4662 4.03869 26.5723 4.27C26.6856 4.4986 26.7307 4.75496 26.7023 5.00851C26.674 5.26206 26.5733 5.5021 26.4123 5.70001Z" fill="black"/>
</svg>
