<svg width="32" height="32" viewBox="0 0 32 32" fill="none" xmlns="http://www.w3.org/2000/svg">
<path fill-rule="evenodd" clip-rule="evenodd" d="M14.7795 28.9874V16.1434C14.2042 15.7722 13.8206 15.1309 13.8206 14.4051C13.8206 13.2574 14.7795 12.3291 15.9651 12.3291C17.1507 12.3291 18.1096 13.2574 18.1096 14.4051C18.1096 15.2489 17.5865 15.9747 16.8543 16.2953V28.9874C16.8543 29.5444 16.3836 30 15.8082 30C15.2329 30 14.7795 29.5444 14.7795 28.9874ZM21.178 18.5063C21.3523 18.6076 21.5267 18.6582 21.7185 18.6582C22.0672 18.6582 22.4159 18.4894 22.6076 18.1687C23.3922 16.9198 23.7758 15.4852 23.706 14.0169C23.5316 9.93248 19.9576 6.74261 15.7209 6.89445C13.6985 6.97888 11.8155 7.82276 10.4209 9.29111C9.02612 10.7425 8.31125 12.6497 8.39842 14.6245C8.45076 15.789 8.76448 16.903 9.33986 17.9157C9.61883 18.4051 10.2639 18.5908 10.7696 18.3038C11.2751 18.0338 11.4495 17.4093 11.1706 16.9198C10.7521 16.1773 10.5254 15.384 10.4731 14.5232C10.4209 13.0886 10.9438 11.7046 11.9377 10.6414C12.9315 9.57812 14.3437 8.98737 15.8255 8.91983C18.894 8.80165 21.5092 11.1139 21.6312 14.1013C21.6835 15.1645 21.4045 16.2109 20.8292 17.1223C20.5329 17.5949 20.6899 18.2194 21.178 18.5063ZM24.2465 22.4051C24.6824 22.7595 25.3449 22.7089 25.7284 22.2869C27.6637 20.0591 28.7272 17.2405 28.7272 14.3207C28.7272 7.51902 23.0261 2 15.9999 2C8.97378 2 3.27271 7.51902 3.27271 14.3207C3.27271 17.4093 4.45828 20.346 6.60274 22.6245C6.81196 22.8439 7.09095 22.9621 7.36984 22.9621C7.61388 22.9621 7.87538 22.8777 8.0672 22.692C8.48571 22.3207 8.52055 21.6794 8.13702 21.2574C6.35873 19.3671 5.36486 16.903 5.36486 14.3207C5.36486 8.64987 10.142 4.02535 16.0001 4.02535C21.858 4.02535 26.6351 8.64981 26.6351 14.3207C26.6351 16.7511 25.7459 19.114 24.1245 20.9705C23.7409 21.3924 23.7932 22.0337 24.2465 22.4051Z" fill="black"/>
<path fill-rule="evenodd" clip-rule="evenodd" d="M14.7795 28.9874V16.1434C14.2042 15.7722 13.8206 15.1309 13.8206 14.4051C13.8206 13.2574 14.7795 12.3291 15.9651 12.3291C17.1507 12.3291 18.1096 13.2574 18.1096 14.4051C18.1096 15.2489 17.5865 15.9747 16.8543 16.2953V28.9874C16.8543 29.5444 16.3836 30 15.8082 30C15.2329 30 14.7795 29.5444 14.7795 28.9874ZM21.178 18.5063C21.3523 18.6076 21.5267 18.6582 21.7185 18.6582C22.0672 18.6582 22.4159 18.4894 22.6076 18.1687C23.3922 16.9198 23.7758 15.4852 23.706 14.0169C23.5316 9.93248 19.9576 6.74261 15.7209 6.89445C13.6985 6.97888 11.8155 7.82276 10.4209 9.29111C9.02612 10.7425 8.31125 12.6497 8.39842 14.6245C8.45076 15.789 8.76448 16.903 9.33986 17.9157C9.61883 18.4051 10.2639 18.5908 10.7696 18.3038C11.2751 18.0338 11.4495 17.4093 11.1706 16.9198C10.7521 16.1773 10.5254 15.384 10.4731 14.5232C10.4209 13.0886 10.9438 11.7046 11.9377 10.6414C12.9315 9.57812 14.3437 8.98737 15.8255 8.91983C18.894 8.80165 21.5092 11.1139 21.6312 14.1013C21.6835 15.1645 21.4045 16.2109 20.8292 17.1223C20.5329 17.5949 20.6899 18.2194 21.178 18.5063ZM24.2465 22.4051C24.6824 22.7595 25.3449 22.7089 25.7284 22.2869C27.6637 20.0591 28.7272 17.2405 28.7272 14.3207C28.7272 7.51902 23.0261 2 15.9999 2C8.97378 2 3.27271 7.51902 3.27271 14.3207C3.27271 17.4093 4.45828 20.346 6.60274 22.6245C6.81196 22.8439 7.09095 22.9621 7.36984 22.9621C7.61388 22.9621 7.87538 22.8777 8.0672 22.692C8.48571 22.3207 8.52055 21.6794 8.13702 21.2574C6.35873 19.3671 5.36486 16.903 5.36486 14.3207C5.36486 8.64987 10.142 4.02535 16.0001 4.02535C21.858 4.02535 26.6351 8.64981 26.6351 14.3207C26.6351 16.7511 25.7459 19.114 24.1245 20.9705C23.7409 21.3924 23.7932 22.0337 24.2465 22.4051Z" fill="black"/>
</svg>
