<svg width="32" height="32" viewBox="0 0 32 32" fill="none" xmlns="http://www.w3.org/2000/svg">
<path fill-rule="evenodd" clip-rule="evenodd" d="M20.6667 2H9V14.8334H10.1667V3.16667H19.5V12.5H28.8333V28.8333H10.1667V26.5H9V30H30V11.3333H29.9167V11.1262L20.8738 2.08333H20.6667V2ZM20.6667 3.29044V11.3333H28.7096L20.6667 3.29044Z" fill="black"/>
<path fill-rule="evenodd" clip-rule="evenodd" d="M26.5 14.8334H2V26.5H26.5V14.8334ZM19.1152 17.0615H23.5715V20.0015H22.0898V18.5315H19.1152V17.0615ZM13.1768 24.4233V17.0616H14.6584V24.4233H13.1768ZM4.3335 24.4234V23.0001L8.1835 18.5318H4.3335V17.0618H10.1668V18.5318L6.0835 23.0001H10.1668V24.4701L4.3335 24.4234ZM19.1152 17.0615L17.6333 17.0616V24.435H19.115L19.1152 17.0615ZM19.1152 20.0016L22.0898 20.0015H23.5715V21.4716H19.1152V20.0016Z" fill="black"/>
</svg>
