<svg width="32" height="32" viewBox="0 0 32 32" fill="none" xmlns="http://www.w3.org/2000/svg">
<path fill-rule="evenodd" clip-rule="evenodd" d="M9.94805 2.22046C10.0892 2.0793 10.2807 2 10.4803 2H21.5197C21.7193 2 21.9108 2.0793 22.0519 2.22046L29.7795 9.94805C29.9207 10.0892 30 10.2807 30 10.4803V21.5197C30 21.7193 29.9207 21.9108 29.7795 22.0519L22.0519 29.7795C21.9108 29.9207 21.7193 30 21.5197 30H10.4803C10.2807 30 10.0892 29.9207 9.94805 29.7795L2.22046 22.0519C2.0793 21.9108 2 21.7193 2 21.5197V10.4803C2 10.2807 2.0793 10.0892 2.22046 9.94805L9.94805 2.22046ZM10.7921 3.50538L3.50538 10.7921V21.2079L10.7921 28.4946H21.2079L28.4946 21.2079V10.7921L21.2079 3.50538H10.7921ZM10.5497 8.19791C11.7113 7.56536 12.8049 8.27522 13.2332 8.98909C13.3515 9.18615 13.6657 9.59414 14.0396 10.0583C14.2186 10.2805 14.4206 10.527 14.5988 10.7443C14.7559 10.9359 14.8943 11.1048 14.982 11.2144C15.3981 11.7345 15.3699 12.3257 15.1548 12.7989C14.9605 13.2263 14.6092 13.5892 14.274 13.8686C14.1221 13.9951 14.0171 14.0851 13.9381 14.1617C13.8602 14.2372 13.8324 14.2764 13.8228 14.2923C13.8205 14.2962 13.8198 14.2972 13.8195 14.2983C13.8193 14.2991 13.8194 14.3 13.8191 14.3023C13.8172 14.3169 13.8142 14.3642 13.8321 14.4712C13.8581 14.6273 13.973 14.9287 14.2382 15.3439C14.4916 15.7404 14.8527 16.195 15.314 16.6581C16.2454 17.4936 17.2097 18.0964 17.6877 18.2768C17.7542 18.285 17.7864 18.2828 17.798 18.2813C17.8033 18.2806 17.8012 18.2816 17.8081 18.2775C17.824 18.268 17.8632 18.2402 17.9387 18.1623C18.0153 18.0833 18.1052 17.9783 18.2318 17.8264C18.2464 17.8089 18.2617 17.7921 18.2778 17.776C18.2887 17.7651 18.2998 17.754 18.3111 17.7426C18.5362 17.5171 18.8583 17.1943 19.226 17.0017C19.4357 16.8918 19.6938 16.8043 19.9899 16.8076C20.2927 16.811 20.577 16.9089 20.8333 17.0798C21.34 17.4176 22.235 18.1458 22.8166 18.6189C22.9678 18.7419 23.0977 18.8476 23.1942 18.9248C23.2159 18.9421 23.2366 18.9607 23.2562 18.9803C23.4662 19.1903 23.7805 19.5254 23.9663 19.9526C24.1701 20.4215 24.2167 21.0017 23.8793 21.5921C23.8492 21.6447 23.8131 21.7139 23.7708 21.7949C23.612 22.0993 23.3661 22.5704 23.026 22.9574C22.5455 23.5041 21.8514 23.9506 20.8048 24.0737C18.7858 24.3112 15.8606 23.4483 12.2563 19.8441C8.65203 16.2398 7.78913 13.3146 8.02666 11.2956C8.14893 10.2562 8.58968 9.53957 9.13347 9.04521C9.63545 8.58886 10.203 8.34619 10.5485 8.19844C10.5489 8.19827 10.5493 8.19809 10.5497 8.19791ZM11.621 9.4915C11.5132 9.45109 11.3974 9.44679 11.2552 9.52807C11.2303 9.54229 11.2046 9.55509 11.1782 9.56638C10.8167 9.72132 10.4538 9.87932 10.1461 10.1591C9.86194 10.4174 9.60017 10.8047 9.52173 11.4715C9.35782 12.8646 9.89994 15.3588 13.3208 18.7796C16.7416 22.2004 19.2357 22.7425 20.6289 22.5786C21.2883 22.501 21.648 22.245 21.8952 21.9637C22.1041 21.726 22.2263 21.4929 22.3704 21.2181C22.4311 21.1024 22.4957 20.9792 22.5723 20.8452C22.6135 20.773 22.6201 20.7263 22.6207 20.6975C22.6213 20.6648 22.6144 20.6187 22.5857 20.5528C22.5238 20.4104 22.3967 20.2528 22.2199 20.0731C22.1055 19.9813 21.9664 19.8682 21.8129 19.7434C21.2294 19.269 20.4371 18.6249 19.9983 18.3324C19.9854 18.3238 19.9758 18.3185 19.9694 18.3153C19.9605 18.3183 19.9458 18.3241 19.9245 18.3352C19.8671 18.3653 19.7893 18.4198 19.6841 18.512C19.5856 18.5984 19.4848 18.698 19.3664 18.8164C19.1437 19.0835 18.8917 19.3829 18.5826 19.5684C18.1893 19.8043 17.7888 19.8211 17.3816 19.7532C17.3429 19.7467 17.3046 19.7372 17.2674 19.7248C16.5209 19.476 15.3256 18.6939 14.2922 17.7638C14.2824 17.7549 14.2728 17.7459 14.2635 17.7365C13.7278 17.2009 13.2908 16.6571 12.9697 16.1543C12.6578 15.6663 12.4215 15.1648 12.3472 14.7187C12.2793 14.3115 12.296 13.911 12.532 13.5178C12.7206 13.2034 13.0271 12.948 13.2977 12.7225L13.3103 12.7121C13.5772 12.4896 13.7277 12.3006 13.7843 12.176C13.7904 12.1626 13.7946 12.1518 13.7974 12.1434C13.6994 12.0211 13.5773 11.8724 13.4368 11.7013C13.2697 11.4977 13.0766 11.2625 12.8672 11.0026C12.5135 10.5636 12.1252 10.0683 11.9424 9.7636C11.8721 9.64653 11.7502 9.53993 11.621 9.4915ZM19.9587 18.3111C19.9587 18.311 19.9595 18.3112 19.9611 18.3117C19.9595 18.3114 19.9587 18.3111 19.9587 18.3111Z" fill="black"/>
</svg>
