<svg width="32" height="32" viewBox="0 0 32 32" fill="none" xmlns="http://www.w3.org/2000/svg">
<path fill-rule="evenodd" clip-rule="evenodd" d="M23.3011 2C23.8753 2 24.3414 2.4672 24.3414 3.04286V5.32463H26.5134C28.1431 5.32463 29.4705 6.65531 29.4705 8.29051V27.0355C29.4705 28.6693 28.1431 30 26.5134 30H5.4865C3.85678 30 2.52942 28.6693 2.52942 27.0355V8.29051C2.52942 6.65531 3.85678 5.32463 5.4865 5.32463H8.51571V3.04286C8.51571 2.4672 8.98174 2 9.55596 2C10.1302 2 10.5962 2.4672 10.5962 3.04286V5.32463H22.2609V3.04286C22.2609 2.4672 22.7269 2 23.3011 2ZM27.4954 11.9308H4.5045V27.0355C4.5045 27.5792 4.94418 28.02 5.48649 28.02H26.5134C27.0557 28.02 27.4954 27.5792 27.4954 27.0355V11.9308ZM18.0805 25.4223V21.2509H13.9195V25.4223H18.0805ZM11.3701 21.2509V25.4223H7.20915V21.2509H11.3701ZM18.0805 18.6952V14.5237H13.9195V18.6952H18.0805ZM11.3701 14.5237V18.6952H7.20915V14.5237H11.3701ZM24.7921 18.6952V14.5237H20.6311V18.6952H24.7921Z" fill="black"/>
</svg>
