<svg width="32" height="32" viewBox="0 0 32 32" fill="none" xmlns="http://www.w3.org/2000/svg">
<path fill-rule="evenodd" clip-rule="evenodd" d="M13.12 2.22046C13.4139 2.5144 13.4139 2.99097 13.12 3.28491L3.28491 13.12C2.99097 13.4139 2.5144 13.4139 2.22046 13.12C1.92651 12.826 1.92651 12.3495 2.22046 12.0555L12.0555 2.22046C12.3495 1.92651 12.826 1.92651 13.12 2.22046Z" fill="black"/>
<path fill-rule="evenodd" clip-rule="evenodd" d="M2.22046 2.22046C2.5144 1.92651 2.99097 1.92651 3.28491 2.22046L13.12 12.0555C13.4139 12.3495 13.4139 12.826 13.12 13.12C12.826 13.4139 12.3495 13.4139 12.0555 13.12L2.22046 3.28491C1.92651 2.99097 1.92651 2.5144 2.22046 2.22046Z" fill="black"/>
<path fill-rule="evenodd" clip-rule="evenodd" d="M17.2546 6.76719C17.2546 6.35149 17.5916 6.0145 18.0073 6.0145C24.6451 6.0145 30 11.3694 30 18.0073C30 24.6451 24.6451 30 18.0073 30C11.3694 30 6.0145 24.6451 6.0145 18.0073C6.0145 17.5916 6.35149 17.2546 6.76719 17.2546C7.18288 17.2546 7.51987 17.5916 7.51987 18.0073C7.51987 23.8137 12.2008 28.4946 18.0073 28.4946C23.8137 28.4946 28.4946 23.8137 28.4946 18.0073C28.4946 12.2008 23.8137 7.51987 18.0073 7.51987C17.5916 7.51987 17.2546 7.18288 17.2546 6.76719Z" fill="black"/>
<path fill-rule="evenodd" clip-rule="evenodd" d="M6.76254 16.251C6.96377 16.2498 7.15712 16.3292 7.29942 16.4714L11.4141 20.5861C11.708 20.8801 11.708 21.3566 11.4141 21.6506C11.1201 21.9445 10.6436 21.9445 10.3496 21.6506L6.7738 18.0747L3.29164 21.644C3.00135 21.9415 2.52481 21.9474 2.22726 21.6571C1.92971 21.3668 1.92383 20.8903 2.21412 20.5927L6.22843 16.4781C6.36896 16.334 6.56131 16.2522 6.76254 16.251Z" fill="black"/>
</svg>
