<svg width="32" height="32" viewBox="0 0 32 32" fill="none" xmlns="http://www.w3.org/2000/svg">
<path fill-rule="evenodd" clip-rule="evenodd" d="M13.5684 9.20649H21.3636C22.7401 9.21436 23.8518 10.3325 23.8518 11.709V12.6547L27.4599 10.5902C28.175 10.1676 28.9474 10.0723 29.5718 10.4379C30.1942 10.8024 30.4999 11.5263 30.4999 12.3726V20.3824C30.4999 21.2223 30.207 21.9489 29.5866 22.316C28.9633 22.6848 28.1892 22.585 27.4624 22.1663L23.8518 20.1003V21.0575C23.8518 22.4333 22.7365 23.5485 21.3608 23.5485H13.8087V22.5485H21.3608C22.1842 22.5485 22.8518 21.881 22.8518 21.0575V18.376L27.9597 21.2987L27.9611 21.2995C28.5043 21.6127 28.8742 21.5756 29.0773 21.4554C29.2836 21.3333 29.4999 21.0187 29.4999 20.3824V12.3726C29.4999 11.7428 29.2793 11.4255 29.0664 11.3008C28.8564 11.1778 28.486 11.1445 27.9663 11.4525L27.9597 11.4564L22.8518 14.379V11.7089C22.8518 10.8829 22.1851 10.2119 21.3592 10.2065H13.5684V9.20649Z" fill="black"/>
<path fill-rule="evenodd" clip-rule="evenodd" d="M12.1037 29.3614H4.51728V28.3614H12.1037V29.3614Z" fill="black"/>
<path fill-rule="evenodd" clip-rule="evenodd" d="M8.80478 23.8839V28.8614H7.80478V23.8839H8.80478Z" fill="black"/>
<path fill-rule="evenodd" clip-rule="evenodd" d="M3.35811 18.4026V14.3293H2.35811V18.4257L2.35863 18.4371C2.50467 21.6308 5.13641 24.1449 8.33339 24.1449C11.5304 24.1449 14.1621 21.6308 14.3081 18.4371L14.3087 18.4257V14.3293H13.3087V18.4026C13.1814 21.057 10.9921 23.1449 8.33339 23.1449C5.67465 23.1449 3.48533 21.057 3.35811 18.4026Z" fill="black"/>
<path fill-rule="evenodd" clip-rule="evenodd" d="M4.64752 8.30353C4.76458 6.34734 6.38514 4.82086 8.34483 4.82086C10.3045 4.82086 11.9251 6.34734 12.0421 8.30353L12.043 8.31845V18.4029H11.543L12.0421 18.4327C11.9251 20.3889 10.3045 21.9154 8.34483 21.9154C6.38514 21.9154 4.76458 20.3889 4.64752 18.4327L4.64663 18.4178V8.31845L4.64752 8.30353ZM11.043 18.3873V8.34896C10.9506 6.92778 9.77065 5.82086 8.34483 5.82086C6.919 5.82086 5.73909 6.92778 5.64663 8.34896V18.3873C5.73909 19.8085 6.919 20.9154 8.34483 20.9154C9.77065 20.9154 10.9506 19.8085 11.043 18.3873Z" fill="black"/>
<path fill-rule="evenodd" clip-rule="evenodd" d="M26.6827 27.9562L1.64636 2.91988L2.35347 2.21277L27.3898 27.2491L26.6827 27.9562Z" fill="black"/>
</svg>
