<svg width="32" height="32" viewBox="0 0 32 32" fill="none" xmlns="http://www.w3.org/2000/svg">
<path fill-rule="evenodd" clip-rule="evenodd" d="M9.67588 2C9.99234 1.99927 10.2755 2.19655 10.3843 2.49368L17.4094 21.6621C17.5525 22.0524 17.352 22.4848 16.9617 22.6279C16.5714 22.7709 16.139 22.5705 15.996 22.1802L13.8597 16.3513H5.56535L3.4608 22.1769C3.31956 22.5679 2.88812 22.7703 2.49716 22.6291C2.10619 22.4878 1.90374 22.0564 2.04498 21.6654L8.96971 2.49695C9.07723 2.19932 9.35943 2.00073 9.67588 2ZM6.10918 14.8459H13.308L9.68271 4.95392L6.10918 14.8459ZM29.6768 10.5646C30.0183 10.8017 30.1029 11.2707 29.8658 11.6121L17.3209 29.6766C17.1922 29.8621 16.987 29.9799 16.7619 29.9977C16.5368 30.0154 16.3157 29.9312 16.1594 29.7683L9.13435 22.4421C8.84663 22.1421 8.85663 21.6656 9.15667 21.3779C9.45672 21.0902 9.93319 21.1002 10.2209 21.4002L16.6092 28.0623L28.6293 10.7535C28.8664 10.412 29.3354 10.3274 29.6768 10.5646Z" fill="black"/>
</svg>
