<svg width="32" height="32" viewBox="0 0 32 32" fill="none" xmlns="http://www.w3.org/2000/svg">
<path fill-rule="evenodd" clip-rule="evenodd" d="M10.6691 8.70391C10.8979 8.56907 11.1808 8.56522 11.4131 8.69378L21.7142 14.3944L23.5142 15.3944C23.7523 15.5267 23.9 15.7776 23.9 16.05C23.9 16.3224 23.7523 16.5733 23.5142 16.7056L21.7097 17.7081L13.1009 22.4129L11.4009 23.3128C11.1684 23.4359 10.8885 23.4282 10.6631 23.2925C10.4378 23.1569 10.3 22.913 10.3 22.65V9.35C10.3 9.08448 10.4404 8.83875 10.6691 8.70391ZM11.8 10.6222V21.4043L12.3947 21.0895L20.9881 16.3931L21.6057 16.05L20.9869 15.7062L11.8 10.6222Z" fill="black"/>
<path fill-rule="evenodd" clip-rule="evenodd" d="M15.95 3.5C9.07405 3.5 3.5 9.07405 3.5 15.95C3.5 22.8259 9.07405 28.4 15.95 28.4C22.8259 28.4 28.4 22.8259 28.4 15.95C28.4 9.07405 22.8259 3.5 15.95 3.5ZM2 15.95C2 8.24563 8.24563 2 15.95 2C23.6544 2 29.9 8.24563 29.9 15.95C29.9 23.6544 23.6544 29.9 15.95 29.9C8.24563 29.9 2 23.6544 2 15.95Z" fill="black"/>
</svg>
