<svg width="32" height="32" viewBox="0 0 32 32" fill="none" xmlns="http://www.w3.org/2000/svg">
<path fill-rule="evenodd" clip-rule="evenodd" d="M9.73184 5.77869C9.86993 4.22793 11.0652 3 12.6882 3C14.4406 3 15.7798 4.4866 15.6465 6.21902L15.6459 6.22745L15.6458 6.22745L15.417 8.82079H17.9152L18.1602 5.79939L18.1603 5.79771C18.2903 4.23798 19.4886 3 21.1183 3C22.8708 3 24.2099 4.4866 24.0766 6.21902L24.076 6.22745L24.0759 6.22745L23.8471 8.82079H27.0394C28.6811 8.82079 30 10.1834 30 11.8817C30 13.5529 28.6976 14.963 27.0105 14.8423H23.1213L22.9331 17.3513H24.9319C26.5519 17.3513 27.8925 18.6918 27.8925 20.3118C27.8925 21.9318 26.5519 23.2724 24.9319 23.2724H22.5149L22.2699 26.2938L22.2698 26.2955C22.1398 27.8552 20.9415 29.0932 19.3118 29.0932C17.5594 29.0932 16.2202 27.6066 16.3535 25.8742L16.3541 25.8657L16.3542 25.8657L16.583 23.2724H14.0848L13.8398 26.2938L13.8397 26.2955C13.7097 27.8552 12.5113 29.0932 10.8817 29.0932C9.12924 29.0932 7.7901 27.6066 7.92336 25.8742L7.92401 25.8657L7.92406 25.8657L8.15288 23.2724H4.96057C3.34057 23.2724 2 21.9318 2 20.3118C2 18.6918 3.34057 17.3513 4.96057 17.3513H8.67799L8.86616 14.8423H6.86738C5.24738 14.8423 3.90681 13.5017 3.90681 11.8817C3.90681 10.2617 5.24738 8.92115 6.86738 8.92115H9.31836L9.73184 5.77869ZM12.6882 4.50538C11.9092 4.50538 11.3011 5.07385 11.2304 5.92272C11.2294 5.93465 11.2281 5.94654 11.2265 5.95841L10.7247 9.77203C10.6755 10.1465 10.3562 10.4265 9.97849 10.4265H6.86738C6.07878 10.4265 5.41219 11.0931 5.41219 11.8817C5.41219 12.6703 6.07878 13.3369 6.86738 13.3369H9.67742C9.88683 13.3369 10.0868 13.4242 10.2292 13.5777C10.3716 13.7312 10.4437 13.9371 10.428 14.1459L10.1269 18.1602C10.0975 18.553 9.7702 18.8566 9.37634 18.8566H4.96057C4.17197 18.8566 3.50538 19.5232 3.50538 20.3118C3.50538 21.1004 4.17197 21.767 4.96057 21.767H8.97491C9.18604 21.767 9.38746 21.8557 9.53004 22.0114C9.67262 22.1671 9.74324 22.3756 9.72468 22.5859L9.42402 25.9934C9.3588 26.8686 10.0261 27.5878 10.8817 27.5878C11.6604 27.5878 12.2683 27.0198 12.3394 26.1715C12.3395 26.1712 12.3395 26.1708 12.3395 26.1705L12.6405 22.4589C12.6721 22.0681 12.9986 21.767 13.3907 21.767H17.405C17.6161 21.767 17.8176 21.8557 17.9601 22.0114C18.1027 22.1671 18.1733 22.3756 18.1548 22.5859L17.8541 25.9934C17.7889 26.8686 18.4562 27.5878 19.3118 27.5878C20.0906 27.5878 20.6985 27.0197 20.7696 26.1712C20.7696 26.1709 20.7696 26.1707 20.7696 26.1705L21.0706 22.4589C21.1022 22.0681 21.4287 21.767 21.8208 21.767H24.9319C25.7205 21.767 26.3871 21.1004 26.3871 20.3118C26.3871 19.5232 25.7205 18.8566 24.9319 18.8566H22.1219C21.9125 18.8566 21.7125 18.7694 21.5701 18.6159C21.4277 18.4624 21.3556 18.2565 21.3713 18.0476L21.6724 14.0333C21.7018 13.6406 22.0291 13.3369 22.4229 13.3369H27.0394C27.0603 13.3369 27.0811 13.3378 27.1019 13.3395C27.8072 13.3983 28.4946 12.8088 28.4946 11.8817C28.4946 10.9708 27.8064 10.3262 27.0394 10.3262H23.0251C22.814 10.3262 22.6125 10.2375 22.47 10.0818C22.3274 9.92607 22.2568 9.71763 22.2753 9.50732L22.576 6.09981C22.6412 5.22461 21.9739 4.50538 21.1183 4.50538C20.3395 4.50538 19.7316 5.07353 19.6605 5.922C19.6605 5.92224 19.6605 5.92248 19.6605 5.92272L19.3595 9.63431C19.3279 10.0251 19.0014 10.3262 18.6093 10.3262H14.595C14.3839 10.3262 14.1824 10.2375 14.0399 10.0818C13.8973 9.92607 13.8266 9.71763 13.8452 9.50732L14.1459 6.09981C14.2111 5.22461 13.5438 4.50538 12.6882 4.50538ZM13.3426 14.0333C13.3721 13.6406 13.6993 13.3369 14.0932 13.3369H18.1075C18.3169 13.3369 18.5169 13.4242 18.6593 13.5777C18.8017 13.7312 18.8738 13.9371 18.8581 14.1459L18.557 18.1602C18.5276 18.553 18.2003 18.8566 17.8064 18.8566H13.7921C13.5827 18.8566 13.3828 18.7694 13.2403 18.6159C13.0979 18.4624 13.0259 18.2565 13.0415 18.0476L13.3426 14.0333ZM14.7915 14.8423L14.6034 17.3513H17.1081L17.2963 14.8423H14.7915Z" fill="black"/>
</svg>
