<svg width="32" height="32" viewBox="0 0 32 32" fill="none" xmlns="http://www.w3.org/2000/svg">
<path fill-rule="evenodd" clip-rule="evenodd" d="M17.8824 6.50236C16.7678 5.83499 15.3766 5.83499 14.2621 6.50236C13.1475 7.16975 12.4902 8.39639 12.5517 9.69449L12.5523 9.70744L12.5522 9.7204C12.5434 11.6815 14.117 13.2821 16.0762 13.307C18.0323 13.2778 19.6011 11.6784 19.5922 9.72041L19.5922 9.70744L19.5928 9.69449C19.6543 8.39639 18.997 7.16975 17.8824 6.50236ZM13.7484 5.64441C15.1792 4.78764 16.9652 4.78764 18.3961 5.64441C19.8232 6.49894 20.6662 8.06755 20.5922 9.72885C20.5961 11.9355 19.0343 13.7841 16.9486 14.2135C18.2214 14.2453 19.4823 14.4722 20.6872 14.8865C22.5663 15.5266 23.9863 17.0853 24.4495 19.016L24.4535 19.0325L25.3737 24.4783L24.7514 24.8078L24.7497 24.8087C22.0855 26.248 19.1046 27.0005 16.0767 26.9981C13.0454 26.9997 10.0614 26.247 7.39336 24.808L7.39123 24.8068L6.78091 24.4738L7.69091 19.0509L7.69494 19.0341C8.15871 17.1003 9.57663 15.5367 11.4557 14.8871C12.6612 14.4726 13.9233 14.2454 15.1965 14.2135C13.111 13.7846 11.5484 11.9362 11.5522 9.72886C11.4783 8.06756 12.3212 6.49895 13.7484 5.64441ZM6.70129 7.77201C5.4576 7.77201 4.44911 8.78058 4.44911 10.025C4.44911 11.2695 5.4576 12.2781 6.70129 12.2781C7.94498 12.2781 8.95347 11.2695 8.95347 10.025C8.95347 8.78058 7.94498 7.77201 6.70129 7.77201ZM3.44911 10.025C3.44911 8.22859 4.90502 6.77201 6.70129 6.77201C8.49756 6.77201 9.95347 8.22859 9.95347 10.025C9.95347 11.8215 8.49756 13.2781 6.70129 13.2781C4.90502 13.2781 3.44911 11.8215 3.44911 10.025ZM24.0939 7.01482C25.3158 6.51455 26.7187 6.80283 27.6445 7.74432C28.5702 8.68578 28.8351 10.0936 28.3149 11.3072C27.7953 12.5196 26.5952 13.298 25.2767 13.2781C24.4182 13.2771 23.5959 12.9319 22.9939 12.3196C22.3919 11.7074 22.0605 10.8793 22.0737 10.0208C22.0755 8.70202 22.8733 7.51456 24.0939 7.01482ZM26.9314 8.44544C26.2903 7.79344 25.3188 7.59386 24.4728 7.94026C23.6267 8.28667 23.0738 9.11042 23.0737 10.0251L23.0737 10.0334C23.0638 10.6254 23.292 11.1965 23.7069 11.6185C24.1219 12.0405 24.6889 12.2782 25.2807 12.2781L25.2889 12.2781C26.203 12.2931 27.0355 11.7539 27.3958 10.9133C27.7561 10.0726 27.5726 9.09748 26.9314 8.44544ZM25.008 13.7674C25.8599 13.764 26.706 13.9075 27.5092 14.1916C28.7353 14.5986 29.6637 15.6113 29.9631 16.8686L29.9669 16.8846L30.5518 20.3348L30.245 20.5072C28.8754 21.277 27.4017 21.8447 25.8697 22.1927L25.6482 21.2176C26.9722 20.9168 28.2498 20.4412 29.4475 19.8037L28.9866 17.0848C28.7632 16.1702 28.0846 15.4348 27.1903 15.1394L27.18 15.136C26.4859 14.8899 25.7546 14.7651 25.0182 14.7674C24.566 14.7807 23.8582 14.8417 23.2261 14.9598C22.9077 15.0192 22.6247 15.0903 22.4087 15.1704C22.1986 15.2482 22.1236 15.3092 22.1099 15.3204C22.1078 15.3222 22.1077 15.3218 22.1077 15.3218L21.2891 14.7475C21.4739 14.484 21.7976 14.3304 22.0611 14.2327C22.3518 14.1249 22.6964 14.0414 23.0424 13.9768C23.7362 13.8472 24.5001 13.7818 24.9957 13.7676L25.008 13.7674ZM4.46159 14.1923C5.26541 13.9077 6.1123 13.764 6.96501 13.7674L6.97726 13.7675C7.4729 13.7817 8.23685 13.8472 8.93056 13.9768C9.27657 14.0414 9.62122 14.1249 9.91194 14.2327C10.1754 14.3304 10.4991 14.484 10.6839 14.7475L9.86529 15.3218C9.86529 15.3218 9.86525 15.3222 9.86308 15.3204C9.84937 15.3092 9.7744 15.2482 9.56433 15.1704C9.34832 15.0903 9.06527 15.0192 8.74692 14.9598C8.11479 14.8417 7.40697 14.7807 6.95485 14.7674C6.21843 14.7651 5.48711 14.8898 4.79296 15.1359L4.78728 15.1379C3.90157 15.4399 3.23244 16.1745 3.01364 17.084L2.55255 19.8037C3.75023 20.4412 5.02783 20.9168 6.35184 21.2176L6.13034 22.1927C4.59833 21.8447 3.12466 21.277 1.75505 20.5072L1.44824 20.3348L2.03306 16.8853L2.03664 16.8701C2.33026 15.6195 3.24637 14.6079 4.46159 14.1923ZM16.698 15.2097H15.4554C14.2053 15.2155 12.9647 15.4258 11.7825 15.8322C10.2314 16.3684 9.05957 17.6565 8.67133 19.2509L7.88498 23.937C10.4028 25.2914 13.2175 25.9996 16.0765 25.9981C18.9357 26.0004 21.751 25.2906 24.2674 23.9327L23.4732 19.2331C23.0859 17.6431 21.9136 16.3605 20.3642 15.8329L20.3627 15.8324C19.1832 15.4267 17.9453 15.2163 16.698 15.2097Z" fill="black"/>
</svg>
