<svg width="32" height="32" viewBox="0 0 32 32" fill="none" xmlns="http://www.w3.org/2000/svg">
<path fill-rule="evenodd" clip-rule="evenodd" d="M13.98 3.24L13.66 4.62H18.48L18.17 3.25H13.98V3.24ZM19.27 2.48L19.76 4.61H27.24C27.58 4.61 27.86 4.89 27.86 5.23C27.86 5.57 27.58 5.85 27.24 5.85H26.33L24.37 29.42C24.34 29.74 24.07 29.99 23.75 29.99H8.11C7.79 29.99 7.52 29.74 7.49 29.42L5.54 5.86H4.62C4.28 5.86 4 5.58 4 5.24C4 4.9 4.28 4.62 4.62 4.62H12.38L12.87 2.48C12.94 2.2 13.19 2 13.48 2H18.66C18.95 2 19.2 2.2 19.27 2.48ZM6.78 5.86L8.68 28.76H23.17L25.07 5.86H6.78ZM15.93 9.52C16.27 9.52 16.55 9.8 16.55 10.14V25.12C16.55 25.46 16.27 25.74 15.93 25.74C15.59 25.74 15.31 25.46 15.31 25.12V10.15C15.3 9.8 15.58 9.52 15.93 9.52ZM11.7 11.32C11.68 10.98 11.38 10.72 11.04 10.74C10.7 10.76 10.44 11.06 10.46 11.4L11.27 24.39C11.29 24.73 11.59 24.99 11.93 24.97C12.27 24.95 12.53 24.65 12.51 24.31L11.7 11.32ZM20.81 10.74C21.15 10.76 21.41 11.06 21.39 11.4L20.58 24.39C20.56 24.73 20.26 24.99 19.92 24.97C19.58 24.95 19.32 24.65 19.34 24.31L20.15 11.32C20.17 10.98 20.47 10.72 20.81 10.74Z" fill="black"/>
</svg>
