<svg width="32" height="32" viewBox="0 0 32 32" fill="none" xmlns="http://www.w3.org/2000/svg">
<path fill-rule="evenodd" clip-rule="evenodd" d="M13.05 3.5C7.77568 3.5 3.5 7.77568 3.5 13.05C3.5 18.3243 7.77568 22.6 13.05 22.6C14.0825 22.6 15.0768 22.4361 16.0082 22.133C15.8078 21.4739 15.7 20.7746 15.7 20.05C15.7 16.1852 18.7664 13.0366 22.5989 12.9043C22.521 7.69718 18.2757 3.5 13.05 3.5ZM24.0999 13.0089C24.0778 6.92505 19.139 2 13.05 2C6.94725 2 2 6.94725 2 13.05C2 19.1527 6.94725 24.1 13.05 24.1C14.2904 24.1 15.4831 23.8956 16.5962 23.5187C17.8167 25.7143 20.1598 27.2 22.85 27.2C26.7988 27.2 30 23.9988 30 20.05C30 16.5276 27.4528 13.6 24.0999 13.0089ZM22.5038 14.4104C19.5446 14.5893 17.2 17.0458 17.2 20.05C17.2 20.5704 17.2704 21.0744 17.4021 21.553C20.1037 20.1674 22.0586 17.5322 22.5038 14.4104ZM17.9917 22.9361C21.197 21.3308 23.513 18.2126 24.0034 14.5178C26.5706 15.0503 28.5 17.3248 28.5 20.05C28.5 23.1704 25.9704 25.7 22.85 25.7C20.784 25.7 18.977 24.5911 17.9917 22.9361ZM5.25 24.9C4.2835 24.9 3.5 25.6835 3.5 26.65C3.5 27.6165 4.2835 28.4 5.25 28.4C6.2165 28.4 7 27.6165 7 26.65C7 25.6835 6.2165 24.9 5.25 24.9ZM2 26.65C2 24.8551 3.45507 23.4 5.25 23.4C7.04493 23.4 8.5 24.8551 8.5 26.65C8.5 28.4449 7.04493 29.9 5.25 29.9C3.45507 29.9 2 28.4449 2 26.65Z" fill="black"/>
</svg>
