<svg width="32" height="32" viewBox="0 0 32 32" fill="none" xmlns="http://www.w3.org/2000/svg">
<path d="M22.17 6.23098H5.75C5.55359 6.2335 5.36578 6.31196 5.22596 6.44992C5.08613 6.58788 5.00515 6.77462 5 6.97098V23.401L6.5 21.901V7.73098H20.67L22.17 6.23098Z" fill="black"/>
<path d="M29.25 6.23098H27.83L26.33 7.73098H28.5V22.731H11.33L9.83 24.231H16.75V27.731H13.25C13.0511 27.731 12.8603 27.81 12.7197 27.9507C12.579 28.0913 12.5 28.2821 12.5 28.481C12.5 28.6799 12.579 28.8707 12.7197 29.0113C12.8603 29.152 13.0511 29.231 13.25 29.231H21.75C21.9489 29.231 22.1397 29.152 22.2803 29.0113C22.421 28.8707 22.5 28.6799 22.5 28.481C22.5 28.2821 22.421 28.0913 22.2803 27.9507C22.1397 27.81 21.9489 27.731 21.75 27.731H18.25V24.231H29.25C29.4489 24.231 29.6397 24.152 29.7803 24.0113C29.921 23.8707 30 23.6799 30 23.481V6.97098C29.9948 6.77462 29.9139 6.58788 29.774 6.44992C29.6342 6.31196 29.4464 6.2335 29.25 6.23098Z" fill="black"/>
<path d="M3.5 18.481V4.73098H23.67L24.86 3.54098C24.7902 3.44463 24.6985 3.36627 24.5924 3.31236C24.4863 3.25846 24.369 3.23057 24.25 3.23098H2.75C2.55359 3.2335 2.36578 3.31197 2.22596 3.44992C2.08613 3.58788 2.00515 3.77462 2 3.97098V18.471C2 18.6699 2.07902 18.8607 2.21967 19.0013C2.36032 19.142 2.55109 19.221 2.75 19.221C2.94891 19.221 3.13968 19.142 3.28033 19.0013C3.42098 18.8607 3.5 18.6699 3.5 18.471V18.481Z" fill="black"/>
<path d="M13.6 10.681C13.4875 10.7482 13.3943 10.8434 13.3295 10.9573C13.2647 11.0712 13.2304 11.1999 13.23 11.331V15.171L16.52 11.881L14.34 10.671C14.2263 10.6085 14.0984 10.5766 13.9687 10.5784C13.839 10.5801 13.712 10.6155 13.6 10.681Z" fill="black"/>
<path d="M20.16 13.901L14.23 19.831H14.34L21.39 15.931C21.5065 15.8649 21.6032 15.7689 21.67 15.6528C21.7368 15.5367 21.7714 15.4049 21.77 15.271C21.7717 15.1383 21.7372 15.0077 21.6703 14.8932C21.6033 14.7787 21.5064 14.6846 21.39 14.621L20.16 13.901Z" fill="black"/>
<path d="M29 2.19098C28.8625 2.06799 28.6845 2 28.5 2C28.3155 2 28.1375 2.06799 28 2.19098L3 27.191C2.92924 27.2599 2.87301 27.3423 2.83461 27.4334C2.79621 27.5244 2.77643 27.6222 2.77643 27.721C2.77643 27.8198 2.79621 27.9176 2.83461 28.0086C2.87301 28.0996 2.92924 28.182 3 28.251C3.06817 28.3225 3.15052 28.379 3.24178 28.4169C3.33305 28.4548 3.43121 28.4732 3.53 28.471C3.70415 28.465 3.87059 28.3977 4 28.281L29 3.28098C29.0755 3.21167 29.1357 3.12743 29.1769 3.03362C29.2181 2.9398 29.2394 2.83845 29.2394 2.73598C29.2394 2.63351 29.2181 2.53216 29.1769 2.43835C29.1357 2.34453 29.0755 2.2603 29 2.19098Z" fill="black"/>
</svg>
