<svg width="32" height="32" viewBox="0 0 32 32" fill="none" xmlns="http://www.w3.org/2000/svg">
<path fill-rule="evenodd" clip-rule="evenodd" d="M11.1828 5.50538C10.4946 5.50538 9.92831 6.07161 9.92831 6.75986C9.92831 8.68093 8.38702 10.2222 6.46595 10.2222H4.75986C4.07161 10.2222 3.50538 10.7885 3.50538 11.4767V24.8244C3.50538 25.5126 4.07161 26.0789 4.75986 26.0789H27.2401C27.9284 26.0789 28.4946 25.5126 28.4946 24.8244V11.4767C28.4946 10.7885 27.9284 10.2222 27.2401 10.2222H25.534C23.613 10.2222 22.0717 8.68093 22.0717 6.75986C22.0717 6.07161 21.5054 5.50538 20.8172 5.50538H11.1828ZM8.42294 6.75986C8.42294 5.24022 9.66315 4 11.1828 4H20.8172C22.3368 4 23.5771 5.24022 23.5771 6.75986C23.5771 7.84953 24.4444 8.71685 25.534 8.71685H27.2401C28.7598 8.71685 30 9.95706 30 11.4767V24.8244C30 26.344 28.7598 27.5842 27.2401 27.5842H4.75986C3.24022 27.5842 2 26.344 2 24.8244V11.4767C2 9.95706 3.24022 8.71685 4.75986 8.71685H6.46595C7.55563 8.71685 8.42294 7.84953 8.42294 6.75986ZM16 7.21147C16.1996 7.21147 16.3911 7.29077 16.5322 7.43193L18.8405 9.74017C19.1344 10.0341 19.1344 10.5107 18.8405 10.8046C18.5465 11.0986 18.07 11.0986 17.776 10.8046L16.7527 9.78131V15.0394H22.0108L20.9875 14.0161C20.6935 13.7222 20.6935 13.2456 20.9875 12.9516C21.2814 12.6577 21.758 12.6577 22.0519 12.9516L24.3602 15.2599C24.6541 15.5538 24.6541 16.0304 24.3602 16.3243L22.0519 18.6326C21.758 18.9265 21.2814 18.9265 20.9875 18.6326C20.6935 18.3386 20.6935 17.8621 20.9875 17.5681L22.0108 16.5448H16.7527V21.8029L17.776 20.7796C18.07 20.4857 18.5465 20.4857 18.8405 20.7796C19.1344 21.0735 19.1344 21.5501 18.8405 21.8441L16.5322 24.1523C16.3911 24.2935 16.1996 24.3728 16 24.3728C15.8004 24.3728 15.6089 24.2935 15.4678 24.1523L13.1595 21.8441C12.8656 21.5501 12.8656 21.0735 13.1595 20.7796C13.4535 20.4857 13.93 20.4857 14.224 20.7796L15.2473 21.8029V16.5448H9.98919L11.0125 17.5681C11.3065 17.8621 11.3065 18.3386 11.0125 18.6326C10.7186 18.9265 10.242 18.9265 9.94805 18.6326L7.63981 16.3243C7.34587 16.0304 7.34587 15.5538 7.63981 15.2599L9.94805 12.9516C10.242 12.6577 10.7186 12.6577 11.0125 12.9516C11.3065 13.2456 11.3065 13.7222 11.0125 14.0161L9.98919 15.0394H15.2473V9.78131L14.224 10.8046C13.93 11.0986 13.4535 11.0986 13.1595 10.8046C12.8656 10.5107 12.8656 10.0341 13.1595 9.74017L15.4678 7.43193C15.6089 7.29077 15.8004 7.21147 16 7.21147Z" fill="black"/>
</svg>
