<svg width="32" height="32" viewBox="0 0 32 32" fill="none" xmlns="http://www.w3.org/2000/svg">
<path d="M29.18 10.26L21.73 2.81C21.21 2.29 20.51 2 19.76 2H5.81C3.71 2 2 3.71 2 5.81V26.19C2 28.29 3.71 30 5.81 30H26.19C28.29 30 30 28.29 30 26.19V12.24C30 11.49 29.71 10.79 29.18 10.26ZM28.12 11.33C28.22 11.43 28.28 11.55 28.34 11.67H21.62C20.91 11.67 20.33 11.09 20.33 10.38V3.65C20.45 3.71 20.57 3.78 20.67 3.88L28.12 11.33ZM26.19 28.5H5.81C4.54 28.5 3.5 27.46 3.5 26.19V5.81C3.5 4.54 4.54 3.5 5.81 3.5H18.84V10.37C18.84 11.91 20.09 13.16 21.63 13.16H28.5V26.19C28.5 27.46 27.46 28.5 26.19 28.5Z" fill="black"/>
<path d="M13.95 17.79V16.94H8.52V18.15H12.09L8.51 23.31V24.18H14.03V22.98H10.38L13.95 17.79Z" fill="black"/>
<path d="M16.55 16.94H15.06V24.19H16.55V16.94Z" fill="black"/>
<path d="M22.2 17.24C21.79 17.04 21.31 16.94 20.76 16.94H17.93V24.19H19.42V21.64H20.73C21.59 21.64 22.26 21.43 22.75 21.03C23.24 20.62 23.48 20.06 23.48 19.35C23.48 18.88 23.37 18.47 23.15 18.1C22.93 17.72 22.62 17.43 22.2 17.24ZM21.67 20.14C21.46 20.33 21.16 20.42 20.77 20.42H19.44V18.15H20.81C21.18 18.16 21.47 18.27 21.68 18.49C21.89 18.71 21.99 19 21.99 19.35C21.98 19.69 21.88 19.96 21.67 20.14Z" fill="black"/>
</svg>
