<svg width="32" height="32" viewBox="0 0 32 32" fill="none" xmlns="http://www.w3.org/2000/svg">
<path fill-rule="evenodd" clip-rule="evenodd" d="M3.49466 6.85966V7.03559C3.49466 8.41644 4.55509 9.47687 5.93594 9.47687H12.2135C13.5944 9.47687 14.6548 8.41644 14.6548 7.03559V6.93594C14.6548 5.55509 13.5944 4.49466 12.2135 4.49466H5.93594C4.66921 4.49466 3.58256 5.54491 3.49466 6.85966ZM2.00129 6.79241C2.12268 4.72884 3.82136 3 5.93594 3H12.2135C14.4199 3 16.1495 4.72961 16.1495 6.93594V7.03559C16.1495 9.24192 14.4199 10.9715 12.2135 10.9715H5.93594C3.72961 10.9715 2 9.24192 2 7.03559V6.8363C2 6.82166 2.00043 6.80703 2.00129 6.79241Z" fill="black"/>
<path fill-rule="evenodd" clip-rule="evenodd" d="M8.61167 16.873C8.90352 16.5811 9.3767 16.5811 9.66855 16.873L15.1643 22.3687C15.4561 22.6606 15.4561 23.1337 15.1643 23.4256L9.66855 28.9213C9.3767 29.2132 8.90352 29.2132 8.61167 28.9213L3.11592 23.4256C2.82407 23.1337 2.82407 22.6606 3.11592 22.3687L8.61167 16.873ZM9.14011 18.4583L4.70123 22.8972L9.14011 27.336L13.579 22.8972L9.14011 18.4583Z" fill="black"/>
<path fill-rule="evenodd" clip-rule="evenodd" d="M9.12456 9.47687C9.5373 9.47687 9.87189 9.81146 9.87189 10.2242V17.3986C9.87189 17.8113 9.5373 18.1459 9.12456 18.1459C8.71182 18.1459 8.37722 17.8113 8.37722 17.3986V10.2242C8.37722 9.81146 8.71182 9.47687 9.12456 9.47687Z" fill="black"/>
<path fill-rule="evenodd" clip-rule="evenodd" d="M19.637 18.4947C19.637 18.0819 19.9716 17.7473 20.3843 17.7473H29.2527C29.6654 17.7473 30 18.0819 30 18.4947V27.363C30 27.7757 29.6654 28.1103 29.2527 28.1103H20.3843C19.9716 28.1103 19.637 27.7757 19.637 27.363V18.4947ZM21.1317 19.242V26.6157H28.5053V19.242H21.1317Z" fill="black"/>
<path fill-rule="evenodd" clip-rule="evenodd" d="M13.8577 22.879C13.8577 22.4663 14.1922 22.1317 14.605 22.1317H20.3843C20.7971 22.1317 21.1317 22.4663 21.1317 22.879C21.1317 23.2917 20.7971 23.6263 20.3843 23.6263H14.605C14.1922 23.6263 13.8577 23.2917 13.8577 22.879Z" fill="black"/>
</svg>
