<svg width="32" height="32" viewBox="0 0 32 32" fill="none" xmlns="http://www.w3.org/2000/svg">
<path fill-rule="evenodd" clip-rule="evenodd" d="M13.1205 2.22621C13.4112 1.92912 13.8878 1.924 14.1849 2.21477L16.0168 4.00773L17.8488 2.21477C18.1459 1.924 18.6224 1.92912 18.9132 2.22621C19.2039 2.5233 19.1988 2.99985 18.9017 3.29061L17.0929 5.06093L18.9017 6.83125C19.1988 7.12202 19.2039 7.59857 18.9132 7.89565C18.6224 8.19274 18.1459 8.19786 17.8488 7.9071L16.0168 6.11413L14.1849 7.9071C13.8878 8.19786 13.4112 8.19274 13.1205 7.89565C12.8297 7.59857 12.8348 7.12202 13.1319 6.83125L14.9407 5.06093L13.1319 3.29061C12.8348 2.99985 12.8297 2.5233 13.1205 2.22621ZM20.2821 4.91039C20.5315 4.57784 21.0033 4.51044 21.3358 4.75986C22.3605 5.5284 22.8804 6.81328 22.6291 8.10245L21.348 16.2817C22.2823 16.758 23.0757 17.4882 23.6355 18.4201C23.6361 18.421 23.6366 18.4219 23.6372 18.4228L24.7361 20.221C25.5616 21.5474 24.5581 23.1756 23.0921 23.1756H16.7193V29.2473C16.7193 29.663 16.3823 30 15.9666 30C15.5509 30 15.214 29.663 15.214 29.2473V23.1756H8.94156C7.47555 23.1756 6.47209 21.5475 7.2975 20.2211L8.39649 18.4228C8.39704 18.4219 8.39758 18.421 8.39813 18.4201C8.93783 17.5217 9.69648 16.8085 10.5776 16.3307L9.30402 8.10162C9.04563 6.7702 9.71171 5.51698 10.5592 4.79052C10.8749 4.51999 11.35 4.55654 11.6206 4.87216C11.8911 5.18779 11.8546 5.66296 11.5389 5.93349C10.9851 6.40819 10.6497 7.15441 10.7836 7.82371C10.7857 7.8345 10.7877 7.84534 10.7893 7.85621L12.0169 15.788C12.4202 15.6963 12.8358 15.6487 13.257 15.6487H18.6763C19.0959 15.6487 19.5067 15.6915 19.9038 15.7743L21.1442 7.85486C21.1458 7.84444 21.1477 7.83405 21.1497 7.82371C21.2922 7.11124 21.0092 6.39664 20.4326 5.96416C20.1 5.71474 20.0326 5.24295 20.2821 4.91039ZM23.0921 21.6702C23.4312 21.6702 23.6316 21.2941 23.4574 21.0154L23.4534 21.009L22.3463 19.1973C21.5822 17.9238 20.2244 17.1541 18.6763 17.1541H13.257C11.8177 17.1541 10.4558 17.9165 9.68734 19.1973L9.68419 19.2025L8.57629 21.0154C8.40209 21.2942 8.60241 21.6702 8.94156 21.6702H23.0921Z" fill="black"/>
</svg>
