<svg width="32" height="32" viewBox="0 0 32 32" fill="none" xmlns="http://www.w3.org/2000/svg">
<path fill-rule="evenodd" clip-rule="evenodd" d="M16 3.50538C9.09941 3.50538 3.50538 9.09941 3.50538 16C3.50538 22.9006 9.09941 28.4946 16 28.4946C22.9006 28.4946 28.4946 22.9006 28.4946 16C28.4946 9.09941 22.9006 3.50538 16 3.50538ZM2 16C2 8.26801 8.26801 2 16 2C23.732 2 30 8.26801 30 16C30 23.732 23.732 30 16 30C8.26801 30 2 23.732 2 16Z" fill="black"/>
<path d="M10.4803 9.4767H21.5197C22.1219 9.4767 22.5233 9.87814 22.5233 10.4803V21.5197C22.5233 22.1219 22.1219 22.5233 21.5197 22.5233H10.4803C9.87814 22.5233 9.4767 22.1219 9.4767 21.5197V10.4803C9.4767 9.87814 9.87814 9.4767 10.4803 9.4767Z" fill="black"/>
</svg>
