<svg width="32" height="32" viewBox="0 0 32 32" fill="none" xmlns="http://www.w3.org/2000/svg">
<path fill-rule="evenodd" clip-rule="evenodd" d="M19.4168 6.22258C19.7081 5.92809 20.1829 5.92549 20.4774 6.21678L29.6774 15.3168C29.8193 15.4572 29.8995 15.6483 29.9 15.8479C29.9005 16.0476 29.8215 16.2392 29.6803 16.3803L20.4803 25.5803C20.1874 25.8732 19.7126 25.8732 19.4197 25.5803C19.1268 25.2874 19.1268 24.8126 19.4197 24.5197L27.3393 16.6H3.75C3.33579 16.6 3 16.2642 3 15.85C3 15.4358 3.33579 15.1 3.75 15.1H27.3253L19.4226 7.28322C19.1281 6.99193 19.1255 6.51707 19.4168 6.22258Z" fill="black"/>
</svg>
