<svg width="32" height="32" viewBox="0 0 32 32" fill="none" xmlns="http://www.w3.org/2000/svg">
<path fill-rule="evenodd" clip-rule="evenodd" d="M4.75 5.5C4.06421 5.5 3.5 6.06421 3.5 6.75V25.15C3.5 25.8358 4.06421 26.4 4.75 26.4H27.25C27.9358 26.4 28.5 25.8358 28.5 25.15V6.75C28.5 6.06421 27.9358 5.5 27.25 5.5H4.75ZM2 6.75C2 5.23579 3.23579 4 4.75 4H27.25C28.7642 4 30 5.23579 30 6.75V25.15C30 26.6642 28.7642 27.9 27.25 27.9H4.75C3.23579 27.9 2 26.6642 2 25.15V6.75Z" fill="black"/>
<path fill-rule="evenodd" clip-rule="evenodd" d="M5 12.45C5 12.0358 5.33579 11.7 5.75 11.7H14.85C15.9121 11.7 16.6 12.5854 16.6 13.45V23.15C16.6 23.5642 16.2642 23.9 15.85 23.9C15.4358 23.9 15.1 23.5642 15.1 23.15V13.45C15.1 13.3954 15.0758 13.3268 15.0267 13.2742C14.9846 13.2291 14.9294 13.2 14.85 13.2H5.75C5.33579 13.2 5 12.8642 5 12.45Z" fill="black"/>
<path fill-rule="evenodd" clip-rule="evenodd" d="M5 19.55C5 19.1358 5.33579 18.8 5.75 18.8H12.75C13.1642 18.8 13.5 19.1358 13.5 19.55C13.5 19.9642 13.1642 20.3 12.75 20.3H5.75C5.33579 20.3 5 19.9642 5 19.55Z" fill="black"/>
<path fill-rule="evenodd" clip-rule="evenodd" d="M5 16.05C5 15.6358 5.33579 15.3 5.75 15.3H12.75C13.1642 15.3 13.5 15.6358 13.5 16.05C13.5 16.4642 13.1642 16.8 12.75 16.8H5.75C5.33579 16.8 5 16.4642 5 16.05Z" fill="black"/>
<path fill-rule="evenodd" clip-rule="evenodd" d="M5 23.15C5 22.7358 5.33579 22.4 5.75 22.4H12.75C13.1642 22.4 13.5 22.7358 13.5 23.15C13.5 23.5642 13.1642 23.9 12.75 23.9H5.75C5.33579 23.9 5 23.5642 5 23.15Z" fill="black"/>
</svg>
