<svg width="32" height="32" viewBox="0 0 32 32" fill="none" xmlns="http://www.w3.org/2000/svg">
<path fill-rule="evenodd" clip-rule="evenodd" d="M5.52233 2H29.9702V27.7396C29.9702 28.3715 29.7519 28.9062 29.3153 29.3438C28.8787 29.7813 28.3452 30 27.7146 30H4.28539C3.65479 30 3.12121 29.7813 2.68464 29.3438C2.24807 28.9062 2.02979 28.3715 2.02979 27.7396V5.5H4.35815V6.66667H3.19397V27.7396C3.19397 28.0313 3.30311 28.2865 3.52139 28.5052C3.73968 28.724 3.99434 28.8333 4.28539 28.8333H27.7146C28.0056 28.8333 28.2603 28.724 28.4785 28.5052C28.6968 28.2865 28.806 28.0313 28.806 27.7396V3.16667H6.68651V26.5H5.52233V3.16667V2ZM9.01488 6.66662V5.49996H18.3283V6.66662H9.01488ZM9.01488 12.5V11.3333H26.4776V12.5H9.01488ZM9.01488 18.3334V17.1667H22.9851V18.3334H9.01488ZM9.01488 24.1666V23H26.4776V24.1666H9.01488Z" fill="black"/>
</svg>
