<svg width="32" height="32" viewBox="0 0 32 32" fill="none" xmlns="http://www.w3.org/2000/svg">
<path fill-rule="evenodd" clip-rule="evenodd" d="M28.6677 4.3582C30.0556 5.79402 30.3747 8.8217 29.5516 12.2697C28.6457 16.0647 26.485 19.9714 23.2536 23.258C19.9756 26.4829 16.0685 28.6436 12.2712 29.5497C8.82297 30.3726 5.79368 30.0543 4.35723 28.6681L2.55239 26.8579C1.81746 26.1271 1.81581 24.9353 2.5478 24.1939C2.58144 24.1603 2.58144 24.1603 2.73278 24.0092C2.93457 23.8076 2.93457 23.8076 3.22049 23.5222C3.72509 23.0183 4.22989 22.5145 4.70131 22.0443C5.43205 21.3153 6.01082 20.7387 6.38757 20.3644C7.75832 19.0004 10.0653 19.1213 11.5308 20.5899L12.4398 21.498C13.4176 22.48 15.9948 21.5816 18.7891 18.7867C21.5877 15.9835 22.4792 13.4217 21.4949 12.428L20.5957 11.5289C19.1229 10.0594 19.0008 7.74964 20.3673 6.38663C20.743 6.01001 21.3208 5.43176 22.0463 4.70625C22.5202 4.23235 23.0251 3.72756 23.53 3.22288C23.8161 2.9369 23.8161 2.9369 24.0181 2.73505C24.1696 2.58367 24.1696 2.58367 24.2007 2.55255C24.929 1.81627 26.1337 1.81627 26.8565 2.54985L28.6677 4.3582ZM25.9939 3.40669C25.7436 3.15263 25.3173 3.15262 25.0627 3.41001C25.0291 3.44363 25.0291 3.44363 24.8776 3.59499C24.6757 3.7968 24.6757 3.7968 24.3896 4.08274C23.8848 4.58735 23.3799 5.09207 22.9087 5.56328C22.181 6.29109 21.6034 6.86907 21.2271 7.24633C20.3573 8.1139 20.4387 9.65471 21.455 10.6687L22.3567 11.5704C23.9816 13.2107 22.8619 16.428 19.6493 19.646C16.4383 22.8576 13.2014 23.9861 11.5793 22.3569L10.6708 21.4494C9.66009 20.4365 8.11991 20.3559 7.24492 21.2265C6.86856 21.6004 6.29025 22.1766 5.56466 22.9004C5.08879 23.3751 4.58412 23.8788 4.07965 24.3825C3.79379 24.6679 3.79379 24.6679 3.59205 24.8694C3.44076 25.0205 3.44076 25.0205 3.41011 25.0511C3.15044 25.3141 3.15103 25.7385 3.41165 25.9977L5.20993 27.8014C6.27324 28.8274 8.90239 29.1037 11.9889 28.3672C15.5711 27.5124 19.2809 25.4608 22.3937 22.3985C25.4627 19.277 27.5143 15.5674 28.3689 11.9874C29.1048 8.90485 28.8294 6.28015 27.8045 5.21446L25.9939 3.40669Z" fill="black"/>
</svg>
