<svg width="32" height="32" viewBox="0 0 32 32" fill="none" xmlns="http://www.w3.org/2000/svg">
<path d="M8.925 20.1C8.025 18.8 7.425 17.1 7.425 15.4V12.6C7.425 12.2 7.125 11.8 6.625 11.8C6.325 11.8 6.025 12.1 6.025 12.5V15.3C6.025 17.5 6.725 19.5 7.925 21.1L8.925 20.1Z" fill="black"/>
<path d="M24.925 11.8C24.525 11.8 24.125 12.1 24.125 12.6V15.4C24.125 20 20.425 23.7 15.825 23.7C14.425 23.7 13.125 23.4 11.925 22.7L10.825 23.8C12.125 24.5 13.525 25 15.025 25.1V28.5H10.225C9.825 28.5 9.425 28.8 9.425 29.3C9.425 29.8 9.825 30 10.225 30H21.325C21.725 30 22.125 29.7 22.125 29.2C22.125 28.7 21.825 28.4 21.325 28.4H16.525V25C21.625 24.6 25.625 20.4 25.625 15.2V12.4C25.625 12.1 25.325 11.8 24.925 11.8Z" fill="black"/>
<path d="M11.425 17.6C11.125 17 11.025 16.3 11.025 15.6V8C11.025 5.5 13.025 3.5 15.525 3.5H16.225C18.725 3.5 20.725 5.5 20.725 8V8.4L22.025 7C21.525 4.2 19.125 2 16.125 2H15.425C12.125 2 9.425 4.7 9.425 8V15.6C9.425 16.7 9.725 17.8 10.225 18.6L11.425 17.6Z" fill="black"/>
<path d="M22.125 15.6V12.5L20.625 14V15.6C20.625 18.1 18.625 20.1 16.125 20.1H15.425C15.125 20.1 14.825 20.1 14.525 20L13.325 21.2C13.925 21.4 14.625 21.6 15.425 21.6H16.125C19.425 21.6 22.125 18.9 22.125 15.6Z" fill="black"/>
<path d="M28.425 3.4C28.125 3.1 27.625 3.1 27.325 3.4L3.225 27.5C2.925 27.8 2.925 28.3 3.225 28.6C3.325 28.7 3.525 28.8 3.725 28.8C3.925 28.8 4.125 28.7 4.225 28.6L28.425 4.5C28.725 4.2 28.725 3.7 28.425 3.4Z" fill="black"/>
</svg>
