<svg width="32" height="32" viewBox="0 0 32 32" fill="none" xmlns="http://www.w3.org/2000/svg">
<path d="M29.25 6H5.75C5.55189 6.00259 5.36263 6.08244 5.22253 6.22253C5.08244 6.36263 5.00259 6.55189 5 6.75V23.25C5.00259 23.4481 5.08244 23.6374 5.22253 23.7775C5.36263 23.9176 5.55189 23.9974 5.75 24H16.75V27.5H13.25C13.0511 27.5 12.8603 27.579 12.7197 27.7197C12.579 27.8603 12.5 28.0511 12.5 28.25C12.5 28.4489 12.579 28.6397 12.7197 28.7803C12.8603 28.921 13.0511 29 13.25 29H21.75C21.9489 29 22.1397 28.921 22.2803 28.7803C22.421 28.6397 22.5 28.4489 22.5 28.25C22.5 28.0511 22.421 27.8603 22.2803 27.7197C22.1397 27.579 21.9489 27.5 21.75 27.5H18.25V24H29.25C29.4481 23.9974 29.6374 23.9176 29.7775 23.7775C29.9176 23.6374 29.9974 23.4481 30 23.25V6.75C29.9974 6.55189 29.9176 6.36263 29.7775 6.22253C29.6374 6.08244 29.4481 6.00259 29.25 6ZM28.5 22.5H6.5V7.5H28.5V22.5Z" fill="black"/>
<path d="M25 3.75C24.9974 3.55189 24.9176 3.36263 24.7775 3.22253C24.6374 3.08244 24.4481 3.00259 24.25 3H2.75C2.55189 3.00259 2.36263 3.08244 2.22253 3.22253C2.08244 3.36263 2.00259 3.55189 2 3.75V18.25C2.00259 18.4481 2.08244 18.6374 2.22253 18.7775C2.36263 18.9176 2.55189 18.9974 2.75 19C2.94811 18.9974 3.13737 18.9176 3.27747 18.7775C3.41756 18.6374 3.49741 18.4481 3.5 18.25V4.5H24.25C24.4481 4.49741 24.6374 4.41756 24.7775 4.27747C24.9176 4.13737 24.9974 3.94811 25 3.75Z" fill="black"/>
<path d="M14 19.6498C14.1256 19.6496 14.2492 19.6187 14.36 19.5598L21.41 15.6598C21.5264 15.5934 21.6232 15.4973 21.6905 15.3814C21.7578 15.2655 21.7932 15.1339 21.7932 14.9998C21.7932 14.8658 21.7578 14.7342 21.6905 14.6183C21.6232 14.5023 21.5264 14.4063 21.41 14.3398L14.41 10.4398C14.296 10.374 14.1667 10.3394 14.035 10.3394C13.9034 10.3394 13.7741 10.374 13.66 10.4398C13.5501 10.509 13.4594 10.6049 13.3965 10.7185C13.3335 10.8322 13.3003 10.9599 13.3 11.0898V18.8898C13.3003 19.0198 13.3335 19.1475 13.3965 19.2611C13.4594 19.3748 13.5501 19.4707 13.66 19.5398C13.763 19.603 13.8796 19.6407 14 19.6498Z" fill="black"/>
</svg>
