<svg width="32" height="32" viewBox="0 0 32 32" fill="none" xmlns="http://www.w3.org/2000/svg">
<path fill-rule="evenodd" clip-rule="evenodd" d="M14.4163 1.49951L14.4372 1.50027C14.8506 1.51524 15.2485 1.65996 15.5746 1.91334C15.9486 2.1364 16.1969 2.52322 16.2425 2.95812L16.2453 2.98417V13.2868C16.2779 13.2913 16.317 13.295 16.3632 13.2974C16.4137 13.2971 16.4545 13.2942 16.4869 13.2902V4.33629L16.4881 4.31865C16.517 3.91053 16.7381 3.54106 17.0825 3.32245C17.3838 3.09744 17.7476 2.97128 18.1239 2.96175L18.1564 2.96092L18.1887 2.96431C18.5112 2.99813 18.8201 3.11095 19.0882 3.29243C19.4873 3.4839 19.7545 3.87631 19.7839 4.321L19.785 4.3375V14.7716C19.808 15.3108 19.947 15.8387 20.1926 16.3193L20.1988 16.3314C20.4804 16.9215 20.7302 17.1221 20.9058 17.1773C21.1624 16.6985 21.5158 15.9166 21.9682 14.8181C22.4323 13.6886 22.8195 12.8481 23.106 12.3061L23.1357 12.2499L23.1786 12.2029C23.5656 11.7783 24.0748 11.4853 24.6351 11.3636C24.8613 11.2611 25.106 11.2049 25.3547 11.1985L25.3677 11.1981C25.6624 11.1981 25.9757 11.2765 26.2073 11.5239C26.4329 11.7649 26.4991 12.0799 26.4991 12.3732V12.4016L26.4959 12.4298C26.3588 13.6332 26.1459 14.8268 25.8585 16.0034C25.6416 17.3965 25.2497 18.7568 24.6922 20.0519L24.671 20.101L24.64 20.1445C24.0518 20.9691 22.8357 22.4352 21.0089 24.5281L21.0033 24.5346L20.9974 24.5409C20.7631 24.7913 20.5591 25.0685 20.3895 25.3666C20.3146 25.5184 20.237 25.6683 20.1652 25.8068C20.1258 25.8829 20.0881 25.9556 20.0537 26.0232L20.0407 26.0488L20.0249 26.0726C19.9156 26.2375 19.8346 26.4194 19.7849 26.6107V29.9999H18.7849V26.4946L18.7975 26.4397C18.87 26.1217 18.9978 25.8189 19.1749 25.5452C19.212 25.4727 19.2486 25.402 19.2853 25.3313C19.3554 25.196 19.4256 25.0606 19.4988 24.9119L19.505 24.8992L19.512 24.8869C19.7205 24.5176 19.9719 24.1743 20.2611 23.8642C22.0552 21.8085 23.2276 20.3941 23.7948 19.6071C24.3105 18.3978 24.6729 17.1286 24.8735 15.8292L24.8768 15.8076L24.882 15.7865C25.1595 14.6542 25.3655 13.5057 25.4987 12.3476C25.4965 12.2666 25.4843 12.2268 25.4776 12.211C25.4634 12.206 25.4323 12.1988 25.3741 12.1983C25.2503 12.2025 25.1289 12.2332 25.018 12.2886L24.9565 12.3193L24.8891 12.3322C24.5348 12.4003 24.2104 12.5752 23.959 12.8326C23.6959 13.3379 23.3337 14.1259 22.8932 15.1981C22.4315 16.3191 22.0574 17.1499 21.7733 17.6755C21.6445 17.9203 21.3941 18.1952 21.0175 18.1952C20.2308 18.1952 19.6813 17.5666 19.299 16.7683C18.9881 16.1575 18.8129 15.4868 18.7854 14.802L18.785 14.7919V4.37519C18.7753 4.293 18.7222 4.22188 18.6454 4.18942L18.5941 4.16775L18.5488 4.13531C18.4209 4.04365 18.2728 3.98455 18.1172 3.96286C17.9554 3.97332 17.8 4.03175 17.6712 4.13105L17.6486 4.14849L17.6241 4.16323C17.5477 4.20927 17.4972 4.28796 17.4869 4.37604V13.4035C17.4869 13.6972 17.3544 13.9631 17.09 14.126C16.8668 14.2634 16.5968 14.2975 16.3518 14.2975H16.3403L16.3288 14.297C16.1004 14.2864 15.8578 14.2495 15.6569 14.1398C15.4206 14.0108 15.2453 13.7774 15.2453 13.4656V3.04193C15.2266 2.92531 15.1553 2.82323 15.0512 2.76577L15.0122 2.74423L14.9776 2.71613C14.8193 2.58752 14.6246 2.51219 14.4213 2.50056C14.2053 2.51412 13.9953 2.57786 13.8081 2.68685L13.7931 2.6956L13.7774 2.70329C13.6552 2.76348 13.602 2.81458 13.5816 2.84069C13.568 2.85822 13.568 2.8643 13.5681 2.87015L13.5681 2.87125V13.6477L13.5668 13.6657C13.5449 13.9687 13.3769 14.2411 13.1182 14.3968C12.9407 14.5269 12.7323 14.6086 12.5132 14.6336L12.485 14.6368H12.4566C12.21 14.6368 11.9434 14.6005 11.7225 14.4673C11.4653 14.3124 11.3177 14.0535 11.3177 13.7502V4.31168C11.3088 4.15969 11.2394 4.01743 11.1248 3.91679L11.1076 3.90164L11.0918 3.88498C10.9818 3.76882 10.8342 3.69594 10.6758 3.67879C10.5148 3.69758 10.3636 3.76731 10.2446 3.87826L10.213 3.90771L10.1769 3.9313C10.0725 3.99939 10.0052 4.11127 9.99352 4.23487V14.0498C9.99352 14.3376 9.86234 14.5993 9.59878 14.7566C9.38081 14.8867 9.11876 14.9164 8.88574 14.9164C8.65522 14.9164 8.39165 14.8815 8.17356 14.7342C7.91895 14.5623 7.80903 14.2961 7.80903 14.0237V7.79739C7.80682 7.79397 7.80357 7.78933 7.79894 7.78343C7.77051 7.74714 7.70809 7.68782 7.58698 7.61275L7.57204 7.60349L7.55778 7.5932C7.43149 7.50205 7.2874 7.43903 7.13522 7.40809C7.0841 7.41483 7.03324 7.42349 6.98277 7.43405C6.88574 7.49033 6.79778 7.56117 6.722 7.64419L6.70656 7.6611L6.68964 7.67653C6.58942 7.76793 6.53296 7.83648 6.50505 7.87905C6.50356 7.88132 6.50221 7.88344 6.50098 7.8854V21.885C6.62261 22.5043 6.88306 23.0882 7.26297 23.5927L7.27796 23.6126L7.2909 23.6339C7.6561 24.2352 8.08507 24.7953 8.57035 25.3046C8.80332 25.5392 8.9951 25.7607 9.13208 25.9659C9.26001 26.1575 9.38573 26.4009 9.38573 26.6639V29.9998H8.38573V26.6786C8.38323 26.6727 8.36886 26.6237 8.30038 26.5211C8.21282 26.3899 8.0691 26.2187 7.85754 26.006L7.8502 25.9986C7.31939 25.4421 6.8497 24.8304 6.44899 24.1741C5.97532 23.5386 5.6538 22.8028 5.50935 22.0233L5.50098 21.9782V7.83284C5.50098 7.631 5.58607 7.4569 5.66874 7.33079C5.75327 7.20186 5.86677 7.0754 5.99936 6.95275C6.16522 6.77508 6.3607 6.62748 6.57712 6.51659L6.63014 6.48942L6.68806 6.47547C6.82349 6.44285 6.96099 6.41952 7.0996 6.40564L7.1611 6.39948L7.22225 6.40849C7.54883 6.45657 7.85935 6.58115 8.12851 6.77196C8.45682 6.97847 8.80903 7.30235 8.80903 7.77815V13.9137C8.83053 13.9154 8.85596 13.9164 8.88574 13.9164C8.92834 13.9164 8.96401 13.9148 8.99352 13.9122V4.20027L8.99451 4.18455C9.02155 3.75573 9.24277 3.36358 9.59378 3.11855C9.88327 2.86127 10.2499 2.70628 10.6369 2.67826L10.6698 2.67588L10.7027 2.67784C11.1193 2.70261 11.5113 2.88219 11.802 3.18085C12.1134 3.4626 12.2992 3.85766 12.3173 4.27787L12.3177 4.28857V13.6286C12.346 13.6325 12.3808 13.6354 12.4228 13.6364C12.4631 13.6282 12.5012 13.6107 12.5338 13.5852L12.5674 13.5588L12.5681 2.87125C12.5681 2.3676 12.9039 2.02325 13.3199 1.81401C13.6485 1.62588 14.0171 1.51839 14.3955 1.5005L14.4163 1.49951Z" fill="black"/>
</svg>
