<svg width="32" height="32" viewBox="0 0 32 32" fill="none" xmlns="http://www.w3.org/2000/svg">
<path fill-rule="evenodd" clip-rule="evenodd" d="M13.8241 10.3108H27.9934C29.3761 10.3149 30.496 11.4347 30.5 12.8174L30.5 12.8189L30.5 23.3053L30.5 23.3068C30.496 24.6895 29.3761 25.8093 27.9934 25.8134L27.992 25.8134H11.9041L7.18358 30.4018L7.18836 20.293L8.18836 20.2935L8.1847 28.0341L11.4981 24.8134H27.9911C28.8233 24.8106 29.4972 24.1367 29.5 23.3045L29.5 12.8203C29.4972 11.9882 28.8233 11.3136 27.9912 11.3108H13.8241V10.3108Z" fill="black"/>
<path d="M14.9396 19.1777C15.5558 19.1777 16.0552 18.6782 16.0552 18.0621C16.0552 17.446 15.5558 16.9465 14.9396 16.9465C14.3235 16.9465 13.8241 17.446 13.8241 18.0621C13.8241 18.6782 14.3235 19.1777 14.9396 19.1777Z" fill="black"/>
<path d="M23.8643 19.1777C24.4804 19.1777 24.9799 18.6782 24.9799 18.0621C24.9799 17.446 24.4804 16.9465 23.8643 16.9465C23.2482 16.9465 22.7487 17.446 22.7487 18.0621C22.7487 18.6782 23.2482 19.1777 23.8643 19.1777Z" fill="black"/>
<path d="M19.402 19.1777C20.0181 19.1777 20.5176 18.6782 20.5176 18.0621C20.5176 17.446 20.0181 16.9465 19.402 16.9465C18.7859 16.9465 18.2864 17.446 18.2864 18.0621C18.2864 18.6782 18.7859 19.1777 19.402 19.1777Z" fill="black"/>
<path fill-rule="evenodd" clip-rule="evenodd" d="M7.18836 16.9465V3.55954H8.18836V16.9465H7.18836Z" fill="black"/>
<path fill-rule="evenodd" clip-rule="evenodd" d="M7.68836 2.07495L13.7302 8.11564L13.0232 8.82282L7.68836 3.48903L2.35352 8.82282L1.64648 8.11564L7.68836 2.07495Z" fill="black"/>
</svg>
