<svg width="32" height="32" viewBox="0 0 32 32" fill="none" xmlns="http://www.w3.org/2000/svg">
<mask id="path-1-outside-1" maskUnits="userSpaceOnUse" x="5" y="0" width="22" height="30" fill="black">
<rect fill="white" x="5" width="22" height="30"/>
<path fill-rule="evenodd" clip-rule="evenodd" d="M8.88475 29.9999V26.664C8.88475 26.4415 8.6573 26.1022 8.2111 25.6535C7.6995 25.1171 7.24736 24.5271 6.86258 23.8936C6.42716 23.3154 6.13189 22.644 6 21.9323V7.8329C6 7.70736 6.11187 7.52591 6.35174 7.30715C6.4807 7.16588 6.63393 7.04886 6.80416 6.96163C6.91745 6.93434 7.03248 6.91483 7.14844 6.90321C7.40155 6.94048 7.64198 7.0381 7.84943 7.18783C8.15021 7.37427 8.30806 7.57064 8.30806 7.77821V14.0238C8.30806 14.2898 8.50071 14.4165 8.88477 14.4165C9.29243 14.4165 9.49254 14.3009 9.49254 14.0498V4.21608C9.51058 3.93 9.66262 3.66923 9.90269 3.51261C10.1133 3.31622 10.3848 3.1978 10.672 3.17701C10.9694 3.1947 11.2489 3.3249 11.4538 3.54119C11.6731 3.73383 11.8042 4.00771 11.8167 4.29935V13.7503C11.8167 14.0051 12.038 14.1368 12.4556 14.1368C12.5961 14.1208 12.7295 14.0662 12.8409 13.979C12.9711 13.909 13.0565 13.7773 13.0671 13.6298V2.87131C13.0671 2.62771 13.2225 2.41885 13.5556 2.2548C13.8184 2.10177 14.1143 2.01437 14.4181 2C14.7373 2.01156 15.044 2.12674 15.2919 2.32811C15.5451 2.46793 15.7141 2.7227 15.7443 3.01041V13.4657C15.7443 13.6695 15.9456 13.7789 16.3508 13.7975C16.7734 13.7975 16.9859 13.6695 16.9859 13.4035V4.35404C17.004 4.09833 17.1454 3.86742 17.365 3.73508C17.5863 3.56449 17.8562 3.46873 18.1356 3.46165C18.3893 3.48825 18.6317 3.58035 18.8391 3.72892C19.0936 3.83648 19.2658 4.07836 19.284 4.35409V14.782C19.3087 15.3968 19.4664 15.9989 19.7464 16.5469C20.1118 17.3125 20.5369 17.6953 21.0166 17.6953C21.1247 17.6953 21.2415 17.612 21.331 17.4405C21.602 16.9396 21.9682 16.1288 22.4297 15.0082C22.8909 13.8858 23.2712 13.0618 23.5471 12.5398C23.8764 12.1786 24.3137 11.9335 24.7937 11.8413C24.972 11.7523 25.1675 11.7035 25.3667 11.6983C25.7905 11.6983 25.9981 11.9196 25.9981 12.3732C25.8626 13.5628 25.6517 14.7427 25.3667 15.9055C25.1569 17.2645 24.7756 18.5913 24.2319 19.8542C23.6602 20.6559 22.46 22.1043 20.6313 24.1994C20.3667 24.4822 20.1368 24.7955 19.9464 25.1328C19.8296 25.3702 19.7128 25.5889 19.6071 25.7965C19.4548 26.0264 19.3453 26.282 19.284 26.5509V30"/>
</mask>
<path d="M8.2111 25.6535L7.4875 26.3437L7.49469 26.3513L7.50204 26.3586L8.2111 25.6535ZM6.86258 23.8936L7.71727 23.3744L7.69139 23.3318L7.6614 23.292L6.86258 23.8936ZM6 21.9323H5V22.0242L5.01674 22.1145L6 21.9323ZM6.35174 7.30715L7.02558 8.04603L7.05942 8.01517L7.0903 7.98134L6.35174 7.30715ZM6.80416 6.96163L6.57 5.98943L6.45417 6.01733L6.34813 6.07166L6.80416 6.96163ZM7.14844 6.90321L7.2941 5.91388L7.1718 5.89587L7.0488 5.90819L7.14844 6.90321ZM7.84943 7.18783L7.26417 7.99868L7.29269 8.01926L7.32258 8.03779L7.84943 7.18783ZM9.49254 4.21608L8.49452 4.15314L8.49254 4.18458V4.21608H9.49254ZM9.90269 3.51261L10.4491 4.35012L10.5214 4.30293L10.5846 4.24403L9.90269 3.51261ZM10.672 3.17701L10.7314 2.17878L10.6656 2.17486L10.5998 2.17962L10.672 3.17701ZM11.4538 3.54119L10.7278 4.22889L10.7594 4.26222L10.7939 4.29251L11.4538 3.54119ZM11.8167 4.29935H12.8167V4.27792L12.8158 4.2565L11.8167 4.29935ZM12.4556 14.1368V15.1368H12.5124L12.5689 15.1304L12.4556 14.1368ZM12.8409 13.979L12.3674 13.0982L12.2921 13.1387L12.2247 13.1915L12.8409 13.979ZM13.0671 13.6298L14.0645 13.7017L14.0671 13.6658V13.6298H13.0671ZM13.5556 2.2548L13.9974 3.1519L14.0286 3.13653L14.0587 3.11902L13.5556 2.2548ZM14.4181 2L14.4543 1.00066L14.4126 0.999144L14.3709 1.00112L14.4181 2ZM15.2919 2.32811L14.6614 3.10427L14.7305 3.16047L14.8086 3.20355L15.2919 2.32811ZM15.7443 3.01041H16.7443V2.95804L16.7388 2.90595L15.7443 3.01041ZM16.3508 13.7975L16.3049 14.7965L16.3278 14.7975H16.3508V13.7975ZM16.9859 4.35404L15.9884 4.28338L15.9859 4.31867V4.35404H16.9859ZM17.365 3.73508L17.8813 4.59151L17.9302 4.56202L17.9754 4.52714L17.365 3.73508ZM18.1356 3.46165L18.2399 2.4671L18.1752 2.46032L18.1103 2.46197L18.1356 3.46165ZM18.8391 3.72892L18.2567 4.54182L18.3472 4.60669L18.4498 4.65005L18.8391 3.72892ZM19.284 4.35409H20.284V4.32103L20.2818 4.28804L19.284 4.35409ZM19.284 14.782H18.284V14.802L18.2848 14.8221L19.284 14.782ZM19.7464 16.5469L20.6489 16.1161L20.643 16.1039L20.6369 16.0919L19.7464 16.5469ZM21.331 17.4405L20.4515 16.9647L20.4479 16.9713L20.4444 16.9779L21.331 17.4405ZM22.4297 15.0082L23.3544 15.389L23.3547 15.3882L22.4297 15.0082ZM23.5471 12.5398L22.8081 11.8661L22.7224 11.9601L22.663 12.0725L23.5471 12.5398ZM24.7937 11.8413L24.9824 12.8233L25.1174 12.7974L25.2403 12.736L24.7937 11.8413ZM25.3667 11.6983V10.6983H25.3537L25.3407 10.6987L25.3667 11.6983ZM25.9981 12.3732L26.9917 12.4864L26.9981 12.43V12.3732H25.9981ZM25.3667 15.9055L24.3954 15.6675L24.385 15.7099L24.3784 15.753L25.3667 15.9055ZM24.2319 19.8542L25.0461 20.4349L25.1082 20.3478L25.1504 20.2496L24.2319 19.8542ZM20.6313 24.1994L21.3616 24.8825L21.3733 24.8699L21.3847 24.8569L20.6313 24.1994ZM19.9464 25.1328L19.0756 24.6412L19.0617 24.6658L19.0492 24.6912L19.9464 25.1328ZM19.6071 25.7965L20.4407 26.3489L20.4723 26.3011L20.4983 26.2501L19.6071 25.7965ZM19.284 26.5509L18.309 26.3286L18.284 26.4384V26.5509H19.284ZM9.88475 29.9999V26.664H7.88475V29.9999H9.88475ZM9.88475 26.664C9.88475 26.2492 9.69019 25.9029 9.54695 25.6883C9.38417 25.4445 9.16637 25.1959 8.92017 24.9484L7.50204 26.3586C7.70204 26.5598 7.82106 26.7052 7.88356 26.7988C7.91403 26.8444 7.91928 26.8604 7.91492 26.8496C7.91162 26.8414 7.88475 26.7742 7.88475 26.664H9.88475ZM8.93471 24.9633C8.47284 24.4791 8.06465 23.9464 7.71727 23.3744L6.00788 24.4127C6.43007 25.1078 6.92616 25.7552 7.4875 26.3437L8.93471 24.9633ZM7.6614 23.292C7.31909 22.8374 7.08695 22.3096 6.98326 21.7501L5.01674 22.1145C5.17683 22.9784 5.53523 23.7933 6.06375 24.4951L7.6614 23.292ZM7 21.9323V7.8329H5V21.9323H7ZM7 7.8329C7 7.94801 6.97495 8.03315 6.95792 8.0787C6.94055 8.12516 6.92414 8.15032 6.92223 8.15324C6.92009 8.1565 6.94508 8.11944 7.02558 8.04603L5.6779 6.56827C5.51853 6.71362 5.36765 6.87666 5.24961 7.05673C5.14222 7.22054 5 7.492 5 7.8329H7ZM7.0903 7.98134C7.13872 7.9283 7.19626 7.88435 7.26018 7.8516L6.34813 6.07166C6.07159 6.21337 5.82268 6.40347 5.61318 6.63296L7.0903 7.98134ZM7.03831 7.93383C7.10734 7.91721 7.17743 7.90531 7.24808 7.89824L7.0488 5.90819C6.88754 5.92434 6.72757 5.95148 6.57 5.98943L7.03831 7.93383ZM7.00278 7.89255C7.09717 7.90645 7.18682 7.94285 7.26417 7.99868L8.43469 6.37699C8.09715 6.13335 7.70594 5.97451 7.2941 5.91388L7.00278 7.89255ZM7.32258 8.03779C7.4144 8.09471 7.42459 8.11764 7.4044 8.09188C7.3919 8.07592 7.36731 8.04049 7.34578 7.98472C7.32345 7.92686 7.30806 7.85625 7.30806 7.77821H9.30806C9.30806 7.01999 8.7403 6.56351 8.37628 6.33788L7.32258 8.03779ZM7.30806 7.77821V14.0238H9.30806V7.77821H7.30806ZM7.30806 14.0238C7.30806 14.4356 7.47973 14.8697 7.89278 15.1486C8.23278 15.3782 8.61576 15.4165 8.88477 15.4165V13.4165C8.76972 13.4165 8.86434 13.3914 9.012 13.4911C9.09965 13.5503 9.1851 13.6405 9.24279 13.7586C9.29797 13.8717 9.30806 13.9697 9.30806 14.0238H7.30806ZM8.88477 15.4165C9.14697 15.4165 9.51913 15.3859 9.85408 15.186C10.2802 14.9316 10.4925 14.5 10.4925 14.0498H8.49254C8.49254 13.9782 8.50759 13.8617 8.5767 13.7348C8.64748 13.6048 8.74529 13.5186 8.82897 13.4687C8.90486 13.4234 8.95921 13.4132 8.96129 13.4128C8.96491 13.4121 8.94275 13.4165 8.88477 13.4165V15.4165ZM10.4925 14.0498V4.21608H8.49254V14.0498H10.4925ZM10.4906 4.27902C10.4887 4.30793 10.4734 4.33429 10.4491 4.35012L9.35628 2.67509C8.85187 3.00417 8.53243 3.55207 8.49452 4.15314L10.4906 4.27902ZM10.5846 4.24403C10.6283 4.20329 10.6846 4.17872 10.7442 4.1744L10.5998 2.17962C10.085 2.21689 9.59834 2.42916 9.22077 2.78118L10.5846 4.24403ZM10.6127 4.17525C10.6565 4.17786 10.6976 4.19703 10.7278 4.22889L12.1798 2.85349C11.8002 2.45278 11.2824 2.21154 10.7314 2.17878L10.6127 4.17525ZM10.7939 4.29251C10.8083 4.30514 10.8168 4.32309 10.8177 4.3422L12.8158 4.2565C12.7916 3.69233 12.538 3.16253 12.1138 2.78987L10.7939 4.29251ZM10.8167 4.29935V13.7503H12.8167V4.29935H10.8167ZM10.8167 13.7503C10.8167 14.2294 11.0566 14.6505 11.4634 14.8956C11.7978 15.0971 12.1712 15.1368 12.4556 15.1368V13.1368C12.3223 13.1368 12.3763 13.1107 12.4957 13.1826C12.5684 13.2264 12.6593 13.3041 12.7282 13.4257C12.797 13.5474 12.8167 13.6655 12.8167 13.7503H10.8167ZM12.5689 15.1304C12.8929 15.0934 13.2003 14.9675 13.4571 14.7666L12.2247 13.1915C12.2587 13.1649 12.2994 13.1482 12.3422 13.1433L12.5689 15.1304ZM13.3143 14.8598C13.7462 14.6277 14.0293 14.1907 14.0645 13.7017L12.0697 13.5579C12.0837 13.3638 12.196 13.1904 12.3674 13.0982L13.3143 14.8598ZM14.0671 13.6298V2.87131H12.0671V13.6298H14.0671ZM14.0671 2.87131C14.0671 2.91874 14.0592 2.97217 14.0403 3.02608C14.0215 3.07959 13.9965 3.12054 13.9749 3.14828C13.9352 3.19922 13.9195 3.19025 13.9974 3.1519L13.1137 1.3577C12.6004 1.6105 12.0671 2.09495 12.0671 2.87131H14.0671ZM14.0587 3.11902C14.1826 3.04687 14.3221 3.00566 14.4654 2.99888L14.3709 1.00112C13.9065 1.02308 13.4542 1.15668 13.0524 1.39058L14.0587 3.11902ZM14.3819 2.99934C14.484 3.00304 14.5821 3.03987 14.6614 3.10427L15.9224 1.55194C15.5059 1.2136 14.9906 1.02008 14.4543 1.00066L14.3819 2.99934ZM14.8086 3.20355C14.7756 3.18538 14.7537 3.15227 14.7498 3.11488L16.7388 2.90595C16.6745 2.29314 16.3146 1.75048 15.7752 1.45266L14.8086 3.20355ZM14.7443 3.01041V13.4657H16.7443V3.01041H14.7443ZM14.7443 13.4657C14.7443 13.9873 15.0446 14.3757 15.4163 14.5787C15.7171 14.743 16.0505 14.7848 16.3049 14.7965L16.3968 12.7986C16.334 12.7957 16.3016 12.7902 16.2922 12.7882C16.2805 12.7857 16.3161 12.7913 16.3749 12.8234C16.4372 12.8575 16.539 12.9291 16.6233 13.0601C16.7114 13.1973 16.7443 13.3436 16.7443 13.4657H14.7443ZM16.3508 14.7975C16.6295 14.7975 17.0108 14.7614 17.3512 14.5518C17.7741 14.2914 17.9859 13.8579 17.9859 13.4035H15.9859C15.9859 13.3351 16.0004 13.2247 16.0651 13.1042C16.1312 12.981 16.2228 12.8978 16.3024 12.8488C16.375 12.8041 16.4268 12.7939 16.4288 12.7935C16.4319 12.7929 16.4091 12.7975 16.3508 12.7975V14.7975ZM17.9859 13.4035V4.35404H15.9859V13.4035H17.9859ZM17.9834 4.4247C17.9785 4.49362 17.9404 4.55584 17.8813 4.59151L16.8487 2.87864C16.3505 3.179 16.0295 3.70304 15.9884 4.28338L17.9834 4.4247ZM17.9754 4.52714C18.0287 4.48608 18.0937 4.46303 18.1609 4.46132L18.1103 2.46197C17.6188 2.47442 17.144 2.64289 16.7546 2.94301L17.9754 4.52714ZM18.0313 4.45619C18.1126 4.46472 18.1902 4.49422 18.2567 4.54182L19.4215 2.91602C19.0732 2.66648 18.666 2.51178 18.2399 2.4671L18.0313 4.45619ZM18.4498 4.65005C18.3562 4.6105 18.2929 4.52155 18.2862 4.42014L20.2818 4.28804C20.2386 3.63518 19.831 3.06246 19.2283 2.80778L18.4498 4.65005ZM18.284 4.35409V14.782H20.284V4.35409H18.284ZM18.2848 14.8221C18.3153 15.5814 18.5101 16.3251 18.8559 17.0018L20.6369 16.0919C20.4228 15.6728 20.3021 15.2122 20.2832 14.7419L18.2848 14.8221ZM18.8439 16.9776C19.2433 17.8145 19.9187 18.6953 21.0166 18.6953V16.6953C21.0698 16.6953 21.0737 16.7247 21.0089 16.6661C20.9289 16.5938 20.7998 16.4325 20.6489 16.1161L18.8439 16.9776ZM21.0166 18.6953C21.6654 18.6953 22.0506 18.2232 22.2176 17.9031L20.4444 16.9779C20.4489 16.9693 20.4808 16.9104 20.5638 16.8452C20.6498 16.7778 20.805 16.6953 21.0166 16.6953V18.6953ZM22.2106 17.9163C22.5081 17.3663 22.8909 16.5144 23.3544 15.389L21.5051 14.6274C21.0455 15.7433 20.6958 16.513 20.4515 16.9647L22.2106 17.9163ZM23.3547 15.3882C23.8099 14.2803 24.1764 13.4891 24.4312 13.0071L22.663 12.0725C22.3659 12.6345 21.9718 13.4914 21.5048 14.6281L23.3547 15.3882ZM24.2861 13.2135C24.47 13.0117 24.7143 12.8748 24.9824 12.8233L24.605 10.8592C23.9131 10.9922 23.2827 11.3454 22.8081 11.8661L24.2861 13.2135ZM25.2403 12.736C25.2877 12.7124 25.3397 12.6994 25.3926 12.698L25.3407 10.6987C24.9954 10.7076 24.6562 10.7923 24.3471 10.9465L25.2403 12.736ZM25.3667 12.6983C25.413 12.6983 25.26 12.7079 25.1113 12.5491C24.9747 12.4032 24.9981 12.2793 24.9981 12.3732H26.9981C26.9981 12.0135 26.9177 11.5522 26.5713 11.1822C26.2129 10.7994 25.7442 10.6983 25.3667 10.6983V12.6983ZM25.0045 12.2601C24.8738 13.4076 24.6704 14.5457 24.3954 15.6675L26.3379 16.1436C26.633 14.9396 26.8514 13.7181 26.9917 12.4864L25.0045 12.2601ZM24.3784 15.753C24.1815 17.0283 23.8237 18.2735 23.3134 19.4588L25.1504 20.2496C25.7276 18.909 26.1323 17.5006 26.355 16.0581L24.3784 15.753ZM23.4178 19.2736C22.8788 20.0292 21.7105 21.4422 19.8779 23.5418L21.3847 24.8569C23.2094 22.7664 24.4415 21.2825 25.0461 20.4349L23.4178 19.2736ZM19.901 23.5162C19.5821 23.8571 19.305 24.2347 19.0756 24.6412L20.8173 25.6244C20.9686 25.3563 21.1513 25.1073 21.3616 24.8825L19.901 23.5162ZM19.0492 24.6912C18.9346 24.924 18.835 25.1089 18.7159 25.3429L20.4983 26.2501C20.5906 26.0689 20.7246 25.8163 20.8437 25.5743L19.0492 24.6912ZM18.7735 25.2441C18.5545 25.5746 18.3971 25.942 18.309 26.3286L20.2589 26.7732C20.2934 26.622 20.355 26.4782 20.4407 26.3489L18.7735 25.2441ZM18.284 26.5509V30H20.284V26.5509H18.284Z" fill="black" mask="url(#path-1-outside-1)"/>
</svg>
