<svg width="32" height="32" viewBox="0 0 32 32" fill="none" xmlns="http://www.w3.org/2000/svg">
<path d="M21.5867 22.978H17.4093C17.4079 22.978 17.4079 22.978 17.4065 22.978C15.5012 22.978 13.9571 21.4338 13.9571 19.5285C13.9571 19.5173 13.9571 19.5075 13.9571 19.4963V19.4977V17.0436H21.0589C21.0743 17.0436 21.0939 17.0436 21.1121 17.0436C21.9955 17.0436 22.7934 16.6741 23.3576 16.0805L23.359 16.0791C23.9792 15.4267 24.3208 14.6806 24.3208 13.7804C24.3208 13.765 24.3208 13.7454 24.3208 13.7272C24.3208 12.8439 23.9512 12.0473 23.359 11.4817L23.3576 11.4803C22.7808 10.8854 21.9745 10.5172 21.0813 10.5172C21.0729 10.5172 21.0645 10.5172 21.0561 10.5172H13.9263V5.51382C13.9263 5.49983 13.9263 5.48303 13.9263 5.46483C13.9263 4.51847 13.5315 3.66452 12.8987 3.05835L12.8973 3.05695C12.3108 2.40738 11.4666 2 10.5258 2C10.5076 2 10.4908 2 10.4726 2H10.4754C10.4628 2 10.4474 2 10.4334 2C9.47729 2 8.61354 2.39338 7.99477 3.02755V3.02895C7.3606 3.64072 6.96582 4.49748 6.96582 5.44663C6.96582 5.46903 6.96582 5.49283 6.96582 5.51522V5.51242V19.5271C6.96582 22.418 7.99477 24.8721 10.0121 26.923C12.0634 28.9743 14.518 30 17.3757 30H21.5559C21.5587 30 21.5615 30 21.5629 30C23.4808 30 25.0347 28.4461 25.0347 26.5282C25.0347 25.565 24.6427 24.6929 24.0086 24.0643C23.4346 23.3965 22.589 22.9752 21.6455 22.9752C21.6245 22.9752 21.6021 22.9752 21.5811 22.9752H21.5839L21.5867 22.978Z" fill="black"/>
</svg>
