<svg width="32" height="32" viewBox="0 0 32 32" fill="none" xmlns="http://www.w3.org/2000/svg">
<path d="M27.2103 10.13H26.9403V9.42C26.9403 8.68005 26.6463 7.9704 26.1231 7.44717C25.5999 6.92395 24.8902 6.63 24.1503 6.63H14.5003V5.79C14.5003 5.05005 14.2063 4.3404 13.6831 3.81717C13.1599 3.29395 12.4502 3 11.7103 3H4.79029C4.05033 3 3.34069 3.29395 2.81746 3.81717C2.29423 4.3404 2.00029 5.05005 2.00029 5.79V26.17C1.99499 26.5397 2.06324 26.9068 2.20107 27.25C2.33891 27.5931 2.54358 27.9054 2.80318 28.1687C3.06279 28.4321 3.37215 28.6412 3.71328 28.7839C4.05441 28.9266 4.42051 29 4.79029 29H27.2103C27.5801 29 27.9462 28.9266 28.2873 28.7839C28.6284 28.6412 28.9378 28.4321 29.1974 28.1687C29.457 27.9054 29.6617 27.5931 29.7995 27.25C29.9373 26.9068 30.0056 26.5397 30.0003 26.17V12.92C29.9977 12.1809 29.7029 11.4727 29.1802 10.9501C28.6575 10.4274 27.9494 10.1326 27.2103 10.13ZM6.08029 12.92V26.17C6.08029 26.5121 5.94438 26.8402 5.70245 27.0822C5.46053 27.3241 5.13242 27.46 4.79029 27.46C4.44816 27.46 4.12004 27.3241 3.87812 27.0822C3.6362 26.8402 3.50029 26.5121 3.50029 26.17V5.79C3.50029 5.44787 3.6362 5.11975 3.87812 4.87783C4.12004 4.63591 4.44816 4.5 4.79029 4.5H11.7103C12.0524 4.5 12.3805 4.63591 12.6225 4.87783C12.8644 5.11975 13.0003 5.44787 13.0003 5.79V7.38C13.0003 7.57891 13.0793 7.76968 13.22 7.91033C13.3606 8.05098 13.5514 8.13 13.7503 8.13H24.1503C24.4924 8.13 24.8205 8.26591 25.0625 8.50783C25.3044 8.74975 25.4403 9.07787 25.4403 9.42V10.13H8.87029C8.13114 10.1326 7.42303 10.4274 6.90037 10.9501C6.37771 11.4727 6.08292 12.1809 6.08029 12.92ZM28.5003 26.17C28.5003 26.5121 28.3644 26.8402 28.1225 27.0822C27.8805 27.3241 27.5524 27.46 27.2103 27.46H7.21029C7.42205 27.0626 7.53523 26.6202 7.54029 26.17V12.92C7.5402 12.7472 7.57485 12.5761 7.64216 12.4169C7.70948 12.2577 7.80809 12.1137 7.93215 11.9934C8.05621 11.8731 8.20318 11.7789 8.36433 11.7165C8.52549 11.654 8.69755 11.6246 8.87029 11.63H27.2103C27.5524 11.63 27.8805 11.7659 28.1225 12.0078C28.3644 12.2498 28.5003 12.5779 28.5003 12.92V26.17Z" fill="black"/>
</svg>
