<svg width="32" height="32" viewBox="0 0 32 32" fill="none" xmlns="http://www.w3.org/2000/svg">
<path fill-rule="evenodd" clip-rule="evenodd" d="M18.8066 2.21264C19.1012 1.92625 19.5712 1.92956 19.8617 2.22007L23.3681 5.72652C23.6616 6.01995 23.6616 6.4957 23.3681 6.78913C23.0747 7.08257 22.599 7.08257 22.3055 6.78913L20.0818 4.56538V11.9182H27.4346L25.2109 9.69448C24.9174 9.40104 24.9174 8.92529 25.2109 8.63186C25.5043 8.33843 25.98 8.33843 26.2735 8.63186L29.7799 12.1383C30.0704 12.4288 30.0737 12.8988 29.7874 13.1934L26.2809 16.8C25.9916 17.0976 25.5159 17.1043 25.2184 16.815C24.9209 16.5257 24.9142 16.05 25.2034 15.7525L27.4701 13.421H19.6416L15.9545 17.1081C15.6611 17.4015 15.1853 17.4015 14.8919 17.1081C14.5985 16.8147 14.5985 16.3389 14.8919 16.0455L18.579 12.3584V4.52985L16.2475 6.79656C15.95 7.08584 15.4743 7.07914 15.185 6.7816C14.8957 6.48406 14.9024 6.00836 15.2 5.71909L18.8066 2.21264ZM5.56968 7.08853C7.05032 6.34821 8.41896 7.28145 9.02173 8.12533C9.31542 8.5365 9.9418 9.34505 10.5366 10.1129C10.9539 10.6516 11.3557 11.1702 11.6162 11.5175C11.8491 11.828 11.9798 12.1749 11.9915 12.5425C12.0029 12.9022 11.8987 13.2263 11.7532 13.4991C11.4786 14.0141 11.0067 14.4391 10.5876 14.7559C10.1807 15.1126 9.9811 15.3089 9.87866 15.4772C9.81657 15.5792 9.78485 15.6709 9.84054 15.8936C9.90903 16.1676 10.1519 16.6825 10.5884 17.3372C11.0125 17.9735 11.5824 18.6863 12.2477 19.3516C12.2538 19.3577 12.2598 19.3639 12.2657 19.3702C13.5914 20.7906 15.0702 21.5997 15.6177 21.7617C15.8316 21.8132 15.9217 21.7815 16.0218 21.7206C16.193 21.6164 16.3931 21.4118 16.7612 20.991C16.7722 20.9785 16.7836 20.9663 16.7954 20.9545C17.1856 20.5643 17.667 20.0999 18.1929 19.837C18.4689 19.6989 18.794 19.5965 19.1535 19.6077C19.5232 19.6193 19.8704 19.7494 20.182 19.9831C20.5816 20.2828 21.205 20.8085 21.8033 21.3131C21.8376 21.3421 21.8719 21.371 21.9061 21.3998C22.5573 21.9488 23.1543 22.4494 23.4739 22.6777C23.8871 22.9728 24.3489 23.4173 24.6104 23.9926C24.8893 24.6061 24.9239 25.3452 24.483 26.0801C24.4224 26.181 24.3573 26.2993 24.2853 26.4301C23.7247 27.4482 22.7436 29.23 20.2251 29.5448C17.5003 29.8854 13.2766 28.6153 8.08466 23.5251C2.87272 18.4154 1.71511 14.0887 2.05442 11.3742C2.39401 8.65748 4.40755 7.66285 5.4325 7.15656C5.48049 7.13285 5.5263 7.11022 5.56968 7.08853ZM7.79888 8.9988C7.39981 8.44009 6.76477 8.17113 6.24173 8.43265C6.20934 8.44884 6.17657 8.46517 6.14347 8.48166C5.12034 8.99131 3.78349 9.65724 3.54557 11.5606C3.28378 13.655 4.12985 17.5434 9.1367 22.452C14.1635 27.3803 17.9546 28.3142 20.0387 28.0537C21.7569 27.8389 22.3696 26.7561 22.9443 25.7404C23.0274 25.5936 23.1097 25.4482 23.1944 25.307C23.3545 25.04 23.3391 24.8274 23.2423 24.6144C23.1281 24.3632 22.8886 24.1064 22.6005 23.9006C22.2188 23.6279 21.5635 23.0766 20.9374 22.5487L20.8598 22.4833C20.2389 21.9597 19.6441 21.4581 19.2803 21.1853C19.1911 21.1184 19.1375 21.1107 19.1065 21.1098C19.0653 21.1085 18.9896 21.1187 18.8649 21.1811C18.5933 21.3169 18.2784 21.5977 17.8755 21.9996C17.5474 22.3745 17.2014 22.7619 16.8032 23.0043C16.3291 23.2928 15.8197 23.3613 15.241 23.2166C15.2329 23.2146 15.2248 23.2124 15.2168 23.2101C14.3536 22.9635 12.6437 21.9742 11.176 20.4051C10.4426 19.6704 9.81347 18.884 9.33798 18.1708C8.87276 17.4729 8.51454 16.7857 8.38265 16.2581C8.23797 15.6794 8.30644 15.1699 8.595 14.6959C8.84148 14.2909 9.23795 13.94 9.61865 13.6069C9.63285 13.5945 9.64752 13.5826 9.66261 13.5713C10.0393 13.2888 10.3063 13.0187 10.4273 12.7919C10.4821 12.689 10.4906 12.6249 10.4895 12.5901C10.4887 12.5632 10.4817 12.5094 10.414 12.4192C10.1871 12.1167 9.80651 11.625 9.39872 11.0982C8.78116 10.3004 8.1013 9.42218 7.79888 8.9988Z" fill="black"/>
</svg>
