<svg width="32" height="32" viewBox="0 0 32 32" fill="none" xmlns="http://www.w3.org/2000/svg">
<path fill-rule="evenodd" clip-rule="evenodd" d="M9.37415 5.1C9.72653 3.34034 11.2922 2 13.15 2H18.55C20.4078 2 21.9735 3.34034 22.3259 5.1H27.15C28.6642 5.1 29.9 6.33579 29.9 7.85V9.85H29.8934C29.8978 9.88271 29.9 9.91609 29.9 9.95V27.25C29.9 28.7642 28.6642 30 27.15 30H4.75C3.23579 30 2 28.7642 2 27.25V9.95C2 9.91609 2.00225 9.88271 2.00661 9.85H2V7.85C2 6.33579 3.23579 5.1 4.75 5.1H9.37415ZM9.3 6.6H4.75C4.06421 6.6 3.5 7.16421 3.5 7.85V9.2H9.3V6.6ZM28.4 9.2V7.85C28.4 7.16421 27.8358 6.6 27.15 6.6H22.4V9.2H28.4ZM13.15 3.5C11.8642 3.5 10.8 4.56421 10.8 5.85V9.95C10.8 10.3642 10.4642 10.7 10.05 10.7H3.5V27.25C3.5 27.9358 4.06421 28.5 4.75 28.5H27.15C27.8358 28.5 28.4 27.9358 28.4 27.25V10.7H21.65C21.2358 10.7 20.9 10.3642 20.9 9.95V5.85C20.9 4.56421 19.8358 3.5 18.55 3.5H13.15ZM15.4197 12.6197C15.7126 12.3268 16.1874 12.3268 16.4803 12.6197L22.2803 18.4197C22.5732 18.7126 22.5732 19.1874 22.2803 19.4803C21.9874 19.7732 21.5126 19.7732 21.2197 19.4803L16.7 14.9607V24.75C16.7 25.1642 16.3642 25.5 15.95 25.5C15.5358 25.5 15.2 25.1642 15.2 24.75V14.9607L10.6803 19.4803C10.3874 19.7732 9.91256 19.7732 9.61967 19.4803C9.32678 19.1874 9.32678 18.7126 9.61967 18.4197L15.4197 12.6197Z" fill="black"/>
</svg>
