<svg width="32" height="32" viewBox="0 0 32 32" fill="none" xmlns="http://www.w3.org/2000/svg">
<path d="M4.212 11.8H2.07V2H11.716V4.142H4.212V11.8Z" fill="black"/>
<path d="M30 30H20.284V27.858H27.788V20.2H30V30Z" fill="black"/>
<path d="M11.8 30H2V20.284H4.142V27.788H11.8V30Z" fill="black"/>
<path d="M30 11.716H27.858V4.212H20.2V2.07H30V11.716Z" fill="black"/>
<path d="M20.2 16C20.2 18.3196 18.3196 20.2 16 20.2C13.6804 20.2 11.8 18.3196 11.8 16C11.8 13.6804 13.6804 11.8 16 11.8C18.3196 11.8 20.2 13.6804 20.2 16Z" fill="black"/>
</svg>
