<svg width="32" height="32" viewBox="0 0 32 32" fill="none" xmlns="http://www.w3.org/2000/svg">
<rect width="32" height="32" fill="white"/>
<path fill-rule="evenodd" clip-rule="evenodd" d="M7.67025 23.0753C5.37627 23.0753 3.50538 24.9462 3.50538 27.2401V28.4946H11.8351V27.2401C11.8351 24.9462 9.96423 23.0753 7.67025 23.0753ZM2 29.2473V27.2401C2 24.1148 4.54487 21.5699 7.67025 21.5699C10.7956 21.5699 13.3405 24.1148 13.3405 27.2401V29.2473C13.3405 29.663 13.0035 30 12.5878 30H2.75269C2.33699 30 2 29.663 2 29.2473Z" fill="black"/>
<path fill-rule="evenodd" clip-rule="evenodd" d="M7.56989 15.7491C6.48908 15.7491 5.6129 16.6253 5.6129 17.7061C5.6129 18.7869 6.48908 19.6631 7.56989 19.6631C8.65071 19.6631 9.52688 18.7869 9.52688 17.7061C9.52688 16.6253 8.65071 15.7491 7.56989 15.7491ZM4.10753 17.7061C4.10753 15.7939 5.65768 14.2437 7.56989 14.2437C9.4821 14.2437 11.0323 15.7939 11.0323 17.7061C11.0323 19.6183 9.4821 21.1685 7.56989 21.1685C5.65768 21.1685 4.10753 19.6183 4.10753 17.7061Z" fill="black"/>
<path fill-rule="evenodd" clip-rule="evenodd" d="M9.57706 3.50538C8.88882 3.50538 8.32258 4.07161 8.32258 4.75986V11.2832C8.32258 11.6989 7.98559 12.0358 7.56989 12.0358C7.15419 12.0358 6.8172 11.6989 6.8172 11.2832V4.75986C6.8172 3.24022 8.05742 2 9.57706 2H27.2401C28.7598 2 30 3.24022 30 4.75986V24.4301C30 25.9497 28.7598 27.19 27.2401 27.19H16C15.5843 27.19 15.2473 26.853 15.2473 26.4373C15.2473 26.0216 15.5843 25.6846 16 25.6846H27.2401C27.9284 25.6846 28.4946 25.1184 28.4946 24.4301V4.75986C28.4946 4.07161 27.9284 3.50538 27.2401 3.50538H9.57706Z" fill="black"/>
<path fill-rule="evenodd" clip-rule="evenodd" d="M16.7204 11.1357C16.7204 11.5514 16.3834 11.8884 15.9677 11.8884H11.6523C11.2366 11.8884 10.8996 11.5514 10.8996 11.1357V6.82031C10.8996 6.40462 11.2366 6.06763 11.6523 6.06763H15.9677C16.3834 6.06763 16.7204 6.40462 16.7204 6.82031V11.1357ZM15.215 10.383V7.573H12.405V10.383H15.215Z" fill="black"/>
<path fill-rule="evenodd" clip-rule="evenodd" d="M25.3562 18.3707C25.6543 18.6605 25.661 19.137 25.3712 19.4351L21.8587 23.048C21.5689 23.346 21.0924 23.3527 20.7943 23.063C20.4963 22.7732 20.4895 22.2967 20.7793 21.9986L24.2919 18.3857C24.5816 18.0877 25.0582 18.0809 25.3562 18.3707Z" fill="black"/>
<path fill-rule="evenodd" clip-rule="evenodd" d="M20.7943 18.3707C21.0924 18.0809 21.5689 18.0877 21.8587 18.3857L25.3712 21.9986C25.661 22.2967 25.6543 22.7732 25.3562 23.063C25.0582 23.3527 24.5816 23.346 24.2919 23.048L20.7793 19.4351C20.4895 19.137 20.4963 18.6605 20.7943 18.3707Z" fill="black"/>
<path d="M18.81 9.77778C19.2534 9.77778 19.6129 9.41832 19.6129 8.97491C19.6129 8.5315 19.2534 8.17204 18.81 8.17204C18.3666 8.17204 18.0072 8.5315 18.0072 8.97491C18.0072 9.41832 18.3666 9.77778 18.81 9.77778Z" fill="black"/>
<path d="M22.0215 10.2796C22.4649 10.2796 22.8244 9.92011 22.8244 9.4767C22.8244 9.03329 22.4649 8.67383 22.0215 8.67383C21.5781 8.67383 21.2186 9.03329 21.2186 9.4767C21.2186 9.92011 21.5781 10.2796 22.0215 10.2796Z" fill="black"/>
<path d="M23.0251 13.3907C23.4685 13.3907 23.828 13.0312 23.828 12.5878C23.828 12.1444 23.4685 11.7849 23.0251 11.7849C22.5817 11.7849 22.2222 12.1444 22.2222 12.5878C22.2222 13.0312 22.5817 13.3907 23.0251 13.3907Z" fill="black"/>
<path d="M23.0251 16.7025C23.4685 16.7025 23.828 16.3431 23.828 15.8996C23.828 15.4562 23.4685 15.0968 23.0251 15.0968C22.5817 15.0968 22.2222 15.4562 22.2222 15.8996C22.2222 16.3431 22.5817 16.7025 23.0251 16.7025Z" fill="black"/>
</svg>
