<svg width="32" height="32" viewBox="0 0 32 32" fill="none" xmlns="http://www.w3.org/2000/svg">
<path fill-rule="evenodd" clip-rule="evenodd" d="M2.75269 2C3.16839 2 3.50538 2.33699 3.50538 2.75269V4.70968H21.0179C22.5376 4.70968 23.7778 5.94989 23.7778 7.46953C23.7778 8.98917 22.5376 10.2294 21.0179 10.2294H3.50538V13.2401H15.7993C17.3189 13.2401 18.5591 14.4804 18.5591 16C18.5591 17.5196 17.3189 18.7599 15.7993 18.7599H3.50538V21.7706H27.0394C28.5591 21.7706 29.7993 23.0108 29.7993 24.5305C29.7993 26.0501 28.5591 27.2903 27.0394 27.2903H3.50538V29.2473C3.50538 29.663 3.16839 30 2.75269 30C2.33699 30 2 29.663 2 29.2473V2.75269C2 2.33699 2.33699 2 2.75269 2ZM3.50538 25.7849H27.0394C27.7277 25.7849 28.2939 25.2187 28.2939 24.5305C28.2939 23.8422 27.7277 23.276 27.0394 23.276H3.50538V25.7849ZM3.50538 17.2545H15.7993C16.4875 17.2545 17.0538 16.6882 17.0538 16C17.0538 15.3118 16.4875 14.7455 15.7993 14.7455H3.50538V17.2545ZM3.50538 8.72401H21.0179C21.7062 8.72401 22.2724 8.15778 22.2724 7.46953C22.2724 6.78129 21.7062 6.21505 21.0179 6.21505H3.50538V8.72401Z" fill="black"/>
</svg>
