<svg width="32" height="32" viewBox="0 0 32 32" fill="none" xmlns="http://www.w3.org/2000/svg">
<path d="M17.2408 6.31334C16.2381 5.812 15.1352 5.91227 14.333 6.61415L8.11638 11.3268H2.80215C2.30081 11.3268 2 11.7278 2 12.1289V19.7493C2 20.1504 2.30081 20.5515 2.80215 20.5515H8.11638L14.333 25.3644C14.8344 25.7654 15.436 25.966 16.0376 25.966C16.4387 25.966 16.8397 25.8657 17.2408 25.6652C18.2435 25.1638 18.7449 24.2614 18.7449 23.1585V8.82005C18.8451 7.7171 18.2435 6.81468 17.2408 6.31334ZM7.61504 18.9472H3.50403V12.8308H7.61504V18.9472ZM17.3411 23.0582C17.3411 23.5595 17.0403 23.9606 16.6392 24.2614C16.1379 24.462 15.6365 24.462 15.2355 24.1611L9.11907 19.4485V12.4297L15.2355 7.7171C15.6365 7.41629 16.1379 7.31603 16.6392 7.61683C17.0403 7.81737 17.3411 8.31871 17.3411 8.82005V23.0582Z" fill="black"/>
<path d="M27.2677 15.9391L29.7744 13.4324C30.0752 13.1316 30.0752 12.6303 29.7744 12.3295C29.4736 12.0286 29.0725 12.0286 28.7717 12.3295L26.265 14.8362L23.7583 12.3295C23.4575 12.0286 22.9561 12.0286 22.6553 12.3295C22.3545 12.6303 22.3545 13.1316 22.6553 13.4324L25.162 15.9391L22.6553 18.4458C22.3545 18.7466 22.3545 19.248 22.6553 19.5488C22.7556 19.6491 22.9561 19.7493 23.1567 19.7493C23.3572 19.7493 23.5577 19.6491 23.658 19.5488L26.1647 17.0421L28.6714 19.5488C28.7717 19.6491 28.9722 19.7493 29.1728 19.7493C29.3733 19.7493 29.5739 19.6491 29.6741 19.5488C29.9749 19.248 29.9749 18.7466 29.6741 18.4458L27.2677 15.9391Z" fill="black"/>
</svg>
