<svg width="32" height="32" viewBox="0 0 32 32" fill="none" xmlns="http://www.w3.org/2000/svg">
<path d="M9.91011 13.2011L6.73602 10.0428C6.66674 9.97386 6.57106 9.93121 6.46542 9.93121C6.25376 9.93121 6.08268 10.1018 6.08268 10.3121C6.08268 10.4172 6.12555 10.5124 6.19482 10.5813L10.0223 14.3898C10.0919 14.4587 10.1872 14.5013 10.2929 14.5013C10.3985 14.5013 10.4942 14.4587 10.5635 14.3898L14.3909 10.5813C14.4606 10.5124 14.503 10.4172 14.503 10.3121C14.503 10.1018 14.3319 9.93121 14.1203 9.93121C14.0147 9.93121 13.9194 9.97386 13.8497 10.0428L10.6756 13.2011V2.95336C10.6756 2.74313 10.5045 2.57251 10.2929 2.57251C10.0812 2.57251 9.91011 2.74313 9.91011 2.95336V13.2011Z" fill="black"/>
<path d="M21.5914 3.87271L24.7655 7.03106C24.8348 7.09999 24.9305 7.14265 25.0361 7.14265C25.2478 7.14265 25.4189 6.97203 25.4189 6.7618C25.4189 6.65669 25.376 6.56148 25.3067 6.49255L21.4793 2.6841C21.4096 2.61516 21.3143 2.57251 21.2087 2.57251C21.1031 2.57251 21.0074 2.61516 20.9381 2.6841L17.1107 6.49255C17.041 6.56148 16.9985 6.65669 16.9985 6.7618C16.9985 6.97203 17.1696 7.14265 17.3813 7.14265C17.4869 7.14265 17.5822 7.09999 17.6519 7.03106L20.8259 3.87271V14.1205C20.8259 14.3307 20.997 14.5013 21.2087 14.5013C21.4203 14.5013 21.5914 14.3307 21.5914 14.1205V3.87271Z" fill="black"/>
<path fill-rule="evenodd" clip-rule="evenodd" d="M2 25.8098C2.02767 24.1836 3.5876 22.2562 6.04736 20.7444C8.75467 19.0805 12.2489 18.0748 16.0025 18.0428C19.7475 18.0733 23.2418 19.0789 25.9504 20.7437C28.41 22.2555 29.9711 24.1833 30 25.8089L29.9969 27.8907C29.9992 28.7348 29.3137 29.4222 28.4653 29.4276L27.691 29.4271C27.1102 29.4267 26.5294 29.4261 25.9871 29.4255C25.1465 29.4245 24.4811 29.4233 24.0486 29.4219C22.4737 29.4181 21.2148 28.02 21.2167 26.3302L21.2161 25.2837C21.2187 24.1551 19.2171 23.1884 15.9984 23.1889C12.7724 23.1917 10.7836 24.1537 10.7781 25.2928L10.7781 26.3285C10.78 28.0229 9.52 29.4234 7.94815 29.4215C7.51487 29.422 6.8491 29.4223 6.0135 29.4224L3.53249 29.4221C2.68907 29.4267 1.99534 28.733 2.00154 27.8942L2 25.8098ZM2.99176 27.8975C2.98962 28.188 3.23506 28.4335 3.52991 28.4318L6.01043 28.4321C6.84867 28.4321 7.51414 28.4318 7.94814 28.4313C8.94865 28.4325 9.78915 27.4982 9.78788 26.329L9.7879 25.2904C9.79685 23.41 12.2945 22.2019 15.9979 22.1987C19.6966 22.1981 22.2105 23.4123 22.2064 25.2846L22.2069 26.3305C22.2056 27.4958 23.0461 28.4292 24.0514 28.4316C24.4835 28.433 25.1483 28.4342 25.983 28.4352C26.5304 28.4359 27.1111 28.4364 27.6917 28.4368L28.4623 28.4373C28.7633 28.4354 29.0074 28.1906 29.0066 27.8913L29.0098 25.8169C28.9884 24.6137 27.6335 22.9406 25.4319 21.5873C22.8768 20.0168 19.5589 19.062 16.0027 19.033C12.4377 19.0635 9.11978 20.0184 6.56585 21.588C4.36679 22.9396 3.01379 24.6098 2.99024 25.8137L2.99176 27.8975Z" fill="black"/>
</svg>
