<svg width="32" height="32" viewBox="0 0 32 32" fill="none" xmlns="http://www.w3.org/2000/svg">
<path fill-rule="evenodd" clip-rule="evenodd" d="M12.75 3.5C12.2642 3.5 11.8 3.96421 11.8 4.45V4.85C11.8 5.33579 12.2642 5.8 12.75 5.8H18.85C19.3358 5.8 19.8 5.33579 19.8 4.85V4.45C19.8 3.96421 19.3358 3.5 18.85 3.5H12.75ZM10.3 4.45C10.3 3.13579 11.4358 2 12.75 2H18.85C20.1642 2 21.3 3.13579 21.3 4.45V4.85C21.3 6.16421 20.1642 7.3 18.85 7.3H16.5V8.62576C18.4959 8.76331 20.342 9.4457 21.8906 10.5253L23.9989 8.24129C24.2799 7.93692 24.7543 7.91794 25.0587 8.1989C25.3631 8.47985 25.3821 8.95434 25.1011 9.25871L23.061 11.4688C25.1763 13.432 26.5 16.2364 26.5 19.35C26.5 25.2871 21.6871 30.1 15.75 30.1C9.81294 30.1 5 25.2871 5 19.35C5 16.21 6.34625 13.3844 8.49303 11.419L6.4989 9.25871C6.21794 8.95434 6.23692 8.47985 6.54129 8.1989C6.84566 7.91794 7.32015 7.93692 7.6011 8.24129L9.67041 10.483C11.2064 9.42791 13.0302 8.76151 15 8.62576V7.3H12.75C11.4358 7.3 10.3 6.16421 10.3 4.85V4.45ZM15.75 10.1C10.6414 10.1 6.5 14.2414 6.5 19.35C6.5 24.4586 10.6414 28.6 15.75 28.6C20.8586 28.6 25 24.4586 25 19.35C25 14.2414 20.8586 10.1 15.75 10.1ZM15.75 13.8C16.1642 13.8 16.5 14.1358 16.5 14.55V18.6H20.55C20.9642 18.6 21.3 18.9358 21.3 19.35C21.3 19.7642 20.9642 20.1 20.55 20.1H16.5V24.05C16.5 24.4642 16.1642 24.8 15.75 24.8C15.3358 24.8 15 24.4642 15 24.05V20.1H11.05C10.6358 20.1 10.3 19.7642 10.3 19.35C10.3 18.9358 10.6358 18.6 11.05 18.6H15V14.55C15 14.1358 15.3358 13.8 15.75 13.8Z" fill="black"/>
</svg>
