<svg width="32" height="32" viewBox="0 0 32 32" fill="none" xmlns="http://www.w3.org/2000/svg">
<path fill-rule="evenodd" clip-rule="evenodd" d="M8.1149 6.2023C9.28171 6.2023 10.2288 5.262 10.2288 4.10114C10.2288 2.94029 9.28171 2 8.1149 2C6.94703 2 6 2.94029 6 4.10114C6 5.262 6.94703 6.2023 8.1149 6.2023ZM14.1989 4.28635C14.1989 5.4472 15.146 6.38751 16.3139 6.38751C17.4807 6.38751 18.4277 5.4472 18.4277 4.28635C18.4277 3.12549 17.4807 2.1852 16.3139 2.1852C15.146 2.1852 14.1989 3.12549 14.1989 4.28635ZM16.3139 14.2584C17.4807 14.2584 18.4277 13.3181 18.4277 12.1573C18.4277 10.9964 17.4807 10.0561 16.3139 10.0561C15.146 10.0561 14.1989 10.9964 14.1989 12.1573C14.1989 13.3181 15.146 14.2584 16.3139 14.2584ZM18.4277 20.0281C18.4277 21.1889 17.4807 22.1292 16.3139 22.1292C15.146 22.1292 14.1989 21.1889 14.1989 20.0281C14.1989 18.8672 15.146 17.9269 16.3139 17.9269C17.4807 17.9269 18.4277 18.8672 18.4277 20.0281ZM16.3139 30C17.4807 30 18.4277 29.0597 18.4277 27.8988C18.4277 26.738 17.4807 25.7977 16.3139 25.7977C15.146 25.7977 14.1989 26.738 14.1989 27.8988C14.1989 29.0597 15.146 30 16.3139 30ZM26.6271 4.28635C26.6271 5.4472 25.6801 6.38751 24.5133 6.38751C23.3454 6.38751 22.3983 5.4472 22.3983 4.28635C22.3983 3.12549 23.3454 2.1852 24.5133 2.1852C25.6801 2.1852 26.6271 3.12549 26.6271 4.28635ZM24.5133 14.2584C25.6801 14.2584 26.6271 13.3181 26.6271 12.1573C26.6271 10.9964 25.6801 10.0561 24.5133 10.0561C23.3454 10.0561 22.3983 10.9964 22.3983 12.1573C22.3983 13.3181 23.3454 14.2584 24.5133 14.2584ZM26.6271 20.0281C26.6271 21.1889 25.6801 22.1292 24.5133 22.1292C23.3454 22.1292 22.3983 21.1889 22.3983 20.0281C22.3983 18.8672 23.3454 17.9269 24.5133 17.9269C25.6801 17.9269 26.6271 18.8672 26.6271 20.0281ZM10.2288 11.9351C10.2288 13.0959 9.28171 14.0362 8.1149 14.0362C6.94703 14.0362 6 13.0959 6 11.9351C6 10.7742 6.94703 9.83391 8.1149 9.83391C9.28171 9.83391 10.2288 10.7742 10.2288 11.9351ZM8.1149 21.8701C9.28171 21.8701 10.2288 20.9299 10.2288 19.769C10.2288 18.6082 9.28171 17.6679 8.1149 17.6679C6.94703 17.6679 6 18.6082 6 19.769C6 20.9299 6.94703 21.8701 8.1149 21.8701Z" fill="black"/>
</svg>
