<svg width="32" height="32" viewBox="0 0 32 32" fill="none" xmlns="http://www.w3.org/2000/svg">
<path fill-rule="evenodd" clip-rule="evenodd" d="M2.23991 16.5654C2.17944 16.432 2.10645 16.2709 2.10645 16.1462C2.10645 15.9335 2.10645 15.8272 2.21281 15.4017C4.34007 13.3808 7.53095 12.849 10.0837 14.019L16.8909 7.21177C15.7209 6.25451 15.7209 4.33998 16.8909 3.16999L17.21 2.8509C17.7418 2.31909 18.4863 2 19.1245 2C19.7627 2 20.6136 2.31909 21.1454 2.8509L29.0162 10.7217C30.1862 11.679 30.1862 13.5935 29.0162 14.7635L28.6971 15.0826C28.1653 15.6144 27.3144 15.9335 26.6762 15.9335C26.0381 15.9335 25.1872 15.6144 24.6554 15.0826L17.8481 21.8898C19.0181 24.4425 18.4863 27.7398 16.4654 29.7607C16.1463 30.0798 15.6145 30.0798 15.2954 29.7607L9.28592 23.7512L4.12731 28.9098C3.80823 29.2289 3.27641 29.2289 2.95732 28.9098C2.7446 28.8034 2.7446 28.5907 2.7446 28.2716C2.7446 27.9525 2.7446 27.8461 2.95732 27.6334L8.06275 22.528L2.31917 16.7844C2.31917 16.7404 2.28267 16.6598 2.23991 16.5654ZM4.02095 16.1462L15.6145 27.7398C16.7845 26.038 16.8908 23.8044 16.0399 22.1026C15.9336 21.6771 15.9336 21.358 16.2527 21.0389L24.1235 13.1681C24.4426 12.849 24.9744 12.849 25.2935 13.1681L25.9317 13.8063C25.9713 13.8261 26.0146 13.8496 26.0609 13.8747C26.2632 13.9845 26.5229 14.1254 26.7826 14.1254C27.1017 14.1254 27.4208 14.019 27.6335 13.8063L27.9526 13.4872C28.4844 13.1681 28.4844 12.3172 27.9526 11.7854L20.0817 3.91453C20.0421 3.89473 19.9988 3.87125 19.9526 3.84613C19.7502 3.73634 19.4905 3.59544 19.2308 3.59544C18.9117 3.59544 18.5927 3.70181 18.3799 3.91453L18.0608 4.23362C17.529 4.55271 17.529 5.40361 18.0608 5.93542L18.699 6.5736C19.0181 6.89269 19.0181 7.4245 18.699 7.74359L10.7218 15.7208C10.2964 16.1463 9.97727 16.1463 9.65818 15.9335C7.95638 14.7635 5.72276 14.9763 4.02095 16.1462Z" fill="black"/>
</svg>
