<svg width="32" height="32" viewBox="0 0 32 32" fill="none" xmlns="http://www.w3.org/2000/svg">
<path fill-rule="evenodd" clip-rule="evenodd" d="M30 15.9944C30 9.01308 24.3118 3.32959 17.2998 3.32959C10.3056 3.32959 4.61073 9.00301 4.60063 15.9765H2L5.43984 20.4024L8.87967 15.9765H6.28353C6.29362 9.93161 11.2245 5.00779 17.2998 5.00779C23.3806 5.00779 28.3171 9.94168 28.3171 15.9944C28.3171 22.0583 23.3806 26.9921 17.2998 26.9921C13.7096 26.9921 10.3438 25.2468 8.27944 22.3044L7.20239 23.6805C9.5921 26.8131 13.3281 28.6703 17.2998 28.6703C24.3118 28.6703 30 22.9869 30 15.9944ZM23.7349 12.7377C23.7349 12.4043 23.4645 12.1346 23.1302 12.1346H21.4305C21.0973 12.1346 20.8269 12.4043 20.8269 12.7377V22.2888H23.7349V12.7377ZM18.1511 8.40186C18.4854 8.40186 18.7558 8.67261 18.7558 9.00489V22.2884H15.8478V9.00489C15.8478 8.67261 16.1181 8.40186 16.4514 8.40186H18.1511ZM13.7767 16.5792C13.7767 16.2458 13.5063 15.9761 13.172 15.9761H11.4722C11.139 15.9761 10.8686 16.2458 10.8686 16.5792V22.2884H13.7767V16.5792Z" fill="black"/>
</svg>
