<svg width="32" height="32" viewBox="0 0 32 32" fill="none" xmlns="http://www.w3.org/2000/svg">
<path d="M2.15832 29.3502C1.94171 29.1256 1.94818 28.768 2.17276 28.5514L10.4345 20.583V6.78323C10.4345 6.54922 10.7104 6.35952 11.0508 6.35952C11.3912 6.35952 11.6672 6.54922 11.6672 6.78323V19.3941L21.9392 9.48677V6.78323C21.9392 6.54922 22.2151 6.35952 22.5555 6.35952C22.8959 6.35952 23.1719 6.54922 23.1719 6.78323V8.29789L29.0428 2.63537C29.2674 2.41876 29.6251 2.42523 29.8417 2.64981C30.0583 2.87439 30.0518 3.23205 29.8272 3.44866L23.1719 9.86773V24.8364C23.1719 25.0704 22.8959 25.2601 22.5555 25.2601C22.2151 25.2601 21.9392 25.0704 21.9392 24.8364V11.0566L11.6672 20.9639V24.8364C11.6672 25.0704 11.3912 25.2601 11.0508 25.2601C10.7104 25.2601 10.4345 25.0704 10.4345 24.8364V22.1528L2.95717 29.3647C2.73259 29.5813 2.37493 29.5748 2.15832 29.3502Z" fill="black"/>
</svg>
