<svg width="32" height="32" viewBox="0 0 32 32" fill="none" xmlns="http://www.w3.org/2000/svg">
<path fill-rule="evenodd" clip-rule="evenodd" d="M16.001 2.87353L16.404 2.30641L15.9728 2L15.5623 2.33357L16.001 2.87353ZM22.2562 15.9849C22.2604 15.834 22.2626 15.6808 22.2626 15.5253C22.2626 11.0193 20.8183 7.72369 19.3618 5.55084C18.635 4.46655 17.9065 3.66348 17.3554 3.12829C17.0796 2.86056 16.8478 2.65937 16.682 2.52307C16.5991 2.4549 16.5327 2.40291 16.4854 2.36688C16.4618 2.34887 16.443 2.33484 16.4293 2.32477L16.4127 2.31263L16.4073 2.30878L16.4054 2.30741L16.4047 2.30687C16.4043 2.30663 16.404 2.30641 16.001 2.87353C15.5623 2.33357 15.5621 2.33376 15.5618 2.33398L15.5612 2.3345L15.5595 2.33585L15.5547 2.3398L15.5391 2.35272C15.5261 2.36355 15.508 2.37882 15.4851 2.39849C15.4394 2.43783 15.3744 2.4948 15.2929 2.56908C15.1301 2.71762 14.9013 2.93567 14.6286 3.22083C14.0835 3.79069 13.3604 4.6313 12.6379 5.72349C11.1932 7.90726 9.73947 11.115 9.73947 15.1775C9.73947 15.452 9.7462 15.7221 9.75925 15.9874C7.69499 17.5174 6.96775 19.6935 6.75055 21.4393C6.63936 22.333 6.65883 23.1313 6.70568 23.7061C6.72917 23.9944 6.75972 24.2286 6.78491 24.3932C6.79751 24.4755 6.80879 24.5406 6.81722 24.5865C6.82143 24.6095 6.82494 24.6277 6.82754 24.6408L6.83074 24.6567L6.83178 24.6618L6.83216 24.6636L6.83231 24.6644C6.83238 24.6647 6.83244 24.665 7.51314 24.5211L6.83244 24.665L7.02248 25.5644L12.2313 22.8305H19.7673L24.9761 25.5644L25.1661 24.665L24.4854 24.5211C25.1661 24.665 25.1662 24.6647 25.1662 24.6644L25.1664 24.6636L25.1668 24.6618L25.1678 24.6568L25.171 24.6409L25.1753 24.6187L25.1813 24.5866C25.1898 24.5407 25.201 24.4757 25.2137 24.3934C25.2389 24.2288 25.2695 23.9947 25.2932 23.7066C25.3404 23.1319 25.3605 22.3338 25.2507 21.4403C25.0362 19.6941 24.3139 17.5158 22.2562 15.9849ZM22.1089 17.6966C21.8617 19.3628 21.3371 20.6929 20.6873 21.7419L23.9179 23.4375C23.9502 22.9482 23.9557 22.3104 23.8697 21.61C23.7107 20.3163 23.2478 18.8571 22.1089 17.6966ZM11.322 21.7362C10.6979 20.6805 10.194 19.2958 9.93328 17.6689C8.76639 18.8345 8.29357 20.3073 8.13136 21.6111C8.04429 22.3109 8.04915 22.9482 8.0811 23.4373L11.322 21.7362ZM16.386 4.12654C16.2513 3.99578 16.1296 3.88394 16.0242 3.79079C15.9119 3.89884 15.7805 4.02962 15.6341 4.18261C15.1675 4.6705 14.5521 5.38186 13.9267 6.30006H18.1889C17.53 5.32148 16.8742 4.60061 16.386 4.12654ZM11.1309 15.1775C11.1309 12.1379 12.0187 9.61591 13.0737 7.69152H19.0198C20.0296 9.60957 20.8711 12.2028 20.8711 15.5253C20.8711 18.3078 20.1164 20.1903 19.2171 21.439H12.784C11.8949 20.1695 11.1309 17.9843 11.1309 15.1775ZM14.22 24.5211V28.5842H12.8285V24.5211H14.22ZM16.6967 30V24.5211H15.3053V30H16.6967ZM19.1735 28.5842V24.5211H17.7821V28.5842H19.1735ZM16.001 9.45513C14.0798 9.45513 12.5224 11.0126 12.5224 12.9338C12.5224 14.855 14.0798 16.4124 16.001 16.4124C17.9222 16.4124 19.4797 14.855 19.4797 12.9338C19.4797 11.0126 17.9222 9.45513 16.001 9.45513ZM13.9138 12.9338C13.9138 11.781 14.8483 10.8466 16.001 10.8466C17.1537 10.8466 18.0882 11.781 18.0882 12.9338C18.0882 14.0865 17.1537 15.021 16.001 15.021C14.8483 15.021 13.9138 14.0865 13.9138 12.9338Z" fill="black"/>
</svg>
