<svg width="32" height="32" viewBox="0 0 32 32" fill="none" xmlns="http://www.w3.org/2000/svg">
<path d="M5.11146 29.2836C5.73741 29.1711 6.36025 29.0731 6.98916 28.9888C8.05572 28.9184 9.10607 28.6911 10.1063 28.3143C10.3424 28.1831 10.5419 27.9949 10.6866 27.7668C11.3161 26.3385 11.842 24.8668 12.2603 23.363C13.3632 19.8235 14.3385 16.1224 15.1861 12.2599L16.7053 6.21401L16.8692 4.99199C16.9353 4.72281 16.972 4.44725 16.9786 4.17017C17.0095 3.84376 16.8336 3.53271 16.5381 3.39081C15.5789 3.07085 14.5664 2.94181 13.5576 3.01097L13.3359 3.03228H12.5915C12.2108 3.02326 11.8316 2.98111 11.4582 2.90629C11.5226 2.59937 11.6058 2.29671 11.7074 2.00003L15.019 2.12614L20.1808 2.25293L24.8203 2.08432L26.8891 2V2.73763C26.2311 2.8482 25.568 2.92551 24.9022 2.96927C23.9652 3.00155 23.0366 3.15732 22.1405 3.43256C21.863 3.61637 21.6354 3.86612 21.4781 4.15946C21.2776 4.50435 20.5333 7.00101 19.2451 11.6494L16.0974 23.1741C15.575 24.8166 15.1599 26.4914 14.8549 28.1879C14.8626 28.2947 14.9005 28.3972 14.9642 28.4833C15.874 28.7803 16.8237 28.9365 17.7807 28.9466C18.6831 29.0172 19.4284 29.0944 20.0168 29.1782L20.0988 29.8314C19.9724 29.8997 19.8286 29.929 19.6856 29.9157H19.0233C18.1574 29.9575 16.7214 29.9786 14.7152 29.9788L9.82965 29.8945H8.53543C8.42298 29.8945 8.00981 29.9119 7.2897 29.9476C6.57276 29.9819 5.84663 29.9994 5.11133 30L5.11146 29.2836Z" fill="black"/>
</svg>
