<svg width="32" height="32" viewBox="0 0 32 32" fill="none" xmlns="http://www.w3.org/2000/svg">
<path d="M29.2 6.2H22.9V4.9C22.9 3.3 21.6 2 20 2H12.9C11.4 2 10.1 3.3 10.1 4.9V6.3H3.8C3.3 6.2 3 6.6 3 7C3 7.4 3.3 7.8 3.8 7.8H6.3L7.2 27.3C7.2 28.8 8.5 30 10 30H22.9C24.4 30 25.7 28.8 25.8 27.3L26.7 7.8H29.2C29.6 7.8 30 7.5 30 7C30 6.5 29.6 6.2 29.2 6.2ZM11.6 4.9C11.6 4.1 12.2 3.5 13 3.5H20C20.8 3.5 21.4 4.1 21.4 4.9V6.3H11.6V4.9ZM24.3 27.2C24.3 27.9 23.7 28.5 22.9 28.5H10C9.3 28.5 8.7 27.9 8.6 27.2L7.7 7.7H25.2L24.3 27.2Z" fill="black"/>
<path d="M13.5 24.8C13.9 24.8 14.3 24.5 14.3 24V12.2C14.3 11.8 14 11.4 13.5 11.4C13 11.4 12.7 11.7 12.7 12.2V24C12.7 24.4 13 24.8 13.5 24.8Z" fill="black"/>
<path d="M19.5 24.8C19.9 24.8 20.3 24.5 20.3 24V12.2C20.3 11.8 20 11.4 19.5 11.4C19 11.4 18.7 11.7 18.7 12.2V24C18.7 24.4 19.1 24.8 19.5 24.8Z" fill="black"/>
</svg>
