<svg width="32" height="32" viewBox="0 0 32 32" fill="none" xmlns="http://www.w3.org/2000/svg">
<path fill-rule="evenodd" clip-rule="evenodd" d="M13.55 4.5C13.2642 4.5 13.1 4.66421 13.1 4.95V7.1H18.8V4.95C18.8 4.66421 18.6358 4.5 18.35 4.5H13.55ZM20.3 7.1V4.95C20.3 3.83579 19.4642 3 18.35 3H13.55C12.4358 3 11.6 3.83579 11.6 4.95V7.1H5.75C3.63579 7.1 2 8.73579 2 10.85V25.35C2 27.4642 3.63579 29.1 5.75 29.1H26.15C28.2882 29.1 29.8766 27.3486 29.9985 25.3968C29.9995 25.3812 30 25.3656 30 25.35V10.85C30 8.73579 28.3642 7.1 26.25 7.1H20.3ZM24.8 8.6H7.1V27.6H24.8V8.6ZM26.3 27.595V8.60049C27.5607 8.62513 28.5 9.58094 28.5 10.85V25.325C28.4152 26.5138 27.4839 27.5164 26.3 27.595ZM5.6 27.5956V8.60442C4.38995 8.67625 3.5 9.61472 3.5 10.85V25.35C3.5 26.5853 4.38995 27.5238 5.6 27.5956ZM10.1197 12.2197C10.4126 11.9268 10.8874 11.9268 11.1803 12.2197L15.95 16.9893L20.7197 12.2197C21.0126 11.9268 21.4874 11.9268 21.7803 12.2197C22.0732 12.5126 22.0732 12.9874 21.7803 13.2803L17.0107 18.05L21.7803 22.8197C22.0732 23.1126 22.0732 23.5874 21.7803 23.8803C21.4874 24.1732 21.0126 24.1732 20.7197 23.8803L15.95 19.1107L11.1803 23.8803C10.8874 24.1732 10.4126 24.1732 10.1197 23.8803C9.82678 23.5874 9.82678 23.1126 10.1197 22.8197L14.8893 18.05L10.1197 13.2803C9.82678 12.9874 9.82678 12.5126 10.1197 12.2197Z" fill="black"/>
</svg>
