<svg width="32" height="32" viewBox="0 0 32 32" fill="none" xmlns="http://www.w3.org/2000/svg">
<path d="M16 2C10.7 2 5.9 5 3.5 9.7V5.4C3.5 5 3.2 4.6 2.7 4.6C2.2 4.6 2 5 2 5.4V11.2C2 11.6 2.3 12 2.8 12H8.6C9 12 9.4 11.7 9.4 11.2C9.4 10.7 8.9 10.4 8.5 10.4H4.8C6.9 6.2 11.3 3.5 16 3.5C22.9 3.5 28.5 9.1 28.5 16C28.5 22.9 22.9 28.5 16 28.5C10.1 28.5 4.9 24.3 3.8 18.5C3.7 18.1 3.3 17.8 2.9 17.9C2.5 18 2.2 18.4 2.3 18.8C3.6 25.3 9.4 30 16 30C23.7 30 30 23.7 30 16C30 8.3 23.7 2 16 2Z" fill="black"/>
<path d="M16.8 21.6V10.1C16.8 9.7 16.5 9.3 16 9.3C15.5 9.3 15.2 9.6 15.2 10.1V21.6C15.2 22 15.5 22.4 16 22.4C16.5 22.4 16.8 22 16.8 21.6Z" fill="black"/>
<path d="M12.2 21.6V17.3C12.2 16.9 11.9 16.5 11.4 16.5C10.9 16.5 10.6 16.8 10.6 17.3V21.6C10.6 22 10.9 22.4 11.4 22.4C11.9 22.4 12.2 22 12.2 21.6Z" fill="black"/>
<path d="M21.3 21.6V13.2C21.3 12.8 21 12.4 20.5 12.4C20 12.4 19.7 12.7 19.7 13.2V21.6C19.7 22 20 22.4 20.5 22.4C21 22.4 21.3 22 21.3 21.6Z" fill="black"/>
</svg>
