<svg width="32" height="32" viewBox="0 0 32 32" fill="none" xmlns="http://www.w3.org/2000/svg">
<path d="M5 29.4282L6.88059 29.1444C8.01988 29.0686 9.08069 28.8284 10.0714 28.4476C10.2438 28.3282 10.4442 28.1273 10.5857 27.8871C11.1392 26.6803 11.6746 25.2221 12.1048 23.7203C13.2417 20.02 14.2311 16.2419 15.0728 12.386L16.5932 6.29181L16.7474 5.07802C16.7614 4.95439 16.7698 4.80969 16.7698 4.66499C16.7698 4.52029 16.7614 4.3756 16.746 4.23371C16.7502 4.22809 16.7516 4.2028 16.7516 4.17611C16.7516 3.86845 16.5736 3.60293 16.3144 3.4779C15.5605 3.20957 14.6972 3.05504 13.7976 3.05504C13.6757 3.05504 13.5551 3.05785 13.4346 3.06347H12.4985C12.329 3.07892 12.1314 3.08735 11.9324 3.08735C11.7334 3.08735 11.5358 3.07892 11.341 3.06066C11.4293 2.67011 11.5106 2.33014 11.6129 2L14.9214 2.05479H26.7964V2.80357C26.2456 2.90332 25.5646 2.9848 24.8737 3.03256C23.8171 3.0719 22.8726 3.23907 21.98 3.52145C21.7754 3.68441 21.5498 3.92745 21.3914 4.21404C21.1821 4.56525 20.4334 7.07384 19.1451 11.7398L16.0019 23.3087C15.5478 24.6728 15.119 26.3671 14.8023 28.0992C14.7533 28.3872 14.7477 28.435 14.7477 28.4856C14.7477 28.5361 14.7547 28.5853 14.7659 28.6317C15.6011 28.9112 16.5652 29.0798 17.5672 29.0925L19.8135 29.3243V29.9705C19.7518 29.9902 19.6804 30 19.6075 30C19.5346 30 19.4632 29.9888 19.3959 29.9691L18.9377 29.9705C18.0791 29.9705 16.6451 29.9705 14.6356 29.9705H5.02663L5 29.4282Z" fill="black"/>
</svg>
