<svg width="32" height="32" viewBox="0 0 32 32" fill="none" xmlns="http://www.w3.org/2000/svg">
<path d="M26.1901 2.00014H12.2401C11.8689 1.99636 11.5007 2.06696 11.1572 2.2078C10.8137 2.34863 10.5019 2.55685 10.2401 2.82014L2.82014 10.2601C2.55685 10.5219 2.34863 10.8337 2.2078 11.1772C2.06696 11.5207 1.99636 11.8889 2.00014 12.2601V26.2601C2.02104 27.2576 2.43134 28.2073 3.14332 28.9062C3.8553 29.6051 4.81246 29.9978 5.81014 30.0001H26.1901C27.1998 29.9975 28.1674 29.5952 28.8813 28.8813C29.5952 28.1674 29.9975 27.1998 30.0001 26.1901V5.81014C29.9975 4.80048 29.5952 3.83293 28.8813 3.11898C28.1674 2.40504 27.1998 2.00278 26.1901 2.00014ZM3.88014 11.3301L11.3301 3.88014C11.4249 3.78367 11.5368 3.70568 11.6601 3.65014V10.3701C11.6601 10.7123 11.5242 11.0404 11.2823 11.2823C11.0404 11.5242 10.7123 11.6601 10.3701 11.6601H3.65014C3.70568 11.5368 3.78367 11.4249 3.88014 11.3301ZM28.5001 26.1901C28.4975 26.802 28.2533 27.388 27.8207 27.8207C27.388 28.2533 26.802 28.4975 26.1901 28.5001H5.81014C5.19831 28.4975 4.61228 28.2533 4.17964 27.8207C3.747 27.388 3.50278 26.802 3.50014 26.1901V13.1901H10.3701C11.1101 13.1901 11.8197 12.8962 12.343 12.373C12.8662 11.8497 13.1601 11.1401 13.1601 10.4001V3.50014H26.1601C26.4657 3.49751 26.7687 3.55524 27.0518 3.67002C27.3349 3.78481 27.5926 3.95439 27.81 4.16902C28.0275 4.38366 28.2003 4.63912 28.3188 4.92075C28.4372 5.20238 28.4988 5.50463 28.5001 5.81014V26.1901Z" fill="black"/>
</svg>
