<svg width="32" height="32" viewBox="0 0 32 32" fill="none" xmlns="http://www.w3.org/2000/svg">
<path fill-rule="evenodd" clip-rule="evenodd" d="M21.7793 9.47712V2H23.8764V9.65784L27.6187 6.0078L29.082 7.51213L22.986 13.4579L16.593 7.53041L18.0178 5.98951L21.7793 9.47712ZM29.7973 15.72H11.4647L5.78377 27.9H5.49149C4.70161 27.9 4.42943 27.3572 4.30282 26.85C4.23175 26.5654 4.30282 10.68 4.30282 10.68H10.4073L11.735 13.62H20.4511L18.2142 11.52H13.0883L11.7605 8.58004H2.20564L2.20597 25.7691C2.19709 25.8198 2.20051 27.1082 2.34578 27.69C2.69976 29.1079 3.71237 30 5.49149 30H19.822C22.1965 30 24.2185 28.8499 24.7722 27.5392C25.0731 26.827 25.8287 25.0484 26.9024 22.5236C27.3995 21.3546 27.9322 20.1025 28.4649 18.8506L28.9798 17.6406L29.1241 17.3017L29.1752 17.1817L29.7973 15.72ZM12.5418 27.9H8.09838L12.7999 17.82H26.6239L26.5356 18.0274C26.0029 19.2794 25.4701 20.5316 24.9699 21.7079C23.8984 24.2275 23.1427 26.0065 22.8409 26.7209C22.833 26.7396 22.7737 26.821 22.6723 26.9216C22.5243 27.0685 22.3264 27.2176 22.0904 27.3519C21.4859 27.6957 20.7187 27.9 19.822 27.9H12.5418Z" fill="black"/>
</svg>
