<svg width="32" height="32" viewBox="0 0 32 32" fill="none" xmlns="http://www.w3.org/2000/svg">
<path fill-rule="evenodd" clip-rule="evenodd" d="M18.5455 5C19.0141 5 19.3939 5.37988 19.3939 5.84848V26.2121C19.3939 26.6807 19.0141 27.0606 18.5455 27.0606C18.0768 27.0606 17.697 26.6807 17.697 26.2121V5.84848C17.697 5.37988 18.0768 5 18.5455 5ZM13.4545 8.81818C13.9232 8.81818 14.303 9.19806 14.303 9.66667V21.5455C14.303 22.0141 13.9232 22.3939 13.4545 22.3939C12.9859 22.3939 12.6061 22.0141 12.6061 21.5455V9.66667C12.6061 9.19806 12.9859 8.81818 13.4545 8.81818ZM23.6364 8.81818C24.105 8.81818 24.4848 9.19806 24.4848 9.66667V18.5758C24.4848 19.0444 24.105 19.4242 23.6364 19.4242C23.1678 19.4242 22.7879 19.0444 22.7879 18.5758V9.66667C22.7879 9.19806 23.1678 8.81818 23.6364 8.81818ZM2.84848 10.0909C3.31709 10.0909 3.69697 10.4708 3.69697 10.9394V16.0303C3.69697 16.4989 3.31709 16.8788 2.84848 16.8788C2.37988 16.8788 2 16.4989 2 16.0303V10.9394C2 10.4708 2.37988 10.0909 2.84848 10.0909ZM7.93939 6.27273C8.408 6.27273 8.78788 6.65261 8.78788 7.12121V16.0303C8.78788 16.4989 8.408 16.8788 7.93939 16.8788C7.47079 16.8788 7.09091 16.4989 7.09091 16.0303V7.12121C7.09091 6.65261 7.47079 6.27273 7.93939 6.27273ZM29.1515 8.81818C29.6201 8.81818 30 9.19806 30 9.66667V14.7576C30 15.2262 29.6201 15.6061 29.1515 15.6061C28.6829 15.6061 28.303 15.2262 28.303 14.7576V9.66667C28.303 9.19806 28.6829 8.81818 29.1515 8.81818Z" fill="black"/>
</svg>
