<svg width="32" height="32" viewBox="0 0 32 32" fill="none" xmlns="http://www.w3.org/2000/svg">
<path fill-rule="evenodd" clip-rule="evenodd" d="M2 5.8363C2 3.72961 3.72961 2 5.8363 2H19.7865C20.5142 2 21.195 2.30186 21.8096 2.9164L29.1506 10.2574C29.7696 10.7541 30 11.5958 30 12.2135V26.1637C30 28.2704 28.2704 30 26.1637 30H5.8363C3.72961 30 2 28.2704 2 26.1637V5.8363ZM5.8363 3.49466C4.55509 3.49466 3.49466 4.55509 3.49466 5.8363V26.1637C3.49466 27.4449 4.55509 28.5053 5.8363 28.5053H26.1637C27.4449 28.5053 28.5053 27.4449 28.5053 26.1637V12.2135C28.5053 11.8503 28.3489 11.5233 28.2064 11.4164C28.1781 11.3952 28.1514 11.372 28.1264 11.3469L20.7527 3.97328C20.3708 3.59138 20.0552 3.49466 19.7865 3.49466H5.8363Z" fill="black"/>
<path fill-rule="evenodd" clip-rule="evenodd" d="M19.5872 2C19.9999 2 20.3345 2.33459 20.3345 2.74733V10.3203C20.3345 11.0036 20.8967 11.5658 21.5801 11.5658H29.153C29.5658 11.5658 29.9004 11.9004 29.9004 12.3132C29.9004 12.7259 29.5658 13.0605 29.153 13.0605H21.5801C20.0712 13.0605 18.8399 11.8291 18.8399 10.3203V2.74733C18.8399 2.33459 19.1744 2 19.5872 2Z" fill="black"/>
<path d="M7.33096 24.0712V17.5943H9.32384C9.92171 17.5943 10.4199 17.694 10.8185 17.9929C11.3167 18.2918 11.6157 18.5907 11.9146 19.089C12.2135 19.5872 12.3132 20.0854 12.3132 20.6833V20.9822C12.3132 21.5801 12.2135 22.0783 11.9146 22.5765C11.7153 23.0747 11.3167 23.3737 10.8185 23.6726C10.3203 23.9715 9.82206 24.0712 9.32384 24.0712H7.33096ZM8.62634 18.5907V22.9751H9.2242C9.72242 22.9751 10.121 22.7758 10.4199 22.4769C10.7189 22.1779 10.8185 21.6797 10.8185 20.9822V20.6833C10.8185 19.9858 10.7189 19.4875 10.4199 19.1886C10.121 18.8897 9.72242 18.6904 9.2242 18.6904H8.62634V18.5907Z" fill="black"/>
<path d="M24.669 21.879C24.5694 22.5765 24.3701 23.1744 23.8719 23.573C23.3737 23.9715 22.7758 24.1708 22.0783 24.1708C21.2811 24.1708 20.5836 23.8719 20.0854 23.3737C19.5872 22.7758 19.3879 22.0783 19.3879 21.0819V20.6833C19.3879 20.0854 19.4875 19.4875 19.6868 18.9893C19.8861 18.4911 20.1851 18.1922 20.5836 17.8932C20.9822 17.5943 21.4804 17.4947 21.9786 17.4947C22.7758 17.4947 23.3737 17.694 23.7722 18.0925C24.2705 18.4911 24.4698 19.089 24.5694 19.7865H23.274C23.274 19.3879 23.0747 19.089 22.8754 18.8897C22.6762 18.6904 22.3772 18.5907 21.9786 18.5907C21.5801 18.5907 21.1815 18.79 20.9822 19.089C20.7829 19.3879 20.6833 19.8861 20.6833 20.5836V21.0819C20.6833 21.7794 20.7829 22.2776 20.9822 22.5765C21.1815 22.8754 21.4804 23.0747 21.9786 23.0747C22.3772 23.0747 22.6762 22.9751 22.8754 22.7758C23.0747 22.5765 23.1744 22.2776 23.274 21.879H24.669Z" fill="black"/>
<path fill-rule="evenodd" clip-rule="evenodd" d="M14.0856 17.9805C14.6938 17.444 15.3961 17.3452 15.8007 17.3452C16.2053 17.3452 16.9077 17.444 17.5158 17.9805C18.1436 18.5345 18.5409 19.4387 18.5409 20.7829C18.5409 22.1451 18.1084 23.0593 17.4883 23.6263C16.8928 24.1707 16.2046 24.3203 15.8007 24.3203C15.3968 24.3203 14.7087 24.1707 14.1132 23.6263C13.493 23.0593 13.0605 22.1451 13.0605 20.7829C13.0605 19.4387 13.4578 18.5345 14.0856 17.9805ZM15.0745 19.1013C14.8554 19.2947 14.5552 19.7357 14.5552 20.7829C14.5552 21.8122 14.87 22.293 15.1217 22.5232C15.3981 22.7759 15.7064 22.8256 15.8007 22.8256C15.895 22.8256 16.2033 22.7759 16.4797 22.5232C16.7315 22.293 17.0463 21.8122 17.0463 20.7829C17.0463 19.7357 16.7461 19.2947 16.5269 19.1013C16.2881 18.8906 15.994 18.8399 15.8007 18.8399C15.6074 18.8399 15.3134 18.8906 15.0745 19.1013Z" fill="black"/>
</svg>
