<svg width="32" height="32" viewBox="0 0 32 32" fill="none" xmlns="http://www.w3.org/2000/svg">
<path d="M25.125 3C24.725 3 24.325 3.3 24.325 3.8V27.6C24.325 28 24.625 28.4 25.125 28.4C25.625 28.4 25.925 28.1 25.925 27.6V3.8C25.825 3.3 25.525 3 25.125 3Z" fill="black"/>
<path d="M7.325 3.9C7.025 3.6 6.525 3.6 6.225 3.9C5.925 4.2 5.925 4.7 6.225 5L16.925 15.7L6.225 26.3C5.925 26.6 5.925 27.1 6.225 27.4C6.325 27.5 6.525 27.6 6.725 27.6C6.925 27.6 7.125 27.5 7.225 27.4L18.425 16.2C18.525 16.1 18.625 15.9 18.625 15.7C18.625 15.5 18.525 15.3 18.425 15.2L7.325 3.9Z" fill="black"/>
</svg>
