<svg width="32" height="32" viewBox="0 0 32 32" fill="none" xmlns="http://www.w3.org/2000/svg">
<path fill-rule="evenodd" clip-rule="evenodd" d="M15.9928 7.51971C10.1863 7.51971 5.50538 12.2006 5.50538 18.0072C5.50538 23.8137 10.1863 28.4946 15.9928 28.4946C21.7994 28.4946 26.4803 23.8137 26.4803 18.0072C26.4803 17.5915 26.8173 17.2545 27.233 17.2545C27.6487 17.2545 27.9857 17.5915 27.9857 18.0072C27.9857 24.6451 22.6307 30 15.9928 30C9.35491 30 4 24.6451 4 18.0072C4 11.3692 9.35491 6.01434 15.9928 6.01434C16.4085 6.01434 16.7455 6.35133 16.7455 6.76702C16.7455 7.18272 16.4085 7.51971 15.9928 7.51971Z" fill="black"/>
<path fill-rule="evenodd" clip-rule="evenodd" d="M12.343 2.22707C12.6333 1.92952 13.1098 1.92364 13.4073 2.21393L17.522 6.22826C17.6661 6.36879 17.7478 6.56115 17.7491 6.76238C17.7503 6.96361 17.6709 7.15696 17.5286 7.29926L13.4139 11.4139C13.12 11.7079 12.6434 11.7079 12.3495 11.4139C12.0555 11.12 12.0555 10.6434 12.3495 10.3495L15.9253 6.77364L12.3561 3.29145C12.0585 3.00116 12.0527 2.52462 12.343 2.22707Z" fill="black"/>
<path fill-rule="evenodd" clip-rule="evenodd" d="M20.548 7.71625C20.7443 7.34982 21.2005 7.2119 21.5669 7.40821C21.9338 7.60474 22.2894 7.81894 22.6323 8.04943C22.9773 8.28131 23.0691 8.74897 22.8372 9.09399C22.6053 9.43901 22.1376 9.53073 21.7926 9.29885C21.4911 9.09622 21.1785 8.90791 20.856 8.73516C20.4896 8.53886 20.3517 8.08268 20.548 7.71625ZM23.4811 9.62698C23.7773 9.33528 24.2538 9.3389 24.5455 9.63507C25.1313 10.2299 25.6536 10.8821 26.1002 11.5804C26.3241 11.9306 26.2218 12.396 25.8716 12.62C25.5214 12.844 25.0559 12.7416 24.832 12.3914C24.4431 11.7833 23.9868 11.2131 23.473 10.6914C23.1813 10.3952 23.1849 9.91868 23.4811 9.62698ZM26.244 13.3692C26.635 13.228 27.0664 13.4306 27.2076 13.8216C27.3495 14.2148 27.469 14.6168 27.5645 15.0261C27.659 15.4309 27.4074 15.8357 27.0026 15.9301C26.5977 16.0246 26.193 15.773 26.0985 15.3682C26.0166 15.0171 25.9139 14.6715 25.7916 14.3327C25.6505 13.9417 25.853 13.5103 26.244 13.3692Z" fill="black"/>
</svg>
