<svg width="32" height="32" viewBox="0 0 32 32" fill="none" xmlns="http://www.w3.org/2000/svg">
<path fill-rule="evenodd" clip-rule="evenodd" d="M2 5.8363C2 3.72961 3.72961 2 5.8363 2H19.7865C20.5142 2 21.195 2.30186 21.8096 2.9164L29.1506 10.2574C29.7695 10.7541 30 11.5958 30 12.2135V26.1637C30 28.2704 28.2704 30 26.1637 30H5.8363C3.72961 30 2 28.2704 2 26.1637V5.8363ZM5.8363 3.49466C4.55509 3.49466 3.49466 4.55509 3.49466 5.8363V26.1637C3.49466 27.4449 4.55509 28.5053 5.8363 28.5053H26.1637C27.4449 28.5053 28.5053 27.4449 28.5053 26.1637V12.2135C28.5053 11.8503 28.3489 11.5233 28.2064 11.4164C28.1781 11.3952 28.1514 11.372 28.1264 11.3469L20.7527 3.97328C20.3708 3.59138 20.0552 3.49466 19.7865 3.49466H5.8363Z" fill="black"/>
<path fill-rule="evenodd" clip-rule="evenodd" d="M19.5872 2C19.9999 2 20.3345 2.33459 20.3345 2.74733V10.3203C20.3345 11.0036 20.8967 11.5658 21.5801 11.5658H29.153C29.5658 11.5658 29.9004 11.9004 29.9004 12.3132C29.9004 12.7259 29.5658 13.0605 29.153 13.0605H21.5801C20.0712 13.0605 18.8399 11.8291 18.8399 10.3203V2.74733C18.8399 2.33459 19.1744 2 19.5872 2Z" fill="black"/>
<path d="M8.62633 21.7794V24.0712H7.33096V17.5943H9.82206C10.3203 17.5943 10.7189 17.6939 11.1174 17.8932C11.516 18.0925 11.8149 18.2918 12.0142 18.6904C12.2135 18.9893 12.3132 19.3879 12.3132 19.7865C12.3132 20.3843 12.1139 20.8826 11.6157 21.2811C11.1174 21.6797 10.6192 21.879 9.82206 21.879H8.62633V21.7794ZM8.62633 20.6833H9.82206C10.2206 20.6833 10.4199 20.5836 10.6192 20.3843C10.8185 20.1851 10.9181 19.9858 10.9181 19.6868C10.9181 19.3879 10.8185 19.089 10.6192 18.8897C10.4199 18.6904 10.2206 18.5907 9.82206 18.5907H8.62633V20.6833Z" fill="black"/>
<path d="M18.4911 24.0712H17.1957L14.605 19.7865V24.0712H13.3096V17.5943H14.605L17.1957 21.879V17.5943H18.4911V24.0712Z" fill="black"/>
<path d="M24.7687 23.274C24.5694 23.573 24.1708 23.7722 23.7722 23.9715C23.3737 24.1708 22.8754 24.1708 22.2776 24.1708C21.6797 24.1708 21.1815 24.0712 20.7829 23.7722C20.3843 23.4733 19.9858 23.1744 19.7865 22.6762C19.5872 22.1779 19.4875 21.6797 19.3879 20.9822V20.5836C19.3879 19.8861 19.4875 19.3879 19.6868 18.8897C19.8861 18.3915 20.1851 18.0925 20.6833 17.7936C21.0819 17.4947 21.5801 17.395 22.1779 17.395C22.9751 17.395 23.573 17.5943 23.9715 17.9929C24.3701 18.3915 24.669 18.8897 24.7687 19.5872H23.4733C23.3737 19.1886 23.274 18.9893 23.0747 18.79C22.8754 18.5907 22.5765 18.4911 22.2776 18.4911C21.7794 18.4911 21.4804 18.6904 21.2811 18.9893C21.0818 19.2883 20.8826 19.8861 20.8826 20.484V20.8826C20.8826 21.5801 20.9822 22.0783 21.2811 22.3772C21.5801 22.6762 21.879 22.8754 22.3772 22.8754C22.8754 22.8754 23.274 22.7758 23.4733 22.5765V21.4804H22.2776V20.484H24.8683V23.274H24.7687Z" fill="black"/>
</svg>
