<svg width="32" height="32" viewBox="0 0 32 32" fill="none" xmlns="http://www.w3.org/2000/svg">
<path fill-rule="evenodd" clip-rule="evenodd" d="M2 3.74931C2 3.33548 2.33548 3 2.74931 3H7.74471C9.25644 3 10.3192 4.10887 10.5775 5.4007C10.5818 5.42176 10.5851 5.44299 10.5874 5.46434L10.9265 8.49494H27.2268C28.8856 8.49494 30.2351 10.004 29.9655 11.756L29.9639 11.7667L28.569 20.0362C28.4117 21.4607 27.1427 22.3822 25.8281 22.3822H13.5394C12.0863 22.3822 10.8396 21.322 10.6962 19.9138L9.52763 9.46977C9.5052 9.39859 9.4931 9.32284 9.4931 9.24425C9.4931 9.22367 9.49393 9.20329 9.49556 9.18312L9.10201 5.66578C8.95209 4.97499 8.42159 4.49862 7.74471 4.49862H2.74931C2.33548 4.49862 2 4.16314 2 3.74931ZM11.0942 9.99357L12.187 19.7599C12.2457 20.3475 12.7961 20.8835 13.5394 20.8835H25.8281C26.5032 20.8835 27.0248 20.4181 27.0806 19.8599C27.0823 19.8431 27.0846 19.8264 27.0874 19.8098L28.4851 11.5233C28.612 10.6799 27.9644 9.99357 27.2268 9.99357H11.0942ZM13.8391 25.5792C13.0942 25.5792 12.4903 26.1831 12.4903 26.928C12.4903 27.6729 13.0942 28.2767 13.8391 28.2767C14.584 28.2767 15.1879 27.6729 15.1879 26.928C15.1879 26.1831 14.584 25.5792 13.8391 25.5792ZM10.9917 26.928C10.9917 25.3554 12.2665 24.0806 13.8391 24.0806C15.4117 24.0806 16.6865 25.3554 16.6865 26.928C16.6865 28.5005 15.4117 29.7754 13.8391 29.7754C12.2665 29.7754 10.9917 28.5005 10.9917 26.928ZM25.5284 25.5792C24.7835 25.5792 24.1796 26.1831 24.1796 26.928C24.1796 27.6729 24.7835 28.2767 25.5284 28.2767C26.2733 28.2767 26.8771 27.6729 26.8771 26.928C26.8771 26.1831 26.2733 25.5792 25.5284 25.5792ZM22.681 26.928C22.681 25.3554 23.9558 24.0806 25.5284 24.0806C27.1009 24.0806 28.3757 25.3554 28.3757 26.928C28.3757 28.5005 27.1009 29.7754 25.5284 29.7754C23.9558 29.7754 22.681 28.5005 22.681 26.928Z" fill="black"/>
</svg>
