<svg width="32" height="32" viewBox="0 0 32 32" fill="none" xmlns="http://www.w3.org/2000/svg">
<path fill-rule="evenodd" clip-rule="evenodd" d="M23.1091 1.66016C26.7204 5.55753 28.7391 10.6767 28.7644 16.0001L28.7645 16.005C28.7371 21.3264 26.7186 26.4433 23.1092 30.3398L22.3755 29.6602C25.814 25.9483 27.7377 21.0732 27.7644 16.0023C27.7396 10.9297 25.8157 6.05251 22.3756 2.33983L23.1091 1.66016Z" fill="black"/>
<path fill-rule="evenodd" clip-rule="evenodd" d="M19.9971 4.7992C22.7048 7.8993 24.2072 11.8766 24.2288 15.9998L24.2288 16.0057C24.202 20.1334 22.7008 24.1146 19.9979 27.2249L19.2431 26.569C21.7884 23.6401 23.2029 19.8905 23.2288 16.0021C23.2078 12.1195 21.7927 8.37517 19.2439 5.45703L19.9971 4.7992Z" fill="black"/>
<path fill-rule="evenodd" clip-rule="evenodd" d="M16.8459 7.88078C20.771 12.5763 20.771 19.4247 16.8459 24.1203L16.0787 23.4789C19.6934 19.1546 19.6934 12.8464 16.0787 8.52214L16.8459 7.88078Z" fill="black"/>
<path fill-rule="evenodd" clip-rule="evenodd" d="M13.8455 9.2012V23.2472L9.57961 19.4066L3.23535 19.4043V13.0418H9.57969L13.8455 9.2012ZM9.99988 14.0418H4.23535V18.4047L9.96359 18.4067L12.8455 21.0013V11.4471L9.99988 14.0418Z" fill="black"/>
</svg>
