<svg width="32" height="32" viewBox="0 0 32 32" fill="none" xmlns="http://www.w3.org/2000/svg">
<path d="M29.1032 15.153H2.79715C2.29893 15.153 2 15.5516 2 15.9502C2 16.3488 2.29893 16.7473 2.79715 16.7473H29.2028C29.6014 16.7473 30 16.4484 30 15.9502C30 15.452 29.6014 15.153 29.1032 15.153Z" fill="black"/>
<path d="M2.79715 3.49466H29.2028C29.6014 3.49466 30 3.19573 30 2.69751C30 2.19929 29.6014 2 29.1032 2H2.79715C2.29893 2 2 2.29893 2 2.79715C2 3.29537 2.29893 3.49466 2.79715 3.49466Z" fill="black"/>
<path d="M29.1032 28.4057H2.79715C2.39858 28.4057 2 28.7046 2 29.2028C2 29.7011 2.29893 29.9004 2.79715 29.9004H29.2028C29.6014 29.9004 30 29.6014 30 29.1032C30 28.605 29.6014 28.4057 29.1032 28.4057Z" fill="black"/>
<path d="M24.121 23.3238C24.5196 23.3238 24.9181 23.0249 24.9181 22.5267C24.9181 22.0285 24.6192 21.7295 24.121 21.7295H7.77936C7.38078 21.7295 6.98221 22.0285 6.98221 22.5267C6.98221 23.0249 7.28114 23.3238 7.77936 23.3238H24.121Z" fill="black"/>
<path d="M7.77936 8.57651C7.38078 8.57651 7.08185 8.97509 7.08185 9.37367C7.08185 9.77224 7.38078 10.1708 7.879 10.1708H24.121C24.5196 10.1708 24.9181 9.87189 24.9181 9.37367C24.9181 8.87544 24.6192 8.57651 24.121 8.57651H7.77936Z" fill="black"/>
</svg>
