<svg width="32" height="32" viewBox="0 0 32 32" fill="none" xmlns="http://www.w3.org/2000/svg">
<path d="M16 8C8.4 8 2 14.1 2 16.4C2 18.7 8.4 24.8 16 24.8C23.6 24.8 30 18.7 30 16.4C30 14.1 23.6 8 16 8ZM16 23.3C8.8 23.3 3.5 17.5 3.5 16.4C3.5 15.3 8.8 9.5 16 9.5C22.9 9.5 28.5 15 28.5 16.4C28.5 17.8 22.9 23.3 16 23.3Z" fill="black"/>
<path d="M16 11.2C13.1 11.2 10.8 13.6 10.8 16.4C10.8 19.2 13.1 21.6 16 21.6C18.9 21.6 21.2 19.2 21.2 16.4C21.2 13.6 18.9 11.2 16 11.2ZM16 20.1C13.9 20.1 12.3 18.4 12.3 16.4C12.3 14.4 14 12.7 16 12.7C18 12.7 19.7 14.4 19.7 16.4C19.7 18.4 18.1 20.1 16 20.1Z" fill="black"/>
</svg>
