<svg width="32" height="32" viewBox="0 0 32 32" fill="none" xmlns="http://www.w3.org/2000/svg">
<path fill-rule="evenodd" clip-rule="evenodd" d="M13.55 4.5C13.2642 4.5 13.1 4.66421 13.1 4.95V7.1H18.8V4.95C18.8 4.66421 18.6358 4.5 18.35 4.5H13.55ZM20.3 7.1V4.95C20.3 3.83579 19.4642 3 18.35 3H13.55C12.4358 3 11.6 3.83579 11.6 4.95V7.1H5.75C3.63579 7.1 2 8.73579 2 10.85V25.35C2 27.4642 3.63579 29.1 5.75 29.1H26.15C28.2882 29.1 29.8766 27.3486 29.9985 25.3968C29.9995 25.3812 30 25.3656 30 25.35V10.85C30 8.73579 28.3642 7.1 26.25 7.1H20.3ZM24.8 8.6H7.1V27.6H24.8V8.6ZM26.3 27.595V8.60049C27.5607 8.62513 28.5 9.58094 28.5 10.85V25.325C28.4152 26.5138 27.4839 27.5164 26.3 27.595ZM5.6 27.5956V8.60442C4.38995 8.67625 3.5 9.61472 3.5 10.85V25.35C3.5 26.5853 4.38995 27.5238 5.6 27.5956ZM22.097 12.6478C22.4296 12.8947 22.4991 13.3644 22.2522 13.697L15.0522 23.397C14.9213 23.5734 14.7197 23.6835 14.5006 23.6983C14.2815 23.7131 14.0669 23.6312 13.9135 23.4741L9.71347 19.1741C9.42404 18.8777 9.42963 18.4029 9.72595 18.1135C10.0223 17.824 10.4971 17.8296 10.7865 18.1259L14.372 21.7968L21.0478 12.803C21.2947 12.4704 21.7644 12.4009 22.097 12.6478Z" fill="black"/>
</svg>
