<svg width="32" height="32" viewBox="0 0 32 32" fill="none" xmlns="http://www.w3.org/2000/svg">
<path d="M18.5455 4.96973C18.0768 4.96973 17.697 5.34961 17.697 5.81821V26.1818C17.697 26.6505 18.0768 27.0303 18.5455 27.0303C19.0141 27.0303 19.3939 26.6505 19.3939 26.1818V5.81821C19.3939 5.34961 19.0141 4.96973 18.5455 4.96973Z" fill="black"/>
<path d="M7.93939 6.24245C7.47079 6.24245 7.09091 6.62233 7.09091 7.09094V16C7.09091 16.4686 7.47079 16.8485 7.93939 16.8485C8.408 16.8485 8.78788 16.4686 8.78788 16V7.09094C8.78788 6.62233 8.408 6.24245 7.93939 6.24245Z" fill="black"/>
<path d="M2.84848 10.0606C2.37988 10.0606 2 10.4405 2 10.9091V16C2 16.4686 2.37988 16.8485 2.84848 16.8485C3.31709 16.8485 3.69697 16.4686 3.69697 16V10.9091C3.69697 10.4405 3.31709 10.0606 2.84848 10.0606Z" fill="black"/>
<path d="M12.6061 9.63639C12.6061 9.16779 12.9859 8.78791 13.4545 8.78791C13.9232 8.78791 14.303 9.16779 14.303 9.63639V21.5152C14.303 21.9838 13.9232 22.3637 13.4545 22.3637C12.9859 22.3637 12.6061 21.9838 12.6061 21.5152V9.63639Z" fill="black"/>
<path d="M22.7879 9.63639C22.7879 9.16779 23.1678 8.78791 23.6364 8.78791C24.105 8.78791 24.4848 9.16779 24.4848 9.63639V18.5455C24.4848 19.0141 24.105 19.394 23.6364 19.394C23.1678 19.394 22.7879 19.0141 22.7879 18.5455V9.63639Z" fill="black"/>
<path d="M29.1515 8.78791C28.6829 8.78791 28.303 9.16779 28.303 9.63639V14.7273C28.303 15.1959 28.6829 15.5758 29.1515 15.5758C29.6201 15.5758 30 15.1959 30 14.7273V9.63639C30 9.16779 29.6201 8.78791 29.1515 8.78791Z" fill="black"/>
</svg>
