<svg width="32" height="32" viewBox="0 0 32 32" fill="none" xmlns="http://www.w3.org/2000/svg">
<path fill-rule="evenodd" clip-rule="evenodd" d="M16 3.50538C9.09941 3.50538 3.50538 9.09941 3.50538 16C3.50538 22.9006 9.09941 28.4946 16 28.4946C22.9006 28.4946 28.4946 22.9006 28.4946 16C28.4946 9.09941 22.9006 3.50538 16 3.50538ZM2 16C2 8.26801 8.26801 2 16 2C23.732 2 30 8.26801 30 16C30 23.732 23.732 30 16 30C8.26801 30 2 23.732 2 16ZM12.086 9.12545C12.5017 9.12545 12.8387 9.46244 12.8387 9.87814V13.9928C12.8387 14.4085 12.5017 14.7455 12.086 14.7455C11.6703 14.7455 11.3333 14.4085 11.3333 13.9928V9.87814C11.3333 9.46244 11.6703 9.12545 12.086 9.12545ZM19.914 9.12545C20.3297 9.12545 20.6667 9.46244 20.6667 9.87814V13.9928C20.6667 14.4085 20.3297 14.7455 19.914 14.7455C19.4983 14.7455 19.1613 14.4085 19.1613 13.9928V9.87814C19.1613 9.46244 19.4983 9.12545 19.914 9.12545ZM16 19.362C13.22 19.362 10.7747 21.1591 9.77583 23.7017C9.62383 24.0887 9.18696 24.2791 8.80005 24.1271C8.41313 23.9751 8.2227 23.5382 8.3747 23.1513C9.58368 20.0739 12.5578 17.8566 16 17.8566C19.4262 17.8566 22.522 20.0609 23.6336 23.1734C23.7734 23.5648 23.5694 23.9955 23.1779 24.1354C22.7864 24.2752 22.3557 24.0712 22.2159 23.6797C21.3203 21.1721 18.796 19.362 16 19.362Z" fill="black"/>
</svg>
