<svg width="32" height="32" viewBox="0 0 32 32" fill="none" xmlns="http://www.w3.org/2000/svg">
<path d="M17.224 6.28845C16.7583 6.05877 16.2378 5.96329 15.7209 6.01269C15.2039 6.06209 14.7109 6.25442 14.2971 6.56816L8.05366 11.3232H2.74921C2.55132 11.3258 2.36225 11.4055 2.2223 11.5455C2.08235 11.6854 2.00259 11.8745 2 12.0724V19.6744C2 19.8731 2.07893 20.0637 2.21944 20.2042C2.35995 20.3447 2.55051 20.4236 2.74921 20.4236H8.05366L14.2971 25.1787C14.709 25.4922 15.2 25.6849 15.7152 25.7351C16.2303 25.7853 16.7493 25.691 17.2139 25.4628C17.6786 25.2347 18.0705 24.8816 18.3457 24.4433C18.621 24.0049 18.7687 23.4986 18.7724 22.981V8.78583C18.7726 8.26665 18.6277 7.75776 18.3541 7.31651C18.0805 6.87526 17.6891 6.51919 17.224 6.28845ZM7.56417 18.9252H3.49843V12.8216H7.56417V18.9252ZM17.274 22.921C17.269 23.1586 17.1983 23.3902 17.0699 23.5902C16.9414 23.7902 16.7602 23.9508 16.5462 24.0541C16.3322 24.1575 16.0937 24.1997 15.8573 24.176C15.6208 24.1524 15.3954 24.0637 15.2062 23.92L9.0626 19.3048V12.442L15.2062 7.7669C15.3935 7.61545 15.6212 7.52239 15.8609 7.4993C16.1007 7.47621 16.342 7.52411 16.5547 7.63704C16.7717 7.73995 16.9548 7.9028 17.0822 8.10636C17.2096 8.30991 17.2762 8.54568 17.274 8.78583V22.921Z" fill="black"/>
<path d="M26.2146 15.8784L29.7509 12.3321C29.8912 12.1916 29.97 12.0012 29.97 11.8027C29.97 11.6041 29.8912 11.4137 29.7509 11.2732L25.6452 7.16753C25.5404 7.06288 25.407 6.99163 25.2618 6.96278C25.1165 6.93392 24.966 6.94876 24.8292 7.00541C24.6923 7.06206 24.5754 7.15799 24.493 7.28108C24.4107 7.40416 24.3667 7.54889 24.3666 7.69697V14.0603L21.6095 11.2832C21.5406 11.2125 21.4583 11.1564 21.3673 11.118C21.2764 11.0796 21.1787 11.0599 21.08 11.0599C20.9813 11.0599 20.8836 11.0796 20.7927 11.118C20.7018 11.1564 20.6194 11.2125 20.5506 11.2832C20.4103 11.4237 20.3315 11.6141 20.3315 11.8127C20.3315 12.0112 20.4103 12.2016 20.5506 12.3421L24.0869 15.8784L20.5506 19.4147C20.4182 19.5567 20.3462 19.7446 20.3496 19.9387C20.353 20.1328 20.4317 20.318 20.5689 20.4552C20.7062 20.5925 20.8914 20.6711 21.0855 20.6745C21.2796 20.678 21.4674 20.6059 21.6095 20.4736L24.3965 17.6865V24.0498C24.3975 24.1983 24.4414 24.3433 24.5229 24.4674C24.6044 24.5915 24.7201 24.6893 24.856 24.7491C24.9481 24.7858 25.0468 24.8028 25.1457 24.7991C25.2443 24.8001 25.342 24.7811 25.433 24.7434C25.524 24.7056 25.6064 24.6498 25.6752 24.5793L29.7809 20.4736C29.9212 20.3331 30 20.1427 30 19.9441C30 19.7456 29.9212 19.5552 29.7809 19.4147L26.2146 15.8784ZM28.2125 11.8027L25.895 14.0703V9.51507L28.2125 11.8027ZM25.875 22.2317V17.6765L28.1626 19.9841L25.875 22.2317Z" fill="black"/>
</svg>
