<svg width="32" height="32" viewBox="0 0 32 32" fill="none" xmlns="http://www.w3.org/2000/svg">
<path d="M10.2 16.7C5.7 16.7 2 20.4 2 25V28C2 28.4 2.3 28.8 2.8 28.8H17.8C18.2 28.8 18.6 28.5 18.6 28V25C18.5 20.4 14.8 16.7 10.2 16.7ZM17 27.3H3.5V25C3.5 21.3 6.5 18.3 10.2 18.3C13.9 18.3 16.9 21.3 16.9 25V27.3H17Z" fill="black"/>
<path d="M10.2 15.2C12.9 15.2 15 13 15 10.4C15 7.7 12.8 5.6 10.2 5.6C7.6 5.6 5.4 7.7 5.4 10.3C5.4 13 7.6 15.2 10.2 15.2ZM10.2 7C12 7 13.5 8.5 13.5 10.3C13.5 12.1 12 13.6 10.2 13.6C8.4 13.6 6.9 12.2 6.9 10.3C6.9 8.4 8.4 7 10.2 7Z" fill="black"/>
<path d="M22.3 5.5H28.4C28.8 5.5 29.2 5.2 29.2 4.7C29.2 4.2 28.8 4 28.3 4H22.2C21.8 4 21.4 4.3 21.4 4.8C21.4 5.3 21.8 5.5 22.3 5.5Z" fill="black"/>
<path d="M19 4H18C17.6 4 17.2 4.3 17.2 4.8C17.2 5.3 17.5 5.6 18 5.6H19C19.4 5.6 19.8 5.3 19.8 4.8C19.8 4.3 19.5 4 19 4Z" fill="black"/>
<path d="M28.3 9H22.2C21.8 9 21.4 9.3 21.4 9.8C21.4 10.3 21.7 10.6 22.2 10.6H28.3C28.7 10.6 29.1 10.3 29.1 9.8C29.1 9.3 28.8 9 28.3 9Z" fill="black"/>
<path d="M19 9H18C17.6 9 17.2 9.3 17.2 9.8C17.2 10.3 17.5 10.6 18 10.6H19C19.4 10.6 19.8 10.3 19.8 9.8C19.8 9.3 19.5 9 19 9Z" fill="black"/>
<path d="M28.3 14H22.2C21.8 14 21.4 14.3 21.4 14.8C21.4 15.3 21.7 15.6 22.2 15.6H28.3C28.7 15.6 29.1 15.3 29.1 14.8C29.1 14.3 28.8 14 28.3 14Z" fill="black"/>
<path d="M19 14H18C17.6 14 17.2 14.3 17.2 14.8C17.2 15.3 17.5 15.6 18 15.6H19C19.4 15.6 19.8 15.3 19.8 14.8C19.8 14.3 19.5 14 19 14Z" fill="black"/>
</svg>
