<svg width="32" height="32" viewBox="0 0 32 32" fill="none" xmlns="http://www.w3.org/2000/svg">
<path fill-rule="evenodd" clip-rule="evenodd" d="M6.24292 8.65612C3.90173 10.4145 2.5 12.8061 2.5 15.4071C2.5 18.008 3.90173 20.3996 6.24296 22.1584C8.58436 23.9173 11.8419 25.0202 15.4614 25.0215C16.8064 25.021 18.1468 24.8631 19.4551 24.5511L19.6279 24.5099L19.788 24.587C21.9722 25.6383 24.4466 26.0238 26.4272 26.1498C26.9927 26.1857 27.5153 26.2004 27.9762 26.2037C27.5306 25.956 27.0918 25.6884 26.6841 25.396C25.7191 24.7037 24.8669 23.8292 24.5274 22.6769L24.4248 22.3285L24.7243 22.1232C26.9536 20.5945 28.3257 18.0993 28.4227 15.3983C28.4209 12.801 27.0193 10.4128 24.6799 8.65621C22.3378 6.89758 19.0796 5.79541 15.4614 5.79541C11.8419 5.79541 8.58432 6.89756 6.24292 8.65612ZM5.64237 7.85653C8.17297 5.95587 11.6461 4.79541 15.4614 4.79541C19.2753 4.79541 22.7491 5.95592 25.2803 7.85654C27.8118 9.75731 29.4242 12.4216 29.4227 15.4073L29.4227 15.4159L29.4224 15.4245C29.3215 18.3163 27.9123 20.998 25.6056 22.7218C25.9101 23.4243 26.4984 24.0321 27.267 24.5834C28.1514 25.2179 29.2129 25.7353 30.2182 26.2228L29.8683 27.1551C29.9197 27.1691 29.9569 27.1688 29.9385 27.1679C29.9334 27.1677 29.9205 27.1673 29.8962 27.1675C29.8481 27.1678 29.7791 27.1697 29.6854 27.1728C29.6475 27.1741 29.6062 27.1755 29.5618 27.1771C29.3907 27.183 29.1725 27.1906 28.9177 27.1962C28.2738 27.2105 27.3876 27.2129 26.3637 27.1477C24.3698 27.021 21.8225 26.6368 19.5149 25.564C18.1854 25.8675 16.8258 26.021 15.4616 26.0215C11.6464 26.0201 8.17289 24.859 5.64233 22.9579C3.11156 21.0568 1.5 18.3926 1.5 15.4071C1.5 12.4215 3.11156 9.75734 5.64237 7.85653Z" fill="black"/>
<path fill-rule="evenodd" clip-rule="evenodd" d="M21.4284 11.6927H10.2284V10.6927H21.4284V11.6927Z" fill="black"/>
<path fill-rule="evenodd" clip-rule="evenodd" d="M21.4284 15.8927H10.2284V14.8927H21.4284V15.8927Z" fill="black"/>
<path fill-rule="evenodd" clip-rule="evenodd" d="M21.4284 20.0927H10.2284V19.0927H21.4284V20.0927Z" fill="black"/>
</svg>
