<svg width="32" height="32" viewBox="0 0 32 32" fill="none" xmlns="http://www.w3.org/2000/svg">
<path fill-rule="evenodd" clip-rule="evenodd" d="M28.9751 5.49999L26.5006 3.02506C25.817 2.34191 24.9206 2 24.0252 2C23.1299 2 22.2341 2.34191 21.5505 3.02506L6.52461 18.0507C5.8419 18.7343 3.75087 21.3781 3.74999 22.2737L2 29.9999L9.7247 28.2499C9.7247 28.2499 13.2658 26.158 13.9494 25.4744L28.9753 10.4492C30.3416 9.08201 30.3416 6.86564 28.9751 5.49999ZM4.31984 27.6807L5.45624 22.6597C5.47243 22.588 5.48446 22.5145 5.49124 22.4427C5.49474 22.4324 5.50415 22.4171 5.5083 22.4069L9.46548 26.3649C9.33314 26.4452 9.1997 26.5255 9.06889 26.6042L4.31984 27.6807ZM12.7152 24.2339C12.517 24.4218 11.8317 24.8851 10.9943 25.4182L6.4605 20.8842C6.92535 20.2468 7.44313 19.6059 7.76184 19.288L19.076 7.97473L24.0252 12.9239L12.7152 24.2339ZM27.7378 9.21195L25.2625 11.6867L20.3133 6.73745L22.7886 4.26274C23.1185 3.93134 23.5577 3.74999 24.0252 3.74999C24.4927 3.74999 24.9326 3.93287 25.2633 4.26274L27.738 6.73745C28.0688 7.06733 28.2499 7.50658 28.2499 7.9747C28.2497 8.44129 28.0677 8.88207 27.7378 9.21195Z" fill="black"/>
</svg>
