<svg width="32" height="32" viewBox="0 0 32 32" fill="none" xmlns="http://www.w3.org/2000/svg">
<path fill-rule="evenodd" clip-rule="evenodd" d="M16 3.50538C9.09941 3.50538 3.50538 9.09941 3.50538 16C3.50538 22.9006 9.09941 28.4946 16 28.4946C22.9006 28.4946 28.4946 22.9006 28.4946 16C28.4946 9.09941 22.9006 3.50538 16 3.50538ZM2 16C2 8.26801 8.26801 2 16 2C23.732 2 30 8.26801 30 16C30 23.732 23.732 30 16 30C8.26801 30 2 23.732 2 16ZM16 10.9319C16.4157 10.9319 16.7527 11.2689 16.7527 11.6846V15.2473H20.3154C20.7311 15.2473 21.0681 15.5843 21.0681 16C21.0681 16.4157 20.7311 16.7527 20.3154 16.7527H16.7527V20.3154C16.7527 20.7311 16.4157 21.0681 16 21.0681C15.5843 21.0681 15.2473 20.7311 15.2473 20.3154V16.7527H11.6846C11.2689 16.7527 10.9319 16.4157 10.9319 16C10.9319 15.5843 11.2689 15.2473 11.6846 15.2473H15.2473V11.6846C15.2473 11.2689 15.5843 10.9319 16 10.9319Z" fill="black"/>
</svg>
