<svg width="32" height="32" viewBox="0 0 32 32" fill="none" xmlns="http://www.w3.org/2000/svg">
<path fill-rule="evenodd" clip-rule="evenodd" d="M15.85 30C16.2642 30 16.6 29.6642 16.6 29.25V5.66066L24.5197 13.5803C24.8126 13.8732 25.2874 13.8732 25.5803 13.5803C25.8732 13.2874 25.8732 12.8126 25.5803 12.5197L16.3803 3.31967C16.2392 3.17851 16.0476 3.09946 15.8479 3.1C15.6483 3.10055 15.4572 3.18065 15.3168 3.32257L6.21678 12.5226C5.92549 12.8171 5.92809 13.2919 6.22258 13.5832C6.51707 13.8745 6.99193 13.8719 7.28322 13.5774L15.1 5.67474V29.25C15.1 29.6642 15.4358 30 15.85 30Z" fill="black"/>
</svg>
