<svg width="32" height="32" viewBox="0 0 32 32" fill="none" xmlns="http://www.w3.org/2000/svg">
<path fill-rule="evenodd" clip-rule="evenodd" d="M17.4054 11.6788C17.0171 12.0381 16.486 12.2178 15.8121 12.2178V12.2192C15.1653 12.2192 14.6402 12.0316 14.2482 11.662C13.859 11.2905 13.6644 10.7897 13.6644 10.1597V6.33049C13.663 6.30529 13.663 6.28009 13.663 6.25349C13.663 5.73406 13.8954 5.26924 14.265 4.95562C14.6654 4.6182 15.2059 4.44739 15.8779 4.44739C16.4967 4.44739 16.9994 4.6294 17.3886 4.98502L17.39 4.98642C17.7512 5.31264 17.978 5.78306 17.978 6.30809C17.978 6.31918 17.9776 6.33026 17.9772 6.34073C17.9769 6.35009 17.9766 6.35896 17.9766 6.36689V10.1877C17.9841 10.8224 17.7937 11.3194 17.4054 11.6788ZM15.1919 6.2536V6.2676H15.1933V10.2984C15.1919 10.3124 15.1919 10.3264 15.1919 10.3404C15.1919 10.5042 15.2521 10.6554 15.3515 10.7702C15.4579 10.8738 15.6035 10.9382 15.7645 10.9382C15.7799 10.9382 15.7953 10.9382 15.8079 10.9368H15.8373C16.0109 10.9368 16.1677 10.8738 16.2881 10.7688C16.3973 10.6568 16.4659 10.5028 16.4659 10.3334C16.4659 10.3276 16.4655 10.3215 16.4652 10.3155C16.4648 10.3099 16.4645 10.3045 16.4645 10.2998V6.2564C16.4645 6.10239 16.3931 5.96518 16.2811 5.87558L16.2825 5.87698C16.1607 5.78177 16.0067 5.72577 15.8401 5.72577C15.8334 5.72577 15.8271 5.72617 15.8212 5.72654C15.8165 5.72683 15.812 5.72711 15.8078 5.72716C15.798 5.72577 15.7869 5.72577 15.7771 5.72577C15.6189 5.72577 15.4733 5.78317 15.3613 5.87558C15.2577 5.96798 15.1919 6.10379 15.1919 6.2536Z" fill="black"/>
<path d="M20.2209 12.138C20.5387 12.131 20.8356 12.0442 21.0946 11.8972L21.0862 11.9014C21.4194 11.7165 21.7022 11.4883 21.9402 11.2195L21.943 11.2167V12.033H23.4285V4.62938H21.943V10.2493C21.8128 10.4033 21.6616 10.5363 21.4936 10.6427L21.4852 10.6469C21.3704 10.7295 21.2304 10.7841 21.0792 10.7995H21.075C21.0638 10.8009 21.0498 10.8009 21.0372 10.8009C20.9322 10.8009 20.8384 10.7561 20.7726 10.6847C20.7123 10.5909 20.6773 10.4775 20.6773 10.3557C20.6773 10.3375 20.6787 10.3207 20.6801 10.3039V10.3067V4.62938H19.1947V10.8149C19.1947 11.2559 19.2829 11.5877 19.4537 11.8076C19.6245 12.0274 19.8793 12.1366 20.2223 12.1366L20.2209 12.138Z" fill="black"/>
<path d="M9.92198 12.0315H11.5979V7.86911L13.544 2H11.8415L10.8096 6.00981H10.7032L9.61397 2H7.92968L9.92338 8.05812V12.0301L9.92198 12.0315Z" fill="black"/>
<path d="M23.4355 21.1782C23.4201 21.1768 23.4005 21.1754 23.3823 21.1754C23.2213 21.1754 23.0757 21.2482 22.9791 21.363V21.3644C22.8895 21.4792 22.8461 21.685 22.8461 21.965V22.6413H24.0123V21.965C24.0123 21.6836 23.9675 21.482 23.8723 21.3644C23.7799 21.2496 23.6385 21.1768 23.4817 21.1768C23.4663 21.1768 23.4495 21.1782 23.4341 21.1796H23.4355V21.1782Z" fill="black"/>
<path d="M18.8839 21.1544C18.8825 21.1544 18.8796 21.1544 18.8782 21.1544C18.7788 21.1544 18.685 21.1782 18.6024 21.2202L18.6052 21.2188C18.4988 21.272 18.4092 21.342 18.335 21.4246L18.3336 21.426V25.6094C18.4218 25.7046 18.5254 25.783 18.6416 25.8418L18.6472 25.8446C18.7368 25.8908 18.8432 25.9174 18.9553 25.9174C18.9581 25.9174 18.9609 25.9174 18.9623 25.9174C18.9735 25.9188 18.9875 25.9188 19.0001 25.9188C19.1275 25.9188 19.2409 25.8642 19.3193 25.776C19.3921 25.6626 19.4369 25.5254 19.4369 25.377C19.4369 25.3546 19.4355 25.3322 19.4341 25.3098V25.3126V21.8446C19.4355 21.8278 19.4355 21.8082 19.4355 21.7886C19.4355 21.6178 19.3823 21.4582 19.2927 21.3266L19.2941 21.3294C19.2017 21.2216 19.0645 21.153 18.9133 21.153C18.9021 21.153 18.8909 21.153 18.881 21.1544H18.8839Z" fill="black"/>
<path fill-rule="evenodd" clip-rule="evenodd" d="M26.223 15.9433C25.1352 14.8638 15.9927 14.8484 15.9927 14.8484C15.9927 14.8484 6.85022 14.861 5.76517 15.9447C4.68011 17.0283 4.67871 22.3892 4.67871 22.42C4.67871 22.4508 4.67871 27.8089 5.76937 28.8939C6.86003 29.979 15.9927 30 15.9927 30C15.9927 30 25.1352 29.9776 26.2202 28.8939C27.3053 27.8103 27.3207 22.42 27.3207 22.42C27.3235 22.3906 27.3067 17.0339 26.223 15.9433ZM11.6497 19.1044H10.111V26.886H8.62552V19.1044H7.07844V17.7827H11.6497V19.1044ZM14.685 26.886H16.0025L16.0011 20.1698H14.6822V25.2703L14.6808 25.2731C14.5646 25.4089 14.4302 25.5265 14.272 25.6287L14.2734 25.6273C14.1684 25.7071 14.0424 25.7603 13.901 25.7729H13.9024C13.8926 25.7743 13.8842 25.7743 13.8744 25.7743C13.7778 25.7743 13.6924 25.7323 13.6322 25.6651L13.6336 25.6679C13.579 25.5797 13.5482 25.4775 13.5482 25.3669C13.5482 25.3515 13.5482 25.3361 13.5496 25.3221V20.1698H12.2377V25.7827C12.2377 26.1845 12.3119 26.48 12.4659 26.6816L12.4673 26.683C12.6157 26.8664 12.8425 26.984 13.096 26.984C13.1156 26.984 13.1352 26.984 13.152 26.9826H13.1534C13.4362 26.9784 13.6994 26.8986 13.9192 26.7684L13.9332 26.7614C14.2174 26.6018 14.4708 26.396 14.685 26.1481V26.886ZM20.7922 25.4986C20.7922 25.9746 20.69 26.3372 20.4799 26.5921C20.2699 26.8469 19.9745 26.9687 19.5825 26.9687H19.5503C19.3137 26.9687 19.0883 26.9155 18.8881 26.8189L18.8979 26.8231C18.6738 26.7097 18.4848 26.5557 18.3364 26.3694L18.3336 26.3666V26.8819H16.9938V17.78H18.3322V20.7117C18.489 20.5241 18.6766 20.3687 18.8867 20.2483L18.8965 20.2427C19.0729 20.1447 19.2815 20.0859 19.5055 20.0831H19.5069C19.5265 20.0817 19.5489 20.0817 19.5713 20.0817C19.9311 20.0817 20.2531 20.2483 20.4617 20.5087L20.4631 20.5115C20.6853 20.7981 20.7959 21.2172 20.795 21.7688V25.5L20.7922 25.4986ZM22.8489 23.691H25.3732L25.3746 23.6882V21.9746C25.3746 21.3361 25.2136 20.8531 24.8874 20.5101C24.5626 20.1703 24.0982 20.0005 23.4943 20.0005H23.4985C23.4719 19.9991 23.4453 19.9991 23.4187 19.9991C22.8867 19.9991 22.4036 20.2091 22.0494 20.5507C21.6994 20.8965 21.4838 21.3781 21.4838 21.9088C21.4838 21.9326 21.4838 21.955 21.4852 21.9746V24.9889C21.4852 25.64 21.6574 26.1468 21.9948 26.5136C22.3355 26.8832 22.8013 27.068 23.3921 27.068C24.0511 27.0746 24.5462 26.9014 24.8776 26.5486C25.2089 26.1958 25.3746 25.6764 25.3746 24.9903V24.6473H24.0151V24.9553C24.0151 25.3515 23.9703 25.6091 23.8821 25.7226C23.7939 25.836 23.6399 25.8948 23.4243 25.8948H23.4271C23.4103 25.8962 23.3921 25.8976 23.3739 25.8976C23.2101 25.8976 23.0659 25.8178 22.9763 25.6918C22.8913 25.5545 22.8489 25.3086 22.8489 24.9539V23.691Z" fill="black"/>
</svg>
