<svg width="32" height="32" viewBox="0 0 32 32" fill="none" xmlns="http://www.w3.org/2000/svg">
<path fill-rule="evenodd" clip-rule="evenodd" d="M12.5073 6.44194C12.0922 5.6117 11.0418 5.26156 10.2115 5.67669C9.08577 6.23957 8.04137 6.99618 7.07951 7.86129C5.79446 9.0561 4.85946 10.631 4.29153 12.3218C3.7104 14.6557 3.42324 16.9769 3.51968 19.3879C3.52008 19.3979 3.52028 19.4079 3.52028 19.4179V24.9227C3.52028 25.7092 4.08499 26.2739 4.87146 26.2739H11.177C11.9404 26.2739 12.5282 25.6325 12.5282 24.9227V18.5171C12.5282 17.7306 11.9634 17.1659 11.177 17.1659H8.17435C7.75977 17.1659 7.42369 16.8298 7.42369 16.4153C7.42369 14.4696 7.96574 12.6225 9.05108 10.9945C9.06122 10.9793 9.07191 10.9644 9.08313 10.95C9.83723 9.98046 10.7106 9.21126 11.7057 8.65701C12.6233 8.11846 12.8989 7.2251 12.5073 6.44194ZM9.54013 4.33387C11.112 3.54794 13.0642 4.19868 13.8501 5.77054C14.6587 7.38772 13.9355 9.09438 12.456 9.95744L12.4423 9.96523C11.646 10.4077 10.9261 11.0312 10.2851 11.8501C9.5177 13.0092 9.07476 14.2966 8.95699 15.6646H11.177C12.7926 15.6646 14.0295 16.9015 14.0295 18.5171V24.9227C14.0295 26.4148 12.8156 27.7752 11.177 27.7752H4.87146C3.25584 27.7752 2.01897 26.5383 2.01897 24.9227V19.4328C1.91743 16.8545 2.22808 14.3854 2.84208 11.9294C2.84674 11.9108 2.85211 11.8923 2.85819 11.8741C3.4916 9.97389 4.55381 8.15783 6.06216 6.75721L6.07073 6.74926L6.07079 6.74933C7.10946 5.81452 8.26552 4.97118 9.54013 4.33387ZM28.3211 6.54203C27.906 5.71179 26.8556 5.36165 26.0254 5.77677C24.8979 6.34052 23.852 7.09857 22.8889 7.96534L22.8753 7.97732C21.6088 9.06286 20.6753 10.6249 20.1054 12.3217C19.5242 14.6556 19.2371 16.9769 19.3335 19.3879C19.3339 19.3979 19.3341 19.4079 19.3341 19.4179V24.9227C19.3341 25.7092 19.8988 26.2739 20.6853 26.2739H27.0909C27.8774 26.2739 28.4421 25.6091 28.4421 25.0228V18.6172C28.4421 17.8307 27.8774 17.266 27.0909 17.266H24.0883C23.6899 17.266 23.3609 16.9548 23.3388 16.557C23.2291 14.5828 23.7799 12.7221 24.8649 11.0946C24.875 11.0794 24.8857 11.0645 24.897 11.0501C25.6511 10.0805 26.5245 9.31134 27.5196 8.75708C28.4372 8.21853 28.7127 7.32518 28.3211 6.54203ZM25.354 4.43396C26.9258 3.64803 28.878 4.29877 29.664 5.87062C30.4725 7.4878 29.7494 9.19446 28.2698 10.0575L28.2561 10.0653C27.4598 10.5077 26.7399 11.1313 26.0989 11.9502C25.3257 13.1181 24.8885 14.406 24.8325 15.7647H27.0909C28.7065 15.7647 29.9434 17.0016 29.9434 18.6172V25.0228C29.9434 26.4382 28.7065 27.7752 27.0909 27.7752H20.6853C19.0697 27.7752 17.8328 26.5383 17.8328 24.9227V19.4328C17.7313 16.8545 18.0419 14.3854 18.6559 11.9294C18.6606 11.9108 18.6659 11.8923 18.672 11.8741C19.303 9.98119 20.3658 8.15378 21.8913 6.84342C22.9282 5.911 24.0821 5.0699 25.354 4.43396Z" fill="black"/>
</svg>
