<svg width="32" height="32" viewBox="0 0 32 32" fill="none" xmlns="http://www.w3.org/2000/svg">
<path d="M16 2C8.3 2 2 8.3 2 16C2 23.7 8.3 30 16 30C23.7 30 30 23.7 30 16C30 8.3 23.7 2 16 2ZM16 28.5C9.1 28.5 3.5 22.9 3.5 16C3.5 9.1 9.1 3.5 16 3.5C22.9 3.5 28.5 9.1 28.5 16C28.5 22.9 22.9 28.5 16 28.5Z" fill="black"/>
<path d="M23.5 8.5C21.5 6.5 18.9 5.4 16 5.4C10.1 5.3 5.3 10.1 5.3 16C5.3 18.9 6.5 21.6 8.4 23.5C10.3 25.4 13 26.6 15.9 26.6C21.8 26.6 26.6 21.8 26.6 15.9C26.7 13.1 25.5 10.4 23.5 8.5ZM16 6.8C18.3 6.8 20.3 7.6 21.9 9L20.1 10.8C19.4 10.3 18.6 10 17.7 10H13.5C13.1 10 12.7 10.3 12.7 10.8V18.2L9 21.9C7.6 20.3 6.8 18.2 6.8 16C6.8 11 11 6.8 16 6.8ZM19.7 13.4C19.7 14.5 18.8 15.4 17.7 15.4H17.6L19.7 13.3C19.7 13.4 19.7 13.4 19.7 13.4ZM14.3 15.4V11.4H17.7C18.2 11.4 18.6 11.6 19 11.9L15.5 15.4H14.3ZM16 25.2C13.7 25.2 11.7 24.4 10.1 23L12.8 20.3V21.3C12.8 21.7 13.1 22.1 13.6 22.1C14.1 22.1 14.4 21.8 14.4 21.3V18.8L16.2 17H17.8C19.7 17 21.3 15.4 21.3 13.5C21.3 13 21.2 12.6 21 12.2L23 10.2C24.4 11.8 25.2 13.9 25.2 16.1C25.2 21 21 25.2 16 25.2Z" fill="black"/>
</svg>
