<svg width="32" height="32" viewBox="0 0 32 32" fill="none" xmlns="http://www.w3.org/2000/svg">
<path fill-rule="evenodd" clip-rule="evenodd" d="M19.494 5.32801C19.3865 3.48318 17.8468 2 15.9656 2C14.0148 2 12.4312 3.59508 12.4312 5.53443H10.2968L10.1347 5.54217C9.28208 5.62413 8.62135 6.34648 8.62135 7.22131V8.3918H7.00331L6.83798 8.39852C5.80181 8.483 4.98364 9.35459 4.98364 10.423V27.9803L4.99035 28.1457C5.07481 29.1818 5.94586 30 7.00331 30H24.9968L25.1621 29.9933C26.1983 29.9088 27.0164 29.0378 27.0164 27.9803V10.423L27.0097 10.256C26.9253 9.20997 26.0542 8.3918 24.9968 8.3918H23.3902V7.22131L23.3825 7.05919C23.3005 6.20532 22.5781 5.53443 21.7033 5.53443H19.5L19.494 5.32801ZM7.00332 10.159H24.9968C25.1459 10.159 25.2607 10.2738 25.2607 10.4229V27.9803L25.2515 28.0477C25.2215 28.1566 25.1211 28.2442 24.9968 28.2442H7.00332L6.93595 28.2343C6.82704 28.2019 6.73938 28.0951 6.73938 27.9803V10.4229L6.74937 10.3516C6.78178 10.2387 6.88856 10.159 7.00332 10.159ZM20.7932 16.8266C21.1294 16.4904 21.6745 16.4904 22.0107 16.8266C22.347 17.1628 22.347 17.7079 22.0107 18.0441L13.8288 26.2249L10.1211 22.5184C9.78484 22.1822 9.78484 21.6382 10.1211 21.302C10.4573 20.9658 11.0024 20.9658 11.3386 21.302L13.8288 23.791L20.7932 16.8266ZM17.4758 16.7576C17.4758 16.2826 17.0902 15.897 16.6151 15.897H10.602C10.1269 15.897 9.74135 16.2826 9.74135 16.7576C9.74135 17.2327 10.1269 17.6183 10.602 17.6183H16.6151C17.0902 17.6183 17.4758 17.2327 17.4758 16.7576ZM21.4017 12.1686C21.8768 12.1686 22.2624 12.5542 22.2624 13.0293C22.2624 13.5043 21.8768 13.8899 21.4017 13.8899H10.6022C10.1272 13.8899 9.74158 13.5043 9.74158 13.0293C9.74158 12.5542 10.1272 12.1686 10.6022 12.1686H21.4017ZM14.1525 5.53443C14.1525 4.53607 14.9672 3.72131 15.9656 3.72131C16.964 3.72131 17.7787 4.53607 17.7787 5.53443C17.7787 6.54426 16.964 7.35902 15.9656 7.35902C14.9672 7.35902 14.1525 6.54426 14.1525 5.53443Z" fill="black"/>
</svg>
