<svg width="32" height="32" viewBox="0 0 32 32" fill="none" xmlns="http://www.w3.org/2000/svg">
<path fill-rule="evenodd" clip-rule="evenodd" d="M2 15.5716C2 7.77661 8.11379 2.00228 16.0011 2.00228L15.9989 2C23.8862 2 30 7.78346 30 15.5785C30 23.3735 23.8862 29.1455 15.9989 29.1455H15.9554C14.5293 29.1455 13.1488 28.9491 11.9466 28.6089L11.9535 28.6112C11.8575 28.5838 11.7569 28.5701 11.6518 28.5701C11.4872 28.5701 11.3318 28.6044 11.1992 28.666L8.42005 29.8898L8.4269 29.8875C8.28749 29.9515 8.13207 29.9857 7.9698 29.9857C7.36185 29.9857 6.86817 29.504 6.84989 28.9012L6.77447 26.4125V26.4102C6.76304 26.0928 6.62134 25.8074 6.39736 25.6087C3.67301 23.1748 2 19.6495 2 15.5716ZM20.2954 18.9531L24.4093 12.4527L24.4116 12.455V12.4459L24.4093 12.4482C24.471 12.3477 24.5076 12.229 24.5076 12.1011C24.5076 11.7335 24.2105 11.4367 23.8425 11.4367C23.694 11.4367 23.5568 11.4846 23.4494 11.5645L19.0246 14.9141L19.0269 14.9118C18.8852 15.0191 18.7115 15.0807 18.5218 15.0807C18.3321 15.0807 18.1584 15.0191 18.019 14.9141L14.7507 12.4619L14.7553 12.4664C14.4033 12.2016 13.9668 12.044 13.4914 12.044C12.7463 12.044 12.0926 12.4322 11.7132 13.0235L7.59699 19.5376L7.59927 19.5353C7.53071 19.6381 7.49185 19.7637 7.49185 19.8961C7.49185 20.2614 7.78897 20.5582 8.15466 20.5582C8.30779 20.5582 8.4472 20.5057 8.55919 20.419L12.984 17.0717L12.9817 17.074C13.1234 16.9667 13.2971 16.9051 13.4868 16.9051C13.6765 16.9051 13.8502 16.9667 13.9896 17.0717L17.2602 19.5148L17.2556 19.5102C17.6076 19.7751 18.0441 19.9326 18.5195 19.9326C19.2646 19.9326 19.9183 19.5468 20.2954 18.9531Z" fill="black"/>
</svg>
