<svg width="32" height="32" viewBox="0 0 32 32" fill="none" xmlns="http://www.w3.org/2000/svg">
<path fill-rule="evenodd" clip-rule="evenodd" d="M28.6677 4.35835C30.0556 5.79426 30.3747 8.82213 29.5516 12.2703C28.6457 16.0656 26.485 19.9725 23.2536 23.2593C19.9756 26.4844 16.0685 28.6453 12.2712 29.5514C8.82298 30.3744 5.79369 30.0561 4.35724 28.6698L2.55239 26.8595C1.81746 26.1286 1.81581 24.9367 2.5478 24.1953C2.58144 24.1617 2.58144 24.1617 2.73278 24.0106C2.93457 23.809 2.93457 23.809 3.22049 23.5236C3.7251 23.0196 4.2299 22.5158 4.70132 22.0456C5.43206 21.3165 6.01083 20.7399 6.38758 20.3656C7.75833 19.0015 10.0653 19.1224 11.5308 20.5911L12.4398 21.4992C13.4176 22.4813 15.9948 21.5828 18.7891 18.7878C21.5877 15.9844 22.4792 13.4224 21.4949 12.4287L20.5957 11.5295C19.1229 10.0599 19.0008 7.75 20.3673 6.38691C20.743 6.01026 21.3208 5.43198 22.0463 4.70642C22.5202 4.23249 23.0251 3.72767 23.53 3.22296C23.8161 2.93696 23.8161 2.93696 24.0181 2.73509C24.1696 2.5837 24.1696 2.5837 24.2007 2.55258C24.929 1.81626 26.1337 1.81626 26.8565 2.54988L28.6677 4.35835ZM25.9939 3.40678C25.7436 3.1527 25.3173 3.15269 25.0627 3.4101C25.0291 3.44372 25.0291 3.44372 24.8776 3.59509C24.6757 3.79691 24.6757 3.79691 24.3896 4.08287C23.8848 4.58751 23.3799 5.09226 22.9087 5.5635C22.181 6.29136 21.6034 6.86938 21.2271 7.24666C20.3573 8.11428 20.4387 9.65519 21.455 10.6692L22.3567 11.571C23.9816 13.2114 22.8619 16.4289 19.6493 19.6471C16.4383 22.8589 13.2014 23.9875 11.5793 22.3582L10.6708 21.4506C9.6601 20.4377 8.11992 20.3571 7.24493 21.2277C6.86857 21.6016 6.29026 22.1779 5.56467 22.9017C5.0888 23.3764 4.58413 23.8802 4.07966 24.3839C3.7938 24.6693 3.7938 24.6693 3.59205 24.8708C3.44076 25.022 3.44076 25.022 3.41011 25.0526C3.15044 25.3156 3.15103 25.74 3.41165 25.9992L5.20994 27.803C6.27325 28.8291 8.9024 29.1054 11.9889 28.3689C15.5711 27.514 19.2809 25.4623 22.3937 22.3998C25.4627 19.2781 27.5143 15.5683 28.3689 11.988C29.1048 8.90529 28.8294 6.28042 27.8045 5.21466L25.9939 3.40678Z" fill="black"/>
<path fill-rule="evenodd" clip-rule="evenodd" d="M29.0506 29.8494L4.76277 6.84548C4.53722 6.63185 4.52719 6.27594 4.74036 6.04995C4.95297 5.82456 5.30804 5.81419 5.53343 6.0268C5.53371 6.02706 5.53399 6.02733 5.53427 6.02759L29.8221 29.0324C30.0474 29.2459 30.0574 29.6015 29.8442 29.8272C29.6315 30.0525 29.2764 30.0627 29.0512 29.8499C29.051 29.8497 29.0508 29.8495 29.0506 29.8494Z" fill="black"/>
</svg>
