<svg width="32" height="32" viewBox="0 0 32 32" fill="none" xmlns="http://www.w3.org/2000/svg">
<path fill-rule="evenodd" clip-rule="evenodd" d="M5.25 5.5C4.26421 5.5 3.5 6.26421 3.5 7.25V23.75C3.5 24.7358 4.26421 25.5 5.25 25.5H26.85C27.716 25.5 28.5 24.7558 28.5 23.75V7.25C28.5 6.26421 27.7358 5.5 26.75 5.5H5.25ZM2 7.25C2 5.43579 3.43579 4 5.25 4H26.75C28.5642 4 30 5.43579 30 7.25V23.75C30 25.5442 28.584 27 26.85 27H5.25C3.43579 27 2 25.5642 2 23.75V7.25Z" fill="black"/>
<path fill-rule="evenodd" clip-rule="evenodd" d="M11.3 12.9V22H25V12.9H11.3ZM10.1572 11.7572C10.4043 11.5101 10.7296 11.4 11.05 11.4H25.25C25.5704 11.4 25.8957 11.5101 26.1428 11.7572C26.3899 12.0043 26.5 12.3296 26.5 12.65V22.15C26.5 22.5382 26.3158 22.858 26.1356 23.0608C26.0399 23.1684 25.9235 23.2686 25.7904 23.3463C25.6651 23.4194 25.4772 23.5 25.25 23.5H11.05C10.7296 23.5 10.4043 23.3899 10.1572 23.1428C9.91009 22.8957 9.8 22.5704 9.8 22.25V12.65C9.8 12.3296 9.91009 12.0043 10.1572 11.7572Z" fill="black"/>
</svg>
