<svg width="32" height="32" viewBox="0 0 32 32" fill="none" xmlns="http://www.w3.org/2000/svg">
<path d="M27.7877 14.7488L5.11936 2.18472C4.90381 2.06247 4.66001 1.99879 4.4122 2.00002C4.1644 2.00125 3.92124 2.06734 3.70692 2.19173C3.49259 2.31611 3.31457 2.49445 3.19057 2.709C3.06657 2.92355 3.00091 3.16683 3.00012 3.41463V28.5806C3.00041 28.8261 3.06524 29.0672 3.18812 29.2798C3.311 29.4923 3.48761 29.6688 3.70023 29.7916C3.91733 29.9232 4.16541 29.9951 4.41926 29.9997C4.65994 30.0047 4.89679 29.9389 5.10044 29.8105L24.5142 19.1386L27.8444 17.2465C28.0628 17.116 28.2427 16.9299 28.3657 16.7071C28.4887 16.4844 28.5504 16.2331 28.5445 15.9787C28.5463 15.7234 28.4763 15.4727 28.3425 15.2552C28.2086 15.0377 28.0164 14.8623 27.7877 14.7488Z" fill="black"/>
</svg>
