<svg width="32" height="32" viewBox="0 0 32 32" fill="none" xmlns="http://www.w3.org/2000/svg">
<path fill-rule="evenodd" clip-rule="evenodd" d="M29.9978 15.7557C30.1328 23.4865 23.9768 29.8629 16.2443 29.9978C8.51355 30.1328 2.13715 23.9768 2.00218 16.2443C1.86724 8.51355 8.02318 2.13715 15.7557 2.00218C23.4865 1.86724 29.8629 8.02318 29.9978 15.7557ZM15.7836 3.60162C8.93506 3.72116 3.48208 9.36836 3.60162 16.2164C3.72116 23.0649 9.36836 28.5179 16.2164 28.3984C23.0649 28.2788 28.5179 22.6316 28.3984 15.7836C28.2788 8.93507 22.6316 3.48208 15.7836 3.60162ZM16.0233 8.12668C16.4686 8.12668 16.8297 8.4877 16.8297 8.93305L16.8284 15.0736L24.0892 15.0743C24.49 15.0743 24.8225 15.3667 24.885 15.7498L24.8955 15.8806C24.8955 16.326 24.5345 16.687 24.0892 16.687L16.8284 16.6869L16.8297 23.1374C16.8297 23.5382 16.5372 23.8707 16.1541 23.9332L16.0233 23.9438C15.578 23.9438 15.2169 23.5828 15.2169 23.1374L15.2164 16.6869L8.23664 16.687C7.83583 16.687 7.50332 16.3946 7.44082 16.0114L7.43027 15.8806C7.43027 15.4353 7.79129 15.0743 8.23664 15.0743L15.2164 15.0736L15.2169 8.93305C15.2169 8.53224 15.5094 8.19973 15.8925 8.13723L16.0233 8.12668Z" fill="black"/>
</svg>
