<svg width="32" height="32" viewBox="0 0 32 32" fill="none" xmlns="http://www.w3.org/2000/svg">
<path fill-rule="evenodd" clip-rule="evenodd" d="M7.75 3.5C5.36421 3.5 3.5 5.36421 3.5 7.75V24.15C3.5 26.5358 5.36421 28.4 7.75 28.4H24.15C26.5356 28.4 28.408 26.5328 28.5 24.2355V7.75C28.5 5.36421 26.6358 3.5 24.25 3.5H7.75ZM2 7.75C2 4.53579 4.53579 2 7.75 2H24.25C27.4642 2 30 4.53579 30 7.75V24.25C30 24.2593 29.9998 24.2685 29.9995 24.2778C29.8848 27.3745 27.3598 29.9 24.15 29.9H7.75C4.53579 29.9 2 27.3642 2 24.15V7.75ZM19.2944 7.48965C19.6591 7.29327 20.114 7.42972 20.3104 7.79443L24.5104 15.5944C24.6299 15.8164 24.6299 16.0836 24.5104 16.3056L20.3104 24.1056C20.114 24.4703 19.6591 24.6067 19.2944 24.4104C18.9297 24.214 18.7933 23.7591 18.9896 23.3944L22.9982 15.95L18.9896 8.50557C18.7933 8.14087 18.9297 7.68602 19.2944 7.48965ZM15.9879 7.49319C16.3507 7.29322 16.8068 7.42517 17.0068 7.78791L21.3068 15.5879C21.4311 15.8133 21.4311 16.0867 21.3068 16.3121L17.0068 24.1121C16.8068 24.4748 16.3507 24.6068 15.9879 24.4068C15.6252 24.2068 15.4932 23.7507 15.6932 23.3879L19.7936 15.95L15.6932 8.51208C15.4932 8.14934 15.6252 7.69317 15.9879 7.49319ZM13.15 7.4C13.4259 7.4 13.6795 7.55149 13.8104 7.79442L18.0104 15.5944C18.1299 15.8164 18.1299 16.0836 18.0104 16.3056L13.8104 24.1056C13.6795 24.3485 13.4259 24.5 13.15 24.5C12.8741 24.5 12.6205 24.3485 12.4896 24.1056L8.28965 16.3056C8.17012 16.0836 8.17012 15.8164 8.28965 15.5944L12.4896 7.79442C12.6205 7.55149 12.8741 7.4 13.15 7.4ZM9.80182 15.95L13.15 22.1681L16.4982 15.95L13.15 9.73195L9.80182 15.95Z" fill="black"/>
</svg>
