<svg width="32" height="32" viewBox="0 0 32 32" fill="none" xmlns="http://www.w3.org/2000/svg">
<path d="M20.7523 11.1186C21.2565 11.1186 21.6656 11.5278 21.6656 12.0319V28.4944C21.6656 28.9985 21.2565 29.4077 20.7523 29.4077C20.2482 29.4077 19.839 28.9985 19.839 28.4944V12.0319C19.839 11.5278 20.2482 11.1186 20.7523 11.1186ZM24.9199 11.1186C25.424 11.1186 25.8332 11.5278 25.8332 12.0319V28.4944C25.8332 28.9985 25.424 29.4077 24.9199 29.4077C24.4157 29.4077 24.0066 28.9985 24.0066 28.4944V12.0319C24.0066 11.5278 24.4157 11.1186 24.9199 11.1186ZM29.0867 11.1186C29.5908 11.1186 30 11.5278 30 12.0319V28.4944C30 28.9985 29.5908 29.4077 29.0867 29.4077C28.5826 29.4077 28.1734 28.9985 28.1734 28.4944V12.0319C28.1734 11.5278 28.5826 11.1186 29.0867 11.1186ZM16.5854 2C17.0895 2 17.4987 2.40916 17.4987 2.9133V19.3758C17.4987 19.8799 17.0895 20.2891 16.5854 20.2891C16.0812 20.2891 15.6721 19.8799 15.6721 19.3758V2.9133C15.6721 2.40916 16.0812 2 16.5854 2ZM7.47979 6.83159L13.6866 11.1387L7.47979 15.4568V12.4478H2V9.82599H7.47979V6.83159Z" fill="black"/>
</svg>
