<svg width="32" height="32" viewBox="0 0 32 32" fill="none" xmlns="http://www.w3.org/2000/svg">
<path d="M16 22.5233C19.6027 22.5233 22.5233 19.6027 22.5233 16C22.5233 12.3973 19.6027 9.4767 16 9.4767C12.3973 9.4767 9.4767 12.3973 9.4767 16C9.4767 19.6027 12.3973 22.5233 16 22.5233Z" fill="black"/>
<path fill-rule="evenodd" clip-rule="evenodd" d="M16 3.50538C9.09941 3.50538 3.50538 9.09941 3.50538 16C3.50538 22.9006 9.09941 28.4946 16 28.4946C22.9006 28.4946 28.4946 22.9006 28.4946 16C28.4946 9.09941 22.9006 3.50538 16 3.50538ZM2 16C2 8.26801 8.26801 2 16 2C23.732 2 30 8.26801 30 16C30 23.732 23.732 30 16 30C8.26801 30 2 23.732 2 16Z" fill="black"/>
</svg>
