<svg width="32" height="32" viewBox="0 0 32 32" fill="none" xmlns="http://www.w3.org/2000/svg">
<path fill-rule="evenodd" clip-rule="evenodd" d="M15.6467 14.1785L15.648 14.18L15.6466 14.1786L15.6467 14.1785ZM17.2876 9.2702H15.6606C10.6514 9.2702 6.5914 13.3316 6.5914 18.3394C6.5914 23.3472 10.6528 27.4086 15.6606 27.4086C20.6698 27.4086 24.7298 23.3472 24.7298 18.3394H27.3212C27.3212 24.7794 22.1006 30 15.6606 30C9.2206 30 4 24.7794 4 18.3394C4 11.8994 9.2206 6.6788 15.6606 6.6788H17.0794L14.4552 3.7234L16.3984 2L22.1118 8.4652L15.6467 14.1785L13.9372 12.2368L17.2876 9.2702Z" fill="black"/>
</svg>
