<svg width="32" height="32" viewBox="0 0 32 32" fill="none" xmlns="http://www.w3.org/2000/svg">
<path d="M26.4543 27.6923L26.2671 26.8204C25.6128 23.1041 23.6761 19.9232 20.936 17.6759L20.9098 17.6557C17.9934 15.6003 14.3606 14.3706 10.4406 14.3706C9.7887 14.3706 9.14511 14.405 8.51105 14.4713L8.58971 14.4642L13.1998 19.6034L10.5491 21.9786L2 12.4977L11.5383 4L13.928 6.65367L9.16775 10.8841C9.62185 10.8498 10.1522 10.8308 10.6862 10.8308C15.3916 10.8308 19.7394 12.3472 23.2649 14.9156L23.2053 14.8741C26.7796 17.6723 29.2611 21.7121 29.9869 26.3311L30 26.433V27.3239L26.4543 27.6923Z" fill="black"/>
</svg>
