<svg width="32" height="32" viewBox="0 0 32 32" fill="none" xmlns="http://www.w3.org/2000/svg">
<path fill-rule="evenodd" clip-rule="evenodd" d="M29.7795 2.22046C30.0735 2.5144 30.0735 2.99098 29.7795 3.28492L13.8028 19.2616H20.3154C20.7311 19.2616 21.0681 19.5986 21.0681 20.0143C21.0681 20.43 20.7311 20.767 20.3154 20.767H11.9857C11.57 20.767 11.233 20.43 11.233 20.0143V11.6846C11.233 11.2689 11.57 10.9319 11.9857 10.9319C12.4014 10.9319 12.7383 11.2689 12.7383 11.6846V18.1972L28.7151 2.22046C29.009 1.92651 29.4856 1.92651 29.7795 2.22046ZM5.76344 6.51613C4.47305 6.51613 3.50538 7.4838 3.50538 8.77419V26.2366C3.50538 27.527 4.47305 28.4946 5.76344 28.4946H23.2258C24.5162 28.4946 25.4839 27.527 25.4839 26.2366V18.0072C25.4839 17.5915 25.8209 17.2545 26.2366 17.2545C26.6523 17.2545 26.9892 17.5915 26.9892 18.0072V26.2366C26.9892 28.3584 25.3476 30 23.2258 30H5.76344C3.64165 30 2 28.3584 2 26.2366V8.77419C2 6.6524 3.64165 5.01075 5.76344 5.01075H13.9928C14.4085 5.01075 14.7455 5.34774 14.7455 5.76344C14.7455 6.17914 14.4085 6.51613 13.9928 6.51613H5.76344Z" fill="black"/>
</svg>
