<svg width="32" height="32" viewBox="0 0 32 32" fill="none" xmlns="http://www.w3.org/2000/svg">
<path fill-rule="evenodd" clip-rule="evenodd" d="M13.5082 2C19.7855 2 25.0165 7.32772 25.0165 13.721C25.0165 16.5547 23.9888 19.1792 22.2978 21.2231L29.7058 29.0416C30.0981 29.4412 30.0981 30.1071 29.7058 30.5067C29.4616 30.7553 29.1036 30.7719 28.9506 30.773L28.9211 30.7731C28.6596 30.7731 28.2672 30.7731 28.1364 30.5067L20.7853 22.7485C18.7916 24.4258 16.2497 25.442 13.5082 25.442C7.23102 25.442 2 20.1143 2 13.721C2 7.32772 7.23102 2 13.5082 2ZM13.5082 4.13109C8.27722 4.13109 4.09241 8.39327 4.09241 13.721C4.09241 19.0487 8.27722 23.3109 13.5082 23.3109C18.7393 23.3109 22.9241 19.0487 22.9241 13.721C22.9241 8.39327 18.7393 4.13109 13.5082 4.13109Z" fill="black"/>
</svg>
