<svg width="32" height="32" viewBox="0 0 32 32" fill="none" xmlns="http://www.w3.org/2000/svg">
<path d="M10.0006 28.0806C10.1802 28.6431 10.5356 29.1331 11.0144 29.4787C11.4931 29.8243 12.0701 30.0072 12.6606 30.0006H12.7906C13.4038 29.9818 13.9933 29.7593 14.466 29.3682C14.9386 28.977 15.2675 28.4395 15.4006 27.8406L17.7906 17.8406L27.8406 15.4006C28.4352 15.2595 28.9677 14.9285 29.3572 14.4576C29.7468 13.9868 29.9722 13.4017 29.9993 12.7912C30.0265 12.1807 29.8538 11.5779 29.5076 11.0744C29.1613 10.5708 28.6604 10.1938 28.0806 10.0006L4.34058 2.09058C4.02722 1.9866 3.69113 1.97182 3.36986 2.0479C3.04859 2.12397 2.7548 2.2879 2.52135 2.52135C2.2879 2.7548 2.12397 3.04859 2.0479 3.36986C1.97182 3.69113 1.9866 4.02722 2.09058 4.34058L10.0006 28.0806ZM3.58058 3.58058C3.63554 3.53086 3.70649 3.50248 3.78058 3.50058C3.80996 3.49196 3.84119 3.49196 3.87058 3.50058L27.6006 11.4306C27.8739 11.5164 28.1113 11.6901 28.2758 11.9247C28.4402 12.1593 28.5226 12.4416 28.5101 12.7278C28.4975 13.0141 28.3908 13.2881 28.2064 13.5075C28.022 13.7268 27.7704 13.879 27.4906 13.9406L17.0006 16.4406C16.8648 16.4734 16.7407 16.5431 16.6419 16.6419C16.5431 16.7407 16.4734 16.8648 16.4406 17.0006L13.9406 27.4906C13.8801 27.7688 13.728 28.0186 13.5086 28.1999C13.2891 28.3812 13.0152 28.4836 12.7306 28.4906C12.4434 28.5134 12.1571 28.4362 11.9202 28.2722C11.6833 28.1082 11.5103 27.8674 11.4306 27.5906L3.52058 3.87058C3.5036 3.82131 3.50021 3.76837 3.51077 3.71734C3.52133 3.66631 3.54544 3.61906 3.58058 3.58058Z" fill="black"/>
</svg>
