<svg width="32" height="32" viewBox="0 0 32 32" fill="none" xmlns="http://www.w3.org/2000/svg">
<path fill-rule="evenodd" clip-rule="evenodd" d="M20.668 16.041C20.6809 13.5234 18.5259 11.3375 16.0218 11.3254C13.5267 11.3134 11.3422 13.4769 11.3329 15.9687C11.3235 18.4931 13.4685 20.6559 15.9889 20.6641C18.4806 20.6722 20.6552 18.5227 20.668 16.041ZM10.0601 15.964C10.072 12.7685 12.8296 10.0373 16.0279 10.0527C19.2364 10.0682 21.9574 12.8281 21.9408 16.0475C21.9244 19.2321 19.1776 21.9472 15.9848 21.9368C12.7608 21.9264 10.048 19.1911 10.0601 15.964ZM28.7869 13.0387C29.4253 13.1277 29.7834 13.4994 29.8714 14.1368C30.0428 15.3789 30.0429 16.621 29.8714 17.8605C29.7824 18.5024 29.3955 18.8857 28.7577 18.9697C28.5436 18.9979 28.3581 19.0226 27.9944 19.0712C27.0649 19.1956 26.6154 19.2545 26.1283 19.3141C25.9187 19.8476 25.7141 20.3431 25.5069 20.8164C25.8806 21.2951 26.2177 21.7336 26.8942 22.6177C26.9944 22.7486 26.9944 22.7486 27.0879 22.8708C27.5358 23.4559 27.5333 23.9777 27.0809 24.559C26.3419 25.5084 25.4977 26.3517 24.5492 27.0871C23.9905 27.5204 23.4468 27.5194 22.8825 27.0875C22.7805 27.0095 22.7805 27.0095 22.6785 26.9315C21.7598 26.2287 21.3168 25.888 20.824 25.5021C20.3314 25.7243 19.8275 25.9332 19.3144 26.1284C19.2716 26.477 19.2292 26.8057 19.1465 27.4364C19.0655 28.0547 19.0308 28.3226 18.9893 28.6569C18.896 29.4083 18.5153 29.7978 17.7645 29.8908C16.5931 30.0359 15.4192 30.0363 14.2436 29.8925C13.5048 29.8022 13.1151 29.4207 13.0213 28.6864C12.994 28.4723 12.9717 28.3003 12.9217 27.9151C12.8075 27.0367 12.7544 26.6187 12.698 26.1378C12.1905 25.9576 11.6821 25.7463 11.1757 25.5064C10.777 25.8224 10.4248 26.0941 9.68898 26.6568C9.41527 26.8661 9.2942 26.9588 9.14429 27.0739C8.55036 27.5303 8.01758 27.5327 7.43195 27.0752C6.48736 26.3372 5.65036 25.5006 4.92298 24.5648C4.47117 23.9836 4.46865 23.4587 4.91548 22.8764C5.02634 22.7319 5.11649 22.6143 5.31368 22.3569C5.89114 21.6029 6.18006 21.2273 6.49445 20.8241C6.29497 20.3685 6.09687 19.8883 5.86895 19.3131C5.39352 19.2554 4.9512 19.1975 4.07479 19.0803C3.66307 19.0252 3.47167 18.9997 3.24753 18.9703C2.60922 18.8866 2.21546 18.5064 2.12787 17.8646C1.95649 16.6081 1.95701 15.3568 2.13165 14.114C2.21874 13.494 2.58625 13.1264 3.20903 13.04C4.37174 12.8785 5.10594 12.7811 5.86068 12.6919C6.03198 12.2323 6.22506 11.7746 6.49539 11.1742C6.16492 10.7493 5.86098 10.3548 5.25501 9.56599C5.09524 9.35803 5.02475 9.26628 4.93653 9.15154C4.46445 8.53765 4.46221 8.02865 4.93426 7.4202C5.66644 6.47663 6.50551 5.63982 7.45036 4.91115C8.02782 4.46582 8.56428 4.47135 9.13967 4.91733C9.36631 5.09298 9.54963 5.23421 9.95767 5.54794C10.5561 6.00805 10.8588 6.24176 11.1786 6.49208C11.6577 6.28149 12.1579 6.07514 12.6908 5.86716C12.7281 5.57238 12.7667 5.27711 12.8389 4.73008C12.9287 4.05051 12.968 3.7478 13.0147 3.37143C13.1133 2.57711 13.4657 2.21698 14.2605 2.1121C15.4325 1.95736 16.6312 1.96448 17.8689 2.12315C18.5199 2.20658 18.9014 2.63612 18.9867 3.30737C19.0274 3.62764 19.0611 3.88567 19.1367 4.46082C19.2269 5.14667 19.273 5.50135 19.3189 5.86976C19.838 6.06956 20.3396 6.27748 20.8249 6.49486C21.26 6.15493 21.6534 5.85243 22.4569 5.23771C22.6753 5.07055 22.768 4.99962 22.8847 4.91019C23.463 4.46711 24.0017 4.47759 24.5734 4.92665C25.5381 5.68427 26.3796 6.52763 27.0963 7.46516C27.1736 7.56639 27.2279 7.66177 27.2963 7.80161C27.3459 7.90429 27.3653 7.94415 27.387 7.98466L27.5463 8.28297L27.3881 8.58189C27.3755 8.6058 27.3624 8.63193 27.3462 8.66531C27.3377 8.68288 27.3236 8.7123 27.2983 8.76493C27.2255 8.9156 27.1699 9.01488 27.0893 9.12153C26.5549 9.82867 26.029 10.5131 25.5079 11.1792C25.7521 11.7162 25.9582 12.2097 26.1359 12.6905C26.9436 12.788 27.7882 12.8995 28.7869 13.0387ZM8.36873 26.0648C8.51968 25.9488 8.64125 25.8557 8.91173 25.6489C9.69078 25.0531 10.0355 24.7869 10.4585 24.4508C10.8276 24.1576 11.2123 24.1124 11.6425 24.319C12.1554 24.5652 12.669 24.7792 13.1795 24.958C13.637 25.1183 13.8963 25.4247 13.9522 25.9042C14.0118 26.416 14.0637 26.8262 14.1838 27.75C14.2341 28.1372 14.2564 28.3099 14.2839 28.5252C14.3034 28.6777 14.2332 28.6091 14.3981 28.6292C15.4706 28.7604 16.54 28.76 17.608 28.6277C17.7739 28.6072 17.704 28.6787 17.7262 28.5001C17.7681 28.162 17.803 27.8922 17.8825 27.2864C17.9766 26.5684 18.0183 26.2437 18.0663 25.8481C18.1184 25.4177 18.3542 25.13 18.7602 24.9773C19.3268 24.7644 19.881 24.5343 20.4203 24.2875C20.81 24.1093 21.1668 24.1533 21.4991 24.4141C22.034 24.8339 22.4701 25.1696 23.439 25.9108C23.5539 25.9987 23.5539 25.9987 23.656 26.0768C23.7635 26.1591 23.6693 26.1589 23.7692 26.0814C24.6337 25.4111 25.4025 24.6431 26.0764 23.7773C26.1409 23.6944 26.1493 23.6763 26.1492 23.7109C26.149 23.7456 26.1409 23.7276 26.0771 23.6444C25.9835 23.522 25.9835 23.522 25.8899 23.3997C25.1463 22.428 24.8143 21.9965 24.3983 21.4649C24.1455 21.1418 24.1226 20.7995 24.2837 20.4358C24.5212 19.8996 24.755 19.3331 24.9974 18.7112C25.1418 18.3404 25.4066 18.1194 25.8122 18.0705C26.3618 18.0041 26.8023 17.9466 27.7935 17.814C28.1902 17.761 28.3763 17.7362 28.5915 17.7079C28.7661 16.5622 28.766 15.4374 28.6106 14.3108C27.5799 14.1555 26.7171 14.042 25.8906 13.9429C25.4385 13.8889 25.134 13.6602 24.9747 13.221C24.7896 12.711 24.5686 12.1828 24.2977 11.5935C24.12 11.207 24.1512 10.8468 24.4154 10.5099C24.9613 9.81353 25.5127 9.0966 26.0739 8.35413C26.0848 8.33969 26.0974 8.31909 26.1147 8.28615C25.4349 7.38762 24.6693 6.62032 23.7872 5.92755C23.708 5.86538 23.6879 5.85599 23.7161 5.85654C23.7476 5.85715 23.7336 5.86322 23.6589 5.92044C23.5419 6.01009 23.4489 6.08122 23.2392 6.24174C22.3639 6.91139 21.9773 7.20898 21.5003 7.58251C21.165 7.84521 20.804 7.88246 20.4158 7.70649C19.8757 7.46159 19.3131 7.22864 18.7261 7.0057C18.3521 6.86362 18.1271 6.60402 18.0771 6.19855C18.0235 5.76334 17.9784 5.41472 17.8751 4.62976C17.7988 4.04975 17.765 3.79046 17.724 3.46774C17.7083 3.34386 17.7502 3.39108 17.7071 3.38555C16.5753 3.24046 15.4866 3.23399 14.4271 3.37388C14.3739 3.3809 14.3314 3.38809 14.2987 3.39514C14.2918 3.42884 14.2847 3.47279 14.2779 3.52809C14.2306 3.90886 14.191 4.2138 14.1011 4.89437C14.0141 5.55311 13.9762 5.8446 13.9308 6.20838C13.8816 6.6036 13.6573 6.85774 13.2981 6.99666C12.6825 7.23461 12.1141 7.46881 11.575 7.70842C11.2006 7.87483 10.849 7.85137 10.5176 7.59114C10.1504 7.30278 9.85334 7.0732 9.18589 6.56002C8.77246 6.24215 8.58828 6.10025 8.35989 5.92325C8.28015 5.86145 8.26047 5.85243 8.28905 5.85273C8.31984 5.85304 8.30421 5.85995 8.22771 5.91895C7.36835 6.5817 6.60597 7.34201 5.93993 8.20036C5.91012 8.23878 5.89048 8.26547 5.87763 8.28129C5.89424 8.30675 5.91666 8.33816 5.94559 8.37578C6.03399 8.49075 6.1046 8.58264 6.26345 8.78941C6.93592 9.66475 7.23515 10.0529 7.6109 10.5351C7.85271 10.8452 7.88687 11.1873 7.72446 11.5452C7.41434 12.2289 7.20856 12.714 7.02948 13.2009C6.86726 13.642 6.57251 13.8899 6.10331 13.9449C5.32725 14.0357 4.58975 14.1332 3.3909 14.2997C3.23384 15.4232 3.23376 16.5542 3.38903 17.6925C3.63864 17.738 3.83079 17.7636 4.21727 17.8153C5.21847 17.9492 5.65168 18.0056 6.19203 18.0701C6.60885 18.1199 6.85672 18.3485 7.0013 18.7153C7.26815 19.392 7.49042 19.9308 7.71688 20.4417C7.87792 20.805 7.85803 21.1464 7.60441 21.4707C7.24758 21.9271 6.9634 22.2962 6.32886 23.1246C6.12676 23.3885 6.03644 23.5064 5.92528 23.6512C5.86296 23.7324 5.85523 23.7495 5.85507 23.7154C5.85491 23.6822 5.8636 23.701 5.92795 23.7838C6.59061 24.6363 7.35319 25.3985 8.21562 26.0723C8.24817 26.0978 8.27058 26.1144 8.28376 26.1252C8.30667 26.1106 8.33498 26.0907 8.36873 26.0648Z" fill="black"/>
</svg>
