<svg width="32" height="32" viewBox="0 0 32 32" fill="none" xmlns="http://www.w3.org/2000/svg">
<path d="M16 30C18.7689 30 21.4757 29.1789 23.778 27.6406C26.0803 26.1022 27.8747 23.9157 28.9343 21.3576C29.9939 18.7994 30.2712 15.9845 29.731 13.2687C29.1908 10.553 27.8574 8.05845 25.8995 6.10051C23.9416 4.14258 21.447 2.80921 18.7313 2.26901C16.0155 1.72882 13.2006 2.00607 10.6424 3.06569C8.08427 4.12532 5.89777 5.91973 4.35943 8.22202C2.82109 10.5243 2 13.2311 2 16C2 19.713 3.475 23.274 6.1005 25.8995C8.72601 28.525 12.287 30 16 30ZM16 3.50001C18.4723 3.50001 20.889 4.23312 22.9446 5.60664C25.0002 6.98015 26.6024 8.93239 27.5485 11.2165C28.4946 13.5005 28.7421 16.0139 28.2598 18.4386C27.7775 20.8634 26.587 23.0907 24.8388 24.8388C23.0907 26.587 20.8634 27.7775 18.4386 28.2598C16.0139 28.7421 13.5005 28.4946 11.2165 27.5485C8.93238 26.6024 6.98015 25.0002 5.60663 22.9446C4.23311 20.889 3.5 18.4723 3.5 16C3.50529 12.6864 4.82395 9.51007 7.16701 7.16701C9.51007 4.82395 12.6864 3.5053 16 3.50001Z" fill="black"/>
</svg>
