<svg width="32" height="32" viewBox="0 0 32 32" fill="none" xmlns="http://www.w3.org/2000/svg">
<path fill-rule="evenodd" clip-rule="evenodd" d="M23.25 5.56174C24.8584 5.56174 26.2194 6.93849 26.2194 8.56557C26.2194 10.1926 24.8584 11.5694 23.25 11.5694C22.2622 11.5694 21.3677 11.0502 20.8245 10.2726L9.83256 14.9389C9.9801 15.2914 10.0621 15.6757 10.0621 16.0751C10.0621 16.3638 10.0193 16.6447 9.93978 16.9113L20.8698 21.3276C21.2681 20.1394 22.398 19.2557 23.6867 19.2557C25.2951 19.2557 26.6561 20.6324 26.6561 22.2595C26.6561 23.8866 25.2951 25.2633 23.6867 25.2633C22.2577 25.2633 21.024 24.1766 20.7665 22.7932L9.23255 18.1333C8.68731 18.7121 7.92295 19.079 7.09265 19.079C5.4842 19.079 4.1232 17.7022 4.1232 16.0751C4.1232 14.4481 5.4842 13.0713 7.09265 13.0713C7.81909 13.0713 8.49506 13.3521 9.01797 13.81C9.06192 13.7625 9.11823 13.7239 9.18598 13.6951L20.3092 8.97349C20.2903 8.83978 20.2805 8.70357 20.2805 8.56557C20.2805 6.93849 21.6415 5.56174 23.25 5.56174ZM23.6867 20.8459C22.8133 20.8459 22.2893 21.376 22.2893 22.2595C22.2893 23.143 22.8133 23.673 23.6867 23.673C24.56 23.673 25.084 23.143 25.084 22.2595C25.084 21.376 24.56 20.8459 23.6867 20.8459ZM7.09265 14.6616C6.21928 14.6616 5.69526 15.1917 5.69526 16.0751C5.69526 16.9586 6.21928 17.4887 7.09265 17.4887C7.96602 17.4887 8.49004 16.9586 8.49004 16.0751C8.49004 15.1917 7.96602 14.6616 7.09265 14.6616ZM23.25 7.152C22.3766 7.152 21.8526 7.68209 21.8526 8.56557C21.8526 9.44904 22.3766 9.97913 23.25 9.97913C24.1233 9.97913 24.6474 9.44904 24.6474 8.56557C24.6474 7.68209 24.1233 7.152 23.25 7.152Z" fill="black"/>
</svg>
