<svg width="32" height="32" viewBox="0 0 32 32" fill="none" xmlns="http://www.w3.org/2000/svg">
<path fill-rule="evenodd" clip-rule="evenodd" d="M29.5625 2.875C29.8041 2.875 30 2.67912 30 2.4375C30 2.19588 29.8041 2 29.5625 2H2.4375C2.19588 2 2 2.19588 2 2.4375C2 2.67912 2.19588 2.875 2.4375 2.875H15.5625V3.75H4.1875C2.97938 3.75 2 4.72938 2 5.9375V18.1875C2 19.3956 2.97938 20.375 4.1875 20.375H15.5625V21.25H2.4375C2.19588 21.25 2 21.4459 2 21.6875C2 21.9291 2.19588 22.125 2.4375 22.125H15.5625V27.0928L11.0059 29.1644C10.8186 29.2497 10.7161 29.4542 10.7598 29.6554C10.8035 29.8566 10.9816 30 11.1875 30C11.2501 30 11.3121 29.9866 11.3691 29.9606L16 27.8563L20.6309 29.9606C20.6879 29.9866 20.7499 30 20.8125 30C21.0184 30 21.1965 29.8566 21.2402 29.6554C21.2839 29.4542 21.1814 29.2497 20.9941 29.1644L16.4375 27.0928V22.125H29.5625C29.8041 22.125 30 21.9291 30 21.6875C30 21.4459 29.8041 21.25 29.5625 21.25H16.4375V20.375H27.8125C29.0206 20.375 30 19.3956 30 18.1875V5.9375C30 4.72938 29.0206 3.75 27.8125 3.75H16.4375V2.875H29.5625ZM29.125 5.9375V18.1875C29.125 18.9124 28.5374 19.5 27.8125 19.5H4.1875C3.46263 19.5 2.875 18.9124 2.875 18.1875V5.9375C2.875 5.21263 3.46263 4.625 4.1875 4.625H27.8125C28.5374 4.625 29.125 5.21263 29.125 5.9375ZM15.5625 12.5V15.125H12.9375V9C12.9375 8.75838 12.7416 8.5625 12.5 8.5625C12.2584 8.5625 12.0625 8.75838 12.0625 9V15.125H9.4375V12.5C9.4375 12.2584 9.24162 12.0625 9 12.0625C8.75838 12.0625 8.5625 12.2584 8.5625 12.5V15.125H6.8125C6.57088 15.125 6.375 15.3209 6.375 15.5625C6.375 15.8041 6.57088 16 6.8125 16H25.1875C25.4291 16 25.625 15.8041 25.625 15.5625C25.625 15.3209 25.4291 15.125 25.1875 15.125H23.4375V12.5C23.4375 12.2584 23.2416 12.0625 23 12.0625C22.7584 12.0625 22.5625 12.2584 22.5625 12.5V15.125H19.9375V9C19.9375 8.75838 19.7416 8.5625 19.5 8.5625C19.2584 8.5625 19.0625 8.75838 19.0625 9V15.125H16.4375V12.5C16.4375 12.2584 16.2416 12.0625 16 12.0625C15.7584 12.0625 15.5625 12.2584 15.5625 12.5Z" fill="black"/>
</svg>
