<svg width="32" height="32" viewBox="0 0 32 32" fill="none" xmlns="http://www.w3.org/2000/svg">
<path fill-rule="evenodd" clip-rule="evenodd" d="M12.3634 4.66172C13.2031 3.21142 14.8705 2 17.95 2H22.05C22.4642 2 22.8 2.33579 22.8 2.75V7.35C22.8 7.76421 22.4642 8.1 22.05 8.1H19.05C18.991 8.1 18.8665 8.13829 18.74 8.25776C18.6824 8.31216 18.6421 8.36779 18.6189 8.41243C18.6058 8.43782 18.6013 8.45325 18.6 8.45851V10.7H22.15C22.3597 10.7 22.5599 10.7878 22.7019 10.9422C22.8439 11.0965 22.9148 11.3033 22.8974 11.5123C22.7964 12.7244 22.6703 13.8592 22.5695 14.6902C22.5191 15.1061 22.475 15.4466 22.4434 15.6835C22.4276 15.802 22.415 15.8946 22.4062 15.9579L22.3961 16.0303L22.3925 16.0555C22.3398 16.425 22.0232 16.7 21.65 16.7H18.7V29.25C18.7 29.6642 18.3642 30 17.95 30H12.45C12.0358 30 11.7 29.6642 11.7 29.25V16.7H9.75C9.33579 16.7 9 16.3642 9 15.95V11.45C9 11.0358 9.33579 10.7 9.75 10.7H11.6V7.85C11.6 7.83743 11.6 7.82342 11.5999 7.80801C11.5986 7.39633 11.594 5.99067 12.3634 4.66172ZM20.994 15.2C21.0191 15.0059 21.0485 14.7733 21.0804 14.5098C21.1567 13.8808 21.2474 13.0772 21.3303 12.2H17.85C17.4358 12.2 17.1 11.8642 17.1 11.45V8.45C17.1 7.92243 17.3961 7.46369 17.71 7.16724C18.0335 6.86171 18.509 6.6 19.05 6.6H21.3V3.5H17.95C15.3295 3.5 14.1969 4.48858 13.6616 5.41328C13.0986 6.38575 13.0996 7.44628 13.1 7.82349C13.1 7.83274 13.1 7.84158 13.1 7.85V11.45C13.1 11.8642 12.7642 12.2 12.35 12.2H10.5V15.2H12.45C12.8642 15.2 13.2 15.5358 13.2 15.95V28.5H17.2V15.95C17.2 15.5358 17.5358 15.2 17.95 15.2H20.994Z" fill="black"/>
</svg>
