<svg width="32" height="32" viewBox="0 0 32 32" fill="none" xmlns="http://www.w3.org/2000/svg">
<path d="M29.63 10.4873C29.3627 10.0519 28.9828 9.69671 28.5305 9.45912C28.0782 9.22152 27.5702 9.11035 27.06 9.1373H21.13C21.5168 7.40302 21.4722 5.60031 21 3.8873C20.8735 3.37545 20.5872 2.91724 20.1826 2.57918C19.778 2.24112 19.2762 2.0408 18.75 2.0073C18.2219 1.96896 17.6938 2.08223 17.2279 2.33379C16.762 2.58534 16.3776 2.96472 16.12 3.4273C16.0689 3.52634 16.0415 3.63588 16.04 3.7473V5.7473C16.0365 6.56005 15.862 7.36298 15.5278 8.10383C15.1935 8.84469 14.7071 9.50687 14.1 10.0473C12.94 11.3173 11.34 13.0073 10.26 13.0073V12.3773C10.26 12.1784 10.181 11.9876 10.0403 11.847C9.89968 11.7063 9.70891 11.6273 9.51 11.6273H2.75C2.55109 11.6273 2.36032 11.7063 2.21967 11.847C2.07902 11.9876 2 12.1784 2 12.3773V24.2573C2.00259 24.4554 2.08244 24.6447 2.22253 24.7848C2.36263 24.9249 2.55189 25.0047 2.75 25.0073H9.49C9.68811 25.0047 9.87737 24.9249 10.0175 24.7848C10.1576 24.6447 10.2374 24.4554 10.24 24.2573V23.8273H11.24C11.6485 23.9434 12.0294 24.1407 12.36 24.4073C12.7297 24.7354 13.1897 24.9445 13.68 25.0073H14.12C14.3189 25.0073 14.5097 24.9283 14.6503 24.7876C14.791 24.647 14.87 24.4562 14.87 24.2573C14.87 24.0584 14.791 23.8676 14.6503 23.727C14.5097 23.5863 14.3189 23.5073 14.12 23.5073H13.8C13.6002 23.4074 13.4095 23.2903 13.23 23.1573C12.6591 22.6889 11.9641 22.397 11.23 22.3173H10.23V14.4973C11.83 14.4973 13.34 13.0373 15.16 11.1373C15.8931 10.4529 16.4795 9.62664 16.8835 8.70867C17.2874 7.79069 17.5006 6.80018 17.51 5.7973V4.0073C17.6537 3.85874 17.8263 3.74126 18.0173 3.66214C18.2082 3.58301 18.4134 3.54393 18.62 3.5473C19.04 3.5473 19.33 3.8473 19.5 4.3873C19.9301 6.07026 19.9301 7.83434 19.5 9.5173L19.45 9.7973C19.4341 9.90521 19.441 10.0153 19.4703 10.1203C19.4996 10.2254 19.5506 10.3232 19.62 10.4073C19.6893 10.4915 19.7763 10.5594 19.8748 10.6061C19.9733 10.6527 20.081 10.6771 20.19 10.6773H27.01C27.256 10.6545 27.5037 10.6981 27.727 10.8036C27.9504 10.9092 28.1414 11.0728 28.28 11.2773C28.3986 11.522 28.4602 11.7904 28.4602 12.0623C28.4602 12.3342 28.3986 12.6026 28.28 12.8473H23.37C23.1711 12.8473 22.9803 12.9263 22.8397 13.067C22.699 13.2076 22.62 13.3984 22.62 13.5973C22.62 13.7962 22.699 13.987 22.8397 14.1276C22.9803 14.2683 23.1711 14.3473 23.37 14.3473H28.27C28.427 14.8929 28.406 15.4744 28.21 16.0073C28.1683 16.1007 28.1463 16.2017 28.1456 16.304C28.1449 16.4063 28.1654 16.5076 28.2058 16.6016C28.2462 16.6955 28.3056 16.7801 28.3804 16.8499C28.4551 16.9198 28.5435 16.9734 28.64 17.0073C28.7254 17.043 28.8175 17.06 28.91 17.0573C29.0618 17.0588 29.2104 17.0135 29.3357 16.9276C29.4609 16.8418 29.5567 16.7195 29.61 16.5773C29.9646 15.6363 29.9646 14.5983 29.61 13.6573C29.8774 13.1725 30.0193 12.6285 30.0228 12.0748C30.0263 11.5212 29.8913 10.9754 29.63 10.4873ZM8.74 23.5073H3.5V13.1173H8.74V23.5073Z" fill="black"/>
<path d="M22.94 16.0073C21.605 16.0073 20.2999 16.4032 19.1899 17.1449C18.0799 17.8866 17.2147 18.9408 16.7038 20.1742C16.1929 21.4076 16.0592 22.7648 16.3197 24.0742C16.5801 25.3835 17.223 26.5863 18.167 27.5303C19.111 28.4743 20.3138 29.1171 21.6231 29.3776C22.9325 29.6381 24.2897 29.5044 25.5231 28.9935C26.7565 28.4826 27.8107 27.6174 28.5524 26.5074C29.2941 25.3974 29.69 24.0923 29.69 22.7573C29.69 20.9671 28.9788 19.2502 27.713 17.9843C26.4471 16.7185 24.7302 16.0073 22.94 16.0073ZM25.24 24.0073C25.3804 24.1479 25.4593 24.3385 25.4593 24.5373C25.4593 24.7361 25.3804 24.9267 25.24 25.0673C25.1708 25.1374 25.0882 25.193 24.9972 25.2308C24.9062 25.2685 24.8085 25.2878 24.71 25.2873C24.6112 25.2895 24.513 25.2711 24.4218 25.2332C24.3305 25.1953 24.2482 25.1388 24.18 25.0673L22.94 23.8273L21.7 25.0873C21.5594 25.2277 21.3688 25.3066 21.17 25.3066C20.9712 25.3066 20.7806 25.2277 20.64 25.0873C20.4995 24.9467 20.4207 24.7561 20.4207 24.5573C20.4207 24.3585 20.4995 24.1679 20.64 24.0273L21.88 22.7873L20.64 21.5473C20.5075 21.4051 20.4354 21.2171 20.4388 21.0228C20.4423 20.8285 20.521 20.6431 20.6584 20.5057C20.7958 20.3683 20.9812 20.2896 21.1755 20.2861C21.3698 20.2827 21.5578 20.3548 21.7 20.4873L22.94 21.7273L24.18 20.4873C24.2487 20.4136 24.3315 20.3545 24.4235 20.3135C24.5155 20.2725 24.6148 20.2505 24.7155 20.2487C24.8162 20.2469 24.9162 20.2655 25.0096 20.3032C25.103 20.3409 25.1878 20.397 25.259 20.4683C25.3303 20.5395 25.3864 20.6243 25.4241 20.7177C25.4618 20.8111 25.4804 20.9111 25.4786 21.0118C25.4768 21.1125 25.4548 21.2118 25.4138 21.3038C25.3728 21.3958 25.3137 21.4786 25.24 21.5473L24 22.7873L25.24 24.0073Z" fill="black"/>
</svg>
