<svg width="32" height="32" viewBox="0 0 32 32" fill="none" xmlns="http://www.w3.org/2000/svg">
<path d="M16.0001 2C12.287 2 8.72607 3.475 6.10056 6.1005C3.47505 8.72601 2.00006 12.287 2.00006 16C1.99209 18.8169 2.84327 21.5693 4.44006 23.89L2.44006 29.89L8.61006 27.89C10.8248 29.2769 13.3869 30.0084 16.0001 30C19.7131 30 23.274 28.525 25.8995 25.8995C28.5251 23.274 30.0001 19.713 30.0001 16C30.0001 12.287 28.5251 8.72601 25.8995 6.1005C23.274 3.475 19.7131 2 16.0001 2ZM16.0001 28.5C13.557 28.5057 11.1669 27.789 9.13006 26.44L8.83006 26.24L4.83006 27.52L6.14006 23.64L5.91006 23.32C4.34334 21.2012 3.49853 18.6352 3.50006 16C3.50534 12.6864 4.824 9.51007 7.16706 7.16701C9.51012 4.82395 12.6865 3.50529 16.0001 3.5C19.3153 3.5 22.4947 4.81696 24.8389 7.16117C27.1831 9.50537 28.5001 12.6848 28.5001 16C28.5001 19.3152 27.1831 22.4946 24.8389 24.8388C22.4947 27.183 19.3153 28.5 16.0001 28.5Z" fill="black"/>
<path d="M23.2001 19.17C22.8101 18.98 20.9201 18.04 20.5601 17.92C20.3955 17.8387 20.2064 17.8224 20.0303 17.8743C19.8543 17.9261 19.7042 18.0424 19.6101 18.2C19.3051 18.6799 18.9711 19.1407 18.6101 19.58C18.4874 19.6947 18.3328 19.7694 18.1668 19.7944C18.0008 19.8194 17.831 19.7935 17.6801 19.72C16.5333 19.283 15.4784 18.6352 14.5701 17.81C13.7304 17.0265 13.0065 16.1274 12.4201 15.14C12.3391 15.0064 12.3106 14.8476 12.3402 14.6942C12.3698 14.5408 12.4552 14.4039 12.5801 14.31C12.7701 14.07 12.9601 13.9 13.1501 13.67C13.3304 13.4954 13.4763 13.2885 13.5801 13.06C13.637 12.9503 13.6668 12.8286 13.6668 12.705C13.6668 12.5814 13.637 12.4597 13.5801 12.35C13.4801 12.15 12.7101 10.25 12.3901 9.48C12.0701 8.71 11.9301 8.84 11.5501 8.82H11.0001C10.5045 8.79662 10.0196 8.96902 9.65006 9.3C9.20856 9.70738 8.85958 10.2047 8.6267 10.7585C8.39381 11.3123 8.28242 11.9095 8.30006 12.51C8.42893 13.968 8.97775 15.3575 9.88006 16.51C10.0701 16.76 12.5801 20.72 16.4701 22.33C19.4701 23.6 20.4701 23.48 21.1101 23.33C21.6546 23.2296 22.1702 23.0098 22.6197 22.6865C23.0693 22.3632 23.4416 21.9443 23.7101 21.46C23.9589 20.8807 24.0386 20.2427 23.9401 19.62C23.8501 19.46 23.5901 19.37 23.2001 19.17Z" fill="black"/>
</svg>
