<svg width="32" height="32" viewBox="0 0 32 32" fill="none" xmlns="http://www.w3.org/2000/svg">
<path d="M30 12.0785C30.0065 11.5273 29.8723 10.9834 29.61 10.4985C29.3379 10.0741 28.9584 9.72908 28.51 9.49854C28.0587 9.2588 27.5501 9.14808 27.04 9.17854H21.13C21.5222 7.4347 21.4776 5.62096 21 3.89854C20.8725 3.38595 20.5854 2.92718 20.18 2.58854C19.7798 2.2437 19.2774 2.03992 18.75 2.00854C18.2231 1.96692 17.6954 2.07802 17.23 2.32854C16.7651 2.58505 16.3807 2.96594 16.12 3.42854C16.0689 3.52758 16.0415 3.63712 16.04 3.74854V5.74854C16.0366 6.55896 15.8629 7.35962 15.53 8.09854C15.2001 8.85883 14.7127 9.54049 14.1 10.0985C12.94 11.3685 11.34 13.0985 10.26 13.0985V12.4685C10.26 12.2696 10.181 12.0789 10.0403 11.9382C9.89968 11.7976 9.70891 11.7185 9.51 11.7185H2.75C2.55109 11.7185 2.36032 11.7976 2.21967 11.9382C2.07902 12.0789 2 12.2696 2 12.4685V24.2685C2.00173 24.4641 2.08082 24.6511 2.22 24.7885C2.36338 24.9249 2.55221 25.0033 2.75 25.0085H9.49C9.68082 24.9985 9.86173 24.9204 10 24.7885C10.1392 24.6511 10.2183 24.4641 10.22 24.2685V23.8385H11.22C11.6302 23.9503 12.012 24.148 12.34 24.4185C12.7136 24.7406 13.1717 24.9488 13.66 25.0185H14.1C14.2989 25.0185 14.4897 24.9395 14.6303 24.7989C14.771 24.6582 14.85 24.4675 14.85 24.2685C14.85 24.0696 14.771 23.8789 14.6303 23.7382C14.4897 23.5976 14.2989 23.5185 14.1 23.5185H13.8C13.6009 23.4174 13.4103 23.3004 13.23 23.1685C12.6591 22.7002 11.9641 22.4083 11.23 22.3285H10.23V14.5085C11.83 14.5085 13.34 13.0485 15.16 11.1485C15.8916 10.4631 16.4767 9.63642 16.88 8.71854C17.2871 7.80194 17.5016 6.81146 17.51 5.80854V4.00854C17.6489 3.86355 17.8156 3.74793 18 3.66854C18.1891 3.58691 18.3943 3.5493 18.6 3.55854C19.02 3.55854 19.31 3.85854 19.48 4.39854C19.9101 6.0815 19.9101 7.84558 19.48 9.52854L19.43 9.80854C19.4053 9.91378 19.4053 10.0233 19.43 10.1285C19.4595 10.2345 19.5106 10.3332 19.58 10.4185C19.6521 10.4982 19.7365 10.5657 19.83 10.6185C19.9313 10.6617 20.0399 10.6854 20.15 10.6885H27C27.2464 10.6632 27.4951 10.7046 27.72 10.8085C27.9423 10.9175 28.132 11.083 28.27 11.2885C28.3895 11.5311 28.4511 11.7981 28.45 12.0685C28.4501 12.3421 28.3886 12.6121 28.27 12.8585H23.37C23.1711 12.8585 22.9803 12.9376 22.8397 13.0782C22.699 13.2189 22.62 13.4096 22.62 13.6085C22.62 13.8075 22.699 13.9982 22.8397 14.1389C22.9803 14.2795 23.1711 14.3585 23.37 14.3585H28.27C28.4284 14.9006 28.4073 15.4794 28.21 16.0085C28.1701 16.1 28.1497 16.1988 28.15 16.2985C28.1437 16.402 28.1644 16.5054 28.21 16.5985C28.2489 16.6927 28.3067 16.7778 28.38 16.8485C28.4566 16.9168 28.5446 16.9709 28.64 17.0085C28.7267 17.0396 28.8179 17.0564 28.91 17.0585C29.0626 17.0556 29.2113 17.0106 29.34 16.9285C29.4623 16.8408 29.5561 16.7191 29.61 16.5785C29.9601 15.6367 29.9601 14.6004 29.61 13.6585C29.8711 13.1732 30.0052 12.6297 30 12.0785ZM8.74 23.5185H3.5V13.1285H8.74V23.5185Z" fill="black"/>
<path d="M22.94 16.0085C21.605 16.0085 20.2999 16.4044 19.1899 17.1461C18.0799 17.8878 17.2147 18.942 16.7038 20.1754C16.1929 21.4088 16.0592 22.766 16.3197 24.0754C16.5801 25.3848 17.223 26.5875 18.167 27.5315C19.111 28.4755 20.3138 29.1184 21.6231 29.3788C22.9325 29.6393 24.2897 29.5056 25.5231 28.9947C26.7565 28.4838 27.8107 27.6187 28.5524 26.5086C29.2941 25.3986 29.69 24.0936 29.69 22.7585C29.69 20.9683 28.9788 19.2514 27.713 17.9856C26.4471 16.7197 24.7302 16.0085 22.94 16.0085ZM26.62 20.7885L22.73 26.0085C22.6684 26.096 22.5878 26.1684 22.4943 26.2203C22.4008 26.2723 22.2968 26.3024 22.19 26.3085H22.13C22.0312 26.3108 21.933 26.2924 21.8418 26.2545C21.7505 26.2166 21.6682 26.1601 21.6 26.0885L19.32 23.8085C19.1796 23.6679 19.1007 23.4773 19.1007 23.2785C19.1007 23.0798 19.1796 22.8892 19.32 22.7485C19.3889 22.6778 19.4714 22.6215 19.5624 22.5831C19.6534 22.5448 19.7512 22.525 19.85 22.525C19.9488 22.525 20.0466 22.5448 20.1376 22.5831C20.2286 22.6215 20.3111 22.6778 20.38 22.7485L22.05 24.4085L25.42 19.8985C25.5379 19.7533 25.7059 19.6574 25.8909 19.6297C26.0759 19.6019 26.2646 19.6443 26.42 19.7485C26.5038 19.8029 26.5757 19.8737 26.6314 19.9565C26.6871 20.0394 26.7254 20.1327 26.7441 20.2308C26.7628 20.329 26.7615 20.4298 26.7401 20.5274C26.7188 20.625 26.6779 20.7172 26.62 20.7985V20.7885Z" fill="black"/>
</svg>
