<svg width="32" height="32" viewBox="0 0 32 32" fill="none" xmlns="http://www.w3.org/2000/svg">
<path d="M11.021 15.456H9.36269V11.2802C9.34342 11.1282 9.26938 10.9884 9.15443 10.8871C9.03948 10.7859 8.89153 10.73 8.73832 10.73C8.58511 10.73 8.43716 10.7859 8.32221 10.8871C8.20726 10.9884 8.13321 11.1282 8.11395 11.2802V16.0754C8.11395 16.2423 8.18026 16.4024 8.29829 16.5204C8.41631 16.6384 8.5764 16.7047 8.74331 16.7047H11.021C11.1096 16.716 11.1996 16.7082 11.285 16.6819C11.3704 16.6557 11.4492 16.6116 11.5163 16.5525C11.5833 16.4935 11.637 16.4208 11.6737 16.3394C11.7105 16.258 11.7295 16.1697 11.7295 16.0803C11.7295 15.991 11.7105 15.9027 11.6737 15.8213C11.637 15.7399 11.5833 15.6672 11.5163 15.6082C11.4492 15.5491 11.3704 15.505 11.285 15.4788C11.1996 15.4525 11.1096 15.4447 11.021 15.456Z" fill="black"/>
<path d="M18.4335 10.6407C18.2666 10.6407 18.1065 10.707 17.9885 10.825C17.8704 10.9431 17.8041 11.1031 17.8041 11.2701V14.1372L15.5564 11.0403C15.4809 10.9311 15.3724 10.8491 15.2469 10.8062C15.1213 10.7634 14.9853 10.762 14.8588 10.8023C14.7324 10.8426 14.6223 10.9224 14.5446 11.03C14.467 11.1376 14.4259 11.2673 14.4275 11.3999V16.0552C14.4163 16.1439 14.4241 16.2339 14.4503 16.3192C14.4765 16.4046 14.5207 16.4835 14.5797 16.5505C14.6388 16.6175 14.7114 16.6712 14.7928 16.7079C14.8743 16.7447 14.9626 16.7637 15.0519 16.7637C15.1412 16.7637 15.2295 16.7447 15.3109 16.7079C15.3924 16.6712 15.465 16.6175 15.5241 16.5505C15.5831 16.4835 15.6273 16.4046 15.6535 16.3192C15.6797 16.2339 15.6875 16.1439 15.6763 16.0552V13.328L17.924 16.4249C17.9818 16.5059 18.0583 16.5718 18.147 16.6171C18.2357 16.6623 18.3339 16.6854 18.4335 16.6846C18.4964 16.6942 18.5604 16.6942 18.6233 16.6846C18.7497 16.6439 18.8597 16.5637 18.937 16.4558C19.0143 16.3479 19.055 16.218 19.0529 16.0852V11.2701C19.0529 11.1049 18.9879 10.9463 18.8721 10.8285C18.7562 10.7108 18.5987 10.6433 18.4335 10.6407Z" fill="black"/>
<path d="M23.6084 15.336H21.1408V14.1871H23.0689C23.2209 14.1679 23.3606 14.0938 23.4619 13.9789C23.5632 13.8639 23.6191 13.716 23.6191 13.5628C23.6191 13.4096 23.5632 13.2616 23.4619 13.1467C23.3606 13.0317 23.2209 12.9577 23.0689 12.9384H21.1408V11.7896H23.5085C23.5971 11.8008 23.6871 11.793 23.7725 11.7668C23.8579 11.7405 23.9367 11.6964 24.0037 11.6374C24.0707 11.5783 24.1244 11.5057 24.1612 11.4242C24.1979 11.3428 24.217 11.2545 24.217 11.1652C24.217 11.0759 24.1979 10.9875 24.1612 10.9061C24.1244 10.8247 24.0707 10.7521 24.0037 10.693C23.9367 10.6339 23.8579 10.5898 23.7725 10.5636C23.6871 10.5373 23.5971 10.5296 23.5085 10.5408H20.5115C20.3463 10.5434 20.1888 10.6109 20.0729 10.7286C19.957 10.8464 19.8921 11.005 19.8921 11.1702V15.9653C19.8921 16.1296 19.9574 16.2872 20.0735 16.4033C20.1897 16.5195 20.3472 16.5847 20.5115 16.5847H23.6084C23.697 16.596 23.787 16.5882 23.8724 16.5619C23.9578 16.5357 24.0366 16.4916 24.1036 16.4325C24.1706 16.3735 24.2243 16.3008 24.2611 16.2194C24.2978 16.138 24.3169 16.0497 24.3169 15.9604C24.3169 15.871 24.2978 15.7827 24.2611 15.7013C24.2243 15.6199 24.1706 15.5472 24.1036 15.4882C24.0366 15.4291 23.9578 15.385 23.8724 15.3588C23.787 15.3325 23.697 15.3247 23.6084 15.336Z" fill="black"/>
<path d="M12.7792 10.6407C12.614 10.6433 12.4565 10.7108 12.3406 10.8285C12.2247 10.9463 12.1598 11.1049 12.1598 11.2701V16.0552C12.1486 16.1439 12.1563 16.2339 12.1826 16.3192C12.2088 16.4046 12.2529 16.4835 12.312 16.5505C12.371 16.6175 12.4437 16.6712 12.5251 16.7079C12.6065 16.7447 12.6948 16.7637 12.7842 16.7637C12.8735 16.7637 12.9618 16.7447 13.0432 16.7079C13.1246 16.6712 13.1973 16.6175 13.2563 16.5505C13.3154 16.4835 13.3595 16.4046 13.3858 16.3192C13.412 16.2339 13.4198 16.1439 13.4085 16.0552V11.2701C13.4085 11.1031 13.3422 10.9431 13.2242 10.825C13.1062 10.707 12.9461 10.6407 12.7792 10.6407Z" fill="black"/>
<path d="M29.932 12.5788V12.2291C29.932 12.1692 29.932 11.9594 29.932 11.9594C29.5483 9.91554 28.5841 8.02541 27.1549 6.51488C25.6269 4.91568 23.74 3.70341 21.6504 2.97845C19.5307 2.21463 17.2772 1.89239 15.0284 2.03154C12.7796 2.1707 10.583 2.76831 8.5736 3.78764C4.23797 6.06534 1.69054 10.331 2.0302 14.6167C2.23201 16.8497 3.10238 18.9699 4.52768 20.7006C5.94688 22.4036 7.76597 23.7285 9.82234 24.5567C11.0416 25.0135 12.3032 25.3481 13.5885 25.5557C13.4109 26.172 13.3667 26.819 13.4587 27.4538C13.5153 27.9429 13.7505 28.3939 14.1193 28.7202C14.488 29.0466 14.9643 29.2252 15.4567 29.222C16.3753 29.1395 17.2567 28.8193 18.0141 28.2929C19.3128 27.5337 20.5515 26.6646 21.4906 25.9852C23.7547 24.492 25.8077 22.7011 27.5944 20.6606C28.4958 19.5331 29.1662 18.239 29.5673 16.8523C29.9684 15.4655 30.0923 14.0134 29.932 12.5788ZM26.3856 19.7216C24.6779 21.6544 22.723 23.354 20.5715 24.7765C19.6624 25.4258 18.4636 26.275 17.135 27.0542C16.6294 27.4046 16.0531 27.6399 15.4467 27.7435C15.3068 27.7435 15.0271 27.7435 14.9372 27.214C14.8838 26.7227 14.9349 26.2257 15.087 25.7555L15.147 25.5357C15.189 25.3927 15.2009 25.2425 15.182 25.0946C15.1631 24.9467 15.1138 24.8044 15.0371 24.6766C14.923 24.5286 14.7801 24.4054 14.6169 24.3144C14.4538 24.2234 14.2738 24.1664 14.088 24.1471H13.9282C12.7219 23.944 11.5377 23.6262 10.3918 23.1981C8.58003 22.4545 6.98064 21.2739 5.73646 19.7615C4.49646 18.2624 3.73747 16.4241 3.55866 14.4868C3.22899 10.8006 5.47672 7.11428 9.28288 5.08633C11.3623 4.00741 13.6735 3.4519 16.0161 3.46796C17.7641 3.46172 19.4994 3.76615 21.1409 4.36705C22.9924 5.02852 24.6599 6.12084 26.006 7.55384C27.2418 8.85458 28.0745 10.4853 28.4036 12.2491L28.4635 12.7686C28.7182 15.2699 27.971 17.7702 26.3856 19.7216Z" fill="black"/>
</svg>
