<svg width="32" height="32" viewBox="0 0 32 32" fill="none" xmlns="http://www.w3.org/2000/svg">
<path fill-rule="evenodd" clip-rule="evenodd" d="M15.9999 6C15.9999 6 16 6 16 6.74733L16 7.49466L15.9084 7.49481C15.8479 7.49495 15.7587 7.49524 15.6443 7.49582C15.4155 7.49698 15.0859 7.4993 14.6837 7.50395C13.879 7.51326 12.7851 7.53186 11.6272 7.56901C10.4679 7.60621 9.25082 7.6618 8.19757 7.74459C7.12267 7.82908 6.28395 7.93759 5.84232 8.06377L5.83366 8.06625C5.00362 8.29262 4.30492 8.97907 4.07021 9.91791L4.06719 9.92999L4.06377 9.94196C3.79027 10.8992 3.64304 12.4176 3.56822 13.7518C3.53146 14.4075 3.51304 14.9996 3.50383 15.4278C3.49923 15.6417 3.49694 15.8143 3.4958 15.9329C3.49522 15.9922 3.49494 16.038 3.4948 16.0687L3.49468 16.1032V16.1246L3.4948 16.1591C3.49494 16.1898 3.49522 16.2356 3.4958 16.2949C3.49694 16.4135 3.49923 16.5861 3.50383 16.8C3.51304 17.2282 3.53146 17.8203 3.56822 18.476C3.64304 19.8102 3.79027 21.3285 4.06377 22.2858L4.06625 22.2945C4.30229 23.1599 5.00953 23.924 5.8067 24.154C6.79771 24.3352 9.28652 24.4343 11.6192 24.4842C12.7794 24.509 13.875 24.5214 14.6808 24.5276C15.0836 24.5307 15.4138 24.5323 15.6431 24.533L15.9078 24.5337L15.9997 24.5338L16 25.2811C16 26.0285 15.9999 26.0285 15.9999 26.0285L15.9054 26.0284L15.638 26.0277C15.4069 26.0269 15.0745 26.0253 14.6693 26.0222C13.859 26.016 12.7562 26.0035 11.5872 25.9785C9.28532 25.9292 6.61963 25.8305 5.49718 25.6167L5.46852 25.6112L5.44038 25.6036C4.0579 25.2265 2.98577 24.0074 2.62541 22.6922C2.30188 21.557 2.15046 19.8892 2.07591 18.5596C2.03794 17.8826 2.01899 17.2727 2.00951 16.8321C2.00477 16.6117 2.0024 16.4331 2.0012 16.3093C2.00061 16.2473 2.00031 16.199 2.00015 16.1659L2.00002 16.1279L2 16.114L2.00002 16.0999L2.00015 16.0618C2.00031 16.0287 2.00061 15.9804 2.0012 15.9185C2.0024 15.7946 2.00477 15.6161 2.00951 15.3956C2.01899 14.9551 2.03794 14.3452 2.07591 13.6681C2.1503 12.3415 2.30121 10.6781 2.62327 9.5431C2.98913 8.09807 4.07977 6.99698 5.43604 6.62538C6.04101 6.45332 7.01866 6.33798 8.08045 6.25452C9.16644 6.16916 10.4093 6.11266 11.5792 6.07512C12.7505 6.03754 13.855 6.01877 14.6664 6.00939C15.0723 6.0047 15.4051 6.00235 15.6368 6.00118C15.7526 6.00059 15.8431 6.0003 15.9048 6.00015L15.9999 6ZM28.5053 15.9231L28.5053 15.9253L28.5052 15.9598C28.5051 15.9905 28.5048 16.0363 28.5042 16.0956C28.5031 16.2142 28.5008 16.3868 28.4962 16.6007C28.487 17.0289 28.4685 17.621 28.4318 18.2767C28.357 19.6109 28.2097 21.1293 27.9362 22.0865L27.9328 22.0985L27.9298 22.1106C27.6951 23.0494 26.9964 23.7359 26.1664 23.9623L26.1577 23.9647C25.716 24.0909 24.8773 24.1994 23.8024 24.2839C22.7492 24.3667 21.5321 24.4223 20.3728 24.4595C19.2149 24.4966 18.1211 24.5152 17.3163 24.5245C16.9141 24.5292 16.5845 24.5315 16.3557 24.5327C16.2413 24.5332 16.1521 24.5335 16.0916 24.5337L15.9997 24.5338L16 25.2811C16 26.0285 15.9999 26.0285 15.9999 26.0285L16.0952 26.0283C16.1569 26.0282 16.2474 26.0279 16.3632 26.0273C16.5949 26.0261 16.9277 26.0238 17.3336 26.0191C18.145 26.0097 19.2495 25.9909 20.4208 25.9534C21.5907 25.9158 22.8336 25.8593 23.9196 25.7739C24.9813 25.6905 25.959 25.5752 26.564 25.4031C27.9202 25.0315 29.0109 23.9304 29.3767 22.4854C29.6988 21.3503 29.8497 19.687 29.9241 18.3603C29.9621 17.6833 29.981 17.0734 29.9905 16.6328C29.9952 16.4124 29.9976 16.2339 29.9988 16.11C29.9994 16.048 29.9997 15.9997 29.9998 15.9666L30 15.9286L30 15.9185L30 15.9147C30 15.9147 30 15.9146 29.2527 15.9146L30 15.9147V15.9059L29.9998 15.8972L29.2527 15.9146C29.9998 15.8972 29.9998 15.8972 29.9998 15.8972L29.9995 15.8836L29.9985 15.846C29.9976 15.8133 29.9963 15.7653 29.9944 15.7038C29.9906 15.5807 29.9847 15.4033 29.9761 15.1844C29.9588 14.7469 29.9304 14.1422 29.8863 13.4739C29.7993 12.1572 29.6472 10.5254 29.3798 9.45576L29.3779 9.44804L29.3758 9.44038C29.0166 8.12342 27.9437 6.90202 26.5596 6.52455L26.5479 6.52136L26.5361 6.51854C25.9434 6.37742 24.9746 6.28153 23.9098 6.21178C22.8265 6.14083 21.5858 6.0938 20.4168 6.06254C19.2467 6.03126 18.143 6.01563 17.3322 6.00782C16.9266 6.00391 16.594 6.00196 16.3626 6.00098C16.2469 6.00049 16.1565 6.00025 16.0949 6.00012L15.9999 6C15.9999 6 16 6 16 6.74733L16 7.49466L16.0919 7.49478C16.1525 7.4949 16.2418 7.49514 16.3563 7.49563C16.5854 7.4966 16.9152 7.49853 17.3178 7.50241C18.123 7.51017 19.2178 7.52568 20.3768 7.55667C21.537 7.58769 22.7562 7.63408 23.8121 7.70325C24.8771 7.77301 25.7212 7.86296 26.1777 7.96969C26.979 8.19357 27.6922 8.9582 27.9318 9.82626C28.1614 10.7502 28.3077 12.2523 28.3949 13.5724C28.4379 14.2243 28.4656 14.8154 28.4826 15.2435C28.491 15.4574 28.4968 15.6303 28.5004 15.7494C28.5023 15.8089 28.5035 15.855 28.5044 15.8859L28.5053 15.9209L28.5053 15.9231Z" fill="black"/>
<path d="M13.3096 19.9004V12.0285L20.1851 16.0142L13.3096 19.9004Z" fill="black"/>
</svg>
