<svg width="32" height="32" viewBox="0 0 32 32" fill="none" xmlns="http://www.w3.org/2000/svg">
<path d="M30 12.0785C30.0065 11.5273 29.8723 10.9834 29.61 10.4985C29.3379 10.0741 28.9584 9.72908 28.51 9.49854C28.0587 9.2588 27.5501 9.14808 27.04 9.17854H21.13C21.5222 7.4347 21.4776 5.62096 21 3.89854C20.8725 3.38595 20.5854 2.92718 20.18 2.58854C19.7798 2.2437 19.2774 2.03992 18.75 2.00854C18.2231 1.96692 17.6954 2.07802 17.23 2.32854C16.7651 2.58505 16.3807 2.96594 16.12 3.42854C16.0689 3.52758 16.0415 3.63712 16.04 3.74854V5.74854C16.0366 6.55896 15.8629 7.35962 15.53 8.09854C15.2001 8.85883 14.7127 9.54049 14.1 10.0985C12.94 11.3685 11.34 13.0985 10.26 13.0985V12.4685C10.26 12.2696 10.181 12.0789 10.0403 11.9382C9.89968 11.7976 9.70891 11.7185 9.51 11.7185H2.75C2.55109 11.7185 2.36032 11.7976 2.21967 11.9382C2.07902 12.0789 2 12.2696 2 12.4685V24.2685C2.00173 24.4641 2.08082 24.6511 2.22 24.7885C2.36338 24.9249 2.55221 25.0033 2.75 25.0085H9.49C9.68082 24.9985 9.86173 24.9204 10 24.7885C10.1392 24.6511 10.2183 24.4641 10.22 24.2685V23.8385H11.22C11.6302 23.9503 12.012 24.148 12.34 24.4185C12.7136 24.7406 13.1717 24.9488 13.66 25.0185H14.1C14.2989 25.0185 14.4897 24.9395 14.6303 24.7989C14.771 24.6582 14.85 24.4675 14.85 24.2685C14.85 24.0696 14.771 23.8789 14.6303 23.7382C14.4897 23.5976 14.2989 23.5185 14.1 23.5185H13.8C13.6009 23.4174 13.4103 23.3004 13.23 23.1685C12.6591 22.7002 11.9641 22.4083 11.23 22.3285H10.23V14.5085C11.83 14.5085 13.34 13.0485 15.16 11.1485C15.8916 10.4631 16.4767 9.63642 16.88 8.71854C17.2871 7.80194 17.5016 6.81146 17.51 5.80854V4.00854C17.6489 3.86355 17.8156 3.74793 18 3.66854C18.1891 3.58691 18.3943 3.5493 18.6 3.55854C19.02 3.55854 19.31 3.85854 19.48 4.39854C19.9101 6.0815 19.9101 7.84558 19.48 9.52854L19.43 9.80854C19.4053 9.91378 19.4053 10.0233 19.43 10.1285C19.4595 10.2345 19.5106 10.3332 19.58 10.4185C19.6521 10.4982 19.7365 10.5657 19.83 10.6185C19.9313 10.6617 20.0399 10.6854 20.15 10.6885H27C27.2464 10.6632 27.4951 10.7046 27.72 10.8085C27.9423 10.9175 28.132 11.083 28.27 11.2885C28.3895 11.5311 28.4511 11.7981 28.45 12.0685C28.4501 12.3421 28.3886 12.6121 28.27 12.8585H23.37C23.1711 12.8585 22.9803 12.9376 22.8397 13.0782C22.699 13.2189 22.62 13.4096 22.62 13.6085C22.62 13.8075 22.699 13.9982 22.8397 14.1389C22.9803 14.2795 23.1711 14.3585 23.37 14.3585H28.27C28.4284 14.9006 28.4073 15.4794 28.21 16.0085C28.1701 16.1 28.1497 16.1988 28.15 16.2985C28.1437 16.402 28.1644 16.5054 28.21 16.5985C28.2489 16.6927 28.3067 16.7778 28.38 16.8485C28.4566 16.9168 28.5446 16.9709 28.64 17.0085C28.7267 17.0396 28.8179 17.0564 28.91 17.0585C29.0626 17.0556 29.2113 17.0106 29.34 16.9285C29.4623 16.8408 29.5561 16.7191 29.61 16.5785C29.9601 15.6367 29.9601 14.6004 29.61 13.6585C29.8711 13.1732 30.0052 12.6297 30 12.0785ZM8.74 23.5185H3.5V13.1285H8.74V23.5185Z" fill="black"/>
<path d="M22.94 16.0085C21.605 16.0085 20.2999 16.4044 19.1899 17.1461C18.0799 17.8878 17.2147 18.942 16.7038 20.1754C16.1929 21.4088 16.0592 22.766 16.3197 24.0754C16.5801 25.3848 17.223 26.5875 18.167 27.5315C19.111 28.4755 20.3138 29.1184 21.6231 29.3788C22.9325 29.6393 24.2897 29.5056 25.5231 28.9947C26.7565 28.4838 27.8107 27.6187 28.5524 26.5086C29.2941 25.3986 29.69 24.0936 29.69 22.7585C29.69 20.9683 28.9788 19.2514 27.713 17.9856C26.4471 16.7197 24.7302 16.0085 22.94 16.0085ZM24.21 25.9185L23.8 26.3285C23.3604 26.7641 22.8018 27.0601 22.1945 27.1792C21.5871 27.2984 20.9582 27.2354 20.3865 26.9982C19.8149 26.761 19.3261 26.3602 18.9816 25.846C18.637 25.3319 18.4521 24.7274 18.45 24.1085C18.4492 23.6976 18.5301 23.2906 18.6881 22.9112C18.846 22.5318 19.0778 22.1875 19.37 21.8985L19.78 21.4885C19.8967 21.3718 20.055 21.3063 20.22 21.3063C20.385 21.3063 20.5433 21.3718 20.66 21.4885C20.7767 21.6052 20.8423 21.7635 20.8423 21.9285C20.8423 22.0936 20.7767 22.2518 20.66 22.3685L20.25 22.7785C20.0755 22.9532 19.9371 23.1606 19.8427 23.3888C19.7483 23.617 19.6998 23.8616 19.7 24.1085C19.6973 24.3579 19.7443 24.6054 19.8383 24.8365C19.9322 25.0675 20.0711 25.2776 20.247 25.4544C20.4229 25.6312 20.6323 25.7713 20.8628 25.8664C21.0934 25.9616 21.3406 26.0099 21.59 26.0085C22.0877 26.0035 22.5642 25.8065 22.92 25.4585L23.33 25.0485C23.4467 24.9318 23.605 24.8663 23.77 24.8663C23.935 24.8663 24.0933 24.9318 24.21 25.0485C24.3267 25.1652 24.3923 25.3235 24.3923 25.4885C24.3923 25.6536 24.3267 25.8118 24.21 25.9285V25.9185ZM24.34 22.2485L22.43 24.1585C22.3083 24.2734 22.1474 24.3378 21.98 24.3385C21.8984 24.339 21.8176 24.3233 21.7421 24.2924C21.6666 24.2615 21.5979 24.216 21.54 24.1585C21.4245 24.0392 21.36 23.8796 21.36 23.7135C21.36 23.5475 21.4245 23.3879 21.54 23.2685L23.45 21.3585C23.5698 21.2494 23.727 21.1906 23.889 21.1943C24.051 21.1981 24.2053 21.2641 24.3199 21.3787C24.4344 21.4933 24.5005 21.6476 24.5042 21.8096C24.508 21.9716 24.4492 22.1288 24.34 22.2485ZM26.51 23.6185L26.1 24.0085C26.0438 24.0691 25.9758 24.1175 25.9 24.1505C25.8243 24.1836 25.7426 24.2006 25.66 24.2006C25.5774 24.2006 25.4957 24.1836 25.42 24.1505C25.3442 24.1175 25.2762 24.0691 25.22 24.0085C25.1607 23.9516 25.1135 23.8833 25.0813 23.8077C25.0491 23.7321 25.0325 23.6507 25.0325 23.5685C25.0325 23.4863 25.0491 23.405 25.0813 23.3294C25.1135 23.2538 25.1607 23.1855 25.22 23.1285L25.63 22.7185C25.9804 22.3602 26.1776 21.8797 26.18 21.3785C26.1647 21.0171 26.0461 20.6677 25.8381 20.3717C25.6302 20.0758 25.3417 19.8457 25.0069 19.7088C24.672 19.5719 24.305 19.534 23.9492 19.5996C23.5935 19.6651 23.2641 19.8313 23 20.0785L22.59 20.4885C22.4733 20.6052 22.315 20.6708 22.15 20.6708C21.985 20.6708 21.8267 20.6052 21.71 20.4885C21.5933 20.3718 21.5277 20.2136 21.5277 20.0485C21.5277 19.8835 21.5933 19.7252 21.71 19.6085L22.11 19.1985C22.3951 18.8825 22.7415 18.6277 23.1281 18.4496C23.5147 18.2715 23.9335 18.1739 24.359 18.1628C24.7845 18.1516 25.2079 18.227 25.6033 18.3845C25.9988 18.542 26.3581 18.7782 26.6594 19.0788C26.9608 19.3795 27.1978 19.7383 27.3562 20.1334C27.5146 20.5285 27.5909 20.9516 27.5807 21.3772C27.5705 21.8027 27.4738 22.2217 27.2966 22.6087C27.1195 22.9958 26.8654 23.3427 26.55 23.6285L26.51 23.6185Z" fill="black"/>
</svg>
