<svg width="32" height="32" viewBox="0 0 32 32" fill="none" xmlns="http://www.w3.org/2000/svg">
<path fill-rule="evenodd" clip-rule="evenodd" d="M17.6 5.97447V7.75457C17.6 10.119 16.5661 11.697 15.1884 13.0768C14.3883 13.9267 13.5801 14.7376 12.7923 15.3384C12.0198 15.9276 11.1537 16.4046 10.25 16.4046H10.2V24.3046H11.25C11.6231 24.3046 11.9666 24.4398 12.2295 24.5722C12.5016 24.7092 12.7653 24.8843 12.9866 25.036C13.047 25.0774 13.1033 25.1164 13.1565 25.1532C13.3143 25.2625 13.4439 25.3522 13.5648 25.4254C13.6323 25.4662 13.6795 25.4908 13.7103 25.5046H23.95C25.0739 25.5046 25.6252 25.0856 25.9225 24.6313C26.1394 24.2999 26.2536 23.8975 26.2943 23.5046H23.35C22.9358 23.5046 22.6 23.1688 22.6 22.7546C22.6 22.3404 22.9358 22.0046 23.35 22.0046H27.0289C27.4543 21.6916 27.6173 21.209 27.6515 20.6695C27.6693 20.39 27.6484 20.1215 27.6178 19.9046H23.35C22.9358 19.9046 22.6 19.5688 22.6 19.1546C22.6 18.7404 22.9358 18.4046 23.35 18.4046H28.0023C28.1908 18.1284 28.3122 17.7833 28.3548 17.4077C28.4055 16.9598 28.3366 16.5295 28.1918 16.2046H23.35C22.9358 16.2046 22.6 15.8688 22.6 15.4546C22.6 15.0404 22.9358 14.7046 23.35 14.7046H28.3666C28.5541 14.159 28.5187 13.7082 28.3797 13.4024C28.2092 13.0272 27.8082 12.7046 27.05 12.7046H20.2502C20.0285 12.7046 19.8179 12.6065 19.6754 12.4366C19.5329 12.2668 19.4729 12.0426 19.5114 11.8242C19.5209 11.7705 19.5304 11.7167 19.54 11.6628C19.8383 9.97738 20.1489 8.22306 19.5385 6.39174C19.5341 6.37857 19.5301 6.36529 19.5264 6.3519C19.4122 5.93323 19.2403 5.73333 19.1015 5.63466C18.9603 5.53435 18.7814 5.48754 18.565 5.50273C18.343 5.5183 18.1051 5.59921 17.9001 5.72502C17.7645 5.8083 17.6656 5.89713 17.6 5.97447ZM21.1431 11.2046H27.05C28.2918 11.2046 29.2908 11.7819 29.7453 12.7817C30.1363 13.6421 30.06 14.6743 29.592 15.6633C29.8378 16.2514 29.9184 16.9302 29.8452 17.5764C29.7703 18.2387 29.5269 18.9244 29.0687 19.4807C29.0738 19.5091 29.0789 19.5387 29.0839 19.5693C29.1337 19.8732 29.1781 20.298 29.1485 20.7646C29.0967 21.5799 28.8019 22.6322 27.8099 23.2901C27.7921 23.9643 27.6312 24.7596 27.1775 25.4528C26.5748 26.3736 25.5261 27.0046 23.95 27.0046H13.65C13.4482 27.0046 13.2724 26.9468 13.15 26.8963C13.0208 26.843 12.8972 26.7747 12.7883 26.7088C12.6239 26.6093 12.4404 26.4821 12.2735 26.3664C12.2269 26.3341 12.1816 26.3028 12.1384 26.2731C11.9222 26.1249 11.7297 26 11.5549 25.9119C11.3709 25.8193 11.2769 25.8046 11.25 25.8046H10.2V26.2546C10.2 26.6688 9.86421 27.0046 9.45 27.0046H2.75C2.33579 27.0046 2 26.6688 2 26.2546V14.3546C2 13.9404 2.33579 13.6046 2.75 13.6046H9.45C9.86421 13.6046 10.2 13.9404 10.2 14.3546V14.9046H10.25C10.6463 14.9046 11.1802 14.6815 11.8827 14.1457C12.5674 13.6235 13.3066 12.8877 14.1038 12.0405C14.109 12.035 14.1143 12.0296 14.1197 12.0242C15.3379 10.806 16.1 9.5855 16.1 7.75457V5.75544C16.1 5.63901 16.1271 5.5233 16.1792 5.41916C16.3831 5.01141 16.7361 4.67949 17.1155 4.44661C17.5011 4.20993 17.9695 4.04083 18.46 4.00641C18.9561 3.97159 19.4959 4.07478 19.9704 4.41197C20.4424 4.74738 20.7809 5.26531 20.9679 5.93662C21.6011 7.85237 21.3979 9.68615 21.1431 11.2046ZM8.7 15.1046H3.5V25.5046H8.7V15.1046Z" fill="black"/>
</svg>
