<svg width="32" height="32" viewBox="0 0 32 32" fill="none" xmlns="http://www.w3.org/2000/svg">
<path fill-rule="evenodd" clip-rule="evenodd" d="M15.9744 2C23.6561 2 29.9772 8.2644 29.9772 15.9744C29.9772 23.6844 23.7128 29.9488 16.0028 29.9488C13.565 29.9488 11.1557 29.3252 9.05807 28.1064L8.97304 28.0497L4.63615 29.2969C4.06923 29.467 3.47398 29.2969 3.07714 28.9C2.6803 28.4749 2.51022 27.8796 2.6803 27.341L3.92751 23.0608L3.87081 22.9758C2.65195 20.8499 2 18.4405 2 15.9744C2 8.29274 8.2644 2 15.9744 2ZM15.9744 3.10548C8.85965 3.10548 3.07714 8.888 3.07714 16.0028C3.07714 18.3838 3.72909 20.7081 4.9763 22.7207L5.08968 22.9191L3.70074 27.6528C3.64405 27.8229 3.70074 28.0213 3.84247 28.1347C3.95585 28.2481 4.15427 28.3048 4.32435 28.2481L9.08642 26.8875L9.31319 27.0009C11.2974 28.2198 13.6217 28.8717 15.9744 28.8717C23.0608 28.8717 28.8434 23.0892 28.8717 16.0028C28.8717 8.888 23.0892 3.10548 15.9744 3.10548ZM19.1113 7.72583C20.7286 7.72583 22.0887 9.10091 22.0887 10.7361C22.0887 12.3714 20.7654 13.7464 19.1113 13.7464C18.2291 13.7464 17.4205 13.3376 16.8691 12.7058L12.8625 14.7499C13.1566 15.233 13.3036 15.7533 13.3036 16.348C13.3036 16.7568 13.1934 17.1656 13.0463 17.5372L16.7221 19.6556C17.2734 18.9123 18.1189 18.4292 19.1113 18.4292C20.7654 18.4292 22.1254 19.8042 22.1254 21.4395C22.1254 23.0747 20.7654 24.4498 19.1481 24.4498C17.5307 24.4498 16.1707 23.1119 16.1707 21.4395C16.1707 21.2908 16.1707 21.105 16.2075 20.9563L12.2377 18.6893C11.7231 19.0981 11.0614 19.3583 10.363 19.3583C8.74571 19.3583 7.38568 17.9832 7.38568 16.348C7.38568 14.7127 8.70895 13.3376 10.363 13.3376C10.8776 13.3376 11.3922 13.4863 11.8333 13.7464L16.2442 11.4794C16.1707 11.2193 16.134 10.9963 16.134 10.7361C16.134 9.10091 17.494 7.72583 19.1113 7.72583ZM19.1491 19.631C18.1208 19.631 17.3067 20.4451 17.3067 21.4735C17.3067 22.5018 18.1208 23.316 19.1491 23.316C20.1775 23.316 20.9916 22.5018 20.9916 21.4735C20.9916 20.4451 20.1775 19.631 19.1491 19.631ZM10.362 14.5288C9.33362 14.5288 8.51951 15.3429 8.51951 16.3713C8.51951 17.3996 9.33362 18.2137 10.362 18.2137C11.3903 18.2137 12.2044 17.3996 12.2044 16.3713C12.2044 15.3429 11.3903 14.5288 10.362 14.5288ZM19.1491 8.85965C18.1208 8.85965 17.3067 9.67377 17.3067 10.7021C17.3067 11.7305 18.1208 12.5446 19.1491 12.5446C20.1775 12.5446 20.9916 11.7305 20.9916 10.7021C20.9916 9.67377 20.1775 8.85965 19.1491 8.85965Z" fill="black"/>
</svg>
