<svg width="32" height="32" viewBox="0 0 32 32" fill="none" xmlns="http://www.w3.org/2000/svg">
<path fill-rule="evenodd" clip-rule="evenodd" d="M16 4.50538C9.08953 4.50538 3.50538 10.0895 3.50538 17C3.50538 22.1213 6.44145 26.4721 10.7929 28.4587C11.171 28.6313 11.3376 29.0778 11.165 29.456C10.9924 29.8341 10.5459 30.0007 10.1677 29.8281C5.28615 27.5995 2 22.7174 2 17C2 9.25814 8.25814 3 16 3C23.7419 3 30 9.25814 30 17C30 22.725 26.607 27.5999 21.838 29.8254C21.4613 30.0012 21.0134 29.8384 20.8376 29.4617C20.6618 29.085 20.8247 28.6371 21.2014 28.4613C25.4647 26.4718 28.4946 22.1137 28.4946 17C28.4946 10.0895 22.9105 4.50538 16 4.50538ZM16 9.32258C11.7047 9.32258 8.32258 12.7934 8.32258 17C8.32258 20.1076 10.1482 22.7538 12.7953 23.9404C13.1747 24.1104 13.3443 24.5558 13.1743 24.9351C13.0042 25.3145 12.5589 25.4841 12.1796 25.3141C9.00587 23.8914 6.8172 20.7167 6.8172 17C6.8172 11.9737 10.8616 7.8172 16 7.8172C21.1325 7.8172 25.1828 11.8675 25.1828 17C25.1828 20.7167 22.9941 23.8914 19.8204 25.3141C19.4411 25.4841 18.9958 25.3145 18.8257 24.9351C18.6557 24.5558 18.8253 24.1104 19.2047 23.9404C21.8517 22.7538 23.6774 20.1076 23.6774 17C23.6774 12.6989 20.3011 9.32258 16 9.32258ZM16 14.7419C14.7529 14.7419 13.7419 15.7529 13.7419 17C13.7419 18.2471 14.7529 19.2581 16 19.2581C17.2471 19.2581 18.2581 18.2471 18.2581 17C18.2581 15.7529 17.2471 14.7419 16 14.7419ZM12.2366 17C12.2366 14.9215 13.9215 13.2366 16 13.2366C18.0785 13.2366 19.7634 14.9215 19.7634 17C19.7634 19.0785 18.0785 20.7634 16 20.7634C13.9215 20.7634 12.2366 19.0785 12.2366 17Z" fill="black"/>
</svg>
