<svg width="32" height="32" viewBox="0 0 32 32" fill="none" xmlns="http://www.w3.org/2000/svg">
<path d="M16.0165 2.15641C15.8865 2.05505 15.7264 2 15.5615 2C15.3967 2 15.2365 2.05505 15.1065 2.15641C13.5504 3.46772 12.2575 5.06264 11.2965 6.85641H19.8265C18.8693 5.06019 17.5758 3.4646 16.0165 2.15641Z" fill="black"/>
<path d="M15.5765 24.7564C15.4777 24.7551 15.3795 24.7735 15.2879 24.8108C15.1963 24.848 15.1131 24.9032 15.0432 24.9731C14.9733 25.043 14.9181 25.1262 14.8809 25.2178C14.8437 25.3094 14.8252 25.4075 14.8265 25.5064V29.2464C14.8265 29.4453 14.9055 29.6361 15.0462 29.7767C15.1869 29.9174 15.3776 29.9964 15.5765 29.9964C15.7754 29.9964 15.9662 29.9174 16.1069 29.7767C16.2475 29.6361 16.3265 29.4453 16.3265 29.2464V25.5064C16.3265 25.3075 16.2475 25.1167 16.1069 24.9761C15.9662 24.8354 15.7754 24.7564 15.5765 24.7564Z" fill="black"/>
<path d="M12.4465 24.7564C12.3477 24.7551 12.2495 24.7735 12.1579 24.8108C12.0663 24.848 11.9831 24.9032 11.9132 24.9731C11.8433 25.043 11.7881 25.1262 11.7509 25.2178C11.7137 25.3094 11.6952 25.4075 11.6965 25.5064V27.7964C11.6965 27.9953 11.7755 28.1861 11.9162 28.3267C12.0569 28.4674 12.2476 28.5464 12.4465 28.5464C12.6454 28.5464 12.8362 28.4674 12.9769 28.3267C13.1175 28.1861 13.1965 27.9953 13.1965 27.7964V25.5064C13.1965 25.3075 13.1175 25.1167 12.9769 24.9761C12.8362 24.8354 12.6454 24.7564 12.4465 24.7564Z" fill="black"/>
<path d="M22.0165 16.4364C22.0165 16.0964 22.0165 15.7464 22.0165 15.3664C22.0246 12.9587 21.5343 10.5754 20.5765 8.36641H10.5765C9.62341 10.5769 9.13333 12.9592 9.13653 15.3664C9.13653 15.7464 9.13653 16.0964 9.13653 16.4364C5.02653 19.4364 6.13653 24.8364 6.13653 25.0764C6.16083 25.19 6.21151 25.2962 6.28447 25.3865C6.35743 25.4769 6.45063 25.5488 6.55653 25.5964C6.65628 25.6444 6.76586 25.6683 6.87653 25.6664C6.99433 25.6648 7.11036 25.6375 7.21653 25.5864L11.8065 23.2064H19.2565L23.8465 25.5864C23.953 25.6366 24.0688 25.6639 24.1865 25.6664C24.3003 25.6674 24.413 25.6435 24.5165 25.5964C24.6201 25.5469 24.7109 25.4743 24.782 25.3841C24.8531 25.294 24.9025 25.1887 24.9265 25.0764C25.0165 24.8364 26.0865 19.4364 22.0165 16.4364ZM15.5765 16.9964C14.9832 16.9964 14.4032 16.8205 13.9098 16.4908C13.4165 16.1612 13.032 15.6926 12.8049 15.1445C12.5778 14.5963 12.5184 13.9931 12.6342 13.4111C12.7499 12.8292 13.0357 12.2946 13.4552 11.8751C13.8748 11.4555 14.4093 11.1698 14.9913 11.0541C15.5732 10.9383 16.1764 10.9977 16.7246 11.2248C17.2728 11.4518 17.7413 11.8364 18.0709 12.3297C18.4006 12.823 18.5765 13.4031 18.5765 13.9964C18.5765 14.7921 18.2605 15.5551 17.6978 16.1177C17.1352 16.6803 16.3722 16.9964 15.5765 16.9964Z" fill="black"/>
<path d="M15.5765 15.4664C16.4215 15.4664 17.1065 14.7814 17.1065 13.9364C17.1065 13.0914 16.4215 12.4064 15.5765 12.4064C14.7315 12.4064 14.0465 13.0914 14.0465 13.9364C14.0465 14.7814 14.7315 15.4664 15.5765 15.4664Z" fill="black"/>
<path d="M18.6965 24.7564C18.4976 24.7564 18.3069 24.8354 18.1662 24.9761C18.0255 25.1167 17.9465 25.3075 17.9465 25.5064V27.7964C17.9465 27.9953 18.0255 28.1861 18.1662 28.3267C18.3069 28.4674 18.4976 28.5464 18.6965 28.5464C18.8954 28.5464 19.0862 28.4674 19.2269 28.3267C19.3675 28.1861 19.4465 27.9953 19.4465 27.7964V25.5064C19.4479 25.4075 19.4294 25.3094 19.3922 25.2178C19.355 25.1262 19.2998 25.043 19.2299 24.9731C19.1599 24.9032 19.0767 24.848 18.9851 24.8108C18.8935 24.7735 18.7954 24.7551 18.6965 24.7564Z" fill="black"/>
</svg>
