<svg width="32" height="32" viewBox="0 0 32 32" fill="none" xmlns="http://www.w3.org/2000/svg">
<path fill-rule="evenodd" clip-rule="evenodd" d="M16.745 25.9589V30H15.2548V25.9589H16.745ZM19.398 25.9589V28.4312H17.9078V25.9589H19.398ZM14.0921 25.9589V28.4312H12.6019V25.9589H14.0921ZM15.9692 1L16.4315 1.34056C16.6878 1.52827 22.7061 6.06634 22.7061 15.9859C22.7061 16.1602 22.7037 16.3328 22.6991 16.5037C27.0403 19.8412 25.8707 25.861 25.8183 26.1183L25.6149 27.1145L20.0352 24.0883H11.9642L6.3851 27.1145L6.18168 26.1183C6.12927 25.8607 4.95723 19.8285 9.31507 16.4927C9.30113 16.1983 9.29414 15.9006 9.29414 15.6003C9.29414 6.72859 15.2747 1.58564 15.5296 1.37106L15.9692 1ZM22.542 18.4033L22.5167 18.5746C22.2657 20.2004 21.7659 21.6407 21.0213 22.882L24.4775 24.7571C24.5687 23.2473 24.4391 20.4152 22.542 18.4033ZM9.49947 18.3597L9.48041 18.3796C7.56223 20.3926 7.43096 23.2407 7.5225 24.7571L10.9897 22.8763C10.2722 21.6283 9.76264 20.0772 9.49947 18.3597ZM19.2305 7.31279L12.8773 7.31285C11.7454 9.44667 10.7844 12.2461 10.7844 15.6003C10.7844 18.3393 11.4423 20.9001 12.557 22.5467H19.4462C20.6209 20.8584 21.2158 18.653 21.2158 15.9859C21.2158 12.3176 20.3137 9.44256 19.2305 7.31279ZM16 9.26826C18.0542 9.26826 19.7255 10.9976 19.7255 13.1223C19.7255 15.2477 18.0542 16.9767 16 16.9767C13.9457 16.9767 12.2745 15.2477 12.2745 13.1223C12.2745 10.9976 13.9457 9.26826 16 9.26826ZM16 10.8099C14.7672 10.8099 13.7647 11.8472 13.7647 13.1223C13.7647 14.3978 14.7672 15.4351 16 15.4351C17.2328 15.4351 18.2353 14.3978 18.2353 13.1223C18.2353 11.8472 17.2328 10.8099 16 10.8099ZM16.0266 2.98747C15.5266 3.49028 14.6689 4.43392 13.7903 5.77114L18.3417 5.77109C17.441 4.38481 16.5471 3.4651 16.0266 2.98747Z" fill="black"/>
</svg>
