<svg width="32" height="32" viewBox="0 0 32 32" fill="none" xmlns="http://www.w3.org/2000/svg">
<path d="M17.2545 6.31362C16.2509 5.81183 15.147 5.91219 14.3441 6.6147L8.12186 11.3315H2.80287C2.30108 11.3315 2 11.733 2 12.1344V19.7616C2 20.1631 2.30108 20.5645 2.80287 20.5645H8.12186L14.3441 25.3817C14.8459 25.7832 15.448 25.9839 16.0502 25.9839C16.4516 25.9839 16.853 25.8835 17.2545 25.6828C18.2581 25.181 18.8602 24.2778 18.8602 23.1738V8.82258C18.8602 7.71864 18.2581 6.81541 17.2545 6.31362ZM7.62007 18.9588H3.50538V12.8369H7.62007V18.9588ZM17.3548 23.0735C17.3548 23.5753 17.0538 23.9767 16.6523 24.2778C16.2509 24.4785 15.6487 24.4785 15.2473 24.1774L9.02509 19.4606V12.5358L15.2473 7.819C15.6487 7.51792 16.1505 7.41756 16.6523 7.71864C17.0538 7.91935 17.3548 8.42115 17.3548 8.92294V23.0735Z" fill="black"/>
<path d="M22.0717 12.034C21.7706 11.733 21.2688 11.733 20.9677 12.034C20.6667 12.3351 20.6667 12.8369 20.9677 13.138C21.7706 13.9409 22.172 14.9444 22.172 16.0484C22.172 17.1523 21.7706 18.1559 20.9677 18.9588C20.6667 19.2599 20.6667 19.7616 20.9677 20.0627C21.0681 20.1631 21.2688 20.2634 21.4695 20.2634C21.6703 20.2634 21.871 20.1631 21.9713 20.0627C22.9749 19.0591 23.5771 17.6541 23.5771 16.1487C23.5771 14.6434 23.0753 13.0376 22.0717 12.034Z" fill="black"/>
<path d="M24.2796 9.72581C23.9785 9.42473 23.4767 9.42473 23.1756 9.72581C22.8746 10.0269 22.8746 10.5287 23.1756 10.8297C24.5806 12.2348 25.2832 14.0412 25.2832 15.948C25.2832 17.8548 24.4803 19.6613 23.1756 21.0663C22.8746 21.3674 22.8746 21.8692 23.1756 22.1702C23.276 22.2706 23.4767 22.371 23.6774 22.371C23.8781 22.371 24.0789 22.2706 24.1792 22.1702C25.7849 20.5645 26.7885 18.3566 26.7885 15.948C26.7885 13.5394 25.8853 11.4319 24.2796 9.72581Z" fill="black"/>
<path d="M26.5878 7.41756C26.2867 7.11649 25.7849 7.11649 25.4839 7.41756C25.1828 7.71864 25.1828 8.22043 25.4839 8.52151C27.491 10.5287 28.595 13.138 28.595 15.948C28.595 18.7581 27.491 21.3674 25.4839 23.3746C25.1828 23.6756 25.1828 24.1774 25.4839 24.4785C25.5842 24.5789 25.7849 24.6792 25.9857 24.6792C26.1864 24.6792 26.3871 24.5789 26.4875 24.4785C28.7957 22.1703 30 19.1595 30 15.948C30 12.7366 28.8961 9.72581 26.5878 7.41756Z" fill="black"/>
</svg>
