<svg width="32" height="32" viewBox="0 0 32 32" fill="none" xmlns="http://www.w3.org/2000/svg">
<path d="M23.3428 5.29173C25.8966 8.01013 27.4643 11.679 27.4643 15.714C27.4643 19.687 25.9432 23.3063 23.4521 26.0182L23.3414 26.1369L23.3399 26.1377L22.1935 25.0475C24.4798 22.6144 25.8857 19.3294 25.8857 15.7154C25.8857 12.1014 24.4812 8.81656 22.188 6.3766L22.1949 6.38335L23.3428 5.29173ZM16.0792 6.13949V25.3108L9.75773 20.0057H4V11.4266H9.75773L16.0792 6.13949ZM20.1801 8.58488C21.9274 10.4447 23.0013 12.9545 23.0013 15.7154C23.0013 18.4242 21.9676 20.8914 20.2744 22.7453L20.1797 22.8468L19.0513 21.7558C20.5325 20.1812 21.4419 18.0553 21.4419 15.7168C21.4419 13.3784 20.5325 11.2523 19.0472 9.67228L19.0513 9.6765L20.1801 8.58488Z" fill="black"/>
</svg>
