<svg width="32" height="32" viewBox="0 0 32 32" fill="none" xmlns="http://www.w3.org/2000/svg">
<path d="M19.44 15.0027C19.2655 15.0007 19.0944 15.0506 18.9484 15.1461C18.8024 15.2416 18.688 15.3783 18.6199 15.5389C18.5518 15.6996 18.5329 15.8768 18.5657 16.0482C18.5985 16.2195 18.6815 16.3773 18.8042 16.5013C18.9269 16.6254 19.0836 16.7102 19.2546 16.745C19.4256 16.7798 19.603 16.7629 19.7644 16.6966C19.9258 16.6303 20.0638 16.5175 20.161 16.3726C20.2581 16.2277 20.31 16.0572 20.31 15.8827C20.3113 15.7676 20.2898 15.6534 20.2467 15.5467C20.2035 15.44 20.1397 15.3429 20.0587 15.261C19.9778 15.1792 19.8815 15.1142 19.7753 15.0699C19.6691 15.0255 19.5551 15.0027 19.44 15.0027Z" fill="black"/>
<path d="M24.34 9.87269C24.1994 9.73224 24.0088 9.65335 23.81 9.65335C23.6112 9.65335 23.4206 9.73224 23.28 9.87269C23.2092 9.94164 23.153 10.0241 23.1146 10.1151C23.0762 10.2061 23.0564 10.3039 23.0564 10.4027C23.0564 10.5015 23.0762 10.5993 23.1146 10.6903C23.153 10.7813 23.2092 10.8637 23.28 10.9327C23.9316 11.5829 24.4485 12.3552 24.8012 13.2055C25.154 14.0557 25.3355 14.9672 25.3355 15.8877C25.3355 16.8082 25.154 17.7197 24.8012 18.5699C24.4485 19.4202 23.9316 20.1925 23.28 20.8427C23.2089 20.9125 23.1525 20.9958 23.114 21.0876C23.0755 21.1795 23.0556 21.2781 23.0556 21.3777C23.0556 21.4773 23.0755 21.5759 23.114 21.6678C23.1525 21.7596 23.2089 21.8429 23.28 21.9127C23.3501 21.981 23.433 22.0347 23.524 22.0708C23.6149 22.1068 23.7122 22.1245 23.81 22.1227C24.007 22.1231 24.1967 22.0479 24.34 21.9127C25.9228 20.3169 26.811 18.1603 26.811 15.9127C26.811 13.6651 25.9228 11.5085 24.34 9.91269V9.87269Z" fill="black"/>
<path d="M18 20.0027C17.8011 20.0027 17.6103 20.0817 17.4697 20.2224C17.329 20.363 17.25 20.5538 17.25 20.7527V23.0027C17.2522 23.2431 17.1856 23.4791 17.058 23.6829C16.9304 23.8867 16.7472 24.0497 16.53 24.1527C16.3188 24.25 16.085 24.2875 15.854 24.261C15.623 24.2346 15.4037 24.1452 15.22 24.0027L9.07 19.3227V12.4527L15.22 7.76269C15.4097 7.615 15.6379 7.52513 15.8773 7.50385C16.1168 7.48256 16.3573 7.53077 16.57 7.64269C16.7872 7.74572 16.9704 7.90874 17.098 8.11251C17.2256 8.31628 17.2922 8.55229 17.29 8.79269V11.0827C17.29 11.2816 17.369 11.4724 17.5097 11.613C17.6503 11.7537 17.8411 11.8327 18.04 11.8327C18.2389 11.8327 18.4297 11.7537 18.5703 11.613C18.711 11.4724 18.79 11.2816 18.79 11.0827V8.79269C18.7924 8.27299 18.649 7.76303 18.3762 7.32069C18.1034 6.87835 17.7121 6.52133 17.2466 6.29016C16.7811 6.05899 16.2602 5.96293 15.7429 6.01287C15.2256 6.06281 14.7326 6.25675 14.32 6.57269L8.06 11.3327H2.75C2.55189 11.3353 2.36263 11.4151 2.22253 11.5552C2.08244 11.6953 2.00259 11.8846 2 12.0827V19.6927C2 19.8916 2.07902 20.0824 2.21967 20.223C2.36032 20.3637 2.55109 20.4427 2.75 20.4427H8.06L14.32 25.2027C14.7313 25.5176 15.2224 25.7113 15.7379 25.762C16.2534 25.8127 16.7729 25.7184 17.2376 25.4896C17.7024 25.2609 18.094 24.9069 18.3683 24.4674C18.6426 24.028 18.7886 23.5207 18.79 23.0027V20.7027C18.7771 20.5055 18.6869 20.3213 18.539 20.1902C18.391 20.0591 18.1973 19.9917 18 20.0027ZM7.53 19.0027H3.5V12.8327H7.57L7.53 19.0027Z" fill="black"/>
<path d="M22.15 12.0627C22.0811 11.9919 21.9986 11.9357 21.9076 11.8973C21.8166 11.8589 21.7188 11.8391 21.62 11.8391C21.5212 11.8391 21.4234 11.8589 21.3324 11.8973C21.2414 11.9357 21.1589 11.9919 21.09 12.0627C20.9496 12.2033 20.8707 12.3939 20.8707 12.5927C20.8707 12.7914 20.9496 12.9821 21.09 13.1227C21.4546 13.486 21.744 13.9177 21.9414 14.393C22.1388 14.8683 22.2404 15.378 22.2404 15.8927C22.2404 16.4074 22.1388 16.9171 21.9414 17.3924C21.744 17.8677 21.4546 18.2994 21.09 18.6627C20.9496 18.8033 20.8707 18.9939 20.8707 19.1927C20.8707 19.3914 20.9496 19.5821 21.09 19.7227C21.2306 19.8631 21.4212 19.942 21.62 19.942C21.8188 19.942 22.0094 19.8631 22.15 19.7227C22.6537 19.2202 23.0534 18.6232 23.3261 17.966C23.5987 17.3088 23.7391 16.6042 23.7391 15.8927C23.7391 15.1812 23.5987 14.4766 23.3261 13.8194C23.0534 13.1622 22.6537 12.5652 22.15 12.0627Z" fill="black"/>
<path d="M16.83 15.0027C16.656 15.0027 16.4858 15.0543 16.3411 15.151C16.1964 15.2477 16.0836 15.3851 16.017 15.5459C15.9504 15.7067 15.933 15.8837 15.9669 16.0544C16.0009 16.2251 16.0847 16.3819 16.2077 16.5049C16.3308 16.628 16.4876 16.7118 16.6583 16.7458C16.829 16.7797 17.006 16.7623 17.1668 16.6957C17.3276 16.6291 17.465 16.5163 17.5617 16.3716C17.6584 16.2269 17.71 16.0567 17.71 15.8827C17.7113 15.7668 17.6895 15.6517 17.6457 15.5444C17.602 15.437 17.5372 15.3394 17.4552 15.2575C17.3733 15.1755 17.2757 15.1107 17.1683 15.067C17.061 15.0232 16.9459 15.0014 16.83 15.0027Z" fill="black"/>
<path d="M26.58 7.63269C26.5111 7.56194 26.4286 7.5057 26.3376 7.4673C26.2466 7.42891 26.1488 7.40912 26.05 7.40912C25.9512 7.40912 25.8534 7.42891 25.7624 7.4673C25.6714 7.5057 25.5889 7.56194 25.52 7.63269C25.3796 7.77332 25.3007 7.96394 25.3007 8.16269C25.3007 8.36145 25.3796 8.55207 25.52 8.69269C27.4277 10.6032 28.4992 13.1928 28.4992 15.8927C28.4992 18.5926 27.4277 21.1821 25.52 23.0927C25.4492 23.1616 25.393 23.2441 25.3546 23.3351C25.3162 23.4261 25.2964 23.5239 25.2964 23.6227C25.2964 23.7215 25.3162 23.8193 25.3546 23.9103C25.393 24.0013 25.4492 24.0837 25.52 24.1527C25.6617 24.2916 25.8516 24.3704 26.05 24.3727C26.248 24.3684 26.4372 24.2899 26.58 24.1527C27.6649 23.0681 28.5255 21.7804 29.1126 20.3631C29.6998 18.9458 30.002 17.4268 30.002 15.8927C30.002 14.3586 29.6998 12.8396 29.1126 11.4223C28.5255 10.005 27.6649 8.71732 26.58 7.63269Z" fill="black"/>
<path d="M13.35 15.8927C13.352 16.0663 13.4053 16.2354 13.5031 16.3788C13.601 16.5222 13.7391 16.6335 13.9001 16.6985C14.0611 16.7636 14.2377 16.7796 14.4077 16.7445C14.5778 16.7095 14.7336 16.6249 14.8557 16.5014C14.9778 16.378 15.0606 16.2212 15.0938 16.0507C15.1269 15.8803 15.1089 15.7039 15.042 15.5437C14.9751 15.3834 14.8623 15.2466 14.7178 15.1503C14.5734 15.0541 14.4036 15.0027 14.23 15.0027C14.1132 15.0013 13.9973 15.0235 13.8893 15.0678C13.7812 15.1122 13.6832 15.1779 13.6011 15.2609C13.519 15.344 13.4544 15.4427 13.4113 15.5513C13.3682 15.6598 13.3473 15.7759 13.35 15.8927Z" fill="black"/>
</svg>
