<svg width="32" height="32" viewBox="0 0 32 32" fill="none" xmlns="http://www.w3.org/2000/svg">
<path d="M29.9161 13.11C29.6861 12.41 29.0661 11.96 28.3361 11.96H20.1261L17.5861 4.15C17.3561 3.45 16.7361 3 15.9961 3C15.2661 3 14.6361 3.45 14.4161 4.15L11.8761 11.96H3.6661C2.9261 11.96 2.3061 12.41 2.0861 13.11C1.8561 13.81 2.0961 14.54 2.6961 14.97L9.3361 19.8L6.7961 27.61C6.5661 28.31 6.8061 29.04 7.3961 29.47C7.9961 29.9 8.7561 29.9 9.3561 29.47L15.9961 24.64L22.6361 29.47C22.9361 29.69 23.2761 29.79 23.6161 29.79C23.9561 29.79 24.2961 29.68 24.5961 29.47C25.1861 29.04 25.4261 28.31 25.1961 27.61L22.6561 19.8L29.2961 14.97C29.9061 14.54 30.1461 13.81 29.9161 13.11ZM28.4261 13.76L21.3461 18.91C21.0861 19.1 20.9761 19.44 21.0761 19.75L23.7861 28.08C23.7961 28.11 23.8261 28.19 23.7261 28.27C23.6261 28.34 23.5561 28.29 23.5261 28.27L16.4461 23.12L15.9961 22.79V4.5C16.1161 4.5 16.1461 4.59 16.1561 4.62L18.8661 12.95C18.9661 13.26 19.2561 13.47 19.5761 13.47H28.3361C28.3661 13.47 28.4561 13.47 28.4961 13.58C28.5361 13.69 28.4561 13.74 28.4261 13.76Z" fill="black"/>
</svg>
