<svg width="32" height="32" viewBox="0 0 32 32" fill="none" xmlns="http://www.w3.org/2000/svg">
<path d="M16 2C13.2311 2 10.5243 2.82109 8.22202 4.35943C5.91973 5.89777 4.12532 8.08427 3.06569 10.6424C2.00607 13.2006 1.72882 16.0155 2.26901 18.7313C2.80921 21.447 4.14258 23.9416 6.10051 25.8995C8.05845 27.8574 10.553 29.1908 13.2687 29.731C15.9845 30.2712 18.7994 29.9939 21.3576 28.9343C23.9157 27.8747 26.1022 26.0803 27.6406 23.778C29.1789 21.4757 30 18.7689 30 16C30 12.287 28.525 8.72601 25.8995 6.1005C23.274 3.475 19.713 2 16 2ZM23 11.73L15.05 22.36C14.9306 22.5353 14.7752 22.683 14.5941 22.7934C14.413 22.9037 14.2105 22.9742 14 23H13.89C13.6928 23.0021 13.4971 22.9641 13.315 22.8885C13.1328 22.8129 12.9678 22.7011 12.83 22.56L8.13001 17.87C7.98263 17.7327 7.86443 17.5671 7.78244 17.3831C7.70046 17.1991 7.65638 17.0005 7.65282 16.799C7.64927 16.5976 7.68632 16.3976 7.76176 16.2108C7.8372 16.024 7.94949 15.8544 8.09193 15.7119C8.23437 15.5695 8.40403 15.4572 8.59081 15.3818C8.77759 15.3063 8.97765 15.2693 9.17905 15.2728C9.38046 15.2764 9.57908 15.3205 9.76308 15.4024C9.94708 15.4844 10.1127 15.6026 10.25 15.75L13.68 19.18L20.6 9.93C20.8387 9.61174 21.194 9.40134 21.5879 9.34508C21.9817 9.28881 22.3817 9.39131 22.7 9.63C23.0183 9.86869 23.2287 10.224 23.2849 10.6179C23.3412 11.0117 23.2387 11.4117 23 11.73Z" fill="black"/>
</svg>
