<svg width="32" height="32" viewBox="0 0 32 32" fill="none" xmlns="http://www.w3.org/2000/svg">
<path d="M16 30C18.7689 30 21.4757 29.1789 23.778 27.6406C26.0803 26.1022 27.8747 23.9157 28.9343 21.3576C29.9939 18.7994 30.2712 15.9845 29.731 13.2687C29.1908 10.553 27.8574 8.05845 25.8995 6.10051C23.9416 4.14258 21.447 2.80921 18.7313 2.26901C16.0155 1.72882 13.2006 2.00607 10.6424 3.06569C8.08426 4.12532 5.89776 5.91973 4.35943 8.22202C2.82109 10.5243 2 13.2311 2 16C2 19.713 3.475 23.274 6.1005 25.8995C8.72601 28.525 12.287 30 16 30ZM11.2225 13.4275C10.9301 13.1351 10.7658 12.7385 10.7658 12.325C10.7658 11.9115 10.9301 11.5149 11.2225 11.2225C11.5149 10.9301 11.9115 10.7658 12.325 10.7658C12.7385 10.7658 13.1351 10.9301 13.4275 11.2225L16 13.795L18.5725 11.2225C18.7173 11.0777 18.8892 10.9629 19.0783 10.8845C19.2675 10.8062 19.4702 10.7658 19.675 10.7658C19.8797 10.7658 20.0825 10.8062 20.2717 10.8845C20.4608 10.9629 20.6327 11.0777 20.7775 11.2225C20.9223 11.3673 21.0371 11.5392 21.1155 11.7283C21.1938 11.9175 21.2342 12.1203 21.2342 12.325C21.2342 12.5298 21.1938 12.7325 21.1155 12.9217C21.0371 13.1108 20.9223 13.2827 20.7775 13.4275L18.205 16L20.7775 18.5725C21.062 18.869 21.2208 19.2641 21.2208 19.675C21.2208 20.0859 21.062 20.481 20.7775 20.7775C20.4808 21.0632 20.0868 21.2258 19.675 21.2325C19.4702 21.2338 19.2672 21.1942 19.0779 21.1161C18.8886 21.0379 18.7168 20.9228 18.5725 20.7775L16 18.205L13.4275 20.7775C13.1356 21.0727 12.74 21.2422 12.325 21.25C11.9132 21.2433 11.5192 21.0807 11.2225 20.795C10.938 20.4985 10.7792 20.1034 10.7792 19.6925C10.7792 19.2816 10.938 18.8865 11.2225 18.59L13.795 16L11.2225 13.4275Z" fill="black"/>
</svg>
