<svg width="32" height="32" viewBox="0 0 32 32" fill="none" xmlns="http://www.w3.org/2000/svg">
<path d="M16 2C13.2311 2 10.5243 2.82109 8.22202 4.35943C5.91973 5.89777 4.12532 8.08427 3.06569 10.6424C2.00607 13.2006 1.72882 16.0155 2.26901 18.7313C2.80921 21.447 4.14258 23.9416 6.10051 25.8995C8.05845 27.8574 10.553 29.1908 13.2687 29.731C15.9845 30.2712 18.7994 29.9939 21.3576 28.9343C23.9157 27.8747 26.1022 26.0803 27.6406 23.778C29.1789 21.4757 30 18.7689 30 16C30 12.287 28.525 8.72601 25.8995 6.1005C23.274 3.475 19.713 2 16 2ZM22.13 17.5H9.88001C9.48218 17.5 9.10065 17.342 8.81935 17.0607C8.53804 16.7794 8.38001 16.3978 8.38001 16C8.38001 15.6022 8.53804 15.2206 8.81935 14.9393C9.10065 14.658 9.48218 14.5 9.88001 14.5H22.13C22.5278 14.5 22.9094 14.658 23.1907 14.9393C23.472 15.2206 23.63 15.6022 23.63 16C23.63 16.3978 23.472 16.7794 23.1907 17.0607C22.9094 17.342 22.5278 17.5 22.13 17.5Z" fill="black"/>
</svg>
