<svg width="32" height="32" viewBox="0 0 32 32" fill="none" xmlns="http://www.w3.org/2000/svg">
<path d="M29.8495 22.5233C29.7491 22.3226 29.6487 22.2222 29.448 22.2222H25.6344L24.4301 18.6093C24.3297 18.4086 24.2294 18.3082 24.0287 18.3082C23.828 18.3082 23.7276 18.4086 23.6272 18.6093L22.4229 22.2222H18.6093C18.4086 22.2222 18.3082 22.3226 18.2079 22.5233C18.1075 22.724 18.2079 22.9247 18.3082 23.0251L21.4194 25.233L20.2151 28.8459C20.1147 29.0466 20.215 29.2473 20.3154 29.3477C20.4158 29.448 20.5161 29.448 20.5161 29.448C20.6165 29.448 20.7168 29.448 20.7168 29.3477L23.828 27.1398L26.9391 29.3477C27.0394 29.448 27.2401 29.448 27.4409 29.3477C27.5412 29.2473 27.6416 29.0466 27.5412 28.8459L26.3369 25.233L29.448 23.0251C29.8495 22.8244 29.9498 22.6237 29.8495 22.5233Z" fill="black"/>
<path fill-rule="evenodd" clip-rule="evenodd" d="M4.75986 3.50538C4.07161 3.50538 3.50538 4.07161 3.50538 4.75986V27.2401C3.50538 27.9284 4.07161 28.4946 4.75986 28.4946H16.8029C17.2186 28.4946 17.5556 28.8316 17.5556 29.2473C17.5556 29.663 17.2186 30 16.8029 30H4.75986C3.24022 30 2 28.7598 2 27.2401V4.75986C2 3.24022 3.24022 2 4.75986 2H22.1219C23.6415 2 24.8817 3.24022 24.8817 4.75986V14.8961C24.8817 15.3118 24.5447 15.6487 24.129 15.6487C23.7133 15.6487 23.3763 15.3118 23.3763 14.8961V4.75986C23.3763 4.07161 22.8101 3.50538 22.1219 3.50538H4.75986Z" fill="black"/>
<path fill-rule="evenodd" clip-rule="evenodd" d="M6.01434 6.76702C6.01434 6.35133 6.35133 6.01434 6.76702 6.01434H20.0143C20.43 6.01434 20.767 6.35133 20.767 6.76702V13.8925C20.767 14.3082 20.43 14.6452 20.0143 14.6452H6.76702C6.35133 14.6452 6.01434 14.3082 6.01434 13.8925V6.76702ZM7.51971 7.51971V13.1398H19.2616V7.51971H7.51971Z" fill="black"/>
<path fill-rule="evenodd" clip-rule="evenodd" d="M6.01434 18.3082C6.01434 17.8925 6.35133 17.5556 6.76702 17.5556H20.0143C20.43 17.5556 20.767 17.8925 20.767 18.3082C20.767 18.7239 20.43 19.0609 20.0143 19.0609H6.76702C6.35133 19.0609 6.01434 18.7239 6.01434 18.3082Z" fill="black"/>
<path fill-rule="evenodd" clip-rule="evenodd" d="M6.01434 22.724C6.01434 22.3083 6.35133 21.9713 6.76702 21.9713H14.2939C14.7096 21.9713 15.0466 22.3083 15.0466 22.724C15.0466 23.1397 14.7096 23.4767 14.2939 23.4767H6.76702C6.35133 23.4767 6.01434 23.1397 6.01434 22.724Z" fill="black"/>
</svg>
