<svg width="32" height="32" viewBox="0 0 32 32" fill="none" xmlns="http://www.w3.org/2000/svg">
<path fill-rule="evenodd" clip-rule="evenodd" d="M13.95 3.5C11.8789 3.5 10.2 5.17893 10.2 7.25C10.2 9.32107 11.8789 11 13.95 11C16.0211 11 17.7 9.32107 17.7 7.25C17.7 5.17893 16.0211 3.5 13.95 3.5ZM8.7 7.25C8.7 4.3505 11.0505 2 13.95 2C16.8495 2 19.2 4.3505 19.2 7.25C19.2 10.1495 16.8495 12.5 13.95 12.5C11.0505 12.5 8.7 10.1495 8.7 7.25ZM13.95 15.9C9.86421 15.9 6.5 19.2642 6.5 23.35V26.75C6.5 27.1642 6.16421 27.5 5.75 27.5C5.33579 27.5 5 27.1642 5 26.75V23.35C5 18.4358 9.03579 14.4 13.95 14.4C16.0156 14.4 17.8793 15.0549 19.4134 16.2603C19.7391 16.5162 19.7956 16.9877 19.5397 17.3134C19.2838 17.6391 18.8123 17.6956 18.4866 17.4397C17.2207 16.4451 15.6844 15.9 13.95 15.9ZM26.5195 21.5652C26.8425 21.8245 26.8942 22.2965 26.6348 22.6195L20.9348 29.7195C20.7879 29.9026 20.5636 30.0063 20.3289 29.9997C20.0942 29.9931 19.8762 29.877 19.7397 29.6859L17.2397 26.1859C16.9989 25.8489 17.077 25.3805 17.4141 25.1397C17.7511 24.8989 18.2195 24.977 18.4603 25.3141L20.3849 28.0085L25.4652 21.6805C25.7245 21.3575 26.1965 21.3058 26.5195 21.5652Z" fill="black"/>
</svg>
