<svg width="32" height="32" viewBox="0 0 32 32" fill="none" xmlns="http://www.w3.org/2000/svg">
<path fill-rule="evenodd" clip-rule="evenodd" d="M2 16.05C2 15.6358 2.33579 15.3 2.75 15.3H29.15C29.5642 15.3 29.9 15.6358 29.9 16.05C29.9 16.4642 29.5642 16.8 29.15 16.8H2.75C2.33579 16.8 2 16.4642 2 16.05Z" fill="black"/>
<path fill-rule="evenodd" clip-rule="evenodd" d="M5.25 5.5C4.2835 5.5 3.5 6.2835 3.5 7.25C3.5 8.2165 4.2835 9 5.25 9C6.2165 9 7 8.2165 7 7.25C7 6.2835 6.2165 5.5 5.25 5.5ZM2 7.25C2 5.45507 3.45507 4 5.25 4C7.04493 4 8.5 5.45507 8.5 7.25C8.5 9.04493 7.04493 10.5 5.25 10.5C3.45507 10.5 2 9.04493 2 7.25Z" fill="black"/>
<path fill-rule="evenodd" clip-rule="evenodd" d="M15.95 5.5C14.9835 5.5 14.2 6.2835 14.2 7.25C14.2 8.2165 14.9835 9 15.95 9C16.9165 9 17.7 8.2165 17.7 7.25C17.7 6.2835 16.9165 5.5 15.95 5.5ZM12.7 7.25C12.7 5.45507 14.1551 4 15.95 4C17.7449 4 19.2 5.45507 19.2 7.25C19.2 9.04493 17.7449 10.5 15.95 10.5C14.1551 10.5 12.7 9.04493 12.7 7.25Z" fill="black"/>
<path fill-rule="evenodd" clip-rule="evenodd" d="M26.65 5.5C25.6835 5.5 24.9 6.2835 24.9 7.25C24.9 8.2165 25.6835 9 26.65 9C27.6165 9 28.4 8.2165 28.4 7.25C28.4 6.2835 27.6165 5.5 26.65 5.5ZM23.4 7.25C23.4 5.45507 24.8551 4 26.65 4C28.4449 4 29.9 5.45507 29.9 7.25C29.9 9.04493 28.4449 10.5 26.65 10.5C24.8551 10.5 23.4 9.04493 23.4 7.25Z" fill="black"/>
<path fill-rule="evenodd" clip-rule="evenodd" d="M5.25 9.2C5.66421 9.2 6 9.53579 6 9.95V15.75C6 16.1642 5.66421 16.5 5.25 16.5C4.83579 16.5 4.5 16.1642 4.5 15.75V9.95C4.5 9.53579 4.83579 9.2 5.25 9.2Z" fill="black"/>
<path fill-rule="evenodd" clip-rule="evenodd" d="M15.95 9.2C16.3642 9.2 16.7 9.53579 16.7 9.95V15.75C16.7 16.1642 16.3642 16.5 15.95 16.5C15.5358 16.5 15.2 16.1642 15.2 15.75V9.95C15.2 9.53579 15.5358 9.2 15.95 9.2Z" fill="black"/>
<path fill-rule="evenodd" clip-rule="evenodd" d="M26.65 9.2C27.0642 9.2 27.4 9.53579 27.4 9.95V15.75C27.4 16.1642 27.0642 16.5 26.65 16.5C26.2358 16.5 25.9 16.1642 25.9 15.75V9.95C25.9 9.53579 26.2358 9.2 26.65 9.2Z" fill="black"/>
<path fill-rule="evenodd" clip-rule="evenodd" d="M10.55 23.1C9.5835 23.1 8.8 23.8835 8.8 24.85C8.8 25.8165 9.5835 26.6 10.55 26.6C11.5165 26.6 12.3 25.8165 12.3 24.85C12.3 23.8835 11.5165 23.1 10.55 23.1ZM7.3 24.85C7.3 23.0551 8.75507 21.6 10.55 21.6C12.3449 21.6 13.8 23.0551 13.8 24.85C13.8 26.6449 12.3449 28.1 10.55 28.1C8.75507 28.1 7.3 26.6449 7.3 24.85Z" fill="black"/>
<path fill-rule="evenodd" clip-rule="evenodd" d="M21.35 23.1C20.3835 23.1 19.6 23.8835 19.6 24.85C19.6 25.8165 20.3835 26.6 21.35 26.6C22.3165 26.6 23.1 25.8165 23.1 24.85C23.1 23.8835 22.3165 23.1 21.35 23.1ZM18.1 24.85C18.1 23.0551 19.5551 21.6 21.35 21.6C23.1449 21.6 24.6 23.0551 24.6 24.85C24.6 26.6449 23.1449 28.1 21.35 28.1C19.5551 28.1 18.1 26.6449 18.1 24.85Z" fill="black"/>
<path fill-rule="evenodd" clip-rule="evenodd" d="M10.55 15.6C10.9642 15.6 11.3 15.9358 11.3 16.35V22.15C11.3 22.5642 10.9642 22.9 10.55 22.9C10.1358 22.9 9.8 22.5642 9.8 22.15V16.35C9.8 15.9358 10.1358 15.6 10.55 15.6Z" fill="black"/>
<path fill-rule="evenodd" clip-rule="evenodd" d="M21.35 15.6C21.7642 15.6 22.1 15.9358 22.1 16.35V22.15C22.1 22.5642 21.7642 22.9 21.35 22.9C20.9358 22.9 20.6 22.5642 20.6 22.15V16.35C20.6 15.9358 20.9358 15.6 21.35 15.6Z" fill="black"/>
</svg>
