<svg width="32" height="32" viewBox="0 0 32 32" fill="none" xmlns="http://www.w3.org/2000/svg">
<path d="M16 18C17.1046 18 18 17.1046 18 16C18 14.8954 17.1046 14 16 14C14.8954 14 14 14.8954 14 16C14 17.1046 14.8954 18 16 18Z" fill="black"/>
<path d="M23 18C24.1046 18 25 17.1046 25 16C25 14.8954 24.1046 14 23 14C21.8954 14 21 14.8954 21 16C21 17.1046 21.8954 18 23 18Z" fill="black"/>
<path d="M9 16C10.1046 16 11 15.1046 11 14C11 12.8954 10.1046 12 9 12C7.89543 12 7 12.8954 7 14C7 15.1046 7.89543 16 9 16Z" fill="black"/>
</svg>
