<svg width="32" height="32" viewBox="0 0 32 32" fill="none" xmlns="http://www.w3.org/2000/svg">
<path fill-rule="evenodd" clip-rule="evenodd" d="M21.95 21.4C22.3642 21.4 22.7 21.7358 22.7 22.15V29.25C22.7 29.6642 22.3642 30 21.95 30C21.5358 30 21.2 29.6642 21.2 29.25V22.15C21.2 21.7358 21.5358 21.4 21.95 21.4Z" fill="black"/>
<path fill-rule="evenodd" clip-rule="evenodd" d="M17.7 25.75C17.7 25.3358 18.0358 25 18.45 25H25.55C25.9642 25 26.3 25.3358 26.3 25.75C26.3 26.1642 25.9642 26.5 25.55 26.5H18.45C18.0358 26.5 17.7 26.1642 17.7 25.75Z" fill="black"/>
<path fill-rule="evenodd" clip-rule="evenodd" d="M13.95 15.9C9.86421 15.9 6.5 19.2642 6.5 23.35V26.75C6.5 27.1642 6.16421 27.5 5.75 27.5C5.33579 27.5 5 27.1642 5 26.75V23.35C5 18.4358 9.03579 14.4 13.95 14.4C16.0156 14.4 17.8793 15.0549 19.4134 16.2603C19.7391 16.5162 19.7956 16.9877 19.5397 17.3134C19.2838 17.6391 18.8123 17.6956 18.4866 17.4397C17.2207 16.4451 15.6844 15.9 13.95 15.9Z" fill="black"/>
<path fill-rule="evenodd" clip-rule="evenodd" d="M13.95 3.5C11.8789 3.5 10.2 5.17893 10.2 7.25C10.2 9.32107 11.8789 11 13.95 11C16.0211 11 17.7 9.32107 17.7 7.25C17.7 5.17893 16.0211 3.5 13.95 3.5ZM8.7 7.25C8.7 4.3505 11.0505 2 13.95 2C16.8495 2 19.2 4.3505 19.2 7.25C19.2 10.1495 16.8495 12.5 13.95 12.5C11.0505 12.5 8.7 10.1495 8.7 7.25Z" fill="black"/>
</svg>
