<svg width="32" height="32" viewBox="0 0 32 32" fill="none" xmlns="http://www.w3.org/2000/svg">
<path fill-rule="evenodd" clip-rule="evenodd" d="M2.05005 13.9C2.05005 12.3858 3.28584 11.15 4.80005 11.15H13.9C14.3143 11.15 14.65 11.4858 14.65 11.9C14.65 12.3142 14.3143 12.65 13.9 12.65H4.80005C4.11426 12.65 3.55005 13.2142 3.55005 13.9V24.2C3.55005 24.8858 4.11426 25.45 4.80005 25.45H18.1C18.7858 25.45 19.35 24.8858 19.35 24.2V21C19.35 20.7054 19.5225 20.4381 19.791 20.3166C20.0594 20.1952 20.3741 20.2422 20.5953 20.4368L26.3953 25.5368L26.4088 25.5489C27.2029 26.2819 28.55 25.681 28.55 24.6V18.7C28.55 18.2858 28.8858 17.95 29.3 17.95C29.7143 17.95 30.05 18.2858 30.05 18.7V24.6C30.05 26.9159 27.2047 28.3144 25.3985 26.6577L20.85 22.6582V24.2C20.85 25.7142 19.6143 26.95 18.1 26.95H4.80005C3.28584 26.95 2.05005 25.7142 2.05005 24.2V13.9Z" fill="black"/>
<path d="M6.10005 24.1C6.81802 24.1 7.40005 23.518 7.40005 22.8C7.40005 22.082 6.81802 21.5 6.10005 21.5C5.38208 21.5 4.80005 22.082 4.80005 22.8C4.80005 23.518 5.38208 24.1 6.10005 24.1Z" fill="black"/>
<path d="M23.2001 5C19.5 5 16.5 8 16.5 11.8C16.5 15.5 19.5 18.6 23.2001 18.6C26.9001 18.6 30 15.6 30 11.8C29.9 8 26.9001 5 23.2001 5ZM26.3 13.8C26.1 14 25.9001 14.1 25.7001 14.1C25.6 14.1 25.4 14.1 25.3 14L22.8 12.4C22.6 12.3 22.5 12 22.5 11.8V8.4C22.5 8 22.8 7.6 23.3 7.6C23.7 7.6 24.1 7.9 24.1 8.4V11.4L26.2001 12.8C26.4001 13 26.5 13.4 26.3 13.8Z" fill="black"/>
</svg>
