<svg width="32" height="32" viewBox="0 0 32 32" fill="none" xmlns="http://www.w3.org/2000/svg">
<path fill-rule="evenodd" clip-rule="evenodd" d="M23.5833 10C20.0833 10 17.1667 12.8926 17.1667 16.3636C17.1667 17.8678 17.75 19.2562 18.6833 20.4132H13.3167C14.25 19.2562 14.8333 17.8678 14.8333 16.3636C14.8333 12.8926 11.9167 10 8.41667 10C4.91667 10 2 12.8926 2 16.3636C2 19.8347 4.91667 22.7273 8.41667 22.7273H23.5833C27.0833 22.7273 30 19.8347 30 16.3636C30 12.8926 27.0833 10 23.5833 10ZM8.41667 20.4132C6.2 20.4132 4.33333 18.562 4.33333 16.3636C4.33333 14.1653 6.2 12.3141 8.41667 12.3141C10.6333 12.3141 12.5 14.1653 12.5 16.3636C12.5 18.562 10.6333 20.4132 8.41667 20.4132ZM23.5833 20.4132C21.3667 20.4132 19.5 18.562 19.5 16.3636C19.5 14.1653 21.3667 12.3141 23.5833 12.3141C25.8 12.3141 27.6667 14.1653 27.6667 16.3636C27.6667 18.562 25.8 20.4132 23.5833 20.4132Z" fill="black"/>
</svg>
