<svg width="32" height="32" viewBox="0 0 32 32" fill="none" xmlns="http://www.w3.org/2000/svg">
<path fill-rule="evenodd" clip-rule="evenodd" d="M16 5L30 27H2L16 5ZM15.9548 22.1366C15.5752 22.1366 15.2485 22.2701 14.9748 22.5371C14.701 22.8042 14.5641 23.1228 14.5641 23.493C14.5641 23.8632 14.701 24.1818 14.9748 24.4488C15.2485 24.7159 15.5721 24.8494 15.9454 24.8494C16.3312 24.8494 16.661 24.7159 16.9348 24.4488C17.2085 24.1818 17.3454 23.8632 17.3454 23.493C17.3454 23.1228 17.2085 22.8042 16.9348 22.5371C16.661 22.2701 16.3343 22.1366 15.9548 22.1366ZM17.2521 11.6676H14.6388V14.0163L15.1988 20.589H16.6921L17.2521 14.0163V11.6676Z" fill="black"/>
</svg>
