<svg width="32" height="32" viewBox="0 0 32 32" fill="none" xmlns="http://www.w3.org/2000/svg">
<path d="M16 30C18.7689 30 21.4757 29.1789 23.778 27.6406C26.0803 26.1022 27.8747 23.9157 28.9343 21.3576C29.9939 18.7994 30.2712 15.9845 29.731 13.2687C29.1908 10.553 27.8574 8.05845 25.8995 6.10051C23.9416 4.14258 21.447 2.80921 18.7313 2.26901C16.0155 1.72882 13.2006 2.00607 10.6424 3.06569C8.08426 4.12532 5.89776 5.91973 4.35943 8.22202C2.82109 10.5243 2 13.2311 2 16C2 19.713 3.475 23.274 6.1005 25.8995C8.72601 28.525 12.287 30 16 30ZM14.425 9.00001C14.425 8.58229 14.5909 8.18168 14.8863 7.88631C15.1817 7.59094 15.5823 7.425 16 7.425C16.4177 7.425 16.8183 7.59094 17.1137 7.88631C17.4091 8.18168 17.575 8.58229 17.575 9.00001V15.475C17.575 15.6818 17.5343 15.8866 17.4551 16.0777C17.376 16.2688 17.2599 16.4424 17.1137 16.5887C16.9674 16.7349 16.7938 16.851 16.6027 16.9301C16.4116 17.0093 16.2068 17.05 16 17.05C15.7932 17.05 15.5884 17.0093 15.3973 16.9301C15.2062 16.851 15.0326 16.7349 14.8863 16.5887C14.7401 16.4424 14.624 16.2688 14.5449 16.0777C14.4657 15.8866 14.425 15.6818 14.425 15.475V9.00001ZM16 19.325C16.557 19.325 17.0911 19.5463 17.4849 19.9401C17.8787 20.3339 18.1 20.868 18.1 21.425C18.1 21.982 17.8787 22.5161 17.4849 22.9099C17.0911 23.3038 16.557 23.525 16 23.525C15.443 23.525 14.9089 23.3038 14.5151 22.9099C14.1212 22.5161 13.9 21.982 13.9 21.425C13.9 20.868 14.1212 20.3339 14.5151 19.9401C14.9089 19.5463 15.443 19.325 16 19.325Z" fill="black"/>
</svg>
