<svg width="32" height="32" viewBox="0 0 32 32" fill="none" xmlns="http://www.w3.org/2000/svg">
<path fill-rule="evenodd" clip-rule="evenodd" d="M2.21257 9.74817C5.66512 6.191 10.5764 4 16 4C21.4132 4 26.3277 6.08327 29.7874 9.64781C30.077 9.94611 30.0698 10.4226 29.7715 10.7122C29.4732 11.0017 28.9967 10.9946 28.7072 10.6963C25.5432 7.43644 21.0241 5.50538 16 5.50538C10.9864 5.50538 6.46391 7.52943 3.2928 10.7966C3.00328 11.0949 2.52676 11.102 2.22846 10.8125C1.93016 10.523 1.92305 10.0465 2.21257 9.74817ZM6.03408 13.5538C8.57658 11.0113 12.0771 9.41935 16 9.41935C19.9229 9.41935 23.4234 11.0113 25.9659 13.5538C26.2599 13.8477 26.2599 14.3243 25.9659 14.6183C25.672 14.9122 25.1954 14.9122 24.9015 14.6183C22.6268 12.3436 19.5036 10.9247 16 10.9247C12.4964 10.9247 9.37324 12.3436 7.09854 14.6183C6.8046 14.9122 6.32802 14.9122 6.03408 14.6183C5.74013 14.3243 5.74013 13.8477 6.03408 13.5538ZM9.766 17.249C11.3959 15.7278 13.5821 14.7384 16 14.7384C18.5091 14.7384 20.7074 15.7218 22.2527 17.2671C22.5466 17.561 22.5466 18.0376 22.2527 18.3315C21.9587 18.6255 21.4821 18.6255 21.1882 18.3315C19.9234 17.0668 18.1073 16.2437 16 16.2437C14.0022 16.2437 12.174 17.0607 10.7931 18.3495C10.4892 18.6332 10.013 18.6168 9.72931 18.3129C9.44567 18.009 9.4621 17.5327 9.766 17.249ZM16.1004 21.8638C14.8533 21.8638 13.8423 22.8748 13.8423 24.1219C13.8423 25.369 14.8533 26.3799 16.1004 26.3799C17.3475 26.3799 18.3584 25.369 18.3584 24.1219C18.3584 22.8748 17.3475 21.8638 16.1004 21.8638ZM12.3369 24.1219C12.3369 22.0434 14.0219 20.3584 16.1004 20.3584C18.1789 20.3584 19.8638 22.0434 19.8638 24.1219C19.8638 26.2004 18.1789 27.8853 16.1004 27.8853C14.0219 27.8853 12.3369 26.2004 12.3369 24.1219Z" fill="black"/>
</svg>
