<svg width="32" height="32" viewBox="0 0 32 32" fill="none" xmlns="http://www.w3.org/2000/svg">
<path fill-rule="evenodd" clip-rule="evenodd" d="M5 2.75C5 2.33579 5.33579 2 5.75 2H26.15C28.2642 2 29.9 3.63579 29.9 5.75V26.25C29.9 28.2808 28.2475 29.9 26.15 29.9H5.75C5.33579 29.9 5 29.5642 5 29.15V25H2.75C2.33579 25 2 24.6642 2 24.25C2 23.8358 2.33579 23.5 2.75 23.5H5V19.5H2.75C2.33579 19.5 2 19.1642 2 18.75C2 18.3358 2.33579 18 2.75 18H5V13.9H2.75C2.33579 13.9 2 13.5642 2 13.15C2 12.7358 2.33579 12.4 2.75 12.4H5V8.4H2.75C2.33579 8.4 2 8.06421 2 7.65C2 7.23579 2.33579 6.9 2.75 6.9H5V2.75ZM6.5 8.4H8.75C9.16421 8.4 9.5 8.06421 9.5 7.65C9.5 7.23579 9.16421 6.9 8.75 6.9H6.5V3.5H26.15C27.4358 3.5 28.4 4.46421 28.4 5.75V26.25C28.4 27.4192 27.4525 28.4 26.15 28.4H6.5V25H8.75C9.16421 25 9.5 24.6642 9.5 24.25C9.5 23.8358 9.16421 23.5 8.75 23.5H6.5V19.5H8.75C9.16421 19.5 9.5 19.1642 9.5 18.75C9.5 18.3358 9.16421 18 8.75 18H6.5V13.9H8.75C9.16421 13.9 9.5 13.5642 9.5 13.15C9.5 12.7358 9.16421 12.4 8.75 12.4H6.5V8.4ZM18.55 10.1C17.5835 10.1 16.8 10.8835 16.8 11.85C16.8 12.8165 17.5835 13.6 18.55 13.6C19.5165 13.6 20.3 12.8165 20.3 11.85C20.3 10.8835 19.5165 10.1 18.55 10.1ZM15.3 11.85C15.3 10.0551 16.7551 8.6 18.55 8.6C20.3449 8.6 21.8 10.0551 21.8 11.85C21.8 13.6449 20.3449 15.1 18.55 15.1C16.7551 15.1 15.3 13.6449 15.3 11.85ZM18.55 16.9C16.4642 16.9 14.8 18.5642 14.8 20.65V21.8H22.3V20.65C22.3 18.5642 20.6358 16.9 18.55 16.9ZM13.3 20.65C13.3 17.7358 15.6358 15.4 18.55 15.4C21.4642 15.4 23.8 17.7358 23.8 20.65V22.55C23.8 22.9642 23.4642 23.3 23.05 23.3H14.05C13.6358 23.3 13.3 22.9642 13.3 22.55V20.65Z" fill="black"/>
</svg>
