<svg width="32" height="32" viewBox="0 0 32 32" fill="none" xmlns="http://www.w3.org/2000/svg">
<path d="M27.9 16.7C27.6 16.4 27.1 16.4 26.8 16.7L17.2 26.3C15.8 27.7 13.9 28.5 11.9 28.5C9.9 28.5 8 27.7 6.6 26.3C5.2 24.9 4.5 23 4.5 21.1C4.5 19.1 5.3 17.2 6.7 15.8L17.6 4.9C19.4 3.1 22.4 3.1 24.3 4.9C25.2 5.8 25.7 7 25.7 8.2C25.7 9.4 25.2 10.6 24.3 11.5L13.3 22.5C12.6 23.2 11.2 23.2 10.5 22.5C9.7 21.7 9.7 20.5 10.5 19.7L20.2 10C20.5 9.7 20.5 9.2 20.2 8.9C19.9 8.6 19.4 8.6 19.1 8.9L9.5 18.5C8.1 19.9 8.1 22.1 9.5 23.4C10.8 24.7 13.1 24.7 14.4 23.4L25.3 12.5C26.5 11.3 27.1 9.8 27.1 8.1C27.1 6.4 26.5 5 25.3 3.8C22.9 1.4 18.9 1.4 16.5 3.8L5.6 14.7C3.9 16.4 3 18.7 3 21.1C3 23.5 3.9 25.7 5.6 27.4C7.3 29.1 9.5 30 11.9 30C14.3 30 16.5 29.1 18.2 27.4L27.8 17.8C28.2 17.4 28.2 17 27.9 16.7Z" fill="black"/>
</svg>
