<svg width="32" height="32" viewBox="0 0 32 32" fill="none" xmlns="http://www.w3.org/2000/svg">
<path fill-rule="evenodd" clip-rule="evenodd" d="M13.491 3.50538C7.97611 3.50538 3.50538 7.97611 3.50538 13.491C3.50538 19.006 7.97611 23.4767 13.491 23.4767C19.006 23.4767 23.4767 19.006 23.4767 13.491C23.4767 7.97611 19.006 3.50538 13.491 3.50538ZM2 13.491C2 7.14471 7.14471 2 13.491 2C19.8374 2 24.9821 7.14471 24.9821 13.491C24.9821 19.8374 19.8374 24.9821 13.491 24.9821C7.14471 24.9821 2 19.8374 2 13.491Z" fill="black"/>
<path fill-rule="evenodd" clip-rule="evenodd" d="M20.9875 20.9875C21.2814 20.6935 21.758 20.6935 22.0519 20.9875L29.7795 28.7151C30.0735 29.009 30.0735 29.4856 29.7795 29.7795C29.4856 30.0735 29.009 30.0735 28.7151 29.7795L20.9875 22.0519C20.6935 21.758 20.6935 21.2814 20.9875 20.9875Z" fill="black"/>
<path fill-rule="evenodd" clip-rule="evenodd" d="M7.41935 9.37634C7.41935 8.96065 7.75634 8.62366 8.17204 8.62366H14.3943C14.81 8.62366 15.147 8.96065 15.147 9.37634C15.147 9.79204 14.81 10.129 14.3943 10.129H8.17204C7.75634 10.129 7.41935 9.79204 7.41935 9.37634Z" fill="black"/>
<path fill-rule="evenodd" clip-rule="evenodd" d="M16.9534 9.37634C16.9534 8.96065 17.2904 8.62366 17.7061 8.62366H18.81C19.2257 8.62366 19.5627 8.96065 19.5627 9.37634C19.5627 9.79204 19.2257 10.129 18.81 10.129H17.7061C17.2904 10.129 16.9534 9.79204 16.9534 9.37634Z" fill="black"/>
<path fill-rule="evenodd" clip-rule="evenodd" d="M7.41935 13.491C7.41935 13.0753 7.75634 12.7383 8.17204 12.7383H14.3943C14.81 12.7383 15.147 13.0753 15.147 13.491C15.147 13.9067 14.81 14.2437 14.3943 14.2437H8.17204C7.75634 14.2437 7.41935 13.9067 7.41935 13.491Z" fill="black"/>
<path fill-rule="evenodd" clip-rule="evenodd" d="M16.9534 13.491C16.9534 13.0753 17.2904 12.7383 17.7061 12.7383H18.81C19.2257 12.7383 19.5627 13.0753 19.5627 13.491C19.5627 13.9067 19.2257 14.2437 18.81 14.2437H17.7061C17.2904 14.2437 16.9534 13.9067 16.9534 13.491Z" fill="black"/>
<path fill-rule="evenodd" clip-rule="evenodd" d="M7.41935 17.6057C7.41935 17.19 7.75634 16.853 8.17204 16.853H14.3943C14.81 16.853 15.147 17.19 15.147 17.6057C15.147 18.0214 14.81 18.3584 14.3943 18.3584H8.17204C7.75634 18.3584 7.41935 18.0214 7.41935 17.6057Z" fill="black"/>
<path fill-rule="evenodd" clip-rule="evenodd" d="M16.9534 17.6057C16.9534 17.19 17.2904 16.853 17.7061 16.853H18.81C19.2257 16.853 19.5627 17.19 19.5627 17.6057C19.5627 18.0214 19.2257 18.3584 18.81 18.3584H17.7061C17.2904 18.3584 16.9534 18.0214 16.9534 17.6057Z" fill="black"/>
</svg>
