<svg width="32" height="32" viewBox="0 0 32 32" fill="none" xmlns="http://www.w3.org/2000/svg">
<path d="M24.92 11.76C24.7211 11.76 24.5303 11.839 24.3897 11.9797C24.249 12.1203 24.17 12.3111 24.17 12.51V15.35C24.0951 17.5106 23.1842 19.5577 21.6293 21.0597C20.0743 22.5617 17.9969 23.4013 15.835 23.4013C13.6731 23.4013 11.5957 22.5617 10.0407 21.0597C8.48578 19.5577 7.57485 17.5106 7.5 15.35V12.51C7.5 12.3111 7.42098 12.1203 7.28033 11.9797C7.13968 11.839 6.94891 11.76 6.75 11.76C6.55109 11.76 6.36032 11.839 6.21967 11.9797C6.07902 12.1203 6 12.3111 6 12.51V15.35C6.00305 17.8269 6.94104 20.2113 8.62637 22.0264C10.3117 23.8416 12.6201 24.9535 15.09 25.14V28.5H10.26C10.0611 28.5 9.87032 28.579 9.72967 28.7197C9.58902 28.8603 9.51 29.0511 9.51 29.25C9.51 29.4489 9.58902 29.6397 9.72967 29.7803C9.87032 29.921 10.0611 30 10.26 30H21.41C21.6089 30 21.7997 29.921 21.9403 29.7803C22.081 29.6397 22.16 29.4489 22.16 29.25C22.16 29.0511 22.081 28.8603 21.9403 28.7197C21.7997 28.579 21.6089 28.5 21.41 28.5H16.59V25.14C19.0581 24.9511 21.3641 23.8381 23.0473 22.0233C24.7305 20.2084 25.6671 17.8253 25.67 15.35V12.51C25.6713 12.4111 25.6529 12.313 25.6157 12.2214C25.5784 12.1298 25.5232 12.0466 25.4533 11.9767C25.3834 11.9068 25.3002 11.8516 25.2086 11.8144C25.117 11.7771 25.0189 11.7587 24.92 11.76Z" fill="black"/>
<path d="M15.5 21.61H16.18C17.7713 21.61 19.2974 20.9779 20.4226 19.8526C21.5479 18.7274 22.18 17.2013 22.18 15.61V8C22.18 6.4087 21.5479 4.88258 20.4226 3.75736C19.2974 2.63214 17.7713 2 16.18 2H15.5C13.9087 2 12.3826 2.63214 11.2574 3.75736C10.1321 4.88258 9.5 6.4087 9.5 8V15.64C9.50793 17.2261 10.1436 18.7445 11.2679 19.8633C12.3923 20.982 13.9139 21.61 15.5 21.61ZM11 8C10.9987 7.40868 11.1142 6.82293 11.3399 6.27637C11.5655 5.72981 11.897 5.23321 12.3151 4.81508C12.7332 4.39695 13.2298 4.06554 13.7764 3.83986C14.3229 3.61418 14.9087 3.49868 15.5 3.5H16.18C16.7696 3.50131 17.3532 3.61875 17.8975 3.8456C18.4417 4.07246 18.936 4.40429 19.352 4.82216C19.768 5.24002 20.0976 5.73573 20.322 6.28099C20.5465 6.82624 20.6613 7.41036 20.66 8V12.53H11V8Z" fill="black"/>
</svg>
