<svg width="32" height="32" viewBox="0 0 32 32" fill="none" xmlns="http://www.w3.org/2000/svg">
<path fill-rule="evenodd" clip-rule="evenodd" d="M5.80005 11.85C6.21426 11.85 6.55005 12.1858 6.55005 12.6V15.4C6.55005 19.9858 10.3143 23.75 14.9 23.75C17.551 23.75 19.938 22.4713 21.5066 20.4414C21.7599 20.1136 22.2309 20.0533 22.5586 20.3065C22.8864 20.5598 22.9468 21.0308 22.6935 21.3586C20.8621 23.7286 18.0491 25.25 14.9 25.25C9.48583 25.25 5.05005 20.8142 5.05005 15.4V12.6C5.05005 12.1858 5.38584 11.85 5.80005 11.85Z" fill="black"/>
<path fill-rule="evenodd" clip-rule="evenodd" d="M14.5 3.54999C12.0143 3.54999 10.05 5.5142 10.05 7.99999V15.7C10.05 18.1858 12.0143 20.15 14.5 20.15H15.2C15.5455 20.15 15.8197 20.0938 16.2255 20.0108C16.2969 19.9961 16.3723 19.9807 16.453 19.9646C16.8591 19.8833 17.2543 20.1467 17.3355 20.5529C17.4167 20.9591 17.1533 21.3542 16.7471 21.4354C16.6818 21.4485 16.6159 21.4622 16.5491 21.476C16.1446 21.5598 15.7097 21.65 15.2 21.65H14.5C11.1858 21.65 8.55005 19.0142 8.55005 15.7V7.99999C8.55005 4.68577 11.1858 2.04999 14.5 2.04999H15.2C16.2151 2.04999 17.1461 2.27676 17.9722 2.74881C18.3318 2.95431 18.4567 3.41245 18.2512 3.77209C18.0457 4.13173 17.5876 4.25668 17.2279 4.05117C16.654 3.72321 15.985 3.54999 15.2 3.54999H14.5Z" fill="black"/>
<path fill-rule="evenodd" clip-rule="evenodd" d="M14.05 29.2V24.4H15.55V29.2H14.05Z" fill="black"/>
<path fill-rule="evenodd" clip-rule="evenodd" d="M8.55005 29.2C8.55005 28.7858 8.88584 28.45 9.30005 28.45H20.4C20.8143 28.45 21.15 28.7858 21.15 29.2C21.15 29.6142 20.8143 29.95 20.4 29.95H9.30005C8.88584 29.95 8.55005 29.6142 8.55005 29.2Z" fill="black"/>
<path fill-rule="evenodd" clip-rule="evenodd" d="M22.8512 5.92774C22.1633 4.72388 20.4368 4.72388 19.7488 5.92774L14.9488 14.4277L14.9478 14.4295C14.2434 15.6651 15.1668 17.0498 16.5 17.0498H26.2C26.8722 17.0498 27.4324 16.7008 27.715 16.1593C27.9916 15.6291 27.9682 14.9838 27.6522 14.4295L27.6512 14.4277L22.8531 5.93105L22.8512 5.92774ZM21.9008 8.79999C21.9008 8.52385 21.6769 8.29999 21.4008 8.29999C21.1246 8.29999 20.9008 8.52385 20.9008 8.79999V12.2C20.9008 12.4761 21.1246 12.7 21.4008 12.7C21.6769 12.7 21.9008 12.4761 21.9008 12.2V8.79999ZM22.0008 14.1C22.0008 14.4314 21.7321 14.7 21.4008 14.7C21.0694 14.7 20.8008 14.4314 20.8008 14.1C20.8008 13.7686 21.0694 13.5 21.4008 13.5C21.7321 13.5 22.0008 13.7686 22.0008 14.1Z" fill="black"/>
</svg>
