<svg width="32" height="32" viewBox="0 0 32 32" fill="none" xmlns="http://www.w3.org/2000/svg">
<path d="M14.53 21.6H15.21C15.7609 21.6018 16.3093 21.5278 16.84 21.38C17.0313 21.3241 17.193 21.1953 17.2903 21.0214C17.3875 20.8474 17.4126 20.6422 17.36 20.45C17.3336 20.3547 17.2884 20.2657 17.227 20.1882C17.1656 20.1106 17.0894 20.0462 17.0027 19.9987C16.916 19.9511 16.8206 19.9214 16.7223 19.9114C16.6239 19.9013 16.5245 19.911 16.43 19.94C16.0326 20.0491 15.6221 20.1029 15.21 20.1H14.53C13.9404 20.1013 13.3562 19.9865 12.811 19.762C12.2657 19.5376 11.77 19.208 11.3522 18.792C10.9343 18.376 10.6025 17.8817 10.3756 17.3375C10.1487 16.7932 10.0313 16.2096 10.03 15.62V8C10.0287 7.40868 10.1442 6.82293 10.3699 6.27637C10.5955 5.72981 10.927 5.23321 11.3451 4.81508C11.7632 4.39695 12.2598 4.06554 12.8064 3.83986C13.3529 3.61418 13.9387 3.49868 14.53 3.5H15.21C15.9268 3.49908 16.6334 3.67057 17.27 4C17.4451 4.08062 17.6446 4.0907 17.8269 4.02815C18.0093 3.96561 18.1606 3.83523 18.2494 3.6641C18.3381 3.49297 18.3576 3.29422 18.3037 3.10911C18.2499 2.924 18.1268 2.76675 17.96 2.67C17.1099 2.23055 16.167 2.00083 15.21 2H14.53C12.9387 2 11.4126 2.63214 10.2874 3.75736C9.16214 4.88258 8.53 6.4087 8.53 8V15.64C8.54056 17.2244 9.17736 18.7402 10.3014 19.8568C11.4255 20.9734 12.9456 21.6 14.53 21.6Z" fill="black"/>
<path d="M21.5 20.4C20.4485 21.7951 18.9854 22.8248 17.3172 23.3437C15.649 23.8626 13.86 23.8445 12.2026 23.2921C10.5453 22.7396 9.10324 21.6807 8.08005 20.2646C7.05686 18.8486 6.50417 17.147 6.5 15.4V12.51C6.5 12.3111 6.42098 12.1203 6.28033 11.9797C6.13968 11.839 5.94891 11.76 5.75 11.76C5.55109 11.76 5.36032 11.839 5.21967 11.9797C5.07902 12.1203 5 12.3111 5 12.51V15.35C5.00305 17.8269 5.94104 20.2113 7.62637 22.0264C9.3117 23.8416 11.6201 24.9535 14.09 25.14V28.5H9.29C9.09109 28.5 8.90032 28.579 8.75967 28.7197C8.61902 28.8603 8.54 29.0511 8.54 29.25C8.54 29.4489 8.61902 29.6397 8.75967 29.7803C8.90032 29.921 9.09109 30 9.29 30H20.44C20.6389 30 20.8297 29.921 20.9703 29.7803C21.111 29.6397 21.19 29.4489 21.19 29.25C21.19 29.0511 21.111 28.8603 20.9703 28.7197C20.8297 28.579 20.6389 28.5 20.44 28.5H15.62V25.14C17.0027 25.0398 18.3483 24.6464 19.5673 23.986C20.7863 23.3257 21.8507 22.4135 22.69 21.31C22.7989 21.1515 22.8428 20.9572 22.8125 20.7673C22.7823 20.5774 22.6802 20.4063 22.5275 20.2895C22.3747 20.1727 22.1829 20.119 21.9917 20.1395C21.8004 20.1601 21.6244 20.2534 21.5 20.4Z" fill="black"/>
<path d="M27.74 14.43L22.92 5.89C22.7663 5.61973 22.5438 5.395 22.275 5.23867C22.0063 5.08234 21.7009 4.99999 21.39 5C21.0787 4.9979 20.7725 5.07937 20.5034 5.23592C20.2343 5.39246 20.0121 5.61834 19.86 5.89L15.03 14.43C14.8778 14.6977 14.7984 15.0007 14.8 15.3087C14.8015 15.6166 14.8838 15.9188 15.0386 16.185C15.1935 16.4512 15.4155 16.6721 15.6825 16.8257C15.9494 16.9792 16.252 17.06 16.56 17.06H26.21C26.518 17.06 26.8206 16.9792 27.0875 16.8257C27.3545 16.6721 27.5765 16.4512 27.7314 16.185C27.8862 15.9188 27.9685 15.6166 27.97 15.3087C27.9716 15.0007 27.8922 14.6977 27.74 14.43ZM20.63 8.29C20.63 8.19151 20.6494 8.09398 20.6871 8.00299C20.7248 7.91199 20.78 7.82931 20.8497 7.75967C20.9193 7.69003 21.002 7.63478 21.093 7.59709C21.184 7.5594 21.2815 7.54 21.38 7.54C21.4785 7.54 21.576 7.5594 21.667 7.59709C21.758 7.63478 21.8407 7.69003 21.9103 7.75967C21.98 7.82931 22.0352 7.91199 22.0729 8.00299C22.1106 8.09398 22.13 8.19151 22.13 8.29V11.42C22.13 11.6189 22.051 11.8097 21.9103 11.9503C21.7697 12.091 21.5789 12.17 21.38 12.17C21.1811 12.17 20.9903 12.091 20.8497 11.9503C20.709 11.8097 20.63 11.6189 20.63 11.42V8.29ZM21.38 15.23C21.1822 15.23 20.9889 15.1714 20.8244 15.0615C20.66 14.9516 20.5318 14.7954 20.4561 14.6127C20.3804 14.43 20.3606 14.2289 20.3992 14.0349C20.4378 13.8409 20.533 13.6627 20.6729 13.5229C20.8127 13.383 20.9909 13.2878 21.1849 13.2492C21.3789 13.2106 21.58 13.2304 21.7627 13.3061C21.9454 13.3818 22.1016 13.51 22.2115 13.6744C22.3214 13.8389 22.38 14.0322 22.38 14.23C22.38 14.4952 22.2746 14.7496 22.0871 14.9371C21.8996 15.1246 21.6452 15.23 21.38 15.23Z" fill="black"/>
</svg>
