<svg width="32" height="32" viewBox="0 0 32 32" fill="none" xmlns="http://www.w3.org/2000/svg">
<path fill-rule="evenodd" clip-rule="evenodd" d="M21.2716 7.5H17.25V9H19.7716L21.2716 7.5ZM20.9284 13.5H23.2V11.2284L24.6354 9.79303C24.6642 9.92018 24.6849 10.0501 24.6969 10.1821C24.699 10.2047 24.7 10.2273 24.7 10.25V13.5H25.65C27.1642 13.5 28.4 14.7358 28.4 16.25V24.45C28.4 25.9642 27.1642 27.2 25.65 27.2H12.35C10.9562 27.2 9.7983 26.1529 9.62296 24.8055L11.1 23.3284V24.45C11.1 25.1358 11.6642 25.7 12.35 25.7H25.65C26.3358 25.7 26.9 25.1358 26.9 24.45V16.25C26.9 15.5642 26.3358 15 25.65 15H19.4284L20.9284 13.5ZM15.2716 13.5H12.35C10.8358 13.5 9.6 14.7358 9.6 16.25V17.8226L4.20859 13.6565C3.98226 13.4816 3.67616 13.4507 3.41942 13.5768C3.16268 13.7029 3 13.964 3 14.25V25.7716L4.5 24.2716V15.7774L9.2916 19.48L11.1 17.6716V16.25C11.1 15.5642 11.6642 15 12.35 15H13.7716L15.2716 13.5Z" fill="black"/>
<path fill-rule="evenodd" clip-rule="evenodd" d="M10.05 6.8C9.38798 6.8 8.8 7.34004 8.8 8.15C8.8 8.83579 9.36421 9.4 10.05 9.4H15.15C15.8358 9.4 16.4 8.83579 16.4 8.15V8.05C16.4 7.36421 15.8358 6.8 15.15 6.8H10.05ZM7.3 8.15C7.3 6.55996 8.51202 5.3 10.05 5.3H15.15C16.6642 5.3 17.9 6.53579 17.9 8.05V8.15C17.9 9.66421 16.6642 10.9 15.15 10.9H10.05C8.53579 10.9 7.3 9.66421 7.3 8.15Z" fill="black"/>
<path fill-rule="evenodd" clip-rule="evenodd" d="M27.3803 4.21967C27.6732 4.51256 27.6732 4.98744 27.3803 5.28033L4.28033 28.3803C3.98744 28.6732 3.51256 28.6732 3.21967 28.3803C2.92678 28.0874 2.92678 27.6126 3.21967 27.3197L26.3197 4.21967C26.6126 3.92678 27.0874 3.92678 27.3803 4.21967Z" fill="black"/>
<path d="M24.35 24.45C25.068 24.45 25.65 23.868 25.65 23.15C25.65 22.432 25.068 21.85 24.35 21.85C23.632 21.85 23.05 22.432 23.05 23.15C23.05 23.868 23.632 24.45 24.35 24.45Z" fill="black"/>
</svg>
