<svg width="32" height="32" viewBox="0 0 32 32" fill="none" xmlns="http://www.w3.org/2000/svg">
<path d="M17.1292 15.9994L27.8192 5.27939C27.9596 5.13877 28.0385 4.94814 28.0385 4.74939C28.0385 4.55064 27.9596 4.36002 27.8192 4.21939C27.6756 4.0807 27.4838 4.00317 27.2842 4.00317C27.0845 4.00317 26.8927 4.0807 26.7492 4.21939L15.5392 15.4294C15.3987 15.57 15.3198 15.7606 15.3198 15.9594C15.3198 16.1581 15.3987 16.3488 15.5392 16.4894L26.7492 27.7094C26.895 27.8436 27.086 27.9181 27.2842 27.9181C27.4824 27.9181 27.6733 27.8436 27.8192 27.7094C27.9579 27.5658 28.0354 27.374 28.0354 27.1744C28.0354 26.9748 27.9579 26.783 27.8192 26.6394L17.1292 15.9994Z" fill="black"/>
<path d="M5.80934 15.9993L16.4893 5.27934C16.5601 5.21039 16.6163 5.12798 16.6547 5.03695C16.6931 4.94593 16.7129 4.84813 16.7129 4.74934C16.7129 4.65055 16.6931 4.55275 16.6547 4.46173C16.6163 4.3707 16.5601 4.28829 16.4893 4.21934C16.3487 4.07889 16.1581 4 15.9593 4C15.7606 4 15.57 4.07889 15.4293 4.21934L4.21934 15.4293C4.07889 15.57 4 15.7606 4 15.9593C4 16.1581 4.07889 16.3487 4.21934 16.4893L15.4293 27.7093C15.5726 27.8446 15.7623 27.9197 15.9593 27.9193C16.1566 27.9208 16.3466 27.8455 16.4893 27.7093C16.5604 27.6395 16.6168 27.5563 16.6554 27.4644C16.6939 27.3726 16.7137 27.2739 16.7137 27.1743C16.7137 27.0747 16.6939 26.9761 16.6554 26.8843C16.6168 26.7924 16.5604 26.7091 16.4893 26.6393L5.80934 15.9993Z" fill="black"/>
</svg>
