<svg width="32" height="32" viewBox="0 0 32 32" fill="none" xmlns="http://www.w3.org/2000/svg">
<path fill-rule="evenodd" clip-rule="evenodd" d="M23.2143 4.71652C23.087 4.75246 22.9598 4.78837 22.8319 4.82035L22.8127 4.82488C22.7059 4.84862 22.6508 4.88549 22.6195 4.9139C22.5858 4.94449 22.5526 4.99013 22.525 5.06198C22.4639 5.22088 22.4532 5.44989 22.4898 5.66944C22.5481 6.01917 22.6459 6.8178 22.735 7.54469C22.7973 8.05323 22.8553 8.52666 22.8925 8.78667L22.8943 8.7997C22.8978 8.82711 22.902 8.84399 22.9052 8.85334C22.9145 8.85873 22.9332 8.86788 22.9661 8.87842C23.0398 8.90202 23.1498 8.92125 23.3104 8.93187C23.4703 8.94245 23.6449 8.94274 23.85 8.94274C23.8696 8.94274 23.8894 8.94272 23.9092 8.94271C24.2565 8.94241 24.6445 8.94208 24.9784 9.02993C25.4131 9.14434 25.7468 9.39628 25.9931 9.80687C26.2109 10.1698 26.3809 10.7223 26.4985 11.3237C26.6204 11.9467 26.7 12.695 26.7 13.4927C26.7 14.2905 26.6204 15.0387 26.4985 15.6617C26.3809 16.2632 26.2109 16.8157 25.9931 17.1786C25.769 17.5522 25.4594 17.8421 25.0133 17.9829C24.6304 18.1039 24.2141 18.0912 23.8056 18.0429C23.4357 18.045 23.1648 18.0735 22.9915 18.1359C22.9321 18.1573 22.9049 18.1757 22.8953 18.1832C22.8945 18.1865 22.8935 18.1915 22.8925 18.1988C22.8876 18.2326 22.8805 18.266 22.8711 18.2988C22.7931 18.5718 22.7231 19.1243 22.6586 19.7564C22.643 19.9096 22.6277 20.0679 22.6125 20.224C22.5743 20.6191 22.5374 21.0002 22.5004 21.2488C22.5037 21.503 22.5307 21.7434 22.6 21.9235C22.6619 22.0845 22.7286 22.1376 22.8249 22.1633C22.9935 22.2011 23.1565 22.2434 23.3156 22.2848C24.1658 22.5056 24.9032 22.6972 25.7866 22.003C26.941 21.096 28.5 18.6597 28.5 13.4927C28.5 8.30238 27.0291 5.89415 25.8065 4.99754C24.8091 4.26616 24.0102 4.49177 23.2143 4.71652ZM22.8969 18.1782C22.8969 18.1782 22.8968 18.1787 22.8964 18.1794L22.8969 18.1782ZM22.7427 3.28688C23.5391 3.04892 25.0643 2.59316 26.6935 3.78794C28.4709 5.09133 30 8.0831 30 13.4927C30 18.9258 28.359 21.8895 26.7134 23.1825C25.1935 24.3766 23.6681 23.9498 22.8202 23.7126C22.6933 23.6771 22.5816 23.6458 22.4873 23.6249L22.4681 23.6203C21.7682 23.4454 21.3866 22.947 21.2 22.462C21.0243 22.0053 21 21.518 21 21.1927C21 21.1514 21.0034 21.1102 21.0102 21.0694C21.0417 20.8804 21.0735 20.5522 21.1126 20.1489C21.1291 19.979 21.1468 19.7958 21.1664 19.6041C21.2247 19.0322 21.3012 18.363 21.416 17.9332C21.5329 17.2642 22.006 16.8965 22.4835 16.7246C22.9284 16.5644 23.4427 16.5427 23.85 16.5427C23.8811 16.5427 23.9122 16.5447 23.943 16.5485C24.3191 16.5955 24.4848 16.5768 24.5617 16.5526C24.5894 16.5438 24.6036 16.5348 24.6167 16.5237C24.6327 16.5101 24.6638 16.4786 24.7069 16.4069C24.7891 16.2698 24.9191 15.9223 25.0265 15.3737C25.1296 14.8467 25.2 14.195 25.2 13.4927C25.2 12.7905 25.1296 12.1387 25.0265 11.6117C24.9191 11.0632 24.7891 10.7157 24.7069 10.5786C24.6707 10.5183 24.6492 10.5019 24.6468 10.5001C24.6461 10.4996 24.6368 10.4911 24.5966 10.4805C24.5493 10.4681 24.4729 10.4562 24.3419 10.4496C24.2099 10.4429 24.0555 10.4427 23.85 10.4427C23.8331 10.4427 23.8158 10.4428 23.7982 10.4428C23.4384 10.4431 22.9356 10.4436 22.5089 10.3071C22.266 10.2293 22.0031 10.0954 21.7886 9.85782C21.5706 9.61628 21.4487 9.31865 21.4067 8.993C21.3589 8.65773 21.2968 8.1465 21.2335 7.62606C21.1513 6.94954 21.0671 6.25746 21.0102 5.91604C20.9468 5.53559 20.9361 5.0146 21.125 4.52351C21.3285 3.99435 21.7598 3.52615 22.476 3.36313C22.5523 3.34377 22.6417 3.31708 22.7427 3.28688Z" fill="black"/>
<path fill-rule="evenodd" clip-rule="evenodd" d="M9.06878 3.26827C9.19938 3.30574 9.31473 3.33883 9.4127 3.3606C10.1039 3.51419 10.5541 3.93343 10.7714 4.4767C10.9674 4.96689 10.9501 5.49503 10.8925 5.89881C10.8618 6.11347 10.8317 6.42343 10.7966 6.78615C10.7774 6.98416 10.7566 7.1979 10.7335 7.42044C10.6751 7.98102 10.5991 8.61947 10.4858 9.04571C10.4378 9.35076 10.3176 9.62938 10.1114 9.85782C9.89688 10.0954 9.63396 10.2293 9.39108 10.3071C8.96441 10.4436 8.46163 10.4431 8.10179 10.4428C8.08418 10.4428 8.0669 10.4427 8.05 10.4427C7.8445 10.4427 7.69006 10.4429 7.55814 10.4496C7.42712 10.4562 7.35074 10.4681 7.30337 10.4805C7.26471 10.4907 7.25467 10.4989 7.25339 10.4999C7.25095 10.5018 7.22933 10.5183 7.19312 10.5786C7.11087 10.7157 6.98087 11.0632 6.87354 11.6117C6.77044 12.1387 6.7 12.7905 6.7 13.4927C6.7 14.195 6.77044 14.8467 6.87354 15.3737C6.98087 15.9223 7.11087 16.2698 7.19312 16.4069C7.23615 16.4786 7.26728 16.5101 7.28333 16.5237C7.2964 16.5348 7.31061 16.5438 7.33835 16.5526C7.41518 16.5768 7.58094 16.5955 7.95697 16.5485C7.98783 16.5447 8.0189 16.5427 8.05 16.5427C8.45734 16.5427 8.97163 16.5644 9.41654 16.7246C9.89354 16.8963 10.3662 17.2635 10.4836 17.9313C10.5932 18.3289 10.7179 18.9633 10.8152 19.5594C10.9144 20.167 11 20.8237 11 21.1927C11 21.518 10.9757 22.0053 10.8 22.462C10.6134 22.947 10.2318 23.4454 9.5319 23.6203L9.5127 23.6249C9.41844 23.6458 9.30673 23.6771 9.17985 23.7126C8.33191 23.9498 6.80646 24.3766 5.28663 23.1825C3.64104 21.8895 2 18.9258 2 13.4927C2 8.05968 3.64104 5.09597 5.28663 3.803C6.79677 2.61646 8.23986 3.03046 9.06878 3.26827ZM8.55491 4.69114C7.74179 4.47419 7.08375 4.29861 6.21337 4.98248C5.05896 5.88951 3.5 8.32581 3.5 13.4927C3.5 18.6597 5.05896 21.096 6.21337 22.003C7.09684 22.6972 7.83423 22.5056 8.68438 22.2847C8.84345 22.2434 9.00647 22.2011 9.17513 22.1633C9.27142 22.1376 9.33805 22.0845 9.39999 21.9235C9.47434 21.7302 9.5 21.4675 9.5 21.1927C9.5 20.9618 9.43559 20.4184 9.3348 19.8011C9.23584 19.1949 9.1164 18.6052 9.02886 18.2988C9.01949 18.266 9.01236 18.2326 9.00754 18.1988C9.00649 18.1915 9.00546 18.1865 9.00466 18.1832C8.99515 18.1757 8.96793 18.1573 8.90846 18.1359C8.73523 18.0735 8.46427 18.045 8.09441 18.0429C7.68594 18.0912 7.26961 18.1039 6.88665 17.9829C6.44059 17.8421 6.13103 17.5522 5.90688 17.1786C5.68913 16.8157 5.51913 16.2632 5.40146 15.6617C5.27956 15.0387 5.2 14.2905 5.2 13.4927C5.2 12.695 5.27956 11.9467 5.40146 11.3237C5.51913 10.7223 5.68913 10.1698 5.90688 9.80687C6.15323 9.39628 6.48687 9.14435 6.92163 9.02993C7.25546 8.94209 7.64354 8.94241 7.99077 8.94271C8.01065 8.94272 8.0304 8.94274 8.05 8.94274C8.25514 8.94274 8.42968 8.94245 8.58958 8.93187C8.75021 8.92125 8.86019 8.90202 8.93392 8.87842C8.96685 8.86788 8.98551 8.85873 8.99483 8.85334C8.99799 8.84399 9.00237 8.82712 9.00579 8.79971C9.01057 8.76151 9.01828 8.72372 9.02886 8.6867C9.10743 8.41171 9.17741 7.88068 9.24154 7.26504C9.26096 7.07854 9.27982 6.88448 9.29825 6.69489C9.33612 6.30519 9.37216 5.93433 9.40754 5.68667C9.44986 5.39045 9.43256 5.16859 9.37864 5.03378C9.35558 4.97612 9.32871 4.94129 9.29902 4.91609C9.26927 4.89083 9.20926 4.85198 9.0873 4.82488C8.90087 4.78345 8.72451 4.7364 8.55491 4.69114ZM9.00163 8.84899C9.00222 8.84847 9.00255 8.84822 9.00257 8.84823L9.00163 8.84899ZM9.00313 18.1782C9.00315 18.1782 9.00331 18.1786 9.00357 18.1793L9.00313 18.1782Z" fill="black"/>
<path fill-rule="evenodd" clip-rule="evenodd" d="M15.95 9.84274C16.1489 9.84274 16.3397 9.92176 16.4803 10.0624L20.2803 13.8624C20.5732 14.1553 20.5732 14.6302 20.2803 14.9231C19.9874 15.216 19.5126 15.216 19.2197 14.9231L15.95 11.6534L12.6803 14.9231C12.3874 15.216 11.9126 15.216 11.6197 14.9231C11.3268 14.6302 11.3268 14.1553 11.6197 13.8624L15.4197 10.0624C15.5603 9.92176 15.7511 9.84274 15.95 9.84274Z" fill="black"/>
<path fill-rule="evenodd" clip-rule="evenodd" d="M15.95 9.84274C16.3642 9.84274 16.7 10.1785 16.7 10.5927V27.4927C16.7 27.907 16.3642 28.2427 15.95 28.2427C15.5358 28.2427 15.2 27.907 15.2 27.4927V10.5927C15.2 10.1785 15.5358 9.84274 15.95 9.84274Z" fill="black"/>
<path d="M15.95 7.49274C16.3918 7.49274 16.75 7.13457 16.75 6.69274C16.75 6.25091 16.3918 5.89274 15.95 5.89274C15.5082 5.89274 15.15 6.25091 15.15 6.69274C15.15 7.13457 15.5082 7.49274 15.95 7.49274Z" fill="black"/>
<path d="M18.65 7.49274C19.0918 7.49274 19.45 7.13457 19.45 6.69274C19.45 6.25091 19.0918 5.89274 18.65 5.89274C18.2082 5.89274 17.85 6.25091 17.85 6.69274C17.85 7.13457 18.2082 7.49274 18.65 7.49274Z" fill="black"/>
<path d="M13.25 7.49274C13.6918 7.49274 14.05 7.13457 14.05 6.69274C14.05 6.25091 13.6918 5.89274 13.25 5.89274C12.8082 5.89274 12.45 6.25091 12.45 6.69274C12.45 7.13457 12.8082 7.49274 13.25 7.49274Z" fill="black"/>
</svg>
