<svg width="32" height="32" viewBox="0 0 32 32" fill="none" xmlns="http://www.w3.org/2000/svg">
<path fill-rule="evenodd" clip-rule="evenodd" d="M16.0501 3.5C15.2492 3.5 14.6001 4.14919 14.6001 4.95C14.6001 5.75081 15.2492 6.4 16.0501 6.4C16.8509 6.4 17.5001 5.75081 17.5001 4.95C17.5001 4.14919 16.8509 3.5 16.0501 3.5ZM13.1001 4.95C13.1001 3.32076 14.4208 2 16.0501 2C17.6793 2 19.0001 3.32076 19.0001 4.95C19.0001 6.32008 18.0661 7.47201 16.8001 7.80382V9.4H23.3501C25.888 9.4 27.8393 11.5767 27.5966 14.0216C27.5965 14.0226 27.5964 14.0236 27.5963 14.0246L26.4969 26.0185C26.4955 26.0337 26.4937 26.0489 26.4913 26.064C26.2337 27.7388 24.7112 29 23.0501 29H9.05005C7.40425 29 5.83913 27.7437 5.70272 26.0134L4.60378 14.0246C4.60367 14.0235 4.60356 14.0225 4.60345 14.0214C4.36088 11.5765 6.31214 9.4 8.85005 9.4H15.3001V7.80382C14.034 7.47201 13.1001 6.32008 13.1001 4.95ZM8.85005 10.9C7.18909 10.9 5.94095 12.3215 6.09633 13.8754L6.09695 13.8815L7.19793 25.8925C7.26459 26.7591 8.09771 27.5 9.05005 27.5H23.0501C23.9819 27.5 24.8533 26.7722 25.0055 25.8566L26.1037 13.8754C26.2591 12.3215 25.011 10.9 23.3501 10.9H8.85005ZM8.83471 13.688C8.79385 13.7315 8.78133 13.7756 8.78985 13.8267C8.79229 13.8414 8.7943 13.8561 8.79587 13.8709L9.49169 20.4315C9.51947 20.5496 9.55553 20.5834 9.55685 20.5846C9.55767 20.5854 9.5594 20.5871 9.5662 20.5895C9.5749 20.5926 9.60029 20.6 9.65005 20.6H22.4299C22.4395 20.595 22.4542 20.5852 22.4697 20.5697C22.4856 20.5538 22.4954 20.5389 22.5003 20.5293C22.5009 20.5098 22.5022 20.4903 22.5042 20.4709L23.2042 13.8709C23.2058 13.8561 23.2078 13.8414 23.2103 13.8267C23.2188 13.7756 23.2063 13.7315 23.1654 13.688C23.1194 13.6389 23.0423 13.6 22.9501 13.6H9.05005C8.95782 13.6 8.88074 13.6389 8.83471 13.688ZM7.30628 14.0484C7.13542 12.9287 8.07331 12.1 9.05005 12.1H22.9501C23.9268 12.1 24.8647 12.9287 24.6938 14.0484L23.9992 20.5973C23.9847 21.021 23.7765 21.3842 23.5304 21.6303C23.2751 21.8856 22.894 22.1 22.4501 22.1H9.65005C9.24121 22.1 8.85144 21.9729 8.54326 21.6904C8.24468 21.4167 8.08635 21.0557 8.01462 20.6971C8.01012 20.6746 8.00666 20.6519 8.00424 20.6291L7.30628 14.0484ZM12.8501 15.9C12.2149 15.9 11.7001 16.4149 11.7001 17.05C11.7001 17.6851 12.2149 18.2 12.8501 18.2C13.4852 18.2 14.0001 17.6851 14.0001 17.05C14.0001 16.4149 13.4852 15.9 12.8501 15.9ZM10.2001 17.05C10.2001 15.5864 11.3865 14.4 12.8501 14.4C14.3136 14.4 15.5001 15.5864 15.5001 17.05C15.5001 18.5136 14.3136 19.7 12.8501 19.7C11.3865 19.7 10.2001 18.5136 10.2001 17.05ZM19.2501 15.9C18.6149 15.9 18.1001 16.4149 18.1001 17.05C18.1001 17.6851 18.6149 18.2 19.2501 18.2C19.8852 18.2 20.4001 17.6851 20.4001 17.05C20.4001 16.4149 19.8852 15.9 19.2501 15.9ZM16.6001 17.05C16.6001 15.5864 17.7865 14.4 19.2501 14.4C20.7136 14.4 21.9001 15.5864 21.9001 17.05C21.9001 18.5136 20.7136 19.7 19.2501 19.7C17.7865 19.7 16.6001 18.5136 16.6001 17.05ZM2.67688 17.2036C3.08911 17.1632 3.45606 17.4646 3.49648 17.8768L3.99648 22.9768C4.03689 23.3891 3.73547 23.756 3.32323 23.7964C2.911 23.8368 2.54405 23.5354 2.50363 23.1232L2.00363 18.0232C1.96322 17.6109 2.26464 17.244 2.67688 17.2036ZM29.4232 17.2036C29.8355 17.244 30.1369 17.6109 30.0965 18.0232L29.5965 23.1232C29.5561 23.5354 29.1891 23.8368 28.7769 23.7964C28.3646 23.756 28.0632 23.3891 28.1036 22.9768L28.6036 17.8768C28.644 17.4646 29.011 17.1632 29.4232 17.2036ZM12.8501 23.3C13.2643 23.3 13.6001 23.6358 13.6001 24.05V25.35C13.6001 25.7642 13.2643 26.1 12.8501 26.1C12.4358 26.1 12.1001 25.7642 12.1001 25.35V24.05C12.1001 23.6358 12.4358 23.3 12.8501 23.3ZM16.0501 23.3C16.4643 23.3 16.8001 23.6358 16.8001 24.05V25.35C16.8001 25.7642 16.4643 26.1 16.0501 26.1C15.6358 26.1 15.3001 25.7642 15.3001 25.35V24.05C15.3001 23.6358 15.6358 23.3 16.0501 23.3ZM19.2501 23.3C19.6643 23.3 20.0001 23.6358 20.0001 24.05V25.35C20.0001 25.7642 19.6643 26.1 19.2501 26.1C18.8358 26.1 18.5001 25.7642 18.5001 25.35V24.05C18.5001 23.6358 18.8358 23.3 19.2501 23.3Z" fill="black"/>
</svg>
