<svg width="32" height="32" viewBox="0 0 32 32" fill="none" xmlns="http://www.w3.org/2000/svg">
<path fill-rule="evenodd" clip-rule="evenodd" d="M2 5.75C2 3.63579 3.63579 2 5.75 2H26.15C28.2629 2 29.898 3.63379 29.9 5.74613L30 15.7425C30.003 16.0505 29.8175 16.329 29.5322 16.4449C29.2468 16.5608 28.9196 16.4904 28.7071 16.2675L23.2092 10.4992L15.5432 20.4089C15.4017 20.5918 15.1838 20.6992 14.9525 20.7C14.7213 20.7008 14.5026 20.5948 14.3599 20.4129L10.9041 16.0067L3.30158 24.2582C3.09224 24.4854 2.765 24.561 2.47722 24.4486C2.18944 24.3363 2 24.0589 2 23.75V5.75ZM5.75 3.5C4.46421 3.5 3.5 4.46421 3.5 5.75V21.8291L10.3984 14.3418C10.5475 14.18 10.76 14.0919 10.9798 14.1006C11.1995 14.1093 11.4044 14.2141 11.5401 14.3871L14.9459 18.7295L22.5568 8.8911C22.6905 8.71819 22.8931 8.61224 23.1114 8.60099C23.3297 8.58974 23.5421 8.6743 23.6929 8.83255L28.481 13.8562L28.4 5.75C28.4 4.46421 27.4358 3.5 26.15 3.5H5.75Z" fill="black"/>
<path fill-rule="evenodd" clip-rule="evenodd" d="M23.0114 14.701C23.2297 14.6897 23.4421 14.7743 23.5929 14.9325L29.6929 21.3325C29.8258 21.472 29.9 21.6573 29.9 21.85V26.15C29.9 28.1479 28.2804 29.9 26.15 29.9H5.75C4.90032 29.9 4.16831 29.6556 3.56413 29.2931C3.37226 29.178 3.24181 28.9832 3.20841 28.762C3.175 28.5407 3.24212 28.3161 3.39145 28.1495L10.2914 20.4495C10.4394 20.2843 10.6529 20.1931 10.8746 20.2004C11.0962 20.2077 11.3033 20.3127 11.4401 20.4871L14.8459 24.8295L22.4568 14.9911C22.5905 14.8182 22.7931 14.7122 23.0114 14.701ZM23.1092 16.5992L15.4432 26.5089C15.3017 26.6918 15.0838 26.7992 14.8525 26.8C14.6213 26.8008 14.4026 26.6948 14.2599 26.5129L10.8118 22.1165L5.22537 28.3506C5.3913 28.3826 5.56605 28.4 5.75 28.4H26.15C27.4196 28.4 28.4 27.3521 28.4 26.15V22.1502L23.1092 16.5992Z" fill="black"/>
<path fill-rule="evenodd" clip-rule="evenodd" d="M8.95 6.9C7.81782 6.9 6.9 7.81782 6.9 8.95C6.9 10.0822 7.81782 11 8.95 11C10.0822 11 11 10.0822 11 8.95C11 7.81782 10.0822 6.9 8.95 6.9ZM5.4 8.95C5.4 6.98939 6.98939 5.4 8.95 5.4C10.9106 5.4 12.5 6.98939 12.5 8.95C12.5 10.9106 10.9106 12.5 8.95 12.5C6.98939 12.5 5.4 10.9106 5.4 8.95Z" fill="black"/>
</svg>
