<svg width="32" height="32" viewBox="0 0 32 32" fill="none" xmlns="http://www.w3.org/2000/svg">
<path fill-rule="evenodd" clip-rule="evenodd" d="M27.3 28.5H25.9V5.7C25.9 5.3 25.6 4.9 25.1 4.9H21.3V2.8C21.3 2.3 21 2 20.6 2H12.2C11.8 2 11.5 2.3 11.5 2.8V5H7.6C7.2 5 6.8 5.3 6.8 5.8V28.6H4.8C4.4 28.6 4 28.9 4 29.4C4 29.9 4.3 30 4.8 30H27.4C27.8 30 28.2 29.7 28.2 29.2C28.2 28.7 27.7 28.5 27.3 28.5ZM8.4 6.4H12.2C12.6 6.4 13 6.1 13 5.7V3.5H19.8V5.7C19.8 6.1 20.1 6.5 20.6 6.5H24.4V28.6H21.3V24.5C21.3 24.1 21 23.7 20.5 23.7H12.2C11.8 23.7 11.4 24 11.4 24.5V28.6H8.4V6.4ZM19.8 28.5H13V25.2H19.8V28.5Z" fill="black"/>
<path d="M13 13.8H10.7V16.1H13V13.8Z" fill="black"/>
<path d="M17.6 13.8H15.3V16.1H17.6V13.8Z" fill="black"/>
<path d="M22.1 13.8H19.8V16.1H22.1V13.8Z" fill="black"/>
<path d="M13 9.3H10.7V11.6H13V9.3Z" fill="black"/>
<path d="M17.6 9.3H15.3V11.6H17.6V9.3Z" fill="black"/>
<path d="M22.1 9.3H19.8V11.6H22.1V9.3Z" fill="black"/>
<path d="M13 18.3H10.7V20.6H13V18.3Z" fill="black"/>
<path d="M17.6 18.3H15.3V20.6H17.6V18.3Z" fill="black"/>
<path d="M22.1 18.3H19.8V20.6H22.1V18.3Z" fill="black"/>
</svg>
