<svg width="32" height="32" viewBox="0 0 32 32" fill="none" xmlns="http://www.w3.org/2000/svg">
<path d="M25.92 5.35H24.11V9.51C24.11 10.0404 23.8993 10.5491 23.5242 10.9242C23.1491 11.2993 22.6404 11.51 22.11 11.51C21.5796 11.51 21.0709 11.2993 20.6958 10.9242C20.3207 10.5491 20.11 10.0404 20.11 9.51V5.35H11.56V9.51C11.56 10.0404 11.3493 10.5491 10.9742 10.9242C10.5991 11.2993 10.0904 11.51 9.56 11.51C9.02957 11.51 8.52086 11.2993 8.14579 10.9242C7.77071 10.5491 7.56 10.0404 7.56 9.51V5.35H5.75C4.75544 5.35 3.80161 5.74509 3.09835 6.44835C2.39509 7.15161 2 8.10544 2 9.1V13.36H29.67V9.1C29.67 8.10544 29.2749 7.15161 28.5716 6.44835C27.8684 5.74509 26.9146 5.35 25.92 5.35Z" fill="black"/>
<path d="M22.11 10.26C22.3081 10.2574 22.4974 10.1776 22.6375 10.0375C22.7776 9.89737 22.8574 9.70811 22.86 9.51V2.75C22.86 2.55109 22.781 2.36032 22.6403 2.21967C22.4997 2.07902 22.3089 2 22.11 2C21.9111 2 21.7203 2.07902 21.5797 2.21967C21.439 2.36032 21.36 2.55109 21.36 2.75V9.51C21.36 9.70891 21.439 9.89968 21.5797 10.0403C21.7203 10.181 21.9111 10.26 22.11 10.26Z" fill="black"/>
<path d="M9.56 10.26C9.75811 10.2574 9.94737 10.1776 10.0875 10.0375C10.2276 9.89737 10.3074 9.70811 10.31 9.51V2.75C10.31 2.55109 10.231 2.36032 10.0903 2.21967C9.94968 2.07902 9.75891 2 9.56 2C9.36109 2 9.17032 2.07902 9.02967 2.21967C8.88902 2.36032 8.81 2.55109 8.81 2.75V9.51C8.81259 9.70811 8.89244 9.89737 9.03253 10.0375C9.17263 10.1776 9.36189 10.2574 9.56 10.26Z" fill="black"/>
<path d="M2 26.25C2 27.2446 2.39509 28.1984 3.09835 28.9017C3.80161 29.6049 4.75544 30 5.75 30H25.92C26.9146 30 27.8684 29.6049 28.5716 28.9017C29.2749 28.1984 29.67 27.2446 29.67 26.25V14.94H2V26.25Z" fill="black"/>
</svg>
