<svg width="32" height="32" viewBox="0 0 32 32" fill="none" xmlns="http://www.w3.org/2000/svg">
<path d="M25.9 5.3H22.8V2.8C22.8 2.4 22.5 2 22 2C21.5 2 21.2 2.3 21.2 2.8V5.4H10.2V2.8C10.3 2.3 10 2 9.6 2C9.2 2 8.8 2.3 8.8 2.8V5.4H5.8C3.7 5.3 2 7 2 9.1V26.3C2 28.3 3.7 30 5.8 30H26C28.1 30 29.8 28.3 29.8 26.2V9.1C29.7 7 28 5.3 25.9 5.3ZM5.8 6.8H8.9V9.5C8.9 9.9 9.2 10.3 9.7 10.3C10.2 10.3 10.5 10 10.5 9.5V6.8H21.5V9.5C21.5 9.9 21.8 10.3 22.3 10.3C22.8 10.3 23.1 10 23.1 9.5V6.8H26.2C27.4 6.8 28.4 7.8 28.4 9V13.3H3.5V9.1C3.5 7.9 4.5 6.8 5.8 6.8ZM25.9 28.5H5.8C4.6 28.5 3.6 27.5 3.6 26.3V14.9H28.3V26.3C28.2 27.5 27.2 28.5 25.9 28.5Z" fill="black"/>
</svg>
