<svg width="32" height="32" viewBox="0 0 32 32" fill="none" xmlns="http://www.w3.org/2000/svg">
<path d="M23.2538 2C21.9188 2 20.6137 2.39588 19.5037 3.13758C18.3937 3.87928 17.5285 4.93349 17.0176 6.16689C16.5067 7.40029 16.3731 8.75749 16.6335 10.0669C16.894 11.3762 17.5368 12.579 18.4808 13.523C19.4248 14.467 20.6276 15.1098 21.9369 15.3703C23.2463 15.6308 24.6035 15.4971 25.8369 14.9862C27.0703 14.4753 28.1245 13.6101 28.8662 12.5001C29.6079 11.3901 30.0038 10.085 30.0038 8.75C30.0038 6.95979 29.2927 5.2429 28.0268 3.97703C26.7609 2.71116 25.044 2 23.2538 2ZM26.9438 6.78L23.0538 12C22.9907 12.0882 22.9084 12.161 22.8131 12.213C22.7179 12.2649 22.6122 12.2947 22.5038 12.3H22.4438C22.3453 12.3005 22.2476 12.2812 22.1566 12.2435C22.0656 12.2057 21.9831 12.1501 21.9138 12.08L19.6438 9.79C19.5113 9.64783 19.4392 9.45978 19.4426 9.26548C19.4461 9.07118 19.5248 8.88579 19.6622 8.74838C19.7996 8.61097 19.985 8.53225 20.1793 8.52882C20.3736 8.5254 20.5616 8.59752 20.7038 8.73L22.3638 10.39L25.7438 5.88C25.8029 5.80121 25.8769 5.73482 25.9617 5.68464C26.0464 5.63446 26.1402 5.60147 26.2377 5.58754C26.3352 5.57361 26.4345 5.57902 26.5299 5.60346C26.6254 5.62791 26.715 5.67091 26.7938 5.73C26.8726 5.78909 26.939 5.86313 26.9892 5.94788C27.0393 6.03263 27.0723 6.12643 27.0863 6.22393C27.1002 6.32144 27.0948 6.42073 27.0703 6.51614C27.0459 6.61155 27.0029 6.70121 26.9438 6.78Z" fill="black"/>
<path d="M23.6538 23L22.8738 22.37C22.0338 21.68 20.8738 20.73 20.2538 20.29C19.2338 19.57 18.1071 19.9033 16.8738 21.29C16.1338 22.14 16.0438 22.11 15.7438 22.04C14.4372 21.5072 13.2631 20.6948 12.3038 19.66C11.269 18.7007 10.4567 17.5266 9.92381 16.22C9.85381 15.91 9.82381 15.82 10.6738 15.09C12.0838 13.87 12.4338 12.73 11.6738 11.71C11.2738 11.13 10.3238 10 9.63381 9.13C9.37381 8.81 9.14381 8.54 9.00381 8.35C8.00381 7.1 6.73381 6.73 5.60381 7.35L5.30381 7.51C4.45015 7.84407 3.70044 8.3987 3.13122 9.11726C2.562 9.83581 2.19366 10.6925 2.06381 11.6C1.78381 13.6 2.19381 17.95 8.12381 23.88C13.2438 29 17.1538 30 19.4438 30C19.778 29.9989 20.1119 29.9789 20.4438 29.94C21.3473 29.8103 22.2004 29.4442 22.9169 28.8788C23.6334 28.3133 24.1877 27.5686 24.5238 26.72L24.6838 26.42C25.2738 25.27 24.8938 24 23.6538 23ZM23.3338 25.68L23.1638 26.01C22.933 26.6502 22.5315 27.215 22.0027 27.6433C21.4739 28.0717 20.838 28.3472 20.1638 28.44C18.7438 28.64 14.8238 28.44 9.16381 22.81C3.50381 17.18 3.33381 13.21 3.53381 11.81C3.6373 11.1374 3.92185 10.5057 4.35697 9.9825C4.79209 9.4593 5.36137 9.06436 6.00381 8.84L6.33381 8.67C6.45332 8.60437 6.58746 8.56998 6.72381 8.57C6.95085 8.60381 7.16811 8.68549 7.3612 8.80962C7.55428 8.93375 7.71879 9.09749 7.84381 9.29L8.49381 10.08C9.17381 10.91 10.1038 12.08 10.4938 12.61C10.5738 12.73 10.7938 13.04 9.69381 13.99C8.94381 14.65 8.16381 15.32 8.47381 16.61C9.06997 18.1882 10.0212 19.6082 11.2538 20.76C12.404 21.9946 13.8244 22.9461 15.4038 23.54C16.6938 23.85 17.4038 23.07 18.0238 22.32C18.9738 21.22 19.2838 21.44 19.4038 21.52C19.9738 21.92 21.1138 22.85 21.9338 23.52L22.7238 24.17C23.1738 24.54 23.6538 25.11 23.3338 25.69V25.68Z" fill="black"/>
</svg>
