<svg width="32" height="32" viewBox="0 0 32 32" fill="none" xmlns="http://www.w3.org/2000/svg">
<path d="M23.6538 23L22.8738 22.37C22.0338 21.68 20.8738 20.73 20.2538 20.29C19.2338 19.57 18.1071 19.9033 16.8738 21.29C16.1338 22.14 16.0438 22.11 15.7438 22.04C14.4372 21.5072 13.2631 20.6948 12.3038 19.66C11.269 18.7007 10.4567 17.5266 9.92381 16.22C9.85381 15.91 9.82381 15.82 10.6738 15.09C12.0838 13.87 12.4338 12.73 11.6738 11.71C11.2738 11.13 10.3238 10 9.63381 9.13C9.37381 8.81 9.14381 8.54 9.00381 8.35C8.00381 7.1 6.73381 6.73 5.60381 7.35L5.30381 7.51C4.45015 7.84407 3.70044 8.3987 3.13122 9.11726C2.562 9.83581 2.19366 10.6925 2.06381 11.6C1.78381 13.6 2.19381 17.95 8.12381 23.88C13.2438 29 17.1538 30 19.4438 30C19.778 29.9989 20.1119 29.9789 20.4438 29.94C21.3473 29.8103 22.2004 29.4442 22.9169 28.8788C23.6334 28.3133 24.1877 27.5686 24.5238 26.72L24.6838 26.42C25.2738 25.27 24.8938 24 23.6538 23ZM23.3338 25.68L23.1638 26.01C22.933 26.6502 22.5315 27.215 22.0027 27.6433C21.4739 28.0717 20.838 28.3472 20.1638 28.44C18.7438 28.64 14.8238 28.44 9.16381 22.81C3.50381 17.18 3.33381 13.21 3.53381 11.81C3.6373 11.1374 3.92185 10.5057 4.35697 9.9825C4.79209 9.4593 5.36137 9.06436 6.00381 8.84L6.33381 8.67C6.45332 8.60437 6.58746 8.56998 6.72381 8.57C6.95085 8.60381 7.16811 8.68549 7.3612 8.80962C7.55428 8.93375 7.71879 9.09749 7.84381 9.29L8.49381 10.08C9.17381 10.91 10.1038 12.08 10.4938 12.61C10.5738 12.73 10.7938 13.04 9.69381 13.99C8.94381 14.65 8.16381 15.32 8.47381 16.61C9.06997 18.1882 10.0212 19.6082 11.2538 20.76C12.404 21.9946 13.8244 22.9461 15.4038 23.54C16.6938 23.85 17.4038 23.07 18.0238 22.32C18.9738 21.22 19.2838 21.44 19.4038 21.52C19.9738 21.92 21.1138 22.85 21.9338 23.52L22.7238 24.17C23.1738 24.54 23.6538 25.11 23.3338 25.69V25.68Z" fill="black"/>
<path d="M23.2538 2C21.9188 2 20.6137 2.39588 19.5037 3.13758C18.3937 3.87928 17.5285 4.93349 17.0176 6.16689C16.5067 7.40029 16.3731 8.75749 16.6335 10.0669C16.894 11.3762 17.5368 12.579 18.4808 13.523C19.4248 14.467 20.6276 15.1098 21.9369 15.3703C23.2463 15.6308 24.6035 15.4971 25.8369 14.9862C27.0703 14.4753 28.1245 13.6101 28.8662 12.5001C29.6079 11.3901 30.0038 10.085 30.0038 8.75C30.0038 6.95979 29.2927 5.2429 28.0268 3.97703C26.7609 2.71116 25.044 2 23.2538 2ZM24.5238 11.91L24.1138 12.32C23.6742 12.7556 23.1156 13.0516 22.5083 13.1707C21.901 13.2898 21.272 13.2269 20.7003 12.9897C20.1287 12.7525 19.6399 12.3516 19.2954 11.8375C18.9508 11.3234 18.7659 10.7189 18.7638 10.1C18.763 9.68904 18.8439 9.28202 19.0019 8.90261C19.1598 8.52321 19.3916 8.179 19.6838 7.89L20.0938 7.48C20.1516 7.42222 20.2202 7.37638 20.2957 7.34511C20.3712 7.31384 20.4521 7.29775 20.5338 7.29775C20.6155 7.29775 20.6964 7.31384 20.7719 7.34511C20.8474 7.37638 20.916 7.42222 20.9738 7.48C21.0316 7.53778 21.0774 7.60638 21.1087 7.68187C21.14 7.75737 21.1561 7.83828 21.1561 7.92C21.1561 8.00172 21.14 8.08263 21.1087 8.15813C21.0774 8.23362 21.0316 8.30222 20.9738 8.36L20.5638 8.77C20.3875 8.94388 20.2472 9.15089 20.1511 9.37913C20.055 9.60737 20.005 9.85235 20.0038 10.1C20.0011 10.3503 20.0484 10.5985 20.143 10.8303C20.2375 11.062 20.3774 11.2725 20.5543 11.4495C20.7313 11.6264 20.9418 11.7663 21.1736 11.8608C21.4053 11.9554 21.6536 12.0027 21.9038 12C22.4015 11.995 22.878 11.798 23.2338 11.45L23.6438 11C23.7605 10.8833 23.9188 10.8177 24.0838 10.8177C24.2488 10.8177 24.4071 10.8833 24.5238 11C24.6405 11.1167 24.7061 11.275 24.7061 11.44C24.7061 11.605 24.6405 11.7633 24.5238 11.88V11.91ZM24.6538 8.24L22.7438 10.15C22.6221 10.2649 22.4612 10.3292 22.2938 10.33C22.2122 10.3304 22.1314 10.3147 22.0559 10.2838C21.9804 10.253 21.9117 10.2075 21.8538 10.15C21.7383 10.0306 21.6738 9.87107 21.6738 9.705C21.6738 9.53893 21.7383 9.37936 21.8538 9.26L23.7638 7.35C23.8836 7.24085 24.0408 7.18203 24.2028 7.18578C24.3648 7.18953 24.5191 7.25556 24.6337 7.37014C24.7482 7.48472 24.8143 7.63904 24.818 7.80103C24.8218 7.96303 24.763 8.12024 24.6538 8.24ZM26.8238 9.61L26.4138 10C26.3576 10.0606 26.2896 10.1089 26.2139 10.142C26.1381 10.175 26.0564 10.1921 25.9738 10.1921C25.8912 10.1921 25.8095 10.175 25.7338 10.142C25.658 10.1089 25.59 10.0606 25.5338 10C25.4745 9.94307 25.4274 9.87475 25.3951 9.79914C25.3629 9.72353 25.3463 9.64219 25.3463 9.56C25.3463 9.47781 25.3629 9.39647 25.3951 9.32086C25.4274 9.24525 25.4745 9.17693 25.5338 9.12L25.9438 8.71C26.2942 8.35168 26.4914 7.87113 26.4938 7.37C26.4913 6.99806 26.3791 6.63513 26.1712 6.32667C25.9634 6.01821 25.6692 5.77793 25.3254 5.63594C24.9816 5.49394 24.6036 5.45654 24.2386 5.52841C23.8737 5.60029 23.5381 5.77825 23.2738 6.04L22.8638 6.45C22.7445 6.52973 22.6013 6.56563 22.4585 6.55158C22.3158 6.53753 22.1823 6.47441 22.0808 6.37297C21.9794 6.27152 21.9163 6.13804 21.9022 5.99527C21.8882 5.85249 21.9241 5.70927 22.0038 5.59L22.4038 5.18C22.6889 4.86393 23.0353 4.60912 23.4219 4.43106C23.8085 4.253 24.2273 4.15541 24.6528 4.14421C25.0784 4.13302 25.5017 4.20845 25.8972 4.36594C26.2926 4.52342 26.6519 4.75966 26.9532 5.06031C27.2546 5.36096 27.4916 5.71973 27.65 6.11482C27.8084 6.50992 27.8848 6.9331 27.8745 7.35863C27.8643 7.78416 27.7676 8.20318 27.5905 8.5902C27.4133 8.97723 27.1592 9.32419 26.8438 9.61H26.8238Z" fill="black"/>
</svg>
