<svg width="32" height="32" viewBox="0 0 32 32" fill="none" xmlns="http://www.w3.org/2000/svg">
<path fill-rule="evenodd" clip-rule="evenodd" d="M19.3288 2.21967C19.6217 2.51256 19.6217 2.98744 19.3288 3.28033L17.1092 5.5H24.2985C27.4029 5.5 30.0485 8.02607 30.0485 11.25C30.0485 14.3544 27.5224 17 24.2985 17C23.8843 17 23.5485 16.6642 23.5485 16.25C23.5485 15.8358 23.8843 15.5 24.2985 15.5C26.6746 15.5 28.5485 13.5456 28.5485 11.25C28.5485 8.87393 26.5941 7 24.2985 7H17.1092L19.3288 9.21967C19.6217 9.51256 19.6217 9.98744 19.3288 10.2803C19.036 10.5732 18.5611 10.5732 18.2682 10.2803L14.7682 6.78033C14.4753 6.48744 14.4753 6.01256 14.7682 5.71967L18.2682 2.21967C18.5611 1.92678 19.036 1.92678 19.3288 2.21967ZM7.67893 7.20956C8.25067 7.45212 8.70145 7.88375 9.00882 8.31407C9.24196 8.64047 9.74836 9.26813 10.2934 9.93997C10.3379 9.9948 10.3826 10.0499 10.4274 10.105C10.9172 10.7086 11.4135 11.32 11.6985 11.7C11.9314 12.0104 12.0616 12.3569 12.0731 12.7248C12.0845 13.0838 11.9813 13.4077 11.84 13.6815C11.5694 14.2058 11.0969 14.6605 10.6924 15.0144C10.2724 15.3819 10.0681 15.5816 9.96417 15.7525C9.90219 15.8543 9.87053 15.9457 9.92612 16.1681C9.99448 16.4415 10.2369 16.9555 10.6726 17.609C11.096 18.2441 11.6648 18.9556 12.3288 19.6197C12.3349 19.6258 12.3409 19.632 12.3468 19.6383C13.6701 21.0561 15.1462 21.8637 15.6927 22.0254C15.9062 22.0768 15.9961 22.0452 16.0961 21.9844C16.2669 21.8804 16.4666 21.6761 16.8341 21.2561C17.2032 20.8342 17.6834 20.367 18.2338 20.1001C18.8205 19.8157 19.5525 19.7391 20.2305 20.2366C21.1794 20.8726 22.9973 22.3897 23.6866 22.9806C24.0697 23.3089 24.5181 23.7714 24.7722 24.3473C25.0444 24.9643 25.0834 25.6996 24.6416 26.4359C24.5812 26.5366 24.5162 26.6546 24.4443 26.7852C23.8857 27.7997 22.9088 29.5739 20.4043 29.8926C17.5745 30.3398 13.2501 29.1639 8.06306 23.8752C2.87077 18.581 1.71574 14.2656 2.05431 11.557C2.38916 8.87817 4.45034 7.87191 5.47815 7.37014C5.54433 7.33784 5.60623 7.30762 5.66311 7.27918C6.37675 6.92236 7.0826 6.95658 7.67893 7.20956ZM7.0931 8.59044C6.86443 8.49342 6.62028 8.47764 6.33393 8.62082C6.28231 8.64663 6.22968 8.6727 6.17623 8.69919C5.13213 9.21652 3.77445 9.88922 3.54273 11.743C3.2813 13.8344 4.12627 17.7189 9.13397 22.8248C14.1391 27.9281 18.0096 28.7567 20.18 28.4094C20.1885 28.4081 20.197 28.4069 20.2055 28.4058C21.9205 28.1914 22.5321 27.1106 23.1058 26.0968C23.1887 25.9502 23.2708 25.8051 23.3554 25.6641C23.5136 25.4004 23.5026 25.1857 23.3998 24.9527C23.2789 24.6786 23.0274 24.3911 22.7104 24.1194C22.0036 23.5136 20.2381 22.0445 19.3825 21.474C19.3709 21.4663 19.3596 21.4583 19.3485 21.45C19.2316 21.3623 19.1213 21.3369 18.8882 21.4499C18.6136 21.583 18.2938 21.8658 17.9629 22.2439C17.6304 22.6239 17.2802 23.0196 16.876 23.2656C16.4028 23.5537 15.8943 23.622 15.3166 23.4776C15.3085 23.4756 15.3005 23.4734 15.2925 23.4711C14.4309 23.225 12.7241 22.2375 11.2591 20.6712C10.527 19.9379 9.8991 19.153 9.42448 18.441C8.96011 17.7445 8.60255 17.0585 8.47091 16.5319C8.3265 15.9543 8.39484 15.4457 8.68287 14.9725C8.9289 14.5684 9.32464 14.2181 9.70464 13.8856C10.1001 13.5395 10.3777 13.2442 10.5071 12.9935C10.5657 12.8798 10.5751 12.8099 10.5739 12.772C10.573 12.7431 10.5657 12.6896 10.4985 12.6C10.2319 12.2446 9.75399 11.6556 9.2547 11.0404C9.21278 10.9888 9.17071 10.9369 9.1286 10.885C8.59868 10.2319 8.05507 9.55953 7.78822 9.18593C7.59559 8.91625 7.34636 8.69788 7.0931 8.59044Z" fill="black"/>
</svg>
