<svg width="32" height="32" viewBox="0 0 32 32" fill="none" xmlns="http://www.w3.org/2000/svg">
<path d="M15.75 28.5C17.6876 28.5 19.5997 28.0584 21.3411 27.2087C23.0824 26.3591 24.6072 25.1237 25.7996 23.5965C26.992 22.0693 27.8207 20.2904 28.2226 18.395C28.6246 16.4995 28.5893 14.5374 28.1193 12.6577C27.6494 10.7779 26.7572 9.03003 25.5106 7.54674C24.264 6.06345 22.6957 4.88379 20.9248 4.09738C19.154 3.31097 17.2273 2.9385 15.2909 3.00827C13.3546 3.07803 11.4596 3.5882 9.75001 4.5C7.24109 5.83809 5.25145 7.97645 4.09739 10.5752C2.94332 13.1739 2.69105 16.0838 3.38069 18.8423C4.07033 21.6009 5.66229 24.0497 7.9035 25.7996C10.1447 27.5495 12.9066 28.5 15.75 28.5ZM14.15 26.88C12.5043 26.638 10.9329 26.0333 9.54936 25.1098C8.16584 24.1863 7.00475 22.967 6.15001 21.54H17.29L14.15 26.88ZM13.24 20.01L10.77 15.73L13.27 11.47H18.21L20.68 15.79L18.17 20.01H13.24ZM21.02 25.65C19.4259 26.5175 17.6447 26.9842 15.83 27.01L21.54 17.31L24.6 22.67C23.6347 23.9169 22.4141 24.9431 21.02 25.68V25.65ZM26.49 19.01C26.2359 19.7832 25.9007 20.5273 25.49 21.23L19.97 11.47H26.15C27.1356 13.8676 27.2558 16.5335 26.49 19.01ZM17.3 4.63C18.946 4.87136 20.5176 5.4757 21.9012 6.39927C23.2849 7.32283 24.4458 8.54251 25.3 9.97H14.15L17.3 4.63ZM10.43 5.83C12.0288 4.97939 13.8091 4.52661 15.62 4.51L9.91001 14.23L6.84001 8.86C7.81206 7.61049 9.03496 6.57834 10.43 5.83ZM4.97001 12.48C5.22391 11.7067 5.55912 10.9626 5.97001 10.26L11.51 20.01H5.32001C4.33843 17.6155 4.21478 14.9553 4.97001 12.48Z" fill="black"/>
</svg>
