<svg width="32" height="32" viewBox="0 0 32 32" fill="none" xmlns="http://www.w3.org/2000/svg">
<path fill-rule="evenodd" clip-rule="evenodd" d="M4.25806 3.50538C3.8709 3.50538 3.50538 3.8709 3.50538 4.25806V8.67383C3.50538 9.08953 3.16839 9.42652 2.75269 9.42652C2.33699 9.42652 2 9.08953 2 8.67383V4.25806C2 3.0395 3.0395 2 4.25806 2H8.67383C9.08953 2 9.42652 2.33699 9.42652 2.75269C9.42652 3.16839 9.08953 3.50538 8.67383 3.50538H4.25806ZM22.5735 2.75269C22.5735 2.33699 22.9105 2 23.3262 2H27.7419C28.9605 2 30 3.0395 30 4.25806V8.67383C30 9.08953 29.663 9.42652 29.2473 9.42652C28.8316 9.42652 28.4946 9.08953 28.4946 8.67383V4.25806C28.4946 3.8709 28.1291 3.50538 27.7419 3.50538H23.3262C22.9105 3.50538 22.5735 3.16839 22.5735 2.75269ZM16 12.638C14.1432 12.638 12.638 14.1432 12.638 16C12.638 17.8568 14.1432 19.362 16 19.362C17.8568 19.362 19.362 17.8568 19.362 16C19.362 14.1432 17.8568 12.638 16 12.638ZM11.1326 16C11.1326 13.3118 13.3118 11.1326 16 11.1326C18.6882 11.1326 20.8674 13.3118 20.8674 16C20.8674 18.6882 18.6882 20.8674 16 20.8674C13.3118 20.8674 11.1326 18.6882 11.1326 16ZM2.75269 22.5735C3.16839 22.5735 3.50538 22.9105 3.50538 23.3262V27.7419C3.50538 28.1291 3.8709 28.4946 4.25806 28.4946H8.67383C9.08953 28.4946 9.42652 28.8316 9.42652 29.2473C9.42652 29.663 9.08953 30 8.67383 30H4.25806C3.0395 30 2 28.9605 2 27.7419V23.3262C2 22.9105 2.33699 22.5735 2.75269 22.5735ZM29.2473 22.5735C29.663 22.5735 30 22.9105 30 23.3262V27.7419C30 28.9605 28.9605 30 27.7419 30H23.3262C22.9105 30 22.5735 29.663 22.5735 29.2473C22.5735 28.8316 22.9105 28.4946 23.3262 28.4946H27.7419C28.1291 28.4946 28.4946 28.1291 28.4946 27.7419V23.3262C28.4946 22.9105 28.8316 22.5735 29.2473 22.5735Z" fill="black"/>
</svg>
