<svg width="32" height="32" viewBox="0 0 32 32" fill="none" xmlns="http://www.w3.org/2000/svg">
<path fill-rule="evenodd" clip-rule="evenodd" d="M4.75 3.5C4.06421 3.5 3.5 4.06421 3.5 4.75V21.05C3.5 21.7358 4.06421 22.3 4.75 22.3H27.15C27.9089 22.3 28.4202 21.7549 28.5 21.1087V4.75C28.5 4.06421 27.9358 3.5 27.25 3.5H22.6V5H24.05C24.4642 5 24.8 5.33579 24.8 5.75C24.8 6.16421 24.4642 6.5 24.05 6.5H19.65C19.2358 6.5 18.9 6.16421 18.9 5.75C18.9 5.33579 19.2358 5 19.65 5H21.1V3.5H10.8V5H12.25C12.6642 5 13 5.33579 13 5.75C13 6.16421 12.6642 6.5 12.25 6.5H7.85C7.43579 6.5 7.1 6.16421 7.1 5.75C7.1 5.33579 7.43579 5 7.85 5H9.3V3.5H4.75ZM4.75 2C3.23579 2 2 3.23579 2 4.75V21.05C2 22.5642 3.23579 23.8 4.75 23.8H9.3V29.15C9.3 29.5642 9.63579 29.9 10.05 29.9C10.4642 29.9 10.8 29.5642 10.8 29.15V23.8H21.1V29.15C21.1 29.5642 21.4358 29.9 21.85 29.9C22.2642 29.9 22.6 29.5642 22.6 29.15V23.8H27.15C28.7781 23.8 29.8623 22.5639 29.9963 21.2246C29.9988 21.1998 30 21.1749 30 21.15V4.75C30 3.23579 28.7642 2 27.25 2H4.75ZM15.2 9.86293C13.0995 10.2195 11.5 12.0479 11.5 14.25C11.5 15.2943 11.8597 16.2546 12.462 17.0137L15.2 13.9628V9.86293ZM16.7 9.86293V13.3387L20.1113 12.6698C19.5596 11.2178 18.2697 10.1294 16.7 9.86293ZM20.3987 14.142L16.3406 14.9377L13.5781 18.0159C14.2647 18.4492 15.0781 18.7 15.95 18.7C18.4077 18.7 20.4 16.7077 20.4 14.25C20.4 14.2139 20.3996 14.1779 20.3987 14.142ZM12.1718 18.8467C13.1994 19.6923 14.5154 20.2 15.95 20.2C19.2361 20.2 21.9 17.5361 21.9 14.25C21.9 10.9639 19.2361 8.3 15.95 8.3C12.6639 8.3 10 10.9639 10 14.25C10 15.9155 10.6843 17.4212 11.7871 18.5012C11.8273 18.5771 11.8814 18.6474 11.9491 18.7082C12.0166 18.7688 12.0921 18.8149 12.1718 18.8467Z" fill="black"/>
</svg>
