<svg width="32" height="32" viewBox="0 0 32 32" fill="none" xmlns="http://www.w3.org/2000/svg">
<path d="M28.94 2.019C28.7165 1.98006 28.4867 2.00121 28.2741 2.08028C28.0615 2.15935 27.8737 2.29351 27.73 2.46901L23.73 7.24901L18.9 5.56899C18.7666 5.51975 18.6217 5.51058 18.4832 5.54256C18.3446 5.57454 18.2183 5.64629 18.12 5.74901L13.12 10.799L8.23999 9.019C8.1244 8.975 7.99952 8.9611 7.87708 8.97859C7.75463 8.99609 7.63863 9.0444 7.53998 9.119L3.10999 12.429C2.76711 12.6914 2.48884 13.0288 2.29645 13.4153C2.10405 13.8018 2.00265 14.2273 2 14.659V25.729C2 26.7236 2.39507 27.6774 3.09833 28.3807C3.80159 29.0839 4.75544 29.479 5.75 29.479H26.25C27.2446 29.479 28.1984 29.0839 28.9017 28.3807C29.6049 27.6774 30 26.7236 30 25.729V3.24901C29.9947 2.95248 29.8859 2.66712 29.6923 2.44246C29.4986 2.2178 29.2325 2.06799 28.94 2.019ZM4 13.619L8.09998 10.549L13.1 12.349C13.2351 12.3978 13.3814 12.4068 13.5214 12.3749C13.6615 12.343 13.7894 12.2715 13.89 12.169L18.83 7.16899L23.7 8.869C23.8439 8.91834 23.9994 8.92275 24.1458 8.88167C24.2923 8.84059 24.4228 8.75596 24.52 8.63899L26.14 6.709L23.53 14.019L19 11.689C18.8473 11.6104 18.6719 11.5873 18.5041 11.6238C18.3362 11.6603 18.1863 11.7541 18.08 11.889L13.08 18.139L8.17999 16.939C8.06283 16.9124 7.94105 16.9139 7.82458 16.9434C7.70812 16.973 7.6003 17.0297 7.51001 17.109L3.51001 20.569V14.639C3.50804 14.4428 3.55121 14.2488 3.63617 14.0719C3.72113 13.8951 3.84561 13.7401 4 13.619ZM28.49 25.709C28.49 26.3057 28.253 26.878 27.831 27.3C27.409 27.7219 26.8367 27.959 26.24 27.959H5.73999C5.14325 27.959 4.57094 27.7219 4.14899 27.3C3.72703 26.878 3.48999 26.3057 3.48999 25.709V22.549L8.16998 18.489L13.17 19.709C13.3098 19.7418 13.456 19.7348 13.5921 19.6889C13.7282 19.6429 13.8487 19.5598 13.94 19.449L18.84 13.299L23.61 15.689C23.7074 15.7332 23.813 15.7561 23.92 15.7561C24.0269 15.7561 24.1326 15.7332 24.23 15.689C24.3277 15.6487 24.4163 15.5888 24.4902 15.5132C24.5642 15.4375 24.6219 15.3477 24.66 15.249L28.5 4.50899L28.49 25.709Z" fill="black"/>
</svg>
