<svg width="32" height="32" viewBox="0 0 32 32" fill="none" xmlns="http://www.w3.org/2000/svg">
<path d="M24.14 13.0921C24.1459 10.9029 23.5017 8.76125 22.289 6.93816C21.0762 5.11507 19.3494 3.69255 17.3271 2.85069C15.3049 2.00882 13.0781 1.78548 10.9288 2.20892C8.77946 2.63236 6.80417 3.68355 5.253 5.22941C3.70183 6.77527 2.64453 8.74629 2.21495 10.8929C1.78538 13.0396 2.00284 15.2653 2.83982 17.2884C3.67679 19.3115 5.09564 21.0409 6.91673 22.2578C8.73783 23.4746 10.8793 24.1242 13.07 24.1242C14.2784 24.1218 15.478 23.9192 16.62 23.5246C17.1983 24.5805 18.0349 25.4728 19.0518 26.1182C20.0686 26.7635 21.2324 27.141 22.4347 27.2152C23.637 27.2895 24.8385 27.0581 25.9271 26.5428C27.0157 26.0274 27.9558 25.2449 28.6599 24.2681C29.3639 23.2914 29.8088 22.1524 29.9531 20.9574C30.0974 19.7623 29.9364 18.5502 29.4851 17.4342C29.0337 16.3182 28.3068 15.3346 27.3721 14.5753C26.4374 13.816 25.3254 13.3057 24.14 13.0921ZM16.01 22.1456C15.0427 22.4673 14.0294 22.6294 13.01 22.6253C11.122 22.6154 9.27903 22.0476 7.71316 20.9935C6.14729 19.9393 4.92845 18.4458 4.21004 16.701C3.49163 14.9562 3.30575 13.038 3.6758 11.1879C4.04585 9.33778 4.95529 7.63837 6.28966 6.30357C7.62404 4.96876 9.32371 4.0582 11.1748 3.68649C13.0258 3.31479 14.9456 3.49854 16.6924 4.21462C18.4392 4.93071 19.935 6.14712 20.9915 7.71078C22.0481 9.27444 22.6181 11.1155 22.63 13.0021C20.7826 13.0643 19.0316 13.841 17.7462 15.1683C16.4609 16.4957 15.7415 18.27 15.74 20.1171C15.7334 20.8026 15.8243 21.4856 16.01 22.1456ZM17.41 21.556C17.2771 21.0845 17.2098 20.5969 17.21 20.1071C17.2122 18.6761 17.759 17.2994 18.7395 16.2565C19.7201 15.2136 21.0609 14.5824 22.49 14.4911C22.2657 15.9833 21.6913 17.4013 20.8136 18.6292C19.9359 19.8571 18.7798 20.8601 17.44 21.556H17.41ZM22.85 25.733C21.8749 25.7355 20.9159 25.4843 20.0673 25.0043C19.2187 24.5242 18.5097 23.8318 18.01 22.995C19.6112 22.1906 20.9934 21.0104 22.0383 19.5555C23.0833 18.1006 23.7598 16.4143 24.01 14.641C25.3824 14.916 26.6031 15.692 27.4339 16.8177C28.2647 17.9433 28.6462 19.3379 28.5038 20.7294C28.3614 22.1208 27.7055 23.4094 26.6639 24.3437C25.6223 25.2781 24.2697 25.7912 22.87 25.783L22.85 25.733Z" fill="black"/>
<path d="M5.29 23.4247C4.6393 23.4247 4.00321 23.6175 3.46218 23.9788C2.92114 24.34 2.49945 24.8535 2.25044 25.4542C2.00143 26.055 1.93627 26.716 2.06322 27.3537C2.19016 27.9915 2.50351 28.5773 2.96362 29.0371C3.42373 29.4969 4.00996 29.81 4.64815 29.9368C5.28635 30.0637 5.94786 29.9986 6.54903 29.7497C7.1502 29.5009 7.66403 29.0795 8.02554 28.5389C8.38705 27.9982 8.58 27.3626 8.58 26.7123C8.58132 26.2802 8.49712 25.8521 8.33225 25.4527C8.16738 25.0532 7.9251 24.6902 7.61933 24.3847C7.31356 24.0791 6.95035 23.837 6.55059 23.6723C6.15083 23.5075 5.72242 23.4234 5.29 23.4247ZM5.29 28.4911C4.93555 28.4911 4.58908 28.3859 4.2945 28.1889C3.99992 27.9919 3.7705 27.712 3.63532 27.3845C3.50014 27.0571 3.46528 26.6969 3.53516 26.3497C3.60504 26.0025 3.77652 25.6838 4.02786 25.434C4.2792 25.1842 4.59908 25.0147 4.94696 24.9468C5.29484 24.8789 5.65506 24.9158 5.98196 25.0527C6.30886 25.1896 6.58773 25.4204 6.78321 25.7159C6.97869 26.0113 7.08198 26.3582 7.08 26.7123C7.08001 26.9468 7.03363 27.1789 6.94356 27.3954C6.85348 27.6118 6.72147 27.8083 6.55512 27.9736C6.38877 28.1389 6.19136 28.2698 5.97425 28.3586C5.75713 28.4474 5.52459 28.4924 5.29 28.4911Z" fill="black"/>
</svg>
