<svg width="32" height="32" viewBox="0 0 32 32" fill="none" xmlns="http://www.w3.org/2000/svg">
<path d="M23.18 16.5C24.515 16.5 25.8201 16.1041 26.9301 15.3624C28.0401 14.6207 28.9053 13.5665 29.4162 12.3331C29.9271 11.0997 30.0608 9.74252 29.8003 8.43314C29.5399 7.12377 28.897 5.92104 27.953 4.97703C27.009 4.03303 25.8062 3.39015 24.4969 3.1297C23.1875 2.86925 21.8303 3.00292 20.5969 3.51382C19.3635 4.02471 18.3093 4.88987 17.5676 5.9999C16.8259 7.10994 16.43 8.41498 16.43 9.75C16.43 11.5402 17.1412 13.2571 18.407 14.523C19.6729 15.7888 21.3898 16.5 23.18 16.5ZM19.57 9.73C19.6389 9.65925 19.7214 9.60301 19.8124 9.56461C19.9034 9.52622 20.0012 9.50643 20.1 9.50643C20.1988 9.50643 20.2966 9.52622 20.3876 9.56461C20.4786 9.60301 20.5611 9.65925 20.63 9.73L22.29 11.39L25.67 6.88C25.7291 6.80121 25.8031 6.73483 25.8879 6.68465C25.9726 6.63447 26.0664 6.60147 26.1639 6.58754C26.2614 6.57361 26.3607 6.57902 26.4561 6.60347C26.5515 6.62791 26.6412 6.67091 26.72 6.73C26.7988 6.7891 26.8652 6.86313 26.9154 6.94788C26.9655 7.03263 26.9985 7.12644 27.0125 7.22394C27.0264 7.32144 27.021 7.42073 26.9965 7.51614C26.9721 7.61155 26.9291 7.70121 26.87 7.78L23 13C22.9368 13.0882 22.8546 13.161 22.7593 13.213C22.6641 13.2649 22.5584 13.2947 22.45 13.3H22.39C22.2915 13.3005 22.1938 13.2812 22.1028 13.2435C22.0118 13.2057 21.9292 13.1501 21.86 13.08L19.57 10.79C19.4992 10.7211 19.443 10.6386 19.4046 10.5476C19.3662 10.4566 19.3464 10.3588 19.3464 10.26C19.3464 10.1612 19.3662 10.0634 19.4046 9.97239C19.443 9.88136 19.4992 9.79895 19.57 9.73Z" fill="black"/>
<path d="M29.25 16.25C29.0519 16.2526 28.8626 16.3324 28.7225 16.4725C28.5824 16.6126 28.5026 16.8019 28.5 17C28.5 17.5713 28.3875 18.1369 28.1689 18.6647C27.9503 19.1924 27.6298 19.672 27.2259 20.0759C26.822 20.4799 26.3424 20.8003 25.8147 21.0189C25.2869 21.2375 24.7213 21.35 24.15 21.35H15.91C15.7112 21.3502 15.5205 21.4293 15.38 21.57L10.38 26.57V22.1C10.38 21.9011 10.301 21.7103 10.1603 21.5697C10.0197 21.429 9.82891 21.35 9.63 21.35H7.85C6.69631 21.35 5.58987 20.8917 4.77409 20.0759C3.9583 19.2601 3.5 18.1537 3.5 17V8.85C3.5 7.69631 3.9583 6.58987 4.77409 5.77409C5.58987 4.95831 6.69631 4.5 7.85 4.5H16.19C16.2889 4.50135 16.387 4.48287 16.4786 4.44565C16.5702 4.40844 16.6534 4.35324 16.7233 4.28333C16.7932 4.21342 16.8484 4.1302 16.8856 4.0386C16.9229 3.947 16.9413 3.84887 16.94 3.75C16.94 3.55109 16.861 3.36033 16.7203 3.21967C16.5797 3.07902 16.3889 3 16.19 3H7.85C6.29848 3 4.81051 3.61634 3.71343 4.71343C2.61634 5.81052 2 7.29849 2 8.85V17C2.00264 18.5507 2.61983 20.0371 3.71635 21.1337C4.81286 22.2302 6.2993 22.8474 7.85 22.85H8.85V28.39C8.85259 28.5881 8.93244 28.7774 9.07253 28.9175C9.21263 29.0576 9.40189 29.1374 9.6 29.14C9.79841 29.1377 9.98828 29.0589 10.13 28.92L16.2 22.85H24.13C24.8995 22.8513 25.6618 22.701 26.3733 22.4078C27.0848 22.1145 27.7315 21.6839 28.2766 21.1407C28.8217 20.5975 29.2544 19.9522 29.5501 19.2418C29.8458 18.5313 29.9987 17.7695 30 17C29.9974 16.8019 29.9176 16.6126 29.7775 16.4725C29.6374 16.3324 29.4481 16.2526 29.25 16.25Z" fill="black"/>
</svg>
