<svg width="32" height="32" viewBox="0 0 32 32" fill="none" xmlns="http://www.w3.org/2000/svg">
<path d="M9.6 29.1C9.5 29.1 9.4 29.1 9.3 29C9 28.9 8.8 28.6 8.8 28.3V22.8H7.8C4.6 22.8 2 20.2 2 17V8.8C2 5.6 4.6 3 7.8 3H24.1C27.4 3 30 5.6 30 8.8V17C30 20.2 27.4 22.8 24.2 22.8H16.3L10.2 28.9C10 29.1 9.8 29.1 9.6 29.1ZM7.8 4.5C5.4 4.5 3.5 6.4 3.5 8.8V17C3.5 19.4 5.5 21.3 7.8 21.3H9.6C10 21.3 10.4 21.6 10.4 22.1V26.6L15.4 21.6C15.5 21.5 15.7 21.4 15.9 21.4H24.1C26.5 21.4 28.4 19.5 28.4 17.1V8.8C28.4 6.4 26.5 4.5 24.1 4.5H7.8Z" fill="black"/>
</svg>
