<svg width="32" height="32" viewBox="0 0 32 32" fill="none" xmlns="http://www.w3.org/2000/svg">
<path d="M7.85 22.85H8.85V28.38C8.84835 28.5292 8.89123 28.6755 8.97317 28.8002C9.05512 28.9249 9.17239 29.0223 9.31 29.08C9.40234 29.1159 9.50096 29.1329 9.6 29.13C9.79722 29.1314 9.98727 29.0561 10.13 28.92L16.2 22.85H24.13C24.8995 22.8513 25.6618 22.701 26.3733 22.4078C27.0848 22.1145 27.7315 21.6839 28.2766 21.1407C28.8217 20.5975 29.2544 19.9522 29.5501 19.2418C29.8458 18.5313 29.9987 17.7695 30 17V8.85C30 7.29848 29.3837 5.81051 28.2866 4.71343C27.1895 3.61634 25.7015 3 24.15 3H7.85C6.29848 3 4.81051 3.61634 3.71343 4.71343C2.61634 5.81051 2 7.29848 2 8.85V17C2.00264 18.5507 2.61983 20.0371 3.71635 21.1337C4.81286 22.2302 6.2993 22.8474 7.85 22.85Z" fill="black"/>
</svg>
