<svg width="32" height="32" viewBox="0 0 32 32" fill="none" xmlns="http://www.w3.org/2000/svg">
<path fill-rule="evenodd" clip-rule="evenodd" d="M3.49733 8.78274C3.58954 6.39012 5.46698 4.5417 7.83957 4.5417H16.025C16.4384 4.5417 16.7736 4.20771 16.7736 3.79572C16.7736 3.38372 16.4384 3.04973 16.025 3.04973H7.83957C4.62638 3.04973 2.11414 5.57115 2.00048 8.74232C2.00016 8.75119 2 8.76007 2 8.76894V16.925C2 20.122 4.63109 22.7437 7.83957 22.7437H8.8877V28.264C8.8877 28.5657 9.07011 28.8377 9.34986 28.9532C9.62962 29.0687 9.95163 29.0048 10.1657 28.7915L16.2352 22.7437H24.1105C27.319 22.7437 29.9501 20.122 29.9501 16.925C29.9501 16.513 29.6149 16.1791 29.2014 16.1791C28.788 16.1791 28.4528 16.513 28.4528 16.925C28.4528 19.298 26.4921 21.2517 24.1105 21.2517H15.9251C15.7266 21.2517 15.5362 21.3303 15.3958 21.4702L10.385 26.463V21.9977C10.385 21.5857 10.0498 21.2517 9.63636 21.2517H7.83957C5.45804 21.2517 3.49733 19.298 3.49733 16.925V8.78274Z" fill="black"/>
<path d="M23.2121 3C19.5187 3 16.4242 5.98394 16.4242 9.76359C16.4242 13.4438 19.4189 16.5272 23.2121 16.5272C26.9055 16.5272 30 13.5432 30 9.76359C30 5.98394 27.0053 3 23.2121 3ZM26.3066 9.96252C26.107 10.1614 26.0071 10.1614 25.8075 10.1614C25.6078 10.1614 25.4082 10.062 25.3084 9.96252L24.0107 8.66948V12.6481C24.0107 13.0459 23.7112 13.4438 23.2121 13.4438C22.8128 13.4438 22.4135 13.1454 22.4135 12.6481V8.66948L21.2157 9.96252C20.9162 10.2609 20.4171 10.2609 20.1176 9.96252C19.8182 9.66412 19.8182 9.1668 20.1176 8.86841C21.0493 7.94007 21.981 7.01174 22.9127 6.0834C22.9766 6.01964 23.1123 5.98394 23.2121 5.98394C23.3119 5.98394 23.5116 6.0834 23.5116 6.0834C23.5116 6.0834 25.8227 8.38624 26.3066 8.86841C26.6061 9.1668 26.6061 9.66412 26.3066 9.96252Z" fill="black"/>
</svg>
