<svg width="32" height="32" viewBox="0 0 32 32" fill="none" xmlns="http://www.w3.org/2000/svg">
<path d="M28.4637 2.20959C27.9671 1.97056 27.397 1.93376 26.8737 2.10694C26.3504 2.28013 25.9148 2.64977 25.6588 3.13791L20.9673 11.5527L19.2105 10.7142C18.8244 10.5216 18.3801 10.4815 17.9657 10.6017C17.5514 10.7219 17.1976 10.9937 16.9745 11.363L15.8566 13.03C12.5725 17.4919 8.34018 18.6099 4.24759 19.1589C3.98483 19.1902 3.73582 19.2935 3.52799 19.4573C3.32016 19.6211 3.16158 19.8391 3.06972 20.0872C2.97415 20.3354 2.94781 20.6048 2.99352 20.8668C3.03923 21.1288 3.15528 21.3734 3.32925 21.5745C4.14182 22.4506 5.03404 23.2493 5.99443 23.9602L6.21403 24.1299H6.49352C7.57943 24.0416 8.65324 23.8409 9.69772 23.531C9.03891 24.0999 8.50987 24.5292 8.49989 24.5292L7.66141 25.198L8.56976 25.747C10.2594 26.7698 12.0446 27.6256 13.9001 28.3023C15.9563 29.0933 18.0965 29.6459 20.2786 29.9494L20.7078 29.9993L20.9673 29.6499C23.4513 26.2065 25.4217 22.4204 26.8167 18.4103L27.5354 16.5836C27.7071 16.1705 27.7138 15.7073 27.5541 15.2894C27.3944 14.8715 27.0804 14.5309 26.677 14.3376L25.1198 13.599L29.4719 4.99455C29.7016 4.49073 29.7247 3.91694 29.5363 3.39629C29.3478 2.87564 28.9627 2.44961 28.4637 2.20959ZM20.029 28.3522C18.5596 28.1409 17.1105 27.807 15.6969 27.3541C17.4094 25.8582 18.9135 24.1393 20.1688 22.2433C20.2635 22.0777 20.2915 21.8822 20.247 21.6967C20.2025 21.5112 20.0888 21.3496 19.9292 21.2451C19.763 21.1488 19.5659 21.1209 19.3795 21.1675C19.1932 21.2141 19.0323 21.3314 18.931 21.4947C17.5775 23.4946 15.9438 25.2897 14.0798 26.825C12.7665 26.3318 11.492 25.7412 10.2667 25.0582C11.2346 24.2614 12.1421 23.3939 12.9818 22.4629C13.0887 22.3185 13.1465 22.1435 13.1465 21.9638C13.1465 21.7841 13.0887 21.6091 12.9818 21.4647C12.8706 21.3133 12.7113 21.2041 12.5299 21.1551C12.3485 21.1062 12.1559 21.1203 11.9836 21.1952C10.285 21.9256 8.49524 22.4226 6.66321 22.6725C5.88751 22.0568 5.15387 21.3898 4.46719 20.6761C8.53982 20.1371 13.1415 18.9692 16.715 14.4474L25.1797 18.4901C23.9045 21.9899 22.1726 25.306 20.029 28.3522ZM26.0182 15.6253C26.0757 15.6552 26.1193 15.7063 26.1398 15.7678C26.1602 15.8292 26.156 15.8963 26.128 15.9547L25.6987 17.0527L17.5635 13.1697L18.2323 12.1715C18.2637 12.1183 18.3137 12.0786 18.3728 12.0602C18.4318 12.0417 18.4955 12.0458 18.5517 12.0717L26.0182 15.6253ZM28.0944 4.34572L23.7523 12.8902L22.3149 12.2015L26.9565 3.83664C27.0366 3.70706 27.161 3.61095 27.3066 3.56618C27.4522 3.52142 27.6091 3.53103 27.7482 3.59324C27.8873 3.65546 27.999 3.76603 28.0627 3.90443C28.1264 4.04283 28.1376 4.19964 28.0944 4.34572Z" fill="black"/>
<path d="M9.89736 7.72959C10.4622 7.72172 11.0121 7.54703 11.4779 7.2275C11.9438 6.90796 12.3047 6.45783 12.5155 5.93371C12.7262 5.40959 12.7772 4.83487 12.6622 4.28181C12.5472 3.72875 12.2713 3.22203 11.8691 2.82536C11.4669 2.42869 10.9564 2.15979 10.4018 2.05244C9.8472 1.9451 9.27324 2.00412 8.75209 2.22207C8.23094 2.44003 7.78585 2.80719 7.47279 3.2774C7.15973 3.74762 6.99267 4.29989 6.99262 4.86478C6.99391 5.244 7.07022 5.61921 7.21715 5.96881C7.36408 6.3184 7.57873 6.63548 7.84872 6.90176C8.11872 7.16805 8.43873 7.37828 8.79033 7.52036C9.14193 7.66244 9.51816 7.73355 9.89736 7.72959ZM9.89736 3.49726C10.1678 3.49726 10.4322 3.57746 10.6571 3.72773C10.882 3.87799 11.0573 4.09157 11.1608 4.34145C11.2643 4.59133 11.2914 4.8663 11.2386 5.13157C11.1858 5.39685 11.0556 5.64052 10.8643 5.83177C10.6731 6.02302 10.4294 6.15326 10.1641 6.20603C9.89887 6.25879 9.62391 6.23171 9.37403 6.12821C9.12415 6.0247 8.91057 5.84942 8.7603 5.62454C8.61004 5.39965 8.52983 5.13525 8.52983 4.86478C8.52983 4.50209 8.67391 4.15426 8.93037 3.8978C9.18683 3.64134 9.53467 3.49726 9.89736 3.49726Z" fill="black"/>
<path d="M9.14871 11.9819C9.15658 12.4302 9.29672 12.8663 9.55153 13.2352C9.80634 13.6042 10.1645 13.8897 10.581 14.0559C10.9975 14.222 11.4537 14.2614 11.8926 14.1691C12.3314 14.0769 12.7332 13.857 13.0475 13.5372C13.3618 13.2174 13.5746 12.8118 13.6592 12.3715C13.7438 11.9311 13.6965 11.4756 13.5231 11.0621C13.3498 10.6485 13.0581 10.2954 12.6848 10.047C12.3114 9.79869 11.873 9.66616 11.4246 9.66609C11.1223 9.66604 10.8231 9.7262 10.5443 9.84307C10.2656 9.95993 10.0129 10.1311 9.80102 10.3467C9.58916 10.5623 9.42236 10.8179 9.31036 11.0987C9.19836 11.3794 9.14341 11.6797 9.14871 11.9819ZM12.2032 11.9819C12.2032 12.1884 12.1212 12.3864 11.9751 12.5324C11.8291 12.6785 11.6311 12.7605 11.4246 12.7605C11.2181 12.7605 11.0201 12.6785 10.874 12.5324C10.728 12.3864 10.646 12.1884 10.646 11.9819C10.646 11.7754 10.728 11.5774 10.874 11.4313C11.0201 11.2853 11.2181 11.2033 11.4246 11.2033C11.6311 11.2033 11.8291 11.2853 11.9751 11.4313C12.1212 11.5774 12.2032 11.7754 12.2032 11.9819Z" fill="black"/>
<path d="M5.27573 12.5509C5.72585 12.5509 6.16587 12.4174 6.54014 12.1673C6.9144 11.9172 7.20611 11.5618 7.37836 11.1459C7.55062 10.7301 7.59569 10.2725 7.50787 9.83098C7.42006 9.3895 7.2033 8.98398 6.88502 8.66569C6.56673 8.34741 6.16121 8.13065 5.71973 8.04284C5.27825 7.95502 4.82065 8.00009 4.40479 8.17235C3.98892 8.3446 3.63348 8.63631 3.3834 9.01057C3.13333 9.38484 2.99985 9.82486 2.99985 10.275C2.99985 10.5739 3.05871 10.8698 3.17309 11.1459C3.28746 11.422 3.4551 11.6729 3.66644 11.8843C4.09325 12.3111 4.67213 12.5509 5.27573 12.5509ZM5.27573 9.49639C5.48222 9.49639 5.68026 9.57842 5.82627 9.72444C5.97229 9.87045 6.05432 10.0685 6.05432 10.275C6.05432 10.3772 6.03418 10.4785 5.99505 10.5729C5.95592 10.6674 5.89857 10.7532 5.82627 10.8255C5.75397 10.8978 5.66814 10.9552 5.57368 10.9943C5.47922 11.0334 5.37797 11.0536 5.27573 11.0536C5.17348 11.0536 5.07224 11.0334 4.97777 10.9943C4.88331 10.9552 4.79748 10.8978 4.72518 10.8255C4.65288 10.7532 4.59553 10.6674 4.5564 10.5729C4.51728 10.4785 4.49714 10.3772 4.49714 10.275C4.49714 10.0685 4.57917 9.87045 4.72518 9.72444C4.87119 9.57842 5.06923 9.49639 5.27573 9.49639Z" fill="black"/>
</svg>
