<svg width="32" height="32" viewBox="0 0 32 32" fill="none" xmlns="http://www.w3.org/2000/svg">
<path d="M16 8.2C11.7 8.2 8.2 11.7 8.2 16C8.2 20.3 11.7 23.8 16 23.8C20.3 23.8 23.8 20.3 23.8 16C23.8 11.7 20.3 8.2 16 8.2ZM16 22.2C12.6 22.2 9.8 19.4 9.8 16C9.8 12.6 12.6 9.8 16 9.8C19.4 9.8 22.2 12.6 22.2 16C22.2 19.4 19.4 22.2 16 22.2Z" fill="black"/>
<path d="M16 6C16.4 6 16.8 5.7 16.8 5.2V2.8C16.8 2.3 16.4 2 16 2C15.6 2 15.2 2.3 15.2 2.8V5.3C15.2 5.7 15.6 6 16 6Z" fill="black"/>
<path d="M16 26C15.6 26 15.2 26.3 15.2 26.8V29.3C15.2 29.7 15.5 30.1 16 30.1C16.5 30.1 16.8 29.8 16.8 29.3V26.8C16.8 26.3 16.4 26 16 26Z" fill="black"/>
<path d="M23.6 9.1C23.8 9.1 24 9 24.1 8.9L25.9 7.1C26.2 6.8 26.2 6.3 25.9 6C25.6 5.7 25.1 5.7 24.8 6L23 7.8C22.7 8.1 22.7 8.6 23 8.9C23.2 9.1 23.4 9.1 23.6 9.1Z" fill="black"/>
<path d="M7.9 23.1L6.1 24.9C5.8 25.2 5.8 25.7 6.1 26C6.2 26.1 6.4 26.2 6.6 26.2C6.8 26.2 7 26 7.2 25.9L9 24.1C9.3 23.8 9.3 23.3 9 23C8.7 22.7 8.2 22.8 7.9 23.1Z" fill="black"/>
<path d="M29.2 15.2H26.7C26.3 15.2 25.9 15.5 25.9 16C25.9 16.5 26.2 16.8 26.7 16.8H29.2C29.6 16.8 30 16.5 30 16C30 15.5 29.7 15.2 29.2 15.2Z" fill="black"/>
<path d="M5.2 15.2H2.8C2.3 15.2 2 15.6 2 16C2 16.4 2.3 16.8 2.8 16.8H5.3C5.7 16.8 6 16.4 6 16C6 15.6 5.7 15.2 5.2 15.2Z" fill="black"/>
<path d="M24.1 23.1C23.8 22.8 23.3 22.8 23 23.1C22.7 23.4 22.7 23.9 23 24.2L24.8 26C24.9 26.1 25.1 26.2 25.3 26.2C25.5 26.2 25.7 26.1 25.8 26C26.1 25.7 26.1 25.2 25.8 24.9L24.1 23.1Z" fill="black"/>
<path d="M7.9 8.9C8 9.1 8.2 9.1 8.4 9.1C8.6 9.1 8.8 9 8.9 8.9C9.2 8.6 9.2 8.1 8.9 7.8L7.2 6.1C6.9 5.8 6.4 5.8 6.1 6.1C5.8 6.4 5.8 6.9 6.1 7.2L7.9 8.9Z" fill="black"/>
</svg>
