<svg width="32" height="32" viewBox="0 0 32 32" fill="none" xmlns="http://www.w3.org/2000/svg">
<path d="M29.2 18.9C28.9 18.7 28.6 18.7 28.3 19C26.4 20.7 23.9 21.6 21.3 21.6C15.3 21.6 10.5 16.8 10.5 10.8C10.5 8.2 11.4 5.7 13.1 3.8C13.3 3.6 13.3 3.2 13.2 2.9C13 2.6 12.7 2.5 12.4 2.6C6.2 4.2 2 9.7 2 16C2 23.7 8.3 30 16 30C22.3 30 27.8 25.8 29.5 19.7C29.6 19.4 29.5 19.1 29.2 18.9ZM16 28.5C9.1 28.5 3.5 22.9 3.5 16C3.5 11.2 6.3 6.8 10.5 4.8C9.5 6.6 9 8.6 9 10.7C9 17.5 14.5 23 21.3 23C23.4 23 25.4 22.5 27.2 21.5C25.2 25.7 20.8 28.5 16 28.5Z" fill="black"/>
<path d="M28.7 4.3L29.8 3.2C30.1 2.9 30.1 2.4 29.8 2.1C29.5 1.8 29 1.8 28.7 2.1L27.6 3.2L26.5 2.1C26.2 1.8 25.7 1.8 25.4 2.1C25.1 2.4 25.1 2.9 25.4 3.2L26.5 4.3L25.4 5.4C25.1 5.7 25.1 6.2 25.4 6.5C25.5 6.6 25.7 6.7 25.9 6.7C26.1 6.7 26.3 6.6 26.4 6.5L27.5 5.4L28.6 6.5C28.7 6.6 28.9 6.7 29.1 6.7C29.3 6.7 29.5 6.6 29.6 6.5C29.9 6.2 29.9 5.7 29.6 5.4L28.7 4.3Z" fill="black"/>
<path d="M17.1 8.5H18.1V9.5C18.1 9.9 18.4 10.2 18.8 10.2C19.2 10.2 19.5 9.9 19.5 9.5V8.5H20.5C20.9 8.5 21.2 8.2 21.2 7.8C21.2 7.4 20.9 7.1 20.5 7.1H19.5V6.1C19.5 5.7 19.2 5.4 18.8 5.4C18.4 5.4 18.1 5.7 18.1 6.1V7.1H17.1C16.7 7.1 16.4 7.4 16.4 7.8C16.4 8.1 16.7 8.5 17.1 8.5Z" fill="black"/>
<path d="M22.8 15C22.9 15.1 23.1 15.2 23.3 15.2C23.5 15.2 23.7 15.1 23.8 15L24.3 14.5L24.8 15C24.9 15.1 25.1 15.2 25.3 15.2C25.5 15.2 25.7 15.1 25.8 15C26.1 14.7 26.1 14.2 25.8 13.9L25.3 13.4L25.8 12.9C26.1 12.6 26.1 12.1 25.8 11.8C25.5 11.5 25 11.5 24.7 11.8L24.2 12.3L23.7 11.8C23.4 11.5 22.9 11.5 22.6 11.8C22.3 12.1 22.3 12.6 22.6 12.9L23.1 13.4L22.8 14C22.5 14.2 22.5 14.7 22.8 15Z" fill="black"/>
</svg>
