<svg width="32" height="32" viewBox="0 0 32 32" fill="none" xmlns="http://www.w3.org/2000/svg">
<path fill-rule="evenodd" clip-rule="evenodd" d="M5.75 6.5C4.46421 6.5 3.5 7.46421 3.5 8.75V23.05C3.5 24.3358 4.46421 25.3 5.75 25.3H26.15C27.4353 25.3 28.4137 24.3306 28.5 23.125V8.75C28.5 7.46421 27.5358 6.5 26.25 6.5H5.75ZM2 8.75C2 6.63579 3.63579 5 5.75 5H26.25C28.3642 5 30 6.63579 30 8.75V23.15C30 23.1656 29.9995 23.1812 29.9985 23.1968C29.8745 25.1811 28.2569 26.8 26.15 26.8H5.75C3.63579 26.8 2 25.1642 2 23.05V8.75ZM8.27404 12.7785C7.74891 13.5662 7.5 14.6125 7.5 15.55V16.25C7.5 17.2001 7.72936 18.2451 8.24037 19.0273C8.72839 19.7743 9.47785 20.3 10.65 20.3C12.3923 20.3 13.6 19.0815 13.6 17.65C13.6 17.2358 13.9358 16.9 14.35 16.9C14.7642 16.9 15.1 17.2358 15.1 17.65C15.1 20.0185 13.1077 21.8 10.65 21.8C8.92215 21.8 7.72161 20.9757 6.98462 19.8477C6.27064 18.7549 6 17.3999 6 16.25V15.55C6 14.3875 6.30109 13.0338 7.02596 11.9465C7.77013 10.8302 8.96532 10 10.65 10C13.1077 10 15.1 11.7815 15.1 14.15C15.1 14.5642 14.7642 14.9 14.35 14.9C13.9358 14.9 13.6 14.5642 13.6 14.15C13.6 12.7185 12.3923 11.5 10.65 11.5C9.53468 11.5 8.77986 12.0198 8.27404 12.7785ZM19.074 12.7785C18.5489 13.5662 18.3 14.6125 18.3 15.55V16.25C18.3 17.2001 18.5294 18.2451 19.0404 19.0273C19.5284 19.7743 20.2778 20.3 21.45 20.3C23.1923 20.3 24.4 19.0815 24.4 17.65C24.4 17.2358 24.7358 16.9 25.15 16.9C25.5642 16.9 25.9 17.2358 25.9 17.65C25.9 20.0185 23.9077 21.8 21.45 21.8C19.7222 21.8 18.5216 20.9757 17.7846 19.8477C17.0706 18.7549 16.8 17.4 16.8 16.25V15.55C16.8 14.3875 17.1011 13.0338 17.826 11.9465C18.5701 10.8302 19.7653 10 21.45 10C23.9077 10 25.9 11.7815 25.9 14.15C25.9 14.5642 25.5642 14.9 25.15 14.9C24.7358 14.9 24.4 14.5642 24.4 14.15C24.4 12.7185 23.1923 11.5 21.45 11.5C20.3347 11.5 19.5799 12.0198 19.074 12.7785Z" fill="black"/>
</svg>
