<svg width="32" height="32" viewBox="0 0 32 32" fill="none" xmlns="http://www.w3.org/2000/svg">
<path fill-rule="evenodd" clip-rule="evenodd" d="M2 7.77061C2 7.35491 2.33699 7.01792 2.75269 7.01792H24.3297C24.7454 7.01792 25.0824 7.35491 25.0824 7.77061V24.3297C25.0824 24.7454 24.7454 25.0824 24.3297 25.0824H2.75269C2.33699 25.0824 2 24.7454 2 24.3297V7.77061ZM3.50538 8.5233V23.5771H23.5771V8.5233H3.50538Z" fill="black"/>
<path fill-rule="evenodd" clip-rule="evenodd" d="M7.01792 2.75269C7.01792 2.33699 7.35491 2 7.77061 2H29.2473C29.663 2 30 2.33699 30 2.75269V19.2115C30 19.6272 29.663 19.9642 29.2473 19.9642H24.2294V18.4588H28.4946V3.50538H8.5233V7.77061H7.01792V2.75269Z" fill="black"/>
<path fill-rule="evenodd" clip-rule="evenodd" d="M8.0215 29.2473C8.0215 28.8316 8.35849 28.4946 8.77419 28.4946H17.2043C17.62 28.4946 17.957 28.8316 17.957 29.2473C17.957 29.663 17.62 30 17.2043 30H8.77419C8.35849 30 8.0215 29.663 8.0215 29.2473Z" fill="black"/>
<path fill-rule="evenodd" clip-rule="evenodd" d="M13.7419 24.2294V29.2473H12.2366V24.2294H13.7419Z" fill="black"/>
</svg>
