<svg width="32" height="32" viewBox="0 0 32 32" fill="none" xmlns="http://www.w3.org/2000/svg">
<path d="M11.075 19.4196L5.375 16.2196L10.675 13.2196C11.075 12.9196 11.175 12.5196 10.975 12.1196C10.775 11.7196 10.275 11.6196 9.875 11.8196L3.375 15.6196C2.875 15.9196 2.875 16.6196 3.375 16.9196L10.275 20.7196C10.675 20.9196 11.075 20.8196 11.275 20.4196C11.575 20.0196 11.475 19.5196 11.075 19.4196Z" fill="black"/>
<path d="M29.175 15.6196L22.275 11.8196C21.875 11.6196 21.475 11.7196 21.275 12.1196C21.075 12.5196 21.175 12.9196 21.575 13.1196L27.275 16.3196L21.975 19.3196C21.575 19.5196 21.475 20.0196 21.675 20.4196C21.875 20.8196 22.375 20.9196 22.775 20.7196L29.275 16.9196C29.775 16.6196 29.675 15.9196 29.175 15.6196Z" fill="black"/>
<path d="M19.675 5.01962C19.175 4.91962 18.875 5.21962 18.675 5.51962L12.375 26.3196C12.275 26.8196 12.575 27.1196 12.875 27.3196C13.375 27.4196 13.675 27.1196 13.875 26.8196L20.175 6.01962C20.275 5.51962 20.075 5.21962 19.675 5.01962Z" fill="black"/>
</svg>
