<svg width="32" height="32" viewBox="0 0 32 32" fill="none" xmlns="http://www.w3.org/2000/svg">
<path d="M2.75 6.5H24.75C24.9481 6.50259 25.1374 6.58244 25.2775 6.72253C25.4176 6.86263 25.4974 7.05189 25.5 7.25V29.25C25.4974 29.4481 25.4176 29.6374 25.2775 29.7775C25.1374 29.9176 24.9481 29.9974 24.75 30H2.75C2.55189 29.9974 2.36263 29.9176 2.22253 29.7775C2.08244 29.6374 2.00259 29.4481 2 29.25V7.25C2.00259 7.05189 2.08244 6.86263 2.22253 6.72253C2.36263 6.58244 2.55189 6.50259 2.75 6.5ZM3.5 28.5H24V8H3.5V28.5Z" fill="black"/>
<path d="M7 2.75C7.00259 2.55189 7.08244 2.36263 7.22253 2.22253C7.36263 2.08244 7.55189 2.00259 7.75 2H29.25C29.4481 2.00259 29.6374 2.08244 29.7775 2.22253C29.9176 2.36263 29.9974 2.55189 30 2.75V24.25C29.9974 24.4481 29.9176 24.6374 29.7775 24.7775C29.6374 24.9176 29.4481 24.9974 29.25 25C29.0519 24.9974 28.8626 24.9176 28.7225 24.7775C28.5824 24.6374 28.5026 24.4481 28.5 24.25V3.5H7.75C7.55189 3.49741 7.36263 3.41756 7.22253 3.27747C7.08244 3.13737 7.00259 2.94811 7 2.75Z" fill="black"/>
<path d="M19.75 19H7.75C7.55109 19 7.36032 18.921 7.21967 18.7803C7.07902 18.6397 7 18.4489 7 18.25C7 18.0511 7.07902 17.8603 7.21967 17.7197C7.36032 17.579 7.55109 17.5 7.75 17.5H19.75C19.9489 17.5 20.1397 17.579 20.2803 17.7197C20.421 17.8603 20.5 18.0511 20.5 18.25C20.5 18.4489 20.421 18.6397 20.2803 18.7803C20.1397 18.921 19.9489 19 19.75 19Z" fill="black"/>
</svg>
