<svg width="32" height="32" viewBox="0 0 32 32" fill="none" xmlns="http://www.w3.org/2000/svg">
<path d="M16 2C13.2311 2 10.5243 2.82109 8.22202 4.35943C5.91973 5.89777 4.12532 8.08427 3.06569 10.6424C2.00607 13.2006 1.72882 16.0155 2.26901 18.7313C2.80921 21.447 4.14258 23.9416 6.10051 25.8995C8.05845 27.8574 10.553 29.1908 13.2687 29.731C15.9845 30.2712 18.7994 29.9939 21.3576 28.9343C23.9157 27.8747 26.1022 26.0803 27.6406 23.778C29.1789 21.4757 30 18.7689 30 16C30 12.287 28.525 8.72601 25.8995 6.1005C23.274 3.475 19.713 2 16 2ZM16 28.5C13.5277 28.5 11.111 27.7669 9.05538 26.3934C6.99976 25.0199 5.39761 23.0676 4.45151 20.7835C3.50542 18.4995 3.25787 15.9861 3.74019 13.5614C4.22251 11.1366 5.41301 8.90932 7.16117 7.16117C8.90933 5.41301 11.1366 4.2225 13.5614 3.74018C15.9861 3.25787 18.4995 3.50541 20.7835 4.45151C23.0676 5.3976 25.0199 6.99976 26.3934 9.05537C27.7669 11.111 28.5 13.5277 28.5 16C28.4947 19.3136 27.1761 22.4899 24.833 24.833C22.4899 27.1761 19.3136 28.4947 16 28.5Z" fill="black"/>
<path d="M16.53 8.53C16.4611 8.45924 16.3786 8.40301 16.2876 8.36461C16.1966 8.32621 16.0988 8.30643 16 8.30643C15.9012 8.30643 15.8034 8.32621 15.7124 8.36461C15.6214 8.40301 15.539 8.45924 15.47 8.53L9.47001 14.53C9.33753 14.6722 9.2654 14.8602 9.26883 15.0545C9.27226 15.2488 9.35097 15.4342 9.48838 15.5716C9.6258 15.709 9.81118 15.7877 10.0055 15.7912C10.1998 15.7946 10.3878 15.7225 10.53 15.59L16 10.12L21.47 15.59C21.6106 15.7305 21.8013 15.8093 22 15.8093C22.1988 15.8093 22.3894 15.7305 22.53 15.59C22.6705 15.4494 22.7493 15.2588 22.7493 15.06C22.7493 14.8612 22.6705 14.6706 22.53 14.53L16.53 8.53Z" fill="black"/>
<path d="M16.53 14.41C16.3894 14.2695 16.1988 14.1907 16 14.1907C15.8013 14.1907 15.6106 14.2695 15.47 14.41L9.47001 20.41C9.32956 20.5506 9.25067 20.7412 9.25067 20.94C9.25067 21.1388 9.32956 21.3294 9.47001 21.47C9.53895 21.5408 9.62137 21.597 9.71239 21.6354C9.80342 21.6738 9.90121 21.6936 10 21.6936C10.0988 21.6936 10.1966 21.6738 10.2876 21.6354C10.3786 21.597 10.4611 21.5408 10.53 21.47L16 16L21.47 21.47C21.6106 21.6104 21.8013 21.6893 22 21.6893C22.1988 21.6893 22.3894 21.6104 22.53 21.47C22.6705 21.3294 22.7493 21.1388 22.7493 20.94C22.7493 20.7412 22.6705 20.5506 22.53 20.41L16.53 14.41Z" fill="black"/>
</svg>
