<svg width="32" height="32" viewBox="0 0 32 32" fill="none" xmlns="http://www.w3.org/2000/svg">
<path fill-rule="evenodd" clip-rule="evenodd" d="M5.85 4.5C4.56421 4.5 3.5 5.56421 3.5 6.85V19.05C3.5 20.3358 4.56421 21.4 5.85 21.4H9.65C10.0642 21.4 10.4 21.7358 10.4 22.15V26.6393L15.4197 21.6197C15.5603 21.479 15.7511 21.4 15.95 21.4H26.15C27.4358 21.4 28.5 20.3358 28.5 19.05V6.85C28.5 5.57811 27.5443 4.5872 26.2267 4.5H5.85ZM2 6.85C2 4.73579 3.73579 3 5.85 3H26.25C26.2647 3 26.2794 3.00043 26.294 3.00129C28.3657 3.12316 30 4.72855 30 6.85V19.05C30 21.1642 28.2642 22.9 26.15 22.9H16.2607L10.1803 28.9803C9.96583 29.1948 9.64324 29.259 9.36299 29.1429C9.08273 29.0268 8.9 28.7533 8.9 28.45V22.9H5.85C3.73579 22.9 2 21.1642 2 19.05V6.85ZM8.6 7.95C8.6 7.53579 8.93579 7.2 9.35 7.2H22.75C23.1642 7.2 23.5 7.53579 23.5 7.95C23.5 8.36421 23.1642 8.7 22.75 8.7H9.35C8.93579 8.7 8.6 8.36421 8.6 7.95ZM8.6 12.55C8.6 12.1358 8.93579 11.8 9.35 11.8H17.65C18.0642 11.8 18.4 12.1358 18.4 12.55C18.4 12.9642 18.0642 13.3 17.65 13.3H9.35C8.93579 13.3 8.6 12.9642 8.6 12.55ZM8.6 17.15C8.6 16.7358 8.93579 16.4 9.35 16.4H20.75C21.1642 16.4 21.5 16.7358 21.5 17.15C21.5 17.5642 21.1642 17.9 20.75 17.9H9.35C8.93579 17.9 8.6 17.5642 8.6 17.15Z" fill="black"/>
</svg>
