<svg width="32" height="32" viewBox="0 0 32 32" fill="none" xmlns="http://www.w3.org/2000/svg">
<path fill-rule="evenodd" clip-rule="evenodd" d="M2 3.75C2 3.33579 2.33579 3 2.75 3H29.25C29.6642 3 30 3.33579 30 3.75V23.65C30 24.0642 29.6642 24.4 29.25 24.4H18.5V28.4H22.15C22.5642 28.4 22.9 28.7358 22.9 29.15C22.9 29.5642 22.5642 29.9 22.15 29.9H9.75C9.33579 29.9 9 29.5642 9 29.15C9 28.7358 9.33579 28.4 9.75 28.4H13.4V24.4H2.75C2.33579 24.4 2 24.0642 2 23.65V3.75ZM14.9 24.4V28.4H17V24.4H14.9ZM3.5 4.5V22.9H28.5V4.5H3.5ZM5 6.75C5 6.33579 5.33579 6 5.75 6H26.25C26.6642 6 27 6.33579 27 6.75V20.65C27 21.0642 26.6642 21.4 26.25 21.4H5.75C5.33579 21.4 5 21.0642 5 20.65V6.75ZM6.5 7.5V19.9H25.5V7.5H6.5Z" fill="black"/>
</svg>
