<svg width="32" height="32" viewBox="0 0 32 32" fill="none" xmlns="http://www.w3.org/2000/svg">
<path d="M28.8794 23.7794L19.1794 13.9794C19.5794 12.9794 19.7794 11.9794 19.7794 10.8794C19.7794 8.47937 18.8794 6.27937 17.1794 4.57937C14.5794 1.97937 10.5794 1.27937 7.27937 2.77937C6.97937 2.87937 6.87937 3.07937 6.77937 3.27937C6.77937 3.47937 6.77937 3.77937 6.97937 3.97937L11.5794 8.57937C11.9794 8.97937 12.1794 9.47937 12.1794 10.0794C12.1794 10.6794 11.9794 11.1794 11.5794 11.5794C10.7794 12.3794 9.37937 12.3794 8.57937 11.5794L3.97937 6.97937C3.77937 6.77937 3.57937 6.77937 3.27937 6.77937C3.07937 6.87937 2.87937 6.97937 2.77937 7.27937C1.27937 10.6794 1.97937 14.5794 4.57937 17.1794C6.27937 18.8794 8.47937 19.7794 10.8794 19.7794C11.9794 19.7794 12.9794 19.5794 13.9794 19.1794L23.6794 28.8794C24.3794 29.5794 25.2794 29.9794 26.2794 29.9794C27.2794 29.9794 28.1794 29.5794 28.8794 28.8794C30.3794 27.4794 30.3794 25.1794 28.8794 23.7794ZM5.67937 16.0794C3.77937 14.1794 3.07937 11.4794 3.77937 8.87937L7.47937 12.5794C8.87937 13.9794 11.1794 13.9794 12.6794 12.5794C13.3794 11.8794 13.7794 10.9794 13.7794 9.97937C13.7794 8.97937 13.3794 8.07937 12.6794 7.37937L8.87937 3.77937C11.3794 3.07937 14.1794 3.77937 16.0794 5.67937C17.4794 7.07937 18.2794 8.87937 18.2794 10.8794C18.2794 12.8794 17.4794 14.6794 16.0794 16.0794C14.6794 17.4794 12.8794 18.2794 10.8794 18.2794C8.87937 18.2794 7.07937 17.4794 5.67937 16.0794ZM17.1794 17.1794C17.6794 16.6794 18.1794 16.0794 18.4794 15.4794L25.4794 22.4794L22.4794 25.4794L15.4794 18.4794C16.0794 18.0794 16.6794 17.6794 17.1794 17.1794ZM27.8794 27.8794C27.0794 28.6794 25.6794 28.6794 24.8794 27.8794L23.5794 26.5794L26.5794 23.5794L27.8794 24.8794C28.2794 25.2794 28.4794 25.7794 28.4794 26.3794C28.4794 26.8794 28.2794 27.4794 27.8794 27.8794Z" fill="black"/>
</svg>
