<svg width="32" height="32" viewBox="0 0 32 32" fill="none" xmlns="http://www.w3.org/2000/svg">
<path fill-rule="evenodd" clip-rule="evenodd" d="M5.8363 4.49466C4.55509 4.49466 3.49466 5.55509 3.49466 6.8363V20.089C3.49466 21.3702 4.55509 22.4306 5.8363 22.4306H26.1637C27.4449 22.4306 28.5053 21.3702 28.5053 20.089V6.93594C28.5053 5.65473 27.4449 4.59431 26.1637 4.59431H19.5872C19.1744 4.59431 18.8399 4.25971 18.8399 3.84698C18.8399 3.43424 19.1744 3.09964 19.5872 3.09964H26.1637C28.2704 3.09964 30 4.82925 30 6.93594V20.089C30 22.1957 28.2704 23.9253 26.1637 23.9253H5.8363C3.72961 23.9253 2 22.1957 2 20.089V6.8363C2 4.72961 3.72961 3 5.8363 3H12.4128C12.8256 3 13.1601 3.33459 13.1601 3.74733C13.1601 4.16007 12.8256 4.49466 12.4128 4.49466H5.8363Z" fill="black"/>
<path fill-rule="evenodd" clip-rule="evenodd" d="M16 16.9502C13.7223 16.9502 11.8648 18.8078 11.8648 21.0854V22.331H20.1352V21.0854C20.1352 18.8078 18.2777 16.9502 16 16.9502ZM10.3701 21.0854C10.3701 17.9823 12.8969 15.4555 16 15.4555C19.1031 15.4555 21.6299 17.9823 21.6299 21.0854V23.0783C21.6299 23.491 21.2953 23.8256 20.8826 23.8256H11.1174C10.7047 23.8256 10.3701 23.491 10.3701 23.0783V21.0854Z" fill="black"/>
<path fill-rule="evenodd" clip-rule="evenodd" d="M16 9.67616C14.9269 9.67616 14.0569 10.5461 14.0569 11.6192C14.0569 12.6923 14.9269 13.5623 16 13.5623C17.0731 13.5623 17.9431 12.6923 17.9431 11.6192C17.9431 10.5461 17.0731 9.67616 16 9.67616ZM12.5623 11.6192C12.5623 9.72062 14.1014 8.1815 16 8.1815C17.8986 8.1815 19.4377 9.72062 19.4377 11.6192C19.4377 13.5178 17.8986 15.0569 16 15.0569C14.1014 15.0569 12.5623 13.5178 12.5623 11.6192Z" fill="black"/>
<path fill-rule="evenodd" clip-rule="evenodd" d="M16 22.331C16.4127 22.331 16.7473 22.6656 16.7473 23.0783V27.8612C16.7473 28.2739 16.4127 28.6085 16 28.6085C15.5873 28.6085 15.2527 28.2739 15.2527 27.8612V23.0783C15.2527 22.6656 15.5873 22.331 16 22.331Z" fill="black"/>
<path fill-rule="evenodd" clip-rule="evenodd" d="M10.0712 28.1601C10.0712 27.7474 10.4058 27.4128 10.8185 27.4128H21.1815C21.5942 27.4128 21.9288 27.7474 21.9288 28.1601C21.9288 28.5729 21.5942 28.9075 21.1815 28.9075H10.8185C10.4058 28.9075 10.0712 28.5729 10.0712 28.1601Z" fill="black"/>
<path d="M16 4.64413C16.4403 4.64413 16.7972 4.28723 16.7972 3.84698C16.7972 3.40672 16.4403 3.04982 16 3.04982C15.5597 3.04982 15.2028 3.40672 15.2028 3.84698C15.2028 4.28723 15.5597 4.64413 16 4.64413Z" fill="black"/>
</svg>
