<svg width="32" height="32" viewBox="0 0 32 32" fill="none" xmlns="http://www.w3.org/2000/svg">
<path fill-rule="evenodd" clip-rule="evenodd" d="M30 5.75269C30 5.33699 29.663 5 29.2473 5H10.7814C10.3657 5 10.0287 5.33699 10.0287 5.75269V10.1685C10.0287 10.5842 10.3657 10.9211 10.7814 10.9211C11.1971 10.9211 11.534 10.5842 11.534 10.1685V6.50538H28.4946V21.4588H11.534V17.6953C11.534 17.2796 11.1971 16.9427 10.7814 16.9427C10.3657 16.9427 10.0287 17.2796 10.0287 17.6953V22.2115C10.0287 22.6272 10.3657 22.9642 10.7814 22.9642H19.2617V26.4767H15.7993C15.3836 26.4767 15.0466 26.8137 15.0466 27.2294C15.0466 27.6451 15.3836 27.9821 15.7993 27.9821H24.3298C24.7454 27.9821 25.0824 27.6451 25.0824 27.2294C25.0824 26.8137 24.7454 26.4767 24.3298 26.4767H20.767V22.9642H29.2473C29.663 22.9642 30 22.6272 30 22.2115V5.75269ZM18.1774 9.13444C17.8835 9.42838 17.8835 9.90495 18.1774 10.1989L21.2079 13.2294H2.75269C2.33699 13.2294 2 13.5664 2 13.9821C2 14.3978 2.33699 14.7348 2.75269 14.7348H21.2079L18.1774 17.7653C17.8835 18.0592 17.8835 18.5358 18.1774 18.8297C18.4714 19.1237 18.948 19.1237 19.2419 18.8297L23.5573 14.5143C23.6985 14.3732 23.7778 14.1817 23.7778 13.9821C23.7778 13.7825 23.6985 13.591 23.5573 13.4498L19.2419 9.13444C18.948 8.84049 18.4714 8.84049 18.1774 9.13444Z" fill="black"/>
</svg>
