<svg width="32" height="32" viewBox="0 0 32 32" fill="none" xmlns="http://www.w3.org/2000/svg">
<path d="M8 28.4891V26.8591C8 24.7374 8.84285 22.7026 10.3431 21.2023C11.8434 19.702 13.8783 18.8591 16 18.8591C18.1217 18.8591 20.1566 19.702 21.6569 21.2023C23.1571 22.7026 24 24.7374 24 26.8591V28.4891C26.446 26.786 28.2846 24.3466 29.2482 21.5262C30.2118 18.7057 30.2501 15.6514 29.3575 12.8076C28.465 9.96387 26.6882 7.47918 24.2857 5.7152C21.8833 3.95122 18.9805 3 16 3C13.0195 3 10.1167 3.95122 7.71427 5.7152C5.3118 7.47918 3.535 9.96387 2.64246 12.8076C1.74992 15.6514 1.78825 18.7057 2.75185 21.5262C3.71545 24.3466 5.55403 26.786 8 28.4891ZM16 7.63913C16.9078 7.63913 17.7952 7.90832 18.5501 8.41268C19.3049 8.91704 19.8932 9.6339 20.2406 10.4726C20.588 11.3113 20.6789 12.2342 20.5018 13.1246C20.3247 14.015 19.8875 14.8328 19.2456 15.4747C18.6037 16.1167 17.7858 16.5538 16.8955 16.7309C16.0051 16.908 15.0822 16.8171 14.2435 16.4697C13.4048 16.1223 12.6879 15.534 12.1836 14.7792C11.6792 14.0244 11.41 13.1369 11.41 12.2291C11.4126 11.0126 11.8971 9.84664 12.7573 8.98642C13.6175 8.1262 14.7835 7.64177 16 7.63913Z" fill="black"/>
</svg>
