<svg width="32" height="32" viewBox="0 0 32 32" fill="none" xmlns="http://www.w3.org/2000/svg">
<path d="M24.991 18.2873C24.7984 18.2386 24.5944 18.2682 24.4236 18.3696C24.2527 18.471 24.129 18.6359 24.0794 18.8283C23.5085 21.0384 22.2341 23.0028 20.4487 24.4251C18.6632 25.8473 16.4635 26.6501 14.1817 26.7124C11.4048 26.7769 8.71566 25.7374 6.70425 23.8217C4.69284 21.9061 3.52341 19.2708 3.45254 16.4941C3.38793 13.7162 4.42718 11.026 6.34254 9.013C8.2579 6.99999 10.8931 5.82838 13.6708 5.75489C14.1055 5.74787 14.5403 5.76459 14.9731 5.80498C15.0742 5.82104 15.1774 5.81631 15.2765 5.79107C15.3757 5.76583 15.4686 5.72061 15.5496 5.65818C15.6307 5.59575 15.6981 5.51744 15.7478 5.42803C15.7975 5.33862 15.8285 5.24 15.8387 5.13822C15.8489 5.03644 15.8383 4.93363 15.8074 4.83611C15.7765 4.73859 15.7261 4.6484 15.6591 4.57107C15.5921 4.49375 15.5101 4.43091 15.4179 4.38641C15.3258 4.34192 15.2256 4.3167 15.1234 4.31231C14.6141 4.2619 14.1023 4.24182 13.5907 4.2522C11.2327 4.33676 8.95173 5.11335 7.03203 6.48519C5.11233 7.85703 3.63878 9.76347 2.79499 11.9669C1.9512 14.1704 1.7745 16.5734 2.28689 18.8766C2.79929 21.1798 3.97813 23.2813 5.67651 24.9192C7.90861 27.0532 10.8833 28.2351 13.9713 28.215H14.2819C16.8919 28.1454 19.4084 27.2279 21.4507 25.6013C23.4931 23.9746 24.9503 21.7272 25.6021 19.1989C25.6239 19.0988 25.6253 18.9953 25.6061 18.8946C25.587 18.7939 25.5477 18.6982 25.4906 18.613C25.4336 18.5279 25.3599 18.4552 25.2741 18.3992C25.1882 18.3432 25.092 18.3052 24.991 18.2873Z" fill="black"/>
<path d="M23.2382 3C21.9008 3 20.5934 3.39659 19.4814 4.13962C18.3693 4.88265 17.5026 5.93874 16.9908 7.17435C16.479 8.40996 16.3451 9.76959 16.606 11.0813C16.8669 12.393 17.511 13.5979 18.4567 14.5436C19.4023 15.4893 20.6072 16.1333 21.919 16.3942C23.2307 16.6552 24.5903 16.5213 25.8259 16.0094C27.0615 15.4976 28.1176 14.6309 28.8606 13.5189C29.6037 12.4069 30.0003 11.0995 30.0003 9.76209C30.0003 7.96867 29.2878 6.24871 28.0197 4.98057C26.7516 3.71243 25.0316 3 23.2382 3ZM24.5104 12.9277L24.0997 13.3385C23.6593 13.7749 23.0997 14.0714 22.4913 14.1907C21.8829 14.3101 21.2528 14.247 20.6801 14.0093C20.1075 13.7717 19.6178 13.3702 19.2726 12.8551C18.9275 12.3401 18.7422 11.7345 18.7401 11.1145C18.7393 10.7028 18.8204 10.2951 18.9786 9.91498C19.1369 9.5349 19.3691 9.19007 19.6618 8.90055L20.0725 8.48982C20.1304 8.43193 20.1991 8.38601 20.2747 8.35469C20.3504 8.32336 20.4314 8.30724 20.5133 8.30724C20.5952 8.30724 20.6762 8.32336 20.7519 8.35469C20.8275 8.38601 20.8962 8.43193 20.9541 8.48982C21.012 8.5477 21.0579 8.61642 21.0892 8.69205C21.1205 8.76768 21.1367 8.84874 21.1367 8.9306C21.1367 9.01247 21.1205 9.09353 21.0892 9.16916C21.0579 9.24479 21.012 9.31351 20.9541 9.37139L20.5434 9.78213C20.3667 9.95632 20.2262 10.1637 20.1299 10.3923C20.0336 10.621 19.9835 10.8664 19.9823 11.1145C19.9797 11.3652 20.0271 11.6139 20.1218 11.8461C20.2165 12.0782 20.3566 12.2891 20.5339 12.4664C20.7112 12.6437 20.922 12.7838 21.1542 12.8785C21.3863 12.9732 21.635 13.0206 21.8858 13.0179C22.3843 13.0129 22.8617 12.8155 23.2181 12.4669L23.6289 12.0161C23.7458 11.8992 23.9043 11.8335 24.0697 11.8335C24.235 11.8335 24.3935 11.8992 24.5104 12.0161C24.6274 12.133 24.693 12.2916 24.693 12.4569C24.693 12.6222 24.6274 12.7808 24.5104 12.8977V12.9277ZM24.6407 9.25118L22.7273 11.1646C22.6053 11.2797 22.4442 11.3442 22.2765 11.3449C22.1947 11.3453 22.1137 11.3296 22.0381 11.2987C21.9624 11.2677 21.8937 11.2222 21.8357 11.1646C21.72 11.045 21.6553 10.8852 21.6553 10.7188C21.6553 10.5524 21.72 10.3926 21.8357 10.273L23.7491 8.35958C23.8691 8.25023 24.0266 8.19132 24.1888 8.19507C24.3511 8.19883 24.5057 8.26497 24.6205 8.37976C24.7353 8.49454 24.8014 8.64914 24.8052 8.81142C24.8089 8.97371 24.75 9.1312 24.6407 9.25118ZM26.8146 10.6236L26.4038 11.0143C26.3476 11.075 26.2794 11.1234 26.2035 11.1565C26.1277 11.1897 26.0458 11.2068 25.963 11.2068C25.8803 11.2068 25.7984 11.1897 25.7226 11.1565C25.6467 11.1234 25.5785 11.075 25.5223 11.0143C25.4629 10.9573 25.4156 10.8889 25.3833 10.8131C25.351 10.7374 25.3344 10.6559 25.3344 10.5735C25.3344 10.4912 25.351 10.4097 25.3833 10.334C25.4156 10.2582 25.4629 10.1898 25.5223 10.1328L25.933 9.72202C26.284 9.36306 26.4816 8.88165 26.484 8.37962C26.4815 8.00701 26.369 7.64343 26.1608 7.33442C25.9526 7.0254 25.6578 6.7847 25.3135 6.64245C24.9691 6.5002 24.5903 6.46273 24.2248 6.53473C23.8592 6.60674 23.5229 6.78502 23.2582 7.04724L22.8475 7.45797C22.728 7.53784 22.5845 7.57381 22.4415 7.55973C22.2985 7.54566 22.1647 7.48242 22.0631 7.3808C21.9615 7.27917 21.8982 7.14545 21.8842 7.00242C21.8701 6.85939 21.9061 6.71591 21.9859 6.59643L22.3866 6.1857C22.6723 5.86906 23.0193 5.61379 23.4066 5.43541C23.7939 5.25703 24.2134 5.15927 24.6397 5.14805C25.066 5.13684 25.4901 5.21241 25.8863 5.37018C26.2824 5.52794 26.6424 5.76461 26.9442 6.06579C27.2461 6.36698 27.4836 6.72639 27.6422 7.12219C27.8009 7.518 27.8774 7.94193 27.8672 8.36823C27.8569 8.79452 27.7601 9.21429 27.5826 9.60201C27.4051 9.98973 27.1506 10.3373 26.8346 10.6236H26.8146Z" fill="black"/>
</svg>
