<svg width="32" height="32" viewBox="0 0 32 32" fill="none" xmlns="http://www.w3.org/2000/svg">
<path fill-rule="evenodd" clip-rule="evenodd" d="M10.4803 17.7527C6.67455 17.7527 3.50538 20.8342 3.50538 24.7276V27.9391C3.50538 28.3548 3.16839 28.6918 2.75269 28.6918C2.33699 28.6918 2 28.3548 2 27.9391V24.7276C2 19.9901 5.85591 16.2473 10.4803 16.2473C15.111 16.2473 18.9606 20.0968 18.9606 24.7276V27.9391C18.9606 28.3548 18.6236 28.6918 18.2079 28.6918C17.7922 28.6918 17.4552 28.3548 17.4552 27.9391V24.7276C17.4552 20.9282 14.2796 17.7527 10.4803 17.7527Z" fill="black"/>
<path fill-rule="evenodd" clip-rule="evenodd" d="M10.4803 6.01075C8.56807 6.01075 7.01792 7.56091 7.01792 9.47312C7.01792 11.3853 8.56807 12.9355 10.4803 12.9355C12.3925 12.9355 13.9427 11.3853 13.9427 9.47312C13.9427 7.56091 12.3925 6.01075 10.4803 6.01075ZM5.51254 9.47312C5.51254 6.72951 7.73668 4.50538 10.4803 4.50538C13.2239 4.50538 15.448 6.72951 15.448 9.47312C15.448 12.2167 13.2239 14.4409 10.4803 14.4409C7.73668 14.4409 5.51254 12.2167 5.51254 9.47312Z" fill="black"/>
<path fill-rule="evenodd" clip-rule="evenodd" d="M22.172 3.75269C22.172 3.33699 22.509 3 22.9247 3H29.2473C29.663 3 30 3.33699 30 3.75269C30 4.16839 29.663 4.50538 29.2473 4.50538H22.9247C22.509 4.50538 22.172 4.16839 22.172 3.75269Z" fill="black"/>
<path fill-rule="evenodd" clip-rule="evenodd" d="M17.7563 3.75269C17.7563 3.33699 18.0933 3 18.509 3H19.6129C20.0286 3 20.3656 3.33699 20.3656 3.75269C20.3656 4.16839 20.0286 4.50538 19.6129 4.50538H18.509C18.0933 4.50538 17.7563 4.16839 17.7563 3.75269Z" fill="black"/>
<path fill-rule="evenodd" clip-rule="evenodd" d="M22.172 8.87097C22.172 8.45527 22.509 8.11828 22.9247 8.11828H29.2473C29.663 8.11828 30 8.45527 30 8.87097C30 9.28667 29.663 9.62366 29.2473 9.62366H22.9247C22.509 9.62366 22.172 9.28667 22.172 8.87097Z" fill="black"/>
<path fill-rule="evenodd" clip-rule="evenodd" d="M17.7563 8.87097C17.7563 8.45527 18.0933 8.11828 18.509 8.11828H19.6129C20.0286 8.11828 20.3656 8.45527 20.3656 8.87097C20.3656 9.28667 20.0286 9.62366 19.6129 9.62366H18.509C18.0933 9.62366 17.7563 9.28667 17.7563 8.87097Z" fill="black"/>
<path fill-rule="evenodd" clip-rule="evenodd" d="M22.172 14.0896C22.172 13.6739 22.509 13.3369 22.9247 13.3369H29.2473C29.663 13.3369 30 13.6739 30 14.0896C30 14.5053 29.663 14.8423 29.2473 14.8423H22.9247C22.509 14.8423 22.172 14.5053 22.172 14.0896Z" fill="black"/>
<path fill-rule="evenodd" clip-rule="evenodd" d="M17.7563 14.0896C17.7563 13.6739 18.0933 13.3369 18.509 13.3369H19.6129C20.0286 13.3369 20.3656 13.6739 20.3656 14.0896C20.3656 14.5053 20.0286 14.8423 19.6129 14.8423H18.509C18.0933 14.8423 17.7563 14.5053 17.7563 14.0896Z" fill="black"/>
</svg>
