<svg width="32" height="32" viewBox="0 0 32 32" fill="none" xmlns="http://www.w3.org/2000/svg">
<path d="M16 2C13.2311 2 10.5243 2.82109 8.22202 4.35943C5.91973 5.89777 4.12532 8.08427 3.06569 10.6424C2.00607 13.2006 1.72882 16.0155 2.26901 18.7313C2.80921 21.447 4.14258 23.9416 6.10051 25.8995C8.05845 27.8574 10.553 29.1908 13.2687 29.731C15.9845 30.2712 18.7994 29.9939 21.3576 28.9343C23.9157 27.8747 26.1022 26.0803 27.6406 23.778C29.1789 21.4757 30 18.7689 30 16C30 12.287 28.525 8.72601 25.8995 6.1005C23.274 3.475 19.713 2 16 2ZM16 28.5C13.5277 28.5 11.111 27.7669 9.05538 26.3934C6.99976 25.0199 5.39761 23.0676 4.45151 20.7835C3.50542 18.4995 3.25787 15.9861 3.74019 13.5614C4.22251 11.1366 5.41301 8.90932 7.16117 7.16117C8.90933 5.41301 11.1366 4.2225 13.5614 3.74018C15.9861 3.25787 18.4995 3.50541 20.7835 4.45151C23.0676 5.3976 25.0199 6.99976 26.3934 9.05537C27.7669 11.111 28.5 13.5277 28.5 16C28.4947 19.3136 27.1761 22.4899 24.833 24.833C22.4899 27.1761 19.3136 28.4947 16 28.5Z" fill="black"/>
</svg>
