<svg width="32" height="32" viewBox="0 0 32 32" fill="none" xmlns="http://www.w3.org/2000/svg">
<path d="M21 16.7C25.5 16.7 29.2 20.4 29.2 25V28C29.2 28.4 28.9 28.8 28.4 28.8H13.4C13 28.8 12.6 28.5 12.6 28V25C12.7 20.4 16.4 16.7 21 16.7ZM14.2 27.3H27.7V25C27.7 21.3 24.7 18.3 21 18.3C17.3 18.3 14.3 21.3 14.3 25V27.3H14.2Z" fill="black"/>
<path d="M21 15.2C18.3 15.2 16.2 13 16.2 10.4C16.2 7.7 18.4 5.6 21 5.6C23.6 5.6 25.8 7.7 25.8 10.3C25.8 13 23.6 15.2 21 15.2ZM21 7C19.2 7 17.7 8.5 17.7 10.3C17.7 12.1 19.2 13.6 21 13.6C22.8 13.6 24.3 12.2 24.3 10.3C24.3 8.4 22.8 7 21 7Z" fill="black"/>
<path d="M8.89995 5.5H2.79995C2.39995 5.5 1.99995 5.2 1.99995 4.7C1.99995 4.2 2.39995 4 2.89995 4H8.99995C9.39995 4 9.79995 4.3 9.79995 4.8C9.79995 5.3 9.39995 5.5 8.89995 5.5Z" fill="black"/>
<path d="M12.2 4H13.2C13.6 4 14 4.3 14 4.8C14 5.3 13.7 5.6 13.2 5.6H12.2C11.8 5.6 11.4 5.3 11.4 4.8C11.4 4.3 11.7 4 12.2 4Z" fill="black"/>
<path d="M2.89995 9H8.99995C9.39995 9 9.79995 9.3 9.79995 9.8C9.79995 10.3 9.49995 10.6 8.99995 10.6H2.89995C2.49995 10.6 2.09995 10.3 2.09995 9.8C2.09995 9.3 2.39995 9 2.89995 9Z" fill="black"/>
<path d="M12.2 9H13.2C13.6 9 14 9.3 14 9.8C14 10.3 13.7 10.6 13.2 10.6H12.2C11.8 10.6 11.4 10.3 11.4 9.8C11.4 9.3 11.7 9 12.2 9Z" fill="black"/>
<path d="M2.89995 14H8.99995C9.39995 14 9.79995 14.3 9.79995 14.8C9.79995 15.3 9.49995 15.6 8.99995 15.6H2.89995C2.49995 15.6 2.09995 15.3 2.09995 14.8C2.09995 14.3 2.39995 14 2.89995 14Z" fill="black"/>
<path d="M12.2 14H13.2C13.6 14 14 14.3 14 14.8C14 15.3 13.7 15.6 13.2 15.6H12.2C11.8 15.6 11.4 15.3 11.4 14.8C11.4 14.3 11.7 14 12.2 14Z" fill="black"/>
</svg>
