<svg width="32" height="32" viewBox="0 0 32 32" fill="none" xmlns="http://www.w3.org/2000/svg">
<path fill-rule="evenodd" clip-rule="evenodd" d="M10.4803 17.7527C6.67455 17.7527 3.50538 20.8342 3.50538 24.7276V27.9391C3.50538 28.3548 3.16839 28.6918 2.75269 28.6918C2.33699 28.6918 2 28.3548 2 27.9391V24.7276C2 19.9901 5.85591 16.2473 10.4803 16.2473C15.111 16.2473 18.9606 20.0968 18.9606 24.7276V27.9391C18.9606 28.3548 18.6236 28.6918 18.2079 28.6918C17.7922 28.6918 17.4552 28.3548 17.4552 27.9391V24.7276C17.4552 20.9282 14.2796 17.7527 10.4803 17.7527Z" fill="black"/>
<path fill-rule="evenodd" clip-rule="evenodd" d="M10.4803 6.01075C8.56807 6.01075 7.01792 7.56091 7.01792 9.47312C7.01792 11.3853 8.56807 12.9355 10.4803 12.9355C12.3925 12.9355 13.9427 11.3853 13.9427 9.47312C13.9427 7.56091 12.3925 6.01075 10.4803 6.01075ZM5.51254 9.47312C5.51254 6.72951 7.73668 4.50538 10.4803 4.50538C13.2239 4.50538 15.448 6.72951 15.448 9.47312C15.448 12.2167 13.2239 14.4409 10.4803 14.4409C7.73668 14.4409 5.51254 12.2167 5.51254 9.47312Z" fill="black"/>
<path fill-rule="evenodd" clip-rule="evenodd" d="M25.5842 3.75269C25.5842 3.33699 25.2472 3 24.8315 3H18.509C18.0933 3 17.7563 3.33699 17.7563 3.75269C17.7563 4.16839 18.0933 4.50538 18.509 4.50538H24.8315C25.2472 4.50538 25.5842 4.16839 25.5842 3.75269Z" fill="black"/>
<path fill-rule="evenodd" clip-rule="evenodd" d="M30 3.75269C30 3.33699 29.663 3 29.2473 3H28.1434C27.7277 3 27.3907 3.33699 27.3907 3.75269C27.3907 4.16839 27.7277 4.50538 28.1434 4.50538H29.2473C29.663 4.50538 30 4.16839 30 3.75269Z" fill="black"/>
<path fill-rule="evenodd" clip-rule="evenodd" d="M25.5842 8.87097C25.5842 8.45527 25.2472 8.11828 24.8315 8.11828H18.509C18.0933 8.11828 17.7563 8.45527 17.7563 8.87097C17.7563 9.28667 18.0933 9.62366 18.509 9.62366H24.8315C25.2472 9.62366 25.5842 9.28667 25.5842 8.87097Z" fill="black"/>
<path fill-rule="evenodd" clip-rule="evenodd" d="M30 8.87097C30 8.45527 29.663 8.11828 29.2473 8.11828H28.1434C27.7277 8.11828 27.3907 8.45527 27.3907 8.87097C27.3907 9.28667 27.7277 9.62366 28.1434 9.62366H29.2473C29.663 9.62366 30 9.28667 30 8.87097Z" fill="black"/>
<path fill-rule="evenodd" clip-rule="evenodd" d="M25.5842 14.0896C25.5842 13.6739 25.2472 13.3369 24.8315 13.3369H18.509C18.0933 13.3369 17.7563 13.6739 17.7563 14.0896C17.7563 14.5053 18.0933 14.8423 18.509 14.8423H24.8315C25.2472 14.8423 25.5842 14.5053 25.5842 14.0896Z" fill="black"/>
<path fill-rule="evenodd" clip-rule="evenodd" d="M30 14.0896C30 13.6739 29.663 13.3369 29.2473 13.3369H28.1434C27.7277 13.3369 27.3907 13.6739 27.3907 14.0896C27.3907 14.5053 27.7277 14.8423 28.1434 14.8423H29.2473C29.663 14.8423 30 14.5053 30 14.0896Z" fill="black"/>
</svg>
