<svg width="32" height="32" viewBox="0 0 32 32" fill="none" xmlns="http://www.w3.org/2000/svg">
<path d="M29.25 16.25C29.0519 16.2526 28.8626 16.3324 28.7225 16.4725C28.5824 16.6126 28.5026 16.8019 28.5 17C28.5 17.5713 28.3875 18.1369 28.1689 18.6647C27.9503 19.1924 27.6298 19.672 27.2259 20.0759C26.822 20.4799 26.3424 20.8003 25.8147 21.0189C25.2869 21.2375 24.7213 21.35 24.15 21.35H15.91C15.7112 21.3502 15.5205 21.4293 15.38 21.57L10.38 26.57V22.1C10.38 21.9011 10.301 21.7103 10.1603 21.5697C10.0197 21.429 9.82891 21.35 9.63 21.35H7.85C6.69631 21.35 5.58987 20.8917 4.77409 20.0759C3.9583 19.2601 3.5 18.1537 3.5 17V8.85C3.5 7.69631 3.9583 6.58987 4.77409 5.77409C5.58987 4.95831 6.69631 4.5 7.85 4.5H16.19C16.3889 4.5 16.5797 4.42099 16.7203 4.28033C16.861 4.13968 16.94 3.94892 16.94 3.75C16.94 3.55109 16.861 3.36033 16.7203 3.21967C16.5797 3.07902 16.3889 3 16.19 3H7.85C6.29848 3 4.81051 3.61634 3.71343 4.71343C2.61634 5.81052 2 7.29849 2 8.85V17C2.00264 18.5507 2.61983 20.0371 3.71635 21.1337C4.81286 22.2302 6.2993 22.8474 7.85 22.85H8.85V28.39C8.85259 28.5881 8.93244 28.7774 9.07253 28.9175C9.21263 29.0576 9.40189 29.1374 9.6 29.14C9.79841 29.1377 9.98828 29.0589 10.13 28.92L16.2 22.85H24.13C24.8995 22.8513 25.6618 22.701 26.3733 22.4078C27.0848 22.1145 27.7315 21.6839 28.2766 21.1407C28.8217 20.5975 29.2544 19.9522 29.5501 19.2418C29.8458 18.5313 29.9987 17.7695 30 17C29.9974 16.8019 29.9176 16.6126 29.7775 16.4725C29.6374 16.3324 29.4481 16.2526 29.25 16.25Z" fill="black"/>
<path d="M23.18 16.5C24.515 16.5 25.8201 16.1041 26.9301 15.3624C28.0401 14.6207 28.9053 13.5665 29.4162 12.3331C29.9271 11.0997 30.0608 9.74252 29.8003 8.43314C29.5399 7.12377 28.897 5.92104 27.953 4.97703C27.009 4.03303 25.8062 3.39015 24.4969 3.1297C23.1875 2.86925 21.8303 3.00292 20.5969 3.51382C19.3635 4.02471 18.3093 4.88987 17.5676 5.9999C16.8259 7.10994 16.43 8.41498 16.43 9.75C16.43 11.5402 17.1412 13.2571 18.407 14.523C19.6729 15.7888 21.3898 16.5 23.18 16.5ZM21.91 6.59L22.31 6.18C22.5951 5.86393 22.9415 5.60912 23.3281 5.43106C23.7147 5.253 24.1335 5.15541 24.559 5.14422C24.9846 5.13302 25.4079 5.20846 25.8033 5.36594C26.1988 5.52342 26.5581 5.75967 26.8594 6.06031C27.1608 6.36096 27.3978 6.71973 27.5562 7.11483C27.7146 7.50992 27.7909 7.9331 27.7807 8.35863C27.7705 8.78417 27.6738 9.20318 27.4966 9.5902C27.3195 9.97723 27.0654 10.3242 26.75 10.61L26.34 11C26.2838 11.0606 26.2158 11.1089 26.14 11.142C26.0643 11.175 25.9826 11.1921 25.9 11.1921C25.8174 11.1921 25.7357 11.175 25.66 11.142C25.5842 11.1089 25.5162 11.0606 25.46 11C25.4007 10.9431 25.3535 10.8748 25.3213 10.7991C25.2891 10.7235 25.2725 10.6422 25.2725 10.56C25.2725 10.4778 25.2891 10.3965 25.3213 10.3209C25.3535 10.2452 25.4007 10.1769 25.46 10.12L25.87 9.71C26.2204 9.35168 26.4176 8.87114 26.42 8.37C26.4136 7.99976 26.2986 7.63955 26.0893 7.33411C25.88 7.02866 25.5855 6.79143 25.2425 6.65189C24.8995 6.51235 24.5231 6.47664 24.16 6.54919C23.7968 6.62175 23.463 6.79937 23.2 7.06L22.79 7.47C22.6733 7.5867 22.515 7.65226 22.35 7.65226C22.185 7.65226 22.0267 7.5867 21.91 7.47C21.7933 7.35331 21.7277 7.19503 21.7277 7.03C21.7277 6.86497 21.7933 6.7067 21.91 6.59ZM21.78 10.26L23.69 8.35C23.8098 8.24085 23.967 8.18204 24.129 8.18579C24.291 8.18954 24.4453 8.25556 24.5599 8.37014C24.6744 8.48472 24.7405 8.63904 24.7442 8.80104C24.748 8.96303 24.6892 9.12024 24.58 9.24L22.67 11.15C22.5483 11.2649 22.3874 11.3292 22.22 11.33C22.1384 11.3304 22.0576 11.3147 21.9821 11.2838C21.9066 11.253 21.8379 11.2075 21.78 11.15C21.6645 11.0306 21.6 10.8711 21.6 10.705C21.6 10.5389 21.6645 10.3794 21.78 10.26ZM19.61 8.89L20 8.48C20.1167 8.36331 20.275 8.29775 20.44 8.29775C20.605 8.29775 20.7633 8.36331 20.88 8.48C20.9967 8.5967 21.0623 8.75497 21.0623 8.92C21.0623 9.08503 20.9967 9.24331 20.88 9.36L20.47 9.77C20.2955 9.94471 20.1571 10.1521 20.0627 10.3803C19.9683 10.6085 19.9198 10.8531 19.92 11.1C19.9173 11.3511 19.9649 11.6002 20.0601 11.8326C20.1552 12.065 20.296 12.276 20.474 12.4531C20.6521 12.6302 20.8638 12.7698 21.0967 12.8638C21.3296 12.9577 21.5789 13.004 21.83 13C22.3277 12.995 22.8042 12.798 23.16 12.45L23.57 12C23.6867 11.8833 23.845 11.8177 24.01 11.8177C24.175 11.8177 24.3333 11.8833 24.45 12C24.5667 12.1167 24.6323 12.275 24.6323 12.44C24.6323 12.605 24.5667 12.7633 24.45 12.88L24.04 13.29C23.6022 13.7239 23.0463 14.0193 22.4418 14.1395C21.8372 14.2596 21.2106 14.1991 20.6402 13.9656C20.0698 13.7321 19.5806 13.3359 19.2339 12.8263C18.8871 12.3167 18.6979 11.7163 18.69 11.1C18.6892 10.689 18.7701 10.282 18.9281 9.90262C19.086 9.52321 19.3178 9.179 19.61 8.89Z" fill="black"/>
</svg>
