<svg width="32" height="32" viewBox="0 0 32 32" fill="none" xmlns="http://www.w3.org/2000/svg">
<path d="M23.2382 3C21.9008 3 20.5934 3.39659 19.4814 4.13962C18.3693 4.88265 17.5026 5.93874 16.9908 7.17435C16.479 8.40996 16.3451 9.76959 16.606 11.0813C16.8669 12.393 17.511 13.5979 18.4567 14.5436C19.4023 15.4893 20.6072 16.1333 21.919 16.3942C23.2307 16.6552 24.5903 16.5213 25.8259 16.0094C27.0615 15.4976 28.1176 14.6309 28.8606 13.5189C29.6037 12.4069 30.0003 11.0995 30.0003 9.76209C30.0003 7.96867 29.2878 6.24871 28.0197 4.98057C26.7516 3.71243 25.0316 3 23.2382 3ZM26.3437 10.6136L23.7691 13.1882C23.6996 13.2561 23.6181 13.3105 23.5287 13.3485C23.437 13.3882 23.3381 13.4087 23.2382 13.4087C23.1382 13.4087 23.0394 13.3882 22.9477 13.3485C22.8582 13.3105 22.7767 13.2561 22.7072 13.1882L20.1426 10.6136C20.0718 10.5445 20.0154 10.462 19.9769 10.3708C19.9385 10.2796 19.9187 10.1816 19.9187 10.0827C19.9187 9.98369 19.9385 9.88573 19.9769 9.79454C20.0154 9.70335 20.0718 9.62078 20.1426 9.55171C20.2835 9.41101 20.4745 9.33198 20.6736 9.33198C20.8727 9.33198 21.0637 9.41101 21.2045 9.55171L22.4868 10.844V6.83686C22.4868 6.63759 22.566 6.44648 22.7069 6.30558C22.8478 6.16468 23.0389 6.08552 23.2382 6.08552C23.4374 6.08552 23.6285 6.16468 23.7695 6.30558C23.9104 6.44648 23.9895 6.63759 23.9895 6.83686V10.844L25.2818 9.55171C25.4227 9.41101 25.6137 9.33198 25.8128 9.33198C26.0119 9.33198 26.2028 9.41101 26.3437 9.55171C26.4844 9.69259 26.5635 9.88356 26.5635 10.0827C26.5635 10.2818 26.4844 10.4727 26.3437 10.6136Z" fill="black"/>
<path d="M24.991 18.2874C24.8956 18.2619 24.7961 18.2558 24.6983 18.2693C24.6005 18.2828 24.5063 18.3157 24.4214 18.3661C24.3365 18.4165 24.2625 18.4834 24.2038 18.5627C24.145 18.6421 24.1028 18.7324 24.0794 18.8284C23.5085 21.0385 22.2341 23.003 20.4487 24.4252C18.6632 25.8474 16.4635 26.6502 14.1817 26.7125C11.4026 26.7802 8.71036 25.7412 6.69731 23.824C4.68426 21.9067 3.51528 19.2683 3.44753 16.4892C3.37977 13.7101 4.4188 11.0179 6.33604 9.0048C8.25328 6.99175 10.8917 5.82277 13.6708 5.75501C14.1055 5.74799 14.5403 5.76471 14.9731 5.8051C15.0706 5.81622 15.1693 5.80788 15.2635 5.78058C15.3577 5.75327 15.4455 5.70755 15.5219 5.64605C15.5983 5.58455 15.6618 5.50851 15.7086 5.42231C15.7554 5.33612 15.7846 5.2415 15.7946 5.14392C15.8071 5.04493 15.7995 4.94443 15.7723 4.84845C15.745 4.75246 15.6986 4.66297 15.636 4.58533C15.5733 4.50769 15.4956 4.4435 15.4075 4.39661C15.3194 4.34972 15.2228 4.32109 15.1234 4.31244C14.6141 4.2623 14.1023 4.24223 13.5907 4.25233C11.2327 4.33689 8.95173 5.11348 7.03203 6.48532C5.11233 7.85716 3.63878 9.76359 2.79499 11.967C1.9512 14.1705 1.7745 16.5735 2.28689 18.8767C2.79929 21.1799 3.97813 23.2814 5.67651 24.9193C7.90861 27.0533 10.8833 28.2353 13.9713 28.2152H14.2819C16.8902 28.1434 19.4044 27.2249 21.4447 25.5984C23.485 23.9719 24.9408 21.7257 25.5921 19.1991C25.617 19.0995 25.621 18.9958 25.6037 18.8946C25.5864 18.7934 25.5483 18.6969 25.4918 18.6112C25.4353 18.5255 25.3616 18.4525 25.2754 18.3967C25.1892 18.341 25.0924 18.3038 24.991 18.2874Z" fill="black"/>
</svg>
