<svg width="32" height="32" viewBox="0 0 32 32" fill="none" xmlns="http://www.w3.org/2000/svg">
<path d="M23.2382 3C21.9008 3 20.5934 3.39659 19.4814 4.13962C18.3693 4.88265 17.5026 5.93874 16.9908 7.17435C16.479 8.40996 16.3451 9.76959 16.606 11.0813C16.8669 12.393 17.511 13.5979 18.4567 14.5436C19.4023 15.4893 20.6072 16.1333 21.919 16.3942C23.2307 16.6552 24.5903 16.5213 25.8259 16.0094C27.0615 15.4976 28.1176 14.6309 28.8606 13.5189C29.6037 12.4069 30.0003 11.0995 30.0003 9.76209C29.9976 7.96949 29.2843 6.25106 28.0168 4.9835C26.7492 3.71593 25.0308 3.00265 23.2382 3ZM26.3437 10.0125C26.2028 10.1532 26.0119 10.2323 25.8128 10.2323C25.6137 10.2323 25.4227 10.1532 25.2818 10.0125L23.9895 8.68016V12.6873C23.9895 12.8866 23.9104 13.0777 23.7695 13.2186C23.6285 13.3595 23.4374 13.4387 23.2382 13.4387C23.0389 13.4387 22.8478 13.3595 22.7069 13.2186C22.566 13.0777 22.4868 12.8866 22.4868 12.6873V8.68016L21.2045 10.0125C21.0637 10.1532 20.8727 10.2323 20.6736 10.2323C20.4745 10.2323 20.2835 10.1532 20.1426 10.0125C20.0718 9.94347 20.0154 9.8609 19.9769 9.76972C19.9385 9.67853 19.9187 9.58056 19.9187 9.48159C19.9187 9.38262 19.9385 9.28465 19.9769 9.19346C20.0154 9.10227 20.0718 9.01971 20.1426 8.95064L22.7072 6.37604C22.7846 6.2892 22.8805 6.22075 22.9877 6.17568C23.0794 6.13598 23.1783 6.1155 23.2782 6.1155C23.3782 6.1155 23.4771 6.13598 23.5688 6.17568C23.6582 6.21369 23.7397 6.26805 23.8092 6.33596L26.3437 8.91057C26.4196 8.9809 26.4801 9.06614 26.5215 9.16095C26.5629 9.25576 26.5843 9.3581 26.5843 9.46155C26.5843 9.565 26.5629 9.66734 26.5215 9.76215C26.4801 9.85696 26.4196 9.9422 26.3437 10.0125Z" fill="black"/>
<path d="M24.991 18.2873C24.7984 18.2386 24.5944 18.2682 24.4236 18.3696C24.2527 18.471 24.129 18.6359 24.0794 18.8283C23.5085 21.0384 22.2341 23.0028 20.4487 24.4251C18.6632 25.8473 16.4635 26.6501 14.1817 26.7124C11.4026 26.7801 8.71036 25.7411 6.69731 23.8238C4.68426 21.9066 3.51528 19.2682 3.44753 16.4891C3.37977 13.7099 4.4188 11.0177 6.33604 9.00467C8.25328 6.99162 10.8917 5.82264 13.6708 5.75489C14.1055 5.74787 14.5403 5.76459 14.9731 5.80498C15.0742 5.82104 15.1774 5.81631 15.2765 5.79107C15.3757 5.76583 15.4686 5.72061 15.5496 5.65818C15.6307 5.59575 15.6981 5.51744 15.7478 5.42803C15.7975 5.33862 15.8285 5.24 15.8387 5.13822C15.8489 5.03644 15.8383 4.93363 15.8074 4.83611C15.7765 4.73859 15.7261 4.6484 15.6591 4.57107C15.5921 4.49375 15.5101 4.43091 15.4179 4.38641C15.3258 4.34192 15.2256 4.3167 15.1234 4.31231C14.6141 4.2619 14.1023 4.24182 13.5907 4.2522C11.2327 4.33676 8.95173 5.11335 7.03203 6.48519C5.11233 7.85703 3.63878 9.76347 2.79499 11.9669C1.9512 14.1704 1.7745 16.5734 2.28689 18.8766C2.79929 21.1798 3.97813 23.2813 5.67651 24.9192C7.90861 27.0532 10.8833 28.2351 13.9713 28.215H14.2819C16.8919 28.1454 19.4084 27.2279 21.4507 25.6013C23.4931 23.9746 24.9503 21.7272 25.6021 19.1989C25.6239 19.0988 25.6253 18.9953 25.6061 18.8946C25.587 18.7939 25.5477 18.6982 25.4906 18.613C25.4336 18.5279 25.3599 18.4552 25.2741 18.3992C25.1882 18.3432 25.092 18.3052 24.991 18.2873Z" fill="black"/>
</svg>
