<svg width="32" height="32" viewBox="0 0 32 32" fill="none" xmlns="http://www.w3.org/2000/svg">
<path fill-rule="evenodd" clip-rule="evenodd" d="M4.81004 6.75986C4.81004 5.24022 6.05025 4 7.56989 4H24.4301C25.3055 4 26.0882 4.41159 26.5945 5.05107C26.6114 5.06984 26.6276 5.08964 26.6428 5.11044C26.6541 5.12582 26.6647 5.14148 26.6746 5.15739C26.9988 5.60972 27.19 6.16325 27.19 6.75986V16.9964C27.19 17.4121 26.853 17.7491 26.4373 17.7491C26.0216 17.7491 25.6846 17.4121 25.6846 16.9964V6.75986C25.6846 6.75543 25.6846 6.751 25.6845 6.74658L18.9541 11.6822C17.1641 12.9949 14.7854 12.8697 13.1272 11.5674L13.1264 11.5668L6.39843 6.31344C6.34484 6.4524 6.31541 6.60296 6.31541 6.75986V16.9964C6.31541 17.4121 5.97842 17.7491 5.56272 17.7491C5.14703 17.7491 4.81004 17.4121 4.81004 16.9964V6.75986ZM7.80958 5.50538L14.0564 10.3831C15.2082 11.288 16.8433 11.3633 18.0638 10.4683L24.7677 5.55211C24.6601 5.52168 24.5469 5.50538 24.4301 5.50538H7.80958ZM28.4946 22.1147C28.4946 21.3581 27.8818 20.805 27.3083 20.8571C27.2856 20.8592 27.2629 20.8602 27.2401 20.8602H20.6068C20.2427 23.1204 18.2657 24.7742 16 24.7742C13.6319 24.7742 11.7524 23.0342 11.3948 20.8602H4.75986C4.07161 20.8602 3.50538 21.4265 3.50538 22.1147V26.2294C3.50538 26.9176 4.07161 27.4839 4.75986 27.4839H27.2401C27.9284 27.4839 28.4946 26.9176 28.4946 26.2294V22.1147ZM27.2089 19.3548C28.8243 19.2313 30 20.6744 30 22.1147V26.2294C30 27.749 28.7598 28.9892 27.2401 28.9892H4.75986C3.24022 28.9892 2 27.749 2 26.2294V22.1147C2 20.5951 3.24022 19.3548 4.75986 19.3548H12.086C12.5017 19.3548 12.8387 19.6918 12.8387 20.1075C12.8387 21.812 14.2203 23.2688 16 23.2688C17.7044 23.2688 19.1613 21.8872 19.1613 20.1075C19.1613 19.6918 19.4983 19.3548 19.914 19.3548H27.2089Z" fill="black"/>
</svg>
