<svg width="32" height="32" viewBox="0 0 32 32" fill="none" xmlns="http://www.w3.org/2000/svg">
<path fill-rule="evenodd" clip-rule="evenodd" d="M5.76344 3.50538C4.51635 3.50538 3.50538 4.51635 3.50538 5.76344C3.50538 7.01053 4.51635 8.0215 5.76344 8.0215C7.01053 8.0215 8.0215 7.01053 8.0215 5.76344C8.0215 4.51635 7.01053 3.50538 5.76344 3.50538ZM2 5.76344C2 3.68495 3.68495 2 5.76344 2C7.84193 2 9.52688 3.68495 9.52688 5.76344C9.52688 6.53049 9.2974 7.24395 8.90336 7.83889L10.2903 9.22581H12.7383V7.97133C12.7383 7.55563 13.0753 7.21864 13.491 7.21864C13.9067 7.21864 14.2437 7.55563 14.2437 7.97133V9.22581H17.7563V7.97133C17.7563 7.55563 18.0933 7.21864 18.509 7.21864C18.9247 7.21864 19.2616 7.55563 19.2616 7.97133V9.22581H21.7097L23.0966 7.83889C22.7026 7.24395 22.4731 6.53049 22.4731 5.76344C22.4731 3.68495 24.1581 2 26.2366 2C28.3151 2 30 3.68495 30 5.76344C30 7.84193 28.3151 9.52688 26.2366 9.52688C25.4695 9.52688 24.7561 9.2974 24.1611 8.90336L22.7545 10.31C22.7289 10.3356 22.7019 10.3589 22.6738 10.38V12.7383H24.0287C24.4444 12.7383 24.7814 13.0753 24.7814 13.491C24.7814 13.9067 24.4444 14.2437 24.0287 14.2437H22.6738V17.7563H24.0287C24.4444 17.7563 24.7814 18.0933 24.7814 18.509C24.7814 18.9247 24.4444 19.2616 24.0287 19.2616H22.6738V21.62C22.7019 21.6411 22.7289 21.6644 22.7545 21.69L24.1611 23.0966C24.7561 22.7026 25.4695 22.4731 26.2366 22.4731C28.3151 22.4731 30 24.1581 30 26.2366C30 28.3151 28.3151 30 26.2366 30C24.1581 30 22.4731 28.3151 22.4731 26.2366C22.4731 25.4695 22.7026 24.7561 23.0966 24.1611L21.69 22.7545C21.6644 22.7289 21.6411 22.7019 21.62 22.6738H19.2616V24.0287C19.2616 24.4444 18.9247 24.7814 18.509 24.7814C18.0933 24.7814 17.7563 24.4444 17.7563 24.0287V22.6738H14.2437V24.0287C14.2437 24.4444 13.9067 24.7814 13.491 24.7814C13.0753 24.7814 12.7383 24.4444 12.7383 24.0287V22.6738H10.38C10.3589 22.7019 10.3356 22.7289 10.31 22.7545L8.90336 24.1611C9.2974 24.7561 9.52688 25.4695 9.52688 26.2366C9.52688 28.3151 7.84193 30 5.76344 30C3.68495 30 2 28.3151 2 26.2366C2 24.1581 3.68495 22.4731 5.76344 22.4731C6.53049 22.4731 7.24395 22.7026 7.83889 23.0966L9.22581 21.7097V19.2616H7.97133C7.55563 19.2616 7.21864 18.9247 7.21864 18.509C7.21864 18.0933 7.55563 17.7563 7.97133 17.7563H9.22581V14.2437H7.97133C7.55563 14.2437 7.21864 13.9067 7.21864 13.491C7.21864 13.0753 7.55563 12.7383 7.97133 12.7383H9.22581V10.2903L7.83889 8.90336C7.24395 9.2974 6.53049 9.52688 5.76344 9.52688C3.68495 9.52688 2 7.84193 2 5.76344ZM10.7312 10.7312V21.1685H21.1685V10.7312H10.7312ZM26.2366 3.50538C24.9895 3.50538 23.9785 4.51635 23.9785 5.76344C23.9785 7.01053 24.9895 8.0215 26.2366 8.0215C27.4837 8.0215 28.4946 7.01053 28.4946 5.76344C28.4946 4.51635 27.4837 3.50538 26.2366 3.50538ZM12.7383 13.491C12.7383 13.0753 13.0753 12.7383 13.491 12.7383H18.509C18.9247 12.7383 19.2616 13.0753 19.2616 13.491V18.509C19.2616 18.9247 18.9247 19.2616 18.509 19.2616H13.491C13.0753 19.2616 12.7383 18.9247 12.7383 18.509V13.491ZM14.2437 14.2437V17.7563H17.7563V14.2437H14.2437ZM5.76344 23.9785C4.51635 23.9785 3.50538 24.9895 3.50538 26.2366C3.50538 27.4837 4.51635 28.4946 5.76344 28.4946C7.01053 28.4946 8.0215 27.4837 8.0215 26.2366C8.0215 24.9895 7.01053 23.9785 5.76344 23.9785ZM26.2366 23.9785C24.9895 23.9785 23.9785 24.9895 23.9785 26.2366C23.9785 27.4837 24.9895 28.4946 26.2366 28.4946C27.4837 28.4946 28.4946 27.4837 28.4946 26.2366C28.4946 24.9895 27.4837 23.9785 26.2366 23.9785Z" fill="black"/>
</svg>
