<svg width="32" height="32" viewBox="0 0 32 32" fill="none" xmlns="http://www.w3.org/2000/svg">
<path fill-rule="evenodd" clip-rule="evenodd" d="M14.5957 3.56906C9.01651 4.2342 4.38625 8.68604 3.63194 14.249L3.63144 14.2527C2.77984 20.3086 6.27779 25.6946 11.4745 27.6788C11.8624 27.8269 12.0567 28.2614 11.9086 28.6493C11.7605 29.0371 11.3261 29.2315 10.9382 29.0834C5.10981 26.858 1.19072 20.8184 2.14233 14.0452C2.9922 7.78389 8.18087 2.8161 14.4255 2.07522L14.4392 2.07359C22.9016 1.22734 30 7.79083 30 16.0525C30 22.8288 25.1341 28.5449 18.7758 29.8189C16.8528 30.2276 15.2658 28.7008 15.2658 26.8776V25.5245H14.514C10.6909 25.5245 7.54784 22.3814 7.54784 18.5583V13.7471C7.54784 12.305 8.81159 11.0909 10.3042 11.0909H12.4593V8.43477C12.4593 8.01959 12.7958 7.68302 13.211 7.68302C13.6262 7.68302 13.9627 8.01959 13.9627 8.43477V11.0909H18.0723V8.43477C18.0723 8.01959 18.4089 7.68302 18.824 7.68302C19.2392 7.68302 19.5758 8.01959 19.5758 8.43477V11.0909H21.7308C23.2741 11.0909 24.387 12.3556 24.387 13.7471V18.5583C24.387 22.3814 21.2439 25.5245 17.4208 25.5245H16.7693V26.8776C16.7693 27.8592 17.5849 28.5365 18.4661 28.3477L18.4761 28.3455C24.1435 27.212 28.4965 22.1042 28.4965 16.0525C28.4965 8.68002 22.1675 2.81583 14.5957 3.56906ZM10.3042 12.5944C9.59178 12.5944 9.05133 13.1846 9.05133 13.7471V18.5583C9.05133 21.551 11.5213 24.021 14.514 24.021H17.4208C20.4135 24.021 22.8835 21.551 22.8835 18.5583V13.7471C22.8835 13.134 22.3926 12.5944 21.7308 12.5944H10.3042ZM12.7747 15.0247C13.0655 14.7284 13.5415 14.724 13.8378 15.0148L16.0175 17.1541L18.1972 15.0148C18.4935 14.724 18.9695 14.7284 19.2603 15.0247C19.5511 15.321 19.5467 15.797 19.2504 16.0878L17.0907 18.2075L19.2504 20.3271C19.5467 20.6179 19.5511 21.0939 19.2603 21.3902C18.9695 21.6865 18.4935 21.691 18.1972 21.4001L16.0175 19.2608L13.8378 21.4001C13.5415 21.691 13.0655 21.6865 12.7747 21.3902C12.4839 21.0939 12.4884 20.6179 12.7847 20.3271L14.9443 18.2075L12.7847 16.0878C12.4884 15.797 12.4839 15.321 12.7747 15.0247Z" fill="black"/>
</svg>
