<svg width="32" height="32" viewBox="0 0 32 32" fill="none" xmlns="http://www.w3.org/2000/svg">
<path fill-rule="evenodd" clip-rule="evenodd" d="M28.4946 16C28.4946 9.09941 22.9006 3.50538 16 3.50538C9.09941 3.50538 3.50538 9.09941 3.50538 16C3.50538 22.9006 9.09941 28.4946 16 28.4946C22.9006 28.4946 28.4946 22.9006 28.4946 16ZM16 2C23.732 2 30 8.26801 30 16C30 23.732 23.732 30 16 30C8.26802 30 2 23.732 2 16C2 8.26801 8.26802 2 16 2Z" fill="black"/>
<path fill-rule="evenodd" clip-rule="evenodd" d="M23.6272 16C23.6272 16.8314 22.9533 17.5054 22.1219 17.5054L9.87814 17.5054C9.04674 17.5054 8.37276 16.8314 8.37276 16C8.37276 15.1686 9.04674 14.4946 9.87814 14.4946L22.1219 14.4946C22.9533 14.4946 23.6272 15.1686 23.6272 16Z" fill="black"/>
</svg>
