<svg width="32" height="32" viewBox="0 0 32 32" fill="none" xmlns="http://www.w3.org/2000/svg">
<path d="M12 13.7C10.9 13.7 10 14.6 10 15.7C10 16.8 10.9 17.7 12 17.7C13.1 17.7 14 16.8 14 15.7C14.1 14.6 13.2 13.7 12 13.7Z" fill="black"/>
<path d="M20.8 13.7C19.7 13.7 18.8 14.6 18.8 15.7C18.8 16.8 19.7 17.7 20.8 17.7C21.9 17.7 22.8 16.8 22.8 15.7C22.9 14.6 22 13.7 20.8 13.7Z" fill="black"/>
<path d="M12 5C10.9 5 10 5.9 10 7C10 8.1 10.9 9 12 9C13.1 9 14 8.1 14 7C14 5.9 13.2 5 12 5Z" fill="black"/>
<path d="M20.8 9.1C21.9 9.1 22.8 8.2 22.8 7.1C22.8 6 21.9 5.1 20.8 5.1C19.7 5.1 18.8 6 18.8 7.1C18.8 8.2 19.7 9.1 20.8 9.1Z" fill="black"/>
<path d="M12 22.3C10.9 22.3 10 23.2 10 24.3C10 25.4 10.9 26.3 12 26.3C13.1 26.3 14 25.4 14 24.3C14.1 23.2 13.2 22.3 12 22.3Z" fill="black"/>
<path d="M20.8 22.3C19.7 22.3 18.8 23.2 18.8 24.3C18.8 25.4 19.7 26.3 20.8 26.3C21.9 26.3 22.8 25.4 22.8 24.3C22.9 23.2 22 22.3 20.8 22.3Z" fill="black"/>
</svg>
