<svg width="32" height="32" viewBox="0 0 32 32" fill="none" xmlns="http://www.w3.org/2000/svg">
<path d="M29.3342 12.6C29.2342 13.3 28.5342 13.9 27.8342 13.9H4.83421C3.83421 13.9 3.13421 13 3.33421 12.1C3.43421 11.4 4.13421 10.8 4.83421 10.8H27.8342C28.7342 10.8 29.4342 11.7 29.3342 12.6Z" fill="black"/>
<path d="M28.0342 19.9C27.9342 20.6 27.2342 21.2 26.5342 21.2H3.53421C2.53421 21.2 1.83421 20.3 2.03421 19.4C2.13421 18.7 2.83421 18.1 3.53421 18.1H26.5342C27.4342 18.1 28.1342 19 28.0342 19.9Z" fill="black"/>
<path d="M11.0342 28.7L15.4342 3.8C15.6342 2.9 14.8342 2 13.9342 2H13.5342C12.8342 2 12.1342 2.5 12.0342 3.3L7.63421 28.2C7.43421 29.1 8.13421 30 9.13421 30H9.53421C10.2342 30 10.8342 29.5 11.0342 28.7Z" fill="black"/>
<path d="M19.2342 28.7L23.6342 3.8C23.8342 2.9 23.1342 2 22.1342 2H21.7342C21.0342 2 20.3342 2.5 20.2342 3.3L15.8342 28.2C15.6342 29.1 16.4342 30 17.3342 30H17.7342C18.4342 30 19.1342 29.5 19.2342 28.7Z" fill="black"/>
</svg>
