<svg width="32" height="32" viewBox="0 0 32 32" fill="none" xmlns="http://www.w3.org/2000/svg">
<path d="M29.25 16.36C28.84 16.36 28.5 16.7 28.5 17.11V27.11C28.5 27.81 27.95 28.36 27.25 28.36H4.75C4.06 28.36 3.5 27.8 3.5 27.11V11.81L12.7 19C13.7 19.78 14.85 20.18 16 20.18C17.15 20.18 18.31 19.78 19.31 18.99C19.64 18.73 19.69 18.26 19.43 17.94C19.18 17.61 18.7 17.56 18.38 17.82C16.91 18.97 15.09 18.98 13.62 17.83L4.36 10.58C4.48 10.54 4.61 10.5 4.75 10.5H13.51C13.92 10.5 14.26 10.16 14.26 9.75C14.26 9.34 13.92 9 13.51 9H4.75C3.23 9.01 2 10.24 2 11.76V27.12C2 28.64 3.23 29.87 4.75 29.87H27.25C28.77 29.87 30 28.64 30 27.12V17.12C30 16.7 29.66 16.36 29.25 16.36Z" fill="black"/>
<path d="M23.25 16.5C26.97 16.5 30 13.47 30 9.75C30 6.03 26.97 3 23.25 3C19.52 3 16.5 6.03 16.5 9.75C16.5 13.47 19.52 16.5 23.25 16.5ZM20.35 9H24.33L23.04 7.71C22.9 7.56 22.82 7.37 22.82 7.18C22.82 6.99 22.9 6.8 23.04 6.65C23.34 6.36 23.81 6.36 24.1 6.65L26.67 9.22C26.74 9.29 26.79 9.37 26.83 9.46C26.9 9.65 26.9 9.85 26.83 10.04C26.79 10.13 26.74 10.21 26.67 10.28L24.1 12.84C23.81 13.14 23.34 13.14 23.04 12.84C22.75 12.55 22.75 12.08 23.04 11.78L24.33 10.5H20.35C19.94 10.5 19.6 10.16 19.6 9.75C19.6 9.33 19.94 9 20.35 9Z" fill="black"/>
</svg>
