<svg width="32" height="32" viewBox="0 0 32 32" fill="none" xmlns="http://www.w3.org/2000/svg">
<path fill-rule="evenodd" clip-rule="evenodd" d="M29.1134 11.8897L19.3105 19.592C17.2507 21.1941 14.6654 21.2132 12.682 19.5861L2.89038 11.9927L3.80962 10.8073L13.6096 18.4073C13.6134 18.4103 13.6171 18.4132 13.6208 18.4162C13.6228 18.4178 13.6248 18.4194 13.6268 18.4211C15.0418 19.5864 16.8512 19.6036 18.3882 18.4091L18.3895 18.408L28.1866 10.7103L29.1134 11.8897Z" fill="black"/>
<path fill-rule="evenodd" clip-rule="evenodd" d="M19.2186 3.21437L29.4382 11.1738C29.7613 11.2573 30 11.5508 30 11.9V26.8C30 28.3142 28.7642 29.55 27.25 29.55H4.75C3.23579 29.55 2 28.3142 2 26.8V11.9C2 11.67 2.10556 11.4527 2.28638 11.3105L12.5895 3.20798C14.6495 1.60579 17.2352 1.58677 19.2186 3.21437ZM13.512 4.39084L13.5105 4.39202L3.5 12.2643V26.8C3.5 27.4858 4.06421 28.05 4.75 28.05H27.25C27.9358 28.05 28.5 27.4858 28.5 26.8V12.3444L18.2892 4.39171L18.2732 4.37895C16.8582 3.21367 15.0489 3.19641 13.512 4.39084Z" fill="black"/>
</svg>
