<svg width="32" height="32" viewBox="0 0 32 32" fill="none" xmlns="http://www.w3.org/2000/svg">
<path d="M23.2548 16.4904C24.5889 16.4904 25.893 16.0948 27.0022 15.3536C28.1115 14.6124 28.976 13.559 29.4866 12.3265C29.9971 11.0939 30.1307 9.7377 29.8704 8.42926C29.6101 7.12083 28.9677 5.91895 28.0244 4.97562C27.081 4.03229 25.8792 3.38987 24.5707 3.12961C23.2623 2.86935 21.9061 3.00292 20.6735 3.51345C19.441 4.02398 18.3876 4.88852 17.6464 5.99776C16.9052 7.107 16.5096 8.41111 16.5096 9.74518C16.5096 11.5341 17.2203 13.2498 18.4853 14.5147C19.7502 15.7797 21.4659 16.4904 23.2548 16.4904ZM19.6374 9.7252C19.7063 9.65449 19.7887 9.5983 19.8796 9.55993C19.9706 9.52156 20.0683 9.50179 20.167 9.50179C20.2657 9.50179 20.3635 9.52156 20.4544 9.55993C20.5454 9.5983 20.6277 9.65449 20.6966 9.7252L22.3654 11.384L25.733 6.87723C25.7921 6.7985 25.8661 6.73216 25.9508 6.68202C26.0355 6.63187 26.1292 6.5989 26.2266 6.58498C26.3241 6.57106 26.4233 6.57647 26.5186 6.6009C26.614 6.62532 26.7036 6.66829 26.7823 6.72734C26.866 6.78166 26.9379 6.85237 26.9935 6.9352C27.0492 7.01803 27.0875 7.11127 27.1062 7.2093C27.1249 7.30734 27.1235 7.40814 27.1022 7.50563C27.0809 7.60313 27.04 7.6953 26.9822 7.77659L23.045 12.9929C22.9834 13.0803 22.9029 13.1526 22.8095 13.2045C22.716 13.2564 22.6121 13.2866 22.5054 13.2927H22.4454C22.3467 13.2949 22.2486 13.2765 22.1574 13.2386C22.0662 13.2008 21.9839 13.1443 21.9158 13.0728L19.6374 10.7844C19.497 10.6439 19.4182 10.4534 19.4182 10.2548C19.4182 10.0562 19.497 9.86572 19.6374 9.7252Z" fill="black"/>
<path d="M29.2305 16.3605C29.1318 16.3591 29.0337 16.3776 28.9422 16.4148C28.8506 16.452 28.7675 16.5071 28.6976 16.577C28.6277 16.6468 28.5726 16.73 28.5354 16.8215C28.4982 16.9131 28.4797 17.0111 28.4811 17.1099V27.1028C28.4838 27.2676 28.4533 27.4312 28.3915 27.584C28.3297 27.7367 28.2378 27.8755 28.1212 27.9921C28.0047 28.1086 27.8659 28.2005 27.7132 28.2623C27.5604 28.3241 27.3968 28.3546 27.232 28.3519H4.74804C4.58316 28.3519 4.41991 28.3193 4.2677 28.2559C4.1155 28.1925 3.97735 28.0996 3.86123 27.9825C3.74511 27.8655 3.65331 27.7266 3.59113 27.5739C3.52895 27.4212 3.49761 27.2577 3.49893 27.0928V11.8037L12.6924 18.9886C13.6258 19.7473 14.7921 20.1615 15.995 20.1615C17.1979 20.1615 18.3642 19.7473 19.2976 18.9886C19.454 18.8653 19.555 18.685 19.5784 18.4873C19.6019 18.2896 19.5458 18.0907 19.4226 17.9343C19.2993 17.778 19.119 17.677 18.9213 17.6535C18.7236 17.6301 18.5247 17.6862 18.3683 17.8094C17.6996 18.3635 16.8584 18.6668 15.99 18.6668C15.1216 18.6668 14.2804 18.3635 13.6117 17.8094L4.35832 10.5846C4.48155 10.5321 4.61408 10.5049 4.74804 10.5046H13.5018C13.7006 10.5046 13.8912 10.4257 14.0317 10.2851C14.1723 10.1446 14.2512 9.95395 14.2512 9.75518C14.2512 9.55641 14.1723 9.36578 14.0317 9.22523C13.8912 9.08467 13.7006 9.00571 13.5018 9.00571H4.74804C4.01921 9.00571 3.32024 9.29524 2.80488 9.81059C2.28952 10.326 2 11.0249 2 11.7537V27.0928C2 27.8216 2.28952 28.5206 2.80488 29.0359C3.32024 29.5513 4.01921 29.8408 4.74804 29.8408H27.232C27.9608 29.8408 28.6598 29.5513 29.1751 29.0359C29.6905 28.5206 29.98 27.8216 29.98 27.0928V17.0999C29.9774 16.9029 29.8973 16.7148 29.757 16.5764C29.6167 16.438 29.4276 16.3604 29.2305 16.3605Z" fill="black"/>
</svg>
