<svg width="32" height="32" viewBox="0 0 32 32" fill="none" xmlns="http://www.w3.org/2000/svg">
<path fill-rule="evenodd" clip-rule="evenodd" d="M9.6762 1.99994C10.0168 1.99933 10.3153 2.22747 10.4042 2.55624L17.4292 28.5489C17.5377 28.9502 17.3003 29.3634 16.899 29.4719C16.4977 29.5804 16.0844 29.343 15.976 28.9417L13.1698 18.559H6.24553L3.48018 28.939C3.37317 29.3407 2.96079 29.5796 2.55911 29.4726C2.15742 29.3656 1.91854 28.9532 2.02555 28.5515L8.95024 2.55886C9.03791 2.22977 9.33563 2.00055 9.6762 1.99994ZM6.64658 17.0536H12.763L9.68278 5.65682L6.64658 17.0536ZM20.7868 27.5714C21.0808 27.8654 21.5573 27.8654 21.8513 27.5714L25.3266 24.0961L28.7084 27.5646C28.9986 27.8623 29.4751 27.8683 29.7728 27.5781C30.0704 27.2879 30.0764 26.8114 29.7862 26.5138L25.8723 22.4994C25.7318 22.3553 25.5394 22.2735 25.3381 22.2722C25.1369 22.2709 24.9435 22.3503 24.8011 22.4927L20.7868 26.507C20.4929 26.8009 20.4929 27.2775 20.7868 27.5714ZM20.7868 21.4496C21.0808 21.7435 21.5573 21.7435 21.8513 21.4496L25.3266 17.9743L28.7084 21.4428C28.9986 21.7405 29.4751 21.7465 29.7728 21.4563C30.0704 21.1661 30.0764 20.6896 29.7862 20.3919L25.8723 16.3776C25.7318 16.2335 25.5394 16.1517 25.3381 16.1504C25.1369 16.1491 24.9435 16.2285 24.8011 16.3708L20.7868 20.3851C20.4929 20.6791 20.4929 21.1557 20.7868 21.4496Z" fill="black"/>
</svg>
