<svg width="32" height="32" viewBox="0 0 32 32" fill="none" xmlns="http://www.w3.org/2000/svg">
<path fill-rule="evenodd" clip-rule="evenodd" d="M4.73535 10.5098C4.05321 10.5098 3.49201 11.071 3.49201 11.7531V26.9716C3.49201 27.6537 4.05321 28.2149 4.73535 28.2149H27.1155C27.7976 28.2149 28.3588 27.6537 28.3588 26.9716V17.0249C28.3588 16.6129 28.6928 16.2789 29.1048 16.2789C29.5168 16.2789 29.8508 16.6129 29.8508 17.0249V26.9716C29.8508 28.4777 28.6216 29.7069 27.1155 29.7069H4.73535C3.2292 29.7069 2 28.4777 2 26.9716V11.7531C2 10.247 3.2292 9.01776 4.73535 9.01776H13.4885C13.9005 9.01776 14.2345 9.35176 14.2345 9.76377C14.2345 10.1758 13.9005 10.5098 13.4885 10.5098H4.73535Z" fill="black"/>
<path fill-rule="evenodd" clip-rule="evenodd" d="M2.85277 10.3013C3.10525 9.97569 3.57387 9.91644 3.89944 10.1689L13.6472 17.7284C13.6507 17.7312 13.6542 17.7339 13.6577 17.7367C13.6599 17.7385 13.6621 17.7403 13.6643 17.7421C15.0722 18.9015 16.8726 18.9183 18.4017 17.7291C18.7269 17.4761 19.1956 17.5347 19.4485 17.8599C19.7015 18.1852 19.6429 18.6539 19.3177 18.9068C17.2689 20.5003 14.6974 20.5194 12.7245 18.901L2.9851 11.3479C2.65953 11.0955 2.60028 10.6268 2.85277 10.3013Z" fill="black"/>
<path d="M23.2362 3C19.5559 3 16.4725 5.98401 16.4725 9.76377C16.4725 13.444 19.4565 16.5275 23.2362 16.5275C26.9165 16.5275 30 13.5435 30 9.76377C29.9005 5.98401 26.9165 3 23.2362 3ZM25.524 10.9574C25.8224 11.2558 25.8224 11.7531 25.524 12.0515C25.325 12.151 25.2256 12.2504 25.0266 12.2504C24.8277 12.2504 24.6288 12.151 24.5293 12.0515L23.3357 10.8579L21.9432 12.0515C21.8437 12.151 21.6448 12.2504 21.4458 12.2504C21.2469 12.2504 21.048 12.151 20.9485 12.0515C20.6501 11.7531 20.6501 11.2558 20.9485 10.9574L22.1421 9.76377L20.9485 8.47069C20.6501 8.17229 20.6501 7.67496 20.9485 7.37655C21.2469 7.07815 21.7442 7.07815 22.0426 7.37655L23.2362 8.57016L24.4298 7.37655C24.7282 7.07815 25.2256 7.07815 25.524 7.37655C25.8224 7.67496 25.8224 8.17229 25.524 8.47069L24.3304 9.6643L25.524 10.9574Z" fill="black"/>
</svg>
