<svg width="32" height="32" viewBox="0 0 32 32" fill="none" xmlns="http://www.w3.org/2000/svg">
<path d="M24.27 12.57H19.43V7.73C19.4223 7.5354 19.3402 7.35117 19.2007 7.21533C19.0611 7.07949 18.8747 7.00241 18.68 7H13.32C13.1219 7.00259 12.9326 7.08244 12.7925 7.22253C12.6524 7.36263 12.5726 7.55189 12.57 7.75V12.59H7.73C7.53189 12.5926 7.34263 12.6724 7.20253 12.8125C7.06244 12.9526 6.98259 13.1419 6.98 13.34V18.7C6.98259 18.8981 7.06244 19.0874 7.20253 19.2275C7.34263 19.3676 7.53189 19.4474 7.73 19.45H12.57V24.29C12.5726 24.4881 12.6524 24.6774 12.7925 24.8175C12.9326 24.9576 13.1219 25.0374 13.32 25.04H18.68C18.8781 25.0374 19.0674 24.9576 19.2075 24.8175C19.3476 24.6774 19.4274 24.4881 19.43 24.29V19.43H24.27C24.4681 19.4274 24.6574 19.3476 24.7975 19.2075C24.9376 19.0674 25.0174 18.8781 25.02 18.68V13.32C25.0174 13.1219 24.9376 12.9326 24.7975 12.7925C24.6574 12.6524 24.4681 12.5726 24.27 12.57ZM23.52 17.93H18.68C18.5811 17.9287 18.483 17.9471 18.3914 17.9844C18.2998 18.0216 18.2166 18.0768 18.1467 18.1467C18.0768 18.2166 18.0216 18.2998 17.9844 18.3914C17.9471 18.483 17.9287 18.5811 17.93 18.68V23.52H14.07V18.68C14.0713 18.5811 14.0529 18.483 14.0156 18.3914C13.9784 18.2998 13.9232 18.2166 13.8533 18.1467C13.7834 18.0768 13.7002 18.0216 13.6086 17.9844C13.517 17.9471 13.4189 17.9287 13.32 17.93H8.48V14.07H13.32C13.4189 14.0713 13.517 14.0529 13.6086 14.0156C13.7002 13.9784 13.7834 13.9232 13.8533 13.8533C13.9232 13.7834 13.9784 13.7002 14.0156 13.6086C14.0529 13.517 14.0713 13.4189 14.07 13.32V8.48H17.93V13.32C17.9287 13.4189 17.9471 13.517 17.9844 13.6086C18.0216 13.7002 18.0768 13.7834 18.1467 13.8533C18.2166 13.9232 18.2998 13.9784 18.3914 14.0156C18.483 14.0529 18.5811 14.0713 18.68 14.07H23.52V17.93Z" fill="black"/>
<path d="M23.25 2H8.75C6.9606 2.00265 5.24525 2.71465 3.97995 3.97995C2.71465 5.24525 2.00265 6.9606 2 8.75V23.25C2.00265 25.0394 2.71465 26.7548 3.97995 28.0201C5.24525 29.2853 6.9606 29.9974 8.75 30H23.25C25.0394 29.9974 26.7548 29.2853 28.0201 28.0201C29.2853 26.7548 29.9974 25.0394 30 23.25V8.75C29.9974 6.9606 29.2853 5.24525 28.0201 3.97995C26.7548 2.71465 25.0394 2.00265 23.25 2ZM28.5 23.25C28.5 24.6424 27.9469 25.9777 26.9623 26.9623C25.9777 27.9469 24.6424 28.5 23.25 28.5H8.75C7.35761 28.5 6.02226 27.9469 5.03769 26.9623C4.05312 25.9777 3.5 24.6424 3.5 23.25V8.75C3.5 7.35761 4.05312 6.02226 5.03769 5.03769C6.02226 4.05312 7.35761 3.5 8.75 3.5H23.25C24.6424 3.5 25.9777 4.05312 26.9623 5.03769C27.9469 6.02226 28.5 7.35761 28.5 8.75V23.25Z" fill="black"/>
</svg>
