<svg width="32" height="32" viewBox="0 0 32 32" fill="none" xmlns="http://www.w3.org/2000/svg">
<path fill-rule="evenodd" clip-rule="evenodd" d="M3.03353 14.4056C4.73319 12.1394 8.61652 10 15.95 10C23.2699 10 27.2559 12.1317 28.961 14.3982C30.548 16.4151 29.9333 18.4111 29.595 19.5096C29.555 19.6393 29.5189 19.7566 29.4908 19.8599C29.2723 20.6609 28.741 21.1547 28.126 21.408C27.5432 21.648 26.9038 21.6683 26.3805 21.6101C26.1735 21.5871 25.8682 21.5573 25.5098 21.5222C24.4211 21.4157 22.8428 21.2614 22.0439 21.1061C21.6664 21.0612 21.3311 20.9172 21.061 20.6727C20.7892 20.4267 20.6269 20.1185 20.5298 19.8183C20.3429 19.2406 20.357 18.5619 20.4088 17.9922C20.4616 17.4113 20.4672 17.1414 20.4264 16.9714C20.4117 16.9099 20.3939 16.8796 20.3746 16.8556C20.3515 16.8269 20.3009 16.7768 20.1833 16.7096C20.1613 16.6971 20.14 16.6834 20.1194 16.6687C19.9 16.512 19.4007 16.3119 18.6393 16.1548C17.9044 16.0031 17.0042 15.9074 16.0501 15.9074C15.0965 15.9074 14.1923 16.003 13.4496 16.1445C12.6862 16.2899 12.1582 16.4716 11.9169 16.6095C11.7186 16.7228 11.6537 16.8237 11.6135 16.9594C11.5569 17.1503 11.5422 17.4524 11.5913 17.9922C11.6429 18.5601 11.6579 19.2179 11.4682 19.7871C11.3691 20.0844 11.2074 20.3792 10.9485 20.6217C10.6864 20.8673 10.3608 21.0252 9.98944 21.0995C9.20177 21.257 7.59423 21.4143 6.49029 21.5222C6.13461 21.557 5.8312 21.5867 5.62434 21.6096C5.13468 21.67 4.50218 21.6443 3.91859 21.4108C3.30879 21.1669 2.73363 20.6824 2.50929 19.8599C2.47938 19.7502 2.44089 19.6267 2.39848 19.4907C2.05795 18.3987 1.46495 16.497 3.03353 14.4056ZM15.95 11.5018C8.86502 11.5018 5.53914 13.5678 4.23498 15.3067C3.14753 16.7566 3.50031 17.929 3.82656 19.0133C3.87231 19.1653 3.91753 19.3156 3.95819 19.4647C4.03423 19.7435 4.21003 19.9099 4.47635 20.0164C4.7667 20.1326 5.13293 20.1575 5.44354 20.1187L5.45375 20.1174L5.45376 20.1175C5.70694 20.0894 6.05558 20.0552 6.44924 20.0167C7.54489 19.9094 8.98927 19.768 9.69491 19.6268C9.82421 19.601 9.88662 19.5586 9.92173 19.5257C9.96009 19.4898 10.0049 19.4279 10.0435 19.3122C10.1291 19.0553 10.1441 18.6618 10.0956 18.1282C10.0446 17.5667 10.0299 17.0177 10.1735 16.5327C10.3336 15.9925 10.6692 15.5928 11.1718 15.3056C11.6313 15.043 12.3549 14.8242 13.1686 14.6692C14.0029 14.5103 15.0011 14.4056 16.0501 14.4056C17.0985 14.4056 18.1008 14.5102 18.9428 14.6839C19.7407 14.8486 20.478 15.0918 20.9605 15.4243C21.4392 15.7061 21.7578 16.0835 21.8868 16.6209C21.9962 17.0766 21.9517 17.6078 21.9044 18.1282C21.8561 18.66 21.8702 19.0826 21.9587 19.356C21.9992 19.4814 22.0434 19.5362 22.0689 19.5593C22.0867 19.5754 22.1255 19.6053 22.2326 19.616C22.2569 19.6184 22.2812 19.622 22.3052 19.6268C23.0108 19.768 24.4552 19.9094 25.5508 20.0167C25.9445 20.0552 26.2931 20.0894 26.5463 20.1175C26.9241 20.1595 27.286 20.1297 27.5542 20.0193C27.7903 19.922 27.9599 19.7651 28.0419 19.4647C28.08 19.3248 28.122 19.1829 28.1645 19.0391C28.4939 17.9246 28.8583 16.6918 27.7764 15.3214L27.7651 15.3067C26.4632 13.5709 23.0405 11.5018 15.95 11.5018Z" fill="black"/>
</svg>
