<svg width="32" height="32" viewBox="0 0 32 32" fill="none" xmlns="http://www.w3.org/2000/svg">
<path d="M29.25 2H7.75C7.55189 2.00259 7.36263 2.08244 7.22253 2.22253C7.08244 2.36263 7.00259 2.55189 7 2.75C7.00259 2.94811 7.08244 3.13737 7.22253 3.27747C7.36263 3.41756 7.55189 3.49741 7.75 3.5H28.5V24.25C28.5 24.4489 28.579 24.6397 28.7197 24.7803C28.8603 24.921 29.0511 25 29.25 25C29.4489 25 29.6397 24.921 29.7803 24.7803C29.921 24.6397 30 24.4489 30 24.25V2.75C29.9974 2.55189 29.9176 2.36263 29.7775 2.22253C29.6374 2.08244 29.4481 2.00259 29.25 2Z" fill="black"/>
<path d="M7.75 19H13V24.25C13 24.4489 13.079 24.6397 13.2197 24.7803C13.3603 24.921 13.5511 25 13.75 25C13.9489 25 14.1397 24.921 14.2803 24.7803C14.421 24.6397 14.5 24.4489 14.5 24.25V19H19.75C19.9489 19 20.1397 18.921 20.2803 18.7803C20.421 18.6397 20.5 18.4489 20.5 18.25C20.5 18.0511 20.421 17.8603 20.2803 17.7197C20.1397 17.579 19.9489 17.5 19.75 17.5H14.5V12.25C14.5 12.0511 14.421 11.8603 14.2803 11.7197C14.1397 11.579 13.9489 11.5 13.75 11.5C13.5511 11.5 13.3603 11.579 13.2197 11.7197C13.079 11.8603 13 12.0511 13 12.25V17.5H7.75C7.55109 17.5 7.36032 17.579 7.21967 17.7197C7.07902 17.8603 7 18.0511 7 18.25C7 18.4489 7.07902 18.6397 7.21967 18.7803C7.36032 18.921 7.55109 19 7.75 19Z" fill="black"/>
<path d="M24.75 6.5H2.75C2.55189 6.50259 2.36263 6.58244 2.22253 6.72253C2.08244 6.86263 2.00259 7.05189 2 7.25V29.25C2.00259 29.4481 2.08244 29.6374 2.22253 29.7775C2.36263 29.9176 2.55189 29.9974 2.75 30H24.75C24.9481 29.9974 25.1374 29.9176 25.2775 29.7775C25.4176 29.6374 25.4974 29.4481 25.5 29.25V7.25C25.4974 7.05189 25.4176 6.86263 25.2775 6.72253C25.1374 6.58244 24.9481 6.50259 24.75 6.5ZM24 28.5H3.5V8H24V28.5Z" fill="black"/>
</svg>
