<svg width="32" height="32" viewBox="0 0 32 32" fill="none" xmlns="http://www.w3.org/2000/svg">
<path fill-rule="evenodd" clip-rule="evenodd" d="M7.85 3.5C6.56421 3.5 5.5 4.56421 5.5 5.85V26.25C5.5 27.5358 6.56421 28.6 7.85 28.6H23.05C24.3358 28.6 25.4 27.5358 25.4 26.25V17.25C25.4 16.8358 25.7358 16.5 26.15 16.5C26.5642 16.5 26.9 16.8358 26.9 17.25V26.25C26.9 28.3642 25.1642 30.1 23.05 30.1H7.85C5.73579 30.1 4 28.3642 4 26.25V5.85C4 3.73579 5.73579 2 7.85 2H11.75C12.1642 2 12.5 2.33579 12.5 2.75C12.5 3.16421 12.1642 3.5 11.75 3.5H7.85ZM17.3 2.85C17.3 2.43579 17.6358 2.1 18.05 2.1H26.25C26.6642 2.1 27 2.43579 27 2.85V10.95C27 11.3642 26.6642 11.7 26.25 11.7C25.8358 11.7 25.5 11.3642 25.5 10.95V4.64507L18.5771 11.4836C18.2824 11.7747 17.8075 11.7718 17.5164 11.4771C17.2253 11.1824 17.2282 10.7075 17.5229 10.4164L24.4235 3.6H18.05C17.6358 3.6 17.3 3.26421 17.3 2.85ZM8.6 17.25C8.6 16.8358 8.93579 16.5 9.35 16.5H10.35C10.7642 16.5 11.1 16.8358 11.1 17.25C11.1 17.6642 10.7642 18 10.35 18H9.35C8.93579 18 8.6 17.6642 8.6 17.25ZM12.8 17.25C12.8 16.8358 13.1358 16.5 13.55 16.5H21.65C22.0642 16.5 22.4 16.8358 22.4 17.25C22.4 17.6642 22.0642 18 21.65 18H13.55C13.1358 18 12.8 17.6642 12.8 17.25ZM8.6 21.25C8.6 20.8358 8.93579 20.5 9.35 20.5H10.35C10.7642 20.5 11.1 20.8358 11.1 21.25C11.1 21.6642 10.7642 22 10.35 22H9.35C8.93579 22 8.6 21.6642 8.6 21.25ZM12.8 21.25C12.8 20.8358 13.1358 20.5 13.55 20.5H21.65C22.0642 20.5 22.4 20.8358 22.4 21.25C22.4 21.6642 22.0642 22 21.65 22H13.55C13.1358 22 12.8 21.6642 12.8 21.25ZM8.6 25.25C8.6 24.8358 8.93579 24.5 9.35 24.5H10.35C10.7642 24.5 11.1 24.8358 11.1 25.25C11.1 25.6642 10.7642 26 10.35 26H9.35C8.93579 26 8.6 25.6642 8.6 25.25ZM12.8 25.25C12.8 24.8358 13.1358 24.5 13.55 24.5H21.65C22.0642 24.5 22.4 24.8358 22.4 25.25C22.4 25.6642 22.0642 26 21.65 26H13.55C13.1358 26 12.8 25.6642 12.8 25.25Z" fill="black"/>
</svg>
