<svg width="32" height="32" viewBox="0 0 32 32" fill="none" xmlns="http://www.w3.org/2000/svg">
<path fill-rule="evenodd" clip-rule="evenodd" d="M15.95 3.49466C8.83728 3.49466 3.5 8.56718 3.5 15.5018C3.5 19.1642 4.90079 22.2396 7.32183 24.4844C7.83656 24.8554 7.99596 25.3955 7.99992 25.8474L8.09642 28.1551C8.12472 28.2551 8.17832 28.3485 8.24283 28.4128C8.30886 28.4786 8.37449 28.5053 8.45 28.5053C8.45689 28.5053 8.46305 28.5053 8.46867 28.5053L11.0489 27.3186C11.3472 27.1028 11.6701 27.1077 11.8157 27.1099C11.8286 27.1101 11.84 27.1103 11.85 27.1103H12.2504L12.3473 27.1366C13.3863 27.419 14.6199 27.6085 15.95 27.6085C23.0703 27.6085 28.5 22.5288 28.5 15.6014C28.5 8.66655 23.0624 3.49466 15.95 3.49466ZM2 15.5018C2 7.68904 8.06272 2 15.95 2C23.8376 2 30 7.78896 30 15.6014C30 23.4214 23.8297 29.1032 15.95 29.1032C14.5214 29.1032 13.1906 28.9057 12.051 28.605H11.8506C11.844 28.605 11.8372 28.605 11.8314 28.605L9.24256 29.7956C9.06142 29.9197 8.87422 29.9606 8.7733 29.9774C8.6357 30.0002 8.50802 30.0001 8.45688 30L8.45 30C7.37275 30 6.75818 29.1183 6.61456 28.4028L6.60309 28.3456L6.5 25.8803V25.8648C6.5 25.796 6.48828 25.7568 6.47973 25.7381C6.4757 25.7292 6.47147 25.7228 6.46652 25.7169C6.46164 25.7112 6.45223 25.7015 6.43397 25.6894L6.38476 25.6567L6.34129 25.6167C3.58498 23.0815 2 19.5931 2 15.5018Z" fill="black"/>
<path fill-rule="evenodd" clip-rule="evenodd" d="M20.05 18.6904L23.95 12.5125C24.05 12.4128 24.05 12.3132 24.05 12.1139C24.05 11.8149 23.75 11.516 23.45 11.516C23.35 11.516 23.15 11.6157 23.05 11.6157L18.85 14.9039C18.75 15.0036 18.55 15.1032 18.35 15.1032C18.15 15.1032 18.05 15.0036 17.85 14.9039L14.75 12.6121C14.45 12.4128 14.05 12.2135 13.55 12.2135C12.85 12.2135 12.25 12.6121 11.85 13.1103L7.95 19.2882C7.85 19.3879 7.85 19.4875 7.85 19.5872C7.85 19.8861 8.15 20.185 8.45 20.185C8.55 20.185 8.75 20.185 8.85 20.0854L13.05 16.8968C13.15 16.7971 13.35 16.6975 13.55 16.6975C13.75 16.6975 13.85 16.7971 14.05 16.8968L17.15 19.1886C17.45 19.4875 17.85 19.5872 18.35 19.5872C19.05 19.5872 19.65 19.2882 20.05 18.6904Z" fill="black"/>
</svg>
