<svg width="32" height="32" viewBox="0 0 32 32" fill="none" xmlns="http://www.w3.org/2000/svg">
<path d="M29.18 10.26L21.73 2.81C21.21 2.29 20.51 2 19.76 2H5.81C3.71 2 2 3.71 2 5.81V26.19C2 28.29 3.71 30 5.81 30H26.19C28.29 30 30 28.29 30 26.19V12.24C30 11.49 29.71 10.79 29.18 10.26ZM28.12 11.33C28.22 11.43 28.28 11.55 28.35 11.67H21.63C20.92 11.67 20.34 11.09 20.34 10.38V3.65C20.46 3.71 20.58 3.78 20.68 3.88L28.12 11.33ZM26.19 28.5H5.81C4.54 28.5 3.5 27.46 3.5 26.19V5.81C3.5 4.54 4.54 3.5 5.81 3.5H18.84V10.37C18.84 11.91 20.09 13.16 21.63 13.16H28.5V26.19C28.5 27.46 27.46 28.5 26.19 28.5Z" fill="black"/>
<path d="M11.77 17.93C11.4 17.75 10.97 17.66 10.48 17.66H7.94V24.18H9.28V21.88H10.46C11.23 21.88 11.84 21.7 12.28 21.33C12.72 20.96 12.94 20.46 12.94 19.82C12.94 19.4 12.84 19.02 12.64 18.69C12.43 18.36 12.15 18.11 11.77 17.93ZM11.29 20.55C11.1 20.72 10.83 20.8 10.48 20.8H9.28V18.75H10.51C10.84 18.76 11.1 18.86 11.29 19.05C11.48 19.25 11.57 19.51 11.57 19.82C11.57 20.14 11.48 20.38 11.29 20.55Z" fill="black"/>
<path d="M17.4 18.05C16.95 17.79 16.43 17.66 15.86 17.66H13.85V24.18H15.87C16.44 24.18 16.95 24.05 17.41 23.79C17.87 23.53 18.22 23.16 18.46 22.69C18.71 22.22 18.83 21.68 18.83 21.07V20.77C18.83 20.16 18.7 19.62 18.45 19.15C18.21 18.67 17.85 18.31 17.4 18.05ZM17.48 21.11C17.47 21.75 17.33 22.24 17.05 22.58C16.77 22.92 16.37 23.1 15.85 23.1H15.2V18.75H15.86C16.39 18.75 16.79 18.92 17.07 19.26C17.34 19.6 17.48 20.1 17.48 20.77V21.11Z" fill="black"/>
<path d="M19.82 24.18H21.16V21.52H23.74V20.43H21.16V18.75H24.06V17.66H19.82V24.18Z" fill="black"/>
</svg>
