<svg width="32" height="32" viewBox="0 0 32 32" fill="none" xmlns="http://www.w3.org/2000/svg">
<path d="M29.18 10.26L21.73 2.81C21.21 2.29 20.51 2 19.76 2H5.81C3.71 2 2 3.71 2 5.81V26.19C2 28.29 3.71 30 5.81 30H26.19C28.29 30 30 28.29 30 26.19V12.24C30 11.49 29.71 10.79 29.18 10.26ZM28.12 11.33C28.22 11.43 28.28 11.55 28.34 11.67H21.62C20.91 11.67 20.33 11.09 20.33 10.38V3.65C20.45 3.71 20.57 3.78 20.67 3.88L28.12 11.33ZM26.19 28.5H5.81C4.54 28.5 3.5 27.46 3.5 26.19V5.81C3.5 4.54 4.54 3.5 5.81 3.5H18.84V10.37C18.84 11.91 20.09 13.16 21.63 13.16H28.5V26.19C28.5 27.46 27.46 28.5 26.19 28.5Z" fill="black"/>
<path d="M11 17.64L8.57 24.16H10L10.45 22.82H12.81L13.26 24.16H14.69L12.25 17.64H11ZM10.81 21.73L11.62 19.29L12.44 21.73H10.81Z" fill="black"/>
<path d="M17.36 22.54L15.89 17.64H14.4L16.66 24.16H18.06L20.34 17.64H18.84L17.36 22.54Z" fill="black"/>
<path d="M22.37 17.64H21.03V24.16H22.37V17.64Z" fill="black"/>
</svg>
