<svg width="32" height="32" viewBox="0 0 32 32" fill="none" xmlns="http://www.w3.org/2000/svg">
<path fill-rule="evenodd" clip-rule="evenodd" d="M2 5.76978C2 4.24468 3.24468 3 4.76978 3H11.8201C13.3453 3 14.5899 4.24468 14.5899 5.76978V6.6259H24.3094C25.8345 6.6259 27.0791 7.87058 27.0791 9.39568V10.1511H27.2302C28.7553 10.1511 30 11.3958 30 12.9209V26.2158C30 27.7409 28.7553 28.9856 27.2302 28.9856H5.50977C5.27406 29.0512 5.02588 29.0863 4.76978 29.0863C3.24468 29.0863 2 27.8417 2 26.3165V5.76978ZM5.26055 27.4748H4.76978C4.66194 27.4748 4.55937 27.4974 4.46656 27.5381C3.92028 27.401 3.51079 26.9029 3.51079 26.3165V5.76978C3.51079 5.07906 4.07906 4.51079 4.76978 4.51079H11.8201C12.5109 4.51079 13.0791 5.07906 13.0791 5.76978V7.3813C13.0791 7.79849 13.4173 8.13669 13.8345 8.13669H24.3094C25.0001 8.13669 25.5683 8.70496 25.5683 9.39568V10.1511H8.79856C7.27345 10.1511 6.02878 11.3958 6.02878 12.9209V26.3165C6.02878 26.8336 5.71038 27.282 5.26055 27.4748ZM7.28484 27.4748H27.2302C27.9209 27.4748 28.4892 26.9065 28.4892 26.2158V12.9209C28.4892 12.2301 27.9209 11.6619 27.2302 11.6619H8.79856C8.10784 11.6619 7.53957 12.2301 7.53957 12.9209V26.3165C7.53957 26.7296 7.44827 27.1221 7.28484 27.4748Z" fill="black"/>
</svg>
