<svg width="32" height="32" viewBox="0 0 32 32" fill="none" xmlns="http://www.w3.org/2000/svg">
<path d="M24.5454 13.54C24.3475 13.5426 24.1585 13.6224 24.0185 13.7625C23.8786 13.9026 23.7988 14.0919 23.7962 14.29V22.88H22.3978C22.2008 22.88 22.0117 22.9576 21.8715 23.0961C21.7313 23.2346 21.6512 23.4228 21.6486 23.62C21.6486 23.8198 21.7272 24.0117 21.8674 24.1539C22.0076 24.2961 22.1982 24.3774 22.3978 24.38H23.8662C24.0521 24.3896 24.2379 24.3609 24.4123 24.2956C24.5866 24.2303 24.7457 24.1298 24.8796 24.0004C25.0136 23.871 25.1195 23.7155 25.1909 23.5434C25.2623 23.3713 25.2976 23.1863 25.2946 23V14.29C25.2946 14.0911 25.2157 13.9003 25.0752 13.7597C24.9347 13.619 24.7441 13.54 24.5454 13.54Z" fill="black"/>
<path d="M29.9695 21.25C29.4624 19.6252 28.7756 18.0621 27.9217 16.59C27.8237 16.4163 27.6608 16.2887 27.4688 16.2352C27.2767 16.1818 27.0714 16.2069 26.8979 16.305C26.7243 16.4031 26.5968 16.5662 26.5435 16.7585C26.4901 16.9507 26.5151 17.1563 26.6132 17.33C27.4034 18.6848 28.04 20.1237 28.5111 21.62C28.5544 21.7813 28.649 21.9242 28.7805 22.027C28.9121 22.1298 29.0734 22.187 29.2403 22.19C29.3032 22.1996 29.3672 22.1996 29.4301 22.19C29.5284 22.1658 29.6207 22.1218 29.7015 22.0609C29.7824 21.9999 29.85 21.9232 29.9004 21.8354C29.9508 21.7475 29.983 21.6504 29.9948 21.5498C30.0067 21.4492 29.9981 21.3472 29.9695 21.25Z" fill="black"/>
<path d="M21.7085 16.32C21.5126 16.2816 21.3095 16.3219 21.1431 16.4324C20.9767 16.5428 20.8604 16.7144 20.8195 16.91C20.6117 18.2528 20.1177 19.5352 19.3711 20.67L19.3011 20.77C19.2044 20.9335 19.1732 21.1278 19.214 21.3134C19.2548 21.499 19.3645 21.6622 19.5209 21.77C19.6436 21.8474 19.7854 21.8889 19.9305 21.89C20.0555 21.8913 20.1789 21.8607 20.2889 21.8013C20.399 21.7418 20.4922 21.6553 20.5598 21.55L20.6297 21.45C21.4735 20.1542 22.0382 18.6965 22.2879 17.17C22.3203 16.9808 22.278 16.7863 22.1699 16.6277C22.0618 16.4691 21.8964 16.3587 21.7085 16.32Z" fill="black"/>
<path d="M17.4931 13.21H10.5707C10.7513 11.7303 10.838 10.2407 10.8304 8.75C10.8304 8.55109 10.7514 8.36032 10.6109 8.21967C10.4704 8.07902 10.2799 8 10.0812 8C9.88249 8 9.69194 8.07902 9.55144 8.21967C9.41094 8.36032 9.33201 8.55109 9.33201 8.75C9.34403 10.2414 9.25056 11.7318 9.05231 13.21H2.74918C2.55049 13.21 2.35993 13.289 2.21943 13.4297C2.07893 13.5703 2 13.7611 2 13.96C2 14.1589 2.07893 14.3497 2.21943 14.4903C2.35993 14.631 2.55049 14.71 2.74918 14.71H8.79259C8.5073 16.2031 7.9412 17.6284 7.12441 18.91C6.03162 20.6733 4.46287 22.0912 2.59935 23C2.44356 23.0725 2.31739 23.1964 2.24197 23.3509C2.16656 23.5054 2.14648 23.6812 2.18511 23.8488C2.22374 24.0163 2.31873 24.1655 2.45416 24.2714C2.58958 24.3772 2.75722 24.4332 2.92899 24.43C3.04655 24.4275 3.16226 24.4002 3.26862 24.35C5.36317 23.3347 7.13406 21.7558 8.38304 19.79C9.14176 18.595 9.70177 17.2846 10.0412 15.91C11.3898 19.15 13.0979 22.14 16.6141 24.27C16.7318 24.3408 16.8663 24.3788 17.0036 24.38C17.1333 24.3798 17.2605 24.3456 17.3728 24.2806C17.485 24.2157 17.5781 24.1224 17.6429 24.01C17.736 23.8418 17.7609 23.6442 17.7125 23.4581C17.6642 23.272 17.5463 23.1116 17.3832 23.01C14.0369 21.01 12.4686 18.01 11.17 14.74H17.4931C17.6918 14.74 17.8824 14.661 18.0229 14.5203C18.1634 14.3797 18.2423 14.1889 18.2423 13.99C18.2423 13.7911 18.1634 13.6003 18.0229 13.4597C17.8824 13.319 17.6918 13.24 17.4931 13.24V13.21Z" fill="black"/>
</svg>
