<svg width="32" height="32" viewBox="0 0 32 32" fill="none" xmlns="http://www.w3.org/2000/svg">
<path d="M26.75 26.1516H4.75C4.55109 26.1516 4.36032 26.2307 4.21967 26.3713C4.07902 26.512 4 26.7027 4 26.9016C4 27.1006 4.07902 27.2913 4.21967 27.432C4.36032 27.5726 4.55109 27.6516 4.75 27.6516H26.75C26.9489 27.6516 27.1397 27.5726 27.2803 27.432C27.421 27.2913 27.5 27.1006 27.5 26.9016C27.5 26.7027 27.421 26.512 27.2803 26.3713C27.1397 26.2307 26.9489 26.1516 26.75 26.1516Z" fill="black"/>
<path d="M10.72 14.6916C10.2592 15.5053 9.97789 16.4082 9.8951 17.3397C9.8123 18.2711 9.92991 19.2094 10.24 20.0916C11.16 22.6516 13.89 24.0916 17.42 24.0916C18.931 24.0815 20.4327 23.8559 21.88 23.4216C21.9742 23.3952 22.0622 23.3503 22.1389 23.2896C22.2156 23.2289 22.2795 23.1536 22.3269 23.068C22.3744 22.9825 22.4044 22.8884 22.4152 22.7912C22.426 22.6939 22.4174 22.5955 22.39 22.5016C22.3341 22.3103 22.2053 22.1486 22.0314 22.0514C21.8574 21.9541 21.6522 21.9291 21.46 21.9816C17.46 23.1416 12.76 22.7016 11.65 19.6116C11.4057 18.9271 11.3105 18.1982 11.3709 17.4738C11.4312 16.7494 11.6457 16.0463 12 15.4116C13.1 13.4116 15.4 11.8916 18.48 11.1716C18.5765 11.1505 18.6678 11.1102 18.7485 11.0532C18.8292 10.9962 18.8976 10.9236 18.9498 10.8398C19.002 10.7559 19.0369 10.6624 19.0524 10.5648C19.0679 10.4672 19.0637 10.3676 19.04 10.2716C18.9948 10.0781 18.8746 9.91041 18.7059 9.80541C18.5371 9.70041 18.3336 9.66669 18.14 9.71164C16.9549 9.97703 15.8088 10.3938 14.73 10.9516C13.57 10.5516 11.73 9.46164 11.87 7.84164C11.9209 7.48702 12.0483 7.14771 12.2435 6.84725C12.4386 6.54679 12.6967 6.29237 13 6.10164C13.4647 5.80683 13.9868 5.61423 14.5316 5.53665C15.0764 5.45906 15.6315 5.49826 16.16 5.65164C16.2553 5.67686 16.3547 5.68253 16.4522 5.6683C16.5497 5.65407 16.6434 5.62024 16.7275 5.56884C16.8116 5.51745 16.8844 5.44956 16.9415 5.36926C16.9987 5.28897 17.039 5.19793 17.06 5.10164C17.0838 5.00641 17.0884 4.90739 17.0735 4.81036C17.0587 4.71333 17.0247 4.62022 16.9735 4.53646C16.9223 4.4527 16.855 4.37996 16.7754 4.32248C16.6958 4.265 16.6056 4.22392 16.51 4.20164C15.7778 3.99368 15.0093 3.94588 14.257 4.06149C13.5046 4.17711 12.786 4.45342 12.15 4.87164C11.678 5.18497 11.2791 5.5964 10.9806 6.07788C10.682 6.55936 10.4908 7.09956 10.42 7.66164C10.19 9.66164 11.61 11.0916 13.22 11.9116C12.1965 12.6478 11.3438 13.5961 10.72 14.6916Z" fill="black"/>
</svg>
