<svg width="32" height="32" viewBox="0 0 32 32" fill="none" xmlns="http://www.w3.org/2000/svg">
<path d="M11.17 20.0024C11.3681 19.9998 11.5574 19.92 11.6975 19.7799C11.8376 19.6398 11.9174 19.4505 11.92 19.2524V15.7924C11.863 14.9681 12.0311 14.1437 12.4062 13.4075C12.7814 12.6712 13.3496 12.0508 14.05 11.6124L19.72 19.7924C19.7881 19.8912 19.8792 19.972 19.9855 20.0277C20.0918 20.0835 20.21 20.1125 20.33 20.1124C20.4716 20.1259 20.6141 20.0983 20.7405 20.0328C20.8668 19.9674 20.9716 19.8669 21.0423 19.7435C21.113 19.62 21.1466 19.4788 21.1391 19.3367C21.1316 19.1946 21.0833 19.0577 21 18.9424L18.47 15.3524C19.3277 14.7223 20.0152 13.8888 20.4708 12.927C20.9264 11.9652 21.1357 10.9052 21.08 9.8424V6.8424C21.08 6.64349 21.001 6.45273 20.8603 6.31207C20.7197 6.17142 20.5289 6.0924 20.33 6.0924C20.1311 6.0924 19.9403 6.17142 19.7997 6.31207C19.659 6.45273 19.58 6.64349 19.58 6.8424V9.8424C19.6353 10.6667 19.4809 11.4915 19.1311 12.2399C18.7814 12.9884 18.2478 13.636 17.58 14.1224L12.21 6.3224C12.095 6.15915 11.9204 6.0477 11.724 6.01215C11.5275 5.97659 11.3249 6.01979 11.16 6.1324C11.01 6.24609 10.9082 6.41203 10.8749 6.59728C10.8415 6.78253 10.879 6.97354 10.98 7.1324L13.19 10.3324C12.2851 10.9146 11.5516 11.7273 11.0648 12.6869C10.578 13.6464 10.3554 14.7183 10.42 15.7924V19.2624C10.4226 19.4596 10.5028 19.6478 10.6432 19.7863C10.7835 19.9248 10.9728 20.0024 11.17 20.0024Z" fill="black"/>
<path d="M26.75 25.4124H4.75C4.55109 25.4124 4.36032 25.4914 4.21967 25.6321C4.07902 25.7727 4 25.9635 4 26.1624C4 26.3613 4.07902 26.5521 4.21967 26.6927C4.36032 26.8334 4.55109 26.9124 4.75 26.9124H26.75C26.9489 26.9124 27.1397 26.8334 27.2803 26.6927C27.421 26.5521 27.5 26.3613 27.5 26.1624C27.5 25.9635 27.421 25.7727 27.2803 25.6321C27.1397 25.4914 26.9489 25.4124 26.75 25.4124Z" fill="black"/>
</svg>
