<svg width="32" height="32" viewBox="0 0 32 32" fill="none" xmlns="http://www.w3.org/2000/svg">
<path d="M18.5407 14H15.9228V6.76C15.9228 6.56109 15.8439 6.37032 15.7033 6.22967C15.5628 6.08902 15.3722 6.01 15.1734 6.01C14.9747 6.01 14.7841 6.08902 14.6435 6.22967C14.503 6.37032 14.424 6.56109 14.424 6.76V24.67C14.424 24.8689 14.503 25.0597 14.6435 25.2003C14.7841 25.341 14.9747 25.42 15.1734 25.42C15.3722 25.42 15.5628 25.341 15.7033 25.2003C15.8439 25.0597 15.9228 24.8689 15.9228 24.67V15.49H18.5407C18.7394 15.49 18.93 15.411 19.0706 15.2703C19.2111 15.1297 19.2901 14.9389 19.2901 14.74C19.2901 14.5411 19.2111 14.3503 19.0706 14.2097C18.93 14.069 18.7394 13.99 18.5407 13.99V14Z" fill="black"/>
<path d="M28.6924 22.44L25.9746 25.15V6.56L28.6824 9.27C28.8229 9.41045 29.0133 9.48934 29.2119 9.48934C29.4105 9.48934 29.601 9.41045 29.7415 9.27C29.8818 9.12937 29.9607 8.93875 29.9607 8.74C29.9607 8.54125 29.8818 8.35063 29.7415 8.21L25.7448 4.21C25.6066 4.07943 25.4251 4.00463 25.2352 4C25.0365 4.00018 24.846 4.07931 24.7056 4.22L20.7089 8.22C20.5686 8.36063 20.4897 8.55125 20.4897 8.75C20.4897 8.94875 20.5686 9.13937 20.7089 9.28C20.7778 9.35076 20.8601 9.40699 20.9511 9.44539C21.042 9.48379 21.1397 9.50357 21.2385 9.50357C21.3372 9.50357 21.4349 9.48379 21.5258 9.44539C21.6168 9.40699 21.6991 9.35076 21.768 9.28L24.4858 6.57V25.15L21.768 22.44C21.6994 22.3663 21.6167 22.3072 21.5248 22.2662C21.4328 22.2252 21.3336 22.2032 21.233 22.2014C21.1324 22.1996 21.0324 22.2182 20.9391 22.2559C20.8458 22.2936 20.761 22.3497 20.6899 22.421C20.6187 22.4922 20.5626 22.577 20.5249 22.6704C20.4872 22.7638 20.4687 22.8638 20.4705 22.9645C20.4723 23.0652 20.4943 23.1645 20.5353 23.2565C20.5762 23.3485 20.6353 23.4313 20.7089 23.5L24.7056 27.5C24.7757 27.5668 24.8569 27.6209 24.9454 27.66C25.0388 27.692 25.1366 27.7088 25.2352 27.71C25.3306 27.7088 25.4251 27.6919 25.515 27.66C25.6066 27.621 25.691 27.567 25.7648 27.5L29.7615 23.5C29.8351 23.4313 29.8942 23.3485 29.9351 23.2565C29.9761 23.1645 29.9981 23.0652 29.9999 22.9645C30.0017 22.8638 29.9832 22.7638 29.9455 22.6704C29.9078 22.577 29.8517 22.4922 29.7805 22.421C29.7094 22.3497 29.6246 22.2936 29.5313 22.2559C29.438 22.2182 29.338 22.1996 29.2374 22.2014C29.1368 22.2032 29.0375 22.2252 28.9456 22.2662C28.8537 22.3072 28.771 22.3663 28.7024 22.44H28.6924Z" fill="black"/>
<path d="M10.3174 8.22H2.92344C2.72469 8.22 2.53408 8.29902 2.39354 8.43967C2.25301 8.58032 2.17405 8.77109 2.17405 8.97C2.17405 9.16891 2.25301 9.35968 2.39354 9.50033C2.53408 9.64098 2.72469 9.72 2.92344 9.72H9.53803C9.34819 12.82 7.86939 16.86 2.38388 19.92C2.2139 20.015 2.08756 20.1726 2.03161 20.3592C1.97566 20.5459 1.99449 20.747 2.08413 20.92C2.18251 21.0865 2.34064 21.2093 2.5263 21.2631C2.71196 21.317 2.91117 21.298 3.08331 21.21C9.98766 17.37 11.0668 11.89 11.0668 9C11.0694 8.89936 11.0521 8.7992 11.0157 8.70533C10.9794 8.61145 10.9248 8.52574 10.8551 8.45318C10.7853 8.38061 10.7019 8.32262 10.6096 8.2826C10.5173 8.24257 10.418 8.22129 10.3174 8.22Z" fill="black"/>
</svg>
