<svg width="32" height="32" viewBox="0 0 32 32" fill="none" xmlns="http://www.w3.org/2000/svg">
<path d="M8.34 14.42C8.53891 14.42 8.72968 14.341 8.87033 14.2003C9.01098 14.0597 9.09 13.8689 9.09 13.67V11.67H22.91V13.67C22.91 13.8689 22.989 14.0597 23.1297 14.2003C23.2703 14.341 23.4611 14.42 23.66 14.42C23.8589 14.42 24.0497 14.341 24.1903 14.2003C24.331 14.0597 24.41 13.8689 24.41 13.67V11C24.4074 10.8019 24.3276 10.6126 24.1875 10.4725C24.0474 10.3324 23.8581 10.2526 23.66 10.25H21.39C21.8785 9.5767 22.3164 8.86809 22.7 8.13C22.7513 8.04302 22.7845 7.94658 22.7976 7.84646C22.8108 7.74633 22.8035 7.64459 22.7764 7.54732C22.7493 7.45006 22.7027 7.35928 22.6397 7.28043C22.5766 7.20157 22.4982 7.13627 22.4093 7.08844C22.3204 7.0406 22.2227 7.01122 22.1221 7.00205C22.0215 6.99288 21.9202 7.00411 21.8241 7.03507C21.7279 7.06604 21.6391 7.11609 21.5628 7.18223C21.4865 7.24838 21.4243 7.32925 21.38 7.42C20.8469 8.41131 20.2099 9.3432 19.48 10.2H17.2C17.2958 10.0337 17.3278 9.83818 17.29 9.65C16.9692 8.78968 16.5354 7.97588 16 7.23C15.8793 7.11628 15.7243 7.04578 15.5592 7.02954C15.3941 7.0133 15.2284 7.05222 15.0878 7.14023C14.9472 7.22823 14.8398 7.36035 14.7823 7.51592C14.7248 7.67148 14.7205 7.84172 14.77 8C15.1942 8.62664 15.5496 9.29718 15.83 10C15.8497 10.0677 15.88 10.1319 15.92 10.19H12.15C12.2085 10.0952 12.2451 9.9886 12.2572 9.87789C12.2693 9.76719 12.2566 9.65518 12.22 9.55C11.8196 8.77118 11.3187 8.04834 10.73 7.4C10.601 7.26336 10.4255 7.18011 10.238 7.16672C10.0506 7.15334 9.86501 7.21078 9.71792 7.3277C9.57083 7.44462 9.47298 7.61249 9.44374 7.79809C9.4145 7.9837 9.45599 8.17352 9.56 8.33C10.033 8.88041 10.4548 9.47287 10.82 10.1L10.88 10.2H8.34C8.23758 10.2012 8.13647 10.2231 8.04272 10.2644C7.94898 10.3056 7.86455 10.3654 7.7945 10.4402C7.72444 10.5149 7.67022 10.603 7.63508 10.6992C7.59993 10.7954 7.5846 10.8977 7.59 11V13.72C7.60498 13.9093 7.69027 14.0861 7.82907 14.2156C7.96787 14.3452 8.15014 14.4181 8.34 14.42Z" fill="black"/>
<path d="M7.82 19.52H15.25V23.27C15.272 23.3587 15.272 23.4513 15.25 23.54C15.25 23.54 15.15 23.6 14.78 23.61C14.13 23.61 11.98 23.61 11.98 23.61V25.11H14.85C16.15 25.11 16.85 24.45 16.85 23.27V19.52H24.28C24.4789 19.52 24.6697 19.441 24.8103 19.3003C24.951 19.1597 25.03 18.9689 25.03 18.77C25.03 18.5711 24.951 18.3803 24.8103 18.2397C24.6697 18.099 24.4789 18.02 24.28 18.02H16.75V17.55C18.4733 16.8259 20.0493 15.7922 21.4 14.5C21.5326 14.3515 21.6008 14.1564 21.5895 13.9576C21.5783 13.7588 21.4885 13.5726 21.34 13.44C21.1915 13.3074 20.9964 13.2392 20.7976 13.2505C20.5988 13.2617 20.4126 13.3515 20.28 13.5L20.2 13.58H11.2C11.0011 13.58 10.8103 13.659 10.6697 13.7997C10.529 13.9403 10.45 14.1311 10.45 14.33C10.45 14.5289 10.529 14.7197 10.6697 14.8603C10.8103 15.001 11.0011 15.08 11.2 15.08H18.2C17.4035 15.5714 16.5749 16.0091 15.72 16.39C15.5893 16.4493 15.4783 16.545 15.4003 16.6655C15.3223 16.786 15.2806 16.9264 15.28 17.07V18H7.82C7.62109 18 7.43032 18.079 7.28967 18.2197C7.14902 18.3603 7.07 18.5511 7.07 18.75C7.07 18.9489 7.14902 19.1397 7.28967 19.2803C7.43032 19.421 7.62109 19.5 7.82 19.5V19.52Z" fill="black"/>
<path d="M29.25 2H2.75C2.55189 2.00259 2.36263 2.08244 2.22253 2.22253C2.08244 2.36263 2.00259 2.55189 2 2.75V29.25C2.00259 29.4481 2.08244 29.6374 2.22253 29.7775C2.36263 29.9176 2.55189 29.9974 2.75 30H29.25C29.4481 29.9974 29.6374 29.9176 29.7775 29.7775C29.9176 29.6374 29.9974 29.4481 30 29.25V2.75C29.9974 2.55189 29.9176 2.36263 29.7775 2.22253C29.6374 2.08244 29.4481 2.00259 29.25 2ZM28.5 28.5H3.5V3.5H28.5V28.5Z" fill="black"/>
</svg>
