<svg width="32" height="32" viewBox="0 0 32 32" fill="none" xmlns="http://www.w3.org/2000/svg">
<path d="M11.2868 24.1488C8.56682 24.9388 5.42682 24.6688 4.69682 22.6288C4.54021 22.1808 4.48149 21.7043 4.52462 21.2317C4.56775 20.759 4.71171 20.3011 4.94682 19.8888C5.43914 19.1287 6.08485 18.4799 6.84256 17.984C7.60027 17.488 8.45325 17.1559 9.34682 17.0088C9.54036 16.9636 9.70805 16.8434 9.81305 16.6747C9.91805 16.5059 9.95178 16.3024 9.90682 16.1088C9.8529 15.9217 9.73007 15.7619 9.56308 15.6617C9.39608 15.5615 9.19731 15.5283 9.00682 15.5688C8.19652 15.7559 7.41109 16.0378 6.66682 16.4088C5.95682 16.1488 4.77682 15.4688 4.89682 14.5088C4.92475 14.294 4.99916 14.088 5.11488 13.9049C5.23059 13.7218 5.38481 13.5662 5.56682 13.4488C5.86238 13.2656 6.19291 13.1461 6.53729 13.0979C6.88166 13.0497 7.23231 13.0738 7.56682 13.1688C7.76043 13.2179 7.96559 13.188 8.13719 13.0858C8.30879 12.9836 8.43275 12.8174 8.48182 12.6238C8.53088 12.4302 8.50103 12.225 8.39882 12.0534C8.29661 11.8818 8.13042 11.7579 7.93682 11.7088C7.39139 11.56 6.82062 11.5285 6.26214 11.6164C5.70366 11.7044 5.17016 11.9097 4.69682 12.2188C4.34232 12.4576 4.04295 12.7694 3.81875 13.1333C3.59455 13.4972 3.45069 13.9048 3.39682 14.3288C3.3628 14.9477 3.51272 15.5629 3.8277 16.0967C4.14268 16.6306 4.60862 17.0593 5.16682 17.3288C4.53996 17.8347 4.01989 18.4602 3.63682 19.1688C3.29213 19.7702 3.0815 20.439 3.01936 21.1294C2.95723 21.8198 3.04505 22.5155 3.27682 23.1688C4.00682 25.0088 5.94682 26.0688 8.52682 26.0688C9.60392 26.0567 10.6741 25.8952 11.7068 25.5888C11.8978 25.5331 12.0588 25.4038 12.1544 25.2294C12.2501 25.055 12.2725 24.8498 12.2168 24.6588C12.1611 24.4678 12.0319 24.3068 11.8574 24.2112C11.683 24.1155 11.4778 24.0931 11.2868 24.1488Z" fill="black"/>
<path d="M28.2168 24.4788C28.1609 24.2875 28.0322 24.1258 27.8582 24.0285C27.6842 23.9313 27.4791 23.9062 27.2868 23.9588C23.2868 25.1188 18.5868 24.6788 17.4768 21.5888C17.2415 20.9043 17.1545 20.1775 17.2218 19.4568C17.289 18.7361 17.5089 18.038 17.8668 17.4088C18.9668 15.4088 21.2668 13.8888 24.3468 13.1688C24.4457 13.1494 24.5396 13.1104 24.623 13.0539C24.7064 12.9974 24.7776 12.9248 24.8323 12.8402C24.887 12.7556 24.9241 12.6609 24.9414 12.5617C24.9587 12.4625 24.9559 12.3608 24.933 12.2627C24.9102 12.1646 24.8678 12.0721 24.8085 11.9907C24.7491 11.9094 24.674 11.8408 24.5875 11.7891C24.5011 11.7374 24.4051 11.7037 24.3053 11.6899C24.2056 11.6761 24.104 11.6825 24.0068 11.7088C22.8217 11.9742 21.6756 12.3909 20.5968 12.9488C19.4368 12.5488 17.5468 11.4588 17.7368 9.8388C17.7831 9.48757 17.9044 9.1504 18.0925 8.85018C18.2805 8.54995 18.531 8.2937 18.8268 8.0988C19.294 7.80112 19.8196 7.60695 20.3681 7.52933C20.9166 7.45171 21.4754 7.49244 22.0068 7.6488C22.1021 7.67402 22.2015 7.67969 22.299 7.66546C22.3965 7.65123 22.4902 7.61739 22.5743 7.566C22.6584 7.51461 22.7312 7.44672 22.7883 7.36642C22.8455 7.28613 22.8858 7.19509 22.9068 7.0988C22.9306 7.00356 22.9352 6.90455 22.9203 6.80752C22.9055 6.71048 22.8715 6.61738 22.8203 6.53362C22.7691 6.44986 22.7018 6.37712 22.6222 6.31964C22.5426 6.26216 22.4524 6.22108 22.3568 6.1988C21.626 5.993 20.8595 5.94631 20.1091 6.06189C19.3587 6.17747 18.6418 6.45262 18.0068 6.8688C17.5348 7.18213 17.1359 7.59356 16.8374 8.07504C16.5388 8.55652 16.3476 9.09672 16.2768 9.6588C16.0068 11.6388 17.4368 13.0888 19.0068 13.9088C17.9833 14.645 17.1306 15.5932 16.5068 16.6888C16.046 17.5025 15.7647 18.4054 15.6819 19.3368C15.5991 20.2682 15.7167 21.2066 16.0268 22.0888C16.9468 24.6488 19.6768 26.0888 23.2068 26.0888C24.7174 26.0737 26.2185 25.8482 27.6668 25.4188C27.7668 25.397 27.8612 25.3547 27.9441 25.2946C28.0269 25.2345 28.0963 25.1578 28.148 25.0695C28.1997 24.9811 28.2325 24.883 28.2444 24.7813C28.2562 24.6797 28.2468 24.5767 28.2168 24.4788Z" fill="black"/>
</svg>
