<svg width="32" height="32" viewBox="0 0 32 32" fill="none" xmlns="http://www.w3.org/2000/svg">
<path d="M11.81 24.16C12.0009 24.2089 12.2034 24.1808 12.3737 24.0816C12.544 23.9824 12.6684 23.8202 12.72 23.63L14.26 17.92H17.74L19.28 23.63C19.3236 23.7876 19.4176 23.9267 19.5476 24.026C19.6775 24.1253 19.8364 24.1794 20 24.18H20.19C20.2853 24.1545 20.3746 24.1104 20.4528 24.0504C20.531 23.9903 20.5966 23.9154 20.6458 23.8299C20.695 23.7445 20.7269 23.6501 20.7397 23.5524C20.7524 23.4546 20.7457 23.3552 20.72 23.26L16.72 8.39C16.6746 8.23421 16.5798 8.09737 16.45 8C16.3202 7.90263 16.1623 7.85 16 7.85C15.8377 7.85 15.6798 7.90263 15.55 8C15.4202 8.09737 15.3254 8.23421 15.28 8.39L11.28 23.26C11.234 23.4495 11.2636 23.6494 11.3626 23.8174C11.4615 23.9854 11.622 24.1083 11.81 24.16ZM16 11.45L17.34 16.45H14.66L16 11.45Z" fill="black"/>
<path d="M29.25 2H2.75C2.55189 2.00259 2.36263 2.08244 2.22253 2.22253C2.08244 2.36263 2.00259 2.55189 2 2.75V29.25C2.00259 29.4481 2.08244 29.6374 2.22253 29.7775C2.36263 29.9176 2.55189 29.9974 2.75 30H29.25C29.4481 29.9974 29.6374 29.9176 29.7775 29.7775C29.9176 29.6374 29.9974 29.4481 30 29.25V2.75C29.9974 2.55189 29.9176 2.36263 29.7775 2.22253C29.6374 2.08244 29.4481 2.00259 29.25 2ZM28.5 28.5H3.5V3.5H28.5V28.5Z" fill="black"/>
</svg>
