<svg width="32" height="32" viewBox="0 0 32 32" fill="none" xmlns="http://www.w3.org/2000/svg">
<path d="M26.75 25.8165H4.75C4.55109 25.8165 4.36032 25.8955 4.21967 26.0361C4.07902 26.1768 4 26.3676 4 26.5665C4 26.7654 4.07902 26.9561 4.21967 27.0968C4.36032 27.2374 4.55109 27.3165 4.75 27.3165H26.75C26.9489 27.3165 27.1397 27.2374 27.2803 27.0968C27.421 26.9561 27.5 26.7654 27.5 26.5665C27.5 26.3676 27.421 26.1768 27.2803 26.0361C27.1397 25.8955 26.9489 25.8165 26.75 25.8165Z" fill="black"/>
<path d="M10.79 13.3465C9.88105 14.0489 9.12111 14.9252 8.55453 15.9245C7.98794 16.9238 7.62606 18.0258 7.49 19.1665C7.45688 19.5819 7.5169 19.9994 7.66568 20.3887C7.81447 20.7779 8.04825 21.1291 8.35 21.4165C9.68 22.6065 11.61 22.4165 14.09 20.7965C14.15 21.0565 14.2 21.3065 14.28 21.5665C14.324 21.7231 14.4183 21.8609 14.5485 21.9585C14.6786 22.0561 14.8373 22.1081 15 22.1065C15.0663 22.1169 15.1337 22.1169 15.2 22.1065C15.2951 22.0811 15.3841 22.037 15.4619 21.9767C15.5398 21.9165 15.6048 21.8413 15.6532 21.7557C15.7016 21.67 15.7325 21.5755 15.7439 21.4778C15.7554 21.3801 15.7473 21.281 15.72 21.1865C15.6 20.7465 15.5 20.3165 15.4 19.8965L16.15 19.3065C18.0982 17.4172 19.5657 15.089 20.43 12.5165H20.6C21.6265 12.7175 22.5422 13.2918 23.1701 14.1284C23.798 14.965 24.0937 16.0046 24 17.0465C23.78 18.7365 22.63 20.9565 18.34 21.9265C18.149 21.9555 17.9765 22.0571 17.8585 22.2102C17.7406 22.3632 17.6863 22.5559 17.7069 22.748C17.7275 22.9402 17.8215 23.1169 17.9693 23.2415C18.117 23.366 18.3072 23.4287 18.5 23.4165H18.67C24.08 22.1865 25.26 19.0265 25.49 17.2565C25.6449 15.8489 25.2712 14.434 24.4415 13.2864C23.6117 12.1388 22.3852 11.3405 21 11.0465C21.11 10.7265 21.2 10.4265 21.28 10.1565C21.3082 10.0619 21.3176 9.96273 21.3075 9.86457C21.2974 9.76641 21.268 9.6712 21.2211 9.58438C21.1743 9.49756 21.1107 9.42082 21.0342 9.35855C20.9576 9.29628 20.8696 9.2497 20.775 9.22147C20.6804 9.19324 20.5813 9.1839 20.4831 9.194C20.3849 9.2041 20.2897 9.23343 20.2029 9.28032C20.1161 9.32722 20.0394 9.39075 19.9771 9.4673C19.9148 9.54385 19.8682 9.63192 19.84 9.72647C19.75 10.0265 19.63 10.4065 19.49 10.8265C17.8772 10.7644 16.2653 10.9705 14.72 11.4365C14.77 10.4365 14.87 9.43647 14.99 8.43647C17.5554 8.31915 20.1126 8.06211 22.65 7.66647C22.7514 7.65634 22.8497 7.62563 22.9389 7.57623C23.0281 7.52683 23.1062 7.45977 23.1686 7.37915C23.231 7.29852 23.2763 7.20603 23.3017 7.10732C23.3272 7.0086 23.3322 6.90574 23.3165 6.80501C23.3009 6.70428 23.2649 6.6078 23.2107 6.52146C23.1565 6.43513 23.0853 6.36074 23.0014 6.30285C22.9174 6.24496 22.8226 6.20479 22.7227 6.18478C22.6227 6.16477 22.5197 6.16534 22.42 6.18647C20.0184 6.56295 17.5982 6.80998 15.17 6.92647C15.26 6.26647 15.36 5.58647 15.47 4.87647C15.4831 4.77535 15.4762 4.67264 15.4497 4.57419C15.4231 4.47574 15.3774 4.38349 15.3152 4.30271C15.1895 4.13955 15.0042 4.03299 14.8 4.00647C14.5958 3.97995 14.3894 4.03564 14.2262 4.16129C14.0631 4.28694 13.9565 4.47225 13.93 4.67647C13.8 5.48647 13.69 6.25647 13.59 7.04647C12.038 7.07925 10.4854 7.02249 8.94 6.87647C8.74147 6.85971 8.54429 6.92158 8.39092 7.04876C8.23756 7.17594 8.14027 7.35826 8.12 7.55647C8.10044 7.75399 8.15998 7.95121 8.28557 8.10491C8.41115 8.25861 8.59255 8.35626 8.79 8.37647C10.02 8.49647 11.34 8.55647 12.73 8.55647H13.42C13.28 9.70647 13.19 10.8665 13.15 12.0465C12.3077 12.37 11.5136 12.8074 10.79 13.3465ZM18.79 12.3465H18.87C18.0926 14.5302 16.8311 16.5096 15.18 18.1365L15.05 18.2465C14.7384 16.5312 14.5944 14.7896 14.62 13.0465C15.968 12.594 17.3782 12.3545 18.8 12.3365L18.79 12.3465ZM13.72 19.2565C12.08 20.4065 10.34 21.1865 9.35 20.2565C9.22024 20.1165 9.12189 19.9504 9.06153 19.7693C9.00117 19.5882 8.98019 19.3963 9 19.2065C9.27208 17.3475 10.2542 15.6664 11.74 14.5165C12.1697 14.181 12.6321 13.8896 13.12 13.6465C13.1387 15.5314 13.3396 17.4102 13.72 19.2565Z" fill="black"/>
</svg>
