<svg width="32" height="32" viewBox="0 0 32 32" fill="none" xmlns="http://www.w3.org/2000/svg">
<path d="M25.7897 21.68C25.6466 21.5442 25.4568 21.4686 25.2596 21.4686C25.0623 21.4686 24.8725 21.5442 24.7294 21.68L20.7285 25.68C20.6548 25.7487 20.5957 25.8315 20.5547 25.9235C20.5137 26.0155 20.4917 26.1148 20.4899 26.2155C20.4881 26.3162 20.5066 26.4162 20.5444 26.5096C20.5821 26.603 20.6382 26.6878 20.7095 26.759C20.7807 26.8303 20.8656 26.8864 20.959 26.9241C21.0524 26.9618 21.1524 26.9804 21.2532 26.9786C21.3539 26.9768 21.4532 26.9548 21.5452 26.9138C21.6373 26.8728 21.7201 26.8137 21.7888 26.74L25.2596 23.27L28.7204 26.74C28.861 26.8804 29.0517 26.9593 29.2505 26.9593C29.4493 26.9593 29.64 26.8804 29.7806 26.74C29.9211 26.5994 30 26.4088 30 26.21C30 26.0112 29.9211 25.8206 29.7806 25.68L25.7897 21.68Z" fill="black"/>
<path d="M21.7888 20.64L25.2596 17.17L28.7204 20.64C28.8635 20.7758 29.0532 20.8514 29.2505 20.8514C29.4478 20.8514 29.6375 20.7758 29.7806 20.64C29.9193 20.4964 29.9969 20.3046 29.9969 20.105C29.9969 19.9054 29.9193 19.7136 29.7806 19.57L25.7797 15.57C25.6379 15.4311 25.448 15.3523 25.2496 15.35C25.0507 15.3502 24.86 15.4293 24.7194 15.57L20.7185 19.57C20.5798 19.7136 20.5022 19.9054 20.5022 20.105C20.5022 20.3046 20.5798 20.4964 20.7185 20.64C20.7883 20.7111 20.8716 20.7675 20.9635 20.806C21.0554 20.8445 21.154 20.8644 21.2536 20.8644C21.3533 20.8644 21.4519 20.8445 21.5438 20.806C21.6357 20.7675 21.7189 20.7111 21.7888 20.64Z" fill="black"/>
<path d="M17.2377 13.31H14.8972V6.75C14.8972 6.55109 14.8181 6.36032 14.6775 6.21967C14.5368 6.07902 14.346 6 14.147 6C13.948 6 13.7572 6.07902 13.6165 6.21967C13.4759 6.36032 13.3968 6.55109 13.3968 6.75V23.16C13.3968 23.3589 13.4759 23.5497 13.6165 23.6903C13.7572 23.831 13.948 23.91 14.147 23.91C14.346 23.91 14.5368 23.831 14.6775 23.6903C14.8181 23.5497 14.8972 23.3589 14.8972 23.16V14.81H17.2377C17.4367 14.81 17.6275 14.731 17.7682 14.5903C17.9089 14.4497 17.9879 14.2589 17.9879 14.06C17.9879 13.8611 17.9089 13.6703 17.7682 13.5297C17.6275 13.389 17.4367 13.31 17.2377 13.31Z" fill="black"/>
<path d="M9.68597 8H2.91441C2.71545 8 2.52464 8.07902 2.38395 8.21967C2.24327 8.36032 2.16423 8.55109 2.16423 8.75C2.16423 8.94891 2.24327 9.13968 2.38395 9.28033C2.52464 9.42098 2.71545 9.5 2.91441 9.5H8.91579C8.71575 12.34 7.34543 16 2.38428 18.75C2.21412 18.845 2.08765 19.0026 2.03164 19.1892C1.97563 19.3759 1.99449 19.577 2.08422 19.75C2.14981 19.8677 2.2455 19.9658 2.3615 20.0343C2.4775 20.1028 2.60963 20.1393 2.74437 20.14C2.87138 20.1409 2.99612 20.1063 3.10445 20.04C9.48592 16.52 10.4361 11.47 10.4361 8.78C10.4416 8.67866 10.4262 8.57728 10.3909 8.48215C10.3555 8.38701 10.301 8.30017 10.2306 8.22702C10.1602 8.15386 10.0756 8.09596 9.98189 8.0569C9.8882 8.01785 9.78747 7.99848 9.68597 8Z" fill="black"/>
</svg>
