<svg width="32" height="32" viewBox="0 0 32 32" fill="none" xmlns="http://www.w3.org/2000/svg">
<path d="M29.2211 28.5385H20.9823L28.3123 20.2597C28.7928 19.7128 29.0382 18.9977 28.9952 18.2703C28.9522 17.5428 28.6242 16.8618 28.0826 16.3756L24.7572 13.3724C24.211 12.8877 23.4955 12.6398 22.7673 12.6829C22.0392 12.7261 21.3578 13.0568 20.8724 13.6027L12.3141 23.2629C12.0738 23.5348 11.8893 23.8516 11.7712 24.1951C11.6532 24.5387 11.6039 24.9021 11.6261 25.2648C11.6484 25.6274 11.7418 25.9821 11.901 26.3085C12.0601 26.6349 12.282 26.9267 12.5538 27.167L15.6895 29.8198C15.8232 29.9345 15.9929 29.9982 16.1689 30H29.251C29.4497 30 29.6402 29.9209 29.7806 29.7801C29.9211 29.6393 30 29.4483 30 29.2492C30 29.0501 29.9211 28.8591 29.7806 28.7183C29.6402 28.5775 29.4497 28.4984 29.251 28.4984L29.2211 28.5385ZM21.9809 14.6338C22.0888 14.5097 22.2204 14.4086 22.3679 14.3364C22.5154 14.2642 22.6758 14.2223 22.8398 14.2133C23.1692 14.2009 23.4909 14.3155 23.7385 14.5337L27.064 17.5368C27.3109 17.7563 27.4611 18.0649 27.4817 18.395C27.5023 18.7252 27.3916 19.0501 27.1739 19.2987L23.8084 23.0226L18.6255 18.4178L21.9809 14.6338ZM18.985 28.5385H16.4085L13.5125 26.0258C13.3887 25.9177 13.2879 25.7858 13.2158 25.6379C13.1438 25.4901 13.102 25.3292 13.0931 25.1649C13.0829 25.0017 13.105 24.8381 13.1582 24.6835C13.2113 24.5288 13.2944 24.3863 13.4026 24.2639L17.6269 19.4989L22.8198 24.1238L18.985 28.5385Z" fill="black"/>
<path d="M12.3341 16.0152C12.4875 15.9044 12.5926 15.7388 12.6279 15.5526C12.6632 15.3664 12.626 15.1737 12.5238 15.0142L10.0472 11.3603C10.9049 10.73 11.5929 9.89603 12.0496 8.93328C12.5063 7.97054 12.7173 6.90917 12.6636 5.84448V2.84131C12.6636 2.64219 12.5847 2.45122 12.4443 2.31042C12.3038 2.16962 12.1133 2.09052 11.9147 2.09052C11.716 2.09052 11.5255 2.16962 11.3851 2.31042C11.2446 2.45122 11.1657 2.64219 11.1657 2.84131V5.84448C11.22 6.6695 11.0653 7.4949 10.7162 8.24396C10.367 8.99303 9.83457 9.64146 9.16841 10.129L3.79574 2.32076C3.73935 2.23991 3.66762 2.17099 3.58466 2.11793C3.50169 2.06486 3.40912 2.0287 3.31221 2.01151C3.1165 1.97677 2.91505 2.0214 2.75216 2.13556C2.58927 2.24973 2.4783 2.42408 2.44365 2.62026C2.40901 2.81644 2.45352 3.01839 2.56741 3.18167L4.78439 6.38505C3.88583 6.96166 3.15561 7.76651 2.66797 8.71776C2.18034 9.669 1.9527 10.7327 2.00818 11.8008V15.2744C2.01332 15.471 2.09419 15.6579 2.23382 15.7961C2.37346 15.9342 2.56101 16.0127 2.75715 16.0152C2.95499 16.0126 3.144 15.9327 3.2839 15.7925C3.42381 15.6522 3.50355 15.4628 3.50613 15.2644V11.8008C3.45139 10.9759 3.62018 10.1514 3.99463 9.41482C4.36908 8.6782 4.93526 8.05678 5.63323 7.61635L11.2955 15.805C11.3651 15.9047 11.4578 15.9859 11.5657 16.0417C11.6735 16.0975 11.7933 16.1262 11.9147 16.1253C12.0623 16.1315 12.2084 16.0931 12.3341 16.0152Z" fill="black"/>
</svg>
