<svg width="32" height="32" viewBox="0 0 32 32" fill="none" xmlns="http://www.w3.org/2000/svg">
<path d="M29.3065 10.8686C28.9088 10.4632 28.3777 10.2155 27.8115 10.1714C27.2452 10.1272 26.6822 10.2897 26.2265 10.6286L25.8965 10.8686C22.3183 13.4867 19.1646 16.6404 16.5465 20.2186L15.5465 21.5686C15.3816 21.5371 15.2143 21.5204 15.0465 21.5186C14.123 21.5149 13.2336 21.8671 12.5632 22.5022C11.8927 23.1373 11.4928 24.0063 11.4465 24.9286C11.2965 26.2186 9.75649 27.5186 9.17649 27.9286C9.06059 28.0042 8.96823 28.1109 8.9099 28.2364C8.85156 28.3619 8.8296 28.5012 8.84649 28.6386C8.86259 28.7758 8.91579 28.906 9.00036 29.0153C9.08493 29.1245 9.19768 29.2086 9.32649 29.2586C10.3437 29.6413 11.4197 29.8443 12.5065 29.8586C14.2904 29.8724 16.0078 29.1825 17.2865 27.9386C17.3954 27.8628 17.496 27.7757 17.5865 27.6786C17.9225 27.3464 18.1891 26.9509 18.3711 26.5149C18.5531 26.0788 18.6467 25.6111 18.6465 25.1386C18.6563 24.9687 18.6563 24.7985 18.6465 24.6286L19.9965 23.6286C23.5697 21.0086 26.7226 17.859 29.3465 14.2886L29.5865 13.9486C29.9204 13.4882 30.076 12.9224 30.0246 12.356C29.9731 11.7897 29.7179 11.2612 29.3065 10.8686ZM16.5365 26.6086L16.3365 26.7886C15.6653 27.4435 14.8389 27.9173 13.9347 28.1657C13.0305 28.414 12.078 28.4288 11.1665 28.2086C12.0982 27.3853 12.7253 26.2721 12.9465 25.0486C12.9708 24.5159 13.1959 24.0121 13.5765 23.6386C13.7713 23.4378 14.0045 23.2782 14.2621 23.1691C14.5198 23.0601 14.7967 23.004 15.0765 23.004C15.3563 23.004 15.6332 23.0601 15.8909 23.1691C16.1485 23.2782 16.3817 23.4378 16.5765 23.6386C16.7764 23.8291 16.9347 24.059 17.0414 24.3137C17.1481 24.5684 17.2009 24.8425 17.1965 25.1186C17.193 25.3987 17.1327 25.6752 17.0193 25.9313C16.9058 26.1874 16.7416 26.4178 16.5365 26.6086ZM19.0665 22.4186L18.1265 23.1086L17.0665 22.0486L17.7565 21.1086C17.9765 20.8086 18.2265 20.5186 18.4565 20.2186L19.9565 21.7186C19.6565 21.9486 19.3765 22.1986 19.0665 22.4186ZM28.3365 13.0686L28.0965 13.3986C26.0738 16.1357 23.7229 18.6142 21.0965 20.7786L19.3565 19.0386C21.5257 16.4166 24.0036 14.0663 26.7365 12.0386L27.0765 11.7886C27.2437 11.664 27.4505 11.6045 27.6584 11.6211C27.8663 11.6376 28.0611 11.7291 28.2065 11.8786C28.3763 12.0226 28.4845 12.2263 28.5087 12.4477C28.5329 12.6691 28.4712 12.8913 28.3365 13.0686Z" fill="black"/>
<path d="M8.92649 15.7586C8.83649 15.4286 8.76649 15.1286 8.68649 14.7586C8.86649 14.6186 9.04649 14.4986 9.22649 14.3386C10.7888 12.8359 11.9684 10.9808 12.6665 8.9286C13.451 9.08095 14.1518 9.51699 14.6351 10.1534C15.1184 10.7898 15.3503 11.582 15.2865 12.3786C15.1265 13.6886 14.2165 15.3786 10.8365 16.1886C10.741 16.2098 10.6508 16.2498 10.5709 16.3061C10.4909 16.3625 10.423 16.4341 10.3709 16.5168C10.3188 16.5996 10.2837 16.6918 10.2675 16.7883C10.2513 16.8847 10.2543 16.9834 10.2765 17.0786C10.3145 17.2445 10.4072 17.3928 10.5395 17.4998C10.6719 17.6067 10.8363 17.6662 11.0065 17.6686H11.1665C15.6165 16.6686 16.5865 14.0486 16.7765 12.5786C16.8739 11.4494 16.5618 10.3228 15.8971 9.4048C15.2325 8.48676 14.2597 7.83854 13.1565 7.5786C13.2265 7.3686 13.2865 7.1786 13.3365 6.9986C13.3647 6.90404 13.3741 6.80486 13.364 6.7067C13.3539 6.60854 13.3245 6.51333 13.2776 6.42651C13.2307 6.33968 13.1672 6.26295 13.0907 6.20068C13.0141 6.13841 12.926 6.09183 12.8315 6.0636C12.7369 6.03536 12.6377 6.02603 12.5396 6.03613C12.4414 6.04622 12.3462 6.07556 12.2594 6.12245C12.1726 6.16934 12.0958 6.23288 12.0336 6.30943C11.9713 6.38598 11.9247 6.47404 11.8965 6.5686C11.8365 6.7886 11.7465 7.0586 11.6465 7.3586C10.4379 7.32543 9.23111 7.47374 8.06649 7.7986C8.06649 7.1286 8.17649 6.4386 8.25649 5.7286C10.2894 5.62932 12.3155 5.42236 14.3265 5.1086C14.5141 5.06884 14.6794 4.95869 14.7884 4.80079C14.8973 4.64289 14.9416 4.44926 14.9122 4.25971C14.8827 4.07016 14.7817 3.8991 14.63 3.78171C14.4783 3.66432 14.2874 3.60953 14.0965 3.6286C12.0965 3.9286 10.2165 4.1286 8.44649 4.2186C8.50649 3.7386 8.57649 3.2186 8.65649 2.7386C8.6538 2.56189 8.5888 2.39181 8.47296 2.25836C8.35711 2.1249 8.19786 2.03664 8.02329 2.00914C7.84872 1.98164 7.67004 2.01666 7.51878 2.10804C7.36751 2.19942 7.25337 2.34128 7.19649 2.5086C7.10649 3.1086 7.01649 3.6886 6.94649 4.2586C5.74153 4.27543 4.53652 4.2287 3.33649 4.1186C3.1452 4.11037 2.95801 4.17562 2.81328 4.30097C2.66854 4.42632 2.57723 4.60228 2.55806 4.79278C2.53888 4.98328 2.59328 5.17391 2.71013 5.32559C2.82697 5.47727 2.9974 5.57852 3.18649 5.6086C4.18649 5.7086 5.24649 5.7586 6.37649 5.7586H6.76649C6.66649 6.6486 6.60649 7.4986 6.57649 8.3286C5.91606 8.59939 5.29408 8.95577 4.72649 9.3886C3.97617 9.96709 3.34903 10.6897 2.88193 11.514C2.41483 12.3383 2.11719 13.2476 2.00649 14.1886C1.98022 14.5458 2.03391 14.9044 2.16365 15.2382C2.29339 15.5721 2.49591 15.8728 2.75649 16.1186C3.84649 17.1186 5.40649 16.9586 7.37649 15.7386C7.37649 15.8786 7.44649 16.0186 7.48649 16.1586C7.52859 16.3171 7.62215 16.4571 7.75247 16.5567C7.8828 16.6562 8.0425 16.7097 8.20649 16.7086C8.2728 16.7183 8.34018 16.7183 8.40649 16.7086C8.50418 16.6823 8.59554 16.6364 8.67506 16.5739C8.75457 16.5113 8.82061 16.4333 8.86919 16.3445C8.91777 16.2558 8.94789 16.1581 8.95774 16.0574C8.96759 15.9567 8.95696 15.8551 8.92649 15.7586ZM3.75649 14.9986C3.65948 14.8974 3.5866 14.7756 3.54331 14.6422C3.50001 14.5089 3.48743 14.3675 3.50649 14.2286C3.7273 12.7729 4.50097 11.4583 5.66649 10.5586C5.94625 10.3434 6.24402 10.1527 6.55649 9.9886C6.57934 11.4026 6.72996 12.8117 7.00649 14.1986C5.84649 14.9986 4.48649 15.6486 3.75649 14.9986ZM8.34649 13.1586C8.12811 11.9035 8.01439 10.6325 8.00649 9.3586C9.01299 9.05618 10.0558 8.89136 11.1065 8.8686C10.5063 10.4807 9.56478 11.9441 8.34649 13.1586Z" fill="black"/>
</svg>
