<svg width="32" height="32" viewBox="0 0 32 32" fill="none" xmlns="http://www.w3.org/2000/svg">
<path d="M13.825 11.9231C13.905 11.6931 13.975 11.4631 14.035 11.2631C14.0689 11.1666 14.0828 11.0641 14.0756 10.962C14.0685 10.86 14.0406 10.7604 13.9935 10.6695C13.9465 10.5787 13.8814 10.4984 13.8021 10.4336C13.7229 10.3689 13.6313 10.321 13.5328 10.293C13.4344 10.265 13.3313 10.2574 13.2299 10.2707C13.1284 10.284 13.0307 10.3179 12.9429 10.3704C12.855 10.4229 12.7789 10.4928 12.719 10.5758C12.6592 10.6588 12.617 10.7532 12.595 10.8531C12.525 11.0931 12.435 11.3931 12.315 11.7231C10.9944 11.6877 9.67604 11.853 8.405 12.2131C8.405 11.4631 8.515 10.6831 8.605 9.88311C10.7919 9.78005 12.9717 9.55974 15.135 9.22311C15.2327 9.20858 15.3266 9.17462 15.411 9.12323C15.4954 9.07184 15.5686 9.00407 15.6264 8.92392C15.6842 8.84376 15.7254 8.75284 15.7474 8.65652C15.7695 8.5602 15.7721 8.46044 15.755 8.36311C15.7417 8.26579 15.7089 8.17214 15.6585 8.0878C15.6081 8.00346 15.5413 7.93014 15.4619 7.87225C15.3826 7.81436 15.2923 7.77309 15.1966 7.7509C15.1009 7.72871 15.0017 7.72606 14.905 7.74311C12.8808 8.06057 10.8413 8.27087 8.795 8.37311C8.865 7.85311 8.945 7.28311 9.005 6.71311C8.99653 6.54111 8.92912 6.37727 8.81411 6.2491C8.6991 6.12093 8.54348 6.03624 8.3734 6.00926C8.20332 5.98228 8.02913 6.01466 7.8801 6.10095C7.73107 6.18723 7.61628 6.32218 7.555 6.48311C7.445 7.15311 7.355 7.78311 7.275 8.40311C5.97011 8.42507 4.66497 8.37834 3.365 8.26311C3.26357 8.2466 3.15982 8.25111 3.06021 8.27636C2.96059 8.3016 2.86723 8.34706 2.78591 8.40989C2.70459 8.47272 2.63705 8.5516 2.58748 8.64162C2.53791 8.73164 2.50738 8.83089 2.49776 8.93321C2.48815 9.03552 2.49967 9.13872 2.5316 9.2364C2.56353 9.33408 2.61519 9.42416 2.68338 9.50104C2.75157 9.57792 2.83484 9.63997 2.92801 9.68333C3.02118 9.72669 3.12226 9.75045 3.225 9.75311C4.285 9.85311 5.425 9.90311 6.625 9.90311H7.095C7.005 10.8531 6.915 11.8531 6.885 12.7331C6.17076 13.0143 5.49797 13.3911 4.885 13.8531C4.08801 14.4716 3.42268 15.2431 2.9281 16.1224C2.43352 17.0016 2.11967 17.9708 2.005 18.9731C1.9818 19.3431 2.03957 19.7138 2.17428 20.0592C2.30899 20.4046 2.51741 20.7165 2.785 20.9731C3.945 21.9731 5.605 21.8531 7.725 20.5231C7.725 20.7031 7.805 20.8731 7.855 21.0431C7.90007 21.1999 7.99441 21.3381 8.12408 21.4371C8.25374 21.5362 8.41184 21.5909 8.575 21.5931H8.785C8.88028 21.5667 8.96931 21.5215 9.04683 21.4601C9.12435 21.3988 9.18878 21.3225 9.23632 21.2358C9.28386 21.1491 9.31355 21.0537 9.32363 20.9554C9.3337 20.857 9.32397 20.7576 9.295 20.6631C9.195 20.3131 9.125 19.9731 9.045 19.6631C9.235 19.5131 9.435 19.3731 9.635 19.1931C11.3064 17.5788 12.571 15.5911 13.325 13.3931C14.1755 13.5596 14.9354 14.0323 15.4607 14.7216C15.9859 15.4109 16.2401 16.2689 16.175 17.1331C15.995 18.5531 15.015 20.4231 11.375 21.2531C11.2796 21.2744 11.1893 21.3143 11.1094 21.3706C11.0294 21.427 10.9615 21.4986 10.9094 21.5813C10.8573 21.6641 10.8222 21.7564 10.806 21.8528C10.7898 21.9492 10.7928 22.0479 10.815 22.1431C10.853 22.309 10.9457 22.4573 11.078 22.5643C11.2104 22.6712 11.3748 22.7307 11.545 22.7331H11.705C16.435 21.6631 17.465 18.8931 17.705 17.3431C17.8379 16.1207 17.5157 14.8921 16.7999 13.8923C16.0841 12.8924 15.025 12.1914 13.825 11.9231ZM3.825 19.9231C3.71778 19.8093 3.63708 19.6732 3.58867 19.5245C3.54026 19.3758 3.52535 19.2182 3.545 19.0631C3.76854 17.4787 4.60076 16.0439 5.865 15.0631C6.17829 14.8142 6.51292 14.5933 6.865 14.4031C6.88957 15.9519 7.05695 17.4951 7.365 19.0131C6.085 19.8531 4.595 20.6031 3.785 19.8531L3.825 19.9231ZM8.735 18.0231C8.49729 16.636 8.38351 15.2304 8.395 13.8231C9.4957 13.4734 10.6404 13.2815 11.795 13.2531C11.1287 15.039 10.0692 16.6521 8.695 17.9731L8.735 18.0231Z" fill="black"/>
<path d="M25.795 20.7531C25.6514 20.6144 25.4596 20.5369 25.26 20.5369C25.0604 20.5369 24.8686 20.6144 24.725 20.7531L20.725 24.7531C20.6528 24.8234 20.5951 24.9072 20.5552 24.9997C20.5154 25.0923 20.4942 25.1918 20.4928 25.2925C20.4914 25.3933 20.5099 25.4933 20.5471 25.5869C20.5844 25.6805 20.6397 25.7659 20.71 25.8381C20.7803 25.9103 20.864 25.968 20.9566 26.0079C21.0491 26.0477 21.1486 26.0689 21.2494 26.0703C21.3501 26.0717 21.4502 26.0533 21.5438 26.016C21.6374 25.9787 21.7228 25.9234 21.795 25.8531L25.265 22.3831L28.725 25.8531C28.8656 25.9936 29.0562 26.0725 29.255 26.0725C29.4537 26.0725 29.6444 25.9936 29.785 25.8531C29.9254 25.7125 30.0043 25.5219 30.0043 25.3231C30.0043 25.1244 29.9254 24.9337 29.785 24.7931L25.795 20.7531Z" fill="black"/>
<path d="M21.795 19.7131L25.265 16.2431L28.725 19.7131C28.8656 19.8536 29.0562 19.9325 29.255 19.9325C29.4537 19.9325 29.6444 19.8536 29.785 19.7131C29.9237 19.5695 30.0012 19.3777 30.0012 19.1781C30.0012 18.9785 29.9237 18.7867 29.785 18.6431L25.785 14.6431C25.6414 14.5044 25.4496 14.4269 25.25 14.4269C25.0504 14.4269 24.8586 14.5044 24.715 14.6431L20.715 18.6431C20.5763 18.7867 20.4988 18.9785 20.4988 19.1781C20.4988 19.3777 20.5763 19.5695 20.715 19.7131C20.785 19.7857 20.8688 19.8434 20.9616 19.8829C21.0544 19.9223 21.1542 19.9426 21.255 19.9426C21.3558 19.9426 21.4556 19.9223 21.5484 19.8829C21.6412 19.8434 21.725 19.7857 21.795 19.7131Z" fill="black"/>
</svg>
