<svg width="32" height="32" viewBox="0 0 32 32" fill="none" xmlns="http://www.w3.org/2000/svg">
<path d="M28.0187 9.8238V6.8238C28.0187 6.62489 27.9397 6.43412 27.799 6.29347C27.6584 6.15282 27.4676 6.0738 27.2687 6.0738C27.0698 6.0738 26.879 6.15282 26.7384 6.29347C26.5977 6.43412 26.5187 6.62489 26.5187 6.8238V9.8238C26.5712 10.6477 26.4155 11.4716 26.066 12.2196C25.7165 12.9675 25.1844 13.6155 24.5187 14.1038L19.1387 6.3038C19.0265 6.15216 18.8612 6.0484 18.6759 6.01318C18.4905 5.97797 18.2987 6.0139 18.1387 6.1138C17.989 6.22746 17.8867 6.3926 17.8516 6.57729C17.8165 6.76199 17.8511 6.95313 17.9487 7.1138L20.1687 10.3138C19.2711 10.892 18.5416 11.6965 18.0536 12.6462C17.5655 13.5959 17.3362 14.6573 17.3887 15.7238V19.1938C17.3887 19.3927 17.4677 19.5835 17.6084 19.7241C17.749 19.8648 17.9398 19.9438 18.1387 19.9438C18.3376 19.9438 18.5284 19.8648 18.669 19.7241C18.8097 19.5835 18.8887 19.3927 18.8887 19.1938V15.7738C18.8328 14.9496 19.0013 14.1257 19.3764 13.3896C19.7515 12.6536 20.319 12.033 21.0187 11.5938L26.6787 19.7738C26.7345 19.8552 26.8058 19.9248 26.8885 19.9787C26.9713 20.0326 27.0638 20.0696 27.1608 20.0877C27.2579 20.1058 27.3575 20.1047 27.4541 20.0842C27.5507 20.0638 27.6423 20.0246 27.7237 19.9688C27.8051 19.913 27.8748 19.8417 27.9286 19.759C27.9825 19.6762 28.0195 19.5837 28.0376 19.4867C28.0557 19.3896 28.0546 19.29 28.0342 19.1934C28.0138 19.0968 27.9745 19.0052 27.9187 18.9238L25.3987 15.3338C26.2589 14.7054 26.9489 13.8725 27.4063 12.9105C27.8638 11.9485 28.0742 10.8876 28.0187 9.8238Z" fill="black"/>
<path d="M11.2287 13.6638L7.75871 17.1238L4.29871 13.6638C4.15653 13.5313 3.96849 13.4592 3.77419 13.4626C3.57988 13.4661 3.3945 13.5448 3.25709 13.6822C3.11967 13.8196 3.04096 14.005 3.03753 14.1993C3.03411 14.3936 3.10623 14.5816 3.23871 14.7238L7.23871 18.7238C7.30795 18.7939 7.3905 18.8495 7.48151 18.8873C7.57253 18.925 7.67017 18.9443 7.76871 18.9438C7.8675 18.946 7.96566 18.9276 8.05692 18.8897C8.14819 18.8518 8.23054 18.7953 8.29871 18.7238L12.2987 14.7238C12.4393 14.5819 12.5177 14.39 12.5168 14.1903C12.5158 13.9905 12.4356 13.7994 12.2937 13.6588C12.1518 13.5182 11.9599 13.4398 11.7602 13.4407C11.5604 13.4417 11.3693 13.5219 11.2287 13.6638Z" fill="black"/>
<path d="M11.2287 19.7638L7.75871 23.2338L4.29871 19.7638C4.23005 19.6901 4.14725 19.631 4.05525 19.59C3.96325 19.549 3.86393 19.527 3.76323 19.5252C3.66253 19.5234 3.5625 19.542 3.46911 19.5797C3.37572 19.6174 3.29089 19.6735 3.21967 19.7448C3.14845 19.816 3.09231 19.9008 3.05459 19.9942C3.01686 20.0876 2.99834 20.1876 3.00012 20.2883C3.00189 20.389 3.02394 20.4883 3.06493 20.5803C3.10592 20.6723 3.16502 20.7551 3.23871 20.8238L7.23871 24.8238C7.38155 24.961 7.57071 25.0395 7.76871 25.0438C7.96755 25.0436 8.15819 24.9645 8.29871 24.8238L12.2987 20.8238C12.3724 20.7551 12.4315 20.6723 12.4725 20.5803C12.5135 20.4883 12.5355 20.389 12.5373 20.2883C12.5391 20.1876 12.5206 20.0876 12.4828 19.9942C12.4451 19.9008 12.389 19.816 12.3177 19.7448C12.2465 19.6735 12.1617 19.6174 12.0683 19.5797C11.9749 19.542 11.8749 19.5234 11.7742 19.5252C11.6735 19.527 11.5742 19.549 11.4822 19.59C11.3902 19.631 11.3074 19.6901 11.2387 19.7638H11.2287Z" fill="black"/>
</svg>
