<svg width="32" height="32" viewBox="0 0 32 32" fill="none" xmlns="http://www.w3.org/2000/svg">
<path fill-rule="evenodd" clip-rule="evenodd" d="M2.22046 2.22046C2.5144 1.92651 2.99098 1.92651 3.28492 2.22046L10.129 9.06457V2.75269C10.129 2.33699 10.466 2 10.8817 2C11.2974 2 11.6344 2.33699 11.6344 2.75269V10.8817C11.6344 11.2974 11.2974 11.6344 10.8817 11.6344H2.75269C2.33699 11.6344 2 11.2974 2 10.8817C2 10.466 2.33699 10.129 2.75269 10.129H9.06457L2.22046 3.28492C1.92651 2.99098 1.92651 2.5144 2.22046 2.22046ZM21.1183 2C21.534 2 21.871 2.33699 21.871 2.75269V9.06457L28.7151 2.22046C29.009 1.92651 29.4856 1.92651 29.7795 2.22046C30.0735 2.5144 30.0735 2.99098 29.7795 3.28492L22.9354 10.129H29.2473C29.663 10.129 30 10.466 30 10.8817C30 11.2974 29.663 11.6344 29.2473 11.6344H21.1183C20.7026 11.6344 20.3656 11.2974 20.3656 10.8817V2.75269C20.3656 2.33699 20.7026 2 21.1183 2ZM2.75269 21.871C2.33699 21.871 2 21.534 2 21.1183C2 20.7026 2.33699 20.3656 2.75269 20.3656H10.8817C11.2974 20.3656 11.6344 20.7026 11.6344 21.1183V29.2473C11.6344 29.663 11.2974 30 10.8817 30C10.466 30 10.129 29.663 10.129 29.2473V22.9354L3.28492 29.7795C2.99098 30.0735 2.5144 30.0735 2.22046 29.7795C1.92651 29.4856 1.92651 29.009 2.22046 28.7151L9.06457 21.871H2.75269ZM20.3656 21.1183C20.3656 20.7026 20.7026 20.3656 21.1183 20.3656H29.2473C29.663 20.3656 30 20.7026 30 21.1183C30 21.534 29.663 21.871 29.2473 21.871H22.9354L29.7795 28.7151C30.0735 29.009 30.0735 29.4856 29.7795 29.7795C29.4856 30.0735 29.009 30.0735 28.7151 29.7795L21.871 22.9354V29.2473C21.871 29.663 21.534 30 21.1183 30C20.7026 30 20.3656 29.663 20.3656 29.2473V21.1183Z" fill="black"/>
</svg>
