<svg width="32" height="32" viewBox="0 0 32 32" fill="none" xmlns="http://www.w3.org/2000/svg">
<path fill-rule="evenodd" clip-rule="evenodd" d="M2 2.75269C2 2.33699 2.33699 2 2.75269 2H10.8817C11.2974 2 11.6344 2.33699 11.6344 2.75269C11.6344 3.16839 11.2974 3.50538 10.8817 3.50538H3.50538V10.8817C3.50538 11.2974 3.16839 11.6344 2.75269 11.6344C2.33699 11.6344 2 11.2974 2 10.8817V2.75269Z" fill="black"/>
<path fill-rule="evenodd" clip-rule="evenodd" d="M2.22046 2.22046C2.5144 1.92651 2.99098 1.92651 3.28492 2.22046L11.4139 10.3495C11.7079 10.6434 11.7079 11.12 11.4139 11.4139C11.12 11.7079 10.6434 11.7079 10.3495 11.4139L2.22046 3.28492C1.92651 2.99098 1.92651 2.5144 2.22046 2.22046Z" fill="black"/>
<path fill-rule="evenodd" clip-rule="evenodd" d="M20.3656 2.75269C20.3656 2.33699 20.7026 2 21.1183 2H29.2473C29.663 2 30 2.33699 30 2.75269V10.8817C30 11.2974 29.663 11.6344 29.2473 11.6344C28.8316 11.6344 28.4946 11.2974 28.4946 10.8817V3.50538H21.1183C20.7026 3.50538 20.3656 3.16839 20.3656 2.75269Z" fill="black"/>
<path fill-rule="evenodd" clip-rule="evenodd" d="M29.7795 2.22046C30.0735 2.5144 30.0735 2.99098 29.7795 3.28492L21.6505 11.4139C21.3566 11.7079 20.88 11.7079 20.586 11.4139C20.2921 11.12 20.2921 10.6434 20.586 10.3495L28.7151 2.22046C29.009 1.92651 29.4856 1.92651 29.7795 2.22046Z" fill="black"/>
<path fill-rule="evenodd" clip-rule="evenodd" d="M29.2473 20.3656C29.663 20.3656 30 20.7026 30 21.1183V29.2473C30 29.663 29.663 30 29.2473 30H21.1183C20.7026 30 20.3656 29.663 20.3656 29.2473C20.3656 28.8316 20.7026 28.4946 21.1183 28.4946H28.4946V21.1183C28.4946 20.7026 28.8316 20.3656 29.2473 20.3656Z" fill="black"/>
<path fill-rule="evenodd" clip-rule="evenodd" d="M20.586 20.586C20.88 20.2921 21.3566 20.2921 21.6505 20.586L29.7795 28.7151C30.0735 29.009 30.0735 29.4856 29.7795 29.7795C29.4856 30.0735 29.009 30.0735 28.7151 29.7795L20.586 21.6505C20.2921 21.3566 20.2921 20.88 20.586 20.586Z" fill="black"/>
<path fill-rule="evenodd" clip-rule="evenodd" d="M2.75269 20.3656C3.16839 20.3656 3.50538 20.7026 3.50538 21.1183V28.4946H10.8817C11.2974 28.4946 11.6344 28.8316 11.6344 29.2473C11.6344 29.663 11.2974 30 10.8817 30H2.75269C2.33699 30 2 29.663 2 29.2473V21.1183C2 20.7026 2.33699 20.3656 2.75269 20.3656Z" fill="black"/>
<path fill-rule="evenodd" clip-rule="evenodd" d="M11.4139 20.586C11.7079 20.88 11.7079 21.3566 11.4139 21.6505L3.28492 29.7795C2.99098 30.0735 2.5144 30.0735 2.22046 29.7795C1.92651 29.4856 1.92651 29.009 2.22046 28.7151L10.3495 20.586C10.6434 20.2921 11.12 20.2921 11.4139 20.586Z" fill="black"/>
</svg>
