<svg width="32" height="32" viewBox="0 0 32 32" fill="none" xmlns="http://www.w3.org/2000/svg">
<path fill-rule="evenodd" clip-rule="evenodd" d="M2.75 2C3.16421 2 3.5 2.33579 3.5 2.75V15.2H12.2V2.75C12.2 2.33579 12.5358 2 12.95 2C13.3642 2 13.7 2.33579 13.7 2.75V29.15C13.7 29.5642 13.3642 29.9 12.95 29.9C12.5358 29.9 12.2 29.5642 12.2 29.15V16.7H3.5V29.15C3.5 29.5642 3.16421 29.9 2.75 29.9C2.33579 29.9 2 29.5642 2 29.15V2.75C2 2.33579 2.33579 2 2.75 2ZM22.85 3.5C20.0559 3.5 17.7 5.77246 17.7 8.65C17.7 9.06421 17.3642 9.4 16.95 9.4C16.5358 9.4 16.2 9.06421 16.2 8.65C16.2 4.92754 19.2441 2 22.85 2C26.5725 2 29.5 5.04408 29.5 8.65C29.5 9.87725 29.1672 11.1214 28.4807 12.1559L18.5963 28.0309C18.5439 28.1295 18.5475 28.2444 18.6044 28.346C18.6621 28.4492 18.7516 28.5 18.85 28.5H28.85C29.2642 28.5 29.6 28.8358 29.6 29.25C29.6 29.6642 29.2642 30 28.85 30H18.85C17.4437 30 16.6283 28.4512 17.2988 27.2779C17.3012 27.2737 17.3036 27.2696 17.3061 27.2655C17.3084 27.2615 17.3109 27.2575 17.3133 27.2536L27.2133 11.3536C27.2174 11.347 27.2216 11.3404 27.226 11.334C27.735 10.5705 28 9.61876 28 8.65C28 5.85592 25.7275 3.5 22.85 3.5Z" fill="black"/>
</svg>
