<svg width="32" height="32" viewBox="0 0 32 32" fill="none" xmlns="http://www.w3.org/2000/svg">
<path fill-rule="evenodd" clip-rule="evenodd" d="M6.68327 12.5125C6.68327 7.54441 10.733 3.49466 15.7011 3.49466C20.6691 3.49466 24.7189 7.54441 24.7189 12.5125V12.9299C23.5366 12.8433 22.5267 13.8763 22.5267 15.0036V21.879C22.5267 21.91 22.5286 21.941 22.5325 21.9717C22.6045 22.5478 22.89 23.091 23.3192 23.4643C23.6853 23.7826 24.1757 23.9896 24.7189 23.9521V24.1708C24.7189 25.6513 23.5588 26.8114 22.0783 26.8114H19.0138C18.6851 25.8465 17.7486 25.1174 16.6975 25.1174H14.8043C14.127 25.1174 13.5073 25.3575 13.0552 25.8096C12.6031 26.2617 12.363 26.8815 12.363 27.5587C12.363 28.8683 13.4947 30 14.8043 30H16.6975C17.7486 30 18.6851 29.2709 19.0138 28.3061H22.0783C24.3843 28.3061 26.2135 26.4768 26.2135 24.1708V23.686C27.9755 23.2863 29.4021 21.7341 29.4021 19.7865V17.0961C29.4021 15.169 28.091 13.5978 26.2135 13.1953V12.5125C26.2135 6.71893 21.4946 2 15.7011 2C9.90754 2 5.18861 6.71893 5.18861 12.5125V13.1953C3.31109 13.5977 2 15.169 2 17.0961V19.7865C2 21.7717 3.48233 23.3463 5.29114 23.708L6.37892 23.9058C7.68677 24.214 8.87544 23.102 8.87544 21.879V15.0036C8.87544 13.8763 7.86554 12.8433 6.68327 12.9299V12.5125ZM24.7346 14.4435L25.8267 14.642L25.8287 14.6424C27.0793 14.8778 27.9075 15.8731 27.9075 17.0961V19.7865C27.9075 20.9878 27.0014 22.0027 25.8238 22.2411L24.7346 22.4391C24.7187 22.442 24.7028 22.4454 24.6871 22.4494C24.5631 22.4803 24.4339 22.4529 24.3 22.3364C24.1648 22.2188 24.0567 22.0312 24.0214 21.8252V15.0036C24.0214 14.8542 24.0999 14.682 24.2507 14.5563C24.3981 14.4334 24.5572 14.4007 24.6871 14.4332C24.7028 14.4371 24.7187 14.4406 24.7346 14.4435ZM3.49466 17.0961C3.49466 15.873 4.32283 14.8777 5.5735 14.6424L5.57545 14.642L6.66749 14.4435C6.68346 14.4406 6.69932 14.4371 6.71506 14.4332C6.8449 14.4007 7.00401 14.4334 7.15146 14.5563C7.30226 14.682 7.38078 14.8542 7.38078 15.0036V21.879C7.38078 22.0284 7.30226 22.2006 7.15146 22.3262C7.00401 22.4491 6.8449 22.4818 6.71506 22.4494C6.69932 22.4454 6.68346 22.442 6.66749 22.4391L5.57829 22.2411C4.40069 22.0027 3.49466 20.9878 3.49466 19.7865V17.0961ZM13.8577 27.5587C13.8577 27.2395 13.9663 27.0123 14.1121 26.8665C14.2578 26.7208 14.4851 26.6121 14.8043 26.6121H16.6975C17.1816 26.6121 17.6441 27.0747 17.6441 27.5587C17.6441 28.0428 17.1816 28.5053 16.6975 28.5053H14.8043C14.3202 28.5053 13.8577 28.0428 13.8577 27.5587ZM15 21.3517V15.9417L12.65 18.2517C12.5094 18.3921 12.3188 18.471 12.12 18.471C11.9213 18.471 11.7306 18.3921 11.59 18.2517C11.5193 18.1827 11.463 18.1003 11.4246 18.0093C11.3862 17.9183 11.3665 17.8205 11.3665 17.7217C11.3665 17.6229 11.3862 17.5251 11.4246 17.4341C11.463 17.343 11.5193 17.2606 11.59 17.1917L14.7 14.1817L11.64 11.1117C11.5693 11.0427 11.513 10.9603 11.4746 10.8693C11.4362 10.7783 11.4165 10.6805 11.4165 10.5817C11.4165 10.4829 11.4362 10.3851 11.4746 10.2941C11.513 10.203 11.5693 10.1206 11.64 10.0517C11.7807 9.91122 11.9713 9.83233 12.17 9.83234C12.3688 9.83233 12.5594 9.91122 12.7 10.0517L15 12.3617L14.93 6.89167C14.9302 6.74343 14.9742 6.59856 15.0566 6.47534C15.1391 6.35213 15.2561 6.2561 15.3931 6.19939C15.5301 6.14268 15.6808 6.12782 15.8262 6.15671C15.9716 6.18559 16.1051 6.25692 16.21 6.36167L19.84 10.0017C19.9805 10.1423 20.0594 10.3329 20.0594 10.5317C20.0594 10.7304 19.9805 10.921 19.84 11.0617L16.84 14.1317L19.91 17.1917C20.0505 17.3323 20.1294 17.5229 20.1294 17.7217C20.1294 17.9204 20.0505 18.111 19.91 18.2517L16.28 21.8817C16.2111 21.9522 16.1286 22.0081 16.0375 22.0459C15.9465 22.0837 15.8486 22.1027 15.75 22.1017C15.6502 22.102 15.5515 22.0816 15.46 22.0417C15.3232 21.9858 15.2063 21.8901 15.1243 21.7672C15.0423 21.6442 14.999 21.4995 15 21.3517ZM16.45 12.3617L18.3 10.5317L16.45 8.72167V12.3617ZM18.3 17.7217L16.5 15.9317L16.49 19.5317L18.3 17.7217Z" fill="black"/>
</svg>
