<svg width="32" height="32" viewBox="0 0 32 32" fill="none" xmlns="http://www.w3.org/2000/svg">
<path fill-rule="evenodd" clip-rule="evenodd" d="M15.7011 3.49466C10.733 3.49466 6.68327 7.54441 6.68327 12.5125V12.9299C7.86554 12.8433 8.87544 13.8763 8.87544 15.0036V21.879C8.87544 23.102 7.68677 24.214 6.37892 23.9058L5.29114 23.708C3.48233 23.3463 2 21.7717 2 19.7865V17.0961C2 15.169 3.31109 13.5977 5.18861 13.1953V12.5125C5.18861 6.71893 9.90754 2 15.7011 2C21.4946 2 26.2135 6.71893 26.2135 12.5125V13.1953C28.091 13.5978 29.4021 15.169 29.4021 17.0961V19.7865C29.4021 21.7341 27.9755 23.2863 26.2135 23.686V24.1708C26.2135 26.4768 24.3843 28.3061 22.0783 28.3061H19.0138C18.6851 29.2709 17.7486 30 16.6975 30H14.8043C13.4947 30 12.363 28.8683 12.363 27.5587C12.363 26.8815 12.6031 26.2617 13.0552 25.8096C13.5073 25.3575 14.127 25.1174 14.8043 25.1174H16.6975C17.7486 25.1174 18.6851 25.8465 19.0138 26.8114H22.0783C23.5588 26.8114 24.7189 25.6513 24.7189 24.1708V23.9521C24.1757 23.9896 23.6853 23.7826 23.3192 23.4643C22.89 23.091 22.6045 22.5478 22.5325 21.9717C22.5286 21.941 22.5267 21.91 22.5267 21.879V15.0036C22.5267 13.8763 23.5366 12.8433 24.7189 12.9299V12.5125C24.7189 7.54441 20.6691 3.49466 15.7011 3.49466ZM25.8267 14.642L24.7346 14.4435C24.7187 14.4406 24.7028 14.4371 24.6871 14.4332C24.5572 14.4007 24.3981 14.4334 24.2507 14.5563C24.0999 14.682 24.0214 14.8542 24.0214 15.0036V21.8252C24.0567 22.0312 24.1648 22.2188 24.3 22.3364C24.4339 22.4529 24.5631 22.4803 24.6871 22.4494C24.7028 22.4454 24.7187 22.442 24.7346 22.4391L25.8238 22.2411C27.0014 22.0027 27.9075 20.9878 27.9075 19.7865V17.0961C27.9075 15.8731 27.0793 14.8778 25.8287 14.6424C25.828 14.6423 25.8274 14.6421 25.8267 14.642ZM5.5735 14.6424C4.32283 14.8777 3.49466 15.873 3.49466 17.0961V19.7865C3.49466 20.9878 4.40069 22.0027 5.57829 22.2411L6.66749 22.4391C6.68346 22.442 6.69932 22.4454 6.71506 22.4494C6.8449 22.4818 7.00401 22.4491 7.15146 22.3262C7.30226 22.2006 7.38078 22.0284 7.38078 21.879V15.0036C7.38078 14.8542 7.30226 14.682 7.15146 14.5563C7.00401 14.4334 6.8449 14.4007 6.71506 14.4332C6.69932 14.4371 6.68346 14.4406 6.66749 14.4435L5.57545 14.642C5.5748 14.6421 5.57415 14.6422 5.5735 14.6424ZM14.1121 26.8665C13.9663 27.0123 13.8577 27.2395 13.8577 27.5587C13.8577 28.0428 14.3202 28.5053 14.8043 28.5053H16.6975C17.1816 28.5053 17.6441 28.0428 17.6441 27.5587C17.6441 27.0747 17.1816 26.6121 16.6975 26.6121H14.8043C14.4851 26.6121 14.2578 26.7208 14.1121 26.8665Z" fill="black"/>
</svg>
