<svg width="32" height="32" viewBox="0 0 32 32" fill="none" xmlns="http://www.w3.org/2000/svg">
<path fill-rule="evenodd" clip-rule="evenodd" d="M14.3002 3.54993C9.90345 3.54993 6.06957 6.16875 4.38693 10.0014C4.22042 10.3807 3.77798 10.5532 3.39871 10.3867C3.01944 10.2201 2.84696 9.77771 3.01347 9.39843C4.93083 5.0311 9.29695 2.04993 14.3002 2.04993C21.1144 2.04993 26.6502 7.58571 26.6502 14.3999C26.6502 21.2141 21.1144 26.7499 14.3002 26.7499C8.65244 26.7499 3.86746 22.9154 2.37906 17.706C2.26527 17.3077 2.49588 16.8926 2.89416 16.7788C3.29244 16.665 3.70755 16.8956 3.82134 17.2939C5.13294 21.8845 9.34796 25.2499 14.3002 25.2499C20.286 25.2499 25.1502 20.3857 25.1502 14.3999C25.1502 8.41414 20.286 3.54993 14.3002 3.54993Z" fill="black"/>
<path fill-rule="evenodd" clip-rule="evenodd" d="M2.8002 4.34993C3.21441 4.34993 3.5502 4.68571 3.5502 5.09993V9.34993H7.8002C8.21442 9.34993 8.5502 9.68571 8.5502 10.0999C8.5502 10.5141 8.21442 10.8499 7.8002 10.8499H2.8002C2.38599 10.8499 2.0502 10.5141 2.0502 10.0999V5.09993C2.0502 4.68571 2.38599 4.34993 2.8002 4.34993Z" fill="black"/>
<path fill-rule="evenodd" clip-rule="evenodd" d="M22.0699 22.0696C22.3628 21.7767 22.8376 21.7767 23.1305 22.0696L29.7305 28.6696C30.0234 28.9625 30.0234 29.4374 29.7305 29.7303C29.4376 30.0232 28.9628 30.0232 28.6699 29.7303L22.0699 23.1303C21.777 22.8374 21.777 22.3625 22.0699 22.0696Z" fill="black"/>
<path fill-rule="evenodd" clip-rule="evenodd" d="M14.3002 6.84993C14.7144 6.84993 15.0502 7.18571 15.0502 7.59993V13.785L20.0254 18.6645C20.3211 18.9545 20.3257 19.4294 20.0357 19.7251C19.7456 20.0208 19.2708 20.0254 18.975 19.7354L13.775 14.6354C13.6312 14.4943 13.5502 14.3014 13.5502 14.0999V7.59993C13.5502 7.18571 13.886 6.84993 14.3002 6.84993Z" fill="black"/>
</svg>
