<svg width="32" height="32" viewBox="0 0 32 32" fill="none" xmlns="http://www.w3.org/2000/svg">
<path d="M16 2C10.7 2 5.9 5 3.5 9.7V5.4C3.5 5 3.2 4.6 2.7 4.6C2.2 4.6 2 5 2 5.4V11.2C2 11.6 2.3 12 2.8 12H8.6C9 12 9.4 11.7 9.4 11.2C9.4 10.7 8.9 10.4 8.5 10.4H4.8C6.9 6.2 11.3 3.5 16 3.5C22.9 3.5 28.5 9.1 28.5 16C28.5 22.9 22.9 28.5 16 28.5C10.1 28.5 4.9 24.3 3.8 18.5C3.7 18.1 3.3 17.8 2.9 17.9C2.5 18 2.2 18.4 2.3 18.8C3.6 25.3 9.4 30 16 30C23.7 30 30 23.7 30 16C30 8.3 23.7 2 16 2Z" fill="black"/>
<path d="M16 7.1C15.6 7.1 15.2 7.4 15.2 7.9V16C15.2 16.2 15.3 16.4 15.4 16.5L21.2 22.3C21.3 22.4 21.5 22.5 21.7 22.5C21.9 22.5 22.1 22.4 22.2 22.3C22.5 22 22.5 21.5 22.2 21.2L16.7 15.7V7.8C16.8 7.4 16.4 7.1 16 7.1Z" fill="black"/>
</svg>
