<svg width="32" height="32" viewBox="0 0 32 32" fill="none" xmlns="http://www.w3.org/2000/svg">
<path fill-rule="evenodd" clip-rule="evenodd" d="M15.8 9.05005C12.1143 9.05005 9.05005 12.1143 9.05005 15.8C9.05005 18.6598 10.9304 21.1026 13.4743 22.102C13.7613 22.2147 13.95 22.4917 13.95 22.8V25.35H17.75V22.8C17.75 22.4917 17.9388 22.2147 18.2258 22.102C20.7538 21.1088 22.55 18.6759 22.55 15.8C22.55 12.1077 19.5793 9.05005 15.8 9.05005ZM7.55005 15.8C7.55005 11.2858 11.2858 7.55005 15.8 7.55005C20.4208 7.55005 24.05 11.2924 24.05 15.8C24.05 19.1395 22.0713 21.9786 19.25 23.294V26.1C19.25 26.5143 18.9143 26.85 18.5 26.85H13.2C12.7858 26.85 12.45 26.5143 12.45 26.1V23.2943C9.63213 21.9849 7.55005 19.1541 7.55005 15.8Z" fill="black"/>
<path fill-rule="evenodd" clip-rule="evenodd" d="M15.8 2.05005C16.2143 2.05005 16.55 2.38584 16.55 2.80005V5.30005C16.55 5.71426 16.2143 6.05005 15.8 6.05005C15.3858 6.05005 15.05 5.71426 15.05 5.30005V2.80005C15.05 2.38584 15.3858 2.05005 15.8 2.05005Z" fill="black"/>
<path fill-rule="evenodd" clip-rule="evenodd" d="M25.6304 6.06972C25.9233 6.36261 25.9233 6.83749 25.6304 7.13038L23.8304 8.93038C23.5375 9.22327 23.0626 9.22327 22.7697 8.93038C22.4768 8.63749 22.4768 8.16261 22.7697 7.86972L24.5697 6.06972C24.8626 5.77683 25.3375 5.77683 25.6304 6.06972Z" fill="black"/>
<path fill-rule="evenodd" clip-rule="evenodd" d="M25.65 15.8C25.65 15.3858 25.9858 15.05 26.4 15.05H28.9C29.3143 15.05 29.65 15.3858 29.65 15.8C29.65 16.2143 29.3143 16.55 28.9 16.55H26.4C25.9858 16.55 25.65 16.2143 25.65 15.8Z" fill="black"/>
<path fill-rule="evenodd" clip-rule="evenodd" d="M22.7697 22.7697C23.0626 22.4768 23.5375 22.4768 23.8304 22.7697L25.6304 24.5697C25.9233 24.8626 25.9233 25.3375 25.6304 25.6304C25.3375 25.9233 24.8626 25.9233 24.5697 25.6304L22.7697 23.8304C22.4768 23.5375 22.4768 23.0626 22.7697 22.7697Z" fill="black"/>
<path fill-rule="evenodd" clip-rule="evenodd" d="M6.06972 6.06972C6.36261 5.77683 6.83749 5.77683 7.13038 6.06972L8.93038 7.86972C9.22327 8.16261 9.22327 8.63749 8.93038 8.93038C8.63749 9.22327 8.16261 9.22327 7.86972 8.93038L6.06972 7.13038C5.77683 6.83749 5.77683 6.36261 6.06972 6.06972Z" fill="black"/>
<path fill-rule="evenodd" clip-rule="evenodd" d="M2.05005 15.8C2.05005 15.3858 2.38584 15.05 2.80005 15.05H5.30005C5.71426 15.05 6.05005 15.3858 6.05005 15.8C6.05005 16.2143 5.71426 16.55 5.30005 16.55H2.80005C2.38584 16.55 2.05005 16.2143 2.05005 15.8Z" fill="black"/>
<path fill-rule="evenodd" clip-rule="evenodd" d="M8.93038 22.7697C9.22327 23.0626 9.22327 23.5375 8.93038 23.8304L7.13038 25.6304C6.83749 25.9233 6.36261 25.9233 6.06972 25.6304C5.77683 25.3375 5.77683 24.8626 6.06972 24.5697L7.86972 22.7697C8.16261 22.4768 8.63749 22.4768 8.93038 22.7697Z" fill="black"/>
<path fill-rule="evenodd" clip-rule="evenodd" d="M15.0023 11.5367C15.1477 11.9245 14.9512 12.3569 14.5634 12.5023C13.2297 13.0024 12.25 14.2399 12.25 15.8C12.25 16.2143 11.9143 16.55 11.5 16.55C11.0858 16.55 10.75 16.2143 10.75 15.8C10.75 13.5602 12.1704 11.7977 14.0367 11.0978C14.4245 10.9524 14.8569 11.1489 15.0023 11.5367Z" fill="black"/>
<path fill-rule="evenodd" clip-rule="evenodd" d="M12.45 29.2001C12.45 28.7858 12.7858 28.4501 13.2 28.4501H18.5C18.9143 28.4501 19.25 28.7858 19.25 29.2001C19.25 29.6143 18.9143 29.9501 18.5 29.9501H13.2C12.7858 29.9501 12.45 29.6143 12.45 29.2001Z" fill="black"/>
</svg>
