<svg width="32" height="32" viewBox="0 0 32 32" fill="none" xmlns="http://www.w3.org/2000/svg">
<path d="M29.25 21.88H16C15.8028 21.88 15.6135 21.9576 15.4732 22.0961C15.3328 22.2346 15.2526 22.4228 15.25 22.62C15.25 22.8198 15.3287 23.0117 15.4691 23.1539C15.6094 23.2961 15.8002 23.3774 16 23.38H29.25C29.4498 23.3774 29.6406 23.2961 29.7809 23.1539C29.9213 23.0117 30 22.8198 30 22.62C29.9974 22.4228 29.9172 22.2346 29.7768 22.0961C29.6365 21.9576 29.4472 21.88 29.25 21.88Z" fill="black"/>
<path d="M29.25 15.25H16C15.8011 15.25 15.6103 15.329 15.4697 15.4697C15.329 15.6103 15.25 15.8011 15.25 16C15.25 16.1989 15.329 16.3897 15.4697 16.5303C15.6103 16.671 15.8011 16.75 16 16.75H29.25C29.4489 16.75 29.6397 16.671 29.7803 16.5303C29.921 16.3897 30 16.1989 30 16C30 15.8011 29.921 15.6103 29.7803 15.4697C29.6397 15.329 29.4489 15.25 29.25 15.25Z" fill="black"/>
<path d="M29.25 28.5H2.75C2.55109 28.5 2.36032 28.579 2.21967 28.7197C2.07902 28.8603 2 29.0511 2 29.25C2 29.4489 2.07902 29.6397 2.21967 29.7803C2.36032 29.921 2.55109 30 2.75 30H29.25C29.4489 30 29.6397 29.921 29.7803 29.7803C29.921 29.6397 30 29.4489 30 29.25C30 29.0511 29.921 28.8603 29.7803 28.7197C29.6397 28.579 29.4489 28.5 29.25 28.5Z" fill="black"/>
<path d="M2.22 23.14C2.36063 23.2804 2.55125 23.3593 2.75 23.3593C2.94875 23.3593 3.13937 23.2804 3.28 23.14L9.89 16.53C9.96076 16.4611 10.017 16.3786 10.0554 16.2876C10.0938 16.1966 10.1136 16.0988 10.1136 16C10.1136 15.9012 10.0938 15.8034 10.0554 15.7124C10.017 15.6214 9.96076 15.5389 9.89 15.47L3.28 8.86C3.21105 8.78924 3.12864 8.73301 3.03761 8.69461C2.94659 8.65621 2.84879 8.63643 2.75 8.63643C2.65121 8.63643 2.55341 8.65621 2.46239 8.69461C2.37136 8.73301 2.28895 8.78924 2.22 8.86C2.07955 9.00063 2.00066 9.19125 2.00066 9.39C2.00066 9.58875 2.07955 9.77937 2.22 9.92L8.3 16L2.22 22.08C2.07955 22.2206 2.00066 22.4112 2.00066 22.61C2.00066 22.8088 2.07955 22.9994 2.22 23.14Z" fill="black"/>
<path d="M2.75 3.5H29.25C29.4481 3.49741 29.6374 3.41756 29.7775 3.27747C29.9176 3.13737 29.9974 2.94811 30 2.75C29.9974 2.55189 29.9176 2.36263 29.7775 2.22253C29.6374 2.08244 29.4481 2.00259 29.25 2H2.75C2.55189 2.00259 2.36263 2.08244 2.22253 2.22253C2.08244 2.36263 2.00259 2.55189 2 2.75C2.00259 2.94811 2.08244 3.13737 2.22253 3.27747C2.36263 3.41756 2.55189 3.49741 2.75 3.5Z" fill="black"/>
<path d="M29.25 8.62H16C15.8002 8.62263 15.6094 8.70386 15.4691 8.8461C15.3287 8.98835 15.25 9.18016 15.25 9.38C15.2526 9.57717 15.3328 9.76538 15.4732 9.90388C15.6135 10.0424 15.8028 10.12 16 10.12H29.25C29.4472 10.12 29.6365 10.0424 29.7768 9.90388C29.9172 9.76538 29.9974 9.57717 30 9.38C30 9.18016 29.9213 8.98835 29.7809 8.8461C29.6406 8.70386 29.4498 8.62263 29.25 8.62Z" fill="black"/>
</svg>
