<svg width="32" height="32" viewBox="0 0 32 32" fill="none" xmlns="http://www.w3.org/2000/svg">
<path d="M9.375 25.325C8.375 25.325 7.475 24.925 6.775 24.225C5.375 22.825 5.375 20.425 6.775 18.925C8.175 17.525 10.675 17.525 12.075 18.925C12.775 19.625 13.175 20.525 13.175 21.525C13.175 22.525 12.775 23.425 12.075 24.125C11.275 25.025 10.375 25.325 9.375 25.325ZM7.775 23.225C8.575 24.025 10.075 24.025 10.875 23.225C11.275 22.825 11.475 22.225 11.475 21.625C11.475 21.025 11.275 20.525 10.875 20.025C10.075 19.225 8.575 19.225 7.775 20.025C6.875 20.925 6.875 22.325 7.775 23.225Z" fill="black"/>
<path d="M9.375 29.025C7.475 29.025 5.575 28.325 4.175 26.825C1.275 23.925 1.275 19.225 4.175 16.425C6.475 14.125 9.975 13.625 12.775 15.125L25.575 2.225C25.875 1.925 26.375 1.925 26.675 2.225L28.775 4.325C29.075 4.625 29.075 5.125 28.775 5.425L26.675 7.525L29.775 10.625C30.075 10.925 30.075 11.425 29.775 11.725L27.675 13.825C27.375 14.125 26.875 14.125 26.575 13.825L23.475 10.725L22.175 12.025L25.275 15.125C25.375 15.225 25.475 15.425 25.475 15.625C25.475 15.825 25.375 16.025 25.275 16.125L23.175 18.225C22.875 18.525 22.375 18.525 22.075 18.225L18.975 15.125L15.875 18.225C17.375 21.025 16.875 24.525 14.575 26.825C13.175 28.325 11.275 29.025 9.375 29.025ZM9.375 15.725C7.875 15.725 6.375 16.325 5.275 17.425C2.975 19.725 2.975 23.425 5.275 25.725C7.575 28.025 11.275 28.025 13.575 25.725C15.575 23.725 15.875 20.825 14.375 18.425C14.175 18.125 14.275 17.725 14.475 17.525L18.575 13.425C18.875 13.125 19.375 13.125 19.675 13.425L22.775 16.525L23.775 15.525L20.675 12.425C20.575 12.325 20.475 12.125 20.475 11.925C20.475 11.725 20.575 11.525 20.675 11.425L22.975 9.025C23.275 8.725 23.775 8.725 24.075 9.025L27.175 12.125L28.175 11.125L25.075 8.025C24.775 7.725 24.775 7.225 25.075 6.925L27.175 4.825L26.175 3.825L13.375 16.525C13.175 16.725 12.775 16.825 12.475 16.625C11.475 16.025 10.375 15.725 9.375 15.725Z" fill="black"/>
</svg>
