<svg width="32" height="32" viewBox="0 0 32 32" fill="none" xmlns="http://www.w3.org/2000/svg">
<path fill-rule="evenodd" clip-rule="evenodd" d="M2 5.76344C2 3.64165 3.63579 2 5.75 2H26.25C28.3642 2 30 3.64165 30 5.76344V26.2366C30 28.3584 28.3642 30 26.25 30H5.75C3.65252 30 2 28.3749 2 26.3369V5.76344ZM5.75 3.50538C4.46421 3.50538 3.5 4.47305 3.5 5.76344V10.8315H10.8V3.50538H5.75ZM12.3 3.50538V10.8315H19.6V3.50538H12.3ZM21.1 3.50538V10.8315H28.5V5.76344C28.5 4.47305 27.5358 3.50538 26.25 3.50538H21.1ZM28.5 12.3369H21.1V19.6631H28.5V12.3369ZM28.5 21.1685H21.1V28.4946H26.25C27.5358 28.4946 28.5 27.527 28.5 26.2366V21.1685ZM19.6 28.4946V21.1685H12.3V28.4946H19.6ZM10.8 28.4946V21.1685H3.5V26.3369C3.5 27.5104 4.44748 28.4946 5.75 28.4946H10.8ZM3.5 19.6631H10.8V12.3369H3.5V19.6631ZM12.3 12.3369V19.6631H19.6V12.3369H12.3Z" fill="black"/>
</svg>
