<svg width="32" height="32" viewBox="0 0 32 32" fill="none" xmlns="http://www.w3.org/2000/svg">
<path fill-rule="evenodd" clip-rule="evenodd" d="M5.76344 3.5C4.47305 3.5 3.50538 4.46421 3.50538 5.75V26.25C3.50538 27.5358 4.47305 28.5 5.76344 28.5H26.2366C27.527 28.5 28.4946 27.5358 28.4946 26.25V5.75C28.4946 4.44748 27.5104 3.5 26.3369 3.5H5.76344ZM2 5.75C2 3.63579 3.64165 2 5.76344 2H26.3369C28.3749 2 30 3.65252 30 5.75V26.25C30 28.3642 28.3584 30 26.2366 30H5.76344C3.64165 30 2 28.3642 2 26.25V5.75Z" fill="black"/>
<path d="M16 14.3C14.5312 14.3 13.3405 15.4864 13.3405 16.95C13.3405 18.4136 14.5312 19.6 16 19.6C17.4688 19.6 18.6595 18.4136 18.6595 16.95C18.6595 15.4864 17.4688 14.3 16 14.3Z" fill="black"/>
<path d="M16 19.8C13.6775 19.8 11.8351 21.6358 11.8351 23.95V25.35C11.8351 25.7642 12.1721 26.1 12.5878 26.1H19.4122C19.8279 26.1 20.1649 25.7642 20.1649 25.35V23.95C20.1649 21.6358 18.3225 19.8 16 19.8Z" fill="black"/>
<path fill-rule="evenodd" clip-rule="evenodd" d="M29.0466 12.3H3.25448V10.8H29.0466V12.3Z" fill="black"/>
<path fill-rule="evenodd" clip-rule="evenodd" d="M19.6631 11.55V3.15H21.1685V11.55H19.6631Z" fill="black"/>
<path fill-rule="evenodd" clip-rule="evenodd" d="M10.8315 11.55V3.15H12.3369V11.55H10.8315Z" fill="black"/>
</svg>
