<svg width="32" height="32" viewBox="0 0 32 32" fill="none" xmlns="http://www.w3.org/2000/svg">
<path d="M29.25 15.2356C29.0519 15.2382 28.8626 15.3179 28.7225 15.4579C28.5824 15.5978 28.5026 15.7869 28.5 15.9848V18.7218C28.5 18.9867 28.3946 19.2408 28.2071 19.4281C28.0196 19.6155 27.7652 19.7207 27.5 19.7207H26.78V17.7728C26.78 17.5741 26.701 17.3836 26.5603 17.2431C26.4197 17.1026 26.2289 17.0236 26.03 17.0236C25.8311 17.0236 25.6403 17.1026 25.4997 17.2431C25.359 17.3836 25.28 17.5741 25.28 17.7728V21.9782C25.28 22.2432 25.1746 22.4973 24.9871 22.6846C24.7996 22.8719 24.5452 22.9772 24.28 22.9772H14.28C14.0812 22.9773 13.8905 23.0564 13.75 23.1969L9.53 27.4123V23.7064C9.52233 23.512 9.44024 23.3279 9.30068 23.1923C9.16112 23.0566 8.97474 22.9796 8.78 22.9772H4.51C4.24478 22.9772 3.99043 22.8719 3.80289 22.6846C3.61536 22.4973 3.51 22.2432 3.51 21.9782V7.73376C3.51 7.46883 3.61536 7.21475 3.80289 7.02742C3.99043 6.84009 4.24478 6.73485 4.51 6.73485H14.18C14.3789 6.73485 14.5697 6.65591 14.7103 6.51542C14.851 6.37492 14.93 6.18436 14.93 5.98566C14.93 5.78697 14.851 5.59641 14.7103 5.45591C14.5697 5.31541 14.3789 5.23648 14.18 5.23648H6.74V4.49728C6.74 4.23236 6.84536 3.97828 7.03289 3.79095C7.22043 3.60361 7.47478 3.49837 7.74 3.49837H16.5C16.6989 3.49837 16.8897 3.41944 17.0303 3.27894C17.171 3.13844 17.25 2.94788 17.25 2.74919C17.25 2.55049 17.171 2.35993 17.0303 2.21943C16.8897 2.07893 16.6989 2 16.5 2H7.75C7.08604 2 6.44912 2.26278 5.97869 2.73083C5.50826 3.19888 5.24265 3.83405 5.24 4.49728V5.22649H4.51C3.84512 5.22912 3.20822 5.49412 2.73807 5.96376C2.26792 6.43339 2.00263 7.0696 2 7.73376V21.9782C2.00263 22.6424 2.26792 23.2786 2.73807 23.7482C3.20822 24.2179 3.84512 24.4829 4.51 24.4855H8V29.2503C7.999 29.398 8.04228 29.5425 8.12427 29.6654C8.20625 29.7882 8.32319 29.8837 8.46 29.9396C8.59689 29.9985 8.74842 30.0148 8.89474 29.9863C9.04106 29.9578 9.17534 29.8858 9.28 29.7798L14.57 24.4955H24.21C24.5443 24.5008 24.8763 24.4396 25.1867 24.3155C25.497 24.1914 25.7796 24.0068 26.0178 23.7725C26.2561 23.5382 26.4453 23.2589 26.5744 22.9509C26.7036 22.6428 26.77 22.3122 26.77 21.9782V21.249H27.49C27.8213 21.2491 28.1493 21.1835 28.4552 21.0563C28.761 20.929 29.0386 20.7426 29.2719 20.5076C29.5053 20.2727 29.6898 19.9939 29.8147 19.6874C29.9397 19.3809 30.0026 19.0527 30 18.7218V15.9848C29.9974 15.7869 29.9176 15.5978 29.7775 15.4579C29.6374 15.3179 29.4481 15.2382 29.25 15.2356Z" fill="black"/>
<path d="M23.25 15.4853C24.585 15.4853 25.8901 15.0899 27.0001 14.349C28.1101 13.6081 28.9753 12.555 29.4862 11.323C29.9971 10.0909 30.1308 8.73518 29.8703 7.42723C29.6098 6.11929 28.967 4.91786 28.023 3.97488C27.079 3.0319 25.8762 2.38973 24.5669 2.12956C23.2575 1.86939 21.9003 2.00292 20.6669 2.51326C19.4335 3.02359 18.3793 3.88782 17.6376 4.99664C16.8959 6.10546 16.5 7.40909 16.5 8.74266C16.5026 10.5301 17.2147 12.2436 18.4799 13.5075C19.7452 14.7714 21.4606 15.4827 23.25 15.4853ZM20.16 8.49293C20.3006 8.35263 20.4912 8.27383 20.69 8.27383C20.8888 8.27383 21.0794 8.35263 21.22 8.49293L22.5 9.82149V5.82584C22.5 5.62714 22.579 5.43658 22.7197 5.29608C22.8603 5.15558 23.0511 5.07665 23.25 5.07665C23.4489 5.07665 23.6397 5.15558 23.7803 5.29608C23.921 5.43658 24 5.62714 24 5.82584V9.82149L25.29 8.53289C25.4306 8.39259 25.6212 8.31379 25.82 8.31379C26.0188 8.31379 26.2094 8.39259 26.35 8.53289C26.4904 8.67336 26.5693 8.86378 26.5693 9.06231C26.5693 9.26085 26.4904 9.45126 26.35 9.59174L23.78 12.1589C23.7106 12.2267 23.6293 12.2809 23.54 12.3188C23.353 12.3884 23.147 12.3884 22.96 12.3188C22.8707 12.2809 22.7894 12.2267 22.72 12.1589L20.16 9.59174C20.0892 9.52286 20.033 9.44054 19.9946 9.34961C19.9562 9.25869 19.9364 9.161 19.9364 9.06231C19.9364 8.96363 19.9562 8.86594 19.9946 8.77501C20.033 8.68409 20.0892 8.60176 20.16 8.53289V8.49293Z" fill="black"/>
<path d="M9 18.1224H15.38C15.5789 18.1224 15.7697 18.0435 15.9103 17.903C16.051 17.7625 16.13 17.572 16.13 17.3733C16.13 17.1746 16.051 16.984 15.9103 16.8435C15.7697 16.703 15.5789 16.6241 15.38 16.6241H9C8.80109 16.6241 8.61032 16.703 8.46967 16.8435C8.32902 16.984 8.25 17.1746 8.25 17.3733C8.25 17.572 8.32902 17.7625 8.46967 17.903C8.61032 18.0435 8.80109 18.1224 9 18.1224Z" fill="black"/>
<path d="M15.09 13.4375C15.2889 13.4375 15.4797 13.3586 15.6203 13.2181C15.761 13.0776 15.84 12.8871 15.84 12.6884C15.84 12.4897 15.761 12.2991 15.6203 12.1586C15.4797 12.0181 15.2889 11.9392 15.09 11.9392H9C8.80109 11.9392 8.61032 12.0181 8.46967 12.1586C8.32902 12.2991 8.25 12.4897 8.25 12.6884C8.25 12.8871 8.32902 13.0776 8.46967 13.2181C8.61032 13.3586 8.80109 13.4375 9 13.4375H15.09Z" fill="black"/>
</svg>
