<svg width="32" height="32" viewBox="0 0 32 32" fill="none" xmlns="http://www.w3.org/2000/svg">
<path d="M9 16.6245C8.80109 16.6245 8.61032 16.7034 8.46967 16.8439C8.32902 16.9844 8.25 17.175 8.25 17.3737C8.25 17.5724 8.32902 17.7629 8.46967 17.9034C8.61032 18.0439 8.80109 18.1229 9 18.1229H15.37C15.5689 18.1229 15.7597 18.0439 15.9003 17.9034C16.041 17.7629 16.12 17.5724 16.12 17.3737C16.12 17.175 16.041 16.9844 15.9003 16.8439C15.7597 16.7034 15.5689 16.6245 15.37 16.6245H9Z" fill="black"/>
<path d="M27.49 2H7.74C7.07604 1.99999 6.43912 2.26279 5.96869 2.73084C5.49826 3.19889 5.23265 3.83408 5.23 4.49732V5.22654H4.51C3.84431 5.22654 3.20588 5.49071 2.73516 5.96092C2.26445 6.43113 2 7.06888 2 7.73386V21.9786C2 22.6436 2.26445 23.2813 2.73516 23.7515C3.20588 24.2217 3.84431 24.4859 4.51 24.4859H8V29.2508C7.999 29.3984 8.04228 29.543 8.12427 29.6658C8.20625 29.7887 8.32319 29.8842 8.46 29.9401C8.55172 29.9791 8.65031 29.9995 8.75 30C8.94841 29.9977 9.13828 29.919 9.28 29.7802L14.57 24.4959H24.22C24.5533 24.5012 24.8844 24.4399 25.1937 24.3156C25.5029 24.1912 25.7842 24.0063 26.0208 23.7717C26.2575 23.5372 26.4448 23.2577 26.5718 22.9498C26.6987 22.6418 26.7627 22.3116 26.76 21.9786V21.2494H27.49C27.8213 21.2494 28.1493 21.1839 28.4552 21.0566C28.761 20.9294 29.0386 20.7429 29.2719 20.5079C29.5053 20.273 29.6898 19.9942 29.8147 19.6877C29.9397 19.3812 30.0026 19.053 30 18.7221V4.49732C29.9974 3.83408 29.7317 3.19889 29.2613 2.73084C28.7909 2.26279 28.154 1.99999 27.49 2ZM25.26 21.9786C25.26 22.2435 25.1546 22.4976 24.9671 22.6849C24.7796 22.8723 24.5252 22.9775 24.26 22.9775H14.26C14.0612 22.9777 13.8705 23.0567 13.73 23.1973L9.53 27.4128V23.7067C9.52233 23.5123 9.44024 23.3283 9.30068 23.1926C9.16112 23.0569 8.97474 22.9799 8.78 22.9775H4.51C4.24478 22.9775 3.99043 22.8723 3.80289 22.6849C3.61536 22.4976 3.51 22.2435 3.51 21.9786V7.73386C3.51 7.46892 3.61536 7.21484 3.80289 7.02751C3.99043 6.84017 4.24478 6.73493 4.51 6.73493H24.26C24.5252 6.73493 24.7796 6.84017 24.9671 7.02751C25.1546 7.21484 25.26 7.46892 25.26 7.73386V21.9786ZM28.5 18.7221C28.5 18.987 28.3946 19.2411 28.2071 19.4284C28.0196 19.6158 27.7652 19.721 27.5 19.721H26.77V7.73386C26.77 7.0706 26.5069 6.43437 26.0384 5.96444C25.5698 5.49451 24.934 5.22919 24.27 5.22654H6.73V4.49732C6.73 4.23239 6.83536 3.97831 7.02289 3.79097C7.21043 3.60364 7.46478 3.49839 7.73 3.49839H27.49C27.7552 3.49839 28.0096 3.60364 28.1971 3.79097C28.3846 3.97831 28.49 4.23239 28.49 4.49732L28.5 18.7221Z" fill="black"/>
<path d="M9 11.9893C8.80109 11.9893 8.61032 12.0682 8.46967 12.2087C8.32902 12.3492 8.25 12.5398 8.25 12.7385C8.25 12.9372 8.32902 13.1278 8.46967 13.2683C8.61032 13.4088 8.80109 13.4877 9 13.4877H19.8C19.9989 13.4877 20.1897 13.4088 20.3303 13.2683C20.471 13.1278 20.55 12.9372 20.55 12.7385C20.55 12.5398 20.471 12.3492 20.3303 12.2087C20.1897 12.0682 19.9989 11.9893 19.8 11.9893H9Z" fill="black"/>
</svg>
