<svg width="32" height="32" viewBox="0 0 32 32" fill="none" xmlns="http://www.w3.org/2000/svg">
<path d="M2.8 15.1C3.2 15.1 3.6 14.8 3.6 14.3C3.6 11.8 5.6 9.8 8.1 9.8H8.5C8.9 9.8 9.2 9.5 9.2 9.2C9.7 6 12.5 3.5 15.8 3.5C19.5 3.5 22.5 6.5 22.5 10.2C22.5 10.5 22.5 10.8 22.4 11.2C22.4 11.4 22.4 11.6 22.6 11.8C22.7 12 23 12.1 23.2 12.1H25.1C26.6 12.1 28 13.1 28.4 14.6C28.5 14.9 28.8 15.2 29.1 15.2C29.2 15.2 29.2 15.2 29.3 15.2C29.7 15.1 29.9 14.7 29.8 14.3C29.2 12.2 27.3 10.7 25 10.7H24C24 10.6 24 10.5 24 10.4C24 5.7 20.3 2 15.8 2C12 2 8.7 4.7 7.8 8.3C4.6 8.4 2 11.1 2 14.3C2 14.8 2.3 15.1 2.8 15.1Z" fill="black"/>
<path d="M29.1 23.4H5.8C5.4 23.4 5 23.7 5 24.2C5 24.7 5.3 25 5.8 25H29.1C29.5 25 29.9 24.7 29.9 24.2C29.9 23.7 29.5 23.4 29.1 23.4Z" fill="black"/>
<path d="M2.8 19.7H5.9C6.3 19.7 6.7 19.4 6.7 18.9C6.7 18.4 6.4 18.1 5.9 18.1H2.8C2.3 18.2 2 18.6 2 19C2 19.4 2.3 19.7 2.8 19.7Z" fill="black"/>
<path d="M26.7 28.5H20.4C20 28.5 19.6 28.8 19.6 29.3C19.6 29.8 20 30 20.4 30H26.7C27.1 30 27.5 29.7 27.5 29.2C27.5 28.7 27.2 28.5 26.7 28.5Z" fill="black"/>
<path d="M16.4 28.5H2.8C2.4 28.5 2 28.8 2 29.3C2 29.8 2.3 30 2.8 30H16.5C16.9 30 17.3 29.7 17.3 29.2C17.3 28.7 16.8 28.5 16.4 28.5Z" fill="black"/>
<path d="M9.5 18.2C9.1 18.2 8.7 18.5 8.7 19C8.7 19.5 9 19.8 9.5 19.8H26.8C27.2 19.8 27.6 19.5 27.6 19C27.6 18.5 27.3 18.2 26.8 18.2H9.5Z" fill="black"/>
</svg>
