<svg width="32" height="32" viewBox="0 0 32 32" fill="none" xmlns="http://www.w3.org/2000/svg">
<path d="M19.06 19.81C18.8619 19.8126 18.6726 19.8924 18.5325 20.0325C18.3924 20.1726 18.3126 20.3619 18.31 20.56V23.4H3.5V5.75C3.5 5.15326 3.73705 4.58097 4.15901 4.15901C4.58097 3.73705 5.15326 3.5 5.75 3.5H16.06C16.3555 3.5 16.6481 3.5582 16.921 3.67127C17.194 3.78434 17.4421 3.95008 17.651 4.15901C17.8599 4.36794 18.0257 4.61598 18.1387 4.88896C18.2518 5.16194 18.31 5.45453 18.31 5.75V11.44C18.31 11.6389 18.389 11.8297 18.5297 11.9703C18.6703 12.111 18.8611 12.19 19.06 12.19C19.2589 12.19 19.4497 12.111 19.5903 11.9703C19.731 11.8297 19.81 11.6389 19.81 11.44V5.75C19.81 5.25754 19.713 4.76991 19.5245 4.31494C19.3361 3.85997 19.0599 3.44657 18.7117 3.09835C18.3634 2.75013 17.95 2.47391 17.4951 2.28545C17.0401 2.097 16.5525 2 16.06 2H5.75C4.75544 2 3.80161 2.39509 3.09835 3.09835C2.39509 3.80161 2 4.75544 2 5.75V26.25C2 27.2446 2.39509 28.1984 3.09835 28.9017C3.80161 29.6049 4.75544 30 5.75 30H16.06C16.5525 30 17.0401 29.903 17.4951 29.7145C17.95 29.5261 18.3634 29.2499 18.7117 28.9017C19.0599 28.5534 19.3361 28.14 19.5245 27.6851C19.713 27.2301 19.81 26.7425 19.81 26.25V20.56C19.8074 20.3619 19.7276 20.1726 19.5875 20.0325C19.4474 19.8924 19.2581 19.8126 19.06 19.81ZM18.31 26.25C18.31 26.8467 18.0729 27.419 17.651 27.841C17.229 28.2629 16.6567 28.5 16.06 28.5H5.75C5.15326 28.5 4.58097 28.2629 4.15901 27.841C3.73705 27.419 3.5 26.8467 3.5 26.25V24.9H18.31V26.25Z" fill="black"/>
<path d="M20.59 14.73C20.3388 14.73 20.0933 14.8045 19.8844 14.944C19.6756 15.0836 19.5128 15.2819 19.4167 15.514C19.3206 15.7461 19.2954 16.0014 19.3444 16.2478C19.3934 16.4941 19.5144 16.7204 19.692 16.898C19.8696 17.0756 20.0959 17.1966 20.3422 17.2456C20.5886 17.2946 20.8439 17.2695 21.076 17.1733C21.3081 17.0772 21.5064 16.9144 21.646 16.7056C21.7855 16.4967 21.86 16.2512 21.86 16C21.86 15.6632 21.7262 15.3401 21.488 15.102C21.2499 14.8638 20.9268 14.73 20.59 14.73Z" fill="black"/>
<path d="M23.57 9.21C23.5013 9.13631 23.4185 9.07721 23.3265 9.03622C23.2345 8.99523 23.1352 8.97319 23.0345 8.97141C22.9338 8.96963 22.8338 8.98816 22.7404 9.02588C22.647 9.0636 22.5622 9.11974 22.491 9.19096C22.4197 9.26218 22.3636 9.34701 22.3259 9.4404C22.2882 9.53379 22.2696 9.63382 22.2714 9.73452C22.2732 9.83523 22.2952 9.93454 22.3362 10.0265C22.3772 10.1185 22.4363 10.2013 22.51 10.27C24.0281 11.7905 24.8807 13.8514 24.8807 16C24.8807 18.1486 24.0281 20.2095 22.51 21.73C22.3696 21.8706 22.2907 22.0612 22.2907 22.26C22.2907 22.4588 22.3696 22.6494 22.51 22.79C22.6441 22.9147 22.8173 22.9889 23 23C23.1988 22.9998 23.3895 22.9207 23.53 22.78C25.329 20.9782 26.3394 18.5361 26.3394 15.99C26.3394 13.4439 25.329 11.0018 23.53 9.2L23.57 9.21Z" fill="black"/>
<path d="M26.13 6.66C25.9878 6.52752 25.7998 6.4554 25.6055 6.45883C25.4112 6.46225 25.2258 6.54097 25.0884 6.67838C24.951 6.81579 24.8723 7.00118 24.8688 7.19548C24.8654 7.38978 24.9375 7.57782 25.07 7.72C27.2659 9.91603 28.4996 12.8944 28.4996 16C28.4996 19.1056 27.2659 22.084 25.07 24.28C24.9296 24.4206 24.8507 24.6112 24.8507 24.81C24.8507 25.0088 24.9296 25.1994 25.07 25.34C25.2106 25.4804 25.4012 25.5593 25.6 25.5593C25.7988 25.5593 25.9894 25.4804 26.13 25.34C28.6068 22.8627 29.9982 19.5031 29.9982 16C29.9982 12.4969 28.6068 9.13728 26.13 6.66Z" fill="black"/>
<path d="M15.55 16C15.55 16.2512 15.6245 16.4967 15.764 16.7056C15.9036 16.9144 16.1019 17.0772 16.334 17.1733C16.5661 17.2695 16.8214 17.2946 17.0678 17.2456C17.3141 17.1966 17.5404 17.0756 17.718 16.898C17.8956 16.7204 18.0166 16.4941 18.0656 16.2478C18.1146 16.0014 18.0895 15.7461 17.9933 15.514C17.8972 15.2819 17.7344 15.0836 17.5256 14.944C17.3167 14.8045 17.0712 14.73 16.82 14.73C16.4832 14.73 16.1601 14.8638 15.922 15.102C15.6838 15.3401 15.55 15.6632 15.55 16Z" fill="black"/>
<path d="M11.78 16C11.7802 16.2533 11.8561 16.5007 11.998 16.7105C12.1399 16.9203 12.3413 17.0829 12.5763 17.1773C12.8112 17.2718 13.0691 17.2939 13.3167 17.2407C13.5644 17.1875 13.7904 17.0615 13.9659 16.8788C14.1413 16.6962 14.2582 16.4652 14.3014 16.2157C14.3446 15.9661 14.3122 15.7094 14.2084 15.4783C14.1045 15.2473 13.934 15.0527 13.7187 14.9193C13.5033 14.786 13.2531 14.72 13 14.73C12.6711 14.7404 12.3593 14.8791 12.1313 15.1165C11.9033 15.3538 11.7772 15.6709 11.78 16Z" fill="black"/>
</svg>
