<svg width="32" height="32" viewBox="0 0 32 32" fill="none" xmlns="http://www.w3.org/2000/svg">
<path d="M7.51 29.9985C8.65646 30.0337 9.77064 29.6158 10.6111 28.8352C11.4515 28.0547 11.9506 26.9744 12 25.8285V13.1285L27.09 9.39845V18.6385C26.2435 17.945 25.1843 17.5637 24.09 17.5585C22.9394 17.5152 21.8186 17.9298 20.9732 18.7114C20.1278 19.4931 19.6268 20.578 19.58 21.7285C19.6294 22.878 20.1312 23.9614 20.976 24.7425C21.8208 25.5236 22.9401 25.9391 24.09 25.8985C25.2409 25.9392 26.3613 25.524 27.2077 24.7431C28.054 23.9622 28.558 22.8789 28.61 21.7285V3.99845C28.6098 3.69509 28.5405 3.39576 28.4075 3.12311C28.2745 2.85046 28.0812 2.61164 27.8423 2.42472C27.6033 2.23781 27.325 2.1077 27.0284 2.04424C26.7317 1.98079 26.4245 1.98565 26.13 2.05845L12.26 5.49845C11.7639 5.61993 11.3233 5.90514 11.0094 6.30798C10.6955 6.71082 10.5266 7.20775 10.53 7.71845V22.7185C9.68863 22.0148 8.62683 21.629 7.53 21.6285C6.9562 21.6044 6.38331 21.6941 5.84438 21.8926C5.30545 22.091 4.81116 22.3943 4.39001 22.7847C3.96887 23.1752 3.62921 23.6452 3.39064 24.1676C3.15206 24.69 3.0193 25.2545 3 25.8285C3.04683 26.9789 3.54784 28.0638 4.39324 28.8455C5.23863 29.6271 6.35943 30.0418 7.51 29.9985ZM24.07 24.3985C23.3194 24.4368 22.5839 24.1782 22.0225 23.6786C21.4611 23.179 21.1189 22.4784 21.07 21.7285C21.1164 20.9775 21.4578 20.2754 22.0198 19.7753C22.5818 19.2751 23.3188 19.0174 24.07 19.0585C24.8206 19.0201 25.5561 19.2787 26.1175 19.7783C26.6789 20.278 27.0211 20.9785 27.07 21.7285C27.0185 22.4775 26.6756 23.1765 26.1148 23.6756C25.554 24.1747 24.8199 24.4342 24.07 24.3985ZM12 7.71845C12.0101 7.54552 12.0776 7.38089 12.1917 7.25052C12.3057 7.12016 12.4599 7.03147 12.63 6.99845L26.49 3.51845C26.56 3.50003 26.6332 3.49766 26.7042 3.51151C26.7752 3.52537 26.8421 3.55509 26.9 3.59845C26.9582 3.64347 27.0054 3.70101 27.0383 3.76679C27.0712 3.83257 27.0889 3.90492 27.09 3.97845V7.84845L12 11.5885V7.71845ZM7.51 23.1585C8.25991 23.1227 8.99399 23.3822 9.55481 23.8813C10.1156 24.3804 10.4585 25.0795 10.51 25.8285C10.4585 26.5775 10.1156 27.2765 9.55481 27.7756C8.99399 28.2747 8.25991 28.5342 7.51 28.4985C6.75944 28.5368 6.02392 28.2782 5.46252 27.7786C4.90112 27.279 4.55895 26.5784 4.51 25.8285C4.55895 25.0785 4.90112 24.378 5.46252 23.8783C6.02392 23.3787 6.75944 23.1201 7.51 23.1585Z" fill="black"/>
</svg>
