<svg width="32" height="32" viewBox="0 0 32 32" fill="none" xmlns="http://www.w3.org/2000/svg">
<path d="M5.2 30H2V23.6C2 22.7 2.7 22 3.6 22C4.5 22 5.2 22.7 5.2 23.6V30Z" fill="black"/>
<path d="M30 30H26.8V3.6C26.8 2.7 27.5 2 28.4 2C29.3 2 30 2.7 30 3.6V30Z" fill="black"/>
<path d="M23.8 30H20.6V8.6C20.6 7.7 21.3 7 22.2 7C23.1 7 23.8 7.7 23.8 8.6V30Z" fill="black"/>
<path d="M17.6 30H14.4V13.6C14.4 12.7 15.1 12 16 12C16.9 12 17.6 12.7 17.6 13.6V30Z" fill="black"/>
<path d="M11.4 30H8.20001V18.6C8.20001 17.7 8.90001 17 9.80001 17C10.7 17 11.4 17.7 11.4 18.6V30Z" fill="black"/>
</svg>
