<svg width="32" height="32" viewBox="0 0 32 32" fill="none" xmlns="http://www.w3.org/2000/svg">
<path fill-rule="evenodd" clip-rule="evenodd" d="M17.3783 17.7311C19.9224 14.3785 19.6665 9.56527 16.6097 6.50724C13.2728 3.17156 7.8419 3.17156 4.50265 6.50724C1.16578 9.84529 1.16578 15.2762 4.50265 18.6142C6.17168 20.2821 8.36333 21.1166 10.5562 21.1166C12.4811 21.1166 14.4049 20.4726 15.9751 19.1869L18.3787 21.5892L18.3158 21.7631C18.0754 22.5251 18.2562 23.3904 18.8608 23.994L21.5072 26.6404L21.6559 26.7762C22.5243 27.5008 23.8195 27.4555 24.6358 26.6404C25.5 25.7761 25.5 24.3749 24.6358 23.5106L21.9894 20.8654L21.8456 20.7334C21.2039 20.1939 20.3286 20.0782 19.5846 20.3833L17.1823 17.9797L17.3783 17.7311ZM30 18.8332C30 18.3618 29.6179 17.9796 29.1464 17.9796H24.3429C23.8715 17.9796 23.4905 18.3618 23.4905 18.8332C23.4905 19.3046 23.8715 19.6867 24.3429 19.6867H29.1464C29.6179 19.6867 30 19.3046 30 18.8332ZM5.70978 7.71437C7.04667 6.37866 8.80142 5.71082 10.5562 5.71082C12.3109 5.71082 14.0668 6.37866 15.4025 7.71437C18.0751 10.387 18.0751 14.7345 15.4025 17.4071C12.7299 20.0797 8.38237 20.0797 5.70978 17.4071C3.03719 14.7345 3.03719 10.387 5.70978 7.71437ZM30 14.1731C30 13.7017 29.6179 13.3195 29.1464 13.3195H22.4108C21.9394 13.3195 21.5572 13.7017 21.5572 14.1731C21.5572 14.6445 21.9394 15.0267 22.4108 15.0267H29.1464C29.6179 15.0267 30 14.6445 30 14.1731ZM30 9.51351C30 9.04209 29.6179 8.65995 29.1464 8.65995H22.1298C21.6584 8.65995 21.2763 9.04209 21.2763 9.51351C21.2763 9.98494 21.6584 10.3671 22.1298 10.3671H29.1464C29.6179 10.3671 30 9.98494 30 9.51351ZM29.9996 4.85356C29.9996 4.38214 29.6175 4 29.1461 4H19.5402C19.0688 4 18.6867 4.38214 18.6867 4.85356C18.6867 5.32499 19.0688 5.70712 19.5402 5.70712H29.1461C29.6175 5.70712 29.9996 5.32499 29.9996 4.85356ZM13.3959 8.60353C13.7292 8.27018 14.2697 8.27018 14.603 8.60353C14.9364 8.93687 14.9364 9.4773 14.603 9.81064L11.7436 12.6701L14.6067 15.5332C14.9401 15.8666 14.94 16.407 14.6067 16.7403C14.2734 17.0737 13.7329 17.0737 13.3996 16.7403L10.5364 13.8772L7.81065 16.603C7.4773 16.9364 6.93687 16.9364 6.60353 16.603C6.27018 16.2697 6.27018 15.7292 6.60353 15.3959L9.32933 12.6701L6.60722 9.94798C6.27388 9.61463 6.27387 9.0742 6.60722 8.74086C6.94057 8.40751 7.481 8.40751 7.81434 8.74086L10.5364 11.463L13.3959 8.60353Z" fill="black"/>
</svg>
