<svg width="32" height="32" viewBox="0 0 32 32" fill="none" xmlns="http://www.w3.org/2000/svg">
<path d="M26.7993 13.6893C26.6012 13.6919 26.412 13.7718 26.2719 13.9119C26.1318 14.052 26.0519 14.2412 26.0493 14.4393V17.1593C26.0493 17.3583 26.1284 17.549 26.269 17.6897C26.4097 17.8303 26.6004 17.9093 26.7993 17.9093C26.9983 17.9093 27.189 17.8303 27.3297 17.6897C27.4703 17.549 27.5493 17.3583 27.5493 17.1593V14.4393C27.5493 14.2404 27.4703 14.0497 27.3297 13.909C27.189 13.7684 26.9983 13.6893 26.7993 13.6893Z" fill="black"/>
<path d="M20.5493 22.2193C20.5493 22.4183 20.6284 22.609 20.769 22.7497C20.9097 22.8903 21.1004 22.9693 21.2993 22.9693C21.4983 22.9693 21.689 22.8903 21.8297 22.7497C21.9703 22.609 22.0493 22.4183 22.0493 22.2193V12.3793L20.5493 13.8793V22.2193Z" fill="black"/>
<path d="M15.0493 24.7993C15.0493 24.9983 15.1284 25.189 15.269 25.3297C15.4097 25.4703 15.6004 25.5493 15.7993 25.5493C15.9983 25.5493 16.189 25.4703 16.3297 25.3297C16.4703 25.189 16.5493 24.9983 16.5493 24.7993V17.8793L15.0493 19.3793V24.7993Z" fill="black"/>
<path d="M11.0493 9.37934C11.0493 9.18043 10.9703 8.98966 10.8297 8.84901C10.689 8.70836 10.4983 8.62934 10.2993 8.62934C10.1004 8.62934 9.90966 8.70836 9.76901 8.84901C9.62836 8.98966 9.54934 9.18043 9.54934 9.37934V19.2193L11.0493 17.7193V9.37934Z" fill="black"/>
<path d="M16.5493 6.79934C16.5493 6.60043 16.4703 6.40966 16.3297 6.26901C16.189 6.12836 15.9983 6.04934 15.7993 6.04934C15.6004 6.04934 15.4097 6.12836 15.269 6.26901C15.1284 6.40966 15.0493 6.60043 15.0493 6.79934V13.7193L16.5493 12.2193V6.79934Z" fill="black"/>
<path d="M4.79934 17.9093C4.99825 17.9093 5.18902 17.8303 5.32967 17.6897C5.47032 17.549 5.54934 17.3583 5.54934 17.1593V14.4393C5.54934 14.3408 5.52994 14.2433 5.49225 14.1523C5.45456 14.0613 5.39931 13.9787 5.32967 13.909C5.26003 13.8394 5.17735 13.7841 5.08635 13.7464C4.99536 13.7087 4.89783 13.6893 4.79934 13.6893C4.70085 13.6893 4.60332 13.7087 4.51233 13.7464C4.42133 13.7841 4.33865 13.8394 4.26901 13.909C4.19937 13.9787 4.14412 14.0613 4.10643 14.1523C4.06874 14.2433 4.04934 14.3408 4.04934 14.4393V17.1593C4.05193 17.3574 4.13178 17.5467 4.27187 17.6868C4.41197 17.8269 4.60123 17.9067 4.79934 17.9093Z" fill="black"/>
<path d="M28.3793 3.21934C28.2387 3.07889 28.0481 3 27.8493 3C27.6506 3 27.46 3.07889 27.3193 3.21934L3.21934 27.3193C3.07889 27.46 3 27.6506 3 27.8493C3 28.0481 3.07889 28.2387 3.21934 28.3793C3.35997 28.5198 3.55059 28.5987 3.74934 28.5987C3.94809 28.5987 4.13871 28.5198 4.27934 28.3793L28.3793 4.27934C28.4501 4.21039 28.5063 4.12798 28.5447 4.03695C28.5831 3.94593 28.6029 3.84813 28.6029 3.74934C28.6029 3.65055 28.5831 3.55275 28.5447 3.46173C28.5063 3.3707 28.4501 3.28829 28.3793 3.21934Z" fill="black"/>
</svg>
