<svg width="32" height="32" viewBox="0 0 32 32" fill="none" xmlns="http://www.w3.org/2000/svg">
<path d="M15.75 10.42C15.5519 10.4226 15.3626 10.5024 15.2225 10.6425C15.0824 10.7826 15.0026 10.9719 15 11.17V21.17C15 21.2685 15.0194 21.366 15.0571 21.457C15.0948 21.548 15.15 21.6307 15.2197 21.7003C15.2893 21.77 15.372 21.8252 15.463 21.8629C15.554 21.9006 15.6515 21.92 15.75 21.92C15.8485 21.92 15.946 21.9006 16.037 21.8629C16.128 21.8252 16.2107 21.77 16.2803 21.7003C16.35 21.6307 16.4052 21.548 16.4429 21.457C16.4806 21.366 16.5 21.2685 16.5 21.17V11.17C16.4974 10.9719 16.4176 10.7826 16.2775 10.6425C16.1374 10.5024 15.9481 10.4226 15.75 10.42Z" fill="black"/>
<path d="M21.25 14C21.0519 14.0026 20.8626 14.0824 20.7225 14.2225C20.5824 14.3626 20.5026 14.5519 20.5 14.75V17.59C20.5 17.7889 20.579 17.9797 20.7197 18.1203C20.8603 18.261 21.0511 18.34 21.25 18.34C21.4489 18.34 21.6397 18.261 21.7803 18.1203C21.921 17.9797 22 17.7889 22 17.59V14.75C21.9974 14.5519 21.9176 14.3626 21.7775 14.2225C21.6374 14.0824 21.4481 14.0026 21.25 14Z" fill="black"/>
<path d="M26.75 11.06C26.5519 11.0626 26.3626 11.1424 26.2225 11.2825C26.0824 11.4226 26.0026 11.6119 26 11.81V20.53C26 20.7289 26.079 20.9197 26.2197 21.0603C26.3603 21.201 26.5511 21.28 26.75 21.28C26.9489 21.28 27.1397 21.201 27.2803 21.0603C27.421 20.9197 27.5 20.7289 27.5 20.53V11.81C27.4974 11.6119 27.4176 11.4226 27.2775 11.2825C27.1374 11.1424 26.9481 11.0626 26.75 11.06Z" fill="black"/>
<path d="M4.75 12.06C4.55189 12.0626 4.36263 12.1424 4.22253 12.2825C4.08244 12.4226 4.00259 12.6119 4 12.81V19.53C4.00259 19.7281 4.08244 19.9174 4.22253 20.0575C4.36263 20.1976 4.55189 20.2774 4.75 20.28C4.94811 20.2774 5.13737 20.1976 5.27747 20.0575C5.41756 19.9174 5.49741 19.7281 5.5 19.53V12.81C5.49741 12.6119 5.41756 12.4226 5.27747 12.2825C5.13737 12.1424 4.94811 12.0626 4.75 12.06Z" fill="black"/>
<path d="M10.25 7C10.0519 7.00259 9.86263 7.08244 9.72253 7.22253C9.58244 7.36263 9.50259 7.55189 9.5 7.75V24.59C9.5 24.7889 9.57902 24.9797 9.71967 25.1203C9.86032 25.261 10.0511 25.34 10.25 25.34C10.4489 25.34 10.6397 25.261 10.7803 25.1203C10.921 24.9797 11 24.7889 11 24.59V7.75C10.9974 7.55189 10.9176 7.36263 10.7775 7.22253C10.6374 7.08244 10.4481 7.00259 10.25 7Z" fill="black"/>
</svg>
