<svg width="32" height="32" viewBox="0 0 32 32" fill="none" xmlns="http://www.w3.org/2000/svg">
<path d="M22.3426 15.5C23.6776 15.5 24.9826 15.1041 26.0927 14.3624C27.2027 13.6207 28.0679 12.5665 28.5787 11.3331C29.0896 10.0997 29.2233 8.74252 28.9629 7.43314C28.7024 6.12377 28.0595 4.92104 27.1155 3.97703C26.1715 3.03303 24.9688 2.39015 23.6594 2.1297C22.35 1.86925 20.9929 2.00292 19.7594 2.51382C18.526 3.02471 17.4718 3.88987 16.7301 4.9999C15.9884 6.10994 15.5926 7.41498 15.5926 8.75C15.5952 10.5394 16.3072 12.2548 17.5725 13.5201C18.8378 14.7853 20.5532 15.4974 22.3426 15.5ZM21.5926 5.38C21.5926 5.18109 21.6716 4.99033 21.8122 4.84967C21.9529 4.70902 22.1437 4.63 22.3426 4.63C22.5415 4.63 22.7322 4.70902 22.8729 4.84967C23.0135 4.99033 23.0926 5.18109 23.0926 5.38V8.51C23.0926 8.70892 23.0135 8.89968 22.8729 9.04033C22.7322 9.18098 22.5415 9.26 22.3426 9.26C22.1437 9.26 21.9529 9.18098 21.8122 9.04033C21.6716 8.89968 21.5926 8.70892 21.5926 8.51V5.38ZM22.3426 10.32C22.5403 10.32 22.7337 10.3787 22.8981 10.4885C23.0626 10.5984 23.1908 10.7546 23.2664 10.9373C23.3421 11.12 23.3619 11.3211 23.3233 11.5151C23.2848 11.7091 23.1895 11.8873 23.0497 12.0271C22.9098 12.167 22.7316 12.2622 22.5377 12.3008C22.3437 12.3394 22.1426 12.3196 21.9599 12.2439C21.7772 12.1682 21.621 12.04 21.5111 11.8756C21.4012 11.7111 21.3426 11.5178 21.3426 11.32C21.3426 11.0548 21.4479 10.8004 21.6355 10.6129C21.823 10.4254 22.0773 10.32 22.3426 10.32Z" fill="black"/>
<path d="M24.0726 17.71C24.0566 17.6071 24.0194 17.5087 23.9632 17.4209C23.9071 17.3332 23.8334 17.2581 23.7467 17.2005C23.6599 17.1428 23.5622 17.1039 23.4596 17.0861C23.357 17.0683 23.2518 17.0721 23.1507 17.0972C23.0497 17.1223 22.9549 17.1681 22.8726 17.2318C22.7902 17.2956 22.722 17.3757 22.6723 17.4672C22.6226 17.5587 22.5926 17.6596 22.584 17.7634C22.5754 17.8672 22.5886 17.9716 22.6226 18.07C23.1335 20.3667 24.1593 22.5175 25.6226 24.36H4.53256C7.03256 21.36 8.39256 16.78 8.39256 11.2C8.39256 7.75 10.4926 4 15.0926 4C15.2915 4 15.4822 3.92099 15.6229 3.78033C15.7635 3.63968 15.8426 3.44892 15.8426 3.25C15.8426 3.05109 15.7635 2.86033 15.6229 2.71967C15.4822 2.57902 15.2915 2.5 15.0926 2.5C9.71256 2.5 6.89256 6.86 6.89256 11.17C6.89256 17.17 5.25256 21.94 2.26256 24.51C2.14587 24.6098 2.06262 24.743 2.02405 24.8916C1.98548 25.0402 1.99345 25.1971 2.04688 25.341C2.10031 25.485 2.19663 25.609 2.32283 25.6965C2.44903 25.7839 2.59903 25.8305 2.75256 25.83H10.8326C11.0026 26.8422 11.5259 27.7613 12.3095 28.4242C13.0931 29.0871 14.0862 29.4508 15.1126 29.4508C16.1389 29.4508 17.1321 29.0871 17.9156 28.4242C18.6992 27.7613 19.2225 26.8422 19.3926 25.83H27.4426C27.5961 25.8305 27.7461 25.7839 27.8723 25.6965C27.9985 25.609 28.0948 25.485 28.1482 25.341C28.2017 25.1971 28.2096 25.0402 28.1711 24.8916C28.1325 24.743 28.0493 24.6098 27.9326 24.51C25.9755 22.6956 24.6272 20.3205 24.0726 17.71ZM15.1126 28C14.4864 27.9978 13.8783 27.7902 13.3815 27.4091C12.8847 27.0279 12.5268 26.4942 12.3626 25.89H17.8526C17.6903 26.4934 17.3343 27.0268 16.8392 27.4081C16.3441 27.7893 15.7374 27.9973 15.1126 28Z" fill="black"/>
</svg>
