<svg width="32" height="32" viewBox="0 0 32 32" fill="none" xmlns="http://www.w3.org/2000/svg">
<path d="M16 2C8.3 2 2 8.3 2 16C2 23.7 8.3 30 16 30C23.7 30 30 23.7 30 16C30 8.3 23.7 2 16 2ZM16 28.5C9.1 28.5 3.5 22.9 3.5 16C3.5 9.1 9.1 3.5 16 3.5C22.9 3.5 28.5 9.1 28.5 16C28.5 22.9 22.9 28.5 16 28.5Z" fill="black"/>
<path d="M16 9.1C12.2 9.1 9.1 12.2 9.1 16C9.1 19.8 12.2 22.9 16 22.9C19.8 22.9 22.9 19.8 22.9 16C22.9 12.2 19.8 9.1 16 9.1ZM16 21.4C13 21.4 10.6 19 10.6 16C10.6 13 13 10.6 16 10.6C19 10.6 21.4 13 21.4 16C21.4 19 19 21.4 16 21.4Z" fill="black"/>
</svg>
