<svg width="32" height="32" viewBox="0 0 32 32" fill="none" xmlns="http://www.w3.org/2000/svg">
<path d="M16 11.38C15.0863 11.38 14.193 11.651 13.4333 12.1586C12.6735 12.6663 12.0814 13.3878 11.7317 14.232C11.382 15.0762 11.2905 16.0051 11.4688 16.9013C11.647 17.7975 12.0871 18.6207 12.7332 19.2668C13.3793 19.913 14.2025 20.353 15.0987 20.5312C15.9949 20.7095 16.9238 20.618 17.768 20.2683C18.6122 19.9186 19.3337 19.3265 19.8414 18.5667C20.349 17.807 20.62 16.9137 20.62 16C20.62 14.7747 20.1333 13.5996 19.2668 12.7332C18.4004 11.8667 17.2253 11.38 16 11.38Z" fill="black"/>
<path d="M16 2C13.2311 2 10.5243 2.82109 8.22202 4.35943C5.91973 5.89777 4.12532 8.08427 3.06569 10.6424C2.00607 13.2006 1.72882 16.0155 2.26901 18.7313C2.80921 21.447 4.14258 23.9416 6.10051 25.8995C8.05845 27.8574 10.553 29.1908 13.2687 29.731C15.9845 30.2712 18.7994 29.9939 21.3576 28.9343C23.9157 27.8747 26.1022 26.0803 27.6406 23.778C29.1789 21.4757 30 18.7689 30 16C30 12.287 28.525 8.72601 25.8995 6.1005C23.274 3.475 19.713 2 16 2ZM16 23.61C14.4925 23.61 13.0188 23.1628 11.7655 22.3251C10.5122 21.4874 9.53554 20.2967 8.95909 18.9037C8.38265 17.5108 8.23233 15.9781 8.52716 14.4997C8.82199 13.0213 9.54872 11.6636 10.6154 10.5983C11.6821 9.53303 13.0408 8.80809 14.5196 8.5152C15.9984 8.22231 17.5308 8.37464 18.923 8.95291C20.3152 9.53119 21.5046 10.5094 22.3407 11.7638C23.1768 13.0183 23.622 14.4925 23.62 16C23.6174 18.0192 22.8134 19.9548 21.3846 21.3817C19.9559 22.8086 18.0192 23.61 16 23.61Z" fill="black"/>
</svg>
