<svg width="32" height="32" viewBox="0 0 32 32" fill="none" xmlns="http://www.w3.org/2000/svg">
<path fill-rule="evenodd" clip-rule="evenodd" d="M17.4485 2.75C17.4485 2.33579 17.7843 2 18.1985 2H18.9985C19.4127 2 19.7485 2.33579 19.7485 2.75C19.7485 3.16421 19.4127 3.5 18.9985 3.5H18.1985C17.7843 3.5 17.4485 3.16421 17.4485 2.75ZM22.1485 2.75C22.1485 2.33579 22.4843 2 22.8985 2H23.7985C24.2127 2 24.5485 2.33579 24.5485 2.75C24.5485 3.16421 24.2127 3.5 23.7985 3.5H22.8985C22.4843 3.5 22.1485 3.16421 22.1485 2.75ZM26.9485 2.75C26.9485 2.33579 27.2843 2 27.6985 2H28.4985C28.9127 2 29.2485 2.33579 29.2485 2.75C29.2485 3.16421 28.9127 3.5 28.4985 3.5H27.6985C27.2843 3.5 26.9485 3.16421 26.9485 2.75ZM17.4485 6.65C17.4485 6.23579 17.7843 5.9 18.1985 5.9H18.9985C19.4127 5.9 19.7485 6.23579 19.7485 6.65C19.7485 7.06421 19.4127 7.4 18.9985 7.4H18.1985C17.7843 7.4 17.4485 7.06421 17.4485 6.65ZM22.1485 6.65C22.1485 6.23579 22.4843 5.9 22.8985 5.9H23.7985C24.2127 5.9 24.5485 6.23579 24.5485 6.65C24.5485 7.06421 24.2127 7.4 23.7985 7.4H22.8985C22.4843 7.4 22.1485 7.06421 22.1485 6.65ZM26.9485 6.65C26.9485 6.23579 27.2843 5.9 27.6985 5.9H28.4985C28.9127 5.9 29.2485 6.23579 29.2485 6.65C29.2485 7.06421 28.9127 7.4 28.4985 7.4H27.6985C27.2843 7.4 26.9485 7.06421 26.9485 6.65ZM8.67893 6.30956C9.25067 6.55212 9.70145 6.98375 10.0088 7.41407C10.242 7.74047 10.7484 8.36813 11.2934 9.03997C11.3379 9.0948 11.3826 9.14989 11.4274 9.20504C11.9173 9.80857 12.4135 10.42 12.6985 10.8C13.2108 11.483 13.1354 12.2228 12.8484 12.8147C12.5815 13.3651 12.1143 13.8453 11.6924 14.2144C11.2724 14.5819 11.0681 14.7816 10.9642 14.9525C10.9022 15.0543 10.8705 15.1457 10.9261 15.3681C10.9945 15.6415 11.2369 16.1555 11.6726 16.809C12.096 17.4441 12.6648 18.1556 13.3288 18.8197C13.9864 19.4772 14.6932 20.0192 15.316 20.4187C15.9424 20.8206 16.4405 21.0507 16.6927 21.1254C16.9062 21.1768 16.9961 21.1452 17.0961 21.0844C17.2669 20.9804 17.4666 20.7761 17.8341 20.3561C18.1883 19.9513 18.6457 19.4754 19.1881 19.2042C19.4718 19.0623 19.8009 18.9646 20.1643 18.9753C20.5327 18.9862 20.8861 19.107 21.2145 19.326C22.1589 19.9555 23.9935 21.4864 24.6866 22.0806C25.0696 22.4089 25.5181 22.8714 25.7722 23.4473C26.0444 24.0643 26.0834 24.7996 25.6416 25.5359C25.5812 25.6366 25.5162 25.7546 25.4443 25.8852C24.8857 26.8997 23.9088 28.6739 21.4043 28.9926C18.5745 29.4398 14.2501 28.2639 9.06306 22.9752C3.87077 17.6811 2.71574 13.3656 3.05431 10.657C3.38916 7.97817 5.45034 6.97191 6.47815 6.47014C6.54433 6.43783 6.60623 6.40762 6.66311 6.37918C7.37675 6.02236 8.0826 6.05658 8.67893 6.30956ZM8.0931 7.69044C7.86443 7.59342 7.62028 7.57764 7.33393 7.72082C7.28231 7.74663 7.22969 7.7727 7.17624 7.79919C6.13213 8.31652 4.77445 8.98922 4.54273 10.843C4.2813 12.9344 5.12627 16.819 10.134 21.9248C15.1391 27.0281 19.0096 27.8567 21.18 27.5094C21.1885 27.5081 21.197 27.5069 21.2055 27.5058C22.9205 27.2914 23.5321 26.2106 24.1058 25.1968C24.1887 25.0502 24.2708 24.9051 24.3554 24.7641C24.5136 24.5004 24.5026 24.2857 24.3998 24.0527C24.2789 23.7786 24.0274 23.4911 23.7104 23.2194C23.0036 22.6136 21.2381 21.1445 20.3825 20.574C20.261 20.493 20.1768 20.4763 20.1202 20.4747C20.0587 20.4729 19.9752 20.4877 19.8589 20.5458C19.6013 20.6746 19.3087 20.9487 18.9629 21.3439C18.6304 21.7239 18.2802 22.1196 17.876 22.3657C17.4028 22.6537 16.8943 22.722 16.3166 22.5776C16.3085 22.5756 16.3005 22.5734 16.2925 22.5711C15.8407 22.4421 15.1947 22.123 14.5061 21.6813C13.8038 21.2308 13.0106 20.6228 12.2682 19.8803C11.5322 19.1444 10.9011 18.3559 10.4245 17.641C9.96011 16.9445 9.60255 16.2585 9.47091 15.7319C9.3265 15.1543 9.39484 14.6457 9.68287 14.1725C9.9289 13.7684 10.3246 13.4181 10.7046 13.0856C11.0827 12.7547 11.3655 12.4349 11.4987 12.1603C11.6117 11.9272 11.5862 11.817 11.4985 11.7C11.2319 11.3446 10.754 10.7556 10.2547 10.1404C10.2128 10.0888 10.1707 10.0369 10.1286 9.98503C9.59868 9.33187 9.05507 8.65953 8.78822 8.28593C8.59559 8.01625 8.34636 7.79788 8.0931 7.69044ZM17.4485 10.65C17.4485 10.2358 17.7843 9.9 18.1985 9.9H18.9985C19.4127 9.9 19.7485 10.2358 19.7485 10.65C19.7485 11.0642 19.4127 11.4 18.9985 11.4H18.1985C17.7843 11.4 17.4485 11.0642 17.4485 10.65ZM22.1485 10.65C22.1485 10.2358 22.4843 9.9 22.8985 9.9H23.7985C24.2127 9.9 24.5485 10.2358 24.5485 10.65C24.5485 11.0642 24.2127 11.4 23.7985 11.4H22.8985C22.4843 11.4 22.1485 11.0642 22.1485 10.65ZM26.9485 10.65C26.9485 10.2358 27.2843 9.9 27.6985 9.9H28.4985C28.9127 9.9 29.2485 10.2358 29.2485 10.65C29.2485 11.0642 28.9127 11.4 28.4985 11.4H27.6985C27.2843 11.4 26.9485 11.0642 26.9485 10.65ZM22.1485 14.65C22.1485 14.2358 22.4843 13.9 22.8985 13.9H23.7985C24.2127 13.9 24.5485 14.2358 24.5485 14.65C24.5485 15.0642 24.2127 15.4 23.7985 15.4H22.8985C22.4843 15.4 22.1485 15.0642 22.1485 14.65Z" fill="black"/>
</svg>
