<svg width="32" height="32" viewBox="0 0 32 32" fill="none" xmlns="http://www.w3.org/2000/svg">
<path fill-rule="evenodd" clip-rule="evenodd" d="M9.37695 2.09936C9.6101 1.96568 9.89695 1.96697 10.1289 2.10274L26.5289 11.7027C26.7587 11.8373 26.9 12.0837 26.9 12.35C26.9 12.6163 26.7587 12.8627 26.5289 12.9973L10.1289 22.5973C9.89695 22.733 9.6101 22.7343 9.37695 22.6006C9.1438 22.467 9 22.2188 9 21.95V2.75C9 2.48125 9.1438 2.23304 9.37695 2.09936ZM10.5 4.05807V20.6419L24.6654 12.35L10.5 4.05807Z" fill="black"/>
<path fill-rule="evenodd" clip-rule="evenodd" d="M2 26.35C2 25.9358 2.33579 25.6 2.75 25.6H18.65C19.0642 25.6 19.4 25.9358 19.4 26.35C19.4 26.7642 19.0642 27.1 18.65 27.1H2.75C2.33579 27.1 2 26.7642 2 26.35Z" fill="black"/>
<path fill-rule="evenodd" clip-rule="evenodd" d="M23.5 26.35C23.5 25.9358 23.8358 25.6 24.25 25.6H29.15C29.5642 25.6 29.9 25.9358 29.9 26.35C29.9 26.7642 29.5642 27.1 29.15 27.1H24.25C23.8358 27.1 23.5 26.7642 23.5 26.35Z" fill="black"/>
<path fill-rule="evenodd" clip-rule="evenodd" d="M2 26.35C2 25.9358 2.33579 25.6 2.75 25.6H18.65C19.0642 25.6 19.4 25.9358 19.4 26.35C19.4 26.7642 19.0642 27.1 18.65 27.1H2.75C2.33579 27.1 2 26.7642 2 26.35Z" fill="black"/>
<path fill-rule="evenodd" clip-rule="evenodd" d="M23.5 26.35C23.5 25.9358 23.8358 25.6 24.25 25.6H29.15C29.5642 25.6 29.9 25.9358 29.9 26.35C29.9 26.7642 29.5642 27.1 29.15 27.1H24.25C23.8358 27.1 23.5 26.7642 23.5 26.35Z" fill="black"/>
<path fill-rule="evenodd" clip-rule="evenodd" d="M21.45 24.3C20.3178 24.3 19.4 25.2178 19.4 26.35C19.4 27.4822 20.3178 28.4 21.45 28.4C22.5822 28.4 23.5 27.4822 23.5 26.35C23.5 25.2178 22.5822 24.3 21.45 24.3ZM17.9 26.35C17.9 24.3894 19.4894 22.8 21.45 22.8C23.4106 22.8 25 24.3894 25 26.35C25 28.3106 23.4106 29.9 21.45 29.9C19.4894 29.9 17.9 28.3106 17.9 26.35Z" fill="black"/>
</svg>
