<svg width="32" height="32" viewBox="0 0 32 32" fill="none" xmlns="http://www.w3.org/2000/svg">
<path d="M27.14 15.3601L5.14 2.11009C5.02607 2.03985 4.89522 2.00183 4.76138 2.00006C4.62755 1.9983 4.49574 2.03287 4.38 2.10009C4.26498 2.16533 4.16926 2.2598 4.10252 2.37395C4.03579 2.4881 4.00042 2.61787 4 2.75009V29.2501C4.00042 29.3823 4.03579 29.5121 4.10252 29.6262C4.16926 29.7404 4.26498 29.8349 4.38 29.9001C4.49183 29.9667 4.61983 30.0013 4.75 30.0001C4.88735 29.998 5.02177 29.96 5.14 29.8901L27.14 16.6401C27.2496 16.5731 27.3402 16.4791 27.4031 16.367C27.466 16.2549 27.499 16.1286 27.499 16.0001C27.499 15.8716 27.466 15.7453 27.4031 15.6332C27.3402 15.5211 27.2496 15.4271 27.14 15.3601ZM5.5 27.9201V4.08009L25.3 16.0001L5.5 27.9201Z" fill="black"/>
</svg>
