<svg width="32" height="32" viewBox="0 0 32 32" fill="none" xmlns="http://www.w3.org/2000/svg">
<path fill-rule="evenodd" clip-rule="evenodd" d="M8.71967 3.21967C9.01098 2.92836 9.48274 2.92656 9.77627 3.21564L16.3763 9.71564C16.6714 10.0063 16.675 10.4811 16.3844 10.7763C16.0937 11.0714 15.6189 11.075 15.3237 10.7844L10 5.54129V29.15C10 29.5642 9.66421 29.9 9.25 29.9C8.83579 29.9 8.5 29.5642 8.5 29.15V5.56066L3.28033 10.7803C2.98744 11.0732 2.51256 11.0732 2.21967 10.7803C1.92678 10.4874 1.92678 10.0126 2.21967 9.71967L8.71967 3.21967ZM13.8 16.25C13.8 15.8358 14.1358 15.5 14.55 15.5H29.15C29.5642 15.5 29.9 15.8358 29.9 16.25C29.9 16.6642 29.5642 17 29.15 17H14.55C14.1358 17 13.8 16.6642 13.8 16.25ZM13.8 22.75C13.8 22.3358 14.1358 22 14.55 22H29.15C29.5642 22 29.9 22.3358 29.9 22.75C29.9 23.1642 29.5642 23.5 29.15 23.5H14.55C14.1358 23.5 13.8 23.1642 13.8 22.75ZM13.8 29.15C13.8 28.7358 14.1358 28.4 14.55 28.4H29.15C29.5642 28.4 29.9 28.7358 29.9 29.15C29.9 29.5642 29.5642 29.9 29.15 29.9H14.55C14.1358 29.9 13.8 29.5642 13.8 29.15Z" fill="black"/>
</svg>
