<svg width="32" height="32" viewBox="0 0 32 32" fill="none" xmlns="http://www.w3.org/2000/svg">
<path d="M10.58 21.49H6.75C6.55109 21.49 6.36032 21.569 6.21967 21.7097C6.07902 21.8503 6 22.0411 6 22.24C6 22.4389 6.07902 22.6297 6.21967 22.7703C6.36032 22.911 6.55109 22.99 6.75 22.99H10.58C10.7789 22.99 10.9697 22.911 11.1103 22.7703C11.251 22.6297 11.33 22.4389 11.33 22.24C11.33 22.0411 11.251 21.8503 11.1103 21.7097C10.9697 21.569 10.7789 21.49 10.58 21.49Z" fill="black"/>
<path d="M8.75 28H4.75C4.585 28 4.42164 27.9674 4.26932 27.9039C4.11701 27.8405 3.97877 27.7475 3.86256 27.6304C3.74636 27.5132 3.65449 27.3743 3.59227 27.2214C3.53004 27.0686 3.49868 26.905 3.5 26.74V4.74002C3.50264 4.41023 3.6355 4.09485 3.86963 3.86259C4.10377 3.63033 4.4202 3.50001 4.75 3.50002H20.75C21.0815 3.50002 21.3995 3.63171 21.6339 3.86613C21.8683 4.10056 22 4.4185 22 4.75002V9.25002C22 9.44893 22.079 9.6397 22.2197 9.78035C22.3603 9.921 22.5511 10 22.75 10C22.9489 10 23.1397 9.921 23.2803 9.78035C23.421 9.6397 23.5 9.44893 23.5 9.25002V4.75002C23.5 4.38804 23.4285 4.02962 23.2897 3.69532C23.1509 3.36103 22.9474 3.05742 22.691 2.80193C22.4346 2.54644 22.1303 2.34408 21.7955 2.20647C21.4606 2.06886 21.102 1.9987 20.74 2.00002H4.74C4.01239 2.00266 3.31548 2.29356 2.80192 2.809C2.28835 3.32444 2 4.0224 2 4.75002V26.75C2 27.4794 2.28973 28.1788 2.80546 28.6946C3.32118 29.2103 4.02065 29.5 4.75 29.5H8.75C8.94891 29.5 9.13968 29.421 9.28033 29.2803C9.42098 29.1397 9.5 28.9489 9.5 28.75C9.5 28.5511 9.42098 28.3603 9.28033 28.2197C9.13968 28.079 8.94891 28 8.75 28Z" fill="black"/>
<path d="M6.75 15C6.55109 15 6.36032 15.079 6.21967 15.2197C6.07902 15.3603 6 15.5511 6 15.75C6 15.9489 6.07902 16.1397 6.21967 16.2803C6.36032 16.421 6.55109 16.5 6.75 16.5H16.75C16.9489 16.5 17.1397 16.421 17.2803 16.2803C17.421 16.1397 17.5 15.9489 17.5 15.75C17.5 15.5511 17.421 15.3603 17.2803 15.2197C17.1397 15.079 16.9489 15 16.75 15H6.75Z" fill="black"/>
<path d="M29.08 12.64C28.486 12.0495 27.6825 11.7181 26.845 11.7181C26.0075 11.7181 25.204 12.0495 24.61 12.64L14.38 22.87C14.1473 23.1029 13.9726 23.3872 13.87 23.7L12.27 28.5C12.2299 28.6134 12.2177 28.7347 12.2343 28.8538C12.2509 28.9728 12.296 29.0862 12.3656 29.1842C12.4352 29.2822 12.5273 29.3621 12.6343 29.4171C12.7412 29.472 12.8598 29.5005 12.98 29.5C13.0593 29.5145 13.1407 29.5145 13.22 29.5L18.02 27.9C18.331 27.7936 18.6145 27.6194 18.85 27.39L29.08 17.11C29.6705 16.5161 30.002 15.7126 30.002 14.875C30.002 14.0375 29.6705 13.234 29.08 12.64ZM14.17 27.55L15 25.09L16.64 26.73L14.17 27.55ZM18 26L15.65 23.66L24.05 15.26L26.4 17.61L18 26ZM28 16L27.49 16.52L25.14 14.17L25.66 13.65C25.9714 13.3419 26.3919 13.1694 26.83 13.17C27.0506 13.1751 27.268 13.2246 27.469 13.3157C27.6701 13.4068 27.8507 13.5375 28 13.7C28.1545 13.8542 28.2771 14.0374 28.3607 14.239C28.4444 14.4406 28.4874 14.6567 28.4874 14.875C28.4874 15.0933 28.4444 15.3094 28.3607 15.5111C28.2771 15.7127 28.1545 15.8958 28 16.05V16Z" fill="black"/>
<path d="M19.49 9.25002C19.4913 9.15115 19.4729 9.05302 19.4356 8.96142C19.3984 8.86982 19.3432 8.7866 19.2733 8.71669C19.2034 8.64678 19.1202 8.59158 19.0286 8.55437C18.937 8.51715 18.8389 8.49867 18.74 8.50002H6.74C6.54109 8.50002 6.35032 8.57904 6.20967 8.71969C6.06902 8.86034 5.99 9.05111 5.99 9.25002C5.99 9.44893 6.06902 9.6397 6.20967 9.78035C6.35032 9.921 6.54109 10 6.74 10H18.74C18.9389 10 19.1297 9.921 19.2703 9.78035C19.411 9.6397 19.49 9.44893 19.49 9.25002Z" fill="black"/>
</svg>
