<svg width="32" height="32" viewBox="0 0 32 32" fill="none" xmlns="http://www.w3.org/2000/svg">
<path fill-rule="evenodd" clip-rule="evenodd" d="M5 5.75C5 5.33579 5.33579 5 5.75 5H26.15C28.2642 5 30 6.73579 30 8.85V23.15C30 23.5642 29.6642 23.9 29.25 23.9C28.8358 23.9 28.5 23.5642 28.5 23.15V8.85C28.5 7.56421 27.4358 6.5 26.15 6.5H5.75C5.33579 6.5 5 6.16421 5 5.75ZM3.55533 9.55533C3.53991 9.57075 3.5 9.62044 3.5 9.75V25.05C3.5 25.1796 3.53991 25.2293 3.55533 25.2447C3.57075 25.2601 3.62044 25.3 3.75 25.3H25.15C25.2046 25.3 25.2732 25.2758 25.3258 25.2267C25.3709 25.1846 25.4 25.1294 25.4 25.05V9.75C25.4 9.62044 25.3601 9.57075 25.3447 9.55533C25.3293 9.53992 25.2796 9.5 25.15 9.5H3.75C3.62044 9.5 3.57075 9.53992 3.55533 9.55533ZM2.49467 8.49467C2.82925 8.16009 3.27956 8 3.75 8H25.15C25.6204 8 26.0707 8.16009 26.4053 8.49467C26.7399 8.82925 26.9 9.27956 26.9 9.75V25.05C26.9 26.1121 26.0146 26.8 25.15 26.8H3.75C3.27956 26.8 2.82925 26.6399 2.49467 26.3053C2.16009 25.9707 2 25.5204 2 25.05V9.75C2 9.27956 2.16009 8.82925 2.49467 8.49467ZM10.2692 12.6038C10.498 12.469 10.7811 12.4652 11.0134 12.5939L17.5113 16.1927L18.6091 16.7916C18.8501 16.923 19 17.1755 19 17.45C19 17.7245 18.8501 17.977 18.6091 18.1084L17.5117 18.707L12.1091 21.7084L11.0091 22.3084C10.7768 22.4352 10.4948 22.43 10.2672 22.2949C10.0395 22.1598 9.9 21.9147 9.9 21.65V13.25C9.9 12.9844 10.0404 12.7387 10.2692 12.6038ZM11.4 14.5227V20.3865L16.6855 17.4501L11.4 14.5227Z" fill="black"/>
</svg>
