<svg width="32" height="32" viewBox="0 0 32 32" fill="none" xmlns="http://www.w3.org/2000/svg">
<path fill-rule="evenodd" clip-rule="evenodd" d="M15.9999 3.50538C9.09935 3.50538 3.50532 9.09941 3.50532 16C3.50532 22.9006 9.09935 28.4946 15.9999 28.4946C22.9005 28.4946 28.4946 22.9006 28.4946 16C28.4946 9.09941 22.9005 3.50538 15.9999 3.50538ZM1.99994 16C1.99994 8.26801 8.26795 2 15.9999 2C23.7319 2 29.9999 8.26801 29.9999 16C29.9999 23.732 23.7319 30 15.9999 30C8.26795 30 1.99994 23.732 1.99994 16Z" fill="black"/>
<path d="M10.4802 9.4767H21.5197C22.1218 9.4767 22.5232 9.87814 22.5232 10.4803V21.5197C22.5232 22.1219 22.1218 22.5233 21.5197 22.5233H10.4802C9.87807 22.5233 9.47664 22.1219 9.47664 21.5197V10.4803C9.47664 9.87814 9.87807 9.4767 10.4802 9.4767Z" fill="black"/>
</svg>
