<svg width="32" height="32" viewBox="0 0 32 32" fill="none" xmlns="http://www.w3.org/2000/svg">
<path fill-rule="evenodd" clip-rule="evenodd" d="M8.98033 4.21967C9.27322 4.51256 9.27322 4.98744 8.98033 5.28033L4.56066 9.7H21.05C25.9642 9.7 30 13.7358 30 18.65C30 23.5642 25.9642 27.6 21.05 27.6H2.75C2.33579 27.6 2 27.2642 2 26.85C2 26.4358 2.33579 26.1 2.75 26.1H21.05C25.1358 26.1 28.5 22.7358 28.5 18.65C28.5 14.5642 25.1358 11.2 21.05 11.2H4.53863L8.98492 15.7243C9.27526 16.0197 9.27113 16.4946 8.9757 16.7849C8.68027 17.0753 8.20541 17.0711 7.91508 16.7757L2.21508 10.9757C1.92653 10.6821 1.92858 10.2108 2.21967 9.91967L7.91967 4.21967C8.21256 3.92678 8.68744 3.92678 8.98033 4.21967Z" fill="black"/>
</svg>
