<svg width="32" height="32" viewBox="0 0 32 32" fill="none" xmlns="http://www.w3.org/2000/svg">
<path fill-rule="evenodd" clip-rule="evenodd" d="M11.9803 4.21967C12.2732 4.51256 12.2732 4.98744 11.9803 5.28033L7.56066 9.7H19.05C23.9642 9.7 28 13.7358 28 18.65C28 23.5642 23.9642 27.6 19.05 27.6C18.6358 27.6 18.3 27.2642 18.3 26.85C18.3 26.4358 18.6358 26.1 19.05 26.1C23.1358 26.1 26.5 22.7358 26.5 18.65C26.5 14.5642 23.1358 11.2 19.05 11.2H7.53863L11.9849 15.7243C12.2753 16.0197 12.2711 16.4946 11.9757 16.7849C11.6803 17.0753 11.2054 17.0711 10.9151 16.7757L5.21508 10.9757C4.92653 10.6821 4.92858 10.2108 5.21967 9.91967L10.9197 4.21967C11.2126 3.92678 11.6874 3.92678 11.9803 4.21967Z" fill="black"/>
</svg>
