<svg width="32" height="32" viewBox="0 0 32 32" fill="none" xmlns="http://www.w3.org/2000/svg">
<path fill-rule="evenodd" clip-rule="evenodd" d="M2 5.75269C2 5.33699 2.33699 5 2.75269 5H21.2186C21.6343 5 21.9713 5.33699 21.9713 5.75269V10.1685C21.9713 10.5842 21.6343 10.9211 21.2186 10.9211C20.8029 10.9211 20.466 10.5842 20.466 10.1685V6.50538H3.50538V21.4588H20.466V17.6953C20.466 17.2796 20.8029 16.9427 21.2186 16.9427C21.6343 16.9427 21.9713 17.2796 21.9713 17.6953V22.2115C21.9713 22.6272 21.6343 22.9642 21.2186 22.9642H12.7383V26.4767H16.2007C16.6164 26.4767 16.9534 26.8137 16.9534 27.2294C16.9534 27.6451 16.6164 27.9821 16.2007 27.9821H7.67025C7.25455 27.9821 6.91756 27.6451 6.91756 27.2294C6.91756 26.8137 7.25455 26.4767 7.67025 26.4767H11.233V22.9642H2.75269C2.33699 22.9642 2 22.6272 2 22.2115V5.75269ZM13.8226 9.13444C14.1165 9.42838 14.1165 9.90495 13.8226 10.1989L10.7921 13.2294H29.2473C29.663 13.2294 30 13.5664 30 13.9821C30 14.3978 29.663 14.7348 29.2473 14.7348H10.7921L13.8226 17.7653C14.1165 18.0592 14.1165 18.5358 13.8226 18.8297C13.5286 19.1237 13.052 19.1237 12.7581 18.8297L8.44268 14.5143C8.30152 14.3732 8.22222 14.1817 8.22222 13.9821C8.22222 13.7825 8.30152 13.591 8.44268 13.4498L12.7581 9.13444C13.052 8.84049 13.5286 8.84049 13.8226 9.13444Z" fill="black"/>
</svg>
