<svg width="32" height="32" viewBox="0 0 32 32" fill="none" xmlns="http://www.w3.org/2000/svg">
<path d="M27.25 2.00001H12.17C11.6775 1.9988 11.1896 2.09541 10.7347 2.28424C10.2798 2.47307 9.86691 2.75035 9.52001 3.10001L3.10001 9.52001C2.75035 9.86691 2.47307 10.2798 2.28424 10.7347C2.09541 11.1896 1.9988 11.6775 2.00001 12.17V27.25C2.00001 27.9794 2.28974 28.6788 2.80547 29.1946C3.32119 29.7103 4.02067 30 4.75001 30H27.25C27.9794 30 28.6788 29.7103 29.1946 29.1946C29.7103 28.6788 30 27.9794 30 27.25V4.75001C30 4.02067 29.7103 3.32119 29.1946 2.80547C28.6788 2.28974 27.9794 2.00001 27.25 2.00001ZM11.74 3.54001C11.8829 3.52456 12.0271 3.52456 12.17 3.54001H22.58V10.08H11.74V3.54001ZM22.58 28.54H9.43001V18.14H22.58V28.54ZM28.5 27.29C28.5 27.6215 28.3683 27.9395 28.1339 28.1739C27.8995 28.4083 27.5815 28.54 27.25 28.54H24.08V17.39C24.0774 17.1919 23.9976 17.0026 23.8575 16.8625C23.7174 16.7225 23.5281 16.6426 23.33 16.64H8.68001C8.4811 16.64 8.29033 16.719 8.14968 16.8597C8.00903 17.0003 7.93001 17.1911 7.93001 17.39V28.5H4.75001C4.41849 28.5 4.10055 28.3683 3.86613 28.1339C3.63171 27.8995 3.50001 27.5815 3.50001 27.25V12.17C3.49862 11.8744 3.55628 11.5815 3.66961 11.3084C3.78295 11.0354 3.94968 10.7877 4.16001 10.58L10.24 4.50001V10.83C10.2386 10.9297 10.2574 11.0287 10.2952 11.121C10.3331 11.2133 10.3892 11.2969 10.4602 11.367C10.5311 11.437 10.6156 11.492 10.7083 11.5286C10.8011 11.5652 10.9003 11.5827 11 11.58H23.33C23.5289 11.58 23.7197 11.501 23.8603 11.3603C24.001 11.2197 24.08 11.0289 24.08 10.83V3.50001H27.25C27.5815 3.50001 27.8995 3.63171 28.1339 3.86613C28.3683 4.10055 28.5 4.41849 28.5 4.75001V27.29Z" fill="black"/>
</svg>
