<svg width="32" height="32" viewBox="0 0 32 32" fill="none" xmlns="http://www.w3.org/2000/svg">
<path fill-rule="evenodd" clip-rule="evenodd" d="M13.24 3.49866C7.85999 3.49866 3.49866 7.85999 3.49866 13.24C3.49866 18.6199 7.85999 22.9813 13.24 22.9813C18.6199 22.9813 22.9813 18.6199 22.9813 13.24C22.9813 7.85999 18.6199 3.49866 13.24 3.49866ZM2 13.24C2 7.0323 7.0323 2 13.24 2C19.4476 2 24.4799 7.0323 24.4799 13.24C24.4799 19.4476 19.4476 24.4799 13.24 24.4799C7.0323 24.4799 2 19.4476 2 13.24Z" fill="black"/>
<path fill-rule="evenodd" clip-rule="evenodd" d="M20.6031 20.6031C20.8957 20.3104 21.3701 20.3104 21.6628 20.6031L25.3595 24.2998C25.6521 24.5924 25.6521 25.0668 25.3595 25.3595C25.0668 25.6521 24.5924 25.6521 24.2998 25.3595L20.6031 21.6628C20.3104 21.3701 20.3104 20.8957 20.6031 20.6031Z" fill="black"/>
<path fill-rule="evenodd" clip-rule="evenodd" d="M26.8974 25.4594C26.4907 25.0526 25.8661 25.0526 25.4594 25.4594C25.0526 25.8661 25.0526 26.4907 25.4594 26.8974L26.7582 28.1963C26.7718 28.2098 26.7848 28.2239 26.7973 28.2385C27.0766 28.5644 27.7649 28.6276 28.1963 28.1963C28.603 27.7895 28.603 27.165 28.1963 26.7582L26.8974 25.4594ZM24.3997 24.3997C25.3917 23.4077 26.9651 23.4077 27.9572 24.3997L29.256 25.6985C30.248 26.6905 30.248 28.264 29.256 29.256C28.2958 30.2162 26.6046 30.2857 25.6802 29.2377L24.3997 27.9572C23.4077 26.9651 23.4077 25.3917 24.3997 24.3997Z" fill="black"/>
</svg>
