<svg width="32" height="32" viewBox="0 0 32 32" fill="none" xmlns="http://www.w3.org/2000/svg">
<path fill-rule="evenodd" clip-rule="evenodd" d="M12.6288 2.09205C12.9937 1.89299 13.4509 2.02746 13.65 2.3924L19.0693 12.3278C19.1913 12.5515 19.1919 12.8217 19.0708 13.0459L13.6515 23.0817C13.454 23.4475 12.9973 23.5839 12.6316 23.3863C12.2658 23.1888 12.1294 22.7322 12.3269 22.3664L17.5521 12.6901L12.3284 3.11325C12.1294 2.74831 12.2638 2.29111 12.6288 2.09205ZM16.7434 2.09205C17.1084 1.89299 17.5656 2.02746 17.7646 2.3924L23.184 12.3278C23.306 12.5515 23.3065 12.8217 23.1855 13.0459L17.7662 23.0817C17.5686 23.4475 17.112 23.5839 16.7462 23.3863C16.3805 23.1888 16.2441 22.7322 16.4416 22.3664L21.6668 12.6901L16.4431 3.11325C16.244 2.74831 16.3785 2.29111 16.7434 2.09205ZM8.87158 2.00015C9.14807 1.99907 9.4029 2.14967 9.5353 2.3924L14.9546 12.3278C15.0766 12.5515 15.0772 12.8217 14.9561 13.0459L9.53681 23.0817C9.40489 23.326 9.14922 23.4778 8.87159 23.4767C8.59397 23.4757 8.33948 23.3218 8.20947 23.0765L2.8905 13.0407C2.77313 12.8193 2.77369 12.554 2.89197 12.333L8.21094 2.39758C8.34144 2.15382 8.59508 2.00123 8.87158 2.00015ZM8.88071 4.33602L4.40835 12.69L8.88072 21.1285L13.4375 12.6901L8.88071 4.33602ZM24.0985 18.0771C24.3924 17.7832 24.869 17.7832 25.1629 18.0771L29.1773 22.0915C29.4712 22.3854 29.4712 22.862 29.1773 23.1559C28.8833 23.4499 28.4067 23.4499 28.1128 23.1559L25.3834 20.4265V24.1291C25.3834 27.3548 22.7382 30 19.5125 30H2.75268C2.33699 30 2 29.663 2 29.2473C2 28.8316 2.33699 28.4946 2.75268 28.4946H19.5125C21.9068 28.4946 23.878 26.5234 23.878 24.1291V20.4265L21.1486 23.1559C20.8547 23.4499 20.3781 23.4499 20.0842 23.1559C19.7902 22.862 19.7902 22.3854 20.0842 22.0915L24.0985 18.0771Z" fill="black"/>
</svg>
