<svg width="32" height="32" viewBox="0 0 32 32" fill="none" xmlns="http://www.w3.org/2000/svg">
<path fill-rule="evenodd" clip-rule="evenodd" d="M16 3.50538C9.09941 3.50538 3.50538 9.09941 3.50538 16C3.50538 22.9006 9.09941 28.4946 16 28.4946C22.9006 28.4946 28.4946 22.9006 28.4946 16C28.4946 9.09941 22.9006 3.50538 16 3.50538ZM2 16C2 8.26801 8.26801 2 16 2C23.732 2 30 8.26801 30 16C30 23.732 23.732 30 16 30C8.26801 30 2 23.732 2 16ZM12.086 9.12545C12.5017 9.12545 12.8387 9.46244 12.8387 9.87814V13.9928C12.8387 14.4085 12.5017 14.7455 12.086 14.7455C11.6703 14.7455 11.3333 14.4085 11.3333 13.9928V9.87814C11.3333 9.46244 11.6703 9.12545 12.086 9.12545ZM19.914 9.12545C20.3297 9.12545 20.6667 9.46244 20.6667 9.87814V13.9928C20.6667 14.4085 20.3297 14.7455 19.914 14.7455C19.4983 14.7455 19.1613 14.4085 19.1613 13.9928V9.87814C19.1613 9.46244 19.4983 9.12545 19.914 9.12545ZM9.02509 20.6165C9.02509 20.2008 9.36208 19.8638 9.77778 19.8638H22.2222C22.6379 19.8638 22.9749 20.2008 22.9749 20.6165C22.9749 21.0322 22.6379 21.3692 22.2222 21.3692H9.77778C9.36208 21.3692 9.02509 21.0322 9.02509 20.6165Z" fill="black"/>
</svg>
