<svg width="32" height="32" viewBox="0 0 32 32" fill="none" xmlns="http://www.w3.org/2000/svg">
<path fill-rule="evenodd" clip-rule="evenodd" d="M16 3.50538C9.09941 3.50538 3.50538 9.09941 3.50538 16C3.50538 22.9006 9.09941 28.4946 16 28.4946C22.9006 28.4946 28.4946 22.9006 28.4946 16C28.4946 9.09941 22.9006 3.50538 16 3.50538ZM2 16C2 8.26801 8.26801 2 16 2C23.732 2 30 8.26801 30 16C30 23.732 23.732 30 16 30C8.26801 30 2 23.732 2 16ZM12.086 9.12545C12.5017 9.12545 12.8387 9.46244 12.8387 9.87814V13.9928C12.8387 14.4085 12.5017 14.7455 12.086 14.7455C11.6703 14.7455 11.3333 14.4085 11.3333 13.9928V9.87814C11.3333 9.46244 11.6703 9.12545 12.086 9.12545ZM19.914 9.12545C20.3297 9.12545 20.6667 9.46244 20.6667 9.87814V13.9928C20.6667 14.4085 20.3297 14.7455 19.914 14.7455C19.4983 14.7455 19.1613 14.4085 19.1613 13.9928V9.87814C19.1613 9.46244 19.4983 9.12545 19.914 9.12545ZM10.3224 22.1274C11.7807 21.0056 13.857 20.3656 16 20.3656C18.143 20.3656 20.2193 21.0056 21.6776 22.1274C22.0071 22.3809 22.0687 22.8534 21.8152 23.1829C21.5618 23.5124 21.0892 23.5741 20.7597 23.3206C19.6087 22.4352 17.8713 21.871 16 21.871C14.1287 21.871 12.3913 22.4352 11.2403 23.3206C10.9108 23.5741 10.4382 23.5124 10.1848 23.1829C9.93131 22.8534 9.99295 22.3809 10.3224 22.1274Z" fill="black"/>
</svg>
