<svg width="32" height="32" viewBox="0 0 32 32" fill="none" xmlns="http://www.w3.org/2000/svg">
<path d="M25.1 10.5H24C24 10.4 24 10.3 24 10.2C24 5.7 20.3 2 15.8 2C12 2 8.7 4.7 7.8 8.3C4.6 8.4 2 11.1 2 14.3C2 17.6 4.7 20.3 8 20.3H25C27.7 20.3 29.9 18.1 29.9 15.4C29.9 12.7 27.8 10.5 25.1 10.5ZM25.1 18.9H8C5.5 18.9 3.5 16.9 3.5 14.4C3.5 11.9 5.5 9.9 8 9.9H8.4C8.8 9.9 9.1 9.6 9.1 9.3C9.6 6.1 12.4 3.6 15.7 3.6C19.4 3.6 22.4 6.6 22.4 10.3C22.4 10.6 22.4 10.9 22.3 11.3C22.3 11.5 22.3 11.7 22.5 11.9C22.6 12.1 22.9 12.2 23.1 12.2H25C26.9 12.2 28.4 13.7 28.4 15.6C28.4 17.5 27 18.9 25.1 18.9Z" fill="black"/>
<path d="M8.9 21.9C8.5 21.7 8.1 21.9 7.9 22.3L4.9 28.9C4.7 29.3 4.9 29.7 5.3 29.9C5.3 30 5.4 30 5.6 30C5.9 30 6.2 29.8 6.3 29.6L9.3 23C9.4 22.5 9.2 22.1 8.9 21.9Z" fill="black"/>
<path d="M12.3 25.2C11.9 25 11.5 25.2 11.3 25.6L9.8 28.9C9.6 29.3 9.8 29.7 10.2 29.9C10.2 30 10.4 30 10.5 30C10.8 30 11.1 29.8 11.2 29.6L12.7 26.3C12.8 25.9 12.6 25.4 12.3 25.2Z" fill="black"/>
<path d="M18.7 21.9C18.3 21.7 17.9 21.9 17.7 22.3L14.7 28.9C14.5 29.3 14.7 29.7 15.1 29.9C15.2 29.9 15.3 30 15.4 30C15.7 30 16 29.8 16.1 29.6L19.1 23C19.2 22.5 19.1 22.1 18.7 21.9Z" fill="black"/>
<path d="M23.6 21.9C23.2 21.7 22.8 21.9 22.6 22.3L21.1 25.6C20.9 26 21.1 26.4 21.5 26.6C21.6 26.6 21.7 26.7 21.8 26.7C22.1 26.7 22.4 26.5 22.5 26.3L24 23C24.1 22.5 24 22.1 23.6 21.9Z" fill="black"/>
<path d="M13.8 21.9C13.4 21.7 13 21.9 12.8 22.3L12.6 22.7C12.4 23.1 12.6 23.5 13 23.7C13.1 23.7 13.2 23.8 13.3 23.8C13.6 23.8 13.9 23.6 14 23.4L14.2 23C14.3 22.5 14.1 22.1 13.8 21.9Z" fill="black"/>
<path d="M20.8 28.2C20.4 28 20 28.2 19.8 28.6L19.6 29C19.4 29.4 19.6 29.8 20 30C20.1 30 20.2 30.1 20.3 30.1C20.6 30.1 20.9 29.9 21 29.7L21.2 29.3C21.3 28.8 21.1 28.3 20.8 28.2Z" fill="black"/>
</svg>
