<svg width="32" height="32" viewBox="0 0 32 32" fill="none" xmlns="http://www.w3.org/2000/svg">
<path fill-rule="evenodd" clip-rule="evenodd" d="M2 5.75C2 3.63579 3.63579 2 5.75 2H26.25C28.3642 2 30 3.63579 30 5.75V26.25C30 26.2593 29.9998 26.2686 29.9995 26.2779C29.9992 26.2842 29.9989 26.2905 29.9985 26.2968C29.8745 28.2811 28.2569 29.9 26.15 29.9H5.75C3.63579 29.9 2 28.2642 2 26.15V5.75ZM5.75 3.5C4.46421 3.5 3.5 4.46421 3.5 5.75V15.2H19.9395L15.4199 10.6804C15.127 10.3875 15.127 9.91259 15.4199 9.61969C15.7128 9.3268 16.1876 9.3268 16.4805 9.61969L22.2805 15.4197C22.5734 15.7126 22.5734 16.1875 22.2805 16.4804L16.4805 22.2804C16.1876 22.5732 15.7128 22.5732 15.4199 22.2804C15.127 21.9875 15.127 21.5126 15.4199 21.2197L19.9396 16.7H3.5V26.15C3.5 27.4358 4.46421 28.4 5.75 28.4H26.15C27.4353 28.4 28.4137 27.4306 28.5 26.225V5.75C28.5 4.46421 27.5358 3.5 26.25 3.5H5.75Z" fill="black"/>
</svg>
