<svg width="32" height="32" viewBox="0 0 32 32" fill="none" xmlns="http://www.w3.org/2000/svg">
<path fill-rule="evenodd" clip-rule="evenodd" d="M22.2818 1.87887C22.2813 1.87936 22.2808 1.87984 22.2804 1.88033L15.2574 8.99059L19.297 12.9424L26.3197 5.91967C26.8268 5.41256 26.8268 4.58744 26.3197 4.08033L25.2223 2.98299C25.2208 2.98142 25.2192 2.97985 25.2176 2.97827L24.1197 1.88033C23.6131 1.37371 22.789 1.37322 22.2818 1.87887ZM25.7659 1.40517L25.1804 0.81967C24.0875 -0.273223 22.3126 -0.273223 21.2197 0.81967L21.2164 0.822954L19.9578 2.09717L19.8804 2.01967C18.3886 0.527955 16.0163 0.526778 14.5232 2.01614L10.5264 5.913C10.2299 6.20216 10.2239 6.677 10.513 6.97358C10.8022 7.27015 11.277 7.27616 11.5736 6.987L15.5736 3.087L15.5736 3.08704L15.5804 3.08033C16.4875 2.17322 17.9126 2.17322 18.8197 3.08033L18.9037 3.16438L5.11969 17.1197C5.11912 17.1202 5.11855 17.1208 5.11798 17.1214C4.84643 17.3935 4.5799 17.7897 4.43907 18.2111C4.43888 18.2117 4.4387 18.2123 4.43851 18.2128L2.03952 25.3098C1.94818 25.58 2.01801 25.8786 2.21969 26.0803C2.42137 26.282 2.71999 26.3518 2.99019 26.2605L10.0872 23.8615C10.0877 23.8613 10.0882 23.8612 10.0888 23.861C10.4853 23.7287 10.7892 23.5714 11.1804 23.1803L27.3804 6.98033C28.4732 5.88744 28.4732 4.11256 27.3804 3.01967L26.827 2.46631L27.964 1.39615C28.2657 1.11226 28.2801 0.637607 27.9962 0.335977C27.7123 0.0343463 27.2376 0.0199627 26.936 0.30385L25.7659 1.40517ZM18.2362 14.0031L14.2032 10.0578L6.30989 18.0492L10.25 21.9893L18.2362 14.0031ZM8.83932 22.7L5.60006 19.4607L3.94598 24.354L8.83932 22.7ZM2.00002 27.75C2.00002 27.3358 2.33581 27 2.75002 27H29.15C29.5642 27 29.9 27.3358 29.9 27.75C29.9 28.1642 29.5642 28.5 29.15 28.5H2.75002C2.33581 28.5 2.00002 28.1642 2.00002 27.75Z" fill="black"/>
</svg>
