<svg width="32" height="32" viewBox="0 0 32 32" fill="none" xmlns="http://www.w3.org/2000/svg">
<path d="M28.6998 28.5326H2.77566C2.58108 28.5326 2.39446 28.6099 2.25686 28.7475C2.11926 28.8851 2.04196 29.0717 2.04196 29.2663C2.04196 29.4609 2.11926 29.6475 2.25686 29.7851C2.39446 29.9227 2.58108 30 2.77566 30H28.6998C28.8944 30 29.081 29.9227 29.2186 29.7851C29.3562 29.6475 29.4335 29.4609 29.4335 29.2663C29.4335 29.0717 29.3562 28.8851 29.2186 28.7475C29.081 28.6099 28.8944 28.5326 28.6998 28.5326Z" fill="black"/>
<path d="M2.77566 27.7891C2.85329 27.8032 2.93283 27.8032 3.01045 27.7891L9.96594 25.4315C10.3653 25.2942 10.7294 25.0704 11.0323 24.776L26.9096 8.88896C27.1633 8.63627 27.3647 8.33594 27.5021 8.00522C27.6395 7.6745 27.7103 7.3199 27.7103 6.96177C27.7103 6.60364 27.6395 6.24903 27.5021 5.91831C27.3647 5.58759 27.1633 5.28726 26.9096 5.03458L26.3715 4.49653L27.477 3.37152C27.5736 3.31658 27.6565 3.24041 27.7193 3.14876C27.7822 3.05711 27.8234 2.95237 27.8399 2.84245C27.8564 2.73253 27.8477 2.6203 27.8144 2.51425C27.7812 2.40819 27.7243 2.31107 27.648 2.23022C27.5717 2.14937 27.4781 2.08691 27.3742 2.04755C27.2702 2.00819 27.1587 1.99296 27.048 2.003C26.9373 2.01305 26.8303 2.04812 26.7352 2.10555C26.64 2.16299 26.5592 2.24129 26.4987 2.33455L25.3345 3.45956L24.7965 2.92151C24.5438 2.66773 24.2435 2.46636 23.9128 2.32895C23.582 2.19154 23.2274 2.12081 22.8693 2.12081C22.5112 2.12081 22.1566 2.19154 21.8259 2.32895C21.4951 2.46636 21.1948 2.66773 20.9421 2.92151L19.6997 4.15413L19.553 3.99761C18.8514 3.30283 17.9039 2.91308 16.9165 2.91308C15.9292 2.91308 14.9817 3.30283 14.2801 3.99761L10.4551 7.82264C10.3177 7.96021 10.2405 8.14669 10.2405 8.34113C10.2405 8.53556 10.3177 8.72204 10.4551 8.85961C10.5943 8.99761 10.7824 9.07503 10.9785 9.07503C11.1745 9.07503 11.3626 8.99761 11.5018 8.85961L15.3171 5.05414C15.7406 4.63239 16.314 4.3956 16.9117 4.3956C17.5094 4.3956 18.0827 4.63239 18.5062 5.05414L18.6628 5.21066L5.05503 18.7988C4.75718 19.0989 4.53285 19.4639 4.39959 19.8651L2.04196 26.8206C2.00276 26.9315 1.99078 27.0502 2.00705 27.1667C2.02333 27.2832 2.06736 27.3941 2.13545 27.49C2.20355 27.5859 2.2937 27.664 2.39831 27.7178C2.50291 27.7715 2.61892 27.7993 2.73653 27.7989L2.77566 27.7891ZM21.9791 3.95848C22.0955 3.84076 22.2342 3.74731 22.387 3.68352C22.5398 3.61974 22.7037 3.5869 22.8693 3.5869C23.0349 3.5869 23.1988 3.61974 23.3516 3.68352C23.5044 3.74731 23.6431 3.84076 23.7595 3.95848L25.8726 6.03241C25.9915 6.14818 26.086 6.2866 26.1506 6.43949C26.2151 6.59239 26.2484 6.75667 26.2484 6.92264C26.2484 7.0886 26.2151 7.25288 26.1506 7.40578C26.086 7.55867 25.9915 7.69709 25.8726 7.81286L19.0247 14.7097L15.1116 10.7966L21.9791 3.95848ZM14.0453 11.902L17.9584 15.8151L10.1322 23.6413L6.21917 19.7282L14.0453 11.902ZM5.56373 21.0195L8.81158 24.2673L3.92024 25.9011L5.56373 21.0195Z" fill="black"/>
</svg>
