<svg width="32" height="32" viewBox="0 0 32 32" fill="none" xmlns="http://www.w3.org/2000/svg">
<path d="M15.7544 11.3665C13.8612 11.3665 12.3665 12.8612 12.3665 14.7544C12.3665 16.3488 13.4626 17.7438 15.0569 18.0427V29.2028C15.0569 29.6014 15.3559 30 15.8541 30C16.3523 30 16.6512 29.7011 16.6512 29.2028V18.0427C18.1459 17.7438 19.3416 16.3488 19.3416 14.7544C19.1423 12.8612 17.548 11.3665 15.7544 11.3665ZM15.7544 16.6477C14.6584 16.6477 13.8612 15.7509 13.8612 14.7544C13.8612 13.6584 14.758 12.8612 15.7544 12.8612C16.7509 12.8612 17.6477 13.758 17.6477 14.7544C17.6477 15.7509 16.7509 16.6477 15.7544 16.6477Z" fill="black"/>
<path d="M15.7544 6.78292C11.3701 6.78292 7.78292 10.3701 7.78292 14.7544C7.78292 16.847 8.58007 18.9395 10.0747 20.4342C10.3737 20.7331 10.8719 20.7331 11.1708 20.4342C11.4698 20.1352 11.4698 19.637 11.1708 19.3381C9.97509 18.1423 9.27758 16.4484 9.27758 14.7544C9.27758 11.1673 12.1673 8.27758 15.7544 8.27758C19.3416 8.27758 22.2313 11.1673 22.2313 14.7544C22.2313 16.4484 21.5338 18.1423 20.3381 19.3381C20.0391 19.637 20.0391 20.1352 20.3381 20.4342C20.4377 20.5338 20.637 20.6335 20.8363 20.6335C21.0356 20.6335 21.2349 20.5338 21.3345 20.4342C22.8292 18.9395 23.6263 16.9466 23.6263 14.7544C23.726 10.2705 20.1388 6.78292 15.7544 6.78292Z" fill="black"/>
<path d="M15.7544 2C8.67972 2 3 7.67972 3 14.7544C3 18.1423 4.29537 21.331 6.68683 23.7224C6.98576 24.0214 7.48399 24.0214 7.78292 23.7224C8.08185 23.4235 8.08185 22.9253 7.78292 22.6263C5.69039 20.5338 4.49466 17.6441 4.49466 14.6548C4.49466 8.47687 9.57651 3.39502 15.7544 3.39502C21.9324 3.39502 26.9146 8.57651 26.9146 14.7544C26.9146 17.7438 25.7189 20.5338 23.6263 22.726C23.3274 23.0249 23.3274 23.5231 23.6263 23.8221C23.726 23.9217 23.9253 24.0214 24.1246 24.0214C24.3238 24.0214 24.5231 23.9217 24.6228 23.8221C27.0142 21.4306 28.3096 18.242 28.3096 14.8541C28.4093 7.67971 22.7295 2 15.7544 2Z" fill="black"/>
</svg>
