<svg width="32" height="32" viewBox="0 0 32 32" fill="none" xmlns="http://www.w3.org/2000/svg">
<path fill-rule="evenodd" clip-rule="evenodd" d="M15.4603 2.18194C15.7417 1.93935 16.1583 1.93935 16.4397 2.18194L19.0567 4.43798L22.3915 3.71694C22.7678 3.63557 23.1446 3.85238 23.2634 4.21862L24.3454 7.55463L27.6814 8.63658C28.0476 8.75536 28.2644 9.13217 28.1831 9.5085L27.462 12.8433L29.7181 15.4603C29.9606 15.7417 29.9606 16.1583 29.7181 16.4397L27.462 19.0567L28.1831 22.3915C28.2644 22.7678 28.0476 23.1446 27.6814 23.2634L24.3454 24.3454L23.2634 27.6814C23.1446 28.0476 22.7678 28.2644 22.3915 28.1831L19.0567 27.462L16.4397 29.7181C16.1583 29.9606 15.7417 29.9606 15.4603 29.7181L12.8433 27.462L9.5085 28.1831C9.13217 28.2644 8.75536 28.0476 8.63658 27.6814L7.55463 24.3454L4.21862 23.2634C3.85238 23.1446 3.63557 22.7678 3.71694 22.3915L4.43798 19.0567L2.18194 16.4397C1.93935 16.1583 1.93935 15.7417 2.18194 15.4603L4.43798 12.8433L3.71694 9.5085C3.63557 9.13217 3.85238 8.75536 4.21862 8.63658L7.55463 7.55463L8.63658 4.21862C8.75536 3.85238 9.13217 3.63557 9.5085 3.71694L12.8433 4.43798L15.4603 2.18194ZM15.95 3.74022L13.5397 5.81806C13.3615 5.9717 13.1215 6.03279 12.8915 5.98306L9.85424 5.32635L8.86342 8.38138C8.78926 8.61002 8.61002 8.78926 8.38138 8.86342L5.32635 9.85424L5.98306 12.8915C6.03279 13.1215 5.9717 13.3615 5.81806 13.5397L3.74022 15.95L5.81806 18.3603C5.9717 18.5385 6.03279 18.7785 5.98306 19.0085L5.32635 22.0458L8.38138 23.0366C8.61002 23.1107 8.78926 23.29 8.86342 23.5186L9.85424 26.5736L12.8915 25.9169C13.1215 25.8672 13.3615 25.9283 13.5397 26.0819L15.95 28.1598L18.3603 26.0819C18.5385 25.9283 18.7785 25.8672 19.0085 25.9169L22.0458 26.5736L23.0366 23.5186C23.1107 23.29 23.29 23.1107 23.5186 23.0366L26.5736 22.0458L25.9169 19.0085C25.8672 18.7785 25.9283 18.5385 26.0819 18.3603L28.1598 15.95L26.0819 13.5397C25.9283 13.3615 25.8672 13.1215 25.9169 12.8915L26.5736 9.85424L23.5186 8.86342C23.29 8.78926 23.1107 8.61002 23.0366 8.38138L22.0458 5.32635L19.0085 5.98306C18.7785 6.03279 18.5385 5.9717 18.3603 5.81806L15.95 3.74022Z" fill="black"/>
<path fill-rule="evenodd" clip-rule="evenodd" d="M15.95 9.2C12.2221 9.2 9.2 12.2221 9.2 15.95C9.2 19.6779 12.2221 22.7 15.95 22.7C19.6779 22.7 22.7 19.6779 22.7 15.95C22.7 12.2221 19.6779 9.2 15.95 9.2ZM7.7 15.95C7.7 11.3937 11.3937 7.7 15.95 7.7C20.5063 7.7 24.2 11.3937 24.2 15.95C24.2 20.5063 20.5063 24.2 15.95 24.2C11.3937 24.2 7.7 20.5063 7.7 15.95Z" fill="black"/>
<path d="M16.15 12.15L17.05 14.25L19.35 14.45C19.55 14.45 19.65 14.75 19.45 14.95L17.75 16.45L18.25 18.65C18.25 18.85 18.05 19.05 17.85 18.95L15.85 17.75L13.85 18.95C13.65 19.05 13.45 18.85 13.45 18.65L13.95 16.45L12.35 14.95C12.15 14.75 12.25 14.55 12.45 14.45L14.75 14.25L15.65 12.15C15.85 11.95 16.05 11.95 16.15 12.15Z" fill="black"/>
</svg>
