<svg width="32" height="32" viewBox="0 0 32 32" fill="none" xmlns="http://www.w3.org/2000/svg">
<path d="M14.5044 13.7642C14.5044 14.061 14.5924 14.3511 14.7573 14.5978C14.9222 14.8446 15.1566 15.0369 15.4307 15.1505C15.7049 15.2641 16.0066 15.2938 16.2977 15.2359C16.5888 15.178 16.8561 15.0351 17.066 14.8252C17.2759 14.6154 17.4188 14.348 17.4767 14.0569C17.5346 13.7658 17.5048 13.4641 17.3913 13.1899C17.2777 12.9158 17.0854 12.6814 16.8386 12.5165C16.5919 12.3516 16.3017 12.2636 16.005 12.2636C15.607 12.2636 15.2253 12.4217 14.9439 12.7031C14.6625 12.9845 14.5044 13.3662 14.5044 13.7642Z" fill="black"/>
<path d="M23.1875 15.5048C24.523 15.5048 25.8285 15.1088 26.9389 14.3668C28.0494 13.6248 28.9148 12.5703 29.4259 11.3364C29.937 10.1026 30.0707 8.74491 29.8102 7.43507C29.5496 6.12523 28.9065 4.92207 27.9622 3.97773C27.0178 3.03339 25.8147 2.39029 24.5048 2.12975C23.195 1.86921 21.8373 2.00293 20.6035 2.514C19.3696 3.02507 18.3151 3.89054 17.5731 5.00097C16.8311 6.11139 16.4351 7.4169 16.4351 8.7524C16.4351 10.5432 17.1465 12.2607 18.4128 13.5271C19.6792 14.7934 21.3967 15.5048 23.1875 15.5048ZM21.9171 5.59128L22.3172 5.18113C22.6024 4.86494 22.9489 4.61005 23.3357 4.43192C23.7224 4.2538 24.1414 4.15617 24.567 4.14498C24.9927 4.13378 25.4162 4.20924 25.8118 4.36678C26.2074 4.52432 26.5668 4.76065 26.8682 5.0614C27.1697 5.36215 27.4068 5.72105 27.5652 6.11629C27.7237 6.51152 27.8001 6.93485 27.7899 7.36053C27.7796 7.78622 27.6829 8.20538 27.5057 8.59254C27.3284 8.97971 27.0743 9.32679 26.7588 9.6127L26.3486 10.0028C26.2924 10.0634 26.2243 10.1118 26.1486 10.1449C26.0729 10.1779 25.9911 10.195 25.9085 10.195C25.8258 10.195 25.7441 10.1779 25.6683 10.1449C25.5926 10.1118 25.5245 10.0634 25.4683 10.0028C25.409 9.94589 25.3618 9.87755 25.3296 9.80191C25.2974 9.72627 25.2807 9.6449 25.2807 9.56268C25.2807 9.48046 25.2974 9.39909 25.3296 9.32346C25.3618 9.24782 25.409 9.17947 25.4683 9.12253L25.8785 8.71238C26.2289 8.35393 26.4263 7.87322 26.4287 7.37191C26.4223 7.00154 26.3072 6.6412 26.0978 6.33564C25.8884 6.03009 25.5939 5.79278 25.2508 5.65319C24.9076 5.5136 24.5311 5.47787 24.1678 5.55045C23.8046 5.62303 23.4707 5.80072 23.2075 6.06144L22.7974 6.47159C22.6806 6.58832 22.5223 6.65391 22.3572 6.65391C22.1921 6.65391 22.0338 6.58832 21.9171 6.47159C21.8003 6.35485 21.7347 6.19652 21.7347 6.03143C21.7347 5.86634 21.8003 5.70801 21.9171 5.59128ZM21.787 9.26258L23.6977 7.3519C23.8175 7.24271 23.9748 7.18387 24.1368 7.18763C24.2989 7.19138 24.4532 7.25743 24.5679 7.37205C24.6825 7.48667 24.7485 7.64104 24.7523 7.80309C24.756 7.96515 24.6972 8.12241 24.588 8.24222L22.6773 10.1529C22.5555 10.2678 22.3946 10.3322 22.2272 10.333C22.1456 10.3334 22.0647 10.3177 21.9891 10.2868C21.9136 10.2559 21.8449 10.2104 21.787 10.1529C21.6715 10.0335 21.6069 9.87387 21.6069 9.70774C21.6069 9.5416 21.6715 9.38198 21.787 9.26258ZM19.6162 7.89209L20.0064 7.48195C20.1231 7.36521 20.2815 7.29963 20.4465 7.29963C20.6116 7.29963 20.77 7.36521 20.8867 7.48195C21.0034 7.59868 21.069 7.75701 21.069 7.9221C21.069 8.08719 21.0034 8.24552 20.8867 8.36226L20.4765 8.7724C20.302 8.94717 20.1635 9.15462 20.0691 9.38291C19.9747 9.61119 19.9262 9.85584 19.9264 10.1029C19.9237 10.3541 19.9713 10.6033 20.0665 10.8357C20.1617 11.0682 20.3025 11.2793 20.4806 11.4564C20.6587 11.6336 20.8705 11.7733 21.1034 11.8673C21.3364 11.9612 21.5859 12.0076 21.837 12.0035C22.3349 11.9986 22.8115 11.8014 23.1675 11.4534L23.5777 11.0032C23.6944 10.8865 23.8527 10.8209 24.0178 10.8209C24.1829 10.8209 24.3412 10.8865 24.458 11.0032C24.5747 11.1199 24.6403 11.2783 24.6403 11.4434C24.6403 11.6084 24.5747 11.7668 24.458 11.8835L24.0478 12.2937C23.6098 12.7277 23.0538 13.0232 22.449 13.1434C21.8442 13.2636 21.2175 13.2031 20.6468 12.9695C20.0762 12.7359 19.5869 12.3395 19.24 11.8298C18.893 11.32 18.7038 10.7194 18.6959 10.1029C18.6951 9.69177 18.7761 9.2846 18.9341 8.90507C19.0921 8.52553 19.324 8.18119 19.6162 7.89209Z" fill="black"/>
<path d="M29.1096 15.5948C28.9186 15.5418 28.7145 15.5655 28.5407 15.6608C28.367 15.7561 28.2373 15.9155 28.1793 16.105C26.8488 20.7667 21.847 24.0078 16.005 24.0078C14.8292 24.0071 13.6576 23.8694 12.5137 23.5977C12.4094 23.5722 12.3008 23.5698 12.1954 23.5905C12.09 23.6112 11.9904 23.6546 11.9035 23.7177L7.00177 27.269L8.54232 22.6773C8.59609 22.5195 8.59578 22.3483 8.54144 22.1907C8.4871 22.0331 8.38181 21.8981 8.24221 21.807C6.83615 20.985 5.66172 19.8196 4.82891 18.4199C3.99609 17.0202 3.53215 15.4321 3.48052 13.8042C3.50053 8.10217 9.11252 3.50054 16.005 3.50054C16.2031 3.49794 16.3925 3.41807 16.5326 3.27792C16.6728 3.13778 16.7526 2.94845 16.7552 2.75027C16.7526 2.55209 16.6728 2.36276 16.5326 2.22262C16.3925 2.08247 16.2031 2.00259 16.005 2C8.28223 2 2 7.27187 2 13.7642C2.03607 15.559 2.51071 17.3178 3.38254 18.8871C4.25437 20.4564 5.4969 21.7885 7.00177 22.7674L4.85101 29.0096C4.79818 29.1599 4.79597 29.3234 4.84474 29.4752C4.89351 29.6269 4.99056 29.7585 5.12111 29.8499C5.24683 29.9479 5.40186 30.0007 5.56126 29.9999C5.71927 30.0021 5.87372 29.953 6.00142 29.8599L12.5037 25.1482C13.6539 25.3997 14.8277 25.5272 16.005 25.5283C22.5073 25.5283 28.1093 21.827 29.6198 16.5252C29.6488 16.4306 29.6585 16.3312 29.6484 16.2328C29.6384 16.1344 29.6087 16.039 29.5611 15.9523C29.5135 15.8656 29.4491 15.7892 29.3715 15.7279C29.294 15.6665 29.2049 15.6212 29.1096 15.5948Z" fill="black"/>
<path d="M10.443 15.2647C11.2717 15.2647 11.9435 14.5929 11.9435 13.7642C11.9435 12.9355 11.2717 12.2636 10.443 12.2636C9.61427 12.2636 8.94246 12.9355 8.94246 13.7642C8.94246 14.5929 9.61427 15.2647 10.443 15.2647Z" fill="black"/>
</svg>
