<svg width="32" height="32" viewBox="0 0 32 32" fill="none" xmlns="http://www.w3.org/2000/svg">
<path d="M15.9501 15.2522C16.7762 15.2522 17.4458 14.5825 17.4458 13.7565C17.4458 12.9305 16.7762 12.2609 15.9501 12.2609C15.1241 12.2609 14.4545 12.9305 14.4545 13.7565C14.4545 14.5825 15.1241 15.2522 15.9501 15.2522Z" fill="black"/>
<path d="M10.4661 15.2522C11.2921 15.2522 11.9617 14.5825 11.9617 13.7565C11.9617 12.9305 11.2921 12.2609 10.4661 12.2609C9.64004 12.2609 8.97041 12.9305 8.97041 13.7565C8.97041 14.5825 9.64004 15.2522 10.4661 15.2522Z" fill="black"/>
<path d="M21.5339 15.2522C22.36 15.2522 23.0296 14.5825 23.0296 13.7565C23.0296 12.9305 22.36 12.2609 21.5339 12.2609C20.7079 12.2609 20.0383 12.9305 20.0383 13.7565C20.0383 14.5825 20.7079 15.2522 21.5339 15.2522Z" fill="black"/>
<path fill-rule="evenodd" clip-rule="evenodd" d="M15.9501 3.57672C8.96516 3.57672 3.57672 8.23875 3.57672 13.7565C3.57672 17.0291 5.39031 19.891 8.30099 21.7689C8.60452 21.9647 8.73613 22.3417 8.6204 22.6839L7.11529 27.1338L11.8997 23.6862C12.0702 23.5633 12.2828 23.5136 12.4902 23.5482C13.6944 23.7489 14.8286 23.9363 16.0499 23.9363C23.0348 23.9363 28.4233 19.2743 28.4233 13.7565C28.4233 8.2422 23.039 3.57672 15.9501 3.57672ZM2 13.7565C2 7.1096 8.3774 2 15.9501 2C23.6184 2 30 7.10615 30 13.7565C30 20.4034 23.6226 25.513 16.0499 25.513C14.8026 25.513 13.6483 25.3381 12.5551 25.1574L6.04115 29.8512C5.7631 30.0516 5.38746 30.0494 5.11181 29.8457C4.83616 29.6421 4.72365 29.2837 4.83346 28.959L6.93446 22.7474C3.94997 20.6289 2 17.4556 2 13.7565Z" fill="black"/>
</svg>
