<svg width="32" height="32" viewBox="0 0 32 32" fill="none" xmlns="http://www.w3.org/2000/svg">
<path d="M24.4 21.4L26 20.6C26.4 20.4 26.5 20 26.3 19.6C26.1 19.2 25.7 19.1 25.3 19.3L23 20.4L16.8 16L23 11.6L25.3 12.8C25.4 12.9 25.5 12.9 25.6 12.9C25.9 12.9 26.1 12.7 26.3 12.5C26.5 12.1 26.3 11.7 26 11.5L24.4 10.7L26.8 9C27.1 8.8 27.2 8.3 27 8C26.8 7.7 26.3 7.6 26 7.8L23.6 9.5L23.4 7.7C23.2 7.2 22.8 7 22.4 7C22 7.1 21.7 7.4 21.8 7.8L22.1 10.3L16.3 14.4V7.4L18.6 6.2C19 6 19.1 5.6 18.9 5.2C18.7 4.8 18.3 4.7 17.9 4.9L16.3 5.7V2.7C16.3 2.3 16 2 15.5 2C15 2 14.7 2.3 14.7 2.8V5.8L13.2 4.9C12.8 4.7 12.4 4.8 12.2 5.2C12 5.6 12.2 6 12.5 6.2L14.8 7.4V14.5L9.00002 10.4L9.30002 7.9C9.40002 7.5 9.10002 7.1 8.70002 7C8.30002 7 7.90002 7.2 7.80002 7.7L7.60002 9.4L5.20002 7.7C4.90002 7.5 4.40002 7.5 4.20002 7.9C4.00002 8.2 4.00002 8.7 4.40002 8.9L6.80002 10.6L5.10002 11.4C4.70002 11.6 4.60002 12 4.80002 12.4C4.90002 12.7 5.20002 12.8 5.50002 12.8C5.60002 12.8 5.70002 12.8 5.80002 12.7L8.10002 11.5L14.2 15.9L8.10002 20.3L5.80002 19.1C5.40002 18.9 5.00002 19.1 4.80002 19.4C4.60002 19.8 4.80002 20.2 5.10002 20.4L6.70002 21.2L4.30002 22.9C4.00002 23.1 3.90002 23.6 4.10002 23.9C4.20002 24.1 4.50002 24.2 4.70002 24.2C4.90002 24.2 5.00002 24.2 5.10002 24.1L7.50002 22.4L7.70002 24.2C7.90002 24.7 8.20002 25 8.60002 25H8.70002C9.10002 24.9 9.40002 24.6 9.30002 24.2L9.00002 21.6L14.8 17.5V24.6L12.5 25.8C12.1 26 12 26.4 12.2 26.8C12.4 27.2 12.8 27.3 13.2 27.1L14.8 26.3V29.3C14.8 29.7 15.1 30.1 15.6 30.1C16.1 30.1 16.4 29.8 16.4 29.3V26.3L18 27.1C18.1 27.2 18.2 27.2 18.3 27.2C18.6 27.2 18.8 27.1 19 26.8C19.2 26.4 19.1 26 18.7 25.8L16.4 24.6V17.5L22.2 21.6L21.9 24.1C21.8 24.5 22.1 24.9 22.5 24.9H22.6C23 24.9 23.3 24.6 23.3 24.3L23.5 22.5L25.9 24.2C26 24.3 26.2 24.3 26.3 24.3C26.5 24.3 26.8 24.2 26.9 24C27.1 23.7 27.1 23.2 26.7 23L24.4 21.4Z" fill="black"/>
</svg>
