<svg width="32" height="32" viewBox="0 0 32 32" fill="none" xmlns="http://www.w3.org/2000/svg">
<path d="M24.4001 21.4L26.0001 20.6C26.4001 20.4 26.5001 20 26.3001 19.6C26.1001 19.2 25.7001 19.1 25.3001 19.3L23.0001 20.4L16.8001 16L23.0001 11.6L25.3001 12.8C25.4001 12.9 25.5001 12.9 25.6001 12.9C25.9001 12.9 26.1001 12.7 26.3001 12.5C26.5001 12.1 26.3001 11.7 26.0001 11.5L24.4001 10.7L26.8001 9C27.1001 8.8 27.2001 8.3 27.0001 8C26.8001 7.7 26.3001 7.6 26.0001 7.8L23.6001 9.5L23.4001 7.7C23.2001 7.2 22.8001 7 22.4001 7C22.0001 7.1 21.7001 7.4 21.8001 7.8L22.1001 10.3L16.3001 14.4V7.4L18.6001 6.2C19.0001 6 19.1001 5.6 18.9001 5.2C18.7001 4.8 18.3001 4.7 17.9001 4.9L16.3001 5.7V2.7C16.3001 2.3 16.0001 2 15.5001 2C15.0001 2 14.7001 2.3 14.7001 2.8V5.8L13.2001 4.9C12.8001 4.7 12.4001 4.8 12.2001 5.2C12.0001 5.6 12.2001 6 12.5001 6.2L14.8001 7.4V14.5L9.00015 10.4L9.30015 7.9C9.40015 7.5 9.10015 7.1 8.70015 7C8.30015 7 7.90015 7.2 7.80015 7.7L7.60015 9.4L5.20015 7.7C4.90015 7.5 4.40015 7.5 4.20015 7.9C4.00015 8.2 4.00015 8.7 4.40015 8.9L6.80015 10.6L5.10015 11.4C4.70015 11.6 4.60015 12 4.80015 12.4C4.90015 12.7 5.20015 12.8 5.50015 12.8C5.60015 12.8 5.70015 12.8 5.80015 12.7L8.10015 11.5L14.2001 15.9L8.10015 20.3L5.80015 19.1C5.40015 18.9 5.00015 19.1 4.80015 19.4C4.60015 19.8 4.80015 20.2 5.10015 20.4L6.70015 21.2L4.30015 22.9C4.00015 23.1 3.90015 23.6 4.10015 23.9C4.20015 24.1 4.50015 24.2 4.70015 24.2C4.90015 24.2 5.00015 24.2 5.10015 24.1L7.50015 22.4L7.70015 24.2C7.90015 24.7 8.20015 25 8.60015 25H8.70015C9.10015 24.9 9.40015 24.6 9.30015 24.2L9.00015 21.6L14.8001 17.5V24.6L12.5001 25.8C12.1001 26 12.0001 26.4 12.2001 26.8C12.4001 27.2 12.8001 27.3 13.2001 27.1L14.8001 26.3V29.3C14.8001 29.7 15.1001 30.1 15.6001 30.1C16.1001 30.1 16.4001 29.8 16.4001 29.3V26.3L18.0001 27.1C18.1001 27.2 18.2001 27.2 18.3001 27.2C18.6001 27.2 18.8001 27.1 19.0001 26.8C19.2001 26.4 19.1001 26 18.7001 25.8L16.4001 24.6V17.5L22.2001 21.6L21.9001 24.1C21.8001 24.5 22.1001 24.9 22.5001 24.9H22.6001C23.0001 24.9 23.3001 24.6 23.3001 24.3L23.5001 22.5L25.9001 24.2C26.0001 24.3 26.2001 24.3 26.3001 24.3C26.5001 24.3 26.8001 24.2 26.9001 24C27.1001 23.7 27.1001 23.2 26.7001 23L24.4001 21.4Z" fill="black"/>
</svg>
