<svg width="32" height="32" viewBox="0 0 32 32" fill="none" xmlns="http://www.w3.org/2000/svg">
<path d="M22.94 16.0069C21.605 16.0069 20.2999 16.4028 19.1899 17.1445C18.0799 17.8862 17.2147 18.9404 16.7038 20.1738C16.1929 21.4072 16.0592 22.7644 16.3197 24.0737C16.5801 25.3831 17.223 26.5858 18.167 27.5298C19.111 28.4738 20.3138 29.1167 21.6231 29.3772C22.9325 29.6376 24.2897 29.504 25.5231 28.9931C26.7565 28.4822 27.8107 27.617 28.5524 26.507C29.2941 25.3969 29.69 24.0919 29.69 22.7569C29.6874 20.9675 28.9753 19.2521 27.71 17.9868C26.4448 16.7215 24.7294 16.0095 22.94 16.0069ZM26.07 24.7769C26.0009 24.8816 25.9075 24.9681 25.7978 25.029C25.6882 25.0899 25.5654 25.1235 25.44 25.1269C25.2841 25.1363 25.1295 25.0942 25 25.0069L22.5 23.3969C22.3953 23.3285 22.3094 23.2351 22.25 23.1251C22.1906 23.015 22.1597 22.8919 22.16 22.7669V19.4169C22.16 19.218 22.239 19.0272 22.3797 18.8865C22.5203 18.7459 22.7111 18.6669 22.91 18.6669C23.1089 18.6669 23.2997 18.7459 23.4403 18.8865C23.581 19.0272 23.66 19.218 23.66 19.4169V22.4169L25.81 23.8169C25.9726 23.9166 26.0903 24.0752 26.1388 24.2597C26.1872 24.4441 26.1626 24.6401 26.07 24.8069V24.7769Z" fill="black"/>
<path d="M29.63 10.4869C29.3627 10.0515 28.9828 9.69628 28.5305 9.45869C28.0782 9.2211 27.5702 9.10992 27.06 9.13687H21.13C21.5168 7.40259 21.4722 5.59988 21 3.88687C20.8735 3.37503 20.5872 2.91682 20.1826 2.57875C19.778 2.24069 19.2762 2.04037 18.75 2.00687C18.2221 1.96976 17.6945 2.08355 17.2288 2.33499C16.7631 2.58642 16.3786 2.96511 16.12 3.42687C16.0689 3.52591 16.0415 3.63545 16.04 3.74687V5.74687C16.0365 6.55963 15.862 7.36255 15.5278 8.1034C15.1935 8.84426 14.7071 9.50644 14.1 10.0469C12.94 11.3169 11.34 13.0069 10.26 13.0069V12.3769C10.26 12.178 10.181 11.9872 10.0403 11.8465C9.89968 11.7059 9.70891 11.6269 9.51 11.6269H2.75C2.55109 11.6269 2.36032 11.7059 2.21967 11.8465C2.07902 11.9872 2 12.178 2 12.3769V24.2569C2.00259 24.455 2.08244 24.6442 2.22253 24.7843C2.36263 24.9244 2.55189 25.0043 2.75 25.0069H9.49C9.68811 25.0043 9.87737 24.9244 10.0175 24.7843C10.1576 24.6442 10.2374 24.455 10.24 24.2569V23.8269H11.24C11.6485 23.943 12.0294 24.1402 12.36 24.4069C12.7297 24.7349 13.1897 24.944 13.68 25.0069H14.12C14.3189 25.0069 14.5097 24.9279 14.6503 24.7872C14.791 24.6465 14.87 24.4558 14.87 24.2569C14.87 24.058 14.791 23.8672 14.6503 23.7265C14.5097 23.5859 14.3189 23.5069 14.12 23.5069H13.8C13.6002 23.407 13.4095 23.2899 13.23 23.1569C12.6591 22.6885 11.9641 22.3966 11.23 22.3169H10.23V14.4969C11.83 14.4969 13.34 13.0369 15.16 11.1369C15.8931 10.4525 16.4795 9.62621 16.8835 8.70824C17.2874 7.79027 17.5006 6.79976 17.51 5.79687V4.00687C17.6537 3.85831 17.8263 3.74084 18.0173 3.66171C18.2082 3.58259 18.4134 3.5435 18.62 3.54687C19.04 3.54687 19.33 3.84687 19.5 4.38687C19.9301 6.06983 19.9301 7.83391 19.5 9.51687L19.45 9.79687C19.4341 9.90478 19.441 10.0148 19.4703 10.1199C19.4996 10.225 19.5506 10.3227 19.62 10.4069C19.6893 10.4911 19.7763 10.559 19.8748 10.6056C19.9733 10.6523 20.081 10.6766 20.19 10.6769H27.01C27.256 10.654 27.5037 10.6977 27.727 10.8032C27.9504 10.9087 28.1414 11.0723 28.28 11.2769C28.3986 11.5216 28.4602 11.79 28.4602 12.0619C28.4602 12.3338 28.3986 12.6022 28.28 12.8469H23.37C23.1711 12.8469 22.9803 12.9259 22.8397 13.0665C22.699 13.2072 22.62 13.398 22.62 13.5969C22.62 13.7958 22.699 13.9865 22.8397 14.1272C22.9803 14.2679 23.1711 14.3469 23.37 14.3469H28.27C28.427 14.8925 28.406 15.474 28.21 16.0069C28.1683 16.1003 28.1463 16.2013 28.1456 16.3036C28.1449 16.4058 28.1654 16.5072 28.2058 16.6011C28.2462 16.6951 28.3056 16.7797 28.3804 16.8495C28.4551 16.9193 28.5435 16.9729 28.64 17.0069C28.7254 17.0426 28.8175 17.0596 28.91 17.0569C29.0618 17.0583 29.2104 17.0131 29.3357 16.9272C29.4609 16.8413 29.5567 16.719 29.61 16.5769C29.9646 15.6358 29.9646 14.5979 29.61 13.6569C29.8774 13.1721 30.0193 12.6281 30.0228 12.0744C30.0263 11.5208 29.8913 10.975 29.63 10.4869ZM8.74 23.5069H3.5V13.1169H8.74V23.5069Z" fill="black"/>
</svg>
