<svg width="32" height="32" viewBox="0 0 32 32" fill="none" xmlns="http://www.w3.org/2000/svg">
<path d="M29.63 10.4866C29.3627 10.0512 28.9828 9.69603 28.5305 9.45843C28.0782 9.22084 27.5702 9.10966 27.06 9.13662H21.13C21.5168 7.40233 21.4722 5.59963 21 3.88662C20.8716 3.37397 20.5833 2.91549 20.177 2.57751C19.7708 2.23953 19.2675 2.03959 18.74 2.00662C18.2135 1.97023 17.6876 2.08444 17.2237 2.3359C16.7597 2.58735 16.3769 2.96566 16.12 3.42662C16.0689 3.52566 16.0415 3.6352 16.04 3.74662V5.74662C16.0365 6.55937 15.862 7.3623 15.5278 8.10315C15.1935 8.844 14.7071 9.50619 14.1 10.0466C12.94 11.3166 11.34 13.0066 10.26 13.0066V12.3766C10.26 12.1777 10.181 11.9869 10.0403 11.8463C9.89968 11.7056 9.70891 11.6266 9.51 11.6266H2.75C2.55109 11.6266 2.36032 11.7056 2.21967 11.8463C2.07902 11.9869 2 12.1777 2 12.3766V24.2566C2.00259 24.4547 2.08244 24.644 2.22253 24.7841C2.36263 24.9242 2.55189 25.004 2.75 25.0066H9.49C9.68811 25.004 9.87737 24.9242 10.0175 24.7841C10.1576 24.644 10.2374 24.4547 10.24 24.2566V23.8266H11.24C11.6485 23.9427 12.0294 24.14 12.36 24.4066C12.7297 24.7347 13.1897 24.9438 13.68 25.0066H14.12C14.3189 25.0066 14.5097 24.9276 14.6503 24.7869C14.791 24.6463 14.87 24.4555 14.87 24.2566C14.87 24.0577 14.791 23.8669 14.6503 23.7263C14.5097 23.5856 14.3189 23.5066 14.12 23.5066H13.8C13.6002 23.4068 13.4095 23.2896 13.23 23.1566C12.6591 22.6882 11.9641 22.3963 11.23 22.3166H10.23V14.4966C11.83 14.4966 13.34 13.0366 15.16 11.1366C15.8931 10.4522 16.4795 9.62596 16.8835 8.70798C17.2874 7.79001 17.5006 6.7995 17.51 5.79662V4.00662C17.653 3.85709 17.8255 3.73897 18.0166 3.65977C18.2077 3.58057 18.4132 3.54204 18.62 3.54662C19.04 3.54662 19.33 3.85662 19.5 4.38662C19.9301 6.06958 19.9301 7.83366 19.5 9.51662L19.45 9.80662C19.4353 9.91451 19.4428 10.0243 19.4721 10.1292C19.5013 10.234 19.5516 10.3319 19.62 10.4166C19.6915 10.4975 19.7792 10.5624 19.8774 10.6072C19.9756 10.652 20.0821 10.6756 20.19 10.6766H27.01C27.256 10.6538 27.5037 10.6974 27.727 10.803C27.9504 10.9085 28.1414 11.0721 28.28 11.2766C28.3986 11.5213 28.4602 11.7897 28.4602 12.0616C28.4602 12.3335 28.3986 12.6019 28.28 12.8466H23.37C23.1711 12.8466 22.9803 12.9256 22.8397 13.0663C22.699 13.2069 22.62 13.3977 22.62 13.5966C22.62 13.7955 22.699 13.9863 22.8397 14.1269C22.9803 14.2676 23.1711 14.3466 23.37 14.3466H28.27C28.427 14.8923 28.406 15.4737 28.21 16.0066C28.1712 16.1004 28.1516 16.2009 28.1523 16.3024C28.153 16.4038 28.174 16.5041 28.2141 16.5973C28.2542 16.6905 28.3125 16.7747 28.3857 16.845C28.4588 16.9153 28.5453 16.9703 28.64 17.0066C28.7267 17.0376 28.8179 17.0545 28.91 17.0566C29.0627 17.0559 29.2115 17.0086 29.3366 16.921C29.4617 16.8335 29.5571 16.7098 29.61 16.5666C29.9649 15.6291 29.9649 14.5942 29.61 13.6566C29.8757 13.1712 30.0166 12.6275 30.02 12.0741C30.0235 11.5208 29.8895 10.9753 29.63 10.4866ZM8.74 23.5066H3.5V13.1166H8.74V23.5066Z" fill="black"/>
<path d="M22.94 16.0066C21.605 16.0066 20.2999 16.4025 19.1899 17.1442C18.0799 17.8859 17.2147 18.9401 16.7038 20.1735C16.1929 21.4069 16.0592 22.7641 16.3197 24.0735C16.5801 25.3828 17.223 26.5856 18.167 27.5296C19.111 28.4736 20.3138 29.1165 21.6231 29.3769C22.9325 29.6374 24.2897 29.5037 25.5231 28.9928C26.7565 28.4819 27.8107 27.6167 28.5524 26.5067C29.2941 25.3967 29.69 24.0916 29.69 22.7566C29.6874 20.9672 28.9753 19.2519 27.71 17.9866C26.4448 16.7213 24.7294 16.0093 22.94 16.0066ZM26 23.0066C25.8625 23.1296 25.6845 23.1976 25.5 23.1976C25.3155 23.1976 25.1375 23.1296 25 23.0066L23.69 21.7066V25.7066C23.69 25.9055 23.611 26.0963 23.4703 26.2369C23.3297 26.3776 23.1389 26.4566 22.94 26.4566C22.7411 26.4566 22.5503 26.3776 22.4097 26.2369C22.269 26.0963 22.19 25.9055 22.19 25.7066V21.7066L20.91 23.0066C20.7694 23.1471 20.5788 23.226 20.38 23.226C20.1812 23.226 19.9906 23.1471 19.85 23.0066C19.7792 22.9377 19.723 22.8553 19.6846 22.7642C19.6462 22.6732 19.6264 22.5754 19.6264 22.4766C19.6264 22.3778 19.6462 22.28 19.6846 22.189C19.723 22.098 19.7792 22.0156 19.85 21.9466L22.41 19.3866C22.4794 19.3188 22.5607 19.2646 22.65 19.2266C22.7415 19.187 22.8402 19.1665 22.94 19.1665C23.0398 19.1665 23.1385 19.187 23.23 19.2266C23.3193 19.2646 23.4006 19.3188 23.47 19.3866L26 21.9266C26.0726 21.9966 26.1303 22.0805 26.1698 22.1732C26.2092 22.266 26.2295 22.3658 26.2295 22.4666C26.2295 22.5674 26.2092 22.6672 26.1698 22.76C26.1303 22.8528 26.0726 22.9367 26 23.0066Z" fill="black"/>
</svg>
