<svg width="32" height="32" viewBox="0 0 32 32" fill="none" xmlns="http://www.w3.org/2000/svg">
<path d="M8.625 7.225C8.325 6.925 7.825 6.925 7.525 7.225L2.225 12.625C1.925 12.925 1.925 13.425 2.225 13.725C2.525 14.025 3.025 14.025 3.325 13.725L7.425 9.625V24.725C7.425 25.125 7.725 25.525 8.225 25.525C8.725 25.525 9.025 25.225 9.025 24.725V9.625L13.025 13.625C13.125 13.725 13.325 13.825 13.525 13.825C13.725 13.825 13.925 13.725 14.025 13.625C14.325 13.325 14.325 12.825 14.025 12.525L8.625 7.225Z" fill="black"/>
<path d="M29.325 18.825C29.025 18.525 28.525 18.525 28.225 18.825L24.125 22.925V7.825C24.125 7.425 23.825 7.025 23.325 7.025C22.825 7.025 22.525 7.325 22.525 7.825V22.925L18.425 18.825C18.125 18.525 17.625 18.525 17.325 18.825C17.025 19.125 17.025 19.625 17.325 19.925L22.725 25.325C22.825 25.425 23.025 25.525 23.225 25.525C23.425 25.525 23.625 25.425 23.725 25.325L29.125 19.925C29.625 19.525 29.625 19.025 29.325 18.825Z" fill="black"/>
</svg>
