<svg width="32" height="32" viewBox="0 0 32 32" fill="none" xmlns="http://www.w3.org/2000/svg">
<path d="M22 16.4403C22 16.1003 22 15.7503 22 15.3803C22.0221 12.8729 21.4967 10.3909 20.4604 8.10753C19.4241 5.82418 17.9018 3.79454 16 2.16032C15.87 2.05895 15.7099 2.00391 15.545 2.00391C15.3802 2.00391 15.22 2.05895 15.09 2.16032C13.1882 3.79454 11.666 5.82418 10.6297 8.10753C9.59336 10.3909 9.06791 12.8729 9.09002 15.3803C9.09002 15.7503 9.09002 16.1003 9.09002 16.4403C4.98002 19.4403 6.09002 24.8403 6.09002 25.0803C6.11432 25.1939 6.165 25.3001 6.23796 25.3904C6.31092 25.4808 6.40412 25.5527 6.51002 25.6003C6.60977 25.6483 6.71935 25.6722 6.83002 25.6703C6.94771 25.6678 7.06354 25.6405 7.17002 25.5903L11.76 23.2103H19.21L23.8 25.5903C23.9065 25.6405 24.0223 25.6678 24.14 25.6703C24.2538 25.6713 24.3664 25.6474 24.47 25.6003C24.5736 25.5508 24.6644 25.4782 24.7355 25.388C24.8066 25.2979 24.856 25.1926 24.88 25.0803C25 24.8403 26.07 19.4403 22 16.4403ZM15.56 3.75032C16.5245 4.677 17.3678 5.72196 18.07 6.86032H13.07C13.7628 5.72086 14.5997 4.67556 15.56 3.75032ZM9.36002 18.2103C9.58675 19.574 10.0432 20.8893 10.71 22.1003L7.51002 23.7603C7.41091 22.7572 7.52445 21.7444 7.84322 20.7881C8.162 19.8317 8.67884 18.9534 9.36002 18.2103ZM12.22 21.7103C11.0979 19.794 10.5399 17.5998 10.61 15.3803C10.6092 12.9551 11.1598 10.5615 12.22 8.38032H18.9C19.9595 10.5614 20.5067 12.9556 20.5 15.3803C20.5702 17.5998 20.0121 19.794 18.89 21.7103H12.22ZM23.6 23.7603L20.41 22.1003C21.0681 20.8864 21.5209 19.572 21.75 18.2103C22.4312 18.9534 22.948 19.8317 23.2668 20.7881C23.5856 21.7444 23.6991 22.7572 23.6 23.7603Z" fill="black"/>
<path d="M15.56 10.9103C14.9667 10.9103 14.3867 11.0863 13.8933 11.4159C13.4 11.7456 13.0154 12.2141 12.7884 12.7623C12.5613 13.3104 12.5019 13.9136 12.6177 14.4956C12.7334 15.0775 13.0191 15.6121 13.4387 16.0316C13.8583 16.4512 14.3928 16.7369 14.9747 16.8527C15.5567 16.9684 16.1599 16.909 16.7081 16.682C17.2562 16.4549 17.7248 16.0704 18.0544 15.577C18.3841 15.0837 18.56 14.5037 18.56 13.9103C18.56 13.1147 18.2439 12.3516 17.6813 11.789C17.1187 11.2264 16.3557 10.9103 15.56 10.9103ZM15.56 15.4603C15.2566 15.4623 14.9594 15.374 14.7063 15.2066C14.4531 15.0393 14.2555 14.8004 14.1384 14.5205C14.0214 14.2405 13.9902 13.932 14.049 13.6343C14.1077 13.3366 14.2536 13.0631 14.4682 12.8485C14.6828 12.6339 14.9563 12.488 15.254 12.4293C15.5517 12.3705 15.8602 12.4017 16.1402 12.5187C16.4201 12.6358 16.659 12.8334 16.8263 13.0866C16.9937 13.3397 17.082 13.6369 17.08 13.9403C17.08 14.3434 16.9199 14.7301 16.6348 15.0151C16.3498 15.3002 15.9631 15.4603 15.56 15.4603Z" fill="black"/>
<path d="M15.56 24.7603C15.4612 24.759 15.363 24.7775 15.2714 24.8147C15.1798 24.8519 15.0966 24.9071 15.0267 24.977C14.9568 25.0469 14.9016 25.1301 14.8644 25.2217C14.8272 25.3133 14.8087 25.4115 14.81 25.5103V29.2503C14.81 29.4492 14.889 29.64 15.0297 29.7806C15.1703 29.9213 15.3611 30.0003 15.56 30.0003C15.7589 30.0003 15.9497 29.9213 16.0903 29.7806C16.231 29.64 16.31 29.4492 16.31 29.2503V25.5103C16.31 25.3114 16.231 25.1206 16.0903 24.98C15.9497 24.8393 15.7589 24.7603 15.56 24.7603Z" fill="black"/>
<path d="M12.43 24.7603C12.3312 24.759 12.233 24.7775 12.1414 24.8147C12.0498 24.8519 11.9666 24.9071 11.8967 24.977C11.8268 25.0469 11.7716 25.1301 11.7344 25.2217C11.6972 25.3133 11.6787 25.4115 11.68 25.5103V27.8003C11.68 27.9992 11.759 28.19 11.8997 28.3306C12.0403 28.4713 12.2311 28.5503 12.43 28.5503C12.6289 28.5503 12.8197 28.4713 12.9603 28.3306C13.101 28.19 13.18 27.9992 13.18 27.8003V25.5103C13.18 25.3114 13.101 25.1206 12.9603 24.98C12.8197 24.8393 12.6289 24.7603 12.43 24.7603Z" fill="black"/>
<path d="M18.68 24.7603C18.4811 24.7603 18.2903 24.8393 18.1497 24.98C18.009 25.1206 17.93 25.3114 17.93 25.5103V27.8003C17.93 27.9992 18.009 28.19 18.1497 28.3306C18.2903 28.4713 18.4811 28.5503 18.68 28.5503C18.8789 28.5503 19.0697 28.4713 19.2103 28.3306C19.351 28.19 19.43 27.9992 19.43 27.8003V25.5103C19.4314 25.4115 19.4129 25.3133 19.3757 25.2217C19.3385 25.1301 19.2833 25.0469 19.2133 24.977C19.1434 24.9071 19.0602 24.8519 18.9686 24.8147C18.877 24.7775 18.7789 24.759 18.68 24.7603Z" fill="black"/>
</svg>
