<svg width="32" height="32" viewBox="0 0 32 32" fill="none" xmlns="http://www.w3.org/2000/svg">
<path fill-rule="evenodd" clip-rule="evenodd" d="M17.7573 6.60552L23.9253 11.3279H29.2321C29.6464 11.3279 29.9821 11.6637 29.9821 12.0779V19.6779C29.9821 20.0921 29.6464 20.4279 29.2321 20.4279H23.9831L17.756 25.1955C17.7494 25.2005 17.7427 25.2055 17.736 25.2103C15.8882 26.5302 13.25 25.3689 13.25 23V8.79998C13.25 6.44017 15.9944 5.25025 17.7573 6.60552ZM24.3821 18.9279H28.4821V12.8279H24.3821V18.9279ZM22.8821 12.4184V19.3816L16.8549 23.9962C15.9044 24.6657 14.75 24.0278 14.75 23V8.79998C14.75 7.76011 16.0057 7.15057 16.8428 7.79445L16.8441 7.79549L22.8821 12.4184ZM6.50882 7.00884C6.22774 7.12728 6.04638 7.40414 6.0501 7.70913L6.12806 14.1019L3.33362 11.2729C3.04253 10.9782 2.56767 10.9753 2.27298 11.2664C1.9783 11.5575 1.97538 12.0324 2.26648 12.3271L5.79584 15.9L2.26648 19.4729C1.97538 19.7676 1.9783 20.2425 2.27298 20.5336C2.56767 20.8246 3.04253 20.8217 3.33362 20.5271L6.12806 17.6981L6.0501 24.0908C6.04638 24.3958 6.22774 24.6727 6.50882 24.7911C6.78989 24.9096 7.1147 24.846 7.33038 24.6303L11.4304 20.5303C11.722 20.2387 11.7235 19.7663 11.4336 19.4729L7.90426 15.9L11.4336 12.3271C11.7235 12.0336 11.722 11.5613 11.4304 11.2697L7.33038 7.16965C7.1147 6.95398 6.78989 6.8904 6.50882 7.00884ZM7.62749 17.7543L9.84263 19.9967L7.57246 22.2669L7.62749 17.7543ZM7.62749 14.0457L9.84263 11.8032L7.57246 9.53306L7.62749 14.0457Z" fill="black"/>
</svg>
