<svg width="32" height="32" viewBox="0 0 32 32" fill="none" xmlns="http://www.w3.org/2000/svg">
<path d="M19.2 6.30078C18.2 5.80078 17.1 5.90078 16.3 6.60078L10.1 11.3008H4.8C4.3 11.3008 4 11.7008 4 12.1008V19.7008C4 20.1008 4.3 20.5008 4.8 20.5008H10.1L16.3 25.3008C16.8 25.7008 17.4 25.9008 18 25.9008C18.4 25.9008 18.8 25.8008 19.2 25.6008C20.2 25.1008 20.8 24.2008 20.8 23.1008V8.80078C20.8 7.70078 20.2 6.80078 19.2 6.30078ZM9.6 18.9008H5.5V12.8008H9.6V18.9008ZM19.3 23.0008C19.3 23.5008 19 23.9008 18.6 24.2008C18.2 24.4008 17.6 24.4008 17.2 24.1008L11 19.4008V12.5008L17.2 7.80078C17.6 7.50078 18.1 7.40078 18.6 7.70078C19 7.90078 19.3 8.40078 19.3 8.90078V23.0008Z" fill="black"/>
<path d="M24 12.0008C23.7 11.7008 23.2 11.7008 22.9 12.0008C22.6 12.3008 22.6 12.8008 22.9 13.1008C23.7 13.9008 24.1 14.9008 24.1 16.0008C24.1 17.1008 23.7 18.1008 22.9 18.9008C22.6 19.2008 22.6 19.7008 22.9 20.0008C23 20.1008 23.2 20.2008 23.4 20.2008C23.6 20.2008 23.8 20.1008 23.9 20.0008C24.9 19.0008 25.5 17.6008 25.5 16.1008C25.5 14.6008 25 13.0008 24 12.0008Z" fill="black"/>
<path d="M26.2 9.70078C25.9 9.40078 25.4 9.40078 25.1 9.70078C24.8 10.0008 24.8 10.5008 25.1 10.8008C26.5 12.2008 27.2 14.0008 27.2 15.9008C27.2 17.8008 26.4 19.6008 25.1 21.0008C24.8 21.3008 24.8 21.8008 25.1 22.1008C25.2 22.2008 25.4 22.3008 25.6 22.3008C25.8 22.3008 26 22.2008 26.1 22.1008C27.7 20.5008 28.7 18.3008 28.7 15.9008C28.7 13.6008 27.8 11.4008 26.2 9.70078Z" fill="black"/>
</svg>
