<svg width="32" height="32" viewBox="0 0 32 32" fill="none" xmlns="http://www.w3.org/2000/svg">
<path d="M2.74893 29.95H11.7361C11.867 29.9496 11.9955 29.9153 12.1092 29.8505C12.223 29.7857 12.318 29.6925 12.3852 29.58C12.449 29.4654 12.4825 29.3363 12.4825 29.205C12.4825 29.0737 12.449 28.9446 12.3852 28.83C10.1783 24.83 6.8331 18.83 6.68331 18.56C5.95185 17.1326 5.56211 15.5543 5.54494 13.95C5.54494 11.1785 6.64434 8.52049 8.6013 6.56073C10.5583 4.60098 13.2125 3.5 15.98 3.5C18.7476 3.5 21.4018 4.60098 23.3588 6.56073C25.3157 8.52049 26.4151 11.1785 26.4151 13.95C26.4181 15.568 26.0419 17.1641 25.3167 18.61C25.1669 18.9 21.8217 24.91 19.6148 28.88C19.551 28.9946 19.5175 29.1237 19.5175 29.255C19.5175 29.3863 19.551 29.5154 19.6148 29.63C19.682 29.7425 19.777 29.8357 19.8908 29.9005C20.0045 29.9653 20.133 29.9996 20.2639 30H29.2511C29.4497 30 29.6402 29.921 29.7806 29.7803C29.9211 29.6397 30 29.4489 30 29.25C30 29.0511 29.9211 28.8603 29.7806 28.7197C29.6402 28.579 29.4497 28.5 29.2511 28.5H21.5421C23.0399 25.81 26.535 19.56 26.6548 19.29C27.5043 17.6379 27.9525 15.8083 27.9629 13.95C27.9629 10.7807 26.7057 7.74113 24.4678 5.50007C22.23 3.25901 19.1948 2 16.03 2C12.8651 2 9.82995 3.25901 7.59208 5.50007C5.35422 7.74113 4.097 10.7807 4.097 13.95C4.09198 15.8042 4.52301 17.6336 5.35521 19.29C5.48502 19.56 8.97004 25.81 10.4679 28.5H2.74893C2.5503 28.5 2.35981 28.579 2.21936 28.7197C2.0789 28.8603 2 29.0511 2 29.25C2 29.4489 2.0789 29.6397 2.21936 29.7803C2.35981 29.921 2.5503 30 2.74893 30V29.95Z" fill="black"/>
</svg>
