<svg width="32" height="32" viewBox="0 0 32 32" fill="none" xmlns="http://www.w3.org/2000/svg">
<path d="M29.9249 12.1181C29.7245 11.4168 29.1234 11.0161 28.322 11.0161H20.2075C20.1073 11.0161 20.1073 11.0161 20.0072 10.9159L17.5027 3.20215C17.4025 2.50089 16.7013 2 16 2C15.2987 2 14.5975 2.50089 14.3971 3.20215L11.8927 10.8157C11.8927 10.9159 11.7925 11.0161 11.7925 11.0161H3.678C2.97674 11.0161 2.27549 11.517 2.07513 12.2182C1.87478 12.9195 2.07513 13.6208 2.67621 14.1216L9.18784 18.9302C9.28801 18.9302 9.28801 19.0304 9.28801 19.1306L6.78354 26.8444C6.58318 27.5456 6.78354 28.2469 7.38462 28.7478C7.98569 29.1485 8.78712 29.1485 9.38819 28.7478L15.8998 23.9392C16 23.9392 16 23.9392 16.1002 23.9392L22.6118 28.7478C22.9123 28.9481 23.2129 29.0483 23.6136 29.0483C23.9141 29.0483 24.3148 28.9481 24.6154 28.7478C25.2165 28.3471 25.4168 27.5456 25.2165 26.8444L22.712 19.1306C22.712 19.0304 22.712 19.0304 22.8122 18.9302L29.3238 14.1216C29.9249 13.5206 30.1252 12.8193 29.9249 12.1181Z" fill="black"/>
</svg>
