<svg width="32" height="32" viewBox="0 0 32 32" fill="none" xmlns="http://www.w3.org/2000/svg">
<path d="M24.7 10.425L23.6 11.525C26.6 13.225 28.5 15.525 28.5 16.325C28.5 17.725 22.9 23.225 16 23.225C14.7 23.225 13.5 23.025 12.4 22.725L11.2 23.925C12.7 24.425 14.3 24.725 16 24.725C23.6 24.725 30 18.625 30 16.325C30 15.025 27.9 12.425 24.7 10.425ZM3.5 16.325C3.5 15.225 8.8 9.425 16 9.425C17.2 9.425 18.5 9.625 19.6 9.925L20.8 8.725C19.3 8.225 17.7 7.925 16 7.925C8.4 7.925 2 14.025 2 16.325C2 17.625 4.1 20.225 7.3 22.125L8.4 21.025C5.4 19.325 3.5 16.925 3.5 16.325Z" fill="black"/>
<path d="M20.8 14.325L19.6 15.525C19.7 15.825 19.7 16.025 19.7 16.325C19.7 18.425 18 20.025 16 20.025C15.7 20.025 15.4 20.025 15.2 19.925L14 21.125C14.6 21.425 15.3 21.525 16 21.525C18.9 21.525 21.2 19.225 21.2 16.325C21.2 15.625 21.1 14.925 20.8 14.325ZM16 12.525C16.3 12.525 16.6 12.525 16.8 12.625L18 11.425C17.4 11.225 16.7 11.025 16 11.025C13.1 11.025 10.8 13.325 10.8 16.225C10.8 16.925 10.9 17.625 11.2 18.225L12.4 17.025C12.3 16.725 12.3 16.525 12.3 16.225C12.3 14.225 13.9 12.525 16 12.525Z" fill="black"/>
<path d="M4.5 28.625C4.3 28.625 4.1 28.525 4 28.425C3.7 28.125 3.7 27.625 4 27.325L27 4.225C27.3 3.925 27.8 3.925 28.1 4.225C28.4 4.525 28.4 5.025 28.1 5.325L5 28.325C4.9 28.525 4.7 28.625 4.5 28.625Z" fill="black"/>
</svg>
