<svg width="32" height="32" viewBox="0 0 32 32" fill="none" xmlns="http://www.w3.org/2000/svg">
<path d="M29.1032 15.153H16.0498C11.7651 14.3559 9.57295 12.363 9.57295 9.27402C9.57295 6.08541 12.4626 3.39502 15.9502 3.39502C19.4377 3.39502 22.3274 5.98577 22.3274 9.27402C22.3274 9.6726 22.6263 10.0712 23.1246 10.0712C23.6228 10.0712 23.9217 9.77224 23.9217 9.27402C23.8221 5.28826 20.3345 2 15.9502 2C11.5658 2 8.07829 5.28826 8.07829 9.37367C8.07829 11.2669 8.7758 13.6584 11.5658 15.2527H2.79715C2.29893 15.153 2 15.5516 2 15.9502C2 16.3488 2.29893 16.7473 2.79715 16.7473H15.9502C20.2349 17.5445 22.427 19.5374 22.427 22.6263C22.427 25.8149 19.5374 28.5053 16.0498 28.5053C12.5623 28.5053 9.6726 25.9146 9.6726 22.6263C9.6726 22.2278 9.37367 21.8292 8.87544 21.8292C8.37722 21.8292 8.07829 22.1281 8.07829 22.6263C8.07829 26.7117 11.5658 30 15.9502 30C20.3345 30 23.8221 26.7117 23.8221 22.6263C23.8221 20.7331 23.1246 18.3416 20.3345 16.7473H29.1032C29.5018 16.7473 29.9004 16.4484 29.9004 15.9502C29.9004 15.452 29.6014 15.153 29.1032 15.153Z" fill="black"/>
</svg>
