<svg width="32" height="32" viewBox="0 0 32 32" fill="none" xmlns="http://www.w3.org/2000/svg">
<path d="M29.1836 11.0003H25.2014L26.9038 9.3506L27.2423 9.00067C28.4768 7.83091 29.7511 6.60117 29.7511 5.0015C29.6972 4.16788 29.3218 3.38821 28.7046 2.82814C28.0874 2.26807 27.2771 1.97175 26.4458 2.00213C25.6675 2.00109 24.9085 2.2457 24.2761 2.70139C23.6438 3.15707 23.1699 3.80079 22.9216 4.5416C22.8889 4.63482 22.8749 4.73359 22.8802 4.83227C22.8855 4.93096 22.9101 5.02762 22.9527 5.11675C23.0385 5.29674 23.1921 5.43511 23.3796 5.5014C23.567 5.56769 23.773 5.55647 23.9523 5.47023C24.1315 5.38398 24.2693 5.22976 24.3353 5.04149C24.4803 4.59401 24.7625 4.20407 25.1416 3.92751C25.5207 3.65094 25.9773 3.50193 26.4458 3.50181C26.8797 3.47997 27.306 3.62165 27.6411 3.89909C27.9763 4.17652 28.1962 4.56969 28.2577 5.0015C28.2577 6.00129 27.2124 7.00109 26.2069 8.00088L25.9083 8.28082C24.4448 9.71052 22.9216 11.2802 22.9216 11.2802C22.8173 11.3851 22.7463 11.5186 22.7176 11.664C22.6888 11.8093 22.7036 11.96 22.7601 12.0969C22.8165 12.2339 22.9121 12.3509 23.0348 12.4333C23.1574 12.5158 23.3017 12.5598 23.4493 12.5599H29.2533C29.4513 12.5599 29.6412 12.4809 29.7812 12.3403C29.9213 12.1997 29.9999 12.009 29.9999 11.8101C29.9999 11.6112 29.9213 11.4205 29.7812 11.2799C29.6412 11.1392 29.4513 11.0602 29.2533 11.0602L29.1836 11.0003Z" fill="black"/>
<path d="M19.1983 11.2301C19.0583 11.0897 18.8686 11.0108 18.6707 11.0108C18.4728 11.0108 18.2831 11.0897 18.1431 11.2301L10.7262 19.4184L3.30944 11.2801C3.16944 11.1397 2.97966 11.0608 2.7818 11.0608C2.58393 11.0608 2.39416 11.1397 2.25416 11.2801C2.11434 11.4207 2.0358 11.6113 2.0358 11.81C2.0358 12.0087 2.11434 12.1993 2.25416 12.3399L9.75061 20.5782L2.21434 28.7765C2.0769 28.9183 2 29.1084 2 29.3064C2 29.5043 2.0769 29.6944 2.21434 29.8362C2.36958 29.9583 2.56568 30.0156 2.76189 29.9962C2.86478 29.9968 2.96666 29.9758 3.06097 29.9345C3.15528 29.8932 3.23992 29.8324 3.30944 29.7563L10.7262 21.618L18.1431 29.7563C18.2126 29.8324 18.2972 29.8932 18.3915 29.9345C18.4858 29.9758 18.5877 29.9968 18.6906 29.9962C18.8772 29.9971 19.0578 29.9295 19.1983 29.8063C19.3358 29.6644 19.4127 29.4743 19.4127 29.2764C19.4127 29.0784 19.3358 28.8883 19.1983 28.7465L11.7417 20.5282L19.2382 12.2899C19.3048 12.2177 19.3567 12.133 19.3908 12.0407C19.4249 11.9483 19.4405 11.8501 19.4368 11.7517C19.4331 11.6533 19.4102 11.5566 19.3692 11.4671C19.3283 11.3776 19.2703 11.2971 19.1983 11.2301Z" fill="black"/>
</svg>
