<svg width="32" height="32" viewBox="0 0 32 32" fill="none" xmlns="http://www.w3.org/2000/svg">
<path d="M25 2H21C20.6 2 20.3 2.2 20.3 2.6C19.9 4.4 18.2 5.8 16.4 5.8C14.5 5.8 12.9 4.5 12.5 2.6C12.4 2.2 12.1 2 11.7 2H7.7C7.3 2 7 2.3 7 2.8V29.3C7 29.7 7.3 30 7.8 30H11.8C12.2 30 12.5 29.8 12.5 29.4C12.9 27.6 14.6 26.2 16.4 26.2C18.3 26.2 19.9 27.5 20.3 29.4C20.4 29.7 20.7 30 21 30H25C25.4 30 25.8 29.7 25.8 29.2V2.8C25.8 2.3 25.4 2 25 2ZM21.6 28.5C20.8 26.3 18.7 24.7 16.4 24.7C14 24.7 11.9 26.2 11.2 28.5H8.5V12.7H10.9C11.3 12.7 11.7 12.4 11.7 11.9C11.7 11.4 11.3 11.2 10.9 11.2H8.5V3.5H11.2C11.9 5.7 14 7.3 16.4 7.3C18.8 7.3 20.9 5.8 21.6 3.5H24.2V11.2H21.8C21.4 11.2 21 11.5 21 12C21 12.5 21.3 12.8 21.8 12.8H24.2V28.6H21.6V28.5Z" fill="black"/>
<path d="M18 11.2H14.8C14.4 11.2 14 11.5 14 11.9C14 12.3 14.3 12.7 14.8 12.7H18C18.4 12.7 18.8 12.4 18.8 11.9C18.8 11.4 18.4 11.2 18 11.2Z" fill="black"/>
</svg>
