<svg width="32" height="32" viewBox="0 0 32 32" fill="none" xmlns="http://www.w3.org/2000/svg">
<path d="M26.25 2H5.75C3.68 2 2 3.68 2 5.75V26.25C2 28.32 3.68 30 5.75 30H26.25C28.32 30 30 28.32 30 26.25V5.75C30 3.68 28.32 2 26.25 2ZM12.33 19.67V12.34H19.66V19.67H12.33ZM19.67 21.17V28.5H12.34V21.17H19.67ZM3.5 12.33H10.83V19.66H3.5V12.33ZM21.17 12.33H28.5V19.66H21.17V12.33ZM3.5 26.25V21.17H10.83V28.5H5.75C4.51 28.5 3.5 27.49 3.5 26.25ZM26.25 28.5H21.17V21.17H28.5V26.25C28.5 27.49 27.49 28.5 26.25 28.5Z" fill="black"/>
</svg>
