<svg width="32" height="32" viewBox="0 0 32 32" fill="none" xmlns="http://www.w3.org/2000/svg">
<path fill-rule="evenodd" clip-rule="evenodd" d="M2.75 2C3.16421 2 3.5 2.33579 3.5 2.75V29.15C3.5 29.5642 3.16421 29.9 2.75 29.9C2.33579 29.9 2 29.5642 2 29.15V2.75C2 2.33579 2.33579 2 2.75 2ZM29.15 2C29.5642 2 29.9 2.33579 29.9 2.75V29.15C29.9 29.5642 29.5642 29.9 29.15 29.9C28.7358 29.9 28.4 29.5642 28.4 29.15V2.75C28.4 2.33579 28.7358 2 29.15 2ZM11.9757 9.61508C12.2711 9.90541 12.2753 10.3803 11.9849 10.6757L7.53863 15.2H24.3614L19.9151 10.6757C19.6247 10.3803 19.6289 9.90541 19.9243 9.61508C20.2197 9.32474 20.6946 9.32887 20.9849 9.6243L26.6849 15.4243C26.9717 15.7161 26.9717 16.1839 26.6849 16.4757L20.9849 22.2757C20.6946 22.5711 20.2197 22.5753 19.9243 22.2849C19.6289 21.9946 19.6247 21.5197 19.9151 21.2243L24.3614 16.7H7.53863L11.9849 21.2243C12.2753 21.5197 12.2711 21.9946 11.9757 22.2849C11.6803 22.5753 11.2054 22.5711 10.9151 22.2757L5.21508 16.4757C4.92831 16.1839 4.92831 15.7161 5.21508 15.4243L10.9151 9.6243C11.2054 9.32887 11.6803 9.32474 11.9757 9.61508Z" fill="black"/>
</svg>
