<svg width="32" height="32" viewBox="0 0 32 32" fill="none" xmlns="http://www.w3.org/2000/svg">
<path d="M25.1 10.5H24C24 10.4 24 10.3 24 10.2C24 5.7 20.3 2 15.8 2C12 2 8.7 4.7 7.8 8.3C4.6 8.4 2 11.1 2 14.3C2 17.6 4.7 20.3 8 20.3C8.4 20.3 8.8 20 8.8 19.5C8.8 19 8.4 18.9 8 18.9C5.5 18.9 3.5 16.9 3.5 14.4C3.5 11.9 5.5 9.9 8 9.9H8.4C8.8 9.9 9.1 9.6 9.1 9.3C9.6 6.1 12.4 3.6 15.7 3.6C19.4 3.6 22.4 6.6 22.4 10.3C22.4 10.6 22.4 10.9 22.3 11.3C22.3 11.5 22.3 11.7 22.5 11.9C22.6 12.1 22.9 12.2 23.1 12.2H25C26.9 12.2 28.4 13.7 28.4 15.6C28.4 17.5 26.9 19 25 19H24.3C23.9 19 23.5 19.3 23.5 19.8C23.5 20.3 23.8 20.6 24.3 20.6H25C27.7 20.6 29.9 18.4 29.9 15.7C29.9 13 27.8 10.5 25.1 10.5Z" fill="black"/>
<path d="M21.2 17.6H18.4L20.9 13.7C21 13.5 21.1 13.2 20.9 12.9C20.8 12.7 20.5 12.5 20.2 12.5H14.7C14.4 12.5 14.1 12.7 14 12.9L10.4 20.7C10.3 20.9 10.3 21.2 10.4 21.4C10.5 21.6 10.8 21.7 11 21.7H13.5L10.5 28.8C10.4 29.1 10.5 29.5 10.8 29.7C11 30 11.1 30 11.2 30C11.4 30 11.6 29.9 11.8 29.8L21.7 18.9C21.9 18.7 22 18.4 21.8 18.1C21.6 17.8 21.5 17.6 21.2 17.6ZM13.7 25.5L15.4 21.4C15.5 21.2 15.5 20.9 15.3 20.7C15.2 20.5 14.9 20.4 14.7 20.4H12.3L15.2 14.1H18.8L16.3 18C16.2 18.2 16.1 18.5 16.3 18.8C16.4 19 16.7 19.2 17 19.2H19.5L13.7 25.5Z" fill="black"/>
</svg>
