<svg width="32" height="32" viewBox="0 0 32 32" fill="none" xmlns="http://www.w3.org/2000/svg">
<path d="M18 5.05C17.9011 5.04865 17.803 5.06714 17.7114 5.10435C17.6198 5.14156 17.5366 5.19676 17.4667 5.26667C17.3968 5.33659 17.3416 5.4198 17.3043 5.5114C17.2671 5.60301 17.2487 5.70114 17.25 5.8V6.59C17.25 6.78891 17.329 6.97968 17.4697 7.12033C17.6103 7.26098 17.8011 7.34 18 7.34C18.1989 7.34 18.3897 7.26098 18.5303 7.12033C18.671 6.97968 18.75 6.78891 18.75 6.59V5.8C18.75 5.60109 18.671 5.41032 18.5303 5.26967C18.3897 5.12902 18.1989 5.05 18 5.05Z" fill="black"/>
<path d="M20.41 17.49H17.6V12.94C17.6017 12.779 17.5516 12.6216 17.457 12.4913C17.3623 12.361 17.2283 12.2646 17.0746 12.2164C16.921 12.1681 16.7559 12.1707 16.6038 12.2235C16.4517 12.2764 16.3206 12.3769 16.23 12.51L11 20C10.9293 20.116 10.892 20.2492 10.892 20.385C10.892 20.5208 10.9293 20.654 11 20.77C11.0637 20.8929 11.1598 20.996 11.2779 21.0683C11.396 21.1405 11.5316 21.1792 11.67 21.18H14.27V26C14.2708 26.158 14.3215 26.3118 14.4149 26.4393C14.5083 26.5668 14.6396 26.6615 14.79 26.71C14.8664 26.7195 14.9436 26.7195 15.02 26.71C15.1398 26.7093 15.2578 26.6798 15.3639 26.6242C15.47 26.5685 15.5613 26.4882 15.63 26.39L21 18.67C21.0784 18.5587 21.1245 18.4279 21.1333 18.292C21.1421 18.1562 21.1133 18.0205 21.05 17.9C20.9887 17.7815 20.8973 17.6812 20.7849 17.6092C20.6726 17.5373 20.5433 17.4961 20.41 17.49ZM15.77 23.57V20.46C15.77 20.3598 15.75 20.2606 15.7111 20.1683C15.6721 20.076 15.6151 19.9924 15.5433 19.9225C15.4715 19.8526 15.3865 19.7977 15.2932 19.7612C15.1998 19.7248 15.1002 19.7073 15 19.71H13L16.07 15.32V18.24C16.07 18.4389 16.149 18.6297 16.2897 18.7703C16.4303 18.911 16.6211 18.99 16.82 18.99H19L15.77 23.57Z" fill="black"/>
<path d="M23.25 8.89H22.25V2.75C22.2474 2.55189 22.1676 2.36263 22.0275 2.22253C21.8874 2.08244 21.6981 2.00259 21.5 2H10.5C10.3019 2.00259 10.1126 2.08244 9.97253 2.22253C9.83244 2.36263 9.75259 2.55189 9.75 2.75V8.89H8.75C8.02065 8.89 7.32118 9.17973 6.80546 9.69546C6.28973 10.2112 6 10.9107 6 11.64V27.25C6 27.9793 6.28973 28.6788 6.80546 29.1945C7.32118 29.7103 8.02065 30 8.75 30H23.25C23.6111 30 23.9687 29.9289 24.3024 29.7907C24.636 29.6525 24.9392 29.4499 25.1945 29.1945C25.4499 28.9392 25.6525 28.636 25.7907 28.3024C25.9289 27.9687 26 27.6111 26 27.25V11.64C26 11.2789 25.9289 10.9213 25.7907 10.5876C25.6525 10.254 25.4499 9.95082 25.1945 9.69546C24.9392 9.4401 24.636 9.23753 24.3024 9.09933C23.9687 8.96113 23.6111 8.89 23.25 8.89ZM11.25 3.5H20.75V8.89H11.25V3.5ZM24.5 27.25C24.5 27.5815 24.3683 27.8995 24.1339 28.1339C23.8995 28.3683 23.5815 28.5 23.25 28.5H8.75C8.41848 28.5 8.10054 28.3683 7.86612 28.1339C7.6317 27.8995 7.5 27.5815 7.5 27.25V11.64C7.5 11.3085 7.6317 10.9905 7.86612 10.7561C8.10054 10.5217 8.41848 10.39 8.75 10.39H23.25C23.5815 10.39 23.8995 10.5217 24.1339 10.7561C24.3683 10.9905 24.5 11.3085 24.5 11.64V27.25Z" fill="black"/>
<path d="M14 5.05C13.8011 5.05 13.6103 5.12902 13.4697 5.26967C13.329 5.41032 13.25 5.60109 13.25 5.8V6.59C13.25 6.78891 13.329 6.97968 13.4697 7.12033C13.6103 7.26098 13.8011 7.34 14 7.34C14.1989 7.34 14.3897 7.26098 14.5303 7.12033C14.671 6.97968 14.75 6.78891 14.75 6.59V5.8C14.7513 5.70114 14.7329 5.60301 14.6957 5.5114C14.6584 5.4198 14.6032 5.33659 14.5333 5.26667C14.4634 5.19676 14.3802 5.14156 14.2886 5.10435C14.197 5.06714 14.0989 5.04865 14 5.05Z" fill="black"/>
</svg>
