<svg width="32" height="32" viewBox="0 0 32 32" fill="none" xmlns="http://www.w3.org/2000/svg">
<path fill-rule="evenodd" clip-rule="evenodd" d="M22.55 8.20006C20.9208 8.20006 19.6 9.52082 19.6 11.1501C19.6 12.7793 20.9208 14.1001 22.55 14.1001C24.1792 14.1001 25.5 12.7793 25.5 11.1501C25.5 9.52082 24.1792 8.20006 22.55 8.20006ZM18.1 11.1501C18.1 8.69239 20.0923 6.70006 22.55 6.70006C25.0077 6.70006 27 8.69239 27 11.1501C27 13.6077 25.0077 15.6001 22.55 15.6001C20.0923 15.6001 18.1 13.6077 18.1 11.1501Z" fill="black"/>
<path d="M19.2457 19.1363C20.1749 18.5505 21.282 18.2 22.4499 18.2C25.8285 18.2 28.4999 20.9576 28.4999 24.2506V25.25C28.4999 25.6642 28.8357 26 29.2499 26C29.6641 26 29.9999 25.6636 29.9999 25.2494V24.25C29.9999 20.143 26.6713 16.7 22.4499 16.7C20.9472 16.7 19.5313 17.16 18.3532 17.9269C18.6796 18.3066 18.9782 18.7108 19.2457 19.1363Z" fill="black"/>
<path fill-rule="evenodd" clip-rule="evenodd" d="M2 24.4501C2 19.6358 5.93579 15.7001 10.75 15.7001C15.5642 15.7001 19.5 19.6358 19.5 24.4501V27.7501C19.5 28.1643 19.1642 28.5001 18.75 28.5001C18.3358 28.5001 18 28.1643 18 27.7501V24.4501C18 20.4643 14.7358 17.2001 10.75 17.2001C6.76421 17.2001 3.5 20.4643 3.5 24.4501V27.7501C3.5 28.1643 3.16421 28.5001 2.75 28.5001C2.33579 28.5001 2 28.1643 2 27.7501V24.4501Z" fill="black"/>
<path fill-rule="evenodd" clip-rule="evenodd" d="M10.75 5.50006C8.73416 5.50006 7.1 7.13422 7.1 9.15006C7.1 11.1659 8.73416 12.8001 10.75 12.8001C12.7658 12.8001 14.4 11.1659 14.4 9.15006C14.4 7.13422 12.7658 5.50006 10.75 5.50006ZM5.6 9.15006C5.6 6.30579 7.90573 4.00006 10.75 4.00006C13.5943 4.00006 15.9 6.30579 15.9 9.15006C15.9 11.9943 13.5943 14.3001 10.75 14.3001C7.90573 14.3001 5.6 11.9943 5.6 9.15006Z" fill="black"/>
</svg>
