<svg width="32" height="32" viewBox="0 0 32 32" fill="none" xmlns="http://www.w3.org/2000/svg">
<path d="M29.25 18C29.0519 18.0026 28.8626 18.0824 28.7225 18.2225C28.5824 18.3626 28.5026 18.5519 28.5 18.75V24.65C28.506 24.9002 28.4367 25.1464 28.3013 25.3567C28.1658 25.5671 27.9702 25.732 27.74 25.83C27.5146 25.9336 27.2638 25.9689 27.0186 25.9316C26.7733 25.8943 26.5444 25.786 26.36 25.62L20.58 20.48C20.472 20.3834 20.3384 20.3202 20.1952 20.2979C20.0521 20.2757 19.9056 20.2953 19.7734 20.3546C19.6412 20.4138 19.5289 20.51 19.4503 20.6317C19.3716 20.7533 19.3298 20.8951 19.33 21.04V24.14C19.33 24.4715 19.1983 24.7895 18.9639 25.0239C18.7295 25.2583 18.4115 25.39 18.08 25.39H4.75C4.41848 25.39 4.10054 25.2583 3.86612 25.0239C3.6317 24.7895 3.5 24.4715 3.5 24.14V13.87C3.5 13.5385 3.6317 13.2205 3.86612 12.9861C4.10054 12.7517 4.41848 12.62 4.75 12.62H13.88C14.0789 12.62 14.2697 12.541 14.4103 12.4003C14.551 12.2597 14.63 12.0689 14.63 11.87C14.63 11.6711 14.551 11.4803 14.4103 11.3397C14.2697 11.199 14.0789 11.12 13.88 11.12H4.75C4.02065 11.12 3.32118 11.4097 2.80546 11.9255C2.28973 12.4412 2 13.1407 2 13.87V24.14C2 24.5011 2.07113 24.8587 2.20933 25.1924C2.34753 25.526 2.5501 25.8292 2.80546 26.0845C3.06082 26.3399 3.36398 26.5425 3.69762 26.6807C4.03127 26.8189 4.38886 26.89 4.75 26.89H18.08C18.8085 26.8874 19.5065 26.5968 20.0216 26.0816C20.5368 25.5665 20.8274 24.8685 20.83 24.14V22.71L25.36 26.71C25.7605 27.0648 26.2546 27.297 26.7833 27.3788C27.3121 27.4607 27.8532 27.3888 28.3423 27.1717C28.8313 26.9546 29.2476 26.6014 29.5415 26.1543C29.8354 25.7072 29.9946 25.185 30 24.65V18.75C29.9974 18.5519 29.9176 18.3626 29.7775 18.2225C29.6374 18.0824 29.4481 18.0026 29.25 18Z" fill="black"/>
<path d="M23.19 18.5C24.525 18.5 25.8301 18.1041 26.9401 17.3624C28.0501 16.6207 28.9153 15.5665 29.4262 14.3331C29.9371 13.0997 30.0708 11.7425 29.8103 10.4331C29.5499 9.12377 28.907 7.92104 27.963 6.97703C27.019 6.03303 25.8162 5.39015 24.5069 5.1297C23.1975 4.86925 21.8403 5.00292 20.6069 5.51382C19.3735 6.02471 18.3193 6.88987 17.5776 7.9999C16.8359 9.10994 16.44 10.415 16.44 11.75C16.44 13.5402 17.1512 15.2571 18.417 16.523C19.6829 17.7888 21.3998 18.5 23.19 18.5ZM21.92 8.59L22.32 8.18C22.6051 7.86393 22.9515 7.60912 23.3381 7.43106C23.7247 7.253 24.1435 7.15541 24.569 7.14422C24.9946 7.13302 25.4179 7.20846 25.8133 7.36594C26.2088 7.52342 26.5681 7.75967 26.8694 8.06031C27.1708 8.36096 27.4078 8.71973 27.5662 9.11483C27.7246 9.50992 27.8009 9.9331 27.7907 10.3586C27.7805 10.7842 27.6838 11.2032 27.5066 11.5902C27.3295 11.9772 27.0754 12.3242 26.76 12.61L26.35 13C26.2938 13.0606 26.2258 13.1089 26.15 13.142C26.0743 13.175 25.9926 13.1921 25.91 13.1921C25.8274 13.1921 25.7457 13.175 25.67 13.142C25.5942 13.1089 25.5262 13.0606 25.47 13C25.4107 12.9431 25.3635 12.8748 25.3313 12.7991C25.2991 12.7235 25.2825 12.6422 25.2825 12.56C25.2825 12.4778 25.2991 12.3965 25.3313 12.3209C25.3635 12.2452 25.4107 12.1769 25.47 12.12L25.88 11.71C26.2304 11.3517 26.4276 10.8711 26.43 10.37C26.4275 9.99806 26.3153 9.63513 26.1074 9.32667C25.8996 9.01821 25.6053 8.77793 25.2616 8.63594C24.9178 8.49394 24.5398 8.45654 24.1748 8.52842C23.8099 8.60029 23.4743 8.77825 23.21 9.04L22.8 9.45C22.7422 9.50778 22.6736 9.55362 22.5981 9.58489C22.5226 9.61616 22.4417 9.63226 22.36 9.63226C22.2783 9.63226 22.1974 9.61616 22.1219 9.58489C22.0464 9.55362 21.9778 9.50778 21.92 9.45C21.8622 9.39222 21.8164 9.32362 21.7851 9.24813C21.7538 9.17263 21.7377 9.09172 21.7377 9.01C21.7377 8.92829 21.7538 8.84737 21.7851 8.77188C21.8164 8.69638 21.8622 8.62778 21.92 8.57V8.59ZM21.79 12.26L23.7 10.35C23.8198 10.2408 23.977 10.182 24.139 10.1858C24.301 10.1895 24.4553 10.2556 24.5699 10.3701C24.6844 10.4847 24.7505 10.639 24.7542 10.801C24.758 10.963 24.6992 11.1202 24.59 11.24L22.68 13.15C22.5583 13.2649 22.3974 13.3292 22.23 13.33C22.1484 13.3304 22.0676 13.3147 21.9921 13.2838C21.9166 13.253 21.8479 13.2075 21.79 13.15C21.6745 13.0306 21.61 12.8711 21.61 12.705C21.61 12.5389 21.6745 12.3794 21.79 12.26ZM19.62 10.89L20 10.48C20.1167 10.3633 20.275 10.2977 20.44 10.2977C20.605 10.2977 20.7633 10.3633 20.88 10.48C20.9967 10.5967 21.0623 10.755 21.0623 10.92C21.0623 11.085 20.9967 11.2433 20.88 11.36L20.47 11.77C20.1466 12.1355 19.9781 12.6125 20 13.1C19.9946 13.5952 20.1849 14.0725 20.5294 14.4283C20.8739 14.784 21.3449 14.9895 21.84 15C22.3377 14.995 22.8142 14.798 23.17 14.45L23.58 14C23.6378 13.9422 23.7064 13.8964 23.7819 13.8651C23.8574 13.8338 23.9383 13.8177 24.02 13.8177C24.1017 13.8177 24.1826 13.8338 24.2581 13.8651C24.3336 13.8964 24.4022 13.9422 24.46 14C24.5178 14.0578 24.5636 14.1264 24.5949 14.2019C24.6262 14.2774 24.6423 14.3583 24.6423 14.44C24.6423 14.5217 24.6262 14.6026 24.5949 14.6781C24.5636 14.7536 24.5178 14.8222 24.46 14.88L24.05 15.29C23.6122 15.7239 23.0563 16.0193 22.4518 16.1395C21.8472 16.2596 21.2206 16.1991 20.6502 15.9656C20.0798 15.7321 19.5906 15.3359 19.2439 14.8263C18.8971 14.3167 18.7079 13.7163 18.7 13.1C18.6992 12.689 18.7801 12.282 18.9381 11.9026C19.096 11.5232 19.3278 11.179 19.62 10.89Z" fill="black"/>
<path d="M4.79 22.79C4.79 23.0491 4.86683 23.3024 5.01077 23.5178C5.15472 23.7332 5.35931 23.9011 5.59868 24.0003C5.83806 24.0994 6.10145 24.1254 6.35557 24.0748C6.60968 24.0243 6.8431 23.8995 7.02631 23.7163C7.20952 23.5331 7.33428 23.2997 7.38483 23.0456C7.43538 22.7915 7.40943 22.5281 7.31028 22.2887C7.21113 22.0493 7.04323 21.8447 6.8278 21.7008C6.61237 21.5568 6.35909 21.48 6.1 21.48C5.75257 21.48 5.41936 21.618 5.17369 21.8637C4.92802 22.1094 4.79 22.4426 4.79 22.79Z" fill="black"/>
</svg>
