<svg width="32" height="32" viewBox="0 0 32 32" fill="none" xmlns="http://www.w3.org/2000/svg">
<path d="M20.0892 9.3084C19.5853 8.75106 18.8572 8.39988 18.05 8.39988H4.75C3.23579 8.39988 2 9.63567 2 11.1499V21.4499C2 22.9641 3.23579 24.1999 4.75 24.1999H5.26218L6.75569 22.6999H4.75C4.06421 22.6999 3.5 22.1357 3.5 21.4499V11.1499C3.5 10.4641 4.06421 9.89988 4.75 9.89988H18.05C18.444 9.89988 18.7978 10.0861 19.0276 10.3746L20.0892 9.3084Z" fill="black"/>
<path d="M12.4003 22.6999H18.05C18.7358 22.6999 19.3 22.1357 19.3 21.4499V18.3669C19.2997 18.3555 19.2997 18.344 19.3 18.3325V15.7702L20.8 14.2637V18.0109L26.3451 22.8868L26.3585 22.8989C27.1804 23.6575 28.4998 23.0931 28.4998 21.95V10.65C28.4998 10.1493 28.1832 9.74261 27.5848 9.49165C26.9702 9.23393 26.2332 9.23024 25.7453 9.43936C25.6822 9.4664 25.6164 9.48437 25.5497 9.49332L27.1972 7.83865C27.5328 7.88993 27.8609 7.98087 28.1649 8.10835C29.1164 8.50739 29.9998 9.35069 29.9998 10.65V21.95C29.9998 24.4036 27.127 25.6392 25.3482 24.0077L20.8 20.0084V21.4499C20.8 22.9641 19.5642 24.1999 18.05 24.1999H10.9068L12.4003 22.6999Z" fill="black"/>
<path d="M6.05 21.35C6.76797 21.35 7.35 20.768 7.35 20.05C7.35 19.332 6.76797 18.75 6.05 18.75C5.33203 18.75 4.75 19.332 4.75 20.05C4.75 20.768 5.33203 21.35 6.05 21.35Z" fill="black"/>
<path fill-rule="evenodd" clip-rule="evenodd" d="M27.9792 4.21852C28.2727 4.51078 28.2737 4.98565 27.9815 5.27918L4.98148 28.3792C4.68922 28.6727 4.21435 28.6737 3.92082 28.3815C3.62729 28.0892 3.62626 27.6143 3.91852 27.3208L26.9185 4.22082C27.2108 3.92729 27.6857 3.92626 27.9792 4.21852Z" fill="black"/>
</svg>
