<svg width="32" height="32" viewBox="0 0 32 32" fill="none" xmlns="http://www.w3.org/2000/svg">
<path d="M29.25 18C29.0519 18.0026 28.8626 18.0824 28.7225 18.2225C28.5824 18.3626 28.5026 18.5519 28.5 18.75V24.65C28.506 24.9002 28.4367 25.1464 28.3013 25.3567C28.1658 25.5671 27.9702 25.732 27.74 25.83C27.5146 25.9336 27.2638 25.9689 27.0186 25.9316C26.7733 25.8943 26.5444 25.786 26.36 25.62L20.58 20.48C20.472 20.3834 20.3384 20.3202 20.1952 20.2979C20.0521 20.2757 19.9056 20.2953 19.7734 20.3546C19.6412 20.4138 19.5289 20.51 19.4503 20.6317C19.3716 20.7533 19.3298 20.8951 19.33 21.04V24.14C19.3274 24.4707 19.1949 24.7871 18.961 25.021C18.7271 25.2549 18.4107 25.3874 18.08 25.39H4.75C4.41929 25.3874 4.10286 25.2549 3.86901 25.021C3.63515 24.7871 3.50261 24.4707 3.5 24.14V13.87C3.5 13.5385 3.6317 13.2205 3.86612 12.9861C4.10054 12.7517 4.41848 12.62 4.75 12.62H13.88C14.0789 12.62 14.2697 12.541 14.4103 12.4003C14.551 12.2597 14.63 12.0689 14.63 11.87C14.63 11.6711 14.551 11.4803 14.4103 11.3397C14.2697 11.199 14.0789 11.12 13.88 11.12H4.75C4.02065 11.12 3.32118 11.4097 2.80546 11.9255C2.28973 12.4412 2 13.1407 2 13.87V24.14C2 24.5011 2.07113 24.8587 2.20933 25.1924C2.34753 25.526 2.5501 25.8292 2.80546 26.0845C3.06082 26.3399 3.36398 26.5425 3.69762 26.6807C4.03127 26.8189 4.38886 26.89 4.75 26.89H18.08C18.8085 26.8874 19.5065 26.5968 20.0216 26.0816C20.5368 25.5665 20.8274 24.8685 20.83 24.14V22.71L25.36 26.71C25.7605 27.0648 26.2546 27.297 26.7833 27.3788C27.3121 27.4607 27.8532 27.3888 28.3423 27.1717C28.8313 26.9546 29.2476 26.6014 29.5415 26.1543C29.8354 25.7072 29.9946 25.185 30 24.65V18.75C29.9974 18.5519 29.9176 18.3626 29.7775 18.2225C29.6374 18.0824 29.4481 18.0026 29.25 18Z" fill="black"/>
<path d="M23.19 18.5C24.525 18.5 25.8301 18.1041 26.9401 17.3624C28.0501 16.6207 28.9153 15.5665 29.4262 14.3331C29.9371 13.0997 30.0708 11.7425 29.8103 10.4331C29.5499 9.12377 28.907 7.92104 27.963 6.97703C27.019 6.03303 25.8162 5.39015 24.5069 5.1297C23.1975 4.86925 21.8403 5.00292 20.6069 5.51382C19.3735 6.02471 18.3193 6.88987 17.5776 7.9999C16.8359 9.10994 16.44 10.415 16.44 11.75C16.44 13.5402 17.1512 15.2571 18.417 16.523C19.6829 17.7888 21.3998 18.5 23.19 18.5ZM19.58 11.73C19.6489 11.6592 19.7314 11.603 19.8224 11.5646C19.9134 11.5262 20.0112 11.5064 20.11 11.5064C20.2088 11.5064 20.3066 11.5262 20.3976 11.5646C20.4886 11.603 20.5711 11.6592 20.64 11.73L22.3 13.39L25.68 8.88C25.7391 8.80121 25.8131 8.73483 25.8979 8.68465C25.9826 8.63447 26.0764 8.60147 26.1739 8.58754C26.2714 8.57361 26.3707 8.57902 26.4661 8.60347C26.5615 8.62791 26.6512 8.67091 26.73 8.73C26.8088 8.7891 26.8752 8.86313 26.9254 8.94788C26.9755 9.03263 27.0085 9.12644 27.0225 9.22394C27.0364 9.32144 27.031 9.42073 27.0065 9.51614C26.9821 9.61155 26.9391 9.70121 26.88 9.78L23 15C22.9368 15.0882 22.8546 15.161 22.7593 15.213C22.6641 15.2649 22.5584 15.2947 22.45 15.3H22.39C22.2915 15.3005 22.1938 15.2812 22.1028 15.2435C22.0118 15.2057 21.9292 15.1501 21.86 15.08L19.58 12.79C19.5092 12.7211 19.453 12.6386 19.4146 12.5476C19.3762 12.4566 19.3564 12.3588 19.3564 12.26C19.3564 12.1612 19.3762 12.0634 19.4146 11.9724C19.453 11.8814 19.5092 11.7989 19.58 11.73Z" fill="black"/>
<path d="M4.79 22.79C4.79 23.0491 4.86683 23.3024 5.01077 23.5178C5.15472 23.7332 5.35931 23.9011 5.59868 24.0003C5.83806 24.0994 6.10145 24.1254 6.35557 24.0748C6.60968 24.0243 6.8431 23.8995 7.02631 23.7163C7.20952 23.5331 7.33428 23.2997 7.38483 23.0456C7.43538 22.7915 7.40943 22.5281 7.31028 22.2887C7.21113 22.0493 7.04323 21.8447 6.8278 21.7008C6.61237 21.5568 6.35909 21.48 6.1 21.48C5.75257 21.48 5.41936 21.618 5.17369 21.8637C4.92802 22.1094 4.79 22.4426 4.79 22.79Z" fill="black"/>
</svg>
