<svg width="32" height="32" viewBox="0 0 32 32" fill="none" xmlns="http://www.w3.org/2000/svg">
<path d="M23.6228 10C20.1352 10 17.3452 12.79 17.3452 16.2776C17.3452 18.1708 18.242 19.8648 19.5374 21.0605H12.1637C13.4591 19.8648 14.3559 18.1708 14.3559 16.2776C14.4555 12.79 11.6655 10 8.27758 10C4.88968 10 2 12.79 2 16.2776C2 19.7651 4.79004 22.5552 8.27758 22.5552H23.7224C27.21 22.5552 30 19.7651 30 16.2776C30 12.79 27.1103 10 23.6228 10ZM3.49466 16.2776C3.49466 13.6868 5.58719 11.4947 8.27758 11.4947C10.968 11.4947 12.9609 13.5872 12.9609 16.2776C12.9609 18.968 10.8683 20.9609 8.27758 20.9609C5.68683 20.9609 3.49466 18.8683 3.49466 16.2776ZM23.6228 20.9609C21.032 20.9609 18.9395 18.8683 18.9395 16.2776C18.9395 13.6868 21.032 11.4947 23.7224 11.4947C26.4128 11.4947 28.5053 13.5872 28.5053 16.2776C28.5053 18.968 26.3132 20.9609 23.6228 20.9609Z" fill="black"/>
</svg>
