<svg width="32" height="32" viewBox="0 0 32 32" fill="none" xmlns="http://www.w3.org/2000/svg">
<path fill-rule="evenodd" clip-rule="evenodd" d="M7.65902 7.25406C8.22876 7.49636 8.67795 7.92754 8.98424 8.35741C9.21657 8.68347 9.72119 9.31046 10.2644 9.9816C10.3087 10.0364 10.3532 10.0914 10.3979 10.1465C10.886 10.7494 11.3805 11.3602 11.6645 11.7398C11.8965 12.0499 12.0263 12.396 12.0378 12.7635C12.0491 13.1222 11.9463 13.4457 11.8055 13.7192C11.5358 14.243 11.065 14.6972 10.6619 15.0507C10.2434 15.4179 10.0398 15.6174 9.93624 15.788C9.87449 15.8897 9.84294 15.9811 9.89833 16.2032C9.96645 16.4763 10.208 16.9898 10.6421 17.6426C11.0641 18.277 11.6309 18.9878 12.2926 19.6512C12.2987 19.6573 12.3047 19.6634 12.3105 19.6697C13.6292 21.0861 15.1001 21.8928 15.6447 22.0544C15.8574 22.1057 15.9471 22.0741 16.0466 22.0134C16.2168 21.9095 16.4159 21.7055 16.7821 21.2859C17.1351 20.8815 17.5909 20.4061 18.1313 20.1352C18.4141 19.9935 18.742 19.8959 19.1041 19.9065C19.4712 19.9174 19.8234 20.0381 20.1507 20.2568C21.0917 20.8857 22.9198 22.415 23.6106 23.0085C23.9923 23.3365 24.4392 23.7985 24.6924 24.3738C24.9636 24.9902 25.0025 25.7247 24.5623 26.4602C24.502 26.5608 24.4373 26.6787 24.3656 26.8092C23.809 27.8226 22.8354 29.595 20.3398 29.9133C17.5199 30.3601 13.2107 29.1854 8.0418 23.9022C2.86771 18.6136 1.71673 14.3027 2.05412 11.5969C2.3878 8.92091 4.44175 7.91571 5.46596 7.41447C5.53191 7.38219 5.59359 7.35201 5.65026 7.3236C6.36141 6.96715 7.06478 7.00133 7.65902 7.25406ZM7.07525 8.63348C6.84738 8.53657 6.60408 8.52081 6.31873 8.66383C6.2673 8.68961 6.21486 8.71566 6.16159 8.74212C5.12115 9.25891 3.76823 9.93091 3.53732 11.7828C3.27681 13.872 4.11881 17.7524 9.10896 22.853C14.0966 27.9509 17.9534 28.7786 20.1163 28.4317C20.1247 28.4304 20.1332 28.4291 20.1417 28.4281C21.8507 28.2139 22.4601 27.1342 23.0318 26.1215C23.1144 25.9751 23.1963 25.8301 23.2805 25.6893C23.4382 25.4258 23.4272 25.2114 23.3248 24.9786C23.2043 24.7048 22.9537 24.4176 22.6378 24.1462C21.9334 23.541 20.1742 22.0734 19.3215 21.5036C19.2004 21.4226 19.1166 21.406 19.0602 21.4043C18.9989 21.4025 18.9157 21.4173 18.7998 21.4754C18.5431 21.6041 18.2515 21.8779 17.907 22.2726C17.5756 22.6522 17.2266 23.0476 16.8238 23.2933C16.3523 23.581 15.8455 23.6493 15.2699 23.5051C15.2619 23.503 15.2539 23.5009 15.2459 23.4986C14.3873 23.2527 12.6865 22.2662 11.2266 20.7016C10.4971 19.969 9.8714 19.1849 9.39845 18.4738C8.93571 17.7779 8.5794 17.0927 8.44822 16.5666C8.30432 15.9896 8.37242 15.4816 8.65944 15.0089C8.9046 14.6051 9.29896 14.2552 9.67762 13.9231C10.0717 13.5774 10.3483 13.2824 10.4772 13.032C10.5357 12.9184 10.545 12.8486 10.5438 12.8107C10.5429 12.7818 10.5357 12.7283 10.4687 12.6388C10.2031 12.2838 9.72681 11.6955 9.22927 11.0809C9.18749 11.0293 9.14557 10.9775 9.1036 10.9257C8.57554 10.2732 8.03384 9.60156 7.76792 9.22835C7.57597 8.95895 7.32762 8.74081 7.07525 8.63348Z" fill="black"/>
<path d="M23.2238 2C19.5368 2 16.4477 4.99686 16.4477 8.79288C16.4477 12.489 19.4372 15.5858 23.2238 15.5858C26.9109 15.5858 30 12.5889 30 8.79288C29.9004 4.99686 26.9109 2 23.2238 2ZM26.313 10.7908C26.1137 10.9906 25.9144 11.0905 25.7151 11.0905C25.6154 11.0905 25.4161 11.0905 25.3165 10.9906L22.8252 9.39225C22.6259 9.29235 22.5263 8.99267 22.5263 8.79288V5.39644C22.5263 4.99686 22.8252 4.59728 23.3235 4.59728C23.6224 4.59728 23.9214 4.99686 23.9214 5.39644V8.3933L26.014 9.79183C26.4126 9.99162 26.5123 10.3912 26.313 10.7908Z" fill="black"/>
</svg>
