<svg width="32" height="32" viewBox="0 0 32 32" fill="none" xmlns="http://www.w3.org/2000/svg">
<path d="M9.09 11.21C9.77483 11.21 10.33 10.6548 10.33 9.97C10.33 9.28517 9.77483 8.73 9.09 8.73C8.40517 8.73 7.85 9.28517 7.85 9.97C7.85 10.6548 8.40517 11.21 9.09 11.21Z" fill="black"/>
<path d="M14.86 11.21C15.5448 11.21 16.1 10.6548 16.1 9.97C16.1 9.28517 15.5448 8.73 14.86 8.73C14.1752 8.73 13.62 9.28517 13.62 9.97C13.62 10.6548 14.1752 11.21 14.86 11.21Z" fill="black"/>
<path d="M24.07 18.06C24.7548 18.06 25.31 17.5048 25.31 16.82C25.31 16.1352 24.7548 15.58 24.07 15.58C23.3852 15.58 22.83 16.1352 22.83 16.82C22.83 17.5048 23.3852 18.06 24.07 18.06Z" fill="black"/>
<path d="M18.3 18.06C18.9848 18.06 19.54 17.5048 19.54 16.82C19.54 16.1352 18.9848 15.58 18.3 15.58C17.6152 15.58 17.06 16.1352 17.06 16.82C17.06 17.5048 17.6152 18.06 18.3 18.06Z" fill="black"/>
<path d="M30 19.16C30 15.6 26.72 12.66 22.47 12.16C22.06 7.59 17.64 4 12.25 4C6.6 4 2 7.94 2 12.82C2.04267 14.0213 2.34023 15.1997 2.87296 16.2773C3.40569 17.3548 4.16141 18.3067 5.09 19.07L3.85 23.56L8.41 21C9.64422 21.4315 10.9425 21.6513 12.25 21.65C12.47 21.65 12.69 21.65 12.91 21.65C14.15 24.36 17.38 26.3 21.17 26.3C21.8406 26.2967 22.5096 26.2365 23.17 26.12L28.27 27.98L26.93 24.61C27.8417 24.0148 28.5967 23.2088 29.1311 22.2602C29.6654 21.3116 29.9635 20.2482 30 19.16ZM12.46 20.09H12.25C11.0049 20.0919 9.77042 19.8613 8.61 19.41L8.27 19.28L6.27 20.44L6.82 18.44L6.39 18.13C5.53826 17.514 4.83618 16.7141 4.33587 15.7897C3.83556 14.8652 3.54987 13.84 3.5 12.79C3.5 8.79 7.43 5.5 12.25 5.5C16.77 5.5 20.5 8.37 20.96 12.05C16.2 12.15 12.37 15.28 12.37 19.13C12.3742 19.4519 12.4043 19.7729 12.46 20.09ZM25.65 23.54L25.04 23.85L25.63 25.34L23.28 24.48H23.07C22.447 24.6015 21.8146 24.6684 21.18 24.68C17.18 24.68 13.87 22.17 13.87 19.09C13.87 16.01 17.15 13.5 21.18 13.5H21.75C25.5 13.73 28.47 16.13 28.48 19.05C28.4487 19.9821 28.1701 20.8891 27.6728 21.6781C27.1755 22.4671 26.4774 23.1097 25.65 23.54Z" fill="black"/>
</svg>
