<svg width="32" height="32" viewBox="0 0 32 32" fill="none" xmlns="http://www.w3.org/2000/svg">
<path d="M26.25 7.13H20.36V5C20.36 4.46957 20.1493 3.96086 19.7742 3.58579C19.3991 3.21071 18.8904 3 18.36 3H13.62C13.0896 3 12.5809 3.21071 12.2058 3.58579C11.8307 3.96086 11.62 4.46957 11.62 5V7.13H5.75C4.75544 7.13 3.80161 7.52509 3.09835 8.22835C2.39509 8.93161 2 9.88544 2 10.88V25.38C2 26.3746 2.39509 27.3284 3.09835 28.0317C3.80161 28.7349 4.75544 29.13 5.75 29.13H26.25C27.2446 29.13 28.1984 28.7349 28.9017 28.0317C29.6049 27.3284 30 26.3746 30 25.38V10.88C30 9.88544 29.6049 8.93161 28.9017 8.22835C28.1984 7.52509 27.2446 7.13 26.25 7.13ZM5.67 27.62C5.08896 27.5993 4.53848 27.3546 4.13394 26.937C3.7294 26.5194 3.50222 25.9614 3.5 25.38V10.88C3.50222 10.2986 3.7294 9.74063 4.13394 9.32304C4.53848 8.90545 5.08896 8.66067 5.67 8.64V27.62ZM13.14 5C13.14 4.8727 13.1906 4.75061 13.2806 4.66059C13.3706 4.57057 13.4927 4.52 13.62 4.52H18.38C18.5073 4.52 18.6294 4.57057 18.7194 4.66059C18.8094 4.75061 18.86 4.8727 18.86 5V7.13H13.14V5ZM24.83 27.63H7.17V8.63H24.83V27.63ZM28.5 25.38C28.4978 25.9614 28.2706 26.5194 27.8661 26.937C27.4615 27.3546 26.911 27.5993 26.33 27.62V8.62C26.9145 8.64079 27.4679 8.88835 27.873 9.31023C28.2781 9.73211 28.503 10.2951 28.5 10.88V25.38Z" fill="black"/>
<path d="M10.18 24C10.3228 24.1372 10.512 24.2157 10.71 24.22C10.9084 24.2177 11.0983 24.1389 11.24 24L16 19.19L20.76 24C20.9006 24.1404 21.0912 24.2193 21.29 24.2193C21.4888 24.2193 21.6794 24.1404 21.82 24C21.9604 23.8594 22.0393 23.6688 22.0393 23.47C22.0393 23.2712 21.9604 23.0806 21.82 22.94L17.06 18.18L21.82 13.42C21.9525 13.2778 22.0246 13.0898 22.0212 12.8955C22.0177 12.7012 21.939 12.5158 21.8016 12.3784C21.6642 12.241 21.4788 12.1623 21.2845 12.1588C21.0902 12.1554 20.9022 12.2275 20.76 12.36L16 17.07L11.24 12.31C11.0978 12.1775 10.9098 12.1054 10.7155 12.1088C10.5212 12.1123 10.3358 12.191 10.1984 12.3284C10.061 12.4658 9.98225 12.6512 9.97883 12.8455C9.9754 13.0398 10.0475 13.2278 10.18 13.37L14.94 18.13L10.18 22.89C10.1027 22.9603 10.0409 23.046 9.99858 23.1416C9.9563 23.2371 9.93445 23.3405 9.93445 23.445C9.93445 23.5495 9.9563 23.6529 9.99858 23.7484C10.0409 23.844 10.1027 23.9297 10.18 24Z" fill="black"/>
</svg>
