<svg width="32" height="32" viewBox="0 0 32 32" fill="none" xmlns="http://www.w3.org/2000/svg">
<path d="M29.7752 28.6762L22.0821 20.9831C23.8805 18.9848 24.9795 16.2872 24.9795 13.3898C24.9795 7.19536 19.7841 2 13.4897 2C7.19536 2 2 7.19536 2 13.4897C2 19.7841 7.19536 24.9795 13.4897 24.9795C16.3872 24.9795 18.9848 23.8805 21.083 22.0821L28.7761 29.7752C28.876 29.8751 29.0758 29.975 29.2756 29.975C29.4755 29.975 29.6753 29.8751 29.7752 29.7752C30.0749 29.4755 30.0749 28.9759 29.7752 28.6762ZM13.4897 23.4808C7.99465 23.4808 3.49866 18.9848 3.49866 13.4897C3.49866 7.99465 7.99465 3.49866 13.4897 3.49866C18.9848 3.49866 23.4808 7.99465 23.4808 13.4897C23.4808 18.9848 18.9848 23.4808 13.4897 23.4808Z" fill="black"/>
<path d="M17.8858 12.6905H8.99376C8.59411 12.6905 8.19447 12.9902 8.19447 13.4897C8.19447 13.9893 8.4942 14.289 8.99376 14.289H17.8858C18.2855 14.289 18.6851 13.9893 18.6851 13.4897C18.6851 12.9902 18.2855 12.6905 17.8858 12.6905Z" fill="black"/>
</svg>
