<svg width="32" height="32" viewBox="0 0 32 32" fill="none" xmlns="http://www.w3.org/2000/svg">
<path d="M6.21284 12.7121L5.2646 13.0015C5.16952 13.027 5.08039 13.071 5.00232 13.1309C4.92425 13.1909 4.85877 13.2656 4.80963 13.3509C4.76049 13.4362 4.72866 13.5304 4.71595 13.628C4.70325 13.7256 4.70992 13.8248 4.73558 13.9198L7.46052 24.051C7.50406 24.2084 7.59785 24.3472 7.72759 24.4463C7.85733 24.5454 8.01592 24.5994 8.17919 24.6H8.37882L10.7045 23.9811L11.3733 26.4965C11.5327 27.0964 11.8098 27.6586 12.1885 28.1504C12.5672 28.6422 13.0399 29.0537 13.5792 29.3611C14.2887 29.7828 15.0995 30.0036 15.9248 30C16.6493 30.002 17.3645 29.8369 18.0148 29.5175C18.665 29.1981 19.2329 28.7331 19.6742 28.1585C20.1155 27.5839 20.4184 26.9153 20.5592 26.2047C20.7001 25.494 20.6751 24.7604 20.4863 24.061L17.9211 14.4888C17.8078 14.0765 17.7771 13.6459 17.8307 13.2218C17.8844 12.7976 18.0214 12.3882 18.2338 12.0172C18.4462 11.6461 18.7299 11.3207 19.0685 11.0597C19.4071 10.7987 19.794 10.6072 20.2069 10.4962H20.2967C20.7049 10.383 21.1317 10.3529 21.5518 10.4078C21.9719 10.4627 22.3767 10.6013 22.7421 10.8156C23.1137 11.0311 23.4384 11.3188 23.6972 11.6616C23.9561 12.0044 24.1438 12.3955 24.2493 12.8119L25.9662 19.1002C25.9916 19.1953 26.0356 19.2844 26.0956 19.3625C26.1555 19.4405 26.2303 19.506 26.3156 19.5552C26.4009 19.6043 26.495 19.6361 26.5926 19.6488C26.6903 19.6615 26.7894 19.6549 26.8845 19.6292C27.075 19.5755 27.2371 19.4493 27.3359 19.2778C27.4348 19.1062 27.4626 18.9027 27.4135 18.7109L25.7166 12.3727C25.559 11.7697 25.2835 11.2039 24.9061 10.7079C24.5287 10.2119 24.0568 9.79549 23.5177 9.48277C22.9786 9.17006 22.3829 8.96719 21.7649 8.88586C21.147 8.80453 20.5191 8.84636 19.9174 9.00893H19.8176C19.2198 9.1688 18.6594 9.44486 18.1684 9.82132C17.6773 10.1978 17.2653 10.6673 16.9557 11.203C16.6461 11.7388 16.4451 12.3303 16.3641 12.9437C16.2831 13.5571 16.3238 14.1805 16.4838 14.7782L19.049 24.3604C19.2656 25.1862 19.1468 26.0642 18.7186 26.8028C18.2904 27.5414 17.5875 28.0807 16.7632 28.3031C15.9387 28.5228 15.0607 28.4066 14.3216 27.98C13.5826 27.5534 13.0428 26.8512 12.8206 26.0273L12.1518 23.502L14.4775 22.983C14.5791 22.955 14.6739 22.9062 14.7556 22.8396C14.8373 22.773 14.9043 22.6901 14.9522 22.5962C15.0001 22.5023 15.0279 22.3994 15.0338 22.2941C15.0397 22.1889 15.0236 22.0835 14.9865 21.9848L12.2816 11.8537C12.2288 11.6638 12.1033 11.5024 11.9322 11.4045C11.7604 11.3043 11.5561 11.2756 11.3633 11.3246L10.3651 11.5842L9.70635 9.00893L8.818 5.60525L8.28898 3.60896C8.21361 3.33239 8.08451 3.07336 7.90903 2.84668C7.73356 2.62 7.51516 2.43011 7.26629 2.28783C6.76369 2.0005 6.16753 1.92459 5.60896 2.07681C5.05039 2.22902 4.57517 2.5969 4.28783 3.0995C4.0005 3.6021 3.92459 4.19826 4.07681 4.75683L6.21284 12.7121ZM10.994 13.0015L13.3296 21.7253L11.0139 22.3442H10.994L8.70821 22.983L6.37254 14.2193L10.994 13.0015ZM8.45867 10.067L8.99767 12.0034L7.6901 12.3527L7.1511 10.4163L8.45867 10.067ZM8.06939 8.61966L6.76182 9.00893L6.25277 7.11246L7.56034 6.7132L8.06939 8.61966ZM6.00323 3.53909C6.17779 3.49567 6.36236 3.52125 6.51854 3.61049C6.67472 3.69973 6.79046 3.84577 6.84167 4.0182L7.17106 5.26588L5.86349 5.62522L5.52412 4.37753C5.47808 4.20287 5.50249 4.01711 5.59211 3.86028C5.68173 3.70345 5.82937 3.5881 6.00323 3.53909Z" fill="black"/>
</svg>
