<svg width="32" height="32" viewBox="0 0 32 32" fill="none" xmlns="http://www.w3.org/2000/svg">
<path fill-rule="evenodd" clip-rule="evenodd" d="M6 3.75627C6 2.78631 6.78631 2 7.75627 2H17.19C21.5721 2 25.0681 5.49599 25.0681 9.87814C25.0681 9.89535 25.0678 9.91256 25.0673 9.92977C24.9958 12.3613 23.8747 14.529 22.1283 15.9629C23.9256 17.4013 25.0681 19.6168 25.0681 22.1219C25.0681 22.1391 25.0678 22.1563 25.0673 22.1735C24.9399 26.5055 21.4811 30 17.0896 30H7.75627C6.78631 30 6 29.2137 6 28.2437V3.75627ZM17.0896 14.2437C19.5141 14.2437 21.4694 12.3322 21.5555 9.8524C21.542 7.42241 19.6236 5.51254 17.19 5.51254H9.51254V14.2437H17.0896ZM9.51254 17.7563V26.4875H17.0896C19.5141 26.4875 21.4694 24.576 21.5555 22.0961C21.542 19.6661 19.6236 17.7563 17.19 17.7563H9.51254Z" fill="black"/>
</svg>
