<svg width="32" height="32" viewBox="0 0 32 32" fill="none" xmlns="http://www.w3.org/2000/svg">
<path fill-rule="evenodd" clip-rule="evenodd" d="M4.80005 7.55005C4.11426 7.55005 3.55005 8.11426 3.55005 8.80005V12.25H28.55V8.80005C28.55 8.11426 27.9858 7.55005 27.3 7.55005H4.80005ZM28.55 13.75H3.55005V23.2001C3.55005 23.8858 4.11426 24.4501 4.80005 24.4501H27.2001C27.6273 24.4501 27.9396 24.3109 28.1515 24.1136C28.36 23.9195 28.5099 23.6327 28.55 23.263V13.75ZM2.05005 8.80005C2.05005 7.28584 3.28584 6.05005 4.80005 6.05005H27.3C28.8143 6.05005 30.05 7.28584 30.05 8.80005V23.3341L30.047 23.368C29.9819 24.0833 29.6843 24.736 29.1736 25.2115C28.6604 25.6892 27.9729 25.9501 27.2001 25.9501H4.80005C3.28584 25.9501 2.05005 24.7143 2.05005 23.2001V8.80005ZM5.35005 17C5.35005 16.5858 5.68584 16.25 6.10005 16.25H16C16.4143 16.25 16.75 16.5858 16.75 17C16.75 17.4143 16.4143 17.75 16 17.75H6.10005C5.68584 17.75 5.35005 17.4143 5.35005 17ZM5.35005 20.9C5.35005 20.4858 5.68584 20.15 6.10005 20.15H11.8C12.2143 20.15 12.55 20.4858 12.55 20.9C12.55 21.3143 12.2143 21.65 11.8 21.65H6.10005C5.68584 21.65 5.35005 21.3143 5.35005 20.9Z" fill="black"/>
</svg>
