<svg width="32" height="32" viewBox="0 0 32 32" fill="none" xmlns="http://www.w3.org/2000/svg">
<path d="M24.991 18.2873C24.8956 18.2618 24.7961 18.2556 24.6983 18.2692C24.6005 18.2827 24.5063 18.3156 24.4214 18.366C24.3365 18.4164 24.2625 18.4832 24.2038 18.5626C24.145 18.642 24.1028 18.7323 24.0794 18.8283C23.5085 21.0384 22.2341 23.0028 20.4487 24.4251C18.6632 25.8473 16.4635 26.6501 14.1817 26.7124C11.4026 26.7801 8.71036 25.7411 6.69731 23.8238C4.68426 21.9066 3.51528 19.2682 3.44753 16.4891C3.37977 13.7099 4.4188 11.0177 6.33604 9.00467C8.25328 6.99162 10.8917 5.82264 13.6708 5.75489C14.1055 5.74787 14.5403 5.76459 14.9731 5.80498C15.0742 5.82104 15.1774 5.81631 15.2765 5.79107C15.3757 5.76583 15.4686 5.72061 15.5496 5.65818C15.6307 5.59575 15.6981 5.51744 15.7478 5.42803C15.7975 5.33862 15.8285 5.24 15.8387 5.13822C15.849 5.03644 15.8383 4.93363 15.8074 4.83611C15.7765 4.73859 15.7261 4.6484 15.6591 4.57107C15.5921 4.49375 15.5101 4.43091 15.4179 4.38641C15.3258 4.34192 15.2256 4.3167 15.1234 4.31231C14.6141 4.2619 14.1023 4.24182 13.5907 4.2522C11.2327 4.33676 8.95173 5.11335 7.03203 6.48519C5.11233 7.85703 3.63878 9.76347 2.79499 11.9669C1.9512 14.1704 1.7745 16.5734 2.28689 18.8766C2.79929 21.1798 3.97813 23.2813 5.67651 24.9192C7.90861 27.0532 10.8833 28.2351 13.9713 28.215H14.2819C16.8902 28.1433 19.4044 27.2248 21.4447 25.5983C23.485 23.9718 24.9408 21.7256 25.5921 19.1989C25.617 19.0993 25.621 18.9957 25.6037 18.8945C25.5864 18.7933 25.5483 18.6968 25.4918 18.6111C25.4353 18.5254 25.3616 18.4523 25.2754 18.3966C25.1892 18.3409 25.0924 18.3037 24.991 18.2873Z" fill="black"/>
<path d="M23.2382 3C21.9008 3 20.5934 3.39659 19.4814 4.13962C18.3693 4.88265 17.5026 5.93874 16.9908 7.17435C16.479 8.40996 16.3451 9.76959 16.606 11.0813C16.8669 12.393 17.511 13.5979 18.4567 14.5436C19.4023 15.4893 20.6072 16.1333 21.919 16.3942C23.2307 16.6552 24.5903 16.5213 25.8259 16.0094C27.0615 15.4976 28.1176 14.6309 28.8606 13.5189C29.6037 12.4069 30.0003 11.0995 30.0003 9.76209C30.0003 7.96867 29.2878 6.24871 28.0197 4.98057C26.7516 3.71243 25.0316 3 23.2382 3ZM25.7426 10.5034H20.7337C20.5344 10.5034 20.3433 10.4243 20.2024 10.2834C20.0615 10.1424 19.9823 9.95134 19.9823 9.75207C19.9823 9.5528 20.0615 9.3617 20.2024 9.22079C20.3433 9.07989 20.5344 9.00073 20.7337 9.00073H25.7426C25.9419 9.00073 26.133 9.07989 26.2739 9.22079C26.4148 9.3617 26.494 9.5528 26.494 9.75207C26.494 9.95134 26.4148 10.1424 26.2739 10.2834C26.133 10.4243 25.9419 10.5034 25.7426 10.5034Z" fill="black"/>
</svg>
