<svg width="32" height="32" viewBox="0 0 32 32" fill="none" xmlns="http://www.w3.org/2000/svg">
<path d="M23.253 3C21.9179 3 20.6129 3.39588 19.5029 4.13758C18.3928 4.87928 17.5277 5.93349 17.0168 7.16689C16.5059 8.40029 16.3722 9.75749 16.6327 11.0669C16.8931 12.3762 17.536 13.579 18.48 14.523C19.424 15.467 20.6267 16.1098 21.9361 16.3703C23.2455 16.6308 24.6027 16.4971 25.8361 15.9862C27.0695 15.4753 28.1237 14.6101 28.8654 13.5001C29.6071 12.3901 30.003 11.085 30.003 9.75C30.003 7.95979 29.2918 6.2429 28.0259 4.97703C26.76 3.71116 25.0432 3 23.253 3ZM25.5529 11C25.6934 11.1406 25.7723 11.3312 25.7723 11.53C25.7723 11.7288 25.6934 11.9194 25.5529 12.06C25.4837 12.1301 25.4012 12.1857 25.3101 12.2235C25.2191 12.2612 25.1215 12.2805 25.023 12.28C24.9242 12.2822 24.826 12.2638 24.7347 12.2259C24.6435 12.188 24.5611 12.1315 24.493 12.06L23.253 10.81L22.003 12.05C21.8623 12.1905 21.6717 12.2693 21.4729 12.2693C21.2742 12.2693 21.0836 12.1905 20.943 12.05C20.8132 11.9021 20.7468 11.7091 20.7581 11.5127C20.7693 11.3163 20.8572 11.1322 21.003 11L22.243 9.76L21.003 8.51C20.9116 8.36904 20.8701 8.20148 20.8853 8.03418C20.9005 7.86688 20.9714 7.70952 21.0867 7.58732C21.202 7.46512 21.355 7.38517 21.5211 7.36027C21.6872 7.33537 21.8569 7.36697 22.003 7.45L23.243 8.69L24.483 7.45C24.6251 7.31752 24.8132 7.2454 25.0075 7.24883C25.2018 7.25225 25.3872 7.33097 25.5246 7.46838C25.662 7.60579 25.7407 7.79118 25.7441 7.98548C25.7476 8.17978 25.6754 8.36783 25.543 8.51L24.313 9.75L25.5529 11Z" fill="black"/>
<path d="M25.003 18.26C24.9077 18.2346 24.8084 18.2284 24.7107 18.2419C24.6131 18.2554 24.5191 18.2882 24.4343 18.3385C24.3496 18.3888 24.2757 18.4556 24.2171 18.5348C24.1585 18.6141 24.1163 18.7042 24.093 18.8C23.5231 21.0062 22.251 22.9671 20.4687 24.3868C18.6864 25.8065 16.4907 26.6079 14.213 26.67C11.4388 26.7376 8.75138 25.7005 6.74193 23.7866C4.73247 21.8728 3.56558 19.2392 3.49795 16.465C3.43032 13.6908 4.46749 11.0034 6.3813 8.99398C8.29511 6.98452 10.9288 5.81763 13.703 5.75C14.1369 5.74299 14.5709 5.75968 15.003 5.8C15.1002 5.81109 15.1987 5.80277 15.2928 5.77552C15.3868 5.74826 15.4745 5.70262 15.5508 5.64123C15.627 5.57984 15.6904 5.50393 15.7371 5.41789C15.7838 5.33185 15.813 5.2374 15.823 5.14C15.8354 5.04118 15.8279 4.94087 15.8006 4.84505C15.7734 4.74924 15.7272 4.65991 15.6646 4.58241C15.602 4.5049 15.5245 4.44083 15.4366 4.39402C15.3486 4.34721 15.2522 4.31864 15.153 4.31C14.6446 4.25996 14.1337 4.23992 13.623 4.25C10.4612 4.3494 7.46653 5.69322 5.29044 7.98917C3.11435 10.2851 1.93285 13.3474 2.00295 16.51C2.09148 19.6333 3.39474 22.5989 5.63565 24.7763C7.87656 26.9538 10.8784 28.1713 14.003 28.17H14.313C16.9166 28.0983 19.4263 27.1815 21.4629 25.5579C23.4996 23.9343 24.9528 21.6922 25.603 19.17C25.6278 19.0706 25.6317 18.9671 25.6145 18.8661C25.5973 18.7651 25.5592 18.6688 25.5028 18.5832C25.4464 18.4977 25.3729 18.4248 25.2868 18.3691C25.2008 18.3135 25.1041 18.2763 25.003 18.26Z" fill="black"/>
</svg>
