<svg width="32" height="32" viewBox="0 0 32 32" fill="none" xmlns="http://www.w3.org/2000/svg">
<path d="M23.253 3C21.9179 3 20.6129 3.39588 19.5029 4.13758C18.3928 4.87928 17.5277 5.93349 17.0168 7.16689C16.5059 8.40029 16.3722 9.75749 16.6327 11.0669C16.8931 12.3762 17.536 13.579 18.48 14.523C19.424 15.467 20.6267 16.1098 21.9361 16.3703C23.2455 16.6308 24.6027 16.4971 25.8361 15.9862C27.0695 15.4753 28.1237 14.6101 28.8654 13.5001C29.6071 12.3901 30.003 11.085 30.003 9.75C30.0003 7.9606 29.2883 6.24525 28.023 4.97995C26.7577 3.71465 25.0424 3.00265 23.253 3ZM22.503 6.38C22.503 6.18109 22.582 5.99032 22.7226 5.84967C22.8633 5.70902 23.054 5.63 23.253 5.63C23.4519 5.63 23.6426 5.70902 23.7833 5.84967C23.9239 5.99032 24.003 6.18109 24.003 6.38V9.51C24.003 9.70891 23.9239 9.89968 23.7833 10.0403C23.6426 10.181 23.4519 10.26 23.253 10.26C23.054 10.26 22.8633 10.181 22.7226 10.0403C22.582 9.89968 22.503 9.70891 22.503 9.51V6.38ZM23.253 13.32C23.0552 13.32 22.8618 13.2614 22.6974 13.1515C22.5329 13.0416 22.4048 12.8854 22.3291 12.7027C22.2534 12.52 22.2336 12.3189 22.2722 12.1249C22.3108 11.9309 22.406 11.7527 22.5458 11.6129C22.6857 11.473 22.8639 11.3778 23.0579 11.3392C23.2518 11.3006 23.4529 11.3204 23.6356 11.3961C23.8184 11.4718 23.9745 11.6 24.0844 11.7644C24.1943 11.9289 24.253 12.1222 24.253 12.32C24.253 12.5852 24.1476 12.8396 23.9601 13.0271C23.7725 13.2146 23.5182 13.32 23.253 13.32Z" fill="black"/>
<path d="M25.003 18.26C24.8107 18.2114 24.607 18.241 24.4365 18.3422C24.2659 18.4434 24.1424 18.608 24.093 18.8C23.5231 21.0062 22.251 22.9671 20.4687 24.3868C18.6864 25.8065 16.4907 26.6079 14.213 26.67C11.4388 26.7376 8.75138 25.7005 6.74193 23.7866C4.73247 21.8728 3.56558 19.2392 3.49795 16.465C3.43032 13.6908 4.46749 11.0034 6.3813 8.99398C8.29511 6.98452 10.9288 5.81763 13.703 5.75C14.1369 5.74299 14.5709 5.75968 15.003 5.8C15.1038 5.81604 15.2069 5.81131 15.3058 5.78612C15.4048 5.76092 15.4975 5.71578 15.5784 5.65347C15.6593 5.59115 15.7266 5.51297 15.7763 5.42372C15.8259 5.33447 15.8567 5.23603 15.867 5.13443C15.8772 5.03283 15.8666 4.93021 15.8357 4.83286C15.8049 4.73552 15.7545 4.64549 15.6877 4.5683C15.6208 4.49111 15.5389 4.42839 15.447 4.38397C15.355 4.33956 15.255 4.31438 15.153 4.31C14.6446 4.25996 14.1337 4.23992 13.623 4.25C10.4612 4.3494 7.46653 5.69322 5.29044 7.98917C3.11435 10.2851 1.93285 13.3474 2.00295 16.51C2.09148 19.6333 3.39474 22.5989 5.63565 24.7763C7.87656 26.9538 10.8784 28.1713 14.003 28.17H14.313C16.9166 28.0983 19.4263 27.1815 21.4629 25.5579C23.4996 23.9343 24.9528 21.6922 25.603 19.17C25.6278 19.0706 25.6317 18.9671 25.6145 18.8661C25.5973 18.7651 25.5592 18.6688 25.5028 18.5832C25.4464 18.4977 25.3729 18.4248 25.2868 18.3691C25.2008 18.3135 25.1041 18.2763 25.003 18.26Z" fill="black"/>
</svg>
