<svg width="32" height="32" viewBox="0 0 32 32" fill="none" xmlns="http://www.w3.org/2000/svg">
<path d="M23.2382 3C21.9008 3 20.5934 3.39659 19.4814 4.13962C18.3693 4.88265 17.5026 5.93874 16.9908 7.17435C16.479 8.40996 16.3451 9.76959 16.606 11.0813C16.8669 12.393 17.511 13.5979 18.4567 14.5436C19.4023 15.4893 20.6072 16.1333 21.919 16.3942C23.2307 16.6552 24.5903 16.5213 25.8259 16.0094C27.0615 15.4976 28.1176 14.6309 28.8606 13.5189C29.6037 12.4069 30.0003 11.0995 30.0003 9.76209C30.0003 7.96867 29.2878 6.24871 28.0197 4.98057C26.7516 3.71243 25.0316 3 23.2382 3ZM26.9248 7.78856L22.9877 13.0179C22.926 13.1055 22.8453 13.1781 22.7516 13.2301C22.658 13.2821 22.5537 13.3123 22.4468 13.3184H22.3866C22.2877 13.3207 22.1893 13.3022 22.0979 13.2643C22.0065 13.2263 21.924 13.1697 21.8557 13.0981L19.6117 10.804C19.471 10.6631 19.392 10.4721 19.392 10.273C19.392 10.0739 19.471 9.88293 19.6117 9.74205C19.6808 9.67117 19.7633 9.61483 19.8545 9.57637C19.9457 9.5379 20.0437 9.51808 20.1426 9.51808C20.2416 9.51808 20.3396 9.5379 20.4308 9.57637C20.522 9.61483 20.6045 9.67117 20.6736 9.74205L22.3466 11.405L25.7226 6.88695C25.8422 6.72753 26.0202 6.62214 26.2174 6.59396C26.4147 6.56578 26.6151 6.61712 26.7745 6.73668C26.8545 6.79503 26.9221 6.86882 26.9731 6.95371C27.0242 7.03859 27.0577 7.13284 27.0717 7.2309C27.0857 7.32895 27.0799 7.42882 27.0547 7.5246C27.0294 7.62038 26.9853 7.71014 26.9248 7.78856Z" fill="black"/>
<path d="M24.991 18.2873C24.8956 18.2618 24.7961 18.2556 24.6983 18.2692C24.6005 18.2827 24.5063 18.3156 24.4214 18.366C24.3365 18.4164 24.2625 18.4832 24.2038 18.5626C24.145 18.642 24.1028 18.7323 24.0794 18.8283C23.5085 21.0384 22.2341 23.0028 20.4487 24.4251C18.6632 25.8473 16.4635 26.6501 14.1817 26.7124C12.1099 26.7629 10.0697 26.1979 8.31898 25.0889C6.56827 23.9799 5.18571 22.3767 4.34612 20.482C3.50653 18.5873 3.24761 16.4862 3.60211 14.4443C3.9566 12.4024 4.90859 10.5115 6.33769 9.01071C7.28519 8.0116 8.42081 7.20962 9.67928 6.65088C10.9378 6.09213 12.2943 5.78763 13.6708 5.75489C14.1055 5.74787 14.5403 5.76459 14.9731 5.80498C15.0706 5.81609 15.1693 5.80775 15.2635 5.78045C15.3577 5.75315 15.4455 5.70742 15.5219 5.64593C15.5983 5.58443 15.6618 5.50838 15.7086 5.42219C15.7554 5.33599 15.7846 5.24137 15.7946 5.1438C15.8071 5.0448 15.7995 4.9443 15.7723 4.84832C15.745 4.75234 15.6986 4.66284 15.636 4.5852C15.5733 4.50756 15.4956 4.44337 15.4075 4.39648C15.3194 4.34959 15.2228 4.32096 15.1234 4.31231C14.6141 4.2619 14.1023 4.24182 13.5907 4.2522C11.2327 4.33676 8.95173 5.11335 7.03203 6.48519C5.11233 7.85703 3.63878 9.76347 2.79499 11.9669C1.9512 14.1704 1.7745 16.5734 2.28689 18.8766C2.79929 21.1798 3.97813 23.2813 5.67651 24.9192C7.90861 27.0532 10.8833 28.2351 13.9713 28.215H14.2819C16.8902 28.1433 19.4044 27.2248 21.4447 25.5983C23.485 23.9718 24.9408 21.7256 25.5921 19.1989C25.617 19.0993 25.621 18.9957 25.6037 18.8945C25.5864 18.7933 25.5483 18.6968 25.4918 18.6111C25.4353 18.5254 25.3616 18.4523 25.2754 18.3966C25.1892 18.3409 25.0924 18.3037 24.991 18.2873Z" fill="black"/>
</svg>
