<svg width="32" height="32" viewBox="0 0 32 32" fill="none" xmlns="http://www.w3.org/2000/svg">
<path d="M16 2C12.287 2 8.72606 3.475 6.10055 6.1005C3.47504 8.72601 2.00005 12.287 2.00005 16C1.99234 18.9265 2.91317 21.78 4.63005 24.15C4.69658 24.248 4.78598 24.3284 4.89051 24.3841C4.99505 24.4399 5.11158 24.4694 5.23005 24.47H26.77C26.8899 24.4693 27.0078 24.4398 27.114 24.3842C27.2201 24.3285 27.3113 24.2482 27.38 24.15C29.094 21.7791 30.0114 18.9255 30 16C30 12.287 28.5251 8.72601 25.8995 6.1005C23.274 3.475 19.7131 2 16 2ZM4.43005 16.75H3.52005C3.52005 16.5 3.52005 16.25 3.52005 16C3.52005 15.75 3.52005 15.5 3.52005 15.25H4.42005C4.61896 15.25 4.80973 15.329 4.95038 15.4697C5.09103 15.6103 5.17005 15.8011 5.17005 16C5.17005 16.1989 5.09103 16.3897 4.95038 16.5303C4.80973 16.671 4.61896 16.75 4.42005 16.75H4.43005ZM15.25 3.53C15.5034 3.53 15.7534 3.53 16 3.53C16.2467 3.53 16.4967 3.53 16.75 3.53V4.43C16.75 4.62891 16.671 4.81968 16.5304 4.96033C16.3897 5.10098 16.199 5.18 16 5.18C15.8011 5.18 15.6104 5.10098 15.4697 4.96033C15.3291 4.81968 15.25 4.62891 15.25 4.43V3.53ZM8.35005 8.35C8.20953 8.49069 8.01889 8.56983 7.82005 8.57C7.62205 8.56569 7.43289 8.48717 7.29005 8.35L6.66005 7.71C6.98795 7.33212 7.34216 6.9779 7.72005 6.65L8.35005 7.29C8.42081 7.35895 8.47704 7.44136 8.51544 7.53239C8.55384 7.62341 8.57362 7.72121 8.57362 7.82C8.57362 7.91879 8.55384 8.01659 8.51544 8.10761C8.47704 8.19864 8.42081 8.28105 8.35005 8.35ZM22.14 11.06L19 14.22C19.3289 14.7553 19.5021 15.3717 19.5 16C19.4948 16.7748 19.2305 17.5255 18.7491 18.1326C18.2677 18.7396 17.5971 19.1682 16.8439 19.3499C16.0907 19.5315 15.2984 19.456 14.5932 19.1351C13.888 18.8143 13.3104 18.2667 12.9525 17.5795C12.5946 16.8924 12.477 16.1052 12.6184 15.3435C12.7598 14.5817 13.152 13.8892 13.7326 13.3762C14.3132 12.8632 15.0488 12.5593 15.8222 12.5129C16.5956 12.4664 17.3622 12.6802 18 13.12L21.08 10C21.2207 9.85955 21.4113 9.78066 21.61 9.78066C21.8088 9.78066 21.9994 9.85955 22.14 10C22.2108 10.0689 22.267 10.1514 22.3054 10.2424C22.3438 10.3334 22.3636 10.4312 22.3636 10.53C22.3636 10.6288 22.3438 10.7266 22.3054 10.8176C22.267 10.9086 22.2108 10.9911 22.14 11.06ZM24.71 8.35C24.5672 8.48717 24.378 8.56569 24.18 8.57C23.9816 8.5677 23.7918 8.48888 23.65 8.35C23.5793 8.28105 23.5231 8.19864 23.4847 8.10761C23.4463 8.01659 23.4265 7.91879 23.4265 7.82C23.4265 7.72121 23.4463 7.62341 23.4847 7.53239C23.5231 7.44136 23.5793 7.35895 23.65 7.29L24.28 6.65C24.6579 6.9779 25.0121 7.33212 25.34 7.71L24.71 8.35ZM27.57 16.75C27.3711 16.75 27.1804 16.671 27.0397 16.5303C26.8991 16.3897 26.82 16.1989 26.82 16C26.82 15.8011 26.8991 15.6103 27.0397 15.4697C27.1804 15.329 27.3711 15.25 27.57 15.25H28.47C28.47 15.5033 28.47 15.7533 28.47 16C28.47 16.25 28.47 16.5 28.47 16.75H27.57Z" fill="black"/>
<path d="M21.27 28.47H10.73C10.5311 28.47 10.3404 28.549 10.1997 28.6897C10.0591 28.8303 9.98005 29.0211 9.98005 29.22C9.98005 29.4189 10.0591 29.6097 10.1997 29.7503C10.3404 29.891 10.5311 29.97 10.73 29.97H21.27C21.469 29.97 21.6597 29.891 21.8004 29.7503C21.941 29.6097 22.02 29.4189 22.02 29.22C22.02 29.0211 21.941 28.8303 21.8004 28.6897C21.6597 28.549 21.469 28.47 21.27 28.47Z" fill="black"/>
<path d="M16 14C15.6045 14 15.2178 14.1173 14.8889 14.3371C14.56 14.5568 14.3037 14.8692 14.1523 15.2346C14.0009 15.6001 13.9613 16.0022 14.0385 16.3902C14.1156 16.7781 14.3061 17.1345 14.5858 17.4142C14.8655 17.6939 15.2219 17.8844 15.6099 17.9616C15.9978 18.0387 16.4 17.9991 16.7654 17.8478C17.1309 17.6964 17.4432 17.44 17.663 17.1111C17.8828 16.7822 18 16.3956 18 16C18 15.4696 17.7893 14.9609 17.4143 14.5858C17.0392 14.2107 16.5305 14 16 14Z" fill="black"/>
</svg>
