<svg width="32" height="32" viewBox="0 0 32 32" fill="none" xmlns="http://www.w3.org/2000/svg">
<path fill-rule="evenodd" clip-rule="evenodd" d="M6.91756 4.75986C6.91756 3.24022 8.15778 2 9.67742 2H22.4229C23.9426 2 25.1828 3.24021 25.1828 4.75986V18.0072C25.1828 18.4229 24.8458 18.7599 24.4301 18.7599C24.0144 18.7599 23.6774 18.4229 23.6774 18.0072V4.75986C23.6774 4.07161 23.1112 3.50538 22.4229 3.50538H9.67742C8.98917 3.50538 8.42294 4.07161 8.42294 4.75986V18.0072C8.42294 18.4229 8.08595 18.7599 7.67025 18.7599C7.25455 18.7599 6.91756 18.4229 6.91756 18.0072V4.75986ZM16 6.01434C16.4157 6.01434 16.7527 6.35133 16.7527 6.76702V16.2185L19.9899 13.0532C20.2871 12.7626 20.7637 12.768 21.0543 13.0652C21.3449 13.3624 21.3396 13.839 21.0423 14.1296L16.5262 18.5453C16.2337 18.8314 15.7663 18.8314 15.4738 18.5453L10.9577 14.1296C10.6604 13.839 10.6551 13.3624 10.9457 13.0652C11.2363 12.768 11.7129 12.7626 12.0101 13.0532L15.2473 16.2185V6.76702C15.2473 6.35133 15.5843 6.01434 16 6.01434ZM4.75986 21.871C4.07161 21.871 3.50538 22.4372 3.50538 23.1254V27.2401C3.50538 27.9284 4.07161 28.4946 4.75986 28.4946H27.2401C27.9284 28.4946 28.4946 27.9284 28.4946 27.2401V23.1254C28.4946 22.4372 27.9284 21.871 27.2401 21.871H20.6068C20.2427 24.1311 18.2657 25.7849 16 25.7849C13.6319 25.7849 11.7524 24.0449 11.3948 21.871H4.75986ZM2 23.1254C2 21.6058 3.24022 20.3656 4.75986 20.3656H12.086C12.5017 20.3656 12.8387 20.7026 12.8387 21.1183C12.8387 22.8227 14.2203 24.2796 16 24.2796C17.7044 24.2796 19.1613 22.898 19.1613 21.1183C19.1613 20.7026 19.4983 20.3656 19.914 20.3656H27.2401C28.7598 20.3656 30 21.6058 30 23.1254V27.2401C30 28.7598 28.7598 30 27.2401 30H4.75986C3.24022 30 2 28.7598 2 27.2401V23.1254Z" fill="black"/>
</svg>
