<svg width="32" height="32" viewBox="0 0 32 32" fill="none" xmlns="http://www.w3.org/2000/svg">
<path d="M8.21382 29.0785C8.34961 29.1887 8.51925 29.2487 8.69417 29.2485H29.2494C29.4485 29.2485 29.6394 29.1695 29.7802 29.0288C29.9209 28.8882 30 28.6974 30 28.4985C30 28.2996 29.9209 28.1088 29.7802 27.9682C29.6394 27.8275 29.4485 27.7485 29.2494 27.7485H15.3091L27.4481 14.0785C28.1307 13.3084 28.4803 12.2995 28.4203 11.2724C28.3603 10.2454 27.8956 9.28398 27.1279 8.59851L21.904 3.97851C21.1315 3.29449 20.1188 2.94501 19.0886 3.00689C18.0583 3.06877 17.0948 3.53696 16.4099 4.30851L2.97993 19.4185C2.64006 19.8016 2.37921 20.2479 2.21232 20.7319C2.04544 21.216 1.97581 21.7281 2.00742 22.2391C2.03903 22.7501 2.17126 23.2498 2.39653 23.7095C2.6218 24.1693 2.93569 24.5802 3.32018 24.9185L8.21382 29.0785ZM17.5307 5.27851C17.9555 4.80659 18.5481 4.51946 19.182 4.47851C19.8122 4.44578 20.4301 4.66118 20.9032 5.07851L26.1271 9.7185C26.5979 10.1407 26.8829 10.7314 26.9204 11.3624C26.9579 11.9934 26.7447 12.6136 26.3273 13.0885L20.7932 19.3185L11.9866 11.5185L17.5307 5.27851ZM4.08074 20.4185L10.9859 12.6385L19.7824 20.4485L13.2876 27.7485H8.98439L4.2909 23.7485C4.05549 23.5409 3.86349 23.2888 3.72593 23.0068C3.58838 22.7247 3.50799 22.4183 3.48939 22.1051C3.47079 21.7919 3.51434 21.4781 3.61755 21.1818C3.72075 20.8855 3.88157 20.6125 4.09075 20.3785L4.08074 20.4185Z" fill="black"/>
</svg>
