<svg width="32" height="32" viewBox="0 0 32 32" fill="none" xmlns="http://www.w3.org/2000/svg">
<path d="M10.6321 2.55979C10.5884 2.39954 10.4934 2.25803 10.3617 2.15693C10.2301 2.05583 10.0689 2.00071 9.90291 2C9.73777 1.99951 9.57723 2.05436 9.44688 2.15582C9.31654 2.25728 9.22389 2.3995 9.18372 2.55979L2.03188 29.0498C2.00199 29.1483 1.99298 29.252 2.00543 29.3542C2.01787 29.4564 2.0515 29.5548 2.10415 29.6433C2.1568 29.7317 2.22731 29.8082 2.31119 29.8678C2.39506 29.9274 2.49045 29.9688 2.59124 29.9894C2.65414 29.999 2.71812 29.999 2.78102 29.9894C2.94615 29.9899 3.1067 29.9351 3.23704 29.8336C3.36739 29.7322 3.46004 29.5899 3.5002 29.4297L6.35695 18.8237H13.4489L16.3056 29.4297C16.3617 29.6154 16.4875 29.7721 16.6567 29.8669C16.8258 29.9617 17.0251 29.9872 17.2126 29.938C17.4002 29.8888 17.5614 29.7688 17.6623 29.6032C17.7633 29.4375 17.7961 29.2392 17.754 29.0498L10.6321 2.55979ZM6.75649 17.3242L9.90291 5.63863L13.0194 17.3242H6.75649Z" fill="black"/>
<path d="M24.5063 16.7644C22.8933 16.6934 21.3151 17.2484 20.1013 18.3138C20.0277 18.3825 19.9686 18.4653 19.9277 18.5572C19.8868 18.6492 19.8647 18.7485 19.863 18.8491C19.8612 18.9498 19.8797 19.0498 19.9174 19.1431C19.955 19.2365 20.0111 19.3213 20.0823 19.3925C20.1534 19.4637 20.2381 19.5198 20.3314 19.5575C20.4247 19.5952 20.5246 19.6137 20.6252 19.6119C20.7258 19.6102 20.825 19.5881 20.9169 19.5472C21.0088 19.5062 21.0915 19.4471 21.1601 19.3734C22.0886 18.5817 23.2891 18.1836 24.5063 18.2639C27.0933 18.2639 28.5017 20.0032 28.5017 21.6426V22.2424H25.8847C24.6598 22.2124 23.435 22.3062 22.2289 22.5223C21.3969 22.692 20.6472 23.1396 20.1028 23.7916C19.5583 24.4436 19.2514 25.2614 19.2323 26.1109C19.1857 26.6276 19.2523 27.1483 19.4274 27.6366C19.6025 28.1249 19.8818 28.5691 20.246 28.9383C20.6102 29.3076 21.0504 29.5929 21.5361 29.7744C22.0217 29.9559 22.541 30.0293 23.0579 29.9894C24.9685 29.9954 26.8467 29.4953 28.5017 28.54V29.2397C28.5017 29.4386 28.5806 29.6293 28.7211 29.7699C28.8616 29.9105 29.0522 29.9894 29.2509 29.9894C29.4495 29.9894 29.6401 29.9105 29.7806 29.7699C29.9211 29.6293 30 29.4386 30 29.2397V21.6426C30 18.8636 27.6327 16.7644 24.5063 16.7644ZM28.5017 26.7607C26.917 27.9018 25.0101 28.5075 23.0579 28.49C22.7418 28.5218 22.4226 28.4814 22.1243 28.3717C21.8261 28.262 21.5567 28.086 21.3364 27.8568C21.1161 27.6277 20.9507 27.3515 20.8527 27.049C20.7547 26.7466 20.7266 26.4258 20.7705 26.1109C20.7973 25.6017 20.9939 25.1162 21.3289 24.732C21.6639 24.3478 22.1179 24.0872 22.6184 23.9917C23.6968 23.8066 24.791 23.7296 25.8847 23.7618H28.5017V26.7607Z" fill="black"/>
</svg>
