<svg width="32" height="32" viewBox="0 0 32 32" fill="none" xmlns="http://www.w3.org/2000/svg">
<path d="M27.3625 16.858C27.3625 16.768 27.4125 16.688 27.4425 16.608C27.4688 16.4301 27.4302 16.2487 27.3338 16.0969C27.2375 15.9451 27.0898 15.8329 26.9176 15.7808C26.7454 15.7287 26.5602 15.7401 26.3958 15.813C26.2313 15.8859 26.0985 16.0154 26.0216 16.178C26.0216 16.308 25.9416 16.458 25.8815 16.618C25.1096 16.6045 24.3393 16.6919 23.5901 16.878C23.5901 16.5247 23.6201 16.1647 23.6801 15.798C25.021 15.728 26.4919 15.578 28.0229 15.348C28.1244 15.3379 28.2227 15.3071 28.312 15.2577C28.4012 15.2083 28.4794 15.1413 28.5418 15.0607C28.6042 14.98 28.6496 14.8875 28.675 14.7888C28.7005 14.6901 28.7055 14.5873 28.6899 14.4865C28.6742 14.3858 28.6381 14.2893 28.5839 14.203C28.5297 14.1166 28.4584 14.0423 28.3745 13.9844C28.2905 13.9265 28.1956 13.8863 28.0956 13.8663C27.9956 13.8463 27.8925 13.8469 27.7927 13.868C26.4219 14.078 25.111 14.208 23.8603 14.278C23.8603 13.998 23.9403 13.728 23.9903 13.428C24.019 13.2318 23.9688 13.0323 23.8507 12.873C23.7325 12.7137 23.5561 12.6076 23.3599 12.578C23.1636 12.5463 22.9626 12.5937 22.8013 12.71C22.6399 12.8262 22.5313 13.0018 22.4994 13.198C22.4394 13.588 22.3893 13.958 22.3393 14.318C21.5113 14.3333 20.683 14.3066 19.8577 14.238C19.7568 14.2219 19.6537 14.2267 19.5547 14.2519C19.4557 14.2771 19.3628 14.3222 19.2819 14.3845C19.2009 14.4468 19.1336 14.525 19.0839 14.6143C19.0343 14.7035 19.0034 14.802 18.9932 14.9036C18.9829 15.0052 18.9936 15.1078 19.0244 15.2051C19.0553 15.3025 19.1057 15.3925 19.1726 15.4697C19.2395 15.5469 19.3214 15.6096 19.4134 15.654C19.5054 15.6984 19.6056 15.7236 19.7076 15.728C20.4481 15.798 21.2486 15.838 22.0891 15.838H22.1592C22.0991 16.378 22.0191 16.898 22.0191 17.408C21.5545 17.6125 21.1175 17.8746 20.7183 18.188C20.1422 18.635 19.6613 19.1926 19.3039 19.828C18.9464 20.4634 18.7197 21.1638 18.637 21.888C18.6141 22.1787 18.6571 22.4708 18.7628 22.7426C18.8684 23.0145 19.0341 23.259 19.2474 23.458C20.0879 24.208 21.2486 24.168 22.6895 23.338C22.6895 23.338 22.6895 23.388 22.6895 23.408C22.7364 23.5629 22.8316 23.6989 22.9612 23.796C23.0908 23.8932 23.248 23.9464 23.41 23.948H23.6201C23.7152 23.9226 23.8043 23.8785 23.8822 23.8182C23.9601 23.758 24.0251 23.6829 24.0736 23.5972C24.122 23.5115 24.1529 23.4171 24.1644 23.3193C24.1759 23.2216 24.1677 23.1225 24.1404 23.028C24.0804 22.828 24.0404 22.648 23.9903 22.458L24.3005 22.218C25.4423 21.1275 26.3127 19.785 26.8421 18.298C27.3433 18.4261 27.783 18.7273 28.0833 19.1482C28.3837 19.5692 28.5253 20.0827 28.4832 20.598C28.3731 21.508 27.7327 22.708 25.3412 23.258C25.2448 23.2781 25.1534 23.3172 25.0723 23.3731C24.9912 23.4289 24.9221 23.5004 24.869 23.5833C24.8159 23.6661 24.7798 23.7588 24.763 23.8557C24.7461 23.9527 24.7488 24.0521 24.7708 24.148C24.8089 24.3139 24.9016 24.4622 25.034 24.5691C25.1665 24.6761 25.331 24.7356 25.5013 24.738H25.6714C29.0836 23.968 29.834 21.938 29.9741 20.798C30.0771 19.9384 29.8709 19.0703 29.3925 18.3485C28.9141 17.6268 28.1946 17.0985 27.3625 16.858ZM20.268 22.348C20.2193 22.2905 20.1834 22.2233 20.1626 22.1509C20.1419 22.0785 20.1369 22.0025 20.1479 21.928C20.304 20.9072 20.849 19.9863 21.6689 19.358C21.7789 19.268 21.909 19.208 22.0291 19.128C22.0644 20.0279 22.1681 20.9238 22.3393 21.808C21.3587 22.458 20.6182 22.658 20.268 22.348ZM23.6701 20.718C23.5634 19.9693 23.5065 19.2143 23.5 18.458C24.083 18.2836 24.6839 18.1763 25.2912 18.138C24.8989 19.0825 24.3509 19.9546 23.6701 20.718Z" fill="black"/>
<path d="M13.7339 14.008C13.8139 13.768 13.884 13.558 13.944 13.358C14 13.1657 13.9778 12.9591 13.8823 12.7831C13.7867 12.6071 13.6255 12.4759 13.4337 12.418C13.2439 12.3619 13.0397 12.383 12.8654 12.4766C12.6912 12.5702 12.5609 12.7289 12.5031 12.918C12.4331 13.158 12.343 13.458 12.2229 13.788C10.9191 13.7502 9.61711 13.9087 8.36049 14.258C8.36049 13.528 8.47056 12.758 8.56061 11.978C10.722 11.8815 12.8765 11.6679 15.0147 11.338C15.2025 11.2982 15.3679 11.1881 15.4769 11.0302C15.5859 10.8723 15.6302 10.6787 15.6007 10.4891C15.5712 10.2995 15.4702 10.1285 15.3184 10.0111C15.1666 9.89371 14.9755 9.83892 14.7845 9.85799C12.6632 10.178 10.6319 10.388 8.78075 10.488C8.82078 10.008 8.90083 9.42798 9.0109 8.86799C9.02787 8.76843 9.02427 8.66646 9.00033 8.56836C8.97638 8.47025 8.9326 8.37807 8.87167 8.29751C8.81074 8.21695 8.73395 8.1497 8.64604 8.09991C8.55813 8.05012 8.46095 8.01883 8.36049 8.00798C8.16302 7.97916 7.96213 8.02905 7.80115 8.14691C7.64016 8.26477 7.53198 8.44114 7.49994 8.63798C7.39988 9.28798 7.30982 9.90798 7.22977 10.528C5.94048 10.5517 4.6509 10.5016 3.36734 10.378C3.1683 10.3581 2.96951 10.418 2.81469 10.5446C2.65988 10.6712 2.56172 10.8541 2.54182 11.053C2.52191 11.2519 2.58189 11.4506 2.70856 11.6053C2.83522 11.76 3.0182 11.8581 3.21724 11.878C4.2679 12.008 5.39862 12.008 6.58937 12.008H7.00963C6.90957 12.968 6.83953 13.898 6.7995 14.798C6.10619 15.1163 5.45705 15.523 4.86828 16.008C4.08508 16.6118 3.42905 17.3644 2.93792 18.2225C2.44678 19.0806 2.13023 20.0272 2.00648 21.008C1.97993 21.3775 2.03521 21.7482 2.16838 22.0939C2.30155 22.4396 2.50934 22.7517 2.77696 23.008C3.9377 24.008 5.57873 23.888 7.68006 22.578L7.80013 23.078C7.84715 23.2356 7.94343 23.374 8.07487 23.473C8.20632 23.572 8.36602 23.6263 8.53059 23.628H8.73072C8.92139 23.5743 9.08309 23.4475 9.18056 23.2751C9.27803 23.1028 9.30337 22.8989 9.25105 22.708C9.15098 22.348 9.07093 22.018 8.99088 21.708C9.19101 21.558 9.38113 21.418 9.58126 21.248C11.2373 19.6476 12.4891 17.6768 13.2336 15.498C14.0742 15.6601 14.8256 16.1259 15.3442 16.8066C15.8629 17.4873 16.1125 18.3351 16.0453 19.188C15.8652 20.598 14.8946 22.448 11.3023 23.268C11.2059 23.2881 11.1145 23.3272 11.0334 23.3831C10.9524 23.4389 10.8832 23.5104 10.8301 23.5933C10.777 23.6761 10.741 23.7688 10.7241 23.8657C10.7073 23.9627 10.7099 24.0621 10.732 24.158C10.7701 24.3239 10.8627 24.4722 10.9952 24.5791C11.1276 24.6861 11.2922 24.7456 11.4624 24.748H11.6325C16.3155 23.688 17.3361 20.938 17.5363 19.398C17.6648 18.1914 17.3499 16.9794 16.6503 15.9877C15.9507 14.996 14.9142 14.2924 13.7339 14.008ZM3.7876 21.888C3.67356 21.7746 3.58855 21.6354 3.53978 21.4822C3.49101 21.3291 3.47991 21.1664 3.50742 21.008C3.74742 19.4672 4.57153 18.0779 5.80888 17.128C6.12192 16.8842 6.4569 16.67 6.80951 16.488C6.84023 18.0066 7.00767 19.5194 7.30982 21.008C6.05903 21.898 4.5781 22.608 3.7876 21.888ZM8.65067 20.008C8.41254 18.6411 8.29868 17.2554 8.31045 15.868C9.39511 15.52 10.5238 15.3281 11.6626 15.298C11.025 17.074 9.99563 18.6838 8.65067 20.008Z" fill="black"/>
</svg>
