<svg width="32" height="32" viewBox="0 0 32 32" fill="none" xmlns="http://www.w3.org/2000/svg">
<path d="M12.1781 12.8504C11.9792 12.8504 11.7884 12.9294 11.6478 13.0701C11.5071 13.2107 11.4281 13.4015 11.4281 13.6004V15.7004C11.4689 16.2002 11.3895 16.7025 11.1963 17.1653C11.0032 17.6281 10.7021 18.0379 10.3181 18.3604L6.66811 13.1104C6.55009 12.9473 6.3721 12.8378 6.17331 12.8059C5.97453 12.774 5.77121 12.8224 5.60811 12.9404C5.445 13.0584 5.33545 13.2364 5.30357 13.4352C5.27169 13.634 5.32009 13.8373 5.43811 14.0004L6.86811 16.0004C6.25413 16.4313 5.76081 17.0124 5.4352 17.6881C5.10958 18.3638 4.96255 19.1117 5.00811 19.8604V22.2904C5.00811 22.4893 5.08712 22.6801 5.22778 22.8208C5.36843 22.9614 5.55919 23.0404 5.75811 23.0404C5.95702 23.0404 6.14778 22.9614 6.28844 22.8208C6.42909 22.6801 6.50811 22.4893 6.50811 22.2904V19.8604C6.46921 19.3585 6.56117 18.8551 6.77501 18.3994C6.98884 17.9437 7.31724 17.5513 7.72811 17.2604L11.5581 22.7904C11.6278 22.89 11.7206 22.9712 11.8286 23.0269C11.9366 23.0827 12.0566 23.1113 12.1781 23.1104C12.326 23.1166 12.4723 23.0783 12.5981 23.0004C12.68 22.9443 12.75 22.8726 12.8039 22.7893C12.8579 22.706 12.8948 22.6128 12.9124 22.5151C12.9301 22.4174 12.9282 22.3172 12.9069 22.2203C12.8855 22.1234 12.8452 22.0316 12.7881 21.9504L11.1681 19.6004C11.7517 19.1382 12.216 18.5429 12.5222 17.8644C12.8284 17.1858 12.9676 16.4438 12.9281 15.7004V13.6004C12.9255 13.4023 12.8457 13.213 12.7056 13.073C12.5655 12.9329 12.3762 12.853 12.1781 12.8504Z" fill="black"/>
<path d="M27.0081 12.8404V9.84042C27.0081 9.64151 26.9291 9.45074 26.7884 9.31009C26.6478 9.16944 26.457 9.09042 26.2581 9.09042C26.0592 9.09042 25.8684 9.16944 25.7278 9.31009C25.5871 9.45074 25.5081 9.64151 25.5081 9.84042V12.8404C25.5634 13.6647 25.409 14.4895 25.0593 15.238C24.7095 15.9864 24.1759 16.634 23.5081 17.1204L18.0881 9.32042C17.9741 9.15731 17.7999 9.04619 17.6039 9.01149C17.4079 8.9768 17.2062 9.02138 17.0431 9.13542C16.88 9.24946 16.7689 9.42363 16.7342 9.61961C16.6995 9.81558 16.7441 10.0173 16.8581 10.1804L19.0681 13.3804C18.1709 13.9584 17.4422 14.7631 16.9558 15.713C16.4694 16.663 16.2425 17.7246 16.2981 18.7904V22.2604C16.2981 22.4593 16.3771 22.6501 16.5178 22.7907C16.6584 22.9314 16.8492 23.0104 17.0481 23.0104C17.247 23.0104 17.4378 22.9314 17.5784 22.7907C17.7191 22.6501 17.7981 22.4593 17.7981 22.2604V18.7904C17.7411 17.9661 17.9092 17.1417 18.2843 16.4055C18.6595 15.6693 19.2277 15.0488 19.9281 14.6104L25.5981 22.7904C25.7103 22.9421 25.8756 23.0458 26.0609 23.081C26.2463 23.1162 26.4381 23.0803 26.5981 22.9804C26.68 22.9243 26.75 22.8526 26.8039 22.7693C26.8579 22.686 26.8948 22.5928 26.9124 22.4951C26.9301 22.3974 26.9282 22.2972 26.9069 22.2003C26.8855 22.1034 26.8452 22.0116 26.7881 21.9304L24.3481 18.3504C25.215 17.7259 25.9122 16.8948 26.3767 15.9327C26.8412 14.9705 27.0582 13.9077 27.0081 12.8404Z" fill="black"/>
</svg>
