<svg width="32" height="32" viewBox="0 0 32 32" fill="none" xmlns="http://www.w3.org/2000/svg">
<path d="M6.32 18.3298H15V22.7598C15 23.1698 15 23.2498 14.3 23.2798C13.6 23.3098 11.1 23.2798 11.07 23.2798C10.8719 23.2798 10.6815 23.3571 10.5395 23.4953C10.3976 23.6336 10.3152 23.8218 10.31 24.0198C10.31 24.2197 10.3887 24.4115 10.5291 24.5537C10.6694 24.696 10.8602 24.7772 11.06 24.7798H14.35C15.78 24.7298 16.5 24.0498 16.5 22.7798V18.3298H25.18C25.3789 18.3298 25.5697 18.2508 25.7103 18.1102C25.851 17.9695 25.93 17.7788 25.93 17.5798C25.93 17.3809 25.851 17.1902 25.7103 17.0495C25.5697 16.9089 25.3789 16.8298 25.18 16.8298H16.5V16.1098C18.493 15.2688 20.3186 14.0765 21.89 12.5898C22.0179 12.4392 22.0831 12.2452 22.0719 12.0478C22.0607 11.8505 21.9741 11.6651 21.83 11.5298C21.6881 11.3918 21.498 11.3145 21.3 11.3145C21.102 11.3145 20.9119 11.3918 20.77 11.5298L20.63 11.6698H10.17C9.97109 11.6698 9.78032 11.7489 9.63967 11.8895C9.49902 12.0302 9.42 12.2209 9.42 12.4198C9.42 12.6188 9.49902 12.8095 9.63967 12.9502C9.78032 13.0908 9.97109 13.1698 10.17 13.1698H18.65C17.6265 13.855 16.5535 14.4634 15.44 14.9898C15.3085 15.0509 15.1972 15.1483 15.1192 15.2706C15.0412 15.3928 14.9999 15.5348 15 15.6798V16.8798H6.32C6.12109 16.8798 5.93032 16.9589 5.78967 17.0995C5.64902 17.2402 5.57 17.4309 5.57 17.6298C5.57 17.8288 5.64902 18.0195 5.78967 18.1602C5.93032 18.3008 6.12109 18.3798 6.32 18.3798V18.3298Z" fill="black"/>
<path d="M6.93 12.4498C7.12891 12.4498 7.31968 12.3708 7.46033 12.2302C7.60098 12.0895 7.68 11.8988 7.68 11.6998V9.31984H23.82V11.6998C23.82 11.8988 23.899 12.0895 24.0397 12.2302C24.1803 12.3708 24.3711 12.4498 24.57 12.4498C24.7689 12.4498 24.9597 12.3708 25.1003 12.2302C25.241 12.0895 25.32 11.8988 25.32 11.6998V8.56984C25.32 8.37093 25.241 8.18017 25.1003 8.03951C24.9597 7.89886 24.7689 7.81984 24.57 7.81984H21.74C22.3488 7.00795 22.8969 6.1523 23.38 5.25984C23.4728 5.08347 23.4918 4.87745 23.4327 4.6871C23.3736 4.49676 23.2414 4.33767 23.065 4.24484C22.8886 4.15202 22.6826 4.13306 22.4923 4.19213C22.3019 4.2512 22.1428 4.38347 22.05 4.55984C21.4264 5.72067 20.6787 6.81038 19.82 7.80984H16.88C16.9822 7.72337 17.0586 7.61047 17.1009 7.48348C17.1433 7.3565 17.1498 7.22032 17.12 7.08984C16.7753 6.11541 16.2974 5.19334 15.7 4.34984C15.5985 4.18633 15.4374 4.06877 15.2507 4.0221C15.064 3.97542 14.8665 4.00331 14.7 4.09984C14.5401 4.20456 14.4262 4.36638 14.3816 4.55223C14.337 4.73809 14.365 4.93396 14.46 5.09984C14.9555 5.8247 15.3681 6.60291 15.69 7.41984C15.73 7.56252 15.8097 7.69086 15.92 7.78984H11.09C11.1958 7.68918 11.2707 7.56052 11.3061 7.41887C11.3415 7.27723 11.3359 7.12843 11.29 6.98984C10.8291 6.10774 10.2578 5.28783 9.59 4.54984C9.46447 4.39465 9.28293 4.29507 9.08459 4.27262C8.88625 4.25016 8.68704 4.30664 8.53 4.42984C8.37697 4.55503 8.27956 4.73558 8.25896 4.93221C8.23836 5.12885 8.29624 5.32566 8.42 5.47984C8.97082 6.12457 9.46279 6.81734 9.89 7.54984C9.92959 7.65705 9.99898 7.75073 10.09 7.81984H6.93C6.73109 7.81984 6.54032 7.89886 6.39967 8.03951C6.25902 8.18017 6.18 8.37093 6.18 8.56984V11.6998C6.17865 11.7987 6.19714 11.8968 6.23435 11.9884C6.27156 12.08 6.32676 12.1633 6.39667 12.2332C6.46659 12.3031 6.5498 12.3583 6.6414 12.3955C6.73301 12.4327 6.83114 12.4512 6.93 12.4498Z" fill="black"/>
<path d="M26.75 26.1698H4.75C4.55109 26.1698 4.36032 26.2489 4.21967 26.3895C4.07902 26.5302 4 26.7209 4 26.9198C4 27.1188 4.07902 27.3095 4.21967 27.4502C4.36032 27.5908 4.55109 27.6698 4.75 27.6698H26.75C26.9489 27.6698 27.1397 27.5908 27.2803 27.4502C27.421 27.3095 27.5 27.1188 27.5 26.9198C27.5 26.7209 27.421 26.5302 27.2803 26.3895C27.1397 26.2489 26.9489 26.1698 26.75 26.1698Z" fill="black"/>
</svg>
