<svg width="32" height="32" viewBox="0 0 32 32" fill="none" xmlns="http://www.w3.org/2000/svg">
<path d="M11.42 23C11.6181 22.9974 11.8074 22.9176 11.9475 22.7775C12.0876 22.6374 12.1674 22.4481 12.17 22.25V18.74C12.1122 17.9142 12.2799 17.0881 12.655 16.3502C13.0302 15.6122 13.5987 14.99 14.3 14.55L20 22.73C20.0676 22.83 20.1584 22.9123 20.2646 22.9697C20.3708 23.0272 20.4893 23.0582 20.61 23.06C20.7642 23.058 20.9142 23.0092 21.04 22.92C21.1936 22.8093 21.2989 22.6439 21.3342 22.4579C21.3696 22.2718 21.3323 22.0793 21.23 21.92L18.72 18.3C19.5757 17.668 20.2618 16.8342 20.7171 15.8729C21.1725 14.9115 21.3831 13.8524 21.33 12.79V9.79C21.33 9.59109 21.251 9.40032 21.1103 9.25967C20.9697 9.11902 20.7789 9.04 20.58 9.04C20.3811 9.04 20.1903 9.11902 20.0497 9.25967C19.909 9.40032 19.83 9.59109 19.83 9.79V12.79C19.8864 13.613 19.7324 14.4368 19.3825 15.1838C19.0326 15.9308 18.4984 16.5765 17.83 17.06L12.43 9.27C12.315 9.10675 12.1404 8.9953 11.944 8.95974C11.7475 8.92419 11.5449 8.96739 11.38 9.08C11.228 9.19221 11.1247 9.3583 11.0912 9.54422C11.0578 9.73015 11.0967 9.92184 11.2 10.08L13.41 13.28C12.5127 13.8603 11.7842 14.6669 11.2979 15.6184C10.8116 16.5699 10.5847 17.6328 10.64 18.7V22.17C10.6283 22.2776 10.6401 22.3864 10.6745 22.489C10.7088 22.5916 10.765 22.6856 10.8391 22.7644C10.9132 22.8433 11.0035 22.9051 11.1038 22.9458C11.204 22.9865 11.3119 23.005 11.42 23Z" fill="black"/>
<path d="M29.25 2H2.75C2.55189 2.00259 2.36263 2.08244 2.22253 2.22253C2.08244 2.36263 2.00259 2.55189 2 2.75V29.25C2.00259 29.4481 2.08244 29.6374 2.22253 29.7775C2.36263 29.9176 2.55189 29.9974 2.75 30H29.25C29.4481 29.9974 29.6374 29.9176 29.7775 29.7775C29.9176 29.6374 29.9974 29.4481 30 29.25V2.75C29.9974 2.55189 29.9176 2.36263 29.7775 2.22253C29.6374 2.08244 29.4481 2.00259 29.25 2ZM28.5 28.5H3.5V3.5H28.5V28.5Z" fill="black"/>
</svg>
