<svg width="32" height="32" viewBox="0 0 32 32" fill="none" xmlns="http://www.w3.org/2000/svg">
<path d="M16.9373 14.16H14.6668V7.75C14.6668 7.55109 14.5878 7.36032 14.4471 7.21967C14.3064 7.07902 14.1156 7 13.9167 7C13.7177 7 13.5269 7.07902 13.3862 7.21967C13.2455 7.36032 13.1665 7.55109 13.1665 7.75V23.83C13.1665 24.0289 13.2455 24.2197 13.3862 24.3603C13.5269 24.501 13.7177 24.58 13.9167 24.58C14.1156 24.58 14.3064 24.501 14.4471 24.3603C14.5878 24.2197 14.6668 24.0289 14.6668 23.83V15.66H16.9373C17.1362 15.66 17.3271 15.581 17.4677 15.4403C17.6084 15.2997 17.6874 15.1089 17.6874 14.91C17.6874 14.7111 17.6084 14.5203 17.4677 14.3797C17.3271 14.239 17.1362 14.16 16.9373 14.16Z" fill="black"/>
<path d="M24.0788 13.21H19.4278C19.2289 13.21 19.038 13.289 18.8974 13.4297C18.7567 13.5703 18.6777 13.7611 18.6777 13.96C18.6777 14.1589 18.7567 14.3497 18.8974 14.4903C19.038 14.631 19.2289 14.71 19.4278 14.71H23.2886C23.0886 16.54 22.1184 18.84 18.9477 20.6C18.8048 20.6822 18.693 20.8092 18.6296 20.9614C18.5661 21.1135 18.5546 21.2823 18.5967 21.4416C18.6388 21.601 18.7323 21.7421 18.8626 21.843C18.993 21.9439 19.1529 21.9991 19.3178 22C19.4447 21.9999 19.5691 21.9653 19.6779 21.9C24.1588 19.41 24.8289 15.85 24.8289 13.95C24.8238 13.7536 24.7428 13.5669 24.6029 13.4289C24.4631 13.291 24.2752 13.2125 24.0788 13.21Z" fill="black"/>
<path d="M29.2498 16.84H27.8796V12.57C27.8796 12.3711 27.8005 12.1803 27.6598 12.0397C27.5192 11.899 27.3284 11.82 27.1294 11.82C26.9305 11.82 26.7396 11.899 26.599 12.0397C26.4583 12.1803 26.3792 12.3711 26.3792 12.57V23.83C26.3792 24.0289 26.4583 24.2197 26.599 24.3603C26.7396 24.501 26.9305 24.58 27.1294 24.58C27.3284 24.58 27.5192 24.501 27.6598 24.3603C27.8005 24.2197 27.8796 24.0289 27.8796 23.83V18.34H29.2498C29.4488 18.34 29.6396 18.261 29.7803 18.1203C29.921 17.9797 30 17.7889 30 17.59C30 17.3911 29.921 17.2003 29.7803 17.0597C29.6396 16.919 29.4488 16.84 29.2498 16.84Z" fill="black"/>
<path d="M9.54576 9H2.90438C2.70543 9 2.51462 9.07902 2.37394 9.21967C2.23326 9.36032 2.15423 9.55109 2.15423 9.75C2.15423 9.94891 2.23326 10.1397 2.37394 10.2803C2.51462 10.421 2.70543 10.5 2.90438 10.5H8.7756C8.57556 13.25 7.23528 16.81 2.38428 19.5C2.21412 19.595 2.08765 19.7526 2.03164 19.9392C1.97563 20.1259 1.99449 20.327 2.08421 20.5C2.18269 20.6665 2.34099 20.7893 2.52684 20.8431C2.71269 20.897 2.9121 20.878 3.08442 20.79C9.36572 17.33 10.2959 12.38 10.2959 9.74C10.2959 9.64197 10.2765 9.54492 10.2386 9.45449C10.2008 9.36405 10.1454 9.28202 10.0756 9.21317C10.0058 9.14433 9.92303 9.09003 9.83208 9.05343C9.74112 9.01684 9.6438 8.99868 9.54576 9Z" fill="black"/>
</svg>
