<svg width="32" height="32" viewBox="0 0 32 32" fill="none" xmlns="http://www.w3.org/2000/svg">
<path d="M26.7307 22.44L24.0107 25.15V6.56L26.7207 9.27C26.8614 9.41045 27.052 9.48934 27.2507 9.48934C27.4495 9.48934 27.6401 9.41045 27.7808 9.27C27.9212 9.12937 28.0001 8.93875 28.0001 8.74C28.0001 8.54125 27.9212 8.35063 27.7808 8.21L23.7808 4.21C23.6425 4.07943 23.4608 4.00463 23.2708 4C23.0719 4.00018 22.8813 4.07931 22.7407 4.22L18.7407 8.22C18.6003 8.36063 18.5214 8.55125 18.5214 8.75C18.5214 8.94875 18.6003 9.13937 18.7407 9.28C18.8097 9.35076 18.8921 9.40699 18.9831 9.44539C19.0742 9.48379 19.172 9.50357 19.2708 9.50357C19.3695 9.50357 19.4673 9.48379 19.5584 9.44539C19.6494 9.40699 19.7318 9.35076 19.8008 9.28L22.5208 6.57V25.15L19.8008 22.44C19.7321 22.3663 19.6493 22.3072 19.5573 22.2662C19.4653 22.2252 19.366 22.2032 19.2653 22.2014C19.1646 22.1996 19.0645 22.2182 18.9712 22.2559C18.8778 22.2936 18.7929 22.3497 18.7217 22.421C18.6505 22.4922 18.5943 22.577 18.5566 22.6704C18.5189 22.7638 18.5004 22.8638 18.5022 22.9645C18.5039 23.0652 18.526 23.1645 18.567 23.2565C18.608 23.3485 18.6671 23.4313 18.7407 23.5L22.7407 27.5C22.8109 27.5668 22.8921 27.6209 22.9807 27.66C23.0742 27.692 23.172 27.7088 23.2708 27.71C23.3662 27.7088 23.4608 27.6919 23.5508 27.66C23.6425 27.621 23.727 27.567 23.8008 27.5L27.8008 23.5C27.8744 23.4313 27.9335 23.3485 27.9745 23.2565C28.0155 23.1645 28.0376 23.0652 28.0393 22.9645C28.0411 22.8638 28.0226 22.7638 27.9849 22.6704C27.9472 22.577 27.891 22.4922 27.8198 22.421C27.7486 22.3497 27.6637 22.2936 27.5703 22.2559C27.477 22.2182 27.3769 22.1996 27.2762 22.2014C27.1755 22.2032 27.0762 22.2252 26.9842 22.2662C26.8922 22.3072 26.8094 22.3663 26.7407 22.44H26.7307Z" fill="black"/>
<path d="M12.9307 8.76C12.7318 8.76 12.5411 8.83902 12.4004 8.97967C12.2598 9.12032 12.1807 9.31109 12.1807 9.51V12.51C12.2362 13.3329 12.0818 14.1563 11.732 14.9032C11.3822 15.65 10.8484 16.2958 10.1807 16.78L4.80075 9C4.74428 8.91924 4.67246 8.85039 4.58938 8.79738C4.50631 8.74438 4.4136 8.70825 4.31656 8.69107C4.21953 8.67389 4.12006 8.676 4.02383 8.69726C3.92761 8.71852 3.83651 8.75853 3.75575 8.815C3.67499 8.87147 3.60614 8.94329 3.55313 9.02637C3.50013 9.10944 3.464 9.20215 3.44682 9.29919C3.42964 9.39622 3.43175 9.49569 3.45301 9.59192C3.47427 9.68814 3.51428 9.77924 3.57075 9.86L5.79075 13C4.88483 13.5794 4.14971 14.3898 3.66107 15.3477C3.17244 16.3056 2.94796 17.3765 3.01075 18.45V21.92C3.01334 22.1181 3.09319 22.3074 3.23328 22.4475C3.37338 22.5876 3.56264 22.6674 3.76075 22.67C3.95886 22.6674 4.14812 22.5876 4.28822 22.4475C4.42831 22.3074 4.50816 22.1181 4.51075 21.92V18.45C4.45593 17.626 4.62495 16.8024 4.99991 16.0666C5.37487 15.3307 5.94183 14.71 6.64075 14.27L12.3108 22.45C12.3804 22.5496 12.4733 22.6307 12.5813 22.6865C12.6893 22.7422 12.8092 22.7709 12.9307 22.77C13.0807 22.7702 13.2272 22.7249 13.3507 22.64C13.514 22.525 13.6255 22.3504 13.661 22.154C13.6966 21.9575 13.6534 21.7549 13.5407 21.59L11.0608 18C11.9181 17.3713 12.6062 16.5398 13.0635 15.58C13.5207 14.6201 13.7328 13.5619 13.6807 12.5V9.5C13.6756 9.30364 13.5946 9.1169 13.4548 8.97894C13.315 8.84098 13.1272 8.76252 12.9307 8.76Z" fill="black"/>
</svg>
