<svg width="32" height="32" viewBox="0 0 32 32" fill="none" xmlns="http://www.w3.org/2000/svg">
<path d="M16.7772 12.7799C16.8745 11.6501 16.5628 10.5229 15.899 9.60429C15.2352 8.68572 14.2637 8.03712 13.1619 7.77702C13.2318 7.5669 13.2917 7.37679 13.3417 7.19668C13.3699 7.10208 13.3792 7.00283 13.3691 6.90462C13.359 6.8064 13.3297 6.71113 13.2829 6.62426C13.2361 6.53739 13.1726 6.46061 13.0962 6.3983C13.0197 6.336 12.9318 6.28939 12.8373 6.26114C12.7429 6.23289 12.6439 6.22355 12.5458 6.23365C12.4478 6.24376 12.3527 6.27311 12.266 6.32003C12.0909 6.41479 11.9605 6.57537 11.9036 6.76643C11.8436 6.98656 11.7537 7.25672 11.6539 7.55689C10.4506 7.52009 9.24866 7.66513 8.08852 7.98714C8.08852 7.32676 8.18839 6.63636 8.26829 5.92594C10.2985 5.82661 12.3221 5.61953 14.3304 5.30558C14.4361 5.29538 14.5384 5.26278 14.6305 5.20996C14.7226 5.15714 14.8025 5.0853 14.8649 4.9992C14.9272 4.9131 14.9705 4.81471 14.992 4.71056C15.0135 4.6064 15.0127 4.49885 14.9895 4.39505C14.9749 4.29825 14.9413 4.2053 14.8907 4.1216C14.84 4.03789 14.7732 3.96509 14.6943 3.90739C14.6154 3.8497 14.5258 3.80827 14.4307 3.78549C14.3357 3.76271 14.2371 3.75904 14.1406 3.77469C12.2711 4.06634 10.3877 4.26004 8.49799 4.35503C8.55791 3.88809 8.62782 3.3978 8.70771 2.88417C8.73817 2.68249 8.68742 2.47694 8.56662 2.31275C8.44581 2.14856 8.26486 2.03918 8.06355 2.00866C7.86225 1.97814 7.65709 2.02899 7.49321 2.15002C7.32933 2.27106 7.22015 2.45235 7.18969 2.65404C7.09981 3.26439 6.99994 3.84473 6.94002 4.40506C5.73676 4.43002 4.53306 4.3866 3.33471 4.27498C3.14367 4.26675 2.95672 4.33204 2.81218 4.45746C2.66763 4.58289 2.57644 4.75894 2.55729 4.94956C2.53813 5.14017 2.59247 5.33091 2.70916 5.48268C2.82585 5.63445 2.99606 5.73576 3.1849 5.76585C4.1836 5.86591 5.24223 5.91594 6.37076 5.91594H6.76025C6.66038 6.80646 6.60046 7.65695 6.5705 8.48744C5.91093 8.75839 5.28975 9.11498 4.7229 9.54805C3.97356 10.1269 3.34724 10.8499 2.88074 11.6747C2.41425 12.4995 2.11699 13.4094 2.00644 14.3509C1.98029 14.7068 2.034 15.0641 2.1636 15.3965C2.29321 15.7289 2.49544 16.028 2.75546 16.272C3.84405 17.2726 5.40202 17.1225 7.36946 15.9018C7.36946 16.0418 7.43937 16.1819 7.47931 16.322C7.52287 16.4797 7.61671 16.6189 7.74653 16.7182C7.87634 16.8176 8.03502 16.8717 8.19838 16.8723C8.2646 16.882 8.33189 16.882 8.39812 16.8723C8.58917 16.8164 8.75066 16.6876 8.8478 16.5135C8.94494 16.3394 8.96995 16.1341 8.91744 15.9418C8.82756 15.6216 8.75765 15.3114 8.67775 15.0012C8.85752 14.8612 9.03729 14.7411 9.21705 14.581C10.7773 13.0774 11.9554 11.2212 12.6526 9.16783C13.4342 9.32012 14.1327 9.75495 14.6151 10.3896C15.0976 11.0242 15.3304 11.8144 15.2692 12.6098C15.1094 13.9306 14.2006 15.6116 10.825 16.4321C10.7296 16.4533 10.6395 16.4933 10.5597 16.5497C10.4799 16.606 10.412 16.6777 10.36 16.7605C10.308 16.8433 10.2729 16.9356 10.2567 17.0321C10.2405 17.1286 10.2436 17.2273 10.2657 17.3226C10.3037 17.4886 10.3962 17.637 10.5284 17.744C10.6606 17.851 10.8248 17.9105 10.9947 17.9129H11.1545C15.6187 16.8623 16.5875 14.2508 16.7772 12.7799ZM3.79411 15.1613C3.69722 15.0601 3.62444 14.9382 3.58121 14.8047C3.53797 14.6713 3.5254 14.5298 3.54444 14.3909C3.75481 12.9404 4.51264 11.626 5.66168 10.7187C5.94108 10.5034 6.23846 10.3126 6.55052 10.1484C6.57335 11.5633 6.72376 12.9731 6.99994 14.3609C5.84145 15.1613 4.48321 15.8117 3.75416 15.1613H3.79411ZM8.37814 13.3203C8.14711 12.0655 8.02018 10.7938 7.99864 9.51804C9.00281 9.21099 10.0449 9.04597 11.0946 9.02775C10.4963 10.6414 9.5559 12.1059 8.3382 13.3203H8.37814Z" fill="black"/>
<path d="M29.221 28.5391H20.9817L28.3122 20.2643C28.7927 19.7176 29.0381 19.0029 28.9951 18.2758C28.9521 17.5487 28.6241 16.868 28.0825 16.382L24.7568 13.3803C24.2107 12.8958 23.4951 12.648 22.7669 12.6911C22.0387 12.7343 21.3573 13.0648 20.8719 13.6104L12.313 23.2761C12.0729 23.547 11.8887 23.8629 11.7707 24.2054C11.6528 24.5479 11.6036 24.9104 11.6258 25.2721C11.6481 25.6337 11.7414 25.9874 11.9005 26.3128C12.0596 26.6382 12.2812 26.929 12.5527 27.1683L15.6786 29.8199C15.8145 29.9375 15.9885 30.0015 16.168 30H29.251C29.4496 30 29.6401 29.9209 29.7806 29.7802C29.9211 29.6394 30 29.4486 30 29.2495C30 29.0505 29.9211 28.8596 29.7806 28.7189C29.6401 28.5782 29.4496 28.4991 29.251 28.4991L29.221 28.5391ZM21.9804 14.651C22.0883 14.527 22.2199 14.426 22.3674 14.3538C22.5149 14.2816 22.6754 14.2398 22.8393 14.2308C23.0021 14.2206 23.1654 14.2428 23.3196 14.296C23.4739 14.3493 23.6161 14.4325 23.7382 14.541L27.0638 17.5427C27.1865 17.6513 27.2866 17.7832 27.3581 17.9307C27.4296 18.0783 27.4712 18.2386 27.4805 18.4024C27.4898 18.5661 27.4666 18.7301 27.4122 18.8848C27.3578 19.0396 27.2734 19.1819 27.1637 19.3037L23.8081 23.0359L18.6248 18.4132L21.9804 14.651ZM18.9843 28.5391H16.4077L13.5115 26.0377C13.2639 25.8165 13.1135 25.5064 13.0929 25.1748C13.0723 24.8431 13.1833 24.5168 13.4016 24.2666L17.6261 19.5039L22.8193 24.1266L18.9843 28.5391Z" fill="black"/>
</svg>
