<svg width="32" height="32" viewBox="0 0 32 32" fill="none" xmlns="http://www.w3.org/2000/svg">
<path d="M3.21869 8.88711C3.31957 8.89116 3.42023 8.87472 3.51461 8.83877C3.609 8.80282 3.69516 8.74811 3.76794 8.67791C3.84071 8.60772 3.89859 8.5235 3.9381 8.4303C3.97761 8.3371 3.99794 8.23686 3.99786 8.13559V6.46219H16.1149V8.13559C16.1149 8.3349 16.1938 8.52606 16.3343 8.667C16.4748 8.80793 16.6654 8.88711 16.8641 8.88711C17.0628 8.88711 17.2533 8.80793 17.3938 8.667C17.5343 8.52606 17.6133 8.3349 17.6133 8.13559V5.71066C17.6055 5.5166 17.5232 5.33309 17.3835 5.19858C17.2438 5.06408 17.0577 4.98904 16.8641 4.9892H14.9861C15.3898 4.42566 15.7568 3.83657 16.0849 3.22562C16.1362 3.13847 16.1693 3.04183 16.1825 2.9415C16.1956 2.84117 16.1883 2.73922 16.1612 2.64176C16.1341 2.54429 16.0877 2.45333 16.0246 2.37432C15.9616 2.2953 15.8833 2.22987 15.7945 2.18194C15.7057 2.134 15.6081 2.10456 15.5076 2.09537C15.4072 2.08618 15.3059 2.09744 15.2099 2.12847C15.1139 2.15949 15.0251 2.20965 14.9489 2.27593C14.8727 2.3422 14.8106 2.42324 14.7663 2.51417C14.3005 3.39453 13.7447 4.22398 13.1081 4.9892H11.2201C11.2598 4.84834 11.2598 4.69919 11.2201 4.55833C10.9664 3.77464 10.6067 3.02955 10.1513 2.34383C10.0466 2.1838 9.88571 2.06916 9.70061 2.02274C9.5155 1.97632 9.31976 2.00152 9.15234 2.09332C8.99261 2.19825 8.87885 2.36039 8.8343 2.54663C8.78974 2.73286 8.81774 2.92914 8.91259 3.09535C9.27173 3.66134 9.57294 4.26227 9.81163 4.889V4.95914H6.73493C6.79964 4.79152 6.79964 4.6057 6.73493 4.43808C6.38359 3.72867 5.93653 3.07117 5.40635 2.48411C5.34594 2.40631 5.27068 2.34138 5.18495 2.29312C5.09922 2.24485 5.00476 2.21422 4.90709 2.20303C4.80942 2.19183 4.7105 2.20029 4.61613 2.22791C4.52175 2.25552 4.43382 2.30175 4.35747 2.36387C4.2151 2.48487 4.12361 2.65542 4.10137 2.84127C4.07914 3.02713 4.12781 3.21454 4.2376 3.3659C4.65377 3.87127 5.02166 4.41476 5.33642 4.9892H3.21869C3.11994 4.98785 3.02191 5.00637 2.93041 5.04366C2.8389 5.08095 2.75578 5.13626 2.68594 5.20631C2.6161 5.27637 2.56096 5.35975 2.52379 5.45154C2.48661 5.54333 2.46815 5.64166 2.4695 5.74073V8.13559C2.46815 8.23465 2.48661 8.33298 2.52379 8.42477C2.56096 8.51656 2.6161 8.59994 2.68594 8.67C2.75578 8.74006 2.8389 8.79536 2.93041 8.83265C3.02191 8.86994 3.11994 8.88846 3.21869 8.88711Z" fill="black"/>
<path d="M29.2208 28.537H20.9797L28.3118 20.2502C28.7924 19.7027 29.0379 18.987 28.9949 18.2588C28.9519 17.5306 28.6238 16.849 28.0821 16.3623L24.7556 13.3562C24.2093 12.871 23.4936 12.6228 22.7652 12.666C22.0369 12.7092 21.3553 13.0403 20.8698 13.5867L12.309 23.2663C12.0688 23.5377 11.8845 23.854 11.7665 24.197C11.6486 24.54 11.5993 24.903 11.6216 25.2652C11.6439 25.6274 11.7372 25.9816 11.8963 26.3075C12.0554 26.6334 12.2771 26.9245 12.5487 27.1642L15.6753 29.8196C15.8112 29.9374 15.9852 30.0015 16.1648 30H29.2508C29.4495 30 29.6401 29.9208 29.7806 29.7799C29.9211 29.6389 30 29.4478 30 29.2484C30 29.0491 29.9211 28.858 29.7806 28.717C29.6401 28.5761 29.4495 28.4969 29.2508 28.4969L29.2208 28.537ZM21.9786 14.6288C22.0865 14.5046 22.2181 14.4034 22.3657 14.3311C22.5132 14.2588 22.6737 14.2169 22.8377 14.2079C23.1663 14.1896 23.489 14.3011 23.7367 14.5185L27.0631 17.5246C27.1859 17.6334 27.2859 17.7655 27.3575 17.9132C27.429 18.061 27.4706 18.2215 27.4799 18.3855C27.4892 18.5495 27.466 18.7138 27.4116 18.8687C27.3572 19.0237 27.2727 19.1662 27.163 19.2882L23.8066 23.0258L18.6222 18.3964L21.9786 14.6288ZM18.9818 28.537H16.4046L13.5077 26.0319C13.26 25.8105 13.1096 25.4999 13.089 25.1678C13.0684 24.8357 13.1794 24.5088 13.3978 24.2583L17.6233 19.4886L22.8177 24.118L18.9818 28.537Z" fill="black"/>
<path d="M18.0828 12.6948C18.0802 12.4963 18.0004 12.3067 17.8605 12.1663C17.7205 12.0259 17.5315 11.9459 17.3336 11.9433H10.7906V11.6627C12.3161 11.007 13.7131 10.0841 14.9162 8.93721C15.0463 8.78734 15.1129 8.59236 15.1017 8.3939C15.0905 8.19544 15.0024 8.00924 14.8562 7.87506C14.7145 7.73672 14.5245 7.65932 14.3268 7.65932C14.129 7.65932 13.9391 7.73672 13.7974 7.87506L13.7474 7.9953H5.75598C5.55728 7.9953 5.36671 8.07448 5.22621 8.21542C5.08571 8.35636 5.00678 8.54751 5.00678 8.74683C5.00678 8.94615 5.08571 9.1373 5.22621 9.27824C5.36671 9.41918 5.55728 9.49835 5.75598 9.49835H11.7496C11.1035 9.87095 10.4365 10.2055 9.75169 10.5004C9.6211 10.5599 9.51026 10.6557 9.43235 10.7764C9.35444 10.8972 9.31273 11.0379 9.31217 11.1818V11.9433H2.7492C2.5505 11.9433 2.35994 12.0225 2.21943 12.1634C2.07893 12.3044 2 12.4955 2 12.6948C2 12.8942 2.07893 13.0853 2.21943 13.2263C2.35994 13.3672 2.5505 13.4464 2.7492 13.4464H9.29219V16.723C9.29219 16.8332 9.29219 16.8934 9.29219 16.9034C9.16964 16.9213 9.04513 16.9213 8.92258 16.9034C8.3432 16.9034 6.43525 16.9034 6.43525 16.9034V18.4064H8.99251C10.5009 18.3563 10.8205 17.4044 10.8205 16.6829V13.4464H17.3635C17.5562 13.4362 17.7377 13.3529 17.8713 13.2133C18.0049 13.0737 18.0805 12.8883 18.0828 12.6948Z" fill="black"/>
</svg>
