<svg width="32" height="32" viewBox="0 0 32 32" fill="none" xmlns="http://www.w3.org/2000/svg">
<path fill-rule="evenodd" clip-rule="evenodd" d="M9.6762 2C10.0168 1.99939 10.3153 2.22753 10.4042 2.5563L17.4292 28.549C17.5377 28.9503 17.3003 29.3635 16.899 29.472C16.4977 29.5804 16.0844 29.343 15.976 28.9417L13.1698 18.559H6.24553L3.48018 28.9391C3.37317 29.3408 2.96079 29.5797 2.55911 29.4727C2.15742 29.3656 1.91854 28.9533 2.02555 28.5516L8.95024 2.55892C9.03791 2.22983 9.33563 2.00061 9.6762 2ZM6.64658 17.0537H12.763L9.68278 5.65688L6.64658 17.0537ZM20.7868 27.5715C21.0808 27.8654 21.5573 27.8654 21.8513 27.5715L25.3266 24.0962L28.7084 27.5647C28.9986 27.8623 29.4751 27.8684 29.7728 27.5782C30.0704 27.288 30.0764 26.8114 29.7862 26.5138L25.8723 22.4995C25.7318 22.3554 25.5394 22.2736 25.3381 22.2723C25.1369 22.271 24.9435 22.3504 24.8011 22.4927L20.7868 26.507C20.4929 26.801 20.4929 27.2775 20.7868 27.5715ZM20.7868 21.4497C21.0808 21.7436 21.5573 21.7436 21.8513 21.4497L25.3266 17.9744L28.7084 21.4429C28.9986 21.7405 29.4751 21.7466 29.7728 21.4564C30.0704 21.1662 30.0764 20.6896 29.7862 20.392L25.8723 16.3777C25.7318 16.2336 25.5394 16.1517 25.3381 16.1505C25.1369 16.1492 24.9435 16.2286 24.8011 16.3709L20.7868 20.3852C20.4929 20.6791 20.4929 21.1557 20.7868 21.4497Z" fill="black"/>
</svg>
