<svg width="32" height="32" viewBox="0 0 32 32" fill="none" xmlns="http://www.w3.org/2000/svg">
<path d="M12.1793 3.75C12.1793 3.55109 12.1003 3.36032 11.9597 3.21967C11.819 3.07902 11.6283 3 11.4293 3C11.2304 3 11.0397 3.07902 10.899 3.21967C10.7584 3.36032 10.6793 3.55109 10.6793 3.75V18.36L12.1793 16.86V3.75Z" fill="black"/>
<path d="M21.7893 3.75C21.7893 3.55109 21.7103 3.36032 21.5697 3.21967C21.429 3.07902 21.2383 3 21.0393 3C20.8404 3 20.6497 3.07902 20.509 3.21967C20.3684 3.36032 20.2893 3.55109 20.2893 3.75V8.75L21.7893 7.25V3.75Z" fill="black"/>
<path d="M20.2893 27.51C20.2893 27.7089 20.3684 27.8997 20.509 28.0403C20.6497 28.181 20.8404 28.26 21.0393 28.26C21.2383 28.26 21.429 28.181 21.5697 28.0403C21.7103 27.8997 21.7893 27.7089 21.7893 27.51V12.91L20.2893 14.41V27.51Z" fill="black"/>
<path d="M10.6793 27.51C10.6793 27.7089 10.7584 27.8997 10.899 28.0403C11.0397 28.181 11.2304 28.26 11.4293 28.26C11.6283 28.26 11.819 28.181 11.9597 28.0403C12.1003 27.8997 12.1793 27.7089 12.1793 27.51V22.51L10.6793 24V27.51Z" fill="black"/>
<path d="M28.2793 3.58C28.1387 3.43955 27.9481 3.36066 27.7493 3.36066C27.5506 3.36066 27.36 3.43955 27.2193 3.58L4.21934 26.58C4.07889 26.7206 4 26.9112 4 27.11C4 27.3088 4.07889 27.4994 4.21934 27.64C4.35997 27.7804 4.55059 27.8593 4.74934 27.8593C4.94809 27.8593 5.13871 27.7804 5.27934 27.64L28.2793 4.64C28.4198 4.49937 28.4987 4.30875 28.4987 4.11C28.4987 3.91125 28.4198 3.72063 28.2793 3.58Z" fill="black"/>
</svg>
