<svg width="32" height="32" viewBox="0 0 32 32" fill="none" xmlns="http://www.w3.org/2000/svg">
<path d="M9.63 15.52C9.79115 15.5229 9.94894 15.4738 10.08 15.38C11.7887 14.1011 13.8657 13.41 16 13.41C18.1343 13.41 20.2113 14.1011 21.92 15.38C22.0805 15.4993 22.2817 15.5501 22.4796 15.521C22.6775 15.4919 22.8557 15.3855 22.975 15.225C23.0943 15.0645 23.1451 14.8632 23.116 14.6654C23.0869 14.4675 22.9805 14.2893 22.82 14.17C20.849 12.7025 18.4573 11.9099 16 11.9099C13.5427 11.9099 11.151 12.7025 9.18 14.17C9.09889 14.2268 9.02983 14.2992 8.97683 14.3829C8.92382 14.4665 8.88792 14.5599 8.87118 14.6575C8.85445 14.7551 8.85722 14.8551 8.87932 14.9516C8.90143 15.0482 8.94245 15.1394 9 15.22C9.07224 15.318 9.16753 15.3966 9.27742 15.4489C9.38731 15.5012 9.50842 15.5257 9.63 15.52Z" fill="black"/>
<path d="M12.45 18.54C13.4794 17.7845 14.7231 17.3771 16 17.3771C17.2769 17.3771 18.5206 17.7845 19.55 18.54C19.6839 18.6369 19.8448 18.6893 20.01 18.69C20.1253 18.6897 20.2391 18.6635 20.343 18.6133C20.4468 18.5631 20.5381 18.4902 20.61 18.4C20.7279 18.2412 20.7792 18.0426 20.7531 17.8466C20.7269 17.6505 20.6254 17.4724 20.47 17.35C19.1831 16.3766 17.6136 15.8499 16 15.8499C14.3864 15.8499 12.8169 16.3766 11.53 17.35C11.4519 17.4104 11.3864 17.4856 11.3373 17.5713C11.2882 17.657 11.2565 17.7516 11.244 17.8495C11.2315 17.9475 11.2383 18.047 11.2643 18.1423C11.2902 18.2376 11.3346 18.3269 11.395 18.405C11.4554 18.4831 11.5306 18.5486 11.6163 18.5977C11.702 18.6468 11.7966 18.6785 11.8945 18.691C11.9925 18.7035 12.092 18.6967 12.1873 18.6707C12.2826 18.6448 12.3719 18.6004 12.45 18.54Z" fill="black"/>
<path d="M24.4 12.06C24.5302 12.1567 24.6878 12.2093 24.85 12.21C25.007 12.2066 25.1591 12.1547 25.2854 12.0614C25.4117 11.9681 25.5059 11.838 25.5553 11.6889C25.6046 11.5398 25.6065 11.3791 25.5608 11.2289C25.5151 11.0787 25.424 10.9463 25.3 10.85C22.6118 8.84999 19.3506 7.76986 16 7.76986C12.6494 7.76986 9.38815 8.84999 6.7 10.85C6.53954 10.9693 6.43307 11.1475 6.404 11.3454C6.37493 11.5433 6.42565 11.7445 6.545 11.905C6.66435 12.0655 6.84255 12.1719 7.0404 12.201C7.23825 12.2301 7.43954 12.1793 7.6 12.06C10.0233 10.2425 12.9708 9.26 16 9.26C19.0292 9.26 21.9767 10.2425 24.4 12.06Z" fill="black"/>
<path d="M22.78 28.5H9.22C9.02109 28.5 8.83032 28.579 8.68967 28.7197C8.54902 28.8603 8.47 29.0511 8.47 29.25C8.47 29.4489 8.54902 29.6397 8.68967 29.7803C8.83032 29.921 9.02109 30 9.22 30H22.78C22.9789 30 23.1697 29.921 23.3103 29.7803C23.451 29.6397 23.53 29.4489 23.53 29.25C23.53 29.0511 23.451 28.8603 23.3103 28.7197C23.1697 28.579 22.9789 28.5 22.78 28.5Z" fill="black"/>
<path d="M12.7 23.27C12.6941 23.9239 12.8825 24.5649 13.2415 25.1115C13.6005 25.6581 14.1138 26.0857 14.7162 26.3401C15.3187 26.5945 15.9831 26.6641 16.6252 26.5402C17.2673 26.4163 17.8581 26.1044 18.3226 25.6441C18.7872 25.1838 19.1044 24.5959 19.2342 23.9549C19.364 23.314 19.3004 22.6489 19.0516 22.0442C18.8027 21.4394 18.3798 20.9223 17.8365 20.5583C17.2931 20.1943 16.6539 20 16 20C15.13 20 14.2951 20.3435 13.6771 20.9559C13.0591 21.5683 12.7079 22.4 12.7 23.27ZM17.8 23.27C17.8 23.626 17.6944 23.974 17.4966 24.27C17.2989 24.566 17.0177 24.7967 16.6888 24.933C16.3599 25.0692 15.998 25.1049 15.6488 25.0354C15.2997 24.966 14.9789 24.7945 14.7272 24.5428C14.4755 24.2911 14.304 23.9703 14.2346 23.6212C14.1651 23.272 14.2008 22.9101 14.337 22.5812C14.4733 22.2523 14.704 21.9711 15 21.7734C15.296 21.5756 15.644 21.47 16 21.47C16.4766 21.4726 16.9329 21.6631 17.2699 22.0001C17.6069 22.3371 17.7974 22.7934 17.8 23.27Z" fill="black"/>
<path d="M27.25 3H4.75C4.02065 3 3.32118 3.28973 2.80546 3.80546C2.28973 4.32118 2 5.02065 2 5.75V21.27C2.00528 21.9959 2.29734 22.6902 2.81249 23.2016C3.32765 23.713 4.02411 24 4.75 24H9.94C10.1389 24 10.3297 23.921 10.4703 23.7803C10.611 23.6397 10.69 23.4489 10.69 23.25C10.69 23.0511 10.611 22.8603 10.4703 22.7197C10.3297 22.579 10.1389 22.5 9.94 22.5H4.75C4.42192 22.5 4.10697 22.3711 3.87311 22.141C3.63926 21.9109 3.50525 21.598 3.5 21.27V5.75C3.5 5.41848 3.6317 5.10054 3.86612 4.86612C4.10054 4.6317 4.41848 4.5 4.75 4.5H27.25C27.5815 4.5 27.8995 4.6317 28.1339 4.86612C28.3683 5.10054 28.5 5.41848 28.5 5.75V21.27C28.5 21.6015 28.3683 21.9195 28.1339 22.1539C27.8995 22.3883 27.5815 22.52 27.25 22.52H22.06C21.8611 22.52 21.6703 22.599 21.5297 22.7397C21.389 22.8803 21.31 23.0711 21.31 23.27C21.31 23.4689 21.389 23.6597 21.5297 23.8003C21.6703 23.941 21.8611 24.02 22.06 24.02H27.25C27.9793 24.02 28.6788 23.7303 29.1945 23.2145C29.7103 22.6988 30 21.9993 30 21.27V5.75C30 5.02065 29.7103 4.32118 29.1945 3.80546C28.6788 3.28973 27.9793 3 27.25 3Z" fill="black"/>
</svg>
