<svg width="32" height="32" viewBox="0 0 32 32" fill="none" xmlns="http://www.w3.org/2000/svg">
<path d="M16 30C18.7689 30 21.4757 29.1789 23.778 27.6406C26.0803 26.1022 27.8747 23.9157 28.9343 21.3576C29.9939 18.7994 30.2712 15.9845 29.731 13.2687C29.1908 10.553 27.8574 8.05845 25.8995 6.10051C23.9416 4.14258 21.447 2.80921 18.7313 2.26901C16.0155 1.72882 13.2006 2.00607 10.6424 3.06569C8.08426 4.12532 5.89776 5.91973 4.35943 8.22202C2.82109 10.5243 2 13.2311 2 16C2 19.713 3.475 23.274 6.1005 25.8995C8.72601 28.525 12.287 30 16 30ZM9.525 15.65C9.84198 15.3789 10.2454 15.2299 10.6625 15.2299C11.0796 15.2299 11.483 15.3789 11.8 15.65L14.425 18.275V10.05C14.425 9.63229 14.5909 9.23168 14.8863 8.93631C15.1817 8.64094 15.5823 8.47501 16 8.47501C16.4177 8.47501 16.8183 8.64094 17.1137 8.93631C17.4091 9.23168 17.575 9.63229 17.575 10.05V18.275L20.2 15.65C20.3309 15.4966 20.4913 15.3711 20.6717 15.2809C20.8521 15.1907 21.0487 15.1377 21.25 15.125C21.4547 15.1192 21.6577 15.1641 21.8409 15.2557C22.0241 15.3473 22.1818 15.4827 22.3 15.65C22.456 15.7718 22.585 15.9246 22.6791 16.0987C22.7732 16.2728 22.8303 16.4645 22.8467 16.6617C22.8631 16.859 22.8386 17.0575 22.7746 17.2447C22.7107 17.432 22.6086 17.604 22.475 17.75L17.225 23C17.05 23.175 16.875 23.175 16.7 23.35C16.5075 23.437 16.2987 23.482 16.0875 23.482C15.8763 23.482 15.6675 23.437 15.475 23.35C15.3 23.35 15.125 23.175 14.95 23L9.7 17.75C9.54403 17.6282 9.41495 17.4754 9.32086 17.3013C9.22678 17.1272 9.16973 16.9355 9.15329 16.7383C9.13686 16.541 9.16139 16.3426 9.22536 16.1553C9.28933 15.968 9.39135 15.796 9.525 15.65Z" fill="black"/>
</svg>
