<svg width="32" height="32" viewBox="0 0 32 32" fill="none" xmlns="http://www.w3.org/2000/svg">
<path d="M25.2567 15.0716L23.9282 10.3201L22.8809 11.4158L23.8506 15.0716H19.1767L17.8191 16.3807H28.4858C28.5811 16.3921 28.6777 16.3832 28.7693 16.3546C28.8609 16.326 28.9454 16.2782 29.0172 16.2145C29.089 16.1509 29.1465 16.0727 29.1859 15.9851C29.2252 15.8976 29.2456 15.8027 29.2456 15.7067C29.2456 15.6108 29.2252 15.5159 29.1859 15.4283C29.1465 15.3408 29.089 15.2626 29.0172 15.1989C28.9454 15.1353 28.8609 15.0875 28.7693 15.0589C28.6777 15.0302 28.5811 15.0214 28.4858 15.0328L25.2567 15.0716Z" fill="black"/>
<path d="M20.4761 17.9517C19.4798 17.9548 18.5162 18.3081 17.7539 18.9498C16.9917 19.5915 16.4793 20.4807 16.3064 21.462H14.018C13.9624 21.1266 13.8612 20.8003 13.7173 20.4923L12.5246 21.685C12.5389 21.8399 12.5389 21.9957 12.5246 22.1505C12.5246 22.8757 12.2365 23.5713 11.7237 24.0841C11.2109 24.5969 10.5153 24.885 9.79008 24.885C9.63525 24.8993 9.47944 24.8993 9.32462 24.885L8.16098 26.0778C8.74769 26.3249 9.38253 26.4366 10.0183 26.4046C10.6542 26.3727 11.2746 26.1979 11.8336 25.8933C12.3926 25.5886 12.8757 25.1619 13.2472 24.6449C13.6186 24.1279 13.8688 23.5338 13.9792 22.9068H16.2677C16.4062 23.7021 16.769 24.4412 17.3134 25.0373C17.8577 25.6333 18.561 26.0615 19.3405 26.2714C20.12 26.4813 20.9431 26.4642 21.7132 26.2221C22.4833 25.98 23.1682 25.523 23.6873 24.9049C24.2065 24.2867 24.5383 23.5331 24.6437 22.7328C24.749 21.9325 24.6237 21.1187 24.2822 20.3873C23.9408 19.6558 23.3976 19.0371 22.7164 18.6039C22.0353 18.1707 21.2446 17.941 20.4373 17.942L20.4761 17.9517ZM20.4761 24.9238C19.9349 24.9238 19.4058 24.7632 18.9559 24.4623C18.506 24.1614 18.1555 23.7337 17.9488 23.2335C17.7421 22.7332 17.6886 22.1829 17.7949 21.6522C17.9012 21.1215 18.1626 20.6343 18.546 20.2522C18.9294 19.8702 19.4175 19.6105 19.9486 19.5061C20.4797 19.4017 21.0298 19.4572 21.5293 19.6657C22.0288 19.8741 22.4552 20.2261 22.7546 20.6771C23.0539 21.1281 23.2126 21.6577 23.2107 22.199C23.2107 22.5576 23.1399 22.9127 23.0023 23.244C22.8648 23.5752 22.6632 23.876 22.4092 24.1292C22.1551 24.3823 21.8536 24.5828 21.5219 24.7192C21.1902 24.8556 20.8348 24.9251 20.4761 24.9238Z" fill="black"/>
<path d="M9.21738 19.542L10.7107 18.0487C10.4239 17.9866 10.1314 17.9541 9.83799 17.9517C9.28069 17.9517 8.72886 18.0616 8.2141 18.2752C7.69934 18.4888 7.23176 18.8018 6.83814 19.1963C6.44452 19.5908 6.13258 20.0591 5.92019 20.5743C5.70781 21.0896 5.59914 21.6417 5.60042 22.199C5.5992 22.4953 5.62844 22.791 5.68769 23.0814L7.19072 21.5784C7.30939 21.0858 7.56121 20.6353 7.91864 20.2761C8.27607 19.917 8.72536 19.663 9.21738 19.542Z" fill="black"/>
<path d="M2.94375 28.56C3.01057 28.6284 3.09055 28.6826 3.17888 28.7192C3.26721 28.7559 3.36206 28.7743 3.45769 28.7733C3.55325 28.7737 3.64793 28.7551 3.73618 28.7185C3.82444 28.6818 3.90449 28.6279 3.97163 28.56L28.2722 4.25935C28.3437 4.19277 28.401 4.11248 28.4408 4.02327C28.4805 3.93406 28.5019 3.83775 28.5036 3.7401C28.5053 3.64245 28.4874 3.54545 28.4508 3.4549C28.4142 3.36434 28.3598 3.28207 28.2907 3.21301C28.2216 3.14395 28.1394 3.08951 28.0488 3.05293C27.9583 3.01635 27.8613 2.99839 27.7636 3.00011C27.666 3.00184 27.5697 3.02321 27.4804 3.06296C27.3912 3.10271 27.3109 3.16002 27.2444 3.23147L2.94375 27.5321C2.80756 27.6684 2.73106 27.8533 2.73106 28.046C2.73106 28.2387 2.80756 28.4236 2.94375 28.56Z" fill="black"/>
<path d="M2.75977 16.3808H12.3404L13.6883 15.0329H7.36583L9.21796 7.74077C9.26372 7.55144 9.3534 7.37555 9.47975 7.2273C9.60609 7.07906 9.76555 6.96263 9.94523 6.88743C10.1231 6.81083 10.3162 6.77622 10.5096 6.78631C10.703 6.7964 10.8915 6.85091 11.0604 6.94562L14.4543 8.88501C14.8017 9.07683 15.1879 9.18778 15.5842 9.20961C15.9804 9.23143 16.3764 9.16357 16.7428 9.01107L20.2628 7.49834C20.5739 7.37322 20.9214 7.37322 21.2325 7.49834L22.2022 6.52865C21.8455 6.26823 21.4267 6.10608 20.9876 6.05843C20.5485 6.01078 20.1046 6.0793 19.7004 6.25713L16.2192 7.74077C16.0416 7.80921 15.851 7.8369 15.6614 7.82179C15.4717 7.80669 15.2879 7.74917 15.1234 7.65349L11.7295 5.7141C11.3755 5.51539 10.98 5.40204 10.5745 5.38306C10.1691 5.36408 9.76473 5.44 9.39375 5.60478C9.02276 5.76956 8.69535 6.01865 8.43757 6.33222C8.17979 6.6458 7.99875 7.01522 7.90886 7.41107L5.96947 15.0717H2.75977C2.66448 15.0602 2.56785 15.0691 2.47625 15.0978C2.38464 15.1264 2.30015 15.1741 2.22835 15.2378C2.15655 15.3015 2.09908 15.3797 2.05972 15.4672C2.02035 15.5548 2 15.6496 2 15.7456C2 15.8416 2.02035 15.9365 2.05972 16.024C2.09908 16.1115 2.15655 16.1897 2.22835 16.2534C2.30015 16.3171 2.38464 16.3648 2.47625 16.3935C2.56785 16.4221 2.66448 16.431 2.75977 16.4196V16.3808Z" fill="black"/>
</svg>
