<svg width="32" height="32" viewBox="0 0 32 32" fill="none" xmlns="http://www.w3.org/2000/svg">
<path d="M2.74986 30.0007C2.84847 30.0011 2.94618 29.9819 3.03725 29.9441C3.12833 29.9063 3.21093 29.8507 3.28023 29.7805L29.7986 3.26216C29.9311 3.11989 30.0033 2.93171 29.9999 2.73728C29.9965 2.54284 29.9177 2.35733 29.7802 2.21982C29.6427 2.08231 29.4572 2.00355 29.2627 2.00012C29.0683 1.99669 28.8801 2.06886 28.7378 2.20143L2.21949 28.7198C2.07894 28.8605 2 29.0513 2 29.2501C2 29.449 2.07894 29.6398 2.21949 29.7805C2.28878 29.8507 2.37139 29.9063 2.46247 29.9441C2.55354 29.9819 2.65125 30.0011 2.74986 30.0007Z" fill="black"/>
</svg>
