<svg width="32" height="32" viewBox="0 0 32 32" fill="none" xmlns="http://www.w3.org/2000/svg">
<path d="M2.75 14.88H20.07C20.2689 14.88 20.4597 14.801 20.6003 14.6603C20.741 14.5197 20.82 14.3289 20.82 14.13C20.82 13.9311 20.741 13.7403 20.6003 13.5997C20.4597 13.459 20.2689 13.38 20.07 13.38H2.75C2.55109 13.38 2.36032 13.459 2.21967 13.5997C2.07902 13.7403 2 13.9311 2 14.13C2 14.3289 2.07902 14.5197 2.21967 14.6603C2.36032 14.801 2.55109 14.88 2.75 14.88Z" fill="black"/>
<path d="M2.75 5.5H29.25C29.4481 5.49741 29.6374 5.41756 29.7775 5.27747C29.9176 5.13737 29.9974 4.94811 30 4.75C29.9974 4.55189 29.9176 4.36263 29.7775 4.22253C29.6374 4.08244 29.4481 4.00259 29.25 4H2.75C2.55189 4.00259 2.36263 4.08244 2.22253 4.22253C2.08244 4.36263 2.00259 4.55189 2 4.75C2.00259 4.94811 2.08244 5.13737 2.22253 5.27747C2.36263 5.41756 2.55189 5.49741 2.75 5.5Z" fill="black"/>
<path d="M29.25 13.38H25.61C25.4111 13.38 25.2203 13.459 25.0797 13.5997C24.939 13.7403 24.86 13.9311 24.86 14.13C24.86 14.3289 24.939 14.5197 25.0797 14.6603C25.2203 14.801 25.4111 14.88 25.61 14.88H28.5V22.75H18.88L21.6 20C21.7404 19.8594 21.8193 19.6688 21.8193 19.47C21.8193 19.2712 21.7404 19.0806 21.6 18.94C21.5311 18.8692 21.4486 18.813 21.3576 18.7746C21.2666 18.7362 21.1688 18.7164 21.07 18.7164C20.9712 18.7164 20.8734 18.7362 20.7824 18.7746C20.6914 18.813 20.6089 18.8692 20.54 18.94L16.54 22.94C16.3995 23.0806 16.3207 23.2712 16.3207 23.47C16.3207 23.6688 16.3995 23.8594 16.54 24L20.54 28C20.6805 28.1407 20.8712 28.2198 21.07 28.22C21.268 28.2157 21.4572 28.1372 21.6 28C21.7404 27.8594 21.8193 27.6688 21.8193 27.47C21.8193 27.2712 21.7404 27.0806 21.6 26.94L18.88 24.22H29.25C29.4438 24.2202 29.6302 24.1453 29.77 24.011C29.9098 23.8768 29.9922 23.6937 30 23.5V14.13C30 13.9311 29.921 13.7403 29.7803 13.5997C29.6397 13.459 29.4489 13.38 29.25 13.38Z" fill="black"/>
<path d="M11.25 22.75H2.75C2.55109 22.75 2.36032 22.829 2.21967 22.9697C2.07902 23.1103 2 23.3011 2 23.5C2 23.6989 2.07902 23.8897 2.21967 24.0303C2.36032 24.171 2.55109 24.25 2.75 24.25H11.25C11.4489 24.25 11.6397 24.171 11.7803 24.0303C11.921 23.8897 12 23.6989 12 23.5C12 23.3011 11.921 23.1103 11.7803 22.9697C11.6397 22.829 11.4489 22.75 11.25 22.75Z" fill="black"/>
</svg>
