<svg width="32" height="32" viewBox="0 0 32 32" fill="none" xmlns="http://www.w3.org/2000/svg">
<path d="M11.7599 7.79208C11.807 7.94353 11.9015 8.07585 12.0294 8.16958C12.1573 8.26331 12.3118 8.31349 12.4704 8.31275C12.5464 8.32712 12.6245 8.32712 12.7005 8.31275C12.8006 8.28276 12.8933 8.23218 12.9727 8.16426C13.0522 8.09634 13.1166 8.01257 13.1618 7.91831C13.207 7.82406 13.232 7.7214 13.2353 7.6169C13.2386 7.5124 13.22 7.40836 13.1808 7.31146L11.6098 2.55531C11.5846 2.45787 11.5398 2.36658 11.4782 2.28703C11.4166 2.20747 11.3394 2.14132 11.2514 2.09259C11.1634 2.04387 11.0664 2.0136 10.9663 2.00364C10.8662 1.99368 10.7651 2.00422 10.6692 2.03464C10.5691 2.06463 10.4764 2.11521 10.397 2.18313C10.3175 2.25105 10.2532 2.33482 10.2079 2.42907C10.1627 2.52333 10.1377 2.62599 10.1344 2.73049C10.1311 2.83499 10.1497 2.93902 10.1889 3.03593L11.7599 7.79208Z" fill="black"/>
<path d="M15.1128 19.7776C15.349 20.5076 15.3806 21.2885 15.2042 22.0353C15.0278 22.7821 14.6501 23.4662 14.1121 24.0131L10.77 27.3374C9.98269 28.12 8.91795 28.5593 7.80815 28.5593C6.69836 28.5593 5.63362 28.12 4.84629 27.3374L4.73622 27.2272C4.34653 26.8384 4.03735 26.3765 3.8264 25.8679C3.61544 25.3593 3.50685 24.8141 3.50685 24.2634C3.50685 23.7127 3.61544 23.1675 3.8264 22.6589C4.03735 22.1503 4.34653 21.6884 4.73622 21.2996L8.05831 17.9653C8.60424 17.426 9.28784 17.0474 10.0344 16.8708C10.7809 16.6942 11.5615 16.7264 12.291 16.964L13.4417 15.8125C12.3859 15.3088 11.2005 15.1433 10.0472 15.3386C8.89395 15.5339 7.82899 16.0805 6.99764 16.9039L3.67555 20.2382C2.62207 21.3047 2.03125 22.7438 2.03125 24.2434C2.03125 25.7429 2.62207 27.1821 3.67555 28.2486L3.78562 28.3587C4.85267 29.4105 6.29035 30 7.78814 30C9.28593 30 10.7236 29.4105 11.7907 28.3587L15.1528 25.0644C15.9805 24.236 16.5324 23.1719 16.733 22.0178C16.9336 20.8636 16.7731 19.6756 16.2735 18.6161L15.1128 19.7776Z" fill="black"/>
<path d="M28.3405 3.82682L28.2304 3.70667C27.1646 2.65249 25.7264 2.06128 24.2279 2.06128C22.7293 2.06128 21.2911 2.65249 20.2253 3.70667L16.8632 7.04098C16.0346 7.87102 15.4823 8.9368 15.2817 10.0927C15.0811 11.2486 15.2421 12.4384 15.7425 13.4993L16.9032 12.3378C16.667 11.6078 16.6354 10.8269 16.8118 10.0801C16.9882 9.33331 17.3659 8.64925 17.9039 8.10235L21.226 4.77805C22.0133 3.99539 23.078 3.55614 24.1878 3.55614C25.2976 3.55614 26.3624 3.99539 27.1497 4.77805L27.2598 4.89821C28.0437 5.68307 28.4841 6.74734 28.4841 7.85703C28.4841 8.96673 28.0437 10.031 27.2598 10.8159L24.0077 14.1402C23.4612 14.6784 22.7776 15.0564 22.0313 15.233C21.285 15.4095 20.5046 15.3779 19.7751 15.1414L18.6243 16.303C19.6745 16.789 20.8475 16.944 21.9878 16.7472C23.128 16.5505 24.1815 16.0114 25.0084 15.2015L28.3305 11.8772C29.3974 10.8104 29.9978 9.36345 29.9996 7.8541C30.0015 6.34475 29.4048 4.89633 28.3405 3.82682Z" fill="black"/>
<path d="M2.51453 11.667L7.27753 13.229C7.35693 13.2435 7.43829 13.2435 7.51769 13.229C7.6945 13.2263 7.86469 13.1613 7.99823 13.0453C8.13177 12.9293 8.22008 12.7698 8.2476 12.595C8.27512 12.4202 8.24007 12.2413 8.14864 12.0898C8.0572 11.9384 7.91525 11.8241 7.74783 11.7671L2.99483 10.2352C2.80508 10.1714 2.5978 10.1857 2.41859 10.2749C2.23938 10.3641 2.10292 10.5209 2.03923 10.7108C1.97554 10.9006 1.98983 11.1081 2.07897 11.2874C2.1681 11.4667 2.32478 11.6033 2.51453 11.667Z" fill="black"/>
<path d="M8.8967 10.0449C9.03964 10.1822 9.22891 10.2608 9.42704 10.2652C9.58506 10.2774 9.74295 10.2399 9.87865 10.158C10.0144 10.0761 10.1211 9.95373 10.1839 9.80813C10.2467 9.66253 10.2625 9.50092 10.2291 9.34589C10.1957 9.19086 10.1147 9.05016 9.9974 8.94345L5.50456 4.48769C5.36385 4.34706 5.1731 4.26807 4.97423 4.26807C4.77535 4.26807 4.58461 4.34706 4.44389 4.48769C4.30511 4.63144 4.22754 4.82351 4.22754 5.02338C4.22754 5.22326 4.30511 5.41533 4.44389 5.55908L8.8967 10.0449Z" fill="black"/>
</svg>
