<svg width="32" height="32" viewBox="0 0 32 32" fill="none" xmlns="http://www.w3.org/2000/svg">
<path fill-rule="evenodd" clip-rule="evenodd" d="M10.15 6.4C10.15 5.98579 10.4858 5.65 10.9 5.65H28.5C28.9142 5.65 29.25 5.98579 29.25 6.4C29.25 6.81421 28.9142 7.15 28.5 7.15H10.9C10.4858 7.15 10.15 6.81421 10.15 6.4Z" fill="black"/>
<path fill-rule="evenodd" clip-rule="evenodd" d="M10.15 15.7C10.15 15.2858 10.4858 14.95 10.9 14.95H28.5C28.9142 14.95 29.25 15.2858 29.25 15.7C29.25 16.1142 28.9142 16.45 28.5 16.45H10.9C10.4858 16.45 10.15 16.1142 10.15 15.7Z" fill="black"/>
<path fill-rule="evenodd" clip-rule="evenodd" d="M10.15 25.1C10.15 24.6858 10.4858 24.35 10.9 24.35H28.5C28.9142 24.35 29.25 24.6858 29.25 25.1C29.25 25.5142 28.9142 25.85 28.5 25.85H10.9C10.4858 25.85 10.15 25.5142 10.15 25.1Z" fill="black"/>
<path d="M5.1 9.7H3.9V4.6L2.4 5.1V4L4.9 3H5V9.7H5.1Z" fill="black"/>
<path d="M6.3 19.2H2.1V18.3L4.1 16C4.4 15.7 4.6 15.4 4.7 15.1C4.8 14.9 4.9 14.6 4.9 14.4C4.9 14.1 4.8 13.9 4.7 13.7C4.6 13.5 4.4 13.4 4.1 13.4C3.8 13.4 3.6 13.5 3.5 13.7C3.3 13.9 3.3 14.2 3.3 14.5H2C2 14.1 2.1 13.7 2.3 13.4C2.5 13.1 2.7 12.8 3 12.6C3.3 12.4 3.7 12.3 4.1 12.3C4.7 12.3 5.2 12.5 5.6 12.8C5.9 13.1 6.1 13.6 6.1 14.2C6.1 14.5 6 14.9 5.9 15.2C5.7 15.5 5.5 15.9 5.1 16.4L3.7 18H6.3V19.2Z" fill="black"/>
<path d="M3.4 24.5H4C4.3 24.5 4.5 24.4 4.7 24.2C4.8 24 4.9 23.8 4.9 23.5C4.9 23.2 4.8 23 4.7 22.9C4.6 22.7 4.4 22.7 4.1 22.7C3.9 22.7 3.7 22.8 3.5 22.9C3.3 23 3.3 23.2 3.3 23.4H2.1C2.1 23 2.2 22.7 2.4 22.5C2.6 22.2 2.8 22 3.1 21.8C3.4 21.6 3.7 21.6 4.1 21.6C4.7 21.6 5.2 21.8 5.6 22.1C6 22.4 6.1 22.9 6.1 23.5C6.1 23.8 6 24.1 5.8 24.4C5.6 24.7 5.4 24.9 5.1 25C5.4 25.1 5.7 25.3 5.9 25.6C6.1 25.9 6.2 26.2 6.2 26.6C6.2 27.2 6 27.7 5.6 28C5.2 28.4 4.7 28.5 4 28.5C3.4 28.5 2.9 28.3 2.5 28C2.2 27.7 2 27.2 2 26.6H3.2C3.2 26.9 3.3 27.1 3.5 27.2C3.7 27.3 3.9 27.4 4.1 27.4C4.4 27.4 4.6 27.3 4.8 27.1C4.9 27.1 5 26.9 5 26.6C5 25.9 4.7 25.6 4 25.6H3.4V24.5Z" fill="black"/>
</svg>
