<svg width="32" height="32" viewBox="0 0 32 32" fill="none" xmlns="http://www.w3.org/2000/svg">
<path d="M25.12 7.77C25.2492 7.90189 25.4254 7.97737 25.61 7.98C25.7131 7.97885 25.8149 7.95701 25.9093 7.91578C26.0038 7.87456 26.0891 7.81478 26.16 7.74C26.2993 7.59476 26.3771 7.40128 26.3771 7.2C26.3771 6.99872 26.2993 6.80524 26.16 6.66C26.0912 6.59076 26.0094 6.53581 25.9193 6.49831C25.8292 6.46082 25.7326 6.44151 25.635 6.44151C25.5374 6.44151 25.4408 6.46082 25.3507 6.49831C25.2606 6.53581 25.1788 6.59076 25.11 6.66C24.9713 6.80357 24.8938 6.99538 24.8938 7.195C24.8938 7.39462 24.9713 7.58643 25.11 7.73L25.12 7.77Z" fill="black"/>
<path d="M24.3 13C24.3555 13.1379 24.4507 13.2562 24.5736 13.3399C24.6964 13.4236 24.8414 13.4689 24.99 13.47C25.0827 13.4851 25.1773 13.4851 25.27 13.47C25.3638 13.4327 25.4493 13.377 25.5214 13.3063C25.5934 13.2356 25.6507 13.1512 25.6898 13.0581C25.7289 12.965 25.7491 12.8651 25.7491 12.7641C25.7491 12.6631 25.729 12.5631 25.69 12.47L25.62 12.3C25.5813 12.2094 25.5251 12.1273 25.4546 12.0584C25.3841 11.9895 25.3008 11.9352 25.2093 11.8985C25.1178 11.8618 25.02 11.8435 24.9215 11.8446C24.823 11.8457 24.7256 11.8663 24.635 11.905C24.5444 11.9437 24.4623 11.9999 24.3934 12.0704C24.3245 12.1409 24.2702 12.2242 24.2335 12.3157C24.1968 12.4072 24.1785 12.505 24.1796 12.6035C24.1807 12.702 24.2013 12.7994 24.24 12.89L24.3 13Z" fill="black"/>
<path d="M25.62 19.76L25.69 19.6C25.7293 19.5075 25.7499 19.4081 25.7505 19.3076C25.7512 19.2071 25.7319 19.1074 25.6937 19.0144C25.6556 18.9214 25.5994 18.8369 25.5284 18.7658C25.4574 18.6946 25.3729 18.6383 25.28 18.6C25.1877 18.5593 25.0881 18.5376 24.9872 18.5363C24.8863 18.5349 24.7861 18.554 24.6928 18.5923C24.5994 18.6305 24.5147 18.6873 24.4438 18.759C24.3729 18.8308 24.3172 18.9162 24.28 19.01L24.22 19.15C24.1804 19.2419 24.1593 19.3407 24.158 19.4408C24.1567 19.5408 24.1751 19.6402 24.2123 19.7331C24.2494 19.826 24.3046 19.9107 24.3746 19.9822C24.4445 20.0537 24.5279 20.1108 24.62 20.15C24.7115 20.1899 24.8102 20.2103 24.91 20.21C25.0595 20.2132 25.2066 20.1721 25.3329 20.0921C25.4592 20.0121 25.559 19.8965 25.62 19.76Z" fill="black"/>
<path d="M28.35 14.11V14.23C28.3721 14.4103 28.4597 14.5761 28.5962 14.696C28.7326 14.8159 28.9084 14.8813 29.09 14.88H29.2C29.396 14.8504 29.5724 14.7443 29.6904 14.585C29.8085 14.4257 29.8587 14.2262 29.83 14.03V13.87C29.8131 13.7727 29.7772 13.6798 29.7242 13.5964C29.6713 13.5131 29.6025 13.441 29.5217 13.3844C29.4408 13.3277 29.3496 13.2875 29.2532 13.2662C29.1568 13.2449 29.0572 13.2427 28.96 13.26C28.7664 13.2919 28.5934 13.3993 28.479 13.5587C28.3646 13.7181 28.3182 13.9164 28.35 14.11Z" fill="black"/>
<path d="M28.27 20.93C28.0946 20.8419 27.8916 20.826 27.7047 20.8858C27.5177 20.9457 27.3616 21.0764 27.27 21.25L27.2 21.38C27.1152 21.557 27.1022 21.76 27.1637 21.9464C27.2253 22.1328 27.3565 22.2882 27.53 22.38C27.6365 22.4302 27.7523 22.4575 27.87 22.46C28.0087 22.4603 28.1447 22.4221 28.263 22.3497C28.3812 22.2773 28.4771 22.1736 28.54 22.05L28.6 21.93C28.6874 21.7534 28.7018 21.5495 28.64 21.3623C28.5783 21.1752 28.4453 21.0199 28.27 20.93Z" fill="black"/>
<path d="M27.26 10.75C27.3229 10.8736 27.4188 10.9773 27.537 11.0497C27.6553 11.1221 27.7913 11.1603 27.93 11.16C28.0482 11.1621 28.1651 11.1346 28.27 11.08C28.3578 11.0365 28.436 10.976 28.5002 10.902C28.5644 10.828 28.6132 10.742 28.6439 10.649C28.6746 10.5559 28.6866 10.4577 28.679 10.3601C28.6715 10.2624 28.6446 10.1672 28.6 10.08L28.53 10C28.4401 9.82465 28.2848 9.69174 28.0977 9.62999C27.9105 9.56823 27.7066 9.58261 27.53 9.67C27.3583 9.7635 27.2292 9.91961 27.1696 10.1059C27.11 10.2921 27.1244 10.4942 27.21 10.67L27.26 10.75Z" fill="black"/>
<path d="M25.12 24.23L25.07 24.28C24.9405 24.4142 24.8681 24.5935 24.8681 24.78C24.8681 24.9665 24.9405 25.1458 25.07 25.28C25.1372 25.3459 25.217 25.3976 25.3046 25.432C25.3923 25.4663 25.4859 25.4827 25.58 25.48C25.7928 25.4812 25.9976 25.3986 26.15 25.25C26.2208 25.1811 26.277 25.0986 26.3154 25.0076C26.3538 24.9166 26.3736 24.8188 26.3736 24.72C26.3736 24.6212 26.3538 24.5234 26.3154 24.4324C26.277 24.3414 26.2208 24.2589 26.15 24.19C26.0057 24.0638 25.8186 23.9976 25.627 24.005C25.4355 24.0125 25.2541 24.093 25.12 24.23Z" fill="black"/>
<path d="M25.62 16.83C25.7172 16.8313 25.8137 16.8135 25.904 16.7775C25.9942 16.7415 26.0766 16.6881 26.1462 16.6203C26.2159 16.5526 26.2715 16.4717 26.3099 16.3824C26.3483 16.2932 26.3687 16.1972 26.37 16.1V15.9C26.3674 15.8059 26.3462 15.7132 26.3075 15.6274C26.2687 15.5416 26.2133 15.4643 26.1445 15.4001C26.0756 15.3359 25.9946 15.286 25.9063 15.2534C25.818 15.2207 25.7241 15.206 25.63 15.21C25.4275 15.2203 25.2367 15.308 25.0971 15.4551C24.9575 15.6021 24.8797 15.7972 24.88 16L25.63 16.08H24.88C24.8825 16.2764 24.961 16.4642 25.0989 16.604C25.2369 16.7439 25.4236 16.8248 25.62 16.83Z" fill="black"/>
<path d="M29.22 17.14C29.0238 17.1113 28.8243 17.1615 28.665 17.2796C28.5057 17.3976 28.3996 17.574 28.37 17.77V17.9C28.3528 17.9966 28.355 18.0957 28.3765 18.1914C28.3979 18.2871 28.4382 18.3777 28.495 18.4577C28.5518 18.5377 28.6239 18.6057 28.7071 18.6576C28.7904 18.7095 28.8832 18.7443 28.98 18.76H29.11C29.2861 18.7584 29.4561 18.6957 29.5911 18.5826C29.7261 18.4695 29.8176 18.3131 29.85 18.14V17.98C29.8758 17.7854 29.8243 17.5884 29.7065 17.4314C29.5887 17.2743 29.4141 17.1697 29.22 17.14Z" fill="black"/>
<path d="M16.06 2H5.75C4.75544 2 3.80161 2.39509 3.09835 3.09835C2.39509 3.80161 2 4.75544 2 5.75V26.25C2 27.2446 2.39509 28.1984 3.09835 28.9017C3.80161 29.6049 4.75544 30 5.75 30H16.06C16.5525 30 17.0401 29.903 17.4951 29.7145C17.95 29.5261 18.3634 29.2499 18.7117 28.9017C19.0599 28.5534 19.3361 28.14 19.5245 27.6851C19.713 27.2301 19.81 26.7425 19.81 26.25V5.75C19.81 5.25754 19.713 4.76991 19.5245 4.31494C19.3361 3.85997 19.0599 3.44657 18.7117 3.09835C18.3634 2.75013 17.95 2.47391 17.4951 2.28545C17.0401 2.097 16.5525 2 16.06 2ZM18.31 26.25C18.31 26.8467 18.0729 27.419 17.651 27.841C17.229 28.2629 16.6567 28.5 16.06 28.5H5.75C5.15326 28.5 4.58097 28.2629 4.15901 27.841C3.73705 27.419 3.5 26.8467 3.5 26.25V24.9H18.31V26.25ZM18.31 23.4H3.5V5.75C3.5 5.15326 3.73705 4.58097 4.15901 4.15901C4.58097 3.73705 5.15326 3.5 5.75 3.5H16.06C16.3555 3.5 16.6481 3.5582 16.921 3.67127C17.194 3.78434 17.4421 3.95008 17.651 4.15901C17.8599 4.36794 18.0257 4.61598 18.1387 4.88896C18.2518 5.16194 18.31 5.45453 18.31 5.75V23.4Z" fill="black"/>
<path d="M22.56 10.33C22.6257 10.3952 22.7038 10.4464 22.7897 10.4808C22.8756 10.5152 22.9675 10.5319 23.06 10.53C23.2128 10.5292 23.3618 10.4824 23.4876 10.3957C23.6133 10.309 23.7101 10.1864 23.7651 10.0439C23.8202 9.9014 23.831 9.74561 23.7962 9.59685C23.7614 9.4481 23.6826 9.31328 23.57 9.21C23.4358 9.08046 23.2565 9.00807 23.07 9.00807C22.8835 9.00807 22.7042 9.08046 22.57 9.21C22.4989 9.27981 22.4425 9.36307 22.404 9.45493C22.3655 9.54678 22.3456 9.64539 22.3456 9.745C22.3456 9.84461 22.3655 9.94322 22.404 10.0351C22.4425 10.1269 22.4989 10.2102 22.57 10.28L22.56 10.33Z" fill="black"/>
<path d="M22.56 21.67C22.4386 21.7693 22.3514 21.9042 22.3107 22.0557C22.27 22.2071 22.2778 22.3675 22.333 22.5143C22.3881 22.6611 22.488 22.787 22.6184 22.8741C22.7488 22.9612 22.9032 23.0052 23.06 23C23.2743 22.9985 23.4792 22.9122 23.63 22.76C23.7704 22.6194 23.8493 22.4288 23.8493 22.23C23.8493 22.0312 23.7704 21.8406 23.63 21.7C23.4904 21.5572 23.3007 21.4743 23.1011 21.4687C22.9014 21.4631 22.7074 21.5353 22.56 21.67Z" fill="black"/>
<path d="M14.5 9.85C14.3594 9.70955 14.1688 9.63066 13.97 9.63066C13.7712 9.63066 13.5806 9.70955 13.44 9.85L10.91 12.39L8.37 9.85C8.22937 9.70955 8.03875 9.63066 7.84 9.63066C7.64125 9.63066 7.45063 9.70955 7.31 9.85C7.23924 9.91895 7.18301 10.0014 7.14461 10.0924C7.10621 10.1834 7.08643 10.2812 7.08643 10.38C7.08643 10.4788 7.10621 10.5766 7.14461 10.6676C7.18301 10.7586 7.23924 10.8411 7.31 10.91L9.84 13.45L7.31 16C7.23924 16.0689 7.18301 16.1514 7.14461 16.2424C7.10621 16.3334 7.08643 16.4312 7.08643 16.53C7.08643 16.6288 7.10621 16.7266 7.14461 16.8176C7.18301 16.9086 7.23924 16.9911 7.31 17.06C7.37817 17.1315 7.46052 17.188 7.55178 17.2259C7.64305 17.2638 7.74121 17.2822 7.84 17.28C7.93854 17.2805 8.03618 17.2612 8.12719 17.2235C8.21821 17.1857 8.30076 17.1301 8.37 17.06L10.91 14.52L13.44 17.06C13.5092 17.1301 13.5918 17.1857 13.6828 17.2235C13.7738 17.2612 13.8715 17.2805 13.97 17.28C14.0688 17.2822 14.167 17.2638 14.2582 17.2259C14.3495 17.188 14.4318 17.1315 14.5 17.06C14.5708 16.9911 14.627 16.9086 14.6654 16.8176C14.7038 16.7266 14.7236 16.6288 14.7236 16.53C14.7236 16.4312 14.7038 16.3334 14.6654 16.2424C14.627 16.1514 14.5708 16.0689 14.5 16L12 13.45L14.5 10.91C14.5708 10.8411 14.627 10.7586 14.6654 10.6676C14.7038 10.5766 14.7236 10.4788 14.7236 10.38C14.7236 10.2812 14.7038 10.1834 14.6654 10.0924C14.627 10.0014 14.5708 9.91895 14.5 9.85Z" fill="black"/>
</svg>
