<svg width="32" height="32" viewBox="0 0 32 32" fill="none" xmlns="http://www.w3.org/2000/svg">
<path d="M16 30C18.7689 30 21.4757 29.1789 23.778 27.6406C26.0803 26.1022 27.8747 23.9157 28.9343 21.3576C29.9939 18.7994 30.2712 15.9845 29.731 13.2687C29.1908 10.553 27.8574 8.05845 25.8995 6.10051C23.9416 4.14258 21.447 2.80921 18.7313 2.26901C16.0155 1.72882 13.2006 2.00607 10.6424 3.06569C8.08426 4.12532 5.89776 5.91973 4.35943 8.22202C2.82109 10.5243 2 13.2311 2 16C2 19.713 3.475 23.274 6.1005 25.8995C8.72601 28.525 12.287 30 16 30ZM9.525 14.25L14.775 9.00001C14.95 8.82501 15.125 8.825 15.3 8.65C15.4925 8.56303 15.7013 8.51805 15.9125 8.51805C16.1237 8.51805 16.3325 8.56303 16.525 8.65C16.7 8.65 16.875 8.82501 17.05 9.00001L22.3 14.25C22.5711 14.567 22.7201 14.9704 22.7201 15.3875C22.7201 15.8046 22.5711 16.208 22.3 16.525C22.1691 16.6784 22.0087 16.8039 21.8283 16.8941C21.6479 16.9843 21.4513 17.0373 21.25 17.05C21.0453 17.0558 20.8423 17.0109 20.6591 16.9193C20.4759 16.8277 20.3182 16.6923 20.2 16.525L17.575 13.725V21.95C17.575 22.1568 17.5343 22.3616 17.4551 22.5527C17.376 22.7438 17.2599 22.9174 17.1137 23.0637C16.9674 23.2099 16.7938 23.326 16.6027 23.4051C16.4116 23.4843 16.2068 23.525 16 23.525C15.7932 23.525 15.5884 23.4843 15.3973 23.4051C15.2062 23.326 15.0326 23.2099 14.8863 23.0637C14.7401 22.9174 14.624 22.7438 14.5449 22.5527C14.4657 22.3616 14.425 22.1568 14.425 21.95V13.725L11.8 16.35C11.4759 16.6055 11.0752 16.7444 10.6625 16.7444C10.2498 16.7444 9.84911 16.6055 9.525 16.35C9.27026 16.0595 9.12981 15.6864 9.12981 15.3C9.12981 14.9137 9.27026 14.5405 9.525 14.25Z" fill="black"/>
</svg>
