<svg width="32" height="32" viewBox="0 0 32 32" fill="none" xmlns="http://www.w3.org/2000/svg">
<path fill-rule="evenodd" clip-rule="evenodd" d="M15.777 3.76727C15.6125 3.90439 15.5 4.0966 15.5 4.38954V10.5895L14.75 10.5895L14 10.5895V5.38961C13.9805 5.37495 13.9616 5.35922 13.9432 5.3424C13.5713 5.00147 13.067 4.94161 12.6546 5.1249C12.2677 5.29684 11.9 5.71655 11.9 6.48954V11.1826C11.9 11.1869 11.9 11.1912 11.9 11.1955V15.0889L11.15 15.0895L10.4 15.0895V11.518C10.3175 11.4662 10.2108 11.4175 10.0786 11.3804C9.83357 11.3116 9.5534 11.2987 9.29709 11.35C9.04116 11.4012 8.84462 11.5081 8.71746 11.6446C8.60037 11.7702 8.5 11.9644 8.5 12.2895V19.1895C8.5 20.5027 8.73458 21.2456 9.05627 21.7471C9.38543 22.2602 9.859 22.6109 10.5556 23.0587C11.3185 23.5491 12.0606 24.2149 12.5989 24.7404C12.8713 25.0063 13.0983 25.243 13.2577 25.4137C13.3375 25.4992 13.4006 25.5685 13.4442 25.6169C13.4661 25.6411 13.4831 25.6602 13.4949 25.6735L13.5087 25.6891L13.5126 25.6935L13.5138 25.6949C13.5138 25.695 13.5144 25.6957 12.95 26.1895L13.5144 25.6957C13.6341 25.8324 13.7 26.0079 13.7 26.1895V29.1895C13.7 29.6038 13.3642 29.9395 12.95 29.9395C12.5358 29.9395 12.2 29.6038 12.2 29.1895V26.4791C12.1876 26.4657 12.1746 26.4517 12.1611 26.4372C12.0142 26.2799 11.8037 26.0603 11.5511 25.8137C11.0394 25.3142 10.3815 24.73 9.74443 24.3204C9.041 23.8682 8.31457 23.3689 7.79373 22.557C7.26542 21.7335 7 20.6764 7 19.1895V12.2895C7 11.6147 7.22463 11.0463 7.62004 10.622C8.00538 10.2085 8.50884 9.97792 9.00291 9.8791C9.46724 9.78624 9.9547 9.80248 10.4 9.91392V6.48954C10.4 5.16253 11.0823 4.18224 12.0454 3.75418C12.688 3.4686 13.4283 3.44455 14.0971 3.70201C14.2282 3.25923 14.4844 2.89186 14.8167 2.61493C15.2913 2.21949 15.8943 2.02731 16.4679 2.00273C17.0396 1.97822 17.6534 2.11755 18.1448 2.47555C18.3363 2.61506 18.5036 2.78439 18.6383 2.98057C18.7073 2.95073 18.777 2.92374 18.8467 2.89959C19.3177 2.7365 19.8665 2.67562 20.4028 2.77778C20.9476 2.88155 21.4911 3.1576 21.8926 3.67156C22.231 4.1047 22.4316 4.65921 22.4853 5.31939C23.0028 5.21755 23.5928 5.2138 24.1402 5.36745C24.6155 5.50088 25.0945 5.76364 25.4521 6.22179C25.8125 6.68344 26 7.27989 26 7.98954V21.2895C26 22.8965 25.476 24.3388 24.9726 25.3589C24.7189 25.873 24.465 26.2907 24.2731 26.5819C24.2076 26.6814 24.1491 26.7664 24.1 26.8358V29.1895C24.1 29.6038 23.7642 29.9395 23.35 29.9395C22.9358 29.9395 22.6 29.6038 22.6 29.1895V26.5895C22.6 26.421 22.6568 26.2573 22.7612 26.125C22.7613 26.1249 22.7619 26.1241 22.762 26.124L22.7631 26.1226L22.7745 26.1077C22.7854 26.0933 22.8027 26.0703 22.8255 26.039C22.8711 25.9764 22.9386 25.881 23.0206 25.7565C23.185 25.5071 23.4061 25.1435 23.6274 24.6951C24.074 23.7903 24.5 22.5826 24.5 21.2895V7.98954C24.5 7.54919 24.3875 7.29564 24.2697 7.14479C24.1493 6.99044 23.972 6.8782 23.7348 6.81163C23.3136 6.6934 22.8208 6.75242 22.5 6.86417V11.2887L21.75 11.2895L21 11.2895V5.68954C21 5.11441 20.8576 4.7832 20.7105 4.59502C20.5652 4.40897 20.3649 4.29753 20.1222 4.25129C19.871 4.20345 19.5886 4.23008 19.3376 4.31699C19.1929 4.36712 19.081 4.42911 19 4.48873V10.5891L18.25 10.5895L17.5 10.5895V4.18954C17.5 3.93792 17.403 3.79098 17.2615 3.6879C17.0966 3.56778 16.8354 3.48835 16.5321 3.50135C16.2307 3.51427 15.9587 3.61584 15.777 3.76727ZM18.25 10.5895L17.5 10.5895C17.5 11.0037 17.8358 11.3395 18.25 11.3395C18.6642 11.3395 19 11.0033 19 10.5891L18.25 10.5895ZM21.75 11.2895L21 11.2895C21 11.7037 21.3358 12.0395 21.75 12.0395C22.1642 12.0395 22.5 11.703 22.5 11.2887L21.75 11.2895ZM11.15 15.0895L10.4 15.0895C10.4 15.5037 10.7358 15.8395 11.15 15.8395C11.5642 15.8395 11.9 15.5031 11.9 15.0889L11.15 15.0895ZM14.75 11.3395C14.3358 11.3395 14 11.0037 14 10.5895L14.75 10.5895L15.5 10.5895C15.5 11.0037 15.1642 11.3395 14.75 11.3395Z" fill="black"/>
</svg>
