<svg width="32" height="32" viewBox="0 0 32 32" fill="none" xmlns="http://www.w3.org/2000/svg">
<path fill-rule="evenodd" clip-rule="evenodd" d="M15.4724 5.21585C15.7653 4.92805 16.2347 4.92805 16.5276 5.21585L22.3484 10.9363C22.6449 11.2277 22.649 11.7042 22.3576 12.0007C22.0662 12.2972 21.5897 12.3013 21.2932 12.01L16.7527 7.54772V21.4086C16.7527 21.8243 16.4157 22.1613 16 22.1613C15.5843 22.1613 15.2473 21.8243 15.2473 21.4086V7.54772L10.7068 12.01C10.4103 12.3013 9.93375 12.2972 9.64237 12.0007C9.351 11.7042 9.35514 11.2277 9.65163 10.9363L15.4724 5.21585ZM2.75269 21.2581C3.16839 21.2581 3.50538 21.5951 3.50538 22.0108V25.1219C3.50538 25.8101 4.07161 26.3763 4.75986 26.3763H27.2401C27.9284 26.3763 28.4946 25.8101 28.4946 25.1219V22.0108C28.4946 21.5951 28.8316 21.2581 29.2473 21.2581C29.663 21.2581 30 21.5951 30 22.0108V25.1219C30 26.6415 28.7598 27.8817 27.2401 27.8817H4.75986C3.24022 27.8817 2 26.6415 2 25.1219V22.0108C2 21.5951 2.33699 21.2581 2.75269 21.2581Z" fill="black"/>
</svg>
