<svg width="32" height="32" viewBox="0 0 32 32" fill="none" xmlns="http://www.w3.org/2000/svg">
<path d="M28.4 8.2726C27.4 7.7726 26.2 7.9726 25.4 8.7726L20.9 12.7726V11.2726C20.9 9.7726 19.7 8.4726 18.1 8.4726H4.8C3.2 8.5726 2 9.7726 2 11.2726V21.5726C2 23.0726 3.2 24.3726 4.8 24.3726H18.1C19.6 24.3726 20.9 23.1726 20.9 21.5726V20.1726L25.4 24.1726C25.9 24.6726 26.6 24.8726 27.2 24.8726C27.6 24.8726 28 24.7726 28.4 24.6726C29.4 24.1726 30 23.2726 30 22.1726V10.7726C30 9.6726 29.4 8.6726 28.4 8.2726ZM19.3 21.5726C19.3 22.2726 18.7 22.7726 18.1 22.7726H4.8C4.1 22.7726 3.6 22.1726 3.6 21.5726V11.2726C3.6 10.5726 4.2 10.0726 4.8 10.0726H18.1C18.8 10.0726 19.3 10.6726 19.3 11.2726V21.5726ZM28.5 22.0726C28.5 22.5726 28.2 23.0726 27.7 23.2726C27.2 23.4726 26.7 23.3726 26.3 23.0726L20.8 18.1726V14.6726L26.3 9.7726C26.7 9.4726 27.2 9.3726 27.7 9.5726C28.2 9.7726 28.5 10.2726 28.5 10.7726V22.0726Z" fill="black"/>
<path d="M6.1 18.8726C5.4 18.8726 4.8 19.4726 4.8 20.1726C4.8 20.8726 5.4 21.4726 6.1 21.4726C6.8 21.4726 7.4 20.8726 7.4 20.1726C7.4 19.4726 6.8 18.8726 6.1 18.8726Z" fill="black"/>
</svg>
