<svg width="32" height="32" viewBox="0 0 32 32" fill="none" xmlns="http://www.w3.org/2000/svg">
<path fill-rule="evenodd" clip-rule="evenodd" d="M26.6031 9.28169C27.4591 9.28169 28.1557 9.97158 28.1557 10.8196V29.0389H29.4224C29.7414 29.0389 30 29.295 30 29.611C30 29.927 29.7414 30.1831 29.4224 30.1831H2.57756C2.25857 30.1831 2 29.927 2 29.611C2 29.295 2.25857 29.0389 2.57756 29.0389H3.91265V23.8783C3.91265 23.0304 4.60913 22.3404 5.46525 22.3404H8.29673C9.15279 22.3404 9.84933 23.0303 9.84933 23.8783V29.0389H13.0659V19.0744C13.0659 18.2264 13.7624 17.5364 14.6185 17.5364H17.4499C18.306 17.5364 19.0025 18.2263 19.0025 19.0744V29.0389H22.2191V10.8196C22.2191 9.97164 22.9155 9.28169 23.7716 9.28169H26.6031ZM8.29662 23.4846H5.46519C5.246 23.4846 5.06771 23.6612 5.06771 23.8783V29.0389H8.6941V23.8783C8.6941 23.6612 8.5158 23.4846 8.29662 23.4846ZM17.4498 18.6806H14.6184C14.3992 18.6806 14.2209 18.8573 14.2209 19.0744V29.0389H17.8473V19.0744C17.8473 18.8573 17.669 18.6806 17.4498 18.6806ZM26.6031 10.4259H23.7716C23.5525 10.4259 23.3742 10.6025 23.3742 10.8196V29.0389H27.0006V10.8196C27.0006 10.6025 26.8223 10.4259 26.6031 10.4259ZM5.74648 17.5634C6.07318 17.5634 6.33803 17.8282 6.33803 18.1549C6.33803 18.4816 6.07318 18.7465 5.74648 18.7465C5.41978 18.7465 5.15493 18.4816 5.15493 18.1549C5.15493 17.8282 5.41978 17.5634 5.74648 17.5634ZM27.3901 1C27.3996 1 27.4088 1.00096 27.4182 1.00136C27.5765 0.993371 27.7374 1.04782 27.8583 1.1659C27.9792 1.28397 28.0349 1.4412 28.0268 1.59582L28.0282 1.62324V4.85009C28.0282 5.16301 27.7685 5.41667 27.4481 5.41667C27.1277 5.41667 26.868 5.16301 26.868 4.85009V2.93448L20.7234 8.93611C20.4968 9.15736 20.1295 9.15736 19.903 8.93611L17.7404 6.82389L7.72263 16.6087C7.6094 16.7193 7.4609 16.7746 7.31246 16.7746C7.16402 16.7746 7.01557 16.7193 6.90228 16.6088C6.67576 16.3875 6.67576 16.0287 6.90228 15.8075L17.3303 5.62206C17.439 5.51582 17.5866 5.45611 17.7404 5.45611C17.8943 5.45611 18.0419 5.51582 18.1506 5.62206L20.3131 7.73427L26.0476 2.13316H23.8806C23.5602 2.13316 23.3005 1.8795 23.3005 1.56658C23.3005 1.25366 23.5602 1 23.8806 1H27.3901Z" fill="black"/>
</svg>
