<svg width="32" height="32" viewBox="0 0 32 32" fill="none" xmlns="http://www.w3.org/2000/svg">
<path fill-rule="evenodd" clip-rule="evenodd" d="M11.6979 8.58L13.0452 11.52H18.2465L20.5163 13.62H11.6721L10.3248 10.68H4.13057L4.13049 10.6988C4.12775 11.3092 4.0599 26.571 4.13057 26.85C4.25905 27.3571 4.53523 27.9 5.33673 27.9H5.6333L11.3978 15.72H30L29.3687 17.1817C29.3597 17.2026 29.3597 17.2026 29.3169 17.3016C29.2583 17.4372 29.2583 17.4372 29.1705 17.6406C29.0128 18.0056 28.8372 18.4125 28.648 18.8506C28.1075 20.1024 27.567 21.3545 27.0625 22.5236C25.973 25.0484 25.2063 26.827 24.901 27.5391C24.3391 28.8498 22.2874 30 19.878 30H5.33673C3.53144 30 2.50394 29.1079 2.14475 27.69C1.99735 27.1081 1.99388 25.8198 2.00289 25.7691L2.00255 8.58H11.6979ZM26.7799 17.82H12.7526L7.98194 27.9H19.878C20.7879 27.9 21.5664 27.6957 22.1797 27.3519C22.4192 27.2176 22.62 27.0685 22.7702 26.9216C22.8731 26.821 22.9332 26.7395 22.9412 26.7209C23.2475 26.0065 24.0143 24.2275 25.1016 21.7079C25.6092 20.5316 26.1497 19.2794 26.6903 18.0274C26.7205 17.9574 26.7504 17.8883 26.7799 17.82ZM23.9921 2L23.9919 9.65739L27.7894 6.00783L29.2741 7.51217L23.0885 13.4579L16.6015 7.53045L18.0473 5.98955L21.8639 9.47722L21.8641 2H23.9921Z" fill="black"/>
</svg>
