<svg width="32" height="32" viewBox="0 0 32 32" fill="none" xmlns="http://www.w3.org/2000/svg">
<path d="M29.104 2C28.6092 2 28.208 2.40115 28.208 2.896V29.0592C28.208 29.554 28.6092 29.9552 29.104 29.9552C29.5988 29.9552 30 29.554 30 29.0592V2.896C30 2.40115 29.5988 2 29.104 2ZM15.776 4.688C15.2983 4.688 14.9105 5.15223 14.9105 5.72654C14.9105 6.01318 15.0075 6.27282 15.1641 6.4608L22.3413 15.0735H2.86545C2.38772 15.0735 2 15.5377 2 16.112C2 16.6863 2.38772 17.1505 2.86545 17.1505H22.3413L15.1641 25.7632C15.0075 25.9522 14.9105 26.2108 14.9105 26.4975C14.9105 27.0718 15.2983 27.536 15.776 27.536C16.0149 27.536 16.2312 27.4207 16.3879 27.2317L25.0424 16.8463C25.1991 16.6583 25.296 16.3986 25.296 16.112C25.296 15.8254 25.1991 15.5668 25.0424 15.3777L16.3879 4.99229C16.2312 4.80432 16.0149 4.688 15.776 4.688Z" fill="black"/>
</svg>
