<svg width="32" height="32" viewBox="0 0 32 32" fill="none" xmlns="http://www.w3.org/2000/svg">
<path d="M15.573 2C16.7404 2 17.6924 2.976 17.6924 4.17729V5.19444L17.9429 5.2728C21.339 6.33495 23.713 9.56287 23.7159 13.2541C23.678 14.2641 23.771 16.0958 24.119 17.9604C24.7028 21.0888 25.8498 23.4776 27.7423 24.6757C28.0651 24.8798 28.217 25.2804 28.1133 25.6576C28.0098 26.0315 27.6778 26.2886 27.3 26.2886H19.8297L19.7669 26.5689C19.3205 28.5613 17.5853 30 15.573 30C13.5607 30 11.8256 28.5613 11.38 26.569L11.3173 26.2886H3.84528C3.46847 26.2886 3.13684 26.0316 3.03246 25.6565C2.9285 25.2802 3.08019 24.8798 3.40278 24.6759C6.29425 22.8462 7.57748 17.7048 7.43158 13.2916C7.43103 9.57782 9.80193 6.33737 13.2033 5.27277L13.4537 5.19438V4.17729C13.4537 2.9763 14.4062 2 15.573 2ZM15.5623 6.44177C11.8726 6.44177 8.87369 9.49491 8.87369 13.2464C8.90616 14.1709 8.85013 15.6478 8.60636 17.3294C8.21172 20.0517 7.42712 22.4617 6.16095 24.2813L5.75536 24.8642H25.3685L24.9629 24.2813C23.6959 22.4606 22.9113 20.0483 22.5173 17.3213C22.2733 15.6325 22.2185 14.1658 22.2508 13.2151C22.2501 9.48768 19.2441 6.44177 15.5623 6.44177Z" fill="black"/>
</svg>
