<svg width="32" height="32" viewBox="0 0 32 32" fill="none" xmlns="http://www.w3.org/2000/svg">
<path fill-rule="evenodd" clip-rule="evenodd" d="M4.79165 14.6255C4.79165 9.73297 9.97439 5.84 16.3017 5.84C22.6282 5.84 27.8079 9.73251 27.8079 14.6255C27.8079 19.5148 22.627 23.4073 16.3017 23.4073C15.1805 23.4073 14.0803 23.2842 13.0246 23.0451C12.444 23.3115 11.8263 23.5345 11.1758 23.7175C9.15564 24.2858 7.20519 24.4215 5.05168 24.3551C4.99945 24.3535 4.70541 24.3437 4.64696 24.3422C4.6007 24.341 4.56831 24.3407 4.54856 24.3409C3.96563 24.4809 3.62903 23.5767 4.23522 23.2821C6.41576 22.2224 7.44404 21.5388 7.87492 20.6085C5.91502 19.0039 4.79165 16.8887 4.79165 14.6255ZM10.8725 22.6393C11.5307 22.4541 12.1485 22.2257 12.7199 21.9509C12.8363 21.8949 12.9684 21.8809 13.0939 21.9111C14.1224 22.1592 15.2003 22.2873 16.3017 22.2873C22.0668 22.2873 26.6879 18.8153 26.6879 14.6255C26.6879 10.4319 22.0679 6.96 16.3017 6.96C10.5346 6.96 5.91165 10.4325 5.91165 14.6255C5.91165 16.6387 6.98198 18.5419 8.87947 19.9737C9.06581 20.1144 9.14538 20.3558 9.07913 20.5797C8.75103 21.6884 8.07385 22.4237 6.71122 23.2406C8.13983 23.1996 9.49668 23.0264 10.8725 22.6393Z" fill="black"/>
</svg>
