<svg width="32" height="32" viewBox="0 0 32 32" fill="none" xmlns="http://www.w3.org/2000/svg">
<path fill-rule="evenodd" clip-rule="evenodd" d="M10.8725 22.6393C11.5307 22.4541 12.1485 22.2257 12.7199 21.9509C12.8363 21.8949 12.9684 21.8809 13.0939 21.9111C14.1224 22.1592 15.2003 22.2873 16.3017 22.2873C22.0668 22.2873 26.6879 18.8153 26.6879 14.6255C26.6879 10.4319 22.0679 6.96 16.3017 6.96C10.5346 6.96 5.91165 10.4325 5.91165 14.6255C5.91165 16.6387 6.98198 18.5419 8.87946 19.9737C9.06581 20.1144 9.14538 20.3558 9.07913 20.5797C8.75103 21.6884 8.07385 22.4237 6.71122 23.2406C8.13983 23.1996 9.49668 23.0264 10.8725 22.6393Z" fill="black"/>
</svg>
