<svg width="32" height="32" viewBox="0 0 32 32" fill="none" xmlns="http://www.w3.org/2000/svg">
<path fill-rule="evenodd" clip-rule="evenodd" d="M27.6611 2.4616C28.2152 1.91286 29.0916 1.93567 29.6186 2.51255C30.1457 3.08942 30.1237 4.00191 29.5697 4.55064L18.0172 15.991L28.9536 26.808C29.4817 27.3303 29.5272 28.1828 29.0754 28.7614L29.0038 28.8461C28.4772 29.4233 27.6008 29.4467 27.0463 28.8983L16.0086 17.9804L4.33891 29.5384C3.81123 30.061 2.99116 30.0652 2.45898 29.5661L2.38138 29.4874C1.85434 28.9106 1.87625 27.9981 2.43032 27.4494L13.9982 15.9923L2.43097 4.55128C1.90296 4.02903 1.85743 3.17652 2.30927 2.59788L2.38077 2.51322C2.90746 1.93599 3.78386 1.91259 4.33827 2.46096L16.0074 14.0029L27.6611 2.4616Z" fill="black"/>
</svg>
