<svg width="32" height="32" viewBox="0 0 32 32" fill="none" xmlns="http://www.w3.org/2000/svg">
<path fill-rule="evenodd" clip-rule="evenodd" d="M19.5218 4.01539C19.9237 4.176 20.1648 4.57754 20.0844 5.05939L13.4129 26.9834C13.2521 27.385 12.8502 27.6259 12.3679 27.5456C11.966 27.385 11.7249 26.9834 11.8053 26.5016L18.4768 4.57754C18.6376 4.176 19.0395 3.93508 19.5218 4.01539ZM21.248 11.529C21.4088 11.1274 21.8911 10.9668 22.293 11.2077L29.6076 15.2231C30.0899 15.5444 30.1702 16.2671 29.6076 16.5884L22.7753 20.6037C22.3734 20.7644 21.8911 20.6841 21.6499 20.2825C21.4892 19.881 21.5695 19.3991 21.9714 19.1582L27.5981 15.9459L21.5695 12.573C21.1676 12.4123 21.0069 11.9305 21.248 11.529ZM9.22475 11.1721C9.62665 11.0115 10.1089 11.0918 10.3501 11.4933C10.5108 11.8949 10.4305 12.3767 10.0286 12.6176L4.40194 15.8299L10.4305 19.2029C10.8324 19.3635 10.9931 19.8453 10.752 20.2469C10.5912 20.6484 10.1089 20.809 9.70703 20.5681L2.39243 16.5527C1.91015 16.2315 1.82977 15.5087 2.39243 15.1875L9.22475 11.1721Z" fill="black"/>
</svg>
