<svg width="32" height="32" viewBox="0 0 32 32" fill="none" xmlns="http://www.w3.org/2000/svg">
<path fill-rule="evenodd" clip-rule="evenodd" d="M18.2281 19.5405L13.6383 7.21422L12.9826 7.47648L15.6053 19.2782L18.2281 19.5405Z" fill="#FF3D2E"/>
<path d="M16 2C23.7318 2 30 8.26782 30 16C30 23.7321 23.7318 30 16 30C8.26819 30 2 23.7321 2 16C2 8.26782 8.26819 2 16 2ZM16 3.51156C9.10182 3.51156 3.51006 9.103 3.51006 16C3.51006 22.897 9.10182 28.4884 16 28.4884C22.8982 28.4884 28.4899 22.897 28.4899 16C28.4899 9.103 22.8982 3.51156 16 3.51156ZM16.6544 16.9179C17.8133 16.9179 18.7527 17.8572 18.7527 19.016C18.7527 20.1747 17.8133 21.1141 16.6544 21.1141C15.4956 21.1141 14.5562 20.1747 14.5562 19.016C14.5562 17.8572 15.4956 16.9179 16.6544 16.9179Z" fill="black"/>
</svg>
