<svg width="32" height="32" viewBox="0 0 32 32" fill="none" xmlns="http://www.w3.org/2000/svg">
<path fill-rule="evenodd" clip-rule="evenodd" d="M3.88497 9C2.84623 9 2 9.83064 2 10.8538V21.9947C2 23.0169 2.84623 23.8485 3.88497 23.8485H20.0436C21.0813 23.8485 21.9246 23.0169 21.9246 21.9947V18.9147L28.0056 22.3412C28.5704 22.6579 29.0961 22.7252 29.4469 22.5241C29.7987 22.3239 30 21.8407 30 21.2006V11.6526C30 11.0116 29.7987 10.5284 29.4469 10.3273C29.0932 10.1252 28.5684 10.1906 28.0036 10.5063L21.9246 13.9309V10.8538C21.9246 9.83064 21.0813 9 20.0436 9H3.88497Z" fill="black"/>
</svg>
