<svg width="32" height="32" viewBox="0 0 32 32" fill="none" xmlns="http://www.w3.org/2000/svg">
<path fill-rule="evenodd" clip-rule="evenodd" d="M6.90201 19.3401H13.4156L14.4095 22.084C14.6772 22.7067 14.8517 23.3797 14.9189 24.1087V24.1358C14.9189 24.4447 14.7845 24.7225 14.5779 24.91C14.2179 25.1577 13.7827 25.3021 13.3133 25.3021C13.2772 25.3021 13.2421 25.3011 13.212 25.3001V25.8287H19.858L19.8564 25.3957C20.3365 25.8029 20.9576 26.0483 21.6361 26.0483C21.6702 26.0483 21.7033 26.0473 21.7314 26.0463H21.7494C22.301 26.0463 22.8245 25.9219 23.36 25.6592C24.1834 25.1618 24.9686 24.6062 25.6736 24.0276C25.6642 24.1167 25.6586 24.2085 25.6586 24.3003C25.6586 24.7797 25.798 25.2259 26.0357 25.593C26.2733 25.8728 26.6284 26.0503 27.0245 26.0503C27.0526 26.0503 27.0797 26.0503 27.1037 26.0483C27.9929 26.0483 28.9584 25.3754 30 24.0295L29.996 23.3496C29.6711 23.6966 29.3181 24.0155 28.9219 24.3163C28.8136 24.3785 28.6882 24.4146 28.5549 24.4146H28.5458H28.5428C28.4105 24.4146 28.2891 24.3645 28.1989 24.2832C28.0745 24.1408 27.9943 23.9573 27.9872 23.8289C27.9331 23.2413 27.905 22.6466 27.905 22.0448C27.905 21.8934 27.907 21.743 27.91 21.6146L27.909 17.4908C27.9201 17.3234 27.9261 17.1529 27.9261 16.9824C27.9261 16.2994 27.8328 15.6395 27.6633 15.0479C27.4337 14.4953 27.0125 14.043 26.502 13.7812C25.7479 13.4152 24.9014 13.2096 24.0069 13.2096C23.9337 13.2096 23.8615 13.2106 23.8133 13.2136C23.715 13.2086 23.6168 13.2056 23.5175 13.2056C22.3903 13.2056 21.3483 13.5746 20.5099 14.1934C19.8309 14.6547 19.3706 15.4139 19.3175 16.2864C19.3155 16.3145 19.3145 16.3426 19.3145 16.3706C19.3145 16.7026 19.4338 17.0064 19.6304 17.2411C19.8199 17.4547 20.0957 17.5891 20.4036 17.5891C20.4146 17.5891 20.4246 17.5881 20.4327 17.5881C20.4437 17.5891 20.4557 17.5891 20.4668 17.5891C20.7756 17.5891 21.0544 17.4597 21.25 17.2542C21.4476 17.0215 21.5669 16.7196 21.5669 16.3907C21.5669 16.3596 21.5659 16.3285 21.5639 16.3024V15.5322C21.5689 15.112 21.7635 14.737 22.0663 14.4893C22.3993 14.2014 22.8325 14.0279 23.3069 14.0279C23.34 14.0279 23.3741 14.0289 23.3961 14.0309C23.4433 14.0279 23.4914 14.0259 23.5395 14.0259C24.1563 14.0259 24.7109 14.2917 25.087 14.6989C25.4721 15.3126 25.6947 16.0387 25.6947 16.8169C25.6947 16.9613 25.6867 17.1037 25.6736 17.2271L25.467 17.7706C23.9166 18.3142 22.4244 18.9841 21.1276 19.7042C20.3825 20.1063 19.7447 20.683 19.2643 21.383C19.0066 21.8162 18.8592 22.3226 18.8592 22.8642C18.8592 22.8933 18.8592 22.9223 18.8602 22.9394C18.8572 22.9915 18.8562 23.0437 18.8562 23.0958C18.8562 23.9182 19.1681 24.6673 19.6775 25.2299C19.6996 25.2523 19.7222 25.2744 19.7451 25.296C19.1663 25.2613 18.6442 25.0229 18.2605 24.6683C17.6898 23.9342 17.2506 23.0938 16.9617 22.1271L11.109 6H10.6768L4.74585 22.0117C4.42894 22.9946 3.95057 23.9052 3.36289 24.6834C2.98381 24.9852 2.51948 25.1838 2 25.24V25.7685H7.27607L7.27908 25.24C7.25802 25.241 7.23596 25.241 7.2149 25.241C6.6533 25.241 6.1308 25.0795 5.69957 24.8067C5.47994 24.6202 5.34054 24.3414 5.34054 24.0295L5.34255 24.0044C5.40072 23.4278 5.55014 22.8782 5.76074 22.4049L6.90201 19.3401ZM10.2195 10.4477L13.0676 18.2831H7.28711L10.2195 10.4477ZM25.6736 18.5228V23.162L25.6746 23.1731C24.9706 23.863 24.054 24.3384 23.005 24.4958C22.4745 24.4878 22.0011 24.2431 21.6862 23.861C21.3252 23.4569 21.1056 22.9234 21.1056 22.3397C21.1056 22.3116 21.1056 22.2835 21.1066 22.2595C21.1076 21.7309 21.2791 21.2436 21.5699 20.8454C21.9691 20.355 22.4695 19.9509 22.9158 19.7212C23.7501 19.298 24.6096 18.9179 25.6736 18.5228Z" fill="black"/>
</svg>
