<svg width="32" height="32" viewBox="0 0 32 32" fill="none" xmlns="http://www.w3.org/2000/svg">
<path d="M26.905 17.0909L21.8162 21.9913C21.7051 22.0983 21.6364 22.246 21.6364 22.4091C21.6364 22.7359 21.9113 23 22.25 23C22.4194 23 22.5728 22.9338 22.6838 22.8269L28.8202 16.9178C28.9313 16.8102 29 16.6631 29 16.5C29 16.3369 28.9313 16.1892 28.8202 16.0822L22.6838 10.1731C22.5728 10.0656 22.4194 10 22.25 10C21.9113 10 21.6364 10.2641 21.6364 10.5909C21.6364 10.754 21.7051 10.9011 21.8162 11.0087L26.905 15.9091L2.61363 15.9091C2.27491 15.9091 2 16.1732 2 16.5C2 16.8268 2.27491 17.0909 2.61363 17.0909L26.905 17.0909Z" fill="black"/>
</svg>
