<svg width="32" height="32" viewBox="0 0 32 32" fill="none" xmlns="http://www.w3.org/2000/svg">
<path fill-rule="evenodd" clip-rule="evenodd" d="M15.6148 12.8726C15.9333 13.3433 15.9258 13.8378 15.5546 14.2776C15.3238 14.5511 15.0467 14.7851 14.7978 15.044C14.216 15.6488 13.8887 16.377 13.7562 17.2012C13.5793 18.3017 13.8324 19.2984 14.4692 20.2031C14.5876 20.3713 14.7162 20.5361 14.8611 20.6814C16.7915 22.6176 18.7198 24.556 20.6624 26.4798C21.3017 27.113 22.0904 27.4661 22.9863 27.5979C24.106 27.7626 25.1074 27.4529 25.9865 26.8006C26.9141 26.1123 27.4525 25.1629 27.5963 23.9993C27.7676 22.6135 27.2866 21.4696 26.3247 20.5024C24.9558 19.126 23.5799 17.7567 22.2077 16.3836C21.6159 15.7915 21.7684 14.7489 22.5396 14.4297C23.0054 14.2369 23.4344 14.2303 23.8881 14.6793C25.3909 16.1666 26.9014 17.6471 28.3687 19.1689C29.2241 20.056 29.6972 21.1663 29.9437 22.3708C29.9641 22.4708 29.9813 22.5715 30 22.6719V24.3125C29.9819 24.3492 29.9507 24.385 29.9477 24.4229C29.8875 25.1925 29.6297 25.907 29.2719 26.5758C28.8856 27.2974 28.38 27.9319 27.7432 28.4668C27.0054 29.0866 26.1903 29.5377 25.2606 29.7814C24.947 29.8636 24.6286 29.9276 24.3125 30H22.6719C22.1953 29.8731 21.7118 29.7673 21.2438 29.6146C20.4144 29.3439 19.6846 28.883 19.0688 28.2748C17.117 26.3473 15.1877 24.397 13.244 22.4613C12.331 21.552 11.734 20.4731 11.4619 19.2164C11.1568 17.807 11.2962 16.4441 11.895 15.1263C12.1907 14.4757 12.5654 13.8851 13.0705 13.3771C13.4345 13.0111 13.7589 12.598 14.2815 12.4355C14.7865 12.2785 15.3325 12.4554 15.6148 12.8726ZM9.32812 2C9.80456 2.12693 10.2878 2.23286 10.7559 2.38538C11.5854 2.65559 12.3148 3.11677 12.9304 3.72457C14.882 5.65138 16.8104 7.60164 18.7541 9.53654C19.6672 10.4456 20.265 11.5239 20.5376 12.7798C20.8432 14.1883 20.6949 15.5468 20.11 16.8706C19.7897 17.5957 19.3434 18.229 18.7997 18.7835C18.4616 19.1284 18.0389 19.3997 17.6262 19.6597C17.1606 19.953 16.5233 19.6818 16.2504 19.3374C15.9019 18.8977 15.8918 18.2454 16.2357 17.8771C16.5281 17.5639 16.8651 17.2926 17.1682 16.9886C17.7749 16.3802 18.1111 15.6363 18.244 14.7919C18.4157 13.7019 18.1758 12.7116 17.5376 11.8164C17.4132 11.6418 17.285 11.4658 17.1344 11.3146C15.2048 9.37844 13.2772 7.44037 11.3345 5.5175C10.6954 4.88498 9.90809 4.52191 9.0099 4.40461C7.79305 4.24563 6.73637 4.5953 5.80816 5.38144C4.98566 6.07805 4.54171 6.96524 4.40084 8.02957C4.25219 9.15285 4.58683 10.1271 5.24707 11.0116C5.39757 11.2133 5.5753 11.3965 5.75353 11.5753C7.09135 12.9177 8.43295 14.2563 9.77224 15.5972C10.2247 16.0503 10.2824 16.5441 10.0665 17.0364C9.73905 17.7833 8.71109 17.9182 8.16706 17.3781C6.64767 15.8694 5.11702 14.3712 3.63067 12.8304C2.77536 11.9438 2.30269 10.8333 2.05633 9.62913C2.03587 9.52916 2.0187 9.42848 2 9.32812V7.6875C2.0181 7.65075 2.04938 7.61504 2.05234 7.57709C2.11255 6.80747 2.37029 6.09292 2.72816 5.4242C3.11437 4.7026 3.62001 4.06812 4.25679 3.53322C4.99458 2.91344 5.8097 2.46227 6.73938 2.21859C7.05296 2.13639 7.37135 2.07235 7.6875 2H9.32812Z" fill="black"/>
</svg>
