<svg width="32" height="32" viewBox="0 0 32 32" fill="none" xmlns="http://www.w3.org/2000/svg">
<path d="M4.54545 21.2466C5.95127 21.2466 7.09091 22.3843 7.09091 23.7877C7.09091 25.1911 5.95127 26.3288 4.54545 26.3288C3.13964 26.3288 2 25.1911 2 23.7877C2 22.3843 3.13964 21.2466 4.54545 21.2466ZM30 22.5171V25.0582H12.1818V22.5171H30ZM4.54545 13.6233C5.95127 13.6233 7.09091 14.761 7.09091 16.1644C7.09091 17.5678 5.95127 18.7055 4.54545 18.7055C3.13964 18.7055 2 17.5678 2 16.1644C2 14.761 3.13964 13.6233 4.54545 13.6233ZM30 14.8938V17.4349H12.1818V14.8938H30ZM4.54545 6C5.95127 6 7.09091 7.13769 7.09091 8.5411C7.09091 9.9445 5.95127 11.0822 4.54545 11.0822C3.13964 11.0822 2 9.9445 2 8.5411C2 7.13769 3.13964 6 4.54545 6ZM30 7.27055V9.81164H12.1818V7.27055H30Z" fill="black"/>
</svg>
