<svg width="32" height="32" viewBox="0 0 32 32" fill="none" xmlns="http://www.w3.org/2000/svg">
<path fill-rule="evenodd" clip-rule="evenodd" d="M27.1143 19.1258V20.5758L21.3553 20.5757L30 28.9863L28.9472 30L20.4281 21.711L20.4285 27.1596H18.956V19.1258H27.1143ZM13.2157 18.6743V26.7081H11.7432L11.743 21.1108L3.33826 29.8893L2.28546 28.8756L10.6644 20.1241L5.05744 20.1243V18.6743H13.2157ZM28.8334 2.17038L29.8862 3.18408L21.4605 11.4839L27.1143 11.4839V12.9338H18.956V4.90007H20.4285L20.4281 10.4499L28.8334 2.17038ZM3.0528 2L11.743 10.5573L11.7432 4.90007H13.2157V12.9338H5.05744V11.4839L10.6017 11.4839L2 3.0137L3.0528 2Z" fill="black"/>
</svg>
