<svg width="32" height="32" viewBox="0 0 32 32" fill="none" xmlns="http://www.w3.org/2000/svg">
<path fill-rule="evenodd" clip-rule="evenodd" d="M3.69507 5.79068L3.71178 5.80664L6.864 8.97091L24.0519 8.97122V23.1469L20.9852 23.1467L24.0575 26.2309C24.2494 26.4235 24.258 26.7344 24.077 26.9375C23.9071 27.1282 23.6164 27.1436 23.4277 26.972C23.422 26.9669 23.4165 26.9616 23.4112 26.9563L19.616 23.1467H13.4776V27.5475L20.296 27.5478V28.4545H5.75618V27.5478L12.5744 27.5475V23.1467L2 23.1469V8.97122L5.4944 8.97091L3.06545 6.53285C2.87338 6.34004 2.86472 6.02897 3.04575 5.82556C3.21552 5.63482 3.50623 5.6192 3.69507 5.79068ZM6.3976 9.87758L2.90323 9.87794V22.2402L18.7128 22.24L14.3348 17.8453L11.2826 19.7608C10.9818 19.9495 10.5916 19.7324 10.5916 19.3764L10.5916 14.0877L6.3976 9.87758ZM23.1486 9.87794L7.7672 9.87758L10.5928 12.7143L10.5938 12.696C10.6254 12.3675 10.9949 12.1767 11.2826 12.3572L16.5701 15.6744C16.8531 15.8519 16.8532 16.2657 16.5701 16.4433L15.1776 17.3168L20.082 22.24L23.1486 22.2402V9.87794ZM11.4948 14.9943L11.4949 18.5584L13.6792 17.1875L11.4948 14.9943ZM30 3V17.1757H26.244V16.269H29.0968V3.90672H8.85137V6.77052H7.94814V3H30ZM11.4949 13.5596L11.4948 13.6198L14.522 16.6586L15.4787 16.0588L11.4949 13.5596Z" fill="black"/>
</svg>