<svg width="32" height="32" viewBox="0 0 32 32" fill="none" xmlns="http://www.w3.org/2000/svg">
<path fill-rule="evenodd" clip-rule="evenodd" d="M2.85412 5.1344C2.85674 5.13682 2.85933 5.13927 2.8619 5.14175L5.7074 7.88907L19.9638 7.88938C21.4487 7.88938 22.6555 9.05628 22.6555 10.49V11.5994L26.7183 9.35573C27.5572 8.89669 28.3703 8.84264 29.0092 9.20129C29.6481 9.56079 30 10.2712 30 11.2022V19.7137C30 20.6446 29.6481 21.3551 29.0092 21.7128C28.3703 22.0732 27.5563 22.0149 26.7174 21.5541L22.6555 19.3113V20.4215C22.6555 21.4564 22.0267 22.3519 21.1185 22.77L24.9273 26.4461C25.1334 26.6451 25.1425 26.9724 24.9478 27.1826C24.7582 27.3873 24.4386 27.3995 24.2339 27.2099C24.2314 27.2075 24.2289 27.2051 24.2264 27.2027L19.8936 23.021L5.26947 23.0213C3.78279 23.0213 2.57337 21.8553 2.57337 20.4215V10.49C2.57337 9.35848 3.32669 8.39314 4.37509 8.03648L2.16098 5.89921C1.95469 5.70005 1.94547 5.37252 2.14022 5.16207C2.32971 4.95729 2.64934 4.9449 2.85412 5.1344ZM5.20615 8.83887L5.26947 8.83749C4.32486 8.83749 3.5553 9.57795 3.5553 10.49V20.4215C3.5553 21.3327 4.32486 22.0741 5.26947 22.0741L18.9127 22.0739L5.20615 8.83887ZM19.9638 8.83749L6.68827 8.83616L20.3532 22.0309C21.1098 21.8603 21.6744 21.2034 21.6744 20.4215V17.6759L27.2044 20.7304C27.718 21.0127 28.1961 21.0728 28.5151 20.8934C28.835 20.715 29.0181 20.2843 29.0181 19.7137V11.2022C29.0181 10.6307 28.835 10.2 28.5151 10.0207C28.1934 9.84051 27.7162 9.89885 27.2026 10.1803L21.6744 13.2331V10.49C21.6744 9.57795 20.9076 8.83749 19.9638 8.83749Z" fill="black"/>
</svg>
0.827 15.732 20.827C17.5439 20.827 19.0614 19.3756 19.0614 17.6435L19.0602 17.1134L12.4012 10.7605ZM15.732 2.93646C13.92 2.93646 12.4016 4.38869 12.4016 6.12168L12.4012 9.43662L19.0602 15.7924L19.0614 6.12168C19.0614 4.38869 17.5439 2.93646 15.732 2.93646Z" fill="black"/>
</svg>
