<svg width="32" height="32" viewBox="0 0 32 32" fill="none" xmlns="http://www.w3.org/2000/svg">
<path fill-rule="evenodd" clip-rule="evenodd" d="M15.732 2C18.131 2 20.0415 3.82628 20.0415 6.12168L20.0414 16.7282L21.6698 18.2827C21.7117 18.0096 21.7334 17.7306 21.7334 17.4471V13.2539C21.7334 12.9833 21.9528 12.7639 22.2235 12.7639C22.4941 12.7639 22.7135 12.9833 22.7135 13.2539V17.4471C22.7135 18.0081 22.6403 18.554 22.5026 19.0765L27.8755 24.2048C28.0585 24.3794 28.0653 24.6694 27.8906 24.8524C27.886 24.8572 27.8813 24.862 27.8765 24.8666C27.6835 25.0519 27.3788 25.0524 27.1852 24.8677L22.1542 20.0645C21.1381 22.3423 18.8433 23.9941 16.153 24.1751L16.1517 29.0635H19.5733C19.7949 29.0635 19.9806 29.2176 20.0291 29.4244L20.0415 29.5318C20.0415 29.7904 19.8319 30 19.5733 30H11.7845C11.5259 30 11.3162 29.7904 11.3162 29.5318C11.3162 29.2732 11.5259 29.0635 11.7845 29.0635H15.1734L15.1735 24.1754C11.5283 23.9327 8.60879 20.9898 8.60879 17.4471V13.2535C8.60879 12.9831 8.82798 12.7639 9.09836 12.7639C9.36875 12.7639 9.58794 12.9831 9.58794 13.2535V17.4471C9.58794 20.6314 12.3312 23.2542 15.6607 23.2542C18.2982 23.2542 20.5668 21.6093 21.3967 19.3432L20.0231 18.0313C19.8219 20.1396 17.9942 21.7634 15.732 21.7634C13.3319 21.7634 11.4224 19.9372 11.4224 17.6435L11.4215 9.82617L6.14184 4.78767C5.95881 4.61302 5.95202 4.32305 6.12667 4.14002L6.14124 4.12542C6.33484 3.94001 6.64005 3.93974 6.83398 4.12481L11.4215 8.50228L11.4224 6.12168C11.4224 3.82628 13.3319 2 15.732 2ZM12.4012 10.7605L12.4016 17.6435C12.4016 19.3756 13.92 20.827 15.732 20.827C17.5439 20.827 19.0614 19.3756 19.0614 17.6435L19.0602 17.1134L12.4012 10.7605ZM15.732 2.93646C13.92 2.93646 12.4016 4.38869 12.4016 6.12168L12.4012 9.43662L19.0602 15.7924L19.0614 6.12168C19.0614 4.38869 17.5439 2.93646 15.732 2.93646Z" fill="black"/>
</svg>
