<svg width="32" height="32" viewBox="0 0 32 32" fill="none" xmlns="http://www.w3.org/2000/svg">
<path fill-rule="evenodd" clip-rule="evenodd" d="M22.6147 12.7639C22.8853 12.7639 23.1047 12.9833 23.1047 13.2539V17.4471C23.1047 20.9879 20.1875 23.9296 16.5449 24.175L16.5435 29.0635H19.9645C20.1861 29.0635 20.3718 29.2176 20.4203 29.4244L20.4327 29.5318C20.4327 29.7904 20.2231 30 19.9645 30H12.1757C11.9171 30 11.7075 29.7904 11.7075 29.5318C11.7075 29.2732 11.9171 29.0635 12.1757 29.0635H15.5638L15.564 24.1754C11.9191 23.9324 9 20.9896 9 17.4471V13.2535C9 12.9831 9.21919 12.7639 9.48957 12.7639C9.75995 12.7639 9.97914 12.9831 9.97914 13.2535V17.4471C9.97914 20.6314 12.7224 23.2542 16.0519 23.2542C19.3823 23.2542 22.1246 20.6314 22.1246 17.4471V13.2539C22.1246 12.9833 22.344 12.7639 22.6147 12.7639ZM16.1232 2C18.5223 2 20.4327 3.82628 20.4327 6.12168V17.6435C20.4327 19.9372 18.5223 21.7634 16.1232 21.7634C13.7231 21.7634 11.8136 19.9372 11.8136 17.6435V6.12168C11.8136 3.82628 13.7231 2 16.1232 2ZM16.1232 2.93646C14.3112 2.93646 12.7928 4.38869 12.7928 6.12168V17.6435C12.7928 19.3756 14.3112 20.827 16.1232 20.827C17.9351 20.827 19.4526 19.3756 19.4526 17.6435V6.12168C19.4526 4.38869 17.9351 2.93646 16.1232 2.93646Z" fill="black"/>
</svg>
