<svg width="32" height="32" viewBox="0 0 32 32" fill="none" xmlns="http://www.w3.org/2000/svg">
<path fill-rule="evenodd" clip-rule="evenodd" d="M13.4778 22.8242L13.4772 27.4635L20.296 27.4643V28.331H5.75618V27.4643L12.5738 27.4635L12.5745 22.8242H13.4778ZM30 4V17.55H26.244V16.6833H29.0968V4.8667H8.85137V7.6041H7.94814V4H30ZM11.4949 18.8717L15.4786 16.4825L11.4949 14.0935V18.8717ZM10.5916 13.3117C10.5916 12.9713 10.9818 12.7638 11.2826 12.9442L16.5701 16.1149C16.8531 16.2847 16.8532 16.6802 16.5701 16.8499L11.2826 20.021C10.9818 20.2014 10.5916 19.9939 10.5916 19.6535V13.3117ZM2 23.2577V9.70766H24.0519V23.2577H2ZM2.90323 22.391H23.1486V10.5744H2.90323V22.391Z" fill="black"/>
</svg>
519 23.2542C19.3823 23.2542 22.1246 20.6314 22.1246 17.4471V13.2539C22.1246 12.9833 22.344 12.7639 22.6147 12.7639ZM16.1232 2C18.5223 2 20.4327 3.82628 20.4327 6.12168V17.6435C20.4327 19.9372 18.5223 21.7634 16.1232 21.7634C13.7231 21.7634 11.8136 19.9372 11.8136 17.6435V6.12168C11.8136 3.82628 13.7231 2 16.1232 2ZM16.1232 2.93646C14.3112 2.93646 12.7928 4.38869 12.7928 6.12168V17.6435C12.7928 19.3756 14.3112 20.827 16.1232 20.827C17.9351 20.827 19.4526 19.3756 19.4526 17.6435V6.12168C19.4526 4.38869 17.9351 2.93646 16.1232 2.93646Z" fill="black"/>
</svg>
