<svg width="32" height="32" viewBox="0 0 32 32" fill="none" xmlns="http://www.w3.org/2000/svg">
<path fill-rule="evenodd" clip-rule="evenodd" d="M29.5625 2.875C29.8041 2.875 30 2.67912 30 2.4375C30 2.19588 29.8041 2 29.5625 2H2.4375C2.19588 2 2 2.19588 2 2.4375C2 2.67912 2.19588 2.875 2.4375 2.875H15.5625V3.75H4.1875C2.97938 3.75 2 4.72938 2 5.9375V18.1875C2 19.3956 2.97938 20.375 4.1875 20.375H15.5625V21.25H2.4375C2.19588 21.25 2 21.4459 2 21.6875C2 21.9291 2.19588 22.125 2.4375 22.125H15.5625V27.0928L11.0059 29.1644C10.8186 29.2497 10.7161 29.4542 10.7598 29.6554C10.8035 29.8566 10.9816 30 11.1875 30C11.2501 30 11.3121 29.9866 11.3691 29.9606L16 27.8563L20.6309 29.9606C20.6879 29.9866 20.7499 30 20.8125 30C21.0184 30 21.1965 29.8566 21.2402 29.6554C21.2839 29.4542 21.1814 29.2497 20.9941 29.1644L16.4375 27.0928V22.125H29.5625C29.8041 22.125 30 21.9291 30 21.6875C30 21.4459 29.8041 21.25 29.5625 21.25H16.4375V20.375H27.8125C29.0206 20.375 30 19.3956 30 18.1875V5.9375C30 4.72938 29.0206 3.75 27.8125 3.75H16.4375V2.875H29.5625ZM29.125 5.9375V18.1875C29.125 18.9124 28.5374 19.5 27.8125 19.5H4.1875C3.46263 19.5 2.875 18.9124 2.875 18.1875V5.9375C2.875 5.21263 3.46263 4.625 4.1875 4.625H27.8125C28.5374 4.625 29.125 5.21263 29.125 5.9375ZM15.8285 6.86213C15.8774 6.86077 16.0739 6.86077 16.1229 6.86213C17.8997 6.88391 19.6018 7.29932 21.184 8.09994C22.734 8.88424 24.1181 10.0328 25.1866 11.4214C25.5983 11.9563 25.5983 12.7034 25.1866 13.2384C24.1181 14.627 22.734 15.7755 21.184 16.5598C19.6018 17.3604 17.8997 17.7758 16.1229 17.7976C16.0739 17.799 15.8774 17.799 15.8285 17.7976C14.0516 17.7758 12.3495 17.3604 10.7673 16.5598C9.21736 15.7755 7.8333 14.6269 6.76476 13.2384C6.35311 12.7034 6.35311 11.9563 6.76476 11.4214C7.83334 10.0328 9.21736 8.88424 10.7673 8.09994C12.3495 7.29932 14.0517 6.88395 15.8285 6.86213ZM15.9757 7.645C13.4269 7.645 11.3533 9.74655 11.3533 12.3298C11.3533 14.9131 13.4269 17.0147 15.9757 17.0147C18.5245 17.0147 20.5981 14.9131 20.5981 12.3298C20.5981 9.74659 18.5245 7.645 15.9757 7.645ZM12.3717 8.26219C11.9441 8.41445 11.5244 8.5943 11.1133 8.80226C9.66602 9.53463 8.3735 10.6072 7.3755 11.9042C7.18262 12.1548 7.18262 12.5049 7.3755 12.7556C8.37354 14.0525 9.66605 15.1251 11.1133 15.8575C11.5244 16.0655 11.9443 16.2454 12.3718 16.3977C11.2718 15.3956 10.5788 13.9433 10.5788 12.3298C10.5788 10.7165 11.2718 9.26425 12.3717 8.26219ZM19.5794 8.26173C20.6795 9.2638 21.3726 10.7162 21.3726 12.3298C21.3726 13.9425 20.6802 15.3943 19.581 16.3963C20.008 16.2442 20.4275 16.0652 20.8381 15.8574C22.2854 15.1251 23.5779 14.0524 24.5759 12.7555C24.7688 12.5049 24.7688 12.1548 24.576 11.9041C23.5779 10.6072 22.2854 9.53455 20.8381 8.80219C20.427 8.59411 20.007 8.41403 19.5794 8.26173ZM15.9757 10.2791C17.1006 10.2791 18.0156 11.199 18.0156 12.3299C18.0156 13.4607 17.1005 14.3806 15.9757 14.3806C14.8509 14.3806 13.9358 13.4607 13.9358 12.3299C13.9358 11.199 14.8509 10.2791 15.9757 10.2791ZM15.9757 11.082C15.2912 11.082 14.7344 11.6418 14.7344 12.3299C14.7344 13.018 15.2913 13.5777 15.9757 13.5777C16.6601 13.5777 17.2169 13.018 17.2169 12.3299C17.2169 11.6418 16.6601 11.082 15.9757 11.082Z" fill="black"/>
</svg>
