<svg width="32" height="32" viewBox="0 0 32 32" fill="none" xmlns="http://www.w3.org/2000/svg">
<path fill-rule="evenodd" clip-rule="evenodd" d="M25.6285 24.4852L29.6997 24.0938L30 26.7824L21.002 27.6478L20.0925 18.662L22.8062 18.4055L23.2542 23.0534L24.2589 21.7018L24.2406 21.7286C25.3893 20.1643 26.068 18.2354 26.068 16.1496C26.068 11.0897 22.0786 6.95841 17.0395 6.70195L17.175 4L17.203 4.00122C23.6717 4.31116 28.8208 9.63118 28.8208 16.1484C28.8208 18.8297 27.9492 21.3068 26.4977 23.2831L25.6285 24.4852ZM5.94297 16.0901C5.94297 16.6407 5.98936 17.1803 6.07237 17.6483H6.06993L6.07725 17.703C6.7804 22.0215 10.4206 25.3603 14.9178 25.6204L14.7823 28.3224L14.7542 28.3212C8.28556 28.0112 3.1365 22.6912 3.1365 16.1739C3.1365 13.4927 4.00811 11.0156 5.45956 9.03926L6.32873 7.83718L2.25758 8.22855L2 5.5266L10.998 4.6612L11.8672 13.647L9.15351 13.9035L8.7055 9.25561L7.70083 10.6072L7.72036 10.5792C6.60217 12.1314 5.94297 14.0335 5.94297 16.0901Z" fill="black"/>
</svg>
