<svg width="32" height="32" viewBox="0 0 32 32" fill="none" xmlns="http://www.w3.org/2000/svg">
<path fill-rule="evenodd" clip-rule="evenodd" d="M25.575 15.1644C25.5821 15.1344 25.5894 15.1042 25.5965 15.0742L4.15006 4.35109C4.20436 4.56819 4.22284 4.6676 4.25402 4.76289C5.33161 8.05805 6.4188 11.3502 7.47853 14.6512C7.61058 15.0625 7.78236 15.1991 8.22029 15.1979C13.8432 15.1816 19.4662 15.1872 25.0892 15.1861C25.2512 15.1861 25.413 15.172 25.575 15.1644ZM4.09049 27.6568C11.3463 24.0288 18.4749 20.4642 25.7046 16.8491C25.5199 16.8119 25.4709 16.7934 25.422 16.7934C19.5735 16.7923 13.725 16.7958 7.87662 16.7845C7.53346 16.7838 7.4457 16.9464 7.36157 17.2187C6.73254 19.2527 6.09288 21.2834 5.4555 23.3147C5.01498 24.7191 4.57282 26.1228 4.09049 27.6568ZM2.04639 28.8934C2.50146 27.3986 2.97501 25.9094 3.4433 24.4187C4.31297 21.6501 5.19111 18.8842 6.04271 16.11C6.12014 15.8576 6.09216 15.5341 6.00926 15.2771C4.71797 11.2734 3.40551 7.27648 2.11422 3.27284C2.0305 3.01331 1.9989 2.68441 2.08294 2.4348C2.23841 1.97294 2.74407 1.87724 3.30434 2.15628C5.93369 3.46598 8.56057 4.78054 11.1881 6.09406C17.1805 9.08975 23.1727 12.086 29.1649 15.0821C29.2878 15.1435 29.4134 15.2006 29.5317 15.2699C30.1535 15.6347 30.1611 16.3601 29.5246 16.706C28.8155 17.0913 28.0849 17.437 27.3628 17.798C19.3874 21.7842 11.4119 25.7703 3.43545 29.7544C3.22299 29.8605 2.99886 29.9434 2.86672 30C2.21684 29.9896 1.8681 29.4793 2.04639 28.8934Z" fill="black"/>
</svg>
