<svg width="32" height="32" viewBox="0 0 32 32" fill="none" xmlns="http://www.w3.org/2000/svg">
<g clip-path="url(#clip0)">
<path fill-rule="evenodd" clip-rule="evenodd" d="M10.7533 22.8251L6.52726 27.0511L5.51672 26.0406L9.74279 21.8145L10.7533 22.8251ZM12.5523 24.6241L9.4179 27.7585L8.40737 26.748L11.5418 23.6135L12.5523 24.6241ZM8.95432 21.026L5.81988 24.1605L4.80934 23.1499L7.94378 20.0155L8.95432 21.026ZM16.7952 29.0886L15.964 29.6439L14.6999 25.2083C15.9692 25.0046 17.2214 24.5899 18.4502 23.9677C19.4409 23.4661 20.4165 22.8297 21.3735 22.0602C20.8863 26.3029 16.9845 28.962 16.7952 29.0886ZM10.3471 11.2144C8.63919 13.435 7.53088 15.7819 7.21897 17.9099L7.23128 17.831L2.92401 16.6039L3.4793 15.7727C3.60401 15.5863 6.18447 11.7999 10.3146 11.2188L10.3471 11.2144ZM21.7351 19.9279C21.3817 20.2812 21.0248 20.6114 20.6645 20.9181C19.7706 21.6793 18.856 22.2967 17.9251 22.7681C16.8816 23.2964 15.8175 23.6412 14.7386 23.7993L14.3831 23.8516L8.71654 18.185L8.76858 17.8293C9.10964 15.5025 10.6186 12.8546 12.9085 10.5647C15.2115 8.26172 17.7179 6.88427 19.9721 6.06356C20.0146 6.1273 20.0647 6.18815 20.1217 6.2452L26.3227 12.4462C26.3994 12.5229 26.4829 12.5868 26.5697 12.6377C25.7099 14.8811 24.2364 17.4266 21.7351 19.9279ZM21.8618 10.7061C20.4688 9.3131 18.1322 9.38308 16.6538 10.8615C15.1748 12.3404 15.1051 14.6768 16.4981 16.0698C17.8912 17.4628 20.2275 17.3931 21.7065 15.9142C23.1849 14.4358 23.2548 12.0992 21.8618 10.7061ZM20.7891 11.7788C21.6251 12.6148 21.5832 14.0164 20.6959 14.9036C19.8084 15.7912 18.4068 15.8331 17.5708 14.9971C16.7349 14.1612 16.7768 12.7595 17.6643 11.872C18.5516 10.9848 19.9532 10.9428 20.7891 11.7788ZM27.5942 4.93201L27.6707 5.4825C27.6945 5.64996 27.9846 7.91575 27.0919 11.0696L21.5775 5.55497C24.5962 4.7369 26.8654 4.87951 27.0378 4.89209L27.5942 4.93201Z" fill="black"/>
</g>
<defs>
<clipPath id="clip0">
</clipPath>
</defs>
</svg>
