<svg width="32" height="32" viewBox="0 0 32 32" fill="none" xmlns="http://www.w3.org/2000/svg">
<path fill-rule="evenodd" clip-rule="evenodd" d="M10.4739 22.7215L6.69823 26.4972L5.99029 25.7893L9.76597 22.0136L10.4739 22.7215ZM8.78503 20.9063L5.7173 23.974L5.00936 23.2661L8.0771 20.1984L8.78503 20.9063ZM12.456 24.2436L9.38828 27.3113L8.68034 26.6033L11.7481 23.5356L12.456 24.2436ZM10.0524 11.9551C8.46035 14.0179 7.43109 16.2043 7.14932 18.1885L7.16748 18.0694L3.25705 17.0154L3.7816 16.2408C3.89804 16.0691 6.27954 12.6189 10.0194 11.9607L10.0524 11.9551ZM16.2467 28.3722L15.4721 28.8967L14.4034 24.9328C15.4784 24.735 16.5389 24.373 17.5804 23.8493C18.6358 23.3186 19.6717 22.6219 20.6835 21.7617L20.57 21.8571C20.0397 25.7562 16.4227 28.2529 16.2467 28.3722ZM20.8111 20.0048C20.4893 20.3266 20.1639 20.627 19.8352 20.9057C19.0195 21.5974 18.1832 22.1562 17.33 22.5801C16.3737 23.0552 15.3962 23.3608 14.4029 23.494L14.0756 23.5381L8.78258 18.245L8.82642 17.9176C9.11382 15.7754 10.4748 13.3506 12.5602 11.2652C14.6759 9.14945 16.9936 7.90489 19.0773 7.17681L24.8396 12.9396C24.9598 13.0598 25.0966 13.1481 25.235 13.2023C24.476 15.2945 23.1387 17.6772 20.8111 20.0048ZM20.6037 11.5501C19.3675 10.314 17.3031 10.3671 16.0022 11.668C14.7008 12.9693 14.6479 15.0336 15.8841 16.2697C17.1202 17.5058 19.1845 17.4529 20.4858 16.1516C21.7867 14.8507 21.8398 12.7863 20.6037 11.5501ZM19.6598 12.494C20.4016 13.2358 20.3698 14.4742 19.5891 15.2549C18.8081 16.0358 17.5698 16.0677 16.8279 15.3258C16.0861 14.584 16.118 13.3457 16.8989 12.5647C17.6796 11.784 18.918 11.7522 19.6598 12.494ZM26.0402 6.24124L26.1173 6.7499C26.1411 6.90414 26.4333 8.98431 25.6563 11.8682L20.5264 6.73815C23.2871 6.02733 25.3679 6.18435 25.5266 6.19792L26.0402 6.24124Z" fill="black"/>
</svg>
