<svg width="32" height="32" viewBox="0 0 32 32" fill="none" xmlns="http://www.w3.org/2000/svg">
<g clip-path="url(#clip0)">
<path fill-rule="evenodd" clip-rule="evenodd" d="M10.7534 22.825L6.52729 27.0511L5.51675 26.0405L9.74281 21.8145L10.7534 22.825ZM12.5524 24.624L9.41793 27.7584L8.40739 26.7479L11.5418 23.6135L12.5524 24.624ZM8.95434 21.026L5.81991 24.1604L4.80937 23.1499L7.94381 20.0155L8.95434 21.026ZM27.5941 4.93199L27.6707 5.48248C27.7139 5.78691 28.6373 13.0256 21.7351 19.9278C21.6138 20.0491 21.4921 20.1676 21.37 20.2834C21.9916 25.5495 17.0097 28.9451 16.7952 29.0886L15.9641 29.6439L14.2861 23.7545L8.81305 18.2814L2.92404 16.6039L3.47933 15.7727C3.62299 15.558 7.02554 10.5658 12.3018 11.1999C12.4972 10.9855 12.6996 10.7736 12.9085 10.5647C19.0816 4.39161 26.7157 4.86858 27.0378 4.89208L27.5941 4.93199ZM19.9417 21.4986L19.8054 21.6007C18.504 22.5617 17.1628 23.2251 15.7941 23.5838L16.8331 27.2322C17.9455 26.2435 19.8282 24.185 19.9417 21.4986ZM11.1277 12.624L11.1009 12.6249C8.3995 12.7249 6.32872 14.6176 5.33569 15.7348L8.99553 16.7772C9.37735 15.4223 10.1111 13.9975 11.1277 12.624ZM25.4131 11.5361L21.1049 7.22796C18.8526 7.94515 16.253 9.24132 13.9191 11.5753C12.0132 13.4811 10.6775 15.7091 10.2877 17.6107L14.9594 22.2824C16.9307 21.9042 18.8687 20.7732 20.7245 18.9173C23.277 16.3648 24.6657 13.7526 25.4131 11.5361ZM21.8618 10.7061C23.2548 12.0991 23.1849 14.4357 21.7065 15.9141C20.2275 17.3931 17.8912 17.4628 16.4981 16.0698C15.1051 14.6767 15.1748 12.3404 16.6538 10.8615C18.1322 9.38305 20.4688 9.31307 21.8618 10.7061ZM20.7891 11.7788C19.9532 10.9428 18.5516 10.9848 17.6643 11.872C16.7768 12.7595 16.7349 14.1611 17.5708 14.9971C18.4068 15.8331 19.8084 15.7911 20.6959 14.9036C21.5832 14.0164 21.6251 12.6147 20.7891 11.7788ZM26.2501 6.35382C25.5612 6.36467 24.323 6.43962 22.7968 6.77434L25.8831 9.86061C26.237 8.28524 26.2707 7.03912 26.2501 6.35382Z" fill="black"/>
</g>
<defs>
<clipPath id="clip0">
<path d="M0 0H32V32H0V0Z" fill="white"/>
</clipPath>
</defs>
</svg>
