<svg width="32" height="32" viewBox="0 0 32 32" fill="none" xmlns="http://www.w3.org/2000/svg">
<g clip-path="url(#clip0)">
<path d="M10.9875 9.38531C9.2254 11.7826 7.99326 14.0629 7.52148 15.0697C7.39039 15.3495 7.10549 15.524 6.79668 15.5144L6.02 15.4902C4.15355 15.433 3.29975 13.1255 4.68402 11.8674L7.54906 9.26221C8.32863 8.55373 9.32734 8.17073 10.3478 8.15399C10.9881 8.14349 11.3668 8.86931 10.9875 9.38531ZM22.8459 20.6528C22.8565 20.0104 22.1285 19.6349 21.611 20.0155C19.1806 21.8033 16.9192 23.0127 15.9318 23.4764C15.6517 23.6079 15.4759 23.8927 15.4855 24.202L15.5098 24.98C15.5671 26.8491 17.8766 27.6984 19.1326 26.316L21.7378 23.4509C22.4461 22.6715 22.8291 21.673 22.8459 20.6528ZM6.28377 21.1068L7.28631 20.1043C7.58868 19.802 7.58868 19.3117 7.28631 19.0094C6.98398 18.7071 6.49377 18.7071 6.19144 19.0094L5.18889 20.012C4.6996 20.5012 5.05297 21.3336 5.7363 21.3336C5.9345 21.3336 6.1326 21.258 6.28377 21.1068ZM11.0265 25.8496L12.029 24.8471C12.3314 24.5447 12.3314 24.0545 12.029 23.7522C11.7267 23.4498 11.2365 23.4499 10.9342 23.7522L9.93166 24.7547C9.44237 25.244 9.79579 26.0763 10.4791 26.0763C10.6772 26.0763 10.8754 26.0008 11.0265 25.8496ZM6.93381 25.161L10.3379 21.7569C10.6403 21.4546 10.6403 20.9643 10.3379 20.662C10.0356 20.3597 9.54543 20.3597 9.24306 20.662L5.83893 24.0662C5.34964 24.5554 5.70301 25.3878 6.38634 25.3878C6.58449 25.3878 6.78264 25.3122 6.93381 25.161ZM23.0964 17.6328C21.9788 18.5907 20.828 19.45 19.6255 20.2329C19.353 20.4103 18.9931 20.3714 18.7632 20.1415L10.8584 12.2368C10.6285 12.0069 10.5896 11.647 10.767 11.3745C11.6258 10.0553 12.4811 8.93773 13.4339 7.82612C16.6572 4.09238 21.6258 2.34187 26.4879 3.22591L27.0492 3.32751C27.3662 3.38509 27.6149 3.63381 27.6725 3.95075L27.7741 4.51205C28.6243 9.18276 27.0771 14.1988 23.0964 17.6328ZM22.4069 8.59302C21.1058 7.29187 18.9888 7.29187 17.6877 8.59302C16.386 9.89417 16.386 12.0116 17.6877 13.3123C18.9878 14.6133 21.1052 14.6139 22.4069 13.3123C23.7081 12.0117 23.7081 9.89417 22.4069 8.59302ZM10.301 13.8692C9.97367 13.5418 9.42088 13.6226 9.20531 14.0322C9.0571 14.3139 8.91746 14.5881 8.77708 14.8743C8.3038 15.8375 8.49571 16.9998 9.25902 17.7625L13.2375 21.741C13.7213 22.2248 14.3659 22.4798 15.0196 22.4798C15.7045 22.4798 16.1089 22.2466 16.9678 21.7947C17.3774 21.5791 17.4582 21.0263 17.1308 20.699L10.301 13.8692Z" fill="black"/>
</g>
<defs>
<clipPath id="clip0">
<path d="M0 0H32V32H0V0Z" fill="white"/>
</clipPath>
</defs>
</svg>
