<svg width="32" height="32" viewBox="0 0 32 32" fill="none" xmlns="http://www.w3.org/2000/svg">
<path d="M28.7726 3.1886C28.2574 3.2306 27.7842 3.3062 27.3264 3.4182C26.8266 3.5064 26.3254 3.7024 25.8788 3.9782C25.4462 4.366 25.1494 4.9274 25.0976 5.5588C24.9828 6.3092 24.9184 7.1646 24.9184 8.0354C24.9184 8.1936 24.9212 8.3518 24.9254 8.5086V18.9064C24.9268 18.9624 24.9282 19.0296 24.9282 19.0968C24.9282 20.2938 24.623 21.4208 24.0854 22.4022C23.5604 23.3416 22.8338 24.1508 21.963 24.7724C21.137 25.3548 20.2004 25.8056 19.1952 26.0912C18.2838 26.3572 17.3108 26.5056 16.3042 26.5182C16.2188 26.5196 16.1264 26.521 16.0326 26.521C14.753 26.521 13.521 26.3222 12.3632 25.954C11.3622 25.6306 10.4186 25.114 9.5996 24.4518C8.9066 23.8792 8.3326 23.1582 7.9252 22.3406C7.5458 21.5566 7.3316 20.6802 7.3246 19.7548V5.5686C7.326 5.5406 7.326 5.5084 7.326 5.4748C7.326 5.1486 7.2532 4.8378 7.1244 4.5606C6.9326 4.261 6.6526 4.016 6.3194 3.8648C5.9764 3.6856 5.5928 3.5498 5.1868 3.4742C4.8816 3.4014 4.5358 3.3398 4.1844 3.3006L4.1452 2.1078L14.1132 2V3.2544C13.675 3.2796 13.2676 3.3328 12.87 3.4154C12.5116 3.477 12.156 3.568 11.8102 3.6814C11.5246 3.771 11.253 4.0146 11.1116 4.3282C10.9856 4.6278 10.9128 4.9666 10.9128 5.3236C10.9128 5.3418 10.9128 5.3586 10.9128 5.3768V18.6068C10.9184 19.3222 10.9968 20.0152 11.141 20.6844C11.2852 21.3662 11.5778 22.0256 11.9838 22.6024C12.4402 23.2226 13.0422 23.735 13.7394 24.0864C14.585 24.4728 15.5398 24.6912 16.545 24.6912C16.6626 24.6912 16.7802 24.6884 16.8978 24.6828C16.9384 24.6856 17.0056 24.6856 17.0728 24.6856C18.1298 24.6856 19.135 24.4616 20.0422 24.0598C20.787 23.714 21.4464 23.1862 21.9546 22.5338C22.3858 21.9822 22.719 21.348 22.9262 20.6606C23.1152 20.0264 23.2174 19.346 23.2174 18.6404C23.2174 18.6292 23.2174 18.6194 23.2174 18.6082V8.7942C23.2188 8.7228 23.2188 8.6402 23.2188 8.5562C23.2188 7.5538 23.1152 6.5752 22.9192 5.6316C22.8604 5.108 22.5762 4.569 22.1576 4.1686C21.6998 3.8648 21.1622 3.6394 20.5854 3.5232C20.1094 3.3972 19.5718 3.2978 19.023 3.2404L18.9782 2.0042H28.7726V3.1886ZM3 30V28.292L29.1618 28.1842V29.8922L3 30Z" fill="black"/>
</svg>
