<svg width="32" height="32" viewBox="0 0 32 32" fill="none" xmlns="http://www.w3.org/2000/svg">
<path d="M27.8348 26.7921C27.8452 26.8434 27.8477 26.8756 27.8479 26.8939C27.8477 26.894 27.8474 26.8942 27.8472 26.8944C27.8244 26.911 27.7828 26.9356 27.7093 26.9678C20.009 30.3445 12.3322 30.3451 4.63373 26.9634C4.5611 26.9315 4.52106 26.907 4.50014 26.8913C4.50008 26.8913 4.50002 26.8912 4.49996 26.8912C4.49983 26.8726 4.50205 26.8382 4.51339 26.7814L4.02304 26.6836L4.51339 26.7813C4.66333 26.0295 4.79197 25.2914 4.91938 24.5603C5.12019 23.4081 5.31794 22.2734 5.59121 21.1302C6.12093 18.914 7.60986 17.4021 10.0639 16.661C12.0415 16.0638 14.0707 15.7994 16.1582 15.9217L16.1878 15.9235L16.2175 15.9217C18.2909 15.7968 20.3211 16.0592 22.2925 16.6658C24.8663 17.4578 26.348 19.0576 26.8205 21.4304C26.9882 22.2731 27.1432 23.1183 27.2989 23.9679L27.3237 24.1034C27.4876 24.9972 27.6531 25.8955 27.8348 26.7921ZM27.8348 26.7921L28.3248 26.6928M27.8348 26.7921C27.8348 26.7921 27.8348 26.7921 27.8348 26.7921L28.3248 26.6928M28.3248 26.6928C28.4047 27.0869 28.279 27.2639 27.9101 27.4257L16.1874 15.4226C18.3236 15.294 20.4138 15.5645 22.4396 16.1879C25.1719 17.0288 26.7992 18.7629 27.3108 21.3328C27.4794 22.1793 27.6349 23.028 27.7905 23.8767C27.9627 24.8164 28.135 25.756 28.3248 26.6928ZM15.7356 12.8623C12.9148 12.8503 10.5921 10.5183 10.587 7.68818C10.5817 4.81034 12.8871 2.49946 15.7603 2.5C18.6322 2.50056 20.9521 4.82034 20.9493 7.68485C20.9465 10.5224 18.5796 12.8743 15.7356 12.8623ZM15.7356 12.8623L15.7334 13.3623L15.7356 12.8623ZM27.8465 26.9138C27.8465 26.9137 27.8466 26.9125 27.8472 26.9105C27.8469 26.9128 27.8466 26.9139 27.8465 26.9138ZM4.5014 26.9092C4.50135 26.9093 4.50112 26.9084 4.50086 26.9066L4.5014 26.9092Z" stroke="black"/>
</svg>
