<svg width="32" height="32" viewBox="0 0 32 32" fill="none" xmlns="http://www.w3.org/2000/svg">
<path fill-rule="evenodd" clip-rule="evenodd" d="M21.2807 2L28.9309 10.0447V30H8.25773L8.25759 20.5034L5.70786 20.5034C4.21235 20.5034 3 19.2932 3 17.795V13.179C3 11.6831 4.21145 10.4705 5.70786 10.4705L8.44925 10.4704V2H21.2807ZM20.3778 3.12743H9.57668V10.4704L18.1213 10.4705C19.6168 10.4705 20.8291 11.6807 20.8291 13.179V17.795C20.8291 19.2908 19.6177 20.5034 18.1213 20.5034L9.38502 20.5034L9.38516 28.8726H27.8035V10.4952L27.7749 10.4651L20.3782 10.4655L20.3778 3.12743ZM18.1213 11.3725H5.70786C4.70998 11.3725 3.90194 12.1809 3.90194 13.179V17.795C3.90194 18.7942 4.70957 19.6015 5.70786 19.6015H18.1213C19.1192 19.6015 19.9272 18.7931 19.9272 17.795V13.179C19.9272 12.1798 19.1196 11.3725 18.1213 11.3725ZM15.8291 13.0885C16.0633 13.0885 16.2869 13.1163 16.4996 13.1718C16.7123 13.2273 16.9348 13.3054 17.167 13.4061L16.8587 14.149C16.6183 14.0504 16.4194 13.9815 16.2622 13.9425C16.105 13.9034 15.9503 13.8839 15.7982 13.8839C15.6174 13.8839 15.4786 13.926 15.382 14.0103C15.2854 14.0946 15.2372 14.2045 15.2372 14.3402C15.2372 14.4244 15.2567 14.4979 15.2957 14.5606C15.3348 14.6233 15.3969 14.6839 15.4822 14.7425C15.5675 14.801 15.7695 14.9064 16.088 15.0585C16.5093 15.2599 16.7981 15.4618 16.9543 15.6642C17.1105 15.8667 17.1886 16.1148 17.1886 16.4087C17.1886 16.8157 17.0421 17.1363 16.7493 17.3706C16.4564 17.6049 16.049 17.722 15.5269 17.722C15.046 17.722 14.6206 17.6316 14.2507 17.4507V16.5629C14.5548 16.6985 14.8122 16.7941 15.0229 16.8496C15.2336 16.9051 15.4262 16.9328 15.6009 16.9328C15.8106 16.9328 15.9714 16.8927 16.0834 16.8126C16.1954 16.7324 16.2514 16.6132 16.2514 16.455C16.2514 16.3666 16.2267 16.288 16.1774 16.2191C16.1281 16.1503 16.0556 16.084 15.9601 16.0203C15.8645 15.9566 15.6698 15.8549 15.3759 15.7151C15.1005 15.5856 14.8939 15.4613 14.7562 15.3421C14.6185 15.2229 14.5086 15.0841 14.4264 14.9259C14.3442 14.7676 14.3031 14.5827 14.3031 14.371C14.3031 13.9723 14.4382 13.6589 14.7085 13.4307C14.9787 13.2026 15.3522 13.0885 15.8291 13.0885ZM7.53218 13.1533L8.50327 14.7748L9.45586 13.1533H10.4855L9.07051 15.3883L10.5934 17.6604H9.50211L8.45395 15.9556L7.40579 17.6604H6.38229L7.87746 15.3359L6.47786 13.1533H7.53218ZM12.0166 13.1533V16.8712H13.8448V17.6604H11.061V13.1533H12.0166ZM21.2798 3.63515L21.2801 9.56352L26.9173 9.56318L21.2798 3.63515Z" fill="black"/>
</svg>
