<svg xmlns="http://www.w3.org/2000/svg" viewBox="0 0 28 28"><g id="Layer_2" data-name="Layer 2"><g id="Layer_1-2" data-name="Layer 1"><path d="M27.25,13.25H14a.76.76,0,0,0-.75.75V27.25A.76.76,0,0,0,14,28H27.25a.76.76,0,0,0,.75-.75V14A.76.76,0,0,0,27.25,13.25ZM19.88,26.5H14.75V14.75h5.13Zm6.62,0H21.38V14.75H26.5Z"/><path d="M18.8,9.61a.75.75,0,0,0,.53.22h.06a.78.78,0,0,0,.54-.3L26.17,1.2A.75.75,0,0,0,25,.3L19.25,7.94l-3-3A.75.75,0,1,0,15.15,6Z"/><path d="M9.92,0H.75A.76.76,0,0,0,0,.75v26.5A.76.76,0,0,0,.75,28H9.92a.75.75,0,0,0,.75-.75V.75A.75.75,0,0,0,9.92,0ZM9.17,26.5H1.5V14.75H9.17Zm0-13.25H1.5V1.5H9.17Z"/></g></g></svg>