<svg width="32" height="32" viewBox="0 0 32 32" fill="none" xmlns="http://www.w3.org/2000/svg">
<path d="M29.25 15.25H16C15.8019 15.2526 15.6126 15.3324 15.4725 15.4725C15.3324 15.6126 15.2526 15.8019 15.25 16V29.25C15.2526 29.4481 15.3324 29.6374 15.4725 29.7775C15.6126 29.9176 15.8019 29.9974 16 30H29.25C29.4481 29.9974 29.6374 29.9176 29.7775 29.7775C29.9176 29.6374 29.9974 29.4481 30 29.25V16C29.9974 15.8019 29.9176 15.6126 29.7775 15.4725C29.6374 15.3324 29.4481 15.2526 29.25 15.25ZM21.88 28.5H16.75V16.75H21.88V28.5ZM28.5 28.5H23.38V16.75H28.5V28.5Z" fill="black"/>
<path d="M20.8 11.61C20.9405 11.7507 21.1312 11.8298 21.33 11.83H21.39C21.4957 11.8194 21.5981 11.7873 21.691 11.7357C21.7838 11.6841 21.8652 11.6141 21.93 11.53L28.17 3.2C28.2507 3.04383 28.274 2.86428 28.2358 2.69269C28.1976 2.5211 28.1003 2.36839 27.961 2.26121C27.8217 2.15403 27.6491 2.09919 27.4735 2.10629C27.2978 2.11338 27.1302 2.18194 27 2.3L21.25 9.94L18.25 6.94C18.1094 6.79413 17.9167 6.71008 17.7141 6.70632C17.5116 6.70257 17.3159 6.77944 17.17 6.92C17.0241 7.06056 16.9401 7.25332 16.9363 7.45586C16.9345 7.55615 16.9524 7.65582 16.989 7.74918C17.0257 7.84254 17.0804 7.92777 17.15 8L20.8 11.61Z" fill="black"/>
<path d="M11.92 2H2.75C2.55189 2.00259 2.36263 2.08244 2.22253 2.22253C2.08244 2.36263 2.00259 2.55189 2 2.75V29.25C2.00259 29.4481 2.08244 29.6374 2.22253 29.7775C2.36263 29.9176 2.55189 29.9974 2.75 30H11.92C12.1189 30 12.3097 29.921 12.4503 29.7803C12.591 29.6397 12.67 29.4489 12.67 29.25V2.75C12.67 2.55109 12.591 2.36032 12.4503 2.21967C12.3097 2.07902 12.1189 2 11.92 2ZM11.17 28.5H3.5V16.75H11.17V28.5ZM11.17 15.25H3.5V3.5H11.17V15.25Z" fill="black"/>
</svg>
