<svg width="32" height="32" viewBox="0 0 32 32" fill="none" xmlns="http://www.w3.org/2000/svg">
<path d="M16.0195 24.1001C16.743 24.1001 17.3295 23.5136 17.3295 22.7901C17.3295 22.0666 16.743 21.4801 16.0195 21.4801C15.296 21.4801 14.7095 22.0666 14.7095 22.7901C14.7095 23.5136 15.296 24.1001 16.0195 24.1001Z" fill="black"/>
<path d="M16.0195 19.2101C16.2184 19.2101 16.4092 19.1311 16.5498 18.9905C16.6905 18.8498 16.7695 18.6591 16.7695 18.4601V10.7001C16.7695 10.5012 16.6905 10.3105 16.5498 10.1698C16.4092 10.0292 16.2184 9.95014 16.0195 9.95014C15.8206 9.95014 15.6298 10.0292 15.4892 10.1698C15.3485 10.3105 15.2695 10.5012 15.2695 10.7001V18.4601C15.2695 18.6591 15.3485 18.8498 15.4892 18.9905C15.6298 19.1311 15.8206 19.2101 16.0195 19.2101Z" fill="black"/>
<path d="M29.6195 23.9301L18.6195 4.54014C18.3612 4.07635 17.9844 3.68943 17.5276 3.41887C17.0708 3.14832 16.5504 3.00382 16.0195 3.00014C15.4802 2.9949 14.9494 3.13517 14.483 3.40618C14.0167 3.6772 13.632 4.06893 13.3695 4.54014L2.41951 23.9301C2.14858 24.3871 2.00384 24.9078 2.00008 25.439C1.99631 25.9702 2.13367 26.4928 2.3981 26.9536C2.66254 27.4143 3.04456 27.7965 3.50514 28.0612C3.96571 28.3259 4.48831 28.4636 5.01951 28.4601H27.0195C27.5541 28.4708 28.0818 28.3384 28.548 28.0766C29.0143 27.8149 29.4021 27.4332 29.6713 26.9713C29.9405 26.5093 30.0814 25.9838 30.0793 25.4491C30.0772 24.9144 29.9323 24.39 29.6595 23.9301H29.6195ZM28.3095 26.2001C28.1835 26.4348 27.9979 26.6323 27.7715 26.7727C27.5451 26.9131 27.2858 26.9915 27.0195 27.0001H5.01951C4.75039 27.0026 4.48545 26.9335 4.25178 26.7999C4.0181 26.6664 3.82407 26.4732 3.68951 26.2401C3.55716 26.0069 3.48758 25.7433 3.48758 25.4751C3.48758 25.207 3.55716 24.9434 3.68951 24.7101L14.6895 5.32014C14.8171 5.07657 15.0079 4.87187 15.2419 4.72757C15.476 4.58327 15.7446 4.50471 16.0195 4.50014C16.2921 4.499 16.56 4.5707 16.7956 4.70783C17.0312 4.84496 17.2259 5.04255 17.3595 5.28014L28.3595 24.6701C28.4873 24.9068 28.55 25.1731 28.5412 25.4419C28.5324 25.7107 28.4525 25.9723 28.3095 26.2001Z" fill="black"/>
</svg>
