<svg xmlns="http://www.w3.org/2000/svg" viewBox="0 0 28 28"><g id="Layer_2" data-name="Layer 2"><g id="Layer_1-2" data-name="Layer 1"><path d="M24.19,0H10.24a2.78,2.78,0,0,0-2,.82L.82,8.26a2.78,2.78,0,0,0-.82,2v14A3.82,3.82,0,0,0,3.81,28H24.19A3.82,3.82,0,0,0,28,24.19V3.81A3.82,3.82,0,0,0,24.19,0ZM1.88,9.33,9.33,1.88a1.09,1.09,0,0,1,.33-.23V8.37A1.29,1.29,0,0,1,8.37,9.66H1.65A1.09,1.09,0,0,1,1.88,9.33ZM26.5,24.19a2.32,2.32,0,0,1-2.31,2.31H3.81A2.32,2.32,0,0,1,1.5,24.19v-13H8.37a2.79,2.79,0,0,0,2.79-2.79V1.5h13A2.32,2.32,0,0,1,26.5,3.81Z"/></g></g></svg>