<svg xmlns="http://www.w3.org/2000/svg" viewBox="0 0 24.22 28"><defs><style>.cls-1{fill:#231f20;}</style></defs><g id="Layer_2" data-name="Layer 2"><g id="Layer_1-2" data-name="Layer 1"><path class="cls-1" d="M23.94,1.62A2.84,2.84,0,0,0,21.37,0H2.85A2.85,2.85,0,0,0,.64,4.64l8,10a.28.28,0,0,1,.06.18V26.2A1.82,1.82,0,0,0,10.54,28a1.74,1.74,0,0,0,.92-.26l3.15-1.89a1.79,1.79,0,0,0,.87-1.54V14.77a.34.34,0,0,1,.07-.19l8-9.94A2.82,2.82,0,0,0,23.94,1.62ZM22.42,3.7l-8,9.94a1.85,1.85,0,0,0-.4,1.13v9.54a.31.31,0,0,1-.14.26l-3.15,1.89a.31.31,0,0,1-.3,0,.29.29,0,0,1-.16-.26V14.77a1.79,1.79,0,0,0-.4-1.13L1.8,3.7a1.33,1.33,0,0,1-.16-1.43A1.32,1.32,0,0,1,2.85,1.5H21.37a1.32,1.32,0,0,1,1.21.77A1.33,1.33,0,0,1,22.42,3.7Z"/></g></g></svg>