<svg width="25" height="28" viewBox="0 0 25 28" fill="none" xmlns="http://www.w3.org/2000/svg">
<g clip-path="url(#clip0)">
<path d="M23.94 1.62C23.709 1.13434 23.3448 0.72426 22.8898 0.437472C22.4349 0.150684 21.9078 -0.00102365 21.37 -2.50819e-06H2.85001C2.31278 0.00145616 1.7869 0.154733 1.33301 0.442153C0.879125 0.729573 0.51572 1.13943 0.284703 1.62446C0.0536864 2.10949 -0.0355331 2.64994 0.027333 3.18349C0.0901992 3.71703 0.302591 4.22194 0.640015 4.64L8.64002 14.64C8.68035 14.6912 8.70157 14.7548 8.70002 14.82V26.2C8.70263 26.439 8.75229 26.6752 8.84618 26.895C8.94006 27.1148 9.07633 27.314 9.24719 27.4811C9.41805 27.6483 9.62017 27.7801 9.84199 27.8691C10.0638 27.9582 10.301 28.0026 10.54 28C10.8649 28.0009 11.1836 27.9109 11.46 27.74L14.61 25.85C14.876 25.6906 15.096 25.4649 15.2485 25.195C15.401 24.925 15.4808 24.6201 15.48 24.31V14.77C15.4835 14.701 15.5079 14.6348 15.55 14.58L23.55 4.64C23.8972 4.22673 24.1185 3.72249 24.1877 3.18716C24.2568 2.65184 24.1709 2.10792 23.94 1.62ZM22.42 3.7L14.42 13.64C14.165 13.9618 14.0242 14.3594 14.02 14.77V24.31C14.0201 24.3616 14.0074 24.4123 13.983 24.4577C13.9585 24.5031 13.9231 24.5417 13.88 24.57L10.73 26.46C10.6841 26.4854 10.6325 26.4987 10.58 26.4987C10.5275 26.4987 10.4759 26.4854 10.43 26.46C10.3818 26.4358 10.3413 26.3987 10.313 26.3528C10.2848 26.3068 10.2699 26.2539 10.27 26.2V14.77C10.2705 14.3586 10.1293 13.9595 9.87002 13.64L1.80001 3.7C1.639 3.50209 1.5383 3.26205 1.50993 3.0085C1.48156 2.75495 1.52672 2.49859 1.64002 2.27C1.74603 2.03868 1.91664 1.84294 2.13132 1.70633C2.34599 1.56972 2.59557 1.49807 2.85001 1.5H21.37C21.6245 1.49807 21.874 1.56972 22.0887 1.70633C22.3034 1.84294 22.474 2.03868 22.58 2.27C22.6933 2.49859 22.7385 2.75495 22.7101 3.0085C22.6817 3.26205 22.581 3.50209 22.42 3.7Z" fill="black"/>
</g>
<defs>
<clipPath id="clip0">
<rect width="24.22" height="28" fill="white"/>
</clipPath>
</defs>
</svg>
