<svg width="32" height="32" viewBox="0 0 32 32" fill="none" xmlns="http://www.w3.org/2000/svg">
<path d="M25.3623 2H6.84226C6.30503 2.00146 5.77915 2.15474 5.32526 2.44216C4.87137 2.72958 4.50797 3.13943 4.27695 3.62446C4.04593 4.10949 3.95672 4.64994 4.01958 5.18349C4.08245 5.71704 4.29484 6.22195 4.63226 6.64L12.6323 16.64C12.6726 16.6912 12.6938 16.7548 12.6923 16.82V28.2C12.6949 28.439 12.7445 28.6752 12.8384 28.895C12.9323 29.1148 13.0686 29.314 13.2394 29.4811C13.4103 29.6483 13.6124 29.7801 13.8342 29.8691C14.0561 29.9582 14.2933 30.0026 14.5323 30C14.8572 30.0009 15.1759 29.9109 15.4523 29.74L18.6023 27.85C18.8682 27.6906 19.0883 27.4649 19.2408 27.195C19.3933 26.925 19.473 26.6201 19.4723 26.31V16.77C19.4758 16.701 19.5002 16.6348 19.5423 16.58L27.5423 6.64C27.8782 6.22393 28.0902 5.72176 28.1542 5.19088C28.2182 4.65999 28.1316 4.12181 27.9042 3.63784C27.6768 3.15386 27.3179 2.74362 26.8684 2.454C26.4189 2.16437 25.8969 2.00704 25.3623 2V2ZM26.4123 5.7L18.4123 15.64C18.1572 15.9618 18.0165 16.3594 18.0123 16.77V26.31C18.0124 26.3616 17.9997 26.4123 17.9752 26.4577C17.9508 26.5031 17.9154 26.5417 17.8723 26.57L14.7223 28.46C14.6763 28.4854 14.6247 28.4987 14.5723 28.4987C14.5198 28.4987 14.4682 28.4854 14.4223 28.46C14.3741 28.4358 14.3335 28.3987 14.3053 28.3528C14.277 28.3068 14.2621 28.2539 14.2623 28.2V16.77C14.2628 16.3586 14.1215 15.9595 13.8623 15.64L5.79226 5.7C5.63125 5.5021 5.53055 5.26206 5.50218 5.00851C5.47381 4.75496 5.51897 4.4986 5.63226 4.27C5.73828 4.03868 5.90889 3.84294 6.12356 3.70633C6.33824 3.56972 6.58782 3.49807 6.84226 3.5H25.3623C25.6167 3.49807 25.8663 3.56972 26.081 3.70633C26.2956 3.84294 26.4662 4.03868 26.5723 4.27C26.6856 4.4986 26.7307 4.75496 26.7023 5.00851C26.674 5.26206 26.5733 5.5021 26.4123 5.7Z" fill="black"/>
</svg>
