<svg xmlns="http://www.w3.org/2000/svg" viewBox="0 0 24.22 28"><defs><style>.cls-1{fill:#231f20;}</style></defs><g id="Layer_2" data-name="Layer 2"><g id="Layer_1-2" data-name="Layer 1"><path class="cls-1" d="M10.54,28a1.82,1.82,0,0,1-1.81-1.8V14.77a.28.28,0,0,0-.06-.18l-8-9.95h0A2.85,2.85,0,0,1,2.85,0H21.37a2.85,2.85,0,0,1,2.21,4.64l-8,9.94a.34.34,0,0,0-.07.19v9.54a1.79,1.79,0,0,1-.87,1.54l-3.15,1.89A1.74,1.74,0,0,1,10.54,28ZM1.8,3.7l8,9.94a1.79,1.79,0,0,1,.4,1.13V26.2a.29.29,0,0,0,.16.26.31.31,0,0,0,.3,0l3.15-1.89a.31.31,0,0,0,.14-.26V14.77a1.85,1.85,0,0,1,.4-1.13l8-9.94a1.33,1.33,0,0,0,.16-1.43,1.32,1.32,0,0,0-1.21-.77H2.85a1.32,1.32,0,0,0-1.21.77A1.33,1.33,0,0,0,1.8,3.7Z"/></g></g></svg>