<svg width="25" height="28" viewBox="0 0 25 28" fill="none" xmlns="http://www.w3.org/2000/svg">
<g clip-path="url(#clip0)">
<path d="M10.54 28C10.0625 27.9974 9.60511 27.8072 9.26652 27.4705C8.92793 27.1338 8.73523 26.6775 8.72999 26.2V14.77C8.73155 14.7048 8.71033 14.6412 8.66999 14.59L0.669991 4.64C0.334097 4.22393 0.122031 3.72176 0.0580272 3.19088C-0.00597646 2.65999 0.0806648 2.12181 0.308049 1.63784C0.535434 1.15386 0.894389 0.743621 1.34389 0.453995C1.79339 0.16437 2.31531 0.00704472 2.84999 0L21.37 0C21.9072 0.00145867 22.4331 0.154736 22.887 0.442156C23.3409 0.729576 23.7043 1.13943 23.9353 1.62446C24.1663 2.10949 24.2555 2.64994 24.1927 3.18349C24.1298 3.71704 23.9174 4.22195 23.58 4.64L15.58 14.58C15.5379 14.6348 15.5135 14.701 15.51 14.77V24.31C15.5108 24.6201 15.431 24.925 15.2785 25.195C15.126 25.4649 14.906 25.6906 14.64 25.85L11.49 27.74C11.205 27.9164 10.8751 28.0066 10.54 28ZM1.79999 3.7L9.79999 13.64C10.0592 13.9595 10.2005 14.3586 10.2 14.77V26.2C10.1998 26.2539 10.2147 26.3068 10.243 26.3528C10.2713 26.3987 10.3118 26.4358 10.36 26.46C10.4059 26.4854 10.4575 26.4987 10.51 26.4987C10.5625 26.4987 10.6141 26.4854 10.66 26.46L13.81 24.57C13.8531 24.5417 13.8885 24.5031 13.9129 24.4577C13.9374 24.4123 13.9501 24.3616 13.95 24.31V14.77C13.9542 14.3594 14.0949 13.9618 14.35 13.64L22.35 3.7C22.511 3.5021 22.6117 3.26206 22.6401 3.00851C22.6684 2.75496 22.6233 2.4986 22.51 2.27C22.404 2.03868 22.2334 1.84294 22.0187 1.70633C21.804 1.56972 21.5544 1.49807 21.3 1.5H2.84999C2.59555 1.49807 2.34596 1.56972 2.13129 1.70633C1.91662 1.84294 1.74601 2.03868 1.63999 2.27C1.52669 2.4986 1.48154 2.75496 1.50991 3.00851C1.53828 3.26206 1.63897 3.5021 1.79999 3.7Z" fill="black"/>
</g>
<defs>
<clipPath id="clip0">
<rect width="24.22" height="28" fill="white"/>
</clipPath>
</defs>
</svg>
