<svg xmlns="http://www.w3.org/2000/svg" viewBox="0 0 26.5 23.35"><defs><style>.cls-1{fill-rule:evenodd;}</style></defs><g id="Layer_2" data-name="Layer 2"><g id="Layer_1-2" data-name="Layer 1"><path class="cls-1" d="M26.42,15.07,18,.3a.57.57,0,0,0-.51-.3H9a.64.64,0,0,0-.28.07A.51.51,0,0,0,8.52.3h0L.08,15.07a.57.57,0,0,0,0,.59L4.3,23.05h0a.58.58,0,0,0,.2.21.54.54,0,0,0,.31.09H21.69a.59.59,0,0,0,.51-.3l4.22-7.39h0a.58.58,0,0,0,.07-.28.62.62,0,0,0-.07-.29Zm-25.14.3L9,1.8l3.53,6.32L4.81,21.56Zm12-6.12,3.15,5.52H10.1Zm8.05,12.91H5.87L9.62,16H24.88Zm-3.53-7.39L10.05,1.19h7.07l7.76,13.58Z"/></g></g></svg>