<svg xmlns="http://www.w3.org/2000/svg" viewBox="0 0 27.43 28"><g id="Layer_2" data-name="Layer 2"><g id="Layer_1-2" data-name="Layer 1"><path d="M24.23,11.19v-.68a10.52,10.52,0,0,0-21,0v.68A4,4,0,0,0,0,15.12v2.67a4,4,0,0,0,3.27,3.95l1.08.2a2.33,2.33,0,0,0,.38,0,2.11,2.11,0,0,0,2.09-2.09V13a2.08,2.08,0,0,0-.76-1.6A2,2,0,0,0,4.7,11v-.44a9,9,0,0,1,18,0V11A2.06,2.06,0,0,0,20.61,13v6.87A2.1,2.1,0,0,0,22.69,22h0v.24a2.62,2.62,0,0,1-2.62,2.61H17a2.43,2.43,0,0,0-2.29-1.67H12.76a2.43,2.43,0,1,0,0,4.85h1.91A2.42,2.42,0,0,0,17,26.32h3.15a4.12,4.12,0,0,0,4.12-4.11v-.49a4,4,0,0,0,3.2-3.93V15.12A4,4,0,0,0,24.23,11.19ZM4.73,12.44a.59.59,0,0,1,.59.58v6.87a.58.58,0,0,1-.22.45.53.53,0,0,1-.48.12h0l-1.07-.2a2.51,2.51,0,0,1-2-2.47V15.12a2.51,2.51,0,0,1,2.05-2.47l1.07-.2ZM14.67,26.5H12.76a.93.93,0,1,1,0-1.85h1.91a.93.93,0,0,1,0,1.85Zm11.26-8.71a2.52,2.52,0,0,1-2.05,2.47l-1.08.2h0a.55.55,0,0,1-.48-.12.58.58,0,0,1-.21-.45V13a.58.58,0,0,1,.21-.45.61.61,0,0,1,.37-.13h.11l1.08.2a2.52,2.52,0,0,1,2.05,2.47Z"/><path d="M13,14.58l0,5.41a.74.74,0,0,0,.46.69.72.72,0,0,0,.29.06.75.75,0,0,0,.53-.22l3.63-3.63a.75.75,0,0,0,0-1.06l-3.07-3.06L17.84,9.7a.75.75,0,0,0,0-1.06L14.21,5a.75.75,0,0,0-1.28.53L13,11l-2.3-2.31a.75.75,0,0,0-1.06,0,.74.74,0,0,0,0,1.06l3.06,3.07L9.59,15.83a.74.74,0,0,0,0,1.06.75.75,0,0,0,1.06,0Zm3.3-5.41L14.46,11l0-3.6Zm-1.8,5.4,1.8,1.79-1.81,1.81Z"/></g></g></svg>