<svg xmlns="http://www.w3.org/2000/svg" viewBox="0 0 28 19.78"><defs><style>.cls-1{fill:#231f20;}</style></defs><g id="Layer_2" data-name="Layer 2"><g id="Layer_1-2" data-name="Layer 1"><path class="cls-1" d="M9.43,5.29a.74.74,0,0,0-1.06,0L5.58,8.07l0-6.36a.75.75,0,0,0-1.28-.54L.22,5.28a.75.75,0,0,0,0,1.06L3.76,9.89.22,13.43A.77.77,0,0,0,0,14a.75.75,0,0,0,.22.53L4.33,18.6a.73.73,0,0,0,.53.22.71.71,0,0,0,.29-.05.77.77,0,0,0,.46-.7l0-6.36,2.79,2.78a.75.75,0,0,0,1.06-1.06L5.89,9.89,9.43,6.35A.75.75,0,0,0,9.43,5.29ZM1.81,14l2.27-2.27,0,4.57ZM4.08,8.08,1.81,5.81,4.1,3.52Z"/><path class="cls-1" d="M27.25,5.33H21.94L15.69.57a2.79,2.79,0,0,0-4.48,2.22V17A2.81,2.81,0,0,0,14,19.78a2.79,2.79,0,0,0,1.69-.58l6.25-4.75h5.31A.76.76,0,0,0,28,13.7V6.08A.76.76,0,0,0,27.25,5.33Zm-6.32,8L14.78,18a1.27,1.27,0,0,1-1.35.13A1.26,1.26,0,0,1,12.71,17V2.79a1.26,1.26,0,0,1,.72-1.15,1.23,1.23,0,0,1,1.35.13l6.15,4.68ZM26.5,13H22.43V6.83H26.5Z"/></g></g></svg>