<svg width="32" height="32" viewBox="0 0 32 32" fill="none" xmlns="http://www.w3.org/2000/svg">
<path d="M11.4306 11.2901C11.3617 11.2193 11.2792 11.1631 11.1882 11.1247C11.0972 11.0863 10.9994 11.0665 10.9006 11.0665C10.8018 11.0665 10.704 11.0863 10.613 11.1247C10.522 11.1631 10.4396 11.2193 10.3706 11.2901L7.5806 14.0701V7.71008C7.58247 7.56099 7.53986 7.41473 7.45821 7.28997C7.37655 7.16521 7.25957 7.06762 7.12219 7.00966C6.98481 6.9517 6.83327 6.93601 6.68693 6.96459C6.54059 6.99316 6.40609 7.0647 6.3006 7.17008L2.2206 11.2801C2.08015 11.4207 2.00126 11.6113 2.00126 11.8101C2.00126 12.0088 2.08015 12.1995 2.2206 12.3401L5.7606 15.8901L2.2206 19.4301C2.14698 19.5051 2.08948 19.5943 2.05165 19.6923C2.01381 19.7904 1.99644 19.8951 2.0006 20.0001C2.00078 20.1989 2.07991 20.3896 2.2206 20.5301L6.3306 24.6001C6.3995 24.6707 6.48199 24.7265 6.57308 24.7643C6.66417 24.8022 6.76198 24.8211 6.8606 24.8201C6.9597 24.8239 7.05849 24.8068 7.1506 24.7701C7.28666 24.7102 7.40249 24.6123 7.48411 24.4881C7.56574 24.3639 7.60967 24.2187 7.6106 24.0701V17.7101L10.4006 20.4901C10.5428 20.6226 10.7308 20.6947 10.9251 20.6913C11.1194 20.6878 11.3048 20.6091 11.4422 20.4717C11.5796 20.3343 11.6584 20.1489 11.6618 19.9546C11.6652 19.7603 11.5931 19.5723 11.4606 19.4301L7.8906 15.8901L11.4306 12.3501C11.5711 12.2095 11.6499 12.0188 11.6499 11.8201C11.6499 11.6213 11.5711 11.4307 11.4306 11.2901ZM3.8106 20.0001L6.0806 17.7301V22.3001L3.8106 20.0001ZM6.0806 14.0801L3.8106 11.8101L6.1006 9.52008L6.0806 14.0801Z" fill="black"/>
<path d="M29.2506 11.3301H23.9406L17.6906 6.57009C17.277 6.2552 16.7836 6.06214 16.2661 6.01266C15.7487 5.96319 15.2276 6.05928 14.7618 6.2901C14.296 6.52092 13.904 6.87728 13.6299 7.31901C13.3558 7.76073 13.2106 8.27024 13.2106 8.79009V23.0001C13.2185 23.7367 13.5153 24.4407 14.0371 24.9607C14.5589 25.4806 15.264 25.7749 16.0006 25.7801C16.6123 25.7772 17.2061 25.5735 17.6906 25.2001L23.9406 20.4501H29.2506C29.4487 20.4475 29.638 20.3677 29.7781 20.2276C29.9182 20.0875 29.998 19.8982 30.0006 19.7001V12.0801C29.998 11.882 29.9182 11.6927 29.7781 11.5526C29.638 11.4125 29.4487 11.3327 29.2506 11.3301ZM22.9306 19.3301L16.7806 24.0001C16.5909 24.1471 16.3634 24.2374 16.1244 24.2604C15.8855 24.2834 15.6449 24.2382 15.4306 24.1301C15.2165 24.0285 15.0353 23.8686 14.908 23.6687C14.7806 23.4688 14.7122 23.2371 14.7106 23.0001V8.79009C14.7084 8.54969 14.775 8.31367 14.9026 8.1099C15.0302 7.90613 15.2134 7.74312 15.4306 7.64009C15.6436 7.52705 15.8851 7.4791 16.1252 7.50221C16.3652 7.52533 16.5931 7.61848 16.7806 7.77009L22.9306 12.4501V19.3301ZM28.5006 19.0001H24.4306V12.8301H28.5006V19.0001Z" fill="black"/>
</svg>
