<svg width="32" height="32" viewBox="0 0 32 32" fill="none" xmlns="http://www.w3.org/2000/svg">
<path d="M11.4293 11.2901C11.3604 11.2193 11.278 11.1631 11.187 11.1247C11.0959 11.0863 10.9981 11.0665 10.8993 11.0665C10.8005 11.0665 10.7028 11.0863 10.6117 11.1247C10.5207 11.1631 10.4383 11.2193 10.3693 11.2901L7.57934 14.0701V7.71009C7.58121 7.561 7.5386 7.41473 7.45694 7.28997C7.37529 7.16522 7.2583 7.06763 7.12092 7.00967C6.98355 6.95171 6.83201 6.93602 6.68567 6.96459C6.53933 6.99317 6.40483 7.06471 6.29934 7.17009L2.21934 11.2801C2.07889 11.4207 2 11.6113 2 11.8101C2 12.0088 2.07889 12.1995 2.21934 12.3401L5.75934 15.8901L2.21934 19.4301C2.07889 19.5707 2 19.7613 2 19.9601C2 20.1588 2.07889 20.3495 2.21934 20.4901L6.32934 24.6001C6.39824 24.6707 6.48072 24.7265 6.57182 24.7644C6.66291 24.8022 6.76072 24.8211 6.85934 24.8201C6.95844 24.8239 7.05723 24.8068 7.14934 24.7701C7.28695 24.7124 7.40422 24.615 7.48617 24.4903C7.56811 24.3656 7.61099 24.2193 7.60934 24.0701V17.7001L10.3993 20.4901C10.5415 20.6226 10.7296 20.6947 10.9239 20.6913C11.1182 20.6878 11.3035 20.6091 11.441 20.4717C11.5784 20.3343 11.6571 20.1489 11.6605 19.9546C11.6639 19.7603 11.5918 19.5723 11.4593 19.4301L7.88934 15.8901L11.4293 12.3501C11.5698 12.2095 11.6487 12.0188 11.6487 11.8201C11.6487 11.6213 11.5698 11.4307 11.4293 11.2901ZM3.80934 20.0001L6.07934 17.7301V22.3001L3.80934 20.0001ZM6.07934 14.0801L3.80934 11.8101L6.09934 9.52009L6.07934 14.0801Z" fill="black"/>
<path d="M29.2493 11.3301H23.9393L17.6893 6.57009C17.2757 6.2552 16.7823 6.06214 16.2649 6.01266C15.7474 5.96319 15.2263 6.05928 14.7606 6.2901C14.2948 6.52092 13.9027 6.87728 13.6286 7.31901C13.3545 7.76073 13.2093 8.27024 13.2093 8.79009V23.0001C13.2172 23.7367 13.514 24.4407 14.0358 24.9607C14.5576 25.4806 15.2627 25.7749 15.9993 25.7801C16.611 25.7772 17.2048 25.5735 17.6893 25.2001L23.9393 20.4401H29.2493C29.4483 20.4401 29.639 20.3611 29.7797 20.2204C29.9203 20.0798 29.9993 19.889 29.9993 19.6901V12.0801C29.9967 11.882 29.9169 11.6927 29.7768 11.5526C29.6367 11.4125 29.4474 11.3327 29.2493 11.3301ZM22.9293 19.3301L16.7793 24.0001C16.5899 24.144 16.3643 24.2327 16.1276 24.2564C15.8908 24.2801 15.6521 24.2379 15.4379 24.1344C15.2237 24.0309 15.0422 23.8702 14.9137 23.67C14.7851 23.4698 14.7144 23.238 14.7093 23.0001V8.79009C14.7071 8.54969 14.7738 8.31367 14.9013 8.1099C15.0289 7.90613 15.2121 7.74312 15.4293 7.64009C15.6423 7.52705 15.8839 7.4791 16.1239 7.50221C16.3639 7.52533 16.5918 7.61848 16.7793 7.77009L22.9293 12.4501V19.3301ZM28.4993 18.9501H24.4293V12.8301H28.4993V18.9501Z" fill="black"/>
</svg>
