<svg width="32" height="32" viewBox="0 0 32 32" fill="none" xmlns="http://www.w3.org/2000/svg">
<path d="M26.23 12.5516V11.8716C26.065 9.19887 24.8869 6.68966 22.9359 4.85543C20.9849 3.02119 18.4079 2 15.73 2C13.0522 2 10.4752 3.02119 8.52416 4.85543C6.57316 6.68966 5.39508 9.19887 5.23004 11.8716V12.5516C4.31933 12.7303 3.49909 13.22 2.90982 13.937C2.32055 14.654 1.99892 15.5536 2.00004 16.4816V19.1516C1.99601 20.0888 2.32119 20.9976 2.91882 21.7195C3.51645 22.4414 4.34859 22.9306 5.27004 23.1016L6.35004 23.3016C6.47649 23.312 6.60358 23.312 6.73004 23.3016C7.28272 23.2964 7.8113 23.0745 8.20213 22.6837C8.59295 22.2929 8.81482 21.7643 8.82004 21.2116V14.3616C8.81893 14.0554 8.75024 13.7533 8.61887 13.4767C8.48749 13.2001 8.29667 12.9559 8.06004 12.7616C7.67075 12.4667 7.187 12.3244 6.70004 12.3616V11.9216C6.70004 9.53467 7.64825 7.24548 9.33608 5.55766C11.0239 3.86983 13.3131 2.92162 15.7 2.92162C18.087 2.92162 20.3762 3.86983 22.064 5.55766C23.7518 7.24548 24.7 9.53467 24.7 11.9216V12.3616C24.1588 12.3535 23.636 12.5588 23.2449 12.9331C22.8538 13.3073 22.6257 13.8205 22.61 14.3616V21.2316C22.6061 21.5082 22.6568 21.7829 22.7593 22.0399C22.8618 22.2968 23.0141 22.531 23.2074 22.7289C23.4006 22.9268 23.6311 23.0846 23.8856 23.1932C24.14 23.3018 24.4134 23.359 24.69 23.3616V23.6016C24.6874 24.2948 24.4102 24.9586 23.9191 25.4478C23.4281 25.937 22.7632 26.2116 22.07 26.2116H19C18.841 25.7287 18.5345 25.3078 18.1237 25.0082C17.7129 24.7086 17.2185 24.5454 16.71 24.5416H14.76C14.4285 24.5203 14.0961 24.5672 13.7834 24.6795C13.4707 24.7917 13.1843 24.9668 12.942 25.1941C12.6996 25.4214 12.5065 25.6959 12.3744 26.0008C12.2424 26.3057 12.1742 26.6344 12.1742 26.9666C12.1742 27.2989 12.2424 27.6276 12.3744 27.9324C12.5065 28.2373 12.6996 28.5118 12.942 28.7391C13.1843 28.9664 13.4707 29.1416 13.7834 29.2538C14.0961 29.366 14.4285 29.4129 14.76 29.3916H16.67C17.1907 29.3952 17.6986 29.2307 18.1183 28.9226C18.5381 28.6146 18.8473 28.1794 19 27.6816H22.15C23.241 27.6816 24.2874 27.2489 25.0598 26.4784C25.8321 25.7079 26.2674 24.6626 26.27 23.5716V23.0816C27.1752 22.8969 27.9885 22.4045 28.5718 21.6881C29.1552 20.9717 29.4725 20.0755 29.47 19.1516V16.4816C29.4707 15.5521 29.1477 14.6514 28.5564 13.9343C27.9651 13.2171 27.1426 12.7282 26.23 12.5516ZM6.73004 13.8016C6.8848 13.8016 7.03337 13.8624 7.14373 13.9709C7.2541 14.0794 7.31741 14.2269 7.32004 14.3816V21.2516C7.31932 21.3383 7.29919 21.4237 7.26112 21.5016C7.22305 21.5795 7.168 21.6478 7.10004 21.7016C7.03582 21.7592 6.95854 21.8002 6.8749 21.8211C6.79125 21.842 6.70377 21.8422 6.62004 21.8216L5.55004 21.6216C4.98285 21.5039 4.47383 21.1937 4.10931 20.7435C3.74478 20.2933 3.54719 19.7309 3.55004 19.1516V16.4816C3.54945 15.8953 3.75414 15.3273 4.1286 14.8761C4.50306 14.4249 5.02364 14.1191 5.60004 14.0116L6.67004 13.8116L6.73004 13.8016ZM16.67 27.8616H14.76C14.6305 27.8751 14.4995 27.8612 14.3757 27.8209C14.2518 27.7806 14.1379 27.7146 14.0411 27.6274C13.9443 27.5402 13.867 27.4337 13.814 27.3147C13.7611 27.1957 13.7337 27.0669 13.7337 26.9366C13.7337 26.8064 13.7611 26.6776 13.814 26.5586C13.867 26.4396 13.9443 26.333 14.0411 26.2458C14.1379 26.1586 14.2518 26.0927 14.3757 26.0523C14.4995 26.012 14.6305 25.9981 14.76 26.0116H16.67C16.8988 26.0354 17.1106 26.1432 17.2646 26.314C17.4185 26.4848 17.5037 26.7066 17.5037 26.9366C17.5037 27.1666 17.4185 27.3884 17.2646 27.5592C17.1106 27.7301 16.8988 27.8378 16.67 27.8616ZM27.93 19.1516C27.9287 19.7374 27.7233 20.3045 27.3492 20.7552C26.975 21.206 26.4556 21.5124 25.88 21.6216L24.8 21.8216C24.7162 21.8405 24.6291 21.8395 24.5458 21.8186C24.4624 21.7978 24.3851 21.7577 24.32 21.7016C24.2539 21.6468 24.2008 21.5781 24.1644 21.5002C24.1281 21.4224 24.1095 21.3375 24.11 21.2516V14.3616C24.1095 14.2757 24.1281 14.1908 24.1644 14.113C24.2008 14.0352 24.2539 13.9664 24.32 13.9116C24.4257 13.8287 24.5558 13.783 24.69 13.7816H24.8L25.88 13.9816C26.4556 14.0909 26.975 14.3972 27.3492 14.848C27.7233 15.2988 27.9287 15.8658 27.93 16.4516V19.1516Z" fill="black"/>
<path d="M15 15.9416V21.3516C14.999 21.4994 15.0423 21.6441 15.1243 21.7671C15.2063 21.8901 15.3232 21.9857 15.46 22.0416C15.5515 22.0815 15.6503 22.1019 15.75 22.1016C15.9489 22.1014 16.1395 22.0223 16.28 21.8816L19.91 18.2516C20.0505 18.111 20.1294 17.9204 20.1294 17.7216C20.1294 17.5229 20.0505 17.3322 19.91 17.1916L16.84 14.1316L19.84 11.0616C19.9805 10.921 20.0594 10.7304 20.0594 10.5316C20.0594 10.3329 19.9805 10.1422 19.84 10.0016L16.21 6.36162C16.1052 6.25686 15.9716 6.18554 15.8262 6.15665C15.6808 6.12777 15.5301 6.14262 15.3931 6.19933C15.2562 6.25604 15.1391 6.35207 15.0566 6.47529C14.9742 6.5985 14.9302 6.74338 14.93 6.89162L15 12.3616L12.7 10.0516C12.5594 9.91117 12.3688 9.83228 12.17 9.83228C11.9713 9.83228 11.7807 9.91117 11.64 10.0516C11.5693 10.1206 11.513 10.203 11.4746 10.294C11.4362 10.385 11.4165 10.4828 11.4165 10.5816C11.4165 10.6804 11.4362 10.7782 11.4746 10.8692C11.513 10.9603 11.5693 11.0427 11.64 11.1116L14.7 14.1816L11.59 17.1916C11.5193 17.2606 11.463 17.343 11.4246 17.434C11.3862 17.525 11.3665 17.6228 11.3665 17.7216C11.3665 17.8204 11.3862 17.9182 11.4246 18.0092C11.463 18.1003 11.5193 18.1827 11.59 18.2516C11.7307 18.3921 11.9213 18.471 12.12 18.471C12.3188 18.471 12.5094 18.3921 12.65 18.2516L15 15.9416ZM18.3 10.5316L16.46 12.3616V8.76162L18.3 10.5316ZM16.5 15.9316L18.3 17.7216L16.49 19.5316L16.5 15.9316Z" fill="black"/>
</svg>
