<svg width="32" height="32" viewBox="0 0 32 32" fill="none" xmlns="http://www.w3.org/2000/svg">
<path d="M14.9 16.6V22C14.9 22.3 15.1 22.6 15.4 22.7C15.5 22.7 15.6 22.8 15.7 22.8C15.9 22.8 16.1 22.7 16.2 22.6L19.8 19C20.1 18.7 20.1 18.2 19.8 17.9L16.8 14.8L19.9 11.7C20.2 11.4 20.2 10.9 19.9 10.6L16.3 7C16.1 6.8 15.8 6.7 15.5 6.8C15.2 6.9 15 7.2 15 7.5V12.9L12.7 10.6C12.4 10.3 11.9 10.3 11.6 10.6C11.3 10.9 11.3 11.4 11.6 11.7L14.7 14.8L11.6 17.8C11.3 18.1 11.3 18.6 11.6 18.9C11.9 19.2 12.4 19.2 12.7 18.9L14.9 16.6ZM18.2 11.2L16.4 13V9.4L18.2 11.2ZM16.4 16.6L18.2 18.4L16.4 20.2V16.6Z" fill="black"/>
<path d="M26.2 13.2V12.5C26.2 6.7 21.5 2 15.7 2C9.9 2 5.2 6.7 5.2 12.5V13.2C3.3 13.6 2 15.2 2 17.1V19.8C2 21.7 3.4 23.4 5.3 23.7L6.4 23.9C6.5 23.9 6.7 23.9 6.8 23.9C7.3 23.9 7.8 23.7 8.1 23.4C8.6 23 8.9 22.4 8.9 21.8V14.9C8.9 14.3 8.6 13.7 8.1 13.3C7.7 13 7.2 12.8 6.7 12.8V12.4C6.7 7.4 10.7 3.4 15.7 3.4C20.7 3.4 24.7 7.4 24.7 12.4V12.8C24.2 12.8 23.7 13 23.3 13.3C22.8 13.7 22.5 14.3 22.5 14.9V21.8C22.5 22.4 22.8 23 23.3 23.4C23.7 23.7 24.1 23.9 24.6 23.9V24.1C24.6 25.5 23.4 26.7 22 26.7H18.9C18.6 25.7 17.7 25 16.6 25H14.7C13.4 25 12.3 26.1 12.3 27.4C12.3 28.7 13.4 29.8 14.7 29.8H16.6C17.7 29.8 18.6 29.1 18.9 28.1H22C24.3 28.1 26.1 26.3 26.1 24V23.5C28 23.1 29.3 21.5 29.3 19.6V16.9C29.4 15.2 28.1 13.6 26.2 13.2ZM6.7 14.4C6.9 14.4 7 14.5 7.1 14.5C7.2 14.6 7.3 14.7 7.3 15V21.9C7.3 22.1 7.2 22.3 7.1 22.4C7 22.5 6.9 22.6 6.6 22.5L5.5 22.3C4.3 22.1 3.5 21 3.5 19.8V17.1C3.5 15.9 4.4 14.9 5.5 14.6L6.6 14.4H6.7ZM16.7 28.5H14.8C14.3 28.5 13.9 28.1 13.9 27.6C13.9 27.1 14.3 26.7 14.8 26.7H16.7C17.2 26.7 17.6 27.1 17.6 27.6C17.6 28.1 17.2 28.5 16.7 28.5ZM27.9 19.8C27.9 21 27 22 25.9 22.3L24.8 22.5C24.6 22.5 24.4 22.4 24.3 22.4C24.2 22.3 24.1 22.2 24.1 21.9V15C24.1 14.8 24.2 14.6 24.3 14.5C24.4 14.4 24.5 14.4 24.7 14.4H24.8L25.9 14.6C27.1 14.8 27.9 15.9 27.9 17.1V19.8Z" fill="black"/>
</svg>
