<?xml version="1.0" encoding="utf-8"?>
<!-- Generator: Adobe Illustrator 24.1.0, SVG Export Plug-In . SVG Version: 6.00 Build 0)  -->
<svg version="1.1" id="Layer_1" xmlns="http://www.w3.org/2000/svg" xmlns:xlink="http://www.w3.org/1999/xlink" x="0px" y="0px"
	 viewBox="0 0 48.7 42.4" style="enable-background:new 0 0 48.7 42.4;" xml:space="preserve">
<style type="text/css">
	
		.st0{fill-rule:evenodd;clip-rule:evenodd;fill:none;stroke:#000000;stroke-width:1.5;stroke-linecap:round;stroke-linejoin:round;stroke-miterlimit:10;}
	.st1{fill:none;stroke:#000000;stroke-width:1.5;stroke-linecap:round;stroke-linejoin:round;stroke-miterlimit:10;}
	.st2{fill-rule:evenodd;clip-rule:evenodd;}
	.st3{fill:none;stroke:#000000;stroke-width:1.5;stroke-linejoin:round;stroke-miterlimit:10;}
</style>
<g>
	<path d="M24.1,21.8l0,5.4c0,0.3,0.2,0.6,0.5,0.7c0.1,0,0.2,0.1,0.3,0.1c0.2,0,0.4-0.1,0.5-0.2l3.6-3.6c0.3-0.3,0.3-0.8,0-1.1L26,20
		l3.1-3.1c0.3-0.3,0.3-0.8,0-1.1l-3.6-3.6c-0.2-0.2-0.5-0.3-0.8-0.2c-0.3,0.1-0.5,0.4-0.5,0.7l0,5.4l-2.3-2.3
		c-0.3-0.3-0.8-0.3-1.1,0c-0.3,0.3-0.3,0.8,0,1.1l3.1,3.1L20.8,23c-0.3,0.3-0.3,0.8,0,1.1s0.8,0.3,1.1,0L24.1,21.8z M27.4,16.4
		l-1.8,1.8l0-3.6L27.4,16.4z M25.6,21.8l1.8,1.8l-1.8,1.8L25.6,21.8z"/>
	<path d="M35.4,18.4v-0.7c0-5.8-4.7-10.5-10.5-10.5s-10.5,4.7-10.5,10.5v0.7c-1.9,0.4-3.2,2-3.2,3.9V25c0,1.9,1.4,3.6,3.3,3.9
		l1.1,0.2c0.1,0,0.3,0,0.4,0c0.5,0,1-0.2,1.3-0.5c0.5-0.4,0.8-1,0.8-1.6v-6.9c0-0.6-0.3-1.2-0.8-1.6c-0.4-0.3-0.9-0.5-1.4-0.5v-0.4
		c0-5,4-9,9-9s9,4,9,9v0.4c-0.5,0-1,0.2-1.4,0.5c-0.5,0.4-0.8,1-0.8,1.6v6.9c0,0.6,0.3,1.2,0.8,1.6c0.4,0.3,0.8,0.5,1.3,0.5
		c0,0,0,0,0,0v0.2c0,1.4-1.2,2.6-2.6,2.6h-3.1c-0.3-1-1.2-1.7-2.3-1.7h-1.9c-1.3,0-2.4,1.1-2.4,2.4c0,1.3,1.1,2.4,2.4,2.4h1.9
		c1.1,0,2-0.7,2.3-1.7h3.1c2.3,0,4.1-1.8,4.1-4.1v-0.5c1.9-0.4,3.2-2,3.2-3.9v-2.7C38.6,20.4,37.3,18.8,35.4,18.4z M15.9,19.6
		c0.2,0,0.3,0.1,0.4,0.1c0.1,0.1,0.2,0.2,0.2,0.5v6.9c0,0.2-0.1,0.4-0.2,0.5c-0.1,0.1-0.2,0.2-0.5,0.1c0,0,0,0,0,0l-1.1-0.2
		c-1.2-0.2-2-1.3-2-2.5v-2.7c0-1.2,0.9-2.2,2-2.5l1.1-0.2C15.8,19.6,15.9,19.6,15.9,19.6z M25.9,33.7h-1.9c-0.5,0-0.9-0.4-0.9-0.9
		s0.4-0.9,0.9-0.9h1.9c0.5,0,0.9,0.4,0.9,0.9S26.4,33.7,25.9,33.7z M37.1,25c0,1.2-0.9,2.2-2,2.5L34,27.7c0,0,0,0,0,0
		c-0.2,0-0.4-0.1-0.5-0.1c-0.1-0.1-0.2-0.2-0.2-0.5v-6.9c0-0.2,0.1-0.4,0.2-0.5c0.1-0.1,0.2-0.1,0.4-0.1c0,0,0.1,0,0.1,0l1.1,0.2
		c1.2,0.2,2,1.3,2,2.5V25z"/>
</g>
</svg>
