<svg width="32" height="32" viewBox="0 0 32 32" fill="none" xmlns="http://www.w3.org/2000/svg">
<path fill-rule="evenodd" clip-rule="evenodd" d="M4.75227 3.50134C4.06588 3.50134 3.50116 4.06606 3.50116 4.75246V26.7721C3.50116 27.4585 4.06588 28.0232 4.75227 28.0232H8.75585C9.17043 28.0232 9.50652 28.3593 9.50652 28.7739C9.50652 29.1885 9.17043 29.5246 8.75585 29.5246H4.75227C3.23671 29.5246 1.99982 28.2877 1.99982 26.7721V4.75246C1.99982 3.23689 3.23671 2 4.75227 2H20.7666C22.2821 2 23.519 3.23689 23.519 4.75246V9.25648C23.519 9.67106 23.1829 10.0071 22.7684 10.0071C22.3538 10.0071 22.0177 9.67106 22.0177 9.25648V4.75246C22.0177 4.06606 21.453 3.50134 20.7666 3.50134H4.75227ZM6.00339 9.25648C6.00339 8.8419 6.33948 8.50581 6.75406 8.50581H18.7648C19.1794 8.50581 19.5155 8.8419 19.5155 9.25648C19.5155 9.67106 19.1794 10.0071 18.7648 10.0071H6.75406C6.33948 10.0071 6.00339 9.67106 6.00339 9.25648ZM28.0427 13.7909C27.4351 13.1832 26.309 13.1832 25.7013 13.7909L25.2312 14.2609L27.5727 16.6024L28.0427 16.1323C28.6504 15.5246 28.6504 14.3985 28.0427 13.7909ZM26.511 17.664L24.1696 15.3226L15.7282 23.7639L18.108 26.067L26.511 17.664ZM16.6812 26.7755L14.2466 27.587L15.0449 25.192L16.6812 26.7755ZM24.6397 12.7293C25.8337 11.5353 27.9104 11.5353 29.1043 12.7293C30.2983 13.9232 30.2983 15.9999 29.1043 17.1939L18.9635 27.3348C18.7347 27.6885 18.369 27.8753 18.0101 27.915L13.2971 29.4861C13.0273 29.576 12.7299 29.5058 12.5289 29.3047C12.3278 29.1037 12.2576 28.8063 12.3475 28.5365L13.949 23.7322C13.9602 23.6985 13.9738 23.6657 13.9897 23.6339L13.994 23.6254C14.041 23.5313 14.099 23.4153 14.1595 23.3094C14.2167 23.2094 14.3069 23.0621 14.4306 22.9384L24.6397 12.7293ZM6.00339 15.7623C6.00339 15.3477 6.33948 15.0116 6.75406 15.0116H16.8631C17.2777 15.0116 17.6138 15.3477 17.6138 15.7623C17.6138 16.1769 17.2777 16.513 16.8631 16.513H6.75406C6.33948 16.513 6.00339 16.1769 6.00339 15.7623ZM6.00339 22.2681C6.00339 21.8535 6.33948 21.5174 6.75406 21.5174H10.6575C11.0721 21.5174 11.4082 21.8535 11.4082 22.2681C11.4082 22.6827 11.0721 23.0188 10.6575 23.0188H6.75406C6.33948 23.0188 6.00339 22.6827 6.00339 22.2681Z" fill="black"/>
</svg>
