<svg width="32" height="32" viewBox="0 0 32 32" fill="none" xmlns="http://www.w3.org/2000/svg">
<path d="M16 11.14C15.4601 11.14 14.9322 11.3001 14.4833 11.6001C14.0343 11.9001 13.6844 12.3264 13.4778 12.8253C13.2712 13.3241 13.2171 13.873 13.3225 14.4026C13.4278 14.9322 13.6878 15.4186 14.0696 15.8004C14.4514 16.1822 14.9378 16.4422 15.4674 16.5475C15.997 16.6529 16.5459 16.5988 17.0447 16.3922C17.5436 16.1856 17.9699 15.8357 18.2699 15.3867C18.5699 14.9378 18.73 14.4099 18.73 13.87C18.73 13.146 18.4424 12.4516 17.9304 11.9396C17.4184 11.4276 16.724 11.14 16 11.14Z" fill="black"/>
<path d="M26.25 2H5.75C4.75544 2 3.80161 2.39509 3.09835 3.09835C2.39509 3.80161 2 4.75544 2 5.75V26.25C2 27.2446 2.39509 28.1984 3.09835 28.9017C3.80161 29.6049 4.75544 30 5.75 30H26.25C27.2446 30 28.1984 29.6049 28.9017 28.9017C29.6049 28.1984 30 27.2446 30 26.25V5.75C30 4.75544 29.6049 3.80161 28.9017 3.09835C28.1984 2.39509 27.2446 2 26.25 2ZM28.5 5.75V10.83H23.55V9.2C23.5474 9.00189 23.4676 8.81263 23.3275 8.67253C23.1874 8.53244 22.9981 8.45259 22.8 8.45H21.17V3.5H26.25C26.8467 3.5 27.419 3.73705 27.841 4.15901C28.2629 4.58097 28.5 5.15326 28.5 5.75ZM23.55 12.33H28.5V19.67H23.55V12.33ZM19.67 23.55V28.5H12.33V23.55H19.67ZM20.37 22.05V21.31C20.37 20.151 19.9096 19.0395 19.0901 18.2199C18.2705 17.4004 17.159 16.94 16 16.94C14.841 16.94 13.7295 17.4004 12.9099 18.2199C12.0904 19.0395 11.63 20.151 11.63 21.31V22.05H10V10H22.1V22.1L20.37 22.05ZM12.37 8.45V3.5H19.71V8.5L12.37 8.45ZM5.75 3.5H10.83V8.5H9.2C9.00189 8.50259 8.81263 8.58244 8.67253 8.72253C8.53244 8.86263 8.45259 9.05189 8.45 9.25V10.83H3.5V5.75C3.5 5.15326 3.73705 4.58097 4.15901 4.15901C4.58097 3.73705 5.15326 3.5 5.75 3.5ZM8.45 19.67H3.5V12.33H8.5L8.45 19.67ZM3.5 26.25V21.17H8.5V22.8C8.50259 22.9981 8.58244 23.1874 8.72253 23.3275C8.86263 23.4676 9.05189 23.5474 9.25 23.55H10.83V28.5H5.75C5.15326 28.5 4.58097 28.2629 4.15901 27.841C3.73705 27.419 3.5 26.8467 3.5 26.25ZM26.25 28.5H21.17V23.55H22.8C22.9981 23.5474 23.1874 23.4676 23.3275 23.3275C23.4676 23.1874 23.5474 22.9981 23.55 22.8V21.17H28.5V26.25C28.5 26.8467 28.2629 27.419 27.841 27.841C27.419 28.2629 26.8467 28.5 26.25 28.5Z" fill="black"/>
</svg>
