<svg width="32" height="32" viewBox="0 0 32 32" fill="none" xmlns="http://www.w3.org/2000/svg">
<path d="M24.1573 13.1297C24.1681 10.7806 23.4319 8.48889 22.0551 6.58554C20.6783 4.68219 18.7322 3.26574 16.4977 2.54077C14.2633 1.81581 11.8562 1.81986 9.62424 2.55234C7.39224 3.28482 5.45085 4.70781 4.08046 6.61578C2.71008 8.52376 1.98163 10.8179 2.00035 13.167C2.01907 15.516 2.78398 17.7983 4.18459 19.6842C5.58521 21.5701 7.54903 22.962 9.79242 23.6588C12.0358 24.3556 14.4426 24.3213 16.6652 23.5608C17.2414 24.6136 18.0749 25.5031 19.0879 26.1466C20.101 26.79 21.2605 27.1663 22.4583 27.2403C23.6561 27.3143 24.8532 27.0837 25.9377 26.5699C27.0223 26.0561 27.959 25.2759 28.6604 24.3021C29.3618 23.3283 29.8051 22.1927 29.9488 21.0013C30.0926 19.8098 29.9322 18.6013 29.4825 17.4887C29.0328 16.376 28.3086 15.3954 27.3774 14.6384C26.4462 13.8813 25.3383 13.3726 24.1573 13.1596V13.1297ZM17.2829 20.1037C17.2851 18.677 17.8299 17.3045 18.8067 16.2647C19.7836 15.2249 21.1195 14.5956 22.5433 14.5046C22.3152 15.9947 21.7377 17.4096 20.8581 18.6338C19.9785 19.8581 18.8216 20.8568 17.4822 21.5483C17.3516 21.0846 17.2845 20.6054 17.2829 20.1236V20.1037ZM13.1284 22.6143C11.2439 22.6163 9.40116 22.0598 7.8328 21.0151C6.26443 19.9704 5.04082 18.4843 4.31649 16.7446C3.59217 15.0049 3.39962 13.0896 3.76317 11.2405C4.12671 9.39146 5.03004 7.6916 6.35908 6.35561C7.68811 5.01963 9.38324 4.10744 11.2304 3.73425C13.0775 3.36107 14.9938 3.54362 16.7373 4.25886C18.4807 4.9741 19.9731 6.18994 21.026 7.75284C22.0789 9.31574 22.645 11.1556 22.6529 13.04C20.8124 13.102 19.0679 13.8763 17.7873 15.1997C16.5067 16.5231 15.79 18.292 15.7885 20.1336C15.7944 20.8085 15.895 21.4792 16.0874 22.1262C15.1349 22.4539 14.1357 22.6255 13.1284 22.6343V22.6143ZM22.892 25.7128C21.9189 25.7217 20.9602 25.4764 20.111 25.0011C19.2618 24.5258 18.5514 23.837 18.0501 23.0029C19.6453 22.2009 21.0224 21.0243 22.0634 19.5737C23.1045 18.1232 23.7785 16.4419 24.0278 14.6739C25.396 14.9482 26.6128 15.7227 27.4407 16.846C28.2685 17.9694 28.6479 19.361 28.5047 20.7491C28.3616 22.1371 27.7061 23.422 26.6664 24.3528C25.6267 25.2835 24.2774 25.7933 22.882 25.7825L22.892 25.7128Z" fill="black"/>
<path d="M5.37729 23.4313C4.72901 23.4313 4.09528 23.6235 3.55626 23.9837C3.01723 24.3439 2.59711 24.8558 2.34902 25.4547C2.10093 26.0537 2.03602 26.7127 2.16249 27.3485C2.28897 27.9844 2.60115 28.5684 3.05955 29.0268C3.51796 29.4852 4.102 29.7974 4.73783 29.9239C5.37366 30.0504 6.03271 29.9854 6.63165 29.7374C7.23058 29.4893 7.7425 29.0691 8.10267 28.5301C8.46284 27.9911 8.65508 27.3574 8.65508 26.7091C8.65639 26.2783 8.57251 25.8514 8.40825 25.4532C8.24399 25.0549 8.0026 24.693 7.69797 24.3884C7.39334 24.0838 7.03147 23.8424 6.6332 23.6781C6.23493 23.5139 5.80811 23.43 5.37729 23.4313ZM5.37729 28.4825C5.02416 28.4825 4.67897 28.3776 4.38549 28.1812C4.09201 27.9848 3.86344 27.7057 3.72876 27.3793C3.59408 27.0528 3.55935 26.6937 3.62897 26.3475C3.69859 26.0013 3.86943 25.6836 4.11984 25.4346C4.37024 25.1856 4.68894 25.0165 5.03553 24.9488C5.38212 24.8811 5.741 24.9179 6.06668 25.0544C6.39237 25.1909 6.6702 25.421 6.86495 25.7156C7.05971 26.0102 7.16262 26.3559 7.16065 26.7091C7.16065 26.9428 7.11445 27.1742 7.02471 27.39C6.93496 27.6058 6.80345 27.8018 6.63771 27.9666C6.47198 28.1314 6.27531 28.2618 6.059 28.3503C5.84269 28.4389 5.61102 28.4838 5.37729 28.4825Z" fill="black"/>
</svg>
