<svg width="32" height="32" viewBox="0 0 32 32" fill="none" xmlns="http://www.w3.org/2000/svg">
<path d="M16.2613 30.0005C16.165 29.9987 16.0699 29.9783 15.9813 29.9405C15.8445 29.8846 15.7275 29.789 15.6456 29.666C15.5636 29.543 15.5203 29.3983 15.5213 29.2505V17.8205L10.2213 23.1205C10.0752 23.214 9.9012 23.254 9.72894 23.2336C9.55668 23.2133 9.39679 23.1338 9.27652 23.0089C9.15624 22.8839 9.08301 22.721 9.0693 22.5481C9.05558 22.3752 9.10223 22.2029 9.20129 22.0605L15.2613 16.0005L9.20129 9.94049C9.06881 9.79831 8.99669 9.61027 9.00012 9.41596C9.00355 9.22166 9.08226 9.03628 9.21967 8.89887C9.35708 8.76145 9.54247 8.68274 9.73677 8.67931C9.93107 8.67588 10.1191 8.74801 10.2613 8.88049L15.5613 14.1805L15.5113 2.75049C15.5111 2.60153 15.5558 2.45599 15.6397 2.33288C15.7236 2.20977 15.8426 2.11484 15.9813 2.06049C16.1182 2.00146 16.2697 1.98515 16.416 2.0137C16.5623 2.04225 16.6966 2.11432 16.8013 2.22049L23.4613 8.87049C23.6017 9.01111 23.6806 9.20174 23.6806 9.40049C23.6806 9.59924 23.6017 9.78986 23.4613 9.93049L17.3813 16.0005L23.4513 22.0705C23.5917 22.2111 23.6706 22.4017 23.6706 22.6005C23.6706 22.7992 23.5917 22.9899 23.4513 23.1305L16.7913 29.7805C16.6508 29.9212 16.4601 30.0003 16.2613 30.0005ZM17.0613 17.8105V27.4305L21.8913 22.6005L17.0613 17.8105ZM16.9813 4.57049V14.1905L21.8513 9.40049L16.9813 4.57049Z" fill="black"/>
</svg>
