<svg width="32" height="32" viewBox="0 0 32 32" fill="none" xmlns="http://www.w3.org/2000/svg">
<path fill-rule="evenodd" clip-rule="evenodd" d="M17.7573 6.60564L23.9253 11.328H29.2321C29.6464 11.328 29.9821 11.6638 29.9821 12.078V19.678C29.9821 20.0922 29.6464 20.428 29.2321 20.428H23.9831L17.756 25.1956C17.7494 25.2007 17.7427 25.2056 17.736 25.2104C15.8882 26.5303 13.25 25.369 13.25 23.0001V8.80011C13.25 6.44029 15.9944 5.25037 17.7573 6.60564ZM24.3821 18.928H28.4821V12.828H24.3821V18.928ZM22.8821 12.4185V19.3817L16.8549 23.9964C15.9044 24.6658 14.75 24.0279 14.75 23.0001V8.80011C14.75 7.76023 16.0057 7.15069 16.8428 7.79457L16.8441 7.79561L22.8821 12.4185ZM6.50882 7.00896C6.22774 7.1274 6.04638 7.40426 6.0501 7.70925L6.12806 14.102L3.33362 11.273C3.04253 10.9784 2.56767 10.9754 2.27298 11.2665C1.9783 11.5576 1.97538 12.0325 2.26648 12.3272L5.79584 15.9001L2.26648 19.473C1.97538 19.7677 1.9783 20.2426 2.27298 20.5337C2.56767 20.8248 3.04253 20.8219 3.33362 20.5272L6.12806 17.6982L6.0501 24.091C6.04638 24.396 6.22774 24.6728 6.50882 24.7913C6.78989 24.9097 7.1147 24.8461 7.33038 24.6304L11.4304 20.5304C11.722 20.2388 11.7235 19.7664 11.4336 19.473L7.90426 15.9001L11.4336 12.3272C11.7235 12.0338 11.722 11.5614 11.4304 11.2698L7.33038 7.16978C7.1147 6.9541 6.78989 6.89052 6.50882 7.00896ZM7.62749 17.7544L9.84263 19.9969L7.57246 22.267L7.62749 17.7544ZM7.62749 14.0458L9.84263 11.8034L7.57246 9.53318L7.62749 14.0458Z" fill="black"/>
</svg>
