<svg width="32" height="32" viewBox="0 0 32 32" fill="none" xmlns="http://www.w3.org/2000/svg">
<path d="M2.77574 28.362C2.85509 28.3764 2.9364 28.3764 3.01574 28.362L10.1257 25.952C10.5359 25.8158 10.909 25.5864 11.2157 25.282L27.4457 9.04199C27.7052 8.78368 27.911 8.47669 28.0515 8.13862C28.1919 7.80055 28.2642 7.43807 28.2642 7.07199C28.2642 6.7059 28.1919 6.34342 28.0515 6.00535C27.911 5.66728 27.7052 5.36029 27.4457 5.10199L26.8957 4.55199L28.0257 3.40199C28.1245 3.34583 28.2092 3.26797 28.2735 3.17428C28.3378 3.08059 28.3799 2.97352 28.3968 2.86116C28.4136 2.7488 28.4047 2.63408 28.3707 2.52567C28.3367 2.41726 28.2786 2.31798 28.2006 2.23533C28.1226 2.15269 28.0269 2.08884 27.9207 2.04861C27.8144 2.00837 27.7004 1.9928 27.5872 2.00307C27.4741 2.01334 27.3648 2.04919 27.2675 2.1079C27.1702 2.16661 27.0876 2.24665 27.0257 2.34199L25.8357 3.49199L25.2857 2.94199C25.0274 2.68256 24.7204 2.47672 24.3824 2.33626C24.0443 2.1958 23.6818 2.12349 23.3157 2.12349C22.9497 2.12349 22.5872 2.1958 22.2491 2.33626C21.911 2.47672 21.604 2.68256 21.3457 2.94199L20.0857 4.20199L19.9257 4.04199C19.2086 3.33177 18.2401 2.93336 17.2307 2.93336C16.2214 2.93336 15.2529 3.33177 14.5357 4.04199L10.6357 7.95199C10.565 8.02093 10.5088 8.10335 10.4704 8.19437C10.432 8.2854 10.4122 8.38319 10.4122 8.48199C10.4122 8.58078 10.432 8.67857 10.4704 8.7696C10.5088 8.86062 10.565 8.94304 10.6357 9.01199C10.7763 9.15268 10.9669 9.23181 11.1657 9.23199C11.3637 9.22768 11.5529 9.14916 11.6957 9.01199L15.5957 5.12199C16.0365 4.70199 16.6219 4.4677 17.2307 4.4677C17.8396 4.4677 18.425 4.70199 18.8657 5.12199L19.0157 5.28199L5.10574 19.172C4.80269 19.4798 4.57358 19.8526 4.43574 20.262L2.02574 27.372C1.98993 27.5051 1.99151 27.6456 2.03032 27.7779C2.06914 27.9102 2.14367 28.0293 2.24574 28.122C2.38423 28.2682 2.57449 28.3544 2.77574 28.362ZM22.4057 4.00199C22.5248 3.88165 22.6665 3.78612 22.8227 3.72092C22.9789 3.65572 23.1465 3.62215 23.3157 3.62215C23.485 3.62215 23.6526 3.65572 23.8088 3.72092C23.965 3.78612 24.1067 3.88165 24.2257 4.00199L26.3857 6.12199C26.5073 6.24032 26.6039 6.38182 26.6699 6.53811C26.7359 6.69441 26.7699 6.86234 26.7699 7.03199C26.7699 7.20163 26.7359 7.36956 26.6699 7.52586C26.6039 7.68215 26.5073 7.82365 26.3857 7.94199L19.3857 14.992L15.3857 10.992L22.4057 4.00199ZM14.2957 12.122L18.2957 16.122L10.2957 24.062L6.29574 20.062L14.2957 12.122ZM5.62574 21.442L8.94574 24.762L3.94574 26.432L5.62574 21.442Z" fill="black"/>
<path d="M29.2757 29.122H2.77574C2.57683 29.122 2.38607 29.201 2.24541 29.3417C2.10476 29.4823 2.02574 29.6731 2.02574 29.872C2.02574 30.0709 2.10476 30.2617 2.24541 30.4023C2.38607 30.543 2.57683 30.622 2.77574 30.622H29.2757C29.4747 30.622 29.6654 30.543 29.8061 30.4023C29.9467 30.2617 30.0257 30.0709 30.0257 29.872C30.0257 29.6731 29.9467 29.4823 29.8061 29.3417C29.6654 29.201 29.4747 29.122 29.2757 29.122Z" fill="black"/>
</svg>
