<svg width="32" height="32" viewBox="0 0 32 32" fill="none" xmlns="http://www.w3.org/2000/svg">
<path d="M29.7752 28.7L22.0821 21C23.8805 19 24.9795 16.3 24.9795 13.4C24.9795 7.2 19.7841 2 13.4897 2C7.19536 2 2 7.2 2 13.5C2 19.8 7.19536 25 13.4897 25C16.3872 25 18.9848 23.9 21.083 22.1L28.7761 29.8C28.876 29.9 29.0758 30 29.2756 30C29.4755 30 29.6753 29.9 29.7752 29.8C30.0749 29.5 30.0749 29 29.7752 28.7ZM13.4897 23.5C7.99465 23.5 3.49866 19 3.49866 13.5C3.49866 8 7.99465 3.5 13.4897 3.5C18.9848 3.5 23.4808 8 23.4808 13.5C23.4808 19 18.9848 23.5 13.4897 23.5Z" fill="black"/>
<path d="M17.8858 12.7H8.99376C8.59411 12.7 8.19447 13 8.19447 13.5C8.19447 14 8.4942 14.3 8.99376 14.3H17.8858C18.2855 14.3 18.6851 14 18.6851 13.5C18.6851 13 18.2855 12.7 17.8858 12.7Z" fill="black"/>
</svg>
