<svg width="32" height="32" viewBox="0 0 32 32" fill="none" xmlns="http://www.w3.org/2000/svg">
<path d="M23.2524 15.5C26.9811 15.5 30 12.47 30 8.75C30 5.02 26.9811 2 23.2524 2C19.5237 2 16.5048 5.02 16.5048 8.75C16.5048 12.47 19.5237 15.5 23.2524 15.5ZM20.7733 6.26C20.7733 5.86 21.2031 5.6 21.553 5.8L26.0514 8.28C26.4113 8.48 26.4113 9.01 26.0514 9.21L21.553 11.7C21.2031 11.89 20.7733 11.64 20.7733 11.23V6.26Z" fill="black"/>
<path d="M29.2403 15.71C28.8304 15.71 28.4905 16.05 28.4905 16.46V26.25C28.4905 26.88 28.2306 27.45 27.8108 27.86L21.703 19.04C21.563 18.83 21.3131 18.71 21.0632 18.72C20.8133 18.73 20.5734 18.86 20.4434 19.08L17.0446 24.68L9.46733 12.79C9.33738 12.58 9.09747 12.45 8.84755 12.44C8.58765 12.42 8.35773 12.56 8.21778 12.76L3.49946 19.52V5.75C3.49946 4.51 4.5091 3.5 5.74866 3.5H15.5352C15.945 3.5 16.2849 3.16 16.2849 2.75C16.2849 2.34 15.945 2 15.5352 2H5.74866C3.6794 2 2 3.68 2 5.75V26.25C2 28.32 3.6794 30 5.74866 30H26.2413C26.8111 30 27.3509 29.86 27.8408 29.63C27.9107 29.61 27.9907 29.58 28.0607 29.53C28.0707 29.52 28.0807 29.51 28.0907 29.5C29.2203 28.85 29.99 27.65 29.99 26.26V16.47C29.99 16.05 29.6501 15.71 29.2403 15.71ZM5.74866 28.5C4.5091 28.5 3.49946 27.49 3.49946 26.25V22.14L8.80757 14.54L16.4448 26.49C16.5848 26.71 16.8547 26.86 17.0846 26.84C17.3445 26.84 17.5844 26.7 17.7144 26.48L21.1332 20.84L26.4213 28.48C26.3613 28.48 26.3013 28.5 26.2413 28.5H5.74866Z" fill="black"/>
</svg>
