<svg width="32" height="32" viewBox="0 0 32 32" fill="none" xmlns="http://www.w3.org/2000/svg">
<path d="M26.24 15.89L29.78 12.34C30.07 12.05 30.07 11.57 29.78 11.28L25.67 7.17C25.45 6.95 25.13 6.89 24.85 7.01C24.57 7.13 24.39 7.4 24.39 7.71L24.42 14.08L21.64 11.3C21.35 11.01 20.87 11.01 20.58 11.3C20.29 11.59 20.29 12.07 20.58 12.36L24.12 15.9L20.58 19.44C20.29 19.73 20.29 20.21 20.58 20.5C20.87 20.79 21.35 20.79 21.64 20.5L24.42 17.72L24.39 24.09C24.39 24.39 24.57 24.67 24.85 24.79C24.94 24.83 25.04 24.85 25.14 24.85C25.34 24.85 25.53 24.77 25.67 24.63L29.78 20.52C30.07 20.23 30.07 19.75 29.78 19.46L26.24 15.89ZM28.19 11.81L25.92 14.08L25.9 9.52L28.19 11.81ZM25.9 22.25L25.92 17.69L28.19 19.96L25.9 22.25Z" fill="black"/>
<path d="M17.24 6.29C16.28 5.82 15.16 5.92 14.31 6.57L8.07 11.33H2.75C2.34 11.33 2 11.67 2 12.08V19.69C2 20.1 2.34 20.44 2.75 20.44H8.07L14.32 25.2C14.82 25.58 15.41 25.77 16.01 25.77C16.43 25.77 16.86 25.67 17.25 25.48C18.21 25.01 18.8 24.05 18.8 22.98V8.79C18.79 7.72 18.2 6.77 17.24 6.29ZM7.57 18.94H3.5V12.83H7.57V18.94ZM17.29 22.98C17.29 23.48 17.02 23.91 16.57 24.13C16.12 24.35 15.62 24.3 15.22 24L9.07 19.31V12.45L15.22 7.76C15.62 7.46 16.13 7.41 16.57 7.63C17.02 7.85 17.29 8.28 17.29 8.78V22.98Z" fill="black"/>
</svg>
