<svg width="32" height="32" viewBox="0 0 32 32" fill="none" xmlns="http://www.w3.org/2000/svg">
<path d="M27.25 2H4.75C4.02065 2 3.32118 2.28973 2.80546 2.80546C2.28973 3.32118 2 4.02065 2 4.75V21.13C2 21.8593 2.28973 22.5588 2.80546 23.0745C3.32118 23.5903 4.02065 23.88 4.75 23.88H9.37V29.25C9.37 29.4489 9.44902 29.6397 9.58967 29.7803C9.73032 29.921 9.92109 30 10.12 30C10.3189 30 10.5097 29.921 10.6503 29.7803C10.791 29.6397 10.87 29.4489 10.87 29.25V23.88H21.13V29.25C21.13 29.4489 21.209 29.6397 21.3497 29.7803C21.4903 29.921 21.6811 30 21.88 30C22.0789 30 22.2697 29.921 22.4103 29.7803C22.551 29.6397 22.63 29.4489 22.63 29.25V23.88H27.25C27.9793 23.88 28.6788 23.5903 29.1945 23.0745C29.7103 22.5588 30 21.8593 30 21.13V4.75C30 4.02065 29.7103 3.32118 29.1945 2.80546C28.6788 2.28973 27.9793 2 27.25 2ZM28.5 21.13C28.5 21.4615 28.3683 21.7795 28.1339 22.0139C27.8995 22.2483 27.5815 22.38 27.25 22.38H4.75C4.41848 22.38 4.10054 22.2483 3.86612 22.0139C3.6317 21.7795 3.5 21.4615 3.5 21.13V4.75C3.5 4.41848 3.6317 4.10054 3.86612 3.86612C4.10054 3.6317 4.41848 3.5 4.75 3.5H9.37V5.06H7.94C7.74109 5.06 7.55032 5.13902 7.40967 5.27967C7.26902 5.42032 7.19 5.61109 7.19 5.81C7.19 6.00891 7.26902 6.19968 7.40967 6.34033C7.55032 6.48098 7.74109 6.56 7.94 6.56H12.29C12.4889 6.56 12.6797 6.48098 12.8203 6.34033C12.961 6.19968 13.04 6.00891 13.04 5.81C13.04 5.61109 12.961 5.42032 12.8203 5.27967C12.6797 5.13902 12.4889 5.06 12.29 5.06H10.87V3.5H21.13V5.06H19.71C19.5111 5.06 19.3203 5.13902 19.1797 5.27967C19.039 5.42032 18.96 5.61109 18.96 5.81C18.96 6.00891 19.039 6.19968 19.1797 6.34033C19.3203 6.48098 19.5111 6.56 19.71 6.56H24.06C24.2589 6.56 24.4497 6.48098 24.5903 6.34033C24.731 6.19968 24.81 6.00891 24.81 5.81C24.81 5.61109 24.731 5.42032 24.5903 5.27967C24.4497 5.13902 24.2589 5.06 24.06 5.06H22.63V3.5H27.25C27.5815 3.5 27.8995 3.6317 28.1339 3.86612C28.3683 4.10054 28.5 4.41848 28.5 4.75V21.13Z" fill="black"/>
<path d="M21.86 13.13C21.684 12.1904 21.286 11.3064 20.6992 10.5517C20.1124 9.79703 19.3538 9.19349 18.4865 8.79135C17.6192 8.38921 16.6684 8.20013 15.7133 8.23984C14.7581 8.27956 13.8263 8.54693 12.9954 9.01968C12.1645 9.49243 11.4586 10.1569 10.9365 10.9577C10.4144 11.7585 10.0912 12.6724 9.99378 13.6234C9.89639 14.5744 10.0277 15.5349 10.3766 16.4249C10.7256 17.3149 11.2822 18.1087 12 18.74C12.8613 19.5104 13.9267 20.0157 15.0682 20.1951C16.2097 20.3746 17.3788 20.2206 18.4349 19.7517C19.491 19.2828 20.3892 18.5189 21.0217 17.5518C21.6541 16.5847 21.9938 15.4555 22 14.3C22.0007 13.9102 21.9605 13.5214 21.88 13.14L21.86 13.13ZM20.17 12.7L16.75 13.38V9.9C17.5135 10.0312 18.2299 10.3581 18.8293 10.8489C19.4288 11.3396 19.8907 11.9774 20.17 12.7ZM11.52 14.3C11.524 13.2448 11.9003 12.2248 12.5827 11.4198C13.265 10.6149 14.2096 10.0767 15.25 9.9V14L12.53 17.08C11.8848 16.2964 11.5282 15.315 11.52 14.3ZM16 18.77C15.1679 18.7717 14.3526 18.5358 13.65 18.09L16.39 15L20.46 14.2C20.46 14.2 20.46 14.28 20.46 14.32C20.4521 15.4995 19.9794 16.6283 19.1444 17.4614C18.3094 18.2946 17.1795 18.7648 16 18.77Z" fill="black"/>
</svg>
