<svg width="32" height="32" viewBox="0 0 32 32" fill="none" xmlns="http://www.w3.org/2000/svg">
<path fill-rule="evenodd" clip-rule="evenodd" d="M28.0502 2.15252C28.3807 2.40295 28.4453 2.87343 28.1944 3.20337L21.8831 11.5034C21.7508 11.6774 21.5491 11.7851 21.3306 11.7985C21.1122 11.8119 20.8988 11.7295 20.7462 11.5729L17.1397 7.87294C16.8504 7.57606 16.8569 7.10123 17.1543 6.81237C17.4517 6.52352 17.9274 6.53003 18.2167 6.8269L21.2142 9.90212L26.9975 2.29647C27.2484 1.96654 27.7197 1.90209 28.0502 2.15252ZM2.00024 2.74992C2.00024 2.33571 2.33663 1.99992 2.75159 1.99992H11.968C12.383 1.99992 12.7194 2.33571 12.7194 2.74992V29.2499C12.7194 29.6641 12.383 29.9999 11.968 29.9999H2.75159C2.33663 29.9999 2.00024 29.6641 2.00024 29.2499V2.74992ZM3.50293 16.6999V28.4999H11.2167V16.6999H3.50293ZM11.2167 15.1999H3.50293V3.49992H11.2167V15.1999ZM15.2739 15.9499C15.2739 15.5357 15.6103 15.1999 16.0253 15.1999H29.2489C29.6639 15.1999 30.0002 15.5357 30.0002 15.9499V29.1499C30.0002 29.5641 29.6639 29.8999 29.2489 29.8999H16.0253C15.6103 29.8999 15.2739 29.5641 15.2739 29.1499V15.9499ZM23.3383 28.3999H28.4976V16.6999H23.3383V28.3999ZM21.8357 16.6999V28.3999H16.7766V16.6999H21.8357Z" fill="black"/>
</svg>
