<svg width="32" height="32" viewBox="0 0 32 32" fill="none" xmlns="http://www.w3.org/2000/svg">
<path fill-rule="evenodd" clip-rule="evenodd" d="M16.0393 13.7299L12.655 19.5467H19.3179L16.0393 13.7299ZM10.9628 4.31728L2.07895 19.9698C1.97319 20.1813 1.97319 20.3928 2.07895 20.6043L6.52088 28.3248C6.62664 28.4306 6.62664 28.5364 6.7324 28.5364C6.83816 28.6421 6.94392 28.6421 7.04968 28.6421H24.9231C25.1347 28.6421 25.3462 28.5364 25.4519 28.3248L29.8939 20.4986C29.9996 20.3928 29.9996 20.2871 29.9996 20.1813C29.9996 20.0755 29.9996 19.9698 29.8939 19.864L21.01 4.31728C20.9043 4.10576 20.6927 4 20.4812 4H11.4916C11.3858 4 11.2801 4 11.1743 4.10576C11.1743 4.10576 11.0686 4.21152 10.9628 4.31728ZM28.3075 20.9216H12.1262L8.10728 27.4788H24.5001L28.3075 20.9216ZM3.34808 20.2871L11.4916 5.90368L15.1932 12.5666L7.04968 26.8442L3.34808 20.2871ZM20.7985 19.6525H28.3075L20.0582 5.26912H12.5492L20.7985 19.6525Z" fill="black"/>
</svg>
