<svg width="32" height="32" viewBox="0 0 32 32" fill="none" xmlns="http://www.w3.org/2000/svg">
<path fill-rule="evenodd" clip-rule="evenodd" d="M2.80546 11.9255C3.32118 11.4097 4.02065 11.12 4.75 11.12H13.88C14.2942 11.12 14.63 11.4558 14.63 11.87C14.63 12.2842 14.2942 12.62 13.88 12.62H4.75C4.41848 12.62 4.10054 12.7517 3.86612 12.9861C3.6317 13.2205 3.5 13.5385 3.5 13.87V24.14C3.5 24.4715 3.6317 24.7895 3.86612 25.0239C4.10054 25.2583 4.41848 25.39 4.75 25.39H18.08C18.4115 25.39 18.7295 25.2583 18.9639 25.0239C19.1983 24.7895 19.33 24.4715 19.33 24.14V21C19.33 20.7046 19.5034 20.4368 19.7728 20.3158C20.0423 20.1948 20.3577 20.2433 20.5784 20.4396L26.3584 25.5795C26.3664 25.5867 26.3743 25.594 26.3821 25.6015C26.562 25.776 26.7902 25.8923 27.037 25.9355C27.2839 25.9786 27.538 25.9465 27.7664 25.8435C27.9948 25.7404 28.187 25.571 28.318 25.3574C28.4489 25.1437 28.5126 24.8956 28.5008 24.6453C28.5003 24.6335 28.5 24.6218 28.5 24.61V18.71C28.5 18.2958 28.8358 17.96 29.25 17.96C29.6642 17.96 30 18.2958 30 18.71V24.5938C30.0219 25.138 29.8816 25.6766 29.5968 26.1412C29.3087 26.6113 28.886 26.9839 28.3835 27.2107C27.881 27.4375 27.3219 27.508 26.7788 27.4131C26.2415 27.3192 25.7443 27.0676 25.3505 26.6906L20.83 22.6706V24.14C20.83 24.8693 20.5403 25.5688 20.0245 26.0845C19.5088 26.6003 18.8093 26.89 18.08 26.89H4.75C4.02066 26.89 3.32118 26.6003 2.80546 26.0845C2.28973 25.5688 2 24.8693 2 24.14V13.87C2 13.1407 2.28973 12.4412 2.80546 11.9255Z" fill="black"/>
<path d="M6.1 24.1C6.82349 24.1 7.41 23.5135 7.41 22.79C7.41 22.0665 6.82349 21.48 6.1 21.48C5.37651 21.48 4.79 22.0665 4.79 22.79C4.79 23.5135 5.37651 24.1 6.1 24.1Z" fill="black"/>
<path d="M23.19 5C21.855 5 20.5499 5.39588 19.4399 6.13758C18.3299 6.87928 17.4647 7.93349 16.9538 9.16689C16.4429 10.4003 16.3092 11.7575 16.5697 13.0669C16.8301 14.3762 17.473 15.579 18.417 16.523C19.361 17.467 20.5638 18.1098 21.8731 18.3703C23.1825 18.6308 24.5397 18.4971 25.7731 17.9862C27.0065 17.4753 28.0607 16.6101 28.8024 15.5001C29.5441 14.3901 29.94 13.085 29.94 11.75C29.9374 9.9606 29.2253 8.24525 27.96 6.97995C26.6948 5.71465 24.9794 5.00265 23.19 5ZM26.29 12C26.1494 12.1405 25.9588 12.2193 25.76 12.2193C25.5612 12.2193 25.3706 12.1405 25.23 12L23.94 10.67V14.67C23.94 14.8689 23.861 15.0597 23.7203 15.2003C23.5797 15.341 23.3889 15.42 23.19 15.42C22.9911 15.42 22.8003 15.341 22.6597 15.2003C22.519 15.0597 22.44 14.8689 22.44 14.67V10.67L21.16 12C21.0194 12.1405 20.8288 12.2193 20.63 12.2193C20.4312 12.2193 20.2406 12.1405 20.1 12C20.0292 11.9311 19.973 11.8486 19.9346 11.7576C19.8962 11.6666 19.8764 11.5688 19.8764 11.47C19.8764 11.3712 19.8962 11.2734 19.9346 11.1824C19.973 11.0914 20.0292 11.0089 20.1 10.94L22.66 8.37C22.7294 8.30221 22.8107 8.24795 22.9 8.21C23.087 8.14025 23.293 8.14025 23.48 8.21C23.5693 8.24795 23.6506 8.30221 23.72 8.37L26.29 10.9C26.3657 10.9702 26.4261 11.0553 26.4675 11.1499C26.5088 11.2446 26.5301 11.3467 26.5301 11.45C26.5301 11.5533 26.5088 11.6554 26.4675 11.7501C26.4261 11.8447 26.3657 11.9298 26.29 12Z" fill="black"/>
</svg>
