<svg width="32" height="32" viewBox="0 0 32 32" fill="none" xmlns="http://www.w3.org/2000/svg">
<path d="M18.62 15.46C17.2205 15.4626 15.879 16.0198 14.8894 17.0094C13.8998 17.999 13.3426 19.3405 13.34 20.74V22.61C13.3426 22.8081 13.4224 22.9974 13.5625 23.1375C13.7026 23.2776 13.8919 23.3574 14.09 23.36H23.15C23.3489 23.36 23.5397 23.281 23.6803 23.1403C23.821 22.9997 23.9 22.8089 23.9 22.61V20.74C23.9 19.3397 23.3437 17.9967 22.3535 17.0065C21.3633 16.0163 20.0203 15.46 18.62 15.46ZM22.4 21.86H14.84V20.74C14.84 19.7375 15.2382 18.776 15.9471 18.0671C16.656 17.3582 17.6175 16.96 18.62 16.96C19.6225 16.96 20.584 17.3582 21.2929 18.0671C22.0018 18.776 22.4 19.7375 22.4 20.74V21.86Z" fill="black"/>
<path d="M18.62 15.1C19.2593 15.102 19.8847 14.9142 20.4172 14.5605C20.9497 14.2068 21.3652 13.703 21.6113 13.113C21.8573 12.523 21.9226 11.8732 21.7992 11.246C21.6757 10.6188 21.3688 10.0423 20.9175 9.5896C20.4662 9.13688 19.8907 8.82826 19.2638 8.70281C18.637 8.57737 17.987 8.64075 17.3963 8.88492C16.8055 9.1291 16.3004 9.54309 15.9451 10.0745C15.5897 10.6059 15.4 11.2307 15.4 11.87C15.4 12.7249 15.7389 13.545 16.3425 14.1504C16.9461 14.7559 17.7651 15.0974 18.62 15.1ZM18.62 10.15C18.963 10.148 19.2989 10.2481 19.5849 10.4374C19.8709 10.6267 20.0942 10.8968 20.2264 11.2133C20.3585 11.5298 20.3936 11.8785 20.3272 12.215C20.2608 12.5515 20.0958 12.8607 19.8533 13.1033C19.6107 13.3458 19.3015 13.5108 18.965 13.5772C18.6285 13.6436 18.2798 13.6085 17.9633 13.4764C17.6468 13.3442 17.3767 13.1209 17.1874 12.8349C16.9981 12.5489 16.898 12.213 16.9 11.87C16.9 11.4138 17.0812 10.9763 17.4038 10.6538C17.7263 10.3312 18.1638 10.15 18.62 10.15Z" fill="black"/>
<path d="M26.25 2H5.81C5.61109 2 5.42032 2.07902 5.27967 2.21967C5.13902 2.36032 5.06 2.55109 5.06 2.75V6.94H2.75C2.55109 6.94 2.36032 7.01902 2.21967 7.15967C2.07902 7.30032 2 7.49109 2 7.69C2 7.88891 2.07902 8.07968 2.21967 8.22033C2.36032 8.36098 2.55109 8.44 2.75 8.44H5.06V12.44H2.75C2.55109 12.44 2.36032 12.519 2.21967 12.6597C2.07902 12.8003 2 12.9911 2 13.19C2 13.3889 2.07902 13.5797 2.21967 13.7203C2.36032 13.861 2.55109 13.94 2.75 13.94H5.06V17.94H2.75C2.55109 17.94 2.36032 18.019 2.21967 18.1597C2.07902 18.3003 2 18.4911 2 18.69C2 18.8889 2.07902 19.0797 2.21967 19.2203C2.36032 19.361 2.55109 19.44 2.75 19.44H5.06V23.44H2.75C2.55109 23.44 2.36032 23.519 2.21967 23.6597C2.07902 23.8003 2 23.9911 2 24.19C2 24.3889 2.07902 24.5797 2.21967 24.7203C2.36032 24.861 2.55109 24.94 2.75 24.94H5.06V29.13C5.06 29.3289 5.13902 29.5197 5.27967 29.6603C5.42032 29.801 5.61109 29.88 5.81 29.88H26.25C27.2241 29.8805 28.1602 29.5019 28.8601 28.8244C29.56 28.1469 29.9688 27.2236 30 26.25V5.75C30 4.75544 29.6049 3.80161 28.9017 3.09835C28.1984 2.39509 27.2446 2 26.25 2ZM28.5 26.25C28.5 26.8467 28.2629 27.419 27.841 27.841C27.419 28.2629 26.8467 28.5 26.25 28.5H6.56V25.06H8.81C9.00891 25.06 9.19968 24.981 9.34033 24.8403C9.48098 24.6997 9.56 24.5089 9.56 24.31C9.56 24.1111 9.48098 23.9203 9.34033 23.7797C9.19968 23.639 9.00891 23.56 8.81 23.56H6.56V19.56H8.81C9.00891 19.56 9.19968 19.481 9.34033 19.3403C9.48098 19.1997 9.56 19.0089 9.56 18.81C9.56 18.6111 9.48098 18.4203 9.34033 18.2797C9.19968 18.139 9.00891 18.06 8.81 18.06H6.56V14H8.81C9.00891 14 9.19968 13.921 9.34033 13.7803C9.48098 13.6397 9.56 13.4489 9.56 13.25C9.56 13.0511 9.48098 12.8603 9.34033 12.7197C9.19968 12.579 9.00891 12.5 8.81 12.5H6.56V8.5H8.81C9.00891 8.5 9.19968 8.42098 9.34033 8.28033C9.48098 8.13968 9.56 7.94891 9.56 7.75C9.56 7.55109 9.48098 7.36032 9.34033 7.21967C9.19968 7.07902 9.00891 7 8.81 7H6.56V3.5H26.25C26.8467 3.5 27.419 3.73705 27.841 4.15901C28.2629 4.58097 28.5 5.15326 28.5 5.75V26.25Z" fill="black"/>
</svg>
