<svg width="32" height="32" viewBox="0 0 32 32" fill="none" xmlns="http://www.w3.org/2000/svg">
<path fill-rule="evenodd" clip-rule="evenodd" d="M11.65 3.70108C11.5195 3.77472 11.38 3.88074 11.2303 4.03038L3.83034 11.4304C3.80525 11.4555 3.7784 11.4788 3.75001 11.5C3.70736 11.532 3.66347 11.5837 3.62287 11.65H10.4C11.0858 11.65 11.65 11.0858 11.65 10.4V3.70108ZM12.2 2.05005C11.4697 2.05005 10.7864 2.35298 10.1697 2.96972L2.80244 10.337C2.18129 10.8354 1.95001 11.6801 1.95001 12.3V26.3C1.95001 28.4143 3.6858 30.15 5.80001 30.15H26.2C28.3142 30.15 30.05 28.4143 30.05 26.3V5.90005C30.05 3.78584 28.3142 2.05005 26.2 2.05005H12.2ZM13.15 3.55005V10.4C13.15 11.9143 11.9142 13.15 10.4 13.15H3.45001V26.3C3.45001 27.5858 4.51423 28.65 5.80001 28.65H26.2C27.4858 28.65 28.55 27.5858 28.55 26.3V5.90005C28.55 4.61426 27.4858 3.55005 26.2 3.55005H13.15Z" fill="black"/>
</svg>
