<svg width="32" height="32" viewBox="0 0 32 32" fill="none" xmlns="http://www.w3.org/2000/svg">
<path d="M16.0285 24.0825C16.7441 24.0825 17.3243 23.5023 17.3243 22.7867C17.3243 22.071 16.7441 21.4908 16.0285 21.4908C15.3128 21.4908 14.7326 22.071 14.7326 22.7867C14.7326 23.5023 15.3128 24.0825 16.0285 24.0825Z" fill="black"/>
<path fill-rule="evenodd" clip-rule="evenodd" d="M16.0285 9.97766C16.4414 9.97766 16.7761 10.3124 16.7761 10.7253V18.5004C16.7761 18.9133 16.4414 19.248 16.0285 19.248C15.6156 19.248 15.2809 18.9133 15.2809 18.5004V10.7253C15.2809 10.3124 15.6156 9.97766 16.0285 9.97766Z" fill="black"/>
<path fill-rule="evenodd" clip-rule="evenodd" d="M17.3705 5.3103C16.7592 4.22352 15.2978 4.22352 14.6864 5.3103L14.6852 5.31253L3.72028 24.6506L3.71101 24.6665C3.12743 25.6391 3.82186 26.9234 5.06356 26.9234H26.9934C28.0992 26.9234 28.8655 25.6565 28.3314 24.6414L17.3717 5.31253L17.3705 5.3103ZM18.6731 4.5762C17.49 2.4746 14.567 2.4746 13.3838 4.5762L13.3832 4.57726L2.42385 23.9056C1.22235 25.922 2.72 28.4186 5.06356 28.4186H26.9934C29.2739 28.4186 30.6995 25.9041 29.6466 23.9301L29.6373 23.9131L18.6737 4.57726L18.6731 4.5762Z" fill="black"/>
</svg>
