<svg width="32" height="32" viewBox="0 0 32 32" fill="none" xmlns="http://www.w3.org/2000/svg">
<path d="M21.5 20.4C19.9 22.5 17.5 23.7 14.9 23.7C10.3 23.7 6.6 20 6.6 15.4V12.6C6.6 12.2 6.3 11.8 5.8 11.8C5.3 11.8 5 12.1 5 12.5V15.3C5 20.5 9 24.7 14.1 25.1V28.5H9.3C8.9 28.5 8.5 28.8 8.5 29.3C8.5 29.8 8.8 30 9.3 30H20.4C20.8 30 21.2 29.7 21.2 29.2C21.2 28.7 20.9 28.4 20.4 28.4H15.6V25C18.4 24.8 20.9 23.4 22.7 21.2C23 20.9 22.9 20.4 22.6 20.1C22.2 20 21.7 20.1 21.5 20.4Z" fill="black"/>
<path d="M14.5 21.6H15.2C15.8 21.6 16.3 21.5 16.8 21.4C17.2 21.3 17.4 20.9 17.3 20.5C17.2 20.1 16.8 19.9 16.4 20C16 20.1 15.6 20.2 15.2 20.2H14.5C12 20.2 10 18.2 10 15.7V8C10 5.5 12 3.5 14.5 3.5H15.2C15.9 3.5 16.6 3.7 17.3 4C17.7 4.2 18.1 4 18.3 3.7C18.5 3.3 18.3 2.9 18 2.7C17.1 2.2 16.1 2 15.2 2H14.5C11.2 2 8.5 4.7 8.5 8V15.6C8.5 18.9 11.2 21.6 14.5 21.6Z" fill="black"/>
<path d="M27.7 14.4L22.9 5.9C22.6 5.3 22 5 21.4 5C20.8 5 20.2 5.3 19.9 5.9L15 14.4C14.7 14.9 14.7 15.6 15 16.2C15.3 16.7 15.9 17.1 16.5 17.1H26.2C26.8 17.1 27.4 16.8 27.7 16.2C28 15.6 28 15 27.7 14.4ZM20.6 8.3C20.6 7.9 20.9 7.5 21.4 7.5C21.8 7.5 22.2 7.8 22.2 8.3V11.4C22.2 11.8 21.9 12.2 21.4 12.2C21 12.2 20.6 11.9 20.6 11.4V8.3ZM21.3 15.2C20.7 15.2 20.3 14.7 20.3 14.2C20.3 13.7 20.7 13.2 21.3 13.2C21.9 13.2 22.3 13.7 22.3 14.2C22.3 14.7 21.9 15.2 21.3 15.2Z" fill="black"/>
</svg>
