<svg width="32" height="32" viewBox="0 0 32 32" fill="none" xmlns="http://www.w3.org/2000/svg">
<path d="M27.86 10.79H22.5L23.75 3.81C23.92 2.87 23.19 2 22.23 2H21.86C21.11 2 20.48 2.53 20.34 3.27L19 10.79H14.26L15.51 3.81C15.68 2.87 14.95 2 13.99 2H13.62C12.87 2 12.24 2.53 12.1 3.27L10.76 10.79H4.85004C4.10004 10.79 3.47004 11.32 3.33004 12.06C3.16004 13 3.89004 13.87 4.85004 13.87H10.21L9.45004 18.12H3.54004C2.79004 18.12 2.16004 18.65 2.02004 19.39C1.85004 20.33 2.58004 21.2 3.54004 21.2H8.90004L7.65004 28.18C7.48004 29.13 8.21004 30 9.17004 30H9.54004C10.29 30 10.92 29.47 11.06 28.73L12.4 21.2H17.14L15.89 28.18C15.73 29.13 16.45 30 17.41 30H17.78C18.53 30 19.16 29.47 19.3 28.73L20.64 21.2H26.55C27.3 21.2 27.93 20.67 28.07 19.93C28.24 18.99 27.51 18.12 26.55 18.12H21.19L21.95 13.87H27.86C28.61 13.87 29.24 13.34 29.38 12.6C29.55 11.66 28.82 10.79 27.86 10.79ZM17.69 18.12H12.95L13.71 13.87H18.45L17.69 18.12Z" fill="black"/>
</svg>
