<svg width="32" height="32" viewBox="0 0 32 32" fill="none" xmlns="http://www.w3.org/2000/svg">
<path d="M22 16.4401C22 16.1001 22 15.7501 22 15.3801C22.0221 12.8727 21.4967 10.3906 20.4604 8.10728C19.4241 5.82394 17.9018 3.7943 16 2.16007C15.87 2.05871 15.7099 2.00366 15.545 2.00366C15.3802 2.00366 15.22 2.05871 15.09 2.16007C13.1882 3.7943 11.666 5.82394 10.6297 8.10728C9.59336 10.3906 9.06791 12.8727 9.09002 15.3801C9.09002 15.7501 9.09002 16.1001 9.09002 16.4401C4.98002 19.4401 6.09002 24.8401 6.09002 25.0801C6.11432 25.1936 6.165 25.2999 6.23796 25.3902C6.31092 25.4805 6.40412 25.5524 6.51002 25.6001C6.60977 25.648 6.71935 25.672 6.83002 25.6701C6.94771 25.6675 7.06354 25.6403 7.17002 25.5901L11.76 23.2101H19.21L23.8 25.5901C23.9065 25.6403 24.0223 25.6675 24.14 25.6701C24.2538 25.6711 24.3664 25.6472 24.47 25.6001C24.5736 25.5506 24.6644 25.4779 24.7355 25.3878C24.8066 25.2976 24.856 25.1923 24.88 25.0801C25 24.8401 26.07 19.4401 22 16.4401ZM15.56 3.75007C16.5245 4.67676 17.3678 5.72172 18.07 6.86007H13.07C13.7628 5.72061 14.5997 4.67531 15.56 3.75007ZM9.36002 18.2101C9.58675 19.5738 10.0432 20.8891 10.71 22.1001L7.51002 23.7601C7.41091 22.7569 7.52445 21.7441 7.84322 20.7878C8.162 19.8315 8.67884 18.9531 9.36002 18.2101ZM12.22 21.7101C11.0979 19.7938 10.5399 17.5996 10.61 15.3801C10.6092 12.9549 11.1598 10.5612 12.22 8.38007H18.9C19.9595 10.5611 20.5067 12.9553 20.5 15.3801C20.5702 17.5996 20.0121 19.7938 18.89 21.7101H12.22ZM23.6 23.7601L20.41 22.1001C21.0681 20.8862 21.5209 19.5718 21.75 18.2101C22.4312 18.9531 22.948 19.8315 23.2668 20.7878C23.5856 21.7441 23.6991 22.7569 23.6 23.7601Z" fill="black"/>
<path d="M15.56 10.9101C14.9667 10.9101 14.3867 11.086 13.8933 11.4157C13.4 11.7453 13.0154 12.2138 12.7884 12.762C12.5613 13.3102 12.5019 13.9134 12.6177 14.4953C12.7334 15.0773 13.0191 15.6118 13.4387 16.0314C13.8583 16.451 14.3928 16.7367 14.9747 16.8524C15.5567 16.9682 16.1599 16.9088 16.7081 16.6817C17.2562 16.4546 17.7248 16.0701 18.0544 15.5768C18.3841 15.0834 18.56 14.5034 18.56 13.9101C18.56 13.1144 18.2439 12.3514 17.6813 11.7888C17.1187 11.2261 16.3557 10.9101 15.56 10.9101ZM15.56 15.4601C15.2566 15.4621 14.9594 15.3737 14.7063 15.2064C14.4531 15.039 14.2555 14.8002 14.1384 14.5202C14.0214 14.2402 13.9902 13.9318 14.049 13.6341C14.1077 13.3363 14.2536 13.0628 14.4682 12.8482C14.6828 12.6337 14.9563 12.4877 15.254 12.429C15.5517 12.3703 15.8602 12.4014 16.1402 12.5185C16.4201 12.6355 16.659 12.8332 16.8263 13.0863C16.9937 13.3394 17.082 13.6366 17.08 13.9401C17.08 14.3432 16.9199 14.7298 16.6348 15.0149C16.3498 15.2999 15.9631 15.4601 15.56 15.4601Z" fill="black"/>
<path d="M15.56 24.7601C15.4612 24.7587 15.363 24.7772 15.2714 24.8144C15.1798 24.8516 15.0966 24.9068 15.0267 24.9767C14.9568 25.0467 14.9016 25.1299 14.8644 25.2215C14.8272 25.3131 14.8087 25.4112 14.81 25.5101V29.2501C14.81 29.449 14.889 29.6398 15.0297 29.7804C15.1703 29.9211 15.3611 30.0001 15.56 30.0001C15.7589 30.0001 15.9497 29.9211 16.0903 29.7804C16.231 29.6398 16.31 29.449 16.31 29.2501V25.5101C16.31 25.3112 16.231 25.1204 16.0903 24.9797C15.9497 24.8391 15.7589 24.7601 15.56 24.7601Z" fill="black"/>
<path d="M12.43 24.7601C12.3312 24.7587 12.233 24.7772 12.1414 24.8144C12.0498 24.8516 11.9666 24.9068 11.8967 24.9767C11.8268 25.0467 11.7716 25.1299 11.7344 25.2215C11.6972 25.3131 11.6787 25.4112 11.68 25.5101V27.8001C11.68 27.999 11.759 28.1898 11.8997 28.3304C12.0403 28.4711 12.2311 28.5501 12.43 28.5501C12.6289 28.5501 12.8197 28.4711 12.9603 28.3304C13.101 28.1898 13.18 27.999 13.18 27.8001V25.5101C13.18 25.3112 13.101 25.1204 12.9603 24.9797C12.8197 24.8391 12.6289 24.7601 12.43 24.7601Z" fill="black"/>
<path d="M18.68 24.7601C18.4811 24.7601 18.2903 24.8391 18.1497 24.9797C18.009 25.1204 17.93 25.3112 17.93 25.5101V27.8001C17.93 27.999 18.009 28.1898 18.1497 28.3304C18.2903 28.4711 18.4811 28.5501 18.68 28.5501C18.8789 28.5501 19.0697 28.4711 19.2103 28.3304C19.351 28.1898 19.43 27.999 19.43 27.8001V25.5101C19.4314 25.4112 19.4129 25.3131 19.3757 25.2215C19.3385 25.1299 19.2833 25.0467 19.2133 24.9767C19.1434 24.9068 19.0602 24.8516 18.9686 24.8144C18.877 24.7772 18.7789 24.7587 18.68 24.7601Z" fill="black"/>
</svg>
