<svg width="28" height="26" viewBox="0 0 28 26" fill="none" xmlns="http://www.w3.org/2000/svg">
<g clip-path="url(#clip0)">
<path d="M14 21.1C14.7235 21.1 15.31 20.5135 15.31 19.79C15.31 19.0665 14.7235 18.48 14 18.48C13.2765 18.48 12.69 19.0665 12.69 19.79C12.69 20.5135 13.2765 21.1 14 21.1Z" fill="black"/>
<path d="M14 16.21C14.1989 16.21 14.3897 16.131 14.5303 15.9903C14.671 15.8497 14.75 15.6589 14.75 15.46V7.7C14.75 7.50108 14.671 7.31032 14.5303 7.16967C14.3897 7.02902 14.1989 6.95 14 6.95C13.8011 6.95 13.6103 7.02902 13.4697 7.16967C13.329 7.31032 13.25 7.50108 13.25 7.7V15.46C13.25 15.6589 13.329 15.8497 13.4697 15.9903C13.6103 16.131 13.8011 16.21 14 16.21Z" fill="black"/>
<path d="M27.6 20.93L16.6 1.54C16.3416 1.07621 15.9648 0.689283 15.508 0.418728C15.0513 0.148173 14.5309 0.00367826 14 -3.21826e-06C13.4606 -0.00524564 12.9298 0.135023 12.4635 0.406037C11.9971 0.67705 11.6125 1.06878 11.35 1.54L0.399983 20.93C0.129051 21.3869 -0.0156941 21.9076 -0.019456 22.4388C-0.0232179 22.97 0.114138 23.4927 0.378572 23.9534C0.643005 24.4141 1.02503 24.7964 1.48561 25.0611C1.94618 25.3258 2.46878 25.4635 2.99998 25.46H25C25.5346 25.4707 26.0623 25.3383 26.5285 25.0765C26.9947 24.8147 27.3825 24.4331 27.6518 23.9711C27.921 23.5092 28.0619 22.9837 28.0598 22.449C28.0577 21.9143 27.9128 21.3899 27.64 20.93H27.6ZM26.29 23.2C26.1639 23.4347 25.9784 23.6321 25.752 23.7726C25.5256 23.913 25.2663 23.9914 25 24H2.99998C2.73086 24.0024 2.46592 23.9333 2.23225 23.7998C1.99857 23.6663 1.80454 23.4731 1.66998 23.24C1.53763 23.0068 1.46805 22.7432 1.46805 22.475C1.46805 22.2068 1.53763 21.9432 1.66998 21.71L12.67 2.32C12.7975 2.07642 12.9884 1.87172 13.2224 1.72742C13.4565 1.58312 13.7251 1.50456 14 1.5C14.2726 1.49885 14.5405 1.57055 14.7761 1.70769C15.0117 1.84482 15.2064 2.0424 15.34 2.28L26.34 21.67C26.4677 21.9066 26.5304 22.173 26.5217 22.4417C26.5129 22.7105 26.4329 22.9722 26.29 23.2Z" fill="black"/>
</g>
<defs>
<clipPath id="clip0">
<rect width="28" height="25.46" fill="white"/>
</clipPath>
</defs>
</svg>
