<svg xmlns="http://www.w3.org/2000/svg" viewBox="0 0 28 25.46"><defs><style>.cls-1{fill:#231f20;}</style></defs><g id="Layer_2" data-name="Layer 2"><g id="Layer_1-2" data-name="Layer 1"><path class="cls-1" d="M14,16.21a.75.75,0,0,0,.75-.75V7.7a.75.75,0,1,0-1.5,0v7.76A.75.75,0,0,0,14,16.21Z"/><path class="cls-1" d="M3,25.46H25a3,3,0,0,0,2.64-4.53l-11-19.39A3,3,0,0,0,14,0h0a3,3,0,0,0-2.65,1.54L.4,20.93A3,3,0,0,0,3,25.46ZM1.7,21.67l11-19.39A1.53,1.53,0,0,1,14,1.5h0a1.53,1.53,0,0,1,1.34.78l11,19.39A1.53,1.53,0,0,1,25,24H3a1.52,1.52,0,0,1-1.33-.76A1.55,1.55,0,0,1,1.7,21.67Z"/><circle class="cls-1" cx="14" cy="19.79" r="1.31"/></g></g></svg>