<svg width="28" height="26" viewBox="0 0 28 26" fill="none" xmlns="http://www.w3.org/2000/svg">
<g clip-path="url(#clip0)">
<path d="M14 16.21C14.1989 16.21 14.3897 16.131 14.5303 15.9903C14.671 15.8497 14.75 15.6589 14.75 15.46V7.7C14.75 7.50108 14.671 7.31032 14.5303 7.16967C14.3897 7.02902 14.1989 6.95 14 6.95C13.8011 6.95 13.6103 7.02902 13.4697 7.16967C13.329 7.31032 13.25 7.50108 13.25 7.7V15.46C13.25 15.6589 13.329 15.8497 13.4697 15.9903C13.6103 16.131 13.8011 16.21 14 16.21Z" fill="black"/>
<path d="M2.99998 25.46H25C25.5346 25.4707 26.0623 25.3383 26.5285 25.0765C26.9947 24.8147 27.3825 24.4331 27.6518 23.9711C27.921 23.5092 28.0619 22.9837 28.0598 22.449C28.0577 21.9143 27.9128 21.3899 27.64 20.93L16.64 1.54C16.3783 1.07028 15.9952 0.67952 15.5308 0.408599C15.0664 0.137678 14.5377 -0.00344482 14 -3.21826e-06C13.4606 -0.00524564 12.9298 0.135023 12.4635 0.406037C11.9971 0.67705 11.6125 1.06878 11.35 1.54L0.399983 20.93C0.129051 21.3869 -0.0156941 21.9076 -0.019456 22.4388C-0.0232179 22.97 0.114138 23.4927 0.378572 23.9534C0.643005 24.4141 1.02503 24.7964 1.48561 25.0611C1.94618 25.3258 2.46878 25.4635 2.99998 25.46ZM1.69998 21.67L12.7 2.28C12.8302 2.04825 13.0186 1.85444 13.2466 1.71766C13.4745 1.58088 13.7342 1.50587 14 1.5C14.2726 1.49885 14.5405 1.57055 14.7761 1.70769C15.0117 1.84482 15.2064 2.0424 15.34 2.28L26.34 21.67C26.4839 21.9045 26.562 22.1734 26.5659 22.4485C26.5698 22.7236 26.4995 22.9947 26.3624 23.2332C26.2252 23.4717 26.0263 23.6688 25.7865 23.8037C25.5467 23.9387 25.275 24.0065 25 24H2.99998C2.73086 24.0024 2.46592 23.9333 2.23225 23.7998C1.99857 23.6663 1.80454 23.4731 1.66998 23.24C1.53472 22.9993 1.46618 22.7269 1.47145 22.4509C1.47673 22.1749 1.55562 21.9053 1.69998 21.67Z" fill="black"/>
<path d="M14 21.1C14.7235 21.1 15.31 20.5135 15.31 19.79C15.31 19.0665 14.7235 18.48 14 18.48C13.2765 18.48 12.69 19.0665 12.69 19.79C12.69 20.5135 13.2765 21.1 14 21.1Z" fill="black"/>
</g>
<defs>
<clipPath id="clip0">
<rect width="28" height="25.46" fill="white"/>
</clipPath>
</defs>
</svg>
