<svg width="48" height="48" viewBox="0 0 48 48" fill="none" xmlns="http://www.w3.org/2000/svg">
<mask id="mask0" mask-type="alpha" maskUnits="userSpaceOnUse" x="0" y="0" width="48" height="48">
<circle cx="24" cy="24" r="24" fill="white"/>
</mask>
<g mask="url(#mask0)">
<rect width="157" height="88" transform="translate(-67 -9)" fill="white"/>
<path d="M-64.7332 44.996H-67V46.9504H-65.8666L-64.7332 44.996Z" fill="#DA291C"/>
<path d="M-24.3781 -9H-26.6363L-29.725 -3.67646L-32.8137 -9H-35.0719L-29.725 0.217412L-24.3781 -9Z" fill="#DA291C"/>
<path d="M-15.7247 -4.72163L-16.856 -2.76938H-7.80773L-11.4237 -9H-13.6819L-11.1995 -4.72163H-15.7247Z" fill="#DA291C"/>
<path d="M1.22332 5.01624L0.0942563 3.07037H-27.0184L-20.0151 -9H-22.2733L-30.4038 5.01624H1.22332Z" fill="#DA291C"/>
<path d="M10.4082 -9H8.14987L2.80294 0.217412L-2.54408 -9H-4.80242L2.80294 4.10916L10.4082 -9Z" fill="#DA291C"/>
<path d="M6.87134 5.15007L15.0807 -9H12.8223L4.61301 5.15007H6.87134Z" fill="#DA291C"/>
<path d="M5.89153 -9H3.6332L2.80294 -7.56821L1.9704 -9H-0.28783L2.80294 -3.67434L5.89153 -9Z" fill="#DA291C"/>
<path d="M-52.3146 33.1847H-67V35.1306H-51.1875L-52.3146 33.1847Z" fill="#DA291C"/>
<path d="M-67 15.6547V19.5465L-63.6104 25.3926H-67V27.347H-60.2186L-67 15.6547Z" fill="#DA291C"/>
<path d="M-67 7.87151V11.7633L-56.8312 29.2931H-67V31.239H-53.4437L-67 7.87151Z" fill="#DA291C"/>
<path d="M-61.5763 -9L-67 0.349119V4.24298L-59.3179 -9H-61.5763Z" fill="#DA291C"/>
<path d="M20.4276 53.6864L15.9024 61.4869H29.4694L20.4276 45.9029L9.12957 65.3786H36.2422L20.4276 38.1194L4.61301 65.3786H6.87134L20.4276 42.0111L32.8548 63.4327H12.5171L20.4276 49.7946L26.082 59.541H19.2984L21.561 55.6407L20.4276 53.6864Z" fill="#DA291C"/>
<path d="M-33.7934 5.15007L-42.0027 -9H-44.261L-37.1809 3.2042H-62.0352L-54.955 -9H-57.2132L-65.4227 5.15007H-33.7934Z" fill="#DA291C"/>
<path d="M-66.0907 -9L-67 -7.43438V-3.54263L-63.8345 -9H-66.0907Z" fill="#DA291C"/>
<path d="M-40.5683 1.25832L-46.5194 -9H-48.7755L-43.9537 -0.687549H-55.2624L-51.8706 -6.53367L-49.608 -2.63555H-47.3411L-51.0339 -9H-52.6967L-58.6477 1.25832H-40.5683Z" fill="#DA291C"/>
<path d="M-30.8541 2.16328L-37.3302 -9H-39.5886L-31.9833 4.10916L-30.8541 2.16328Z" fill="#DA291C"/>
<path d="M-1.03283 1.12449L-6.90702 -9H-9.16535L-4.42033 -0.821382H-20.2435L-15.4984 -9H-17.7568L-23.631 1.12449H-1.03283Z" fill="#DA291C"/>
<path d="M-31.9833 72.1256L-27.9939 78.9999H-25.7377L-31.9833 68.2338L-38.2289 78.9999H-35.9706L-31.9833 72.1256Z" fill="#DA291C"/>
<path d="M-31.9833 76.0173L-33.7123 78.9998H-30.2522L-31.9833 76.0173Z" fill="#DA291C"/>
<path d="M0.54461 76.0172L2.27567 78.9997H4.53182L0.54461 72.1254L-3.4427 78.9997H-1.18645L0.54461 76.0172Z" fill="#DA291C"/>
<path d="M2.80294 68.2338L1.67378 70.1797L6.79015 78.9999H9.04849L2.80294 68.2338Z" fill="#DA291C"/>
<path d="M-49.608 18.6542L-45.0829 10.8559H-58.6477L-49.608 26.4399L-38.31 6.96411H-65.4227L-49.608 34.2233L-33.7934 6.96411H-36.0517L-49.608 30.3316L-62.0352 8.90999H-41.6974L-49.608 22.546L-55.2624 12.8017H-48.4788L-50.7414 16.702L-49.608 18.6542Z" fill="#DA291C"/>
<path d="M2.80294 27.4808H5.06972L0.54461 19.6804L-6.23894 31.3726H11.8425L0.54461 11.8969L-13.0118 35.2643H18.6155L2.80294 8.00511L1.67378 9.95099L15.23 33.3185H-9.62425L0.54461 15.7886L8.45514 29.4267H-2.85144L0.540337 23.5806L2.80294 27.4808Z" fill="#DA291C"/>
<path d="M8.00041 69.1389H32.8548L27.1342 79H29.3926L36.2422 67.193H4.61301L11.4626 79H13.721L8.00041 69.1389Z" fill="#DA291C"/>
<path d="M14.7733 73.0305H26.082L22.6902 78.8766L20.4276 74.9764H18.1607L20.4959 78.9999H24.8759L29.4673 71.0847H11.3879L15.9793 78.9999H18.2376L14.7733 73.0305Z" fill="#DA291C"/>
<path d="M20.4276 -6.54216L15.9024 1.25832H29.4694L23.5163 -9H21.26L26.082 -0.687549H19.2984L21.561 -4.5878L20.4276 -6.54216Z" fill="#DA291C"/>
<path d="M20.4276 34.2233L21.5568 32.2775L8.00041 8.90999H32.8548L22.6859 26.4399L14.7733 12.8017H26.082L22.6902 18.6479L20.4276 14.7476H18.1607L22.6859 22.5481L29.4673 10.8559H11.3879L22.6859 30.3316L36.2422 6.96411H4.61301L20.4276 34.2233Z" fill="#DA291C"/>
<path d="M36.2422 5.15007L28.0329 -9H25.7745L32.8548 3.2042H12.5171L19.5972 -9H17.3389L9.12957 5.15007H36.2422Z" fill="#DA291C"/>
<path d="M-49.608 57.5951H-47.3411L-51.8663 49.7946L-58.6477 61.4869H-40.5683L-51.8663 42.0111L-65.4227 65.3786H-33.7934L-49.608 38.1194L-50.7371 40.0652L-37.1809 63.4327H-62.0352L-51.8663 45.9029L-43.9537 59.541H-55.2624L-51.8706 53.6949L-49.608 57.5951Z" fill="#DA291C"/>
<path d="M-31.9833 44.8621H-34.2502L-29.725 52.6626L-22.9415 40.9703H-41.023L-29.725 60.4461L-16.1687 37.0786H-47.7979L-31.9833 64.3378L-30.8541 62.3919L-44.4104 39.0245H-19.5561L-29.725 56.5543L-37.6355 42.9162H-26.3289L-29.7207 48.7623L-31.9833 44.8621Z" fill="#DA291C"/>
<path d="M-47.7979 35.2643H-45.5396L-31.9833 11.8969L-19.5561 33.3185H-39.8938L-31.9833 19.6804L-26.3289 29.4267H-33.1125L-30.8499 25.5265L-31.9833 23.5721L-36.5084 31.3726H-22.9415L-31.9833 15.7886L-43.2813 35.2643H-16.1687L-31.9833 8.00511L-47.7979 35.2643Z" fill="#DA291C"/>
<path d="M1.22332 67.3266H-30.4038L-29.2746 69.2725H-2.16199L-7.80564 78.9998H-5.5495L1.22332 67.3266Z" fill="#DA291C"/>
<path d="M-24.7601 73.1643H-8.93689L-12.3223 78.9998H-10.064L-5.5495 71.2185H-28.1475L-23.6331 78.9998H-21.3747L-24.7601 73.1643Z" fill="#DA291C"/>
<path d="M-13.4578 77.0646L-12.3244 75.1103H-21.3726L-19.1164 78.9999H-16.8582L-17.9809 77.0646H-13.4578Z" fill="#DA291C"/>
<path d="M-33.7934 67.193H-36.0517L-42.9013 79H-40.643L-33.7934 67.193Z" fill="#DA291C"/>
<path d="M-48.4788 73.0305L-50.7414 76.9308L-49.608 78.8852L-45.0829 71.0847H-58.6477L-54.0564 78.9999H-51.798L-55.2624 73.0305H-48.4788Z" fill="#DA291C"/>
<path d="M-62.0352 69.1389H-41.6974L-47.418 79H-45.1597L-38.31 67.193H-65.4227L-58.5729 79H-56.3146L-62.0352 69.1389Z" fill="#DA291C"/>
<path d="M0.0942563 63.2991H-27.0184L-14.5891 41.8775L-4.42033 59.4074H-20.2435L-14.5913 49.661L-11.1995 55.5071H-15.7247L-16.856 57.4615H-7.80773L-14.5891 45.7693L-23.631 61.3533H-1.03283L-14.5891 37.9858L-30.4038 65.245H1.22332L0.0942563 63.2991Z" fill="#DA291C"/>
<path d="M-29.2746 9.04401H-2.16199L-14.5913 30.4656L-24.7601 12.9358H-8.93689L-14.5891 22.6821L-17.9809 16.836H-13.4578L-12.3244 14.8816H-21.3726L-14.5913 26.5739L-5.5495 10.9899H-28.1475L-14.5891 34.3574L1.22332 7.09813H-30.4038L-29.2746 9.04401Z" fill="#DA291C"/>
<path d="M18.6155 37.0786H16.3592L2.80294 60.4461L-9.62425 39.0245H10.7135L2.80294 52.6626L-2.85144 42.9162H3.93211L1.6695 46.8165L2.80294 48.7687L7.32597 40.9703H-6.23894L2.80294 56.5543L14.1009 37.0786H-13.0118L2.80294 64.3378L18.6155 37.0786Z" fill="#DA291C"/>
<path d="M-28.8925 -9H-30.5553L-29.725 -7.56821L-28.8925 -9Z" fill="#DA291C"/>
<path d="M-67 37.2124V39.1583H-54.5729L-67 60.5799V64.4716L-51.1875 37.2124H-67Z" fill="#DA291C"/>
<path d="M-67 68.1V71.9918L-62.9338 78.9999H-60.6776L-67 68.1Z" fill="#DA291C"/>
<path d="M-67 75.8835V78.9998H-65.1921L-67 75.8835Z" fill="#DA291C"/>
<path d="M-67 41.1042V43.0501H-61.3478L-67 52.7964V56.6882L-57.9603 41.1042H-67Z" fill="#DA291C"/>
<path d="M80.4438 -9H78.1854L75.0969 -3.67646L72.0061 -9H69.7498L75.0969 0.217412L80.4438 -9Z" fill="#DA291C"/>
<path d="M87.9637 -2.76945H90V-4.7217H89.0971L87.9637 -2.76945Z" fill="#DA291C"/>
<path d="M90 5.01624V3.07037H77.8034L84.8067 -9H82.5484L74.416 5.01624H90Z" fill="#DA291C"/>
<path d="M37.8196 7.87151L22.0071 35.1307H53.6342L52.5051 33.1849H25.3925L37.8196 11.7633L47.9906 29.2931H32.1674L37.8196 19.5468L41.2114 25.3929H36.6862L35.5528 27.3472H44.6032L37.8196 15.655L28.7799 31.239H51.376L37.8196 7.87151Z" fill="#DA291C"/>
<path d="M37.8196 4.24298L45.5039 -9H43.2456L37.8196 0.349119V0.351245L32.3958 -9H30.1376L37.8196 4.24298Z" fill="#DA291C"/>
<path d="M71.0263 5.15007L62.8169 -9H60.5608L67.641 3.2042H42.7867L49.8647 -9H47.6085L39.3992 5.15007H71.0263Z" fill="#DA291C"/>
<path d="M37.8196 -3.54263L40.9872 -9H38.729L37.8196 -7.43438L36.9104 -9H34.6541L37.8196 -3.54263Z" fill="#DA291C"/>
<path d="M64.2534 1.25832L58.3024 -9H56.0441L60.8661 -0.687549H49.5595L52.9512 -6.53367L55.2117 -2.63555H57.4785L53.7858 -9H52.1231L46.172 1.25832H64.2534Z" fill="#DA291C"/>
<path d="M73.9677 2.16328L67.4916 -9H65.2333L72.8385 4.10916L73.9677 2.16328Z" fill="#DA291C"/>
<path d="M90 1.12449V-0.821382H84.5784L89.3213 -9H87.063L81.1909 1.12449H90Z" fill="#DA291C"/>
<path d="M72.8385 76.0173L71.1075 78.9998H74.5696L72.8385 76.0173Z" fill="#DA291C"/>
<path d="M72.8385 72.1256L76.8258 78.9999H79.0841L72.8385 68.2338L66.5929 78.9999H68.8512L72.8385 72.1256Z" fill="#DA291C"/>
<path d="M55.2117 18.6542L59.7369 10.8559H46.172L55.2117 26.4399L66.5118 6.96411H39.3992L55.2117 34.2233L71.0263 6.96411H68.768L55.2117 30.3316L42.7867 8.90999H63.1243L55.2139 22.546L49.5595 12.8017H56.343L54.0804 16.702L55.2117 18.6542Z" fill="#DA291C"/>
<path d="M55.2117 38.1194L54.0847 40.0652L67.641 63.4327H42.7867L52.9555 45.9029L60.8661 59.541H49.5595L52.9512 53.6949L55.2117 57.5951H57.4785L52.9555 49.7946L46.172 61.4869H64.2534L52.9555 42.0111L39.3992 65.3786H71.0263L55.2117 38.1194Z" fill="#DA291C"/>
<path d="M72.8385 44.8621H70.5716L75.0969 52.6626L81.8782 40.9703H63.7967L75.0969 60.4461L88.6531 37.0786H57.0239L72.8385 64.3378L73.9677 62.3919L60.4113 39.0245H85.2657L75.0969 56.5543L67.1841 42.9162H78.4928L75.1011 48.7623L72.8385 44.8621Z" fill="#DA291C"/>
<path d="M72.8385 23.5721L68.3133 31.3726H81.8782L72.8385 15.7886L61.5405 35.2643H88.6531L72.8385 8.00511L57.0239 35.2643H59.2822L72.8385 11.8969L85.2657 33.3185H64.9259L72.8385 19.6804L78.4928 29.4267H71.7094L73.972 25.5265L72.8385 23.5721Z" fill="#DA291C"/>
<path d="M85.7053 78.9999H87.9616L86.8388 77.0646H90V75.1103H83.4492L85.7053 78.9999Z" fill="#DA291C"/>
<path d="M80.0617 73.1643H90V71.2185H76.6743L81.1888 78.9998H83.4471L80.0617 73.1643Z" fill="#DA291C"/>
<path d="M75.5451 69.2725H90V67.3266H74.416L75.5451 69.2725Z" fill="#DA291C"/>
<path d="M56.343 73.0305L54.0804 76.9308L55.2117 78.8852L59.7369 71.0847H46.172L50.7634 78.9999H53.0217L49.5595 73.0305H56.343Z" fill="#DA291C"/>
<path d="M71.0263 67.193H68.768L61.9183 79H64.1766L71.0263 67.193Z" fill="#DA291C"/>
<path d="M42.7867 69.1389H63.1243L57.4038 79H59.6622L66.5118 67.193H39.3992L46.2489 79H48.5071L42.7867 69.1389Z" fill="#DA291C"/>
<path d="M90 61.3531V59.4073H84.5784L90 50.0603V46.1685L81.1909 61.3531H90Z" fill="#DA291C"/>
<path d="M87.9637 57.4614H90V55.507H89.0971L87.9637 57.4614Z" fill="#DA291C"/>
<path d="M90 63.2989H77.8034L90 42.2767V38.3828L74.416 65.2448H90V63.2989Z" fill="#DA291C"/>
<path d="M90 7.09813H74.416L75.5451 9.04401H90V7.09813Z" fill="#DA291C"/>
<path d="M90 30.0663L80.0617 12.9358H90V10.9899H76.6743L90 33.958V30.0663Z" fill="#DA291C"/>
<path d="M90 26.1746V22.2829L86.8388 16.8361H90V14.8818H83.4492L90 26.1746Z" fill="#DA291C"/>
<path d="M75.9272 -9H74.2644L75.0969 -7.56821L75.9272 -9Z" fill="#DA291C"/>
<path d="M37.8196 71.9918L41.8858 78.9999H44.1442L37.8196 68.1L31.4972 78.9999H33.7555L37.8196 71.9918Z" fill="#DA291C"/>
<path d="M37.8196 75.8835L36.0118 78.9998H39.6276L37.8196 75.8835Z" fill="#DA291C"/>
<path d="M37.8196 64.4716L53.6342 37.2124H22.0071L23.1342 39.1583H50.2468L37.8196 60.5799L27.6508 43.05H43.474L37.8196 52.7964L34.4279 46.9503H38.9531L40.0865 44.9959H31.0383L37.8196 56.6881L46.8614 41.1041H24.2634L37.8196 64.4716Z" fill="#DA291C"/>
</g>
</svg>
